ply
format ascii 1.0
comment Created by Blender 2.82 (sub 7) - www.blender.org, source file: ''
element vertex 8
property float x
property float y
property float z
element face 6
property list uchar uint vertex_indices
end_header
1.000000 1.000000 1.000000
-1.000000 1.000000 1.000000
-1.000000 -1.000000 1.000000
1.000000 -1.000000 1.000000
1.000000 -1.000000 -1.000000
-1.000000 -1.000000 -1.000000
-1.000000 1.000000 -1.000000
1.000000 1.000000 -1.000000
4 0 1 2 3
4 4 3 2 5
4 5 2 1 6
4 6 7 4 5
4 7 0 3 4
4 6 1 0 7
