ply
format ascii 1.0
comment Created by Blender 2.82 (sub 7) - www.blender.org, source file: ''
element vertex 482
property float x
property float y
property float z
element face 512
property list uchar uint vertex_indices
end_header
0.000000 0.195090 -0.980785
0.000000 0.382683 -0.923880
0.074658 0.375330 -0.923880
0.038060 0.191341 -0.980785
0.000000 1.000000 0.000000
0.000000 0.980785 0.195090
0.191342 0.961940 0.195090
0.195090 0.980785 0.000000
0.000000 0.195090 0.980785
-0.000000 -0.000001 1.000000
0.038060 0.191342 0.980785
0.000000 -0.000000 -1.000000
0.000000 0.980785 -0.195090
0.191342 0.961940 -0.195090
0.000000 0.382683 0.923880
0.074658 0.375330 0.923880
0.000000 0.923879 -0.382683
0.180240 0.906127 -0.382683
0.000000 0.555570 0.831470
0.108386 0.544895 0.831470
0.000000 0.831469 -0.555570
0.162212 0.815493 -0.555570
0.000000 0.707107 0.707107
0.137950 0.693520 0.707107
0.000000 0.707106 -0.707107
0.137950 0.693520 -0.707107
0.000000 0.831470 0.555570
0.162212 0.815493 0.555570
0.000000 0.555570 -0.831470
0.108386 0.544895 -0.831470
0.000000 0.923880 0.382683
0.180240 0.906127 0.382683
0.212608 0.513280 -0.831470
0.146447 0.353553 -0.923880
0.353553 0.853553 0.382683
0.375330 0.906127 0.195090
0.074658 0.180240 -0.980785
0.382684 0.923879 0.000000
0.074658 0.180240 0.980785
0.375330 0.906127 -0.195090
0.146447 0.353553 0.923880
0.353554 0.853553 -0.382683
0.212608 0.513280 0.831470
0.318190 0.768178 -0.555570
0.270598 0.653281 0.707107
0.270598 0.653281 -0.707107
0.318190 0.768178 0.555570
0.212608 0.318190 0.923880
0.308658 0.461940 0.831470
0.513280 0.768178 -0.382683
0.461940 0.691342 -0.555570
0.392848 0.587938 0.707107
0.392848 0.587938 -0.707107
0.461940 0.691342 0.555570
0.308658 0.461940 -0.831470
0.513280 0.768178 0.382683
0.212608 0.318189 -0.923880
0.544895 0.815493 0.195090
0.108386 0.162211 -0.980785
0.555570 0.831469 0.000000
0.108387 0.162212 0.980785
0.544895 0.815493 -0.195090
0.653282 0.653281 0.382683
0.693520 0.693520 0.195090
0.270598 0.270598 -0.923880
0.137950 0.137949 -0.980785
0.707107 0.707107 0.000000
0.137950 0.137950 0.980785
0.693520 0.693520 -0.195090
0.270598 0.270598 0.923880
0.653282 0.653281 -0.382683
0.392848 0.392847 0.831470
0.587938 0.587938 -0.555570
0.500000 0.500000 0.707107
0.500000 0.500000 -0.707107
0.587938 0.587938 0.555570
0.392848 0.392847 -0.831470
0.768178 0.513280 -0.382683
0.691342 0.461940 -0.555570
0.461940 0.308658 0.831470
0.587938 0.392847 0.707107
0.587938 0.392847 -0.707107
0.691342 0.461940 0.555570
0.461940 0.308658 -0.831470
0.768178 0.513280 0.382683
0.318190 0.212607 -0.923880
0.815493 0.544895 0.195090
0.162212 0.108386 -0.980785
0.831470 0.555570 0.000000
0.162212 0.108386 0.980785
0.815493 0.544895 -0.195090
0.318190 0.212607 0.923880
0.353554 0.146446 -0.923880
0.180240 0.074658 -0.980785
0.906128 0.375330 0.195090
0.923880 0.382683 0.000000
0.180240 0.074658 0.980785
0.906128 0.375330 -0.195090
0.353554 0.146446 0.923880
0.853554 0.353553 -0.382683
0.513280 0.212607 0.831470
0.768178 0.318189 -0.555570
0.653282 0.270598 0.707107
0.653282 0.270598 -0.707107
0.768178 0.318189 0.555570
0.513280 0.212607 -0.831470
0.853554 0.353553 0.382683
0.815493 0.162211 -0.555570
0.693520 0.137949 -0.707107
0.693520 0.137949 0.707107
0.815493 0.162211 0.555570
0.544895 0.108386 -0.831470
0.906128 0.180240 0.382683
0.375330 0.074658 -0.923880
0.961940 0.191341 0.195090
0.191342 0.038060 -0.980785
0.980785 0.195090 0.000000
0.191342 0.038060 0.980785
0.961940 0.191341 -0.195090
0.375331 0.074658 0.923880
0.906128 0.180240 -0.382683
0.544895 0.108386 0.831470
0.195091 -0.000000 0.980785
0.195090 -0.000000 -0.980785
1.000000 -0.000000 0.000000
0.980785 -0.000000 -0.195090
0.382684 -0.000000 0.923880
0.923880 -0.000000 -0.382683
0.555570 -0.000000 0.831470
0.831470 -0.000000 -0.555570
0.707107 -0.000000 0.707107
0.707107 -0.000000 -0.707107
0.831470 -0.000000 0.555570
0.555570 -0.000000 -0.831470
0.923880 -0.000000 0.382683
0.382684 -0.000000 -0.923880
0.980785 -0.000000 0.195090
0.693520 -0.137950 0.707107
0.815493 -0.162212 0.555570
0.693520 -0.137950 -0.707107
0.544895 -0.108387 -0.831470
0.906128 -0.180240 0.382683
0.375330 -0.074658 -0.923880
0.961940 -0.191342 0.195090
0.191342 -0.038061 -0.980785
0.980785 -0.195091 0.000000
0.191342 -0.038061 0.980785
0.961940 -0.191342 -0.195090
0.375331 -0.074658 0.923880
0.906128 -0.180240 -0.382683
0.544895 -0.108387 0.831470
0.815493 -0.162212 -0.555570
0.923880 -0.382684 0.000000
0.906127 -0.375331 -0.195090
0.180240 -0.074658 0.980785
0.353554 -0.146447 0.923880
0.853554 -0.353554 -0.382683
0.513280 -0.212608 0.831470
0.768178 -0.318190 -0.555570
0.653282 -0.270598 0.707107
0.653282 -0.270598 -0.707107
0.768178 -0.318190 0.555570
0.513280 -0.212608 -0.831470
0.853554 -0.353554 0.382683
0.353553 -0.146447 -0.923880
0.906127 -0.375331 0.195090
0.180240 -0.074658 -0.980785
0.587938 -0.392848 -0.707107
0.461940 -0.308659 -0.831470
0.691342 -0.461940 0.555570
0.768178 -0.513280 0.382683
0.318190 -0.212608 -0.923880
0.815493 -0.544895 0.195090
0.162212 -0.108387 -0.980785
0.831470 -0.555571 0.000000
0.162212 -0.108387 0.980785
0.815493 -0.544895 -0.195090
0.318190 -0.212608 0.923880
0.768178 -0.513280 -0.382683
0.461940 -0.308659 0.831470
0.691342 -0.461940 -0.555570
0.587938 -0.392848 0.707107
0.137950 -0.137950 0.980785
0.270598 -0.270599 0.923880
0.693520 -0.693520 -0.195090
0.653282 -0.653282 -0.382683
0.392848 -0.392848 0.831470
0.587938 -0.587938 -0.555570
0.500000 -0.500000 0.707107
0.500000 -0.500000 -0.707107
0.587938 -0.587938 0.555570
0.392848 -0.392848 -0.831470
0.653282 -0.653282 0.382683
0.270598 -0.270598 -0.923880
0.693520 -0.693520 0.195090
0.137950 -0.137950 -0.980785
0.707107 -0.707107 0.000000
0.461940 -0.691342 0.555570
0.513280 -0.768178 0.382683
0.308658 -0.461940 -0.831470
0.212608 -0.318190 -0.923880
0.544895 -0.815493 0.195090
0.108386 -0.162212 -0.980785
0.555570 -0.831470 0.000000
0.108386 -0.162212 0.980785
0.544895 -0.815493 -0.195090
0.212608 -0.318190 0.923880
0.513280 -0.768178 -0.382683
0.308658 -0.461940 0.831470
0.461940 -0.691342 -0.555570
0.392848 -0.587938 0.707107
0.392848 -0.587938 -0.707107
0.375330 -0.906128 -0.195090
0.353553 -0.853554 -0.382683
0.146447 -0.353554 0.923880
0.212608 -0.513280 0.831470
0.318190 -0.768178 -0.555570
0.270598 -0.653282 0.707107
0.270598 -0.653282 -0.707107
0.318190 -0.768178 0.555570
0.212608 -0.513280 -0.831470
0.353553 -0.853554 0.382683
0.146447 -0.353554 -0.923880
0.375330 -0.906128 0.195090
0.074658 -0.180240 -0.980785
0.382683 -0.923880 0.000000
0.074658 -0.180240 0.980785
0.108386 -0.544895 -0.831470
0.074658 -0.375331 -0.923880
0.180240 -0.906128 0.382683
0.191342 -0.961940 0.195090
0.038060 -0.191342 -0.980785
0.195090 -0.980786 0.000000
0.038060 -0.191342 0.980785
0.191342 -0.961940 -0.195090
0.074658 -0.375331 0.923880
0.180240 -0.906128 -0.382683
0.108386 -0.544896 0.831470
0.162212 -0.815493 -0.555570
0.137950 -0.693520 0.707107
0.137950 -0.693520 -0.707107
0.162212 -0.815493 0.555570
0.000000 -0.923880 -0.382683
-0.000000 -0.831470 -0.555570
0.000000 -0.555571 0.831470
-0.000000 -0.707107 0.707107
-0.000000 -0.707107 -0.707107
-0.000000 -0.831470 0.555570
-0.000000 -0.555570 -0.831470
0.000000 -0.923880 0.382683
0.000000 -0.382684 -0.923880
-0.000000 -0.980785 0.195090
0.000000 -0.195091 -0.980785
-0.000000 -1.000000 0.000000
-0.000000 -0.195091 0.980785
-0.000000 -0.980785 -0.195090
0.000000 -0.382684 0.923880
-0.074658 -0.375331 -0.923880
-0.038060 -0.191342 -0.980785
-0.191342 -0.961940 0.195090
-0.195090 -0.980786 0.000000
-0.038060 -0.191342 0.980785
-0.191342 -0.961940 -0.195090
-0.074658 -0.375331 0.923880
-0.180240 -0.906128 -0.382683
-0.108386 -0.544896 0.831470
-0.162212 -0.815493 -0.555570
-0.137950 -0.693520 0.707107
-0.137950 -0.693520 -0.707107
-0.162212 -0.815493 0.555570
-0.108386 -0.544895 -0.831470
-0.180240 -0.906128 0.382683
-0.212608 -0.513280 0.831470
-0.270598 -0.653282 0.707107
-0.318190 -0.768178 -0.555570
-0.270598 -0.653282 -0.707107
-0.318190 -0.768178 0.555570
-0.212608 -0.513280 -0.831470
-0.353553 -0.853554 0.382683
-0.146447 -0.353554 -0.923880
-0.375330 -0.906127 0.195090
-0.074658 -0.180240 -0.980785
-0.382684 -0.923880 0.000000
-0.074658 -0.180240 0.980785
-0.375330 -0.906127 -0.195090
-0.146447 -0.353554 0.923880
-0.353553 -0.853554 -0.382683
-0.544895 -0.815493 0.195090
-0.555570 -0.831470 0.000000
-0.108386 -0.162212 0.980785
-0.108386 -0.162212 -0.980785
-0.544895 -0.815493 -0.195090
-0.212608 -0.318190 0.923880
-0.513280 -0.768178 -0.382683
-0.308658 -0.461940 0.831470
-0.461940 -0.691342 -0.555570
-0.392847 -0.587938 0.707107
-0.392847 -0.587938 -0.707107
-0.461940 -0.691342 0.555570
-0.308658 -0.461940 -0.831470
-0.513280 -0.768178 0.382683
-0.212607 -0.318190 -0.923880
-0.587938 -0.587938 -0.555570
-0.500000 -0.500000 -0.707107
-0.500000 -0.500000 0.707107
-0.587938 -0.587938 0.555570
-0.392847 -0.392848 -0.831470
-0.653281 -0.653282 0.382683
-0.270598 -0.270598 -0.923880
-0.693520 -0.693520 0.195090
-0.137950 -0.137950 -0.980785
-0.707107 -0.707107 0.000000
-0.137950 -0.137950 0.980785
-0.693520 -0.693520 -0.195090
-0.270598 -0.270598 0.923880
-0.653281 -0.653282 -0.382683
-0.392848 -0.392848 0.831470
-0.162212 -0.108387 0.980785
-0.162212 -0.108387 -0.980785
-0.831470 -0.555570 0.000000
-0.815493 -0.544895 -0.195090
-0.318190 -0.212608 0.923880
-0.768178 -0.513280 -0.382683
-0.461940 -0.308659 0.831470
-0.691342 -0.461940 -0.555570
-0.587938 -0.392848 0.707107
-0.587938 -0.392848 -0.707107
-0.691342 -0.461940 0.555570
-0.461940 -0.308658 -0.831470
-0.768178 -0.513280 0.382683
-0.318190 -0.212608 -0.923880
-0.815493 -0.544895 0.195090
-0.653281 -0.270598 0.707107
-0.768177 -0.318190 0.555570
-0.653281 -0.270598 -0.707107
-0.513280 -0.212608 -0.831470
-0.853553 -0.353554 0.382683
-0.353553 -0.146447 -0.923880
-0.906127 -0.375330 0.195090
-0.180240 -0.074658 -0.980785
-0.923880 -0.382684 0.000000
-0.180240 -0.074658 0.980785
-0.906127 -0.375330 -0.195090
-0.353553 -0.146447 0.923880
-0.853553 -0.353554 -0.382683
-0.513280 -0.212608 0.831470
-0.768177 -0.318190 -0.555570
-0.980785 -0.195090 0.000000
-0.961939 -0.191342 -0.195090
-0.191342 -0.038061 0.980785
-0.375330 -0.074658 0.923880
-0.906127 -0.180240 -0.382683
-0.544895 -0.108387 0.831470
-0.815493 -0.162212 -0.555570
-0.693520 -0.137950 0.707107
-0.693520 -0.137950 -0.707107
-0.815493 -0.162212 0.555570
-0.544895 -0.108387 -0.831470
-0.906127 -0.180240 0.382683
-0.375330 -0.074658 -0.923880
-0.961939 -0.191342 0.195090
-0.191342 -0.038061 -0.980785
-0.707107 -0.000000 -0.707107
-0.555570 -0.000000 -0.831470
-0.831469 -0.000000 0.555570
-0.923879 -0.000000 0.382683
-0.382683 -0.000000 -0.923880
-0.980785 -0.000000 0.195090
-0.195090 -0.000000 -0.980785
-1.000000 -0.000000 0.000000
-0.195090 -0.000000 0.980785
-0.980785 -0.000000 -0.195090
-0.382683 -0.000000 0.923880
-0.923879 -0.000000 -0.382683
-0.555570 -0.000000 0.831470
-0.831469 -0.000000 -0.555570
-0.707107 -0.000000 0.707107
-0.961939 0.191342 -0.195090
-0.906127 0.180240 -0.382683
-0.375330 0.074658 0.923880
-0.544895 0.108386 0.831470
-0.815493 0.162211 -0.555570
-0.693520 0.137949 0.707107
-0.693520 0.137949 -0.707107
-0.815493 0.162211 0.555570
-0.544895 0.108386 -0.831470
-0.906127 0.180240 0.382683
-0.375330 0.074658 -0.923880
-0.961939 0.191342 0.195090
-0.191342 0.038060 -0.980785
-0.980785 0.195090 0.000000
-0.191342 0.038060 0.980785
-0.513280 0.212607 -0.831470
-0.353553 0.146446 -0.923880
-0.853553 0.353553 0.382683
-0.906127 0.375330 0.195090
-0.180240 0.074657 -0.980785
-0.923879 0.382683 0.000000
-0.180240 0.074658 0.980785
-0.906127 0.375330 -0.195090
-0.353553 0.146446 0.923880
-0.853553 0.353553 -0.382683
-0.513280 0.212607 0.831470
-0.768177 0.318189 -0.555570
-0.653281 0.270598 0.707107
-0.653281 0.270598 -0.707107
-0.768177 0.318189 0.555570
-0.318190 0.212607 0.923880
-0.461940 0.308658 0.831470
-0.768178 0.513280 -0.382683
-0.691341 0.461939 -0.555570
-0.587938 0.392847 0.707107
-0.587938 0.392847 -0.707107
-0.691341 0.461939 0.555570
-0.461940 0.308658 -0.831470
-0.768178 0.513280 0.382683
-0.318189 0.212607 -0.923880
-0.815493 0.544895 0.195090
-0.162212 0.108386 -0.980785
-0.831469 0.555570 0.000000
-0.162212 0.108386 0.980785
-0.815493 0.544895 -0.195090
-0.653281 0.653281 0.382683
-0.693519 0.693519 0.195090
-0.270598 0.270598 -0.923880
-0.137950 0.137949 -0.980785
-0.707106 0.707106 0.000000
-0.137950 0.137949 0.980785
-0.693519 0.693519 -0.195090
-0.270598 0.270598 0.923880
-0.653281 0.653281 -0.382683
-0.392847 0.392847 0.831470
-0.587937 0.587937 -0.555570
-0.500000 0.500000 0.707107
-0.500000 0.500000 -0.707107
-0.587937 0.587937 0.555570
-0.392847 0.392847 -0.831470
-0.513280 0.768177 -0.382683
-0.461939 0.691341 -0.555570
-0.308658 0.461939 0.831470
-0.392847 0.587937 0.707107
-0.392847 0.587937 -0.707107
-0.461939 0.691341 0.555570
-0.308658 0.461939 -0.831470
-0.513280 0.768177 0.382683
-0.212607 0.318189 -0.923880
-0.544895 0.815492 0.195090
-0.108386 0.162211 -0.980785
-0.555570 0.831469 0.000000
-0.108386 0.162211 0.980785
-0.544895 0.815492 -0.195090
-0.212607 0.318189 0.923880
-0.146446 0.353553 -0.923880
-0.074658 0.180240 -0.980785
-0.375330 0.906127 0.195090
-0.382683 0.923879 0.000000
-0.074658 0.180240 0.980785
-0.375330 0.906127 -0.195090
-0.146447 0.353553 0.923880
-0.353553 0.853553 -0.382683
-0.212607 0.513280 0.831470
-0.318189 0.768177 -0.555570
-0.270598 0.653281 0.707107
-0.270598 0.653281 -0.707107
-0.318189 0.768177 0.555570
-0.212607 0.513279 -0.831470
-0.353553 0.853553 0.382683
-0.108386 0.544895 0.831470
-0.137950 0.693520 0.707107
-0.162211 0.815492 -0.555570
-0.137950 0.693520 -0.707107
-0.162211 0.815492 0.555570
-0.108386 0.544895 -0.831470
-0.180240 0.906127 0.382683
-0.074658 0.375330 -0.923880
-0.191341 0.961939 0.195090
-0.038060 0.191341 -0.980785
-0.195090 0.980785 0.000000
-0.038060 0.191342 0.980785
-0.191341 0.961939 -0.195090
-0.074658 0.375330 0.923880
-0.180240 0.906127 -0.382683
4 0 1 2 3
4 4 5 6 7
3 8 9 10
3 11 0 3
4 12 4 7 13
4 14 8 10 15
4 16 12 13 17
4 18 14 15 19
4 20 16 17 21
4 22 18 19 23
4 24 20 21 25
4 26 22 23 27
4 28 24 25 29
4 30 26 27 31
4 1 28 29 2
4 5 30 31 6
4 2 29 32 33
4 6 31 34 35
4 3 2 33 36
4 7 6 35 37
3 10 9 38
3 11 3 36
4 13 7 37 39
4 15 10 38 40
4 17 13 39 41
4 19 15 40 42
4 21 17 41 43
4 23 19 42 44
4 25 21 43 45
4 27 23 44 46
4 29 25 45 32
4 31 27 46 34
4 42 40 47 48
4 43 41 49 50
4 44 42 48 51
4 45 43 50 52
4 46 44 51 53
4 32 45 52 54
4 34 46 53 55
4 33 32 54 56
4 35 34 55 57
4 36 33 56 58
4 37 35 57 59
3 38 9 60
3 11 36 58
4 39 37 59 61
4 40 38 60 47
4 41 39 61 49
4 57 55 62 63
4 58 56 64 65
4 59 57 63 66
3 60 9 67
3 11 58 65
4 61 59 66 68
4 47 60 67 69
4 49 61 68 70
4 48 47 69 71
4 50 49 70 72
4 51 48 71 73
4 52 50 72 74
4 53 51 73 75
4 54 52 74 76
4 55 53 75 62
4 56 54 76 64
4 72 70 77 78
4 73 71 79 80
4 74 72 78 81
4 75 73 80 82
4 76 74 81 83
4 62 75 82 84
4 64 76 83 85
4 63 62 84 86
4 65 64 85 87
4 66 63 86 88
3 67 9 89
3 11 65 87
4 68 66 88 90
4 69 67 89 91
4 70 68 90 77
4 71 69 91 79
4 87 85 92 93
4 88 86 94 95
3 89 9 96
3 11 87 93
4 90 88 95 97
4 91 89 96 98
4 77 90 97 99
4 79 91 98 100
4 78 77 99 101
4 80 79 100 102
4 81 78 101 103
4 82 80 102 104
4 83 81 103 105
4 84 82 104 106
4 85 83 105 92
4 86 84 106 94
4 103 101 107 108
4 104 102 109 110
4 105 103 108 111
4 106 104 110 112
4 92 105 111 113
4 94 106 112 114
4 93 92 113 115
4 95 94 114 116
3 96 9 117
3 11 93 115
4 97 95 116 118
4 98 96 117 119
4 99 97 118 120
4 100 98 119 121
4 101 99 120 107
4 102 100 121 109
3 117 9 122
3 11 115 123
4 118 116 124 125
4 119 117 122 126
4 120 118 125 127
4 121 119 126 128
4 107 120 127 129
4 109 121 128 130
4 108 107 129 131
4 110 109 130 132
4 111 108 131 133
4 112 110 132 134
4 113 111 133 135
4 114 112 134 136
4 115 113 135 123
4 116 114 136 124
4 132 130 137 138
4 133 131 139 140
4 134 132 138 141
4 135 133 140 142
4 136 134 141 143
4 123 135 142 144
4 124 136 143 145
3 122 9 146
3 11 123 144
4 125 124 145 147
4 126 122 146 148
4 127 125 147 149
4 128 126 148 150
4 129 127 149 151
4 130 128 150 137
4 131 129 151 139
4 147 145 152 153
4 148 146 154 155
4 149 147 153 156
4 150 148 155 157
4 151 149 156 158
4 137 150 157 159
4 139 151 158 160
4 138 137 159 161
4 140 139 160 162
4 141 138 161 163
4 142 140 162 164
4 143 141 163 165
4 144 142 164 166
4 145 143 165 152
3 146 9 154
3 11 144 166
4 162 160 167 168
4 163 161 169 170
4 164 162 168 171
4 165 163 170 172
4 166 164 171 173
4 152 165 172 174
3 154 9 175
3 11 166 173
4 153 152 174 176
4 155 154 175 177
4 156 153 176 178
4 157 155 177 179
4 158 156 178 180
4 159 157 179 181
4 160 158 180 167
4 161 159 181 169
4 177 175 182 183
4 178 176 184 185
4 179 177 183 186
4 180 178 185 187
4 181 179 186 188
4 167 180 187 189
4 169 181 188 190
4 168 167 189 191
4 170 169 190 192
4 171 168 191 193
4 172 170 192 194
4 173 171 193 195
4 174 172 194 196
3 175 9 182
3 11 173 195
4 176 174 196 184
4 192 190 197 198
4 193 191 199 200
4 194 192 198 201
4 195 193 200 202
4 196 194 201 203
3 182 9 204
3 11 195 202
4 184 196 203 205
4 183 182 204 206
4 185 184 205 207
4 186 183 206 208
4 187 185 207 209
4 188 186 208 210
4 189 187 209 211
4 190 188 210 197
4 191 189 211 199
4 207 205 212 213
4 208 206 214 215
4 209 207 213 216
4 210 208 215 217
4 211 209 216 218
4 197 210 217 219
4 199 211 218 220
4 198 197 219 221
4 200 199 220 222
4 201 198 221 223
4 202 200 222 224
4 203 201 223 225
3 204 9 226
3 11 202 224
4 205 203 225 212
4 206 204 226 214
4 222 220 227 228
4 223 221 229 230
4 224 222 228 231
4 225 223 230 232
3 226 9 233
3 11 224 231
4 212 225 232 234
4 214 226 233 235
4 213 212 234 236
4 215 214 235 237
4 216 213 236 238
4 217 215 237 239
4 218 216 238 240
4 219 217 239 241
4 220 218 240 227
4 221 219 241 229
4 238 236 242 243
4 239 237 244 245
4 240 238 243 246
4 241 239 245 247
4 227 240 246 248
4 229 241 247 249
4 228 227 248 250
4 230 229 249 251
4 231 228 250 252
4 232 230 251 253
3 233 9 254
3 11 231 252
4 234 232 253 255
4 235 233 254 256
4 236 234 255 242
4 237 235 256 244
4 252 250 257 258
4 253 251 259 260
3 254 9 261
3 11 252 258
4 255 253 260 262
4 256 254 261 263
4 242 255 262 264
4 244 256 263 265
4 243 242 264 266
4 245 244 265 267
4 246 243 266 268
4 247 245 267 269
4 248 246 268 270
4 249 247 269 271
4 250 248 270 257
4 251 249 271 259
4 267 265 272 273
4 268 266 274 275
4 269 267 273 276
4 270 268 275 277
4 271 269 276 278
4 257 270 277 279
4 259 271 278 280
4 258 257 279 281
4 260 259 280 282
3 261 9 283
3 11 258 281
4 262 260 282 284
4 263 261 283 285
4 264 262 284 286
4 265 263 285 272
4 266 264 286 274
4 282 280 287 288
3 283 9 289
3 11 281 290
4 284 282 288 291
4 285 283 289 292
4 286 284 291 293
4 272 285 292 294
4 274 286 293 295
4 273 272 294 296
4 275 274 295 297
4 276 273 296 298
4 277 275 297 299
4 278 276 298 300
4 279 277 299 301
4 280 278 300 287
4 281 279 301 290
4 297 295 302 303
4 298 296 304 305
4 299 297 303 306
4 300 298 305 307
4 301 299 306 308
4 287 300 307 309
4 290 301 308 310
4 288 287 309 311
3 289 9 312
3 11 290 310
4 291 288 311 313
4 292 289 312 314
4 293 291 313 315
4 294 292 314 316
4 295 293 315 302
4 296 294 316 304
3 312 9 317
3 11 310 318
4 313 311 319 320
4 314 312 317 321
4 315 313 320 322
4 316 314 321 323
4 302 315 322 324
4 304 316 323 325
4 303 302 324 326
4 305 304 325 327
4 306 303 326 328
4 307 305 327 329
4 308 306 328 330
4 309 307 329 331
4 310 308 330 318
4 311 309 331 319
4 327 325 332 333
4 328 326 334 335
4 329 327 333 336
4 330 328 335 337
4 331 329 336 338
4 318 330 337 339
4 319 331 338 340
3 317 9 341
3 11 318 339
4 320 319 340 342
4 321 317 341 343
4 322 320 342 344
4 323 321 343 345
4 324 322 344 346
4 325 323 345 332
4 326 324 346 334
4 342 340 347 348
4 343 341 349 350
4 344 342 348 351
4 345 343 350 352
4 346 344 351 353
4 332 345 352 354
4 334 346 353 355
4 333 332 354 356
4 335 334 355 357
4 336 333 356 358
4 337 335 357 359
4 338 336 358 360
4 339 337 359 361
4 340 338 360 347
3 341 9 349
3 11 339 361
4 357 355 362 363
4 358 356 364 365
4 359 357 363 366
4 360 358 365 367
4 361 359 366 368
4 347 360 367 369
3 349 9 370
3 11 361 368
4 348 347 369 371
4 350 349 370 372
4 351 348 371 373
4 352 350 372 374
4 353 351 373 375
4 354 352 374 376
4 355 353 375 362
4 356 354 376 364
4 373 371 377 378
4 374 372 379 380
4 375 373 378 381
4 376 374 380 382
4 362 375 381 383
4 364 376 382 384
4 363 362 383 385
4 365 364 384 386
4 366 363 385 387
4 367 365 386 388
4 368 366 387 389
4 369 367 388 390
3 370 9 391
3 11 368 389
4 371 369 390 377
4 372 370 391 379
4 387 385 392 393
4 388 386 394 395
4 389 387 393 396
4 390 388 395 397
3 391 9 398
3 11 389 396
4 377 390 397 399
4 379 391 398 400
4 378 377 399 401
4 380 379 400 402
4 381 378 401 403
4 382 380 402 404
4 383 381 403 405
4 384 382 404 406
4 385 383 405 392
4 386 384 406 394
4 402 400 407 408
4 403 401 409 410
4 404 402 408 411
4 405 403 410 412
4 406 404 411 413
4 392 405 412 414
4 394 406 413 415
4 393 392 414 416
4 395 394 415 417
4 396 393 416 418
4 397 395 417 419
3 398 9 420
3 11 396 418
4 399 397 419 421
4 400 398 420 407
4 401 399 421 409
4 417 415 422 423
4 418 416 424 425
4 419 417 423 426
3 420 9 427
3 11 418 425
4 421 419 426 428
4 407 420 427 429
4 409 421 428 430
4 408 407 429 431
4 410 409 430 432
4 411 408 431 433
4 412 410 432 434
4 413 411 433 435
4 414 412 434 436
4 415 413 435 422
4 416 414 436 424
4 432 430 437 438
4 433 431 439 440
4 434 432 438 441
4 435 433 440 442
4 436 434 441 443
4 422 435 442 444
4 424 436 443 445
4 423 422 444 446
4 425 424 445 447
4 426 423 446 448
3 427 9 449
3 11 425 447
4 428 426 448 450
4 429 427 449 451
4 430 428 450 437
4 431 429 451 439
4 447 445 452 453
4 448 446 454 455
3 449 9 456
3 11 447 453
4 450 448 455 457
4 451 449 456 458
4 437 450 457 459
4 439 451 458 460
4 438 437 459 461
4 440 439 460 462
4 441 438 461 463
4 442 440 462 464
4 443 441 463 465
4 444 442 464 466
4 445 443 465 452
4 446 444 466 454
4 462 460 467 468
4 463 461 469 470
4 464 462 468 471
4 465 463 470 472
4 466 464 471 473
4 452 465 472 474
4 454 466 473 475
4 453 452 474 476
4 455 454 475 477
3 456 9 478
3 11 453 476
4 457 455 477 479
4 458 456 478 480
4 459 457 479 481
4 460 458 480 467
4 461 459 481 469
4 477 475 5 4
3 478 9 8
3 11 476 0
4 479 477 4 12
4 480 478 8 14
4 481 479 12 16
4 467 480 14 18
4 469 481 16 20
4 468 467 18 22
4 470 469 20 24
4 471 468 22 26
4 472 470 24 28
4 473 471 26 30
4 474 472 28 1
4 475 473 30 5
4 476 474 1 0
