ply
format ascii 1.0
comment Created by Blender 2.82 (sub 7) - www.blender.org, source file: ''
element vertex 1364
property float x
property float y
property float z
element face 334
property list uchar uint vertex_indices
end_header
7.217900 -16.614300 5.000000
7.217900 -16.614300 6.500000
6.864300 -16.967899 6.500000
6.864300 -16.967899 5.000000
6.856500 16.975620 5.000000
7.210100 16.622070 5.000000
11.806300 21.218260 5.000000
11.452700 21.571810 5.000000
-12.329791 22.448448 -7.500000
-12.483113 22.370329 -7.500000
-12.483113 22.370329 -7.375000
-12.329791 22.448448 -7.375000
-12.329505 22.448595 -7.125000
-11.452720 21.571810 5.000000
-11.452720 21.571810 -7.375000
-11.636750 21.755409 -7.375000
-11.636690 21.755779 -7.125000
-12.513385 22.632475 -7.375000
-12.513385 22.632475 6.250000
-8.188970 18.308060 6.441100
-8.188970 18.308060 6.000000
-7.210080 17.329170 6.000000
-7.210080 17.329170 6.484400
-6.856530 16.975620 6.500000
-6.856530 16.975620 5.000000
11.460500 -21.563999 5.000000
11.814000 -21.210501 5.000000
7.217900 -16.614300 5.000000
6.864300 -16.967899 5.000000
-12.329505 22.448595 -7.125000
-11.636690 21.755779 -7.125000
-11.636750 21.755409 -7.375000
-11.452720 21.571810 -7.375000
-11.452720 21.571810 5.000000
-6.856530 16.975620 5.000000
-6.856530 16.975620 6.500000
-7.210080 17.329170 6.484400
-7.210080 17.329170 6.000000
-8.188970 18.308060 6.000000
-8.188970 18.308060 6.441100
-12.513385 22.632475 6.250000
-12.513385 22.632475 -7.375000
-12.329791 22.448448 -7.375000
-7.226790 17.266840 6.485400
-7.126310 17.641840 6.000000
-7.126310 17.641840 7.250000
-7.226790 17.266840 7.250000
-11.997640 -21.394501 -7.500000
-11.997930 -21.394400 -7.125000
-12.337559 -21.394501 -7.125000
-12.337559 -21.394501 -7.500000
6.864300 -16.967899 5.000000
7.217900 -16.614300 5.000000
11.814000 -21.210501 5.000000
11.460500 -21.563999 5.000000
-7.210080 16.622070 5.000000
-7.210080 16.622070 6.500000
-7.563640 16.975620 6.484400
-7.563640 16.975620 6.000000
-8.542530 17.954510 6.000000
-8.542530 17.954510 6.441100
-12.866938 22.278921 6.250000
-12.866938 22.278921 -7.375000
-12.682913 22.095327 -7.375000
-12.682972 22.094955 -7.125000
-11.990160 21.402140 -7.125000
-11.989870 21.402290 -7.375000
-11.806280 21.218260 -7.375000
-11.806280 21.218260 5.000000
7.876300 18.391840 7.250000
7.876300 18.391840 6.000000
7.501300 18.291361 6.000000
7.501300 18.291361 7.250000
-11.836550 21.480410 -7.375000
-11.836550 21.480410 -7.500000
-11.636750 21.755409 -7.500000
-11.609830 21.925369 -7.500000
-11.609830 21.925369 -7.125000
-11.714870 22.248650 -7.125000
-11.714870 22.248650 -7.500000
12.682900 22.095327 -7.500000
12.682900 22.095327 -7.375000
12.683000 22.094955 -7.125000
12.682900 21.755409 -7.125000
12.682900 21.755409 -7.500000
11.844300 -22.362600 -7.125000
11.844300 -22.362600 -7.500000
11.644500 -22.087601 -7.500000
11.644500 -22.087601 -7.125000
-7.210080 16.622070 5.000000
-11.806280 21.218260 5.000000
-11.806280 21.218260 -7.375000
-11.989870 21.402290 -7.375000
-11.990160 21.402140 -7.125000
-12.682972 22.094955 -7.125000
-12.682913 22.095327 -7.375000
-12.866938 22.278921 -7.375000
-12.866938 22.278921 6.250000
-8.542530 17.954510 6.441100
-8.542530 17.954510 6.000000
-7.563640 16.975620 6.000000
-7.563640 16.975620 6.484400
-7.210080 16.622070 6.500000
-12.690681 -21.747601 -7.500000
-12.690681 -21.747601 -7.125000
-12.490882 -21.472601 -7.125000
-12.490882 -21.472601 -7.500000
7.226800 18.016840 6.000000
7.126300 17.641840 6.000000
7.126300 17.641840 7.250000
7.226800 18.016840 7.250000
-11.636750 21.755409 -7.375000
-11.836550 21.480410 -7.375000
-11.989870 21.402290 -7.375000
-11.806280 21.218260 -7.375000
-11.452720 21.571810 -7.375000
8.259100 -16.984600 6.000000
8.259100 -16.984600 7.250000
7.884100 -16.884100 7.250000
7.884100 -16.884100 6.000000
-11.636690 21.755779 -7.125000
-11.609830 21.925369 -7.125000
-11.714870 22.248650 -7.125000
-11.989870 22.448448 -7.125000
-12.329505 22.448595 -7.125000
-11.714870 22.248650 -7.125000
-11.609830 21.925369 -7.125000
-11.636690 21.755779 -7.125000
-12.329505 22.448595 -7.125000
-11.989870 22.448448 -7.125000
-12.483113 22.370329 -7.375000
-12.483113 22.370329 -7.500000
-12.329791 22.448448 -7.500000
7.876300 16.891840 6.000000
7.876300 16.891840 7.250000
8.251300 16.992319 7.250000
8.251300 16.992319 6.000000
-12.513385 22.632475 -7.375000
-12.866938 22.278921 -7.375000
-12.682913 22.095327 -7.375000
-12.483113 22.370329 -7.375000
-12.329791 22.448448 -7.375000
-6.864300 -16.967899 5.000000
-7.217850 -16.614300 5.000000
-11.814050 -21.210501 5.000000
-11.460490 -21.563999 5.000000
12.683000 22.094955 -7.125000
11.990200 21.402140 -7.125000
12.329800 21.402290 -7.125000
12.604800 21.602091 -7.125000
12.682900 21.755409 -7.125000
-7.210080 16.622070 5.000000
-7.210080 16.622070 6.500000
-6.856530 16.975620 6.500000
-6.856530 16.975620 5.000000
-12.866938 22.278921 6.250000
-8.525820 18.016840 6.440100
-8.251310 18.291361 6.440100
-12.513385 22.632475 6.250000
-8.251310 18.291361 6.440100
-8.525820 18.016840 6.440100
-12.866938 22.278921 6.250000
-12.513385 22.632475 6.250000
7.571400 -16.967899 6.484400
7.509100 -16.984600 6.485400
7.509100 -16.984600 7.250000
7.884100 -16.884100 7.250000
7.884100 -16.884100 6.000000
7.571400 -16.967899 6.000000
-8.251310 18.291361 7.250000
-7.876310 18.391840 7.250000
-7.876310 18.391840 6.000000
11.844300 -21.472601 -7.500000
11.844300 -21.472601 -7.375000
11.644500 -21.747601 -7.375000
11.644500 -21.747601 -7.500000
-8.251310 18.291361 7.250000
-7.876310 18.391840 6.000000
-7.876310 18.391840 7.250000
11.644500 -21.747999 -7.125000
-11.714870 22.248650 -7.500000
-11.989870 22.448448 -7.500000
-11.989870 22.448448 -7.125000
-11.714870 22.248650 -7.125000
12.329800 22.448448 -7.500000
12.329500 22.448595 -7.125000
12.329800 22.448448 -7.375000
12.604800 22.248650 -7.375000
12.604800 22.248650 -7.500000
12.682900 22.095327 -7.375000
12.682900 22.095327 -7.500000
12.682900 21.755409 -7.500000
12.682900 21.755409 -7.125000
12.683000 22.094955 -7.125000
-8.251310 18.291361 7.250000
-8.525820 18.016840 7.250000
-8.626310 17.641840 7.250000
-8.525820 17.266840 7.250000
-8.251310 16.992319 7.250000
-7.876310 16.891840 7.250000
-7.501310 16.992319 7.250000
-7.226790 17.266840 7.250000
-7.126310 17.641840 7.250000
-7.226790 18.016840 7.250000
-7.501310 18.291361 7.250000
-7.876310 18.391840 7.250000
-7.876310 18.391840 7.250000
-7.501310 18.291361 7.250000
-7.226790 18.016840 7.250000
-7.126310 17.641840 7.250000
-7.226790 17.266840 7.250000
-7.501310 16.992319 7.250000
-7.876310 16.891840 7.250000
-8.251310 16.992319 7.250000
-8.525820 17.266840 7.250000
-8.626310 17.641840 7.250000
-8.525820 18.016840 7.250000
-8.251310 18.291361 7.250000
12.604800 22.248650 -7.375000
12.329800 22.448448 -7.375000
12.513400 22.632475 -7.375000
12.866900 22.278921 -7.375000
12.682900 22.095327 -7.375000
11.460500 -21.563999 5.000000
11.814000 -21.210501 5.000000
11.814000 -21.210501 -7.375000
11.460500 -21.563999 -7.375000
-6.864300 -16.967899 5.000000
-6.864300 -16.967899 6.500000
-7.217850 -16.614300 6.500000
-7.217850 -16.614300 5.000000
-12.329791 21.402290 -7.125000
-11.990160 21.402140 -7.125000
-12.682972 22.094955 -7.125000
-12.682913 21.755409 -7.125000
-12.483113 21.480410 -7.125000
-12.682972 22.094955 -7.125000
-11.990160 21.402140 -7.125000
-12.329791 21.402290 -7.125000
-12.483113 21.480410 -7.125000
-12.682913 21.755409 -7.125000
-11.989870 21.402290 -7.500000
-8.626310 17.641840 7.250000
-8.525820 18.016840 7.250000
-8.626310 17.641840 6.000000
-8.626310 17.641840 6.000000
-8.525820 18.016840 7.250000
-8.626310 17.641840 7.250000
-8.196740 -18.300301 6.441100
-8.259070 -18.283600 6.440100
-8.259070 -18.283600 7.250000
-7.884070 -18.384100 7.250000
-7.884070 -18.384100 6.000000
-8.196740 -18.300301 6.000000
11.636700 21.755409 -7.375000
11.636700 21.755409 -7.500000
11.636700 22.095327 -7.500000
11.636700 22.095327 -7.125000
11.636700 21.755779 -7.125000
-12.329791 22.448448 -7.375000
-12.483113 22.370329 -7.375000
-12.682913 22.095327 -7.375000
-12.866938 22.278921 -7.375000
-12.513385 22.632475 -7.375000
-11.460490 -21.563999 5.000000
-11.814050 -21.210501 5.000000
-7.217850 -16.614300 5.000000
-6.864300 -16.967899 5.000000
-8.259070 -18.283600 7.250000
-8.259070 -18.283600 6.440100
-8.196740 -18.300301 6.441100
-8.196740 -18.300301 6.000000
-7.884070 -18.384100 6.000000
-7.884070 -18.384100 7.250000
-11.844320 -21.472601 -7.500000
-11.844320 -21.472601 -7.375000
-11.644520 -21.747601 -7.375000
-11.644520 -21.747601 -7.500000
-11.636750 21.755409 -7.500000
-11.836550 21.480410 -7.500000
-12.159830 21.375370 -7.500000
-12.483113 21.480410 -7.500000
-12.682913 21.755409 -7.500000
-12.682913 22.095327 -7.500000
-12.483113 22.370329 -7.500000
-12.159830 22.475368 -7.500000
-11.836550 22.370329 -7.500000
-11.714870 22.248650 -7.500000
-11.609830 21.925369 -7.500000
-11.836550 21.480410 -7.500000
-11.636750 21.755409 -7.500000
-11.609830 21.925369 -7.500000
-11.714870 22.248650 -7.500000
-11.836550 22.370329 -7.500000
-12.159830 22.475368 -7.500000
-12.483113 22.370329 -7.500000
-12.682913 22.095327 -7.500000
-12.682913 21.755409 -7.500000
-12.483113 21.480410 -7.500000
-12.159830 21.375370 -7.500000
-12.329791 21.402290 -7.125000
-12.329791 21.402290 -7.500000
12.690700 -22.087601 -7.500000
12.690700 -22.087601 -7.375000
12.690700 -22.087200 -7.125000
12.690700 -21.747601 -7.125000
12.690700 -21.747601 -7.500000
12.612600 -22.240900 -7.375000
12.337600 -22.440701 -7.375000
12.521200 -22.624701 -7.375000
12.874700 -22.271200 -7.375000
12.690700 -22.087601 -7.375000
7.509100 -18.283600 7.250000
7.509100 -18.283600 6.000000
7.884100 -18.384100 6.000000
7.884100 -18.384100 7.250000
-7.509070 -18.283600 7.250000
-7.509070 -18.283600 6.000000
-12.682913 22.095327 -7.500000
-12.682913 21.755409 -7.500000
-12.682913 21.755409 -7.125000
-12.490882 -22.362600 -7.500000
-12.690681 -22.087601 -7.500000
-12.690681 -21.747601 -7.500000
-12.490882 -21.472601 -7.500000
-12.337559 -21.394501 -7.500000
-11.997640 -21.394501 -7.500000
-11.844320 -21.472601 -7.500000
-11.644520 -21.747601 -7.500000
-11.644520 -22.087601 -7.500000
-11.844320 -22.362600 -7.500000
-11.997640 -22.440701 -7.500000
-12.337559 -22.440701 -7.500000
-7.501310 18.291361 6.000000
-7.501310 18.291361 7.250000
8.634100 -17.634100 7.250000
8.533600 -18.009100 7.250000
8.533600 -18.009100 6.440100
8.550300 -17.946699 6.441100
8.550300 -17.946699 6.000000
8.634100 -17.634100 6.000000
-11.997930 -21.394400 -7.125000
-11.997640 -21.394501 -7.500000
-12.337559 -21.394501 -7.500000
-12.337559 -21.394501 -7.125000
-8.525820 17.266840 6.000000
-8.525820 17.266840 7.250000
-11.844320 -22.362600 -7.125000
-11.844320 -22.362600 -7.500000
-11.997640 -22.440701 -7.500000
-11.997640 -22.440701 -7.125000
12.604800 21.602091 -7.125000
12.329800 21.402290 -7.125000
12.329800 21.402290 -7.500000
12.604800 21.602091 -7.500000
11.997600 -22.440701 -7.125000
11.997600 -22.440701 -7.500000
11.844300 -21.472601 -7.375000
11.844300 -21.472601 -7.500000
11.644500 -21.747601 -7.500000
11.644500 -21.747601 -7.375000
-7.217850 -17.321400 6.484400
-6.864300 -16.967899 6.500000
-7.217850 -16.614300 6.500000
-7.571410 -16.967899 6.484400
-7.509070 -16.984600 6.485400
-7.234550 -17.259100 6.485400
8.533600 -17.259100 6.000000
8.634100 -17.634100 6.000000
8.634100 -17.634100 7.250000
8.533600 -17.259100 7.250000
-7.234550 -17.259100 6.485400
-7.509070 -16.984600 6.485400
-7.571410 -16.967899 6.484400
-7.217850 -16.614300 6.500000
-6.864300 -16.967899 6.500000
-7.217850 -17.321400 6.484400
12.337600 -21.394501 -7.500000
12.337600 -21.394501 -7.125000
12.612600 -21.594299 -7.125000
12.612600 -21.594299 -7.500000
-11.460490 -21.563999 -7.375000
-11.460490 -21.563999 5.000000
-6.864300 -16.967899 5.000000
-6.864300 -16.967899 6.500000
-7.217850 -17.321400 6.484400
-7.217850 -17.321400 6.000000
-12.521153 -22.624701 6.250000
-12.521153 -22.624701 -7.375000
-12.337559 -22.440701 -7.375000
-12.337273 -22.440800 -7.125000
-11.644460 -21.747999 -7.125000
-6.864300 -16.967899 5.000000
-11.460490 -21.563999 5.000000
-11.460490 -21.563999 -7.375000
-11.644520 -21.747601 -7.375000
-11.644460 -21.747999 -7.125000
-12.337273 -22.440800 -7.125000
-12.337559 -22.440701 -7.375000
-12.521153 -22.624701 -7.375000
-12.521153 -22.624701 6.250000
-7.217850 -17.321400 6.000000
-7.217850 -17.321400 6.484400
-6.864300 -16.967899 6.500000
-7.234550 -17.259100 6.485400
-7.234550 -17.259100 7.250000
-7.509070 -16.984600 7.250000
-7.509070 -16.984600 6.485400
-11.836550 21.480410 -7.375000
-11.836550 21.480410 -7.500000
-11.989870 21.402290 -7.500000
-11.460490 -21.563999 -7.375000
-11.814050 -21.210501 -7.375000
-11.814050 -21.210501 5.000000
-11.460490 -21.563999 5.000000
11.636700 21.755409 -7.500000
11.836500 21.480410 -7.500000
11.836500 21.480410 -7.375000
11.636700 21.755409 -7.375000
-7.571410 -16.967899 6.000000
-7.571410 -16.967899 6.484400
-7.217850 -16.614300 6.500000
-7.217850 -16.614300 5.000000
-11.814050 -21.210501 5.000000
-11.814050 -21.210501 -7.375000
-11.997640 -21.394501 -7.375000
-12.690740 -22.087200 -7.125000
-12.690681 -22.087601 -7.375000
-12.874707 -22.271200 -7.375000
-12.874707 -22.271200 6.250000
-8.550290 -17.946699 6.441100
-8.550290 -17.946699 6.000000
-7.571410 -16.967899 6.000000
-8.550290 -17.946699 6.000000
-8.550290 -17.946699 6.441100
-12.874707 -22.271200 6.250000
-12.874707 -22.271200 -7.375000
-12.690681 -22.087601 -7.375000
-12.690740 -22.087200 -7.125000
-11.997640 -21.394501 -7.375000
-11.814050 -21.210501 -7.375000
-11.814050 -21.210501 5.000000
-7.217850 -16.614300 5.000000
-7.217850 -16.614300 6.500000
-7.571410 -16.967899 6.484400
12.329800 22.448448 -7.500000
12.604800 22.248650 -7.500000
12.604800 22.248650 -7.375000
12.329800 22.448448 -7.375000
12.329500 22.448595 -7.125000
12.698800 22.394150 7.500000
12.735200 22.325891 7.500000
12.735200 22.325891 7.250000
12.698800 22.394150 7.250000
11.989900 21.402290 -7.375000
11.989900 21.402290 -7.500000
11.990200 21.402140 -7.125000
-13.169989 -8.902500 7.500000
-13.204993 -6.677000 7.500000
-13.229997 -4.451400 7.500000
-13.244999 -2.225700 7.500000
-13.250000 0.000000 7.500000
-13.244999 2.225700 7.500000
-13.229997 4.451400 7.500000
-13.204993 6.677000 7.500000
-13.169989 8.902500 7.500000
-13.069981 13.352880 7.500000
-12.929981 17.802160 7.500000
-12.750000 22.250000 7.500000
-12.735166 22.325891 7.500000
-12.735166 22.325891 7.250000
-12.750000 22.250000 7.250000
-12.929981 17.802160 7.250000
-13.069981 13.352880 7.250000
-13.169989 8.902500 7.250000
-13.204993 6.677000 7.250000
-13.229997 4.451400 7.250000
-13.244999 2.225700 7.250000
-13.250000 0.000000 7.250000
-13.244999 -2.225700 7.250000
-13.229997 -4.451400 7.250000
-13.204993 -6.677000 7.250000
-13.169989 -8.902500 7.250000
-13.069981 -13.352900 7.250000
-12.929981 -17.802200 7.250000
-12.750000 -22.250000 7.250000
-12.735166 -22.325899 7.250000
-12.735166 -22.325899 7.500000
-12.750000 -22.250000 7.500000
-12.929981 -17.802200 7.500000
-13.069981 -13.352900 7.500000
-11.644520 -22.087601 -7.125000
-11.644460 -21.747999 -7.125000
-12.337273 -22.440800 -7.125000
-11.997640 -22.440701 -7.125000
-11.844320 -22.362600 -7.125000
-11.644520 -22.087601 -7.125000
-11.844320 -22.362600 -7.125000
-11.997640 -22.440701 -7.125000
-12.337273 -22.440800 -7.125000
-11.644460 -21.747999 -7.125000
-12.337559 -22.440701 -7.500000
-12.490882 -22.362600 -7.500000
-12.490882 -22.362600 -7.375000
11.997600 -21.394501 -7.375000
11.997600 -21.394501 -7.500000
11.997900 -21.394400 -7.125000
-12.490882 -22.362600 -7.375000
-12.337559 -22.440701 -7.375000
-12.521153 -22.624701 -7.375000
-12.874707 -22.271200 -7.375000
-12.690681 -22.087601 -7.375000
8.626300 17.641840 7.250000
8.525800 18.016840 7.250000
8.525800 18.016840 6.440100
8.542500 17.954510 6.441100
8.542500 17.954510 6.000000
8.626300 17.641840 6.000000
-12.521153 -22.624701 6.250000
-12.521153 -22.624701 -7.375000
-12.874707 -22.271200 -7.375000
-12.874707 -22.271200 6.250000
-8.533590 -18.009100 6.440100
-12.874707 -22.271200 6.250000
-12.521153 -22.624701 6.250000
-8.533590 -18.009100 6.440100
-7.234550 -18.009100 6.000000
-7.509070 -18.283600 6.000000
-7.884070 -18.384100 6.000000
-8.196740 -18.300301 6.000000
-7.217850 -17.321400 6.000000
-7.134070 -17.634100 6.000000
7.226800 18.016840 7.250000
7.226800 18.016840 6.000000
7.501300 18.291361 6.000000
7.501300 18.291361 7.250000
-7.234550 -18.009100 6.000000
-7.134070 -17.634100 6.000000
-7.217850 -17.321400 6.000000
-8.196740 -18.300301 6.000000
-7.884070 -18.384100 6.000000
-7.509070 -18.283600 6.000000
8.525800 17.266840 6.000000
8.525800 17.266840 7.250000
8.251300 16.992319 7.250000
8.251300 16.992319 6.000000
-11.989870 22.448448 -7.125000
-11.989870 22.448448 -7.500000
-7.226790 18.016840 7.250000
-7.226790 18.016840 6.000000
12.490900 -22.362600 -7.500000
12.490900 -22.362600 -7.375000
7.210100 17.329170 6.484400
7.210100 17.329170 6.000000
7.126300 17.641840 6.000000
7.126300 17.641840 7.250000
7.226800 17.266840 7.250000
7.226800 17.266840 6.485400
-7.501310 16.992319 6.485400
-7.501310 16.992319 7.250000
-7.226790 17.266840 7.250000
-7.226790 17.266840 6.485400
-7.571410 -16.967899 6.000000
-7.884070 -16.884100 6.000000
-8.259070 -16.984600 6.000000
-8.533590 -17.259100 6.000000
-8.634070 -17.634100 6.000000
-8.550290 -17.946699 6.000000
-7.884070 -16.884100 6.000000
-7.884070 -16.884100 7.250000
-8.259070 -16.984600 7.250000
-8.259070 -16.984600 6.000000
11.997600 -21.394501 -7.500000
11.997900 -21.394400 -7.125000
7.509100 -16.984600 6.485400
7.509100 -16.984600 7.250000
7.234600 -17.259100 7.250000
7.234600 -17.259100 6.485400
-12.690681 -21.747601 -7.125000
-12.690681 -22.087601 -7.500000
-12.690681 -21.747601 -7.500000
-8.259070 -16.984600 6.000000
-8.259070 -16.984600 7.250000
-7.884070 -16.884100 7.250000
-7.884070 -16.884100 6.000000
-12.483113 21.480410 -7.500000
-12.483113 21.480410 -7.125000
7.217900 -17.321400 6.484400
7.134100 -17.634100 7.250000
7.134100 -17.634100 6.000000
7.217900 -17.321400 6.000000
-12.490882 -21.472601 -7.125000
-12.690681 -21.747601 -7.125000
-12.690740 -22.087200 -7.125000
-11.997930 -21.394400 -7.125000
-12.337559 -21.394501 -7.125000
-12.690740 -22.087200 -7.125000
-12.690681 -21.747601 -7.125000
-12.490882 -21.472601 -7.125000
-12.337559 -21.394501 -7.125000
-11.997930 -21.394400 -7.125000
-11.844320 -21.472601 -7.500000
-11.844320 -21.472601 -7.375000
11.989900 21.402290 -7.500000
11.990200 21.402140 -7.125000
12.329800 21.402290 -7.125000
12.329800 21.402290 -7.500000
-12.490882 -22.362600 -7.375000
-12.490882 -22.362600 -7.500000
-12.337559 -22.440701 -7.500000
-7.234550 -18.009100 6.000000
-7.134070 -17.634100 6.000000
-7.134070 -17.634100 7.250000
-7.234550 -18.009100 7.250000
12.690700 -22.087601 -7.375000
12.690700 -22.087601 -7.500000
12.690700 -21.747601 -7.500000
12.690700 -21.747601 -7.125000
12.690700 -22.087200 -7.125000
8.259100 -16.984600 7.250000
8.259100 -16.984600 6.000000
7.571400 -16.967899 6.000000
7.884100 -16.884100 6.000000
8.259100 -16.984600 6.000000
8.533600 -17.259100 6.000000
8.634100 -17.634100 6.000000
8.550300 -17.946699 6.000000
-11.460490 -21.563999 5.000000
-11.814050 -21.210501 5.000000
-11.814050 -21.210501 -7.375000
-11.460490 -21.563999 -7.375000
-8.533590 -18.009100 7.250000
-8.634070 -17.634100 7.250000
-8.634070 -17.634100 6.000000
7.884100 -18.384100 6.000000
8.196700 -18.300301 6.000000
7.217900 -17.321400 6.000000
7.134100 -17.634100 6.000000
7.234600 -18.009100 6.000000
7.509100 -18.283600 6.000000
11.460500 -21.563999 -7.375000
11.814000 -21.210501 -7.375000
11.814000 -21.210501 5.000000
11.460500 -21.563999 5.000000
7.884100 -18.384100 7.250000
7.509100 -18.283600 7.250000
7.234600 -18.009100 7.250000
7.134100 -17.634100 7.250000
7.234600 -17.259100 7.250000
7.509100 -16.984600 7.250000
7.884100 -16.884100 7.250000
8.259100 -16.984600 7.250000
8.533600 -17.259100 7.250000
8.634100 -17.634100 7.250000
8.533600 -18.009100 7.250000
8.259100 -18.283600 7.250000
-7.501310 18.291361 6.000000
-7.226790 18.016840 6.000000
-7.126310 17.641840 6.000000
-7.210080 17.329170 6.000000
-8.188970 18.308060 6.000000
-7.876310 18.391840 6.000000
-11.644520 -22.087601 -7.500000
-11.644520 -21.747601 -7.500000
-11.844320 -21.472601 -7.500000
-11.997640 -21.394501 -7.500000
-12.337559 -21.394501 -7.500000
-12.490882 -21.472601 -7.500000
-12.690681 -21.747601 -7.500000
-12.690681 -22.087601 -7.500000
-12.490882 -22.362600 -7.500000
-12.337559 -22.440701 -7.500000
-11.997640 -22.440701 -7.500000
-11.844320 -22.362600 -7.500000
-6.856530 16.975620 5.000000
-6.856530 16.975620 6.500000
-7.210080 16.622070 6.500000
-7.210080 16.622070 5.000000
-7.876310 18.391840 6.000000
-8.188970 18.308060 6.000000
-7.210080 17.329170 6.000000
-7.126310 17.641840 6.000000
-7.226790 18.016840 6.000000
-7.501310 18.291361 6.000000
-12.690681 -22.087601 -7.500000
12.159800 22.475368 -7.500000
12.159800 22.475368 -7.125000
-11.452720 21.571810 5.000000
-11.806280 21.218260 5.000000
-11.806280 21.218260 -7.375000
-11.452720 21.571810 -7.375000
-11.644520 -22.087601 -7.500000
-11.644520 -22.087601 -7.125000
-11.452720 21.571810 -7.375000
-11.806280 21.218260 -7.375000
-11.806280 21.218260 5.000000
-11.452720 21.571810 5.000000
-7.226790 18.016840 6.000000
-7.226790 18.016840 7.250000
-12.682913 21.755409 -7.500000
-12.682913 21.755409 -7.125000
-12.483113 21.480410 -7.125000
-12.483113 21.480410 -7.500000
-7.509070 -18.283600 6.000000
-7.509070 -18.283600 7.250000
11.844300 -22.362600 -7.125000
11.844300 -22.362600 -7.500000
11.997600 -22.440701 -7.500000
11.997600 -22.440701 -7.125000
11.836500 22.370329 -7.500000
11.836500 22.370329 -7.125000
-12.682913 22.095327 -7.500000
-7.509070 -16.984600 6.485400
-7.509070 -16.984600 7.250000
-7.234550 -17.259100 7.250000
-7.234550 -17.259100 6.485400
12.612600 -21.594299 -7.500000
12.612600 -21.594299 -7.125000
7.210100 17.329170 6.000000
7.210100 17.329170 6.484400
7.226800 17.266840 6.485400
7.226800 17.266840 7.250000
-11.997640 -22.440701 -7.125000
-11.997640 -22.440701 -7.500000
-11.844320 -22.362600 -7.500000
-11.844320 -22.362600 -7.125000
-12.490882 -21.472601 -7.125000
-12.490882 -21.472601 -7.500000
-7.501310 16.992319 7.250000
-7.501310 16.992319 6.485400
7.210100 17.329170 6.484400
6.856500 16.975620 6.500000
7.210100 16.622070 6.500000
7.563600 16.975620 6.484400
7.501300 16.992319 6.485400
7.226800 17.266840 6.485400
-11.644520 -22.087601 -7.500000
-11.644520 -22.087601 -7.125000
7.226800 17.266840 6.485400
7.501300 16.992319 6.485400
7.563600 16.975620 6.484400
7.210100 16.622070 6.500000
6.856500 16.975620 6.500000
7.210100 17.329170 6.484400
-8.634070 -17.634100 7.250000
-8.533590 -17.259100 7.250000
-8.259070 -16.984600 7.250000
-7.884070 -16.884100 7.250000
-7.509070 -16.984600 7.250000
-7.234550 -17.259100 7.250000
-7.134070 -17.634100 7.250000
-7.234550 -18.009100 7.250000
-7.509070 -18.283600 7.250000
-7.884070 -18.384100 7.250000
-8.259070 -18.283600 7.250000
-8.533590 -18.009100 7.250000
11.636700 21.755779 -7.125000
11.452700 21.571810 -7.375000
11.452700 21.571810 5.000000
6.856500 16.975620 5.000000
6.856500 16.975620 6.500000
8.189000 18.308060 6.000000
8.189000 18.308060 6.441100
12.513400 22.632475 6.250000
12.513400 22.632475 -7.375000
8.189000 18.308060 6.000000
6.856500 16.975620 6.500000
6.856500 16.975620 5.000000
11.452700 21.571810 5.000000
11.452700 21.571810 -7.375000
12.513400 22.632475 -7.375000
12.513400 22.632475 6.250000
8.189000 18.308060 6.441100
-7.126310 17.641840 6.000000
-7.126310 17.641840 7.250000
-12.644149 -22.448799 7.250000
-12.644149 -22.448799 7.500000
7.876300 16.891840 7.250000
7.501300 16.992319 7.250000
7.501300 16.992319 6.485400
7.563600 16.975620 6.484400
7.563600 16.975620 6.000000
7.876300 16.891840 6.000000
-11.609830 21.925369 -7.125000
-11.609830 21.925369 -7.500000
12.866900 22.278921 6.250000
8.542500 17.954510 6.441100
8.542500 17.954510 6.000000
7.210100 16.622070 6.500000
7.210100 16.622070 5.000000
11.806300 21.218260 5.000000
11.806300 21.218260 -7.375000
12.866900 22.278921 -7.375000
11.989900 21.402290 -7.375000
11.806300 21.218260 -7.375000
11.806300 21.218260 5.000000
7.210100 16.622070 5.000000
7.210100 16.622070 6.500000
7.563600 16.975620 6.484400
7.563600 16.975620 6.000000
12.866900 22.278921 6.250000
12.866900 22.278921 -7.375000
-11.636750 21.755409 -7.500000
7.210100 16.622070 5.000000
7.210100 16.622070 6.500000
6.856500 16.975620 6.500000
6.856500 16.975620 5.000000
11.836500 21.480410 -7.375000
11.989900 21.402290 -7.375000
11.806300 21.218260 -7.375000
11.452700 21.571810 -7.375000
11.636700 21.755409 -7.375000
12.575900 -22.485201 7.250000
-12.575891 -22.485201 7.250000
-12.644149 -22.448799 7.250000
-12.735166 -22.325899 7.250000
-12.735166 22.325891 7.250000
-12.698827 22.394150 7.250000
-12.575891 22.485167 7.250000
12.575900 22.485167 7.250000
12.698800 22.394150 7.250000
12.735200 22.325891 7.250000
12.735200 -22.325899 7.250000
12.698800 -22.394100 7.250000
11.636700 22.095327 -7.125000
11.636700 21.755779 -7.125000
12.329500 22.448595 -7.125000
11.989900 22.448448 -7.125000
11.836500 22.370329 -7.125000
12.575900 22.485167 7.250000
12.575900 22.485167 7.500000
11.636700 21.755779 -7.125000
11.636700 22.095327 -7.125000
11.836500 22.370329 -7.125000
11.989900 22.448448 -7.125000
12.329500 22.448595 -7.125000
12.159800 22.475368 -7.125000
12.159800 22.475368 -7.500000
13.125000 11.127800 7.500000
13.205000 6.677000 7.500000
13.245000 2.225700 7.500000
13.245000 -2.225700 7.500000
13.170000 -8.902500 7.500000
13.070000 -13.352900 7.500000
12.930000 -17.802200 7.500000
12.750000 -22.250000 7.500000
12.735200 -22.325899 7.500000
12.735200 -22.325899 7.250000
12.750000 -22.250000 7.250000
12.930000 -17.802200 7.250000
13.070000 -13.352900 7.250000
13.170000 -8.902500 7.250000
13.245000 -2.225700 7.250000
13.245000 2.225700 7.250000
13.205000 6.677000 7.250000
13.125000 11.127800 7.250000
13.005000 15.577670 7.250000
12.750000 22.250000 7.250000
12.750000 22.250000 7.500000
13.005000 15.577670 7.500000
-7.876310 16.891840 6.000000
-7.876310 16.891840 7.250000
-8.251310 16.992319 7.250000
-8.251310 16.992319 6.000000
8.251300 18.291361 6.440100
8.251300 18.291361 7.250000
8.251300 18.291361 6.440100
8.251300 18.291361 7.250000
7.876300 18.391840 7.250000
7.876300 18.391840 6.000000
12.698800 -22.394100 7.250000
12.698800 -22.394100 7.500000
12.575900 -22.485201 7.500000
12.575900 -22.485201 7.250000
-7.210080 17.329170 6.484400
-6.856530 16.975620 6.500000
-7.210080 16.622070 6.500000
-7.563640 16.975620 6.484400
-7.501310 16.992319 6.485400
-7.226790 17.266840 6.485400
-11.460490 -21.563999 -7.375000
-11.814050 -21.210501 -7.375000
-11.997640 -21.394501 -7.375000
-11.844320 -21.472601 -7.375000
-11.644520 -21.747601 -7.375000
7.126300 17.641840 7.250000
7.226800 18.016840 7.250000
7.501300 18.291361 7.250000
7.876300 18.391840 7.250000
8.251300 18.291361 7.250000
8.525800 18.016840 7.250000
8.626300 17.641840 7.250000
8.525800 17.266840 7.250000
8.251300 16.992319 7.250000
7.876300 16.891840 7.250000
7.501300 16.992319 7.250000
7.226800 17.266840 7.250000
2.502600 -22.980000 7.500000
1.251300 -22.995001 7.500000
0.000000 -23.000000 7.500000
-1.251300 -22.995001 7.500000
-2.502600 -22.980000 7.500000
-3.753640 -22.955000 7.500000
-5.004480 -22.920000 7.500000
-6.255000 -22.875000 7.500000
-7.505120 -22.819901 7.500000
-8.754760 -22.754900 7.500000
-10.003840 -22.679899 7.500000
-11.252280 -22.594999 7.500000
-12.500000 -22.500000 7.500000
-12.575891 -22.485201 7.500000
-12.575891 -22.485201 7.250000
-12.500000 -22.500000 7.250000
-11.252280 -22.594999 7.250000
-10.003840 -22.679899 7.250000
-8.754760 -22.754900 7.250000
-7.505120 -22.819901 7.250000
-6.255000 -22.875000 7.250000
-5.004480 -22.920000 7.250000
-3.753640 -22.955000 7.250000
-2.502600 -22.980000 7.250000
-1.251300 -22.995001 7.250000
0.000000 -23.000000 7.250000
1.251300 -22.995001 7.250000
2.502600 -22.980000 7.250000
3.753600 -22.955000 7.250000
5.004500 -22.920000 7.250000
6.255000 -22.875000 7.250000
8.754800 -22.754900 7.250000
10.003800 -22.679899 7.250000
11.252300 -22.594999 7.250000
12.500000 -22.500000 7.250000
12.500000 -22.500000 7.500000
11.252300 -22.594999 7.500000
10.003800 -22.679899 7.500000
8.754800 -22.754900 7.500000
6.255000 -22.875000 7.500000
5.004500 -22.920000 7.500000
3.753600 -22.955000 7.500000
12.682900 21.755409 -7.125000
12.604800 21.602091 -7.125000
12.329800 21.402290 -7.125000
11.990200 21.402140 -7.125000
12.683000 22.094955 -7.125000
-12.874707 -22.271200 -7.375000
-12.521153 -22.624701 -7.375000
11.836500 21.480410 -7.500000
11.836500 21.480410 -7.375000
11.636700 22.095327 -7.500000
11.636700 22.095327 -7.125000
-7.876310 16.891840 6.000000
-7.876310 16.891840 7.250000
8.626300 17.641840 6.000000
8.525800 18.016840 6.440100
8.525800 18.016840 7.250000
8.626300 17.641840 7.250000
-12.490882 -22.362600 -7.375000
-12.690681 -22.087601 -7.375000
-12.874707 -22.271200 -7.375000
-12.521153 -22.624701 -7.375000
-12.337559 -22.440701 -7.375000
-7.226790 17.266840 6.485400
-7.501310 16.992319 6.485400
-7.563640 16.975620 6.484400
-7.210080 16.622070 6.500000
-6.856530 16.975620 6.500000
-7.210080 17.329170 6.484400
11.836500 22.370329 -7.500000
12.159800 22.475368 -7.500000
12.329800 22.448448 -7.500000
12.604800 22.248650 -7.500000
12.682900 22.095327 -7.500000
12.682900 21.755409 -7.500000
12.604800 21.602091 -7.500000
12.329800 21.402290 -7.500000
12.159800 21.375370 -7.500000
11.836500 21.480410 -7.500000
11.636700 21.755409 -7.500000
11.636700 22.095327 -7.500000
12.329800 21.402290 -7.500000
12.604800 21.602091 -7.500000
12.682900 21.755409 -7.500000
12.682900 22.095327 -7.500000
12.604800 22.248650 -7.500000
12.329800 22.448448 -7.500000
12.159800 22.475368 -7.500000
11.836500 22.370329 -7.500000
11.636700 22.095327 -7.500000
11.636700 21.755409 -7.500000
11.836500 21.480410 -7.500000
12.159800 21.375370 -7.500000
11.836500 22.370329 -7.500000
11.836500 22.370329 -7.125000
12.337600 -22.440701 -7.500000
12.337300 -22.440800 -7.125000
-12.513385 22.632475 -7.375000
-12.866938 22.278921 -7.375000
12.604800 21.602091 -7.125000
12.604800 21.602091 -7.500000
8.525800 17.266840 7.250000
8.525800 17.266840 6.000000
7.571400 -16.967899 6.484400
7.217900 -16.614300 6.500000
6.864300 -16.967899 6.500000
7.217900 -17.321400 6.484400
7.234600 -17.259100 6.485400
7.509100 -16.984600 6.485400
-8.634070 -17.634100 6.000000
-8.634070 -17.634100 7.250000
-8.533590 -18.009100 7.250000
7.571400 -16.967899 6.484400
7.509100 -16.984600 6.485400
7.234600 -17.259100 6.485400
7.217900 -17.321400 6.484400
6.864300 -16.967899 6.500000
7.217900 -16.614300 6.500000
7.217900 -17.321400 6.000000
7.217900 -17.321400 6.484400
6.864300 -16.967899 6.500000
6.864300 -16.967899 5.000000
11.460500 -21.563999 5.000000
11.460500 -21.563999 -7.375000
11.644500 -21.747999 -7.125000
12.337600 -22.440701 -7.375000
12.521200 -22.624701 -7.375000
12.521200 -22.624701 6.250000
8.196700 -18.300301 6.441100
8.196700 -18.300301 6.000000
-8.634070 -17.634100 6.000000
-8.533590 -17.259100 6.000000
-8.259070 -16.984600 6.000000
-7.884070 -16.884100 6.000000
-7.571410 -16.967899 6.000000
-8.550290 -17.946699 6.000000
6.864300 -16.967899 5.000000
6.864300 -16.967899 6.500000
8.196700 -18.300301 6.000000
8.196700 -18.300301 6.441100
12.521200 -22.624701 6.250000
12.521200 -22.624701 -7.375000
12.337600 -22.440701 -7.375000
12.337300 -22.440800 -7.125000
11.460500 -21.563999 -7.375000
11.460500 -21.563999 5.000000
7.134100 -17.634100 7.250000
7.234600 -17.259100 7.250000
7.234600 -17.259100 6.485400
7.134100 -17.634100 6.000000
11.460500 -21.563999 -7.375000
11.814000 -21.210501 -7.375000
11.997600 -21.394501 -7.375000
11.722600 -21.594299 -7.375000
11.644500 -21.747601 -7.375000
12.874700 -22.271200 6.250000
12.874700 -22.271200 -7.375000
11.997600 -21.394501 -7.375000
11.814000 -21.210501 -7.375000
11.814000 -21.210501 5.000000
7.217900 -16.614300 5.000000
7.217900 -16.614300 6.500000
7.571400 -16.967899 6.484400
7.571400 -16.967899 6.000000
12.874700 -22.271200 6.250000
8.550300 -17.946699 6.441100
8.550300 -17.946699 6.000000
7.217900 -16.614300 6.500000
7.217900 -16.614300 5.000000
11.814000 -21.210501 5.000000
11.814000 -21.210501 -7.375000
12.874700 -22.271200 -7.375000
6.864300 -16.967899 5.000000
6.864300 -16.967899 6.500000
7.217900 -16.614300 6.500000
7.217900 -16.614300 5.000000
11.644500 -21.747601 -7.375000
11.722600 -21.594299 -7.375000
11.997600 -21.394501 -7.375000
11.814000 -21.210501 -7.375000
11.460500 -21.563999 -7.375000
11.644500 -21.747999 -7.125000
11.644500 -22.087601 -7.125000
11.722600 -22.240900 -7.125000
11.997600 -22.440701 -7.125000
12.337300 -22.440800 -7.125000
12.337600 -22.440701 -7.500000
12.874700 -22.271200 6.250000
12.874700 -22.271200 -7.375000
12.521200 -22.624701 -7.375000
12.521200 -22.624701 6.250000
12.337600 -22.440701 -7.375000
12.612600 -22.240900 -7.375000
12.690700 -22.087601 -7.375000
12.874700 -22.271200 -7.375000
12.521200 -22.624701 -7.375000
-11.452720 21.571810 5.000000
-11.806280 21.218260 5.000000
-7.210080 16.622070 5.000000
-6.856530 16.975620 5.000000
12.521200 -22.624701 6.250000
12.521200 -22.624701 -7.375000
12.874700 -22.271200 -7.375000
12.874700 -22.271200 6.250000
8.259100 -18.283600 6.440100
-7.234550 -18.009100 7.250000
-7.134070 -17.634100 7.250000
-7.134070 -17.634100 6.000000
-7.234550 -18.009100 6.000000
-11.644520 -21.747601 -7.500000
8.259100 -18.283600 6.440100
8.533600 -18.009100 6.440100
8.259100 -18.283600 7.250000
8.259100 -18.283600 7.250000
7.884100 -18.384100 6.000000
7.884100 -18.384100 7.250000
7.217900 -17.321400 6.000000
8.196700 -18.300301 6.000000
7.884100 -18.384100 6.000000
7.509100 -18.283600 6.000000
7.234600 -18.009100 6.000000
7.134100 -17.634100 6.000000
-6.856530 16.975620 5.000000
-7.210080 16.622070 5.000000
-11.806280 21.218260 5.000000
-11.452720 21.571810 5.000000
8.533600 -17.259100 6.000000
8.259100 -16.984600 6.000000
7.884100 -16.884100 6.000000
7.571400 -16.967899 6.000000
8.550300 -17.946699 6.000000
8.634100 -17.634100 6.000000
7.234600 -18.009100 7.250000
7.509100 -18.283600 7.250000
7.884100 -18.384100 7.250000
8.259100 -18.283600 7.250000
8.533600 -18.009100 7.250000
8.634100 -17.634100 7.250000
8.533600 -17.259100 7.250000
8.259100 -16.984600 7.250000
7.884100 -16.884100 7.250000
7.509100 -16.984600 7.250000
7.234600 -17.259100 7.250000
7.134100 -17.634100 7.250000
-7.501310 18.291361 7.250000
-7.501310 18.291361 6.000000
7.234600 -18.009100 6.000000
7.234600 -18.009100 7.250000
7.234600 -18.009100 7.250000
7.234600 -18.009100 6.000000
12.612600 -21.594299 -7.125000
12.690700 -21.747601 -7.125000
12.690700 -22.087200 -7.125000
11.997900 -21.394400 -7.125000
12.337600 -21.394501 -7.125000
12.612600 -21.594299 -7.125000
12.337600 -21.394501 -7.125000
11.997900 -21.394400 -7.125000
12.690700 -22.087200 -7.125000
12.690700 -21.747601 -7.125000
12.490900 -22.362600 -7.500000
12.490900 -22.362600 -7.375000
-8.525820 17.266840 7.250000
-8.525820 17.266840 6.000000
8.533600 -18.009100 7.250000
-12.866938 22.278921 -7.375000
-12.513385 22.632475 -7.375000
8.533600 -17.259100 7.250000
8.533600 -17.259100 6.000000
12.337300 -22.440800 -7.125000
11.997600 -22.440701 -7.125000
11.722600 -22.240900 -7.125000
11.644500 -22.087601 -7.125000
11.644500 -21.747999 -7.125000
11.722600 -21.594299 -7.500000
11.997600 -21.394501 -7.500000
12.337600 -21.394501 -7.500000
12.612600 -21.594299 -7.500000
12.690700 -21.747601 -7.500000
12.690700 -22.087601 -7.500000
12.612600 -22.240900 -7.500000
12.337600 -22.440701 -7.500000
11.997600 -22.440701 -7.500000
11.722600 -22.240900 -7.500000
11.644500 -22.087601 -7.500000
11.644500 -21.747601 -7.500000
11.997600 -21.394501 -7.500000
11.722600 -21.594299 -7.500000
11.644500 -21.747601 -7.500000
11.644500 -22.087601 -7.500000
11.844300 -22.362600 -7.500000
11.997600 -22.440701 -7.500000
12.337600 -22.440701 -7.500000
12.612600 -22.240900 -7.500000
12.690700 -22.087601 -7.500000
12.690700 -21.747601 -7.500000
12.612600 -21.594299 -7.500000
12.337600 -21.394501 -7.500000
-8.251310 16.992319 7.250000
-8.251310 16.992319 6.000000
11.644500 -22.087601 -7.125000
11.644500 -22.087601 -7.500000
-8.533590 -17.259100 6.000000
-8.533590 -17.259100 7.250000
-8.533590 -17.259100 7.250000
-8.533590 -17.259100 6.000000
7.509100 -18.283600 7.250000
7.509100 -18.283600 6.000000
12.337600 -21.394501 -7.125000
12.337600 -21.394501 -7.500000
-12.329791 21.402290 -7.500000
-12.329791 21.402290 -7.125000
-8.533590 -18.009100 7.250000
-8.259070 -18.283600 7.250000
-7.884070 -18.384100 7.250000
-7.509070 -18.283600 7.250000
-7.234550 -18.009100 7.250000
-7.134070 -17.634100 7.250000
-7.234550 -17.259100 7.250000
-7.509070 -16.984600 7.250000
-7.884070 -16.884100 7.250000
-8.259070 -16.984600 7.250000
-8.533590 -17.259100 7.250000
-8.634070 -17.634100 7.250000
12.735200 -22.325899 7.500000
12.735200 22.325891 7.500000
12.698800 22.394150 7.500000
12.575900 22.485167 7.500000
-12.575891 22.485167 7.500000
-12.698827 22.394150 7.500000
-12.735166 22.325891 7.500000
-12.735166 -22.325899 7.500000
-12.644149 -22.448799 7.500000
-12.575891 -22.485201 7.500000
12.575900 -22.485201 7.500000
12.698800 -22.394100 7.500000
7.501300 16.992319 7.250000
7.501300 16.992319 6.485400
-11.452720 21.571810 -7.375000
-11.806280 21.218260 -7.375000
-11.989870 21.402290 -7.375000
-11.836550 21.480410 -7.375000
-11.636750 21.755409 -7.375000
6.856500 16.975620 5.000000
6.856500 16.975620 6.500000
7.210100 16.622070 6.500000
7.210100 16.622070 5.000000
-7.563640 16.975620 6.000000
-7.876310 16.891840 6.000000
-8.251310 16.992319 6.000000
-8.525820 17.266840 6.000000
-8.626310 17.641840 6.000000
-8.542530 17.954510 6.000000
11.452700 21.571810 -7.375000
11.806300 21.218260 -7.375000
11.989900 21.402290 -7.375000
11.836500 21.480410 -7.375000
11.636700 21.755409 -7.375000
-8.542530 17.954510 6.000000
-8.626310 17.641840 6.000000
-8.525820 17.266840 6.000000
-8.251310 16.992319 6.000000
-7.876310 16.891840 6.000000
-7.563640 16.975620 6.000000
12.513400 22.632475 6.250000
12.866900 22.278921 6.250000
12.604800 22.248650 -7.375000
12.682900 22.095327 -7.375000
12.866900 22.278921 -7.375000
12.513400 22.632475 -7.375000
12.329800 22.448448 -7.375000
12.866900 22.278921 -7.375000
12.513400 22.632475 -7.375000
12.513400 22.632475 6.250000
12.513400 22.632475 -7.375000
12.866900 22.278921 -7.375000
12.866900 22.278921 6.250000
11.452700 21.571810 5.000000
11.806300 21.218260 5.000000
7.210100 16.622070 5.000000
6.856500 16.975620 5.000000
7.226800 18.016840 6.000000
7.501300 18.291361 6.000000
7.876300 18.391840 6.000000
8.189000 18.308060 6.000000
7.210100 17.329170 6.000000
7.126300 17.641840 6.000000
7.226800 18.016840 6.000000
7.126300 17.641840 6.000000
7.210100 17.329170 6.000000
8.189000 18.308060 6.000000
7.876300 18.391840 6.000000
7.501300 18.291361 6.000000
-7.217850 -16.614300 5.000000
-7.217850 -16.614300 6.500000
-6.864300 -16.967899 6.500000
-6.864300 -16.967899 5.000000
11.452700 21.571810 5.000000
11.806300 21.218260 5.000000
11.806300 21.218260 -7.375000
11.452700 21.571810 -7.375000
11.452700 21.571810 -7.375000
11.806300 21.218260 -7.375000
11.806300 21.218260 5.000000
11.452700 21.571810 5.000000
-3.753640 22.954979 7.250000
-6.255000 22.874950 7.250000
-7.505120 22.819939 7.250000
-10.003840 22.679939 7.250000
-11.252280 22.594959 7.250000
-12.500000 22.500000 7.250000
-12.575891 22.485167 7.250000
-12.575891 22.485167 7.500000
-12.500000 22.500000 7.500000
-11.252280 22.594959 7.500000
-10.003840 22.679939 7.500000
-7.505120 22.819939 7.500000
-6.255000 22.874950 7.500000
-3.753640 22.954979 7.500000
-2.502600 22.979990 7.500000
0.000000 23.000000 7.500000
2.502600 22.979990 7.500000
5.004500 22.919964 7.500000
6.255000 22.874950 7.500000
8.754800 22.754932 7.500000
11.252300 22.594959 7.500000
12.500000 22.500000 7.500000
12.500000 22.500000 7.250000
11.252300 22.594959 7.250000
8.754800 22.754932 7.250000
6.255000 22.874950 7.250000
5.004500 22.919964 7.250000
2.502600 22.979990 7.250000
0.000000 23.000000 7.250000
-2.502600 22.979990 7.250000
-12.698827 22.394150 7.500000
-12.698827 22.394150 7.250000
7.876300 18.391840 7.250000
7.501300 18.291361 7.250000
7.226800 18.016840 7.250000
7.126300 17.641840 7.250000
7.226800 17.266840 7.250000
7.501300 16.992319 7.250000
7.876300 16.891840 7.250000
8.251300 16.992319 7.250000
8.525800 17.266840 7.250000
8.626300 17.641840 7.250000
8.525800 18.016840 7.250000
8.251300 18.291361 7.250000
-11.844320 -21.472601 -7.375000
-11.997640 -21.394501 -7.375000
-11.814050 -21.210501 -7.375000
-11.460490 -21.563999 -7.375000
-11.644520 -21.747601 -7.375000
8.626300 17.641840 6.000000
8.525800 17.266840 6.000000
8.251300 16.992319 6.000000
7.876300 16.891840 6.000000
7.563600 16.975620 6.000000
8.542500 17.954510 6.000000
7.563600 16.975620 6.000000
7.876300 16.891840 6.000000
8.251300 16.992319 6.000000
8.525800 17.266840 6.000000
8.626300 17.641840 6.000000
8.542500 17.954510 6.000000
4 0 1 2 3
4 4 5 6 7
5 8 9 10 11 12
14 13 14 15 16 12 11 17 18 19 20 21 22 23 24
4 25 26 27 28
14 29 30 31 32 33 34 35 36 37 38 39 40 41 42
6 43 22 21 44 45 46
4 47 48 49 50
4 51 52 53 54
14 55 56 57 58 59 60 61 62 63 64 65 66 67 68
4 69 70 71 72
4 73 74 75 15
4 76 77 78 79
5 80 81 82 83 84
4 85 86 87 88
14 89 90 91 92 93 94 95 96 97 98 99 100 101 102
4 103 104 105 106
4 107 108 109 110
5 111 112 113 114 115
4 116 117 118 119
5 120 121 122 123 124
5 125 126 127 128 129
5 130 131 132 29 42
4 133 134 135 136
5 137 138 139 140 141
4 142 143 144 145
5 146 147 148 149 150
4 151 152 153 154
6 155 60 156 157 19 158
6 39 159 160 98 161 162
6 163 164 165 166 167 168
6 19 157 169 170 171 20
4 172 173 174 175
6 176 159 39 38 177 178
5 87 175 174 179 88
4 180 181 182 183
5 184 185 186 187 188
5 189 190 191 192 193
12 194 195 196 197 198 199 200 201 202 203 204 205
12 206 207 208 209 210 211 212 213 214 215 216 217
5 218 219 220 221 222
4 223 224 225 226
4 227 228 229 230
5 231 232 233 234 235
5 236 237 238 239 240
5 74 73 66 65 241
6 242 243 156 60 59 244
6 245 99 98 160 246 247
6 248 249 250 251 252 253
5 254 255 256 257 258
5 259 260 261 262 263
4 264 265 266 267
4 72 71 107 110
6 268 269 270 271 272 273
4 274 275 276 277
11 278 279 280 281 282 283 284 285 286 287 288
11 289 290 291 292 293 294 295 296 297 298 299
4 241 65 300 301
5 302 303 304 305 306
5 307 308 309 310 311
4 312 313 314 315
4 316 317 252 251
5 64 63 318 319 320
12 321 322 323 324 325 326 327 328 329 330 331 332
4 178 177 333 334
6 335 336 337 338 339 340
4 341 342 343 344
4 345 245 247 346
4 347 348 349 350
4 351 352 353 354
4 355 356 86 85
4 357 358 359 360
4 106 105 344 343
4 12 182 181 8
6 361 362 363 364 365 366
4 367 368 369 370
6 371 372 373 374 375 376
4 377 378 379 380
14 381 382 383 384 385 386 271 270 387 388 389 390 391 276
14 392 393 394 395 396 397 398 399 400 248 253 401 402 403
4 404 405 406 407
5 92 408 409 410 93
4 411 412 413 414
4 415 416 417 418
14 419 420 421 422 423 424 425 341 426 427 428 429 430 431
14 432 433 434 435 436 437 438 48 439 440 441 442 443 444
5 445 446 447 448 449
4 450 451 452 453
5 454 417 416 455 456
34 457 458 459 460 461 462 463 464 465 466 467 468 469 470 471 472 473 474 475 476 477 478 479 480 481 482 483 484 485 486 487 488 489 490
5 491 492 493 494 495
5 496 497 498 499 500
5 501 502 503 398 397
5 504 173 172 505 506
5 507 508 509 510 511
6 512 513 514 515 516 517
4 518 519 520 521
6 269 522 430 523 524 270
6 249 248 518 521 434 525
6 526 527 528 529 530 531
4 532 533 534 535
6 536 537 538 539 540 541
4 542 543 544 545
4 546 547 79 78
4 548 45 44 549
4 550 551 303 302
6 552 553 554 555 556 557
4 558 559 560 561
6 562 563 564 565 566 567
4 568 569 570 571
4 572 573 378 377
4 574 575 576 577
5 578 438 437 579 580
4 581 582 583 584
4 320 319 585 586
6 587 577 576 588 589 590
5 591 592 593 594 595
5 596 597 598 599 600
5 601 602 439 48 47
4 603 604 605 606
5 607 608 609 390 389
4 610 611 612 613
5 614 615 616 617 618
4 167 166 619 620
6 621 622 623 624 625 626
4 627 628 629 630
6 522 631 632 633 431 430
6 634 635 636 637 638 639
4 640 641 642 643
12 644 645 646 647 648 649 650 651 652 653 654 655
6 656 657 658 659 660 661
12 662 663 664 665 666 667 668 669 670 671 672 673
4 674 675 676 677
6 678 679 680 681 682 683
5 103 684 427 426 104
4 185 184 685 686
4 687 688 689 690
4 691 348 347 692
4 693 694 695 696
4 334 333 697 698
4 699 700 701 702
4 273 272 703 704
4 705 706 707 708
4 686 685 709 710
5 711 95 94 700 699
4 301 300 586 585
4 712 713 714 715
4 716 306 305 717
6 108 718 719 720 721 109
4 722 723 724 725
4 50 49 726 727
4 43 46 728 729
6 730 731 732 733 734 735
4 725 724 736 737
6 738 739 740 741 742 743
12 744 745 746 747 748 749 750 751 752 753 754 755
14 185 756 418 757 758 759 760 719 718 761 762 763 764 186
14 765 553 552 766 767 768 769 254 258 449 448 770 771 772
6 773 37 36 561 560 774
4 775 776 487 486
6 777 778 779 780 781 782
4 783 784 180 183
4 578 580 727 726
14 785 786 787 781 780 788 789 790 791 454 456 82 81 792
14 193 604 793 794 795 796 797 798 799 516 515 800 801 189
5 76 802 31 30 77
4 803 804 805 806
6 385 715 714 612 611 386
5 807 808 809 810 811
12 812 813 814 815 816 817 818 819 820 821 822 823
5 824 825 826 827 828
6 432 444 407 406 569 568
4 453 829 830 450
5 831 832 833 834 835
4 449 836 837 445
24 838 839 840 841 842 843 844 845 846 847 848 849 850 851 852 853 854 855 856 857 452 451 858 859
4 860 861 862 863
6 864 762 761 70 69 865
6 765 772 866 867 868 869
5 425 275 274 342 341
4 870 871 872 873
6 874 875 876 877 878 879
5 880 881 882 883 884
6 58 57 729 728 861 860
12 885 886 887 888 889 890 891 892 893 894 895 896
44 897 898 899 900 901 902 903 904 905 906 907 908 909 910 911 912 913 914 915 916 917 918 919 920 921 922 923 924 925 926 927 928 929 930 931 873 872 932 933 934 935 936 937 938
5 939 940 941 942 943
4 523 944 945 524
5 946 947 793 604 603
4 254 947 946 255
4 802 409 408 31
4 710 709 948 949
6 950 951 559 558 101 100
4 545 544 777 782
6 952 787 786 953 954 955
5 956 957 958 959 960
6 961 962 963 964 965 966
12 967 968 969 970 971 972 973 974 975 976 977 978
4 63 10 9 318
12 979 980 981 982 983 984 985 986 987 988 989 990
5 277 276 391 737 736
4 532 555 554 533
4 256 991 992 257
4 456 455 353 352
4 708 707 993 994
4 189 447 446 190
4 513 867 866 514
4 158 995 996 155
4 953 864 865 954
4 535 534 869 868
4 354 84 83 351
4 80 188 187 81
5 415 418 756 949 948
4 697 773 774 698
4 991 837 836 992
4 997 192 191 998
4 136 135 999 1000
6 1001 1002 1003 1004 1005 1006
6 434 433 1007 1008 1009 525
6 1010 1011 1012 1013 1014 1015
14 1016 1017 1018 1019 1020 1021 360 1022 994 1023 1024 1025 1026 1027
4 606 605 997 998
6 1028 1029 1030 1031 1032 1033
14 1034 1035 587 590 1036 1037 1038 1039 1040 1041 179 174 1042 1043
6 1044 1045 1046 1017 1016 1047
4 1046 1045 165 164
5 1048 1049 1050 1051 1052
5 15 75 784 783 16
14 168 339 338 1053 1054 614 618 573 1055 1056 1057 1058 1059 163
6 118 575 574 1060 1061 119
14 1062 1063 1064 1061 1060 1065 1066 1067 1068 504 506 304 303 1069
4 1070 1071 1072 1073
5 1074 1075 1076 1077 1078
5 1079 1080 1081 1082 1083
5 551 550 1084 1041 1040
4 1085 1086 1087 1088
4 1084 356 355 1041
5 1089 1090 1091 1092 1093
4 1094 1095 1096 1097
4 1098 1099 1100 1101
6 1101 338 337 1102 1026 1098
4 1103 1104 1105 1106
4 602 601 1107 395
6 1108 1109 1063 1085 1088 1037
6 1026 1102 1110 315 314 1027
6 1111 1108 1037 1036 1112 1113
6 1114 1115 1116 1117 1118 1119
4 160 159 176 246
4 1120 1121 1122 1123
6 1124 1125 1126 1127 1128 1129
4 711 131 130 95
12 1130 1131 1132 1133 1134 1135 1136 1137 1138 1139 1140 1141
4 1142 1143 171 170
4 1144 589 588 1145
4 1146 1044 1047 1147
4 243 169 157 156
5 1148 1149 1150 1151 1152
5 1153 1154 1155 1156 1157
5 993 1158 1159 1023 994
5 358 357 1055 573 572
4 1160 242 244 1161
6 1109 1162 369 368 1064 1063
4 161 1163 1164 162
4 548 549 1143 1142
4 1165 335 340 1166
5 1167 1168 1169 1170 1171
4 397 350 349 501
12 1172 1173 1174 1175 1176 1177 1178 1179 1180 1181 1182 1183
4 503 502 579 437
4 1009 250 249 525
12 1184 1185 1186 1187 1188 1189 1190 1191 1192 1193 1194 1195
4 345 346 1196 1197
4 522 269 268 631
4 1159 1158 615 614
4 704 703 610 613
4 863 862 1160 1161
4 1103 1106 317 316
5 1198 1022 360 359 1199
4 336 1110 1102 337
4 1200 1201 582 581
4 571 570 1202 1203
4 1109 1108 1111 1162
4 1202 1008 1007 1203
4 29 132 547 546
4 1204 1205 1144 1145
4 620 619 1165 1166
4 1200 633 632 1201
4 1113 1112 1205 1204
4 367 370 117 116
4 717 1206 1207 716
4 608 607 427 684
4 1199 706 705 1198
4 93 410 1208 1209
4 506 505 1207 1206
4 390 609 723 722
4 379 617 616 380
4 702 701 1209 1208
12 1210 1211 1212 1213 1214 1215 1216 1217 1218 1219 1220 1221
4 1146 1147 313 312
12 1222 1223 1224 1225 1226 1227 1228 1229 1230 1231 1232 1233
6 1234 134 133 799 798 1235
5 1236 1237 1238 1239 1240
4 1241 1242 1243 1244
6 1245 1246 1247 1248 1249 1250
5 1251 1252 1253 1254 1255
6 584 583 713 712 420 419
6 1256 1257 1258 1259 1260 1261
4 846 871 870 847
6 1262 762 864 953 786 1263
5 396 395 1107 691 692
4 1197 1196 951 950
5 1264 1265 1266 1267 1268
4 999 512 517 1000
4 1263 1269 1270 1262
6 404 402 401 1105 1104 405
4 1271 1272 1273 1274
4 557 556 1234 1235
6 866 772 1271 1274 515 514
4 1275 1276 1277 1278
6 1279 1280 1281 1282 1283 1284
6 1285 1286 1287 1288 1289 1290
4 1291 1292 1293 1294
4 1295 1296 1297 1298
4 1299 1300 1301 1302
32 1303 1304 1305 1306 1307 1308 1309 1310 1311 1312 1313 1314 1315 1316 1317 1318 1319 1320 1321 1322 1323 1324 830 829 1325 1326 1327 1328 1329 1330 1331 1332
4 469 1333 1334 470
12 1335 1336 1337 1338 1339 1340 1341 1342 1343 1344 1345 1346
5 1347 1348 1349 1350 1351
4 542 952 955 543
4 1333 1310 1309 1334
4 911 910 776 775
6 1352 1353 1354 1355 1356 1357
6 1358 1359 1360 1361 1362 1363
4 779 778 721 720
