ply
format ascii 1.0
comment Created by Blender 2.82 (sub 7) - www.blender.org, source file: ''
element vertex 640
property float x
property float y
property float z
element face 176
property list uchar uint vertex_indices
end_header
-10.909660 18.036400 -5.689060
-10.909660 -17.963579 -5.689060
-10.870140 -17.963579 -5.740570
-10.870140 18.036400 -5.740570
11.129880 -17.963579 -4.740570
11.163180 -17.963579 -4.864900
11.163180 18.036400 -4.864900
11.129880 18.036400 -4.740570
-11.085500 -17.963579 4.011400
-11.209840 -17.963579 4.044700
-11.209840 18.036400 4.044700
-11.085500 18.036400 4.011400
10.914480 -17.963579 -4.616230
10.978880 -17.963579 -4.624700
10.978880 18.036400 -4.624700
10.914480 18.036400 -4.616230
20.763180 33.763180 7.250000
-20.763180 33.763180 7.250000
-20.763180 -33.763180 7.250000
20.763180 -33.763180 7.250000
10.738680 -17.963579 4.435900
10.738680 18.036400 4.435900
10.674280 18.036400 4.324500
10.674280 -17.963579 4.324500
12.990380 19.500019 7.000000
14.999980 27.000019 7.000000
14.999980 27.000019 -8.000000
12.990380 19.500019 -8.000000
-11.021140 -17.963579 -5.624700
-11.021140 18.036400 -5.624700
11.129880 -17.963579 -4.989240
11.129880 18.036400 -4.989240
-18.000019 27.000019 -8.000000
-15.000020 27.000019 -8.000000
-12.990400 19.500019 -8.000000
-7.500020 14.009620 -8.000000
-3.882320 12.511120 -8.000000
3.882280 12.511120 -8.000000
7.499980 14.009620 -8.000000
12.990380 19.500019 -8.000000
14.999980 27.000019 -8.000000
17.999981 27.000019 -8.000000
15.588480 18.000019 -8.000000
8.999980 11.411520 -8.000000
4.658680 9.613320 -8.000000
-4.658720 9.613320 -8.000000
-9.000020 11.411520 -8.000000
-15.588480 18.000019 -8.000000
11.090380 -17.963579 -6.040740
10.978880 -17.963579 -6.105110
10.978880 18.036400 -6.105110
11.090380 18.036400 -6.040740
-10.870140 18.036400 5.384400
-10.870140 -17.963579 5.384400
-10.845300 -17.963579 5.324500
-10.845300 18.036400 5.324500
-15.000020 27.000019 7.000000
-18.000019 27.000019 7.000000
-15.588480 18.000019 7.000000
-9.000020 11.411520 7.000000
-4.658720 9.613320 7.000000
4.658680 9.613320 7.000000
8.999980 11.411520 7.000000
15.588480 18.000019 7.000000
17.999981 27.000019 7.000000
14.999980 27.000019 7.000000
12.990380 19.500019 7.000000
7.499980 14.009620 7.000000
3.882280 12.511120 7.000000
-3.882320 12.511120 7.000000
-7.500020 14.009620 7.000000
-12.990400 19.500019 7.000000
11.129880 -17.963579 -5.740570
11.163180 -17.963579 -5.864900
11.163180 18.036400 -5.864900
11.129880 18.036400 -5.740570
-11.300860 -17.963579 5.384400
-11.300860 18.036400 5.384400
-11.325700 18.036400 5.324500
-11.325700 -17.963579 5.324500
-11.325700 18.036400 4.195700
-11.325700 -17.963579 4.195700
-11.325700 -17.963579 4.324500
-11.325700 18.036400 4.324500
-20.763180 -33.763180 7.250000
-20.763180 -33.763180 8.000000
20.763180 -33.763180 8.000000
20.763180 -33.763180 7.250000
-10.870140 -17.963579 -4.740570
-10.836820 -17.963579 -4.864900
-10.836820 18.036400 -4.864900
-10.870140 18.036400 -4.740570
11.038880 -17.963579 4.475500
11.129880 -17.963579 4.384400
11.129880 18.036400 4.384400
11.038880 18.036400 4.475500
-11.149860 -17.963579 -4.624700
-11.021140 -17.963579 -4.624700
-11.021140 18.036400 -4.624700
-11.149860 18.036400 -4.624700
-10.961160 -17.963579 -5.080260
-11.021140 -17.963579 -5.105110
-11.021140 18.036400 -5.105110
-10.961160 18.036400 -5.080260
-10.870140 -17.963579 4.135800
-10.961160 -17.963579 4.044700
-10.961160 18.036400 4.044700
-10.870140 18.036400 4.135800
10.914480 -17.963579 4.508800
10.914480 18.036400 4.508800
11.163180 -17.963579 4.260100
11.163180 18.036400 4.260100
10.738680 -17.963579 -4.689060
10.790180 -17.963579 -4.649550
10.790180 18.036400 -4.649550
10.738680 18.036400 -4.689060
-11.325700 18.036400 5.195700
-11.325700 -17.963579 5.195700
-10.845300 -17.963579 5.195700
-10.845300 18.036400 5.195700
11.090380 18.036400 -4.689060
11.090380 -17.963579 -4.689060
-10.961160 -17.963579 4.475500
-10.870140 -17.963579 4.384400
-10.870140 18.036400 4.384400
-10.961160 18.036400 4.475500
-20.763180 -33.763180 7.250000
-20.763180 33.763180 7.250000
-20.763180 33.763180 8.000000
-20.763180 -33.763180 8.000000
-20.763180 33.763180 8.000000
20.763180 33.763180 8.000000
20.763180 -33.763180 8.000000
-20.763180 -33.763180 8.000000
4.658680 -9.613280 -8.000000
8.999980 -11.411480 -8.000000
15.588480 -17.999981 -8.000000
17.999981 -26.999981 -8.000000
14.999980 -26.999981 -8.000000
12.990380 -19.499981 -8.000000
7.499980 -14.009580 -8.000000
3.882280 -12.511080 -8.000000
-3.882320 -12.511080 -8.000000
-7.500020 -14.009580 -8.000000
-12.990400 -19.499981 -8.000000
-15.000020 -26.999981 -8.000000
-18.000019 -26.999981 -8.000000
-15.588480 -17.999981 -8.000000
-9.000020 -11.411480 -8.000000
-4.658720 -9.613280 -8.000000
20.763180 -33.763180 7.250000
-20.763180 -33.763180 7.250000
-20.763180 33.763180 7.250000
20.763180 33.763180 7.250000
-9.000020 11.411520 -8.000000
-9.000020 11.411520 7.000000
-15.588480 18.000019 7.000000
-15.588480 18.000019 -8.000000
-12.990400 -19.499981 7.000000
-7.500020 -14.009580 7.000000
-3.882320 -12.511080 7.000000
3.882280 -12.511080 7.000000
7.499980 -14.009580 7.000000
12.990380 -19.499981 7.000000
14.999980 -26.999981 7.000000
17.999981 -26.999981 7.000000
15.588480 -17.999981 7.000000
8.999980 -11.411480 7.000000
4.658680 -9.613280 7.000000
-4.658720 -9.613280 7.000000
-9.000020 -11.411480 7.000000
-15.588480 -17.999981 7.000000
-18.000019 -26.999981 7.000000
-15.000020 -26.999981 7.000000
10.674280 18.036400 -4.800540
10.674280 -17.963579 -4.800540
10.914480 -17.963579 -6.113580
10.914480 18.036400 -6.113580
-10.836820 -17.963579 -5.864900
-10.836820 18.036400 -5.864900
-20.763180 33.763180 8.000000
-20.763180 33.763180 7.250000
20.763180 33.763180 7.250000
20.763180 33.763180 8.000000
-10.870140 18.036400 -4.989240
-10.870140 -17.963579 -4.989240
-11.261340 -17.963579 -5.689060
-11.149860 -17.963579 -5.624700
-11.149860 18.036400 -5.624700
-11.261340 18.036400 -5.689060
-11.325700 18.036400 -5.800540
-11.261340 18.036400 -5.689060
-11.149860 18.036400 -5.624700
-11.021140 18.036400 -5.624700
-10.909660 18.036400 -5.689060
-10.870140 18.036400 -5.740570
-10.836820 18.036400 -5.864900
-10.870140 18.036400 -5.989240
-10.961160 18.036400 -6.080260
-11.021140 18.036400 -6.105110
-11.149860 18.036400 -6.105110
-11.209840 18.036400 -6.080260
-11.300860 18.036400 -5.989240
-11.325700 18.036400 -5.929270
7.499980 -14.009580 7.000000
7.499980 -14.009580 -8.000000
12.990380 -19.499981 -8.000000
12.990380 -19.499981 7.000000
-11.300860 18.036400 5.135800
-11.300860 -17.963579 5.135800
10.790180 -17.963579 5.475500
10.914480 -17.963579 5.508800
10.914480 18.036400 5.508800
10.790180 18.036400 5.475500
-11.085500 -17.963579 4.508800
-11.085500 18.036400 4.508800
-11.209840 -17.963579 4.475500
-11.209840 18.036400 4.475500
-7.500020 14.009620 7.000000
-7.500020 14.009620 -8.000000
-12.990400 19.500019 -8.000000
-12.990400 19.500019 7.000000
-10.961160 -17.963579 5.475500
-11.085500 -17.963579 5.508800
-11.209840 -17.963579 5.475500
-11.300860 -17.963579 5.384400
-11.325700 -17.963579 5.324500
-11.325700 -17.963579 5.195700
-11.300860 -17.963579 5.135800
-11.209840 -17.963579 5.044700
-11.085500 -17.963579 5.011400
-10.961160 -17.963579 5.044700
-10.870140 -17.963579 5.135800
-10.845300 -17.963579 5.195700
-10.845300 -17.963579 5.324500
-10.870140 -17.963579 5.384400
11.090380 18.036400 -5.689060
11.090380 -17.963579 -5.689060
-11.325700 -17.963579 -5.929270
-11.300860 -17.963579 -5.989240
-11.209840 -17.963579 -6.080260
-11.149860 -17.963579 -6.105110
-11.021140 -17.963579 -6.105110
-10.961160 -17.963579 -6.080260
-10.870140 -17.963579 -5.989240
-10.836820 -17.963579 -5.864900
-10.870140 -17.963579 -5.740570
-10.909660 -17.963579 -5.689060
-11.021140 -17.963579 -5.624700
-11.149860 -17.963579 -5.624700
-11.261340 -17.963579 -5.689060
-11.325700 -17.963579 -5.800540
-20.763180 -33.763180 8.000000
20.763180 -33.763180 8.000000
20.763180 33.763180 8.000000
-20.763180 33.763180 8.000000
11.038880 -17.963579 4.044700
10.914480 -17.963579 4.011400
10.914480 18.036400 4.011400
11.038880 18.036400 4.044700
-10.961160 18.036400 -5.080260
-11.021140 18.036400 -5.105110
-11.149860 18.036400 -5.105110
-11.209840 18.036400 -5.080260
-11.300860 18.036400 -4.989240
-11.325700 18.036400 -4.929270
-11.325700 18.036400 -4.800540
-11.261340 18.036400 -4.689060
-11.149860 18.036400 -4.624700
-11.021140 18.036400 -4.624700
-10.909660 18.036400 -4.689060
-10.870140 18.036400 -4.740570
-10.836820 18.036400 -4.864900
-10.870140 18.036400 -4.989240
-11.021140 -17.963579 -6.105110
-11.149860 -17.963579 -6.105110
-11.149860 18.036400 -6.105110
-11.021140 18.036400 -6.105110
10.790180 -17.963579 5.044700
10.738680 -17.963579 5.084300
10.738680 18.036400 5.084300
10.790180 18.036400 5.044700
-10.870140 18.036400 -5.989240
-10.870140 -17.963579 -5.989240
-10.961160 -17.963579 -6.080260
-10.961160 18.036400 -6.080260
10.738680 18.036400 4.084300
10.738680 -17.963579 4.084300
10.674280 -17.963579 4.195700
10.674280 18.036400 4.195700
10.790180 -17.963579 -6.080260
10.738680 -17.963579 -6.040740
10.738680 18.036400 -6.040740
10.790180 18.036400 -6.080260
10.790180 -17.963579 4.475500
10.790180 18.036400 4.475500
10.674280 -17.963579 5.195700
10.674280 18.036400 5.195700
-15.000020 27.000019 7.000000
-15.000020 27.000019 -8.000000
-18.000019 27.000019 -8.000000
-18.000019 27.000019 7.000000
11.129880 -17.963579 4.135800
11.129880 18.036400 4.135800
-3.882320 12.511120 7.000000
-3.882320 12.511120 -8.000000
11.129880 18.036400 -5.989240
11.129880 -17.963579 -5.989240
-15.000020 27.000019 7.000000
-15.000020 27.000019 -8.000000
-11.325700 -17.963579 -4.929270
-11.300860 -17.963579 -4.989240
-11.209840 -17.963579 -5.080260
-11.149860 -17.963579 -5.105110
-11.021140 -17.963579 -5.105110
-10.961160 -17.963579 -5.080260
-10.870140 -17.963579 -4.989240
-10.836820 -17.963579 -4.864900
-10.870140 -17.963579 -4.740570
-10.909660 -17.963579 -4.689060
-11.021140 -17.963579 -4.624700
-11.149860 -17.963579 -4.624700
-11.261340 -17.963579 -4.689060
-11.325700 -17.963579 -4.800540
7.499980 14.009620 7.000000
7.499980 14.009620 -8.000000
-20.763180 -33.763180 8.000000
-20.763180 33.763180 8.000000
-20.763180 33.763180 7.250000
-20.763180 -33.763180 7.250000
10.738680 -17.963579 -5.689060
10.790180 -17.963579 -5.649550
10.790180 18.036400 -5.649550
10.738680 18.036400 -5.689060
17.999981 27.000019 7.000000
15.588480 18.000019 7.000000
15.588480 18.000019 -8.000000
17.999981 27.000019 -8.000000
-10.961160 18.036400 4.044700
-11.085500 18.036400 4.011400
-11.209840 18.036400 4.044700
-11.300860 18.036400 4.135800
-11.325700 18.036400 4.195700
-11.325700 18.036400 4.324500
-11.300860 18.036400 4.384400
-11.209840 18.036400 4.475500
-11.085500 18.036400 4.508800
-10.961160 18.036400 4.475500
-10.870140 18.036400 4.384400
-10.845300 18.036400 4.324500
-10.845300 18.036400 4.195700
-10.870140 18.036400 4.135800
-9.000020 -11.411480 -8.000000
-9.000020 -11.411480 7.000000
-4.658720 -9.613280 7.000000
-4.658720 -9.613280 -8.000000
10.978880 -17.963579 -5.105110
10.914480 -17.963579 -5.113580
10.914480 18.036400 -5.113580
10.978880 18.036400 -5.105110
-12.990400 -19.499981 -8.000000
-7.500020 -14.009580 -8.000000
-7.500020 -14.009580 7.000000
-12.990400 -19.499981 7.000000
8.999980 11.411520 -8.000000
8.999980 11.411520 7.000000
4.658680 9.613320 7.000000
4.658680 9.613320 -8.000000
8.999980 -11.411480 -8.000000
8.999980 -11.411480 7.000000
15.588480 -17.999981 7.000000
15.588480 -17.999981 -8.000000
-11.209840 -17.963579 5.475500
-11.209840 18.036400 5.475500
-4.658720 9.613320 -8.000000
-4.658720 9.613320 7.000000
10.914480 -17.963579 -5.616230
10.914480 18.036400 -5.616230
-15.588480 -17.999981 -8.000000
-15.588480 -17.999981 7.000000
-11.085500 -17.963579 4.508800
-11.209840 -17.963579 4.475500
-11.300860 -17.963579 4.384400
-11.325700 -17.963579 4.324500
-11.325700 -17.963579 4.195700
-11.300860 -17.963579 4.135800
-11.209840 -17.963579 4.044700
-11.085500 -17.963579 4.011400
-10.961160 -17.963579 4.044700
-10.870140 -17.963579 4.135800
-10.845300 -17.963579 4.195700
-10.845300 -17.963579 4.324500
-10.870140 -17.963579 4.384400
-10.961160 -17.963579 4.475500
-11.209840 -17.963579 -6.080260
-11.209840 18.036400 -6.080260
-10.870140 -17.963579 5.135800
-10.870140 18.036400 5.135800
20.763180 33.763180 8.000000
20.763180 33.763180 7.250000
-20.763180 33.763180 7.250000
-20.763180 33.763180 8.000000
-10.845300 18.036400 5.324500
-10.845300 18.036400 5.195700
-10.870140 18.036400 5.135800
-10.961160 18.036400 5.044700
-11.085500 18.036400 5.011400
-11.209840 18.036400 5.044700
-11.300860 18.036400 5.135800
-11.325700 18.036400 5.195700
-11.325700 18.036400 5.324500
-11.300860 18.036400 5.384400
-11.209840 18.036400 5.475500
-11.085500 18.036400 5.508800
-10.961160 18.036400 5.475500
-10.870140 18.036400 5.384400
17.999981 -26.999981 7.000000
17.999981 -26.999981 -8.000000
-11.261340 -17.963579 -4.689060
-11.261340 18.036400 -4.689060
-11.325700 18.036400 -4.800540
-11.325700 -17.963579 -4.800540
-11.325700 18.036400 -4.929270
-11.325700 -17.963579 -4.929270
-11.325700 -17.963579 -5.929270
-11.325700 18.036400 -5.929270
-11.300860 18.036400 -5.989240
-11.300860 -17.963579 -5.989240
11.129880 18.036400 5.384400
11.129880 -17.963579 5.384400
11.163180 -17.963579 5.260100
11.163180 18.036400 5.260100
-11.300860 18.036400 4.384400
-11.300860 -17.963579 4.384400
-10.845300 -17.963579 4.195700
-10.845300 18.036400 4.195700
-10.845300 18.036400 4.324500
-10.845300 -17.963579 4.324500
-11.149860 -17.963579 -5.105110
-11.149860 18.036400 -5.105110
11.129880 -17.963579 5.135800
11.129880 18.036400 5.135800
11.038880 -17.963579 5.044700
11.038880 18.036400 5.044700
10.790180 18.036400 4.475500
10.914480 18.036400 4.508800
11.038880 18.036400 4.475500
11.129880 18.036400 4.384400
11.163180 18.036400 4.260100
11.129880 18.036400 4.135800
11.038880 18.036400 4.044700
10.914480 18.036400 4.011400
10.790180 18.036400 4.044700
10.738680 18.036400 4.084300
10.674280 18.036400 4.195700
10.674280 18.036400 4.324500
10.738680 18.036400 4.435900
-11.325700 18.036400 -5.800540
-11.325700 -17.963579 -5.800540
-18.000019 -26.999981 7.000000
-18.000019 -26.999981 -8.000000
-15.000020 -26.999981 -8.000000
-15.000020 -26.999981 7.000000
10.790180 -17.963579 4.044700
10.790180 18.036400 4.044700
10.914480 -17.963579 5.011400
10.914480 18.036400 5.011400
10.978880 -17.963579 -5.624700
10.978880 18.036400 -5.624700
-11.300860 18.036400 -4.989240
-11.300860 -17.963579 -4.989240
10.738680 -17.963579 5.435900
10.738680 18.036400 5.435900
10.674280 18.036400 5.324500
10.674280 -17.963579 5.324500
11.038880 -17.963579 5.475500
11.038880 18.036400 5.475500
11.129880 -17.963579 4.384400
11.038880 -17.963579 4.475500
10.914480 -17.963579 4.508800
10.790180 -17.963579 4.475500
10.738680 -17.963579 4.435900
10.674280 -17.963579 4.324500
10.674280 -17.963579 4.195700
10.738680 -17.963579 4.084300
10.790180 -17.963579 4.044700
10.914480 -17.963579 4.011400
11.038880 -17.963579 4.044700
11.129880 -17.963579 4.135800
11.163180 -17.963579 4.260100
3.882280 12.511120 7.000000
3.882280 12.511120 -8.000000
11.129880 18.036400 5.384400
11.163180 18.036400 5.260100
11.129880 18.036400 5.135800
11.038880 18.036400 5.044700
10.914480 18.036400 5.011400
10.790180 18.036400 5.044700
10.738680 18.036400 5.084300
10.674280 18.036400 5.195700
10.674280 18.036400 5.324500
10.738680 18.036400 5.435900
10.790180 18.036400 5.475500
10.914480 18.036400 5.508800
11.038880 18.036400 5.475500
-11.209840 -17.963579 -5.080260
-11.209840 18.036400 -5.080260
10.674280 18.036400 -5.800540
10.674280 -17.963579 -5.800540
-10.909660 -17.963579 -4.689060
-10.909660 18.036400 -4.689060
10.674280 18.036400 -5.929270
10.674280 -17.963579 -5.929270
-11.300860 -17.963579 4.135800
-11.300860 18.036400 4.135800
20.763180 33.763180 8.000000
20.763180 -33.763180 8.000000
20.763180 -33.763180 7.250000
20.763180 33.763180 7.250000
-15.000020 -26.999981 -8.000000
-15.000020 -26.999981 7.000000
11.038880 -17.963579 5.044700
11.129880 -17.963579 5.135800
11.163180 -17.963579 5.260100
11.129880 -17.963579 5.384400
11.038880 -17.963579 5.475500
10.914480 -17.963579 5.508800
10.790180 -17.963579 5.475500
10.738680 -17.963579 5.435900
10.674280 -17.963579 5.324500
10.674280 -17.963579 5.195700
10.738680 -17.963579 5.084300
10.790180 -17.963579 5.044700
10.914480 -17.963579 5.011400
3.882280 -12.511080 7.000000
3.882280 -12.511080 -8.000000
10.978880 18.036400 -6.105110
10.914480 18.036400 -6.113580
10.790180 18.036400 -6.080260
10.738680 18.036400 -6.040740
10.674280 18.036400 -5.929270
10.674280 18.036400 -5.800540
10.738680 18.036400 -5.689060
10.790180 18.036400 -5.649550
10.914480 18.036400 -5.616230
10.978880 18.036400 -5.624700
11.090380 18.036400 -5.689060
11.129880 18.036400 -5.740570
11.163180 18.036400 -5.864900
11.129880 18.036400 -5.989240
11.090380 18.036400 -6.040740
-18.000019 27.000019 7.000000
-18.000019 27.000019 -8.000000
-3.882320 -12.511080 -8.000000
-3.882320 -12.511080 7.000000
20.763180 -33.763180 7.250000
20.763180 -33.763180 8.000000
-20.763180 -33.763180 8.000000
-20.763180 -33.763180 7.250000
-18.000019 -26.999981 -8.000000
-18.000019 -26.999981 7.000000
10.674280 -17.963579 -4.929270
10.674280 18.036400 -4.929270
10.738680 18.036400 -5.040740
10.738680 -17.963579 -5.040740
10.790180 -17.963579 -5.080260
10.790180 18.036400 -5.080260
14.999980 -26.999981 -8.000000
14.999980 -26.999981 7.000000
11.090380 -17.963579 -5.040740
11.090380 18.036400 -5.040740
4.658680 -9.613280 -8.000000
4.658680 -9.613280 7.000000
14.999980 -26.999981 7.000000
14.999980 -26.999981 -8.000000
17.999981 -26.999981 -8.000000
17.999981 -26.999981 7.000000
11.129880 -17.963579 -5.740570
11.090380 -17.963579 -5.689060
10.978880 -17.963579 -5.624700
10.914480 -17.963579 -5.616230
10.790180 -17.963579 -5.649550
10.738680 -17.963579 -5.689060
10.674280 -17.963579 -5.800540
10.674280 -17.963579 -5.929270
10.738680 -17.963579 -6.040740
10.790180 -17.963579 -6.080260
10.914480 -17.963579 -6.113580
10.978880 -17.963579 -6.105110
11.090380 -17.963579 -6.040740
11.129880 -17.963579 -5.989240
11.163180 -17.963579 -5.864900
-11.085500 -17.963579 5.011400
-11.209840 -17.963579 5.044700
-11.209840 18.036400 5.044700
-11.085500 18.036400 5.011400
-11.085500 -17.963579 5.508800
-10.961160 -17.963579 5.475500
-10.961160 18.036400 5.475500
-11.085500 18.036400 5.508800
10.978880 18.036400 -4.624700
11.090380 18.036400 -4.689060
11.129880 18.036400 -4.740570
11.163180 18.036400 -4.864900
11.129880 18.036400 -4.989240
11.090380 18.036400 -5.040740
10.978880 18.036400 -5.105110
10.914480 18.036400 -5.113580
10.790180 18.036400 -5.080260
10.738680 18.036400 -5.040740
10.674280 18.036400 -4.929270
10.674280 18.036400 -4.800540
10.738680 18.036400 -4.689060
10.790180 18.036400 -4.649550
10.914480 18.036400 -4.616230
-10.961160 -17.963579 5.044700
-10.961160 18.036400 5.044700
20.763180 33.763180 7.250000
20.763180 -33.763180 7.250000
20.763180 -33.763180 8.000000
20.763180 33.763180 8.000000
10.978880 -17.963579 -5.105110
11.090380 -17.963579 -5.040740
11.129880 -17.963579 -4.989240
11.163180 -17.963579 -4.864900
11.129880 -17.963579 -4.740570
11.090380 -17.963579 -4.689060
10.978880 -17.963579 -4.624700
10.914480 -17.963579 -4.616230
10.790180 -17.963579 -4.649550
10.738680 -17.963579 -4.689060
10.674280 -17.963579 -4.800540
10.674280 -17.963579 -4.929270
10.738680 -17.963579 -5.040740
10.790180 -17.963579 -5.080260
10.914480 -17.963579 -5.113580
17.999981 27.000019 7.000000
17.999981 27.000019 -8.000000
14.999980 27.000019 -8.000000
14.999980 27.000019 7.000000
4 0 1 2 3
4 4 5 6 7
4 8 9 10 11
4 12 13 14 15
4 16 17 18 19
4 20 21 22 23
4 24 25 26 27
4 28 1 0 29
4 6 5 30 31
16 32 33 34 35 36 37 38 39 40 41 42 43 44 45 46 47
4 48 49 50 51
4 52 53 54 55
16 56 57 58 59 60 61 62 63 64 65 66 67 68 69 70 71
4 72 73 74 75
4 76 77 78 79
4 80 81 82 83
4 84 85 86 87
4 88 89 90 91
4 92 93 94 95
4 96 97 98 99
4 100 101 102 103
4 104 105 106 107
4 108 92 95 109
4 94 93 110 111
4 112 113 114 115
4 116 117 79 78
4 118 119 55 54
4 120 121 4 7
4 122 123 124 125
4 126 127 128 129
4 130 131 132 133
16 134 135 136 137 138 139 140 141 142 143 144 145 146 147 148 149
4 150 151 152 153
4 154 155 156 157
16 158 159 160 161 162 163 164 165 166 167 168 169 170 171 172 173
4 174 175 112 115
4 49 176 177 50
4 13 121 120 14
4 2 178 179 3
4 113 12 15 114
4 180 181 182 183
4 184 185 100 103
4 186 187 188 189
14 190 191 192 193 194 195 196 197 198 199 200 201 202 203
4 204 205 206 207
4 89 185 184 90
4 117 116 208 209
4 210 211 212 213
4 214 122 125 215
4 216 214 215 217
4 218 219 220 221
14 222 223 224 225 226 227 228 229 230 231 232 233 234 235
4 236 237 72 75
14 238 239 240 241 242 243 244 245 246 247 248 249 250 251
4 252 253 254 255
4 256 257 258 259
14 260 261 262 263 264 265 266 267 268 269 270 271 272 273
4 274 275 276 277
4 278 279 280 281
4 282 283 284 285
4 286 287 288 289
4 290 291 292 293
4 294 108 109 295
4 280 279 296 297
4 298 299 300 301
4 111 110 302 303
4 304 305 219 218
4 306 307 48 51
4 308 221 220 309
14 310 311 312 313 314 315 316 317 318 319 320 321 322 323
4 324 24 27 325
4 326 327 328 329
4 330 331 332 333
4 334 335 336 337
14 338 339 340 341 342 343 344 345 346 347 348 349 350 351
4 352 353 354 355
4 303 302 256 259
4 356 357 358 359
4 360 361 362 363
4 364 365 366 367
4 368 369 370 371
4 77 76 372 373
4 374 375 155 154
4 331 376 377 332
4 367 366 375 374
4 352 378 379 353
14 380 381 382 383 384 385 386 387 388 389 390 391 392 393
4 275 394 395 276
4 119 118 396 397
4 398 399 400 401
4 187 28 29 188
4 284 274 277 285
4 105 8 11 106
14 402 403 404 405 406 407 408 409 410 411 412 413 414 415
4 371 370 416 417
4 418 419 420 421
4 421 420 422 423
4 424 425 426 427
4 428 429 430 431
4 418 96 99 419
4 432 433 216 217
4 434 435 436 437
4 101 438 439 102
4 431 430 440 441
4 441 440 442 443
13 444 445 446 447 448 449 450 451 452 453 454 455 456
4 186 189 457 458
4 459 460 461 462
4 463 287 286 464
4 20 294 295 21
4 465 278 281 466
4 467 237 236 468
4 423 422 469 470
4 471 472 473 474
4 442 465 466 443
4 211 475 476 212
4 297 296 474 473
4 475 429 428 476
13 477 478 479 480 481 482 483 484 485 486 487 488 489
4 490 491 305 304
13 492 493 494 495 496 497 498 499 500 501 502 503 504
4 438 505 506 439
4 470 469 506 505
4 471 210 213 472
4 507 508 330 333
4 427 426 395 394
4 97 509 510 98
4 511 512 508 507
4 513 514 10 9
4 515 516 517 518
4 124 123 437 436
4 179 178 283 282
4 519 360 363 520
4 176 290 293 177
13 521 522 523 524 525 526 527 528 529 530 531 532 533
4 510 509 88 91
4 534 535 205 204
15 536 537 538 539 540 541 542 543 544 545 546 547 548 549 550
4 156 551 552 157
4 362 361 553 554
4 555 556 557 558
4 378 559 560 379
4 561 562 563 564
4 335 365 364 336
4 257 463 464 258
4 562 561 175 174
4 357 565 566 358
4 206 567 568 207
4 376 467 468 377
4 569 356 359 570
4 571 572 369 368
4 573 574 575 576
15 577 578 579 580 581 582 583 584 585 586 587 588 589 590 591
4 324 325 491 490
4 592 593 594 595
4 572 571 355 354
4 435 434 104 107
4 596 597 598 599
15 600 601 602 603 604 605 606 607 608 609 610 611 612 613 614
4 31 30 569 570
4 597 53 52 598
4 372 596 599 373
4 289 288 23 22
4 396 615 616 397
4 81 80 514 513
4 617 618 619 620
4 615 592 595 616
4 553 535 534 554
4 74 73 307 306
4 433 432 83 82
4 458 457 425 424
4 209 208 594 593
15 621 622 623 624 625 626 627 628 629 630 631 632 633 634 635
4 636 637 638 639
4 292 291 512 511
4 565 564 563 566
