ply
format ascii 1.0
comment Created by Blender 2.82 (sub 7) - www.blender.org, source file: ''
element vertex 772
property float x
property float y
property float z
element face 377
property list uchar uint vertex_indices
end_header
18.432899 -10.642200 13.688500
21.284500 0.000000 13.688500
21.172400 0.000000 13.882600
18.335800 -10.586200 13.882600
0.000000 21.241199 13.359900
10.620600 18.395399 13.359900
10.642200 18.432899 13.464300
0.000000 21.284500 13.464300
0.660170 2.463790 -11.080480
0.848712 3.167440 -11.710570
1.639590 2.839840 -11.710570
2.054150 3.557900 -12.200680
-2.054150 3.557900 -12.200680
-1.639590 2.839840 -11.710570
-0.848712 3.167440 -11.710570
-0.660170 2.463790 -11.080480
9.115550 -2.442500 -13.995335
9.180090 -2.459800 -13.963614
9.180090 2.459800 -13.963614
9.115550 2.442500 -13.995335
0.000000 -1.913990 10.992400
0.000000 -2.694100 11.861400
0.697283 -2.602300 11.861400
0.942862 -3.518810 12.542100
2.575950 -2.575950 12.542100
1.905010 -1.905010 11.861400
2.333150 -1.347050 11.861400
1.657570 -0.956996 10.992400
1.353400 -1.353400 10.992400
0.495378 -1.848780 10.992400
6.810350 -6.810350 -13.640845
6.810350 -6.810350 -13.787604
8.340940 -4.815640 -13.787604
8.340940 -4.815640 -13.640845
2.054150 -3.557900 -12.200680
1.639590 -2.839840 -11.710570
0.848712 -3.167440 -11.710570
0.660170 -2.463790 -11.080480
-0.660170 -2.463790 -11.080480
-0.848712 -3.167440 -11.710570
-1.639590 -2.839840 -11.710570
-2.054150 -3.557900 -12.200680
4.815640 -8.340940 -13.640845
2.492760 -9.303110 -13.640845
2.492760 -9.303110 -13.787604
4.815640 -8.340940 -13.787604
-2.485730 -9.276890 -13.856400
2.485730 -9.276890 -13.856400
-2.492760 -9.303110 -13.787604
-1.023870 -0.591132 -8.570690
-0.591132 -1.023870 -8.570690
-1.275350 -2.208970 -11.080480
-2.208970 -1.275350 -11.080480
-10.642200 -18.432899 13.688500
-10.586200 -18.335800 13.882600
-18.335800 -10.586200 13.882600
-18.432899 -10.642200 13.688500
-5.429570 20.263399 13.994700
-18.167700 10.489100 13.994700
-20.263399 -5.429570 13.994700
-10.489100 -18.167700 13.994700
5.429570 -20.263399 13.994700
18.167700 -10.489100 13.994700
18.167700 10.489100 13.994700
-2.492760 -9.303110 -13.640845
-2.485730 -9.276890 -13.572048
-2.474510 -9.235010 -13.512131
-4.780390 -8.279880 -13.512131
-4.815640 -8.340940 -13.640845
8.279880 -4.780390 -13.512131
4.780390 -8.279880 -13.512131
0.000000 1.182260 -8.570690
-0.591132 1.023870 -8.570690
-0.498312 0.863102 8.859400
-0.257945 0.962665 8.859400
0.000000 0.996624 8.859400
-2.492760 -9.303110 -13.640845
-2.485730 -9.276890 -13.572048
2.485730 -9.276890 -13.572048
2.492760 -9.303110 -13.640845
-5.497630 -20.517401 13.359900
0.000000 -21.241199 13.359900
0.000000 -21.082701 13.201300
-5.456600 -20.364300 13.201300
-10.541300 -18.258101 13.201300
-10.620600 -18.395399 13.359900
-10.642200 -18.432899 13.688500
-18.432899 -10.642200 13.688500
-18.335800 -10.586200 13.882600
-10.586200 -18.335800 13.882600
0.000000 21.284500 13.688500
10.642200 18.432899 13.688500
10.586200 18.335800 13.882600
0.000000 21.172400 13.882600
-20.559200 -5.508820 13.688500
-21.284500 0.000000 13.688500
-21.172400 0.000000 13.882600
-20.450899 -5.479810 13.882600
10.642200 -18.432899 13.688500
10.586200 -18.335800 13.882600
9.631290 0.000000 -13.640845
9.631290 0.000000 -13.787604
9.303110 2.492760 -13.787604
9.303110 2.492760 -13.640845
8.340940 4.815640 -13.787604
6.810350 6.810350 -13.787604
6.810350 6.810350 -13.640845
8.340940 4.815640 -13.640845
-1.275350 -2.208970 -11.080480
-2.208970 -1.275350 -11.080480
-2.463790 -0.660170 -11.080480
-3.167440 -0.848712 -11.710570
-2.839840 -1.639590 -11.710570
-3.557900 -2.054150 -12.200680
9.235010 -2.474510 -13.512131
9.276890 -2.485730 -13.572048
9.276890 2.485730 -13.572048
9.235010 2.474510 -13.512131
9.180090 2.459800 -13.464835
9.180090 -2.459800 -13.464835
18.432899 10.642200 13.464300
18.432899 10.642200 13.688500
21.284500 0.000000 13.464300
2.492760 9.303110 -13.787604
-2.492760 9.303110 -13.787604
-2.492760 9.303110 -13.640845
2.492760 9.303110 -13.640845
-9.303110 -2.492760 -13.640845
-9.303110 -2.492760 -13.787604
-8.340940 -4.815640 -13.787604
-6.810350 -6.810350 -13.787604
-6.810350 -6.810350 -13.640845
-8.340940 -4.815640 -13.640845
10.642200 -18.432899 13.464300
5.508820 -20.559200 13.688500
0.000000 -21.284500 13.688500
0.000000 -21.284500 13.464300
5.508820 -20.559200 13.464300
10.642200 18.432899 13.464300
5.508820 20.559200 13.464300
0.000000 21.284500 13.464300
0.000000 21.284500 13.688500
10.642200 18.432899 13.688500
18.432899 10.642200 13.464300
18.432899 10.642200 13.688500
4.815640 8.340940 -13.787604
4.815640 8.340940 -13.640845
-18.432899 10.642200 13.688500
-10.642200 18.432899 13.688500
-10.642200 18.432899 13.464300
-18.432899 10.642200 13.464300
21.241199 0.000000 13.359900
18.395399 -10.620600 13.359900
18.432899 -10.642200 13.464300
21.284500 0.000000 13.464300
-5.508820 20.559200 13.688500
-1.275350 2.208970 -11.080480
-3.557900 2.054150 -12.200680
-2.839840 1.639590 -11.710570
-3.167440 0.848712 -11.710570
-2.463790 0.660170 -11.080480
-2.208970 1.275350 -11.080480
-9.276890 -2.485730 -13.572048
-9.276890 2.485730 -13.572048
-9.235010 2.474510 -13.512131
-9.180090 -2.459800 -13.464835
-9.235010 -2.474510 -13.512131
-2.492760 9.303110 -13.640845
-4.815640 8.340940 -13.640845
-6.810350 6.810350 -13.640845
-6.810350 6.810350 -13.787604
-4.815640 8.340940 -13.787604
-2.492760 9.303110 -13.787604
9.276890 2.485730 -13.856400
9.235010 2.474510 -13.916318
9.235010 -2.474510 -13.916318
9.276890 -2.485730 -13.856400
-1.848780 -0.495378 10.992400
-1.353400 -1.353400 10.992400
-0.704720 -0.704720 8.859400
-0.863102 -0.498312 8.859400
-0.962665 -0.257945 8.859400
-20.559200 -5.508820 13.464300
-18.432899 -10.642200 13.464300
-20.559200 -5.508820 13.688500
-21.284500 0.000000 13.688500
-21.284500 0.000000 13.464300
-9.303110 2.492760 -13.787604
-9.631290 0.000000 -13.787604
-9.631290 0.000000 -13.640845
-9.303110 2.492760 -13.640845
-8.340940 4.815640 -13.640845
-8.340940 4.815640 -13.787604
-2.474510 9.235010 -13.916318
-2.485730 9.276890 -13.856400
2.485730 9.276890 -13.856400
2.474510 9.235010 -13.916318
-2.459800 9.180090 -13.963614
9.303110 -2.492760 -13.787604
9.303110 -2.492760 -13.640845
9.303110 2.492760 -13.640845
9.303110 2.492760 -13.787604
10.642200 -18.432899 13.688500
10.642200 -18.432899 13.464300
0.000000 -21.284500 13.464300
0.000000 -21.284500 13.688500
-4.815640 -8.340940 -13.787604
2.474510 -9.235010 -13.916318
-2.474510 -9.235010 -13.916318
-2.459800 -9.180090 -13.963614
2.459800 -9.180090 -13.963614
2.492760 -9.303110 -13.787604
-2.492760 -9.303110 -13.787604
21.284500 0.000000 13.688500
8.340940 4.815640 -13.787604
8.340940 4.815640 -13.640845
6.810350 6.810350 -13.640845
6.810350 6.810350 -13.787604
5.465940 -5.465940 -13.229652
2.423720 -9.045430 -13.418949
6.673050 -6.673050 -13.433114
2.442500 -9.115550 -13.433114
-2.459800 -9.180090 -13.464835
-8.172780 4.718560 -13.433114
-6.673050 6.673050 -13.433114
-8.109910 4.682260 -13.418949
-4.610400 4.610400 -12.985580
-5.646560 3.260050 -12.985580
-6.297920 1.687520 -12.985580
-5.912490 1.584250 -12.885000
-6.121060 0.000000 -12.885000
-4.108310 0.000000 -12.200680
-3.557900 -2.054150 -12.200680
-2.054150 -3.557900 -12.200680
2.054150 -3.557900 -12.200680
18.395399 10.620600 13.359900
-0.495378 1.848780 10.992400
-0.257945 0.962665 8.859400
0.000000 0.996624 8.859400
0.257945 0.962665 8.859400
0.495378 1.848780 10.992400
0.000000 1.913990 10.992400
-0.257945 -0.962665 8.859400
0.000000 -0.996624 8.859400
0.000000 -1.182260 -8.570690
-0.498312 -0.863102 8.859400
10.586200 18.335800 13.882600
18.335800 10.586200 13.882600
-1.023870 0.591132 -8.570690
-0.863102 0.498312 8.859400
-0.704720 0.704720 8.859400
-0.956996 -1.657570 10.992400
-0.495378 -1.848780 10.992400
20.559200 -5.508820 13.688500
18.432899 -10.642200 13.688500
18.335800 -10.586200 13.882600
20.450899 -5.479810 13.882600
21.172400 0.000000 13.882600
-18.432899 10.642200 13.688500
-18.335800 10.586200 13.882600
18.258101 -10.541300 13.201300
21.082701 0.000000 13.201300
-18.167700 10.489100 13.994700
-20.263399 -5.429570 13.994700
-20.364300 -5.456600 13.951400
-21.082701 0.000000 13.951400
10.586200 -18.335800 13.882600
10.489100 -18.167700 13.994700
20.263399 -5.429570 13.994700
20.364300 -5.456600 13.951400
21.082701 0.000000 13.951400
-5.429570 20.263399 13.994700
-5.456600 20.364300 13.951400
0.000000 21.082701 13.951400
18.335800 10.586200 13.882600
18.167700 10.489100 13.994700
-18.395399 -10.620600 13.359900
-10.620600 -18.395399 13.359900
-10.642200 -18.432899 13.464300
10.620600 -18.395399 13.359900
-1.434570 0.384392 -9.484980
-1.485180 0.000000 -9.484980
-1.182260 0.000000 -8.570690
-18.258101 -10.541300 13.201300
-5.429570 -20.263399 13.158100
-18.167700 -10.489100 13.158100
0.591132 1.023870 -8.570690
0.257945 0.962665 8.859400
0.498312 0.863102 8.859400
8.340940 -4.815640 -13.640845
8.340940 -4.815640 -13.787604
6.810350 -6.810350 -13.787604
6.810350 -6.810350 -13.640845
-8.279880 4.780390 -13.512131
-9.276890 2.485730 -13.572048
-9.235010 2.474510 -13.512131
4.780390 8.279880 -13.916318
-9.276890 2.485730 -13.856400
-9.276890 -2.485730 -13.856400
-9.303110 2.492760 -13.787604
-9.303110 2.492760 -13.640845
-9.303110 -2.492760 -13.640845
-9.303110 -2.492760 -13.787604
-2.485730 -9.276890 -13.856400
2.485730 -9.276890 -13.856400
2.474510 -9.235010 -13.916318
2.459800 -9.180090 -13.963614
-2.474510 -9.235010 -13.916318
-2.474510 -9.235010 -13.512131
-4.780390 -8.279880 -13.512131
-8.279880 -4.780390 -13.512131
8.279880 -4.780390 -13.916318
4.780390 8.279880 -13.512131
4.815640 8.340940 -13.640845
8.279880 4.780390 -13.512131
6.760490 6.760490 -13.512131
-8.279880 4.780390 -13.916318
-9.235010 2.474510 -13.916318
-20.866100 0.000000 13.143300
-5.103630 1.367510 13.143300
-5.103630 -1.367510 13.143300
-4.575790 -2.641830 13.143300
-18.167700 -10.489100 13.158100
-20.263399 -5.429570 13.158100
-20.978201 0.000000 13.158100
-18.167700 10.489100 13.158100
5.429570 20.263399 13.158100
18.167700 10.489100 13.158100
-8.340940 4.815640 -13.640845
-8.279880 4.780390 -13.512131
0.704720 -0.704720 8.859400
1.353400 -1.353400 10.992400
0.956996 -1.657570 10.992400
0.495378 -1.848780 10.992400
0.257945 -0.962665 8.859400
0.498312 -0.863102 8.859400
-8.340940 -4.815640 -13.640845
-9.235010 2.474510 -13.916318
-9.276890 2.485730 -13.856400
-9.276890 -2.485730 -13.856400
-9.235010 -2.474510 -13.916318
-9.180090 2.459800 -13.963614
-0.591132 1.023870 -8.570690
-1.023870 0.591132 -8.570690
-2.208970 1.275350 -11.080480
-1.275350 2.208970 -11.080480
-10.541300 18.258101 13.201300
-18.258101 10.541300 13.201300
-21.082701 0.000000 13.201300
-10.489100 18.167700 13.158100
2.839840 1.639590 -11.710570
3.557900 2.054150 -12.200680
1.275350 2.208970 -11.080480
2.208970 1.275350 -11.080480
2.463790 0.660170 -11.080480
3.167440 0.848712 -11.710570
-4.780390 8.279880 -13.512131
-2.474510 9.235010 -13.512131
-2.485730 9.276890 -13.572048
-4.815640 8.340940 -13.640845
-21.284500 0.000000 13.464300
-18.432899 10.642200 13.464300
-2.485730 9.276890 -13.572048
2.485730 9.276890 -13.572048
2.474510 9.235010 -13.512131
2.459800 9.180090 -13.464835
-2.459800 9.180090 -13.464835
-2.474510 9.235010 -13.512131
10.541300 -18.258101 13.201300
0.000000 21.172400 13.882600
0.000000 21.082701 13.201300
10.541300 18.258101 13.201300
18.432899 -10.642200 13.464300
18.395399 -10.620600 13.359900
21.241199 0.000000 13.359900
1.848780 -0.495378 10.992400
1.913990 0.000000 10.992400
2.694100 0.000000 11.861400
2.602300 0.697283 11.861400
3.518810 0.942862 12.542100
3.518810 -0.942862 12.542100
4.025010 -1.078500 12.801600
2.946510 -2.946510 12.801600
2.575950 -2.575950 12.542100
1.905010 -1.905010 11.861400
2.333150 -1.347050 11.861400
1.657570 -0.956996 10.992400
1.023870 0.591132 -8.570690
1.182260 0.000000 -8.570690
1.485180 0.000000 -9.484980
1.434570 -0.384392 -9.484980
2.463790 -0.660170 -11.080480
-5.508820 -20.559200 13.464300
-10.642200 -18.432899 13.464300
0.962665 -0.257945 8.859400
0.996624 0.000000 8.859400
0.962665 0.257945 8.859400
1.848780 0.495378 10.992400
10.620600 18.395399 13.359900
5.497630 20.517401 13.359900
0.000000 21.241199 13.359900
0.000000 1.182260 -8.570690
-0.660170 2.463790 -11.080480
0.660170 2.463790 -11.080480
0.384392 1.434570 -9.484980
0.000000 1.485180 -9.484980
1.023870 0.591132 -8.570690
0.591132 1.023870 -8.570690
1.275350 2.208970 -11.080480
2.208970 1.275350 -11.080480
-18.335800 10.586200 13.882600
-5.456600 20.364300 13.951400
0.000000 21.082701 13.951400
-5.479810 20.450899 13.882600
-10.586200 18.335800 13.882600
-1.182260 0.000000 -8.570690
-1.485180 0.000000 -9.484980
-1.434570 0.384392 -9.484980
-2.463790 0.660170 -11.080480
20.978201 0.000000 13.158100
18.167700 -10.489100 13.158100
18.258101 10.541300 13.201300
18.167700 10.489100 13.158100
-4.815640 -8.340940 -13.640845
-4.815640 -8.340940 -13.787604
-6.810350 -6.810350 -13.787604
-6.810350 -6.810350 -13.640845
0.000000 1.485180 -9.484980
-0.384392 1.434570 -9.484980
-4.025010 -1.078500 12.801600
-5.103630 -1.367510 13.143300
-4.575790 -2.641830 13.143300
-2.641830 -4.575790 13.143300
-1.367510 -5.103630 13.143300
1.367510 -5.103630 13.143300
2.641830 -4.575790 13.143300
2.358030 -4.084220 13.002800
1.220600 -4.555360 13.002800
-2.575950 -2.575950 12.542100
-2.946510 -2.946510 12.801600
-10.620600 18.395399 13.359900
-18.395399 10.620600 13.359900
-10.541300 18.258101 13.201300
-10.620600 18.395399 13.359900
0.000000 21.082701 13.201300
-2.463790 -0.660170 -11.080480
-10.642200 18.432899 13.688500
-5.508820 20.559200 13.688500
-5.479810 20.450899 13.882600
-10.586200 18.335800 13.882600
-6.673050 6.673050 -13.433114
-6.760490 6.760490 -13.512131
-9.180090 -2.459800 -13.464835
-9.115550 -2.442500 -13.433114
-0.660170 -2.463790 -11.080480
-0.848712 -3.167440 -11.710570
-1.639590 -2.839840 -11.710570
-2.839840 -1.639590 -11.710570
-3.167440 -0.848712 -11.710570
0.498312 -0.863102 8.859400
0.704720 -0.704720 8.859400
0.863102 -0.498312 8.859400
1.023870 -0.591132 -8.570690
0.591132 -1.023870 -8.570690
2.208970 -1.275350 -11.080480
1.275350 -2.208970 -11.080480
3.557900 -2.054150 -12.200680
2.839840 -1.639590 -11.710570
3.167440 -0.848712 -11.710570
-20.364300 -5.456600 13.951400
-21.082701 0.000000 13.951400
-21.172400 0.000000 13.882600
-20.450899 -5.479810 13.882600
5.456600 -20.364300 13.951400
0.000000 -21.082701 13.951400
0.000000 -21.172400 13.882600
5.479810 -20.450899 13.882600
-1.353400 -1.353400 10.992400
-0.704720 -0.704720 8.859400
-0.498312 -0.863102 8.859400
-0.257945 -0.962665 8.859400
-0.495378 -1.848780 10.992400
0.000000 -21.241199 13.359900
5.497630 -20.517401 13.359900
10.620600 -18.395399 13.359900
2.442500 9.115550 -13.995335
8.279880 4.780390 -13.916318
4.780390 8.279880 -13.916318
2.474510 9.235010 -13.916318
2.459800 9.180090 -13.963614
-1.347050 -2.333150 11.861400
-1.905010 -1.905010 11.861400
18.395399 10.620600 13.359900
6.720290 6.720290 -13.464835
0.000000 2.694100 11.861400
0.956996 1.657570 10.992400
1.347050 2.333150 11.861400
1.905010 1.905010 11.861400
2.575950 2.575950 12.542100
0.942862 3.518810 12.542100
1.078500 4.025010 12.801600
-1.078500 4.025010 12.801600
-0.942862 3.518810 12.542100
-0.697283 2.602300 11.861400
3.518810 -0.942862 12.542100
4.575790 -2.641830 13.143300
5.103630 -1.367510 13.143300
9.235010 2.474510 -13.916318
9.276890 2.485730 -13.856400
9.276890 -2.485730 -13.856400
9.235010 -2.474510 -13.916318
9.180090 -2.459800 -13.963614
2.485730 -9.276890 -13.572048
2.442500 9.115550 -13.433114
2.459800 9.180090 -13.464835
-1.353400 1.353400 10.992400
-0.495378 1.848780 10.992400
10.489100 -18.167700 13.158100
5.283660 0.000000 13.143300
4.575790 -2.641830 13.143300
2.641830 -4.575790 13.143300
1.367510 -5.103630 13.143300
-1.367510 -5.103630 13.143300
-2.641830 -4.575790 13.143300
-4.575790 -2.641830 13.143300
-5.103630 -1.367510 13.143300
-5.103630 1.367510 13.143300
-4.575790 2.641830 13.143300
-2.641830 4.575790 13.143300
-1.367510 5.103630 13.143300
1.367510 5.103630 13.143300
2.641830 4.575790 13.143300
4.575790 2.641830 13.143300
0.498312 0.863102 8.859400
2.474510 -9.235010 -13.512131
-4.780390 8.279880 -13.512131
-6.760490 6.760490 -13.512131
9.276890 2.485730 -13.572048
9.235010 2.474510 -13.512131
-6.760490 6.760490 -13.916318
-4.780390 8.279880 -13.916318
-2.442500 9.115550 -13.995335
-6.673050 6.673050 -13.995335
9.303110 -2.492760 -13.787604
2.459800 -9.180090 -13.464835
2.474510 -9.235010 -13.512131
0.962665 -0.257945 8.859400
0.996624 0.000000 8.859400
1.182260 0.000000 -8.570690
2.492760 9.303110 -13.640845
2.492760 9.303110 -13.787604
4.815640 8.340940 -13.787604
8.279880 -4.780390 -13.512131
9.235010 -2.474510 -13.512131
9.276890 -2.485730 -13.572048
-6.673050 -6.673050 -13.433114
-6.621720 -6.621720 -13.418949
-4.108310 0.000000 -12.200680
6.673050 6.673050 -13.433114
0.000000 -1.182260 -8.570690
-0.591132 -1.023870 -8.570690
0.384392 -1.434570 -9.484980
0.000000 -1.485180 -9.484980
0.863102 0.498312 8.859400
0.704720 0.704720 8.859400
1.353400 1.353400 10.992400
-18.432899 -10.642200 13.464300
18.258101 10.541300 13.201300
21.082701 0.000000 13.201300
18.258101 -10.541300 13.201300
10.541300 -18.258101 13.201300
5.456600 -20.364300 13.201300
5.429570 -20.263399 13.158100
10.541300 18.258101 13.201300
-1.913990 0.000000 10.992400
-1.848780 0.495378 10.992400
-0.962665 0.257945 8.859400
-0.996624 0.000000 8.859400
-0.962665 -0.257945 8.859400
-1.848780 -0.495378 10.992400
9.180090 -2.459800 -13.464835
9.115550 -2.442500 -13.433114
0.000000 -2.694100 11.861400
0.000000 -1.913990 10.992400
1.347050 -2.333150 11.861400
0.942862 -3.518810 12.542100
1.078500 -4.025010 12.801600
-1.078500 -4.025010 12.801600
-0.942862 -3.518810 12.542100
-0.697283 -2.602300 11.861400
-10.642200 18.432899 13.464300
-18.395399 -10.620600 13.359900
-21.241199 0.000000 13.359900
3.167440 -0.848712 -11.710570
2.463790 -0.660170 -11.080480
2.463790 0.660170 -11.080480
3.167440 0.848712 -11.710570
2.839840 1.639590 -11.710570
3.557900 2.054150 -12.200680
3.557900 -2.054150 -12.200680
2.839840 -1.639590 -11.710570
-9.115550 2.442500 -13.995335
-2.442500 9.115550 -13.995335
-2.459800 9.180090 -13.963614
-2.474510 9.235010 -13.916318
-4.780390 8.279880 -13.916318
-8.279880 4.780390 -13.916318
-2.485730 9.276890 -13.856400
2.485730 9.276890 -13.856400
4.780390 -8.279880 -13.916318
6.673050 6.673050 -13.995335
9.115550 -2.442500 -13.995335
2.442500 -9.115550 -13.995335
-2.442500 -9.115550 -13.995335
-9.115550 -2.442500 -13.995335
5.456600 20.364300 13.201300
-20.517401 -5.497630 13.359900
-21.241199 0.000000 13.359900
-21.082701 0.000000 13.201300
-20.364300 -5.456600 13.201300
-18.258101 -10.541300 13.201300
-0.498312 0.863102 8.859400
1.848780 0.495378 10.992400
1.913990 0.000000 10.992400
2.694100 0.000000 11.861400
2.602300 0.697283 11.861400
3.518810 0.942862 12.542100
1.353400 1.353400 10.992400
1.434570 -0.384392 -9.484980
1.485180 0.000000 -9.484980
4.815640 -8.340940 -13.640845
4.780390 -8.279880 -13.512131
6.760490 -6.760490 -13.512131
-1.023870 -0.591132 -8.570690
0.000000 -21.082701 13.201300
-10.541300 -18.258101 13.201300
-1.913990 0.000000 10.992400
-2.694100 0.000000 11.861400
-2.602300 -0.697283 11.861400
-3.518810 -0.942862 12.542100
-18.258101 10.541300 13.201300
-18.395399 10.620600 13.359900
0.000000 -21.172400 13.882600
2.208970 -1.275350 -11.080480
0.863102 0.498312 8.859400
0.704720 0.704720 8.859400
1.023870 -0.591132 -8.570690
0.863102 -0.498312 8.859400
0.591132 -1.023870 -8.570690
-0.863102 -0.498312 8.859400
-1.657570 0.956996 10.992400
-2.575950 -2.575950 12.542100
-1.905010 -1.905010 11.861400
-2.333150 -1.347050 11.861400
-1.657570 -0.956996 10.992400
0.660170 -2.463790 -11.080480
0.848712 -3.167440 -11.710570
1.639590 -2.839840 -11.710570
-0.996624 0.000000 8.859400
0.495378 1.848780 10.992400
0.000000 1.913990 10.992400
0.000000 2.694100 11.861400
-0.697283 2.602300 11.861400
-0.942862 3.518810 12.542100
0.942862 3.518810 12.542100
2.575950 2.575950 12.542100
1.905010 1.905010 11.861400
1.347050 2.333150 11.861400
0.956996 1.657570 10.992400
-2.333150 1.347050 11.861400
-1.905010 1.905010 11.861400
-2.575950 2.575950 12.542100
5.103630 1.367510 13.143300
4.575790 2.641830 13.143300
2.641830 4.575790 13.143300
1.367510 5.103630 13.143300
-1.367510 5.103630 13.143300
5.103630 -1.367510 13.143300
4.575790 -2.641830 13.143300
2.641830 -4.575790 13.143300
1.367510 -5.103630 13.143300
0.848712 3.167440 -11.710570
1.639590 2.839840 -11.710570
2.054150 3.557900 -12.200680
-2.575950 2.575950 12.542100
-1.905010 1.905010 11.861400
-2.333150 1.347050 11.861400
-1.657570 0.956996 10.992400
-1.353400 1.353400 10.992400
-1.848780 0.495378 10.992400
-2.641830 4.575790 13.143300
-4.575790 2.641830 13.143300
-5.103630 1.367510 13.143300
-0.848712 3.167440 -11.710570
-1.639590 2.839840 -11.710570
-2.054150 3.557900 -12.200680
-0.962665 0.257945 8.859400
-10.489100 -18.167700 13.994700
-0.704720 0.704720 8.859400
-0.863102 0.498312 8.859400
0.257945 -0.962665 8.859400
-6.810350 6.810350 -13.640845
0.962665 0.257945 8.859400
0.000000 -0.996624 8.859400
-2.641830 -4.575790 13.143300
-1.367510 -5.103630 13.143300
1.367510 -5.103630 13.143300
2.641830 -4.575790 13.143300
4.575790 -2.641830 13.143300
5.103630 -1.367510 13.143300
5.103630 1.367510 13.143300
4.575790 2.641830 13.143300
2.641830 4.575790 13.143300
1.367510 5.103630 13.143300
-1.367510 5.103630 13.143300
-2.641830 4.575790 13.143300
-4.575790 2.641830 13.143300
1.367510 5.103630 13.143300
2.641830 4.575790 13.143300
4.575790 2.641830 13.143300
5.103630 1.367510 13.143300
-3.518810 0.942862 12.542100
-5.103630 1.367510 13.143300
-4.575790 2.641830 13.143300
-2.641830 4.575790 13.143300
-1.367510 5.103630 13.143300
1.275350 -2.208970 -11.080480
-0.384392 -1.434570 -9.484980
0.000000 -1.485180 -9.484980
-3.557900 2.054150 -12.200680
-9.180090 -2.459800 -13.963614
-9.235010 -2.474510 -13.916318
-2.459800 -9.180090 -13.464835
4.780390 8.279880 -13.512131
2.485730 9.276890 -13.572048
2.474510 9.235010 -13.512131
8.279880 4.780390 -13.916318
6.760490 6.760490 -13.916318
6.760490 6.760490 -13.512131
8.279880 4.780390 -13.512131
8.172780 4.718560 -13.433114
9.115550 2.442500 -13.433114
-8.279880 -4.780390 -13.512131
-6.760490 -6.760490 -13.512131
-6.720290 -6.720290 -13.464835
-9.235010 -2.474510 -13.512131
1.848780 -0.495378 10.992400
9.303110 -2.492760 -13.640845
-3.167440 0.848712 -11.710570
-2.839840 1.639590 -11.710570
-8.279880 -4.780390 -13.916318
-2.602300 -0.697283 11.861400
-2.694100 0.000000 11.861400
-3.518810 -0.942862 12.542100
-4.815640 8.340940 -13.787604
-4.780390 -8.279880 -13.916318
4.815640 -8.340940 -13.787604
4.780390 -8.279880 -13.916318
-9.276890 -2.485730 -13.572048
-6.810350 6.810350 -13.787604
-8.340940 -4.815640 -13.787604
-6.673050 -6.673050 -13.995335
-6.760490 -6.760490 -13.916318
-4.780390 -8.279880 -13.916318
2.442500 -9.115550 -13.995335
-8.340940 4.815640 -13.787604
8.279880 -4.780390 -13.916318
-4.575790 -2.641830 13.143300
-5.103630 -1.367510 13.143300
-1.367510 -5.103630 13.143300
-2.641830 -4.575790 13.143300
-8.279880 -4.780390 -13.916318
4 0 1 2 3
4 4 5 6 7
8 8 9 10 11 12 13 14 15
4 16 17 18 19
10 20 21 22 23 24 25 26 27 28 29
4 30 31 32 33
8 34 35 36 37 38 39 40 41
6 42 43 44 45 31 30
4 46 47 44 48
4 49 50 51 52
4 53 54 55 56
7 57 58 59 60 61 62 63
5 64 65 66 67 68
5 42 30 33 69 70
5 71 72 73 74 75
4 76 77 78 79
6 80 81 82 83 84 85
4 86 87 88 89
4 90 91 92 93
6 87 94 95 96 97 88
4 98 0 3 99
4 100 101 102 103
6 103 102 104 105 106 107
10 40 39 38 108 109 110 111 112 113 41
6 114 115 116 117 118 119
4 120 121 1 122
4 123 124 125 126
6 127 128 129 130 131 132
6 133 98 134 135 136 137
5 138 139 140 141 142
4 143 144 91 6
6 145 123 126 146 106 105
4 147 148 149 150
4 151 152 153 154
5 140 149 148 155 141
10 156 15 14 13 12 157 158 159 160 161
5 162 163 164 165 166
6 167 168 169 170 171 172
6 173 174 18 17 175 176
5 177 178 179 180 181
6 182 183 56 184 185 186
6 187 188 189 190 191 192
4 142 121 120 138
5 193 194 195 196 197
4 7 6 91 90
4 150 186 185 147
4 198 199 200 201
4 202 203 204 205
6 64 68 131 130 206 48
6 207 47 46 208 209 210
4 79 211 212 76
4 144 143 154 213
6 214 201 200 215 216 217
18 218 219 220 221 222 165 223 224 225 226 227 228 229 230 231 232 233 234
4 235 151 154 143
6 236 237 238 239 240 241
5 242 243 244 50 245
4 121 142 246 247
5 73 72 248 249 250
6 178 251 252 242 245 179
6 253 254 255 256 257 213
4 258 259 96 95
4 260 152 151 261
6 259 262 263 264 265 96
8 255 266 267 268 269 270 257 256
7 271 272 273 93 92 274 275
4 276 277 278 183
4 81 204 203 279
6 248 161 160 280 281 282
5 283 84 83 284 285
5 286 71 75 287 288
6 289 199 198 290 291 292
5 293 191 190 294 295
5 123 145 296 196 195
5 128 188 187 297 298
4 299 300 301 302
5 303 304 305 306 307
6 165 222 308 309 310 166
5 175 311 290 198 176
6 312 313 216 215 314 315
5 192 316 317 297 187
10 318 319 320 321 322 323 324 325 326 327
5 300 328 329 164 163
4 189 188 128 127
6 330 331 332 333 334 335
5 336 301 162 166 310
5 337 338 339 340 341
4 342 343 344 345
6 346 347 348 283 285 349
10 350 351 11 10 9 8 352 353 354 355
5 356 357 358 125 359
4 360 361 258 95
6 362 363 364 365 366 367
4 82 81 279 368
4 141 369 246 142
4 4 370 371 5
4 122 372 373 374
12 375 376 377 378 379 380 381 382 383 384 385 386
7 387 388 389 390 391 354 353
6 392 204 81 80 85 393
6 376 375 394 395 396 397
6 139 138 398 399 400 140
7 401 342 345 402 403 404 405
4 406 407 408 409
8 410 58 57 411 412 369 413 414
6 343 415 416 417 418 344
6 419 420 260 261 421 422
6 423 76 212 424 425 426
6 72 71 427 428 15 156
12 429 430 431 432 433 434 435 436 437 23 438 439
4 346 440 441 347
4 442 443 400 444
7 415 49 52 445 418 417 416
6 446 447 90 93 448 449
6 450 451 293 295 452 453
10 52 51 454 455 456 233 232 457 458 445
5 459 460 461 462 463
10 464 465 37 36 35 34 466 467 468 391
8 55 54 60 59 469 470 471 472
8 3 62 61 473 474 475 476 99
4 279 203 153 152
5 477 478 479 480 481
6 137 136 482 483 484 133
8 485 19 18 174 486 487 488 489
4 277 482 136 278
9 20 252 251 490 491 438 23 22 21
4 120 122 374 492
5 247 63 62 3 2
5 312 315 493 365 364
12 494 241 240 495 496 497 498 499 500 501 502 503
8 504 24 23 437 436 435 505 506
5 507 508 509 510 511
4 512 65 64 43
6 450 513 514 357 356 451
5 73 250 515 516 74
21 285 284 517 518 519 520 521 522 523 524 525 526 527 528 529 530 531 532 419 422 349
5 407 533 239 238 401
5 77 308 222 534 78
5 309 423 426 336 310
6 169 168 535 536 329 328
5 537 538 314 215 200
6 539 540 193 197 541 542
5 101 543 509 508 102
4 278 136 135 53
6 70 69 114 119 544 545
5 461 546 547 548 462
6 549 550 551 217 216 313
5 289 552 553 554 199
11 450 453 555 556 557 157 12 11 351 558 513
5 423 309 308 77 76
7 559 560 108 38 37 561 562
5 563 564 565 397 396
4 566 87 86 393
5 224 536 535 367 366
7 327 567 568 569 570 571 572
4 398 492 567 573
6 574 575 576 577 578 579
6 538 580 581 493 315 314
12 582 583 333 332 584 384 383 585 586 587 588 589
4 590 440 4 7
4 372 0 98 133
4 254 153 203 202
4 368 279 152 260
4 591 592 360 566
8 593 594 595 596 597 598 599 600
8 341 601 602 603 604 605 606 337
6 607 604 603 489 488 608
5 45 44 47 207 609
7 610 611 612 613 614 542 541
6 444 400 399 398 573 615
4 492 374 568 567
6 616 617 618 619 620 276
4 373 484 570 569
4 283 591 85 84
5 238 237 621 342 401
5 180 179 245 50 49
10 622 623 624 625 626 498 497 496 495 627
4 440 346 370 4
7 406 409 595 594 628 629 548
6 552 289 292 630 631 632
4 300 163 162 301
4 592 348 347 441
4 633 109 108 560
4 634 482 277 635
12 636 637 638 639 429 439 438 491 490 251 178 177
4 443 442 640 641
4 86 89 642 205
6 462 548 629 628 594 643
5 644 645 533 407 406
4 276 620 635 277
5 646 647 330 335 648
5 282 633 649 578 577
9 111 110 160 159 158 157 557 113 112
4 618 617 641 640
6 650 515 250 249 576 575
6 185 184 56 55 472 471
4 5 235 143 6
6 388 646 464 391 390 389
4 566 393 85 591
10 481 583 582 589 588 651 652 653 654 477
8 455 454 655 656 657 234 233 456
5 181 180 49 415 658
6 649 478 477 654 579 578
4 286 387 353 352
6 386 331 330 647 394 375
7 633 282 281 280 160 110 109
4 400 443 149 140
10 659 660 661 662 663 664 665 666 667 668
6 407 401 405 404 403 408
5 248 282 577 576 249
10 660 516 515 650 669 670 671 663 662 661
8 635 620 619 323 322 572 571 634
4 144 213 257 274
6 134 98 99 476 475 135
12 626 504 506 672 673 674 675 676 501 500 499 498
4 53 135 475 54
9 382 381 677 678 679 680 586 585 383
10 597 596 595 409 408 403 681 682 683 598
6 349 422 421 371 370 346
6 141 155 148 414 413 369
5 517 420 419 532 518
4 202 205 642 266
4 254 202 266 255
10 236 241 494 503 502 684 685 686 687 688
6 385 384 584 332 331 386
6 648 559 562 561 37 465
9 637 636 689 687 686 685 684 639 638
4 1 121 247 2
4 258 446 449 259
10 429 639 684 502 501 676 690 691 692 430
4 148 147 410 414
8 681 403 402 693 694 695 683 682
6 274 257 270 269 268 275
8 391 468 467 466 351 350 355 354
4 646 648 465 464
4 374 373 569 568
6 636 177 181 658 696 689
5 642 89 697 267 266
5 698 699 343 342 621
5 688 698 621 237 236
5 243 700 459 463 244
7 286 352 8 15 428 427 71
6 252 20 29 700 243 242
4 441 440 590 361
6 570 484 483 482 634 571
6 356 359 701 191 293 451
8 259 449 448 93 273 272 271 262
6 475 474 473 61 60 54
5 702 644 406 548 547
4 186 150 641 617
5 334 703 559 648 335
19 572 322 321 704 705 706 707 708 709 710 711 712 713 714 715 716 319 318 327
7 411 57 63 247 246 369 412
6 326 325 640 442 444 615
5 567 327 326 615 573
4 372 133 484 373
10 664 717 718 719 720 677 381 380 379 665
5 647 646 388 395 394
9 671 721 722 723 724 725 717 664 663
4 592 441 361 360
6 410 471 470 469 59 58
7 463 726 655 454 727 728 244
4 149 443 641 150
8 89 88 97 96 265 264 263 697
6 223 165 164 329 536 224
17 598 683 695 729 227 226 225 224 366 365 493 581 220 219 218 234 599
6 182 186 617 616 276 183
4 462 643 726 463
5 298 297 317 730 731
6 66 65 512 545 544 732
5 733 146 126 734 735
5 480 479 560 559 703
6 145 105 104 736 737 296
6 106 146 733 738 739 107
11 740 741 118 117 739 738 733 735 514 513 558
6 324 323 619 618 640 325
7 267 697 263 262 271 275 268
10 742 743 67 66 732 744 555 453 452 745
4 549 363 362 167
5 735 734 358 357 514
5 590 7 90 447 446
6 460 28 27 746 546 461
5 363 549 313 312 364
5 747 115 114 69 33
4 43 64 48 44
10 345 344 418 748 749 729 695 694 693 402
5 129 128 298 731 750
7 517 284 83 82 368 260 420
9 751 752 574 579 654 653 652 651 753
5 124 194 193 540 754
13 418 445 458 457 232 231 230 229 228 227 729 749 748
6 623 622 702 547 546 746
5 755 206 130 129 750
5 116 115 747 100 103
5 756 291 290 311 757
5 362 367 535 168 167
16 119 118 741 740 558 351 466 34 41 113 557 556 555 744 732 544
6 552 632 220 581 580 553
6 668 565 564 288 287 659
5 294 190 189 127 758
4 701 759 192 191
10 643 594 593 600 599 234 657 656 655 726
5 295 294 758 745 452
5 627 645 644 702 622
5 392 393 86 205 204
6 760 302 301 336 426 425
4 348 592 591 283
6 645 627 495 240 239 533
8 730 614 613 209 208 755 750 731
4 212 211 304 303
5 566 360 95 94 87
6 761 762 763 307 306 764
6 50 244 728 727 454 51
5 424 212 303 307 763
5 758 127 132 742 745
4 210 209 613 612
4 195 194 124 123
4 72 156 161 248
6 534 222 221 220 632 631
4 200 199 554 537
10 574 752 751 753 721 671 670 669 650 575
4 339 338 299 302
6 583 481 480 703 334 333
5 534 631 630 79 78
5 171 170 765 606 605
4 550 549 167 172
4 734 126 125 358
4 138 120 492 398
4 147 185 471 410
6 192 759 754 540 539 316
6 101 100 747 33 32 543
4 261 151 235 421
6 659 287 75 74 516 660
6 68 67 743 742 132 131
5 28 460 459 700 29
6 610 737 736 507 511 611
5 32 766 510 509 543
5 46 48 206 755 208
10 377 376 397 565 668 667 666 665 379 378
5 387 563 396 395 388
5 70 545 512 43 42
5 699 696 658 415 343
5 171 605 604 607 172
4 91 144 274 92
7 761 764 16 19 485 602 601
4 172 607 608 550
12 767 768 722 721 753 651 588 587 586 680 769 770
4 173 176 198 201
5 649 633 560 479 478
5 537 554 553 580 538
4 258 361 590 446
4 489 603 602 485
6 698 688 687 689 696 699
5 563 387 286 288 564
5 739 117 116 103 107
6 425 424 763 762 771 760
5 154 153 254 253 213
5 32 31 45 609 766
6 737 610 541 197 196 296
6 542 614 730 317 316 539
8 210 612 611 511 510 766 609 207
4 56 183 278 53
6 761 601 341 340 771 762
6 359 125 124 754 759 701
6 328 300 299 765 170 169
8 16 764 306 305 757 311 175 17
4 372 122 1 0
5 173 201 214 486 174
4 421 235 5 371
5 104 102 508 507 736
5 214 217 551 487 486
5 339 302 760 771 340
5 551 550 608 488 487
6 79 630 292 291 756 211
5 337 606 765 299 338
5 304 211 756 757 305
10 623 746 27 26 25 24 504 626 625 624
