ply
format ascii 1.0
comment Created by Blender 2.82 (sub 7) - www.blender.org, source file: ''
element vertex 1113
property float x
property float y
property float z
element face 294
property list uchar uint vertex_indices
end_header
3.039700 -11.344400 7.734400
-3.039730 -11.344400 7.734400
-3.039730 -11.344400 9.359400
3.039700 -11.344400 9.359400
9.131900 -8.336200 -5.140600
9.131900 -8.336200 -4.890600
8.336200 -9.131900 -4.890600
8.336200 -9.131900 -5.140600
2.655100 -6.594600 -6.140600
2.655100 -6.594600 -5.640600
-0.000100 -6.368000 -5.640600
-1.332600 -6.424700 -5.640600
-3.958960 -6.876100 -5.640600
-3.958960 -6.876100 -6.140600
-1.332600 -6.424700 -6.140600
-0.000100 -6.368000 -6.140600
-8.348890 8.967600 -6.765600
-7.818560 8.437270 -6.765600
-8.024240 8.421450 -10.515600
-8.364710 8.761920 -10.515600
8.842000 -7.604500 7.734400
7.604500 -8.842000 7.734400
7.604500 -8.842000 9.359400
8.842000 -7.604500 9.359400
-11.258330 -6.500000 10.515600
-13.000000 0.000000 10.515600
-13.000000 0.000000 10.265600
-11.258330 -6.500000 10.265600
-12.557036 3.364650 10.265600
-9.192390 9.192390 10.265600
-9.192390 9.192390 10.515600
-12.557036 3.364650 10.515600
-7.572660 8.456190 -6.640600
-8.456190 7.572660 -6.640600
-9.213500 8.329970 -6.640600
-8.329970 9.213500 -6.640600
13.000000 0.000000 10.234400
13.000000 0.000000 9.359400
11.258300 6.500000 9.359400
11.258300 6.500000 10.234400
-8.336250 -9.131900 -4.890600
-7.654240 -8.449900 -4.890600
-7.818560 -8.437300 -4.640600
-8.348890 -8.967600 -4.640600
6.500000 11.258330 9.359400
6.500000 11.258330 10.234400
-12.196016 -3.267900 8.039400
-12.626245 0.000000 8.039400
-12.711637 0.000000 7.897100
-12.278499 -3.290000 7.897100
-11.008600 -6.355800 7.897100
-10.976880 -6.337500 7.971900
10.712400 6.184800 9.359400
12.369600 0.000000 9.359400
12.369600 0.000000 8.359400
10.712400 6.184800 8.359400
-8.336250 9.131920 -4.890600
-8.336250 9.131920 -5.140600
-9.131920 8.336250 -5.140600
-9.131920 8.336250 -4.890600
-7.604520 -8.842000 7.734400
-7.604520 -8.842000 9.359400
7.818600 8.437270 -6.765600
8.437300 7.818560 -6.765600
8.456200 7.572660 -6.640600
7.572700 8.456190 -6.640600
8.348900 -8.967600 -6.765600
8.330000 -9.213500 -6.640600
7.572700 -8.456200 -6.640600
7.818600 -8.437300 -6.765600
-9.131920 8.336250 -5.140600
-8.449910 7.654240 -5.140600
-7.654240 8.449910 -5.140600
-8.336250 9.131920 -5.140600
3.290000 -12.278500 7.897100
6.355800 -11.008600 7.897100
6.326000 -10.957000 8.006700
6.298900 -10.910000 8.069800
3.260500 -12.168500 8.069800
3.274600 -12.221000 8.006700
6.500000 -11.258300 10.265600
6.500000 -11.258300 10.515600
11.258300 -6.500000 10.515600
11.258300 -6.500000 10.265600
10.814100 -6.243500 8.209000
10.823800 -6.249100 8.145000
12.072400 -3.234800 8.145000
12.046200 -3.227800 8.249300
10.800300 -6.235600 8.249300
7.604500 8.841950 7.734400
7.604500 8.841950 9.359400
5.872300 10.171130 9.359400
5.872300 10.171130 7.734400
8.304700 -9.542100 7.734400
7.244000 -8.481500 7.734400
7.818600 -8.437300 -4.640600
8.348900 -8.967600 -4.640600
-10.171130 -5.872300 9.359400
-8.841950 -7.604500 9.359400
-8.841950 -7.604500 7.734400
-10.171130 -5.872300 7.734400
-7.654240 -8.449900 -5.140600
-7.654240 -8.449900 -4.890600
-8.336250 -9.131900 -4.890600
-8.336250 -9.131900 -5.140600
-8.348890 -8.967600 -4.640600
-8.967600 -8.348900 -4.640600
-9.131920 -8.336200 -4.890600
-8.336250 -9.131900 -4.890600
7.604500 -8.842000 7.734400
7.604500 -8.842000 9.359400
-8.456190 7.572660 -6.640600
-7.572660 8.456190 -6.640600
-7.660690 8.368150 -6.140600
-8.367800 7.661050 -6.140600
-8.367800 7.661050 -5.640600
-7.660690 8.368150 -5.640600
-7.572660 8.456190 -5.140600
-8.456190 7.572660 -5.140600
-13.000000 0.000000 10.234400
-12.557036 3.364650 10.234400
-12.557036 3.364650 9.359400
-13.000000 0.000000 9.359400
-7.572660 -8.456200 -6.640600
-7.818560 -8.437300 -6.765600
-8.437270 -7.818600 -6.765600
-8.456190 -7.572700 -6.640600
8.967600 8.348890 -6.765600
8.437300 7.818560 -6.765600
7.818600 8.437270 -6.765600
8.348900 8.967600 -6.765600
-8.024240 8.421450 -10.515600
-8.421450 8.024240 -10.515600
-8.761920 8.364710 -10.515600
-8.364710 8.761920 -10.515600
7.660700 -8.368200 -6.140600
7.660700 -8.368200 -5.640600
-11.948120 -3.201500 9.359400
-11.948120 3.201490 9.359400
-11.948120 3.201490 8.359400
-11.948120 -3.201500 8.359400
6.500000 -11.258300 10.265600
0.000000 -13.000000 10.265600
-6.500000 -11.258300 10.265600
-11.258330 -6.500000 10.265600
-13.000000 0.000000 10.265600
-12.557036 3.364650 10.265600
-9.192390 9.192390 10.265600
-3.364650 12.557036 10.265600
0.000000 13.000000 10.265600
6.500000 11.258330 10.265600
11.258300 6.500000 10.265600
13.000000 0.000000 10.265600
11.258300 -6.500000 10.265600
0.000000 13.000000 10.265600
-3.364650 12.557036 10.265600
-9.192390 9.192390 10.265600
-12.557036 3.364650 10.265600
-13.000000 0.000000 10.265600
-11.258330 -6.500000 10.265600
-6.500000 -11.258300 10.265600
0.000000 -13.000000 10.265600
6.500000 -11.258300 10.265600
11.258300 -6.500000 10.265600
13.000000 0.000000 10.265600
11.258300 6.500000 10.265600
6.500000 11.258330 10.265600
-10.171130 -5.872300 7.734400
-7.604520 -8.842000 7.734400
-9.011800 -9.011800 7.734400
-11.037150 -6.372300 7.734400
13.000000 0.000000 10.265600
13.000000 0.000000 10.515600
3.290000 12.278499 7.897100
3.298500 12.310345 7.734400
0.000000 12.744607 7.734400
0.000000 12.711637 7.897100
-12.278499 3.290010 7.897100
-12.196016 3.267910 8.039400
-10.934650 6.313120 8.039400
-11.008600 6.355820 7.897100
12.221000 3.274600 8.006700
12.072400 3.234780 8.145000
12.072400 -3.234800 8.145000
10.823800 -6.249100 8.145000
10.910000 -6.298900 8.069800
12.168500 -3.260500 8.069800
12.221000 -3.274600 8.006700
0.000000 13.000000 10.515600
0.000000 13.000000 10.265600
-3.364650 12.557036 10.265600
-3.364650 12.557036 10.515600
11.258300 -6.500000 10.515600
6.500000 -11.258300 10.515600
6.500000 -11.258300 10.265600
11.258300 -6.500000 10.265600
-6.500000 -11.258300 10.265600
-6.500000 -11.258300 10.515600
0.000000 -13.000000 10.515600
0.000000 -13.000000 10.265600
-11.258330 -6.500000 9.359400
-11.258330 -6.500000 10.234400
0.000000 -13.000000 10.515600
0.000000 -13.000000 10.265600
-8.368150 -7.660700 -5.640600
-7.661050 -8.367800 -5.640600
-7.661050 -8.367800 -6.140600
-8.368150 -7.660700 -6.140600
-12.557036 3.364650 10.515600
-12.557036 3.364650 10.265600
-8.437270 7.818560 -4.640600
-8.967600 8.348890 -4.640600
-9.131920 8.336250 -4.890600
-8.449910 7.654240 -4.890600
-11.037150 6.372300 7.734400
-8.988480 8.988480 7.897100
-6.355820 11.008600 7.897100
-6.372300 11.037150 7.734400
12.046200 3.227760 8.249300
10.800300 6.235550 8.249300
10.791300 6.230360 8.268300
10.712400 6.184800 8.359400
12.369600 0.000000 8.359400
12.471100 0.000000 8.249300
-13.000000 0.000000 10.265600
-13.000000 0.000000 10.515600
-8.348890 8.967600 -4.640600
-7.818560 8.437270 -4.640600
-7.654240 8.449910 -4.890600
-8.336250 9.131920 -4.890600
-9.192390 9.192390 9.359400
-9.192390 9.192390 10.234400
-3.364650 12.557036 10.234400
-3.364650 12.557036 9.359400
-6.500000 -11.258300 10.234400
-6.500000 -11.258300 9.359400
0.000000 -13.000000 9.359400
0.000000 -13.000000 10.234400
9.542100 8.304690 7.734400
8.481500 7.244030 7.734400
7.244000 8.481470 7.734400
8.304700 9.542130 7.734400
6.424500 -1.332500 -5.640600
6.876000 -3.958900 -5.640600
8.367800 -7.661000 -5.640600
8.367800 -7.661000 -6.140600
6.876000 -3.958900 -6.140600
6.424500 -1.332500 -6.140600
6.424500 1.332500 -6.140600
6.424500 1.332500 -5.640600
8.449900 7.654240 -4.890600
9.131900 8.336250 -4.890600
8.967600 8.348890 -4.640600
8.437300 7.818560 -4.640600
-7.572660 8.456190 -5.140600
-8.329970 9.213500 -5.140600
-9.213500 8.329970 -5.140600
-8.449910 7.654240 -5.140600
-9.131920 8.336250 -5.140600
-8.336250 9.131920 -5.140600
-7.654240 8.449910 -5.140600
-8.456190 7.572660 -5.140600
-8.304690 -9.542100 7.734400
-9.542130 -8.304700 7.734400
-8.967600 -8.348900 -4.640600
-8.348890 -8.967600 -4.640600
8.449900 -7.654200 -4.890600
9.131900 -8.336200 -4.890600
9.131900 -8.336200 -5.140600
8.449900 -7.654200 -5.140600
8.336200 -9.131900 -4.890600
7.654200 -8.449900 -4.890600
7.654200 -8.449900 -5.140600
8.336200 -9.131900 -5.140600
-8.449910 -7.654200 -4.890600
-8.449910 -7.654200 -5.140600
-9.131920 -8.336200 -5.140600
-9.131920 -8.336200 -4.890600
7.654200 -8.449900 -4.890600
8.336200 -9.131900 -4.890600
9.131900 -8.336200 -4.890600
8.449900 -7.654200 -4.890600
-8.329970 9.213500 -5.140600
-7.572660 8.456190 -5.140600
-7.572660 8.456190 -6.640600
-8.329970 9.213500 -6.640600
-12.046161 -3.227800 8.249300
-12.072364 -3.234800 8.145000
-8.837580 -8.837600 8.145000
-8.818400 -8.818400 8.249300
-10.800290 -6.235600 8.249300
6.500000 11.258330 10.515600
11.258300 6.500000 10.515600
13.000000 0.000000 10.515600
11.258300 -6.500000 10.515600
6.500000 -11.258300 10.515600
0.000000 -13.000000 10.515600
-6.500000 -11.258300 10.515600
-11.258330 -6.500000 10.515600
-13.000000 0.000000 10.515600
-12.557036 3.364650 10.515600
-9.192390 9.192390 10.515600
-3.364650 12.557036 10.515600
0.000000 13.000000 10.515600
8.364700 -8.761900 -10.515600
8.761900 -8.364700 -10.515600
8.967600 -8.348900 -6.765600
8.348900 -8.967600 -6.765600
-8.456190 7.572660 -6.640600
-8.437270 7.818560 -6.765600
-7.818560 8.437270 -6.765600
-7.572660 8.456190 -6.640600
8.437300 -7.818600 -6.765600
8.421500 -8.024200 -10.515600
8.024200 -8.421500 -10.515600
7.818600 -8.437300 -6.765600
-8.329970 -9.213500 -5.140600
-9.213500 -8.330000 -5.140600
-9.213500 -8.330000 -6.640600
-8.329970 -9.213500 -6.640600
9.213500 8.329970 -5.140600
8.330000 9.213500 -5.140600
7.572700 8.456190 -5.140600
8.456200 7.572660 -5.140600
8.449900 7.654240 -5.140600
7.654200 8.449910 -5.140600
8.336200 9.131920 -5.140600
9.131900 8.336250 -5.140600
6.500000 11.258330 10.515600
6.500000 11.258330 10.265600
-7.604520 8.841950 9.359400
-8.841950 7.604520 9.359400
-8.841950 7.604520 7.734400
-7.604520 8.841950 7.734400
11.258300 6.500000 10.265600
11.258300 6.500000 10.515600
8.988500 8.988480 7.897100
6.355800 11.008600 7.897100
6.337500 10.976880 7.971900
8.962600 8.962590 7.971900
12.310300 3.298550 7.734400
9.011800 9.011800 7.734400
12.072400 3.234780 8.145000
10.712400 -6.184800 9.359400
10.712400 -6.184800 8.359400
0.000000 13.000000 10.265600
6.500000 11.258330 10.265600
6.500000 11.258330 10.515600
0.000000 13.000000 10.515600
-10.800290 6.235550 8.249300
-10.823790 6.249110 8.145000
-12.072364 3.234780 8.145000
-12.046161 3.227760 8.249300
-12.036127 3.225070 8.268300
-10.791300 6.230360 8.268300
-8.304690 9.542130 7.734400
-7.244030 8.481470 7.734400
-7.818560 8.437270 -4.640600
-8.348890 8.967600 -4.640600
-9.131920 8.336250 -4.890600
-8.449910 7.654240 -4.890600
-7.654240 8.449910 -4.890600
-8.336250 9.131920 -4.890600
3.298500 -12.310300 7.734400
6.372300 -11.037200 7.734400
-8.481470 7.244030 7.734400
-9.542130 8.304690 7.734400
-8.967600 8.348890 -4.640600
-8.437270 7.818560 -4.640600
8.481500 -7.244000 9.359400
8.481500 -7.244000 7.734400
7.244000 -8.481500 7.734400
7.244000 -8.481500 9.359400
-8.481470 7.244030 9.359400
-8.841950 7.604520 9.359400
-8.841950 7.604520 7.734400
-8.481470 7.244030 7.734400
-5.872300 10.171130 9.359400
-5.872300 10.171130 7.734400
0.000000 11.744610 7.734400
0.000000 11.744610 9.359400
-8.746630 8.746630 9.359400
-8.746630 8.746630 8.359400
-11.744610 0.000000 7.734400
-11.744610 0.000000 9.359400
8.481500 7.244030 9.359400
7.244000 8.481470 9.359400
7.244000 8.481470 7.734400
8.481500 7.244030 7.734400
-3.274600 -12.221000 8.006700
-8.946360 -8.946400 8.006700
-8.962590 -8.962600 7.971900
-8.988480 -8.988500 7.897100
-9.011800 -9.011800 7.734400
-3.298550 -12.310300 7.734400
-8.481470 -7.244000 9.359400
-7.244030 -8.481500 9.359400
-7.244030 -8.481500 7.734400
-8.481470 -7.244000 7.734400
9.213500 8.329970 -6.640600
8.456200 7.572660 -6.640600
8.437300 7.818560 -6.765600
8.967600 8.348890 -6.765600
8.304700 9.542130 7.734400
9.542100 8.304690 7.734400
8.967600 8.348890 -4.640600
8.348900 8.967600 -4.640600
7.818600 8.437270 -4.640600
8.437300 7.818560 -4.640600
8.967600 8.348890 -4.640600
8.348900 8.967600 -4.640600
-8.481470 -7.244000 7.734400
-7.244030 -8.481500 7.734400
-7.818560 -8.437300 -4.640600
-8.437270 -7.818600 -4.640600
8.348900 -8.967600 -4.640600
8.967600 -8.348900 -4.640600
9.542100 -8.304700 7.734400
8.304700 -9.542100 7.734400
7.818600 -8.437300 -4.640600
8.437300 -7.818600 -4.640600
8.449900 -7.654200 -4.890600
7.654200 -8.449900 -4.890600
-8.967600 -8.348900 -4.640600
-8.437270 -7.818600 -4.640600
-8.449910 -7.654200 -4.890600
-9.131920 -8.336200 -4.890600
8.348900 8.967600 -4.640600
8.967600 8.348890 -4.640600
9.131900 8.336250 -4.890600
8.336200 9.131920 -4.890600
8.330000 9.213500 -5.140600
9.213500 8.329970 -5.140600
9.213500 8.329970 -6.640600
8.330000 9.213500 -6.640600
7.818600 -8.437300 -4.640600
8.348900 -8.967600 -4.640600
8.967600 -8.348900 -4.640600
8.437300 -7.818600 -4.640600
10.957000 -6.326000 8.006700
11.008600 -6.355800 7.897100
12.278500 -3.290000 7.897100
8.336200 9.131920 -4.890600
9.131900 8.336250 -4.890600
9.131900 8.336250 -5.140600
8.336200 9.131920 -5.140600
-8.456190 7.572660 -5.140600
-9.213500 8.329970 -5.140600
-9.213500 8.329970 -6.640600
-8.456190 7.572660 -6.640600
-6.500000 -11.258300 10.234400
0.000000 -13.000000 10.234400
6.500000 -11.258300 10.234400
11.258300 -6.500000 10.234400
13.000000 0.000000 10.234400
11.258300 6.500000 10.234400
6.500000 11.258330 10.234400
0.000000 13.000000 10.234400
-3.364650 12.557036 10.234400
-9.192390 9.192390 10.234400
-12.557036 3.364650 10.234400
-13.000000 0.000000 10.234400
-11.258330 -6.500000 10.234400
3.234800 12.072364 8.145000
8.837600 8.837580 8.145000
6.313100 10.934650 8.039400
3.267900 12.196016 8.039400
0.000000 -12.420800 8.319500
3.214700 -11.997500 8.319500
3.201500 -11.948100 8.359400
0.000000 -12.369600 8.359400
-6.184800 -10.712400 8.359400
-6.230360 -10.791300 8.268300
-6.235550 -10.800300 8.249300
-3.227760 -12.046200 8.249300
0.000000 -12.471100 8.249300
12.369600 0.000000 9.359400
10.712400 6.184800 9.359400
6.184800 10.712390 9.359400
3.201500 11.948120 9.359400
-3.201490 11.948120 9.359400
-8.746630 8.746630 9.359400
-11.948120 3.201490 9.359400
-11.948120 -3.201500 9.359400
-8.746630 -8.746600 9.359400
-11.258330 -6.500000 9.359400
-13.000000 0.000000 9.359400
-12.557036 3.364650 9.359400
-9.192390 9.192390 9.359400
-3.364650 12.557036 9.359400
0.000000 13.000000 9.359400
6.500000 11.258330 9.359400
11.258300 6.500000 9.359400
13.000000 0.000000 9.359400
11.258300 -6.500000 9.359400
6.500000 -11.258300 9.359400
0.000000 -13.000000 9.359400
-6.500000 -11.258300 9.359400
-6.184800 -10.712400 9.359400
0.000000 -12.369600 9.359400
6.184800 -10.712400 9.359400
10.712400 -6.184800 9.359400
9.213500 -8.330000 -6.640600
9.213500 -8.330000 -5.140600
8.330000 -9.213500 -5.140600
8.330000 -9.213500 -6.640600
8.330000 -9.213500 -6.640600
8.348900 -8.967600 -6.765600
8.967600 -8.348900 -6.765600
9.213500 -8.330000 -6.640600
6.500000 -11.258300 9.359400
6.500000 -11.258300 10.234400
8.437300 -7.818600 -6.765600
8.967600 -8.348900 -6.765600
8.761900 -8.364700 -10.515600
8.421500 -8.024200 -10.515600
-6.230360 10.791300 8.268300
-6.235550 10.800290 8.249300
-10.712390 6.184800 8.359400
-6.184800 10.712390 8.359400
-7.572660 -8.456200 -5.140600
-8.456190 -7.572700 -5.140600
-9.213500 -8.330000 -5.140600
-9.131920 -8.336200 -5.140600
-8.449910 -7.654200 -5.140600
-7.654240 -8.449900 -5.140600
9.131900 -8.336200 -5.140600
8.336200 -9.131900 -5.140600
7.572700 -8.456200 -5.140600
8.330000 -9.213500 -5.140600
9.213500 -8.330000 -5.140600
8.456200 -7.572700 -5.140600
8.449900 -7.654200 -5.140600
8.761900 -8.364700 -10.515600
8.364700 -8.761900 -10.515600
8.024200 -8.421500 -10.515600
8.421500 -8.024200 -10.515600
-3.227760 12.046161 8.249300
-3.234780 12.072364 8.145000
-6.249110 10.823790 8.145000
-3.225070 12.036127 8.268300
-7.572660 -8.456200 -6.640600
-7.572660 -8.456200 -5.140600
-8.329970 -9.213500 -5.140600
-8.329970 -9.213500 -6.640600
-11.258330 -6.500000 10.265600
-11.258330 -6.500000 10.515600
-8.837580 -8.837600 8.145000
-3.234780 -12.072400 8.145000
-7.818560 -8.437300 -6.765600
-8.348890 -8.967600 -6.765600
-8.967600 -8.348900 -6.765600
-8.437270 -7.818600 -6.765600
-3.234780 -12.072400 8.145000
3.234800 -12.072400 8.145000
3.227800 -12.046200 8.249300
8.437300 7.818560 -6.765600
7.818600 8.437270 -6.765600
8.024200 8.421450 -10.515600
8.421500 8.024240 -10.515600
-7.660690 8.368150 -6.140600
-3.958680 6.876310 -6.140600
2.655400 6.594480 -6.140600
7.661000 8.367800 -6.140600
8.367800 7.661050 -6.140600
6.424500 -1.332500 -6.140600
8.367800 -7.661000 -6.140600
7.660700 -8.368200 -6.140600
2.655100 -6.594600 -6.140600
-3.958960 -6.876100 -6.140600
-7.661050 -8.367800 -6.140600
-8.368150 -7.660700 -6.140600
-6.424750 -1.332300 -6.140600
-8.367800 7.661050 -6.140600
12.310300 -3.298500 7.734400
9.213500 8.329970 -6.640600
8.456200 7.572660 -6.640600
7.572700 8.456190 -6.640600
8.330000 9.213500 -6.640600
8.348900 8.967600 -6.765600
8.364700 8.761920 -10.515600
8.024200 8.421450 -10.515600
7.818600 8.437270 -6.765600
-8.421450 8.024240 -10.515600
-8.024240 8.421450 -10.515600
-7.818560 8.437270 -6.765600
-8.437270 7.818560 -6.765600
-6.313120 10.934650 8.039400
-10.883120 6.283370 8.097700
-8.886030 8.886030 8.097700
-6.283370 10.883120 8.097700
8.367800 7.661050 -5.640600
7.661000 8.367800 -5.640600
7.661000 8.367800 -6.140600
8.367800 7.661050 -6.140600
8.761900 8.364710 -10.515600
8.421500 8.024240 -10.515600
8.024200 8.421450 -10.515600
8.364700 8.761920 -10.515600
6.235600 -10.800300 8.249300
6.210400 -10.756700 8.319500
6.184800 10.712390 8.359400
8.811100 8.811060 8.268300
8.818400 8.818400 8.249300
6.235600 10.800290 8.249300
3.227800 12.046161 8.249300
3.214700 11.997540 8.319500
0.000000 12.420769 8.319500
0.000000 12.369607 8.359400
6.184800 -10.712400 9.359400
0.000000 -12.369600 9.359400
0.000000 -12.369600 8.359400
6.184800 -10.712400 8.359400
-8.348890 8.967600 -6.765600
-8.364710 8.761920 -10.515600
-8.761920 8.364710 -10.515600
-8.967600 8.348890 -6.765600
11.344400 -3.039700 9.359400
11.344400 -3.039700 7.734400
8.842000 -7.604500 7.734400
8.842000 -7.604500 9.359400
-12.566744 0.000000 8.097700
-12.138543 -3.252500 8.097700
-12.072364 -3.234800 8.145000
-12.072364 3.234780 8.145000
-8.837580 8.837580 8.145000
-10.712390 -6.184800 8.359400
-12.369607 0.000000 8.359400
-12.420769 0.000000 8.319500
-11.997540 -3.214700 8.319500
-8.811060 -8.811100 8.268300
8.967600 8.348890 -4.640600
9.542100 8.304690 7.734400
8.481500 7.244030 7.734400
8.437300 7.818560 -4.640600
-12.471104 0.000000 8.249300
-6.249110 -10.823800 8.145000
0.000000 12.626245 8.039400
-7.660690 8.368150 -6.140600
-7.660690 8.368150 -5.640600
-3.958680 6.876310 -5.640600
-3.958680 6.876310 -6.140600
-12.744607 0.000000 7.734400
6.249100 -10.823800 8.145000
3.234800 -12.072400 8.145000
-3.290010 12.278499 7.897100
-3.267910 12.196016 8.039400
-12.744607 0.000000 7.734400
-12.310345 3.298550 7.734400
-9.011800 9.011800 7.734400
-3.298550 12.310345 7.734400
0.000000 12.744607 7.734400
6.372300 11.037150 7.734400
9.011800 9.011800 7.734400
11.037200 6.372300 7.734400
12.744600 0.000000 7.734400
11.037200 -6.372300 7.734400
6.372300 -11.037200 7.734400
0.000000 -12.744600 7.734400
-6.372300 -11.037200 7.734400
-3.039730 -11.344400 7.734400
3.039700 -11.344400 7.734400
8.304700 -8.304700 7.734400
11.344400 -3.039700 7.734400
11.344400 3.039730 7.734400
8.842000 7.604520 7.734400
9.542100 8.304690 7.734400
8.304700 9.542130 7.734400
7.604500 8.841950 7.734400
5.872300 10.171130 7.734400
0.000000 11.744610 7.734400
-5.872300 10.171130 7.734400
-10.171130 5.872300 7.734400
-11.744610 0.000000 7.734400
8.837600 8.837580 8.145000
3.234800 12.072364 8.145000
11.258300 -6.500000 10.234400
11.258300 -6.500000 9.359400
-6.500000 -11.258300 10.515600
-6.500000 -11.258300 10.265600
6.243500 -10.814100 8.209000
6.249100 -10.823800 8.145000
-3.364650 12.557036 10.515600
-3.364650 12.557036 10.265600
-12.310345 -3.298500 7.734400
10.823800 6.249110 8.145000
-3.201490 11.948120 8.359400
-3.201490 11.948120 9.359400
0.000000 12.471104 8.249300
6.184800 10.712390 9.359400
6.184800 10.712390 8.359400
3.201500 11.948120 8.359400
3.201500 11.948120 9.359400
-7.766010 6.470890 -5.640600
-8.367800 7.661050 -5.640600
-8.367800 7.661050 -6.140600
-7.766010 6.470890 -6.140600
-7.267580 5.233870 -6.140600
-6.876130 3.958960 -6.140600
-6.594480 2.655400 -6.140600
-6.424690 1.332600 -6.140600
-6.367980 0.000100 -6.140600
-6.424750 -1.332300 -6.140600
-6.424750 -1.332300 -5.640600
-6.367980 0.000100 -5.640600
-6.424690 1.332600 -5.640600
-6.594480 2.655400 -5.640600
-6.876130 3.958960 -5.640600
-7.267580 5.233870 -5.640600
8.842000 7.604520 9.359400
8.842000 7.604520 7.734400
11.344400 3.039730 7.734400
11.344400 3.039730 9.359400
11.037200 -6.372300 7.734400
10.756700 -6.210400 8.319500
10.712400 -6.184800 8.359400
6.184800 -10.712400 8.359400
8.367800 7.661050 -5.640600
7.766000 6.470870 -5.640600
7.267500 5.233840 -5.640600
6.876000 3.958900 -5.640600
6.594400 2.655300 -5.640600
6.594400 2.655300 -6.140600
6.876000 3.958900 -6.140600
7.267500 5.233840 -6.140600
7.766000 6.470870 -6.140600
8.367800 7.661050 -6.140600
-8.967600 8.348890 -4.640600
-8.437270 7.818560 -4.640600
-7.818560 8.437270 -4.640600
-8.348890 8.967600 -4.640600
-8.967600 8.348890 -4.640600
-8.348890 8.967600 -4.640600
-8.336250 9.131920 -4.890600
-9.131920 8.336250 -4.890600
8.481500 -7.244000 7.734400
8.437300 -7.818600 -4.640600
7.818600 -8.437300 -4.640600
7.244000 -8.481500 7.734400
-8.437270 7.818560 -4.640600
-7.818560 8.437270 -4.640600
-7.244030 8.481470 7.734400
-8.481470 7.244030 7.734400
-7.654240 8.449910 -5.140600
-7.654240 8.449910 -4.890600
-8.449910 7.654240 -4.890600
-8.449910 7.654240 -5.140600
-7.654240 8.449910 -4.890600
-7.818560 8.437270 -4.640600
-8.437270 7.818560 -4.640600
-8.449910 7.654240 -4.890600
-9.192390 9.192390 10.265600
-9.192390 9.192390 10.515600
-8.336250 9.131920 -4.890600
-7.654240 8.449910 -4.890600
-7.654240 8.449910 -5.140600
-8.336250 9.131920 -5.140600
-7.604520 8.841950 9.359400
-7.244030 8.481470 9.359400
-7.244030 8.481470 7.734400
-7.604520 8.841950 7.734400
-8.449910 7.654240 -4.890600
-9.131920 8.336250 -4.890600
-9.131920 8.336250 -5.140600
-8.449910 7.654240 -5.140600
-8.304690 9.542130 7.734400
-8.348890 8.967600 -4.640600
-8.967600 8.348890 -4.640600
-9.542130 8.304690 7.734400
-7.244030 8.481470 7.734400
-7.244030 8.481470 9.359400
-8.481470 7.244030 9.359400
-8.481470 7.244030 7.734400
-7.604520 8.841950 9.359400
-7.604520 8.841950 7.734400
-6.876310 -3.958700 -5.640600
-6.876310 -3.958700 -6.140600
-7.267820 -5.233600 -6.140600
-8.368150 -7.660700 -6.140600
-8.368150 -7.660700 -5.640600
-7.267820 -5.233600 -5.640600
0.000000 11.744610 9.359400
5.872300 10.171130 9.359400
8.304700 8.304690 9.359400
11.344400 3.039730 9.359400
11.344400 -3.039700 9.359400
8.304700 -8.304700 9.359400
3.039700 -11.344400 9.359400
-3.039730 -11.344400 9.359400
-8.304690 -8.304700 9.359400
-10.171130 -5.872300 9.359400
-11.744610 0.000000 9.359400
-10.171130 5.872300 9.359400
-5.872300 10.171130 9.359400
-8.841950 7.604520 9.359400
-10.171130 5.872300 9.359400
-10.171130 5.872300 7.734400
-8.841950 7.604520 7.734400
-6.184800 -10.712400 9.359400
-6.184800 -10.712400 8.359400
8.842000 7.604520 7.734400
8.842000 7.604520 9.359400
8.481500 7.244030 9.359400
8.481500 7.244030 7.734400
7.604500 8.841950 9.359400
7.604500 8.841950 7.734400
7.244000 8.481470 7.734400
7.244000 8.481470 9.359400
8.481500 -7.244000 9.359400
8.842000 -7.604500 9.359400
8.842000 -7.604500 7.734400
8.481500 -7.244000 7.734400
8.481500 -7.244000 7.734400
9.542100 -8.304700 7.734400
8.967600 -8.348900 -4.640600
8.437300 -7.818600 -4.640600
7.604500 -8.842000 9.359400
7.244000 -8.481500 9.359400
7.244000 -8.481500 7.734400
7.604500 -8.842000 7.734400
-8.481470 -7.244000 9.359400
-8.481470 -7.244000 7.734400
-8.841950 -7.604500 7.734400
-8.841950 -7.604500 9.359400
-7.244030 -8.481500 7.734400
-7.244030 -8.481500 9.359400
-7.604520 -8.842000 9.359400
-7.604520 -8.842000 7.734400
8.481500 7.244030 7.734400
7.244000 8.481470 7.734400
7.818600 8.437270 -4.640600
8.437300 7.818560 -4.640600
8.304700 9.542130 7.734400
8.348900 8.967600 -4.640600
7.818600 8.437270 -4.640600
7.244000 8.481470 7.734400
-9.192390 9.192390 10.515600
-12.557036 3.364650 10.515600
-13.000000 0.000000 10.515600
-11.258330 -6.500000 10.515600
-6.500000 -11.258300 10.515600
0.000000 -13.000000 10.515600
6.500000 -11.258300 10.515600
11.258300 -6.500000 10.515600
13.000000 0.000000 10.515600
11.258300 6.500000 10.515600
6.500000 11.258330 10.515600
0.000000 13.000000 10.515600
-3.364650 12.557036 10.515600
-8.329970 9.213500 -5.140600
-8.329970 9.213500 -6.640600
-9.213500 8.329970 -6.640600
-9.213500 8.329970 -5.140600
-7.818560 -8.437300 -4.640600
-7.244030 -8.481500 7.734400
-8.304690 -9.542100 7.734400
-8.348890 -8.967600 -4.640600
13.000000 0.000000 10.515600
13.000000 0.000000 10.265600
2.655400 6.594480 -6.140600
2.655400 6.594480 -5.640600
-8.967600 -8.348900 -4.640600
-8.348890 -8.967600 -4.640600
-7.818560 -8.437300 -4.640600
-8.437270 -7.818600 -4.640600
8.348900 -8.967600 -4.640600
7.818600 -8.437300 -4.640600
7.654200 -8.449900 -4.890600
8.336200 -9.131900 -4.890600
8.437300 7.818560 -4.640600
7.818600 8.437270 -4.640600
7.654200 8.449910 -4.890600
8.449900 7.654240 -4.890600
-8.437270 -7.818600 -4.640600
-8.967600 -8.348900 -4.640600
-9.542130 -8.304700 7.734400
-8.481470 -7.244000 7.734400
8.437300 -7.818600 -4.640600
8.967600 -8.348900 -4.640600
9.131900 -8.336200 -4.890600
8.449900 -7.654200 -4.890600
-8.437270 -7.818600 -4.640600
-7.818560 -8.437300 -4.640600
-7.654240 -8.449900 -4.890600
-8.449910 -7.654200 -4.890600
7.661000 8.367800 -5.640600
7.661000 8.367800 -6.140600
9.131900 -8.336200 -4.890600
8.967600 -8.348900 -4.640600
8.348900 -8.967600 -4.640600
8.336200 -9.131900 -4.890600
9.131900 8.336250 -5.140600
9.131900 8.336250 -4.890600
8.449900 7.654240 -4.890600
8.449900 7.654240 -5.140600
8.449900 7.654240 -4.890600
7.654200 8.449910 -4.890600
7.654200 8.449910 -5.140600
8.449900 7.654240 -5.140600
8.336200 9.131920 -4.890600
8.336200 9.131920 -5.140600
7.654200 8.449910 -5.140600
7.654200 8.449910 -4.890600
-8.449910 -7.654200 -4.890600
-7.654240 -8.449900 -4.890600
-7.654240 -8.449900 -5.140600
-8.449910 -7.654200 -5.140600
-3.234780 12.072364 8.145000
-7.660690 8.368150 -6.140600
-7.660690 8.368150 -5.640600
-8.367800 7.661050 -5.640600
-8.367800 7.661050 -6.140600
-9.131920 -8.336200 -4.890600
-8.336250 -9.131900 -4.890600
-7.654240 -8.449900 -4.890600
-8.449910 -7.654200 -4.890600
-8.336250 -9.131900 -4.890600
-9.131920 -8.336200 -4.890600
-9.131920 -8.336200 -5.140600
-8.336250 -9.131900 -5.140600
7.654200 8.449910 -4.890600
8.449900 7.654240 -4.890600
9.131900 8.336250 -4.890600
8.336200 9.131920 -4.890600
-7.572660 8.456190 -6.640600
-7.818560 8.437270 -6.765600
-8.348890 8.967600 -6.765600
-8.329970 9.213500 -6.640600
0.000000 13.000000 10.234400
0.000000 13.000000 9.359400
8.449900 -7.654200 -4.890600
8.449900 -7.654200 -5.140600
7.654200 -8.449900 -5.140600
7.654200 -8.449900 -4.890600
7.818600 8.437270 -4.640600
8.348900 8.967600 -4.640600
8.336200 9.131920 -4.890600
7.654200 8.449910 -4.890600
11.258300 6.500000 10.265600
11.258300 6.500000 10.515600
-8.348890 8.967600 -6.765600
-8.967600 8.348890 -6.765600
-9.213500 8.329970 -6.640600
-8.329970 9.213500 -6.640600
-8.437270 -7.818600 -6.765600
-7.818560 -8.437300 -6.765600
-8.024240 -8.421500 -10.515600
-8.421450 -8.024200 -10.515600
-7.604520 -8.842000 9.359400
-7.604520 -8.842000 7.734400
-8.841950 -7.604500 7.734400
-8.841950 -7.604500 9.359400
-10.712390 -6.184800 9.359400
-10.712390 -6.184800 8.359400
-7.661050 -8.367800 -6.140600
-7.661050 -8.367800 -5.640600
-8.368150 -7.660700 -5.640600
-8.368150 -7.660700 -6.140600
-8.456190 -7.572700 -5.140600
-7.572660 -8.456200 -5.140600
-7.572660 -8.456200 -6.640600
-7.661050 -8.367800 -5.640600
-7.661050 -8.367800 -6.140600
8.456200 -7.572700 -5.140600
9.213500 -8.330000 -5.140600
9.213500 -8.330000 -6.640600
8.456200 -7.572700 -6.640600
7.572700 -8.456200 -6.640600
7.572700 -8.456200 -5.140600
8.456200 -7.572700 -5.140600
8.367800 -7.661000 -5.640600
7.660700 -8.368200 -5.640600
7.660700 -8.368200 -6.140600
8.367800 -7.661000 -6.140600
8.456200 -7.572700 -6.640600
7.654200 -8.449900 -5.140600
9.213500 -8.330000 -6.640600
8.330000 -9.213500 -6.640600
7.572700 -8.456200 -6.640600
8.456200 -7.572700 -6.640600
8.348900 -8.967600 -6.765600
7.818600 -8.437300 -6.765600
8.024200 -8.421500 -10.515600
8.364700 -8.761900 -10.515600
8.967600 -8.348900 -6.765600
8.348900 -8.967600 -6.765600
7.818600 -8.437300 -6.765600
8.437300 -7.818600 -6.765600
9.213500 -8.330000 -6.640600
8.967600 -8.348900 -6.765600
8.437300 -7.818600 -6.765600
8.456200 -7.572700 -6.640600
8.330000 -9.213500 -5.140600
7.572700 -8.456200 -5.140600
7.572700 -8.456200 -6.640600
8.330000 -9.213500 -6.640600
-7.818560 8.437270 -6.765600
-8.437270 7.818560 -6.765600
-8.967600 8.348890 -6.765600
-8.348890 8.967600 -6.765600
-8.437270 7.818560 -6.765600
-8.456190 7.572660 -6.640600
-9.213500 8.329970 -6.640600
-8.967600 8.348890 -6.765600
-8.348890 -8.967600 -6.765600
-8.967600 -8.348900 -6.765600
-8.761920 -8.364700 -10.515600
-8.364710 -8.761900 -10.515600
-7.572660 -8.456200 -6.640600
-8.329970 -9.213500 -6.640600
-9.213500 -8.330000 -6.640600
-8.456190 -7.572700 -6.640600
-8.967600 -8.348900 -6.765600
-8.348890 -8.967600 -6.765600
-8.329970 -9.213500 -6.640600
-9.213500 -8.330000 -6.640600
-8.437270 -7.818600 -6.765600
-8.967600 -8.348900 -6.765600
-9.213500 -8.330000 -6.640600
-8.456190 -7.572700 -6.640600
-8.336250 -9.131900 -5.140600
-8.329970 -9.213500 -5.140600
-7.572660 -8.456200 -6.640600
-8.329970 -9.213500 -6.640600
-8.348890 -8.967600 -6.765600
-7.818560 -8.437300 -6.765600
-8.456190 -7.572700 -5.140600
-8.456190 -7.572700 -6.640600
-9.213500 -8.330000 -6.640600
-9.213500 -8.330000 -5.140600
8.437300 -7.818600 -6.765600
7.818600 -8.437300 -6.765600
7.572700 -8.456200 -6.640600
8.456200 -7.572700 -6.640600
-8.024240 -8.421500 -10.515600
-7.818560 -8.437300 -6.765600
-8.348890 -8.967600 -6.765600
-8.364710 -8.761900 -10.515600
-8.456190 -7.572700 -6.640600
-8.437270 -7.818600 -6.765600
-8.421450 -8.024200 -10.515600
-8.761920 -8.364700 -10.515600
-8.967600 -8.348900 -6.765600
-8.024240 -8.421500 -10.515600
-8.364710 -8.761900 -10.515600
-8.761920 -8.364700 -10.515600
-8.421450 -8.024200 -10.515600
-8.437270 7.818560 -6.765600
-8.967600 8.348890 -6.765600
-8.761920 8.364710 -10.515600
-8.421450 8.024240 -10.515600
9.213500 8.329970 -6.640600
8.967600 8.348890 -6.765600
8.348900 8.967600 -6.765600
8.330000 9.213500 -6.640600
8.348900 8.967600 -6.765600
7.818600 8.437270 -6.765600
7.572700 8.456190 -6.640600
8.330000 9.213500 -6.640600
9.213500 8.329970 -6.640600
9.213500 8.329970 -5.140600
8.456200 7.572660 -5.140600
8.456200 7.572660 -6.640600
7.661000 8.367800 -6.140600
7.572700 8.456190 -6.640600
8.456200 7.572660 -6.640600
8.456200 7.572660 -5.140600
7.572700 8.456190 -5.140600
7.661000 8.367800 -5.640600
8.367800 7.661050 -5.640600
8.367800 7.661050 -6.140600
8.761900 8.364710 -10.515600
8.967600 8.348890 -6.765600
8.437300 7.818560 -6.765600
8.421500 8.024240 -10.515600
7.661000 8.367800 -5.640600
2.655400 6.594480 -5.640600
-3.958680 6.876310 -5.640600
-7.660690 8.368150 -5.640600
-8.367800 7.661050 -5.640600
-6.424750 -1.332300 -5.640600
-8.368150 -7.660700 -5.640600
-7.661050 -8.367800 -5.640600
-3.958960 -6.876100 -5.640600
2.655100 -6.594600 -5.640600
7.660700 -8.368200 -5.640600
8.367800 -7.661000 -5.640600
6.424500 1.332500 -5.640600
8.367800 7.661050 -5.640600
7.654200 8.449910 -5.140600
8.449900 7.654240 -5.140600
9.131900 8.336250 -5.140600
8.336200 9.131920 -5.140600
8.330000 9.213500 -5.140600
8.330000 9.213500 -6.640600
7.572700 8.456190 -6.640600
7.572700 8.456190 -5.140600
8.348900 8.967600 -6.765600
8.967600 8.348890 -6.765600
8.761900 8.364710 -10.515600
8.364700 8.761920 -10.515600
-9.131920 -8.336200 -5.140600
-8.336250 -9.131900 -5.140600
-7.654240 -8.449900 -5.140600
-8.449910 -7.654200 -5.140600
7.654200 -8.449900 -5.140600
8.336200 -9.131900 -5.140600
9.131900 -8.336200 -5.140600
8.449900 -7.654200 -5.140600
8.367800 -7.661000 -5.640600
8.367800 -7.661000 -6.140600
7.660700 -8.368200 -6.140600
7.660700 -8.368200 -5.640600
4 0 1 2 3
4 4 5 6 7
8 8 9 10 11 12 13 14 15
4 16 17 18 19
4 20 21 22 23
4 24 25 26 27
4 28 29 30 31
4 32 33 34 35
4 36 37 38 39
4 40 41 42 43
4 38 44 45 39
6 46 47 48 49 50 51
4 52 53 54 55
4 56 57 58 59
4 1 60 61 2
4 62 63 64 65
4 66 67 68 69
4 70 71 72 73
6 74 75 76 77 78 79
4 80 81 82 83
5 84 85 86 87 88
4 89 90 91 92
4 93 94 95 96
4 97 98 99 100
4 101 102 103 104
4 105 106 107 108
4 109 0 3 110
8 111 112 113 114 115 116 117 118
4 119 120 121 122
4 123 124 125 126
4 127 128 129 130
4 131 132 133 134
4 9 8 135 136
4 137 138 139 140
13 141 142 143 144 145 146 147 148 149 150 151 152 153
13 154 155 156 157 158 159 160 161 162 163 164 165 166
4 167 168 169 170
4 171 83 82 172
4 173 174 175 176
6 177 48 47 178 179 180
7 181 182 183 184 185 186 187
4 188 189 190 191
4 192 193 194 195
4 196 197 198 199
4 119 122 200 201
4 194 193 202 203
4 204 205 206 207
4 25 208 209 26
4 210 211 212 213
5 214 180 215 216 217
6 218 219 220 221 222 223
4 224 28 31 225
4 81 80 199 198
4 226 227 228 229
4 230 231 232 233
4 234 235 236 237
4 238 239 240 241
8 242 243 244 245 246 247 248 249
4 250 251 252 253
8 254 255 256 257 258 259 260 261
4 262 263 264 265
4 266 267 268 269
4 270 271 272 273
4 274 275 276 277
4 278 279 280 281
4 282 283 284 285
5 286 287 288 289 290
13 291 292 293 294 295 296 297 298 299 300 301 302 303
4 304 305 306 307
4 308 309 310 311
4 312 313 314 315
4 316 317 318 319
8 320 321 322 323 324 325 326 327
4 324 323 320 327
4 328 329 189 188
4 330 331 332 333
4 334 171 172 335
7 336 337 338 339 181 340 341
5 341 174 173 337 336
5 342 218 223 87 86
4 53 343 344 54
4 345 346 347 348
6 349 350 351 352 353 354
4 355 356 357 358
4 359 360 361 362
4 75 74 363 364
4 365 366 367 368
4 369 370 371 372
4 373 374 375 376
4 377 378 379 380
4 138 381 382 139
4 97 100 383 384
4 385 386 387 388
8 389 390 391 51 50 392 393 394
4 395 396 397 398
4 399 400 401 402
4 403 404 405 406
4 407 408 409 410
4 411 412 413 414
4 415 416 417 418
4 419 420 421 422
4 261 260 257 256
4 423 424 425 426
4 427 428 429 430
4 431 432 433 434
4 347 346 334 335
4 435 436 437 438
6 439 440 441 187 186 185
4 442 443 444 445
4 446 447 448 449
13 450 451 452 453 454 455 456 457 458 459 460 461 462
8 463 464 182 181 339 338 465 466
9 467 468 469 470 471 472 473 474 475
26 476 477 478 479 480 481 482 483 484 485 486 487 488 489 490 491 492 493 494 495 496 497 498 499 500 501
4 502 503 504 505
4 506 507 508 509
4 237 236 510 511
4 512 513 514 515
6 516 517 349 354 518 519
6 520 521 522 523 524 525
7 526 527 528 529 530 531 532
4 533 534 535 536
6 537 538 539 517 516 540
4 541 542 543 544
4 545 224 225 546
4 547 390 389 548
4 549 550 551 552
5 475 474 553 554 555
4 556 557 558 559
14 560 561 562 563 564 565 566 567 568 569 570 571 572 573
5 441 574 340 181 187
4 575 576 577 578
4 579 580 581 582
4 583 584 585 586
8 587 216 215 180 179 588 589 590
4 591 592 593 594
4 595 596 597 598
6 555 599 600 468 467 475
10 601 221 220 602 603 604 605 606 607 608
4 609 610 611 612
4 613 614 615 616
4 617 618 619 620
10 588 179 178 47 621 622 623 624 625 589
10 471 626 627 628 629 286 290 289 630 472
4 631 632 633 634
9 518 354 353 352 635 286 629 628 627
8 473 472 630 289 288 636 553 474
7 173 176 637 466 465 338 337
4 638 639 640 641
4 196 545 546 197
5 214 642 48 177 180
7 548 389 79 78 77 643 644
6 645 216 587 646 637 176
31 167 170 647 648 649 650 651 652 653 654 655 656 657 658 659 169 168 660 661 662 663 664 665 666 667 668 669 670 671 672 673
5 674 675 605 604 603
4 676 511 510 677
4 202 678 679 203
4 84 680 681 85
4 682 683 345 348
5 684 393 392 50 49
4 642 684 49 48
5 217 216 645 176 175
8 685 674 603 602 220 219 218 342
4 686 382 381 687
9 519 608 607 606 605 688 537 540 516
4 676 677 37 36
4 689 690 691 692
4 235 234 201 200
6 439 185 184 643 77 76
16 693 694 695 696 697 698 699 700 701 702 703 704 705 706 707 708
4 709 710 711 712
4 440 713 574 441
6 75 364 713 440 439 76
6 714 88 87 223 222 715
6 714 715 716 469 468 600
12 717 718 719 720 721 249 248 722 723 724 725 726
4 727 728 729 730
4 731 732 733 734
4 735 736 737 738
4 739 740 741 742
4 743 744 745 746
4 747 748 749 750
4 191 190 751 752
4 753 754 755 756
4 757 758 759 760
4 761 762 763 764
4 765 766 767 768
4 769 770 771 772
4 378 377 773 774
8 775 703 702 776 777 778 779 780
13 781 782 783 784 785 786 787 788 789 790 791 792 793
4 712 711 618 617
4 208 752 751 209
4 794 795 796 797
4 610 798 799 611
4 795 384 383 796
4 800 801 802 803
4 804 805 806 807
4 808 809 810 811
4 812 813 814 815
4 816 817 818 819
4 820 821 822 823
4 824 825 826 827
4 517 539 350 349
4 828 829 830 831
4 832 833 834 835
4 691 686 687 692
4 231 230 121 120
4 343 609 612 344
13 836 837 838 839 840 841 842 843 844 845 846 847 848
4 849 850 851 852
4 853 854 855 856
4 857 192 195 858
5 352 351 287 286 635
4 859 641 640 860
4 861 862 863 864
4 865 866 867 868
4 869 870 871 872
4 873 874 875 876
4 877 878 879 880
4 881 882 883 884
4 885 886 859 860
4 887 888 889 890
6 84 88 714 600 599 680
4 891 892 893 894
4 895 896 897 898
4 899 900 901 902
5 680 599 555 554 681
4 903 904 905 906
9 589 625 907 463 466 637 646 587 590
4 908 909 910 911
4 912 913 914 915
4 916 917 918 919
4 920 921 922 923
4 117 116 113 112
4 924 925 926 927
5 675 538 537 688 605
4 498 497 485 484
4 928 929 233 232
4 380 379 92 91
4 930 931 932 933
4 45 44 929 928
4 678 24 27 679
4 934 935 936 937
4 938 329 328 939
4 940 941 942 943
4 944 945 946 947
4 948 949 950 951
4 952 137 140 953
4 29 683 682 30
9 46 51 391 390 547 623 622 621 47
7 954 955 956 957 958 959 960
4 961 962 13 12
4 963 964 965 966
8 967 968 969 970 971 972 973 974
5 975 532 531 528 527
4 976 977 978 979
5 363 74 79 389 394
4 980 981 982 983
4 984 985 986 987
4 988 989 990 991
4 992 993 994 995
4 974 973 970 969
4 996 997 998 999
4 1000 1001 1002 1003
4 1004 1005 1006 1007
4 1008 1009 1010 1011
4 1012 1013 1014 1015
4 798 952 953 799
4 1016 1017 1018 1019
6 1020 523 522 1021 520 525
4 1022 1023 1024 1025
4 1026 1027 1028 1029
4 1030 1031 1032 1033
4 1034 1035 1036 1037
5 1038 958 957 954 960
4 1039 1040 1041 1042
4 1043 1044 1045 1046
4 1047 1048 1049 1050
4 1051 1052 1053 1054
4 939 857 858 938
4 1055 1056 1057 1058
4 1059 1060 1061 1062
8 1063 1064 1065 1066 1067 1068 1069 1070
4 1071 1072 1073 1074
14 1075 1076 1077 1078 1079 1080 1081 1082 1083 1084 1085 1086 1087 1088
4 1089 1090 1091 1092
4 1093 1094 1095 1096
4 1097 1098 1099 1100
4 1063 1068 1067 1064
4 1101 1102 1103 1104
4 55 690 689 52
4 1105 1106 1107 1108
4 1109 1110 1111 1112
