ply
format ascii 1.0
comment Created by Blender 2.82 (sub 7) - www.blender.org, source file: ''
element vertex 241
property float x
property float y
property float z
element face 70
property list uchar uint vertex_indices
end_header
1.503150 -1.064300 19.500000
0.771100 -1.796350 19.500000
0.771100 -1.796350 -20.000000
1.503150 -1.064300 -20.000000
-10.621200 -6.064300 -20.000000
-10.621200 -6.064300 -21.000000
-6.228900 -10.456600 -21.000000
-6.228900 -10.456600 -20.000000
-1.228900 1.667750 19.500000
-1.228900 1.667750 -20.000000
-1.960950 0.935700 -20.000000
-1.960950 0.935700 19.500000
9.000010 -15.588500 19.500000
9.000010 -15.588500 21.000000
4.658750 -17.386700 21.000000
4.658750 -17.386700 19.500000
-1.643110 1.349910 -21.000000
-0.746538 1.867550 -21.000000
-11.820000 3.041530 -21.000000
-12.228900 -0.064300 -21.000000
17.386700 -4.658760 21.000000
15.588500 -9.000010 21.000000
15.588500 -9.000010 19.500000
17.386700 -4.658760 19.500000
-4.658730 17.386700 21.000000
-4.658730 17.386700 19.500000
-12.727900 12.727900 19.500000
-12.727900 12.727900 21.000000
12.727900 12.727900 21.000000
12.727900 12.727900 19.500000
4.658750 17.386700 19.500000
4.658750 17.386700 21.000000
-1.960950 0.935700 -20.000000
-1.228900 1.667750 -20.000000
-1.228900 1.667750 -21.000000
-1.960950 0.935700 -21.000000
-1.228900 -1.796350 19.500000
-1.960950 -1.064300 19.500000
-1.960950 -1.064300 -20.000000
-1.228900 -1.796350 -20.000000
0.771100 -1.796350 -21.000000
1.503150 -1.064300 -21.000000
1.503150 -1.064300 -20.000000
0.771100 -1.796350 -20.000000
1.503150 0.935700 19.500000
1.503150 0.935700 -20.000000
0.771100 1.667750 -20.000000
0.771100 1.667750 19.500000
1.503150 0.935700 -20.000000
0.771100 1.667750 -20.000000
0.771100 1.667750 -21.000000
1.503150 0.935700 -21.000000
-0.228900 -2.064300 19.500000
-0.228900 -2.064300 -20.000000
0.771100 -1.796350 -20.000000
1.503150 -1.064300 -20.000000
1.503150 -1.064300 -21.000000
0.771100 -1.796350 -21.000000
-1.960950 -1.064300 -21.000000
-1.228900 -1.796350 -21.000000
-1.228900 -1.796350 -20.000000
-1.960950 -1.064300 -20.000000
-10.621200 5.935700 -20.000000
-12.228900 -0.064300 -20.000000
-10.621200 -6.064300 -20.000000
-6.228900 -10.456600 -20.000000
-0.228900 -12.064300 -20.000000
5.771100 -10.456600 -20.000000
10.163400 -6.064300 -20.000000
11.771100 -0.064300 -20.000000
1.503150 0.935700 -20.000000
1.771100 -0.064300 -20.000000
1.503150 -1.064300 -20.000000
0.771100 -1.796350 -20.000000
-0.228900 -2.064300 -20.000000
-1.228900 -1.796350 -20.000000
-1.960950 -1.064300 -20.000000
-2.228900 -0.064300 -20.000000
-1.960950 0.935700 -20.000000
-1.228900 1.667750 -20.000000
-0.228900 1.935700 -20.000000
0.288738 1.867550 -20.000000
11.362200 3.041530 -20.000000
8.256380 8.420980 -20.000000
5.771100 10.328000 -20.000000
-0.228900 11.935700 -20.000000
-6.228900 10.328000 -20.000000
-17.386700 4.658730 21.000000
-17.386700 4.658730 19.500000
0.771100 1.667750 -20.000000
-4.658730 -17.386700 21.000000
-4.658730 -17.386700 19.500000
-1.960950 -1.064300 -20.000000
-1.228900 -1.796350 -20.000000
-1.228900 -1.796350 -21.000000
-1.960950 -1.064300 -21.000000
-0.228900 1.935700 -20.000000
-0.228900 1.935700 -21.000000
-12.228900 -0.064300 -20.000000
-10.621200 5.935700 -20.000000
-10.621200 5.935700 -21.000000
-12.228900 -0.064300 -21.000000
-12.727900 -12.727900 21.000000
-17.386700 -4.658760 21.000000
-17.386700 -4.658760 19.500000
-12.727900 -12.727900 19.500000
-0.228900 11.935700 -20.000000
-0.228900 11.935700 -21.000000
-6.228900 10.328000 -21.000000
-6.228900 10.328000 -20.000000
-2.228900 -0.064300 19.500000
-2.228900 -0.064300 -20.000000
1.771100 -0.064300 19.500000
1.771100 -0.064300 -20.000000
-0.228900 -12.064300 -21.000000
-0.228900 -12.064300 -20.000000
-1.960950 -1.064300 19.500000
-1.228900 -1.796350 19.500000
-0.746538 -1.996150 19.500000
-17.386700 -4.658760 19.500000
-18.000000 -0.000013 19.500000
-2.160750 0.453338 19.500000
-2.228900 -0.064300 19.500000
-0.228900 -2.064300 -21.000000
-0.228900 -2.064300 -20.000000
-0.228900 -2.064300 -20.000000
-0.228900 -2.064300 -21.000000
1.771100 -0.064300 19.500000
1.503150 0.935700 19.500000
0.771100 1.667750 19.500000
-0.228900 1.935700 19.500000
-1.228900 1.667750 19.500000
-1.960950 0.935700 19.500000
-17.386700 4.658730 19.500000
-12.727900 12.727900 19.500000
-4.658730 17.386700 19.500000
4.658750 17.386700 19.500000
12.727900 12.727900 19.500000
17.386700 4.658730 19.500000
17.386700 -4.658760 19.500000
15.588500 -9.000010 19.500000
9.000010 -15.588500 19.500000
4.658750 -17.386700 19.500000
-4.658730 -17.386700 19.500000
-12.727900 -12.727900 19.500000
-0.228900 -2.064300 19.500000
0.771100 -1.796350 19.500000
1.503150 -1.064300 19.500000
1.503150 0.935700 -21.000000
1.771100 -0.064300 -21.000000
1.503150 -1.064300 -21.000000
0.771100 -1.796350 -21.000000
-0.228900 -2.064300 -21.000000
-1.228900 -1.796350 -21.000000
-1.960950 -1.064300 -21.000000
-2.228900 -0.064300 -21.000000
-1.960950 0.935700 -21.000000
-10.621200 -6.064300 -21.000000
-6.228900 -10.456600 -21.000000
-0.228900 -12.064300 -21.000000
5.771100 -10.456600 -21.000000
10.163400 -6.064300 -21.000000
11.771100 -0.064300 -21.000000
10.163400 5.935700 -21.000000
5.771100 10.328000 -21.000000
-0.228900 11.935700 -21.000000
-6.228900 10.328000 -21.000000
-8.714180 8.420980 -21.000000
-0.228900 1.935700 -21.000000
0.771100 1.667750 -21.000000
-0.228900 1.935700 -20.000000
-0.228900 1.935700 -21.000000
11.771100 -0.064300 -20.000000
11.771100 -0.064300 -21.000000
10.163400 5.935700 -21.000000
10.163400 5.935700 -20.000000
1.771100 -0.064300 -21.000000
1.503150 0.935700 -21.000000
1.503150 0.935700 -20.000000
1.771100 -0.064300 -20.000000
0.771100 1.667750 -20.000000
0.771100 1.667750 -21.000000
-1.228900 1.667750 -20.000000
-1.228900 1.667750 -21.000000
10.163400 -6.064300 -20.000000
5.771100 -10.456600 -20.000000
5.771100 -10.456600 -21.000000
10.163400 -6.064300 -21.000000
-2.228900 -0.064300 -21.000000
-2.228900 -0.064300 -20.000000
1.771100 -0.064300 -20.000000
1.771100 -0.064300 -21.000000
17.386700 4.658730 21.000000
17.386700 4.658730 19.500000
-2.228900 -0.064300 -20.000000
-2.228900 -0.064300 -21.000000
5.771100 10.328000 -21.000000
5.771100 10.328000 -20.000000
-0.228900 1.935700 19.500000
-0.228900 1.935700 -20.000000
-1.228900 -1.796350 -21.000000
-0.746538 -1.996150 -21.000000
-11.820000 -3.170130 -21.000000
-12.228900 -0.064300 -21.000000
-1.960950 0.935700 -21.000000
-2.228900 -0.064300 -21.000000
-1.960950 -1.064300 -21.000000
-1.228900 1.667750 -21.000000
-10.621200 5.935700 -21.000000
-6.228900 10.328000 -21.000000
-0.228900 11.935700 -21.000000
5.771100 10.328000 -21.000000
10.163400 5.935700 -21.000000
11.771100 -0.064300 -21.000000
10.163400 -6.064300 -21.000000
5.771100 -10.456600 -21.000000
-0.228900 -12.064300 -21.000000
-6.228900 -10.456600 -21.000000
-8.714180 -8.549580 -21.000000
-0.228900 -2.064300 -21.000000
0.771100 -1.796350 -21.000000
1.503150 -1.064300 -21.000000
1.771100 -0.064300 -21.000000
1.503150 0.935700 -21.000000
0.771100 1.667750 -21.000000
-0.228900 1.935700 -21.000000
-1.960950 0.935700 -20.000000
-1.960950 0.935700 -21.000000
-17.386700 -4.658760 21.000000
-12.727900 -12.727900 21.000000
-4.658730 -17.386700 21.000000
4.658750 -17.386700 21.000000
9.000010 -15.588500 21.000000
15.588500 -9.000010 21.000000
17.386700 -4.658760 21.000000
17.386700 4.658730 21.000000
12.727900 12.727900 21.000000
4.658750 17.386700 21.000000
-4.658730 17.386700 21.000000
-12.727900 12.727900 21.000000
-17.386700 4.658730 21.000000
4 0 1 2 3
4 4 5 6 7
4 8 9 10 11
4 12 13 14 15
4 16 17 18 19
4 20 21 22 23
4 24 25 26 27
4 28 29 30 31
4 32 33 34 35
4 36 37 38 39
4 40 41 42 43
4 44 45 46 47
4 48 49 50 51
4 52 36 39 53
4 54 55 56 57
4 58 59 60 61
25 62 63 64 65 66 67 68 69 70 71 72 73 74 75 76 77 78 79 80 81 82 83 84 85 86
4 87 27 26 88
5 89 70 69 82 81
4 14 90 91 15
4 92 93 94 95
4 33 96 97 34
4 98 99 100 101
4 102 103 104 105
4 106 107 108 109
4 103 87 88 104
4 110 11 10 111
4 112 0 3 113
4 114 115 7 6
7 116 117 118 119 120 121 122
4 123 124 60 59
4 125 126 94 93
25 127 128 129 130 131 132 121 120 133 134 135 136 137 138 139 140 141 142 143 144 119 118 145 146 147
26 148 149 150 151 152 153 154 155 156 16 19 157 158 159 160 161 162 163 164 165 166 167 18 17 168 169
4 49 170 171 50
4 172 173 174 175
4 176 177 178 179
4 97 96 180 181
4 124 123 40 43
4 182 183 171 170
4 184 185 186 187
4 126 125 54 57
4 188 58 61 189
4 44 112 113 45
4 190 48 51 191
4 41 176 179 42
4 98 101 5 4
4 2 1 52 53
4 192 20 23 193
4 194 92 95 195
4 196 107 106 197
4 198 199 9 8
4 109 108 100 99
4 46 199 198 47
4 55 190 191 56
4 91 90 102 105
4 28 192 193 29
7 200 201 202 203 204 205 206
4 175 174 196 197
4 172 184 187 173
23 207 204 203 208 209 210 211 212 213 214 215 216 217 218 202 201 219 220 221 222 223 224 225
4 183 182 226 227
4 181 180 178 177
4 25 24 31 30
4 21 13 12 22
4 37 110 111 38
4 115 114 186 185
13 228 229 230 231 232 233 234 235 236 237 238 239 240
4 226 194 195 227
4 35 188 189 32
