ply
format ascii 1.0
comment Created by Blender 2.82 (sub 7) - www.blender.org, source file: ''
element vertex 840
property float x
property float y
property float z
element face 233
property list uchar uint vertex_indices
end_header
-4.200900 1.027850 -1.741170
-4.085200 1.027850 -1.741170
-4.085200 1.142750 -1.845500
-4.085200 1.253250 -1.989730
-4.085200 1.358050 -2.172080
-4.085200 1.455750 -2.390270
-4.200900 1.455750 -2.390270
-4.200900 1.358050 -2.172080
-4.200900 1.253250 -1.989730
-4.200900 1.142750 -1.845500
-4.085200 0.438550 -1.845500
-4.085200 0.553450 -1.741170
-4.200900 0.553450 -1.741170
-4.200900 0.438550 -1.845500
-4.200900 0.328050 -1.989730
-4.200900 0.223250 -2.172080
-4.200900 0.125550 -2.390270
-4.085200 0.125550 -2.390270
-4.085200 0.223250 -2.172080
-4.085200 0.328050 -1.989730
11.466100 23.457850 1.397500
11.360500 23.410549 1.397500
11.360500 23.410549 -2.390270
11.466100 23.457850 -2.390270
-3.900800 -8.674950 -2.390270
-4.042500 -8.604950 -2.390270
-4.042500 -8.604950 -2.665270
-3.900800 -8.674950 -2.665270
-11.875000 -11.249950 -8.275490
12.375000 -11.249950 -8.275490
23.125000 -32.499950 -8.275490
-23.875000 -32.499950 -8.275490
-23.875000 32.999950 -8.275490
12.375000 14.249950 -8.275490
-11.875000 14.249950 -8.275490
14.695600 15.246750 -2.665270
14.695600 15.246750 -2.390270
4.338300 10.613750 -2.390270
4.338300 10.613750 -2.665270
7.550200 8.708250 -2.390270
7.550200 8.708250 -2.665270
-3.796000 8.708250 -2.665270
-3.796000 8.708250 -2.390270
27.375000 36.749950 11.031250
27.375000 -36.749950 11.031250
27.375000 -36.749950 14.281250
27.375000 36.749950 14.281250
-3.955900 -6.226950 -8.408750
-3.955900 -6.226950 -9.623750
-7.255900 -3.088750 -9.623750
-7.255900 -3.088750 -8.408750
0.471000 -7.294950 -8.408750
0.471000 -7.294950 -9.623750
-4.338700 9.005850 -12.053750
0.029100 10.294650 -12.053750
0.029100 10.294650 -10.636250
-4.338700 9.005850 -10.636250
4.079200 10.589450 -2.665270
4.079200 10.589450 -2.390270
4.028600 10.605150 -2.390270
3.980500 10.627150 -2.390270
3.935600 10.655350 -2.390270
3.935600 10.655350 -2.665270
3.980500 10.627150 -2.665270
4.028600 10.605150 -2.665270
3.995700 10.671450 1.397500
14.880900 15.540650 1.397500
11.360500 23.410549 1.397500
0.475300 18.541451 1.397500
12.375000 -11.249950 -9.623750
12.375000 -11.249950 -8.275490
-11.875000 -11.249950 -8.275490
-11.875000 -11.249950 -9.623750
23.125000 -32.499950 11.031250
-23.875000 -32.499950 11.031250
15.744800 27.119650 11.031250
15.744800 -26.619949 11.031250
23.125000 32.999950 11.031250
-8.187800 -0.989650 -9.623750
-7.255900 -3.088750 -9.623750
-3.955900 -6.226950 -9.623750
-11.875000 14.249950 -9.623750
12.375000 14.249950 -9.623750
4.838700 -6.005950 -9.623750
6.625000 -4.562950 -9.623750
8.802200 -0.562850 -9.623750
9.044700 1.720950 -9.623750
7.755900 6.088650 -9.623750
4.456000 9.226850 -9.623750
0.029100 10.294650 -9.623750
-4.338700 9.005850 -9.623750
-6.125000 7.562450 -9.623750
-8.302100 3.562750 -9.623750
27.375000 36.749950 14.281250
27.375000 36.749950 11.031250
-27.375000 36.749950 11.031250
-27.375000 36.749950 14.281250
9.044700 1.720950 -12.053750
8.802200 -0.562850 -12.053750
8.802200 -0.562850 -10.636250
9.044700 1.720950 -10.636250
7.955100 0.790650 -1.656930
7.839400 0.790650 -1.656930
7.839400 0.553450 -1.741170
7.955100 0.553450 -1.741170
9.044700 1.720950 -10.636250
8.802200 -0.562850 -10.636250
8.802200 -0.562850 -12.053750
9.044700 1.720950 -12.053750
-27.375000 -36.749950 14.281250
-27.375000 -36.749950 11.031250
27.375000 -36.749950 14.281250
7.839400 1.027850 -1.741170
7.955100 1.027850 -1.741170
7.955100 1.142750 -1.845500
7.955100 1.253250 -1.989730
7.955100 1.358050 -2.172080
7.955100 1.455750 -2.390270
7.839400 1.455750 -2.390270
7.839400 1.358050 -2.172080
7.839400 1.253250 -1.989730
7.839400 1.142750 -1.845500
15.744800 -26.619949 11.031250
15.744800 -26.619949 -2.738750
-16.244699 -26.619949 -2.738750
-16.244699 -26.619949 11.031250
9.044700 1.720950 -8.408750
8.802200 -0.562850 -8.408750
6.625000 -4.562950 -8.408750
2.739700 -6.937950 -8.408750
-8.187800 -0.989650 -8.408750
-8.302100 3.562750 -8.408750
-6.125000 7.562450 -8.408750
-4.338700 9.005850 -8.408750
0.029100 10.294650 -8.408750
4.456000 9.226850 -8.408750
7.755900 6.088650 -8.408750
0.876900 -23.448950 -10.636250
-11.681500 -20.419950 -10.636250
-11.681500 -20.419950 -14.281250
0.876900 -23.448950 -14.281250
-8.187800 -0.989650 -9.623750
-8.302100 3.562750 -9.623750
-11.875000 -11.249950 -5.237990
-11.875000 14.249950 -5.237990
-11.875000 14.249950 -8.275490
-11.875000 -11.249950 -8.275490
4.237200 10.570050 1.672510
4.182800 10.560350 1.672510
4.127600 10.559150 1.672510
4.127600 10.559150 1.397500
4.182800 10.560350 1.397500
4.237200 10.570050 1.397500
4.289400 10.587950 1.397500
4.338300 10.613750 1.397500
4.338300 10.613750 1.672510
4.289400 10.587950 1.672510
7.900900 8.505850 -2.390270
7.924300 8.458350 -2.390270
7.941300 8.408150 -2.390270
7.951600 8.356250 -2.390270
7.955100 8.303350 -2.390270
7.955100 8.303350 -2.665270
7.951600 8.356250 -2.665270
7.941300 8.408150 -2.665270
7.924300 8.458350 -2.665270
7.900900 8.505850 -2.665270
9.044700 1.720950 -9.623750
8.802200 -0.562850 -9.623750
8.802200 -0.562850 -10.636250
9.044700 1.720950 -10.636250
0.369700 18.494150 1.397500
3.803500 10.818050 1.397500
3.803500 10.818050 1.672510
0.369700 18.494150 1.672510
0.289100 18.674450 0.271070
0.369700 18.494150 -2.665270
3.803500 10.818050 -2.665270
3.803500 10.818050 -2.390270
0.369700 18.494150 -2.390270
-4.170100 8.458350 -2.665270
-3.998500 8.654050 -2.665270
7.752700 8.654050 -2.665270
7.900900 8.505850 -2.665270
7.955100 1.455750 -2.665270
-4.200900 1.455750 -2.665270
-3.955900 -6.226950 -12.053750
-7.255900 -3.088750 -12.053750
-7.255900 -3.088750 -10.636250
-3.955900 -6.226950 -10.636250
8.802200 -0.562850 -8.408750
6.625000 -4.562950 -8.408750
6.625000 -4.562950 -9.623750
8.802200 -0.562850 -9.623750
-3.955900 -6.226950 -8.408750
-3.955900 -6.226950 -9.623750
0.471000 -7.294950 -9.623750
0.471000 -7.294950 -8.408750
6.625000 -4.562950 -9.623750
6.625000 -4.562950 -10.636250
-7.255900 -3.088750 -10.636250
-8.187800 -0.989650 -10.636250
-8.187800 -0.989650 -12.053750
-7.255900 -3.088750 -12.053750
4.456000 9.226850 -12.053750
4.456000 9.226850 -10.636250
7.755900 6.088650 -10.636250
7.755900 6.088650 -12.053750
7.839400 4.660450 0.565600
7.839400 4.014850 0.605460
7.839400 3.369150 0.602490
-4.085200 3.369150 0.602490
-4.085200 4.014850 0.605460
-4.085200 4.660450 0.565600
-4.085200 5.950150 0.357470
-4.085200 7.235950 -0.021530
-4.085200 8.515650 -0.570740
7.839400 8.515650 -0.570740
7.839400 7.235950 -0.021530
7.839400 5.950150 0.357470
14.943600 15.680550 1.672510
14.947100 15.516150 1.672510
14.947100 15.516150 1.397500
14.943600 15.680550 1.397500
7.839400 0.790650 0.162610
-4.085200 0.790650 0.162610
-4.085200 0.553450 0.078360
7.839400 0.553450 0.078360
23.125000 32.999950 -8.275490
-23.875000 32.999950 11.031250
-6.812700 25.436350 -10.636250
-6.812700 25.436350 -14.281250
-17.834700 18.698151 -14.281250
-17.834700 18.698151 -10.636250
-4.338700 9.005850 -8.408750
-4.338700 9.005850 -9.623750
-6.125000 7.562450 -9.623750
-6.125000 7.562450 -8.408750
-4.200900 1.027850 -2.016180
7.955100 1.027850 -2.016180
7.955100 0.790650 -1.931930
-4.200900 0.790650 -1.931930
-6.125000 7.562450 -12.053750
-8.302100 3.562750 -12.053750
-8.187800 -0.989650 -12.053750
0.471000 -7.294950 -12.053750
2.739700 -6.937950 -12.053750
6.625000 -4.562950 -12.053750
7.755900 6.088650 -12.053750
4.456000 9.226850 -12.053750
0.471000 -7.294950 -10.636250
-8.302100 3.562750 -10.636250
-8.187800 -0.989650 -10.636250
-27.375000 -36.749950 11.031250
-27.375000 36.749950 11.031250
-27.375000 36.749950 14.281250
-27.375000 -36.749950 14.281250
-8.302100 3.562750 -9.623750
-6.125000 7.562450 -9.623750
-6.125000 7.562450 -10.636250
-8.302100 3.562750 -10.636250
14.876800 15.367550 1.672510
14.839100 15.327150 1.672510
14.839100 15.327150 1.397500
14.876800 15.367550 1.397500
14.907800 15.413250 1.397500
14.931400 15.463150 1.397500
14.931400 15.463150 1.672510
14.907800 15.413250 1.672510
-6.125000 7.562450 -10.636250
-3.796000 -8.687950 -2.665270
-3.796000 -8.687950 -2.390270
12.375000 14.249950 -8.275490
-4.200900 0.553450 -1.741170
-4.200900 0.790650 -1.656930
-4.200900 1.027850 -1.741170
-4.200900 1.455750 -2.390270
-4.200900 8.303350 -2.390270
-4.200900 8.303350 -2.665270
-4.200900 1.455750 -2.665270
-4.200900 1.027850 -2.016180
-4.200900 0.790650 -1.931930
-4.200900 0.553450 -2.016180
-4.200900 0.125550 -2.665270
-4.200900 -8.283950 -2.665270
-4.200900 -8.283950 -2.390270
-4.200900 0.125550 -2.390270
-4.082300 -8.569950 -2.390270
-4.117200 -8.529950 -2.390270
-4.170100 -8.438950 -2.390270
-4.170100 -8.438950 -2.665270
-4.117200 -8.529950 -2.665270
-4.082300 -8.569950 -2.665270
-4.085200 1.027850 -1.741170
7.839400 1.027850 -1.741170
7.839400 1.142750 -1.845500
7.839400 1.253250 -1.989730
7.839400 1.358050 -2.172080
7.839400 1.455750 -2.390270
-4.085200 1.455750 -2.390270
-4.085200 1.358050 -2.172080
-4.085200 1.253250 -1.989730
-4.085200 1.142750 -1.845500
12.375000 -11.249950 -8.275490
12.375000 -11.249950 -5.237990
6.625000 -4.562950 -10.636250
4.456000 9.226850 -9.623750
0.029100 10.294650 -9.623750
0.029100 10.294650 -8.408750
4.456000 9.226850 -8.408750
13.267300 -19.792950 -10.636250
13.267300 -19.792950 -14.281250
7.839400 -8.495950 -0.570740
7.839400 -8.495950 -2.390270
7.839400 0.125550 -2.390270
7.839400 0.125550 -0.570740
7.755900 6.088650 -9.623750
7.755900 6.088650 -8.408750
11.360500 23.410549 -2.390270
11.360500 23.410549 1.397500
0.475300 18.541451 1.397500
0.475300 18.541451 -2.390270
12.375000 14.249950 -8.275490
12.375000 -11.249950 -8.275490
12.375000 -11.249950 -5.237990
12.375000 14.249950 -5.237990
-23.686399 -5.562950 -14.281250
-24.010900 7.351650 -14.281250
-0.376800 26.448750 -14.281250
12.181500 23.419649 -14.281250
21.542900 14.517250 -14.281250
25.198799 2.126850 -14.281250
22.169701 -10.431950 -14.281250
-16.948200 -16.584949 -14.281250
4.456000 9.226850 -10.636250
7.755900 6.088650 -10.636250
9.044700 1.720950 -9.623750
8.802200 -0.562850 -9.623750
-7.255900 -3.088750 -8.408750
-7.255900 -3.088750 -9.623750
2.739700 -6.937950 -8.408750
2.739700 -6.937950 -9.623750
14.886400 15.423750 -2.665270
14.886400 15.423750 -2.390270
14.695600 15.246750 -2.390270
14.695600 15.246750 -2.665270
-11.875000 14.249950 -8.275490
27.375000 -36.749950 11.031250
21.542900 14.517250 -10.636250
25.198799 2.126850 -10.636250
9.044700 1.720950 -10.636250
8.802200 -0.562850 -10.636250
24.510900 -4.351950 -10.636250
7.755900 6.088650 -10.636250
9.044700 1.720950 -8.408750
-8.302100 3.562750 -8.408750
-8.187800 -0.989650 -8.408750
7.755900 6.088650 -9.623750
7.752700 8.654050 -2.390270
7.752700 8.654050 -2.665270
7.550200 8.708250 -2.665270
7.550200 8.708250 -2.390270
9.044700 1.720950 -9.623750
15.744800 27.119650 11.031250
15.744800 27.119650 -2.738750
-6.125000 7.562450 -9.623750
-11.875000 -11.249950 -8.275490
-11.875000 -11.249950 -5.237990
0.369700 18.494150 -2.390270
3.858800 10.727950 -2.390270
4.079200 10.589450 -2.390270
4.288700 10.595350 -2.390270
14.824400 15.338150 -2.390270
14.933000 15.574750 -2.390270
11.466100 23.457850 -2.390270
11.360500 23.410549 -2.390270
14.880900 15.540650 -2.390270
3.995700 10.671450 -2.390270
0.475300 18.541451 -2.390270
22.169701 -10.431950 -10.636250
-8.187800 -0.989650 -9.623750
-4.085200 1.455750 -0.570740
-4.085200 1.455750 -2.390270
-4.200900 1.455750 -2.390270
-4.200900 1.455750 -2.665270
7.955100 1.455750 -2.665270
7.955100 1.455750 -2.390270
7.839400 1.455750 -2.390270
7.839400 1.455750 -0.570740
-8.187800 -0.989650 -9.623750
-8.187800 -0.989650 -10.636250
0.475300 18.541451 -2.390270
0.475300 18.541451 1.397500
0.369700 18.494150 1.397500
0.369700 18.494150 -2.390270
2.739700 -6.937950 -10.636250
-3.998500 8.654050 -2.390270
-3.998500 8.654050 -2.665270
-4.082300 8.589650 -2.665270
-4.117200 8.549850 -2.665270
-4.146600 8.505850 -2.665270
-4.170100 8.458350 -2.665270
-4.170100 8.458350 -2.390270
-4.146600 8.505850 -2.390270
-4.117200 8.549850 -2.390270
-4.082300 8.589650 -2.390270
4.019800 10.582150 1.397500
3.849700 10.718050 1.397500
0.369700 18.494150 1.397500
0.475300 18.541451 1.397500
3.995700 10.671450 1.397500
14.880900 15.540650 1.397500
11.360500 23.410549 1.397500
11.466100 23.457850 1.397500
14.943600 15.680550 1.397500
14.947100 15.516150 1.397500
14.907800 15.413250 1.397500
14.795600 15.293050 1.397500
4.237200 10.570050 1.397500
7.705200 -8.657950 -2.665270
-3.951000 -8.657950 -2.665270
-4.042500 -8.604950 -2.665270
-4.170100 -8.438950 -2.665270
-4.200900 0.125550 -2.665270
7.955100 0.125550 -2.665270
7.924300 -8.438950 -2.665270
7.836500 -8.569950 -2.665270
4.019800 10.582150 1.672510
4.019800 10.582150 1.397500
0.029100 10.294650 -10.636250
0.029100 10.294650 -12.053750
-4.338700 9.005850 -12.053750
-4.338700 9.005850 -10.636250
6.625000 -4.562950 -9.623750
2.739700 -6.937950 -9.623750
-16.244699 27.119650 -2.738750
7.839400 0.125550 -0.570740
7.839400 0.125550 -2.390270
-4.085200 0.125550 -2.390270
-4.085200 0.125550 -0.570740
7.839400 -8.495950 -2.390270
-4.085200 -8.495950 -2.390270
-4.085200 0.125550 -2.390270
7.839400 0.125550 -2.390270
0.029100 10.294650 -9.623750
-4.338700 9.005850 -9.623750
12.375000 14.249950 -5.237990
7.955100 0.438550 -1.845500
7.839400 0.438550 -1.845500
7.839400 0.328050 -1.989730
7.839400 0.223250 -2.172080
7.839400 0.125550 -2.390270
7.955100 0.125550 -2.390270
7.955100 0.223250 -2.172080
7.955100 0.328050 -1.989730
-4.085200 0.328050 -0.170190
7.839400 0.328050 -0.170190
11.466100 23.457850 -2.390270
14.899800 15.781650 -2.390270
14.899800 15.781650 -2.665270
11.466100 23.457850 -2.665270
11.377700 23.655550 -0.882240
11.466100 23.457850 1.672510
14.899800 15.781650 1.672510
14.899800 15.781650 1.397500
11.466100 23.457850 1.397500
-4.200900 8.303350 -2.390270
-4.200900 8.303350 -2.665270
-11.875000 14.249950 -5.237990
14.930000 15.680350 -2.390270
14.935000 15.627650 -2.390270
14.933000 15.574750 -2.390270
14.933000 15.574750 -2.665270
14.935000 15.627650 -2.665270
14.930000 15.680350 -2.665270
14.918300 15.732050 -2.665270
14.899800 15.781650 -2.665270
14.899800 15.781650 -2.390270
14.918300 15.732050 -2.390270
-16.244699 -26.619949 11.031250
-16.244699 27.119650 11.031250
12.181500 23.419649 -10.636250
-0.376800 26.448750 -10.636250
-3.998500 8.654050 -2.390270
7.752700 8.654050 -2.390270
7.900900 8.505850 -2.390270
7.955100 1.455750 -2.390270
-4.200900 1.455750 -2.390270
-4.170100 8.458350 -2.390270
0.475300 18.541451 1.397500
11.360500 23.410549 1.397500
14.880900 15.540650 1.397500
3.995700 10.671450 1.397500
14.795600 15.293050 1.672510
14.747400 15.266050 1.672510
14.695600 15.246750 1.672510
14.695600 15.246750 1.397500
14.747400 15.266050 1.397500
14.795600 15.293050 1.397500
7.955100 1.455750 -2.390270
7.900900 8.505850 -2.390270
7.752700 8.654050 -2.390270
-3.998500 8.654050 -2.390270
-4.170100 8.458350 -2.390270
-4.200900 1.455750 -2.390270
4.237200 10.570050 1.672510
14.795600 15.293050 1.672510
14.907800 15.413250 1.672510
14.947100 15.516150 1.672510
14.943600 15.680550 1.672510
11.466100 23.457850 1.672510
0.369700 18.494150 1.672510
3.849700 10.718050 1.672510
4.019800 10.582150 1.672510
-16.948200 -16.584949 -10.636250
-3.951000 -8.657950 -2.390270
7.705200 -8.657950 -2.390270
7.836500 -8.569950 -2.390270
7.924300 -8.438950 -2.390270
7.955100 0.125550 -2.390270
7.839400 0.125550 -2.390270
7.839400 -8.495950 -2.390270
-4.085200 -8.495950 -2.390270
-4.085200 0.125550 -2.390270
-4.200900 0.125550 -2.390270
-4.170100 -8.438950 -2.390270
-4.042500 -8.604950 -2.390270
0.475300 18.541451 -2.390270
11.360500 23.410549 -2.390270
14.880900 15.540650 -2.390270
3.995700 10.671450 -2.390270
4.456000 9.226850 -9.623750
4.456000 9.226850 -10.636250
0.029100 10.294650 -10.636250
0.029100 10.294650 -9.623750
-8.302100 3.562750 -10.636250
-8.302100 3.562750 -12.053750
11.360500 23.410549 -2.390270
11.360500 23.410549 1.397500
14.880900 15.540650 1.397500
14.880900 15.540650 -2.390270
14.880900 15.540650 -2.390270
14.880900 15.540650 1.397500
3.995700 10.671450 1.397500
3.995700 10.671450 -2.390270
7.755900 6.088650 -9.623750
7.755900 6.088650 -10.636250
0.475300 18.541451 -2.390270
3.995700 10.671450 -2.390270
3.995700 10.671450 1.397500
0.475300 18.541451 1.397500
-3.900800 8.694450 -2.665270
-3.951000 8.677450 -2.665270
-3.951000 8.677450 -2.390270
-3.900800 8.694450 -2.390270
-3.796000 8.708250 -2.390270
-3.796000 8.708250 -2.665270
-24.010900 7.351650 -10.636250
-23.686399 -5.562950 -10.636250
6.625000 -4.562950 -10.636250
2.739700 -6.937950 -10.636250
0.471000 -7.294950 -10.636250
-3.955900 -6.226950 -10.636250
-7.255900 -3.088750 -10.636250
-8.187800 -0.989650 -10.636250
-8.302100 3.562750 -10.636250
-6.125000 7.562450 -10.636250
-4.338700 9.005850 -10.636250
0.029100 10.294650 -10.636250
4.456000 9.226850 -10.636250
4.456000 9.226850 -9.623750
2.739700 -6.937950 -12.053750
2.739700 -6.937950 -10.636250
0.471000 -7.294950 -10.636250
0.471000 -7.294950 -12.053750
6.625000 -4.562950 -10.636250
6.625000 -4.562950 -12.053750
-6.125000 7.562450 -10.636250
-6.125000 7.562450 -12.053750
0.471000 -7.294950 -9.623750
-3.955900 -6.226950 -9.623750
-3.955900 -6.226950 -10.636250
0.471000 -7.294950 -10.636250
-3.955900 -6.226950 -12.053750
-3.955900 -6.226950 -10.636250
-4.085200 0.553450 -1.741170
7.839400 0.553450 -1.741170
7.839400 0.790650 -1.656930
-4.085200 0.790650 -1.656930
-7.255900 -3.088750 -9.623750
-7.255900 -3.088750 -10.636250
-4.085200 0.125550 -0.570740
-4.085200 0.328050 -0.170190
7.839400 0.328050 -0.170190
7.839400 0.125550 -0.570740
7.955100 1.027850 -1.741170
7.955100 0.790650 -1.656930
7.955100 0.553450 -1.741170
7.955100 0.125550 -2.390270
7.955100 -8.283950 -2.390270
7.955100 -8.283950 -2.665270
7.955100 0.125550 -2.665270
7.955100 0.553450 -2.016180
7.955100 0.790650 -1.931930
7.955100 1.027850 -2.016180
7.955100 1.455750 -2.665270
7.955100 8.303350 -2.665270
7.955100 8.303350 -2.390270
7.955100 1.455750 -2.390270
7.839400 1.027850 0.078360
-4.085200 1.027850 0.078360
-4.085200 0.790650 0.162610
7.839400 0.790650 0.162610
-4.200900 1.455750 -2.665270
7.955100 1.455750 -2.665270
7.955100 -8.283950 -2.390270
7.924300 -8.438950 -2.390270
7.924300 -8.438950 -2.665270
7.955100 -8.283950 -2.665270
7.839400 8.515650 -0.570740
-4.085200 8.515650 -0.570740
-4.085200 3.369150 0.602490
7.839400 3.369150 0.602490
-4.200900 0.125550 -2.390270
7.955100 0.125550 -2.390270
7.955100 0.125550 -2.665270
-4.200900 0.125550 -2.665270
7.836500 -8.569950 -2.390270
7.836500 -8.569950 -2.665270
7.839400 1.455750 -0.570740
-4.085200 1.455750 -0.570740
7.550200 -8.687950 -2.665270
7.550200 -8.687950 -2.390270
-3.796000 -8.687950 -2.390270
-3.796000 -8.687950 -2.665270
-4.200900 0.790650 -1.656930
-4.085200 0.790650 -1.656930
7.839400 0.125550 -2.390270
-4.085200 0.125550 -2.390270
7.839400 1.027850 0.078360
7.839400 0.790650 0.162610
7.839400 0.553450 0.078360
7.839400 0.125550 -0.570740
7.839400 0.125550 -2.390270
7.839400 0.553450 -1.741170
7.839400 0.790650 -1.656930
7.839400 1.027850 -1.741170
7.839400 1.455750 -2.390270
7.839400 1.455750 -0.570740
7.705200 -8.657950 -2.390270
7.550200 -8.687950 -2.390270
7.550200 -8.687950 -2.665270
7.705200 -8.657950 -2.665270
11.466100 23.457850 -2.665270
14.933000 15.574750 -2.665270
14.824400 15.338150 -2.665270
4.288700 10.595350 -2.665270
4.079200 10.589450 -2.665270
3.858800 10.727950 -2.665270
0.369700 18.494150 -2.665270
7.839400 2.078450 0.468080
7.839400 2.723550 0.556690
-4.085200 2.723550 0.556690
-4.085200 2.078450 0.468080
-4.085200 1.434050 0.336700
-4.085200 0.790650 0.162610
7.839400 0.790650 0.162610
7.839400 1.434050 0.336700
-4.200900 0.328050 -2.264730
-4.200900 0.438550 -2.120500
-4.200900 0.553450 -2.016180
7.955100 0.553450 -2.016180
7.955100 0.438550 -2.120500
7.955100 0.328050 -2.264730
7.955100 0.125550 -2.665270
-4.200900 0.125550 -2.665270
14.899800 15.781650 1.672510
14.899800 15.781650 1.397500
-8.302100 3.562750 -9.623750
7.839400 -3.083250 0.605530
7.839400 -3.858950 0.565710
7.839400 -4.633950 0.483090
7.839400 -5.407950 0.357690
7.839400 -6.181950 0.189550
7.839400 -6.954950 -0.021280
7.839400 -8.495950 -0.570740
-4.085200 -8.495950 -0.570740
-4.085200 -6.954950 -0.021280
-4.085200 -6.181950 0.189550
-4.085200 -5.407950 0.357690
-4.085200 -4.633950 0.483090
-4.085200 -3.858950 0.565710
-4.085200 -3.083250 0.605530
-4.085200 -2.307650 0.602530
-4.085200 -1.532350 0.556720
-4.085200 -0.757250 0.468110
-4.085200 0.017150 0.336720
-4.085200 0.790650 0.162610
7.839400 0.790650 0.162610
7.839400 0.017150 0.336720
7.839400 -0.757250 0.468110
7.839400 -1.532350 0.556720
7.839400 -2.307650 0.602530
7.871400 8.549850 -2.390270
7.871400 8.549850 -2.665270
7.836500 8.589650 -2.665270
7.796700 8.624550 -2.665270
7.796700 8.624550 -2.390270
7.836500 8.589650 -2.390270
12.375000 14.249950 -8.275490
-4.338700 9.005850 -9.623750
-4.338700 9.005850 -10.636250
-4.085200 -8.495950 -0.570740
-4.085200 0.125550 -0.570740
-4.085200 0.125550 -2.390270
-4.085200 -8.495950 -2.390270
4.184300 10.578650 -2.390270
4.184300 10.578650 -2.665270
4.237000 10.583550 -2.665270
4.288700 10.595350 -2.665270
4.338300 10.613750 -2.665270
4.338300 10.613750 -2.390270
4.288700 10.595350 -2.390270
4.237000 10.583550 -2.390270
7.839400 -8.495950 -2.390270
7.839400 -8.495950 -0.570740
-4.085200 -8.495950 -0.570740
-4.085200 -8.495950 -2.390270
7.839400 2.723550 0.556690
7.839400 2.078450 0.468080
7.839400 1.434050 0.336700
7.839400 0.790650 0.162610
-4.085200 0.790650 0.162610
-4.085200 1.434050 0.336700
-4.085200 2.078450 0.468080
-4.085200 2.723550 0.556690
-4.085200 -8.495950 -0.570740
-4.085200 0.790650 0.162610
-4.085200 0.553450 0.078360
-4.085200 0.125550 -0.570740
-16.244699 27.119650 11.031250
2.739700 -6.937950 -10.636250
2.739700 -6.937950 -9.623750
7.839400 0.790650 0.162610
-4.085200 0.790650 0.162610
-4.085200 -8.495950 -0.570740
7.839400 -8.495950 -0.570740
7.839400 0.790650 0.162610
7.839400 -5.407950 0.357690
7.839400 -8.495950 -0.570740
7.839400 0.125550 -0.570740
7.839400 0.553450 0.078360
3.883800 10.674550 1.672510
3.883800 10.674550 1.397500
7.839400 0.790650 0.162610
7.839400 1.027850 0.078360
7.839400 1.455750 -0.570740
7.839400 6.165150 0.064730
7.839400 8.515650 -0.570740
7.839400 5.950150 0.357470
14.695600 15.246750 1.397500
14.695600 15.246750 1.672510
4.338300 10.613750 1.672510
4.338300 10.613750 1.397500
7.839400 8.515650 -0.570740
7.839400 6.165150 0.064730
7.839400 1.455750 -0.570740
7.839400 1.455750 -2.390270
7.839400 8.515650 -2.390270
3.803500 10.818050 1.672510
3.803500 10.818050 1.397500
7.705200 -8.657950 -2.390270
-3.951000 -8.657950 -2.390270
-4.042500 -8.604950 -2.390270
-4.170100 -8.438950 -2.390270
-4.200900 0.125550 -2.390270
-4.085200 0.125550 -2.390270
-4.085200 -8.495950 -2.390270
7.839400 -8.495950 -2.390270
7.839400 0.125550 -2.390270
7.955100 0.125550 -2.390270
7.924300 -8.438950 -2.390270
7.836500 -8.569950 -2.390270
-11.875000 14.249950 -8.275490
0.475300 18.541451 -2.390270
3.995700 10.671450 -2.390270
14.880900 15.540650 -2.390270
11.360500 23.410549 -2.390270
-4.085200 0.125550 -0.570740
-4.085200 0.553450 0.078360
-4.085200 0.790650 0.162610
-4.085200 1.027850 0.078360
-4.085200 1.455750 -0.570740
-4.085200 1.455750 -2.390270
-4.085200 1.027850 -1.741170
-4.085200 0.790650 -1.656930
-4.085200 0.553450 -1.741170
-4.085200 0.125550 -2.390270
0.475300 18.541451 -2.390270
0.475300 18.541451 1.397500
11.360500 23.410549 1.397500
11.360500 23.410549 -2.390270
3.858800 10.727950 -2.390270
3.828200 10.771150 -2.390270
3.803500 10.818050 -2.390270
3.803500 10.818050 -2.665270
3.828200 10.771150 -2.665270
3.858800 10.727950 -2.665270
0.471000 -7.294950 -9.623750
-4.200900 -8.283950 -2.390270
-4.200900 -8.283950 -2.665270
-4.085200 0.553450 -1.741170
-4.085200 0.790650 -1.656930
-4.085200 1.027850 -1.741170
-4.085200 1.455750 -2.390270
-4.085200 1.455750 -0.570740
-4.085200 1.027850 0.078360
-4.085200 0.790650 0.162610
-4.085200 0.553450 0.078360
-4.085200 0.125550 -0.570740
-4.085200 0.125550 -2.390270
-4.085200 1.455750 -0.570740
-4.085200 1.027850 0.078360
-4.085200 0.790650 0.162610
-4.085200 5.950150 0.357470
-4.085200 8.515650 -0.570740
-4.085200 6.165150 0.064730
-4.085200 8.515650 -0.570740
7.839400 8.515650 -0.570740
7.839400 8.515650 -2.390270
-4.085200 8.515650 -2.390270
-4.085200 1.455750 -0.570740
-4.085200 3.806250 0.064730
-4.085200 8.515650 -0.570740
-4.085200 8.515650 -2.390270
-4.085200 1.455750 -2.390270
11.466100 23.457850 1.672510
11.466100 23.457850 -2.665270
0.369700 18.494150 -2.665270
0.369700 18.494150 1.672510
10 0 1 2 3 4 5 6 7 8 9
10 10 11 12 13 14 15 16 17 18 19
4 20 21 22 23
4 24 25 26 27
7 28 29 30 31 32 33 34
4 35 36 37 38
4 39 40 41 42
4 43 44 45 46
4 47 48 49 50
4 48 47 51 52
4 53 54 55 56
8 57 58 59 60 61 62 63 64
4 65 66 67 68
4 69 70 71 72
4 30 73 74 31
4 75 76 73 77
17 78 79 80 72 81 82 69 83 84 85 86 87 88 89 90 91 92
4 93 94 95 96
4 97 98 99 100
4 101 102 103 104
4 105 106 107 108
4 109 96 95 110
4 109 111 93 96
10 112 113 114 115 116 117 118 119 120 121
4 122 123 124 125
14 126 127 128 129 51 47 50 130 131 132 133 134 135 136
4 137 138 139 140
4 141 142 131 130
4 143 144 145 146
10 147 148 149 150 151 152 153 154 155 156
10 157 158 159 160 161 162 163 164 165 166
4 167 168 169 170
9 171 172 173 174 175 176 177 178 179
6 180 181 182 183 184 185
4 186 187 188 189
4 190 191 192 193
4 194 195 196 197
4 168 198 199 169
4 200 201 202 203
4 204 205 206 207
12 208 209 210 211 212 213 214 215 216 217 218 219
4 220 221 222 223
4 224 225 226 227
4 77 228 32 229
4 230 231 232 233
4 234 235 236 237
4 238 239 240 241
14 54 53 242 243 244 187 186 245 246 247 98 97 248 249
4 186 189 250 245
4 244 243 251 252
4 253 254 255 256
4 257 258 259 260
10 261 262 263 264 265 266 222 221 267 268
4 269 242 53 56
4 270 271 24 27
4 272 70 69 82
14 273 274 275 276 277 278 279 280 281 282 283 284 285 286
8 26 25 287 288 289 290 291 292
10 293 294 295 296 297 298 299 300 301 302
4 303 304 143 146
4 98 247 305 99
4 306 307 308 309
4 310 137 140 311
4 312 313 314 315
4 316 306 309 317
4 318 319 320 321
4 322 323 324 325
13 326 327 232 231 328 329 330 331 332 311 140 139 333
4 334 249 248 335
4 336 337 127 126
4 195 194 338 339
4 192 191 340 341
4 342 343 344 345
4 49 141 130 50
4 71 346 81 72
4 347 111 109 110
4 348 349 331 330
5 350 351 352 349 353
14 338 194 197 340 191 190 354 317 309 308 234 237 355 356
4 336 126 136 357
4 358 359 360 361
4 354 190 193 362
4 122 363 364 123
4 365 132 131 142
4 366 367 324 323
11 368 369 370 371 372 373 374 375 376 377 378
4 379 310 311 332
4 338 356 380 339
8 381 382 383 384 385 386 387 388
4 389 257 260 390
4 391 392 393 394
4 305 247 246 395
10 396 397 398 399 400 401 402 403 404 405
13 406 407 408 409 410 411 412 413 414 415 416 417 418
8 419 420 421 422 423 424 425 426
4 206 105 108 207
4 150 149 427 428
4 429 430 431 432
4 129 128 433 434
4 245 250 395 246
4 124 123 364 435
4 436 437 438 439
4 440 441 442 443
4 444 134 133 445
4 446 144 143 304
10 447 104 103 448 449 450 451 452 453 454
4 187 244 252 188
4 308 307 235 234
4 227 226 455 456
9 457 458 459 460 461 462 463 464 465
5 352 379 332 331 349
4 466 402 401 467
4 324 367 468 325
10 469 470 471 472 473 474 475 476 477 478
8 73 76 479 480 75 77 229 74
4 337 433 128 127
4 132 365 445 133
4 481 329 328 482
4 77 73 30 228
6 483 484 485 486 487 488
4 489 490 491 492
8 493 494 495 496 497 498 263 262
6 499 500 501 502 503 504
9 505 506 507 508 509 510 511 512 513
4 139 138 514 333
12 515 516 517 518 519 520 521 522 523 524 525 526
4 482 328 231 230
4 527 528 529 530
4 531 532 533 534
4 201 535 536 202
4 537 538 539 540
4 541 542 543 544
4 545 167 170 546
4 547 548 549 550
8 551 552 397 396 553 554 555 556
27 349 348 481 482 230 233 557 558 514 138 137 310 379 352 351 559 560 561 562 563 564 565 566 567 568 569 353
4 74 229 32 31
4 135 570 357 136
4 571 572 573 574
4 558 557 327 326
4 106 575 576 107
4 535 577 578 536
4 579 580 581 582
4 583 584 200 203
4 546 532 531 545
4 585 586 587 588
4 580 589 590 581
4 591 592 593 594
4 255 46 45 256
4 255 254 43 46
5 30 29 33 32 228
14 595 596 597 598 599 600 601 602 603 604 605 606 607 608
4 609 610 611 612
4 102 101 113 112
4 243 242 269 251
4 239 238 613 614
4 55 54 249 334
4 347 110 95 94
4 615 616 617 618
4 341 340 197 196
4 619 620 621 622
4 623 624 625 626
4 616 627 628 617
4 610 609 629 630
4 631 632 633 634
4 471 343 342 472
4 635 636 1 0
4 432 431 578 577
4 557 233 232 327
4 637 586 585 638
10 639 640 641 642 643 644 645 646 647 648
4 649 650 651 652
4 430 429 205 204
4 272 82 81 346
7 653 654 655 656 657 658 659
10 660 661 622 621 662 663 664 665 666 667
8 668 669 670 671 672 673 674 675
4 676 220 223 677
14 430 204 207 108 107 576 571 574 583 203 202 536 578 431
4 356 355 678 380
4 355 237 236 678
4 134 444 570 135
4 248 97 100 335
4 329 481 348 330
4 11 636 635 12
24 679 680 681 682 683 684 685 686 687 688 689 690 691 692 693 694 695 696 697 698 699 700 701 702
10 703 157 166 704 705 706 359 358 707 708
4 446 304 303 709
4 710 711 259 258
4 712 713 714 715
10 716 58 57 717 718 719 720 721 722 723
4 724 725 726 727
10 728 729 730 731 732 733 734 735 211 210
4 736 737 738 739
4 43 254 253 44
4 740 125 124 435
4 741 742 579 582
4 446 709 145 144
4 743 744 745 746
4 627 649 652 628
5 747 748 749 750 751
4 589 389 390 590
4 364 363 740 435
4 533 711 710 534
4 588 587 294 293
4 427 752 753 428
6 754 755 756 757 758 759
4 760 761 762 763
4 576 575 572 571
4 253 256 45 44
5 764 765 766 767 768
4 752 769 770 753
4 671 670 241 240
4 514 558 326 333
4 198 742 741 199
4 52 51 129 434
12 771 772 773 774 775 776 777 778 779 780 781 782
4 468 783 322 325
4 93 111 347 94
4 366 783 468 367
4 784 785 786 787
4 573 584 583 574
10 788 789 790 791 792 793 794 795 796 797
4 798 799 800 801
8 802 803 804 805 806 807 62 61
4 317 354 362 316
5 808 83 69 72 80
4 289 809 810 290
10 811 812 813 814 815 816 817 818 819 820
6 821 822 823 824 825 826
4 827 828 829 830
5 831 832 833 834 835
4 836 837 838 839
