ply
format ascii 1.0
comment Created by Blender 2.82 (sub 7) - www.blender.org, source file: ''
element vertex 1156
property float x
property float y
property float z
element face 280
property list uchar uint vertex_indices
end_header
15.578200 -48.000000 11.962550
15.578200 -46.500000 11.962550
15.500000 -46.500000 11.968750
15.500000 -48.000000 11.968750
18.562500 46.500000 15.031250
18.562500 46.500000 13.031250
18.562500 -46.500000 13.031250
18.562500 -46.500000 15.031250
15.793900 -48.000000 11.873250
15.793900 -46.500000 11.873250
15.727000 -46.500000 11.914250
15.727000 -48.000000 11.914250
19.000000 46.500000 14.468750
19.000000 46.500000 -15.031250
19.000000 48.000000 -15.031250
19.000000 48.000000 14.468750
-15.500000 -48.000000 11.968750
-15.500000 -46.500000 11.968750
15.500000 -46.500000 11.968750
15.500000 -48.000000 11.968750
15.500000 -48.000000 11.968750
15.500000 -46.500000 11.968750
-15.500000 -46.500000 11.968750
-15.500000 -48.000000 11.968750
15.945500 46.500000 11.695750
15.904500 46.500000 11.762650
15.904500 48.000000 11.762650
15.945500 48.000000 11.695750
16.000000 46.500000 -15.031250
16.000000 48.000000 -15.031250
19.000000 48.000000 -15.031250
19.000000 46.500000 -15.031250
15.654500 -48.000000 11.944250
15.654500 -46.500000 11.944250
15.727000 -46.500000 11.914250
15.727000 -48.000000 11.914250
-18.578217 48.000000 14.962550
-18.578217 46.500000 14.962550
-18.500000 46.500000 14.968750
-18.500000 48.000000 14.968750
15.945500 -46.500000 11.695750
15.904500 -46.500000 11.762650
15.904500 -48.000000 11.762650
15.945500 -48.000000 11.695750
-18.562500 -46.500000 12.781250
-18.562500 46.500000 12.781250
-18.062500 46.500000 12.781250
-18.062500 -46.500000 12.781250
-17.812500 -46.500000 13.031250
-17.812500 -46.500000 11.531250
-17.812500 46.500000 11.531250
-17.812500 46.500000 13.031250
18.062500 -46.500000 12.781250
18.062500 -46.500000 11.781250
18.062500 46.500000 11.781250
18.062500 46.500000 12.781250
-18.562500 -46.500000 11.531250
-18.562500 -46.500000 11.781250
-18.562500 46.500000 11.781250
-18.562500 46.500000 11.531250
15.727000 46.500000 11.914250
15.727000 48.000000 11.914250
15.793900 48.000000 11.873250
15.793900 46.500000 11.873250
-18.500000 -46.500000 14.968750
-18.500000 -48.000000 14.968750
18.500000 -48.000000 14.968750
18.500000 -46.500000 14.968750
18.578199 -46.500000 14.962550
18.578199 -48.000000 14.962550
18.654499 -48.000000 14.944250
18.654499 -46.500000 14.944250
-15.993840 -48.000000 11.546950
-16.000000 -48.000000 11.468750
-16.000000 -46.500000 11.468750
-15.993840 -46.500000 11.546950
18.562500 46.500000 15.031250
-18.562500 46.500000 15.031250
-18.562500 46.500000 13.031250
18.562500 46.500000 13.031250
-16.000000 46.500000 -15.031250
-19.000000 46.500000 -15.031250
-18.945503 46.500000 14.695750
-18.853554 46.500000 14.822350
-18.578217 46.500000 14.962550
18.726999 46.500000 14.914250
18.945499 46.500000 14.695750
19.000000 46.500000 -15.031250
16.000000 46.500000 -15.031250
15.945500 46.500000 11.695750
15.727000 46.500000 11.914250
-15.578220 46.500000 11.962550
-15.853550 46.500000 11.822350
-15.945500 46.500000 11.695750
-18.500000 48.000000 14.968750
-18.500000 46.500000 14.968750
-18.578217 46.500000 14.962550
-18.578217 48.000000 14.962550
-18.726995 46.500000 14.914250
-18.793894 48.000000 14.873250
-18.726995 48.000000 14.914250
-18.726995 46.500000 14.914250
-18.853554 48.000000 14.822350
-18.793894 48.000000 14.873250
-18.853554 48.000000 14.822350
-18.853554 46.500000 14.822350
-18.904510 48.000000 14.762650
-18.904510 48.000000 14.762650
-18.853554 46.500000 14.822350
-18.945503 48.000000 14.695750
18.062500 46.500000 11.781250
18.062500 -46.500000 11.781250
18.562500 -46.500000 11.781250
18.562500 46.500000 11.781250
-18.975529 48.000000 14.623250
-18.975529 46.500000 14.623250
-18.993843 48.000000 14.546950
-18.993843 48.000000 14.546950
-18.975529 46.500000 14.623250
-19.000000 48.000000 14.468750
-18.562500 46.500000 11.781250
-18.562500 46.500000 11.531250
-17.812500 46.500000 11.531250
-17.812500 46.500000 13.031250
-18.562500 46.500000 13.031250
-18.562500 46.500000 12.781250
-18.062500 46.500000 12.781250
-18.062500 46.500000 11.781250
-19.000000 -46.500000 -15.031250
-19.000000 -46.500000 14.468750
-19.000000 -48.000000 14.468750
-19.000000 -48.000000 -15.031250
18.654499 -46.500000 14.944250
18.654499 -48.000000 14.944250
18.578199 -48.000000 14.962550
18.578199 -46.500000 14.962550
-16.000000 46.500000 11.468750
-16.000000 46.500000 -15.031250
-16.000000 48.000000 -15.031250
-16.000000 48.000000 11.468750
-15.793890 -48.000000 11.873250
-15.793890 -46.500000 11.873250
-15.853550 -46.500000 11.822350
-15.853550 -48.000000 11.822350
15.904500 -46.500000 11.762650
15.853600 -46.500000 11.822350
15.853600 -48.000000 11.822350
15.904500 -48.000000 11.762650
-15.654510 -48.000000 11.944250
-15.654510 -46.500000 11.944250
-15.727000 -46.500000 11.914250
-15.727000 -48.000000 11.914250
-15.578220 -48.000000 11.962550
-15.578220 -46.500000 11.962550
-15.654510 -46.500000 11.944250
-15.654510 -48.000000 11.944250
-15.904510 -46.500000 11.762650
-15.945500 -46.500000 11.695750
-15.945500 -48.000000 11.695750
-15.904510 -48.000000 11.762650
16.000000 -48.000000 11.468750
15.993800 -48.000000 11.546950
15.993800 -46.500000 11.546950
16.000000 -46.500000 11.468750
15.993800 -48.000000 11.546950
15.975500 -48.000000 11.623250
15.975500 -46.500000 11.623250
15.993800 -46.500000 11.546950
-15.654510 46.500000 11.944250
-15.654510 48.000000 11.944250
-15.578220 48.000000 11.962550
-15.578220 46.500000 11.962550
-15.904510 46.500000 11.762650
-15.945500 46.500000 11.695750
-15.945500 48.000000 11.695750
-15.904510 48.000000 11.762650
16.000000 -48.000000 -15.031250
16.000000 -46.500000 -15.031250
19.000000 -46.500000 -15.031250
19.000000 -48.000000 -15.031250
15.578200 46.500000 11.962550
15.578200 48.000000 11.962550
15.500000 48.000000 11.968750
15.500000 46.500000 11.968750
16.000000 -46.500000 -15.031250
16.000000 -46.500000 11.468750
16.000000 -48.000000 11.468750
16.000000 -48.000000 -15.031250
19.000000 -48.000000 14.468750
19.000000 -48.000000 -15.031250
19.000000 -46.500000 -15.031250
19.000000 -46.500000 14.468750
15.500000 -48.000000 11.968750
15.500000 -46.500000 11.968750
15.578200 -46.500000 11.962550
15.578200 -48.000000 11.962550
15.578200 46.500000 11.962550
15.578200 48.000000 11.962550
15.654500 48.000000 11.944250
15.654500 46.500000 11.944250
18.793900 46.500000 14.873250
18.726999 46.500000 14.914250
18.726999 48.000000 14.914250
18.853600 46.500000 14.822350
18.793900 46.500000 14.873250
18.726999 48.000000 14.914250
18.853600 48.000000 14.822350
18.904499 46.500000 14.762650
18.853600 46.500000 14.822350
18.853600 48.000000 14.822350
18.945499 46.500000 14.695750
18.904499 46.500000 14.762650
18.975500 48.000000 14.623250
18.993799 46.500000 14.546950
18.975500 46.500000 14.623250
18.975500 48.000000 14.623250
19.000000 46.500000 14.468750
18.993799 46.500000 14.546950
-18.945503 48.000000 14.695750
-18.904510 46.500000 14.762650
-18.945503 46.500000 14.695750
-18.945503 48.000000 14.695750
-18.853554 46.500000 14.822350
-18.904510 46.500000 14.762650
-18.726995 46.500000 14.914250
-18.853554 46.500000 14.822350
-18.853554 48.000000 14.822350
-19.000000 48.000000 14.468750
-18.975529 46.500000 14.623250
-19.000000 46.500000 14.468750
19.000000 48.000000 14.468750
19.000000 46.500000 14.468750
18.975500 48.000000 14.623250
18.945499 48.000000 14.695750
18.945499 46.500000 14.695750
18.853600 48.000000 14.822350
18.853600 46.500000 14.822350
18.726999 48.000000 14.914250
18.853600 48.000000 14.822350
16.000000 46.500000 11.468750
15.993800 46.500000 11.546950
15.993800 48.000000 11.546950
16.000000 48.000000 11.468750
-15.578220 46.500000 11.962550
-15.578220 48.000000 11.962550
-15.654510 48.000000 11.944250
-15.654510 46.500000 11.944250
18.562500 -46.500000 15.031250
18.562500 -46.500000 13.031250
18.562500 46.500000 13.031250
18.562500 46.500000 15.031250
-15.945500 48.000000 11.695750
-16.000000 48.000000 -15.031250
-19.000000 48.000000 -15.031250
-18.945503 48.000000 14.695750
-18.853554 48.000000 14.822350
-18.578217 48.000000 14.962550
18.726999 48.000000 14.914250
18.945499 48.000000 14.695750
19.000000 48.000000 -15.031250
16.000000 48.000000 -15.031250
15.945500 48.000000 11.695750
15.727000 48.000000 11.914250
-15.578220 48.000000 11.962550
-15.853550 48.000000 11.822350
15.993800 46.500000 11.546950
15.975500 46.500000 11.623250
15.975500 48.000000 11.623250
15.993800 48.000000 11.546950
-17.812500 46.500000 13.031250
-17.812500 -46.500000 13.031250
-18.562500 -46.500000 13.031250
-18.562500 46.500000 13.031250
-18.062500 -46.500000 12.781250
-18.062500 46.500000 12.781250
-18.562500 46.500000 12.781250
-18.562500 -46.500000 12.781250
17.812500 46.500000 11.531250
17.812500 46.500000 13.031250
17.812500 -46.500000 13.031250
17.812500 -46.500000 11.531250
18.562500 -46.500000 11.531250
18.562500 46.500000 11.531250
17.812500 46.500000 11.531250
17.812500 -46.500000 11.531250
18.578199 48.000000 14.962550
18.578199 46.500000 14.962550
18.654499 46.500000 14.944250
18.654499 48.000000 14.944250
-15.945500 48.000000 11.695750
-15.975530 48.000000 11.623250
-15.975530 46.500000 11.623250
-15.945500 46.500000 11.695750
15.727000 -48.000000 11.914250
15.727000 -46.500000 11.914250
15.654500 -46.500000 11.944250
15.654500 -48.000000 11.944250
15.654500 46.500000 11.944250
15.654500 48.000000 11.944250
15.578200 48.000000 11.962550
15.578200 46.500000 11.962550
19.000000 -46.500000 14.468750
19.000000 -46.500000 -15.031250
19.000000 -48.000000 -15.031250
19.000000 -48.000000 14.468750
19.000000 -48.000000 -15.031250
19.000000 -46.500000 -15.031250
16.000000 -46.500000 -15.031250
16.000000 -48.000000 -15.031250
-16.000000 -48.000000 -15.031250
-16.000000 -46.500000 -15.031250
-19.000000 -46.500000 -15.031250
-19.000000 -48.000000 -15.031250
-15.654510 46.500000 11.944250
-15.654510 48.000000 11.944250
-15.727000 48.000000 11.914250
-15.727000 46.500000 11.914250
-15.500000 46.500000 11.968750
15.500000 46.500000 11.968750
15.500000 48.000000 11.968750
-15.500000 48.000000 11.968750
-18.654510 -46.500000 14.944250
-18.654510 -48.000000 14.944250
-18.726995 -48.000000 14.914250
-18.726995 -46.500000 14.914250
-15.945500 -46.500000 11.695750
-15.975530 -46.500000 11.623250
-15.975530 -48.000000 11.623250
-15.945500 -48.000000 11.695750
-15.853550 46.500000 11.822350
-15.578220 46.500000 11.962550
15.727000 46.500000 11.914250
15.945500 46.500000 11.695750
16.000000 46.500000 -15.031250
19.000000 46.500000 -15.031250
18.945499 46.500000 14.695750
18.726999 46.500000 14.914250
-18.578217 46.500000 14.962550
-18.853554 46.500000 14.822350
-18.945503 46.500000 14.695750
-19.000000 46.500000 -15.031250
-16.000000 46.500000 -15.031250
-15.945500 46.500000 11.695750
-15.993840 48.000000 11.546950
-16.000000 48.000000 11.468750
-16.000000 46.500000 11.468750
-15.993840 46.500000 11.546950
-18.726995 48.000000 14.914250
-18.793894 48.000000 14.873250
-18.726995 46.500000 14.914250
-18.793894 48.000000 14.873250
-18.853554 48.000000 14.822350
-18.726995 46.500000 14.914250
-18.904510 48.000000 14.762650
-18.853554 46.500000 14.822350
-18.853554 48.000000 14.822350
-18.945503 48.000000 14.695750
-18.853554 46.500000 14.822350
-18.904510 48.000000 14.762650
-18.993843 48.000000 14.546950
-18.975529 46.500000 14.623250
-18.975529 48.000000 14.623250
-19.000000 48.000000 14.468750
-18.975529 46.500000 14.623250
-18.993843 48.000000 14.546950
15.904500 48.000000 11.762650
15.853600 48.000000 11.822350
15.853600 46.500000 11.822350
15.904500 46.500000 11.762650
-19.000000 46.500000 -15.031250
-19.000000 46.500000 14.468750
-19.000000 48.000000 14.468750
-19.000000 48.000000 -15.031250
-15.945500 46.500000 11.695750
-15.975530 46.500000 11.623250
-15.975530 48.000000 11.623250
-15.945500 48.000000 11.695750
15.975500 48.000000 11.623250
15.945500 48.000000 11.695750
15.945500 46.500000 11.695750
15.975500 46.500000 11.623250
-15.727000 46.500000 11.914250
-15.727000 48.000000 11.914250
-15.793890 48.000000 11.873250
-15.793890 46.500000 11.873250
15.993800 48.000000 11.546950
15.975500 48.000000 11.623250
15.975500 46.500000 11.623250
15.993800 46.500000 11.546950
-15.793890 46.500000 11.873250
-15.793890 48.000000 11.873250
-15.853550 48.000000 11.822350
-15.853550 46.500000 11.822350
15.793900 46.500000 11.873250
15.793900 48.000000 11.873250
15.853600 48.000000 11.822350
15.853600 46.500000 11.822350
-15.578220 46.500000 11.962550
-15.578220 48.000000 11.962550
-15.500000 48.000000 11.968750
-15.500000 46.500000 11.968750
19.000000 -46.500000 -15.031250
16.000000 -46.500000 -15.031250
15.945500 -46.500000 11.695750
15.727000 -46.500000 11.914250
-15.578220 -46.500000 11.962550
-15.853550 -46.500000 11.822350
-15.945500 -46.500000 11.695750
-16.000000 -46.500000 -15.031250
-19.000000 -46.500000 -15.031250
-18.945503 -46.500000 14.695750
-18.853554 -46.500000 14.822350
-18.578217 -46.500000 14.962550
18.726999 -46.500000 14.914250
18.945499 -46.500000 14.695750
18.500000 -46.500000 14.968750
18.500000 -48.000000 14.968750
18.578199 -48.000000 14.962550
18.578199 -46.500000 14.962550
-15.975530 -48.000000 11.623250
-15.993840 -48.000000 11.546950
-15.993840 -46.500000 11.546950
-15.975530 -46.500000 11.623250
18.726999 48.000000 14.914250
18.726999 46.500000 14.914250
18.654499 46.500000 14.944250
18.654499 48.000000 14.944250
15.904500 46.500000 11.762650
15.853600 46.500000 11.822350
15.853600 48.000000 11.822350
15.904500 48.000000 11.762650
-16.000000 -46.500000 11.468750
-16.000000 -46.500000 -15.031250
-16.000000 -48.000000 -15.031250
-16.000000 -48.000000 11.468750
-18.578217 -46.500000 14.962550
-18.578217 -48.000000 14.962550
-18.500000 -48.000000 14.968750
-18.500000 -46.500000 14.968750
-15.853550 -48.000000 11.822350
-15.904510 -48.000000 11.762650
-15.904510 -46.500000 11.762650
-15.853550 -46.500000 11.822350
18.945499 46.500000 14.695750
18.975500 46.500000 14.623250
18.975500 48.000000 14.623250
18.945499 48.000000 14.695750
18.562500 46.500000 15.031250
18.562500 -46.500000 15.031250
-18.562500 -46.500000 15.031250
-18.562500 46.500000 15.031250
18.726999 48.000000 14.914250
-18.578217 48.000000 14.962550
-18.853554 48.000000 14.822350
-18.945503 48.000000 14.695750
-19.000000 48.000000 -15.031250
-16.000000 48.000000 -15.031250
-15.945500 48.000000 11.695750
-15.853550 48.000000 11.822350
-15.578220 48.000000 11.962550
15.727000 48.000000 11.914250
15.945500 48.000000 11.695750
16.000000 48.000000 -15.031250
19.000000 48.000000 -15.031250
18.945499 48.000000 14.695750
-18.726995 -46.500000 14.914250
-18.726995 -48.000000 14.914250
-18.654510 -48.000000 14.944250
-18.654510 -46.500000 14.944250
18.500000 -46.500000 14.968750
18.500000 -48.000000 14.968750
-18.500000 -48.000000 14.968750
-18.500000 -46.500000 14.968750
-15.945500 -48.000000 11.695750
-15.975530 -48.000000 11.623250
-15.975530 -46.500000 11.623250
-15.945500 -46.500000 11.695750
18.726999 48.000000 14.914250
18.726999 46.500000 14.914250
18.793900 46.500000 14.873250
18.726999 48.000000 14.914250
18.793900 46.500000 14.873250
18.853600 46.500000 14.822350
18.853600 46.500000 14.822350
18.904499 46.500000 14.762650
18.853600 48.000000 14.822350
18.904499 46.500000 14.762650
18.945499 46.500000 14.695750
18.853600 48.000000 14.822350
18.975500 46.500000 14.623250
18.993799 46.500000 14.546950
18.975500 48.000000 14.623250
18.993799 46.500000 14.546950
19.000000 46.500000 14.468750
18.975500 48.000000 14.623250
-18.945503 46.500000 14.695750
-18.904510 46.500000 14.762650
-18.945503 48.000000 14.695750
-18.904510 46.500000 14.762650
-18.853554 46.500000 14.822350
-18.945503 48.000000 14.695750
-18.853554 48.000000 14.822350
-18.853554 46.500000 14.822350
-18.726995 46.500000 14.914250
-19.000000 46.500000 14.468750
-18.975529 46.500000 14.623250
-19.000000 48.000000 14.468750
18.975500 48.000000 14.623250
19.000000 46.500000 14.468750
19.000000 48.000000 14.468750
18.853600 48.000000 14.822350
18.945499 46.500000 14.695750
18.945499 48.000000 14.695750
18.853600 48.000000 14.822350
18.726999 48.000000 14.914250
18.853600 46.500000 14.822350
-18.562500 46.500000 13.031250
-18.562500 46.500000 15.031250
-18.562500 -46.500000 15.031250
-18.562500 -46.500000 13.031250
18.500000 48.000000 14.968750
18.500000 46.500000 14.968750
-18.500000 46.500000 14.968750
-18.500000 48.000000 14.968750
18.562500 46.500000 13.031250
-18.562500 46.500000 13.031250
-18.562500 46.500000 15.031250
18.562500 46.500000 15.031250
18.654499 48.000000 14.944250
18.654499 46.500000 14.944250
18.578199 46.500000 14.962550
18.578199 48.000000 14.962550
-17.812500 -46.500000 13.031250
-17.812500 -46.500000 11.531250
-18.562500 -46.500000 11.531250
-18.562500 -46.500000 11.781250
-18.062500 -46.500000 11.781250
-18.062500 -46.500000 12.781250
-18.562500 -46.500000 12.781250
-18.562500 -46.500000 13.031250
-17.812500 -46.500000 11.531250
-17.812500 46.500000 11.531250
-18.562500 46.500000 11.531250
-18.562500 -46.500000 11.531250
-19.000000 48.000000 -15.031250
-19.000000 48.000000 14.468750
-19.000000 46.500000 14.468750
-19.000000 46.500000 -15.031250
-18.562500 -46.500000 11.531250
-18.562500 46.500000 11.531250
-17.812500 46.500000 11.531250
-17.812500 -46.500000 11.531250
-15.853550 48.000000 11.822350
-15.904510 48.000000 11.762650
-15.904510 46.500000 11.762650
-15.853550 46.500000 11.822350
19.000000 -48.000000 -15.031250
16.000000 -48.000000 -15.031250
15.945500 -48.000000 11.695750
15.727000 -48.000000 11.914250
-15.578220 -48.000000 11.962550
-15.853550 -48.000000 11.822350
-15.945500 -48.000000 11.695750
-16.000000 -48.000000 -15.031250
-19.000000 -48.000000 -15.031250
-18.945503 -48.000000 14.695750
-18.853554 -48.000000 14.822350
-18.578217 -48.000000 14.962550
18.726999 -48.000000 14.914250
18.945499 -48.000000 14.695750
-15.975530 48.000000 11.623250
-15.993840 48.000000 11.546950
-15.993840 46.500000 11.546950
-15.975530 46.500000 11.623250
18.500000 48.000000 14.968750
18.500000 46.500000 14.968750
18.578199 46.500000 14.962550
18.578199 48.000000 14.962550
-18.654510 48.000000 14.944250
-18.654510 46.500000 14.944250
-18.726995 46.500000 14.914250
-18.726995 48.000000 14.914250
-18.975529 48.000000 14.623250
-18.945503 48.000000 14.695750
-18.945503 46.500000 14.695750
-18.975529 46.500000 14.623250
18.562500 46.500000 11.531250
17.812500 46.500000 11.531250
17.812500 46.500000 13.031250
18.562500 46.500000 13.031250
18.562500 46.500000 12.781250
18.062500 46.500000 12.781250
18.062500 46.500000 11.781250
18.562500 46.500000 11.781250
18.562500 -46.500000 11.781250
18.562500 -46.500000 11.531250
18.562500 46.500000 11.531250
18.562500 46.500000 11.781250
17.812500 -46.500000 11.531250
18.562500 -46.500000 11.531250
18.562500 -46.500000 11.781250
18.062500 -46.500000 11.781250
18.062500 -46.500000 12.781250
18.562500 -46.500000 12.781250
18.562500 -46.500000 13.031250
17.812500 -46.500000 13.031250
-15.727000 46.500000 11.914250
-15.727000 48.000000 11.914250
-15.654510 48.000000 11.944250
-15.654510 46.500000 11.944250
17.812500 -46.500000 11.531250
17.812500 46.500000 11.531250
18.562500 46.500000 11.531250
18.562500 -46.500000 11.531250
-15.945500 -46.500000 11.695750
-15.853550 -46.500000 11.822350
-15.578220 -46.500000 11.962550
15.727000 -46.500000 11.914250
15.945500 -46.500000 11.695750
16.000000 -46.500000 -15.031250
19.000000 -46.500000 -15.031250
18.945499 -46.500000 14.695750
18.726999 -46.500000 14.914250
-18.578217 -46.500000 14.962550
-18.853554 -46.500000 14.822350
-18.945503 -46.500000 14.695750
-19.000000 -46.500000 -15.031250
-16.000000 -46.500000 -15.031250
-18.500000 -46.500000 14.968750
-18.500000 -48.000000 14.968750
-18.578217 -48.000000 14.962550
-18.578217 -46.500000 14.962550
15.578200 -48.000000 11.962550
15.578200 -46.500000 11.962550
15.654500 -46.500000 11.944250
15.654500 -48.000000 11.944250
-18.578217 -46.500000 14.962550
-18.578217 -48.000000 14.962550
-18.654510 -48.000000 14.944250
-18.654510 -46.500000 14.944250
18.578199 48.000000 14.962550
18.578199 46.500000 14.962550
18.500000 46.500000 14.968750
18.500000 48.000000 14.968750
18.726999 -46.500000 14.914250
18.726999 -48.000000 14.914250
18.654499 -48.000000 14.944250
18.654499 -46.500000 14.944250
18.793900 -48.000000 14.873250
18.726999 -48.000000 14.914250
18.726999 -46.500000 14.914250
18.853600 -48.000000 14.822350
18.793900 -48.000000 14.873250
18.726999 -46.500000 14.914250
18.853600 -46.500000 14.822350
18.904499 -48.000000 14.762650
18.853600 -48.000000 14.822350
18.853600 -46.500000 14.822350
18.945499 -48.000000 14.695750
18.904499 -48.000000 14.762650
18.578199 -46.500000 14.962550
18.578199 -48.000000 14.962550
18.500000 -48.000000 14.968750
18.500000 -46.500000 14.968750
18.975500 -46.500000 14.623250
18.993799 -48.000000 14.546950
18.975500 -48.000000 14.623250
18.975500 -46.500000 14.623250
19.000000 -48.000000 14.468750
18.993799 -48.000000 14.546950
-15.793890 46.500000 11.873250
-15.793890 48.000000 11.873250
-15.727000 48.000000 11.914250
-15.727000 46.500000 11.914250
-15.993840 -46.500000 11.546950
-16.000000 -46.500000 11.468750
-16.000000 -48.000000 11.468750
-15.993840 -48.000000 11.546950
15.853600 -48.000000 11.822350
15.853600 -46.500000 11.822350
15.793900 -46.500000 11.873250
15.793900 -48.000000 11.873250
15.853600 46.500000 11.822350
15.853600 48.000000 11.822350
15.793900 48.000000 11.873250
15.793900 46.500000 11.873250
15.654500 -48.000000 11.944250
15.654500 -46.500000 11.944250
15.578200 -46.500000 11.962550
15.578200 -48.000000 11.962550
18.945499 -48.000000 14.695750
18.975500 -48.000000 14.623250
18.975500 -46.500000 14.623250
18.945499 -46.500000 14.695750
-15.654510 -48.000000 11.944250
-15.654510 -46.500000 11.944250
-15.578220 -46.500000 11.962550
-15.578220 -48.000000 11.962550
-15.727000 -48.000000 11.914250
-15.727000 -46.500000 11.914250
-15.793890 -46.500000 11.873250
-15.793890 -48.000000 11.873250
-15.853550 -46.500000 11.822350
-15.904510 -46.500000 11.762650
-15.904510 -48.000000 11.762650
-15.853550 -48.000000 11.822350
-15.904510 48.000000 11.762650
-15.945500 48.000000 11.695750
-15.945500 46.500000 11.695750
-15.904510 46.500000 11.762650
18.945499 -46.500000 14.695750
18.975500 -46.500000 14.623250
18.975500 -48.000000 14.623250
18.945499 -48.000000 14.695750
-15.975530 -46.500000 11.623250
-15.993840 -46.500000 11.546950
-15.993840 -48.000000 11.546950
-15.975530 -48.000000 11.623250
-15.500000 -48.000000 11.968750
-15.500000 -46.500000 11.968750
-15.578220 -46.500000 11.962550
-15.578220 -48.000000 11.962550
-15.793890 -48.000000 11.873250
-15.793890 -46.500000 11.873250
-15.727000 -46.500000 11.914250
-15.727000 -48.000000 11.914250
-18.726995 48.000000 14.914250
-18.726995 46.500000 14.914250
-18.654510 46.500000 14.944250
-18.654510 48.000000 14.944250
-18.654510 48.000000 14.944250
-18.654510 46.500000 14.944250
-18.578217 46.500000 14.962550
-18.578217 48.000000 14.962550
-18.945503 -46.500000 14.695750
-18.904510 -48.000000 14.762650
-18.945503 -48.000000 14.695750
-18.945503 -46.500000 14.695750
-18.853554 -48.000000 14.822350
-18.904510 -48.000000 14.762650
-18.975529 -46.500000 14.623250
-18.945503 -46.500000 14.695750
-18.945503 -48.000000 14.695750
-18.975529 -48.000000 14.623250
-18.726995 -48.000000 14.914250
-18.793894 -46.500000 14.873250
-18.726995 -46.500000 14.914250
-18.726995 -48.000000 14.914250
-18.853554 -46.500000 14.822350
-18.793894 -46.500000 14.873250
-18.853554 -46.500000 14.822350
-18.853554 -48.000000 14.822350
-18.904510 -46.500000 14.762650
-18.904510 -46.500000 14.762650
-18.853554 -48.000000 14.822350
-18.945503 -46.500000 14.695750
-18.975529 -46.500000 14.623250
-18.975529 -48.000000 14.623250
-18.993843 -46.500000 14.546950
-18.993843 -46.500000 14.546950
-18.975529 -48.000000 14.623250
-19.000000 -46.500000 14.468750
18.853600 -46.500000 14.822350
18.853600 -48.000000 14.822350
18.726999 -46.500000 14.914250
18.945499 -46.500000 14.695750
18.945499 -48.000000 14.695750
18.853600 -46.500000 14.822350
19.000000 -46.500000 14.468750
19.000000 -48.000000 14.468750
18.975500 -46.500000 14.623250
-19.000000 -46.500000 14.468750
-18.975529 -48.000000 14.623250
-19.000000 -48.000000 14.468750
-18.726995 -48.000000 14.914250
-18.853554 -48.000000 14.822350
-18.853554 -46.500000 14.822350
-15.993840 46.500000 11.546950
-16.000000 46.500000 11.468750
-16.000000 48.000000 11.468750
-15.993840 48.000000 11.546950
15.727000 46.500000 11.914250
15.727000 48.000000 11.914250
15.654500 48.000000 11.944250
15.654500 46.500000 11.944250
18.945499 -48.000000 14.695750
18.726999 -48.000000 14.914250
-18.578217 -48.000000 14.962550
-18.853554 -48.000000 14.822350
-18.945503 -48.000000 14.695750
-19.000000 -48.000000 -15.031250
-16.000000 -48.000000 -15.031250
-15.945500 -48.000000 11.695750
-15.853550 -48.000000 11.822350
-15.578220 -48.000000 11.962550
15.727000 -48.000000 11.914250
15.945500 -48.000000 11.695750
16.000000 -48.000000 -15.031250
19.000000 -48.000000 -15.031250
-18.975529 46.500000 14.623250
-18.945503 46.500000 14.695750
-18.945503 48.000000 14.695750
-18.975529 48.000000 14.623250
15.793900 46.500000 11.873250
15.793900 48.000000 11.873250
15.727000 48.000000 11.914250
15.727000 46.500000 11.914250
-15.975530 46.500000 11.623250
-15.993840 46.500000 11.546950
-15.993840 48.000000 11.546950
-15.975530 48.000000 11.623250
-19.000000 46.500000 -15.031250
-19.000000 48.000000 -15.031250
-16.000000 48.000000 -15.031250
-16.000000 46.500000 -15.031250
18.945499 48.000000 14.695750
18.975500 48.000000 14.623250
18.975500 46.500000 14.623250
18.945499 46.500000 14.695750
-15.853550 46.500000 11.822350
-15.904510 46.500000 11.762650
-15.904510 48.000000 11.762650
-15.853550 48.000000 11.822350
15.975500 -48.000000 11.623250
15.945500 -48.000000 11.695750
15.945500 -46.500000 11.695750
15.975500 -46.500000 11.623250
15.945500 48.000000 11.695750
15.904500 48.000000 11.762650
15.904500 46.500000 11.762650
15.945500 46.500000 11.695750
16.000000 48.000000 -15.031250
16.000000 48.000000 11.468750
16.000000 46.500000 11.468750
16.000000 46.500000 -15.031250
-15.500000 48.000000 11.968750
15.500000 48.000000 11.968750
15.500000 46.500000 11.968750
-15.500000 46.500000 11.968750
19.000000 48.000000 14.468750
19.000000 48.000000 -15.031250
19.000000 46.500000 -15.031250
19.000000 46.500000 14.468750
-18.654510 -46.500000 14.944250
-18.654510 -48.000000 14.944250
-18.578217 -48.000000 14.962550
-18.578217 -46.500000 14.962550
16.000000 48.000000 11.468750
15.993800 48.000000 11.546950
15.993800 46.500000 11.546950
16.000000 46.500000 11.468750
18.654499 -46.500000 14.944250
18.654499 -48.000000 14.944250
18.726999 -48.000000 14.914250
18.726999 -46.500000 14.914250
15.654500 46.500000 11.944250
15.654500 48.000000 11.944250
15.727000 48.000000 11.914250
15.727000 46.500000 11.914250
18.726999 -46.500000 14.914250
18.726999 -48.000000 14.914250
18.793900 -48.000000 14.873250
18.726999 -46.500000 14.914250
18.793900 -48.000000 14.873250
18.853600 -48.000000 14.822350
18.853600 -48.000000 14.822350
18.904499 -48.000000 14.762650
18.853600 -46.500000 14.822350
18.904499 -48.000000 14.762650
18.945499 -48.000000 14.695750
18.853600 -46.500000 14.822350
15.500000 46.500000 11.968750
15.500000 48.000000 11.968750
15.578200 48.000000 11.962550
15.578200 46.500000 11.962550
18.975500 -48.000000 14.623250
18.993799 -48.000000 14.546950
18.975500 -46.500000 14.623250
18.993799 -48.000000 14.546950
19.000000 -48.000000 14.468750
18.975500 -46.500000 14.623250
15.945500 -48.000000 11.695750
15.904500 -48.000000 11.762650
15.904500 -46.500000 11.762650
15.945500 -46.500000 11.695750
19.000000 46.500000 -15.031250
19.000000 48.000000 -15.031250
16.000000 48.000000 -15.031250
16.000000 46.500000 -15.031250
-15.904510 -48.000000 11.762650
-15.945500 -48.000000 11.695750
-15.945500 -46.500000 11.695750
-15.904510 -46.500000 11.762650
-18.562500 -46.500000 13.031250
-18.562500 46.500000 13.031250
18.562500 46.500000 13.031250
18.562500 -46.500000 13.031250
-18.562500 46.500000 15.031250
-18.562500 -46.500000 15.031250
18.562500 -46.500000 15.031250
18.562500 46.500000 15.031250
-15.727000 -48.000000 11.914250
-15.727000 -46.500000 11.914250
-15.654510 -46.500000 11.944250
-15.654510 -48.000000 11.944250
16.000000 -46.500000 11.468750
15.993800 -46.500000 11.546950
15.993800 -48.000000 11.546950
16.000000 -48.000000 11.468750
15.727000 -48.000000 11.914250
15.727000 -46.500000 11.914250
15.793900 -46.500000 11.873250
15.793900 -48.000000 11.873250
-16.000000 48.000000 11.468750
-16.000000 48.000000 -15.031250
-16.000000 46.500000 -15.031250
-16.000000 46.500000 11.468750
-15.578220 -48.000000 11.962550
-15.578220 -46.500000 11.962550
-15.500000 -46.500000 11.968750
-15.500000 -48.000000 11.968750
15.975500 46.500000 11.623250
15.945500 46.500000 11.695750
15.945500 48.000000 11.695750
15.975500 48.000000 11.623250
16.000000 -48.000000 -15.031250
16.000000 -48.000000 11.468750
16.000000 -46.500000 11.468750
16.000000 -46.500000 -15.031250
-15.853550 46.500000 11.822350
-15.853550 48.000000 11.822350
-15.793890 48.000000 11.873250
-15.793890 46.500000 11.873250
18.654499 48.000000 14.944250
18.654499 46.500000 14.944250
18.726999 46.500000 14.914250
18.726999 48.000000 14.914250
-16.000000 -48.000000 11.468750
-16.000000 -48.000000 -15.031250
-16.000000 -46.500000 -15.031250
-16.000000 -46.500000 11.468750
15.993800 -46.500000 11.546950
15.975500 -46.500000 11.623250
15.975500 -48.000000 11.623250
15.993800 -48.000000 11.546950
16.000000 46.500000 -15.031250
16.000000 46.500000 11.468750
16.000000 48.000000 11.468750
16.000000 48.000000 -15.031250
-18.975529 -48.000000 14.623250
-18.945503 -48.000000 14.695750
-18.945503 -46.500000 14.695750
-18.975529 -46.500000 14.623250
-19.000000 -48.000000 -15.031250
-19.000000 -46.500000 -15.031250
-16.000000 -46.500000 -15.031250
-16.000000 -48.000000 -15.031250
-18.062500 46.500000 11.781250
-18.062500 46.500000 12.781250
-18.062500 -46.500000 12.781250
-18.062500 -46.500000 11.781250
-18.945503 -48.000000 14.695750
-18.904510 -48.000000 14.762650
-18.945503 -46.500000 14.695750
-18.904510 -48.000000 14.762650
-18.853554 -48.000000 14.822350
-18.945503 -46.500000 14.695750
-19.000000 -48.000000 -15.031250
-19.000000 -48.000000 14.468750
-19.000000 -46.500000 14.468750
-19.000000 -46.500000 -15.031250
-18.726995 -46.500000 14.914250
-18.793894 -46.500000 14.873250
-18.726995 -48.000000 14.914250
-18.793894 -46.500000 14.873250
-18.853554 -46.500000 14.822350
-18.726995 -48.000000 14.914250
-18.904510 -46.500000 14.762650
-18.853554 -48.000000 14.822350
-18.853554 -46.500000 14.822350
-18.945503 -46.500000 14.695750
-18.853554 -48.000000 14.822350
-18.904510 -46.500000 14.762650
-18.993843 -46.500000 14.546950
-18.975529 -48.000000 14.623250
-18.975529 -46.500000 14.623250
-19.000000 -46.500000 14.468750
-18.975529 -48.000000 14.623250
-18.993843 -46.500000 14.546950
18.726999 -46.500000 14.914250
18.853600 -48.000000 14.822350
18.853600 -46.500000 14.822350
18.853600 -46.500000 14.822350
18.945499 -48.000000 14.695750
18.945499 -46.500000 14.695750
18.975500 -46.500000 14.623250
19.000000 -48.000000 14.468750
19.000000 -46.500000 14.468750
-19.000000 -48.000000 14.468750
-18.975529 -48.000000 14.623250
-19.000000 -46.500000 14.468750
-18.853554 -46.500000 14.822350
-18.853554 -48.000000 14.822350
-18.726995 -48.000000 14.914250
-18.578217 48.000000 14.962550
-18.578217 46.500000 14.962550
-18.654510 46.500000 14.944250
-18.654510 48.000000 14.944250
-15.500000 46.500000 11.968750
-15.500000 48.000000 11.968750
-15.578220 48.000000 11.962550
-15.578220 46.500000 11.962550
15.793900 -48.000000 11.873250
15.793900 -46.500000 11.873250
15.853600 -46.500000 11.822350
15.853600 -48.000000 11.822350
18.562500 -46.500000 13.031250
18.562500 46.500000 13.031250
-18.562500 46.500000 13.031250
-18.562500 -46.500000 13.031250
-18.562500 -46.500000 13.031250
-18.562500 -46.500000 15.031250
-18.562500 46.500000 15.031250
-18.562500 46.500000 13.031250
15.904500 -48.000000 11.762650
15.853600 -48.000000 11.822350
15.853600 -46.500000 11.822350
15.904500 -46.500000 11.762650
-18.500000 48.000000 14.968750
-18.500000 46.500000 14.968750
18.500000 46.500000 14.968750
18.500000 48.000000 14.968750
-18.062500 46.500000 11.781250
-18.062500 -46.500000 11.781250
-18.562500 -46.500000 11.781250
-18.562500 46.500000 11.781250
-16.000000 46.500000 -15.031250
-16.000000 48.000000 -15.031250
-19.000000 48.000000 -15.031250
-19.000000 46.500000 -15.031250
-18.562500 46.500000 11.531250
-18.562500 46.500000 11.781250
-18.562500 -46.500000 11.781250
-18.562500 -46.500000 11.531250
-18.562500 -46.500000 13.031250
18.562500 -46.500000 13.031250
18.562500 -46.500000 15.031250
-18.562500 -46.500000 15.031250
-18.562500 -46.500000 15.031250
18.562500 -46.500000 15.031250
18.562500 -46.500000 13.031250
-18.562500 -46.500000 13.031250
-17.812500 46.500000 13.031250
-17.812500 46.500000 11.531250
-17.812500 -46.500000 11.531250
-17.812500 -46.500000 13.031250
-18.562500 46.500000 11.781250
-18.562500 -46.500000 11.781250
-18.062500 -46.500000 11.781250
-18.062500 46.500000 11.781250
18.562500 46.500000 11.781250
18.562500 46.500000 11.531250
18.562500 -46.500000 11.531250
18.562500 -46.500000 11.781250
-17.812500 -46.500000 11.531250
-17.812500 -46.500000 13.031250
-18.562500 -46.500000 13.031250
-18.562500 -46.500000 12.781250
-18.062500 -46.500000 12.781250
-18.062500 -46.500000 11.781250
-18.562500 -46.500000 11.781250
-18.562500 -46.500000 11.531250
-18.562500 46.500000 12.781250
-18.562500 46.500000 13.031250
-18.562500 -46.500000 13.031250
-18.562500 -46.500000 12.781250
-18.062500 -46.500000 11.781250
-18.062500 -46.500000 12.781250
-18.062500 46.500000 12.781250
-18.062500 46.500000 11.781250
-17.812500 46.500000 11.531250
-18.562500 46.500000 11.531250
-18.562500 46.500000 11.781250
-18.062500 46.500000 11.781250
-18.062500 46.500000 12.781250
-18.562500 46.500000 12.781250
-18.562500 46.500000 13.031250
-17.812500 46.500000 13.031250
18.562500 46.500000 11.781250
18.562500 -46.500000 11.781250
18.062500 -46.500000 11.781250
18.062500 46.500000 11.781250
-18.562500 46.500000 13.031250
-18.562500 -46.500000 13.031250
-17.812500 -46.500000 13.031250
-17.812500 46.500000 13.031250
18.062500 46.500000 12.781250
18.562500 46.500000 12.781250
18.562500 46.500000 13.031250
17.812500 46.500000 13.031250
17.812500 46.500000 11.531250
18.562500 46.500000 11.531250
18.562500 46.500000 11.781250
18.062500 46.500000 11.781250
17.812500 46.500000 13.031250
17.812500 -46.500000 13.031250
18.562500 -46.500000 13.031250
18.562500 46.500000 13.031250
18.562500 -46.500000 11.781250
18.562500 -46.500000 11.531250
17.812500 -46.500000 11.531250
17.812500 -46.500000 13.031250
18.562500 -46.500000 13.031250
18.562500 -46.500000 12.781250
18.062500 -46.500000 12.781250
18.062500 -46.500000 11.781250
-18.562500 -46.500000 12.781250
-18.562500 -46.500000 13.031250
-18.562500 46.500000 13.031250
-18.562500 46.500000 12.781250
18.062500 46.500000 12.781250
18.062500 46.500000 11.781250
18.062500 -46.500000 11.781250
18.062500 -46.500000 12.781250
18.562500 46.500000 13.031250
18.562500 46.500000 12.781250
18.562500 -46.500000 12.781250
18.562500 -46.500000 13.031250
15.975500 -46.500000 11.623250
15.945500 -46.500000 11.695750
15.945500 -48.000000 11.695750
15.975500 -48.000000 11.623250
18.562500 46.500000 13.031250
18.562500 -46.500000 13.031250
17.812500 -46.500000 13.031250
17.812500 46.500000 13.031250
18.562500 -46.500000 13.031250
18.562500 -46.500000 12.781250
18.562500 46.500000 12.781250
18.562500 46.500000 13.031250
18.562500 -46.500000 12.781250
18.562500 46.500000 12.781250
18.062500 46.500000 12.781250
18.062500 -46.500000 12.781250
17.812500 -46.500000 11.531250
17.812500 -46.500000 13.031250
17.812500 46.500000 13.031250
17.812500 46.500000 11.531250
18.062500 -46.500000 12.781250
18.062500 46.500000 12.781250
18.562500 46.500000 12.781250
18.562500 -46.500000 12.781250
-15.853550 -48.000000 11.822350
-15.853550 -46.500000 11.822350
-15.793890 -46.500000 11.873250
-15.793890 -48.000000 11.873250
4 0 1 2 3
4 4 5 6 7
4 8 9 10 11
4 12 13 14 15
4 16 17 18 19
4 20 21 22 23
4 24 25 26 27
4 28 29 30 31
4 32 33 34 35
4 36 37 38 39
4 40 41 42 43
4 44 45 46 47
4 48 49 50 51
4 52 53 54 55
4 56 57 58 59
4 60 61 62 63
4 64 65 66 67
4 68 69 70 71
4 72 73 74 75
4 76 77 78 79
14 80 81 82 83 84 85 86 87 88 89 90 91 92 93
4 94 95 96 97
3 98 99 100
3 101 102 103
3 104 105 106
3 107 108 109
4 110 111 112 113
3 114 115 116
3 117 118 119
8 120 121 122 123 124 125 126 127
4 128 129 130 131
4 132 133 134 135
4 136 137 138 139
4 140 141 142 143
4 144 145 146 147
4 148 149 150 151
4 152 153 154 155
4 156 157 158 159
4 160 161 162 163
4 164 165 166 167
4 168 169 170 171
4 172 173 174 175
4 176 177 178 179
4 180 181 182 183
4 184 185 186 187
4 188 189 190 191
4 192 193 194 195
4 196 197 198 199
3 200 201 202
3 203 204 205
3 206 207 208
3 209 210 211
3 212 213 214
3 215 216 217
3 218 219 220
3 221 222 223
3 224 225 226
3 227 228 229
3 230 231 232
3 233 234 235
3 236 237 238
4 239 240 241 242
4 243 244 245 246
4 247 248 249 250
14 251 252 253 254 255 256 257 258 259 260 261 262 263 264
4 265 266 267 268
4 269 270 271 272
4 273 274 275 276
4 277 278 279 280
4 281 282 283 284
4 285 286 287 288
4 289 290 291 292
4 293 294 295 296
4 297 298 299 300
4 301 302 303 304
4 305 306 307 308
4 309 310 311 312
4 313 314 315 316
4 317 318 319 320
4 321 322 323 324
4 325 326 327 328
14 329 330 331 332 333 334 335 336 337 338 339 340 341 342
4 343 344 345 346
3 347 348 349
3 350 351 352
3 353 354 355
3 356 357 358
3 359 360 361
3 362 363 364
4 365 366 367 368
4 369 370 371 372
4 373 374 375 376
4 377 378 379 380
4 381 382 383 384
4 385 386 387 388
4 389 390 391 392
4 393 394 395 396
4 397 398 399 400
14 401 402 403 404 405 406 407 408 409 410 411 412 413 414
4 415 416 417 418
4 419 420 421 422
4 423 424 425 426
4 427 428 429 430
4 431 432 433 434
4 435 436 437 438
4 439 440 441 442
4 443 444 445 446
4 447 448 449 450
14 451 452 453 454 455 456 457 458 459 460 461 462 463 464
4 465 466 467 468
4 469 470 471 472
4 473 474 475 476
3 477 478 479
3 480 481 482
3 483 484 485
3 486 487 488
3 489 490 491
3 492 493 494
3 495 496 497
3 498 499 500
3 501 502 503
3 504 505 506
3 507 508 509
3 510 511 512
3 513 514 515
4 516 517 518 519
4 520 521 522 523
4 524 525 526 527
4 528 529 530 531
8 532 533 534 535 536 537 538 539
4 540 541 542 543
4 544 545 546 547
4 548 549 550 551
4 552 553 554 555
14 556 557 558 559 560 561 562 563 564 565 566 567 568 569
4 570 571 572 573
4 574 575 576 577
4 578 579 580 581
4 582 583 584 585
8 586 587 588 589 590 591 592 593
4 594 595 596 597
8 598 599 600 601 602 603 604 605
4 606 607 608 609
4 610 611 612 613
14 614 615 616 617 618 619 620 621 622 623 624 625 626 627
4 628 629 630 631
4 632 633 634 635
4 636 637 638 639
4 640 641 642 643
4 644 645 646 647
3 648 649 650
3 651 652 653
3 654 655 656
3 657 658 659
4 660 661 662 663
3 664 665 666
3 667 668 669
4 670 671 672 673
4 674 675 676 677
4 678 679 680 681
4 682 683 684 685
4 686 687 688 689
4 690 691 692 693
4 694 695 696 697
4 698 699 700 701
4 702 703 704 705
4 706 707 708 709
4 710 711 712 713
4 714 715 716 717
4 718 719 720 721
4 722 723 724 725
4 726 727 728 729
4 730 731 732 733
3 734 735 736
3 737 738 739
4 740 741 742 743
3 744 745 746
3 747 748 749
3 750 751 752
3 753 754 755
3 756 757 758
3 759 760 761
3 762 763 764
3 765 766 767
3 768 769 770
3 771 772 773
3 774 775 776
4 777 778 779 780
4 781 782 783 784
14 785 786 787 788 789 790 791 792 793 794 795 796 797 798
4 799 800 801 802
4 803 804 805 806
4 807 808 809 810
4 811 812 813 814
4 815 816 817 818
4 819 820 821 822
4 823 824 825 826
4 827 828 829 830
4 831 832 833 834
4 835 836 837 838
4 839 840 841 842
4 843 844 845 846
4 847 848 849 850
4 851 852 853 854
4 855 856 857 858
3 859 860 861
3 862 863 864
3 865 866 867
3 868 869 870
4 871 872 873 874
3 875 876 877
3 878 879 880
4 881 882 883 884
4 885 886 887 888
4 889 890 891 892
4 893 894 895 896
4 897 898 899 900
4 901 902 903 904
4 905 906 907 908
4 909 910 911 912
4 913 914 915 916
4 917 918 919 920
4 921 922 923 924
4 925 926 927 928
4 929 930 931 932
4 933 934 935 936
4 937 938 939 940
4 941 942 943 944
4 945 946 947 948
4 949 950 951 952
4 953 954 955 956
4 957 958 959 960
3 961 962 963
3 964 965 966
4 967 968 969 970
3 971 972 973
3 974 975 976
3 977 978 979
3 980 981 982
3 983 984 985
3 986 987 988
3 989 990 991
3 992 993 994
3 995 996 997
3 998 999 1000
3 1001 1002 1003
4 1004 1005 1006 1007
4 1008 1009 1010 1011
4 1012 1013 1014 1015
4 1016 1017 1018 1019
4 1020 1021 1022 1023
4 1024 1025 1026 1027
4 1028 1029 1030 1031
4 1032 1033 1034 1035
4 1036 1037 1038 1039
4 1040 1041 1042 1043
4 1044 1045 1046 1047
4 1048 1049 1050 1051
4 1052 1053 1054 1055
4 1056 1057 1058 1059
4 1060 1061 1062 1063
8 1064 1065 1066 1067 1068 1069 1070 1071
4 1072 1073 1074 1075
4 1076 1077 1078 1079
8 1080 1081 1082 1083 1084 1085 1086 1087
4 1088 1089 1090 1091
4 1092 1093 1094 1095
8 1096 1097 1098 1099 1100 1101 1102 1103
4 1104 1105 1106 1107
8 1108 1109 1110 1111 1112 1113 1114 1115
4 1116 1117 1118 1119
4 1120 1121 1122 1123
4 1124 1125 1126 1127
4 1128 1129 1130 1131
4 1132 1133 1134 1135
4 1136 1137 1138 1139
4 1140 1141 1142 1143
4 1144 1145 1146 1147
4 1148 1149 1150 1151
4 1152 1153 1154 1155
