ply
format ascii 1.0
comment Created by Blender 2.82 (sub 7) - www.blender.org, source file: ''
element vertex 1229
property float x
property float y
property float z
element face 352
property list uchar uint vertex_indices
end_header
-116.189148 -164.400757 40.538898
-111.678146 -165.799057 40.538898
-114.836151 -170.808746 -54.961102
-116.419151 -170.318146 -54.961102
-127.870148 -186.572845 49.468899
-127.870148 -184.841446 46.798901
-105.870148 -184.841446 46.798901
-105.870148 -186.572845 49.468899
-114.040154 162.426254 -56.711102
-114.040154 162.426254 -62.961102
-113.427147 164.403244 -62.961102
-113.427147 164.403244 -56.711102
-145.625153 -209.375244 72.275902
145.624847 -209.375244 72.275902
145.624847 209.374252 72.275902
-145.625153 209.374252 72.275902
155.124847 218.875244 72.275902
155.124847 -218.875244 72.275902
-155.124847 -218.875244 72.275902
118.152847 159.291245 -64.171501
118.152847 169.826248 -64.171501
117.495850 169.168243 -63.751999
117.495850 159.949249 -63.751999
112.864853 -169.977448 -56.711102
112.864853 -169.977448 -62.961102
111.344849 -171.383545 -62.961102
111.344849 -171.383545 -56.711102
111.358849 167.495255 -56.711102
113.190849 168.460251 -56.711102
113.190849 168.460251 -62.961102
111.358849 167.495255 -62.961102
113.445847 167.337250 -54.961102
113.445847 167.337250 -56.711102
112.140846 166.650253 -56.711102
112.140846 166.650253 -54.961102
119.666847 156.278244 -69.461098
119.666847 156.369247 -69.461098
108.234848 156.369247 -69.461098
108.234848 156.278244 -69.461098
-118.309151 168.460251 -56.711102
-117.269150 168.556244 -56.711102
-117.269150 168.556244 -62.961102
-118.309151 168.460251 -62.961102
113.209846 -175.926651 -54.961102
113.209846 -175.926651 -56.711102
114.618851 -176.363358 -56.711102
114.618851 -176.363358 -54.961102
-123.781151 155.763245 -72.312500
-123.781151 173.855255 -72.312500
-126.674149 176.748245 -77.288902
-126.674149 152.869247 -77.288902
-155.124847 218.875244 77.288902
-155.124847 218.875244 72.275902
-155.124847 -218.875244 72.275902
-155.124847 -218.875244 77.288902
103.401848 186.350250 57.538898
103.401848 -162.542953 57.538898
103.401848 -195.307953 57.538898
103.401848 153.585251 57.538898
138.124847 -201.875244 57.538898
125.401848 -162.542953 57.538898
125.401848 153.585251 57.538898
138.124847 201.875244 57.538898
116.796852 163.715256 -54.961102
116.796852 163.715256 -56.711102
116.853851 165.189255 -56.711102
116.853851 165.189255 -54.961102
-118.609154 160.738251 -56.711102
-118.609154 160.738251 -62.961102
-116.540154 160.658249 -62.961102
-116.540154 160.658249 -56.711102
-119.390152 -173.405945 -54.961102
-119.390152 -173.405945 -56.711102
-119.064148 -174.844147 -56.711102
-119.064148 -174.844147 -54.961102
118.148849 -168.907043 -63.751999
115.955849 -171.100052 -62.961102
115.955849 -175.932953 -62.961102
118.148849 -178.125946 -63.751999
107.718849 173.855255 -72.312500
107.718849 155.763245 -72.312500
108.234848 156.278244 -69.461098
108.234848 173.339249 -69.461098
-119.359154 166.650253 -54.961102
-119.359154 166.650253 -56.711102
-120.146149 165.402252 -56.711102
-120.146149 165.402252 -54.961102
103.401848 -162.542953 57.538898
125.401848 -162.542953 57.538898
125.401848 -162.542953 40.538898
103.401848 -162.542953 40.538898
-113.885147 166.423248 -62.961102
-113.885147 166.423248 -56.711102
-110.702148 -182.296951 -69.461098
-110.702148 -181.706055 -69.461098
-122.134148 -181.706055 -69.461098
-122.134148 -182.296951 -69.461098
-116.581146 167.280243 -54.961102
-116.581146 167.280243 -56.711102
-118.054153 167.337250 -56.711102
-118.054153 167.337250 -54.961102
-120.844147 159.949249 -63.751999
-118.651154 162.142242 -62.961102
-118.651154 166.975250 -62.961102
-120.844147 169.168243 -63.751999
105.178848 162.541245 40.538898
105.361847 167.260254 40.538898
111.017853 165.506256 -54.961102
110.953850 163.851257 -54.961102
-117.070152 173.674255 40.538898
-114.723152 173.272247 40.538898
-116.477150 167.616257 -54.961102
-117.300148 167.757248 -54.961102
114.918854 167.280243 -54.961102
116.166847 166.493256 -54.961102
116.166847 166.493256 -56.711102
114.918854 167.280243 -56.711102
108.533852 -166.820343 40.538898
112.711853 -164.619751 40.538898
114.020851 -170.394943 -54.961102
112.555847 -171.167053 -54.961102
116.247849 -171.106354 -56.711102
117.249847 -172.188843 -56.711102
116.861847 -170.132645 -56.711102
115.913849 -169.695953 -56.711102
-108.424149 176.748245 -77.288902
-108.424149 152.869247 -77.288902
-126.674149 152.869247 -77.288902
-126.674149 176.748245 -77.288902
119.310852 158.134247 -65.214996
115.302849 162.142242 -62.961102
112.848846 162.142242 -62.961102
108.840851 158.134247 -65.214996
-115.291153 167.942245 -56.711102
-115.291153 167.942245 -62.961102
112.743851 -176.691757 -63.143101
112.743851 -170.341354 -63.143101
112.009850 -169.607346 -63.407799
112.009850 -177.425751 -63.407799
-127.870148 -162.542953 57.538898
-127.870148 -195.307953 57.538898
-138.125153 -201.875244 57.538898
-138.125153 201.875244 57.538898
-106.098152 186.350250 57.538898
-128.098145 186.350250 57.538898
-128.098145 153.585251 57.538898
-106.098152 153.585251 57.538898
-105.870148 -162.542953 57.538898
120.548851 156.896255 -67.190102
121.075851 156.369247 -69.461098
121.075851 172.748245 -69.461098
120.548851 172.222244 -67.190102
120.569847 -165.327057 -69.461098
120.569847 -165.236053 -69.461098
109.137848 -165.236053 -69.461098
109.137848 -165.327057 -69.461098
107.718849 173.855255 -72.312500
120.181847 173.855255 -72.312500
123.075851 176.748245 -77.288902
104.825851 176.748245 -77.288902
-110.702148 -165.236053 -69.461098
-109.376152 -163.910156 -74.331299
-123.460152 -163.910156 -74.331299
-122.134148 -165.236053 -69.461098
-113.347153 169.826248 -64.171501
-121.502151 169.826248 -64.171501
-118.651154 166.975250 -62.961102
-116.197151 166.975250 -62.961102
112.637848 -175.451355 -54.961102
112.637848 -175.451355 -56.711102
-116.432152 -170.669647 -54.961102
-116.432152 -170.669647 -56.711102
-117.871147 -170.995743 -56.711102
-117.871147 -170.995743 -54.961102
112.595848 -176.900345 -56.711102
112.595848 -176.900345 -62.961102
114.573853 -177.513443 -62.961102
114.573853 -177.513443 -56.711102
112.848846 166.975250 -62.961102
115.302849 166.975250 -62.961102
118.152847 169.826248 -64.171501
109.997849 169.826248 -64.171501
-127.870148 -184.841446 46.798901
-127.870148 -186.572845 49.468899
-127.870148 -190.570953 52.022900
-127.870148 -195.307953 52.288898
-127.870148 -195.307953 57.538898
-127.870148 -162.542953 57.538898
-127.870148 -162.542953 40.538898
-127.870148 -184.446945 40.538898
-127.870148 -184.104446 43.702900
-112.465149 -178.783844 -64.171501
-115.316147 -175.932953 -62.961102
-117.770149 -175.932953 -62.961102
-120.621147 -178.783844 -64.171501
-118.407150 -169.977448 -56.711102
-118.407150 -169.977448 -62.961102
-119.927147 -171.383545 -62.961102
-119.927147 -171.383545 -56.711102
105.831848 -175.533844 40.538898
111.607849 -174.224350 -54.961102
112.379852 -175.690247 -54.961102
108.032852 -179.711945 40.538898
117.132851 163.611252 -54.961102
117.273849 164.434250 -54.961102
123.190849 164.205246 40.538898
122.788849 161.857254 40.538898
116.009850 162.467255 -54.961102
116.009850 162.467255 -56.711102
116.485847 163.039246 -56.711102
116.009850 162.467255 -56.711102
115.939850 161.020248 -56.711102
116.791847 161.623245 -56.711102
117.895851 163.374252 -56.711102
118.072853 164.403244 -56.711102
117.614853 166.423248 -56.711102
117.011848 167.275253 -56.711102
116.921852 164.448257 -56.711102
116.902847 -175.865952 -54.961102
116.220848 -176.348557 -54.961102
116.056847 -176.037247 -54.961102
116.663849 -175.607758 -54.961102
117.450851 -174.360153 -54.961102
117.507851 -172.886444 -54.961102
116.820847 -171.581650 -54.961102
115.572853 -170.795258 -54.961102
114.098846 -170.738052 -54.961102
112.793854 -171.425247 -54.961102
112.318848 -171.997345 -54.961102
111.881851 -173.405945 -54.961102
111.950851 -174.146545 -54.961102
112.379852 -175.690247 -54.961102
111.896851 -175.008148 -54.961102
111.530853 -173.392242 -54.961102
111.671852 -172.568756 -54.961102
112.555847 -171.167053 -54.961102
114.020851 -170.394943 -54.961102
115.676849 -170.459244 -54.961102
117.078850 -171.342743 -54.961102
117.850853 -172.808746 -54.961102
117.786850 -174.464355 -54.961102
111.139847 161.842255 -56.711102
111.139847 161.842255 -62.961102
112.890846 160.738251 -62.961102
112.890846 160.738251 -56.711102
-106.098152 181.613251 52.022900
-106.098152 186.350250 52.288898
-106.098152 186.350250 57.538898
-106.098152 153.585251 57.538898
-106.098152 153.585251 40.538898
-106.098152 175.489243 40.538898
-106.098152 175.383255 45.281898
-106.098152 177.615250 49.468899
-128.098145 181.613251 52.022900
-128.098145 177.615250 49.468899
-128.098145 175.383255 45.281898
-128.098145 175.489243 40.538898
-128.098145 153.585251 40.538898
-128.098145 153.585251 57.538898
-128.098145 186.350250 57.538898
-128.098145 186.350250 52.288898
117.430847 -164.802948 40.538898
119.593849 -165.799057 40.538898
116.435852 -170.808746 -54.961102
115.676849 -170.459244 -54.961102
-114.526154 -182.413345 40.538898
-119.244148 -182.230057 40.538898
-117.491150 -176.573746 -54.961102
-115.835152 -176.638046 -54.961102
-121.245148 165.743256 -56.711102
-121.245148 165.743256 -62.961102
-121.325150 163.674255 -62.961102
-121.325150 163.674255 -56.711102
-106.098152 186.350250 57.538898
-106.098152 153.585251 57.538898
-128.098145 153.585251 57.538898
-128.098145 186.350250 57.538898
118.072853 164.403244 -62.961102
118.072853 164.403244 -56.711102
117.895851 163.374252 -56.711102
117.895851 163.374252 -62.961102
120.209846 171.883255 -66.487198
107.940849 171.883255 -66.487198
-121.228149 -167.641647 -64.661201
-111.858147 -167.641647 -64.661201
-110.408150 -166.192444 -66.487198
-122.678146 -166.192444 -66.487198
107.342850 156.636246 -67.926003
107.075851 156.369247 -69.461098
121.075851 156.369247 -69.461098
120.807854 156.636246 -67.926003
116.746849 -182.413345 40.538898
112.027847 -182.230057 40.538898
113.780853 -176.573746 -54.961102
115.436852 -176.638046 -54.961102
110.650848 -178.783844 -64.171501
108.594849 -180.840546 -66.487198
120.863853 -180.840546 -66.487198
118.806847 -178.783844 -64.171501
-138.125153 201.875244 66.525902
-138.125153 201.875244 57.538898
-138.125153 -201.875244 57.538898
-138.125153 -201.875244 66.525902
-111.318153 173.855255 -72.312500
-108.424149 176.748245 -77.288902
-126.674149 176.748245 -77.288902
-123.781151 173.855255 -72.312500
155.124847 -218.875244 77.288902
-155.124847 -218.875244 77.288902
-155.124847 -218.875244 72.275902
155.124847 -218.875244 72.275902
-105.870148 -184.104446 43.702900
-127.870148 -184.104446 43.702900
-127.870148 -184.446945 40.538898
-105.870148 -184.446945 40.538898
112.793854 -171.425247 -54.961102
112.793854 -171.425247 -56.711102
112.318848 -171.997345 -56.711102
112.318848 -171.997345 -54.961102
-121.325150 163.674255 -56.711102
-120.360153 161.842255 -56.711102
-118.609154 160.738251 -56.711102
-116.540154 160.658249 -56.711102
-115.560150 161.020248 -56.711102
-114.040154 162.426254 -56.711102
-113.427147 164.403244 -56.711102
-113.885147 166.423248 -56.711102
-114.488152 167.275253 -56.711102
-116.240150 168.379257 -56.711102
-115.905151 166.969254 -56.711102
-115.333153 166.493256 -56.711102
-114.646149 165.189255 -56.711102
-114.703148 163.715256 -56.711102
-115.490150 162.467255 -56.711102
-116.794151 161.780243 -56.711102
-118.268150 161.837250 -56.711102
-119.516151 162.624252 -56.711102
-120.203148 163.929245 -56.711102
-120.146149 165.402252 -56.711102
-119.359154 166.650253 -56.711102
-118.054153 167.337250 -56.711102
-117.269150 168.556244 -56.711102
-118.309151 168.460251 -56.711102
-120.141151 167.495255 -56.711102
-121.245148 165.743256 -56.711102
-115.658150 -177.417450 -56.711102
-116.698151 -177.513550 -56.711102
-116.698151 -177.513550 -62.961102
-115.658150 -177.417450 -62.961102
114.098846 -170.738052 -54.961102
115.572853 -170.795258 -54.961102
115.572853 -170.795258 -56.711102
114.098846 -170.738052 -56.711102
-113.822151 -174.360153 -56.711102
-114.608147 -175.607758 -56.711102
-115.215149 -176.037247 -56.711102
-116.653152 -176.363358 -56.711102
-118.062149 -175.926651 -56.711102
-119.064148 -174.844147 -56.711102
-119.390152 -173.405945 -56.711102
-118.953148 -171.997345 -56.711102
-117.871147 -170.995743 -56.711102
-118.407150 -169.977448 -56.711102
-119.927147 -171.383545 -56.711102
-120.364151 -172.332047 -56.711102
-120.444153 -174.401047 -56.711102
-119.479149 -176.233047 -56.711102
-118.676147 -176.900345 -56.711102
-116.698151 -177.513550 -56.711102
-115.658150 -177.417450 -56.711102
-113.826149 -176.452545 -56.711102
-113.159149 -175.649445 -56.711102
107.811852 -163.910156 -74.331299
121.895851 -163.910156 -74.331299
123.978851 -161.827057 -77.288902
105.728851 -161.827057 -77.288902
120.863853 -166.192444 -66.487198
120.863853 -180.840546 -66.487198
121.728851 -181.706055 -69.461098
121.728851 -165.327057 -69.461098
145.624847 -209.375244 72.275902
-145.625153 -209.375244 72.275902
-145.625153 -209.375244 66.525902
145.624847 -209.375244 66.525902
-111.833153 173.339249 -69.461098
-123.265152 173.339249 -69.461098
138.124847 201.875244 57.538898
138.124847 201.875244 66.525902
138.124847 -201.875244 66.525902
138.124847 -201.875244 57.538898
-105.870148 -190.570953 52.022900
-127.870148 -190.570953 52.022900
-105.870148 -195.307953 57.538898
-105.870148 -162.542953 57.538898
-127.870148 -162.542953 57.538898
-127.870148 -195.307953 57.538898
-120.546150 163.851257 -54.961102
-120.482147 165.506256 -54.961102
-119.598152 166.908249 -54.961102
-118.916153 167.391251 -54.961102
-117.300148 167.757248 -54.961102
-116.477150 167.616257 -54.961102
-115.075150 166.732254 -54.961102
-114.592148 166.050247 -54.961102
-114.226151 164.434250 -54.961102
-114.717148 162.852249 -54.961102
-114.703148 163.715256 -54.961102
-114.646149 165.189255 -54.961102
-115.333153 166.493256 -54.961102
-116.581146 167.280243 -54.961102
-118.054153 167.337250 -54.961102
-119.359154 166.650253 -54.961102
-120.146149 165.402252 -54.961102
-120.203148 163.929245 -54.961102
-119.516151 162.624252 -54.961102
-118.268150 161.837250 -54.961102
-117.549149 161.360245 -54.961102
-118.372147 161.501251 -54.961102
-119.774147 162.385254 -54.961102
116.424850 166.732254 -54.961102
120.771851 170.754257 40.538898
122.146851 168.810257 40.538898
116.907852 166.050247 -54.961102
109.137848 -165.236053 -69.461098
108.391853 -164.489548 -73.000801
108.391853 -183.043457 -73.000801
109.137848 -182.296951 -69.461098
111.296852 163.929245 -56.711102
111.983849 162.624252 -56.711102
111.983849 162.624252 -54.961102
111.296852 163.929245 -54.961102
122.800850 -169.265244 40.538898
117.560852 -172.024948 -54.961102
106.015846 -170.815155 40.538898
111.671852 -172.568756 -54.961102
117.786850 -174.464355 -54.961102
123.442848 -176.217850 40.538898
120.924850 -180.212646 40.538898
116.902847 -175.865952 -54.961102
-115.560150 161.020248 -56.711102
-115.560150 161.020248 -62.961102
-116.653152 -176.363358 -54.961102
-118.062149 -175.926651 -54.961102
-118.062149 -175.926651 -56.711102
-116.653152 -176.363358 -56.711102
-124.260147 -168.652054 40.538898
-120.794151 -165.444946 40.538898
-118.035149 -170.684555 -54.961102
-119.251152 -171.809753 -54.961102
-110.951149 156.896255 -67.190102
-110.424149 156.369247 -69.461098
-110.424149 172.748245 -69.461098
-110.951149 172.222244 -67.190102
-111.704147 171.468246 -65.826202
-111.704147 157.649246 -65.826202
-114.703148 163.715256 -54.961102
-114.646149 165.189255 -54.961102
-115.333153 166.493256 -54.961102
-116.581146 167.280243 -54.961102
-118.054153 167.337250 -54.961102
-119.359154 166.650253 -54.961102
-120.146149 165.402252 -54.961102
-120.203148 163.929245 -54.961102
-119.516151 162.624252 -54.961102
-118.268150 161.837250 -54.961102
-116.794151 161.780243 -54.961102
-115.490150 162.467255 -54.961102
118.549850 -174.700943 -62.961102
118.549850 -174.700943 -56.711102
117.445847 -176.452545 -56.711102
117.445847 -176.452545 -62.961102
-128.098145 153.585251 57.538898
-106.098152 153.585251 57.538898
-106.098152 186.350250 57.538898
-128.098145 186.350250 57.538898
114.884850 -169.519547 -56.711102
114.884850 -169.519547 -62.961102
111.792847 -176.233047 -56.711102
111.792847 -176.233047 -62.961102
110.731850 -173.361252 -62.961102
110.731850 -173.361252 -56.711102
115.913849 -169.695953 -56.711102
115.913849 -169.695953 -62.961102
117.664848 -170.799957 -56.711102
117.664848 -170.799957 -62.961102
110.827850 -174.401047 -62.961102
110.827850 -174.401047 -56.711102
-108.471153 -169.265244 40.538898
-113.711151 -172.024948 -54.961102
-145.625153 209.374252 72.275902
145.624847 209.374252 72.275902
145.624847 209.374252 66.525902
-145.625153 209.374252 66.525902
116.208847 167.942245 -56.711102
114.230850 168.556244 -56.711102
113.190849 168.460251 -56.711102
111.358849 167.495255 -56.711102
110.254852 165.743256 -56.711102
110.174850 163.674255 -56.711102
111.139847 161.842255 -56.711102
112.890846 160.738251 -56.711102
114.959846 160.658249 -56.711102
114.705849 161.780243 -56.711102
113.231850 161.837250 -56.711102
111.983849 162.624252 -56.711102
111.296852 163.929245 -56.711102
111.353851 165.402252 -56.711102
112.140846 166.650253 -56.711102
113.445847 167.337250 -56.711102
114.918854 167.280243 -56.711102
116.166847 166.493256 -56.711102
116.853851 165.189255 -56.711102
-114.592148 166.050247 -54.961102
-109.353149 168.810257 40.538898
-108.309151 164.205246 40.538898
-114.226151 164.434250 -54.961102
-128.098145 186.350250 57.538898
-106.098152 186.350250 57.538898
-106.098152 186.350250 52.288898
-128.098145 186.350250 52.288898
114.959846 160.658249 -56.711102
114.959846 160.658249 -62.961102
116.791847 161.623245 -62.961102
116.791847 161.623245 -56.711102
-126.540154 164.913254 40.538898
-125.496147 160.307251 40.538898
-122.289146 156.841248 40.538898
-128.098145 153.585251 40.538898
-128.098145 175.489243 40.538898
-106.098152 175.489243 40.538898
-106.098152 153.585251 40.538898
-108.309151 164.205246 40.538898
-108.528152 166.576248 40.538898
-110.728149 170.754257 40.538898
-114.723152 173.272247 40.538898
-117.070152 173.674255 40.538898
-121.676147 172.630249 40.538898
-123.620148 171.255249 40.538898
-126.138153 167.260254 40.538898
-122.134148 -165.236053 -69.461098
-122.649147 -164.720551 -72.312500
-122.649147 -182.812454 -72.312500
-122.134148 -182.296951 -69.461098
107.940849 157.235245 -66.487198
107.940849 171.883255 -66.487198
107.075851 172.748245 -69.461098
107.075851 156.369247 -69.461098
120.863853 -166.192444 -66.487198
121.728851 -165.327057 -69.461098
107.728851 -165.327057 -69.461098
108.594849 -166.192444 -66.487198
-115.215149 -176.037247 -54.961102
-115.215149 -176.037247 -56.711102
-114.133148 -175.035751 -56.711102
-114.133148 -175.035751 -54.961102
120.569847 -182.296951 -69.461098
120.569847 -181.706055 -69.461098
109.137848 -181.706055 -69.461098
109.137848 -182.296951 -69.461098
-123.543152 -165.327057 -69.461098
-109.543152 -165.327057 -69.461098
125.401848 181.613251 52.022900
103.401848 181.613251 52.022900
103.401848 186.350250 52.288898
125.401848 186.350250 52.288898
-122.134148 -182.296951 -69.461098
-122.649147 -182.812454 -72.312500
-110.186150 -182.812454 -72.312500
-110.702148 -182.296951 -69.461098
125.401848 177.615250 49.468899
103.401848 177.615250 49.468899
-110.408150 -166.192444 -66.487198
-112.465149 -168.249146 -64.171501
-112.465149 -178.783844 -64.171501
-110.408150 -180.840652 -66.487198
125.401848 175.884247 46.798901
125.401848 175.383255 45.281898
103.401848 175.383255 45.281898
103.401848 175.884247 46.798901
103.401848 176.635254 48.207901
125.401848 176.635254 48.207901
105.728851 -161.827057 -77.288902
105.728851 -185.706055 -77.288902
-125.543152 -185.706055 -77.288902
-107.293152 -185.706055 -77.288902
-110.702148 -165.236053 -69.461098
-110.702148 -182.296951 -69.461098
-109.376152 -183.622849 -74.331299
-109.376152 -163.910156 -74.331299
123.978851 -161.827057 -77.288902
123.978851 -185.706055 -77.288902
105.728851 -185.706055 -77.288902
105.728851 -161.827057 -77.288902
125.401848 -195.307953 57.538898
103.401848 -195.307953 57.538898
103.401848 -195.307953 52.288898
125.401848 -195.307953 52.288898
-111.833153 156.278244 -69.461098
-111.833153 156.369247 -69.461098
-123.265152 156.369247 -69.461098
-123.265152 156.278244 -69.461098
-115.407150 155.662247 40.538898
-120.126152 155.845245 40.538898
-118.372147 161.501251 -54.961102
-116.717148 161.437256 -54.961102
-106.098152 186.350250 52.288898
-106.098152 181.613251 52.022900
-128.098145 181.613251 52.022900
-128.098145 186.350250 52.288898
-122.659149 158.134247 -65.214996
-124.157150 156.636246 -67.926003
-124.424149 156.369247 -69.461098
-110.424149 156.369247 -69.461098
-110.692146 156.636246 -67.926003
-112.189148 158.134247 -65.214996
119.666847 172.748245 -69.461098
119.666847 173.339249 -69.461098
108.234848 173.339249 -69.461098
108.234848 172.748245 -69.461098
-145.625153 209.374252 72.275902
-145.625153 209.374252 66.525902
-145.625153 -209.375244 66.525902
-145.625153 -209.375244 72.275902
120.412849 155.532257 -73.000801
119.666847 156.278244 -69.461098
108.234848 156.278244 -69.461098
107.487846 155.532257 -73.000801
-116.197151 162.142242 -62.961102
-118.651154 162.142242 -62.961102
116.663849 -175.607758 -54.961102
116.056847 -176.037247 -54.961102
116.056847 -176.037247 -56.711102
116.663849 -175.607758 -56.711102
-122.678146 -180.840652 -66.487198
-110.408150 -180.840652 -66.487198
-123.543152 -181.706055 -69.461098
-109.543152 -181.706055 -69.461098
123.075851 152.869247 -77.288902
104.825851 152.869247 -77.288902
118.629852 -172.631943 -62.961102
118.629852 -172.631943 -56.711102
110.174850 163.674255 -56.711102
110.174850 163.674255 -62.961102
-113.486153 -174.464355 -54.961102
-107.829147 -176.217850 40.538898
-110.347153 -180.212753 40.538898
-114.369148 -175.865952 -54.961102
117.614853 166.423248 -56.711102
117.614853 166.423248 -62.961102
116.208847 167.942245 -62.961102
116.208847 167.942245 -56.711102
-123.559151 171.883255 -66.487198
-123.559151 157.235245 -66.487198
114.705849 161.780243 -54.961102
114.705849 161.780243 -56.711102
-123.620148 171.255249 40.538898
-121.676147 172.630249 40.538898
-118.916153 167.391251 -54.961102
-119.598152 166.908249 -54.961102
-111.833153 156.278244 -69.461098
-123.265152 156.278244 -69.461098
-124.012154 155.532257 -73.000801
-111.087151 155.532257 -73.000801
-120.360153 161.842255 -62.961102
-120.360153 161.842255 -56.711102
119.414848 -167.641647 -64.661201
110.043854 -167.641647 -64.661201
-119.263153 -177.425751 -63.407799
-119.263153 -169.607346 -63.407799
-119.963150 -168.907043 -63.751999
-119.963150 -178.125946 -63.751999
116.794853 168.468246 -63.407799
116.794853 160.649246 -63.407799
116.060852 167.734253 -63.143101
116.060852 161.383255 -63.143101
107.879852 171.255249 40.538898
111.901848 166.908249 -54.961102
125.401848 -195.307953 57.538898
-105.870148 -195.307953 57.538898
125.401848 186.350250 57.538898
115.302849 166.975250 -62.961102
115.302849 162.142242 -62.961102
111.950851 -174.146545 -54.961102
111.950851 -174.146545 -56.711102
103.401848 153.585251 40.538898
103.401848 175.489243 40.538898
125.401848 175.489243 40.538898
125.401848 153.585251 40.538898
123.190849 164.205246 40.538898
122.971848 166.576248 40.538898
120.771851 170.754257 40.538898
116.776848 173.272247 40.538898
114.429848 173.674255 40.538898
109.823853 172.630249 40.538898
107.879852 171.255249 40.538898
105.361847 167.260254 40.538898
104.959846 164.913254 40.538898
106.003853 160.307251 40.538898
111.373848 155.845245 40.538898
113.721848 155.443253 40.538898
118.326851 156.487244 40.538898
120.270851 157.862244 40.538898
122.788849 161.857254 40.538898
107.378853 158.363251 40.538898
109.137848 -182.296951 -69.461098
108.622849 -182.812454 -72.312500
121.085854 -182.812454 -72.312500
120.569847 -182.296951 -69.461098
103.401848 181.613251 52.022900
103.401848 177.615250 49.468899
103.401848 175.383255 45.281898
103.401848 175.489243 40.538898
103.401848 153.585251 40.538898
103.401848 153.585251 57.538898
103.401848 186.350250 57.538898
103.401848 186.350250 52.288898
110.650848 -168.249146 -64.171501
108.255852 -165.853546 -67.190102
108.255852 -181.179550 -67.190102
110.650848 -178.783844 -64.171501
114.230850 168.556244 -62.961102
114.230850 168.556244 -56.711102
-105.870148 -195.307953 57.538898
-127.870148 -195.307953 57.538898
-127.870148 -195.307953 52.288898
-105.870148 -195.307953 52.288898
-107.427147 -173.870544 40.538898
-105.870148 -162.542953 40.538898
-105.870148 -184.446945 40.538898
-108.825150 -178.381042 40.538898
111.296852 163.929245 -54.961102
111.983849 162.624252 -54.961102
113.231850 161.837250 -54.961102
114.705849 161.780243 -54.961102
116.009850 162.467255 -54.961102
116.796852 163.715256 -54.961102
116.853851 165.189255 -54.961102
116.166847 166.493256 -54.961102
114.918854 167.280243 -54.961102
113.445847 167.337250 -54.961102
112.140846 166.650253 -54.961102
111.353851 165.402252 -54.961102
-121.407150 -181.233948 40.538898
-118.250153 -176.224243 -54.961102
138.124847 201.875244 66.525902
-138.125153 201.875244 66.525902
-145.625153 209.374252 66.525902
145.624847 209.374252 66.525902
138.124847 -201.875244 66.525902
-138.125153 -201.875244 66.525902
145.624847 -209.375244 66.525902
-145.625153 -209.375244 66.525902
-120.203148 163.929245 -56.711102
-120.203148 163.929245 -54.961102
116.776848 173.272247 40.538898
115.022850 167.616257 -54.961102
-113.696152 -173.627045 -56.711102
-113.696152 -173.627045 -54.961102
111.373848 155.845245 40.538898
107.378853 158.363251 40.538898
111.725853 162.385254 -54.961102
113.127853 161.501251 -54.961102
-115.215149 -176.037247 -54.961102
-115.051147 -176.348557 -54.961102
-115.835152 -176.638046 -54.961102
-117.491150 -176.573746 -54.961102
-118.250153 -176.224243 -54.961102
-119.375153 -175.008148 -54.961102
-119.741150 -173.392242 -54.961102
-119.251152 -171.809753 -54.961102
-118.035149 -170.684555 -54.961102
-117.251152 -170.394943 -54.961102
-115.595154 -170.459244 -54.961102
-114.193153 -171.342743 -54.961102
-113.421150 -172.808655 -54.961102
-113.486153 -174.464355 -54.961102
-114.369148 -175.865952 -54.961102
-114.133148 -175.035751 -54.961102
-113.696152 -173.627045 -54.961102
-114.022148 -172.188843 -54.961102
-115.024147 -171.106354 -54.961102
-116.432152 -170.669647 -54.961102
-117.871147 -170.995743 -54.961102
-118.953148 -171.997345 -54.961102
-119.390152 -173.405945 -54.961102
-119.064148 -174.844147 -54.961102
-118.062149 -175.926651 -54.961102
-116.653152 -176.363358 -54.961102
-118.953148 -171.997345 -54.961102
-118.953148 -171.997345 -56.711102
116.092850 155.662247 40.538898
114.782852 161.437256 -54.961102
-114.705147 160.649246 -63.407799
-114.705147 168.468246 -63.407799
-115.439148 167.734253 -63.143101
-115.439148 161.383255 -63.143101
-126.321152 162.541245 40.538898
-126.138153 167.260254 40.538898
-120.482147 165.506256 -54.961102
-120.546150 163.851257 -54.961102
-124.121147 158.363251 40.538898
-119.774147 162.385254 -54.961102
-117.871147 -170.995743 -54.961102
-118.953148 -171.997345 -54.961102
-119.390152 -173.405945 -54.961102
-119.064148 -174.844147 -54.961102
-118.062149 -175.926651 -54.961102
-116.653152 -176.363358 -54.961102
-115.215149 -176.037247 -54.961102
-114.133148 -175.035751 -54.961102
-113.696152 -173.627045 -54.961102
-114.022148 -172.188843 -54.961102
-115.024147 -171.106354 -54.961102
-116.432152 -170.669647 -54.961102
-119.516151 162.624252 -56.711102
-119.516151 162.624252 -54.961102
116.424850 166.732254 -54.961102
116.907852 166.050247 -54.961102
117.273849 164.434250 -54.961102
116.782852 162.852249 -54.961102
116.796852 163.715256 -54.961102
116.853851 165.189255 -54.961102
116.166847 166.493256 -54.961102
114.918854 167.280243 -54.961102
113.445847 167.337250 -54.961102
112.140846 166.650253 -54.961102
111.353851 165.402252 -54.961102
111.296852 163.929245 -54.961102
111.983849 162.624252 -54.961102
113.231850 161.837250 -54.961102
113.127853 161.501251 -54.961102
111.725853 162.385254 -54.961102
110.953850 163.851257 -54.961102
111.017853 165.506256 -54.961102
111.901848 166.908249 -54.961102
112.583847 167.391251 -54.961102
114.199852 167.757248 -54.961102
115.022850 167.616257 -54.961102
109.823853 172.630249 40.538898
112.583847 167.391251 -54.961102
123.625847 -171.499146 40.538898
117.850853 -172.808746 -54.961102
120.270851 157.862244 40.538898
116.248848 162.209244 -54.961102
-114.367149 163.611252 -54.961102
-108.711151 161.857254 40.538898
-111.229149 157.862244 40.538898
-115.251152 162.209244 -54.961102
-119.741150 -173.392242 -54.961102
-119.375153 -175.008148 -54.961102
-124.614151 -177.767746 40.538898
-125.659149 -173.162445 40.538898
103.401848 -162.542953 57.538898
125.401848 -162.542953 57.538898
125.401848 -195.307953 57.538898
103.401848 -195.307953 57.538898
-114.022148 -172.188843 -54.961102
-114.022148 -172.188843 -56.711102
-115.024147 -171.106354 -56.711102
-115.024147 -171.106354 -54.961102
138.124847 -201.875244 66.525902
-138.125153 -201.875244 66.525902
-138.125153 -201.875244 57.538898
138.124847 -201.875244 57.538898
117.507851 -172.886444 -56.711102
117.450851 -174.360153 -56.711102
116.663849 -175.607758 -56.711102
116.056847 -176.037247 -56.711102
114.618851 -176.363358 -56.711102
113.209846 -175.926651 -56.711102
112.637848 -175.451355 -56.711102
111.950851 -174.146545 -56.711102
111.881851 -173.405945 -56.711102
112.318848 -171.997345 -56.711102
112.793854 -171.425247 -56.711102
114.098846 -170.738052 -56.711102
115.572853 -170.795258 -56.711102
114.884850 -169.519547 -56.711102
112.864853 -169.977448 -56.711102
111.344849 -171.383545 -56.711102
110.731850 -173.361252 -56.711102
110.827850 -174.401047 -56.711102
111.792847 -176.233047 -56.711102
112.595848 -176.900345 -56.711102
114.573853 -177.513443 -56.711102
115.613853 -177.417450 -56.711102
117.445847 -176.452545 -56.711102
118.549850 -174.700943 -56.711102
118.629852 -172.631943 -56.711102
117.664848 -170.799957 -56.711102
110.254852 165.743256 -62.961102
110.254852 165.743256 -56.711102
-116.197151 166.975250 -62.961102
-116.197151 162.142242 -62.961102
113.231850 161.837250 -56.711102
113.231850 161.837250 -54.961102
116.820847 -171.581650 -54.961102
116.820847 -171.581650 -56.711102
115.613853 -177.417450 -56.711102
115.613853 -177.417450 -62.961102
-112.722153 -174.700943 -62.961102
-112.722153 -174.700943 -56.711102
-113.826149 -176.452545 -56.711102
-113.826149 -176.452545 -62.961102
-106.098152 153.585251 57.538898
-128.098145 153.585251 57.538898
-128.098145 153.585251 40.538898
-106.098152 153.585251 40.538898
-119.479149 -176.233047 -62.961102
-119.479149 -176.233047 -56.711102
-120.444153 -174.401047 -56.711102
-120.444153 -174.401047 -62.961102
-112.642151 -172.631943 -62.961102
-112.642151 -172.631943 -56.711102
-105.870148 -162.542953 57.538898
-105.870148 -195.307953 57.538898
-127.870148 -195.307953 57.538898
-127.870148 -162.542953 57.538898
115.436852 -176.638046 -54.961102
113.780853 -176.573746 -54.961102
112.637848 -175.451355 -54.961102
113.209846 -175.926651 -54.961102
114.618851 -176.363358 -54.961102
111.353851 165.402252 -56.711102
111.353851 165.402252 -54.961102
-110.728149 170.754257 40.538898
-115.075150 166.732254 -54.961102
-120.141151 167.495255 -62.961102
-120.141151 167.495255 -56.711102
-115.358147 -169.695953 -56.711102
-113.607147 -170.799957 -56.711102
-113.607147 -170.799957 -62.961102
-115.358147 -169.695953 -62.961102
111.308853 -178.125946 -63.751999
111.308853 -168.907043 -63.751999
117.507851 -172.886444 -56.711102
117.507851 -172.886444 -54.961102
117.450851 -174.360153 -54.961102
117.450851 -174.360153 -56.711102
113.501846 -175.932953 -62.961102
113.501846 -171.100052 -62.961102
125.401848 186.350250 57.538898
125.401848 153.585251 57.538898
103.401848 153.585251 57.538898
103.401848 186.350250 57.538898
-123.265152 173.339249 -69.461098
-123.265152 156.278244 -69.461098
110.655853 159.949249 -63.751999
110.655853 169.168243 -63.751999
123.075851 176.748245 -77.288902
123.075851 152.869247 -77.288902
104.825851 152.869247 -77.288902
104.825851 176.748245 -77.288902
155.124847 -218.875244 77.288902
155.124847 218.875244 77.288902
-155.124847 218.875244 77.288902
-155.124847 -218.875244 77.288902
121.085854 -164.720551 -72.312500
120.569847 -165.236053 -69.461098
120.569847 -182.296951 -69.461098
121.085854 -182.812454 -72.312500
125.401848 -195.307953 52.288898
125.401848 -190.571045 52.022900
125.401848 -186.572845 49.468899
125.401848 -184.841446 46.798901
125.401848 -184.104446 43.702900
125.401848 -184.446945 40.538898
125.401848 -162.542953 40.538898
125.401848 -162.542953 57.538898
125.401848 -195.307953 57.538898
115.955849 -175.932953 -62.961102
113.501846 -175.932953 -62.961102
-115.316147 -171.100052 -62.961102
-115.316147 -175.932953 -62.961102
104.825851 176.748245 -77.288902
104.825851 152.869247 -77.288902
-111.229149 157.862244 40.538898
-108.711151 161.857254 40.538898
-117.778152 155.443253 40.538898
-113.173149 156.487244 40.538898
118.760849 170.433243 -64.661201
118.760849 158.684250 -64.661201
-107.293152 -161.827057 -77.288902
-125.543152 -161.827057 -77.288902
-155.124847 218.875244 77.288902
155.124847 218.875244 77.288902
155.124847 218.875244 72.275902
-155.124847 218.875244 72.275902
107.728851 -181.706055 -69.461098
121.728851 -181.706055 -69.461098
-111.833153 172.748245 -69.461098
-111.833153 173.339249 -69.461098
-123.265152 173.339249 -69.461098
-123.265152 172.748245 -69.461098
109.137848 -165.236053 -69.461098
120.569847 -165.236053 -69.461098
-126.674149 152.869247 -77.288902
-108.424149 152.869247 -77.288902
155.124847 -218.875244 72.275902
155.124847 218.875244 72.275902
155.124847 218.875244 77.288902
155.124847 -218.875244 77.288902
125.401848 175.489243 40.538898
103.401848 175.489243 40.538898
123.075851 152.869247 -77.288902
123.075851 176.748245 -77.288902
120.682854 174.356247 -73.674500
120.682854 155.261246 -73.674500
123.978851 -185.706055 -77.288902
123.978851 -161.827057 -77.288902
125.401848 -195.307953 57.538898
125.401848 -162.542953 57.538898
103.401848 -162.542953 57.538898
103.401848 -195.307953 57.538898
103.401848 -190.571045 52.022900
103.401848 -195.307953 52.288898
103.401848 -195.307953 57.538898
103.401848 -162.542953 57.538898
103.401848 -162.542953 40.538898
103.401848 -184.446945 40.538898
103.401848 -184.104446 43.702900
103.401848 -184.841446 46.798901
103.401848 -186.572845 49.468899
112.027847 -182.230057 40.538898
116.746849 -182.413345 40.538898
118.980850 -181.588043 40.538898
125.401848 -184.446945 40.538898
103.401848 -184.446945 40.538898
108.032852 -179.711945 40.538898
122.446854 -178.381042 40.538898
123.844849 -173.870544 40.538898
122.800850 -169.265244 40.538898
119.593849 -165.799057 40.538898
115.082848 -164.400757 40.538898
110.477852 -165.444946 40.538898
107.011848 -168.652054 40.538898
106.015846 -170.815155 40.538898
105.831848 -175.533844 40.538898
103.401848 -162.542953 40.538898
125.401848 -162.542953 40.538898
-106.098152 177.615250 49.468899
-106.098152 175.383255 45.281898
-128.098145 175.383255 45.281898
-128.098145 177.615250 49.468899
-122.678146 -166.192444 -66.487198
-123.543152 -165.327057 -69.461098
-123.543152 -181.706055 -69.461098
-122.678146 -180.840652 -66.487198
116.820847 -171.581650 -54.961102
115.572853 -170.795258 -54.961102
114.098846 -170.738052 -54.961102
112.793854 -171.425247 -54.961102
112.318848 -171.997345 -54.961102
111.881851 -173.405945 -54.961102
111.950851 -174.146545 -54.961102
112.637848 -175.451355 -54.961102
113.209846 -175.926651 -54.961102
114.618851 -176.363358 -54.961102
116.056847 -176.037247 -54.961102
116.663849 -175.607758 -54.961102
117.450851 -174.360153 -54.961102
117.507851 -172.886444 -54.961102
-106.098152 175.489243 40.538898
-128.098145 175.489243 40.538898
121.075851 172.748245 -69.461098
107.075851 172.748245 -69.461098
-116.581146 167.280243 -56.711102
107.728851 -165.327057 -69.461098
107.728851 -181.706055 -69.461098
108.234848 173.339249 -69.461098
119.666847 173.339249 -69.461098
111.881851 -173.405945 -54.961102
111.881851 -173.405945 -56.711102
-118.676147 -176.900345 -56.711102
-118.676147 -176.900345 -62.961102
-110.817146 174.356247 -73.674500
-110.817146 155.261246 -73.674500
-108.424149 152.869247 -77.288902
-108.424149 176.748245 -77.288902
-111.290154 171.883255 -66.487198
-123.559151 171.883255 -66.487198
-115.358147 -169.695953 -56.711102
-116.388153 -169.519547 -56.711102
-116.432152 -170.669647 -56.711102
-115.024147 -171.106354 -56.711102
-114.022148 -172.188843 -56.711102
-113.764153 -172.886551 -56.711102
-112.722153 -174.700943 -56.711102
-112.642151 -172.631943 -56.711102
-113.607147 -170.799957 -56.711102
-114.004150 159.949249 -63.751999
-114.004150 169.168243 -63.751999
-116.388153 -169.519547 -56.711102
-116.388153 -169.519547 -62.961102
112.848846 162.142242 -62.961102
112.848846 166.975250 -62.961102
-106.098152 178.795258 50.543900
-128.098145 178.795258 50.543900
-128.098145 180.141251 51.403900
-106.098152 180.141251 51.403900
145.624847 209.374252 66.525902
145.624847 209.374252 72.275902
145.624847 -209.375244 72.275902
145.624847 -209.375244 66.525902
-111.833153 173.339249 -69.461098
-111.833153 156.278244 -69.461098
-120.364151 -172.332047 -62.961102
-120.364151 -172.332047 -56.711102
-120.621147 -168.249146 -64.171501
-120.621147 -178.783844 -64.171501
-155.124847 218.875244 72.275902
105.728851 -185.706055 -77.288902
123.978851 -185.706055 -77.288902
-117.770149 -171.100052 -62.961102
-115.316147 -171.100052 -62.961102
-118.529152 -176.691757 -63.143101
-118.529152 -170.341354 -63.143101
-110.702148 -165.327057 -69.461098
-110.702148 -165.236053 -69.461098
-122.134148 -165.236053 -69.461098
-122.134148 -165.327057 -69.461098
-138.125153 201.875244 66.525902
138.124847 201.875244 66.525902
138.124847 201.875244 57.538898
-138.125153 201.875244 57.538898
-117.770149 -175.932953 -62.961102
-117.770149 -171.100052 -62.961102
-124.424149 172.748245 -69.461098
-124.424149 156.369247 -69.461098
-110.424149 172.748245 -69.461098
-124.424149 172.748245 -69.461098
-109.543152 -181.706055 -69.461098
-109.543152 -165.327057 -69.461098
125.401848 175.489243 40.538898
125.401848 175.383255 45.281898
125.401848 177.615250 49.468899
125.401848 181.613251 52.022900
125.401848 186.350250 52.288898
125.401848 186.350250 57.538898
125.401848 153.585251 57.538898
125.401848 153.585251 40.538898
125.401848 153.585251 57.538898
103.401848 153.585251 57.538898
103.401848 153.585251 40.538898
125.401848 153.585251 40.538898
115.955849 -171.100052 -62.961102
113.501846 -171.100052 -62.961102
-107.293152 -185.706055 -77.288902
-107.293152 -161.827057 -77.288902
-105.870148 -195.307953 52.288898
-127.870148 -195.307953 52.288898
119.666847 173.339249 -69.461098
119.666847 156.278244 -69.461098
-116.794151 161.780243 -54.961102
-118.268150 161.837250 -54.961102
-118.268150 161.837250 -56.711102
-116.794151 161.780243 -56.711102
-114.703148 163.715256 -54.961102
-114.703148 163.715256 -56.711102
-114.646149 165.189255 -56.711102
-114.646149 165.189255 -54.961102
-125.543152 -185.706055 -77.288902
-125.543152 -161.827057 -77.288902
-107.293152 -161.827057 -77.288902
-107.293152 -185.706055 -77.288902
125.401848 153.585251 57.538898
125.401848 186.350250 57.538898
103.401848 186.350250 57.538898
103.401848 153.585251 57.538898
103.401848 186.350250 57.538898
125.401848 186.350250 57.538898
125.401848 186.350250 52.288898
103.401848 186.350250 52.288898
-115.490150 162.467255 -54.961102
-115.490150 162.467255 -56.711102
-105.870148 -184.104446 43.702900
-105.870148 -184.446945 40.538898
-105.870148 -162.542953 40.538898
-105.870148 -162.542953 57.538898
-105.870148 -195.307953 57.538898
-105.870148 -195.307953 52.288898
-105.870148 -190.570953 52.022900
-105.870148 -186.572845 49.468899
-105.870148 -184.841446 46.798901
-127.870148 -162.542953 57.538898
-105.870148 -162.542953 57.538898
-105.870148 -162.542953 40.538898
-127.870148 -162.542953 40.538898
125.401848 -186.572845 49.468899
103.401848 -186.572845 49.468899
103.401848 -184.841446 46.798901
125.401848 -184.841446 46.798901
-115.251152 162.209244 -54.961102
-116.717148 161.437256 -54.961102
-116.794151 161.780243 -54.961102
-115.490150 162.467255 -54.961102
-123.239151 -179.711945 40.538898
-119.244148 -182.230057 40.538898
-114.526154 -182.413345 40.538898
-110.347153 -180.212753 40.538898
-127.870148 -184.446945 40.538898
-127.870148 -162.542953 40.538898
-108.471153 -169.265244 40.538898
-111.678146 -165.799057 40.538898
-116.189148 -164.400757 40.538898
-120.794151 -165.444946 40.538898
-124.260147 -168.652054 40.538898
-125.659149 -173.162445 40.538898
-125.440147 -175.533844 40.538898
125.401848 -190.571045 52.022900
125.401848 -195.307953 52.288898
103.401848 -195.307953 52.288898
103.401848 -190.571045 52.022900
114.429848 173.674255 40.538898
114.199852 167.757248 -54.961102
-115.333153 166.493256 -56.711102
-115.333153 166.493256 -54.961102
125.401848 -184.104446 43.702900
103.401848 -184.104446 43.702900
103.401848 -184.446945 40.538898
125.401848 -184.446945 40.538898
-107.646149 -171.499146 40.538898
-113.421150 -172.808655 -54.961102
-125.543152 -161.827057 -77.288902
-125.543152 -185.706055 -77.288902
116.009850 162.467255 -54.961102
116.248848 162.209244 -54.961102
114.782852 161.437256 -54.961102
114.705849 161.780243 -54.961102
4 0 1 2 3
4 4 5 6 7
4 8 9 10 11
7 12 13 14 15 16 17 18
4 19 20 21 22
4 23 24 25 26
4 27 28 29 30
4 31 32 33 34
4 35 36 37 38
4 39 40 41 42
4 43 44 45 46
4 47 48 49 50
4 51 52 53 54
3 55 56 57
3 56 55 58
6 59 60 56 58 61 62
4 63 64 65 66
4 67 68 69 70
4 71 72 73 74
4 75 76 77 78
4 79 80 81 82
4 83 84 85 86
4 87 88 89 90
4 91 92 11 10
4 93 94 95 96
4 97 98 99 100
4 101 102 103 104
4 105 106 107 108
4 109 110 111 112
4 113 114 115 116
4 117 118 119 120
4 121 122 123 124
4 125 126 127 128
4 129 130 131 132
4 133 92 91 134
4 135 136 137 138
10 139 140 141 142 62 143 144 145 146 147
4 148 149 150 151
4 152 153 154 155
4 156 157 158 159
4 160 161 162 163
4 164 165 166 167
4 43 168 169 44
4 170 171 172 173
4 174 175 176 177
4 178 179 180 181
9 182 183 184 185 186 187 188 189 190
4 191 192 193 194
4 195 196 197 198
4 199 200 201 202
4 203 204 205 206
4 207 208 64 63
9 209 210 211 212 213 214 215 216 217
23 218 219 220 221 222 223 224 225 226 227 228 229 230 231 232 233 234 235 236 237 238 239 240
4 241 242 243 244
8 245 246 247 248 249 250 251 252
8 253 254 255 256 257 258 259 260
4 261 262 263 264
4 265 266 267 268
4 269 270 271 272
4 273 274 275 276
4 277 278 279 280
4 281 282 181 180
4 283 284 285 286
6 287 288 289 290 129 132
4 291 292 293 294
4 295 296 297 298
4 299 300 301 302
4 303 304 305 306
4 307 308 309 310
4 311 312 313 314
4 315 316 317 318
26 319 320 321 322 323 324 325 326 327 328 329 330 331 332 333 334 335 336 337 338 339 340 341 342 343 344
4 345 346 347 348
4 349 350 351 352
19 353 354 355 356 357 358 359 360 361 362 363 364 365 366 367 368 369 370 371
4 372 373 374 375
4 376 377 378 379
4 380 381 382 383
4 384 303 306 385
4 386 387 388 389
4 390 391 4 7
4 392 393 394 395
23 396 397 398 399 400 401 402 403 404 405 406 407 408 409 410 411 412 413 414 415 416 417 418
4 419 420 421 422
4 423 424 425 426
4 427 428 429 430
4 262 431 432 263
4 200 199 433 434
4 435 436 437 438
4 9 8 439 440
4 441 442 443 444
4 445 446 447 448
6 449 450 451 452 453 454
12 455 456 457 458 459 460 461 462 463 464 465 466
4 467 468 469 470
4 471 472 473 474
4 475 476 24 23
4 174 477 478 175
4 26 25 479 480
4 475 481 482 476
4 481 483 484 482
4 480 479 485 486
4 1 487 488 2
4 489 490 491 492
23 216 493 494 495 496 497 498 499 500 501 211 210 502 503 504 505 506 507 508 509 510 511 217
4 512 513 514 515
4 516 517 518 519
4 520 521 522 523
4 280 279 523 522
15 524 525 526 527 528 529 530 531 532 533 534 535 536 537 538
4 539 540 541 542
4 543 544 545 546
4 547 548 549 550
4 551 552 553 554
4 555 556 557 558
4 559 286 285 560
4 561 562 563 564
4 565 566 567 568
4 569 570 562 561
4 571 572 573 574
8 575 576 577 578 579 570 569 580
4 424 581 582 425
4 566 583 584 567
4 585 586 587 588
4 589 590 591 592
4 593 594 595 596
4 597 598 599 600
4 601 602 603 604
4 605 606 607 608
4 113 116 32 31
6 609 610 611 612 613 614
4 615 616 617 618
4 619 620 621 622
4 623 624 625 626
4 614 627 628 609
4 629 630 631 632
4 191 194 633 634
4 633 635 636 634
4 637 623 626 638
4 468 467 639 640
4 641 642 242 241
4 643 644 645 646
4 437 291 294 438
4 647 648 649 650
4 104 651 652 101
4 207 653 654 208
4 655 656 657 658
4 441 444 552 551
4 659 660 661 662
4 272 271 663 664
4 665 547 550 666
4 667 668 669 670
4 22 21 671 672
4 673 674 672 671
4 675 676 107 106
14 57 677 60 59 141 140 678 147 146 143 62 61 679 55
4 674 673 680 681
4 682 683 169 168
14 684 685 686 687 688 689 690 691 692 693 694 695 696 697
10 698 699 700 701 702 688 687 684 697 703
4 704 705 706 707
8 708 709 710 711 712 713 714 715
4 648 647 278 277
4 716 717 718 719
4 720 721 650 649
4 6 5 312 311
4 722 723 724 725
4 726 727 728 729
12 730 731 732 733 734 735 736 737 738 739 740 741
4 100 99 84 83
4 266 742 743 267
5 744 745 746 747 748
7 749 748 747 750 751 746 745
4 85 752 753 86
4 754 420 419 755
4 656 109 112 657
4 756 757 554 553
4 758 759 760 761
26 762 763 764 765 766 767 768 769 770 771 772 773 774 775 776 777 778 779 780 781 782 783 784 785 786 787
4 788 789 72 71
4 790 758 761 791
4 792 793 794 795
4 796 797 798 799
4 602 800 801 603
12 802 803 804 805 806 807 808 809 810 811 812 813
4 752 814 815 753
4 292 202 201 293
22 816 817 818 819 820 821 822 823 824 825 826 827 828 829 830 831 832 833 834 835 836 837
4 675 838 839 676
4 432 431 840 841
4 842 790 791 843
4 844 845 846 847
4 41 40 133 134
4 796 799 801 800
4 848 849 850 851
4 852 853 854 855
4 856 857 858 859
4 75 78 377 376
4 115 114 66 65
4 860 861 862 863
30 864 865 866 867 868 869 870 871 872 873 874 875 876 121 124 877 878 879 880 881 882 883 884 885 886 887 888 889 123 122
4 742 850 849 743
4 890 642 641 891
4 433 117 120 434
4 795 794 892 893
4 429 428 894 895
4 896 897 351 350
4 898 177 176 899
4 105 108 760 759
4 900 901 902 903
4 904 905 906 907
4 908 909 910 911
4 912 913 901 900
4 118 261 264 119
4 914 915 916 917
9 220 219 918 919 231 230 920 921 922
4 923 427 430 924
4 110 925 926 111
4 469 898 899 470
4 645 265 268 646
4 39 42 927 928
4 929 930 931 932
4 28 721 720 29
4 716 719 933 934
4 927 270 269 928
4 138 137 934 933
4 935 936 937 938
4 484 483 640 639
4 939 940 136 135
4 851 445 448 848
4 941 942 943 944
4 945 48 47 946
4 172 789 788 173
4 544 543 947 948
4 949 950 951 952
4 953 954 955 956
4 957 958 959 960
9 961 962 963 964 965 966 967 968 969
4 298 970 971 295
4 572 972 973 573
4 80 79 974 975
8 976 977 531 530 527 526 978 979
4 664 663 68 67
4 151 980 981 148
4 162 161 982 983
4 984 985 986 987
4 296 988 989 297
4 990 991 992 993
4 994 995 373 372
4 661 996 997 662
4 998 999 1000 1001
4 577 576 1002 1003
4 1004 1005 1006 1007
4 957 960 1008 1009
4 1010 1011 1012 1013
4 439 70 69 440
9 1014 1015 1016 1017 1018 1019 1020 1021 1022
6 1023 1024 1025 1026 1027 1028
15 1029 1030 1031 1032 1033 1034 1035 1036 1037 1028 1027 1038 1039 1026 1025
4 1040 1041 1042 1043
4 27 30 890 891
4 1044 1045 1046 1047
14 1048 1049 1050 1051 1052 1053 1054 1055 1056 1057 1058 1059 1060 1061
4 1042 1041 1062 1063
4 1064 1065 282 281
5 1066 329 328 341 340
4 34 33 923 924
4 718 717 1067 1068
4 157 156 1069 1070
4 1071 1072 683 682
4 315 349 352 316
4 897 896 936 935
4 1073 909 908 1074
4 1075 1076 1077 1078
4 164 1079 1080 165
4 902 345 348 903
13 1081 1082 362 361 1083 1084 1085 1086 353 371 1087 1088 1089
4 1090 1091 793 792
4 195 1092 1093 196
4 948 947 1094 1095
8 1096 1040 1043 1097 1098 607 606 1099
4 1090 454 453 1091
4 1100 1101 1102 1103
4 981 980 20 19
4 520 244 243 521
4 1104 1105 1076 1075
4 46 45 631 630
4 198 197 1106 1107
4 1108 1044 1047 1109
4 1092 929 932 1093
5 1110 16 15 12 18
4 670 669 1108 1109
4 486 485 478 477
4 653 895 894 654
4 705 1111 1112 706
4 284 283 1113 1114
4 668 667 1115 1116
4 1117 1118 1119 1120
4 1121 1122 1123 1124
4 1116 1115 1125 1126
4 651 1127 1128 652
4 1079 1129 1130 1080
4 844 515 514 845
4 571 574 1131 1132
8 1133 1134 1135 1136 1137 1138 1139 1140
4 1141 1142 1143 1144
4 1145 665 666 1146
4 422 421 205 204
4 588 587 1147 1148
4 390 1149 1150 391
4 1007 1006 1151 1152
4 1153 1154 1155 1156
4 1157 1158 1159 1160
4 1161 1162 1163 1164
4 1165 1166 1167 1168
4 1169 1170 1171 1172
4 1173 1153 1156 1174
9 1175 1176 1177 1178 1179 1180 1181 1182 1183
4 1184 1185 1186 1187
4 1188 1189 1190 1191
8 405 1192 1193 416 415 1194 1195 406
17 1196 1197 1198 1199 729 728 1200 1201 727 726 1202 1203 1204 1205 1206 1207 1208
4 1209 1210 1211 1212
4 1209 1212 1189 1188
4 74 73 443 442
4 838 1213 1214 839
4 1215 1216 1160 1159
4 926 925 513 512
4 1217 1218 1219 1220
4 97 1216 1215 98
4 203 206 842 843
4 762 777 776 763
4 1073 1074 347 346
4 815 814 1155 1154
4 435 841 840 436
4 488 487 1221 1222
4 1222 1221 644 643
4 1191 1190 1218 1217
4 540 1223 1224 541
8 1225 820 819 1226 1227 830 829 1228
4 1173 1174 1158 1157
4 1106 911 910 1107
4 846 601 604 847
4 170 859 858 171
4 1213 754 755 1214
4 757 756 857 856
4 913 912 931 930
4 938 937 629 632
4 317 1072 1071 318
4 797 655 658 798
4 446 0 3 447
