ply
format ascii 1.0
comment Created by Blender 2.82 (sub 7) - www.blender.org, source file: ''
element vertex 757
property float x
property float y
property float z
element face 142
property list uchar uint vertex_indices
end_header
9.547250 -24.808451 12.165350
9.547250 24.782049 12.165350
-6.872450 22.959949 12.165350
7.143250 22.959949 12.165350
7.143250 -23.069550 12.165350
-6.872450 -23.069550 12.165350
7.834250 -24.808451 5.708650
7.834250 -24.808451 -12.165350
9.547250 -24.808451 -12.165350
9.547250 -24.808451 12.165350
-9.468450 -24.808451 12.165350
-7.958850 -24.808451 10.699450
7.789150 -24.808451 10.699450
7.789150 -24.808451 7.274250
-7.958850 -24.808451 7.274250
-8.031950 -24.808451 5.708650
9.547250 -0.335050 6.887350
9.547250 -14.046250 6.887350
9.547250 -14.046250 10.666850
9.547250 -11.665150 10.666850
9.547250 24.782049 12.165350
9.547250 -22.439449 -12.165350
9.547250 -22.439449 5.708650
9.547250 22.458549 5.708650
9.547250 0.308050 6.887350
7.143250 -23.069550 10.943350
-6.872450 -23.069550 10.943350
-6.872450 -23.069550 12.165350
7.143250 -23.069550 12.165350
9.547250 -0.335050 10.666850
9.547250 0.308050 10.666850
6.432750 -19.522650 10.943350
6.432950 -20.032249 10.943350
5.856250 -20.965851 10.943350
4.660150 -21.581150 10.943350
3.165050 -21.713350 10.943350
1.771550 -21.326950 10.943350
0.853150 -20.525551 10.943350
0.656050 -20.033350 10.943350
0.655850 -19.523849 10.943350
1.232550 -18.590151 10.943350
2.428650 -17.974850 10.943350
3.923850 -17.842649 10.943350
5.855250 -18.589251 10.943350
6.013850 -18.509150 10.943350
3.661950 -17.564550 10.943350
1.819550 -17.706551 10.943350
0.329950 -18.446650 10.943350
-0.407750 -19.586651 10.943350
-0.423050 -20.213249 10.943350
-0.195850 -20.821051 10.943350
0.908750 -21.819151 10.943350
2.610250 -22.313351 10.943350
4.452650 -22.171450 10.943350
5.942250 -21.431351 10.943350
6.680050 -20.291349 10.943350
6.695350 -19.664749 10.943350
6.468150 -19.056950 10.943350
6.235650 -19.030451 10.943350
-9.783450 2.934450 10.943350
-9.940950 2.934450 10.943350
-9.940950 2.934450 10.470950
-9.783450 2.934450 10.470950
9.744150 -0.335050 6.887350
9.744150 -14.046250 6.887350
9.547250 -14.046250 6.887350
9.547250 -0.335050 6.887350
-6.872450 22.959949 10.943350
-6.872450 22.959949 12.165350
7.834250 24.782049 5.708650
-8.031950 24.782049 5.708650
-8.031950 24.782049 -12.165350
-9.468450 24.782049 -12.165350
-9.468450 24.782049 12.165350
-5.385650 24.782049 10.737950
-7.910550 24.782049 10.737950
-7.910550 24.782049 7.312750
7.837550 24.782049 7.312750
7.837550 24.782049 10.737950
9.547250 24.782049 -12.165350
7.834250 24.782049 -12.165350
-8.031950 -22.439449 5.708650
-8.031950 22.458549 5.708650
-8.031950 24.782049 5.708650
7.834250 -22.439449 5.708650
7.834250 24.782049 5.708650
7.834250 22.458549 5.708650
1.582650 7.975050 10.943350
2.052850 8.011850 10.943350
2.132850 8.430350 10.943350
0.663250 8.525550 10.943350
-0.183850 8.171250 10.943350
-0.653050 7.580650 10.943350
-0.701450 7.244850 10.943350
-0.618550 6.911950 10.943350
-0.089750 6.344450 10.943350
0.791750 6.030050 10.943350
1.789750 6.053150 10.943350
2.636850 6.407450 10.943350
3.105950 6.998050 10.943350
3.154450 7.333950 10.943350
3.071550 7.666750 10.943350
2.542750 8.234250 10.943350
2.653950 7.771450 10.943350
2.770250 7.631850 10.943350
2.828750 7.476750 10.943350
2.825250 7.316750 10.943350
2.637750 7.025550 10.943350
2.258050 6.836050 10.943350
1.787850 6.799250 10.943350
1.353150 6.924850 10.943350
1.070450 7.179250 10.943350
1.011950 7.334350 10.943350
1.015450 7.494350 10.943350
1.202950 7.785550 10.943350
2.595450 -2.817450 10.943350
0.411450 -2.822850 10.943350
-1.484050 -2.095950 10.943350
-2.583150 -0.831450 10.943350
-2.731050 -0.100150 10.943350
-2.591350 0.631850 10.943350
-1.506450 1.901850 10.943350
-1.506650 3.174050 10.943350
-3.380050 1.918950 10.943350
-3.891350 1.091850 10.943350
-4.065750 0.204350 10.943350
-3.891350 -0.683150 10.943350
-2.566650 -2.220450 10.943350
-0.272250 -3.107950 10.943350
2.377050 -3.107950 10.943350
4.671450 -2.220450 10.943350
5.996150 -0.683150 10.943350
6.170550 0.204350 10.943350
5.996150 1.091850 10.943350
4.671450 2.629150 10.943350
4.460450 1.916750 10.943350
5.559550 0.652250 10.943350
5.707350 -0.079050 10.943350
5.567750 -0.811050 10.943350
4.482750 -2.081050 10.943350
-9.940950 -3.205550 10.943350
-9.783450 -3.205550 10.943350
-9.783450 -3.205550 10.470950
-9.940950 -3.205550 10.470950
7.789150 -24.808451 7.274250
7.789150 -24.808451 10.699450
7.789150 -24.940350 10.699450
7.789150 -24.940350 7.274250
9.744150 14.019850 6.887350
9.744150 0.308050 6.887350
9.547250 0.308050 6.887350
9.547250 14.019850 6.887350
5.363450 -18.058849 10.943350
6.468150 -19.056950 10.943350
6.695350 -19.664749 10.943350
6.680050 -20.291349 10.943350
5.942250 -21.431351 10.943350
4.452650 -22.171450 10.943350
2.610250 -22.313351 10.943350
0.908750 -21.819151 10.943350
-0.195850 -20.821051 10.943350
-0.423050 -20.213249 10.943350
-0.407750 -19.586651 10.943350
0.329950 -18.446650 10.943350
1.058850 -13.516550 10.943350
-0.884050 -20.305450 10.943350
-0.388850 -23.069550 10.943350
7.143250 -23.069550 10.943350
7.143250 -7.934050 10.943350
5.640950 -8.897550 10.943350
-8.031950 24.782049 -12.165350
-8.031950 22.458549 -12.165350
9.547250 -22.439449 -12.165350
9.547250 -24.808451 -12.165350
7.834250 -24.808451 -12.165350
7.834250 -22.439449 -12.165350
-6.872450 -23.069550 12.165350
-6.872450 22.959949 12.165350
-6.872450 22.959949 10.943350
-6.872450 -23.069550 10.943350
9.744150 0.308050 10.666850
9.744150 2.793150 10.666850
9.547250 2.793150 10.666850
9.547250 0.308050 10.666850
-2.472450 10.604050 10.943350
-3.634050 10.604050 10.943350
-1.725550 10.538150 10.943350
-0.278350 11.098050 10.943350
0.557250 12.067650 10.943350
0.667250 12.627450 10.943350
0.557250 13.187350 10.943350
-0.278350 14.156950 10.943350
-1.725550 14.716750 10.943350
-3.396650 14.716750 10.943350
-4.843950 14.156950 10.943350
-5.679450 13.187350 10.943350
-5.789450 12.627450 10.943350
-5.679450 12.067650 10.943350
-5.356950 11.545950 10.943350
-4.640050 10.993250 10.943350
-5.220850 11.667250 10.943350
-5.297350 12.056350 10.943350
-5.220850 12.445550 10.943350
-4.640050 13.119550 10.943350
-3.634050 13.508650 10.943350
-2.472450 13.508650 10.943350
-1.466450 13.119550 10.943350
-0.885650 12.445550 10.943350
-0.809150 12.056350 10.943350
-0.885650 11.667250 10.943350
-1.466450 10.993250 10.943350
9.940950 -2.960450 10.194450
9.940950 -2.960450 10.666850
9.940950 -11.665150 10.666850
9.940950 -11.665150 10.194450
9.940950 11.497850 10.194450
9.940950 11.497850 10.666850
9.940950 2.793150 10.666850
9.940950 2.793150 10.194450
9.744150 2.793150 10.666850
9.744150 2.793150 10.194450
5.294050 20.899549 10.943350
6.023050 19.846649 10.943350
6.133850 20.933350 10.943350
4.729550 22.051050 10.943350
3.877050 21.567051 10.943350
-9.468450 -22.439449 -12.165350
-9.468450 -24.808451 -12.165350
-8.031950 -24.808451 -12.165350
-8.031950 -22.439449 -12.165350
-8.031950 -22.439449 -12.165350
-8.031950 -24.808451 -12.165350
-9.468450 -24.808451 -12.165350
-9.468450 -22.439449 -12.165350
9.744150 -14.046250 10.666850
9.744150 -11.665150 10.666850
9.547250 -11.665150 10.666850
9.547250 -14.046250 10.666850
3.580750 -6.506150 10.943350
3.643850 -6.827050 10.943350
4.671450 -2.220450 10.943350
2.377050 -3.107950 10.943350
1.314550 -5.629550 10.943350
2.272350 -5.629550 10.943350
3.101850 -5.950450 10.943350
3.056750 16.957750 10.943350
5.031550 17.577250 10.943350
6.279550 18.775351 10.943350
6.515850 19.494949 10.943350
6.466150 20.230949 10.943350
6.059450 19.261850 10.943350
5.868650 18.690651 10.943350
4.872250 17.741249 10.943350
3.300950 17.252850 10.943350
1.575550 17.356251 10.943350
0.158550 18.023849 10.943350
-0.570450 19.076651 10.943350
-0.606850 19.661449 10.943350
-0.416150 20.232651 10.943350
0.580250 21.182051 10.943350
2.151650 21.670549 10.943350
1.580750 22.515350 10.943350
-0.394150 21.895849 10.943350
-1.642050 20.697750 10.943350
-1.878450 19.978149 10.943350
-1.828750 19.242050 10.943350
-0.904050 17.918949 10.943350
0.884150 17.082850 10.943350
1.819550 -17.706551 10.943350
3.661950 -17.564550 10.943350
3.906550 -24.940350 10.226950
3.906550 -24.940350 10.699450
3.906550 -25.072250 10.699450
3.906550 -25.072250 10.226950
7.143250 22.959949 12.165350
7.143250 22.959949 10.943350
7.834250 -24.808451 5.708650
-8.031950 -24.808451 5.708650
-9.468450 -22.439449 5.708650
-9.468450 22.458549 5.708650
7.143250 -23.069550 10.943350
7.143250 -23.069550 12.165350
4.671450 2.629150 10.943350
5.996150 1.091850 10.943350
6.170550 0.204350 10.943350
5.996150 -0.683150 10.943350
5.484850 -1.510250 10.943350
5.640950 -8.897550 10.943350
7.143250 -7.934050 10.943350
7.143250 7.201450 10.943350
2.671950 11.280950 10.943350
1.240650 10.498750 10.943350
0.663250 8.525550 10.943350
1.661250 8.548650 10.943350
2.542750 8.234250 10.943350
3.071550 7.666750 10.943350
3.154450 7.333950 10.943350
3.105950 6.998050 10.943350
2.636850 6.407450 10.943350
1.789750 6.053150 10.943350
0.791750 6.030050 10.943350
-0.089750 6.344450 10.943350
-0.409950 6.604850 10.943350
-0.272250 3.516650 10.943350
2.377050 3.516650 10.943350
5.008050 25.072250 10.304850
5.008050 25.072250 10.737950
5.008050 24.940350 10.737950
5.008050 24.940350 10.304850
7.834250 -22.439449 -12.165350
7.834250 -24.808451 -12.165350
9.547250 -24.808451 -12.165350
9.547250 -22.439449 -12.165350
3.300950 17.252850 10.943350
4.872250 17.741249 10.943350
5.868650 18.690651 10.943350
6.059450 19.261850 10.943350
6.023050 19.846649 10.943350
5.294050 20.899549 10.943350
3.877050 21.567051 10.943350
2.151650 21.670549 10.943350
0.580250 21.182051 10.943350
-0.416150 20.232651 10.943350
-0.606850 19.661449 10.943350
-0.570450 19.076651 10.943350
0.158550 18.023849 10.943350
1.575550 17.356251 10.943350
-9.468450 22.458549 -12.165350
9.547250 -22.439449 5.708650
9.547250 -22.439449 -12.165350
7.834250 -22.439449 -12.165350
-8.031950 -22.439449 -12.165350
-9.468450 -22.439449 -12.165350
-9.468450 24.782049 12.165350
-9.468450 -24.808451 12.165350
9.744150 -11.665150 10.666850
9.744150 -11.665150 10.194450
0.045050 -6.920850 10.943350
0.083950 -6.722850 10.943350
0.379450 -6.379950 10.943350
0.891250 -6.181950 10.943350
1.482250 -6.181950 10.943350
1.994150 -6.379950 10.943350
1.793450 -5.587350 10.943350
0.868250 -5.753350 10.943350
0.190950 -6.207150 10.943350
0.006150 -6.506150 10.943350
-0.056950 -6.827050 10.943350
0.006150 -7.147950 10.943350
0.485050 -7.703750 10.943350
0.198050 -7.303350 10.943350
0.083950 -7.118850 10.943350
-3.809950 -25.072250 10.226950
-3.809950 -24.940350 10.226950
-9.783450 -0.552450 10.943350
-9.468450 -0.552450 10.943350
-9.468450 -0.552450 7.163850
-9.783450 -0.552450 7.163850
-8.031950 24.782049 -12.165350
-8.031950 22.458549 -12.165350
-9.468450 22.458549 -12.165350
-9.468450 24.782049 -12.165350
-9.468450 -24.808451 -12.165350
-8.031950 -24.808451 -12.165350
-0.268350 -12.174250 10.943350
-0.688750 -12.840850 10.943350
-0.641250 -13.969150 10.943350
0.184150 -13.011350 10.943350
0.292750 -12.458350 10.943350
0.184150 -11.905350 10.943350
-0.641250 -10.947550 10.943350
-2.070850 -10.394550 10.943350
-3.721550 -10.394550 10.943350
-5.151150 -10.947550 10.943350
-5.976550 -11.905350 10.943350
-6.085150 -12.458350 10.943350
-5.976550 -13.011350 10.943350
-5.657950 -13.526650 10.943350
-4.490650 -14.308650 10.943350
-2.896150 -14.594950 10.943350
-3.147250 -13.269750 10.943350
-3.999550 -12.825150 10.943350
-4.405750 -12.154650 10.943350
-4.401950 -11.789650 10.943350
-3.981550 -11.123050 10.943350
-3.119950 -10.686550 10.943350
-2.048150 -10.597250 10.943350
-1.053250 -10.878850 10.943350
-0.401750 -11.456150 10.943350
-0.264550 -11.809250 10.943350
-9.468450 0.529150 10.943350
-9.783450 0.529150 10.943350
-9.783450 0.529150 7.163850
-9.468450 0.529150 7.163850
-9.468450 14.019850 7.163850
-9.783450 14.019850 7.163850
-7.958850 -24.808451 10.699450
-7.958850 -24.808451 7.274250
-7.958850 -24.940350 7.274250
-7.958850 -24.940350 10.699450
9.547250 22.458549 5.708650
-9.940950 -11.910250 10.470950
-9.940950 -11.910250 10.943350
-0.278350 14.156950 10.943350
0.557250 13.187350 10.943350
1.066850 13.213850 10.943350
-3.094750 22.959949 10.943350
-6.872450 22.959949 10.943350
-6.872450 -1.543050 10.943350
-5.113950 4.493950 10.943350
-1.331550 8.724850 10.943350
-0.946950 10.754250 10.943350
-3.396650 10.538150 10.943350
-4.843950 11.098050 10.943350
-5.679450 12.067650 10.943350
-5.789450 12.693450 10.943350
-5.679450 13.187350 10.943350
-4.843950 14.156950 10.943350
-3.396650 14.716750 10.943350
-1.725550 14.716750 10.943350
0.667250 12.627450 10.943350
0.557250 12.067650 10.943350
0.234650 11.545950 10.943350
2.671950 11.280950 10.943350
-9.468450 -0.552450 7.163850
-9.468450 0.529150 10.943350
-9.468450 0.529150 7.163850
-9.468450 14.019850 7.163850
-9.468450 22.458549 5.708650
-9.468450 -22.439449 5.708650
-9.468450 -14.046250 10.943350
-9.468450 -14.046250 7.163850
3.580750 -7.147950 10.943350
3.101850 -7.703750 10.943350
2.272350 -8.024550 10.943350
1.314550 -8.024550 10.943350
0.485050 -7.703750 10.943350
0.006150 -7.147950 10.943350
-0.056950 -6.827050 10.943350
0.006150 -6.506150 10.943350
0.485050 -5.950450 10.943350
-0.272250 -3.107950 10.943350
-2.566650 -2.220450 10.943350
-3.891350 -0.683150 10.943350
-4.065750 0.204350 10.943350
-3.891350 1.091850 10.943350
-2.566650 2.629150 10.943350
-0.618550 6.911950 10.943350
-0.701450 7.244850 10.943350
-0.653050 7.580650 10.943350
-0.183850 8.171250 10.943350
-3.466650 6.707250 10.943350
-6.234350 2.137450 10.943350
-6.780050 -2.565050 10.943350
-5.420150 -5.482750 10.943350
-1.397050 -8.516250 10.943350
4.271350 -9.945950 10.943350
-1.550350 -13.277350 10.943350
7.789150 -24.940350 10.699450
3.906550 -24.940350 10.699450
3.906550 -24.940350 10.226950
-3.809950 -24.940350 10.226950
-3.809950 -24.940350 10.699450
-7.958850 -24.940350 10.699450
-7.958850 -24.940350 7.274250
7.789150 -24.940350 7.274250
-2.070850 -10.394550 10.943350
-0.641250 -10.947550 10.943350
-0.134450 -11.390050 10.943350
-0.087650 -9.044150 10.943350
-2.601750 -7.886250 10.943350
6.466150 20.230949 10.943350
6.515850 19.494949 10.943350
6.279550 18.775351 10.943350
5.031550 17.577250 10.943350
3.056750 16.957750 10.943350
0.884150 17.082850 10.943350
-0.904050 17.918949 10.943350
-1.828750 19.242050 10.943350
-1.878450 19.978149 10.943350
-1.642050 20.697750 10.943350
-1.135850 21.351749 10.943350
0.532450 22.292650 10.943350
-3.094750 22.959949 10.943350
-1.374750 17.260450 10.943350
7.143250 7.201450 10.943350
7.143250 22.959949 10.943350
6.133850 20.933350 10.943350
0.314650 -14.817650 10.943350
4.271350 -9.945950 10.943350
0.184150 -11.905350 10.943350
0.292750 -12.458350 10.943350
0.184150 -13.011350 10.943350
-0.641250 -13.969150 10.943350
-2.070850 -14.522150 10.943350
-3.721550 -14.522150 10.943350
-5.151150 -13.969150 10.943350
-5.976550 -13.011350 10.943350
-6.085150 -12.458350 10.943350
-5.976550 -11.905350 10.943350
-5.151150 -10.947550 10.943350
-3.721550 -10.394550 10.943350
-6.048450 -4.549450 10.943350
-6.872450 -1.543050 10.943350
-6.872450 -23.069550 10.943350
-0.388850 -23.069550 10.943350
-0.884050 -20.305450 10.943350
7.143250 22.959949 10.943350
7.143250 22.959949 12.165350
0.380850 2.638150 10.943350
2.564950 2.643650 10.943350
2.377050 3.516650 10.943350
7.143250 -23.069550 12.165350
7.143250 22.959949 12.165350
-6.872450 22.959949 12.165350
-6.872450 -23.069550 12.165350
-1.466450 10.993250 10.943350
-0.885650 11.667250 10.943350
-0.809150 12.056350 10.943350
-0.885650 12.445550 10.943350
-1.466450 13.119550 10.943350
-2.472450 13.508650 10.943350
-3.634050 13.508650 10.943350
-4.640050 13.119550 10.943350
-5.220850 12.445550 10.943350
-5.297350 12.056350 10.943350
-5.220850 11.667250 10.943350
-4.640050 10.993250 10.943350
-3.634050 10.604050 10.943350
-2.472450 10.604050 10.943350
7.834250 -22.439449 5.708650
7.834250 -22.439449 -12.165350
7.834250 -24.808451 -12.165350
7.834250 -24.808451 5.708650
-9.783450 -3.205550 10.470950
-9.783450 -3.205550 10.943350
-9.783450 -0.552450 10.943350
-9.783450 -0.552450 7.163850
-9.783450 -14.046250 7.163850
-9.783450 -14.046250 10.943350
-9.783450 -11.910250 10.943350
-9.783450 -11.910250 10.470950
7.834250 24.782049 -12.165350
7.834250 22.458549 -12.165350
1.482250 -6.181950 10.943350
0.891250 -6.181950 10.943350
0.379450 -6.379950 10.943350
0.083950 -6.722850 10.943350
0.045050 -6.920850 10.943350
0.083950 -7.118850 10.943350
0.379450 -7.461750 10.943350
0.891250 -7.659750 10.943350
1.482250 -7.659750 10.943350
1.994150 -7.461750 10.943350
2.289650 -7.118850 10.943350
2.328550 -6.920850 10.943350
2.289650 -6.722850 10.943350
1.994150 -6.379950 10.943350
-4.268550 -12.507850 10.943350
-3.617050 -13.085050 10.943350
-2.622150 -13.366750 10.943350
-1.550350 -13.277350 10.943350
-0.688750 -12.840850 10.943350
-0.268350 -12.174250 10.943350
-0.264550 -11.809250 10.943350
-0.401750 -11.456150 10.943350
-1.053250 -10.878850 10.943350
-2.048150 -10.597250 10.943350
-3.119950 -10.686550 10.943350
-3.981550 -11.123050 10.943350
-4.401950 -11.789650 10.943350
-4.405750 -12.154650 10.943350
-8.031950 -24.808451 -12.165350
2.052850 8.011850 10.943350
1.582650 7.975050 10.943350
1.202950 7.785550 10.943350
1.015450 7.494350 10.943350
1.011950 7.334350 10.943350
1.070450 7.179250 10.943350
1.353150 6.924850 10.943350
1.787850 6.799250 10.943350
2.258050 6.836050 10.943350
2.637750 7.025550 10.943350
2.825250 7.316750 10.943350
2.828750 7.476750 10.943350
2.770250 7.631850 10.943350
2.487550 7.886250 10.943350
1.314550 -8.024550 10.943350
2.272350 -8.024550 10.943350
3.101850 -7.703750 10.943350
3.580750 -7.147950 10.943350
3.643850 -6.827050 10.943350
3.580750 -6.506150 10.943350
3.395950 -6.207150 10.943350
2.718650 -5.753350 10.943350
2.289650 -6.722850 10.943350
2.328550 -6.920850 10.943350
2.289650 -7.118850 10.943350
1.994150 -7.461750 10.943350
1.482250 -7.659750 10.943350
0.891250 -7.659750 10.943350
0.379450 -7.461750 10.943350
-9.468450 -3.205550 10.943350
-9.783450 -3.205550 10.943350
-9.468450 24.782049 -12.165350
-9.468450 22.458549 -12.165350
-8.031950 22.458549 -12.165350
-8.031950 24.782049 -12.165350
0.411450 -2.822850 10.943350
2.595450 -2.817450 10.943350
4.482750 -2.081050 10.943350
5.567750 -0.811050 10.943350
5.707350 -0.079050 10.943350
5.559550 0.652250 10.943350
4.460450 1.916750 10.943350
2.564950 2.643650 10.943350
0.380850 2.638150 10.943350
-1.506450 1.901850 10.943350
-2.591350 0.631850 10.943350
-2.731050 -0.100150 10.943350
-2.583150 -0.831450 10.943350
-1.484050 -2.095950 10.943350
9.744150 -2.960450 10.194450
-9.468450 11.639250 10.943350
-9.468450 14.019850 10.943350
-9.783450 14.019850 10.943350
-9.783450 11.639250 10.943350
1.771550 -21.326950 10.943350
3.165050 -21.713350 10.943350
4.660150 -21.581150 10.943350
5.856250 -20.965851 10.943350
6.432950 -20.032249 10.943350
6.432750 -19.522650 10.943350
6.235650 -19.030451 10.943350
5.317250 -18.229050 10.943350
3.923850 -17.842649 10.943350
2.428650 -17.974850 10.943350
1.232550 -18.590151 10.943350
0.655850 -19.523849 10.943350
0.656050 -20.033350 10.943350
0.853150 -20.525551 10.943350
3.906550 -24.808451 10.699450
-6.872450 -23.069550 12.165350
-6.872450 22.959949 12.165350
7.143250 22.959949 12.165350
7.143250 -23.069550 12.165350
-3.809950 -24.808451 10.699450
-3.809950 -24.940350 10.699450
-3.809950 -25.072250 10.699450
-5.385650 25.072250 10.737950
-5.385650 25.072250 10.304850
-5.385650 24.940350 10.304850
-5.385650 24.940350 10.737950
9.744150 -2.960450 10.666850
9.547250 -2.960450 10.666850
9.547250 -11.665150 10.666850
-9.468450 -14.046250 10.943350
-9.783450 -14.046250 10.943350
-9.783450 -14.046250 7.163850
-9.468450 -14.046250 7.163850
9.744150 11.497850 10.666850
9.547250 11.497850 10.666850
9.547250 2.793150 10.666850
-9.940950 11.639250 10.943350
-9.783450 11.639250 10.943350
-9.783450 11.639250 10.470950
-9.940950 11.639250 10.470950
-9.783450 -11.910250 10.943350
-9.468450 -11.910250 10.943350
-9.468450 -3.205550 10.943350
-9.783450 -11.910250 10.470950
9.744150 11.497850 10.194450
-9.468450 2.934450 10.943350
-9.468450 11.639250 10.943350
9.547250 14.019850 10.666850
9.547250 14.019850 6.887350
9.547250 22.458549 -12.165350
-9.783450 2.934450 10.943350
-9.783450 2.934450 10.470950
-9.783450 11.639250 10.470950
-9.783450 11.639250 10.943350
-9.783450 14.019850 10.943350
-9.783450 14.019850 7.163850
-9.783450 0.529150 7.163850
-9.783450 0.529150 10.943350
-9.468450 2.934450 10.943350
-9.783450 2.934450 10.943350
-9.468450 -22.439449 -12.165350
-9.468450 22.458549 -12.165350
-9.468450 14.019850 10.943350
-9.468450 -0.552450 10.943350
-9.468450 -11.910250 10.943350
-9.783450 -11.910250 10.943350
7.834250 24.782049 -12.165350
7.834250 22.458549 -12.165350
9.547250 22.458549 -12.165350
9.547250 24.782049 -12.165350
9.547250 24.782049 -12.165350
9.547250 22.458549 -12.165350
7.834250 22.458549 -12.165350
7.834250 24.782049 -12.165350
3.753350 22.390249 10.943350
5.541550 21.554150 10.943350
9.744150 2.793150 10.666850
9.744150 0.308050 10.666850
9.744150 0.308050 6.887350
9.744150 14.019850 6.887350
9.744150 14.019850 10.666850
9.744150 11.497850 10.666850
9.744150 11.497850 10.194450
9.744150 2.793150 10.194450
9.744150 11.497850 10.666850
9.744150 14.019850 10.666850
9.547250 14.019850 10.666850
9.547250 11.497850 10.666850
7.837550 24.782049 10.737950
7.837550 24.940350 10.737950
5.008050 24.940350 10.737950
5.008050 24.782049 10.737950
5.008050 24.782049 10.737950
-5.385650 24.782049 10.737950
9.744150 -2.960450 10.666850
9.744150 -0.335050 10.666850
9.547250 -0.335050 10.666850
9.547250 -2.960450 10.666850
3.906550 -24.808451 10.699450
3.906550 -24.940350 10.699450
9.744150 -2.960450 10.194450
9.744150 -11.665150 10.194450
9.744150 -11.665150 10.666850
9.744150 -14.046250 10.666850
9.744150 -14.046250 6.887350
9.744150 -0.335050 6.887350
9.744150 -0.335050 10.666850
9.744150 -2.960450 10.666850
5.008050 24.940350 10.304850
5.008050 24.940350 10.737950
7.837550 24.940350 10.737950
7.837550 24.940350 7.312750
-7.910550 24.940350 7.312750
-7.910550 24.940350 10.737950
-5.385650 24.940350 10.737950
-5.385650 24.940350 10.304850
-3.809950 -24.940350 10.699450
-3.809950 -24.808451 10.699450
-5.385650 24.782049 10.737950
-5.385650 24.940350 10.737950
-7.910550 24.940350 10.737950
-7.910550 24.782049 10.737950
-7.910550 24.940350 7.312750
-7.910550 24.782049 7.312750
7.837550 24.940350 7.312750
7.837550 24.782049 7.312750
9.547250 22.458549 -12.165350
-5.679450 13.187350 10.943350
-5.789450 12.693450 10.943350
-5.783450 12.658350 10.943350
6 0 1 2 3 4 5
10 6 7 8 9 10 11 12 13 14 15
11 16 17 18 19 20 9 8 21 22 23 24
4 25 26 27 28
6 29 16 24 30 20 19
28 31 32 33 34 35 36 37 38 39 40 41 42 43 44 45 46 47 48 49 50 51 52 53 54 55 56 57 58
4 59 60 61 62
4 63 64 65 66
4 26 67 68 27
13 69 70 71 72 73 74 75 76 77 78 20 79 80
3 81 82 83
3 84 85 86
28 87 88 89 90 91 92 93 94 95 96 97 98 99 100 101 102 103 104 105 106 107 108 109 110 111 112 113 114
25 115 116 117 118 119 120 121 122 123 124 125 126 127 128 129 130 131 132 133 134 135 136 137 138 139
4 140 141 142 143
4 144 145 146 147
4 148 149 150 151
4 20 78 74 73
18 152 153 154 155 156 157 158 159 160 161 162 163 164 165 166 167 168 169
4 170 83 82 171
4 172 173 174 175
4 58 57 44 43
4 176 177 178 179
4 180 181 182 183
27 184 185 186 187 188 189 190 191 192 193 194 195 196 197 198 199 200 201 202 203 204 205 206 207 208 209 210
4 211 212 213 214
4 215 216 217 218
4 217 219 220 218
5 221 222 223 224 225
4 226 227 228 229
4 230 231 232 233
4 234 235 236 237
7 238 239 240 241 242 243 244
27 245 246 247 248 249 223 222 250 251 252 253 254 255 256 257 258 259 260 225 224 261 262 263 264 265 266 267
6 163 268 269 152 169 164
4 270 271 272 273
4 25 28 274 275
4 274 68 67 275
6 276 277 81 83 85 84
4 82 81 278 279
4 179 280 281 176
23 282 283 284 285 286 287 288 289 290 291 292 293 294 295 296 297 298 299 300 301 302 303 304
4 305 306 307 308
4 309 310 311 312
14 313 314 315 316 317 318 319 320 321 322 323 324 325 326
4 82 279 327 171
4 84 328 329 330
4 278 81 331 332
6 5 2 1 333 334 0
4 213 335 336 214
15 337 338 339 340 341 342 343 344 345 346 347 348 349 350 351
4 270 273 352 353
4 354 355 356 357
4 358 359 360 361
6 10 362 363 15 14 11
26 364 365 366 367 368 369 370 371 372 373 374 375 376 377 378 379 380 381 382 383 384 385 386 387 388 389
4 390 391 392 393
4 394 393 392 395
4 396 397 398 399
4 86 400 328 84
4 140 143 401 402
17 403 404 405 406 407 408 409 410 411 412 413 414 415 416 417 418 419
8 405 404 420 421 422 411 410 423
8 424 425 426 427 428 429 430 431
35 287 286 240 239 432 433 434 435 436 437 438 439 440 242 241 441 442 443 444 445 446 303 302 447 448 449 450 292 291 451 452 453 454 455 456
5 366 365 457 380 379
8 458 459 460 461 462 463 464 465
5 466 467 468 469 470
17 471 472 473 474 475 476 477 478 479 480 481 482 483 484 485 486 487
23 488 489 469 468 490 491 492 493 494 495 496 497 498 499 500 501 466 470 502 503 504 505 506
4 281 280 507 508
4 178 177 508 507
7 121 509 510 135 134 511 122
4 512 513 514 515
14 516 517 518 519 520 521 522 523 524 525 526 527 528 529
4 530 531 532 533
8 534 535 536 537 538 539 540 541
4 85 542 543 86
14 544 545 546 547 548 549 550 551 552 553 554 555 556 557
14 558 559 560 561 562 563 564 565 566 567 568 569 570 571
4 88 103 102 89
4 331 81 277 572
14 573 574 575 576 577 578 579 580 581 582 583 584 585 586
19 349 587 588 589 590 591 592 593 594 343 342 595 596 597 598 599 600 601 350
4 602 355 354 603
4 604 605 606 607
14 608 609 610 611 612 613 614 615 616 617 618 619 620 621
4 211 214 336 622
4 623 624 625 626
14 627 628 629 630 631 632 633 634 635 636 637 638 639 640
3 641 272 271
4 642 643 644 645
5 646 647 648 272 641
4 649 650 651 652
4 272 648 352 273
6 653 654 655 335 213 212
4 647 353 352 648
4 656 657 658 659
6 217 216 660 661 662 219
4 663 664 665 666
6 141 140 402 667 668 669
4 142 670 401 143
4 660 216 215 671
4 665 62 61 666
4 663 666 61 60
4 356 659 658 357
6 59 672 673 664 663 60
4 667 402 401 670
4 215 218 220 671
8 30 674 675 24 23 676 79 20
8 677 678 679 680 681 682 683 684
4 390 685 686 391
14 687 362 10 73 72 688 428 427 689 425 424 690 430 429
4 656 691 692 657
4 693 694 695 696
4 697 698 699 700
4 625 624 394 395
4 653 212 211 622
6 701 702 487 486 483 482
8 703 704 705 706 707 708 709 710
4 711 712 713 714
4 715 716 717 718
4 713 712 148 151
4 180 183 150 149
4 144 147 398 397
5 719 306 649 652 720
4 721 722 723 724
4 234 237 65 64
4 305 308 651 650
4 146 145 725 726
4 723 722 63 66
4 649 306 305 650
3 306 719 307
8 727 728 729 730 731 732 733 734
8 735 736 737 738 739 740 741 742
4 743 744 396 399
4 745 746 747 748
4 747 749 750 748
4 751 752 750 749
4 400 86 543 753
3 754 755 756
4 751 716 715 752
