ply
format ascii 1.0
comment Created by Blender 2.82 (sub 7) - www.blender.org, source file: ''
element vertex 250
property float x
property float y
property float z
element face 54
property list uchar uint vertex_indices
end_header
21.299200 51.088501 -12.677150
21.299200 57.696800 -12.677150
21.299200 57.696800 6.068850
21.299200 48.238602 6.068850
21.299200 48.976200 5.971750
21.299200 50.253799 5.234150
21.299200 50.991402 3.956550
21.299200 -48.238800 6.068850
21.299200 -51.088799 12.677150
21.299200 -53.617802 12.174150
-21.299200 -53.617802 12.174150
-21.299200 -51.088799 12.677150
-21.299200 51.088501 12.677150
21.299200 51.088501 12.677150
21.299200 -51.088799 12.677150
-21.299200 -51.088799 12.677150
21.299200 51.088501 -12.677150
21.299200 51.088501 3.218950
-21.299200 51.088501 3.218950
-21.299200 51.088501 -12.677150
21.299200 50.499599 4.953850
21.299200 50.253799 5.234150
-21.299200 50.253799 5.234150
-21.299200 50.499599 4.953850
-21.299200 50.706699 4.643850
-21.299200 50.871498 4.309550
-21.299200 50.991402 3.956550
21.299200 50.991402 3.956550
21.299200 50.871498 4.309550
21.299200 50.706699 4.643850
21.299200 -57.696800 6.068850
21.299200 50.253799 5.234150
-21.299200 50.253799 5.234150
-21.299200 48.976200 5.971750
21.299200 48.976200 5.971750
21.299200 48.238602 6.068850
-21.299200 48.238602 6.068850
-21.299200 -48.238800 6.068850
21.299200 -48.238800 6.068850
-21.299200 -51.088799 12.677150
21.299200 -51.088799 12.677150
21.299200 51.088501 12.677150
-21.299200 51.088501 12.677150
-21.299200 57.696800 6.068850
-21.299200 57.696800 -12.677150
21.299200 57.696800 -12.677150
21.299200 57.696800 6.068850
21.299200 -57.696800 -12.677150
-21.299200 -57.696800 -12.677150
-21.299200 -51.088799 -12.677150
21.299200 -51.088799 -12.677150
21.299200 48.976200 5.971750
21.299200 48.238602 6.068850
21.299200 57.696800 6.068850
21.299200 57.696800 -12.677150
21.299200 51.088501 -12.677150
21.299200 50.991402 3.956550
21.299200 50.253799 5.234150
-21.299200 -49.663799 5.687050
-21.299200 48.976200 5.971750
-21.299200 50.253799 5.234150
-21.299200 50.991402 3.956550
-21.299200 51.088501 -12.677150
-21.299200 57.696800 -12.677150
-21.299200 57.471699 7.779150
-21.299200 56.811501 9.373050
-21.299200 54.392700 11.791850
-21.299200 52.798901 12.452050
-21.299200 -53.617802 12.174150
-21.299200 -55.761799 10.741650
-21.299200 -57.471802 7.779150
-21.299200 -57.696800 -12.677150
-21.299200 -51.088799 -12.677150
-21.299200 -50.871799 4.309550
21.299200 57.696800 6.068850
21.299200 57.696800 -12.677150
-21.299200 57.696800 -12.677150
-21.299200 57.696800 6.068850
21.299200 51.088501 -12.677150
-21.299200 51.088501 -12.677150
-21.299200 57.696800 -12.677150
21.299200 57.696800 -12.677150
21.299200 55.111401 11.311550
21.299200 55.761299 10.741650
21.299200 56.811501 9.373050
-21.299200 56.811501 9.373050
-21.299200 55.761299 10.741650
-21.299200 55.111401 11.311550
-21.299200 54.392700 11.791850
21.299200 54.392700 11.791850
21.299200 -48.238800 6.068850
-21.299200 -48.238800 6.068850
-21.299200 48.238602 6.068850
21.299200 48.238602 6.068850
21.299200 -48.238800 6.068850
21.299200 -57.696800 6.068850
-21.299200 57.640301 6.931350
-21.299200 57.696800 6.068850
21.299200 57.696800 6.068850
21.299200 57.640301 6.931350
21.299200 57.471699 7.779150
21.299200 57.193802 8.597750
21.299200 56.811501 9.373050
-21.299200 56.811501 9.373050
-21.299200 57.193802 8.597750
-21.299200 57.471699 7.779150
21.299200 -52.798801 12.452050
21.299200 -51.950802 12.620650
21.299200 -51.088799 12.677150
-21.299200 -51.088799 12.677150
-21.299200 -51.950802 12.620650
-21.299200 -52.798801 12.452050
-21.299200 -53.617802 12.174150
21.299200 -53.617802 12.174150
21.299200 -51.088799 -12.677150
-21.299200 -51.088799 -12.677150
-21.299200 -57.696800 -12.677150
21.299200 -57.696800 -12.677150
-21.299200 51.088501 3.218950
-21.299200 50.991402 3.956550
21.299200 50.991402 3.956550
21.299200 51.088501 3.218950
-21.299200 51.088501 -12.677150
-21.299200 51.088501 3.218950
21.299200 51.088501 3.218950
21.299200 51.088501 -12.677150
21.299200 54.392700 11.791850
21.299200 56.811501 9.373050
21.299200 -56.811798 9.373050
21.299200 -53.617802 12.174150
21.299200 52.798901 12.452050
-21.299200 50.253799 5.234150
-21.299200 48.976200 5.971750
-21.299200 -49.663799 5.687050
-21.299200 -50.871799 4.309550
-21.299200 -51.088799 -12.677150
-21.299200 -57.696800 -12.677150
-21.299200 -57.471802 7.779150
-21.299200 -55.761799 10.741650
-21.299200 -53.617802 12.174150
-21.299200 52.798901 12.452050
-21.299200 54.392700 11.791850
-21.299200 56.811501 9.373050
-21.299200 57.471699 7.779150
-21.299200 57.696800 -12.677150
-21.299200 51.088501 -12.677150
-21.299200 50.991402 3.956550
21.299200 -51.088799 -12.677150
21.299200 -57.696800 -12.677150
21.299200 -49.663799 5.687050
21.299200 -50.871799 4.309550
21.299200 51.088501 3.218950
-21.299200 51.088501 3.218950
-21.299200 -50.499802 4.953850
-21.299200 -49.663799 5.687050
21.299200 -49.663799 5.687050
21.299200 -50.499802 4.953850
-21.299200 49.973499 5.479950
21.299200 49.973499 5.479950
21.299200 49.663502 5.687050
21.299200 48.976200 5.971750
-21.299200 48.976200 5.971750
-21.299200 49.663502 5.687050
-21.299200 -51.088799 3.218950
21.299200 -51.088799 3.218950
21.299200 -51.088799 -12.677150
-21.299200 -51.088799 -12.677150
21.299200 57.696800 -12.677150
-21.299200 57.696800 -12.677150
-21.299200 51.088501 -12.677150
21.299200 51.088501 -12.677150
21.299200 -51.088799 -12.677150
21.299200 -50.871799 4.309550
21.299200 -49.663799 5.687050
21.299200 -57.696800 -12.677150
-21.299200 -56.811798 9.373050
21.299200 -56.811798 9.373050
21.299200 -51.088799 3.218950
21.299200 -50.499802 4.953850
-21.299200 -50.499802 4.953850
-21.299200 -51.088799 3.218950
-21.299200 -48.975800 5.971750
-21.299200 -48.610802 6.044450
-21.299200 -48.238800 6.068850
21.299200 -48.238800 6.068850
21.299200 -48.610802 6.044450
21.299200 -48.975800 5.971750
21.299200 -49.328800 5.851850
-21.299200 -49.328800 5.851850
21.299200 48.238602 6.068850
-21.299200 48.238602 6.068850
21.299200 57.640301 6.931350
21.299200 57.696800 6.068850
-21.299200 57.696800 6.068850
-21.299200 57.640301 6.931350
-21.299200 57.471699 7.779150
-21.299200 57.193802 8.597750
21.299200 57.193802 8.597750
21.299200 57.471699 7.779150
-21.299200 -49.663799 5.687050
21.299200 -49.663799 5.687050
21.299200 -48.238800 6.068850
-21.299200 -48.238800 6.068850
21.299200 55.761299 10.741650
21.299200 55.111401 11.311550
21.299200 54.392700 11.791850
-21.299200 54.392700 11.791850
-21.299200 55.111401 11.311550
-21.299200 55.761299 10.741650
21.299200 -56.811798 9.373050
-21.299200 -56.811798 9.373050
-21.299200 48.238602 6.068850
21.299200 48.238602 6.068850
21.299200 51.088501 12.677150
-21.299200 51.088501 12.677150
21.299200 -57.696800 6.068850
-21.299200 -57.696800 6.068850
21.299200 -56.811798 9.373050
21.299200 56.811501 9.373050
21.299200 54.392700 11.791850
21.299200 52.798901 12.452050
21.299200 -53.617802 12.174150
-21.299200 51.088501 12.677150
21.299200 51.088501 12.677150
21.299200 -50.871799 4.309550
21.299200 -50.991798 3.956550
21.299200 -51.088799 3.218950
-21.299200 -51.088799 3.218950
-21.299200 -50.991798 3.956550
-21.299200 -50.871799 4.309550
21.299200 -57.696800 6.068850
-21.299200 -57.696800 6.068850
-21.299200 50.499599 4.953850
21.299200 50.499599 4.953850
21.299200 50.706699 4.643850
21.299200 50.871498 4.309550
-21.299200 50.871498 4.309550
-21.299200 50.706699 4.643850
-21.299200 -57.696800 -12.677150
-21.299200 -57.696800 6.068850
21.299200 -57.696800 6.068850
21.299200 -57.696800 -12.677150
-21.299200 -51.088799 -12.677150
21.299200 -51.088799 -12.677150
21.299200 -51.088799 3.218950
-21.299200 -51.088799 3.218950
21.299200 -57.696800 -12.677150
21.299200 -57.696800 6.068850
-21.299200 -57.696800 6.068850
-21.299200 -57.696800 -12.677150
7 0 1 2 3 4 5 6
3 3 2 7
4 8 9 10 11
4 12 13 14 15
4 16 17 18 19
10 20 21 22 23 24 25 26 27 28 29
3 30 7 2
4 31 32 33 34
4 35 36 37 38
4 39 40 41 42
4 43 44 45 46
4 47 48 49 50
7 51 52 53 54 55 56 57
16 58 59 60 61 62 63 64 65 66 67 68 69 70 71 72 73
4 74 75 76 77
4 78 79 80 81
8 82 83 84 85 86 87 88 89
4 90 91 92 93
3 53 94 95
10 96 97 98 99 100 101 102 103 104 105
3 94 53 52
8 106 107 108 109 110 111 112 113
4 114 115 116 117
4 118 119 120 121
4 122 123 124 125
7 126 127 53 95 128 129 130
16 131 132 133 134 135 136 137 138 139 140 141 142 143 144 145 146
6 147 148 95 94 149 150
4 151 27 26 152
4 153 154 155 156
8 157 22 21 158 159 160 161 162
4 163 164 165 166
4 167 168 169 170
6 171 172 173 7 30 174
4 113 112 175 176
4 177 178 179 180
10 181 182 183 184 185 186 187 155 154 188
4 189 190 161 160
10 191 192 193 194 195 196 85 84 197 198
4 199 200 201 202
4 179 178 200 199
8 203 204 205 206 207 208 103 102
4 10 9 209 210
4 211 212 34 33
4 205 213 214 206
4 215 176 175 216
7 217 30 2 218 219 220 221
4 89 88 222 223
8 153 156 224 225 226 227 228 229
4 210 209 230 231
10 232 32 31 233 234 235 120 119 236 237
4 238 239 240 241
4 242 243 244 245
4 246 247 248 249
