ply
format ascii 1.0
comment Created by Blender 2.82 (sub 7) - www.blender.org, source file: ''
element vertex 296
property float x
property float y
property float z
element face 62
property list uchar uint vertex_indices
end_header
19.094450 42.716549 13.385850
19.094450 -42.716499 13.385850
19.094450 -42.716499 12.598450
19.094450 42.716549 12.598450
17.322849 -40.944901 10.629950
17.322849 -43.307098 10.629950
17.322849 -43.307098 -14.566950
17.322849 -40.944901 -14.566950
-19.685049 -43.307098 14.566950
19.685049 -43.307098 14.566950
19.685049 43.307098 14.566950
-19.685049 43.307098 14.566950
-19.685049 -43.307098 12.992150
19.685049 -43.307098 12.992150
19.685049 -43.307098 14.566950
-19.685049 -43.307098 14.566950
-19.094500 42.716549 13.385850
19.094450 42.716549 13.385850
19.094450 -42.716499 13.385850
-19.094500 -42.716499 13.385850
-19.685049 -41.338600 -14.566950
-19.685049 -41.338600 10.629950
-17.716551 -41.338600 10.629950
-17.716551 -41.338600 -14.566950
-17.716551 41.338600 10.629950
-17.716551 43.307098 10.629950
-17.716551 43.307098 -14.566950
-17.716551 41.338600 -14.566950
19.094450 42.716549 12.598450
-19.094500 42.716549 12.598450
-19.094500 -42.716499 12.598450
-19.685049 -43.307098 12.598450
-19.685049 43.307098 12.598450
19.685049 43.307098 12.598450
19.685049 -43.307098 12.598450
19.094450 -42.716499 12.598450
-19.685049 43.307098 12.598450
-19.685049 43.307098 -14.566950
-19.685049 41.338600 -14.566950
-19.685049 41.338600 10.629950
-19.685049 -41.338600 10.629950
-19.685049 -41.338600 -14.566950
-19.685049 -43.307098 -14.566950
-19.685049 -43.307098 12.598450
19.094450 42.716549 13.385850
19.094450 42.716549 12.598450
-19.094500 42.716549 12.598450
-19.094500 42.716549 13.385850
19.685049 -43.307098 12.598450
19.685049 -43.307098 -14.566950
17.322849 -43.307098 -14.566950
17.322849 -43.307098 10.629950
-17.716551 -43.307098 10.629950
-17.716551 -43.307098 -14.566950
-19.685049 -43.307098 -14.566950
-19.685049 -43.307098 12.598450
19.685049 -43.307098 -14.566950
19.685049 -43.307098 12.598450
19.685049 43.307098 12.598450
19.685049 43.307098 -14.566950
19.685049 41.338600 -14.566950
19.685049 41.338600 10.629950
19.685049 -40.944901 10.629950
19.685049 -40.944901 -14.566950
-17.716551 -43.307098 10.629950
17.322849 -43.307098 10.629950
17.322849 -43.307098 -14.566950
19.685049 -43.307098 -14.566950
19.685049 -43.307098 12.598450
-19.685049 -43.307098 12.598450
-19.685049 -43.307098 -14.566950
-17.716551 -43.307098 -14.566950
17.322849 -40.944901 -14.566950
17.322849 -40.944901 10.629950
19.685049 -40.944901 10.629950
19.685049 -40.944901 -14.566950
19.685049 43.307098 14.566950
19.685049 -43.307098 14.566950
19.685049 -43.307098 12.992150
19.685049 43.307098 12.992150
17.322849 -40.944901 -14.566950
19.685049 -40.944901 -14.566950
19.685049 -43.307098 -14.566950
17.322849 -43.307098 -14.566950
-19.685049 43.307098 14.566950
19.685049 43.307098 14.566950
19.685049 -43.307098 14.566950
-19.685049 -43.307098 14.566950
-19.685049 41.338600 10.629950
-19.685049 41.338600 -14.566950
-17.716551 41.338600 -14.566950
-17.716551 41.338600 10.629950
-17.716551 -43.307098 -14.566950
-17.716551 -41.338600 -14.566950
-17.716551 -41.338600 10.629950
-17.716551 -43.307098 10.629950
-19.685049 -43.307098 14.566950
19.685049 -43.307098 14.566950
19.685049 -43.307098 12.992150
-19.685049 -43.307098 12.992150
19.094450 -42.716499 13.385850
-19.094500 -42.716499 13.385850
-19.094500 -42.716499 12.598450
19.094450 -42.716499 12.598450
-17.716551 41.338600 10.629950
-17.716551 41.338600 -14.566950
-19.685049 41.338600 -14.566950
-19.685049 41.338600 10.629950
17.716551 43.307098 10.629950
-17.716551 43.307098 10.629950
-17.716551 41.338600 10.629950
-19.685049 41.338600 10.629950
-19.685049 -41.338600 10.629950
-17.716551 -41.338600 10.629950
-17.716551 -43.307098 10.629950
17.322849 -43.307098 10.629950
17.322849 -40.944901 10.629950
19.685049 -40.944901 10.629950
19.685049 41.338600 10.629950
17.716551 41.338600 10.629950
-19.685049 -43.307098 -14.566950
-19.685049 -41.338600 -14.566950
-19.685049 -41.338600 10.629950
-19.685049 41.338600 10.629950
-19.685049 41.338600 -14.566950
-19.685049 43.307098 -14.566950
-19.685049 43.307098 12.598450
-19.685049 -43.307098 12.598450
19.685049 43.307098 14.566950
19.685049 43.307098 12.992150
-19.685049 43.307098 12.992150
-19.685049 43.307098 14.566950
19.685049 -43.307098 12.992150
19.094450 -42.716499 12.992150
19.094450 42.716549 12.992150
19.685049 43.307098 12.992150
-19.685049 -43.307098 -14.566950
-17.716551 -43.307098 -14.566950
-17.716551 -41.338600 -14.566950
-19.685049 -41.338600 -14.566950
17.716551 41.338600 10.629950
17.716551 41.338600 -14.566950
19.685049 41.338600 -14.566950
19.685049 41.338600 10.629950
19.685049 -40.944901 -14.566950
19.685049 -40.944901 10.629950
17.322849 -40.944901 10.629950
17.322849 -40.944901 -14.566950
-19.094500 42.716549 12.598450
19.094450 42.716549 12.598450
19.094450 -42.716499 12.598450
19.685049 -43.307098 12.598450
19.685049 43.307098 12.598450
-19.685049 43.307098 12.598450
-19.685049 -43.307098 12.598450
-19.094500 -42.716499 12.598450
19.094450 42.716549 12.598450
19.094450 -42.716499 12.598450
19.094450 -42.716499 13.385850
19.094450 42.716549 13.385850
-19.685049 41.338600 -14.566950
-17.716551 41.338600 -14.566950
-17.716551 43.307098 -14.566950
-19.685049 43.307098 -14.566950
19.685049 41.338600 10.629950
19.685049 41.338600 -14.566950
17.716551 41.338600 -14.566950
17.716551 41.338600 10.629950
-19.685049 43.307098 -14.566950
-17.716551 43.307098 -14.566950
-17.716551 41.338600 -14.566950
-19.685049 41.338600 -14.566950
17.716551 41.338600 -14.566950
19.685049 41.338600 -14.566950
19.685049 43.307098 -14.566950
17.716551 43.307098 -14.566950
-17.716551 41.338600 -14.566950
-17.716551 43.307098 -14.566950
-17.716551 43.307098 10.629950
-17.716551 41.338600 10.629950
17.716551 43.307098 -14.566950
19.685049 43.307098 -14.566950
19.685049 41.338600 -14.566950
17.716551 41.338600 -14.566950
-19.685049 -41.338600 -14.566950
-17.716551 -41.338600 -14.566950
-17.716551 -43.307098 -14.566950
-19.685049 -43.307098 -14.566950
-19.094500 -42.716499 13.385850
19.094450 -42.716499 13.385850
19.094450 42.716549 13.385850
-19.094500 42.716549 13.385850
17.716551 43.307098 -14.566950
17.716551 41.338600 -14.566950
17.716551 41.338600 10.629950
17.716551 43.307098 10.629950
19.094450 -42.716499 13.385850
19.094450 -42.716499 12.598450
-19.094500 -42.716499 12.598450
-19.094500 -42.716499 13.385850
-17.716551 -41.338600 -14.566950
-17.716551 -41.338600 10.629950
-19.685049 -41.338600 10.629950
-19.685049 -41.338600 -14.566950
-19.094500 42.716549 13.385850
-19.094500 42.716549 12.598450
19.094450 42.716549 12.598450
19.094450 42.716549 13.385850
17.716551 43.307098 10.629950
17.716551 41.338600 10.629950
17.716551 41.338600 -14.566950
17.716551 43.307098 -14.566950
17.322849 -43.307098 -14.566950
19.685049 -43.307098 -14.566950
19.685049 -40.944901 -14.566950
17.322849 -40.944901 -14.566950
17.716551 43.307098 10.629950
17.716551 43.307098 -14.566950
19.685049 43.307098 -14.566950
19.685049 43.307098 12.598450
-19.685049 43.307098 12.598450
-19.685049 43.307098 -14.566950
-17.716551 43.307098 -14.566950
-17.716551 43.307098 10.629950
17.716551 43.307098 -14.566950
17.716551 43.307098 10.629950
-17.716551 43.307098 10.629950
-17.716551 43.307098 -14.566950
-19.685049 43.307098 -14.566950
-19.685049 43.307098 12.598450
19.685049 43.307098 12.598450
19.685049 43.307098 -14.566950
-19.094500 -42.716499 13.385850
-19.094500 42.716549 13.385850
-19.094500 42.716549 12.598450
-19.094500 -42.716499 12.598450
-19.094500 42.716549 13.385850
-19.094500 -42.716499 13.385850
-19.094500 -42.716499 12.598450
-19.094500 42.716549 12.598450
17.322849 -40.944901 -14.566950
17.322849 -43.307098 -14.566950
17.322849 -43.307098 10.629950
17.322849 -40.944901 10.629950
-17.716551 -43.307098 10.629950
-17.716551 -41.338600 10.629950
-17.716551 -41.338600 -14.566950
-17.716551 -43.307098 -14.566950
17.716551 41.338600 10.629950
19.685049 41.338600 10.629950
19.685049 -40.944901 10.629950
17.322849 -40.944901 10.629950
17.322849 -43.307098 10.629950
-17.716551 -43.307098 10.629950
-17.716551 -41.338600 10.629950
-19.685049 -41.338600 10.629950
-19.685049 41.338600 10.629950
-17.716551 41.338600 10.629950
-17.716551 43.307098 10.629950
17.716551 43.307098 10.629950
-19.685049 43.307098 12.992150
-19.685049 43.307098 14.566950
-19.685049 -43.307098 14.566950
-19.685049 -43.307098 12.992150
-19.685049 -43.307098 12.992150
-19.685049 -43.307098 14.566950
-19.685049 43.307098 14.566950
-19.685049 43.307098 12.992150
-19.685049 43.307098 14.566950
-19.685049 43.307098 12.992150
19.685049 43.307098 12.992150
19.685049 43.307098 14.566950
-19.685049 -43.307098 12.992150
-19.685049 43.307098 12.992150
-19.094500 42.716549 12.992150
-19.094500 -42.716499 12.992150
19.685049 -40.944901 10.629950
19.685049 41.338600 10.629950
19.685049 41.338600 -14.566950
19.685049 43.307098 -14.566950
19.685049 43.307098 12.598450
19.685049 -43.307098 12.598450
19.685049 -43.307098 -14.566950
19.685049 -40.944901 -14.566950
19.685049 43.307098 12.992150
19.685049 -43.307098 12.992150
19.685049 -43.307098 14.566950
19.685049 43.307098 14.566950
-19.094500 42.716549 12.992150
19.094450 42.716549 12.992150
19.685049 43.307098 12.992150
-19.685049 43.307098 12.992150
-19.685049 -43.307098 12.992150
19.685049 -43.307098 12.992150
-19.094500 -42.716499 12.992150
19.094450 -42.716499 12.992150
4 0 1 2 3
4 4 5 6 7
4 8 9 10 11
4 12 13 14 15
4 16 17 18 19
4 20 21 22 23
4 24 25 26 27
8 28 29 30 31 32 33 34 35
8 36 37 38 39 40 41 42 43
4 44 45 46 47
8 48 49 50 51 52 53 54 55
8 56 57 58 59 60 61 62 63
8 64 65 66 67 68 69 70 71
4 72 73 74 75
4 76 77 78 79
4 80 81 82 83
4 84 85 86 87
4 88 89 90 91
4 92 93 94 95
4 96 97 98 99
4 100 101 102 103
4 104 105 106 107
12 108 109 110 111 112 113 114 115 116 117 118 119
8 120 121 122 123 124 125 126 127
4 128 129 130 131
4 132 133 134 135
4 136 137 138 139
4 140 141 142 143
4 144 145 146 147
7 148 149 150 151 152 153 154
5 151 150 155 148 154
4 156 157 158 159
4 31 30 35 34
4 160 161 162 163
4 164 165 166 167
4 168 169 170 171
4 172 173 174 175
4 176 177 178 179
4 180 181 182 183
4 184 185 186 187
4 188 189 190 191
4 192 193 194 195
4 196 197 198 199
4 200 201 202 203
4 204 205 206 207
4 208 209 210 211
4 212 213 214 215
8 216 217 218 219 220 221 222 223
8 224 225 226 227 228 229 230 231
4 232 233 234 235
4 236 237 238 239
4 240 241 242 243
4 244 245 246 247
12 248 249 250 251 252 253 254 255 256 257 258 259
4 260 261 262 263
4 264 265 266 267
4 268 269 270 271
8 132 272 273 135 134 274 275 133
8 276 277 278 279 280 281 282 283
4 284 285 286 287
7 288 289 290 291 292 293 294
5 289 295 294 293 290
