ply
format ascii 1.0
comment Created by Blender 2.82 (sub 7) - www.blender.org, source file: ''
element vertex 152
property float x
property float y
property float z
element face 38
property list uchar uint vertex_indices
end_header
18.687500 -34.437500 13.812500
-18.687500 -34.437500 13.812500
-18.687500 34.437500 13.812500
18.687500 34.437500 13.812500
17.687500 30.937500 13.812500
17.687500 -30.937500 13.812500
17.687500 -30.937500 10.812500
17.687500 30.937500 10.812500
18.187500 30.937500 -14.562500
18.187500 30.937500 13.812500
15.187500 30.937500 13.812500
15.187500 30.937500 -14.562500
-15.187500 33.937500 13.812500
-15.187500 30.937500 13.812500
-15.187500 30.937500 -14.562500
-15.187500 33.937500 -14.562500
18.687500 -34.437500 13.812500
18.687500 -34.437500 14.562500
-18.687500 -34.437500 14.562500
-18.687500 -34.437500 13.812500
15.187500 30.937500 13.812500
15.187500 33.937500 13.812500
15.187500 33.937500 -14.562500
15.187500 30.937500 -14.562500
18.187500 -30.937500 13.812500
18.187500 -30.937500 -14.562500
15.187500 -30.937500 -14.562500
15.187500 -30.937500 13.812500
18.187500 -33.937500 -14.562500
15.187500 -33.937500 -14.562500
15.187500 -30.937500 -14.562500
18.187500 -30.937500 -14.562500
-15.187500 30.937500 -14.562500
-15.187500 30.937500 13.812500
-18.187500 30.937500 13.812500
-18.187500 30.937500 -14.562500
16.687500 -30.937500 13.812500
16.687500 30.937500 13.812500
16.687500 30.937500 10.812500
16.687500 -30.937500 10.812500
-15.187500 30.937500 -14.562500
-18.187500 30.937500 -14.562500
-18.187500 33.937500 -14.562500
-15.187500 33.937500 -14.562500
-15.187500 -33.937500 -14.562500
-18.187500 -33.937500 -14.562500
-18.187500 -30.937500 -14.562500
-15.187500 -30.937500 -14.562500
-16.687500 30.937500 13.812500
-16.687500 -30.937500 13.812500
-16.687500 -30.937500 10.812500
-16.687500 30.937500 10.812500
17.687500 -30.937500 10.812500
16.687500 -30.937500 10.812500
16.687500 30.937500 10.812500
17.687500 30.937500 10.812500
-17.687500 -30.937500 13.812500
-17.687500 30.937500 13.812500
-17.687500 30.937500 10.812500
-17.687500 -30.937500 10.812500
18.687500 34.437500 14.562500
18.687500 34.437500 13.812500
-18.687500 34.437500 13.812500
-18.687500 34.437500 14.562500
-15.187500 -33.437500 10.812500
-15.187500 -32.437500 10.812500
15.187500 -32.437500 10.812500
15.187500 -33.437500 10.812500
18.187500 30.937500 -14.562500
15.187500 30.937500 -14.562500
15.187500 33.937500 -14.562500
18.187500 33.937500 -14.562500
-15.187500 -32.437500 13.812500
15.187500 -32.437500 13.812500
15.187500 -32.437500 10.812500
-15.187500 -32.437500 10.812500
15.187500 -33.437500 13.812500
-15.187500 -33.437500 13.812500
-15.187500 -33.437500 10.812500
15.187500 -33.437500 10.812500
-15.187500 32.437500 10.812500
-15.187500 33.437500 10.812500
15.187500 33.437500 10.812500
15.187500 32.437500 10.812500
18.687500 34.437500 14.562500
18.687500 -34.437500 14.562500
18.687500 -34.437500 13.812500
18.687500 34.437500 13.812500
-15.187500 33.937500 13.812500
-15.187500 33.937500 -14.562500
-18.187500 33.937500 -14.562500
-18.187500 33.937500 13.812500
-18.187500 30.937500 13.812500
-18.187500 33.937500 13.812500
-18.187500 33.937500 -14.562500
-18.187500 30.937500 -14.562500
-16.687500 -30.937500 10.812500
-17.687500 -30.937500 10.812500
-17.687500 30.937500 10.812500
-16.687500 30.937500 10.812500
-15.187500 -30.937500 13.812500
-15.187500 -30.937500 -14.562500
-18.187500 -30.937500 -14.562500
-18.187500 -30.937500 13.812500
18.187500 33.937500 13.812500
18.187500 30.937500 13.812500
18.187500 30.937500 -14.562500
18.187500 33.937500 -14.562500
-18.687500 -34.437500 14.562500
18.687500 -34.437500 14.562500
18.687500 34.437500 14.562500
-18.687500 34.437500 14.562500
18.187500 33.937500 13.812500
18.187500 33.937500 -14.562500
15.187500 33.937500 -14.562500
15.187500 33.937500 13.812500
-18.187500 -33.937500 13.812500
-18.187500 -30.937500 13.812500
-18.187500 -30.937500 -14.562500
-18.187500 -33.937500 -14.562500
-15.187500 33.437500 13.812500
15.187500 33.437500 13.812500
15.187500 33.437500 10.812500
-15.187500 33.437500 10.812500
15.187500 32.437500 13.812500
-15.187500 32.437500 13.812500
-15.187500 32.437500 10.812500
15.187500 32.437500 10.812500
-18.687500 -34.437500 14.562500
-18.687500 34.437500 14.562500
-18.687500 34.437500 13.812500
-18.687500 -34.437500 13.812500
18.187500 -33.937500 -14.562500
18.187500 -33.937500 13.812500
15.187500 -33.937500 13.812500
15.187500 -33.937500 -14.562500
18.187500 -30.937500 13.812500
18.187500 -33.937500 13.812500
18.187500 -33.937500 -14.562500
18.187500 -30.937500 -14.562500
15.187500 -33.937500 13.812500
15.187500 -30.937500 13.812500
15.187500 -30.937500 -14.562500
15.187500 -33.937500 -14.562500
-15.187500 -30.937500 13.812500
-15.187500 -33.937500 13.812500
-15.187500 -33.937500 -14.562500
-15.187500 -30.937500 -14.562500
-15.187500 -33.937500 -14.562500
-15.187500 -33.937500 13.812500
-18.187500 -33.937500 13.812500
-18.187500 -33.937500 -14.562500
4 0 1 2 3
4 4 5 6 7
4 8 9 10 11
4 12 13 14 15
4 16 17 18 19
4 20 21 22 23
4 24 25 26 27
4 28 29 30 31
4 32 33 34 35
4 36 37 38 39
4 40 41 42 43
4 44 45 46 47
4 48 49 50 51
4 52 53 54 55
4 56 57 58 59
4 60 61 62 63
4 64 65 66 67
4 68 69 70 71
4 72 73 74 75
4 76 77 78 79
4 80 81 82 83
4 84 85 86 87
4 88 89 90 91
4 92 93 94 95
4 96 97 98 99
4 100 101 102 103
4 104 105 106 107
4 108 109 110 111
4 112 113 114 115
4 116 117 118 119
4 120 121 122 123
4 124 125 126 127
4 128 129 130 131
4 132 133 134 135
4 136 137 138 139
4 140 141 142 143
4 144 145 146 147
4 148 149 150 151
