ply
format ascii 1.0
comment Created by Blender 2.82 (sub 7) - www.blender.org, source file: ''
element vertex 200
property float x
property float y
property float z
element face 50
property list uchar uint vertex_indices
end_header
-6.437500 18.800495 5.820850
-6.437500 19.221062 5.400250
-12.875000 19.221062 5.400250
-12.875000 18.800495 5.820850
-12.875000 19.221062 5.400250
-12.875000 19.375000 -5.974750
-6.437500 19.375000 -5.974750
-6.437500 19.221062 5.400250
-12.875000 -18.800501 5.820850
-6.437500 -18.800501 5.820850
-6.437500 18.225990 5.974750
-12.875000 18.225990 5.974750
12.875000 -18.125000 4.724750
-12.875000 -18.125000 4.724750
-12.875000 18.125000 4.724750
12.875000 18.125000 4.724750
-6.437500 -19.221100 5.400250
-12.875000 -19.221100 5.400250
12.875000 -19.221100 5.400250
6.437500 -19.221100 5.400250
6.437500 -19.375000 -5.974750
12.875000 -19.375000 -5.974750
12.875000 18.125000 -5.974750
12.875000 18.125000 4.724750
-12.875000 18.125000 4.724750
-12.875000 18.125000 -5.974750
-6.437500 18.800495 5.820850
-6.437500 19.221062 5.400250
6.437500 19.221062 5.400250
6.437500 18.800495 5.820850
-12.875000 -18.800501 5.820850
-12.875000 18.800495 5.820850
-12.875000 19.221062 5.400250
-12.875000 19.375000 -5.974750
-12.875000 18.125000 -5.974750
-12.875000 18.125000 4.724750
-12.875000 -18.125000 4.724750
-12.875000 -18.125000 -5.974750
-12.875000 -19.375000 -5.974750
-12.875000 -19.221100 5.400250
6.437500 18.800495 5.820850
12.875000 18.800495 5.820850
12.875000 18.225990 5.974750
6.437500 18.225990 5.974750
12.875000 -18.800501 5.820850
6.437500 -18.800501 5.820850
-6.437500 19.221062 5.400250
-6.437500 19.375000 -5.974750
-12.875000 19.375000 -5.974750
-12.875000 19.221062 5.400250
6.437500 19.221062 5.400250
6.437500 19.375000 -5.974750
12.875000 19.375000 -5.974750
12.875000 19.221062 5.400250
-12.875000 -19.375000 -5.974750
-12.875000 -18.125000 -5.974750
12.875000 -18.125000 -5.974750
12.875000 -19.375000 -5.974750
12.875000 -18.125000 -5.974750
-12.875000 -18.125000 -5.974750
-12.875000 -19.375000 -5.974750
12.875000 -19.375000 -5.974750
-12.875000 19.375000 -5.974750
-12.875000 18.125000 -5.974750
12.875000 18.125000 -5.974750
12.875000 19.375000 -5.974750
12.875000 18.125000 4.724750
-12.875000 18.125000 4.724750
-12.875000 -18.125000 4.724750
12.875000 -18.125000 4.724750
-12.875000 18.225990 5.974750
-6.437500 18.225990 5.974750
-6.437500 18.800495 5.820850
-12.875000 18.800495 5.820850
6.437500 18.225990 5.974750
6.437500 -18.800501 5.820850
-6.437500 -18.800501 5.820850
-6.437500 18.225990 5.974750
-12.875000 19.375000 -5.974750
12.875000 19.375000 -5.974750
12.875000 18.125000 -5.974750
-12.875000 18.125000 -5.974750
-6.437500 -19.221100 5.400250
6.437500 -19.221100 5.400250
6.437500 -19.375000 -5.974750
-6.437500 -19.375000 -5.974750
12.875000 19.221062 5.400250
12.875000 18.800495 5.820850
12.875000 -18.800501 5.820850
12.875000 -19.221100 5.400250
12.875000 -19.375000 -5.974750
12.875000 -18.125000 -5.974750
12.875000 -18.125000 4.724750
12.875000 18.125000 4.724750
12.875000 18.125000 -5.974750
12.875000 19.375000 -5.974750
6.437500 19.221062 5.400250
6.437500 19.375000 -5.974750
-6.437500 19.375000 -5.974750
-6.437500 19.221062 5.400250
-6.437500 -18.800501 5.820850
-12.875000 -18.800501 5.820850
-12.875000 18.225990 5.974750
-6.437500 18.225990 5.974750
6.437500 -19.221100 5.400250
6.437500 -18.800501 5.820850
12.875000 -18.800501 5.820850
12.875000 -19.221100 5.400250
-12.875000 19.221062 5.400250
-12.875000 18.800495 5.820850
-12.875000 -18.800501 5.820850
-12.875000 -19.221100 5.400250
-12.875000 -19.375000 -5.974750
-12.875000 -18.125000 -5.974750
-12.875000 -18.125000 4.724750
-12.875000 18.125000 4.724750
-12.875000 18.125000 -5.974750
-12.875000 19.375000 -5.974750
6.437500 -19.221100 5.400250
-6.437500 -19.221100 5.400250
-6.437500 -19.375000 -5.974750
6.437500 -19.375000 -5.974750
12.875000 -19.221100 5.400250
12.875000 -18.800501 5.820850
12.875000 18.800495 5.820850
12.875000 19.221062 5.400250
12.875000 19.375000 -5.974750
12.875000 18.125000 -5.974750
12.875000 18.125000 4.724750
12.875000 -18.125000 4.724750
12.875000 -18.125000 -5.974750
12.875000 -19.375000 -5.974750
-12.875000 -18.125000 4.724750
-12.875000 -18.125000 -5.974750
12.875000 -18.125000 -5.974750
12.875000 -18.125000 4.724750
12.875000 -18.125000 4.724750
12.875000 -18.125000 -5.974750
-12.875000 -18.125000 -5.974750
-12.875000 -18.125000 4.724750
6.437500 18.225990 5.974750
-6.437500 18.225990 5.974750
-6.437500 -18.800501 5.820850
6.437500 -18.800501 5.820850
-6.437500 -19.375000 -5.974750
-12.875000 -19.375000 -5.974750
-12.875000 -19.221100 5.400250
-6.437500 -19.221100 5.400250
-6.437500 19.221062 5.400250
-6.437500 19.375000 -5.974750
6.437500 19.375000 -5.974750
6.437500 19.221062 5.400250
-12.875000 18.800495 5.820850
-6.437500 18.800495 5.820850
-6.437500 18.225990 5.974750
-12.875000 18.225990 5.974750
-6.437500 18.225990 5.974750
6.437500 18.225990 5.974750
6.437500 18.800495 5.820850
-6.437500 18.800495 5.820850
6.437500 18.800495 5.820850
6.437500 19.221062 5.400250
12.875000 19.221062 5.400250
12.875000 18.800495 5.820850
-12.875000 18.125000 -5.974750
-12.875000 18.125000 4.724750
12.875000 18.125000 4.724750
12.875000 18.125000 -5.974750
-12.875000 18.800495 5.820850
-12.875000 19.221062 5.400250
-6.437500 19.221062 5.400250
-6.437500 18.800495 5.820850
12.875000 18.800495 5.820850
12.875000 19.221062 5.400250
6.437500 19.221062 5.400250
6.437500 18.800495 5.820850
-6.437500 18.800495 5.820850
6.437500 18.800495 5.820850
6.437500 18.225990 5.974750
-6.437500 18.225990 5.974750
6.437500 18.225990 5.974750
12.875000 18.225990 5.974750
12.875000 18.800495 5.820850
6.437500 18.800495 5.820850
12.875000 19.221062 5.400250
12.875000 19.375000 -5.974750
6.437500 19.375000 -5.974750
6.437500 19.221062 5.400250
6.437500 18.800495 5.820850
6.437500 19.221062 5.400250
-6.437500 19.221062 5.400250
-6.437500 18.800495 5.820850
6.437500 18.225990 5.974750
12.875000 18.225990 5.974750
-12.875000 -19.375000 -5.974750
-6.437500 -19.375000 -5.974750
12.875000 18.225990 5.974750
6.437500 18.225990 5.974750
12.875000 -19.375000 -5.974750
6.437500 -19.375000 -5.974750
4 0 1 2 3
4 4 5 6 7
4 8 9 10 11
4 12 13 14 15
4 16 9 8 17
4 18 19 20 21
4 22 23 24 25
4 26 27 28 29
10 30 31 32 33 34 35 36 37 38 39
4 40 41 42 43
4 18 44 45 19
4 46 47 48 49
4 50 51 52 53
4 54 55 56 57
4 58 59 60 61
4 62 63 64 65
4 66 67 68 69
4 70 71 72 73
4 74 75 76 77
4 78 79 80 81
4 82 83 84 85
10 86 87 88 89 90 91 92 93 94 95
4 96 97 98 99
4 100 101 102 103
4 104 105 106 107
10 108 109 110 111 112 113 114 115 116 117
4 118 119 120 121
10 122 123 124 125 126 127 128 129 130 131
4 132 133 134 135
4 136 137 138 139
4 140 141 142 143
4 144 16 17 145
4 146 101 100 147
4 148 149 150 151
4 152 153 154 155
4 156 157 158 159
4 160 161 162 163
4 164 165 166 167
4 168 169 170 171
4 172 173 174 175
4 176 177 178 179
4 180 181 182 183
4 184 185 186 187
4 188 189 190 191
4 192 45 44 193
4 194 146 147 195
4 118 143 142 119
4 82 76 75 83
4 196 106 105 197
4 104 107 198 199
