ply
format ascii 1.0
comment Created by Blender 2.82 (sub 7) - www.blender.org, source file: ''
element vertex 320
property float x
property float y
property float z
element face 96
property list uchar uint vertex_indices
end_header
15.000020 35.000000 15.000000
15.000020 -35.000000 15.000000
15.000020 -35.000000 13.750000
15.000020 35.000000 13.750000
-0.250020 22.560659 -12.000000
-0.250020 30.560659 -15.000000
0.249980 30.560659 -15.000000
0.249980 22.560659 -12.000000
9.060620 -21.250000 -15.000000
9.060620 -21.750000 -15.000000
1.060620 -21.750000 -15.000000
1.060620 -21.250000 -15.000000
-15.000020 35.000000 13.750000
15.000020 35.000000 13.750000
15.000020 -35.000000 13.750000
1.060620 22.560659 13.750000
-1.060680 22.560659 13.750000
-1.060680 20.439341 13.750000
-15.000020 -35.000000 13.750000
1.060620 21.750000 -12.000000
9.060620 21.750000 -15.000000
9.060620 21.250000 -15.000000
1.060620 21.250000 -12.000000
0.249980 -22.560699 -12.000000
0.249980 -30.560699 -15.000000
-0.250020 -30.560699 -15.000000
-0.250020 -22.560699 -12.000000
1.060620 -20.439301 13.750000
1.060620 -20.439301 -15.000000
-1.060680 -20.439301 -15.000000
-1.060680 -20.439301 13.750000
9.060620 21.750000 -15.000000
9.060620 21.250000 -15.000000
1.060620 21.250000 -15.000000
1.060620 21.750000 -15.000000
-15.000020 35.000000 15.000000
15.000020 35.000000 15.000000
15.000020 -35.000000 15.000000
-15.000020 -35.000000 15.000000
1.060620 22.560659 -15.000000
1.060620 20.439341 -15.000000
1.060620 20.439341 13.750000
1.060620 22.560659 13.750000
1.060620 -20.439301 -15.000000
1.060620 -22.560699 -15.000000
1.060620 -22.560699 13.750000
1.060620 -20.439301 13.750000
15.000020 -35.000000 13.750000
15.000020 35.000000 13.750000
-15.000020 35.000000 13.750000
-1.060680 22.560659 13.750000
1.060620 22.560659 13.750000
1.060620 20.439341 13.750000
-1.060680 20.439341 13.750000
-15.000020 -35.000000 13.750000
15.000020 35.000000 13.750000
15.000020 -35.000000 13.750000
15.000020 -35.000000 15.000000
15.000020 35.000000 15.000000
-1.060680 21.750002 -15.000000
-9.060680 21.750002 -15.000000
-9.060680 21.250002 -15.000000
-1.060680 21.250002 -15.000000
0.249980 12.439340 -15.000000
-0.250020 12.439340 -15.000000
-0.250020 20.439341 -15.000000
0.249980 20.439341 -15.000000
-1.060680 20.439341 -15.000000
1.060620 20.439341 -15.000000
1.060620 20.439341 13.750000
-1.060680 20.439341 13.750000
-1.060680 22.560659 13.750000
-1.060680 22.560659 -15.000000
-15.000020 -35.000000 15.000000
-15.000020 35.000000 15.000000
-15.000020 35.000000 13.750000
-15.000020 -35.000000 13.750000
-1.060680 20.439341 -15.000000
-1.060680 22.560659 -15.000000
-1.060680 22.560659 13.750000
-1.060680 20.439341 13.750000
1.060620 22.560659 13.750000
1.060620 22.560659 -15.000000
-1.060680 -22.560699 13.750000
-1.060680 -22.560699 -15.000000
-1.060680 21.750002 -12.000000
-1.060680 21.750002 -15.000000
-9.060680 21.750002 -15.000000
1.060620 20.439341 13.750000
-1.060680 20.439341 13.750000
-1.060680 22.560659 13.750000
1.060620 22.560659 13.750000
-9.060680 -21.750000 -15.000000
-9.060680 -21.250000 -15.000000
-1.060680 -21.250000 -15.000000
-1.060680 -21.750000 -15.000000
-1.060680 21.250002 -12.000000
-9.060680 21.250002 -15.000000
-1.060680 21.250002 -15.000000
-9.060680 21.750002 -15.000000
-1.060680 21.750002 -15.000000
-1.060680 21.750002 -12.000000
-15.000020 -35.000000 13.750000
-15.000020 35.000000 13.750000
-15.000020 35.000000 15.000000
-15.000020 -35.000000 15.000000
-1.060680 -21.750000 -15.000000
-1.060680 -21.250000 -15.000000
-9.060680 -21.250000 -15.000000
-9.060680 -21.750000 -15.000000
-1.060680 21.250002 -15.000000
-9.060680 21.250002 -15.000000
-1.060680 21.250002 -12.000000
-0.250020 20.439341 -12.000000
-0.250020 20.439341 -15.000000
-0.250020 12.439340 -15.000000
0.249980 20.439341 -12.000000
0.249980 12.439340 -15.000000
0.249980 20.439341 -15.000000
-0.250020 12.439340 -15.000000
-0.250020 20.439341 -15.000000
-0.250020 20.439341 -12.000000
-0.250020 20.439341 -12.000000
-0.250020 12.439340 -15.000000
0.249980 12.439340 -15.000000
0.249980 20.439341 -12.000000
-15.000020 -35.000000 15.000000
15.000020 -35.000000 15.000000
15.000020 35.000000 15.000000
-15.000020 35.000000 15.000000
-0.250020 -20.439301 -15.000000
0.249980 -20.439301 -15.000000
0.249980 -12.439300 -15.000000
-0.250020 -12.439300 -15.000000
0.249980 20.439341 -15.000000
0.249980 12.439340 -15.000000
0.249980 20.439341 -12.000000
0.249980 22.560659 -12.000000
0.249980 22.560659 -15.000000
0.249980 30.560659 -15.000000
-0.250020 20.439341 -15.000000
-0.250020 12.439340 -15.000000
0.249980 12.439340 -15.000000
0.249980 20.439341 -15.000000
-0.250020 22.560659 -12.000000
-0.250020 30.560659 -15.000000
-0.250020 22.560659 -15.000000
0.249980 30.560659 -15.000000
0.249980 22.560659 -15.000000
0.249980 22.560659 -12.000000
15.000020 -35.000000 13.750000
15.000020 -35.000000 15.000000
-15.000020 -35.000000 15.000000
-15.000020 -35.000000 13.750000
1.060620 22.560659 13.750000
-1.060680 22.560659 13.750000
-1.060680 20.439341 13.750000
1.060620 20.439341 13.750000
-0.250020 22.560659 -15.000000
-0.250020 30.560659 -15.000000
-0.250020 22.560659 -12.000000
1.060620 21.250000 -12.000000
1.060620 21.250000 -15.000000
9.060620 21.250000 -15.000000
0.249980 22.560659 -15.000000
0.249980 30.560659 -15.000000
-0.250020 30.560659 -15.000000
-0.250020 22.560659 -15.000000
1.060620 21.250000 -12.000000
9.060620 21.250000 -15.000000
9.060620 21.750000 -15.000000
1.060620 21.750000 -12.000000
1.060620 21.750000 -12.000000
9.060620 21.750000 -15.000000
1.060620 21.750000 -15.000000
9.060620 21.250000 -15.000000
1.060620 21.250000 -15.000000
1.060620 21.250000 -12.000000
-15.000020 -35.000000 13.750000
-15.000020 -35.000000 15.000000
15.000020 -35.000000 15.000000
15.000020 -35.000000 13.750000
-1.060680 21.750002 -12.000000
-9.060680 21.750002 -15.000000
-9.060680 21.250002 -15.000000
-1.060680 21.250002 -12.000000
1.060620 21.750000 -15.000000
9.060620 21.750000 -15.000000
1.060620 21.750000 -12.000000
1.060620 -22.560699 13.750000
1.060620 -22.560699 -15.000000
0.249980 -22.560699 -15.000000
-0.250020 -22.560699 -15.000000
-0.250020 -30.560699 -15.000000
0.249980 -30.560699 -15.000000
1.060620 20.439341 13.750000
-1.060680 -22.560699 -15.000000
-1.060680 -22.560699 13.750000
1.060620 21.250000 -15.000000
9.060620 21.250000 -15.000000
9.060620 21.750000 -15.000000
1.060620 21.750000 -15.000000
-1.060680 21.250002 -12.000000
-9.060680 21.250002 -15.000000
-9.060680 21.750002 -15.000000
-1.060680 21.750002 -12.000000
-1.060680 -21.250000 -12.000000
-1.060680 -21.250000 -15.000000
-9.060680 -21.250000 -15.000000
15.000020 35.000000 15.000000
15.000020 35.000000 13.750000
-15.000020 35.000000 13.750000
-15.000020 35.000000 15.000000
-1.060680 -21.250000 -12.000000
-9.060680 -21.250000 -15.000000
-9.060680 -21.750000 -15.000000
-1.060680 -21.750000 -12.000000
-1.060680 21.750002 -15.000000
-1.060680 21.250002 -15.000000
-9.060680 21.250002 -15.000000
-9.060680 21.750002 -15.000000
-1.060680 -21.750000 -12.000000
-9.060680 -21.750000 -15.000000
-1.060680 -21.750000 -15.000000
-9.060680 -21.250000 -15.000000
-1.060680 -21.250000 -15.000000
-1.060680 -21.250000 -12.000000
-1.060680 -20.439301 13.750000
-1.060680 -20.439301 -15.000000
-15.000020 35.000000 15.000000
-15.000020 35.000000 13.750000
15.000020 35.000000 13.750000
15.000020 35.000000 15.000000
-1.060680 -21.750000 -15.000000
-9.060680 -21.750000 -15.000000
-1.060680 -21.750000 -12.000000
-0.250020 -22.560699 -12.000000
-0.250020 -22.560699 -15.000000
-0.250020 -30.560699 -15.000000
-0.250020 -22.560699 -12.000000
-0.250020 -30.560699 -15.000000
0.249980 -30.560699 -15.000000
0.249980 -22.560699 -12.000000
0.249980 -30.560699 -15.000000
-0.250020 -30.560699 -15.000000
-0.250020 -22.560699 -15.000000
0.249980 -22.560699 -15.000000
0.249980 -22.560699 -12.000000
0.249980 -30.560699 -15.000000
0.249980 -22.560699 -15.000000
-0.250020 -30.560699 -15.000000
-0.250020 -22.560699 -15.000000
-0.250020 -22.560699 -12.000000
-1.060680 -21.750000 -12.000000
-9.060680 -21.750000 -15.000000
-9.060680 -21.250000 -15.000000
-1.060680 -21.250000 -12.000000
0.249980 -22.560699 -15.000000
0.249980 -30.560699 -15.000000
0.249980 -22.560699 -12.000000
0.249980 -20.439301 -12.000000
0.249980 -20.439301 -15.000000
0.249980 -12.439300 -15.000000
0.249980 20.439341 -12.000000
0.249980 12.439340 -15.000000
-0.250020 12.439340 -15.000000
-0.250020 20.439341 -12.000000
-0.250020 -12.439300 -15.000000
0.249980 -12.439300 -15.000000
0.249980 -20.439301 -15.000000
-0.250020 -20.439301 -15.000000
-0.250020 -20.439301 -12.000000
-0.250020 -12.439300 -15.000000
-0.250020 -20.439301 -15.000000
0.249980 -12.439300 -15.000000
0.249980 -20.439301 -15.000000
0.249980 -20.439301 -12.000000
0.249980 -20.439301 -12.000000
0.249980 -12.439300 -15.000000
-0.250020 -12.439300 -15.000000
-0.250020 -20.439301 -12.000000
-0.250020 30.560659 -15.000000
0.249980 30.560659 -15.000000
0.249980 22.560659 -15.000000
-0.250020 22.560659 -15.000000
-0.250020 -20.439301 -15.000000
-0.250020 -12.439300 -15.000000
-0.250020 -20.439301 -12.000000
1.060620 -21.750000 -12.000000
1.060620 -21.750000 -15.000000
9.060620 -21.750000 -15.000000
0.249980 22.560659 -12.000000
0.249980 30.560659 -15.000000
-0.250020 30.560659 -15.000000
-0.250020 22.560659 -12.000000
1.060620 -21.750000 -12.000000
9.060620 -21.750000 -15.000000
9.060620 -21.250000 -15.000000
1.060620 -21.250000 -12.000000
1.060620 -21.250000 -12.000000
9.060620 -21.250000 -15.000000
1.060620 -21.250000 -15.000000
9.060620 -21.750000 -15.000000
1.060620 -21.750000 -15.000000
1.060620 -21.750000 -12.000000
1.060620 -21.250000 -12.000000
9.060620 -21.250000 -15.000000
9.060620 -21.750000 -15.000000
1.060620 -21.750000 -12.000000
1.060620 -21.250000 -15.000000
1.060620 -21.750000 -15.000000
9.060620 -21.750000 -15.000000
9.060620 -21.250000 -15.000000
1.060620 -21.250000 -15.000000
9.060620 -21.250000 -15.000000
1.060620 -21.250000 -12.000000
-0.250020 -20.439301 -12.000000
-0.250020 -12.439300 -15.000000
0.249980 -12.439300 -15.000000
0.249980 -20.439301 -12.000000
4 0 1 2 3
4 4 5 6 7
4 8 9 10 11
7 12 13 14 15 16 17 18
4 19 20 21 22
4 23 24 25 26
4 27 28 29 30
4 31 32 33 34
4 35 36 37 38
4 39 40 41 42
4 43 44 45 46
8 47 48 49 50 51 52 53 54
4 55 56 57 58
4 59 60 61 62
4 63 64 65 66
4 67 68 69 70
4 70 71 72 67
4 50 49 54 53
4 73 74 75 76
4 77 78 79 80
4 77 80 41 40
4 81 69 68 82
4 83 30 29 84
3 85 86 87
4 88 89 90 91
4 81 82 72 71
4 92 93 94 95
3 96 97 98
3 99 100 101
4 102 103 104 105
4 106 107 108 109
3 110 111 112
3 113 114 115
3 116 117 118
3 119 120 121
4 122 123 124 125
4 126 127 128 129
4 130 131 132 133
3 134 135 136
3 137 138 139
4 140 141 142 143
3 144 145 146
3 147 148 149
4 150 151 152 153
4 154 155 156 157
3 158 159 160
3 161 162 163
4 164 165 166 167
4 168 169 170 171
3 172 173 174
3 175 176 177
4 178 179 180 181
4 182 183 184 185
3 186 187 188
4 189 83 84 190
4 191 192 193 194
4 27 189 190 28
4 79 78 39 42
5 18 17 195 15 14
4 196 197 45 44
4 198 199 200 201
4 202 203 204 205
3 206 207 208
4 209 210 211 212
4 213 214 215 216
4 217 218 219 220
3 221 222 223
3 224 225 226
4 227 228 43 46
4 229 230 231 232
3 233 234 235
3 236 237 238
4 239 240 241 242
4 243 244 245 246
3 247 248 249
3 250 251 252
4 253 254 255 256
4 196 228 227 197
3 257 258 259
3 260 261 262
4 263 264 265 266
4 267 268 269 270
3 271 272 273
3 274 275 276
4 277 278 279 280
4 281 282 283 284
3 285 286 287
3 288 289 290
4 291 292 293 294
4 295 296 297 298
3 299 300 301
3 302 303 304
4 305 306 307 308
4 309 310 311 312
3 313 314 315
4 316 317 318 319
