ply
format ascii 1.0
comment Created by Blender 2.82 (sub 7) - www.blender.org, source file: ''
element vertex 142
property float x
property float y
property float z
element face 33
property list uchar uint vertex_indices
end_header
30.000000 28.000000 -21.000000
28.000000 28.000000 -21.000000
28.000000 30.000000 -21.000000
30.000000 30.000000 -21.000000
30.000000 -28.000000 19.000000
30.000000 28.000000 19.000000
30.000000 28.000000 -21.000000
30.000000 30.000000 -21.000000
30.000000 30.000000 21.000000
30.000000 -30.000000 21.000000
30.000000 -30.000000 -21.000000
30.000000 -28.000000 -21.000000
-28.000000 28.000000 19.000000
-30.000000 28.000000 19.000000
-30.000000 -28.000000 19.000000
-28.000000 -28.000000 19.000000
30.000000 -28.000000 19.000000
28.000000 -28.000000 19.000000
28.000000 28.000000 19.000000
30.000000 28.000000 19.000000
30.000000 -30.000000 21.000000
-30.000000 -30.000000 21.000000
-30.000000 -30.000000 -21.000000
-28.000000 -30.000000 -21.000000
-28.000000 -30.000000 19.000000
28.000000 -30.000000 19.000000
28.000000 -30.000000 -21.000000
30.000000 -30.000000 -21.000000
28.000000 28.000000 19.000000
28.000000 30.000000 19.000000
28.000000 30.000000 -21.000000
28.000000 28.000000 -21.000000
28.000000 28.000000 19.000000
28.000000 28.000000 21.000000
-28.000000 28.000000 21.000000
-28.000000 28.000000 19.000000
-28.000000 28.000000 -21.000000
-30.000000 28.000000 -21.000000
-30.000000 30.000000 -21.000000
-28.000000 30.000000 -21.000000
-28.000000 -30.000000 -21.000000
-30.000000 -30.000000 -21.000000
-30.000000 -28.000000 -21.000000
-28.000000 -28.000000 -21.000000
30.000000 28.000000 -21.000000
30.000000 28.000000 19.000000
28.000000 28.000000 -21.000000
-28.000000 30.000000 19.000000
-28.000000 28.000000 19.000000
-28.000000 28.000000 -21.000000
-28.000000 30.000000 -21.000000
28.000000 28.000000 19.000000
-28.000000 28.000000 19.000000
-28.000000 30.000000 19.000000
28.000000 30.000000 19.000000
28.000000 28.000000 19.000000
-28.000000 28.000000 19.000000
-28.000000 -28.000000 19.000000
28.000000 -28.000000 19.000000
30.000000 -28.000000 19.000000
30.000000 -28.000000 -21.000000
28.000000 -28.000000 -21.000000
28.000000 -28.000000 19.000000
-28.000000 28.000000 21.000000
-28.000000 -28.000000 21.000000
-28.000000 -28.000000 19.000000
-28.000000 -28.000000 21.000000
28.000000 -28.000000 21.000000
28.000000 28.000000 21.000000
-28.000000 28.000000 21.000000
-28.000000 28.000000 -21.000000
-30.000000 28.000000 19.000000
-30.000000 28.000000 -21.000000
-28.000000 -30.000000 19.000000
-28.000000 -30.000000 -21.000000
-28.000000 -28.000000 -21.000000
-30.000000 28.000000 19.000000
-30.000000 -28.000000 19.000000
-30.000000 -28.000000 -21.000000
-30.000000 -30.000000 -21.000000
-30.000000 -30.000000 21.000000
-30.000000 30.000000 21.000000
-30.000000 30.000000 -21.000000
-30.000000 28.000000 -21.000000
28.000000 28.000000 21.000000
30.000000 30.000000 21.000000
-30.000000 30.000000 21.000000
-30.000000 -30.000000 21.000000
28.000000 -28.000000 21.000000
-28.000000 -28.000000 21.000000
-28.000000 28.000000 21.000000
30.000000 -30.000000 21.000000
28.000000 30.000000 19.000000
-28.000000 30.000000 19.000000
-28.000000 30.000000 -21.000000
-30.000000 30.000000 -21.000000
-30.000000 30.000000 21.000000
30.000000 30.000000 21.000000
30.000000 30.000000 -21.000000
28.000000 30.000000 -21.000000
-28.000000 -28.000000 19.000000
-28.000000 -28.000000 -21.000000
-30.000000 -28.000000 -21.000000
-30.000000 -28.000000 19.000000
30.000000 -30.000000 -21.000000
28.000000 -30.000000 -21.000000
28.000000 -28.000000 -21.000000
30.000000 -28.000000 -21.000000
28.000000 -30.000000 19.000000
28.000000 -28.000000 19.000000
28.000000 -28.000000 -21.000000
28.000000 -30.000000 -21.000000
28.000000 -28.000000 19.000000
-28.000000 -28.000000 19.000000
-28.000000 28.000000 19.000000
28.000000 28.000000 19.000000
-28.000000 -28.000000 19.000000
-30.000000 -28.000000 19.000000
-30.000000 28.000000 19.000000
-28.000000 28.000000 19.000000
30.000000 28.000000 19.000000
28.000000 28.000000 19.000000
28.000000 -28.000000 19.000000
30.000000 -28.000000 19.000000
28.000000 -28.000000 21.000000
28.000000 28.000000 21.000000
28.000000 -30.000000 19.000000
-28.000000 -30.000000 19.000000
-28.000000 -28.000000 19.000000
28.000000 -28.000000 19.000000
-28.000000 -28.000000 21.000000
-28.000000 -28.000000 19.000000
28.000000 -28.000000 19.000000
28.000000 -28.000000 21.000000
28.000000 -28.000000 21.000000
28.000000 -28.000000 19.000000
-28.000000 -28.000000 19.000000
-28.000000 -28.000000 21.000000
-28.000000 28.000000 21.000000
28.000000 28.000000 21.000000
28.000000 -28.000000 21.000000
-28.000000 -28.000000 21.000000
4 0 1 2 3
8 4 5 6 7 8 9 10 11
4 12 13 14 15
4 16 17 18 19
8 20 21 22 23 24 25 26 27
4 28 29 30 31
4 32 33 34 35
4 36 37 38 39
4 40 41 42 43
4 44 45 32 46
4 47 48 49 50
4 51 52 53 54
4 55 56 57 58
4 59 60 61 62
4 63 64 65 48
4 66 67 68 69
4 70 35 71 72
4 65 73 74 75
8 76 77 78 79 80 81 82 83
7 84 85 86 87 88 89 90
5 88 87 91 85 84
8 92 93 94 95 96 97 98 99
4 100 101 102 103
4 104 105 106 107
4 108 109 110 111
4 112 113 114 115
4 116 117 118 119
4 120 121 122 123
4 124 125 28 109
4 126 127 128 129
4 130 131 132 133
4 134 135 136 137
4 138 139 140 141
