ply
format ascii 1.0
comment Created by Blender 2.82 (sub 7) - www.blender.org, source file: ''
element vertex 376
property float x
property float y
property float z
element face 92
property list uchar uint vertex_indices
end_header
15.000000 -27.000000 -8.000000
15.000000 -27.000000 -7.000000
15.000000 27.000000 -7.000000
15.000000 27.000000 -8.000000
-12.000000 -27.000000 -8.000000
15.000000 -27.000000 -8.000000
15.000000 27.000000 -8.000000
12.000000 27.000000 -8.000000
-15.000000 27.000000 -8.000000
-15.000000 -27.000000 -8.000000
-10.000000 25.000000 8.000000
-10.000000 2.500000 8.000000
-10.000000 2.500000 11.000000
-10.000000 25.000000 11.000000
15.000000 -27.000000 -7.000000
-12.000000 -27.000000 -7.000000
12.000000 -27.000000 -7.000000
-15.000000 -27.000000 8.000000
-12.000000 -27.000000 8.000000
-12.000000 -27.000000 -11.000000
-15.000000 -27.000000 -11.000000
-15.000000 -27.000000 8.000000
10.000000 -25.000000 8.000000
10.000000 -2.500000 8.000000
-10.000000 2.500000 8.000000
10.000000 2.500000 8.000000
15.000000 -27.000000 8.000000
-12.000000 -27.000000 8.000000
-10.000000 2.500000 11.000000
-10.000000 2.500000 8.000000
10.000000 2.500000 8.000000
10.000000 2.500000 11.000000
12.000000 27.000000 -7.000000
15.000000 27.000000 -7.000000
15.000000 27.000000 -11.000000
12.000000 27.000000 -11.000000
-12.000000 -30.000000 -8.000000
-12.000000 -30.000000 -7.000000
12.000000 -30.000000 -7.000000
12.000000 -30.000000 -8.000000
12.000000 27.000000 8.000000
12.000000 27.000000 -11.000000
12.000000 30.000000 -11.000000
12.000000 30.000000 8.000000
-15.000000 27.000000 -11.000000
-15.000000 27.000000 8.000000
-12.000000 27.000000 8.000000
-12.000000 27.000000 -11.000000
12.000000 30.000000 -8.000000
12.000000 27.000000 -8.000000
-12.000000 27.000000 -8.000000
-12.000000 30.000000 -8.000000
10.000000 2.500000 8.000000
10.000000 25.000000 8.000000
10.000000 25.000000 11.000000
10.000000 2.500000 11.000000
12.000000 -30.000000 -11.000000
12.000000 -27.000000 -11.000000
12.000000 -27.000000 -7.000000
12.000000 -30.000000 -7.000000
-12.000000 -30.000000 -11.000000
-12.000000 -30.000000 8.000000
-12.000000 -27.000000 8.000000
-12.000000 -27.000000 -11.000000
-12.000000 -30.000000 -7.000000
12.000000 -30.000000 -7.000000
15.000000 30.000000 11.000000
-15.000000 30.000000 11.000000
-15.000000 30.000000 -11.000000
-12.000000 30.000000 -11.000000
-12.000000 30.000000 8.000000
12.000000 30.000000 8.000000
12.000000 30.000000 -11.000000
15.000000 30.000000 -11.000000
12.000000 -27.000000 8.000000
-12.000000 -27.000000 8.000000
-12.000000 -30.000000 8.000000
12.000000 -30.000000 8.000000
15.000000 -27.000000 -11.000000
15.000000 -30.000000 -11.000000
15.000000 -30.000000 11.000000
15.000000 30.000000 11.000000
15.000000 30.000000 -11.000000
15.000000 27.000000 -11.000000
15.000000 27.000000 8.000000
15.000000 -27.000000 8.000000
-10.000000 -25.000000 8.000000
-10.000000 -2.500000 8.000000
-15.000000 -27.000000 8.000000
15.000000 -27.000000 8.000000
10.000000 -25.000000 8.000000
-12.000000 -27.000000 -8.000000
15.000000 -27.000000 -8.000000
12.000000 -27.000000 -8.000000
-15.000000 27.000000 -8.000000
-15.000000 -27.000000 -8.000000
-15.000000 27.000000 -8.000000
-15.000000 27.000000 -7.000000
-15.000000 -27.000000 -7.000000
-12.000000 27.000000 -11.000000
-12.000000 30.000000 -11.000000
-12.000000 30.000000 -7.000000
-12.000000 27.000000 -7.000000
15.000000 -27.000000 -11.000000
15.000000 -27.000000 8.000000
12.000000 -27.000000 8.000000
12.000000 -27.000000 -11.000000
10.000000 -25.000000 11.000000
10.000000 -2.500000 11.000000
10.000000 -2.500000 8.000000
10.000000 -25.000000 8.000000
-15.000000 -27.000000 8.000000
-15.000000 -27.000000 -11.000000
-12.000000 -27.000000 -11.000000
-12.000000 -27.000000 8.000000
12.000000 -27.000000 8.000000
12.000000 -30.000000 -11.000000
12.000000 -30.000000 -7.000000
12.000000 -27.000000 -7.000000
12.000000 -27.000000 -11.000000
12.000000 30.000000 -7.000000
12.000000 30.000000 -8.000000
-12.000000 30.000000 -8.000000
-12.000000 30.000000 -7.000000
-12.000000 27.000000 8.000000
12.000000 27.000000 8.000000
-15.000000 27.000000 8.000000
15.000000 27.000000 -11.000000
15.000000 27.000000 -7.000000
12.000000 27.000000 -7.000000
12.000000 27.000000 -11.000000
15.000000 27.000000 -8.000000
15.000000 27.000000 -7.000000
15.000000 -27.000000 -7.000000
15.000000 -27.000000 -8.000000
-15.000000 -27.000000 -7.000000
-15.000000 27.000000 -7.000000
-15.000000 27.000000 -8.000000
-15.000000 -27.000000 -8.000000
-15.000000 27.000000 8.000000
-15.000000 27.000000 -11.000000
-12.000000 27.000000 -11.000000
-12.000000 27.000000 8.000000
15.000000 -27.000000 8.000000
15.000000 -27.000000 -11.000000
12.000000 -27.000000 -11.000000
12.000000 -27.000000 8.000000
-15.000000 -30.000000 11.000000
-15.000000 30.000000 11.000000
-15.000000 30.000000 -11.000000
-15.000000 27.000000 -11.000000
-15.000000 27.000000 8.000000
-15.000000 -27.000000 8.000000
-15.000000 -27.000000 -11.000000
-15.000000 -30.000000 -11.000000
12.000000 30.000000 -11.000000
12.000000 30.000000 8.000000
-12.000000 30.000000 8.000000
-12.000000 30.000000 -11.000000
-15.000000 30.000000 -11.000000
-15.000000 30.000000 11.000000
15.000000 30.000000 11.000000
15.000000 30.000000 -11.000000
-15.000000 27.000000 8.000000
10.000000 -2.500000 8.000000
10.000000 2.500000 8.000000
-10.000000 2.500000 8.000000
-10.000000 25.000000 8.000000
12.000000 27.000000 8.000000
-12.000000 -30.000000 8.000000
12.000000 -30.000000 8.000000
12.000000 -30.000000 -11.000000
15.000000 -30.000000 -11.000000
15.000000 -30.000000 11.000000
-15.000000 -30.000000 11.000000
-15.000000 -30.000000 -11.000000
-12.000000 -30.000000 -11.000000
-12.000000 30.000000 8.000000
-12.000000 27.000000 8.000000
-12.000000 27.000000 -7.000000
-12.000000 30.000000 -7.000000
-15.000000 -30.000000 11.000000
15.000000 -30.000000 11.000000
15.000000 -30.000000 -11.000000
12.000000 -30.000000 -11.000000
12.000000 -30.000000 8.000000
-12.000000 -30.000000 8.000000
-12.000000 -30.000000 -11.000000
-15.000000 -30.000000 -11.000000
10.000000 2.500000 11.000000
-10.000000 -2.500000 11.000000
10.000000 -2.500000 11.000000
15.000000 -30.000000 11.000000
10.000000 25.000000 11.000000
-12.000000 30.000000 -7.000000
-12.000000 30.000000 -11.000000
-12.000000 27.000000 -11.000000
-12.000000 27.000000 -7.000000
-10.000000 25.000000 11.000000
-10.000000 2.500000 11.000000
-10.000000 2.500000 8.000000
-10.000000 25.000000 8.000000
12.000000 -27.000000 -7.000000
-12.000000 -27.000000 -7.000000
15.000000 -27.000000 -7.000000
12.000000 -30.000000 -8.000000
12.000000 -30.000000 -7.000000
-12.000000 -30.000000 -7.000000
-12.000000 -30.000000 -8.000000
10.000000 -25.000000 8.000000
10.000000 -2.500000 8.000000
10.000000 -2.500000 11.000000
10.000000 -25.000000 11.000000
10.000000 -2.500000 8.000000
10.000000 -2.500000 11.000000
-10.000000 -2.500000 11.000000
-10.000000 -2.500000 8.000000
-12.000000 -27.000000 8.000000
-12.000000 -30.000000 8.000000
-12.000000 -30.000000 -11.000000
-12.000000 -27.000000 -11.000000
12.000000 -30.000000 8.000000
12.000000 -27.000000 8.000000
12.000000 -27.000000 -7.000000
12.000000 -30.000000 -7.000000
-12.000000 30.000000 8.000000
12.000000 30.000000 8.000000
12.000000 -30.000000 8.000000
-12.000000 -30.000000 8.000000
12.000000 -30.000000 -7.000000
12.000000 -27.000000 -7.000000
12.000000 -27.000000 8.000000
12.000000 -30.000000 8.000000
15.000000 27.000000 8.000000
10.000000 25.000000 8.000000
-10.000000 25.000000 8.000000
-10.000000 -2.500000 8.000000
-10.000000 -25.000000 8.000000
12.000000 27.000000 -7.000000
12.000000 27.000000 8.000000
15.000000 27.000000 8.000000
15.000000 27.000000 -7.000000
-12.000000 27.000000 -8.000000
12.000000 27.000000 -7.000000
12.000000 30.000000 -7.000000
-12.000000 30.000000 -7.000000
-12.000000 27.000000 -7.000000
-15.000000 27.000000 -7.000000
-15.000000 -27.000000 -7.000000
15.000000 27.000000 -7.000000
-15.000000 -30.000000 -11.000000
-15.000000 -27.000000 -11.000000
-15.000000 -27.000000 8.000000
-15.000000 27.000000 8.000000
-15.000000 27.000000 -11.000000
-15.000000 30.000000 -11.000000
-15.000000 30.000000 11.000000
-15.000000 -30.000000 11.000000
12.000000 -27.000000 -8.000000
-12.000000 -30.000000 -8.000000
12.000000 -30.000000 -8.000000
-12.000000 30.000000 -8.000000
12.000000 30.000000 -8.000000
-10.000000 -2.500000 8.000000
-10.000000 -25.000000 8.000000
-10.000000 -25.000000 11.000000
-10.000000 -2.500000 11.000000
-12.000000 27.000000 8.000000
15.000000 27.000000 -7.000000
15.000000 27.000000 8.000000
12.000000 27.000000 8.000000
12.000000 27.000000 -7.000000
12.000000 30.000000 8.000000
-12.000000 30.000000 8.000000
10.000000 25.000000 8.000000
15.000000 27.000000 8.000000
15.000000 -27.000000 8.000000
15.000000 27.000000 8.000000
15.000000 27.000000 -11.000000
15.000000 30.000000 -11.000000
15.000000 30.000000 11.000000
15.000000 -30.000000 11.000000
15.000000 -30.000000 -11.000000
15.000000 -27.000000 -11.000000
-15.000000 -30.000000 11.000000
-10.000000 2.500000 11.000000
-10.000000 25.000000 11.000000
15.000000 30.000000 11.000000
-15.000000 30.000000 11.000000
12.000000 27.000000 -11.000000
12.000000 27.000000 8.000000
12.000000 30.000000 8.000000
12.000000 30.000000 -11.000000
10.000000 25.000000 11.000000
-10.000000 25.000000 11.000000
-15.000000 30.000000 11.000000
15.000000 30.000000 11.000000
15.000000 -30.000000 11.000000
10.000000 -2.500000 11.000000
-10.000000 -2.500000 11.000000
10.000000 2.500000 11.000000
10.000000 -2.500000 11.000000
10.000000 -25.000000 11.000000
-10.000000 -25.000000 11.000000
-10.000000 -2.500000 11.000000
10.000000 -25.000000 11.000000
-10.000000 -25.000000 11.000000
-15.000000 -30.000000 11.000000
-10.000000 2.500000 11.000000
-10.000000 -25.000000 11.000000
10.000000 -25.000000 11.000000
-15.000000 -27.000000 -8.000000
15.000000 27.000000 -8.000000
12.000000 -30.000000 -8.000000
-12.000000 -30.000000 -8.000000
-10.000000 -2.500000 11.000000
-10.000000 -25.000000 11.000000
10.000000 -25.000000 11.000000
10.000000 -2.500000 11.000000
-10.000000 25.000000 8.000000
-10.000000 25.000000 11.000000
10.000000 25.000000 11.000000
10.000000 25.000000 8.000000
10.000000 2.500000 11.000000
10.000000 2.500000 8.000000
-10.000000 2.500000 8.000000
-10.000000 2.500000 11.000000
10.000000 2.500000 11.000000
10.000000 25.000000 11.000000
10.000000 25.000000 8.000000
10.000000 2.500000 8.000000
10.000000 25.000000 8.000000
10.000000 25.000000 11.000000
-10.000000 25.000000 11.000000
-10.000000 25.000000 8.000000
12.000000 -30.000000 -7.000000
-12.000000 -30.000000 -7.000000
-12.000000 27.000000 -7.000000
-12.000000 30.000000 -7.000000
12.000000 30.000000 -7.000000
12.000000 27.000000 -7.000000
15.000000 27.000000 -7.000000
-15.000000 -27.000000 -7.000000
-15.000000 27.000000 -7.000000
-12.000000 30.000000 -7.000000
-12.000000 30.000000 -8.000000
12.000000 30.000000 -8.000000
12.000000 30.000000 -7.000000
-12.000000 30.000000 -7.000000
-12.000000 27.000000 -7.000000
-12.000000 27.000000 8.000000
-12.000000 30.000000 8.000000
10.000000 -25.000000 11.000000
10.000000 -25.000000 8.000000
-10.000000 -25.000000 8.000000
-10.000000 -25.000000 11.000000
-10.000000 -2.500000 8.000000
-10.000000 -2.500000 11.000000
10.000000 -2.500000 11.000000
10.000000 -2.500000 8.000000
-10.000000 -25.000000 11.000000
-10.000000 -25.000000 8.000000
10.000000 -25.000000 8.000000
10.000000 -25.000000 11.000000
-10.000000 -2.500000 11.000000
-10.000000 -25.000000 11.000000
-10.000000 -25.000000 8.000000
-10.000000 -2.500000 8.000000
-10.000000 25.000000 11.000000
-10.000000 2.500000 11.000000
10.000000 2.500000 11.000000
10.000000 25.000000 11.000000
10.000000 25.000000 11.000000
10.000000 2.500000 11.000000
-10.000000 2.500000 11.000000
-10.000000 25.000000 11.000000
4 0 1 2 3
6 4 5 6 7 8 9
4 10 11 12 13
3 14 15 16
4 17 18 19 20
7 21 22 23 24 25 26 27
4 28 29 30 31
4 32 33 34 35
4 36 37 38 39
4 40 41 42 43
4 44 45 46 47
4 48 49 50 51
4 52 53 54 55
4 56 57 58 59
4 60 61 62 63
4 64 65 16 15
8 66 67 68 69 70 71 72 73
4 74 75 76 77
8 78 79 80 81 82 83 84 85
6 86 87 88 75 89 90
3 91 92 93
3 50 49 94
4 95 96 97 98
4 99 100 101 102
4 103 104 105 106
4 107 108 109 110
4 111 112 113 114
3 27 26 115
4 116 117 118 119
4 120 121 122 123
3 124 125 126
4 127 128 129 130
4 131 132 133 134
4 135 136 137 138
4 139 140 141 142
4 143 144 145 146
8 147 148 149 150 151 152 153 154
8 155 156 157 158 159 160 161 162
10 163 88 87 164 90 89 165 166 167 168
8 169 170 171 172 173 174 175 176
4 177 178 179 180
8 181 182 183 184 185 186 187 188
5 189 190 191 192 193
4 194 195 196 197
4 198 199 200 201
3 202 203 204
4 205 206 207 208
4 209 210 211 212
4 213 214 215 216
4 217 218 219 220
4 221 222 223 224
4 125 124 225 226
4 115 227 228 27
4 229 230 231 232
13 21 126 125 233 26 25 234 235 24 23 236 237 22
4 238 239 240 241
3 8 7 242
9 243 244 245 246 247 248 15 14 249
8 250 251 252 253 254 255 256 257
3 258 5 4
4 258 4 259 260
4 261 242 7 262
4 263 264 265 266
3 163 168 267
3 74 89 75
4 268 269 270 271
4 272 273 267 168
6 168 167 274 165 89 275
8 276 277 278 279 280 281 282 283
9 284 190 189 285 286 193 192 287 288
4 289 290 291 292
8 293 294 295 296 297 298 299 300
4 301 302 303 304
6 305 306 190 284 192 191
10 307 295 294 308 300 299 309 310 298 297
6 91 311 94 49 312 92
4 93 313 314 91
4 315 316 317 318
4 319 320 321 322
4 323 324 325 326
4 327 328 329 330
4 331 332 333 334
4 203 202 335 336
9 337 338 339 340 341 204 203 342 343
4 344 345 346 347
4 348 349 350 351
4 352 353 354 355
4 356 357 358 359
4 360 361 362 363
4 364 365 366 367
4 368 369 370 371
4 372 373 374 375
