ply
format ascii 1.0
comment Created by Blender 2.82 (sub 7) - www.blender.org, source file: ''
element vertex 768
property float x
property float y
property float z
element face 180
property list uchar uint vertex_indices
end_header
-5.512000 -34.252048 13.189000
-44.882000 -34.252048 13.189000
-44.882000 34.251751 13.189000
-5.512000 34.251751 13.189000
-44.882000 -34.252048 13.189000
-44.882000 34.251751 13.189000
-44.882000 34.251751 15.551200
-44.882000 -34.252048 15.551200
-21.653999 -30.709049 13.189000
-21.653999 -30.709049 -15.551200
-28.740000 -30.709049 -15.551200
-28.740000 -30.709049 13.189000
-28.740000 99.212379 13.189000
-21.653999 99.212379 13.189000
-21.653999 106.299004 13.189000
-28.740000 106.299004 13.189000
-5.512000 -102.756050 13.189000
-44.882000 -102.756050 13.189000
-44.882000 -34.252048 13.189000
-5.512000 -34.252048 13.189000
-44.882000 -135.827057 15.551200
-44.882000 -135.827057 13.189000
-35.040001 -145.669052 13.189000
-35.040001 -145.669052 15.551200
-3.544000 114.566750 13.189000
3.543000 114.566750 13.189000
3.543000 121.653351 13.189000
-3.544000 121.653351 13.189000
44.882000 -102.756050 13.189000
44.882000 -102.756050 15.551200
5.512000 -102.756050 15.551200
5.512000 -102.756050 13.189000
-5.512000 34.251751 15.551200
-5.512000 -34.252048 15.551200
-5.512000 -34.252048 13.189000
-5.512000 34.251751 13.189000
5.512000 102.755692 15.551200
5.512000 34.251751 15.551200
44.882000 34.251751 15.551200
44.882000 102.755692 15.551200
-44.882000 34.251751 13.189000
-44.882000 102.755692 13.189000
-44.882000 102.755692 15.551200
-44.882000 34.251751 15.551200
-35.040001 145.669052 15.551200
-35.040001 145.669052 13.189000
35.039001 145.669052 13.189000
35.039001 145.669052 15.551200
-21.653999 30.708450 -15.551200
-28.740000 30.708450 -15.551200
-28.740000 37.795052 -15.551200
-21.653999 37.795052 -15.551200
44.882000 102.755692 13.189000
44.882000 102.755692 15.551200
5.512000 102.755692 15.551200
5.512000 102.755692 13.189000
44.882000 34.251751 15.551200
44.882000 -34.252048 15.551200
44.882000 -34.252048 13.189000
44.882000 34.251751 13.189000
44.882000 -34.252048 13.189000
44.882000 -34.252048 15.551200
5.512000 -34.252048 15.551200
5.512000 -34.252048 13.189000
-5.512000 -102.756050 13.189000
-5.512000 -102.756050 15.551200
-44.882000 -102.756050 15.551200
-44.882000 -102.756050 13.189000
5.512000 34.251751 13.189000
5.512000 102.755692 13.189000
5.512000 102.755692 15.551200
5.512000 34.251751 15.551200
-5.512000 34.251751 13.189000
-5.512000 -34.252048 13.189000
-5.512000 -34.252048 15.551200
-5.512000 34.251751 15.551200
-21.653999 -99.213051 13.189000
-21.653999 -106.299049 13.189000
-21.653999 -106.299049 -15.551200
-21.653999 -99.213051 -15.551200
35.039001 -145.669052 15.551200
35.039001 -145.669052 13.189000
-35.040001 -145.669052 13.189000
-35.040001 -145.669052 15.551200
44.882000 102.755692 15.551200
44.882000 34.251751 15.551200
5.512000 34.251751 15.551200
5.512000 102.755692 15.551200
-5.512000 -34.252048 15.551200
-5.512000 -34.252048 13.189000
-44.882000 -34.252048 13.189000
-44.882000 -34.252048 15.551200
5.512000 -108.662048 13.189000
5.512000 -108.662048 15.551200
-5.512000 -108.662048 15.551200
-5.512000 -108.662048 13.189000
-5.512000 -34.252048 13.189000
-44.882000 -34.252048 13.189000
-44.882000 -102.756050 13.189000
-5.512000 -102.756050 13.189000
-21.653999 37.795052 13.189000
-21.653999 37.795052 -15.551200
-28.740000 37.795052 -15.551200
-28.740000 37.795052 13.189000
-5.512000 102.755692 13.189000
-5.512000 102.755692 15.551200
-44.882000 102.755692 15.551200
-44.882000 102.755692 13.189000
3.543000 114.566750 -15.551200
3.543000 114.566750 13.189000
-3.544000 114.566750 13.189000
-3.544000 114.566750 -15.551200
5.512000 102.755692 13.189000
5.512000 102.755692 15.551200
44.882000 102.755692 15.551200
44.882000 102.755692 13.189000
-5.512000 34.251751 13.189000
-44.882000 34.251751 13.189000
-44.882000 102.755692 13.189000
-5.512000 102.755692 13.189000
-5.512000 102.755692 13.189000
-44.882000 102.755692 13.189000
-44.882000 34.251751 13.189000
-5.512000 34.251751 13.189000
-44.882000 102.755692 15.551200
-44.882000 135.826553 15.551200
-44.882000 135.826553 13.189000
-44.882000 102.755692 13.189000
-21.653999 99.212379 -15.551200
-21.653999 99.212379 13.189000
-28.740000 99.212379 13.189000
-28.740000 99.212379 -15.551200
-44.882000 -102.756050 15.551200
-44.882000 -34.252048 15.551200
-44.882000 -34.252048 13.189000
-44.882000 -102.756050 13.189000
-5.512000 -34.252048 15.551200
-5.512000 -102.756050 15.551200
-5.512000 -102.756050 13.189000
-5.512000 -34.252048 13.189000
-5.512000 -34.252048 13.189000
-5.512000 -102.756050 13.189000
-5.512000 -102.756050 15.551200
-5.512000 -34.252048 15.551200
44.882000 -102.756050 13.189000
44.882000 -135.827057 13.189000
44.882000 -135.827057 15.551200
44.882000 -102.756050 15.551200
-28.740000 -106.299049 13.189000
-28.740000 -99.213051 13.189000
-28.740000 -99.213051 -15.551200
-28.740000 -106.299049 -15.551200
-21.653999 106.299004 13.189000
-21.653999 99.212379 13.189000
-21.653999 99.212379 -15.551200
-21.653999 106.299004 -15.551200
28.740000 99.212379 -15.551200
21.653000 99.212379 -15.551200
21.653000 106.299004 -15.551200
28.740000 106.299004 -15.551200
28.740000 30.708450 -15.551200
28.740000 30.708450 13.189000
21.653000 30.708450 13.189000
21.653000 30.708450 -15.551200
-21.653999 106.299004 13.189000
-21.653999 106.299004 -15.551200
-28.740000 106.299004 -15.551200
-28.740000 106.299004 13.189000
-35.040001 -145.669052 15.551200
-35.040001 -145.669052 13.189000
-44.882000 -135.827057 13.189000
-44.882000 -135.827057 15.551200
-21.653999 99.212379 -15.551200
-28.740000 99.212379 -15.551200
-28.740000 106.299004 -15.551200
-21.653999 106.299004 -15.551200
-5.512000 -102.756050 15.551200
-5.512000 -108.662048 15.551200
-5.512000 -108.662048 13.189000
-5.512000 -102.756050 13.189000
28.740000 -106.299049 -15.551200
21.653000 -106.299049 -15.551200
21.653000 -99.213051 -15.551200
28.740000 -99.213051 -15.551200
-28.740000 30.708450 13.189000
-21.653999 30.708450 13.189000
-21.653999 37.795052 13.189000
-28.740000 37.795052 13.189000
-3.544000 -121.654053 13.189000
3.543000 -121.654053 13.189000
3.543000 -114.567047 13.189000
-3.544000 -114.567047 13.189000
21.653000 99.212379 13.189000
28.740000 99.212379 13.189000
28.740000 106.299004 13.189000
21.653000 106.299004 13.189000
-21.653999 30.708450 -15.551200
-21.653999 30.708450 13.189000
-28.740000 30.708450 13.189000
-28.740000 30.708450 -15.551200
21.653000 99.212379 13.189000
21.653000 106.299004 13.189000
21.653000 106.299004 -15.551200
21.653000 99.212379 -15.551200
-5.512000 108.661201 13.189000
-5.512000 102.755692 13.189000
-5.512000 102.755692 15.551200
-5.512000 108.661201 15.551200
5.512000 108.661201 13.189000
5.512000 108.661201 15.551200
-5.512000 108.661201 15.551200
-5.512000 108.661201 13.189000
44.882000 34.251751 13.189000
44.882000 -34.252048 13.189000
44.882000 -34.252048 15.551200
44.882000 34.251751 15.551200
5.512000 -34.252048 15.551200
5.512000 34.251751 15.551200
5.512000 34.251751 13.189000
5.512000 -34.252048 13.189000
28.740000 -30.709049 13.189000
28.740000 -30.709049 -15.551200
21.653000 -30.709049 -15.551200
21.653000 -30.709049 13.189000
-5.512000 108.661201 13.189000
5.512000 108.661201 13.189000
5.512000 102.755692 13.189000
44.882000 102.755692 13.189000
44.882000 135.826553 13.189000
35.039001 145.669052 13.189000
-35.040001 145.669052 13.189000
-44.882000 135.826553 13.189000
-44.882000 102.755692 13.189000
-5.512000 102.755692 13.189000
5.512000 -34.252048 13.189000
5.512000 34.251751 13.189000
5.512000 34.251751 15.551200
5.512000 -34.252048 15.551200
21.653000 -106.299049 13.189000
21.653000 -99.213051 13.189000
21.653000 -99.213051 -15.551200
21.653000 -106.299049 -15.551200
21.653000 -37.795052 13.189000
21.653000 -30.709049 13.189000
21.653000 -30.709049 -15.551200
21.653000 -37.795052 -15.551200
44.882000 -34.252048 15.551200
44.882000 -102.756050 15.551200
5.512000 -102.756050 15.551200
5.512000 -34.252048 15.551200
5.512000 34.251751 15.551200
5.512000 34.251751 13.189000
44.882000 34.251751 13.189000
44.882000 34.251751 15.551200
28.740000 -30.709049 13.189000
28.740000 -37.795052 13.189000
28.740000 -37.795052 -15.551200
28.740000 -30.709049 -15.551200
-3.544000 114.566750 13.189000
-3.544000 121.653351 13.189000
-3.544000 121.653351 -15.551200
-3.544000 114.566750 -15.551200
3.543000 -114.567047 13.189000
3.543000 -114.567047 -15.551200
-3.544000 -114.567047 -15.551200
-3.544000 -114.567047 13.189000
44.882000 102.755692 13.189000
5.512000 102.755692 13.189000
5.512000 34.251751 13.189000
44.882000 34.251751 13.189000
3.543000 -121.654053 -15.551200
3.543000 -121.654053 13.189000
-3.544000 -121.654053 13.189000
-3.544000 -121.654053 -15.551200
-44.882000 -34.252048 15.551200
-44.882000 -34.252048 13.189000
-5.512000 -34.252048 13.189000
-5.512000 -34.252048 15.551200
-5.512000 -102.756050 13.189000
-5.512000 -102.756050 15.551200
-44.882000 -102.756050 15.551200
-44.882000 -102.756050 13.189000
-5.512000 102.755692 15.551200
-5.512000 34.251751 15.551200
-44.882000 34.251751 15.551200
-44.882000 102.755692 15.551200
44.882000 34.251751 13.189000
5.512000 34.251751 13.189000
5.512000 102.755692 13.189000
44.882000 102.755692 13.189000
-44.882000 102.755692 15.551200
-44.882000 102.755692 13.189000
-5.512000 102.755692 13.189000
-5.512000 102.755692 15.551200
-44.882000 102.755692 15.551200
-44.882000 34.251751 15.551200
-5.512000 34.251751 15.551200
-5.512000 102.755692 15.551200
28.740000 -106.299049 -15.551200
28.740000 -106.299049 13.189000
21.653000 -106.299049 13.189000
21.653000 -106.299049 -15.551200
-44.882000 -34.252048 13.189000
-44.882000 -34.252048 15.551200
-5.512000 -34.252048 15.551200
-5.512000 -34.252048 13.189000
-44.882000 34.251751 15.551200
-44.882000 -34.252048 15.551200
-5.512000 -34.252048 15.551200
-5.512000 34.251751 15.551200
-44.882000 -135.827057 15.551200
-35.040001 -145.669052 15.551200
35.039001 -145.669052 15.551200
44.882000 -135.827057 15.551200
44.882000 -102.756050 15.551200
5.512000 -102.756050 15.551200
5.512000 -108.662048 15.551200
-5.512000 -108.662048 15.551200
-5.512000 -102.756050 15.551200
-44.882000 -102.756050 15.551200
-28.740000 -37.795052 13.189000
-21.653999 -37.795052 13.189000
-21.653999 -30.709049 13.189000
-28.740000 -30.709049 13.189000
-28.740000 -37.795052 13.189000
-28.740000 -30.709049 13.189000
-28.740000 -30.709049 -15.551200
-28.740000 -37.795052 -15.551200
28.740000 99.212379 -15.551200
28.740000 99.212379 13.189000
21.653000 99.212379 13.189000
21.653000 99.212379 -15.551200
44.882000 34.251751 13.189000
44.882000 34.251751 15.551200
5.512000 34.251751 15.551200
5.512000 34.251751 13.189000
5.512000 34.251751 13.189000
5.512000 34.251751 15.551200
44.882000 34.251751 15.551200
44.882000 34.251751 13.189000
-21.653999 -106.299049 -15.551200
-21.653999 -106.299049 13.189000
-28.740000 -106.299049 13.189000
-28.740000 -106.299049 -15.551200
5.512000 -102.756050 13.189000
5.512000 -102.756050 15.551200
44.882000 -102.756050 15.551200
44.882000 -102.756050 13.189000
5.512000 -102.756050 15.551200
5.512000 -34.252048 15.551200
5.512000 -34.252048 13.189000
5.512000 -102.756050 13.189000
44.882000 -135.827057 13.189000
35.039001 -145.669052 13.189000
35.039001 -145.669052 15.551200
44.882000 -135.827057 15.551200
3.543000 114.566750 -15.551200
-3.544000 114.566750 -15.551200
-3.544000 121.653351 -15.551200
3.543000 121.653351 -15.551200
-21.653999 -106.299049 -15.551200
-28.740000 -106.299049 -15.551200
-28.740000 -99.213051 -15.551200
-21.653999 -99.213051 -15.551200
28.740000 37.795052 13.189000
28.740000 30.708450 13.189000
28.740000 30.708450 -15.551200
28.740000 37.795052 -15.551200
44.882000 -102.756050 15.551200
44.882000 -135.827057 15.551200
44.882000 -135.827057 13.189000
44.882000 -102.756050 13.189000
21.653000 30.708450 13.189000
21.653000 37.795052 13.189000
21.653000 37.795052 -15.551200
21.653000 30.708450 -15.551200
-21.653999 -99.213051 13.189000
-21.653999 -99.213051 -15.551200
-28.740000 -99.213051 -15.551200
-28.740000 -99.213051 13.189000
21.653000 -106.299049 13.189000
28.740000 -106.299049 13.189000
28.740000 -99.213051 13.189000
21.653000 -99.213051 13.189000
-5.512000 -108.662048 13.189000
-5.512000 -108.662048 15.551200
5.512000 -108.662048 15.551200
5.512000 -108.662048 13.189000
3.543000 -121.654053 -15.551200
-3.544000 -121.654053 -15.551200
-3.544000 -114.567047 -15.551200
3.543000 -114.567047 -15.551200
-5.512000 102.755692 13.189000
-5.512000 34.251751 13.189000
-5.512000 34.251751 15.551200
-5.512000 102.755692 15.551200
28.740000 106.299004 13.189000
28.740000 99.212379 13.189000
28.740000 99.212379 -15.551200
28.740000 106.299004 -15.551200
-44.882000 -102.756050 13.189000
-44.882000 -102.756050 15.551200
-5.512000 -102.756050 15.551200
-5.512000 -102.756050 13.189000
3.543000 121.653351 13.189000
3.543000 121.653351 -15.551200
-3.544000 121.653351 -15.551200
-3.544000 121.653351 13.189000
-21.653999 -37.795052 -15.551200
-21.653999 -37.795052 13.189000
-28.740000 -37.795052 13.189000
-28.740000 -37.795052 -15.551200
-44.882000 -135.827057 13.189000
-44.882000 -102.756050 13.189000
-44.882000 -102.756050 15.551200
-44.882000 -135.827057 15.551200
-44.882000 -135.827057 15.551200
-44.882000 -102.756050 15.551200
-44.882000 -102.756050 13.189000
-44.882000 -135.827057 13.189000
-5.512000 -102.756050 13.189000
-5.512000 -108.662048 13.189000
-5.512000 -108.662048 15.551200
-5.512000 -102.756050 15.551200
5.512000 -108.662048 13.189000
-5.512000 -108.662048 13.189000
-5.512000 -102.756050 13.189000
-44.882000 -102.756050 13.189000
-44.882000 -135.827057 13.189000
-35.040001 -145.669052 13.189000
35.039001 -145.669052 13.189000
44.882000 -135.827057 13.189000
44.882000 -102.756050 13.189000
5.512000 -102.756050 13.189000
-28.740000 30.708450 13.189000
-28.740000 37.795052 13.189000
-28.740000 37.795052 -15.551200
-28.740000 30.708450 -15.551200
28.740000 106.299004 13.189000
28.740000 106.299004 -15.551200
21.653000 106.299004 -15.551200
21.653000 106.299004 13.189000
-3.544000 -121.654053 13.189000
-3.544000 -114.567047 13.189000
-3.544000 -114.567047 -15.551200
-3.544000 -121.654053 -15.551200
-21.653999 37.795052 13.189000
-21.653999 30.708450 13.189000
-21.653999 30.708450 -15.551200
-21.653999 37.795052 -15.551200
3.543000 -114.567047 13.189000
3.543000 -121.654053 13.189000
3.543000 -121.654053 -15.551200
3.543000 -114.567047 -15.551200
5.512000 108.661201 15.551200
5.512000 102.755692 15.551200
44.882000 102.755692 15.551200
44.882000 135.826553 15.551200
35.039001 145.669052 15.551200
-35.040001 145.669052 15.551200
-44.882000 135.826553 15.551200
-44.882000 102.755692 15.551200
-5.512000 102.755692 15.551200
-5.512000 108.661201 15.551200
5.512000 108.661201 15.551200
-5.512000 108.661201 15.551200
-5.512000 102.755692 15.551200
-44.882000 102.755692 15.551200
-44.882000 135.826553 15.551200
-35.040001 145.669052 15.551200
35.039001 145.669052 15.551200
44.882000 135.826553 15.551200
44.882000 102.755692 15.551200
5.512000 102.755692 15.551200
-44.882000 -102.756050 13.189000
-5.512000 -102.756050 13.189000
-5.512000 -108.662048 13.189000
5.512000 -108.662048 13.189000
5.512000 -102.756050 13.189000
44.882000 -102.756050 13.189000
44.882000 -135.827057 13.189000
35.039001 -145.669052 13.189000
-35.040001 -145.669052 13.189000
-44.882000 -135.827057 13.189000
-5.512000 108.661201 13.189000
-5.512000 108.661201 15.551200
5.512000 108.661201 15.551200
5.512000 108.661201 13.189000
35.039001 145.669052 15.551200
35.039001 145.669052 13.189000
-35.040001 145.669052 13.189000
-35.040001 145.669052 15.551200
-44.882000 135.826553 13.189000
-35.040001 145.669052 13.189000
-35.040001 145.669052 15.551200
-44.882000 135.826553 15.551200
28.740000 -37.795052 -15.551200
21.653000 -37.795052 -15.551200
21.653000 -30.709049 -15.551200
28.740000 -30.709049 -15.551200
-5.512000 102.755692 15.551200
-5.512000 34.251751 15.551200
-5.512000 34.251751 13.189000
-5.512000 102.755692 13.189000
44.882000 34.251751 13.189000
5.512000 34.251751 13.189000
5.512000 -34.252048 13.189000
44.882000 -34.252048 13.189000
28.740000 -37.795052 -15.551200
28.740000 -37.795052 13.189000
21.653000 -37.795052 13.189000
21.653000 -37.795052 -15.551200
44.882000 -34.252048 13.189000
5.512000 -34.252048 13.189000
5.512000 34.251751 13.189000
44.882000 34.251751 13.189000
28.740000 -99.213051 13.189000
28.740000 -99.213051 -15.551200
21.653000 -99.213051 -15.551200
21.653000 -99.213051 13.189000
-5.512000 108.661201 15.551200
-5.512000 102.755692 15.551200
-5.512000 102.755692 13.189000
-5.512000 108.661201 13.189000
-44.882000 102.755692 13.189000
-44.882000 102.755692 15.551200
-5.512000 102.755692 15.551200
-5.512000 102.755692 13.189000
-44.882000 102.755692 13.189000
-44.882000 135.826553 13.189000
-44.882000 135.826553 15.551200
-44.882000 102.755692 15.551200
44.882000 34.251751 15.551200
44.882000 34.251751 13.189000
5.512000 34.251751 13.189000
5.512000 34.251751 15.551200
5.512000 -34.252048 13.189000
5.512000 -34.252048 15.551200
44.882000 -34.252048 15.551200
44.882000 -34.252048 13.189000
3.543000 121.653351 13.189000
3.543000 114.566750 13.189000
3.543000 114.566750 -15.551200
3.543000 121.653351 -15.551200
44.882000 135.826553 15.551200
44.882000 102.755692 15.551200
44.882000 102.755692 13.189000
44.882000 135.826553 13.189000
-44.882000 135.826553 15.551200
-35.040001 145.669052 15.551200
-35.040001 145.669052 13.189000
-44.882000 135.826553 13.189000
44.882000 135.826553 15.551200
44.882000 135.826553 13.189000
35.039001 145.669052 13.189000
35.039001 145.669052 15.551200
44.882000 135.826553 13.189000
44.882000 102.755692 13.189000
44.882000 102.755692 15.551200
44.882000 135.826553 15.551200
5.512000 102.755692 13.189000
5.512000 108.661201 13.189000
5.512000 108.661201 15.551200
5.512000 102.755692 15.551200
44.882000 135.826553 13.189000
44.882000 102.755692 13.189000
5.512000 102.755692 13.189000
5.512000 108.661201 13.189000
-5.512000 108.661201 13.189000
-5.512000 102.755692 13.189000
-44.882000 102.755692 13.189000
-44.882000 135.826553 13.189000
-35.040001 145.669052 13.189000
35.039001 145.669052 13.189000
44.882000 34.251751 15.551200
44.882000 -34.252048 15.551200
5.512000 -34.252048 15.551200
5.512000 34.251751 15.551200
5.512000 34.251751 15.551200
5.512000 -34.252048 15.551200
44.882000 -34.252048 15.551200
44.882000 34.251751 15.551200
21.653000 -37.795052 13.189000
28.740000 -37.795052 13.189000
28.740000 -30.709049 13.189000
21.653000 -30.709049 13.189000
5.512000 102.755692 15.551200
5.512000 108.661201 15.551200
5.512000 108.661201 13.189000
5.512000 102.755692 13.189000
-44.882000 -34.252048 15.551200
-44.882000 -102.756050 15.551200
-5.512000 -102.756050 15.551200
-5.512000 -34.252048 15.551200
-21.653999 -30.709049 13.189000
-21.653999 -37.795052 13.189000
-21.653999 -37.795052 -15.551200
-21.653999 -30.709049 -15.551200
5.512000 -108.662048 13.189000
5.512000 -102.756050 13.189000
5.512000 -102.756050 15.551200
5.512000 -108.662048 15.551200
-44.882000 34.251751 15.551200
-44.882000 102.755692 15.551200
-44.882000 102.755692 13.189000
-44.882000 34.251751 13.189000
-21.653999 -37.795052 -15.551200
-28.740000 -37.795052 -15.551200
-28.740000 -30.709049 -15.551200
-21.653999 -30.709049 -15.551200
-5.512000 34.251751 13.189000
-5.512000 34.251751 15.551200
-44.882000 34.251751 15.551200
-44.882000 34.251751 13.189000
-44.882000 34.251751 13.189000
-44.882000 34.251751 15.551200
-5.512000 34.251751 15.551200
-5.512000 34.251751 13.189000
-44.882000 -102.756050 13.189000
-44.882000 -34.252048 13.189000
-44.882000 -34.252048 15.551200
-44.882000 -102.756050 15.551200
-44.882000 -102.756050 13.189000
-44.882000 -102.756050 15.551200
-5.512000 -102.756050 15.551200
-5.512000 -102.756050 13.189000
-5.512000 102.755692 15.551200
-5.512000 102.755692 13.189000
-44.882000 102.755692 13.189000
-44.882000 102.755692 15.551200
44.882000 -34.252048 13.189000
5.512000 -34.252048 13.189000
5.512000 -102.756050 13.189000
44.882000 -102.756050 13.189000
28.740000 30.708450 -15.551200
21.653000 30.708450 -15.551200
21.653000 37.795052 -15.551200
28.740000 37.795052 -15.551200
-44.882000 -34.252048 15.551200
-44.882000 34.251751 15.551200
-44.882000 34.251751 13.189000
-44.882000 -34.252048 13.189000
-5.512000 34.251751 15.551200
-5.512000 -34.252048 15.551200
-44.882000 -34.252048 15.551200
-44.882000 34.251751 15.551200
-5.512000 -34.252048 13.189000
-5.512000 -34.252048 15.551200
-44.882000 -34.252048 15.551200
-44.882000 -34.252048 13.189000
28.740000 -99.213051 13.189000
28.740000 -106.299049 13.189000
28.740000 -106.299049 -15.551200
28.740000 -99.213051 -15.551200
21.653000 30.708450 13.189000
28.740000 30.708450 13.189000
28.740000 37.795052 13.189000
21.653000 37.795052 13.189000
5.512000 -34.252048 15.551200
5.512000 -102.756050 15.551200
44.882000 -102.756050 15.551200
44.882000 -34.252048 15.551200
-44.882000 34.251751 15.551200
-44.882000 34.251751 13.189000
-5.512000 34.251751 13.189000
-5.512000 34.251751 15.551200
44.882000 -135.827057 15.551200
35.039001 -145.669052 15.551200
35.039001 -145.669052 13.189000
44.882000 -135.827057 13.189000
-5.512000 34.251751 15.551200
-5.512000 34.251751 13.189000
-44.882000 34.251751 13.189000
-44.882000 34.251751 15.551200
-5.512000 34.251751 13.189000
-44.882000 34.251751 13.189000
-44.882000 -34.252048 13.189000
-5.512000 -34.252048 13.189000
-5.512000 -34.252048 15.551200
-5.512000 -102.756050 15.551200
-44.882000 -102.756050 15.551200
-44.882000 -34.252048 15.551200
44.882000 102.755692 13.189000
44.882000 34.251751 13.189000
44.882000 34.251751 15.551200
44.882000 102.755692 15.551200
5.512000 -108.662048 15.551200
5.512000 -102.756050 15.551200
5.512000 -102.756050 13.189000
5.512000 -108.662048 13.189000
44.882000 -102.756050 13.189000
5.512000 -102.756050 13.189000
5.512000 -34.252048 13.189000
44.882000 -34.252048 13.189000
44.882000 -102.756050 15.551200
44.882000 -135.827057 15.551200
35.039001 -145.669052 15.551200
-35.040001 -145.669052 15.551200
-44.882000 -135.827057 15.551200
-44.882000 -102.756050 15.551200
-5.512000 -102.756050 15.551200
-5.512000 -108.662048 15.551200
5.512000 -108.662048 15.551200
5.512000 -102.756050 15.551200
28.740000 37.795052 13.189000
28.740000 37.795052 -15.551200
21.653000 37.795052 -15.551200
21.653000 37.795052 13.189000
5.512000 -34.252048 15.551200
5.512000 -34.252048 13.189000
44.882000 -34.252048 13.189000
44.882000 -34.252048 15.551200
-28.740000 99.212379 13.189000
-28.740000 106.299004 13.189000
-28.740000 106.299004 -15.551200
-28.740000 99.212379 -15.551200
5.512000 102.755692 15.551200
5.512000 102.755692 13.189000
44.882000 102.755692 13.189000
44.882000 102.755692 15.551200
44.882000 102.755692 15.551200
44.882000 102.755692 13.189000
5.512000 102.755692 13.189000
5.512000 102.755692 15.551200
5.512000 34.251751 15.551200
5.512000 102.755692 15.551200
5.512000 102.755692 13.189000
5.512000 34.251751 13.189000
-28.740000 -106.299049 13.189000
-21.653999 -106.299049 13.189000
-21.653999 -99.213051 13.189000
-28.740000 -99.213051 13.189000
44.882000 -34.252048 15.551200
44.882000 -34.252048 13.189000
5.512000 -34.252048 13.189000
5.512000 -34.252048 15.551200
44.882000 -102.756050 13.189000
44.882000 -102.756050 15.551200
5.512000 -102.756050 15.551200
5.512000 -102.756050 13.189000
-35.040001 -145.669052 15.551200
-35.040001 -145.669052 13.189000
35.039001 -145.669052 13.189000
35.039001 -145.669052 15.551200
44.882000 -34.252048 13.189000
44.882000 -102.756050 13.189000
44.882000 -102.756050 15.551200
44.882000 -34.252048 15.551200
5.512000 -102.756050 13.189000
5.512000 -102.756050 15.551200
44.882000 -102.756050 15.551200
44.882000 -102.756050 13.189000
5.512000 -102.756050 13.189000
5.512000 -34.252048 13.189000
5.512000 -34.252048 15.551200
5.512000 -102.756050 15.551200
44.882000 -34.252048 15.551200
44.882000 -102.756050 15.551200
44.882000 -102.756050 13.189000
44.882000 -34.252048 13.189000
44.882000 102.755692 15.551200
44.882000 34.251751 15.551200
44.882000 34.251751 13.189000
44.882000 102.755692 13.189000
35.039001 145.669052 15.551200
35.039001 145.669052 13.189000
44.882000 135.826553 13.189000
44.882000 135.826553 15.551200
4 0 1 2 3
4 4 5 6 7
4 8 9 10 11
4 12 13 14 15
4 16 17 18 19
4 20 21 22 23
4 24 25 26 27
4 28 29 30 31
4 32 33 34 35
4 36 37 38 39
4 40 41 42 43
4 44 45 46 47
4 48 49 50 51
4 52 53 54 55
4 56 57 58 59
4 60 61 62 63
4 64 65 66 67
4 68 69 70 71
4 72 73 74 75
4 76 77 78 79
4 80 81 82 83
4 84 85 86 87
4 88 89 90 91
4 92 93 94 95
4 96 97 98 99
4 100 101 102 103
4 104 105 106 107
4 108 109 110 111
4 112 113 114 115
4 116 117 118 119
4 120 121 122 123
4 124 125 126 127
4 128 129 130 131
4 132 133 134 135
4 136 137 138 139
4 140 141 142 143
4 144 145 146 147
4 148 149 150 151
4 152 153 154 155
4 156 157 158 159
4 160 161 162 163
4 164 165 166 167
4 168 169 170 171
4 172 173 174 175
4 176 177 178 179
4 180 181 182 183
4 184 185 186 187
4 188 189 190 191
4 192 193 194 195
4 196 197 198 199
4 200 201 202 203
4 204 205 206 207
4 208 209 210 211
4 212 213 214 215
4 216 217 218 219
4 220 221 222 223
10 224 225 226 227 228 229 230 231 232 233
4 234 235 236 237
4 238 239 240 241
4 242 243 244 245
4 246 247 248 249
4 250 251 252 253
4 254 255 256 257
4 258 259 260 261
4 262 263 264 265
4 266 267 268 269
4 270 271 272 273
4 274 275 276 277
4 278 279 280 281
4 282 283 284 285
4 286 287 288 289
4 290 291 292 293
4 294 295 296 297
4 298 299 300 301
4 302 303 304 305
4 306 307 308 309
10 310 311 312 313 314 315 316 317 318 319
4 320 321 322 323
4 324 325 326 327
4 328 329 330 331
4 332 333 334 335
4 336 337 338 339
4 340 341 342 343
4 344 345 346 347
4 348 349 350 351
4 352 353 354 355
4 356 357 358 359
4 360 361 362 363
4 364 365 366 367
4 368 369 370 371
4 372 373 374 375
4 376 377 378 379
4 380 381 382 383
4 384 385 386 387
4 388 389 390 391
4 392 393 394 395
4 396 397 398 399
4 400 401 402 403
4 404 405 406 407
4 408 409 410 411
4 412 413 414 415
4 416 417 418 419
4 420 421 422 423
10 424 425 426 427 428 429 430 431 432 433
4 434 435 436 437
4 438 439 440 441
4 442 443 444 445
4 446 447 448 449
4 450 451 452 453
10 454 455 456 457 458 459 460 461 462 463
10 464 465 466 467 468 469 470 471 472 473
10 474 475 476 477 478 479 480 481 482 483
4 484 485 486 487
4 488 489 490 491
4 492 493 494 495
4 496 497 498 499
4 500 501 502 503
4 504 505 506 507
4 508 509 510 511
4 512 513 514 515
4 516 517 518 519
4 520 521 522 523
4 524 525 526 527
4 528 529 530 531
4 532 533 534 535
4 536 537 538 539
4 540 541 542 543
4 544 545 546 547
4 548 549 550 551
4 552 553 554 555
4 556 557 558 559
4 560 561 562 563
10 564 565 566 567 568 569 570 571 572 573
4 574 575 576 577
4 578 579 580 581
4 582 583 584 585
4 586 587 588 589
4 590 591 592 593
4 594 595 596 597
4 598 599 600 601
4 602 603 604 605
4 606 607 608 609
4 610 611 612 613
4 614 615 616 617
4 618 619 620 621
4 622 623 624 625
4 626 627 628 629
4 630 631 632 633
4 634 635 636 637
4 638 639 640 641
4 642 643 644 645
4 646 647 648 649
4 650 651 652 653
4 654 655 656 657
4 658 659 660 661
4 662 663 664 665
4 666 667 668 669
4 670 671 672 673
4 674 675 676 677
4 678 679 680 681
4 682 683 684 685
4 686 687 688 689
4 690 691 692 693
10 694 695 696 697 698 699 700 701 702 703
4 704 705 706 707
4 708 709 710 711
4 712 713 714 715
4 716 717 718 719
4 720 721 722 723
4 724 725 726 727
4 728 729 730 731
4 732 733 734 735
4 736 737 738 739
4 740 741 742 743
4 744 745 746 747
4 748 749 750 751
4 752 753 754 755
4 756 757 758 759
4 760 761 762 763
4 764 765 766 767
