ply
format ascii 1.0
comment Created by Blender 2.82 (sub 7) - www.blender.org, source file: ''
element vertex 515
property float x
property float y
property float z
element face 131
property list uchar uint vertex_indices
end_header
-14.727188 14.727188 13.658600
14.727100 14.727188 13.658600
14.671100 14.671152 13.626300
-14.671152 14.671152 13.626300
13.676800 12.440970 10.958800
13.676800 -12.440900 10.958800
13.644500 -12.440900 10.902700
13.644500 12.440970 10.902700
12.440900 -12.995500 10.882900
-12.440970 -12.995500 10.882900
-12.440970 -12.949800 10.928600
12.440900 -12.949800 10.928600
12.949800 -12.440900 10.928600
12.949800 12.440970 10.928600
12.995500 12.440970 10.882900
12.995500 -12.440900 10.882900
-13.025740 -12.440900 10.870400
-13.025740 12.440970 10.870400
-12.969700 12.440970 10.902700
-12.969700 -12.440900 10.902700
14.701300 -14.701300 13.638800
14.671100 -14.671100 13.626300
14.701300 14.701300 13.638800
12.933100 -12.440900 13.622000
-12.933090 -12.440900 13.622000
-12.933090 12.440970 13.622000
12.565900 12.440970 13.622000
12.933100 12.440970 13.622000
-14.080601 -14.168900 13.622000
-14.080601 -14.168900 -14.370100
-12.533610 -14.168900 -14.370100
-12.533610 -14.168900 13.622000
-14.671152 -14.671100 13.626300
-14.638800 -14.638800 13.622000
14.638800 -14.638800 13.622000
14.638800 14.638800 13.622000
14.701300 -14.701300 13.638800
-14.701300 -14.701300 13.638800
13.556100 -12.440900 10.866100
13.058000 -12.440900 10.866100
13.025700 -12.440900 10.870400
13.025700 12.440970 10.870400
13.058000 12.440970 10.866100
13.556100 12.440970 10.866100
13.588400 12.440970 10.870400
13.588400 -12.440900 10.870400
12.477500 -14.136600 13.622000
12.445200 -14.080600 13.622000
12.445200 -14.080600 -14.370100
12.477500 -14.136600 -14.370100
12.440900 14.048249 -14.370100
12.440900 12.565970 -14.370100
12.445200 12.533610 -14.370100
12.445200 12.533610 13.622000
12.440900 12.565970 13.622000
12.440900 12.933090 13.622000
12.440900 12.937350 10.958800
12.440900 12.969700 10.902700
12.440900 13.025740 10.870400
12.440900 13.588480 10.870400
12.440900 13.644510 10.902700
12.440900 13.676860 10.958800
12.440900 13.681120 13.622000
12.440900 14.048249 13.622000
12.445200 14.080601 13.622000
12.445200 14.080601 -14.370100
12.477500 14.136637 -14.370100
12.477500 14.136637 13.622000
12.533600 14.168990 13.622000
12.533600 14.168990 -14.370100
12.533600 12.445220 13.622000
12.477500 12.477580 13.622000
12.477500 12.477580 -14.370100
12.533600 12.445220 -14.370100
-14.638800 -14.638800 14.370100
14.638800 -14.638800 14.370100
14.638800 14.638800 14.370100
-14.638800 14.638800 14.370100
-14.701300 14.701300 14.353300
-14.671152 14.671152 14.365800
14.671100 14.671152 14.365800
14.701300 14.701300 14.353300
14.759500 -14.759500 14.277400
14.747000 -14.747000 14.307600
-14.747053 -14.747000 14.307600
-14.759541 -14.759500 14.277400
-13.681120 -12.440900 13.622000
-13.676860 -12.440900 10.958800
-13.644510 -12.440900 10.902700
-13.588480 -12.440900 10.870400
-13.025740 -12.440900 10.870400
-12.969700 -12.440900 10.902700
-12.937350 -12.440900 10.958800
-12.933090 -12.440900 13.622000
-12.533610 -12.445200 13.622000
-12.533610 -12.445200 -14.370100
-14.080601 -12.445200 -14.370100
-14.080601 -12.445200 13.622000
12.440900 -12.933100 13.622000
12.440900 -12.937300 10.958800
-12.440970 -12.937300 10.958800
-12.440970 -12.933100 13.622000
14.173200 -12.565900 13.622000
14.173200 -14.048200 13.622000
14.168900 -14.080600 13.622000
14.168900 -14.080600 -14.370100
14.173200 -14.048200 -14.370100
14.173200 -12.565900 -14.370100
14.168900 -12.533600 -14.370100
14.168900 -12.533600 13.622000
-14.110749 14.156502 13.622000
-14.110749 14.156502 -14.370100
-14.156502 14.110749 -14.370100
-14.156502 14.110749 13.622000
-14.168990 12.533610 13.622000
-14.173249 12.565970 13.622000
-14.173249 14.048249 13.622000
-14.168990 14.080601 13.622000
-14.168990 14.080601 -14.370100
-14.173249 14.048249 -14.370100
-14.173249 12.565970 -14.370100
-14.168990 12.533610 -14.370100
14.168900 12.533610 13.622000
14.136600 12.477580 13.622000
14.136600 12.477580 -14.370100
14.168900 12.533610 -14.370100
-12.565970 12.440970 13.622000
-14.701300 -14.701300 14.353300
14.701300 -14.701300 14.353300
14.671100 -14.671100 14.365800
-14.671152 -14.671100 14.365800
12.565900 -12.440900 13.622000
-12.565970 -12.440900 13.622000
-14.136637 -14.136600 13.622000
-14.168990 -14.080600 13.622000
-14.168990 -14.080600 -14.370100
-14.136637 -14.136600 -14.370100
-12.503470 12.457710 -14.370100
-12.503470 12.457710 13.622000
-12.533610 12.445220 13.622000
-12.533610 12.445220 -14.370100
-14.727188 -14.727100 13.658600
-14.727188 14.727188 13.658600
14.759500 14.759541 13.714700
14.759500 -14.759500 13.714700
14.747000 -14.747000 13.684500
14.747000 14.747053 13.684500
-12.445220 12.533610 13.622000
-12.457710 12.503470 13.622000
-12.457710 12.503470 -14.370100
-12.445220 12.533610 -14.370100
12.440900 -13.676800 10.958800
12.440900 -13.681100 13.622000
-12.440970 -13.681100 13.622000
-12.440970 -13.676800 10.958800
-14.638800 -14.638800 14.370100
-14.638800 14.638800 14.370100
14.638800 14.638800 14.370100
-14.701300 14.701300 14.353300
-14.701300 -14.701300 14.353300
12.440900 13.681120 13.622000
12.440900 13.676860 10.958800
-12.440970 13.676860 10.958800
-12.440970 13.681120 13.622000
14.759500 14.759541 14.277400
14.759500 -14.759500 14.277400
-12.477580 -12.477500 13.622000
-12.445220 -12.533600 13.622000
-12.445220 -12.533600 -14.370100
-12.477580 -12.477500 -14.370100
14.136600 -12.477500 13.622000
14.136600 -12.477500 -14.370100
14.638800 -14.638800 13.622000
14.638800 14.638800 13.622000
14.638800 14.638800 14.370100
14.638800 -14.638800 14.370100
12.533600 -14.168900 13.622000
12.533600 -14.168900 -14.370100
-14.759541 -14.759500 14.277400
-14.759541 14.759541 14.277400
-14.759541 14.759541 13.714700
-14.759541 -14.759500 13.714700
12.445200 -12.533600 13.622000
12.477500 -12.477500 13.622000
12.477500 -12.477500 -14.370100
12.445200 -12.533600 -14.370100
12.445200 14.080601 -14.370100
12.477500 14.136637 -14.370100
12.533600 14.168990 -14.370100
14.080600 14.168990 -14.370100
14.136600 14.136637 -14.370100
14.168900 14.080601 -14.370100
14.168900 12.533610 -14.370100
14.136600 12.477580 -14.370100
14.080600 12.445220 -14.370100
12.533600 12.445220 -14.370100
12.477500 12.477580 -14.370100
12.445200 12.533610 -14.370100
13.681100 12.440970 13.622000
13.681100 -12.440900 13.622000
12.440900 -12.933100 13.622000
-12.440970 -12.933100 13.622000
-12.445220 -12.533600 13.622000
-12.477580 -12.477500 13.622000
-12.533610 -12.445200 13.622000
12.503400 -12.457700 13.622000
12.477500 -12.477500 13.622000
12.445200 -12.533600 13.622000
-12.440970 -13.644500 10.902700
-12.440970 -13.588400 10.870400
12.440900 -13.588400 10.870400
12.440900 -13.644500 10.902700
-12.440970 -13.556100 10.866100
-12.440970 -13.058000 10.866100
-12.440970 -13.025700 10.870400
12.440900 -13.025700 10.870400
12.440900 -13.058000 10.866100
12.440900 -13.556100 10.866100
14.701300 -14.701300 14.353300
14.701300 14.701300 14.353300
14.638800 -14.638800 14.370100
14.173200 14.048249 13.622000
14.173200 12.565970 13.622000
14.173200 12.565970 -14.370100
14.173200 14.048249 -14.370100
14.168900 14.080601 -14.370100
14.168900 14.080601 13.622000
14.080600 -12.445200 -14.370100
14.080600 -12.445200 13.622000
-12.440970 -13.025700 10.870400
-12.440970 -13.588400 10.870400
-12.440970 -13.644500 10.902700
-12.440970 -13.676800 10.958800
-12.440970 -13.681100 13.622000
-12.440970 -14.048200 13.622000
-12.445220 -14.080600 13.622000
-12.445220 -14.080600 -14.370100
-12.440970 -14.048200 -14.370100
-12.440970 -12.565900 -14.370100
-12.440970 -12.565900 13.622000
-12.440970 -12.933100 13.622000
-12.440970 -12.937300 10.958800
-12.440970 -12.949800 10.928600
-12.440970 -12.995500 10.882900
-14.747053 14.747053 14.307600
-14.747053 -14.747000 14.307600
14.747000 14.747053 14.307600
14.747000 -14.747000 14.307600
-12.440970 12.937350 10.958800
-12.440970 12.933090 13.622000
-12.440970 12.565970 13.622000
-12.440970 12.565970 -14.370100
-12.440970 14.048249 -14.370100
-12.445220 14.080601 -14.370100
-12.445220 14.080601 13.622000
-12.440970 14.048249 13.622000
-12.440970 13.681120 13.622000
-12.440970 13.676860 10.958800
-12.440970 13.644510 10.902700
-12.440970 13.588480 10.870400
-12.440970 13.025740 10.870400
-12.440970 12.969700 10.902700
14.080600 14.168990 13.622000
14.080600 14.168990 -14.370100
14.048200 14.173249 -14.370100
12.565900 14.173249 -14.370100
12.565900 14.173249 13.622000
14.048200 14.173249 13.622000
12.933100 -12.440900 13.622000
12.933100 12.440970 13.622000
12.937300 12.440970 10.958800
12.937300 -12.440900 10.958800
-14.136637 12.477580 13.622000
-14.136637 12.477580 -14.370100
-14.747053 -14.747000 13.684500
14.747000 -14.747000 13.684500
14.759500 -14.759500 13.714700
-14.759541 -14.759500 13.714700
14.759500 14.759541 13.714700
-14.759541 14.759541 13.714700
12.440900 -13.676800 10.958800
12.440900 -13.644500 10.902700
12.440900 -13.588400 10.870400
12.440900 -13.025700 10.870400
12.440900 -12.995500 10.882900
12.440900 -12.949800 10.928600
12.440900 -12.937300 10.958800
12.440900 -12.933100 13.622000
12.440900 -12.565900 13.622000
12.440900 -12.565900 -14.370100
12.440900 -14.048200 -14.370100
12.440900 -14.048200 13.622000
12.440900 -13.681100 13.622000
-12.937350 12.440970 10.958800
-12.937350 -12.440900 10.958800
12.445200 -12.533600 -14.370100
12.477500 -12.477500 -14.370100
12.533600 -12.445200 -14.370100
14.080600 -12.445200 -14.370100
14.136600 -12.477500 -14.370100
14.168900 -12.533600 -14.370100
14.168900 -14.080600 -14.370100
14.156500 -14.110700 -14.370100
14.110700 -14.156500 -14.370100
14.080600 -14.168900 -14.370100
12.533600 -14.168900 -14.370100
12.477500 -14.136600 -14.370100
12.445200 -14.080600 -14.370100
13.025700 -12.440900 10.870400
13.588400 -12.440900 10.870400
13.644500 -12.440900 10.902700
13.676800 -12.440900 10.958800
13.681100 -12.440900 13.622000
12.533600 -12.445200 -14.370100
12.533600 -12.445200 13.622000
12.933100 -12.440900 13.622000
12.937300 -12.440900 10.958800
12.949800 -12.440900 10.928600
12.995500 -12.440900 10.882900
14.638800 -14.638800 14.370100
14.638800 -14.638800 13.622000
-14.638800 -14.638800 13.622000
-14.638800 -14.638800 14.370100
-14.638800 14.638800 14.370100
-14.638800 -14.638800 14.370100
-14.638800 -14.638800 13.622000
-14.638800 14.638800 13.622000
-14.638800 14.638800 13.622000
-14.638800 14.638800 14.370100
14.638800 14.638800 14.370100
14.638800 14.638800 13.622000
-13.681120 -12.440900 13.622000
-13.681120 12.440970 13.622000
-13.676860 12.440970 10.958800
-13.676860 -12.440900 10.958800
-13.644510 -12.440900 10.902700
-13.644510 12.440970 10.902700
-13.588480 12.440970 10.870400
-13.588480 -12.440900 10.870400
14.156500 -14.110700 13.622000
14.110700 -14.156500 13.622000
14.110700 -14.156500 -14.370100
14.156500 -14.110700 -14.370100
-13.058090 -12.440900 10.866100
-13.556120 -12.440900 10.866100
-13.556120 12.440970 10.866100
-13.058090 12.440970 10.866100
-14.136637 -14.136600 -14.370100
-14.168990 -14.080600 -14.370100
-14.168990 -12.533600 -14.370100
-14.136637 -12.477500 -14.370100
-14.080601 -12.445200 -14.370100
-12.533610 -12.445200 -14.370100
-12.477580 -12.477500 -14.370100
-12.445220 -12.533600 -14.370100
-12.445220 -14.080600 -14.370100
-12.477580 -14.136600 -14.370100
-12.533610 -14.168900 -14.370100
-14.080601 -14.168900 -14.370100
12.440900 13.644510 10.902700
-12.440970 13.644510 10.902700
-14.168990 -12.533600 13.622000
-14.136637 -12.477500 13.622000
-14.136637 -12.477500 -14.370100
-14.168990 -12.533600 -14.370100
14.136600 14.136637 13.622000
14.136600 14.136637 -14.370100
-13.676860 12.440970 10.958800
-13.681120 12.440970 13.622000
-14.080601 12.445220 13.622000
-14.080601 12.445220 -14.370100
-12.933090 12.440970 13.622000
-12.937350 12.440970 10.958800
-12.969700 12.440970 10.902700
-13.025740 12.440970 10.870400
-13.588480 12.440970 10.870400
-13.644510 12.440970 10.902700
-12.533610 12.445220 -14.370100
-14.080601 12.445220 -14.370100
-14.136637 12.477580 -14.370100
-14.168990 12.533610 -14.370100
-14.168990 14.080601 -14.370100
-14.156502 14.110749 -14.370100
-14.110749 14.156502 -14.370100
-14.080601 14.168990 -14.370100
-12.533610 14.168990 -14.370100
-12.477580 14.136637 -14.370100
-12.445220 14.080601 -14.370100
-12.445220 12.533610 -14.370100
-12.457710 12.503470 -14.370100
-12.503470 12.457710 -14.370100
14.080600 -14.168900 -14.370100
14.080600 -14.168900 13.622000
-12.503470 12.457710 13.622000
-12.457710 12.503470 13.622000
-12.445220 12.533610 13.622000
-12.440970 12.933090 13.622000
12.440900 12.933090 13.622000
12.445200 12.533610 13.622000
12.477500 12.477580 13.622000
12.503400 12.457710 13.622000
13.588400 12.440970 10.870400
13.025700 12.440970 10.870400
12.995500 12.440970 10.882900
12.949800 12.440970 10.928600
12.937300 12.440970 10.958800
12.933100 12.440970 13.622000
14.080600 12.445220 -14.370100
14.080600 12.445220 13.622000
13.681100 12.440970 13.622000
13.676800 12.440970 10.958800
13.644500 12.440970 10.902700
-14.080601 14.168990 13.622000
-14.080601 14.168990 -14.370100
12.440900 12.937350 10.958800
-12.440970 12.937350 10.958800
-12.440970 12.969700 10.902700
12.440900 12.969700 10.902700
14.747000 14.747053 14.307600
-14.747053 14.747053 14.307600
14.759500 14.759541 14.277400
-14.759541 14.759541 14.277400
12.445200 -14.080600 13.622000
12.477500 -14.136600 13.622000
12.533600 -14.168900 13.622000
14.080600 -14.168900 13.622000
14.110700 -14.156500 13.622000
14.156500 -14.110700 13.622000
14.168900 -14.080600 13.622000
14.168900 -12.533600 13.622000
14.136600 -12.477500 13.622000
14.080600 -12.445200 13.622000
13.681100 -12.440900 13.622000
13.681100 12.440970 13.622000
14.080600 12.445220 13.622000
14.136600 12.477580 13.622000
14.168900 12.533610 13.622000
14.168900 14.080601 13.622000
14.136600 14.136637 13.622000
14.080600 14.168990 13.622000
14.048200 14.173249 13.622000
-12.565970 14.173249 13.622000
-14.048249 14.173249 13.622000
-14.110749 14.156502 13.622000
-14.156502 14.110749 13.622000
-14.173249 14.048249 13.622000
-14.638800 -14.638800 13.622000
-14.638800 14.638800 13.622000
14.638800 14.638800 13.622000
14.638800 -14.638800 13.622000
-12.565970 -14.173200 13.622000
-12.503470 -14.156500 13.622000
-12.477580 -14.136600 13.622000
-12.445220 -14.080600 13.622000
-12.440970 -13.681100 13.622000
12.440900 -13.681100 13.622000
-12.533610 14.168990 -14.370100
-12.533610 14.168990 13.622000
-12.477580 14.136637 13.622000
-12.477580 14.136637 -14.370100
-14.638800 14.638800 13.622000
12.440900 12.933090 13.622000
-12.440970 12.933090 13.622000
-12.440970 13.058090 10.866100
-12.440970 13.556120 10.866100
-12.440970 13.588480 10.870400
12.440900 13.588480 10.870400
12.440900 13.556120 10.866100
12.440900 13.058090 10.866100
12.440900 13.025740 10.870400
-12.440970 13.025740 10.870400
-12.933090 -12.440900 13.622000
-12.933090 12.440970 13.622000
-12.477580 -14.136600 13.622000
-12.477580 -14.136600 -14.370100
-14.173249 -14.048200 13.622000
-14.173249 -12.565900 13.622000
-14.173249 -12.565900 -14.370100
-14.173249 -14.048200 -14.370100
-13.681120 12.440970 13.622000
-13.681120 -12.440900 13.622000
-14.080601 -12.445200 13.622000
-14.136637 -12.477500 13.622000
-14.168990 -12.533600 13.622000
-14.168990 -14.080600 13.622000
-14.136637 -14.136600 13.622000
-14.080601 -14.168900 13.622000
-14.168990 12.533610 13.622000
-14.136637 12.477580 13.622000
-14.080601 12.445220 13.622000
12.565900 14.173249 13.622000
12.477500 14.136637 13.622000
12.445200 14.080601 13.622000
12.440900 13.681120 13.622000
-12.440970 13.681120 13.622000
-12.445220 14.080601 13.622000
-12.477580 14.136637 13.622000
-12.533610 14.168990 13.622000
12.503400 14.156502 13.622000
-14.638800 14.638800 13.622000
-14.638800 -14.638800 13.622000
-14.638800 -14.638800 14.370100
-14.638800 14.638800 14.370100
14.638800 -14.638800 14.370100
14.638800 14.638800 14.370100
14.638800 14.638800 13.622000
14.638800 -14.638800 13.622000
14.638800 14.638800 13.622000
14.638800 14.638800 14.370100
-14.638800 14.638800 14.370100
-14.638800 14.638800 13.622000
-14.638800 -14.638800 14.370100
-14.638800 -14.638800 13.622000
14.638800 -14.638800 13.622000
14.638800 -14.638800 14.370100
4 0 1 2 3
4 4 5 6 7
4 8 9 10 11
4 12 13 14 15
4 16 17 18 19
4 20 21 2 22
5 23 24 25 26 27
4 28 29 30 31
8 32 33 34 35 2 21 36 37
8 38 39 40 41 42 43 44 45
4 46 47 48 49
16 50 51 52 53 54 55 56 57 58 59 60 61 62 63 64 65
4 66 67 68 69
4 70 71 72 73
4 74 75 76 77
4 78 79 80 81
4 82 83 84 85
12 86 87 88 89 90 91 92 93 94 95 96 97
4 98 99 100 101
8 102 103 104 105 106 107 108 109
4 110 111 112 113
8 114 115 116 117 118 119 120 121
4 71 53 52 72
4 122 123 124 125
3 126 26 25
4 127 128 129 130
3 24 23 131
3 24 131 132
4 133 134 135 136
4 137 138 139 140
4 3 32 141 142
4 143 144 145 146
4 147 148 149 150
4 151 152 153 154
8 130 155 156 157 80 79 158 159
4 160 161 162 163
4 164 165 144 143
4 166 167 168 169
4 170 109 108 171
4 172 173 174 175
4 28 133 136 29
4 176 46 49 177
4 178 179 180 181
4 182 183 184 185
12 186 187 188 189 190 191 192 193 194 195 196 197
4 198 199 5 4
10 200 201 202 203 204 132 131 205 206 207
4 208 209 210 211
8 210 209 212 213 214 215 216 217
8 130 129 218 219 80 157 220 155
8 221 222 122 125 223 224 225 226
4 227 228 170 171
17 229 230 231 232 233 234 235 236 237 238 168 167 239 240 241 242 243
4 159 158 244 245
4 117 113 112 118
4 246 247 165 164
16 248 249 250 147 150 251 252 253 254 255 256 257 258 259 260 261
4 40 15 14 41
8 262 263 264 265 69 68 266 267
4 268 269 270 271
4 271 270 13 12
4 272 114 121 273
4 274 275 276 277
4 148 138 137 149
4 278 1 0 279
17 280 281 282 283 284 285 286 287 288 182 185 289 290 48 47 291 292
4 19 18 293 294
13 295 296 297 298 299 300 301 302 303 304 305 306 307
13 308 309 310 311 312 228 227 313 314 315 316 317 318
4 319 320 321 322
4 215 214 9 8
4 323 324 325 326
4 99 11 10 100
4 327 328 329 330
4 331 332 333 334
4 335 336 337 338
4 339 340 341 342
8 343 344 338 337 345 346 17 16
12 347 348 349 350 351 352 353 354 355 356 357 358
4 334 333 336 335
4 161 359 360 162
4 169 95 94 166
4 361 362 363 364
4 365 366 263 262
12 367 368 369 370 140 139 371 372 373 374 375 376
14 377 378 379 380 381 382 383 384 385 386 387 388 389 390
4 176 177 391 392
10 393 394 395 396 397 398 399 400 26 126
4 341 340 392 391
13 401 402 403 404 405 406 70 73 407 408 409 410 411
4 412 413 111 110
4 414 415 416 417
4 78 81 418 419
4 245 244 179 178
4 419 418 420 421
4 124 123 408 407
34 422 423 424 425 426 427 428 429 430 431 432 433 434 435 436 437 438 439 440 441 442 443 444 445 446 447 448 449 450 451 452 453 454 455
4 151 154 208 211
4 456 457 458 459
4 181 180 142 141
4 458 254 253 459
4 413 412 457 456
4 6 45 44 7
4 369 272 273 370
6 460 33 32 3 2 35
4 365 226 225 366
4 414 461 462 415
8 463 464 465 466 467 468 469 470
4 421 420 278 279
4 82 85 277 276
4 471 294 293 472
4 274 37 36 275
4 465 360 359 466
4 83 128 127 84
4 104 339 342 105
4 235 473 474 236
8 134 475 476 361 364 477 478 135
4 97 96 363 362
4 218 247 246 219
4 64 67 66 65
15 479 480 481 482 483 484 485 486 450 449 446 445 487 488 489
3 490 441 440
4 417 416 470 469
4 314 313 184 183
10 491 492 493 494 495 496 497 441 490 498
4 499 500 501 502
4 503 504 505 506
4 507 508 509 510
4 511 512 513 514
4 145 20 22 146
4 473 31 30 474
