ply
format ascii 1.0
comment Created by Blender 2.82 (sub 7) - www.blender.org, source file: ''
element vertex 408
property float x
property float y
property float z
element face 102
property list uchar uint vertex_indices
end_header
-7.461380 -25.810801 16.555099
-7.350970 -28.314100 16.555099
-7.350970 -28.314100 -17.657499
-7.461380 -25.810801 -17.657499
-9.664548 32.365700 16.555099
-9.664548 32.365700 -17.657499
-7.719340 33.945301 -17.657499
-7.719340 33.945301 16.555099
-2.509420 35.405602 16.555099
0.133600 34.397598 16.555099
0.133600 34.397598 -17.657499
-2.509420 35.405602 -17.657499
-8.231770 21.325199 16.555099
-5.947810 20.294500 16.555099
-5.947810 20.294500 -17.657499
-8.231770 21.325199 -17.657499
-26.338600 46.417400 16.555099
-26.338600 46.417400 17.657499
26.338600 46.417400 17.657499
26.338600 46.417400 16.555099
-0.487750 33.970501 16.555099
-2.853580 34.796200 16.555099
-2.853580 34.796200 -17.657499
-0.487750 33.970501 -17.657499
7.957400 36.829800 16.555099
10.585400 35.783199 16.555099
10.585400 35.783199 -17.657499
7.957400 36.829800 -17.657499
-8.355950 20.406900 16.555099
-10.470540 22.285801 16.555099
-10.470540 22.285801 -17.657499
-8.355950 20.406900 -17.657499
-0.993590 26.606199 16.555099
-0.562550 25.913200 16.555099
-0.562550 25.913200 -17.657499
-0.993590 26.606199 -17.657499
-5.359340 34.787399 -17.657499
-5.359340 34.787399 16.555099
5.083000 21.393900 16.555099
7.588800 21.402700 16.555099
7.588800 21.402700 -17.657499
5.083000 21.393900 -17.657499
8.016300 -28.127899 16.555099
7.033800 -30.780500 16.555099
7.033800 -30.780500 -17.657499
8.016300 -28.127899 -17.657499
6.216700 -30.638000 16.555099
7.153900 -28.314100 16.555099
7.153900 -28.314100 -17.657499
6.216700 -30.638000 -17.657499
7.093400 -22.632601 16.555099
7.093400 -22.632601 -17.657499
6.297900 -22.632601 -17.657499
6.297900 -22.632601 16.555099
-26.338600 -46.417400 16.555099
26.338600 -46.417400 16.555099
26.338600 -46.417400 17.657499
-26.338600 -46.417400 17.657499
13.913400 25.847099 -17.657499
13.913400 25.847099 16.555099
12.445900 23.428801 16.555099
12.445900 23.428801 -17.657499
-26.338600 -46.417400 16.555099
-26.338600 -46.417400 17.657499
26.338600 -46.417400 17.657499
26.338600 -46.417400 16.555099
-26.338600 -46.417400 17.657499
26.338600 -46.417400 17.657499
26.338600 46.417400 17.657499
-26.338600 46.417400 17.657499
-10.216521 32.761398 -17.657499
-10.216521 32.761398 16.555099
-8.013350 34.535500 16.555099
-8.013350 34.535500 -17.657499
2.275400 32.549900 16.555099
3.660200 30.083300 16.555099
3.660200 30.083300 -17.657499
2.275400 32.549900 -17.657499
26.338600 46.417400 16.555099
-26.338600 46.417400 16.555099
-26.338600 -46.417400 16.555099
26.338600 -46.417400 16.555099
7.433400 36.231300 -17.657499
7.957400 36.829800 -17.657499
10.585400 35.783199 -17.657499
12.700000 33.904301 -17.657499
14.048500 31.417700 -17.657499
14.469700 28.620600 -17.657499
13.913400 25.847099 -17.657499
12.445900 23.428801 -17.657499
10.242800 21.654600 -17.657499
7.567200 20.736601 -17.657499
4.738800 20.784500 -17.657499
2.095800 21.792500 -17.657499
-0.046000 23.640301 -17.657499
-1.430750 26.106899 -17.657499
-0.993590 26.606199 -17.657499
0.761000 23.785500 -17.657499
2.717200 22.219601 -17.657499
5.083000 21.393900 -17.657499
7.588800 21.402700 -17.657499
9.948800 22.244900 -17.657499
11.894000 23.824400 -17.657499
13.202600 25.961300 -17.657499
13.725500 28.411900 -17.657499
13.403000 30.896900 -17.657499
12.271900 33.132801 -17.657499
10.461200 34.864899 -17.657499
-26.338600 46.417400 17.657499
26.338600 46.417400 17.657499
26.338600 -46.417400 17.657499
-26.338600 -46.417400 17.657499
5.206700 -32.940399 -17.657499
5.206700 -32.940399 16.555099
2.753500 -34.348400 16.555099
2.753500 -34.348400 -17.657499
10.461200 34.864899 16.555099
12.271900 33.132801 16.555099
13.403000 30.896900 16.555099
13.725500 28.411900 16.555099
13.202600 25.961300 16.555099
11.894000 23.824400 16.555099
9.948800 22.244900 16.555099
7.588800 21.402700 16.555099
5.083000 21.393900 16.555099
2.717200 22.219601 16.555099
0.761000 23.785500 16.555099
-0.993590 26.606199 16.555099
-1.430750 26.106899 16.555099
-0.046000 23.640301 16.555099
2.095800 21.792500 16.555099
4.738800 20.784500 16.555099
7.567200 20.736601 16.555099
10.242800 21.654600 16.555099
12.445900 23.428801 16.555099
13.913400 25.847099 16.555099
14.469700 28.620600 16.555099
14.048500 31.417700 16.555099
12.700000 33.904301 16.555099
10.585400 35.783199 16.555099
7.957400 36.829800 16.555099
7.433400 36.231300 16.555099
-12.240290 27.569599 -17.657499
-12.240290 27.569599 16.555099
-11.683960 30.343000 16.555099
-11.683960 30.343000 -17.657499
-11.496080 27.778200 16.555099
-11.173590 25.293301 16.555099
-11.173590 25.293301 -17.657499
-11.496080 27.778200 -17.657499
-5.727970 19.360300 16.555099
-5.727970 19.360300 -17.657499
0.761000 23.785500 16.555099
2.717200 22.219601 16.555099
2.717200 22.219601 -17.657499
0.761000 23.785500 -17.657499
-10.973190 30.228800 16.555099
-10.973190 30.228800 -17.657499
-8.081590 -28.127899 16.555099
-8.102280 -25.299299 16.555099
-8.102280 -25.299299 -17.657499
-8.081590 -28.127899 -17.657499
-5.727970 19.360300 16.555099
-5.727970 19.360300 -17.657499
-5.203990 19.958799 -17.657499
-5.203990 19.958799 16.555099
-11.819040 24.772400 16.555099
-11.819040 24.772400 -17.657499
7.957400 36.829800 16.555099
7.957400 36.829800 -17.657499
7.433400 36.231300 -17.657499
7.433400 36.231300 16.555099
-5.337730 35.453499 16.555099
-5.337730 35.453499 -17.657499
4.738800 20.784500 16.555099
2.095800 21.792500 16.555099
2.095800 21.792500 -17.657499
4.738800 20.784500 -17.657499
8.177200 35.895599 16.555099
7.433400 36.231300 16.555099
7.433400 36.231300 -17.657499
8.177200 35.895599 -17.657499
13.725500 28.411900 16.555099
13.403000 30.896900 16.555099
13.403000 30.896900 -17.657499
13.725500 28.411900 -17.657499
4.559500 -32.517399 16.555099
4.559500 -32.517399 -17.657499
2.371300 -33.738400 -17.657499
2.371300 -33.738400 16.555099
26.338600 46.417400 16.555099
26.338600 -46.417400 16.555099
26.338600 -46.417400 17.657499
26.338600 46.417400 17.657499
-0.032600 -34.837399 16.555099
-0.032600 -34.837399 -17.657499
-2.818760 -34.348400 16.555099
-2.818760 -34.348400 -17.657499
13.202600 25.961300 -17.657499
13.202600 25.961300 16.555099
-0.993590 26.606199 16.555099
-0.993590 26.606199 -17.657499
-1.430750 26.106899 -17.657499
-1.430750 26.106899 16.555099
-5.271950 -32.940399 16.555099
-7.099000 -30.780500 16.555099
-7.099000 -30.780500 -17.657499
-5.271950 -32.940399 -17.657499
2.275400 32.549900 -17.657499
3.660200 30.083300 -17.657499
3.223000 29.583900 -17.657499
1.468400 32.404598 -17.657499
-0.487750 33.970501 -17.657499
-2.853580 34.796200 -17.657499
-5.359340 34.787399 -17.657499
-7.719340 33.945301 -17.657499
-9.664548 32.365700 -17.657499
-10.973190 30.228800 -17.657499
-11.496080 27.778200 -17.657499
-11.173590 25.293301 -17.657499
-10.042508 23.057301 -17.657499
-8.231770 21.325199 -17.657499
-5.203990 19.958799 -17.657499
-5.727970 19.360300 -17.657499
-8.355950 20.406900 -17.657499
-10.470540 22.285801 -17.657499
-11.819040 24.772400 -17.657499
-12.240290 27.569599 -17.657499
-11.683960 30.343000 -17.657499
-10.216521 32.761398 -17.657499
-8.013350 34.535500 -17.657499
-5.337730 35.453499 -17.657499
-2.509420 35.405602 -17.657499
0.133600 34.397598 -17.657499
9.948800 22.244900 16.555099
9.948800 22.244900 -17.657499
7.264300 -25.810801 16.555099
6.535300 -23.413401 16.555099
6.535300 -23.413401 -17.657499
7.264300 -25.810801 -17.657499
12.271900 33.132801 16.555099
10.461200 34.864899 16.555099
10.461200 34.864899 -17.657499
12.271900 33.132801 -17.657499
-6.732380 -23.413401 16.555099
-6.732380 -23.413401 -17.657499
26.338600 -46.417400 16.555099
-26.338600 -46.417400 16.555099
-26.338600 46.417400 16.555099
26.338600 46.417400 16.555099
12.700000 33.904301 16.555099
12.700000 33.904301 -17.657499
8.177200 35.895599 16.555099
8.177200 35.895599 -17.657499
-10.042508 23.057301 16.555099
-10.042508 23.057301 -17.657499
-5.947810 20.294500 16.555099
-5.203990 19.958799 16.555099
-5.203990 19.958799 -17.657499
-5.947810 20.294500 -17.657499
14.469700 28.620600 -17.657499
14.469700 28.620600 16.555099
7.567200 20.736601 16.555099
7.567200 20.736601 -17.657499
26.338600 46.417400 17.657499
26.338600 -46.417400 17.657499
26.338600 -46.417400 16.555099
26.338600 46.417400 16.555099
14.048500 31.417700 16.555099
14.048500 31.417700 -17.657499
10.242800 21.654600 16.555099
10.242800 21.654600 -17.657499
-0.487750 33.970501 16.555099
1.468400 32.404598 16.555099
3.223000 29.583900 16.555099
3.660200 30.083300 16.555099
2.275400 32.549900 16.555099
0.133600 34.397598 16.555099
-2.509420 35.405602 16.555099
-5.337730 35.453499 16.555099
-8.013350 34.535500 16.555099
-10.216521 32.761398 16.555099
-11.683960 30.343000 16.555099
-12.240290 27.569599 16.555099
-11.819040 24.772400 16.555099
-10.470540 22.285801 16.555099
-8.355950 20.406900 16.555099
-5.727970 19.360300 16.555099
-5.203990 19.958799 16.555099
-8.231770 21.325199 16.555099
-10.042508 23.057301 16.555099
-11.173590 25.293301 16.555099
-11.496080 27.778200 16.555099
-10.973190 30.228800 16.555099
-9.664548 32.365700 16.555099
-7.719340 33.945301 16.555099
-5.359340 34.787399 16.555099
-2.853580 34.796200 16.555099
-26.338600 46.417400 16.555099
26.338600 46.417400 16.555099
26.338600 46.417400 17.657499
-26.338600 46.417400 17.657499
2.792000 30.276899 16.555099
1.468400 32.404598 16.555099
1.468400 32.404598 -17.657499
2.792000 30.276899 -17.657499
11.894000 23.824400 16.555099
11.894000 23.824400 -17.657499
-0.046000 23.640301 16.555099
-0.046000 23.640301 -17.657499
-1.430750 26.106899 16.555099
-1.430750 26.106899 -17.657499
-4.756560 -32.517399 -17.657499
-2.568330 -33.738400 -17.657499
-0.098520 -34.161400 -17.657499
2.371300 -33.738400 -17.657499
4.559500 -32.517399 -17.657499
6.216700 -30.638000 -17.657499
7.153900 -28.314100 -17.657499
7.264300 -25.810801 -17.657499
6.297900 -22.632601 -17.657499
7.093400 -22.632601 -17.657499
8.037000 -25.299299 -17.657499
8.016300 -28.127899 -17.657499
7.033800 -30.780500 -17.657499
5.206700 -32.940399 -17.657499
2.753500 -34.348400 -17.657499
-0.032600 -34.837399 -17.657499
-2.818760 -34.348400 -17.657499
-5.271950 -32.940399 -17.657499
-7.099000 -30.780500 -17.657499
-8.081590 -28.127899 -17.657499
-8.102280 -25.299299 -17.657499
-7.158610 -22.632601 -17.657499
-6.494970 -22.632601 -17.657499
-7.461380 -25.810801 -17.657499
-7.350970 -28.314100 -17.657499
-6.413750 -30.638000 -17.657499
-0.098520 -34.161400 -17.657499
-0.098520 -34.161400 16.555099
-26.338600 -46.417400 17.657499
-26.338600 46.417400 17.657499
-26.338600 46.417400 16.555099
-26.338600 -46.417400 16.555099
6.535300 -23.413401 16.555099
6.297900 -22.632601 16.555099
6.297900 -22.632601 -17.657499
6.535300 -23.413401 -17.657499
-2.568330 -33.738400 -17.657499
-2.568330 -33.738400 16.555099
8.037000 -25.299299 16.555099
8.037000 -25.299299 -17.657499
-4.756560 -32.517399 -17.657499
-4.756560 -32.517399 16.555099
-6.413750 -30.638000 16.555099
-6.413750 -30.638000 -17.657499
-6.494970 -22.632601 16.555099
-6.494970 -22.632601 -17.657499
-7.158610 -22.632601 -17.657499
-7.158610 -22.632601 16.555099
-0.562550 25.913200 16.555099
-0.562550 25.913200 -17.657499
-7.158610 -22.632601 16.555099
-7.158610 -22.632601 -17.657499
3.223000 29.583900 16.555099
3.223000 29.583900 -17.657499
3.660200 30.083300 -17.657499
3.660200 30.083300 16.555099
7.093400 -22.632601 16.555099
7.093400 -22.632601 -17.657499
-6.494970 -22.632601 16.555099
-6.732380 -23.413401 16.555099
-6.732380 -23.413401 -17.657499
-6.494970 -22.632601 -17.657499
-26.338600 -46.417400 16.555099
-26.338600 46.417400 16.555099
-26.338600 46.417400 17.657499
-26.338600 -46.417400 17.657499
8.037000 -25.299299 16.555099
7.093400 -22.632601 16.555099
6.297900 -22.632601 16.555099
7.264300 -25.810801 16.555099
7.153900 -28.314100 16.555099
6.216700 -30.638000 16.555099
4.559500 -32.517399 16.555099
2.371300 -33.738400 16.555099
-0.098520 -34.161400 16.555099
-2.568330 -33.738400 16.555099
-4.756560 -32.517399 16.555099
-6.413750 -30.638000 16.555099
-7.350970 -28.314100 16.555099
-7.461380 -25.810801 16.555099
-6.494970 -22.632601 16.555099
-7.158610 -22.632601 16.555099
-8.102280 -25.299299 16.555099
-8.081590 -28.127899 16.555099
-7.099000 -30.780500 16.555099
-5.271950 -32.940399 16.555099
-2.818760 -34.348400 16.555099
-0.032600 -34.837399 16.555099
2.753500 -34.348400 16.555099
5.206700 -32.940399 16.555099
7.033800 -30.780500 16.555099
8.016300 -28.127899 16.555099
3.223000 29.583900 16.555099
2.792000 30.276899 16.555099
2.792000 30.276899 -17.657499
3.223000 29.583900 -17.657499
4 0 1 2 3
4 4 5 6 7
4 8 9 10 11
4 12 13 14 15
4 16 17 18 19
4 20 21 22 23
4 24 25 26 27
4 28 29 30 31
4 32 33 34 35
4 7 6 36 37
4 38 39 40 41
4 42 43 44 45
4 46 47 48 49
4 50 51 52 53
4 54 55 56 57
4 58 59 60 61
4 62 63 64 65
4 66 67 68 69
4 70 71 72 73
4 74 75 76 77
4 78 79 80 81
26 82 83 84 85 86 87 88 89 90 91 92 93 94 95 96 97 98 99 100 101 102 103 104 105 106 107
4 108 109 110 111
4 112 113 114 115
26 116 117 118 119 120 121 122 123 124 125 126 127 128 129 130 131 132 133 134 135 136 137 138 139 140 141
4 142 143 144 145
4 146 147 148 149
4 150 28 31 151
4 152 153 154 155
4 156 157 5 4
4 158 159 160 161
4 162 163 164 165
4 166 143 142 167
4 168 169 170 171
4 172 8 11 173
4 73 72 172 173
4 174 175 176 177
4 178 179 180 181
4 145 144 71 70
4 182 183 184 185
4 186 187 188 189
4 29 166 167 30
4 190 191 192 193
4 115 114 194 195
4 195 194 196 197
4 182 185 198 199
4 200 201 202 203
4 204 205 206 207
26 208 209 210 211 212 213 214 215 216 217 218 219 220 221 222 223 224 225 226 227 228 229 230 231 232 233
4 234 235 40 39
4 236 237 238 239
4 240 241 242 243
4 244 0 3 245
4 146 149 157 156
4 183 240 243 184
4 21 37 36 22
4 246 247 248 249
4 25 250 251 26
4 241 252 253 242
4 254 12 15 255
4 256 257 258 259
4 260 261 59 58
4 262 174 177 263
4 264 265 266 267
4 147 254 255 148
4 268 261 260 269
4 61 60 270 271
4 9 74 77 10
4 271 270 262 263
26 272 273 274 275 276 277 278 279 280 281 282 283 284 285 286 287 288 289 290 291 292 293 294 295 296 297
4 298 299 300 301
4 302 303 304 305
4 306 307 235 234
4 175 308 309 176
4 186 46 49 187
4 308 310 311 309
26 312 313 314 315 316 317 318 319 320 321 322 323 324 325 326 327 328 329 330 331 332 333 334 335 336 337
4 189 188 338 339
4 43 113 112 44
4 340 341 342 343
4 344 345 346 347
4 339 338 348 349
4 350 42 45 351
4 349 348 352 353
4 354 353 352 355
4 356 357 358 359
4 1 354 355 2
4 360 152 155 361
4 159 362 363 160
4 364 365 366 367
4 197 196 204 207
4 47 236 239 48
4 205 158 161 206
4 368 350 351 369
4 370 371 372 373
4 374 375 376 377
4 199 198 307 306
4 303 20 23 304
26 378 379 380 381 382 383 384 385 386 387 388 389 390 391 392 393 394 395 396 397 398 399 400 401 402 403
4 404 405 406 407
4 153 38 41 154
4 250 268 269 251
