ply
format ascii 1.0
comment Created by Blender 2.82 (sub 7) - www.blender.org, source file: ''
element vertex 650
property float x
property float y
property float z
element face 343
property list uchar uint vertex_indices
end_header
-3.507900 -6.045565 7.625533
-3.511200 -6.065065 7.717933
-3.506300 -6.036365 7.807833
-3.501100 -6.005865 7.844033
-3.486900 -5.922965 7.887033
-3.478900 -5.876065 7.890833
-3.463800 -5.787565 7.861633
-3.453100 -5.725165 7.791533
-3.449800 -5.705765 7.699133
-3.454700 -5.734465 7.609233
-3.459900 -5.764865 7.573033
-3.474100 -5.847865 7.530033
-3.482100 -5.894665 7.526233
-3.497200 -5.983265 7.555433
8.164700 3.336795 -7.663760
6.300200 3.586045 7.544933
6.276000 3.544975 7.543533
6.243200 3.511415 7.532333
8.108700 3.262035 -7.683810
8.336100 3.322975 -8.164608
8.359700 3.354065 -8.133832
8.377500 3.393795 -8.113518
-6.531010 6.269215 -7.511900
-5.945240 4.486075 7.662433
-5.854300 4.511945 7.688433
-6.585320 6.465855 -7.969984
-6.676150 6.437355 -7.965470
6.160900 3.475265 7.484633
6.203900 3.487635 7.512333
5.539200 3.887995 7.718133
5.481800 3.857695 7.648033
6.117000 3.475155 7.451333
6.857200 6.914295 8.469633
9.302700 2.565435 8.469633
9.302700 2.565435 7.797233
6.857200 6.914295 7.797233
1.243300 -6.830365 7.586333
1.233400 -6.748165 7.534933
1.546900 -6.801765 7.534933
1.533600 -6.879965 7.586333
1.582200 -6.595365 7.609233
1.587100 -6.566665 7.699133
1.586500 -6.570465 7.746633
1.579300 -6.612765 7.830733
1.565900 -6.690865 7.882133
1.558000 -6.737065 7.890833
1.550000 -6.783865 7.887033
1.535800 -6.866865 7.844033
1.527200 -6.917465 7.764833
1.525700 -6.925965 7.717933
1.529000 -6.906565 7.625533
1.562800 -6.708765 7.530033
1.577000 -6.625865 7.573033
9.126400 3.150435 -8.449571
9.069100 3.094135 -8.386039
8.195100 3.344125 -8.386039
8.175900 3.381625 -8.422407
8.163500 3.425895 -8.449571
0.859400 -7.051865 7.433333
0.854200 -7.006265 7.413233
0.852600 -7.096165 7.460933
5.367100 4.286015 7.648033
5.428200 4.302385 7.718133
-3.167200 -6.062965 7.844033
-3.189900 -6.090465 7.807833
5.697000 4.003415 7.727533
6.313900 3.631825 7.536533
6.316400 3.679175 7.518833
5.729800 4.032505 7.700533
5.642100 4.359715 7.700533
5.604200 4.349565 7.727533
-6.614940 6.108705 -7.535610
-6.791760 6.313555 -8.088203
-6.970720 7.345725 -8.088203
-6.979890 7.348995 -8.135086
-6.975610 7.347465 -8.182564
-6.785570 6.251415 -8.182564
-6.606760 6.062935 -7.547903
-6.026080 4.295315 7.494333
-6.033320 4.338205 7.531133
-2.379200 -8.662765 -7.965470
-2.472700 -8.654065 -8.008741
-2.125100 -9.547265 -8.008741
-2.064000 -9.472465 -7.965470
-5.980540 3.740705 7.534933
-5.936890 3.716495 7.526233
-6.190740 3.497385 7.526233
-6.249460 3.565415 7.555433
-6.019190 3.764175 7.555433
0.810200 -6.923365 7.400733
1.213200 -6.649065 7.530033
1.234000 -6.876165 7.717933
1.240200 -6.873365 7.670433
1.243400 -6.857765 7.625533
6.689600 -0.649865 7.648033
6.574900 -0.221565 7.648033
6.559600 -0.226165 7.603133
6.674200 -0.653965 7.603133
8.354800 3.617775 -8.188643
9.320700 3.341475 -8.188643
9.337400 3.357835 -8.231737
8.330200 3.645955 -8.231737
8.068800 3.575915 -7.679144
8.108900 3.551885 -7.668785
8.935700 1.386035 -8.231737
8.674300 1.315935 -7.679144
7.198100 0.178535 7.387533
7.168000 0.147135 7.350833
8.641900 1.282735 -7.691437
8.895700 1.338135 -8.326098
9.668900 2.137835 -8.326098
9.663900 2.139135 -8.231737
-5.806830 4.508105 7.687033
-5.922940 3.766425 7.887033
-6.209480 3.519095 7.887033
-6.178450 3.483145 7.890833
-5.877260 3.743125 7.890833
-5.833610 3.718905 7.882133
-5.762320 4.493165 7.675933
5.348000 4.280915 7.555633
5.461200 3.858555 7.555633
5.466300 3.854045 7.603133
7.130000 0.125335 7.317433
6.901300 -0.288265 7.442733
6.863800 -0.288265 7.411833
7.086500 0.114435 7.289833
-6.264460 3.582785 7.844033
-6.298030 3.621685 7.764833
-6.301220 3.625375 7.670433
-6.290800 3.613305 7.625533
-6.159700 3.461435 7.530033
-6.104730 3.397735 7.573033
-6.084530 3.374335 7.609233
-6.065500 3.352295 7.699133
-6.078380 3.367225 7.791533
-6.119730 3.415115 7.861633
1.201900 -6.809765 7.844033
1.225100 -6.865865 7.764833
9.341100 3.361475 -8.326098
8.271500 3.667415 -8.326098
7.977700 3.588675 -7.704826
6.136000 3.834875 7.317433
6.221600 3.822835 7.387533
-3.071100 -5.831365 7.573033
-2.744200 -6.275365 7.426733
-2.791200 -6.282265 7.409133
-2.835500 -6.300165 7.400733
-3.124500 -5.907565 7.530033
-3.151600 -5.951165 7.526233
-2.874100 -6.327965 7.402133
-2.904500 -6.363765 7.413233
-2.924600 -6.405065 7.433333
-3.197400 -6.034465 7.555433
-2.593900 6.663975 7.534933
-3.051900 6.689085 7.413233
-3.071000 6.730835 7.433333
-3.099700 6.765265 7.460933
-2.627900 6.739385 7.586333
6.092900 3.822505 7.289833
5.698700 4.059945 7.411833
5.731200 4.078665 7.442733
9.620800 2.150235 -8.410074
8.865600 1.330135 -8.370935
8.831500 1.333935 -8.410074
-5.967810 7.930595 -8.322144
-5.948930 7.835955 -8.278873
-6.649840 7.230945 -8.278873
-6.740710 7.263445 -8.322144
-2.404900 6.931835 7.586333
-2.652700 6.774695 7.670433
-2.433000 6.964355 7.670433
-3.361000 6.697355 7.680033
-3.336400 6.737925 7.662433
-5.014880 7.577905 -7.511900
-5.041650 7.538445 -7.514372
-2.353100 6.871825 7.534933
-6.958180 7.341235 -8.227400
-6.765160 6.227965 -8.227400
-2.396200 6.921765 7.844033
-2.429800 6.960665 7.764833
-2.661800 6.760435 7.764833
-2.652600 6.700425 7.844033
5.980400 3.630965 7.283233
6.009100 3.544295 7.340833
5.466800 3.870935 7.508733
5.482800 3.890335 7.465733
9.114100 3.138235 -8.133832
9.360700 2.217635 -8.133832
9.408700 2.205235 -8.113518
9.149400 3.172985 -8.113518
6.878200 0.268135 7.308833
6.874800 0.313535 7.340833
8.353800 1.453035 -7.753975
8.354500 1.405635 -7.758528
1.146900 -6.538865 7.830733
1.156700 -6.620965 7.882133
-2.535000 6.404705 7.746633
-2.526000 6.418975 7.652233
-2.202900 6.697815 7.652233
-2.199700 6.694135 7.746633
6.877000 -0.248965 7.700533
7.208400 0.350335 7.518833
7.182500 0.390135 7.536533
6.834000 -0.240165 7.727533
6.926800 -0.586365 7.727533
6.994600 -0.568165 7.664233
6.911500 -0.258065 7.664233
0.515500 -6.968565 7.628233
0.514000 -7.058465 7.675933
-1.038800 -9.471365 -8.021074
-1.007900 -9.557265 -7.969984
-0.484700 -8.948265 -7.969984
-0.531800 -8.881165 -8.021074
8.241600 3.659245 -8.370935
8.213800 3.638925 -8.410074
7.892700 3.552885 -7.731230
6.053600 3.798735 7.269733
-1.909600 -9.283265 -8.199411
-1.053900 -9.429465 -8.199411
-1.034000 -9.484765 -8.278873
-1.946700 -9.328665 -8.278873
5.771600 4.093905 7.526933
-0.356400 -8.437465 -7.610440
0.641600 -6.859565 7.484333
0.687100 -6.858665 7.452433
-0.309100 -8.433665 -7.614994
-5.846510 4.178655 7.400733
-6.425890 5.942305 -7.607746
-6.653040 6.205465 -8.317630
-6.562210 6.233955 -8.322144
-6.336280 5.972215 -7.616071
-5.755580 4.204525 7.426733
0.732400 -6.869665 7.426733
1.165000 -6.503365 7.652233
1.176000 -6.525965 7.609233
1.188200 -6.559465 7.573033
-5.806130 3.655485 7.573033
-5.891210 3.693185 7.530033
-0.938400 -9.750065 -8.008741
-0.971100 -9.659265 -7.965470
0.774400 -6.891665 7.409133
-0.218900 -8.462065 -7.613599
-0.277700 -8.805965 -8.326098
-0.320500 -8.782965 -8.322144
-0.366100 -8.767265 -8.306036
5.655000 4.363155 7.442733
5.696500 4.374275 7.526933
-5.160010 7.746045 -7.965470
-5.201470 7.660355 -7.969984
-5.057560 7.493625 -7.520225
8.141700 3.518015 -7.661066
8.164800 3.476605 -7.656512
8.386500 3.535995 -8.125112
-4.933990 7.689315 -8.317630
-4.706830 7.426155 -7.607746
-3.046700 6.595355 7.400733
-3.085600 6.509175 7.426733
-4.749510 7.341875 -7.616071
-4.975440 7.603625 -8.322144
-4.964640 7.297075 -7.580069
-5.147820 7.509295 -8.152527
-5.175370 7.522535 -8.105050
-5.936430 7.773295 -8.105050
-5.935540 7.768835 -8.152527
-5.937450 7.778375 -8.199411
-5.114810 7.507335 -8.199411
-4.920560 7.282295 -7.592362
-3.244800 6.443635 7.558033
-3.286100 6.457065 7.594833
-2.576200 6.473775 7.861633
-2.593800 6.515435 7.882133
-3.370200 6.558015 7.675933
-3.351100 6.516275 7.655833
-3.322400 6.481835 7.628233
-2.559900 6.440015 7.830733
-2.248700 -8.618865 -7.990298
-2.286700 -8.640265 -7.969984
-1.995500 -9.388465 -7.969984
-1.964200 -9.350065 -7.990298
-2.210100 6.706205 7.791533
-2.545800 6.416455 7.791533
-6.017510 8.179705 -8.135086
-6.015600 8.170155 -8.088203
-5.020650 7.842335 -8.088203
-4.843830 7.637485 -7.535610
-3.177300 6.803465 7.531133
-3.135900 6.790035 7.494333
-4.799750 7.622705 -7.547903
-4.960080 7.827135 -8.182564
-6.016620 8.175245 -8.182564
0.834400 -7.136165 7.494333
0.805900 -7.168965 7.531133
-0.489100 -8.556865 -7.566680
-0.533600 -8.816765 -8.105050
-0.492100 -8.649065 -7.540276
6.750700 -0.633465 7.718133
6.837600 -0.610265 7.747233
6.734600 -0.225965 7.747233
6.639700 -0.219065 7.718133
-3.222300 -6.094465 7.625533
-3.224500 -6.110165 7.670433
-3.219500 -6.114865 7.717933
-4.731060 7.561615 -7.574864
-4.939870 7.803515 -8.227400
-5.690050 4.268125 7.484333
-6.272760 6.041915 -7.610440
-6.008020 3.804135 7.844033
-6.010760 4.422485 7.604833
-6.066060 3.821925 7.764833
-0.411600 -8.760065 -8.278873
-0.400900 -8.453065 -7.602721
9.427400 2.200335 -8.465678
9.377500 2.213235 -8.449571
9.163200 3.186555 -8.465678
6.678900 -0.652765 7.508733
6.728600 -0.639465 7.429433
6.809800 -0.617665 7.386533
6.855700 -0.605365 7.382733
6.942500 -0.582065 7.411833
6.977500 -0.572765 7.442733
7.019000 -0.561565 7.526933
7.022700 -0.560665 7.574433
9.263400 3.285135 -8.125112
9.295500 3.316675 -8.152275
-2.291500 6.800415 7.530033
-2.560000 6.568655 7.530033
-3.043600 6.642885 7.402133
-4.759660 8.577835 8.469633
0.074000 9.814465 8.469633
0.074000 9.814465 7.797233
-4.759660 8.577835 7.797233
-2.635300 -9.104965 8.469633
-4.948870 -8.115765 8.469633
-4.948870 -8.115765 7.797233
-2.635300 -9.104965 7.797233
-3.264000 6.793455 7.604833
-2.341700 -8.443865 -7.511900
-2.670000 -6.589565 7.688433
-2.761200 -6.614465 7.662433
8.850600 1.628035 -8.113518
8.909700 1.553435 -8.109004
9.513700 2.178035 -8.109004
9.226700 3.249015 -8.109004
8.391300 3.487975 -8.109004
8.388300 3.439475 -8.105050
8.176800 3.430485 -7.655435
8.176700 3.382805 -7.657907
9.052500 3.077735 -8.342945
9.045600 3.070935 -8.296062
9.048800 3.074135 -8.248584
8.278400 3.294475 -8.248584
8.023700 3.226245 -7.710214
6.075200 3.487305 7.414533
7.932600 3.239005 -7.735896
8.219800 3.315945 -8.342945
-5.674740 4.395285 7.594833
-5.693950 4.434765 7.628233
-5.763970 3.674315 7.830733
-5.742710 3.656965 7.791533
-5.732670 3.644585 7.746633
-5.667500 4.352395 7.558033
-3.048500 -5.803865 7.609233
8.557000 1.247435 -7.718399
-3.158100 6.453645 7.484333
-4.827740 7.289225 -7.610440
-4.785330 7.310455 -7.614994
-4.936650 7.630565 -7.517531
6.943900 -0.281265 7.526933
-0.235900 -9.010665 -8.088203
-0.918500 -9.805365 -8.088203
-0.916700 -9.810165 -8.182564
-0.191900 -8.966365 -8.182564
-0.160200 -8.708565 -7.547903
-0.190300 -8.743965 -7.535610
7.147700 0.422835 7.544933
7.106300 0.446335 7.543533
-5.794970 3.695435 7.861633
-5.748100 3.637685 7.652233
-5.772530 3.643645 7.609233
-6.081490 3.815035 7.670433
-6.071440 3.802655 7.625533
9.607100 2.153835 -8.152275
4.689200 -8.225065 8.469633
4.689200 -8.225065 7.797233
8.257000 -4.737265 7.797233
8.257000 -4.737265 8.469633
-6.050190 3.785305 7.586333
7.061100 0.459035 7.532333
7.015200 0.460035 7.512333
-4.926360 7.732175 -8.297316
-5.989030 8.036935 -8.317630
-6.006890 8.126485 -8.266540
-4.928360 7.771125 -8.266540
-1.906300 -9.279165 -8.105050
-1.055700 -9.424565 -8.105050
9.267700 2.241735 -8.296062
9.299800 2.233435 -8.386039
9.277200 2.239235 -8.342945
6.626500 -0.258465 7.429433
6.893300 0.224135 7.283233
6.919100 0.184335 7.265633
6.953900 0.151535 7.257233
6.718000 -0.275065 7.386533
7.892500 3.263035 -7.746255
-2.173600 -8.183065 -7.592362
-2.223700 -8.476065 -8.199411
-2.293200 -8.438465 -8.278873
-2.201300 -8.145265 -7.602721
9.062000 3.087035 -8.203748
9.290100 2.235935 -8.203748
5.982900 3.678325 7.265633
5.996700 3.724095 7.257233
7.836700 3.478125 -7.751280
8.172500 3.568095 -8.461164
8.158600 3.473925 -8.465678
7.824600 3.384425 -7.759606
-5.093830 7.812655 -8.008741
6.933600 0.427335 7.451333
-0.228900 -8.770365 -7.525251
-0.271800 -9.021265 -8.045109
-0.313900 -9.023065 -8.008741
-2.107600 -9.525865 -8.297316
-2.517100 -8.473665 -8.297316
-2.479100 -8.452265 -8.317630
-2.076300 -9.487465 -8.317630
9.240500 3.262585 -8.461164
9.532400 2.173135 -8.461164
8.760200 1.374535 -8.461164
8.728100 1.408735 -8.469633
8.701100 1.449235 -8.465678
-2.153800 -9.582465 -8.227400
-2.165500 -9.596765 -8.182564
-2.568900 -8.560065 -8.182564
-2.563500 -8.529465 -8.227400
-4.702880 7.473265 -7.598911
7.859700 3.296905 -7.753975
-6.473200 6.443345 -8.060213
-6.541810 6.467135 -7.990298
-5.723820 4.468155 7.655833
8.943000 1.422735 -8.188643
8.697100 1.356835 -7.668785
8.940900 1.464835 -8.152275
-1.937800 -9.317765 -8.021074
-1.918000 -9.293565 -8.060213
-2.162200 -9.592765 -8.088203
-2.511800 -8.638465 -8.045109
-2.468900 -8.387465 -7.525251
-2.496500 -8.349765 -7.535610
-2.542100 -8.616465 -8.088203
-3.018800 -5.779365 7.699133
-3.030600 -5.786165 7.652233
9.327900 3.348495 -8.370935
9.305600 3.326615 -8.410074
9.275800 3.297305 -8.440850
8.190300 3.607835 -8.440850
-2.251500 6.754095 7.861633
-2.310200 6.822125 7.890833
-2.611400 6.562145 7.890833
-2.434700 -8.437265 -8.326098
-2.386700 -8.429765 -8.322144
-2.007700 -9.403465 -8.322144
-1.001300 -9.575465 -8.322144
-0.240700 -8.834865 -8.317630
-0.964600 -9.677565 -8.317630
-0.132900 -8.620765 -7.574864
-0.186800 -8.935765 -8.227400
-0.193600 -8.902065 -8.266540
-0.137600 -8.574365 -7.587695
-3.086800 -5.943165 7.890833
-3.061900 -5.899865 7.882133
-3.040900 -5.859765 7.861633
5.376100 4.288445 7.465733
5.443900 4.306605 7.402433
5.540900 3.944535 7.402433
-3.013800 -5.784065 7.746633
-3.016000 -5.799865 7.791533
-6.610770 6.155285 -7.525251
-6.594530 6.199515 -7.517531
-6.567330 6.238375 -7.512978
-6.717270 6.412085 -7.981578
-6.751710 6.381605 -8.008741
-6.777120 6.348005 -8.045109
5.618000 3.941335 7.747233
5.515000 4.325645 7.747233
2.353800 -9.161565 7.797233
2.353800 -9.161565 8.469633
6.568500 -0.240565 7.508733
-3.207700 -6.108165 7.764833
8.465200 1.260535 -7.742445
6.995400 0.128035 7.258633
8.391000 1.318435 -7.757134
8.795500 1.349035 -8.440850
-0.447600 -8.731165 -7.520225
0.558000 -7.141365 7.688433
8.681300 1.493235 -8.449571
8.667900 1.579835 -8.386039
5.771100 4.077015 7.621233
5.691800 4.373015 7.621233
-6.486650 6.289705 -8.278873
-0.933600 -9.763465 -8.266540
-2.134000 -9.558265 -8.266540
-6.607110 7.215655 -8.060213
-6.675850 7.240245 -7.990298
-6.824580 7.293445 -7.965470
-6.915440 7.325945 -8.008741
8.708500 1.402535 -7.661066
-0.367500 -8.781265 -7.511900
-0.410800 -8.761365 -7.514372
0.593800 -7.172965 7.680033
-0.405000 -9.000265 -7.965470
8.815300 1.653535 -8.133832
5.619900 4.006615 7.382733
5.533200 4.330515 7.382733
5.620000 4.353775 7.411833
8.779400 1.668635 -8.164608
8.745200 1.672435 -8.203748
-3.025300 -5.825665 7.830733
6.020800 3.765165 7.258633
8.695200 1.495935 -7.655435
-2.238000 -8.115765 -7.610440
-2.338400 -8.430165 -8.306036
-2.281400 -8.096565 -7.614994
1.156100 -6.493065 7.699133
-2.850200 -6.593765 7.604833
1.149900 -6.495765 7.746633
-0.320600 -8.789665 -7.512978
-0.273300 -8.785965 -7.517531
6.768900 -0.281465 7.382733
0.635800 -7.195065 7.662433
1.176900 -6.720165 7.887033
-2.929000 -6.492865 7.494333
-2.236500 6.736715 7.573033
-2.535100 6.478975 7.573033
-2.341200 6.858075 7.887033
-3.375300 6.651745 7.688433
-2.627800 6.610745 7.887033
-2.202300 -8.563065 -8.060213
-2.196900 -8.532465 -8.105050
-2.572500 -6.440665 7.628233
-2.600900 -6.525965 7.675933
-2.220000 -8.592565 -8.021074
-6.948740 7.337855 -8.045109
-3.378500 6.604225 7.687033
-2.432100 -8.416965 -7.517531
8.365200 1.498735 -7.746255
8.715200 1.664535 -8.248584
8.691200 1.645435 -8.296062
-2.913000 -6.533265 7.531133
-2.513100 -8.306365 -7.547903
-5.734500 3.638005 7.699133
6.946100 -0.274765 7.574433
-6.011040 8.147265 -8.045109
-2.545900 -8.499965 -8.266540
-2.489800 -8.172265 -7.587695
-2.420600 -8.109665 -7.607746
9.272100 2.240535 -8.248584
-6.594560 7.211175 -8.199411
-6.585400 7.207895 -8.152527
-6.589680 7.209425 -8.105050
-6.452790 6.419895 -8.105050
-6.443720 6.390705 -8.152527
-6.252350 6.132725 -7.592362
-6.446600 6.357765 -8.199411
8.675100 1.616635 -8.342945
8.388000 1.539635 -7.735896
6.903500 0.395935 7.414533
0.726500 -7.205165 7.604833
-5.061510 7.446515 -7.529061
-5.209100 7.617495 -7.990298
-5.195590 7.546155 -8.060213
-5.033320 7.358165 -7.553107
6.287700 3.765845 7.461333
-2.592400 -6.356465 7.558033
-2.655300 -6.295965 7.484333
8.308400 3.302655 -8.203748
-6.006870 4.255835 7.460933
-5.976990 4.222445 7.433333
-5.938490 4.197435 7.413233
0.681100 -7.206065 7.636733
-8.327420 5.090045 7.797233
-8.327420 5.090045 8.469633
7.226800 0.260935 7.461333
6.935000 -0.266865 7.621233
-4.890520 7.640165 -7.525251
-5.056870 7.832885 -8.045109
-8.436660 -4.548065 8.469633
-8.436660 -4.548065 7.797233
-0.489600 -8.772465 -8.199411
-0.439500 -8.479465 -7.592362
-4.873870 7.279615 -7.602721
-5.041630 7.537015 -8.278873
-5.006450 7.566635 -8.306036
-9.673300 0.285635 8.469633
-9.673300 0.285635 7.797233
-5.893990 4.182495 7.402133
-6.473080 5.945275 -7.598911
-6.696560 6.204175 -8.297316
-6.013000 8.157095 -8.227400
-2.509700 -8.214465 -7.574864
-6.004120 8.112585 -8.008741
-5.942010 7.801275 -8.242505
-6.616540 7.219035 -8.242505
-5.985240 8.017945 -7.965470
-2.697900 -6.280065 7.452433
-5.940050 7.791445 -8.060213
-5.954340 7.863045 -7.990298
-6.256520 6.086145 -7.602721
-6.461240 6.323315 -8.242505
-6.889440 7.316645 -8.297316
-6.842810 7.299965 -8.317630
9.602800 0.067135 7.797233
9.602800 0.067135 8.469633
-6.722480 7.256925 -7.969984
-6.928790 7.330725 -8.266540
-0.182100 -8.492265 -7.607746
-5.964020 7.911605 -7.969984
-3.113800 -5.986665 7.887033
0.562300 -6.895765 7.558033
-6.556360 5.986065 -7.574864
-2.375900 -8.093365 -7.613599
-8.327420 5.090045 7.797233
-4.759660 8.577835 7.797233
0.074000 9.814465 7.797233
2.564800 9.457785 7.797233
6.857200 6.914295 7.797233
9.302700 2.565435 7.797233
9.602800 0.067135 7.797233
8.257000 -4.737265 7.797233
4.689200 -8.225065 7.797233
2.353800 -9.161565 7.797233
-2.635300 -9.104965 7.797233
-4.948870 -8.115765 7.797233
-8.436660 -4.548065 7.797233
-9.673300 0.285635 7.797233
-8.327420 5.090045 8.469633
-9.673300 0.285635 8.469633
-8.436660 -4.548065 8.469633
-4.948870 -8.115765 8.469633
-2.635300 -9.104965 8.469633
2.353800 -9.161565 8.469633
4.689200 -8.225065 8.469633
8.257000 -4.737265 8.469633
9.602800 0.067135 8.469633
9.302700 2.565435 8.469633
6.857200 6.914295 8.469633
2.564800 9.457785 8.469633
0.074000 9.814465 8.469633
-4.759660 8.577835 8.469633
2.564800 9.457785 8.469633
2.564800 9.457785 7.797233
14 0 1 2 3 4 5 6 7 8 9 10 11 12 13
8 14 15 16 17 18 19 20 21
5 22 23 24 25 26
5 27 28 29 30 31
4 32 33 34 35
4 36 37 38 39
15 40 41 42 43 44 45 46 47 48 49 50 39 38 51 52
5 53 54 55 56 57
5 58 59 37 36 60
4 61 30 29 62
4 63 3 2 64
6 65 66 67 68 69 70
9 71 72 73 74 75 76 77 78 79
4 80 81 82 83
5 84 85 86 87 88
6 59 89 90 51 38 37
5 49 91 92 93 50
4 94 95 96 97
6 98 99 100 101 102 103
8 104 105 106 107 108 109 110 111
8 112 24 113 114 115 116 117 118
5 61 119 120 121 30
4 122 123 124 125
14 126 127 128 129 87 86 130 131 132 133 134 135 115 114
4 136 137 48 47
8 101 100 138 139 140 141 142 102
7 10 143 144 145 146 147 11
5 148 149 150 151 152
5 153 154 155 156 157
4 141 158 159 160
5 161 110 109 162 163
4 164 165 166 167
4 168 157 169 170
4 171 172 173 174
4 175 153 157 168
4 76 75 176 177
4 178 179 180 181
4 182 183 184 185
4 186 187 188 189
4 48 137 91 49
4 190 191 192 193
4 194 195 44 43
4 196 197 198 199
7 200 201 202 203 204 205 206
4 194 207 208 195
4 209 210 211 212
8 140 139 213 214 215 216 158 141
4 217 218 219 220
4 221 142 141 160
4 222 223 224 225
6 226 227 228 229 230 231
6 232 224 223 233 234 235
6 236 131 130 237 226 231
4 83 82 238 239
8 225 224 232 240 241 242 243 244
4 221 160 245 246
5 174 173 247 248 249
5 250 251 252 98 103
6 253 254 255 256 257 258
10 259 260 261 262 263 264 265 266 267 268
6 269 270 271 272 273 274
4 275 276 277 278
4 279 280 196 199
9 281 282 283 284 285 286 287 288 289
6 290 60 36 93 92 291
6 207 292 293 212 294 208
4 295 296 297 298
5 0 299 300 301 1
7 287 286 156 155 302 303 288
4 304 231 230 305
4 306 23 307 308
5 222 225 244 309 310
4 311 312 53 313
14 314 315 316 317 318 319 320 321 205 204 296 295 94 97
5 252 322 323 99 98
7 324 325 255 326 154 153 175
4 327 328 329 330
4 331 332 333 334
4 181 180 335 172
5 336 80 276 337 338
9 339 340 341 342 343 344 21 189 188
6 345 346 344 343 252 251
4 111 110 138 100
10 347 348 349 350 351 27 31 352 353 354
4 50 93 36 39
6 355 356 357 358 359 360
4 9 361 143 10
7 109 108 107 122 125 362 162
5 256 363 364 365 257
4 172 335 366 173
4 319 123 367 320
8 368 369 370 371 372 290 291 373
7 374 375 297 296 204 203 202
5 376 117 116 115 135
5 231 304 377 378 236
4 128 379 380 129
5 342 341 381 323 322
7 235 52 51 90 89 240 232
4 382 383 384 385
5 386 88 87 129 380
5 297 375 387 388 298
5 389 253 390 391 392
4 218 217 393 394
6 395 348 347 54 396 397
7 315 398 399 400 401 402 316
6 354 353 403 55 54 347
6 404 405 217 220 406 407
5 156 286 285 169 157
4 408 409 187 186
7 182 410 411 412 413 414 415
4 247 173 366 416
4 12 148 152 13
4 179 170 169 180
4 417 95 298 388
7 238 369 368 373 418 419 420
4 421 422 423 424
9 425 426 427 428 429 311 313 414 413
4 430 431 432 433
6 434 326 255 254 253 389
4 435 183 182 415
5 436 437 112 118 438
7 439 440 105 104 111 381 441
5 442 209 394 393 443
7 444 82 81 445 446 447 448
5 8 449 450 361 9
6 213 451 452 453 454 214
5 455 456 457 270 269
4 306 308 127 126
10 458 459 460 461 243 242 462 463 424 423
8 345 67 66 15 14 21 344 346
5 381 111 100 99 323
6 464 465 466 467 59 58
5 6 5 468 469 470
5 279 455 269 274 280
4 444 431 370 369
4 437 25 24 112
6 471 472 473 410 182 185
5 474 449 8 7 475
6 476 477 478 479 480 481
7 482 16 15 66 65 70 483
4 331 334 484 485
6 24 23 306 126 114 113
4 453 425 413 454
4 314 486 398 315
5 2 1 301 487 64
8 488 489 401 400 490 428 427 491
6 492 493 208 294 212 211
5 120 119 471 185 184
10 353 352 121 120 184 183 435 56 55 403
4 312 494 495 396
4 496 221 246 497
4 167 166 498 229
5 421 424 463 499 500
4 501 502 437 436
5 26 503 504 480 479
4 441 505 440 439
7 506 507 508 493 492 211 509
4 510 339 188 187
8 193 494 429 428 490 400 399 190
4 159 511 512 513
5 17 16 482 29 28
6 274 273 268 267 196 280
4 514 515 388 387
4 29 482 483 62
4 311 429 494 312
5 7 6 470 516 475
8 454 413 412 411 517 216 215 214
6 202 201 518 340 339 374
5 519 407 406 520 521
13 471 119 61 62 483 70 69 497 246 245 513 512 472
5 522 41 40 234 233
5 63 64 487 523 338
4 524 42 41 522
5 525 506 509 420 526
4 124 318 317 527
7 508 528 136 47 46 529 493
4 530 299 152 151
4 96 486 314 97
6 531 532 256 255 325 324
7 533 178 181 172 171 534 535
5 435 415 414 57 56
5 536 537 538 539 540
8 476 481 480 504 541 73 72 71
8 535 534 542 271 270 457 456 533
6 489 527 317 316 402 401
4 338 523 543 336
5 110 161 452 451 138
7 290 372 371 465 464 58 60
5 193 192 544 495 494
5 545 546 417 388 515
10 444 448 447 547 300 299 530 548 432 431
5 133 132 378 377 549
4 550 321 320 367
4 123 319 318 124
4 396 54 53 312
6 541 551 282 281 74 73
8 423 422 552 553 150 149 146 554
4 352 31 30 121
5 161 163 491 427 426
5 209 442 278 277 210
6 409 408 349 348 395 555
6 357 356 438 118 117 376
9 556 557 558 559 560 355 360 561 562
5 161 426 425 453 452
11 395 397 563 564 565 96 95 417 546 545 555
4 336 543 81 80
10 418 373 291 92 91 137 566 526 420 419
4 536 443 393 537
5 430 500 499 370 431
7 542 567 568 569 570 272 271
5 67 345 251 250 571
7 517 411 410 473 472 512 511
7 103 102 142 221 496 571 250
4 378 132 131 236
5 409 515 514 510 187
5 520 406 220 460 459
4 234 40 52 235
5 219 309 244 243 461
4 308 379 128 127
8 261 260 259 268 273 272 570 569
8 572 404 407 519 573 450 449 474
4 349 408 574 350
4 299 0 13 152
7 125 489 488 491 163 162 362
6 575 576 577 84 88 386
7 96 565 564 544 192 191 486
4 566 578 525 526
8 301 300 547 447 446 543 523 487
4 579 580 327 330
8 550 367 106 105 440 505 581 582
9 169 285 284 583 584 416 366 335 180
4 160 159 513 245
4 332 585 586 333
6 339 510 514 387 375 374
6 149 148 12 11 147 146
6 218 587 588 310 309 219
7 537 393 217 405 404 572 538
5 364 589 590 591 365
6 528 508 507 506 525 578
4 592 593 586 585
6 594 595 596 228 227 226
4 478 22 26 479
4 558 501 436 559
4 238 82 444 369
6 74 281 289 597 176 75
4 518 201 581 505
6 548 530 151 598 433 432
4 256 532 197 363
4 20 186 189 21
8 584 583 284 283 282 551 599 416
4 95 94 295 298
4 600 601 166 165
5 158 216 517 511 159
4 247 416 599 602
6 144 143 361 450 573 603
4 501 604 605 502
8 601 556 562 561 606 607 498 166
5 371 370 499 466 465
4 608 609 228 596
4 610 611 385 384
4 437 502 612 25
10 360 359 549 377 304 305 498 607 606 561
3 195 45 44
6 442 443 536 540 275 278
5 391 390 609 608 613
4 504 599 551 541
5 408 186 20 19 574
6 466 462 614 89 59 467
5 357 376 135 134 358
6 500 430 433 552 422 421
4 176 597 391 613
4 502 605 615 612
4 569 604 262 261
4 602 599 504 503
4 569 568 605 604
5 205 321 550 582 206
7 616 337 539 469 468 5 4
5 516 538 572 474 475
4 592 580 579 593
8 210 277 276 80 83 239 509 211
4 568 248 615 605
8 617 524 522 233 223 222 310 588
4 125 124 527 489
4 198 197 532 531
7 196 267 266 589 364 363 197
7 77 76 177 618 576 575 78
4 68 496 497 69
5 137 136 528 578 566
6 604 501 558 557 263 262
4 498 305 230 229
8 249 248 568 567 542 534 171 174
8 350 574 19 18 17 28 27 351
4 257 365 591 258
4 499 463 462 466
6 556 601 600 264 263 557
5 134 133 549 359 358
5 122 107 106 367 123
4 81 543 446 445
4 220 219 461 460
13 198 531 324 175 168 170 179 178 533 456 455 279 199
8 594 226 237 130 86 85 84 577
7 266 265 264 600 165 590 589
4 515 409 555 545
5 516 470 469 539 538
6 597 289 288 303 392 391
7 476 71 79 379 308 307 477
4 617 207 194 524
8 617 588 587 218 394 293 292 207
6 63 338 337 616 4 3
8 154 326 434 389 392 303 302 155
6 552 433 598 151 150 553
7 177 596 595 594 577 576 618
4 239 238 420 509
4 340 441 381 341
5 276 275 540 539 337
4 139 138 451 213
4 343 342 322 252
5 486 191 190 399 398
4 394 209 212 293
6 564 563 397 396 495 544
5 206 582 581 201 200
8 390 253 258 164 167 229 228 609
6 554 146 145 619 458 423
4 518 505 441 340
4 42 524 194 43
6 240 89 614 462 242 241
4 313 53 57 414
6 208 493 529 46 45 195
6 560 559 436 438 356 355
8 248 247 602 503 26 25 612 615
14 620 621 622 623 624 625 626 627 628 629 630 631 632 633
4 603 573 519 521
14 634 635 636 637 638 639 640 641 642 643 644 645 646 647
4 68 67 571 496
5 591 590 165 164 258
6 78 575 386 380 379 79
4 33 611 610 34
4 648 32 35 649
5 613 608 596 177 176
4 328 648 649 329
5 307 23 22 478 477
4 485 484 383 382
8 619 145 144 603 521 520 459 458
