ply
format ascii 1.0
comment Created by Blender 2.82 (sub 7) - www.blender.org, source file: ''
element vertex 660
property float x
property float y
property float z
element face 197
property list uchar uint vertex_indices
end_header
2.308845 7.753450 -0.774500
2.238345 7.848950 -0.815050
2.236045 7.852450 -1.116940
-7.977085 1.520150 10.265600
-5.647755 5.554750 10.265600
-5.647755 5.554750 9.765600
-7.977085 1.520150 9.765600
-1.222255 -0.081950 7.840000
0.002745 4.452850 7.776900
2.380045 7.689250 7.733900
1.702245 8.584950 7.721300
-1.355655 3.895050 7.779100
-1.679655 -3.695250 7.878000
-0.933355 -3.603050 7.890600
3.300745 8.796150 -10.265600
2.308845 7.753450 7.721500
2.711745 8.361550 -10.265600
2.236045 7.852450 -1.116940
2.236045 7.853150 -1.154490
2.309245 7.753750 -1.116940
3.951545 -0.865950 7.890600
3.951545 -0.865950 9.765600
-2.358555 -3.913350 9.765600
-2.318955 -3.951650 7.791700
8.688645 -8.252750 9.765600
8.418945 -6.333950 7.721500
7.304945 -6.490450 7.721500
7.574645 -8.409350 9.765600
3.199945 9.809250 9.765600
1.640845 8.658650 7.721500
2.308845 7.753450 7.721500
3.867945 8.904050 9.765600
-7.883505 -4.534650 -4.882950
-8.425865 -4.235950 -10.265600
-8.191735 -3.656450 -10.265600
-7.593705 -3.817450 -4.882950
-1.613155 7.884150 9.765600
3.045645 7.884150 9.765600
7.080245 5.554750 9.765600
9.409545 1.520150 9.765600
9.409545 -3.138650 9.765600
7.080245 -7.173150 9.765600
5.216245 -8.603450 9.765600
0.716245 -9.809250 9.765600
-3.783755 -8.603450 9.765600
-5.647755 -7.173150 9.765600
-7.977085 -3.138650 9.765600
-7.977085 1.520150 9.765600
-5.647755 5.554750 9.765600
-0.170555 6.161450 9.765600
-0.232655 6.204850 7.750200
-1.985055 1.405150 7.811000
-1.925755 1.355750 9.765600
8.302045 -6.350350 -0.774500
7.861945 -6.412250 -0.774500
7.421845 -6.474050 -0.774500
7.304945 -6.490450 7.721500
8.418945 -6.333950 7.721500
2.308845 7.753450 7.721500
3.242545 8.648150 -4.183640
3.867945 8.904050 9.765600
1.710945 8.563650 -0.774500
1.974845 8.206050 -0.774500
2.238745 7.848450 -0.774500
2.308845 7.753450 7.721500
1.640845 8.658650 7.721500
1.710945 8.563650 -0.774500
2.238745 7.848450 -0.774500
2.238445 7.848950 -0.810600
2.308845 7.753450 -0.774500
1.713845 8.560550 -1.079710
1.641245 8.658950 -1.116940
1.713945 8.559950 -1.116940
1.717745 8.557550 -1.420690
1.642445 8.659850 -1.459380
1.718145 8.557150 -1.459380
7.488245 -6.535950 -4.882950
8.254245 -6.428250 -4.882950
8.266745 -7.047350 -10.265600
7.647845 -7.134350 -10.265600
2.236045 7.852450 -1.116940
2.238345 7.848950 -0.815050
2.308845 7.753450 -0.774500
2.335745 0.507250 7.840000
5.650445 -2.821050 7.776900
5.631845 -2.882250 9.765600
2.332945 0.479450 9.765600
2.334745 9.083450 9.765600
-0.170555 6.161450 9.765600
-0.232655 6.204850 7.750200
1.702245 8.584950 7.721300
2.308845 7.753450 7.721500
3.300745 8.796150 -10.265600
2.711745 8.361550 -10.265600
-1.679655 -3.695250 7.878000
-1.620555 -3.751450 9.765600
-3.783755 -8.603450 10.265600
-3.783755 -8.603450 9.765600
0.716245 -9.809250 9.765600
0.716245 -9.809250 10.265600
2.309245 7.753750 -1.116940
2.236045 7.853150 -1.154490
2.236045 7.852450 -1.116940
5.776345 -1.394950 9.765600
-0.642955 2.686950 9.765600
-0.564755 2.710050 7.878000
5.846645 -1.365750 7.779100
3.199945 9.809250 9.765600
2.773045 9.276150 -4.288000
3.237745 8.646350 -4.288000
3.867945 8.904050 9.765600
3.867945 8.904050 9.765600
3.242545 8.648150 -4.183640
2.308845 7.753450 7.721500
2.238745 7.848450 -0.774500
1.974845 8.206050 -0.774500
1.710945 8.563650 -0.774500
1.640845 8.658650 7.721500
2.308845 7.753450 7.721500
1.710945 8.563650 -0.774500
2.308845 7.753450 -0.774500
2.238445 7.848950 -0.810600
2.238745 7.848450 -0.774500
8.379145 -6.358950 7.721300
5.846645 -1.365750 7.779100
5.776345 -1.394950 9.765600
8.494745 -7.155950 9.765600
2.929645 9.299050 -10.265600
2.773045 9.276150 -4.288000
3.237745 8.646350 -4.288000
3.300745 8.796150 -10.265600
1.713945 8.559950 -1.116940
1.641245 8.658950 -1.116940
1.713845 8.560550 -1.079710
1.718145 8.557150 -1.459380
1.642445 8.659850 -1.459380
1.717745 8.557550 -1.420690
2.929645 9.299050 -10.265600
2.340645 8.864450 -10.265600
3.199945 9.809250 9.765600
7.304945 -6.490450 -0.774500
7.422445 -6.474050 -0.815050
7.426645 -6.473650 -1.116940
-0.933355 -3.603050 7.890600
-1.222255 -0.081950 7.840000
-1.196755 -0.070350 9.765600
-0.933355 -3.603050 9.765600
7.264645 -6.498050 7.733900
7.382845 -7.254650 9.765600
7.749745 -7.859150 -10.265600
7.304945 -6.490450 7.721500
7.647845 -7.134350 -10.265600
3.951545 -0.865950 7.890600
-2.318955 -3.951650 7.791700
-2.358555 -3.913350 9.765600
3.951545 -0.865950 9.765600
7.749745 -7.859150 -10.265600
8.368645 -7.772250 -10.265600
8.423045 -7.623550 -4.288000
7.648045 -7.732450 -4.288000
7.426645 -6.473650 -1.116940
7.427145 -6.473950 -1.154490
7.304945 -6.490950 -1.116940
-9.259315 -2.955550 9.765600
-7.462755 -3.681350 7.721500
-7.884145 -4.724450 7.721500
-9.680755 -3.998550 9.765600
3.045645 7.884150 10.265600
-1.613155 7.884150 10.265600
-5.647755 5.554750 10.265600
-7.977085 1.520150 10.265600
-7.977085 -3.138650 10.265600
-5.647755 -7.173150 10.265600
-3.783755 -8.603450 10.265600
0.716245 -9.809250 10.265600
5.216245 -8.603450 10.265600
7.080245 -7.173150 10.265600
9.409545 -3.138650 10.265600
9.409545 1.520150 10.265600
7.080245 5.554750 10.265600
2.773045 9.276150 -4.288000
3.199945 9.809250 9.765600
3.867945 8.904050 9.765600
3.237745 8.646350 -4.288000
8.688645 -8.252750 9.765600
7.574645 -8.409350 9.765600
7.648045 -7.732450 -4.288000
8.423045 -7.623550 -4.288000
7.304945 -6.490450 7.721500
7.647245 -7.737450 -4.183640
7.574645 -8.409350 9.765600
8.368645 -7.772250 -10.265600
8.266745 -7.047350 -10.265600
8.688645 -8.252750 9.765600
1.702245 8.584950 7.721300
2.334745 9.083450 9.765600
8.302045 -6.350350 -0.774500
7.421845 -6.474050 -0.774500
7.422345 -6.474050 -0.810600
7.304945 -6.490450 -0.774500
2.335745 0.507250 7.840000
5.650445 -2.821050 7.776900
7.264645 -6.498050 7.733900
8.379145 -6.358950 7.721300
5.846645 -1.365750 7.779100
-0.564755 2.710050 7.878000
-0.858155 2.017550 7.890600
7.749745 -7.859150 -10.265600
7.648045 -7.732450 -4.288000
8.423045 -7.623550 -4.288000
8.368645 -7.772250 -10.265600
8.297945 -6.351350 -1.079710
8.419045 -6.334450 -1.116940
8.297345 -6.351250 -1.116940
8.418945 -6.333950 7.721500
8.297345 -6.351250 -1.116940
8.688645 -8.252750 9.765600
8.293345 -6.353350 -1.420690
8.419245 -6.335850 -1.459380
8.292845 -6.353650 -1.459380
-7.839915 -4.614950 -0.774500
-7.506945 -3.790850 -0.774500
-7.593705 -3.817450 -4.882950
-7.883505 -4.534650 -4.882950
8.688645 -8.252750 9.765600
8.266745 -7.047350 -10.265600
8.368645 -7.772250 -10.265600
7.426645 -6.473650 -1.116940
7.422445 -6.474050 -0.815050
7.304945 -6.490450 -0.774500
7.304945 -6.490450 7.721500
7.749745 -7.859150 -10.265600
7.647845 -7.134350 -10.265600
3.951545 -0.865950 7.890600
4.404545 -1.466250 7.878000
-2.330855 -4.980850 7.779100
-7.921385 -4.677450 7.721300
-7.484555 -3.642750 7.733900
-1.163455 -3.704950 7.807300
-7.839915 -4.614950 -0.774500
-7.883505 -4.534650 -4.882950
-7.593705 -3.817450 -4.882950
-7.506945 -3.790850 -0.774500
7.304945 -6.490950 -1.116940
7.427145 -6.473950 -1.154490
7.426645 -6.473650 -1.116940
3.199945 9.809250 9.765600
1.713945 8.559950 -1.116940
1.640845 8.658650 7.721500
-8.669375 -4.379050 9.765600
-4.886155 -5.087750 9.765600
-4.892655 -5.163150 7.750200
-7.921385 -4.677450 7.721300
8.688645 -8.252750 9.765600
8.423045 -7.623550 -4.288000
7.648045 -7.732450 -4.288000
7.574645 -8.409350 9.765600
7.574645 -8.409350 9.765600
7.647245 -7.737450 -4.183640
7.304945 -6.490450 7.721500
7.421845 -6.474050 -0.774500
7.861945 -6.412250 -0.774500
8.302045 -6.350350 -0.774500
8.418945 -6.333950 7.721500
7.304945 -6.490450 7.721500
8.302045 -6.350350 -0.774500
7.304945 -6.490450 -0.774500
7.422345 -6.474050 -0.810600
7.421845 -6.474050 -0.774500
8.297345 -6.351250 -1.116940
8.419045 -6.334450 -1.116940
8.297945 -6.351350 -1.079710
-1.222255 -0.081950 7.840000
-0.933355 -3.603050 7.890600
-1.679655 -3.695250 7.878000
-1.355655 3.895050 7.779100
1.702245 8.584950 7.721300
2.380045 7.689250 7.733900
0.002745 4.452850 7.776900
8.292845 -6.353650 -1.459380
8.419245 -6.335850 -1.459380
8.293345 -6.353350 -1.420690
-7.484555 -3.642750 7.733900
-9.294815 -2.994150 9.765600
-8.198905 -3.366850 9.765600
-7.921385 -4.677450 7.721300
-9.294815 -2.994150 9.765600
-7.484555 -3.642750 7.733900
4.423645 -1.387050 9.765600
3.951545 -0.865950 9.765600
-1.198255 -3.674550 9.765600
-9.294815 -2.994150 9.765600
-9.716245 -3.959950 9.765600
-3.598955 -5.062350 9.765600
1.323845 -3.668650 9.765600
-7.921385 -4.677450 7.721300
-9.716245 -3.959950 9.765600
-9.294815 -2.994150 9.765600
1.802245 8.558750 -4.882950
2.261545 7.936350 -4.882950
2.711745 8.361550 -10.265600
2.340645 8.864450 -10.265600
4.423645 -1.387050 9.765600
4.404545 -1.466250 7.878000
3.951545 -0.865950 9.765600
-0.933355 -3.603050 7.890600
-0.933355 -3.603050 9.765600
-1.196755 -0.070350 9.765600
-1.222255 -0.081950 7.840000
2.335745 0.507250 7.840000
2.332945 0.479450 9.765600
5.631845 -2.882250 9.765600
5.650445 -2.821050 7.776900
7.264645 -6.498050 7.733900
7.382845 -7.254650 9.765600
-7.921385 -4.677450 7.721300
-8.669375 -4.379050 9.765600
-9.716245 -3.959950 9.765600
3.951545 -0.865950 9.765600
4.404545 -1.466250 7.878000
3.951545 -0.865950 7.890600
8.254245 -6.428250 -4.882950
7.488245 -6.535950 -4.882950
-8.198905 -3.366850 9.765600
-9.294815 -2.994150 9.765600
-7.484555 -3.642750 7.733900
-7.484555 -3.642750 7.733900
-9.294815 -2.994150 9.765600
-7.921385 -4.677450 7.721300
-1.198255 -3.674550 9.765600
3.951545 -0.865950 9.765600
4.423645 -1.387050 9.765600
1.323845 -3.668650 9.765600
-3.598955 -5.062350 9.765600
-9.716245 -3.959950 9.765600
-9.294815 -2.994150 9.765600
2.261545 7.936350 -4.882950
1.802245 8.558750 -4.882950
2.340645 8.864450 -10.265600
2.711745 8.361550 -10.265600
-9.294815 -2.994150 9.765600
-9.716245 -3.959950 9.765600
-7.921385 -4.677450 7.721300
-8.870445 -3.382250 -10.265600
-9.104575 -3.961750 -10.265600
-9.003015 -4.083250 -4.288000
-8.709815 -3.357550 -4.288000
7.080245 -7.173150 9.765600
7.080245 -7.173150 10.265600
5.216245 -8.603450 10.265600
5.216245 -8.603450 9.765600
3.951545 -0.865950 9.765600
4.404545 -1.466250 7.878000
4.423645 -1.387050 9.765600
1.802245 8.558750 -4.882950
2.261545 7.936350 -4.882950
2.380045 7.689250 7.733900
0.002745 4.452850 7.776900
0.065045 4.467350 9.765600
2.976145 8.169950 9.765600
-9.716245 -3.959950 9.765600
-8.669375 -4.379050 9.765600
-7.921385 -4.677450 7.721300
3.951545 -0.865950 7.890600
4.404545 -1.466250 7.878000
3.951545 -0.865950 9.765600
2.929645 9.299050 -10.265600
3.199945 9.809250 9.765600
2.340645 8.864450 -10.265600
2.380045 7.689250 7.733900
3.846845 8.932650 9.765600
2.976145 8.169950 9.765600
1.702245 8.584950 7.721300
3.846845 8.932650 9.765600
2.380045 7.689250 7.733900
7.647845 -7.134350 -10.265600
8.266745 -7.047350 -10.265600
8.368645 -7.772250 -10.265600
7.749745 -7.859150 -10.265600
3.951545 -0.865950 7.890600
-1.163455 -3.704950 7.807300
-7.484555 -3.642750 7.733900
-7.921385 -4.677450 7.721300
-2.330855 -4.980850 7.779100
4.404545 -1.466250 7.878000
-0.933355 -3.603050 9.765600
-1.051355 1.105350 9.765600
1.337145 6.462850 9.765600
3.846845 8.932650 9.765600
3.221145 9.780550 9.765600
-1.295255 3.848850 9.765600
-1.620555 -3.751450 9.765600
1.702245 8.584950 7.721300
3.221145 9.780550 9.765600
3.846845 8.932650 9.765600
7.574645 -8.409350 9.765600
7.304945 -6.490450 7.721500
8.418945 -6.333950 7.721500
8.688645 -8.252750 9.765600
-1.620555 -3.751450 9.765600
-1.679655 -3.695250 7.878000
-0.933355 -3.603050 9.765600
-0.564755 2.710050 7.878000
-0.642955 2.686950 9.765600
-7.484555 -3.642750 7.733900
-8.198905 -3.366850 9.765600
2.380045 7.689250 7.733900
2.976145 8.169950 9.765600
0.065045 4.467350 9.765600
0.002745 4.452850 7.776900
1.702245 8.584950 7.721300
2.334745 9.083450 9.765600
3.221145 9.780550 9.765600
-0.933355 -3.603050 9.765600
-1.679655 -3.695250 7.878000
-0.933355 -3.603050 7.890600
2.261545 7.936350 -4.882950
1.802245 8.558750 -4.882950
2.976145 8.169950 9.765600
3.846845 8.932650 9.765600
2.380045 7.689250 7.733900
2.380045 7.689250 7.733900
3.846845 8.932650 9.765600
1.702245 8.584950 7.721300
-1.295255 3.848850 9.765600
3.221145 9.780550 9.765600
3.846845 8.932650 9.765600
1.337145 6.462850 9.765600
-1.051355 1.105350 9.765600
-0.933355 -3.603050 9.765600
-1.620555 -3.751450 9.765600
0.140145 -4.280950 7.811000
4.404545 -1.466250 7.878000
4.423645 -1.387050 9.765600
0.153345 -4.204850 9.765600
3.300745 8.796150 -10.265600
2.929645 9.299050 -10.265600
2.340645 8.864450 -10.265600
2.711745 8.361550 -10.265600
3.846845 8.932650 9.765600
3.221145 9.780550 9.765600
1.702245 8.584950 7.721300
-0.933355 -3.603050 9.765600
-1.679655 -3.695250 7.878000
-1.620555 -3.751450 9.765600
-0.858155 2.017550 7.890600
-0.858155 2.017550 9.765600
3.221145 9.780550 9.765600
2.334745 9.083450 9.765600
1.702245 8.584950 7.721300
-0.933355 -3.603050 7.890600
-1.679655 -3.695250 7.878000
-0.933355 -3.603050 9.765600
7.264645 -6.498050 7.733900
7.608045 -8.390050 9.765600
7.382845 -7.254650 9.765600
-1.925755 1.355750 9.765600
-1.620555 -3.751450 9.765600
-1.679655 -3.695250 7.878000
-1.985055 1.405150 7.811000
8.379145 -6.358950 7.721300
7.608045 -8.390050 9.765600
7.264645 -6.498050 7.733900
6.551245 -2.423150 9.765600
2.882845 1.143250 9.765600
-0.642955 2.686950 9.765600
-0.858155 2.017550 9.765600
4.148945 -1.037950 9.765600
7.608045 -8.390050 9.765600
8.655145 -8.272150 9.765600
8.379145 -6.358950 7.721300
8.655145 -8.272150 9.765600
7.608045 -8.390050 9.765600
7.608045 -8.390050 9.765600
4.148945 -1.037950 9.765600
-0.858155 2.017550 9.765600
-0.642955 2.686950 9.765600
2.882845 1.143250 9.765600
6.551245 -2.423150 9.765600
8.655145 -8.272150 9.765600
-0.642955 2.686950 9.765600
-0.564755 2.710050 7.878000
-0.858155 2.017550 9.765600
-0.858155 2.017550 7.890600
-0.858155 2.017550 9.765600
8.379145 -6.358950 7.721300
8.494745 -7.155950 9.765600
8.655145 -8.272150 9.765600
-8.191735 -3.656450 -10.265600
-8.870445 -3.382250 -10.265600
-7.462755 -3.681350 7.721500
-1.613155 7.884150 9.765600
-1.613155 7.884150 10.265600
-0.858155 2.017550 9.765600
-0.564755 2.710050 7.878000
-0.858155 2.017550 7.890600
7.382845 -7.254650 9.765600
7.608045 -8.390050 9.765600
7.264645 -6.498050 7.733900
7.264645 -6.498050 7.733900
7.608045 -8.390050 9.765600
8.379145 -6.358950 7.721300
-5.647755 -7.173150 10.265600
-7.977085 -3.138650 10.265600
-7.977085 -3.138650 9.765600
-5.647755 -7.173150 9.765600
7.608045 -8.390050 9.765600
8.655145 -8.272150 9.765600
8.379145 -6.358950 7.721300
7.749745 -7.859150 -10.265600
8.368645 -7.772250 -10.265600
8.266745 -7.047350 -10.265600
7.647845 -7.134350 -10.265600
-0.858155 2.017550 9.765600
-0.564755 2.710050 7.878000
-0.642955 2.686950 9.765600
0.153345 -4.204850 9.765600
0.140145 -4.280950 7.811000
8.655145 -8.272150 9.765600
8.494745 -7.155950 9.765600
8.379145 -6.358950 7.721300
-0.858155 2.017550 7.890600
-0.564755 2.710050 7.878000
-0.858155 2.017550 9.765600
3.300745 8.796150 -10.265600
3.237745 8.646350 -4.288000
2.773045 9.276150 -4.288000
2.929645 9.299050 -10.265600
-7.462755 -3.681350 -0.774500
-7.507185 -3.791350 -0.815050
-7.508955 -3.795150 -1.116940
-7.462755 -3.681350 7.721500
-8.870445 -3.382250 -10.265600
-8.191735 -3.656450 -10.265600
-7.508955 -3.795150 -1.116940
-7.509535 -3.795550 -1.154490
-7.463155 -3.681250 -1.116940
8.688645 -8.252750 9.765600
8.297345 -6.351250 -1.116940
8.418945 -6.333950 7.721500
-8.191735 -3.656450 -10.265600
-8.425865 -4.235950 -10.265600
-9.104575 -3.961750 -10.265600
-8.870445 -3.382250 -10.265600
3.867945 8.904050 9.765600
2.308845 7.753450 7.721500
1.640845 8.658650 7.721500
3.199945 9.809250 9.765600
-9.003015 -4.083250 -4.288000
-9.680755 -3.998550 9.765600
-9.259315 -2.955550 9.765600
-8.709815 -3.357550 -4.288000
-7.462755 -3.681350 7.721500
-8.713815 -3.354350 -4.183640
-9.259315 -2.955550 9.765600
-7.839915 -4.614950 -0.774500
-7.673425 -4.202950 -0.774500
-7.462755 -3.681350 7.721500
-7.884145 -4.724450 7.721500
-7.883505 -4.534650 -4.882950
-7.593705 -3.817450 -4.882950
-8.191735 -3.656450 -10.265600
-8.425865 -4.235950 -10.265600
-7.506945 -3.790850 -0.774500
-7.507185 -3.791350 -0.810600
-7.462755 -3.681350 -0.774500
-7.838725 -4.610850 -1.079710
-7.884605 -4.724250 -1.116940
-7.838355 -4.610450 -1.116940
-7.484555 -3.642750 7.733900
-8.198905 -3.366850 9.765600
-7.838205 -4.605950 -1.420690
-7.885965 -4.723750 -1.459380
-7.838155 -4.605350 -1.459380
8.254245 -6.428250 -4.882950
7.488245 -6.535950 -4.882950
7.647845 -7.134350 -10.265600
8.266745 -7.047350 -10.265600
-9.680755 -3.998550 9.765600
-8.425865 -4.235950 -10.265600
-9.104575 -3.961750 -10.265600
-7.508955 -3.795150 -1.116940
-7.507185 -3.791350 -0.815050
-7.462755 -3.681350 -0.774500
-9.680755 -3.998550 9.765600
-7.884145 -4.724450 7.721500
-7.462755 -3.681350 7.721500
-9.259315 -2.955550 9.765600
2.335745 0.507250 7.840000
-0.858155 2.017550 7.890600
-0.564755 2.710050 7.878000
5.846645 -1.365750 7.779100
8.379145 -6.358950 7.721300
7.264645 -6.498050 7.733900
5.650445 -2.821050 7.776900
-7.463155 -3.681250 -1.116940
-7.509535 -3.795550 -1.154490
-7.508955 -3.795150 -1.116940
4.423645 -1.387050 9.765600
4.404545 -1.466250 7.878000
2.711745 8.361550 -10.265600
2.340645 8.864450 -10.265600
2.929645 9.299050 -10.265600
3.300745 8.796150 -10.265600
-4.892655 -5.163150 7.750200
-4.886155 -5.087750 9.765600
-8.870445 -3.382250 -10.265600
-9.104575 -3.961750 -10.265600
-8.425865 -4.235950 -10.265600
-8.191735 -3.656450 -10.265600
-8.870445 -3.382250 -10.265600
-8.709815 -3.357550 -4.288000
-9.003015 -4.083250 -4.288000
-9.104575 -3.961750 -10.265600
-8.709815 -3.357550 -4.288000
-9.259315 -2.955550 9.765600
-9.680755 -3.998550 9.765600
-9.003015 -4.083250 -4.288000
-9.259315 -2.955550 9.765600
-8.713815 -3.354350 -4.183640
-7.462755 -3.681350 7.721500
-7.673425 -4.202950 -0.774500
-7.839915 -4.614950 -0.774500
-7.884145 -4.724450 7.721500
-7.462755 -3.681350 7.721500
-7.462755 -3.681350 -0.774500
-7.507185 -3.791350 -0.810600
-7.506945 -3.790850 -0.774500
7.488245 -6.535950 -4.882950
8.254245 -6.428250 -4.882950
-9.680755 -3.998550 9.765600
-9.104575 -3.961750 -10.265600
-8.425865 -4.235950 -10.265600
-7.838355 -4.610450 -1.116940
-7.884605 -4.724250 -1.116940
-7.838725 -4.610850 -1.079710
-9.680755 -3.998550 9.765600
-7.838355 -4.610450 -1.116940
-7.884145 -4.724450 7.721500
-7.884145 -4.724450 7.721500
-7.838355 -4.610450 -1.116940
-9.680755 -3.998550 9.765600
1.640845 8.658650 7.721500
1.713945 8.559950 -1.116940
3.199945 9.809250 9.765600
-7.838155 -4.605350 -1.459380
-7.885965 -4.723750 -1.459380
-7.838205 -4.605950 -1.420690
9.409545 1.520150 10.265600
9.409545 1.520150 9.765600
7.080245 5.554750 9.765600
7.080245 5.554750 10.265600
3.045645 7.884150 9.765600
3.045645 7.884150 10.265600
9.409545 -3.138650 9.765600
9.409545 -3.138650 10.265600
8.494745 -7.155950 9.765600
8.379145 -6.358950 7.721300
-7.921385 -4.677450 7.721300
-8.669375 -4.379050 9.765600
3 0 1 2
4 3 4 5 6
7 7 8 9 10 11 12 13
3 14 15 16
3 17 18 19
4 20 21 22 23
4 24 25 26 27
4 28 29 30 31
4 32 33 34 35
13 36 37 38 39 40 41 42 43 44 45 46 47 48
4 49 50 51 52
5 53 54 55 56 57
3 58 59 60
5 61 62 63 64 65
3 66 63 62
3 67 68 69
3 70 71 72
3 73 74 75
4 76 77 78 79
3 80 81 82
4 83 84 85 86
4 87 88 89 90
3 91 92 93
4 51 94 95 52
4 96 97 98 99
3 100 101 102
4 103 104 105 106
4 107 108 109 110
3 111 112 113
5 114 115 116 117 118
3 115 114 119
3 120 121 122
4 123 124 125 126
4 127 128 129 130
3 131 132 133
3 134 135 136
3 137 138 139
3 140 141 142
4 143 144 145 146
4 147 148 85 84
3 149 150 151
4 152 153 154 155
4 156 157 158 159
3 160 161 162
4 163 164 165 166
13 167 168 169 170 171 172 173 174 175 176 177 178 179
4 180 181 182 183
4 184 185 186 187
3 188 189 190
3 191 192 193
4 194 50 49 195
3 196 55 54
3 197 198 199
7 200 201 202 203 204 205 206
4 207 208 209 210
3 211 212 213
3 214 215 216
3 217 218 219
4 220 221 222 223
3 224 225 226
3 227 228 229
3 230 231 232
6 233 234 235 236 237 238
4 239 240 241 242
3 243 244 245
3 246 247 248
4 249 250 251 252
4 253 254 255 256
3 257 258 259
5 260 261 262 263 264
3 261 260 265
3 266 267 268
3 269 270 271
7 272 273 274 275 276 277 278
3 279 280 281
3 282 283 284
3 285 286 287
7 288 289 290 291 292 293 294
3 295 296 297
4 298 299 300 301
3 302 303 304
4 305 306 307 308
4 309 310 311 312
4 313 312 311 314
3 315 316 317
3 318 319 320
4 196 321 322 55
3 323 324 325
3 326 327 328
7 329 330 331 332 333 334 335
4 336 337 338 339
3 340 341 342
4 343 344 345 346
4 347 348 349 350
3 351 352 353
4 354 119 114 355
4 356 357 358 359
3 360 361 362
3 363 364 365
3 366 367 368
3 369 370 371
3 372 373 374
4 375 376 377 378
6 379 380 381 382 383 384
7 385 386 387 388 389 390 391
3 392 393 394
4 395 396 397 398
3 399 400 401
4 402 403 125 124
4 153 404 405 154
4 406 407 408 409
3 410 411 412
3 413 414 415
4 416 63 66 417
3 418 419 420
3 421 422 423
7 424 425 426 427 428 429 430
4 431 432 433 434
4 435 436 437 438
3 439 440 441
3 442 443 444
4 310 309 445 446
4 308 307 358 357
3 447 448 449
3 450 451 452
3 453 454 455
4 456 457 458 459
3 460 461 462
7 463 464 465 466 467 468 469
3 470 471 472
7 473 474 475 476 477 478 479
3 480 481 482
4 483 83 86 484
4 144 409 408 145
3 485 486 487
3 488 489 490
4 491 5 4 492
3 493 494 495
3 496 497 498
3 499 500 501
4 502 503 504 505
3 506 507 508
4 509 510 511 512
3 513 514 515
4 250 516 517 251
3 518 519 520
3 521 522 523
4 524 525 526 527
3 528 529 530
3 531 532 533
3 534 535 536
3 537 538 539
4 89 88 456 459
4 540 541 542 543
4 544 545 546 547
4 548 549 550 551
3 552 553 554
5 555 556 242 557 558
4 559 560 561 562
3 239 242 556
3 563 564 565
3 566 567 568
4 569 23 22 570
3 571 572 573
4 574 575 576 577
3 578 579 580
3 581 582 583
4 584 585 586 587
7 588 589 590 591 592 593 594
3 595 596 597
4 516 598 599 517
4 600 601 602 603
4 604 431 434 605
4 606 607 608 609
4 610 611 612 613
4 614 615 616 617
3 618 619 620
5 221 621 622 623 624
3 621 221 220
3 625 626 627
4 265 260 628 629
3 630 631 632
3 633 634 635
3 636 637 638
3 639 640 641
3 642 643 644
3 645 646 647
4 648 649 650 651
4 651 650 652 653
4 350 349 99 98
4 348 347 654 655
4 97 96 502 505
4 655 654 649 648
4 503 3 6 504
4 656 103 106 657
4 658 604 605 659
4 653 652 491 492
