ply
format ascii 1.0
comment Created by Blender 2.82 (sub 7) - www.blender.org, source file: ''
element vertex 1021
property float x
property float y
property float z
element face 201
property list uchar uint vertex_indices
end_header
-18.305599 -45.964497 13.208700
18.308599 -45.964497 13.208700
18.308599 -45.964497 12.224400
-18.305599 -45.964497 12.224400
-23.423700 -33.956596 12.224400
-23.406300 -33.956596 11.028900
-23.406300 -36.909393 11.028900
-23.423700 -36.909393 12.224400
2.560500 -34.468395 10.255900
2.493000 -34.466194 10.255900
2.426300 -34.454796 10.255900
2.361900 -34.434395 10.255900
2.300800 -34.405396 10.255900
2.300800 -34.405396 -10.413390
2.361900 -34.434395 -10.413390
2.426300 -34.454796 -10.413390
2.493000 -34.466194 -10.413390
2.560500 -34.468395 -10.413390
-2.085600 34.278606 10.255900
-1.918200 33.949703 10.255900
-22.048700 33.949703 10.255900
-22.048700 36.902405 10.255900
-2.048700 36.902405 10.255900
-2.111800 36.642704 10.255900
-2.244300 36.490704 10.255900
-2.361900 36.424706 10.255900
-2.560500 36.390606 10.255900
-2.560500 34.461506 10.255900
-2.338600 34.433907 10.255900
-2.111800 36.642704 10.255900
-2.048700 36.902405 10.255900
2.045700 36.902405 10.255900
2.108800 36.642704 10.255900
2.241300 36.490704 10.255900
2.358900 36.424706 10.255900
2.557600 36.390606 10.255900
2.557600 34.461506 10.255900
2.358900 34.427406 10.255900
2.145900 34.266006 10.255900
2.059400 34.083904 10.255900
2.045700 33.949703 10.255900
-1.918200 33.949703 10.255900
-2.085600 34.278606 10.255900
-2.338600 34.433907 10.255900
-2.560500 34.461506 10.255900
-2.560500 36.390606 10.255900
-2.361900 36.424706 10.255900
-2.244300 36.490704 10.255900
2.108800 36.642704 -10.413390
2.241300 36.490704 -10.413390
2.358900 36.424706 -10.413390
2.557600 36.390606 -10.413390
2.557600 34.461506 -10.413390
2.358900 34.427406 -10.413390
2.145900 34.266006 -10.413390
2.059400 34.083904 -10.413390
2.045700 33.949703 -10.413390
5.785900 33.949703 -10.413390
5.785900 36.902405 -10.413390
2.045700 36.902405 -10.413390
22.045700 36.902405 10.255900
22.045700 36.902405 10.649600
22.045700 33.949703 10.649600
22.045700 33.949703 10.255900
-0.927200 33.949703 -1.870100
-0.927200 33.949703 -5.492130
-0.927200 -33.956596 -5.492130
-0.927200 -33.956596 -1.870100
-2.082600 -36.580494 10.255900
-1.915300 -36.909393 10.255900
-22.045799 -36.909393 10.255900
-22.045799 -33.956596 10.255900
-2.045800 -33.956596 10.255900
-2.108800 -34.216396 10.255900
-2.297800 -34.405396 10.255900
-2.557600 -34.468395 10.255900
-2.557600 -36.397594 10.255900
-2.335600 -36.425095 10.255900
-2.085600 34.278606 10.255900
-2.085600 34.278606 -10.413390
-1.918200 33.949703 -10.413390
-1.918200 33.949703 10.255900
2.358900 36.424706 10.255900
2.241300 36.490704 10.255900
2.241300 36.490704 -10.413390
2.358900 36.424706 -10.413390
-2.557600 -36.397594 -10.413390
-2.482700 -36.397694 -10.413390
-2.408300 -36.406895 -10.413390
-2.335600 -36.425095 -10.413390
-2.335600 -36.425095 10.255900
-2.408300 -36.406895 10.255900
-2.482700 -36.397694 10.255900
-2.557600 -36.397594 10.255900
21.418800 49.074604 14.192900
21.418800 -49.074734 14.192900
-21.415800 -49.074734 14.192900
-21.415800 49.074604 14.192900
-21.652100 49.310604 14.192900
-21.652100 -49.310955 14.192900
21.655001 -49.310955 14.192900
21.655001 49.310604 14.192900
-2.108800 -34.216396 10.255900
-2.108800 -34.216396 -10.413390
-2.297800 -34.405396 -10.413390
-2.297800 -34.405396 10.255900
-0.762800 -33.956596 -1.607000
-0.762800 33.949703 -1.607000
-0.795500 33.949703 -1.630200
-0.825400 33.949703 -1.656900
-0.852200 33.949703 -1.686900
-0.852200 -33.956596 -1.686900
-0.825400 -33.956596 -1.656900
-0.795500 -33.956596 -1.630200
2.241300 36.490704 -10.413390
2.108800 36.642704 -10.413390
2.045700 36.902405 -10.413390
5.785900 36.902405 -10.413390
5.785900 33.949703 -10.413390
2.045700 33.949703 -10.413390
2.059400 34.083904 -10.413390
2.145900 34.266006 -10.413390
2.358900 34.427406 -10.413390
2.557600 34.461506 -10.413390
2.557600 36.390606 -10.413390
2.358900 36.424706 -10.413390
-5.788900 36.902405 -10.413390
-5.788900 36.902405 -10.610240
-5.788900 33.949703 -10.610240
-5.788900 33.949703 -10.413390
2.423300 36.404305 10.255900
2.423300 36.404305 -10.413390
2.490000 36.392803 -10.413390
2.557600 36.390606 -10.413390
2.557600 36.390606 10.255900
2.490000 36.392803 10.255900
2.148800 -36.593094 -10.413390
2.300800 -36.460594 -10.413390
2.300800 -36.460594 10.255900
2.148800 -36.593094 10.255900
-2.338600 34.433907 10.255900
-2.268700 34.407005 10.255900
-2.202600 34.371803 10.255900
-2.141300 34.328705 10.255900
-2.085600 34.278606 10.255900
-2.085600 34.278606 -10.413390
-2.141300 34.328705 -10.413390
-2.202600 34.371803 -10.413390
-2.268700 34.407005 -10.413390
-2.338600 34.433907 -10.413390
-22.045799 -36.909393 10.649600
-22.045799 -36.909393 10.255900
22.048700 -36.909393 10.255900
22.048700 -36.909393 10.649600
23.047300 -36.909393 10.667000
23.276800 -36.909393 10.799500
23.409201 -36.909393 11.028900
23.426701 -36.909393 12.224400
-23.423700 -36.909393 12.224400
-23.406300 -36.909393 11.028900
-23.273800 -36.909393 10.799500
-23.044399 -36.909393 10.667000
-0.612300 -33.956596 -1.555100
-2.045800 -33.956596 10.255900
2.048700 -33.956596 10.255900
0.861900 -33.956596 -1.587700
5.788900 -33.956596 -10.413390
-5.785900 -33.956596 -10.413390
-5.288600 -33.956596 -10.413390
-4.579900 -33.956596 -10.413390
-2.045800 -33.956596 -10.413390
2.048700 -33.956596 -10.413390
-2.138300 -36.530296 -10.413390
-2.082600 -36.580494 -10.413390
-2.082600 -36.580494 10.255900
-2.138300 -36.530296 10.255900
-2.199600 -36.487293 10.255900
-2.265700 -36.452095 10.255900
-2.265700 -36.452095 -10.413390
-2.199600 -36.487293 -10.413390
5.788900 -33.956596 -10.413390
5.788900 -33.956596 -10.610240
5.788900 -36.909393 -10.610240
5.788900 -36.909393 -10.413390
23.276800 -33.956596 10.799500
23.409201 -33.956596 11.028900
23.409201 -36.909393 11.028900
23.276800 -36.909393 10.799500
5.788900 -33.956596 -10.610240
8.151100 -33.956596 -11.003940
8.151100 -33.956596 -11.200790
9.854300 -33.956596 -11.986220
10.549900 -33.956596 -12.884640
10.907000 -33.956596 -14.350400
-10.904000 -33.956596 -14.350400
-10.701800 -33.956596 -13.232310
-10.118700 -33.956596 -12.257090
-8.883900 -33.956596 -11.390330
-8.148100 -33.956596 -11.200790
-8.148100 -33.956596 -11.003940
-5.785900 -33.956596 -10.610240
-2.560500 34.461506 10.255900
-2.560500 36.390606 10.255900
-2.560500 36.390606 -10.413390
-2.560500 34.461506 -10.413390
10.704700 -33.956596 -13.232310
10.549900 -33.956596 -12.884640
10.549900 -36.909393 -12.884640
10.704700 -36.909393 -13.232310
10.816800 -36.909393 -13.596000
10.884500 -36.909393 -13.970491
10.907000 -36.909393 -14.350400
10.907000 -33.956596 -14.350400
10.884500 -33.956596 -13.970491
10.816800 -33.956596 -13.596000
10.549900 -36.909393 -12.884640
9.854300 -36.909393 -11.986220
8.151100 -36.909393 -11.200790
8.151100 -36.909393 -11.003940
5.788900 -36.909393 -10.610240
5.788900 -36.909393 -10.413390
-5.785900 -36.909393 -10.413390
-5.785900 -36.909393 -10.610240
-8.148100 -36.909393 -11.003940
-8.148100 -36.909393 -11.200790
-8.883900 -36.909393 -11.390330
-10.118700 -36.909393 -12.257090
-10.701800 -36.909393 -13.232310
-10.904000 -36.909393 -14.350400
10.907000 -36.909393 -14.350400
0.897000 33.949703 -1.607000
0.861900 33.949703 -1.587700
0.861900 -33.956596 -1.587700
0.897000 -33.956596 -1.607000
0.929800 -33.956596 -1.630200
0.959700 -33.956596 -1.656900
1.009600 -33.956596 -1.719600
1.009600 33.949703 -1.719600
0.959700 33.949703 -1.656900
0.929800 33.949703 -1.630200
22.048700 -33.956596 10.649600
-22.045799 -33.956596 10.649600
-22.911900 -33.956596 10.649600
22.914900 -33.956596 10.649600
-18.305599 -33.956596 13.208700
18.308599 -33.956596 13.208700
18.308599 -33.956596 12.224400
-18.305599 -33.956596 12.224400
23.426701 -33.956596 12.224400
-23.423700 -33.956596 12.224400
2.108800 36.642704 -10.413390
2.045700 36.902405 -10.413390
2.045700 36.902405 10.255900
2.108800 36.642704 10.255900
-8.148100 -36.909393 -11.200790
-8.148100 -33.956596 -11.200790
-8.883900 -33.956596 -11.390330
-8.883900 -36.909393 -11.390330
-0.762800 -33.956596 -1.607000
-0.852200 -33.956596 -1.686900
-0.920800 -33.956596 -1.830500
-0.927200 -33.956596 -5.492130
1.061500 -33.956596 -5.492130
1.044100 -33.956596 -1.791900
0.959700 -33.956596 -1.656900
2.145900 34.266006 10.255900
2.358900 34.427406 10.255900
2.358900 34.427406 -10.413390
2.145900 34.266006 -10.413390
-2.490000 -34.466194 10.255900
-2.557600 -34.468395 10.255900
-2.557600 -34.468395 -10.413390
-2.490000 -34.466194 -10.413390
-2.423400 -34.454796 -10.413390
-2.358900 -34.434395 -10.413390
-2.297800 -34.405396 -10.413390
-2.297800 -34.405396 10.255900
-2.358900 -34.434395 10.255900
-2.423400 -34.454796 10.255900
-10.907000 36.902405 -14.350400
-10.907000 33.949703 -14.350400
-10.704700 33.949703 -13.232310
-10.704700 36.902405 -13.232310
21.418800 -49.074734 14.350400
21.418800 49.074604 14.350400
-21.415800 49.074604 14.350400
-21.415800 -49.074734 14.350400
23.273800 36.902405 10.799500
23.406300 36.902405 11.028900
23.406300 33.949703 11.028900
23.273800 33.949703 10.799500
5.788900 -36.909393 -10.413390
5.788900 -36.909393 -10.610240
5.788900 -33.956596 -10.610240
5.788900 -33.956596 -10.413390
2.148800 -36.593094 10.255900
2.300800 -36.460594 10.255900
2.300800 -36.460594 -10.413390
2.148800 -36.593094 -10.413390
2.148800 -36.593094 10.255900
2.300800 -36.460594 10.255900
2.560500 -36.397594 10.255900
2.560500 -34.468395 10.255900
2.300800 -34.405396 10.255900
2.148800 -34.272896 10.255900
2.082800 -34.155296 10.255900
2.048700 -33.956596 10.255900
22.048700 -33.956596 10.255900
22.048700 -36.909393 10.255900
2.048700 -36.909393 10.255900
2.082800 -36.710693 10.255900
5.785900 36.902405 -10.413390
5.785900 36.902405 -10.610240
5.785900 33.949703 -10.610240
5.785900 33.949703 -10.413390
23.044399 33.949703 10.667000
23.044399 36.902405 10.667000
1.044100 33.949703 -1.791900
1.061500 33.949703 -5.492130
-0.927200 33.949703 -5.492130
-0.920800 33.949703 -1.830500
-0.852200 33.949703 -1.686900
-0.762800 33.949703 -1.607000
-0.651900 33.949703 -1.561600
-1.918200 33.949703 10.255900
-1.918200 33.949703 -10.413390
2.045700 33.949703 -10.413390
2.045700 33.949703 10.255900
0.959700 33.949703 -1.656900
2.045700 33.949703 10.255900
2.045700 33.949703 -10.413390
2.059400 34.083904 -10.413390
2.059400 34.083904 10.255900
2.079800 34.148304 -10.413390
2.059400 34.083904 -10.413390
2.059400 34.083904 10.255900
2.079800 34.148304 10.255900
2.108800 34.209404 10.255900
2.108800 34.209404 -10.413390
2.557600 34.461506 10.255900
2.557600 34.461506 -10.413390
-2.244300 36.490704 10.255900
-2.361900 36.424706 10.255900
-2.361900 36.424706 -10.413390
-2.244300 36.490704 -10.413390
2.560500 -34.468395 -10.413390
2.493000 -34.466194 -10.413390
2.426300 -34.454796 -10.413390
2.361900 -34.434395 -10.413390
2.300800 -34.405396 -10.413390
2.300800 -34.405396 10.255900
2.361900 -34.434395 10.255900
2.426300 -34.454796 10.255900
2.493000 -34.466194 10.255900
2.560500 -34.468395 10.255900
8.148100 36.902405 -11.200790
8.148100 36.902405 -11.003940
8.148100 33.949703 -11.003940
8.148100 33.949703 -11.200790
8.151100 -33.956596 -11.200790
8.151100 -33.956596 -11.003940
8.151100 -36.909393 -11.003940
8.151100 -36.909393 -11.200790
10.904000 36.902405 -14.350400
10.904000 33.949703 -14.350400
-10.904000 33.949703 -14.350400
-10.904000 36.902405 -14.350400
-1.918200 33.949703 10.255900
-1.918200 33.949703 -10.413390
-22.045799 -33.956596 10.649600
-22.045799 -33.956596 10.255900
-22.045799 -36.909393 10.255900
-22.045799 -36.909393 10.649600
18.308599 45.964603 13.208700
18.308599 45.964603 12.224400
18.308599 -33.956596 12.224400
18.308599 -33.956596 13.208700
0.746500 -33.956596 -1.555100
0.746500 33.949703 -1.555100
-0.612300 33.949703 -1.555100
-0.612300 -33.956596 -1.555100
18.308599 36.902405 12.224400
18.308599 45.964603 12.224400
-18.305599 45.964603 12.224400
-18.305599 36.909504 12.224400
-23.423700 36.909504 12.224400
-23.423700 51.082603 12.224400
23.426701 51.082603 12.224400
23.426701 -33.956596 12.224400
18.308599 -33.956596 12.224400
18.308599 33.949703 12.224400
23.423700 33.949703 12.224400
23.423700 36.902405 12.224400
1.061500 33.949703 -5.492130
1.061500 33.949703 -1.870100
1.061500 -33.956596 -1.870100
1.061500 -33.956596 -5.492130
2.108800 36.642704 -10.413390
2.108800 36.642704 10.255900
2.045700 36.902405 10.255900
2.045700 36.902405 -10.413390
2.557600 36.390606 -10.413390
2.557600 36.390606 10.255900
2.557600 34.461506 10.255900
2.557600 34.461506 -10.413390
18.308599 -36.909393 12.224400
-18.305599 -36.909393 12.224400
2.560500 -36.397594 10.255900
2.560500 -36.397594 -10.413390
2.560500 -34.468395 -10.413390
2.560500 -34.468395 10.255900
-2.557600 -34.468395 -10.413390
-2.557600 -36.397594 -10.413390
-2.557600 -36.397594 10.255900
-2.557600 -34.468395 10.255900
-2.361900 36.424706 -10.413390
-2.560500 36.390606 -10.413390
-2.560500 36.390606 10.255900
-2.361900 36.424706 10.255900
-18.305599 36.902405 12.224400
-18.305599 33.949703 12.224400
-23.423700 33.949703 12.224400
-23.423700 36.902405 12.224400
-22.048700 33.949703 10.649600
-22.048700 33.949703 10.255900
22.045700 33.949703 10.255900
22.045700 33.949703 10.649600
23.044399 33.949703 10.667000
23.273800 33.949703 10.799500
23.406300 33.949703 11.028900
23.423700 33.949703 12.224400
18.308599 33.949703 12.224400
-18.305599 33.949703 12.224400
-23.426701 33.949703 12.224400
-23.409300 33.949703 11.028900
-23.276800 33.949703 10.799500
-23.047300 33.949703 10.667000
-2.338600 34.433907 -10.413390
-2.268700 34.407005 -10.413390
-2.202600 34.371803 -10.413390
-2.141300 34.328705 -10.413390
-2.141300 34.328705 10.255900
-2.202600 34.371803 10.255900
-2.268700 34.407005 10.255900
-2.338600 34.433907 10.255900
18.305599 33.949703 12.224400
-18.305599 -33.956596 13.208700
-18.305599 -33.956596 12.224400
-18.305599 45.964603 12.224400
-18.305599 45.964603 13.208700
18.308599 36.902405 12.224400
23.423700 36.902405 12.224400
23.423700 33.949703 12.224400
18.308599 33.949703 12.224400
10.907000 -33.956596 -14.350400
10.907000 -36.909393 -14.350400
-10.904000 -36.909393 -14.350400
-10.904000 -33.956596 -14.350400
23.406300 36.902405 11.028900
23.273800 36.902405 10.799500
23.044399 36.902405 10.667000
22.045700 36.902405 10.649600
22.045700 36.902405 10.255900
-22.048700 36.902405 10.255900
-22.048700 36.902405 10.649600
-23.047300 36.902405 10.667000
-23.276800 36.902405 10.799500
-23.409300 36.902405 11.028900
-23.426701 36.902405 12.224400
-18.305599 36.902405 12.224400
18.308599 36.902405 12.224400
23.423700 36.902405 12.224400
-2.335600 -36.425095 -10.413390
-2.557600 -36.397594 -10.413390
-2.557600 -34.468395 -10.413390
-2.297800 -34.405396 -10.413390
-2.108800 -34.216396 -10.413390
-2.045800 -33.956596 -10.413390
-5.785900 -33.956596 -10.413390
-5.785900 -36.909393 -10.413390
-1.915300 -36.909393 -10.413390
-2.082600 -36.580494 -10.413390
-18.308599 36.902405 12.224400
18.305599 36.902405 12.224400
-10.354600 36.902405 -12.558010
-10.354600 33.949703 -12.558010
-9.854300 33.949703 -11.986220
-9.556500 33.949703 -11.749290
-9.556500 36.902405 -11.749290
-9.854300 36.902405 -11.986220
21.655001 49.310604 14.192900
21.655001 -49.310955 14.192900
23.426701 -51.082603 12.224400
23.426701 51.082603 12.224400
-23.423700 -51.082603 12.224400
-23.423700 -36.909393 12.224400
-18.305599 -36.909393 12.224400
-18.305599 -45.964497 12.224400
18.308599 -45.964497 12.224400
18.308599 -36.909393 12.224400
23.426701 -36.909393 12.224400
23.426701 -51.082603 12.224400
-21.415800 49.074604 14.350400
-21.415800 49.074604 14.192900
-21.415800 -49.074734 14.192900
-21.415800 -49.074734 14.350400
18.308599 -36.909393 13.208700
18.308599 -36.909393 12.224400
18.308599 -45.964497 12.224400
18.308599 -45.964497 13.208700
23.047300 -36.909393 10.667000
22.048700 -36.909393 10.649600
22.048700 -33.956596 10.649600
23.047300 -33.956596 10.667000
-2.560500 34.461506 -10.413390
-2.560500 34.461506 10.255900
2.145900 34.266006 -10.413390
2.358900 34.427406 -10.413390
2.358900 34.427406 10.255900
2.145900 34.266006 10.255900
2.048700 -36.909393 10.255900
-1.915300 -36.909393 10.255900
-1.915300 -36.909393 -10.413390
2.048700 -36.909393 -10.413390
2.062400 -34.090794 -10.413390
2.082800 -34.155296 -10.413390
2.082800 -34.155296 10.255900
2.062400 -34.090794 10.255900
2.050900 -34.024197 10.255900
2.048700 -33.956596 10.255900
2.048700 -33.956596 -10.413390
2.050900 -34.024197 -10.413390
-9.556500 33.949703 -11.749290
-10.704700 33.949703 -13.232310
-10.907000 33.949703 -14.350400
10.904000 33.949703 -14.350400
10.351600 33.949703 -12.558010
9.229500 33.949703 -11.549700
8.148100 33.949703 -11.200790
8.148100 33.949703 -11.003940
5.785900 33.949703 -10.610240
5.785900 33.949703 -10.413390
-5.788900 33.949703 -10.413390
-5.788900 33.949703 -10.610240
-8.151100 33.949703 -11.003940
-8.151100 33.949703 -11.200790
2.082800 -36.710693 10.255900
2.082800 -36.710693 -10.413390
2.048700 -36.909393 -10.413390
2.048700 -36.909393 10.255900
5.785900 33.949703 -10.413390
5.785900 33.949703 -10.610240
5.785900 36.902405 -10.610240
5.785900 36.902405 -10.413390
22.048700 -33.956596 10.255900
22.048700 -33.956596 10.649600
22.048700 -36.909393 10.649600
22.048700 -36.909393 10.255900
0.861900 33.949703 -1.587700
-8.148100 -36.909393 -11.200790
-8.148100 -36.909393 -11.003940
-8.148100 -33.956596 -11.003940
-8.148100 -33.956596 -11.200790
-8.151100 33.949703 -11.200790
-8.151100 33.949703 -11.003940
-8.151100 36.902405 -11.003940
-8.151100 36.902405 -11.200790
-2.490000 -34.466194 -10.413390
-2.557600 -34.468395 -10.413390
-2.557600 -34.468395 10.255900
-2.490000 -34.466194 10.255900
-2.423400 -34.454796 10.255900
-2.358900 -34.434395 10.255900
-2.358900 -34.434395 -10.413390
-2.423400 -34.454796 -10.413390
-22.045799 -33.956596 10.649600
-22.045799 -36.909393 10.649600
-23.044399 -36.909393 10.667000
-23.044399 -33.956596 10.667000
2.560500 -34.468395 10.255900
2.560500 -36.397594 10.255900
2.493000 -36.399796 10.255900
2.300800 -36.460594 10.255900
2.148800 -36.593094 10.255900
2.082800 -36.710693 10.255900
2.048700 -36.909393 10.255900
-1.915300 -36.909393 10.255900
-2.082600 -36.580494 10.255900
-2.335600 -36.425095 10.255900
-2.557600 -36.397594 10.255900
-2.557600 -34.468395 10.255900
-2.297800 -34.405396 10.255900
-2.108800 -34.216396 10.255900
-2.045800 -33.956596 10.255900
2.048700 -33.956596 10.255900
2.082800 -34.155296 10.255900
2.148800 -34.272896 10.255900
2.300800 -34.405396 10.255900
-23.426701 36.902405 12.224400
-23.409300 36.902405 11.028900
-23.409300 33.949703 11.028900
-23.426701 33.949703 12.224400
5.785900 36.902405 -10.610240
8.148100 36.902405 -11.003940
8.148100 36.902405 -11.200790
9.229500 36.902405 -11.549700
10.351600 36.902405 -12.558010
10.904000 36.902405 -14.350400
-10.907000 36.902405 -14.350400
-10.704700 36.902405 -13.232310
-9.556500 36.902405 -11.749290
-8.151100 36.902405 -11.200790
-8.151100 36.902405 -11.003940
-5.788900 36.902405 -10.610240
-5.788900 36.902405 -10.413390
5.785900 36.902405 -10.413390
2.557600 34.461506 -10.413390
2.557600 34.461506 10.255900
2.300800 -36.460594 10.255900
2.148800 -36.593094 10.255900
2.082800 -36.710693 10.255900
2.048700 -36.909393 10.255900
-1.915300 -36.909393 10.255900
-2.082600 -36.580494 10.255900
-2.335600 -36.425095 10.255900
-2.557600 -36.397594 10.255900
-2.557600 -34.468395 10.255900
-2.297800 -34.405396 10.255900
-2.045800 -33.956596 10.255900
2.048700 -33.956596 10.255900
2.082800 -34.155296 10.255900
2.148800 -34.272896 10.255900
2.300800 -34.405396 10.255900
2.560500 -34.468395 10.255900
2.560500 -36.397594 10.255900
-5.291500 36.902405 -10.413390
-4.582900 36.902405 -10.413390
-2.048700 36.902405 -10.413390
2.045700 36.902405 -10.413390
-2.048700 36.902405 10.255900
2.045700 36.902405 10.255900
-10.701800 -33.956596 -13.232310
-10.701800 -36.909393 -13.232310
-10.118700 -36.909393 -12.257090
-10.118700 -33.956596 -12.257090
-22.048700 36.902405 10.649600
-22.048700 33.949703 10.649600
-23.047300 33.949703 10.667000
-23.047300 36.902405 10.667000
9.232400 -33.956596 -11.549700
8.886800 -33.956596 -11.390330
8.524700 -33.956596 -11.273470
8.151100 -33.956596 -11.200790
8.151100 -36.909393 -11.200790
8.524700 -36.909393 -11.273470
8.886800 -36.909393 -11.390330
9.232400 -36.909393 -11.549700
9.556500 -36.909393 -11.749290
9.854300 -36.909393 -11.986220
9.854300 -33.956596 -11.986220
9.556500 -33.956596 -11.749290
23.423700 36.902405 12.224400
23.423700 33.949703 12.224400
2.048700 -36.909393 -10.413390
2.082800 -36.710693 -10.413390
2.082800 -36.710693 10.255900
2.048700 -36.909393 10.255900
8.148100 36.902405 -11.200790
8.148100 33.949703 -11.200790
9.229500 33.949703 -11.549700
9.229500 36.902405 -11.549700
-0.612300 33.949703 -1.555100
-0.612300 -33.956596 -1.555100
-10.904000 36.902405 -14.350400
-10.904000 33.949703 -14.350400
-10.907000 33.949703 -14.350400
-10.907000 36.902405 -14.350400
10.351600 36.902405 -12.558010
10.351600 33.949703 -12.558010
10.904000 33.949703 -14.350400
10.904000 36.902405 -14.350400
7.398100 -33.956596 -10.703640
7.201200 -33.956596 -10.654290
7.001900 -33.956596 -10.615560
6.800800 -33.956596 -10.587560
6.598500 -33.956596 -10.570370
6.192600 -33.956596 -10.568590
5.990200 -33.956596 -10.584010
5.788900 -33.956596 -10.610240
5.788900 -36.909393 -10.610240
5.990200 -36.909393 -10.584010
6.192600 -36.909393 -10.568590
6.598500 -36.909393 -10.570370
6.800800 -36.909393 -10.587560
7.001900 -36.909393 -10.615560
7.201200 -36.909393 -10.654290
7.398100 -36.909393 -10.703640
7.782700 -36.909393 -10.833600
7.969200 -36.909393 -10.913830
8.151100 -36.909393 -11.003940
8.151100 -33.956596 -11.003940
7.969200 -33.956596 -10.913830
7.782700 -33.956596 -10.833600
-6.595600 -33.956596 -10.570370
-7.395200 -33.956596 -10.703640
-7.966200 -33.956596 -10.913830
-8.148100 -33.956596 -11.003940
-8.148100 -36.909393 -11.003940
-7.966200 -36.909393 -10.913830
-7.395200 -36.909393 -10.703640
-6.595600 -36.909393 -10.570370
-5.785900 -36.909393 -10.610240
-5.785900 -33.956596 -10.610240
0.786100 33.949703 -1.561600
0.746500 33.949703 -1.555100
0.746500 -33.956596 -1.555100
0.786100 -33.956596 -1.561600
0.824700 -33.956596 -1.572500
0.824700 33.949703 -1.572500
-10.904000 -33.956596 -14.350400
-10.904000 -36.909393 -14.350400
22.048700 -33.956596 10.255900
-22.045799 -33.956596 10.255900
-23.276800 36.902405 10.799500
-23.276800 33.949703 10.799500
-23.423700 33.949703 12.224400
-18.305599 33.949703 12.224400
-18.305599 -33.956596 12.224400
-23.423700 -33.956596 12.224400
1.061500 33.949703 -5.492130
1.061500 -33.956596 -5.492130
-0.927200 -33.956596 -5.492130
-0.927200 33.949703 -5.492130
18.308599 45.964603 13.208700
18.308599 -33.956596 13.208700
-18.305599 -33.956596 13.208700
-18.305599 45.964603 13.208700
-2.048700 36.902405 10.255900
-2.048700 36.902405 -10.413390
-2.111800 36.642704 -10.413390
-2.111800 36.642704 10.255900
9.851300 36.902405 -11.986220
9.553500 36.902405 -11.749290
9.553500 33.949703 -11.749290
9.851300 33.949703 -11.986220
10.118600 33.949703 -12.257090
10.118600 36.902405 -12.257090
-23.044399 -33.956596 10.667000
-23.273800 -33.956596 10.799500
-23.406300 -33.956596 11.028900
23.409201 -33.956596 11.028900
23.276800 -33.956596 10.799500
23.047300 -33.956596 10.667000
-2.244300 36.490704 -10.413390
-2.361900 36.424706 -10.413390
-2.560500 36.390606 -10.413390
-2.560500 34.461506 -10.413390
-2.338600 34.433907 -10.413390
-2.085600 34.278606 -10.413390
-1.918200 33.949703 -10.413390
-5.788900 33.949703 -10.413390
-5.788900 36.902405 -10.413390
-2.048700 36.902405 -10.413390
-2.111800 36.642704 -10.413390
18.308599 -36.909393 13.208700
-18.305599 -36.909393 13.208700
-2.111800 36.642704 -10.413390
-2.048700 36.902405 -10.413390
-5.788900 36.902405 -10.413390
-5.788900 33.949703 -10.413390
-1.918200 33.949703 -10.413390
-2.085600 34.278606 -10.413390
-2.338600 34.433907 -10.413390
-2.560500 34.461506 -10.413390
-2.560500 36.390606 -10.413390
-2.361900 36.424706 -10.413390
-2.244300 36.490704 -10.413390
2.423300 36.404305 -10.413390
2.358900 36.424706 -10.413390
2.358900 36.424706 10.255900
2.423300 36.404305 10.255900
2.490000 36.392803 10.255900
2.557600 36.390606 10.255900
2.557600 36.390606 -10.413390
2.490000 36.392803 -10.413390
-2.048700 36.902405 10.255900
-2.111800 36.642704 10.255900
-2.111800 36.642704 -10.413390
-2.048700 36.902405 -10.413390
-2.244300 36.490704 -10.413390
-2.244300 36.490704 10.255900
-1.915300 -36.909393 -10.413390
-1.915300 -36.909393 10.255900
-23.423700 -51.082603 12.224400
-21.652100 -49.310955 14.192900
-21.652100 49.310604 14.192900
-23.423700 51.082603 12.224400
-2.560500 34.461506 10.255900
-2.560500 34.461506 -10.413390
2.241300 36.490704 -10.413390
2.241300 36.490704 10.255900
-2.138300 -36.530296 10.255900
-2.082600 -36.580494 10.255900
-2.082600 -36.580494 -10.413390
-2.138300 -36.530296 -10.413390
-2.199600 -36.487293 -10.413390
-2.265700 -36.452095 -10.413390
-2.335600 -36.425095 -10.413390
-2.335600 -36.425095 10.255900
-2.265700 -36.452095 10.255900
-2.199600 -36.487293 10.255900
-8.524700 36.902405 -11.273470
-8.886900 36.902405 -11.390330
-8.886900 33.949703 -11.390330
-8.524700 33.949703 -11.273470
-8.151100 33.949703 -11.200790
-8.151100 36.902405 -11.200790
-1.915300 -36.909393 10.255900
-1.915300 -36.909393 -10.413390
-2.082600 -36.580494 -10.413390
-1.915300 -36.909393 -10.413390
-5.785900 -36.909393 -10.413390
-5.785900 -33.956596 -10.413390
-2.045800 -33.956596 -10.413390
-2.108800 -34.216396 -10.413390
-2.297800 -34.405396 -10.413390
-2.557600 -34.468395 -10.413390
-2.557600 -36.397594 -10.413390
-2.335600 -36.425095 -10.413390
18.305599 33.949703 13.208700
-18.305599 33.949703 13.208700
18.308599 45.964603 13.208700
-18.305599 45.964603 13.208700
-18.305599 45.964603 12.224400
18.308599 45.964603 12.224400
-2.045800 -33.956596 10.255900
-2.045800 -33.956596 -10.413390
-2.079800 -34.155296 10.255900
-2.108800 -34.216396 10.255900
-2.108800 -34.216396 -10.413390
-2.079800 -34.155296 -10.413390
-2.048000 -34.024197 -10.413390
-2.045800 -33.956596 -10.413390
-2.045800 -33.956596 10.255900
-2.048000 -34.024197 10.255900
5.785900 36.902405 -10.610240
5.785900 33.949703 -10.610240
8.148100 33.949703 -11.003940
8.148100 36.902405 -11.003940
-2.145900 -34.272896 10.255900
-2.190300 -34.323895 10.255900
-2.241300 -34.368294 10.255900
-2.241300 -34.368294 -10.413390
-2.190300 -34.323895 -10.413390
-2.145900 -34.272896 -10.413390
-23.273800 -33.956596 10.799500
-23.273800 -36.909393 10.799500
23.426701 -33.956596 12.224400
23.426701 -36.909393 12.224400
-23.423700 36.902405 12.224400
-23.423700 36.909504 12.224400
-18.305599 36.909504 12.224400
-18.305599 36.902405 12.224400
2.358900 36.424706 10.255900
2.241300 36.490704 10.255900
2.108800 36.642704 10.255900
2.045700 36.902405 10.255900
22.045700 36.902405 10.255900
22.045700 33.949703 10.255900
2.045700 33.949703 10.255900
2.059400 34.083904 10.255900
2.145900 34.266006 10.255900
2.358900 34.427406 10.255900
2.557600 34.461506 10.255900
2.557600 36.390606 10.255900
-21.652100 49.310604 14.192900
21.655001 49.310604 14.192900
23.426701 51.082603 12.224400
-23.423700 51.082603 12.224400
21.655001 -49.310955 14.192900
-21.652100 -49.310955 14.192900
-23.423700 -51.082603 12.224400
23.426701 -51.082603 12.224400
1.028900 33.949703 -1.754800
1.028900 -33.956596 -1.754800
1.044100 -33.956596 -1.791900
1.055000 -33.956596 -1.830500
1.061500 -33.956596 -1.870100
1.061500 33.949703 -1.870100
1.055000 33.949703 -1.830500
1.044100 33.949703 -1.791900
21.418800 49.074604 14.192900
21.418800 49.074604 14.350400
21.418800 -49.074734 14.350400
21.418800 -49.074734 14.192900
-2.557600 -36.397594 10.255900
-2.482700 -36.397694 10.255900
-2.408300 -36.406895 10.255900
-2.408300 -36.406895 -10.413390
-2.482700 -36.397694 -10.413390
-2.557600 -36.397594 -10.413390
-18.305599 -36.909393 12.224400
-18.305599 -36.909393 13.208700
-18.305599 -45.964497 13.208700
-18.305599 -45.964497 12.224400
18.308599 -36.909393 13.208700
18.308599 -45.964497 13.208700
-18.305599 -45.964497 13.208700
-18.305599 -36.909393 13.208700
-21.415800 49.074604 14.350400
21.418800 49.074604 14.350400
21.418800 49.074604 14.192900
-21.415800 49.074604 14.192900
22.045700 33.949703 10.649600
22.045700 36.902405 10.649600
-7.592200 36.902405 -10.763470
-7.969200 36.902405 -10.913830
-8.151100 36.902405 -11.003940
-8.151100 33.949703 -11.003940
-7.969200 33.949703 -10.913830
-7.592200 33.949703 -10.763470
-7.001900 33.949703 -10.615560
-6.598500 33.949703 -10.570370
-6.192600 33.949703 -10.568590
-5.788900 33.949703 -10.610240
-5.788900 36.902405 -10.610240
-6.192600 36.902405 -10.568590
-6.598500 36.902405 -10.570370
-7.001900 36.902405 -10.615560
2.148800 -36.593094 -10.413390
2.300800 -36.460594 -10.413390
2.560500 -36.397594 -10.413390
2.560500 -34.468395 -10.413390
2.300800 -34.405396 -10.413390
2.148800 -34.272896 -10.413390
2.082800 -34.155296 -10.413390
2.048700 -33.956596 -10.413390
5.788900 -33.956596 -10.413390
5.788900 -36.909393 -10.413390
2.048700 -36.909393 -10.413390
2.082800 -36.710693 -10.413390
21.418800 -49.074734 14.350400
-21.415800 -49.074734 14.350400
-21.415800 -49.074734 14.192900
21.418800 -49.074734 14.192900
-18.305599 33.949703 13.208700
-18.308599 33.949703 13.208700
-18.308599 33.949703 12.224400
-18.305599 33.949703 12.224400
18.305599 36.902405 13.208700
-18.308599 36.902405 13.208700
2.148800 -36.593094 -10.413390
2.082800 -36.710693 -10.413390
2.048700 -36.909393 -10.413390
5.788900 -36.909393 -10.413390
5.788900 -33.956596 -10.413390
2.048700 -33.956596 -10.413390
2.082800 -34.155296 -10.413390
2.148800 -34.272896 -10.413390
2.300800 -34.405396 -10.413390
2.560500 -34.468395 -10.413390
2.560500 -36.397594 -10.413390
2.300800 -36.460594 -10.413390
-22.048700 36.902405 10.649600
-22.048700 36.902405 10.255900
-22.048700 33.949703 10.255900
-22.048700 33.949703 10.649600
2.148800 -34.272896 10.255900
2.148800 -34.272896 -10.413390
2.193300 -34.323895 -10.413390
2.244200 -34.368294 -10.413390
2.244200 -34.368294 10.255900
2.193300 -34.323895 10.255900
2.493000 -36.399796 -10.413390
2.560500 -36.397594 -10.413390
2.560500 -36.397594 10.255900
2.493000 -36.399796 10.255900
2.426300 -36.411194 10.255900
2.361900 -36.431595 10.255900
2.361900 -36.431595 -10.413390
2.426300 -36.411194 -10.413390
-5.785900 -33.956596 -10.413390
-5.785900 -33.956596 -10.610240
-5.785900 -36.909393 -10.610240
-5.785900 -36.909393 -10.413390
-0.927200 33.949703 -1.870100
-0.927200 -33.956596 -1.870100
2.148800 -34.272896 10.255900
2.148800 -34.272896 -10.413390
2.082800 -34.155296 -10.413390
2.082800 -34.155296 10.255900
2.062400 -34.090794 -10.413390
2.050900 -34.024197 -10.413390
2.048700 -33.956596 -10.413390
2.048700 -33.956596 10.255900
2.050900 -34.024197 10.255900
2.062400 -34.090794 10.255900
-2.560500 36.390606 10.255900
-2.560500 36.390606 -10.413390
2.045700 33.949703 -10.413390
2.045700 33.949703 10.255900
2.193300 -34.323895 -10.413390
2.193300 -34.323895 10.255900
2.244200 -34.368294 10.255900
2.244200 -34.368294 -10.413390
2.493000 -36.399796 10.255900
2.560500 -36.397594 10.255900
2.560500 -36.397594 -10.413390
2.493000 -36.399796 -10.413390
2.426300 -36.411194 -10.413390
2.361900 -36.431595 -10.413390
2.361900 -36.431595 10.255900
2.426300 -36.411194 10.255900
-8.151100 36.902405 -11.200790
-8.151100 36.902405 -11.003940
-8.151100 33.949703 -11.003940
-8.151100 33.949703 -11.200790
-8.148100 -33.956596 -11.200790
-8.148100 -33.956596 -11.003940
-8.148100 -36.909393 -11.003940
-8.148100 -36.909393 -11.200790
4 0 1 2 3
4 4 5 6 7
10 8 9 10 11 12 13 14 15 16 17
11 18 19 20 21 22 23 24 25 26 27 28
19 29 30 31 32 33 34 35 36 37 38 39 40 41 42 43 44 45 46 47
12 48 49 50 51 52 53 54 55 56 57 58 59
4 60 61 62 63
4 64 65 66 67
10 68 69 70 71 72 73 74 75 76 77
4 78 79 80 81
4 82 83 84 85
8 86 87 88 89 90 91 92 93
8 94 95 96 97 98 99 100 101
4 102 103 104 105
8 106 107 108 109 110 111 112 113
12 114 115 116 117 118 119 120 121 122 123 124 125
4 126 127 128 129
8 130 82 85 131 132 133 134 135
4 136 137 138 139
10 140 141 142 143 144 145 146 147 148 149
12 150 151 152 153 154 155 156 157 158 159 160 161
4 162 163 164 165
3 166 167 168
3 166 168 169
3 166 169 170
3 166 170 171
10 172 173 174 175 176 177 90 89 178 179
4 180 181 182 183
4 184 185 186 187
15 188 189 190 191 192 193 194 195 196 197 198 199 200 167 166
4 201 202 203 204
10 205 206 207 208 209 210 211 212 213 214
15 215 216 217 218 219 220 221 222 223 224 225 226 227 228 229
10 230 231 232 233 234 235 236 237 238 239
3 240 241 242
3 240 242 243
4 244 245 246 247
3 248 249 247
3 248 247 246
4 250 251 252 253
4 254 255 256 257
13 258 259 260 261 262 263 264 165 164 171 170 163 162
4 265 266 267 268
10 269 270 271 272 273 274 275 276 277 278
4 279 280 281 282
4 283 284 285 286
4 287 288 289 290
4 291 292 293 294
4 295 296 297 298
12 299 300 301 302 303 304 305 306 307 308 309 310
4 311 312 313 314
4 287 290 315 316
12 317 318 319 320 321 322 323 324 325 326 327 328
4 329 330 331 332
8 333 334 335 336 337 265 268 338
4 266 339 340 267
4 341 342 343 344
10 345 346 347 348 349 350 351 352 353 354
4 355 356 357 358
4 359 360 361 362
4 363 364 365 366
4 144 367 368 145
4 369 370 371 372
4 373 374 375 376
4 377 378 379 380
12 381 382 383 384 385 386 387 388 389 390 391 392
4 393 394 395 396
4 397 398 399 400
4 401 402 403 404
4 397 84 83 398
3 158 157 405
3 158 405 406
4 407 408 409 410
4 411 412 413 414
4 415 416 417 418
4 419 420 421 422
14 423 424 425 426 427 428 429 430 431 432 433 434 435 436
10 437 438 439 440 79 78 441 442 443 444
3 445 432 431
4 446 447 448 449
4 450 451 452 453
4 454 455 456 457
14 458 459 460 461 462 463 464 465 466 467 468 469 470 471
10 472 473 474 475 476 477 478 479 480 481
3 469 468 482
3 469 483 470
8 484 282 281 485 486 487 488 489
4 490 491 492 493
8 494 495 496 497 498 499 500 501
4 502 503 504 505
4 506 507 508 509
4 510 511 512 513
4 514 437 444 515
4 97 94 101 98
4 516 517 518 519
4 520 521 522 523
8 524 525 526 527 528 529 530 531
14 532 533 534 535 536 537 538 539 540 541 542 543 544 545
4 546 547 548 549
4 550 551 552 553
4 554 555 556 557
5 558 328 327 324 323
4 559 560 561 562
4 563 564 565 566
10 567 568 569 570 571 572 105 104 573 574
4 575 576 577 578
19 579 580 581 582 583 584 585 586 587 588 589 590 591 592 593 594 595 596 597
4 598 599 600 601
14 602 603 604 605 606 607 608 609 610 611 612 613 614 615
4 517 616 617 518
19 618 619 620 621 622 623 624 625 626 627 73 628 629 630 631 632 633 634 581
3 615 614 635
3 615 635 636
3 615 636 637
3 615 637 638
4 639 640 638 637
4 641 642 643 644
4 645 646 647 648
12 649 650 651 652 653 654 655 656 657 658 659 660
4 661 662 289 288
4 663 664 665 666
4 184 187 510 513
4 667 668 669 670
4 671 107 106 672
4 673 674 675 676
4 677 678 679 680
22 681 682 683 684 685 686 687 688 689 690 691 692 693 694 695 696 697 698 699 700 701 702
10 703 704 705 706 707 708 709 710 711 712
8 713 714 715 716 717 232 231 718
4 719 720 642 641
4 721 722 241 240
4 599 723 724 600
4 725 726 727 728
4 257 256 644 643
4 729 730 731 732
4 733 734 735 736
4 737 738 739 740
4 659 658 207 206
10 741 742 670 669 743 744 745 678 677 746
10 747 748 749 249 248 750 751 752 243 242
11 753 754 755 756 757 758 759 760 761 762 763
4 724 723 648 647
4 764 765 406 405
11 766 767 768 769 770 771 772 773 774 775 776
8 777 778 779 780 781 782 783 784
4 298 547 546 295
4 785 786 787 788
4 789 415 418 790
4 174 173 791 792
4 793 794 795 796
4 797 140 149 798
4 778 799 800 779
10 801 802 803 804 805 806 807 808 809 810
8 811 812 488 487 813 814 815 816
4 802 817 818 803
10 819 820 821 822 823 824 825 826 827 828
4 445 829 830 432
4 831 832 833 834
4 102 835 836 103
8 837 838 839 840 841 842 843 844
4 845 846 847 848
10 849 850 851 276 275 852 853 854 839 838
4 855 856 6 5
4 332 331 516 519
4 857 858 186 185
4 859 860 861 862
12 863 864 865 866 867 868 869 870 871 872 873 874
4 875 876 877 878
4 879 880 881 882
10 883 237 236 884 885 886 887 888 889 890
4 786 341 344 787
4 250 253 800 799
4 665 664 136 139
4 891 892 893 894
8 895 896 897 808 807 898 899 900
4 901 902 903 904
4 905 906 907 908
4 909 910 911 912
4 913 914 316 315
14 915 916 917 918 919 920 921 922 923 924 925 926 927 928
12 929 930 931 932 933 934 935 936 937 938 939 940
4 941 942 943 944
4 945 946 947 948
5 949 483 469 482 950
12 951 952 953 954 955 956 957 958 959 960 961 962
4 963 964 965 966
8 967 968 969 970 13 12 971 972
4 526 525 968 967
10 973 974 975 976 977 978 138 137 979 980
4 739 789 790 740
4 981 982 983 984
4 985 986 111 110
4 987 988 989 990
4 577 856 855 578
8 990 989 991 992 993 994 995 996
4 342 997 998 343
4 999 1000 335 334
8 1001 988 987 1002 1003 350 349 1004
10 1005 1006 1007 1008 1009 1010 297 296 1011 1012
4 1013 1014 1015 1016
4 1017 1018 1019 1020
