ply
format ascii 1.0
comment Created by Blender 2.82 (sub 7) - www.blender.org, source file: ''
element vertex 1112
property float x
property float y
property float z
element face 288
property list uchar uint vertex_indices
end_header
9.559600 -32.758801 6.309600
-9.559630 -32.758801 6.309600
-9.500000 -32.500000 6.250000
9.500000 -32.500000 6.250000
-11.224140 31.534069 13.625000
-11.741780 31.534069 13.625000
-11.741780 31.534069 13.375000
-11.224140 31.534069 13.375000
-11.612370 -32.983002 9.375000
-11.612370 -32.983002 13.375000
-11.836520 -32.853600 13.375000
-11.836520 -32.853600 9.375000
11.775900 33.465927 13.625000
11.775900 33.465927 13.375000
11.258200 33.465927 13.375000
11.258200 33.465927 13.625000
-9.559630 32.758820 6.309600
-9.500000 32.500000 6.250000
-9.500000 32.500000 -14.250000
-9.559630 32.758820 -14.250000
12.017000 33.366024 13.625000
12.383100 33.000000 13.625000
12.383100 33.000000 13.375000
12.017000 33.366024 13.375000
-10.375000 -33.366001 7.125000
10.375000 -33.366001 7.125000
10.797100 -33.465900 7.547100
-10.797070 -33.465900 7.547100
12.765500 33.000000 9.515500
12.487400 33.207108 9.237400
-12.487437 33.207108 9.237400
-12.765545 33.000000 9.515500
-11.482960 -31.500000 13.625000
-11.482960 -31.500000 13.375000
-11.982960 -31.634001 13.375000
-11.982960 -31.634001 13.625000
11.702900 -33.465900 -14.250000
11.702900 -33.465900 8.452900
11.250000 -33.500000 8.000000
11.250000 -33.500000 -14.250000
-10.616940 32.000000 13.625000
-10.982960 31.633970 13.625000
-10.982960 31.633970 13.375000
-10.616940 32.000000 13.375000
16.750000 -44.250000 14.250000
16.750000 -44.250000 13.625000
16.750000 44.250000 13.625000
16.750000 44.250000 14.250000
-9.734460 -33.000000 -14.250000
-9.734460 -33.000000 6.484500
-10.012560 -33.207100 6.762600
-10.012560 -33.207100 -14.250000
12.487400 -31.792900 9.237400
12.125000 -31.634001 8.875000
-12.125000 -31.634001 8.875000
-12.487437 -31.792900 9.237400
13.000000 32.500000 9.750000
12.940400 32.241180 9.690400
12.940400 32.241180 -14.250000
13.000000 32.500000 -14.250000
-13.000000 -32.500000 9.750000
-12.940370 -32.241199 9.690400
-12.940370 -32.241199 -14.250000
-13.000000 -32.500000 -14.250000
-11.702930 33.465927 8.452900
-11.702930 33.465927 -14.250000
-12.125000 33.366024 -14.250000
-12.125000 33.366024 8.875000
11.017000 -33.366001 13.375000
11.017000 -33.366001 13.625000
10.651000 -33.000000 13.625000
10.651000 -33.000000 13.375000
-10.482960 -32.500000 13.625000
-10.616940 -33.000000 13.625000
-10.616940 -33.000000 13.375000
-10.482960 -32.500000 13.375000
-12.940370 -32.758801 9.690400
-13.000000 -32.500000 9.750000
-13.000000 -32.500000 -14.250000
-12.940370 -32.758801 -14.250000
-12.487437 31.792891 -14.250000
-12.487437 31.792891 9.237400
-12.765545 32.000000 9.515500
-12.765545 32.000000 -14.250000
-9.559630 -32.241199 6.309600
-9.500000 -32.500000 6.250000
-9.500000 -32.500000 -14.250000
-9.559630 -32.241199 -14.250000
-11.702930 -31.534100 8.452900
-11.702930 -31.534100 -14.250000
-12.125000 -31.634001 -14.250000
-12.125000 -31.634001 8.875000
-11.702930 33.465927 -14.250000
-10.012560 33.207108 -14.250000
-9.559630 32.758820 -14.250000
-9.500000 32.500000 -14.250000
-9.559630 32.241180 -14.250000
-10.012560 31.792891 -14.250000
-11.702930 31.534069 -14.250000
-12.487437 31.792891 -14.250000
-12.940370 32.241180 -14.250000
-13.000000 32.500000 -14.250000
-12.940370 32.758820 -14.250000
-12.487437 33.207108 -14.250000
-9.734460 -33.000000 6.484500
9.734500 -33.000000 6.484500
10.012600 -33.207100 6.762600
-10.012560 -33.207100 6.762600
-10.012560 -33.207100 6.762600
10.012600 -33.207100 6.762600
10.375000 -33.366001 7.125000
-10.375000 -33.366001 7.125000
-11.702930 -33.465900 8.452900
11.702900 -33.465900 8.452900
12.125000 -33.366001 8.875000
-12.125000 -33.366001 8.875000
-12.125000 -33.366001 8.875000
12.125000 -33.366001 8.875000
12.487400 -33.207100 9.237400
-12.487437 -33.207100 9.237400
12.487400 -31.792900 9.237400
12.487400 -31.792900 -14.250000
12.125000 -31.634001 -14.250000
12.125000 -31.634001 8.875000
10.797100 -31.534100 7.547100
10.797100 -31.534100 -14.250000
10.375000 -31.634001 -14.250000
10.375000 -31.634001 7.125000
-12.125000 31.633970 8.875000
12.125000 31.633970 8.875000
12.487400 31.792891 9.237400
-12.487437 31.792891 9.237400
-11.965930 -32.629398 13.375000
-11.965930 -32.370602 13.375000
-11.965930 -32.370602 9.375000
-11.965930 -32.629398 9.375000
-10.982960 32.500000 13.375000
-11.049950 32.250000 13.375000
-11.049950 32.250000 9.375000
-10.982960 32.500000 9.375000
11.517000 -31.500000 13.375000
11.517000 -31.500000 13.625000
12.017000 -31.634001 13.625000
12.017000 -31.634001 13.375000
-12.765545 32.000000 9.515500
-12.940370 32.241180 9.690400
-12.940370 32.241180 -14.250000
-12.765545 32.000000 -14.250000
0.000000 -32.500000 9.750000
0.258800 -32.500000 9.690400
0.258800 32.500000 9.690400
0.000000 32.500000 9.750000
12.765500 32.000000 -14.250000
12.765500 32.000000 9.515500
12.487400 31.792891 9.237400
12.487400 31.792891 -14.250000
-11.732960 32.066990 9.375000
-11.732960 32.066990 13.375000
-11.915980 32.250000 13.375000
-11.915980 32.250000 9.375000
11.387600 -32.983002 9.375000
11.387600 -32.983002 13.375000
11.163500 -32.853600 13.375000
11.163500 -32.853600 9.375000
0.258800 -32.500000 6.309600
0.000000 -32.500000 6.250000
0.000000 32.500000 6.250000
0.258800 32.500000 6.309600
12.765500 33.000000 9.515500
12.940400 32.758820 9.690400
12.940400 32.758820 -14.250000
12.765500 33.000000 -14.250000
-9.559630 32.241180 6.309600
-9.734460 32.000000 6.484500
-9.734460 32.000000 -14.250000
-9.559630 32.241180 -14.250000
-11.482960 32.000000 13.375000
-11.482960 32.000000 9.375000
-11.232960 32.066990 9.375000
-11.232960 32.066990 13.375000
-10.982960 -33.366001 13.625000
-11.482960 -33.500000 13.625000
-11.482960 -33.500000 13.375000
-10.982960 -33.366001 13.375000
12.017000 -33.366001 13.625000
11.517000 -33.500000 13.625000
11.517000 -33.500000 13.375000
12.017000 -33.366001 13.375000
12.017000 31.633970 13.375000
12.017000 31.633970 13.625000
11.775900 31.534069 13.625000
11.775900 31.534069 13.375000
11.017000 31.633970 13.625000
10.651000 32.000000 13.625000
10.651000 32.000000 13.375000
11.017000 31.633970 13.375000
12.383100 -33.000000 13.625000
12.383100 -33.000000 13.375000
-12.940370 -32.758801 9.690400
12.940400 -32.758801 9.690400
13.000000 -32.500000 9.750000
-13.000000 -32.500000 9.750000
0.707100 -32.500000 9.237400
0.707100 32.500000 9.237400
10.375000 -31.634001 7.125000
10.012600 -31.792900 6.762600
-10.012560 -31.792900 6.762600
-10.375000 -31.634001 7.125000
9.734500 32.000000 6.484500
-9.734460 32.000000 6.484500
-9.559630 32.241180 6.309600
9.559600 32.241180 6.309600
9.559600 32.241180 6.309600
-9.559630 32.241180 6.309600
-9.500000 32.500000 6.250000
9.500000 32.500000 6.250000
-12.190069 33.207108 13.375000
-12.190069 33.207108 13.625000
-11.741780 33.465927 13.625000
-11.741780 33.465927 13.375000
-11.250000 31.500000 8.000000
11.250000 31.500000 8.000000
11.702900 31.534069 8.452900
-11.702930 31.534069 8.452900
-10.375000 31.633970 7.125000
10.375000 31.633970 7.125000
10.797100 31.534069 7.547100
-10.797070 31.534069 7.547100
-12.348988 -32.000000 13.625000
-12.348988 -32.000000 13.375000
11.646400 -32.016998 13.375000
11.646400 -32.016998 9.375000
11.387600 -32.016998 9.375000
11.387600 -32.016998 13.375000
-9.734460 33.000000 6.484500
-9.559630 32.758820 6.309600
-9.559630 32.758820 -14.250000
-9.734460 33.000000 -14.250000
-11.129410 -32.146400 13.375000
-11.129410 -32.146400 9.375000
-11.353550 -32.016998 9.375000
-11.353550 -32.016998 13.375000
-13.000000 32.500000 9.750000
-12.940370 32.758820 9.690400
-12.940370 32.758820 -14.250000
-13.000000 32.500000 -14.250000
-12.125000 33.366024 8.875000
-12.125000 33.366024 -14.250000
-12.487437 33.207108 -14.250000
-12.487437 33.207108 9.237400
12.383100 32.000000 13.625000
12.383100 32.000000 13.375000
11.017000 -32.500000 13.375000
11.084000 -32.250000 13.375000
11.084000 -32.250000 9.375000
11.017000 -32.500000 9.375000
11.387600 -32.983002 13.375000
11.646400 -32.983002 13.375000
11.870600 -32.853600 13.375000
12.000000 -32.629398 13.375000
12.000000 -32.370602 13.375000
11.870600 -32.146400 13.375000
11.646400 -32.016998 13.375000
11.387600 -32.016998 13.375000
11.163500 -32.146400 13.375000
11.084000 -32.250000 13.375000
11.017000 -32.500000 13.375000
11.084000 -32.750000 13.375000
11.163500 -32.853600 13.375000
12.000000 -32.629398 13.375000
11.870600 -32.853600 13.375000
11.870600 -32.853600 9.375000
12.000000 -32.629398 9.375000
-16.750000 44.250000 14.250000
-16.750000 -44.250000 14.250000
16.750000 -44.250000 14.250000
16.750000 44.250000 14.250000
11.084000 -32.750000 13.375000
11.084000 -32.750000 9.375000
-9.500000 32.500000 6.250000
-9.559630 32.241180 6.309600
-9.559630 32.241180 -14.250000
-9.500000 32.500000 -14.250000
12.940400 32.241180 -14.250000
12.487400 31.792891 -14.250000
10.797100 31.534069 -14.250000
10.012600 31.792891 -14.250000
9.559600 32.241180 -14.250000
9.500000 32.500000 -14.250000
9.559600 32.758820 -14.250000
10.012600 33.207108 -14.250000
11.702900 33.465927 -14.250000
12.487400 33.207108 -14.250000
12.940400 32.758820 -14.250000
13.000000 32.500000 -14.250000
-10.012560 31.792891 -14.250000
-10.012560 31.792891 6.762600
-10.375000 31.633970 7.125000
-10.375000 31.633970 -14.250000
-12.940370 -32.241199 -14.250000
-12.487437 -31.792900 -14.250000
-11.702930 -31.534100 -14.250000
-10.012560 -31.792900 -14.250000
-9.559630 -32.241199 -14.250000
-9.500000 -32.500000 -14.250000
-9.559630 -32.758801 -14.250000
-10.012560 -33.207100 -14.250000
-11.702930 -33.465900 -14.250000
-12.487437 -33.207100 -14.250000
-12.940370 -32.758801 -14.250000
-13.000000 -32.500000 -14.250000
-10.012560 31.792891 6.762600
10.012600 31.792891 6.762600
10.375000 31.633970 7.125000
-10.375000 31.633970 7.125000
0.707100 -32.500000 6.762600
0.707100 32.500000 6.762600
0.965900 32.500000 7.547100
0.965900 -32.500000 7.547100
10.797100 -31.534100 7.547100
10.375000 -31.634001 7.125000
-10.375000 -31.634001 7.125000
-10.797070 -31.534100 7.547100
-12.940370 32.758820 9.690400
-12.765545 33.000000 9.515500
-12.765545 33.000000 -14.250000
-12.940370 32.758820 -14.250000
-10.012560 -31.792900 6.762600
-10.012560 -31.792900 -14.250000
-10.375000 -31.634001 -14.250000
-10.375000 -31.634001 7.125000
10.797100 -33.465900 -14.250000
10.797100 -33.465900 7.547100
10.375000 -33.366001 7.125000
10.375000 -33.366001 -14.250000
-13.000000 32.500000 9.750000
13.000000 32.500000 9.750000
12.940400 32.758820 9.690400
-12.940370 32.758820 9.690400
-12.940370 -32.241199 9.690400
12.940400 -32.241199 9.690400
12.765500 -32.000000 9.515500
-12.765545 -32.000000 9.515500
10.517000 32.500000 13.625000
10.651000 33.000000 13.625000
10.651000 33.000000 13.375000
10.517000 32.500000 13.375000
12.487400 33.207108 9.237400
12.125000 33.366024 8.875000
-12.125000 33.366024 8.875000
-12.487437 33.207108 9.237400
-10.982960 -31.634001 13.625000
-10.982960 -31.634001 13.375000
-9.734460 32.000000 6.484500
9.734500 32.000000 6.484500
10.012600 31.792891 6.762600
-10.012560 31.792891 6.762600
11.517000 33.000000 9.375000
11.267000 32.933014 9.375000
11.267000 32.933014 13.375000
11.517000 33.000000 13.375000
10.797100 33.465927 7.547100
10.375000 33.366024 7.125000
-10.375000 33.366024 7.125000
-10.797070 33.465927 7.547100
11.702900 33.465927 8.452900
11.250000 33.500000 8.000000
-11.250000 33.500000 8.000000
-11.702930 33.465927 8.452900
10.375000 33.366024 7.125000
10.012600 33.207108 6.762600
-10.012560 33.207108 6.762600
-10.375000 33.366024 7.125000
-16.750000 -44.250000 13.625000
-16.750000 44.250000 13.625000
16.750000 44.250000 13.625000
16.750000 -44.250000 13.625000
10.809900 33.207108 13.625000
10.651000 33.000000 13.625000
10.517000 32.500000 13.625000
10.651000 32.000000 13.625000
11.017000 31.633970 13.625000
11.258200 31.534069 13.625000
11.775900 31.534069 13.625000
12.017000 31.633970 13.625000
12.383100 32.000000 13.625000
12.483000 32.241180 13.625000
12.483000 32.758820 13.625000
12.383100 33.000000 13.625000
12.017000 33.366024 13.625000
11.775900 33.465927 13.625000
11.258200 33.465927 13.625000
9.734500 -33.000000 6.484500
-9.734460 -33.000000 6.484500
-9.559630 -32.758801 6.309600
9.559600 -32.758801 6.309600
0.258800 32.500000 9.690400
0.707100 32.500000 9.237400
0.965900 32.500000 8.452900
0.707100 32.500000 6.762600
0.258800 32.500000 6.309600
0.000000 32.500000 6.250000
-0.258800 32.500000 6.309600
-0.707100 32.500000 6.762600
-0.965900 32.500000 7.547100
-0.707100 32.500000 9.237400
-0.258800 32.500000 9.690400
0.000000 32.500000 9.750000
-12.482963 -32.500000 13.625000
-12.482963 -32.500000 13.375000
-10.616940 -32.000000 13.625000
-10.616940 -32.000000 13.375000
9.559600 32.758820 6.309600
-9.559630 32.758820 6.309600
-9.734460 33.000000 6.484500
9.734500 33.000000 6.484500
11.250000 -31.500000 8.000000
11.250000 -31.500000 -14.250000
10.797100 -31.534100 -14.250000
10.797100 -31.534100 7.547100
9.559600 -32.758801 6.309600
9.500000 -32.500000 6.250000
9.500000 -32.500000 -14.250000
9.559600 -32.758801 -14.250000
12.940400 32.758820 9.690400
13.000000 32.500000 9.750000
13.000000 32.500000 -14.250000
12.940400 32.758820 -14.250000
-11.702930 31.534069 -14.250000
-11.702930 31.534069 8.452900
-12.125000 31.633970 8.875000
-12.125000 31.633970 -14.250000
11.250000 -33.500000 -14.250000
11.250000 -33.500000 8.000000
10.797100 -33.465900 7.547100
10.797100 -33.465900 -14.250000
-11.232960 32.933014 13.375000
-11.232960 32.933014 9.375000
-11.353550 32.982964 9.375000
-11.353550 32.982964 13.375000
12.125000 -33.366001 -14.250000
12.125000 -33.366001 8.875000
11.702900 -33.465900 8.452900
11.702900 -33.465900 -14.250000
12.765500 -33.000000 -14.250000
12.765500 -33.000000 9.515500
12.487400 -33.207100 9.237400
12.487400 -33.207100 -14.250000
11.702900 33.465927 8.452900
11.702900 33.465927 -14.250000
11.250000 33.500000 -14.250000
11.250000 33.500000 8.000000
9.559600 32.241180 6.309600
9.500000 32.500000 6.250000
9.500000 32.500000 -14.250000
9.559600 32.241180 -14.250000
10.375000 33.366024 7.125000
10.375000 33.366024 -14.250000
10.012600 33.207108 -14.250000
10.012600 33.207108 6.762600
-11.129410 -32.853600 9.375000
-11.129410 -32.853600 13.375000
-11.353550 -32.983002 13.375000
-11.353550 -32.983002 9.375000
10.797100 33.465927 7.547100
10.797100 33.465927 -14.250000
10.375000 33.366024 -14.250000
10.375000 33.366024 7.125000
-12.940370 32.241180 9.690400
-13.000000 32.500000 9.750000
-13.000000 32.500000 -14.250000
-12.940370 32.241180 -14.250000
12.487400 -33.207100 -14.250000
10.797100 -33.465900 -14.250000
10.012600 -33.207100 -14.250000
9.559600 -32.758801 -14.250000
9.500000 -32.500000 -14.250000
9.559600 -32.241199 -14.250000
10.012600 -31.792900 -14.250000
11.702900 -31.534100 -14.250000
12.487400 -31.792900 -14.250000
12.940400 -32.241199 -14.250000
13.000000 -32.500000 -14.250000
12.940400 -32.758801 -14.250000
-12.487437 33.207108 9.237400
-12.487437 33.207108 -14.250000
-12.765545 33.000000 -14.250000
-12.765545 33.000000 9.515500
9.559600 32.758820 6.309600
9.734500 33.000000 6.484500
9.734500 33.000000 -14.250000
9.559600 32.758820 -14.250000
-10.982960 33.366024 13.375000
-10.616940 33.000000 13.375000
-10.482960 32.500000 13.375000
-10.616940 32.000000 13.375000
-10.982960 31.633970 13.375000
-11.224140 31.534069 13.375000
-11.741780 31.534069 13.375000
-12.190069 31.792891 13.375000
-12.448888 32.241180 13.375000
-12.448888 32.758820 13.375000
-12.190069 33.207108 13.375000
-11.741780 33.465927 13.375000
-11.224140 33.465927 13.375000
10.375000 31.633970 -14.250000
10.375000 31.633970 7.125000
10.012600 31.792891 6.762600
10.012600 31.792891 -14.250000
11.646400 32.982964 9.375000
11.646400 32.982964 13.375000
11.870600 32.853554 13.375000
11.870600 32.853554 9.375000
11.163500 -32.146400 13.375000
11.163500 -32.146400 9.375000
10.517000 -32.500000 13.625000
10.651000 -32.000000 13.625000
10.651000 -32.000000 13.375000
10.517000 -32.500000 13.375000
-10.797070 33.465927 7.547100
-10.797070 33.465927 -14.250000
-11.250000 33.500000 -14.250000
-11.250000 33.500000 8.000000
10.797100 31.534069 -14.250000
10.797100 31.534069 7.547100
10.375000 31.633970 7.125000
10.375000 31.633970 -14.250000
-11.741780 31.534069 13.625000
-11.224140 31.534069 13.625000
-10.982960 31.633970 13.625000
-10.616940 32.000000 13.625000
-10.482960 32.500000 13.625000
-10.616940 33.000000 13.625000
-10.982960 33.366024 13.625000
-11.224140 33.465927 13.625000
-11.741780 33.465927 13.625000
-12.190069 33.207108 13.625000
-12.448888 32.758820 13.625000
-12.448888 32.241180 13.625000
-12.190069 31.792891 13.625000
11.702900 31.534069 -14.250000
11.702900 31.534069 8.452900
11.250000 31.500000 8.000000
11.250000 31.500000 -14.250000
-11.965930 32.629410 13.375000
-11.836520 32.853554 13.375000
-11.836520 32.853554 9.375000
-11.965930 32.629410 9.375000
-10.982960 33.366024 13.625000
-10.982960 33.366024 13.375000
-11.224140 33.465927 13.375000
-11.224140 33.465927 13.625000
-12.448888 32.241180 13.625000
-12.448888 32.758820 13.625000
-12.448888 32.758820 13.375000
-12.448888 32.241180 13.375000
11.646400 -32.983002 9.375000
11.387600 -32.983002 9.375000
11.163500 -32.853600 9.375000
11.084000 -32.750000 9.375000
11.017000 -32.500000 9.375000
11.084000 -32.250000 9.375000
11.163500 -32.146400 9.375000
11.387600 -32.016998 9.375000
11.646400 -32.016998 9.375000
11.870600 -32.146400 9.375000
12.000000 -32.370602 9.375000
12.000000 -32.629398 9.375000
11.870600 -32.853600 9.375000
-10.375000 33.366024 7.125000
-10.375000 33.366024 -14.250000
-10.797070 33.465927 -14.250000
-10.797070 33.465927 7.547100
-12.940370 -32.241199 9.690400
-12.765545 -32.000000 9.515500
-12.765545 -32.000000 -14.250000
-12.940370 -32.241199 -14.250000
11.267000 32.066990 9.375000
11.267000 32.066990 13.375000
11.084000 32.250000 13.375000
11.084000 32.250000 9.375000
-0.707100 32.500000 6.762600
-0.707100 -32.500000 6.762600
-0.965900 -32.500000 7.547100
-0.965900 32.500000 7.547100
-11.250000 33.500000 8.000000
-11.250000 33.500000 -14.250000
-11.702930 33.465927 -14.250000
-11.702930 33.465927 8.452900
-11.232960 32.066990 9.375000
-11.482960 32.000000 9.375000
-11.732960 32.066990 9.375000
-11.915980 32.250000 9.375000
-11.965930 32.370590 9.375000
-11.965930 32.629410 9.375000
-11.836520 32.853554 9.375000
-11.612370 32.982964 9.375000
-11.353550 32.982964 9.375000
-11.232960 32.933014 9.375000
-11.049950 32.750000 9.375000
-10.982960 32.500000 9.375000
-11.049950 32.250000 9.375000
-10.375000 31.633970 -14.250000
-10.375000 31.633970 7.125000
-10.797070 31.534069 7.547100
-10.797070 31.534069 -14.250000
-10.982960 32.500000 13.375000
-11.049950 32.750000 13.375000
-11.232960 32.933014 13.375000
-11.353550 32.982964 13.375000
-11.612370 32.982964 13.375000
-11.836520 32.853554 13.375000
-11.965930 32.629410 13.375000
-11.965930 32.370590 13.375000
-11.915980 32.250000 13.375000
-11.732960 32.066990 13.375000
-11.482960 32.000000 13.375000
-11.232960 32.066990 13.375000
-11.049950 32.250000 13.375000
16.750000 -44.250000 14.250000
-16.750000 -44.250000 14.250000
-16.750000 -44.250000 13.625000
16.750000 -44.250000 13.625000
-10.482960 32.500000 13.625000
-10.482960 32.500000 13.375000
-10.797070 31.534069 -14.250000
-10.797070 31.534069 7.547100
-11.250000 31.500000 8.000000
-11.250000 31.500000 -14.250000
-12.765545 -33.000000 9.515500
-12.940370 -32.758801 9.690400
-12.940370 -32.758801 -14.250000
-12.765545 -33.000000 -14.250000
-0.258800 -32.500000 6.309600
-0.258800 32.500000 6.309600
-11.250000 31.500000 -14.250000
-11.250000 31.500000 8.000000
-11.702930 31.534069 8.452900
-11.702930 31.534069 -14.250000
-11.965930 32.370590 13.375000
-11.965930 32.370590 9.375000
-11.049950 32.750000 13.375000
-11.049950 32.750000 9.375000
-12.487437 -31.792900 9.237400
-12.487437 -31.792900 -14.250000
-12.765545 -32.000000 -14.250000
-12.765545 -32.000000 9.515500
-11.612370 32.982964 9.375000
-11.612370 32.982964 13.375000
-11.250000 -31.500000 8.000000
-11.250000 -31.500000 -14.250000
-11.702930 -31.534100 -14.250000
-11.702930 -31.534100 8.452900
-11.000000 -32.629398 13.375000
-11.000000 -32.629398 9.375000
-12.125000 -31.634001 8.875000
-12.125000 -31.634001 -14.250000
-12.487437 -31.792900 -14.250000
-12.487437 -31.792900 9.237400
11.702900 -31.534100 8.452900
11.702900 -31.534100 -14.250000
11.250000 -31.500000 -14.250000
11.250000 -31.500000 8.000000
-10.797070 -31.534100 7.547100
-10.797070 -31.534100 -14.250000
-11.250000 -31.500000 -14.250000
-11.250000 -31.500000 8.000000
-12.765545 32.000000 9.515500
12.765500 32.000000 9.515500
12.940400 32.241180 9.690400
-12.940370 32.241180 9.690400
10.517000 32.500000 13.375000
10.651000 33.000000 13.375000
10.809900 33.207108 13.375000
11.258200 33.465927 13.375000
11.775900 33.465927 13.375000
12.017000 33.366024 13.375000
12.383100 33.000000 13.375000
12.483000 32.758820 13.375000
12.483000 32.241180 13.375000
12.383100 32.000000 13.375000
12.017000 31.633970 13.375000
11.775900 31.534069 13.375000
11.258200 31.534069 13.375000
11.017000 31.633970 13.375000
10.651000 32.000000 13.375000
11.258200 31.534069 13.375000
11.258200 31.534069 13.625000
-9.559630 -32.758801 6.309600
-9.734460 -33.000000 6.484500
-9.734460 -33.000000 -14.250000
-9.559630 -32.758801 -14.250000
-9.734460 -32.000000 6.484500
-9.559630 -32.241199 6.309600
-9.559630 -32.241199 -14.250000
-9.734460 -32.000000 -14.250000
-9.734460 -32.000000 6.484500
-9.734460 -32.000000 -14.250000
-10.012560 -31.792900 -14.250000
-10.012560 -31.792900 6.762600
11.517000 32.000000 13.375000
11.517000 32.000000 9.375000
-9.500000 -32.500000 6.250000
-9.559630 -32.758801 6.309600
-9.559630 -32.758801 -14.250000
-9.500000 -32.500000 -14.250000
12.125000 33.366024 8.875000
11.702900 33.465927 8.452900
-11.702930 33.465927 8.452900
-12.125000 33.366024 8.875000
-12.940370 32.241180 9.690400
12.940400 32.241180 9.690400
13.000000 32.500000 9.750000
-13.000000 32.500000 9.750000
-16.750000 44.250000 14.250000
16.750000 44.250000 14.250000
16.750000 44.250000 13.625000
-16.750000 44.250000 13.625000
-11.982960 -33.366001 13.625000
-12.348988 -33.000000 13.625000
-12.348988 -33.000000 13.375000
-11.982960 -33.366001 13.375000
-0.707100 -32.500000 9.237400
-0.707100 32.500000 9.237400
-10.375000 -33.366001 -14.250000
-10.375000 -33.366001 7.125000
-10.797070 -33.465900 7.547100
-10.797070 -33.465900 -14.250000
10.809900 33.207108 13.625000
10.809900 33.207108 13.375000
-10.797070 -33.465900 -14.250000
-10.797070 -33.465900 7.547100
-11.250000 -33.500000 8.000000
-11.250000 -33.500000 -14.250000
12.483000 32.758820 13.625000
12.483000 32.758820 13.375000
-11.250000 -33.500000 -14.250000
-11.250000 -33.500000 8.000000
-11.702930 -33.465900 8.452900
-11.702930 -33.465900 -14.250000
-12.940370 32.758820 9.690400
12.940400 32.758820 9.690400
12.765500 33.000000 9.515500
-12.765545 33.000000 9.515500
-12.487437 -33.207100 -14.250000
-12.487437 -33.207100 9.237400
-12.765545 -33.000000 9.515500
-12.765545 -33.000000 -14.250000
-10.012560 -33.207100 -14.250000
-10.012560 -33.207100 6.762600
-10.375000 -33.366001 7.125000
-10.375000 -33.366001 -14.250000
12.483000 32.241180 13.625000
12.483000 32.241180 13.375000
-10.375000 -31.634001 7.125000
-10.375000 -31.634001 -14.250000
-10.797070 -31.534100 -14.250000
-10.797070 -31.534100 7.547100
-11.702930 -33.465900 -14.250000
-11.702930 -33.465900 8.452900
-12.125000 -33.366001 8.875000
-12.125000 -33.366001 -14.250000
11.646400 -32.983002 13.375000
11.646400 -32.983002 9.375000
-10.616940 33.000000 13.625000
-10.616940 33.000000 13.375000
11.250000 33.500000 8.000000
10.797100 33.465927 7.547100
-10.797070 33.465927 7.547100
-11.250000 33.500000 8.000000
12.125000 -31.634001 8.875000
11.702900 -31.534100 8.452900
-11.702930 -31.534100 8.452900
-12.125000 -31.634001 8.875000
12.765500 -32.000000 9.515500
12.487400 -31.792900 9.237400
-12.487437 -31.792900 9.237400
-12.765545 -32.000000 9.515500
-13.000000 -32.500000 9.750000
13.000000 -32.500000 9.750000
12.940400 -32.241199 9.690400
-12.940370 -32.241199 9.690400
11.267000 32.933014 9.375000
11.517000 33.000000 9.375000
11.646400 32.982964 9.375000
11.870600 32.853554 9.375000
12.000000 32.629410 9.375000
12.000000 32.370590 9.375000
11.870600 32.146450 9.375000
11.646400 32.017040 9.375000
11.517000 32.000000 9.375000
11.267000 32.066990 9.375000
11.084000 32.250000 9.375000
11.017000 32.500000 9.375000
11.084000 32.750000 9.375000
-12.765545 -33.000000 9.515500
12.765500 -33.000000 9.515500
12.940400 -32.758801 9.690400
-12.940370 -32.758801 9.690400
11.250000 -31.500000 8.000000
10.797100 -31.534100 7.547100
-10.797070 -31.534100 7.547100
-11.250000 -31.500000 8.000000
11.702900 -31.534100 8.452900
11.250000 -31.500000 8.000000
-11.250000 -31.500000 8.000000
-11.702930 -31.534100 8.452900
11.870600 32.853554 13.375000
11.646400 32.982964 13.375000
11.517000 33.000000 13.375000
11.267000 32.933014 13.375000
11.084000 32.750000 13.375000
11.017000 32.500000 13.375000
11.084000 32.250000 13.375000
11.267000 32.066990 13.375000
11.517000 32.000000 13.375000
11.646400 32.017040 13.375000
11.870600 32.146450 13.375000
12.000000 32.370590 13.375000
12.000000 32.629410 13.375000
10.012600 33.207108 6.762600
9.734500 33.000000 6.484500
-9.734460 33.000000 6.484500
-10.012560 33.207108 6.762600
10.012600 -31.792900 6.762600
9.734500 -32.000000 6.484500
-9.734460 -32.000000 6.484500
-10.012560 -31.792900 6.762600
12.000000 32.370590 13.375000
11.870600 32.146450 13.375000
11.870600 32.146450 9.375000
12.000000 32.370590 9.375000
11.646400 32.017040 9.375000
11.646400 32.017040 13.375000
9.500000 32.500000 6.250000
-9.500000 32.500000 6.250000
-9.559630 32.758820 6.309600
9.559600 32.758820 6.309600
9.500000 -32.500000 6.250000
-9.500000 -32.500000 6.250000
-9.559630 -32.241199 6.309600
9.559600 -32.241199 6.309600
-11.612370 -32.016998 9.375000
-11.836520 -32.146400 9.375000
-11.836520 -32.146400 13.375000
-11.612370 -32.016998 13.375000
11.017000 32.500000 13.375000
11.084000 32.750000 13.375000
11.084000 32.750000 9.375000
11.017000 32.500000 9.375000
12.940400 -32.241199 9.690400
13.000000 -32.500000 9.750000
13.000000 -32.500000 -14.250000
12.940400 -32.241199 -14.250000
-12.125000 31.633970 -14.250000
-12.125000 31.633970 8.875000
-12.487437 31.792891 9.237400
-12.487437 31.792891 -14.250000
12.483000 -32.241199 13.625000
12.483000 -32.758801 13.625000
12.483000 -32.758801 13.375000
12.483000 -32.241199 13.375000
9.559600 -32.241199 6.309600
-9.559630 -32.241199 6.309600
-9.734460 -32.000000 6.484500
9.734500 -32.000000 6.484500
-10.797070 -33.465900 7.547100
10.797100 -33.465900 7.547100
11.250000 -33.500000 8.000000
-11.250000 -33.500000 8.000000
-11.250000 -33.500000 8.000000
11.250000 -33.500000 8.000000
11.702900 -33.465900 8.452900
-11.702930 -33.465900 8.452900
13.000000 -32.500000 9.750000
12.940400 -32.758801 9.690400
12.940400 -32.758801 -14.250000
13.000000 -32.500000 -14.250000
-10.982960 -33.366001 13.375000
-11.482960 -33.500000 13.375000
-11.982960 -33.366001 13.375000
-12.348988 -33.000000 13.375000
-12.482963 -32.500000 13.375000
-12.348988 -32.000000 13.375000
-11.982960 -31.634001 13.375000
-11.482960 -31.500000 13.375000
-10.982960 -31.634001 13.375000
-10.616940 -32.000000 13.375000
-10.482960 -32.500000 13.375000
-10.616940 -33.000000 13.375000
-10.797070 31.534069 7.547100
10.797100 31.534069 7.547100
11.250000 31.500000 8.000000
-11.250000 31.500000 8.000000
-12.487437 -33.207100 9.237400
12.487400 -33.207100 9.237400
12.765500 -33.000000 9.515500
-12.765545 -33.000000 9.515500
12.940400 -32.758801 9.690400
12.765500 -33.000000 9.515500
12.765500 -33.000000 -14.250000
12.940400 -32.758801 -14.250000
12.765500 -32.000000 9.515500
12.940400 -32.241199 9.690400
12.940400 -32.241199 -14.250000
12.765500 -32.000000 -14.250000
-12.487437 31.792891 9.237400
12.487400 31.792891 9.237400
12.765500 32.000000 9.515500
-12.765545 32.000000 9.515500
-11.702930 31.534069 8.452900
11.702900 31.534069 8.452900
12.125000 31.633970 8.875000
-12.125000 31.633970 8.875000
-11.982960 -33.366001 13.625000
-11.482960 -33.500000 13.625000
-10.982960 -33.366001 13.625000
-10.616940 -33.000000 13.625000
-10.482960 -32.500000 13.625000
-10.616940 -32.000000 13.625000
-10.982960 -31.634001 13.625000
-11.482960 -31.500000 13.625000
-11.982960 -31.634001 13.625000
-12.348988 -32.000000 13.625000
-12.482963 -32.500000 13.625000
-12.348988 -33.000000 13.625000
12.125000 -31.634001 8.875000
12.125000 -31.634001 -14.250000
11.702900 -31.534100 -14.250000
11.702900 -31.534100 8.452900
12.765500 -32.000000 9.515500
12.765500 -32.000000 -14.250000
12.487400 -31.792900 -14.250000
12.487400 -31.792900 9.237400
12.940400 32.241180 9.690400
12.765500 32.000000 9.515500
12.765500 32.000000 -14.250000
12.940400 32.241180 -14.250000
-12.125000 -33.366001 -14.250000
-12.125000 -33.366001 8.875000
-12.487437 -33.207100 9.237400
-12.487437 -33.207100 -14.250000
-0.258800 -32.500000 9.690400
-0.707100 -32.500000 9.237400
-0.965900 -32.500000 8.452900
-0.707100 -32.500000 6.762600
-0.258800 -32.500000 6.309600
0.000000 -32.500000 6.250000
0.258800 -32.500000 6.309600
0.707100 -32.500000 6.762600
0.965900 -32.500000 7.547100
0.707100 -32.500000 9.237400
0.258800 -32.500000 9.690400
0.000000 -32.500000 9.750000
10.375000 -31.634001 7.125000
10.375000 -31.634001 -14.250000
10.012600 -31.792900 -14.250000
10.012600 -31.792900 6.762600
9.559600 -32.241199 6.309600
9.734500 -32.000000 6.484500
9.734500 -32.000000 -14.250000
9.559600 -32.241199 -14.250000
12.000000 32.629410 13.375000
12.000000 32.629410 9.375000
10.012600 -31.792900 6.762600
10.012600 -31.792900 -14.250000
9.734500 -32.000000 -14.250000
9.734500 -32.000000 6.484500
10.012600 31.792891 -14.250000
10.012600 31.792891 6.762600
9.734500 32.000000 6.484500
9.734500 32.000000 -14.250000
9.734500 -33.000000 6.484500
9.559600 -32.758801 6.309600
9.559600 -32.758801 -14.250000
9.734500 -33.000000 -14.250000
11.250000 33.500000 8.000000
11.250000 33.500000 -14.250000
10.797100 33.465927 -14.250000
10.797100 33.465927 7.547100
-11.612370 -32.016998 9.375000
-11.353550 -32.016998 9.375000
-11.129410 -32.146400 9.375000
-11.000000 -32.370602 9.375000
-11.000000 -32.629398 9.375000
-11.129410 -32.853600 9.375000
-11.353550 -32.983002 9.375000
-11.612370 -32.983002 9.375000
-11.836520 -32.853600 9.375000
-11.965930 -32.629398 9.375000
-11.965930 -32.370602 9.375000
-11.836520 -32.146400 9.375000
10.375000 -33.366001 -14.250000
10.375000 -33.366001 7.125000
10.012600 -33.207100 6.762600
10.012600 -33.207100 -14.250000
10.012600 -33.207100 -14.250000
10.012600 -33.207100 6.762600
9.734500 -33.000000 6.484500
9.734500 -33.000000 -14.250000
-16.750000 -44.250000 13.625000
-16.750000 -44.250000 14.250000
-16.750000 44.250000 14.250000
-16.750000 44.250000 13.625000
12.487400 33.207108 9.237400
12.487400 33.207108 -14.250000
12.125000 33.366024 -14.250000
12.125000 33.366024 8.875000
12.487400 -33.207100 -14.250000
12.487400 -33.207100 9.237400
12.125000 -33.366001 8.875000
12.125000 -33.366001 -14.250000
-11.129410 -32.853600 13.375000
-11.000000 -32.629398 13.375000
-11.000000 -32.370602 13.375000
-11.129410 -32.146400 13.375000
-11.353550 -32.016998 13.375000
-11.612370 -32.016998 13.375000
-11.836520 -32.146400 13.375000
-11.965930 -32.370602 13.375000
-11.965930 -32.629398 13.375000
-11.836520 -32.853600 13.375000
-11.612370 -32.983002 13.375000
-11.353550 -32.983002 13.375000
12.125000 33.366024 8.875000
12.125000 33.366024 -14.250000
11.702900 33.465927 -14.250000
11.702900 33.465927 8.452900
-9.734460 32.000000 -14.250000
-9.734460 32.000000 6.484500
-10.012560 31.792891 6.762600
-10.012560 31.792891 -14.250000
-0.258800 -32.500000 9.690400
-0.258800 32.500000 9.690400
12.765500 33.000000 9.515500
12.765500 33.000000 -14.250000
12.487400 33.207108 -14.250000
12.487400 33.207108 9.237400
-11.000000 -32.370602 13.375000
-11.000000 -32.370602 9.375000
9.500000 -32.500000 6.250000
9.559600 -32.241199 6.309600
9.559600 -32.241199 -14.250000
9.500000 -32.500000 -14.250000
9.500000 32.500000 6.250000
9.559600 32.758820 6.309600
9.559600 32.758820 -14.250000
9.500000 32.500000 -14.250000
12.017000 -31.634001 13.375000
12.383100 -32.000000 13.375000
12.483000 -32.241199 13.375000
12.483000 -32.758801 13.375000
12.383100 -33.000000 13.375000
12.017000 -33.366001 13.375000
11.517000 -33.500000 13.375000
11.017000 -33.366001 13.375000
10.651000 -33.000000 13.375000
10.517000 -32.500000 13.375000
10.651000 -32.000000 13.375000
11.017000 -31.634001 13.375000
11.517000 -31.500000 13.375000
10.012600 33.207108 6.762600
10.012600 33.207108 -14.250000
9.734500 33.000000 -14.250000
9.734500 33.000000 6.484500
12.383100 -32.000000 13.625000
12.383100 -32.000000 13.375000
11.017000 -31.634001 13.375000
11.017000 -31.634001 13.625000
12.017000 -33.366001 13.625000
12.383100 -33.000000 13.625000
12.483000 -32.758801 13.625000
12.483000 -32.241199 13.625000
12.383100 -32.000000 13.625000
12.017000 -31.634001 13.625000
11.517000 -31.500000 13.625000
11.017000 -31.634001 13.625000
10.651000 -32.000000 13.625000
10.517000 -32.500000 13.625000
10.651000 -33.000000 13.625000
11.017000 -33.366001 13.625000
11.517000 -33.500000 13.625000
9.734500 32.000000 6.484500
9.559600 32.241180 6.309600
9.559600 32.241180 -14.250000
9.734500 32.000000 -14.250000
11.870600 -32.146400 13.375000
11.870600 -32.146400 9.375000
11.250000 31.500000 -14.250000
11.250000 31.500000 8.000000
10.797100 31.534069 7.547100
10.797100 31.534069 -14.250000
12.000000 -32.370602 13.375000
12.000000 -32.370602 9.375000
12.125000 31.633970 -14.250000
12.125000 31.633970 8.875000
11.702900 31.534069 8.452900
11.702900 31.534069 -14.250000
12.487400 31.792891 -14.250000
12.487400 31.792891 9.237400
12.125000 31.633970 8.875000
12.125000 31.633970 -14.250000
-9.734460 33.000000 6.484500
-9.734460 33.000000 -14.250000
-10.012560 33.207108 -14.250000
-10.012560 33.207108 6.762600
-12.190069 31.792891 13.625000
-12.190069 31.792891 13.375000
-10.012560 33.207108 6.762600
-10.012560 33.207108 -14.250000
-10.375000 33.366024 -14.250000
-10.375000 33.366024 7.125000
4 0 1 2 3
4 4 5 6 7
4 8 9 10 11
4 12 13 14 15
4 16 17 18 19
4 20 21 22 23
4 24 25 26 27
4 28 29 30 31
4 32 33 34 35
4 36 37 38 39
4 40 41 42 43
4 44 45 46 47
4 48 49 50 51
4 52 53 54 55
4 56 57 58 59
4 42 41 4 7
4 60 61 62 63
4 64 65 66 67
4 68 69 70 71
4 72 73 74 75
4 76 77 78 79
4 80 81 82 83
4 84 85 86 87
4 88 89 90 91
12 92 93 94 95 96 97 98 99 100 101 102 103
4 104 105 106 107
4 108 109 110 111
4 112 113 114 115
4 116 117 118 119
4 120 121 122 123
4 124 125 126 127
4 128 129 130 131
4 132 133 134 135
4 136 137 138 139
4 140 141 142 143
4 144 145 146 147
4 148 149 150 151
4 152 153 154 155
4 156 157 158 159
4 160 161 162 163
4 164 165 166 167
4 168 169 170 171
4 172 173 174 175
4 176 177 178 179
4 180 181 182 183
4 184 185 186 187
4 188 189 190 191
4 20 23 13 12
4 192 193 194 195
4 196 184 187 197
4 198 199 200 201
4 149 202 203 150
4 204 205 206 207
4 208 209 210 211
4 212 213 214 215
4 216 217 218 219
4 220 221 222 223
4 224 225 226 227
4 228 35 34 229
4 230 231 232 233
4 234 235 236 237
4 238 239 240 241
4 242 243 244 245
4 246 247 248 249
4 137 179 178 138
4 250 189 188 251
4 252 253 254 255
13 256 257 258 259 260 261 262 263 264 265 266 267 268
4 269 270 271 272
4 273 274 275 276
4 277 252 255 278
4 279 280 281 282
12 283 284 285 286 287 288 289 290 291 292 293 294
4 295 296 297 298
4 73 180 183 74
12 299 300 301 302 303 304 305 306 307 308 309 310
4 311 312 313 314
4 315 316 317 318
4 319 320 321 322
4 323 324 325 326
4 327 328 329 330
4 177 176 157 156
4 331 332 333 334
4 335 336 337 338
4 339 340 341 342
4 343 344 345 346
4 347 348 349 350
4 351 352 33 32
4 353 354 355 356
4 357 358 359 360
4 361 362 363 364
4 365 366 367 368
4 369 370 371 372
4 373 374 375 376
15 377 378 379 380 381 382 383 384 385 386 387 388 389 390 391
4 392 393 394 395
12 396 397 398 399 400 401 402 403 404 405 406 407
4 408 228 229 409
4 351 410 411 352
4 412 413 414 415
4 416 417 418 419
4 193 343 346 194
4 420 421 422 423
4 424 425 426 427
4 428 429 430 431
4 432 433 434 435
4 436 437 438 439
4 440 441 442 443
4 444 445 446 447
4 448 449 450 451
4 452 453 454 455
4 456 457 458 459
4 460 461 462 463
4 464 465 466 467
4 468 469 470 471
12 472 473 474 475 476 477 478 479 480 481 482 483
4 484 485 486 487
4 488 489 490 491
13 492 493 494 495 496 497 498 499 500 501 502 503 504
4 505 506 507 508
4 509 510 511 512
4 253 513 514 254
4 515 516 517 518
4 519 520 521 522
4 523 524 525 526
13 527 528 529 530 531 532 533 534 535 536 537 538 539
4 540 541 542 543
4 544 545 546 547
4 548 549 550 551
4 552 553 554 555
13 556 557 558 559 560 561 562 563 564 565 566 567 568
4 569 570 571 572
4 573 574 575 576
4 577 578 579 580
4 581 582 583 584
4 585 586 587 588
4 551 550 219 218
13 589 590 591 592 593 594 595 596 597 598 599 600 601
4 602 603 604 605
13 606 607 608 609 610 611 612 613 614 615 616 617 618
4 619 620 621 622
4 623 40 43 624
4 625 626 627 628
4 629 630 631 632
4 633 582 581 634
4 635 636 637 638
4 158 639 640 159
4 641 136 139 642
4 643 644 645 646
4 439 438 647 648
4 649 650 651 652
4 653 461 460 654
4 655 656 657 658
4 659 660 661 662
4 165 633 634 166
4 663 664 665 666
4 667 668 669 670
15 671 672 673 674 675 676 677 678 679 680 681 682 683 684 685
4 686 687 192 195
4 688 689 690 691
4 692 693 694 695
4 696 697 698 699
4 700 578 577 701
4 702 703 704 705
4 706 707 708 709
4 710 711 712 713
4 714 715 716 717
4 718 719 720 721
4 583 722 723 584
4 724 725 726 727
4 344 728 729 345
4 730 731 732 733
4 21 734 735 22
4 736 737 738 739
4 740 741 742 743
4 744 745 746 747
4 748 749 750 751
4 752 250 251 753
4 754 755 756 757
4 758 759 760 761
4 762 161 160 763
4 764 623 624 765
4 766 767 768 769
4 770 771 772 773
4 774 775 776 777
4 778 779 780 781
13 782 783 784 785 786 787 788 789 790 791 792 793 794
4 795 796 797 798
4 799 800 801 802
4 803 804 805 806
4 510 509 357 360
13 807 808 809 810 811 812 813 814 815 816 817 818 819
4 820 821 822 823
4 824 825 826 827
4 828 829 830 831
4 832 833 700 701
4 834 835 836 837
4 185 69 68 186
4 829 833 832 830
4 232 514 513 233
4 838 839 840 841
4 842 843 844 845
4 846 847 848 849
4 410 72 75 411
4 850 851 852 853
4 854 855 856 857
4 858 859 860 861
4 862 863 864 865
4 866 867 868 869
4 870 871 872 873
4 874 875 876 877
12 878 879 880 881 882 883 884 885 886 887 888 889
4 890 891 892 893
4 894 895 896 897
4 898 899 900 901
4 902 903 904 905
4 906 907 908 909
4 910 911 912 913
12 914 915 916 917 918 919 920 921 922 923 924 925
4 926 927 928 929
4 930 931 932 933
4 181 718 721 182
4 10 132 135 11
4 934 935 936 937
4 938 939 940 941
4 729 728 15 14
12 942 943 944 945 946 947 948 949 950 951 952 953
4 954 955 956 957
4 958 959 960 961
4 241 240 842 845
4 962 828 831 963
4 964 965 966 967
4 968 969 970 971
4 972 973 974 975
4 976 977 978 979
4 315 164 167 316
12 980 981 982 983 984 985 986 987 988 989 990 991
4 992 993 994 995
4 996 997 998 999
4 1000 1001 1002 1003
4 1004 1005 1006 1007
4 1008 1009 1010 1011
12 1012 1013 1014 1015 1016 1017 1018 1019 1020 1021 1022 1023
4 1024 1025 1026 1027
4 1028 1029 1030 1031
4 1032 148 151 1033
4 1034 1035 1036 1037
4 1032 1033 723 722
4 359 358 848 847
4 133 844 843 134
4 238 1038 1039 239
4 647 546 545 648
4 1040 1041 1042 1043
4 511 962 963 512
4 1044 1045 1046 1047
13 1048 1049 1050 1051 1052 1053 1054 1055 1056 1057 1058 1059 1060
4 1061 1062 1063 1064
4 143 142 1065 1066
4 141 140 1067 1068
13 1069 1070 1071 1072 1073 1074 1075 1076 1077 1078 1079 1080 1081
4 1082 1083 1084 1085
4 231 230 1086 1087
4 549 548 764 765
4 70 515 518 71
4 1038 653 654 1039
4 1068 1067 517 516
4 1065 858 861 1066
4 639 544 547 640
4 859 196 197 860
4 1088 1089 1090 1091
4 462 9 8 463
4 1092 269 272 1093
4 1094 1095 1096 1097
4 719 408 409 720
4 1098 1099 1100 1101
4 1102 1103 1104 1105
4 553 217 216 554
4 5 1106 1107 6
4 1108 1109 1110 1111
4 734 752 753 735
4 203 202 318 317
4 579 846 849 580
4 436 641 642 437
4 1086 1092 1093 1087
4 162 277 278 163
4 1106 552 555 1107
4 271 270 762 763
4 190 687 686 191
