ply
format ascii 1.0
comment Created by Blender 2.82 (sub 7) - www.blender.org, source file: ''
element vertex 193
property float x
property float y
property float z
element face 47
property list uchar uint vertex_indices
end_header
-8.000000 28.000000 12.000000
-8.000000 27.500000 12.000000
-8.000000 27.500000 -14.500000
-8.000000 28.000000 -14.500000
8.500000 27.500000 12.500000
8.500000 27.500000 12.000000
-8.500000 27.500000 12.000000
-8.500000 27.500000 12.500000
8.000000 -28.000000 12.000000
8.000000 -27.500000 12.000000
8.000000 -27.500000 -14.500000
8.000000 -28.000000 -14.500000
-8.000000 -27.500000 12.000000
-8.000000 -28.000000 12.000000
-8.000000 -28.000000 -14.500000
-8.000000 -27.500000 -14.500000
8.500000 28.000000 12.500000
8.500000 27.500000 12.500000
8.500000 27.500000 -15.000000
8.500000 28.000000 -15.000000
-8.500000 -27.500000 12.500000
-8.500000 28.000000 12.500000
-8.500000 28.000000 -15.000000
-8.500000 27.500000 -15.000000
-8.500000 27.500000 12.000000
-8.500000 -27.500000 12.000000
8.500000 27.500000 12.500000
-8.500000 27.500000 12.500000
-8.500000 -27.500000 12.500000
-8.000000 27.000000 12.500000
8.000000 27.000000 12.500000
8.500000 -27.500000 12.500000
8.000000 27.500000 12.000000
-8.000000 27.500000 12.000000
-8.000000 28.000000 12.000000
8.000000 28.000000 12.000000
-8.000000 -27.000000 12.000000
8.500000 -27.500000 12.000000
-8.500000 -27.500000 12.000000
-8.000000 27.000000 12.000000
-8.500000 -28.000000 15.000000
8.500000 -28.000000 15.000000
8.500000 28.000000 15.000000
-8.500000 28.000000 15.000000
-8.000000 27.500000 -14.500000
8.000000 27.500000 -14.500000
8.000000 28.000000 -14.500000
-8.000000 28.000000 -14.500000
8.500000 -28.000000 12.500000
-8.500000 -28.000000 12.500000
-8.500000 28.000000 12.500000
8.500000 28.000000 12.500000
-0.250000 -27.500000 -14.500000
0.250000 -27.500000 -14.500000
0.250000 27.500000 -14.500000
-0.250000 27.500000 -14.500000
-8.500000 27.500000 12.500000
8.500000 27.500000 12.500000
8.500000 28.000000 12.500000
-8.500000 28.000000 12.500000
-8.500000 -28.000000 12.500000
8.500000 -28.000000 12.500000
8.500000 -27.500000 12.500000
-8.500000 -27.500000 12.500000
-8.000000 -28.000000 -14.500000
8.000000 -28.000000 -14.500000
8.000000 -27.500000 -14.500000
-8.000000 -27.500000 -14.500000
-8.000000 28.000000 -14.500000
8.000000 28.000000 -14.500000
8.500000 28.000000 -15.000000
-8.500000 28.000000 -15.000000
-8.000000 28.000000 12.000000
-0.250000 -27.500000 -14.500000
-0.250000 27.500000 -14.500000
-0.250000 27.500000 -15.000000
-0.250000 -27.500000 -15.000000
-0.250000 27.500000 -15.000000
0.250000 27.500000 -15.000000
0.250000 -27.500000 -15.000000
-0.250000 -27.500000 -15.000000
-8.500000 -28.000000 12.500000
-8.500000 -27.500000 12.500000
-8.500000 -27.500000 -15.000000
-8.500000 -28.000000 -15.000000
8.500000 28.000000 15.000000
8.500000 -28.000000 15.000000
8.500000 -28.000000 12.500000
8.500000 28.000000 12.500000
8.500000 28.000000 15.000000
8.500000 28.000000 12.500000
-8.500000 28.000000 12.500000
-8.500000 28.000000 15.000000
-8.500000 -27.500000 12.000000
8.500000 -27.500000 12.000000
8.500000 -27.500000 12.500000
-8.500000 -27.500000 12.500000
-8.500000 -27.500000 12.500000
8.500000 -27.500000 12.500000
8.500000 -27.500000 -15.000000
8.000000 -27.500000 -14.500000
8.000000 -27.500000 12.000000
-8.000000 -27.500000 12.000000
-8.000000 -27.500000 -14.500000
-0.250000 -27.500000 -14.500000
-0.250000 -27.500000 -15.000000
-8.500000 -27.500000 -15.000000
-8.000000 27.500000 -14.500000
-8.000000 27.500000 12.000000
8.000000 27.500000 12.000000
8.500000 27.500000 12.500000
-8.500000 27.500000 12.500000
-8.500000 27.500000 12.000000
8.000000 -28.000000 12.000000
-8.000000 -28.000000 12.000000
-8.000000 -27.500000 12.000000
8.000000 -27.500000 12.000000
8.500000 -28.000000 12.500000
8.500000 -28.000000 15.000000
-8.500000 -28.000000 15.000000
-8.500000 -28.000000 12.500000
8.000000 27.500000 12.000000
8.000000 28.000000 12.000000
8.000000 28.000000 -14.500000
8.000000 27.500000 -14.500000
-8.500000 -28.000000 15.000000
-8.500000 28.000000 15.000000
-8.500000 28.000000 12.500000
-8.500000 -28.000000 12.500000
8.000000 -27.000000 12.500000
-8.000000 -27.000000 12.500000
0.250000 27.500000 -14.500000
0.250000 27.500000 -15.000000
-0.250000 27.500000 -15.000000
-0.250000 27.500000 -14.500000
-8.500000 27.500000 12.000000
8.500000 27.500000 12.000000
8.000000 -27.000000 12.000000
8.000000 27.000000 12.000000
0.250000 -27.500000 -15.000000
0.250000 -27.500000 -14.500000
-0.250000 -27.500000 -14.500000
-0.250000 -27.500000 -15.000000
8.500000 27.500000 12.500000
8.500000 -27.500000 12.500000
8.500000 -27.500000 12.000000
8.500000 27.500000 12.000000
8.500000 -27.500000 -15.000000
8.500000 -27.500000 12.500000
8.500000 -28.000000 12.500000
8.500000 -28.000000 -15.000000
0.250000 27.500000 -14.500000
0.250000 -27.500000 -14.500000
0.250000 -27.500000 -15.000000
0.250000 27.500000 -15.000000
8.000000 27.000000 12.000000
8.000000 27.000000 12.500000
-8.000000 27.000000 12.500000
-8.000000 27.000000 12.000000
8.500000 27.500000 -15.000000
-8.500000 27.500000 -15.000000
-8.500000 28.000000 -15.000000
8.500000 28.000000 -15.000000
8.500000 -28.000000 -15.000000
-8.500000 -28.000000 -15.000000
-8.500000 -27.500000 -15.000000
8.500000 -27.500000 -15.000000
8.000000 28.000000 12.000000
-8.500000 28.000000 12.500000
8.500000 28.000000 12.500000
-8.000000 -28.000000 12.000000
8.000000 -28.000000 12.000000
8.500000 -28.000000 12.500000
-8.500000 -28.000000 12.500000
-8.500000 -28.000000 -15.000000
-8.000000 -28.000000 -14.500000
8.000000 -28.000000 -14.500000
8.500000 -28.000000 -15.000000
8.000000 27.500000 -14.500000
-8.500000 27.500000 -15.000000
8.500000 27.500000 -15.000000
-8.000000 27.000000 12.500000
-8.000000 -27.000000 12.500000
-8.000000 -27.000000 12.000000
-8.000000 27.000000 12.000000
8.000000 -27.000000 12.500000
8.000000 -27.000000 12.000000
-8.000000 -27.000000 12.000000
-8.000000 -27.000000 12.500000
8.000000 -27.000000 12.500000
8.000000 27.000000 12.500000
8.000000 27.000000 12.000000
8.000000 -27.000000 12.000000
4 0 1 2 3
4 4 5 6 7
4 8 9 10 11
4 12 13 14 15
4 16 17 18 19
6 20 21 22 23 24 25
6 26 27 28 29 30 31
4 32 33 34 35
4 36 37 38 39
4 40 41 42 43
4 44 45 46 47
4 48 49 50 51
4 52 53 54 55
4 56 57 58 59
4 60 61 62 63
4 64 65 66 67
5 68 69 70 71 72
4 73 74 75 76
4 77 78 79 80
4 81 82 83 84
4 85 86 87 88
4 89 90 91 92
4 93 94 95 96
10 97 98 99 100 101 102 103 104 105 106
6 107 108 109 110 111 112
4 113 114 115 116
4 117 118 119 120
4 121 122 123 124
4 125 126 127 128
6 28 31 30 129 130 29
4 100 99 105 104
4 131 132 133 134
8 135 136 37 36 137 138 39 38
4 139 140 141 142
4 143 144 145 146
4 147 148 149 150
4 151 152 153 154
4 155 156 157 158
4 159 160 161 162
4 163 164 165 166
7 69 167 72 71 168 169 70
6 170 171 172 173 174 175
6 176 175 174 177 172 171
7 109 178 107 112 179 180 110
4 181 182 183 184
4 185 186 187 188
4 189 190 191 192
