ply
format ascii 1.0
comment Created by Blender 2.82 (sub 7) - www.blender.org, source file: ''
element vertex 256
property float x
property float y
property float z
element face 94
property list uchar uint vertex_indices
end_header
-7.650810 25.805590 4.390400
-7.650810 15.144900 12.110900
-7.904790 15.353900 12.399500
-7.904790 26.014570 4.678900
11.353600 26.222071 -7.610160
11.353600 25.571529 -7.610160
11.353600 25.571529 -14.500000
11.353600 26.222071 -14.500000
-7.845210 -25.639601 4.678900
-7.845210 -14.978900 12.399500
-8.099190 -14.769900 12.110900
-8.099190 -25.430599 4.390400
-15.000000 -30.000000 14.000000
-15.000000 -30.000000 14.500000
15.000000 -30.000000 14.500000
15.000000 -30.000000 14.000000
8.142800 25.606001 -7.610160
8.142800 25.606001 12.159100
7.504700 25.606001 12.159100
7.504700 25.606001 -7.610160
15.000000 30.000000 14.500000
15.000000 30.000000 14.000000
-15.000000 30.000000 14.000000
-15.000000 30.000000 14.500000
-7.650810 15.144900 12.110900
-8.158770 15.144900 12.110900
-8.158770 25.805590 4.390400
-7.650810 25.805590 4.390400
-11.353550 -25.196501 -14.500000
-10.703010 -25.196501 -14.500000
-10.703010 -25.847099 -14.500000
-11.353550 -25.847099 -14.500000
13.000000 28.000000 14.000000
13.000000 28.000000 12.000000
-13.000000 28.000000 12.000000
-13.000000 28.000000 14.000000
10.726400 -25.196501 -14.500000
11.377000 -25.196501 -14.500000
11.377000 -25.847099 -14.500000
10.726400 -25.847099 -14.500000
-11.353550 -25.847099 -7.610160
-11.353550 -25.847099 -14.500000
-10.703010 -25.847099 -14.500000
-10.703010 -25.847099 -8.260700
10.726400 -25.847099 -8.260700
10.726400 -25.847099 -14.500000
11.377000 -25.847099 -14.500000
11.377000 -25.847099 -7.610160
-8.158770 25.805590 4.390400
-8.158770 15.144900 12.110900
-11.376980 25.571529 -7.610160
-11.376980 26.222071 -7.610160
11.353600 26.222071 -14.500000
10.703000 26.222071 -14.500000
10.703000 25.571529 -14.500000
11.353600 25.571529 -14.500000
15.000000 -30.000000 14.000000
-15.000000 -30.000000 14.000000
-15.000000 30.000000 14.000000
-13.000000 28.000000 14.000000
-13.000000 -28.000000 14.000000
13.000000 -28.000000 14.000000
13.000000 28.000000 14.000000
15.000000 30.000000 14.000000
7.904800 -25.639601 4.678900
7.904800 -14.978900 12.399500
7.650800 -14.769900 12.110900
7.650800 -25.430599 4.390400
-10.726450 26.222071 -8.260700
-10.726450 25.571529 -8.260700
-10.726450 25.571529 -14.500000
-10.726450 26.222071 -14.500000
-11.353550 -25.196501 -7.610160
-11.353550 -25.196501 -14.500000
-7.607150 25.606001 -7.610160
-7.607150 25.606001 12.159100
-8.245320 25.606001 12.159100
-8.245320 25.606001 -7.610160
7.607200 -25.231001 -7.610160
7.607200 -25.231001 12.159100
8.245300 -25.231001 12.159100
8.245300 -25.231001 -7.610160
-15.000000 -30.000000 14.500000
-15.000000 30.000000 14.500000
-15.000000 30.000000 14.000000
-15.000000 -30.000000 14.000000
8.099200 25.805590 4.390400
8.099200 15.144900 12.110900
7.845200 15.353900 12.399500
7.845200 26.014570 4.678900
7.591200 15.144900 12.110900
7.845200 15.353900 12.399500
7.845200 26.014570 4.678900
7.591200 25.805590 4.390400
-15.000000 -30.000000 14.000000
-15.000000 30.000000 14.000000
-15.000000 30.000000 14.500000
-15.000000 -30.000000 14.500000
-8.142850 -25.231001 -7.610160
-8.142850 -25.231001 12.159100
-7.504680 -25.231001 12.159100
-7.504680 -25.231001 -7.610160
-7.607150 26.244169 12.159100
-7.607150 26.244169 -7.610160
10.703000 25.571529 -8.260700
10.703000 25.571529 -14.500000
-11.376980 25.571529 -14.500000
-8.245320 26.244169 12.159100
-8.245320 26.244169 -7.610160
-7.650810 15.144900 12.110900
-7.904790 15.353900 12.399500
-8.158770 15.144900 12.110900
-8.158770 15.144900 12.110900
-7.904790 15.353900 12.399500
-7.650810 15.144900 12.110900
10.726400 -25.196501 -8.260700
10.726400 -25.196501 -14.500000
-11.353550 -25.847099 -14.500000
-10.703010 -25.847099 -14.500000
-10.703010 -25.196501 -14.500000
-11.353550 -25.196501 -14.500000
-15.000000 -30.000000 14.500000
15.000000 -30.000000 14.500000
15.000000 30.000000 14.500000
-15.000000 30.000000 14.500000
-15.000000 30.000000 14.500000
-15.000000 30.000000 14.000000
15.000000 30.000000 14.000000
15.000000 30.000000 14.500000
-13.000000 28.000000 14.000000
-15.000000 30.000000 14.000000
-15.000000 -30.000000 14.000000
15.000000 -30.000000 14.000000
13.000000 -28.000000 14.000000
-13.000000 -28.000000 14.000000
15.000000 30.000000 14.500000
15.000000 -30.000000 14.500000
15.000000 -30.000000 14.000000
15.000000 30.000000 14.000000
7.607200 -25.869200 12.159100
7.607200 -25.869200 -7.610160
8.245300 -25.869200 -7.610160
8.245300 -25.869200 12.159100
15.000000 30.000000 14.000000
15.000000 -30.000000 14.000000
15.000000 -30.000000 14.500000
15.000000 30.000000 14.500000
10.703000 26.222071 -8.260700
10.703000 26.222071 -14.500000
-15.000000 30.000000 14.500000
15.000000 30.000000 14.500000
15.000000 -30.000000 14.500000
-15.000000 -30.000000 14.500000
-8.142850 -25.869200 12.159100
-8.142850 -25.869200 -7.610160
-7.504680 -25.869200 12.159100
-7.504680 -25.869200 -7.610160
15.000000 30.000000 14.000000
13.000000 28.000000 14.000000
-13.000000 28.000000 14.000000
-13.000000 28.000000 12.000000
13.000000 28.000000 12.000000
13.000000 28.000000 14.000000
13.000000 28.000000 14.000000
13.000000 -28.000000 14.000000
13.000000 -28.000000 12.000000
13.000000 28.000000 12.000000
7.591200 25.805590 4.390400
7.591200 15.144900 12.110900
11.353600 25.571529 -14.500000
10.703000 25.571529 -14.500000
10.703000 26.222071 -14.500000
11.353600 26.222071 -14.500000
13.000000 -28.000000 12.000000
13.000000 -28.000000 14.000000
-13.000000 -28.000000 14.000000
-13.000000 -28.000000 12.000000
-13.000000 -28.000000 12.000000
-13.000000 -28.000000 14.000000
13.000000 -28.000000 14.000000
13.000000 -28.000000 12.000000
8.099200 15.144900 12.110900
7.845200 15.353900 12.399500
7.591200 15.144900 12.110900
7.591200 15.144900 12.110900
7.845200 15.353900 12.399500
8.099200 15.144900 12.110900
8.099200 15.144900 12.110900
8.099200 25.805590 4.390400
7.650800 -25.430599 4.390400
7.650800 -14.769900 12.110900
7.904800 -14.978900 12.399500
7.904800 -25.639601 4.678900
-13.000000 -28.000000 12.000000
-13.000000 28.000000 12.000000
-13.000000 28.000000 14.000000
-13.000000 -28.000000 14.000000
8.142800 26.244169 12.159100
8.142800 26.244169 -7.610160
7.504700 26.244169 -7.610160
7.504700 26.244169 12.159100
8.158800 -25.430599 4.390400
8.158800 -14.769900 12.110900
8.158800 -14.769900 12.110900
8.158800 -25.430599 4.390400
-7.904790 15.353900 12.399500
-7.904790 26.014570 4.678900
-7.591230 -14.769900 12.110900
-7.591230 -25.430599 4.390400
7.650800 -14.769900 12.110900
7.904800 -14.978900 12.399500
8.158800 -14.769900 12.110900
8.158800 -14.769900 12.110900
7.904800 -14.978900 12.399500
7.650800 -14.769900 12.110900
11.377000 -25.196501 -7.610160
11.377000 -25.196501 -14.500000
-10.703010 -25.196501 -8.260700
-10.703010 -25.196501 -14.500000
-13.000000 -28.000000 14.000000
-13.000000 28.000000 14.000000
-13.000000 28.000000 12.000000
-13.000000 -28.000000 12.000000
-11.376980 26.222071 -14.500000
-8.099190 -25.430599 4.390400
-8.099190 -14.769900 12.110900
-7.845210 -14.978900 12.399500
-7.845210 -25.639601 4.678900
10.726400 -25.847099 -14.500000
11.377000 -25.847099 -14.500000
11.377000 -25.196501 -14.500000
10.726400 -25.196501 -14.500000
-7.591230 -25.430599 4.390400
-7.591230 -14.769900 12.110900
-8.099190 -14.769900 12.110900
-7.845210 -14.978900 12.399500
-7.591230 -14.769900 12.110900
-7.591230 -14.769900 12.110900
-7.845210 -14.978900 12.399500
-8.099190 -14.769900 12.110900
13.000000 28.000000 12.000000
13.000000 -28.000000 12.000000
13.000000 -28.000000 14.000000
13.000000 28.000000 14.000000
-10.726450 26.222071 -14.500000
-11.376980 26.222071 -14.500000
-11.376980 25.571529 -14.500000
-10.726450 25.571529 -14.500000
15.000000 -30.000000 14.000000
15.000000 -30.000000 14.500000
-15.000000 -30.000000 14.500000
-15.000000 -30.000000 14.000000
-10.726450 25.571529 -14.500000
-11.376980 25.571529 -14.500000
-11.376980 26.222071 -14.500000
-10.726450 26.222071 -14.500000
4 0 1 2 3
4 4 5 6 7
4 8 9 10 11
4 12 13 14 15
4 16 17 18 19
4 20 21 22 23
4 24 25 26 27
4 28 29 30 31
4 32 33 34 35
4 36 37 38 39
8 40 41 42 43 44 45 46 47
4 48 3 2 49
4 50 5 4 51
4 52 53 54 55
8 56 57 58 59 60 61 62 63
4 64 65 66 67
4 68 69 70 71
4 40 72 73 41
4 74 75 76 77
4 78 79 80 81
4 82 83 84 85
4 86 87 88 89
4 90 91 92 93
4 94 95 96 97
4 98 99 100 101
4 102 75 74 103
8 69 104 105 6 5 50 106 70
4 76 107 108 77
3 109 110 111
3 112 113 114
4 44 115 116 45
4 117 118 119 120
4 121 122 123 124
4 125 126 127 128
6 129 130 131 132 133 134
4 135 136 137 138
4 139 140 141 142
4 143 144 145 146
4 104 147 148 105
4 149 150 151 152
4 153 99 98 154
4 100 155 156 101
6 132 157 130 129 158 133
4 159 160 161 162
4 163 164 165 166
4 167 89 88 168
4 86 167 168 87
4 169 170 171 172
4 173 174 175 176
4 177 178 179 180
3 181 182 183
3 184 185 186
4 92 91 187 188
4 0 48 49 1
4 189 190 191 192
4 193 194 195 196
4 197 198 199 200
4 18 200 199 19
4 201 192 191 202
4 66 203 204 67
4 25 205 206 26
4 207 9 8 208
4 203 65 64 204
3 209 210 211
3 212 213 214
4 59 58 63 62
4 215 72 40 47
4 206 205 24 27
8 73 72 215 216 116 115 217 218
4 217 43 42 218
4 219 220 221 222
4 217 115 44 43
4 50 51 223 106
4 215 47 46 216
4 104 69 68 147
4 224 225 226 227
4 228 229 230 231
4 224 232 233 225
4 187 90 93 188
8 68 71 223 51 4 7 148 147
4 10 207 208 11
4 232 227 226 233
4 102 103 108 107
3 234 235 236
3 237 238 239
4 80 142 141 81
4 240 241 242 243
4 197 17 16 198
4 244 245 246 247
4 248 249 250 251
4 252 253 254 255
4 139 79 78 140
4 153 154 156 155
4 189 201 202 190
