ply
format ascii 1.0
comment Created by Blender 2.82 (sub 7) - www.blender.org, source file: ''
element vertex 697
property float x
property float y
property float z
element face 92
property list uchar uint vertex_indices
end_header
-1.774140 23.555349 14.803150
-1.774140 23.555349 14.566950
1.192060 23.591949 14.566950
4.139560 23.256550 14.566950
7.021760 22.554350 14.566950
7.021760 22.554350 14.803150
4.139560 23.256550 14.803150
1.192060 23.591949 14.803150
7.021760 22.554350 14.803150
9.793160 21.496349 14.803150
11.123660 20.839050 14.803150
13.647760 19.280550 14.803150
14.831460 18.385550 14.803150
15.956560 17.418051 14.803150
17.018761 16.381750 14.803150
18.013861 15.280750 14.803150
18.013861 15.280750 14.566950
17.018761 16.381750 14.566950
15.956560 17.418051 14.566950
14.831460 18.385550 14.566950
13.647760 19.280550 14.566950
11.123660 20.839050 14.566950
9.793160 21.496349 14.566950
7.021760 22.554350 14.566950
11.232960 0.984250 -3.925350
15.748060 0.984250 -15.039350
-15.748043 0.984250 -15.039350
-15.748043 0.984250 14.488250
15.748060 0.984250 14.488250
11.439960 0.984250 -3.212850
11.811060 0.984250 -0.275550
10.686960 0.984250 4.753350
6.328660 0.984250 9.696850
1.480260 0.984250 11.442350
-1.480340 0.984250 11.442350
-6.328670 0.984250 9.696850
-10.686950 0.984250 4.753350
-11.601830 0.984250 -2.488750
-9.555330 0.984250 -7.217920
-6.942360 0.984250 -9.830890
-0.741640 0.984250 -12.063290
4.347960 0.984250 -11.257180
9.100560 0.984250 -7.804200
-23.147240 -4.712450 14.803150
-22.915661 -4.665250 15.039350
-22.328650 6.951550 15.039350
-22.554310 7.021750 14.803150
-4.347940 -0.984250 10.706050
1.480260 -0.984250 11.442350
6.328660 -0.984250 9.696850
10.686960 -0.984250 4.753350
11.811060 -0.984250 -0.275550
9.555260 -0.984250 -7.217920
15.748060 -0.984250 -15.039350
15.748060 -0.984250 14.488250
-15.748043 -0.984250 14.488250
-0.984240 2.213150 11.326250
-0.984240 3.649850 10.957350
-0.984240 4.347950 10.706050
-0.984240 5.690050 10.074550
0.984260 5.690050 10.074550
0.984260 4.347950 10.706050
0.984260 3.649850 10.957350
0.984260 2.213150 11.326250
0.984260 1.480350 11.442350
0.984260 0.000050 11.535450
0.984260 -0.741650 11.512150
0.984260 -1.480350 11.442350
-0.984240 -1.480350 11.442350
-0.984240 -0.741650 11.512150
-0.984240 0.000050 11.535450
-0.984240 1.480350 11.442350
0.291560 -23.620251 14.803150
1.774160 -23.555349 14.803150
3.249660 -23.397449 14.803150
4.712360 -23.147249 14.803150
6.156560 -22.805651 14.803150
7.576360 -22.374050 14.803150
8.966260 -21.854250 14.803150
8.966260 -21.854250 14.566950
7.576360 -22.374050 14.566950
6.156560 -22.805651 14.566950
4.712360 -23.147249 14.566950
3.249660 -23.397449 14.566950
1.774160 -23.555349 14.566950
0.291560 -23.620251 14.566950
-1.192140 -23.591949 14.566950
-2.671140 -23.470551 14.566950
-4.139540 -23.256451 14.566950
-5.591740 -22.950649 14.566950
-5.591740 -22.950649 14.803150
-4.139540 -23.256451 14.803150
-2.671140 -23.470551 14.803150
-1.192140 -23.591949 14.803150
21.496361 -9.793150 14.803150
21.281361 -9.695150 15.039350
16.217859 -16.848551 15.039350
16.381760 -17.018850 14.803150
-11.232960 0.984250 -3.925350
-11.601830 0.984250 -2.488750
-11.601830 -0.984250 -2.488750
-11.232960 -0.984250 -3.925350
-10.686950 -0.984250 -5.304460
-9.972390 -0.984250 -6.604230
-9.555330 -0.984250 -7.217920
-9.555330 0.984250 -7.217920
-9.972390 0.984250 -6.604230
-10.686950 0.984250 -5.304460
-19.280581 13.647750 14.803150
-17.418030 15.956650 14.803150
-16.381739 17.018850 14.803150
-14.119540 18.937851 14.803150
-14.119540 18.937851 14.566950
-16.381739 17.018850 14.566950
-17.418030 15.956650 14.566950
-19.280581 13.647750 14.566950
-20.839060 11.123650 14.566950
-20.839060 11.123650 14.803150
-0.984240 0.741650 -12.063290
0.984260 0.741650 -12.063290
0.984260 1.480350 -11.993460
0.984260 2.213150 -11.877390
0.984260 2.937250 -11.715530
0.984260 3.649850 -11.508520
0.984260 4.347950 -11.257180
0.984260 5.028850 -10.962500
0.984260 5.690050 -10.625650
-0.984240 5.690050 -10.625650
-0.984240 5.028850 -10.962500
-0.984240 4.347950 -11.257180
-0.984240 3.649850 -11.508520
-0.984240 2.937250 -11.715530
-0.984240 2.213150 -11.877390
-0.984240 1.480350 -11.993460
-0.984240 -4.347950 -11.257180
0.984260 -4.347950 -11.257180
-16.848560 -16.217850 15.039350
-17.018829 -16.381750 14.803150
-23.147240 -4.712450 14.803150
-22.915661 -4.665250 15.039350
-6.328670 0.984250 9.696850
-6.328670 -0.984250 9.696850
-10.686950 -0.984250 4.753350
-10.686950 0.984250 4.753350
-2.671140 -23.470551 14.803150
-2.644440 -23.235750 15.039350
-9.695210 -21.281349 15.039350
-16.848560 -16.217850 15.039350
-17.018829 -16.381750 14.803150
-11.123640 -20.839050 14.803150
22.950661 -5.591650 14.566950
17.418060 -15.956650 14.566950
8.966260 -21.854250 14.566950
-5.591740 -22.950649 14.566950
-15.956628 -17.418051 14.566950
-23.147240 -4.712450 14.566950
-22.950701 5.591750 14.566950
-20.839060 11.123650 14.566950
-14.119540 18.937851 14.566950
-1.774140 23.555349 14.566950
7.021760 22.554350 14.566950
13.647760 19.280550 14.566950
21.248060 10.320850 14.566950
23.555361 1.774150 14.566950
-11.601830 0.984250 1.937550
-11.439970 0.984250 2.661750
-11.232960 0.984250 3.374250
-10.981620 0.984250 4.072350
-10.981620 -0.984250 4.072350
-11.232960 -0.984250 3.374250
-11.439970 -0.984250 2.661750
-11.601830 -0.984250 1.937550
-11.717900 -0.984250 1.204750
-11.787730 -0.984250 0.466050
-11.811030 -0.984250 -0.275550
-11.787730 -0.984250 -1.017150
-11.717900 -0.984250 -1.755850
-11.717900 0.984250 -1.755850
-11.787730 0.984250 -1.017150
-11.811030 0.984250 -0.275550
-11.787730 0.984250 0.466050
-11.717900 0.984250 1.204750
11.634660 -20.558149 14.566950
14.119560 -18.937750 14.566950
16.381760 -17.018850 14.566950
17.418060 -15.956650 14.566950
17.418060 -15.956650 14.803150
16.381760 -17.018850 14.803150
14.119560 -18.937750 14.803150
11.634660 -20.558149 14.803150
8.966260 -21.854250 14.803150
8.966260 -21.854250 14.566950
0.984260 -4.347950 10.706050
0.984260 0.741650 11.512150
0.984260 15.748050 14.488250
0.984260 -15.748050 14.488250
0.984260 -8.085150 8.334250
-0.984240 -15.748050 14.488250
0.984260 -15.748050 14.488250
0.984260 15.748050 14.488250
-0.984240 15.748050 14.488250
1.192060 23.591949 14.566950
-0.291640 23.620251 14.566950
-1.774140 23.555349 14.566950
-1.774140 23.555349 14.803150
-0.291640 23.620251 14.803150
1.192060 23.591949 14.803150
2.671060 23.470551 14.803150
4.139560 23.256550 14.803150
5.591660 22.950649 14.803150
5.591660 22.950649 14.566950
4.139560 23.256550 14.566950
2.671060 23.470551 14.566950
0.984260 -15.748050 -15.039350
0.984260 -15.748050 14.488250
-0.984240 -15.748050 14.488250
-0.984240 -15.748050 -15.039350
-0.984240 -15.748050 -15.039350
-0.984240 -15.748050 14.488250
-0.984240 15.748050 14.488250
-0.984240 0.000050 11.535450
-0.984240 -1.480350 11.442350
-0.984240 -6.328650 9.696850
-0.984240 -10.981650 4.072350
-0.984240 -11.601850 -2.488750
-0.984240 -9.555350 -7.217920
-0.984240 -4.347950 -11.257180
-0.984240 0.741650 -12.063290
-0.984240 5.690050 -10.625650
-0.984240 10.350050 -5.965570
-0.984240 15.748050 -15.039350
11.439960 0.984250 2.661750
11.717860 0.984250 1.204750
11.811060 0.984250 -0.275550
11.811060 -0.984250 -0.275550
11.717860 -0.984250 1.204750
11.439960 -0.984250 2.661750
11.232960 -0.984250 3.374250
10.686960 -0.984250 4.753350
10.686960 0.984250 4.753350
11.232960 0.984250 3.374250
19.786961 12.902550 14.566950
20.558060 11.634650 14.566950
21.248060 10.320850 14.566950
21.854160 8.966350 14.566950
22.374060 7.576350 14.566950
22.805660 6.156550 14.566950
23.147261 4.712450 14.566950
23.147261 4.712450 14.803150
22.805660 6.156550 14.803150
22.374060 7.576350 14.803150
21.854160 8.966350 14.803150
21.248060 10.320850 14.803150
20.558060 11.634650 14.803150
19.786961 12.902550 14.803150
18.937759 14.119550 14.803150
18.013861 15.280750 14.803150
18.013861 15.280750 14.566950
18.937759 14.119550 14.566950
-0.984240 -2.937250 11.164350
-0.984240 -2.213150 11.326250
0.984260 -2.213150 11.326250
0.984260 -2.937250 11.164350
0.984260 -4.347950 10.706050
0.984260 -5.689950 10.074550
0.984260 -6.328650 9.696850
-0.984240 -6.328650 9.696850
-0.984240 -5.689950 10.074550
-0.984240 -4.347950 10.706050
-15.956628 -17.418051 14.803150
-23.147240 -4.712450 14.803150
-23.147240 -4.712450 14.566950
-15.956628 -17.418051 14.566950
-0.984240 5.690050 10.074550
-0.984240 11.601850 -2.488750
-0.984240 10.981650 4.072350
-0.984240 9.555350 6.666750
-8.966310 21.854250 14.566950
-11.634670 20.558149 14.566950
-11.634670 20.558149 14.803150
-8.966310 21.854250 14.803150
-4.712440 23.147249 14.803150
-4.712440 23.147249 14.566950
0.984260 -11.601850 -2.488750
0.984260 -9.555350 -7.217920
-0.984240 -9.555350 -7.217920
-0.984240 -11.601850 -2.488750
9.793160 21.496349 14.566950
11.123660 20.839050 14.566950
13.647760 19.280550 14.566950
14.831460 18.385550 14.566950
15.956560 17.418051 14.566950
17.018761 16.381750 14.566950
17.018761 16.381750 14.803150
15.956560 17.418051 14.803150
14.831460 18.385550 14.803150
13.647760 19.280550 14.803150
11.123660 20.839050 14.803150
9.793160 21.496349 14.803150
1.774160 -23.555349 14.803150
0.291560 -23.620251 14.803150
-1.192140 -23.591949 14.803150
-2.671140 -23.470551 14.803150
-5.591740 -22.950649 14.803150
-5.591740 -22.950649 14.566950
-2.671140 -23.470551 14.566950
-1.192140 -23.591949 14.566950
0.291560 -23.620251 14.566950
1.774160 -23.555349 14.566950
3.249660 -23.397449 14.566950
4.712360 -23.147249 14.566950
6.156560 -22.805651 14.566950
7.576360 -22.374050 14.566950
7.576360 -22.374050 14.803150
6.156560 -22.805651 14.803150
4.712360 -23.147249 14.803150
3.249660 -23.397449 14.803150
21.496361 -9.793150 14.803150
16.381760 -17.018850 14.803150
16.217859 -16.848551 15.039350
21.281361 -9.695150 15.039350
-19.087681 13.511250 15.039350
-19.280581 13.647750 14.803150
-8.966310 21.854250 14.803150
-8.876600 21.635550 15.039350
8.966260 -21.854250 14.803150
7.500560 -22.150249 15.039350
15.748060 0.984250 -15.039350
15.748060 0.984250 14.488250
15.748060 -0.984250 14.488250
15.748060 -0.984250 -15.039350
15.748060 0.984250 -15.039350
15.748060 -0.984250 -15.039350
-15.748043 -0.984250 -15.039350
-15.748043 0.984250 -15.039350
-15.748043 0.984250 14.488250
-15.748043 0.984250 -15.039350
-15.748043 -0.984250 -15.039350
-15.748043 -0.984250 14.488250
-8.966310 21.854250 14.566950
-7.576380 22.374050 14.566950
-6.156550 22.805651 14.566950
-4.712440 23.147249 14.566950
-3.249740 23.397449 14.566950
-3.249740 23.397449 14.803150
-4.712440 23.147249 14.803150
-6.156550 22.805651 14.803150
-7.576380 22.374050 14.803150
-8.966310 21.854250 14.803150
-10.320860 21.248051 14.803150
-11.634670 20.558149 14.803150
-12.902560 19.787050 14.803150
-14.119540 18.937851 14.803150
-14.119540 18.937851 14.566950
-12.902560 19.787050 14.566950
-11.634670 20.558149 14.566950
-10.320860 21.248051 14.566950
23.620260 0.291550 14.566950
23.591961 -1.192150 14.566950
23.470560 -2.671150 14.566950
23.470560 -2.671150 14.803150
23.591961 -1.192150 14.803150
23.620260 0.291550 14.803150
23.555361 1.774150 14.803150
23.555361 1.774150 14.566950
-23.555340 -1.774150 14.803150
-23.591961 1.192150 14.803150
-23.470551 2.671150 14.803150
-22.950701 5.591750 14.803150
-22.950701 5.591750 14.566950
-23.470551 2.671150 14.566950
-23.591961 1.192150 14.566950
-23.555340 -1.774150 14.566950
-6.942360 -0.984250 -9.830890
-6.942360 0.984250 -9.830890
0.984260 -15.748050 -15.039350
-0.984240 -15.748050 -15.039350
-0.984240 15.748050 -15.039350
0.984260 15.748050 -15.039350
0.984260 15.748050 14.488250
0.984260 15.748050 -15.039350
-0.984240 15.748050 -15.039350
-0.984240 15.748050 14.488250
23.470560 -2.671150 14.803150
23.470560 -2.671150 14.566950
5.028860 0.984250 -10.962500
4.347960 0.984250 -11.257180
3.649760 0.984250 -11.508520
2.937260 0.984250 -11.715530
2.213160 0.984250 -11.877390
2.213160 -0.984250 -11.877390
2.937260 -0.984250 -11.715530
3.649760 -0.984250 -11.508520
4.347960 -0.984250 -11.257180
5.028860 -0.984250 -10.962500
5.689960 -0.984250 -10.625650
6.328660 -0.984250 -10.247950
6.942360 -0.984250 -9.830890
7.528660 -0.984250 -9.376120
7.528660 0.984250 -9.376120
6.942360 0.984250 -9.830890
6.328660 0.984250 -10.247950
5.689960 0.984250 -10.625650
19.786961 12.902550 14.803150
20.558060 11.634650 14.803150
21.248060 10.320850 14.803150
21.854160 8.966350 14.803150
22.374060 7.576350 14.803150
22.805660 6.156550 14.803150
23.147261 4.712450 14.803150
23.147261 4.712450 14.566950
22.805660 6.156550 14.566950
22.374060 7.576350 14.566950
21.854160 8.966350 14.566950
21.248060 10.320850 14.566950
20.558060 11.634650 14.566950
19.786961 12.902550 14.566950
18.937759 14.119550 14.566950
18.937759 14.119550 14.803150
-19.280581 13.647750 14.566950
-17.418030 15.956650 14.566950
-16.381739 17.018850 14.566950
-16.381739 17.018850 14.803150
-17.418030 15.956650 14.803150
-19.280581 13.647750 14.803150
-20.839060 11.123650 14.803150
-20.839060 11.123650 14.566950
-18.013861 -15.280750 14.566950
-18.937799 -14.119550 14.566950
-19.787010 -12.902550 14.566950
-20.558121 -11.634650 14.566950
-21.248100 -10.320850 14.566950
-21.854219 -8.966250 14.566950
-22.374100 -7.576350 14.566950
-22.805670 -6.156550 14.566950
-23.147240 -4.712450 14.566950
-23.147240 -4.712450 14.803150
-22.805670 -6.156550 14.803150
-22.374100 -7.576350 14.803150
-21.854219 -8.966250 14.803150
-21.248100 -10.320850 14.803150
-20.558121 -11.634650 14.803150
-19.787010 -12.902550 14.803150
-18.937799 -14.119550 14.803150
-18.013861 -15.280750 14.803150
-17.018829 -16.381750 14.803150
-15.956628 -17.418051 14.803150
-15.956628 -17.418051 14.566950
-17.018829 -16.381750 14.566950
23.147261 4.712450 14.803150
22.915661 4.665250 15.039350
17.418060 -15.956650 14.566950
17.418060 -15.956650 14.803150
22.915661 4.665250 15.039350
23.147261 4.712450 14.803150
-9.695210 -21.281349 15.039350
-2.644440 -23.235750 15.039350
-2.671140 -23.470551 14.803150
-11.123640 -20.839050 14.803150
1.192060 23.591949 14.803150
14.831460 18.385550 14.803150
14.683060 18.201651 15.039350
1.180160 23.355949 15.039350
-11.518260 20.352449 15.039350
1.180160 23.355949 15.039350
1.192060 23.591949 14.803150
-11.634670 20.558149 14.803150
11.012360 20.630550 15.039350
17.833660 15.127950 15.039350
18.013861 15.280750 14.803150
13.647760 19.280550 14.803150
7.021760 22.554350 14.803150
-2.937340 -0.984250 -11.715530
-2.937340 0.984250 -11.715530
-23.620260 -0.291550 14.566950
-23.591961 1.192150 14.566950
-23.470551 2.671150 14.566950
-22.950701 5.591750 14.566950
-22.950701 5.591750 14.803150
-23.470551 2.671150 14.803150
-23.591961 1.192150 14.803150
-23.620260 -0.291550 14.803150
-23.555340 -1.774150 14.803150
-23.397461 -3.249650 14.803150
-23.397461 -3.249650 14.566950
-23.555340 -1.774150 14.566950
11.601760 0.984250 -2.488750
11.439960 0.984250 -3.212850
11.232960 0.984250 -3.925350
10.686960 0.984250 -5.304460
10.686960 -0.984250 -5.304460
11.232960 -0.984250 -3.925350
11.439960 -0.984250 -3.212850
11.601760 -0.984250 -2.488750
11.717860 -0.984250 -1.755850
11.717860 0.984250 -1.755850
23.620260 0.291550 14.803150
23.591961 -1.192150 14.803150
23.591961 -1.192150 14.566950
23.620260 0.291550 14.566950
23.555361 1.774150 14.566950
23.555361 1.774150 14.803150
17.833660 15.127950 15.039350
11.012360 20.630550 15.039350
1.180160 23.355949 15.039350
-10.217600 21.035549 15.039350
-19.087681 13.511250 15.039350
-22.328650 6.951550 15.039350
-22.915661 -4.665250 15.039350
-16.848560 -16.217850 15.039350
-9.695210 -21.281349 15.039350
0.288660 -23.383949 15.039350
7.500560 -22.150249 15.039350
16.217859 -16.848551 15.039350
21.281361 -9.695150 15.039350
23.383961 0.288650 15.039350
22.150261 7.500550 15.039350
-19.087681 13.511250 15.039350
-17.418030 15.956650 14.803150
-20.839060 11.123650 14.803150
-0.984240 -7.528650 8.824950
-0.984240 -6.942350 9.279750
0.984260 -6.942350 9.279750
0.984260 -7.528650 8.824950
0.984260 -8.085150 8.334250
0.984260 -8.609850 7.809650
0.984260 -9.100550 7.253050
0.984260 -9.555350 6.666750
0.984260 -9.972350 6.053050
0.984260 -10.350050 5.414450
0.984260 -10.686950 4.753350
0.984260 -10.981650 4.072350
-0.984240 -10.981650 4.072350
-0.984240 -10.686950 4.753350
-0.984240 -10.350050 5.414450
-0.984240 -9.972350 6.053050
-0.984240 -9.555350 6.666750
-0.984240 -9.100550 7.253050
-0.984240 -8.609850 7.809650
-0.984240 -8.085150 8.334250
0.984260 11.787750 -1.017150
0.984260 11.787750 0.466050
-0.984240 11.787750 0.466050
-0.984240 11.787750 -1.017150
-0.984240 11.601850 -2.488750
-0.984240 10.686950 -5.304460
0.984260 10.686950 -5.304460
0.984260 11.601850 -2.488750
9.972360 0.984250 -6.604230
9.100560 0.984250 -7.804200
8.609860 0.984250 -8.360770
8.609860 -0.984250 -8.360770
9.100560 -0.984250 -7.804200
9.972360 -0.984250 -6.604230
-0.984240 -6.328650 -10.247950
-0.984240 -7.528650 -9.376120
-0.984240 -8.609850 -8.360770
0.984260 -8.609850 -8.360770
0.984260 -7.528650 -9.376120
0.984260 -6.328650 -10.247950
8.966260 -21.854250 14.803150
7.500560 -22.150249 15.039350
-0.000040 -0.984250 11.535450
-0.741640 -0.984250 11.512150
-1.480340 -0.984250 11.442350
-1.480340 0.984250 11.442350
-0.741640 0.984250 11.512150
-0.000040 0.984250 11.535450
0.741560 0.984250 11.512150
1.480260 0.984250 11.442350
1.480260 -0.984250 11.442350
0.741560 -0.984250 11.512150
7.021760 22.554350 14.566950
-1.774140 23.555349 14.566950
-14.119540 18.937851 14.566950
-20.839060 11.123650 14.566950
-22.950701 5.591750 14.566950
-23.147240 -4.712450 14.566950
-15.956628 -17.418051 14.566950
-5.591740 -22.950649 14.566950
8.966260 -21.854250 14.566950
17.418060 -15.956650 14.566950
22.950661 -5.591650 14.566950
23.555361 1.774150 14.566950
21.248060 10.320850 14.566950
13.647760 19.280550 14.566950
0.984260 -11.232950 3.374250
0.984260 -11.439950 2.661750
0.984260 -11.601850 1.937550
0.984260 -11.717850 1.204750
0.984260 -11.787750 0.466050
0.984260 -11.811050 -0.275550
0.984260 -11.787750 -1.017150
0.984260 -11.717850 -1.755850
-0.984240 -11.717850 -1.755850
-0.984240 -11.787750 -1.017150
-0.984240 -11.811050 -0.275550
-0.984240 -11.787750 0.466050
-0.984240 -11.717850 1.204750
-0.984240 -11.601850 1.937550
-0.984240 -11.439950 2.661750
-0.984240 -11.232950 3.374250
-15.748043 -0.984250 14.488250
15.748060 -0.984250 14.488250
15.748060 0.984250 14.488250
-15.748043 0.984250 14.488250
0.984260 9.555350 6.666750
-0.984240 9.555350 6.666750
0.741560 0.984250 -12.063290
-0.741640 0.984250 -12.063290
-1.480340 0.984250 -11.993460
-1.480340 -0.984250 -11.993460
-0.741640 -0.984250 -12.063290
0.741560 -0.984250 -12.063290
-8.424100 -22.068850 14.566950
-8.424100 -22.068850 14.803150
-11.123640 -20.839050 14.803150
-11.123640 -20.839050 14.566950
2.937260 -0.984250 11.164350
2.937260 0.984250 11.164350
4.347960 0.984250 10.706050
6.328660 0.984250 9.696850
6.328660 -0.984250 9.696850
4.347960 -0.984250 10.706050
-22.950701 5.591750 14.803150
-22.328650 6.951550 15.039350
11.634660 -20.558149 14.803150
14.119560 -18.937750 14.803150
16.381760 -17.018850 14.803150
16.381760 -17.018850 14.566950
14.119560 -18.937750 14.566950
11.634660 -20.558149 14.566950
-8.424100 -22.068850 14.803150
-8.424100 -22.068850 14.566950
-11.123640 -20.839050 14.566950
-11.123640 -20.839050 14.803150
21.248060 10.320850 14.803150
20.352461 11.518250 15.039350
8.609860 -0.984250 7.809650
7.528660 -0.984250 8.824950
6.942360 -0.984250 9.279750
6.942360 0.984250 9.279750
7.528660 0.984250 8.824950
8.609860 0.984250 7.809650
9.100560 0.984250 7.253050
9.972360 0.984250 6.053050
10.350060 0.984250 5.414450
10.350060 -0.984250 5.414450
9.972360 -0.984250 6.053050
9.100560 -0.984250 7.253050
-0.984240 6.942350 9.279750
-0.984240 8.085250 8.334250
0.984260 8.085250 8.334250
0.984260 6.942350 9.279750
0.984260 8.085250 -8.885440
0.984260 9.100550 -7.804200
0.984260 9.555350 -7.217920
-0.984240 9.555350 -7.217920
-0.984240 9.100550 -7.804200
-0.984240 8.085250 -8.885440
-0.984240 6.942350 -9.830890
0.984260 6.942350 -9.830890
0.984260 -10.981650 4.072350
0.984260 -15.748050 -15.039350
0.984260 15.748050 -15.039350
0.984260 5.690050 10.074550
0.984260 9.555350 6.666750
0.984260 11.787750 0.466050
0.984260 10.686950 -5.304460
0.984260 5.690050 -10.625650
0.984260 0.741650 -12.063290
0.984260 -4.347950 -11.257180
0.984260 -9.555350 -7.217920
0.984260 -11.601850 -2.488750
-8.609880 -0.984250 7.809650
-15.748043 -0.984250 -15.039350
4.347960 -0.984250 -11.257180
-0.741640 -0.984250 -12.063290
-6.942360 -0.984250 -9.830890
-9.555330 -0.984250 -7.217920
-11.601830 -0.984250 -2.488750
-10.686950 -0.984250 4.753350
-19.087681 13.511250 15.039350
-10.217600 21.035549 15.039350
1.180160 23.355949 15.039350
11.012360 20.630550 15.039350
17.833660 15.127950 15.039350
22.150261 7.500550 15.039350
23.383961 0.288650 15.039350
21.281361 -9.695150 15.039350
16.217859 -16.848551 15.039350
7.500560 -22.150249 15.039350
0.288660 -23.383949 15.039350
-9.695210 -21.281349 15.039350
-16.848560 -16.217850 15.039350
-22.915661 -4.665250 15.039350
-22.328650 6.951550 15.039350
8 0 1 2 3 4 5 6 7
16 8 9 10 11 12 13 14 15 16 17 18 19 20 21 22 23
19 24 25 26 27 28 29 30 31 32 33 34 35 36 37 38 39 40 41 42
4 43 44 45 46
9 47 48 49 50 51 52 53 54 55
16 56 57 58 59 60 61 62 63 64 65 66 67 68 69 70 71
22 72 73 74 75 76 77 78 79 80 81 82 83 84 85 86 87 88 89 90 91 92 93
4 94 95 96 97
10 98 99 100 101 102 103 104 105 106 107
10 108 109 110 111 112 113 114 115 116 117
16 118 119 120 121 122 123 124 125 126 127 128 129 130 131 132 133
4 119 118 134 135
4 136 137 138 139
4 140 141 142 143
6 144 145 146 147 148 149
14 150 151 152 153 154 155 156 157 158 159 160 161 162 163
22 164 165 166 167 143 142 168 169 170 171 172 173 174 175 176 100 99 177 178 179 180 181
10 182 183 184 185 186 187 188 189 190 191
5 192 193 194 195 196
4 197 198 199 200
14 201 202 203 204 205 206 207 208 209 8 23 210 211 212
4 213 214 215 216
14 217 218 219 220 221 222 223 224 225 226 227 228 229 230
10 231 232 233 234 235 236 237 238 239 240
18 241 242 243 244 245 246 247 248 249 250 251 252 253 254 255 256 257 258
12 259 260 68 67 261 262 263 264 265 266 267 268
4 269 270 271 272
8 273 220 219 230 229 274 275 276
10 277 278 112 111 279 280 281 204 203 282
4 283 284 285 286
16 4 287 288 289 290 291 292 257 256 293 294 295 296 297 298 5
20 299 300 301 302 303 304 305 306 307 308 309 310 311 312 191 190 313 314 315 316
4 317 318 319 320
4 321 322 323 324
6 325 97 96 326 145 144
4 327 328 329 330
4 331 332 333 334
4 335 336 337 338
20 339 340 341 342 343 1 0 344 345 346 347 348 349 350 351 352 353 354 355 356
10 357 358 359 360 361 362 363 248 247 364
10 365 366 367 368 369 370 371 372 271 270
4 104 373 374 105
4 375 376 377 378
4 379 380 381 382
4 383 186 185 384
18 385 386 387 388 389 390 391 392 393 394 395 396 397 398 399 400 401 402
18 403 404 405 406 407 408 409 410 411 412 413 414 415 416 417 16 15 418
10 419 420 421 353 352 422 423 424 425 426
22 427 428 429 430 431 432 433 434 435 436 437 438 439 440 441 442 443 444 445 446 447 448
4 449 317 320 450
4 359 451 452 360
4 453 95 94 454
6 455 456 457 458 137 136
4 459 460 461 462
4 323 459 462 324
4 463 464 465 466
7 464 467 468 469 470 471 465
4 374 373 472 473
4 148 147 44 43
14 474 475 476 477 478 479 480 481 482 483 436 435 484 485
12 486 487 488 489 490 491 492 493 494 234 233 495
10 496 497 383 384 498 499 500 410 409 501
15 502 503 504 505 506 507 508 509 510 511 512 513 514 515 516
7 517 463 466 518 519 46 45
22 520 521 266 265 522 523 524 525 526 527 528 529 530 531 532 533 534 535 536 537 538 539
8 540 541 542 543 544 545 546 547
10 489 548 549 550 399 398 551 552 553 490
10 135 134 554 555 556 285 284 557 558 559
6 560 457 456 561 319 318
10 562 563 564 565 566 567 568 569 570 571
14 572 573 574 575 576 577 578 579 580 581 582 583 584 585
20 586 587 588 589 590 591 592 593 283 286 594 595 596 597 598 599 600 601 532 531
4 602 603 604 605
4 606 607 542 541
10 608 609 610 473 472 611 612 613 390 389
8 614 304 303 615 616 269 272 617
4 141 140 565 564
8 618 570 569 619 620 621 622 623
6 139 138 624 322 321 625
4 25 24 29 28
10 626 627 628 452 451 629 630 631 79 78
8 632 90 89 633 634 447 446 635
6 460 636 449 450 637 461
16 638 639 640 622 621 641 642 643 644 645 646 239 238 647 648 649
8 60 59 650 651 607 606 652 653
12 654 655 656 546 545 657 658 659 660 127 126 661
4 468 453 454 469
4 477 426 425 478
16 662 196 195 663 664 194 193 665 666 667 668 669 670 671 672 673
12 674 47 55 675 53 52 676 677 678 679 680 681
4 368 117 116 369
15 682 683 684 685 686 687 688 689 690 691 692 693 694 695 696
