ply
format ascii 1.0
comment Created by Blender 2.82 (sub 7) - www.blender.org, source file: ''
element vertex 728
property float x
property float y
property float z
element face 183
property list uchar uint vertex_indices
end_header
-37.201801 72.051750 17.049841
37.201801 72.051750 17.049841
37.201801 72.051750 19.401440
-37.201801 72.051750 19.401440
-26.276140 2.656750 17.098841
-26.276140 2.656750 13.620740
-26.878481 2.694750 13.620740
-26.878481 2.694750 17.098841
-34.861000 56.380749 -17.358841
-34.861000 56.380749 11.533140
-34.861000 53.989750 11.533140
-34.861000 53.989750 -17.358841
-34.861000 2.746750 -17.358841
-34.861000 2.746750 11.533140
-34.861000 0.355750 11.533140
-34.861000 0.355750 -17.358841
37.129601 0.355750 13.620740
37.109798 0.355750 -19.401440
34.760300 0.355750 -17.358841
34.760300 0.355750 11.533140
-34.861000 0.355750 11.533140
-34.861000 0.355750 -17.358841
-36.957901 0.355750 -19.401440
-36.957901 0.355750 13.620740
34.760300 -47.902649 -17.358841
37.109798 -47.902649 -19.401440
37.129601 -47.902649 13.620740
-36.957901 -47.902649 13.620740
-34.861000 -47.902649 11.533140
34.760300 -47.902649 11.533140
-34.861000 53.989750 -17.358841
-34.861000 56.380749 -17.358841
34.760300 56.380749 -17.358841
34.760300 53.989750 -17.358841
27.951599 1.477750 13.620740
27.951599 1.477750 17.098841
27.758900 0.905750 17.098841
27.758900 0.905750 13.620740
-26.418150 -50.241249 17.098841
-27.020491 -50.203251 17.098841
-27.020491 -50.203251 13.620740
-26.418150 -50.241249 13.620740
-36.957901 53.989750 13.620740
-34.861000 53.989750 11.533140
34.760300 53.989750 11.533140
34.760300 53.989750 -17.358841
-34.861000 53.989750 -17.358841
-36.957901 53.989750 -19.401440
37.109798 53.989750 -19.401440
37.129601 53.989750 13.620740
34.760300 56.380749 11.533140
-36.957901 56.380749 13.620740
37.129601 56.380749 13.620740
37.109798 56.380749 -19.401440
34.760300 56.380749 -17.358841
34.760300 2.746750 11.533140
34.760300 2.746750 -17.358841
34.760300 0.355750 -17.358841
34.760300 0.355750 11.533140
-34.861000 0.355750 -17.358841
-34.861000 0.355750 11.533140
-34.861000 2.746750 11.533140
-34.861000 2.746750 -17.358841
-25.677330 -49.743752 13.620740
-25.484680 -49.171749 13.620740
37.129601 -50.293850 13.620740
-36.957901 -50.293850 13.620740
-27.523109 -49.869049 13.620740
-27.020491 -50.203251 13.620740
-26.418150 -50.241249 13.620740
-26.130159 -50.142750 13.620740
34.760300 56.380749 11.533140
34.760300 56.380749 -17.358841
34.760300 53.989750 -17.358841
34.760300 53.989750 11.533140
34.760300 -50.293850 11.533140
34.760300 -50.293850 -17.358841
34.760300 -47.902649 -17.358841
34.760300 -47.902649 11.533140
-27.619289 55.830750 13.620740
-27.619289 55.830750 17.098841
-27.166470 56.229752 17.098841
-27.166470 56.229752 13.620740
34.760300 53.989750 -17.358841
34.760300 56.380749 -17.358841
-34.861000 56.380749 -17.358841
-34.861000 53.989750 -17.358841
-36.957901 0.355750 13.620740
-34.861000 0.355750 11.533140
34.760300 0.355750 11.533140
34.760300 0.355750 -17.358841
37.129601 0.355750 13.620740
-26.276140 56.290749 17.098841
-26.276140 56.290749 13.620740
-26.878481 56.328751 13.620740
-26.878481 56.328751 17.098841
37.109798 -47.902649 -19.401440
37.109798 -50.293850 -19.401440
-36.957901 -50.293850 -19.401440
-36.957901 -47.902649 -19.401440
-27.293791 54.214748 17.098841
-27.293791 54.214748 13.620740
-26.721830 54.021751 13.620740
-26.721830 54.021751 17.098841
34.760300 0.355750 11.533140
34.760300 0.355750 -17.358841
34.760300 2.746750 -17.358841
34.760300 2.746750 11.533140
-36.957901 2.746750 13.620740
-36.957901 2.746750 -19.401440
-34.861000 2.746750 -17.358841
-34.861000 2.746750 11.533140
34.760300 2.746750 11.533140
34.760300 2.746750 11.533140
34.760300 0.355750 11.533140
-34.861000 0.355750 11.533140
-34.861000 2.746750 11.533140
-36.957901 -47.902649 13.620740
-36.957901 -47.902649 -19.401440
-36.957901 -50.293850 -19.401440
-36.957901 -50.293850 13.620740
-25.603821 -48.580051 13.620740
-25.603821 -48.580051 17.098841
-25.505301 -48.868050 17.098841
-25.505301 -48.868050 13.620740
-36.957901 2.746750 13.620740
-36.957901 0.355750 13.620740
37.129601 0.355750 13.620740
-26.130159 0.506750 13.620740
-26.721830 0.387750 13.620740
-27.293791 0.580750 13.620740
-27.523109 0.780750 13.620740
-27.791321 1.321750 13.620740
-27.753269 1.923750 13.620740
-27.419149 2.426750 13.620740
-26.878481 2.694750 13.620740
-26.574800 2.714750 13.620740
37.129601 2.746750 13.620740
-27.419149 2.426750 13.620740
-27.753269 1.923750 13.620740
-27.791321 1.321750 13.620740
-27.523109 0.780750 13.620740
-27.293791 0.580750 13.620740
-26.721830 0.387750 13.620740
-26.130159 0.506750 13.620740
-25.677330 0.905750 13.620740
-25.484680 1.477750 13.620740
-25.505301 1.781750 13.620740
-25.773520 2.322750 13.620740
-26.276140 2.656750 13.620740
-26.878481 2.694750 13.620740
27.892900 54.812752 17.098841
27.892900 54.812752 13.620740
27.930901 55.415749 13.620740
27.930901 55.415749 17.098841
-26.721830 0.387750 17.098841
-27.293791 0.580750 17.098841
-27.293791 0.580750 13.620740
-26.721830 0.387750 13.620740
34.760300 -50.293850 -17.358841
34.760300 -47.902649 -17.358841
-34.861000 -47.902649 -17.358841
-34.861000 -50.293850 -17.358841
34.760300 -47.902649 11.533140
34.760300 -47.902649 -17.358841
34.760300 -50.293850 -17.358841
34.760300 -50.293850 11.533140
-25.773520 2.322750 17.098841
-25.773520 2.322750 13.620740
37.129601 -47.902649 13.620740
-36.957901 -47.902649 13.620740
-26.574800 -47.934650 13.620740
-26.276140 -47.993252 13.620740
-25.677330 0.905750 13.620740
-25.677330 0.905750 17.098841
-26.130159 0.506750 17.098841
-26.130159 0.506750 13.620740
-26.721830 54.021751 13.620740
-26.130159 54.140751 13.620740
-25.677330 54.539749 13.620740
-25.543360 54.812752 13.620740
37.129601 53.989750 13.620740
-36.957901 53.989750 13.620740
-36.957901 56.380749 13.620740
37.129601 56.380749 13.620740
-25.484680 55.111752 13.620740
-25.505301 55.415749 13.620740
-25.773520 55.956749 13.620740
-26.276140 56.290749 13.620740
-26.878481 56.328751 13.620740
-27.166470 56.229752 13.620740
-27.619289 55.830750 13.620740
-27.753269 55.557751 13.620740
-27.791321 54.955750 13.620740
-27.523109 54.414749 13.620740
-27.293791 54.214748 13.620740
-27.811951 -49.024750 17.098841
-27.811951 -49.024750 13.620740
-27.692810 -49.616451 13.620740
-27.692810 -49.616451 17.098841
-36.957901 -50.293850 13.620740
-34.861000 -50.293850 11.533140
34.760300 -50.293850 11.533140
34.760300 -50.293850 -17.358841
37.129601 -50.293850 13.620740
37.109798 -47.902649 -19.401440
37.129601 -47.902649 13.620740
37.129601 -50.293850 13.620740
37.109798 -50.293850 -19.401440
-27.619289 -48.452751 17.098841
-27.619289 -48.452751 13.620740
37.109798 56.380749 -19.401440
37.109798 53.989750 -19.401440
-36.957901 53.989750 -19.401440
-36.957901 56.380749 -19.401440
-34.861000 -50.293850 -17.358841
34.760300 -50.293850 -17.358841
37.109798 -50.293850 -19.401440
-36.957901 -50.293850 -19.401440
-36.957901 -50.293850 13.620740
37.129601 -50.293850 13.620740
34.760300 -50.293850 11.533140
-34.861000 -50.293850 11.533140
-25.677330 54.539749 13.620740
-25.677330 54.539749 17.098841
-26.130159 54.140751 17.098841
-26.130159 54.140751 13.620740
-36.957901 56.380749 -19.401440
-36.957901 53.989750 -19.401440
37.109798 53.989750 -19.401440
37.109798 56.380749 -19.401440
26.714399 54.021751 17.098841
26.714399 54.021751 13.620740
27.306101 54.140751 13.620740
27.306101 54.140751 17.098841
34.760300 2.746750 -17.358841
37.109798 2.746750 -19.401440
37.129601 2.746750 13.620740
37.129601 2.746750 13.620740
37.129601 0.355750 13.620740
-25.677330 0.905750 13.620740
-25.484680 1.477750 13.620740
-25.505301 1.781750 13.620740
-25.773520 2.322750 13.620740
37.201801 -72.051750 19.401440
-37.201801 -72.051750 19.401440
-37.201801 -72.051750 17.049841
37.201801 -72.051750 17.049841
26.557800 -47.955250 17.098841
27.160101 -47.993252 17.098841
27.160101 -47.993252 13.620740
26.557800 -47.955250 13.620740
-25.543360 -49.470451 17.098841
-25.543360 -49.470451 13.620740
26.269800 -48.053749 17.098841
26.269800 -48.053749 13.620740
27.306101 0.506750 17.098841
26.714399 0.387750 17.098841
26.714399 0.387750 13.620740
27.306101 0.506750 13.620740
-27.293791 -50.069248 17.098841
-27.293791 -50.069248 13.620740
27.758900 54.539749 17.098841
27.758900 54.539749 13.620740
-26.276140 -47.993252 17.098841
-26.002831 -48.127251 17.098841
-26.002831 -48.127251 13.620740
-26.276140 -47.993252 13.620740
37.109798 -50.293850 -19.401440
37.129601 -50.293850 13.620740
37.129601 -47.902649 13.620740
37.109798 -47.902649 -19.401440
25.816900 -48.452751 17.098841
25.624300 -49.024750 17.098841
25.743401 -49.616451 17.098841
26.142401 -50.069248 17.098841
26.415800 -50.203251 17.098841
27.018101 -50.241249 17.098841
27.558800 -49.973049 17.098841
27.892900 -49.470451 17.098841
27.951599 -49.171749 17.098841
27.832399 -48.580051 17.098841
27.433399 -48.127251 17.098841
27.160101 -47.993252 17.098841
26.557800 -47.955250 17.098841
26.269800 -48.053749 17.098841
37.109798 2.746750 -19.401440
37.109798 0.355750 -19.401440
-36.957901 0.355750 -19.401440
-36.957901 2.746750 -19.401440
-34.861000 0.355750 -17.358841
-36.957901 0.355750 -19.401440
37.109798 0.355750 -19.401440
-36.957901 2.746750 13.620740
-36.957901 2.746750 -19.401440
-36.957901 0.355750 -19.401440
-36.957901 0.355750 13.620740
37.201801 -72.051750 17.049841
37.201801 -72.051750 19.401440
37.201801 72.051750 19.401440
37.201801 72.051750 17.049841
-34.861000 -47.902649 11.533140
-34.861000 -50.293850 11.533140
34.760300 -50.293850 11.533140
34.760300 -47.902649 11.533140
25.624300 -49.024750 17.098841
25.624300 -49.024750 13.620740
25.743401 -49.616451 13.620740
25.743401 -49.616451 17.098841
26.142401 54.214748 17.098841
25.913099 54.414749 17.098841
25.913099 54.414749 13.620740
26.142401 54.214748 13.620740
-34.861000 -50.293850 -17.358841
-34.861000 -47.902649 -17.358841
34.760300 -47.902649 -17.358841
34.760300 -50.293850 -17.358841
-34.861000 -47.902649 -17.358841
-34.861000 -47.902649 11.533140
-34.861000 -50.293850 11.533140
-34.861000 -50.293850 -17.358841
26.269800 56.229752 17.098841
26.557800 56.328751 17.098841
26.557800 56.328751 13.620740
26.269800 56.229752 13.620740
25.816900 -48.452751 13.620740
25.816900 -48.452751 17.098841
26.142401 0.580750 17.098841
26.142401 0.580750 13.620740
-27.753269 1.923750 13.620740
-27.791321 1.321750 13.620740
-27.791321 1.321750 17.098841
-27.753269 1.923750 17.098841
-36.957901 -47.902649 13.620740
37.129601 -47.902649 13.620740
34.760300 -47.902649 -17.358841
34.760300 -47.902649 11.533140
-34.861000 -47.902649 11.533140
-34.861000 -47.902649 -17.358841
-36.957901 -47.902649 -19.401440
26.415800 -50.203251 17.098841
26.142401 -50.069248 17.098841
26.142401 -50.069248 13.620740
26.415800 -50.203251 13.620740
-27.419149 2.426750 17.098841
-27.419149 2.426750 13.620740
-25.543360 54.812752 13.620740
-25.543360 54.812752 17.098841
27.930901 1.781750 13.620740
27.930901 1.781750 17.098841
25.683001 1.923750 13.620740
25.644899 1.321750 13.620740
25.644899 1.321750 17.098841
25.683001 1.923750 17.098841
-25.505301 1.781750 17.098841
-25.505301 1.781750 13.620740
37.109798 56.380749 -19.401440
37.129601 56.380749 13.620740
37.129601 53.989750 13.620740
37.109798 53.989750 -19.401440
-36.957901 56.380749 13.620740
-36.957901 56.380749 -19.401440
-36.957901 53.989750 -19.401440
-36.957901 53.989750 13.620740
-36.957901 53.989750 13.620740
-36.957901 53.989750 -19.401440
-36.957901 56.380749 -19.401440
-36.957901 56.380749 13.620740
-27.791321 1.321750 17.098841
-27.523109 0.780750 17.098841
-27.293791 0.580750 17.098841
-26.721830 0.387750 17.098841
-26.130159 0.506750 17.098841
-25.677330 0.905750 17.098841
-25.484680 1.477750 17.098841
-25.505301 1.781750 17.098841
-25.773520 2.322750 17.098841
-26.276140 2.656750 17.098841
-26.878481 2.694750 17.098841
-27.419149 2.426750 17.098841
-27.753269 1.923750 17.098841
-36.957901 -47.902649 13.620740
37.129601 -47.902649 13.620740
-25.603821 -48.580051 13.620740
-26.002831 -48.127251 13.620740
-26.276140 -47.993252 13.620740
-26.878481 -47.955250 13.620740
-27.166470 -48.053749 13.620740
-27.619289 -48.452751 13.620740
-27.811951 -49.024750 13.620740
-27.692810 -49.616451 13.620740
-36.957901 0.355750 13.620740
-36.957901 0.355750 -19.401440
-36.957901 2.746750 -19.401440
-36.957901 2.746750 13.620740
-26.130159 -50.142750 17.098841
-26.130159 -50.142750 13.620740
37.201801 -72.051750 19.401440
37.201801 72.051750 19.401440
-37.201801 72.051750 19.401440
-37.201801 -72.051750 19.401440
-27.753269 55.557751 13.620740
-27.791321 54.955750 13.620740
-27.791321 54.955750 17.098841
-27.753269 55.557751 17.098841
-27.753269 55.557751 13.620740
-27.619289 55.830750 13.620740
-27.166470 56.229752 13.620740
-26.878481 56.328751 13.620740
-26.276140 56.290749 13.620740
-25.773520 55.956749 13.620740
-25.505301 55.415749 13.620740
-25.543360 54.812752 13.620740
-25.677330 54.539749 13.620740
-26.130159 54.140751 13.620740
-26.721830 54.021751 13.620740
-27.293791 54.214748 13.620740
-27.523109 54.414749 13.620740
-27.791321 54.955750 13.620740
-26.130159 -50.142750 17.098841
-25.677330 -49.743752 17.098841
-25.543360 -49.470451 17.098841
-25.505301 -48.868050 17.098841
-25.603821 -48.580051 17.098841
-26.002831 -48.127251 17.098841
-26.276140 -47.993252 17.098841
-26.878481 -47.955250 17.098841
-27.166470 -48.053749 17.098841
-27.619289 -48.452751 17.098841
-27.811951 -49.024750 17.098841
-27.692810 -49.616451 17.098841
-27.293791 -50.069248 17.098841
-27.020491 -50.203251 17.098841
-26.418150 -50.241249 17.098841
37.109798 -47.902649 -19.401440
37.201801 72.051750 17.049841
37.201801 -72.051750 17.049841
-37.201801 -72.051750 17.049841
-37.201801 72.051750 17.049841
-37.201801 72.051750 19.401440
-37.201801 72.051750 17.049841
-37.201801 -72.051750 17.049841
-37.201801 -72.051750 19.401440
27.160101 56.290749 17.098841
27.160101 56.290749 13.620740
27.558800 -49.973049 17.098841
27.558800 -49.973049 13.620740
27.892900 -49.470451 13.620740
27.892900 -49.470451 17.098841
-25.677330 -49.743752 13.620740
-25.677330 -49.743752 17.098841
-34.861000 2.746750 11.533140
-34.861000 0.355750 11.533140
34.760300 0.355750 11.533140
34.760300 2.746750 11.533140
34.760300 0.355750 -17.358841
34.760300 2.746750 -17.358841
-34.861000 2.746750 -17.358841
-34.861000 0.355750 -17.358841
-34.861000 0.355750 -17.358841
-34.861000 2.746750 -17.358841
34.760300 2.746750 -17.358841
34.760300 0.355750 -17.358841
-37.201801 -72.051750 19.401440
-37.201801 72.051750 19.401440
37.201801 72.051750 19.401440
37.201801 -72.051750 19.401440
-36.957901 -47.902649 -19.401440
-36.957901 -50.293850 -19.401440
37.109798 -50.293850 -19.401440
37.109798 -47.902649 -19.401440
37.109798 0.355750 -19.401440
37.129601 0.355750 13.620740
37.129601 2.746750 13.620740
37.109798 2.746750 -19.401440
34.760300 2.746750 -17.358841
37.109798 2.746750 -19.401440
-36.957901 2.746750 -19.401440
-36.957901 2.746750 13.620740
37.129601 2.746750 13.620740
34.760300 2.746750 11.533140
-34.861000 2.746750 11.533140
-34.861000 2.746750 -17.358841
37.201801 72.051750 17.049841
37.201801 72.051750 19.401440
37.201801 -72.051750 19.401440
37.201801 -72.051750 17.049841
-26.721830 0.387750 13.620740
-26.130159 0.506750 13.620740
-36.957901 0.355750 13.620740
-36.957901 2.746750 13.620740
-26.276140 2.656750 13.620740
-26.878481 2.694750 13.620740
-27.419149 2.426750 13.620740
-27.753269 1.923750 13.620740
-27.791321 1.321750 13.620740
-27.523109 0.780750 13.620740
-27.293791 0.580750 13.620740
-36.957901 -50.293850 13.620740
-36.957901 -50.293850 -19.401440
-36.957901 -47.902649 -19.401440
-36.957901 -47.902649 13.620740
34.760300 -47.902649 11.533140
34.760300 -50.293850 11.533140
-34.861000 -50.293850 11.533140
-34.861000 -47.902649 11.533140
27.433399 -48.127251 17.098841
27.433399 -48.127251 13.620740
-25.484680 1.477750 13.620740
-25.677330 0.905750 13.620740
-26.276140 2.656750 13.620740
-25.773520 2.322750 13.620740
-25.505301 1.781750 13.620740
37.201801 -72.051750 17.049841
-37.201801 -72.051750 17.049841
-37.201801 -72.051750 19.401440
37.201801 -72.051750 19.401440
-36.957901 2.746750 -19.401440
-36.957901 0.355750 -19.401440
37.109798 0.355750 -19.401440
37.109798 2.746750 -19.401440
26.017099 2.426750 13.620740
26.017099 2.426750 17.098841
27.018101 -50.241249 13.620740
27.018101 -50.241249 17.098841
-25.505301 1.781750 13.620740
-25.484680 1.477750 13.620740
-25.677330 0.905750 13.620740
-26.130159 0.506750 13.620740
-26.721830 0.387750 13.620740
-27.293791 0.580750 13.620740
-27.523109 0.780750 13.620740
-27.791321 1.321750 13.620740
-27.753269 1.923750 13.620740
-27.419149 2.426750 13.620740
-26.878481 2.694750 13.620740
-26.276140 2.656750 13.620740
-25.773520 2.322750 13.620740
27.951599 -49.171749 17.098841
27.951599 -49.171749 13.620740
27.832399 -48.580051 13.620740
27.832399 -48.580051 17.098841
-25.505301 55.415749 13.620740
-25.505301 55.415749 17.098841
25.683001 55.557751 17.098841
25.683001 55.557751 13.620740
25.644899 54.955750 13.620740
25.644899 54.955750 17.098841
25.816900 55.830750 17.098841
25.816900 55.830750 13.620740
-34.861000 -50.293850 -17.358841
-34.861000 -50.293850 11.533140
-34.861000 -47.902649 11.533140
-34.861000 -47.902649 -17.358841
-27.166470 -48.053749 17.098841
-26.878481 -47.955250 17.098841
-26.878481 -47.955250 13.620740
-27.166470 -48.053749 13.620740
27.662701 2.322750 13.620740
27.662701 2.322750 17.098841
27.160101 2.656750 17.098841
27.160101 2.656750 13.620740
26.557800 2.694750 13.620740
26.557800 2.694750 17.098841
-25.773520 55.956749 17.098841
-25.773520 55.956749 13.620740
25.913099 0.780750 17.098841
25.913099 0.780750 13.620740
-26.002831 -48.127251 13.620740
-25.603821 -48.580051 13.620740
-25.505301 -48.868050 13.620740
-25.543360 -49.470451 13.620740
-25.677330 -49.743752 13.620740
-26.130159 -50.142750 13.620740
-26.418150 -50.241249 13.620740
-27.020491 -50.203251 13.620740
-27.293791 -50.069248 13.620740
-27.692810 -49.616451 13.620740
-27.811951 -49.024750 13.620740
-27.619289 -48.452751 13.620740
-27.166470 -48.053749 13.620740
-26.878481 -47.955250 13.620740
-26.276140 -47.993252 13.620740
-26.878481 56.328751 17.098841
-27.166470 56.229752 17.098841
-27.619289 55.830750 17.098841
-27.753269 55.557751 17.098841
-27.791321 54.955750 17.098841
-27.523109 54.414749 17.098841
-27.293791 54.214748 17.098841
-26.721830 54.021751 17.098841
-26.130159 54.140751 17.098841
-25.677330 54.539749 17.098841
-25.543360 54.812752 17.098841
-25.505301 55.415749 17.098841
-25.773520 55.956749 17.098841
-26.276140 56.290749 17.098841
-36.957901 -50.293850 13.620740
37.129601 -50.293850 13.620740
-26.002831 -48.127251 13.620740
-25.603821 -48.580051 13.620740
-25.505301 -48.868050 13.620740
-25.543360 -49.470451 13.620740
-25.677330 -49.743752 13.620740
-26.130159 -50.142750 13.620740
-26.418150 -50.241249 13.620740
-27.020491 -50.203251 13.620740
-27.293791 -50.069248 13.620740
-27.692810 -49.616451 13.620740
-27.811951 -49.024750 13.620740
-27.619289 -48.452751 13.620740
-27.166470 -48.053749 13.620740
-27.523109 54.414749 17.098841
-27.523109 54.414749 13.620740
37.109798 53.989750 -19.401440
37.129601 53.989750 13.620740
37.129601 56.380749 13.620740
37.109798 56.380749 -19.401440
27.662701 55.956749 13.620740
27.662701 55.956749 17.098841
-25.484680 1.477750 13.620740
-25.484680 1.477750 17.098841
-27.523109 0.780750 13.620740
-27.523109 0.780750 17.098841
37.109798 -50.293850 -19.401440
-34.861000 -50.293850 -17.358841
-36.957901 -50.293850 -19.401440
-37.201801 72.051750 17.049841
-37.201801 -72.051750 17.049841
37.201801 -72.051750 17.049841
37.201801 72.051750 17.049841
34.760300 53.989750 11.533140
34.760300 53.989750 -17.358841
34.760300 56.380749 -17.358841
34.760300 56.380749 11.533140
-34.861000 53.989750 -17.358841
-34.861000 53.989750 11.533140
-34.861000 56.380749 11.533140
-34.861000 56.380749 -17.358841
-36.957901 56.380749 -19.401440
-34.861000 56.380749 11.533140
-34.861000 56.380749 -17.358841
-34.861000 56.380749 11.533140
-34.861000 53.989750 11.533140
34.760300 53.989750 11.533140
34.760300 56.380749 11.533140
34.760300 56.380749 11.533140
34.760300 53.989750 11.533140
-34.861000 53.989750 11.533140
-34.861000 56.380749 11.533140
-37.201801 72.051750 19.401440
37.201801 72.051750 19.401440
37.201801 72.051750 17.049841
-37.201801 72.051750 17.049841
-36.957901 56.380749 13.620740
-34.861000 56.380749 -17.358841
-34.861000 56.380749 11.533140
34.760300 56.380749 11.533140
37.129601 56.380749 13.620740
-37.201801 -72.051750 19.401440
-37.201801 -72.051750 17.049841
-37.201801 72.051750 17.049841
-37.201801 72.051750 19.401440
34.760300 56.380749 -17.358841
-36.957901 56.380749 -19.401440
37.109798 56.380749 -19.401440
-26.276140 -47.993252 13.620740
-26.878481 -47.955250 13.620740
-27.166470 -48.053749 13.620740
-27.619289 -48.452751 13.620740
-27.811951 -49.024750 13.620740
-27.692810 -49.616451 13.620740
-27.293791 -50.069248 13.620740
-27.020491 -50.203251 13.620740
-26.418150 -50.241249 13.620740
-26.130159 -50.142750 13.620740
-25.677330 -49.743752 13.620740
-25.543360 -49.470451 13.620740
-25.505301 -48.868050 13.620740
-25.603821 -48.580051 13.620740
-26.002831 -48.127251 13.620740
-36.957901 56.380749 13.620740
-36.957901 53.989750 13.620740
-27.166470 56.229752 13.620740
-26.878481 56.328751 13.620740
-26.574800 56.348751 13.620740
-25.543360 54.812752 13.620740
-25.677330 54.539749 13.620740
-26.130159 54.140751 13.620740
-26.721830 54.021751 13.620740
-27.293791 54.214748 13.620740
-27.523109 54.414749 13.620740
-27.791321 54.955750 13.620740
-27.753269 55.557751 13.620740
-27.619289 55.830750 13.620740
37.129601 53.989750 13.620740
37.129601 56.380749 13.620740
-26.276140 56.290749 13.620740
-25.773520 55.956749 13.620740
-25.505301 55.415749 13.620740
-36.957901 -47.902649 -19.401440
-34.861000 -47.902649 -17.358841
-34.861000 53.989750 -17.358841
34.760300 53.989750 -17.358841
37.109798 53.989750 -19.401440
-36.957901 53.989750 -19.401440
-36.957901 53.989750 13.620740
37.129601 53.989750 13.620740
34.760300 53.989750 11.533140
-34.861000 53.989750 11.533140
37.109798 2.746750 -19.401440
37.129601 2.746750 13.620740
37.129601 0.355750 13.620740
37.109798 0.355750 -19.401440
-25.505301 55.415749 13.620740
-25.773520 55.956749 13.620740
-26.276140 56.290749 13.620740
-26.878481 56.328751 13.620740
-27.166470 56.229752 13.620740
-27.619289 55.830750 13.620740
-27.753269 55.557751 13.620740
-27.791321 54.955750 13.620740
-27.523109 54.414749 13.620740
-27.293791 54.214748 13.620740
-26.721830 54.021751 13.620740
-26.130159 54.140751 13.620740
-25.677330 54.539749 13.620740
-25.543360 54.812752 13.620740
4 0 1 2 3
4 4 5 6 7
4 8 9 10 11
4 12 13 14 15
8 16 17 18 19 20 21 22 23
6 24 25 26 27 28 29
4 30 31 32 33
4 34 35 36 37
4 38 39 40 41
8 42 43 44 45 46 47 48 49
5 50 51 52 53 54
4 55 56 57 58
4 59 60 61 62
8 63 64 65 66 67 68 69 70
4 71 72 73 74
4 75 76 77 78
4 79 80 81 82
4 83 84 85 86
5 87 88 89 90 91
4 92 93 94 95
4 96 97 98 99
4 100 101 102 103
4 104 105 106 107
5 108 109 110 111 112
4 113 114 115 116
4 117 118 119 120
4 121 122 123 124
13 125 126 127 128 129 130 131 132 133 134 135 136 137
13 138 139 140 141 142 143 144 145 146 147 148 149 150
4 151 152 153 154
4 155 156 157 158
4 159 160 161 162
4 163 164 165 166
4 4 167 168 5
4 169 170 171 172
4 173 174 175 176
19 177 178 179 180 181 182 183 184 185 186 187 188 189 190 191 192 193 194 195
4 196 197 198 199
5 200 201 202 203 204
4 205 206 207 208
4 197 196 209 210
4 211 212 213 214
8 215 216 217 218 219 220 221 222
4 223 224 225 226
4 220 217 216 221
4 227 228 229 230
4 231 232 233 234
7 235 110 109 236 237 108 112
6 238 239 240 241 242 243
4 244 245 246 247
4 248 249 250 251
4 124 123 252 253
4 254 248 251 255
4 256 257 258 259
4 260 199 198 261
4 152 151 262 263
4 264 265 266 267
4 268 269 270 271
14 272 273 274 275 276 277 278 279 280 281 282 283 284 285
4 286 287 288 289
7 290 88 87 291 292 91 90
4 293 294 295 296
4 297 298 299 300
4 301 302 303 304
4 305 306 307 308
4 309 310 311 312
4 313 314 315 316
4 317 318 319 320
4 321 322 323 324
4 37 36 256 259
4 175 155 158 176
4 325 306 305 326
4 257 327 328 258
4 329 330 331 332
7 333 334 335 336 337 338 339
4 340 341 342 343
4 344 345 329 332
4 346 347 224 223
4 348 349 35 34
4 225 103 102 226
4 81 95 94 82
4 350 351 352 353
4 354 355 168 167
4 356 357 358 359
4 360 361 362 363
4 364 365 366 367
13 368 369 370 371 372 373 374 375 376 377 378 379 380
14 66 381 382 65 64 383 384 385 386 387 388 389 390 67
4 185 184 181 180
4 391 392 393 394
4 309 312 232 231
4 395 38 41 396
4 397 398 399 400
4 401 402 403 404
4 39 260 261 40
14 405 406 407 408 409 410 411 412 413 414 415 416 417 418
15 419 420 421 422 423 424 425 426 427 428 429 430 431 432 433
5 434 339 338 335 334
4 435 436 437 438
4 439 440 441 442
4 322 443 444 323
4 445 446 447 448
4 395 396 449 450
4 451 452 453 454
4 455 456 457 458
4 459 460 461 462
4 463 464 465 466
4 467 468 469 470
4 471 472 473 474
8 475 476 477 478 479 480 481 482
4 483 484 485 486
4 475 480 479 476
4 253 252 450 449
15 487 488 240 239 489 490 238 243 491 492 493 494 495 496 497
4 498 499 500 501
4 502 503 504 505
4 249 506 507 250
4 308 307 342 341
9 508 509 128 127 137 136 510 511 512
4 513 514 515 516
4 517 518 519 520
4 18 17 22 21
4 521 350 353 522
4 340 343 523 524
13 525 526 527 528 529 530 531 532 533 534 535 536 537
4 538 539 540 541
4 542 543 347 346
4 544 545 546 547
4 548 549 545 544
4 550 551 552 553
4 554 555 556 557
4 558 559 349 348
4 560 561 562 563
4 564 565 93 92
4 327 566 567 328
4 539 538 448 447
4 560 559 558 561
4 351 567 566 352
4 254 255 325 326
4 264 267 556 555
15 568 569 570 571 572 573 574 575 576 577 578 579 580 581 582
14 583 584 585 586 587 588 589 590 591 592 593 594 595 596
4 506 541 540 507
19 170 597 598 169 172 599 600 601 602 603 604 605 606 607 608 609 610 611 171
4 80 79 401 404
4 100 612 613 101
4 445 524 523 446
4 614 615 616 617
4 618 619 154 153
4 174 173 620 621
4 234 233 263 262
4 122 121 266 265
4 403 402 613 612
4 330 622 623 331
7 624 204 203 625 201 200 626
4 344 7 6 345
4 627 628 629 630
4 522 563 562 521
4 631 632 633 634
4 635 636 637 638
7 54 53 639 51 50 640 641
4 642 643 644 645
4 646 647 648 649
4 650 651 652 653
5 654 655 656 657 658
4 659 660 661 662
4 156 623 622 157
4 565 564 543 542
7 663 655 654 664 665 658 657
15 666 667 668 669 670 671 672 673 674 675 676 677 678 679 680
5 681 682 683 684 685
4 546 311 310 547
4 355 354 621 620
18 686 687 688 689 690 691 692 693 694 683 682 695 696 681 685 697 698 699
4 557 210 209 554
6 27 700 25 24 701 28
8 702 703 704 705 706 707 708 709
4 46 43 42 47
4 707 704 703 708
4 710 711 712 713
14 714 715 716 717 718 719 720 721 722 723 724 725 726 727
4 549 548 321 324
4 443 619 618 444
