ply
format ascii 1.0
comment Created by Blender 2.82 (sub 7) - www.blender.org, source file: ''
element vertex 242
property float x
property float y
property float z
element face 51
property list uchar uint vertex_indices
end_header
-9.000000 9.890610 -9.624112
9.000000 9.890610 -9.624112
9.000000 6.844590 6.661100
-9.000000 6.844590 6.661100
9.000000 -12.945700 9.920600
9.000000 -12.914400 9.970800
-9.000000 -12.914400 9.970800
-9.000000 -12.945700 9.920600
-9.000000 12.866003 7.666900
-9.000000 12.864263 9.595300
-9.000000 12.865134 7.661800
9.000000 12.991573 7.523100
9.000000 12.956492 7.389500
-9.000000 12.956492 7.389500
-9.000000 12.991573 7.523100
-9.000000 12.989213 9.757700
-9.000000 12.944557 9.918900
-9.000000 12.929144 9.947400
9.000000 12.929144 9.947400
9.000000 12.944557 9.918900
9.000000 12.989213 9.757700
-9.000000 -12.882500 7.689900
9.000000 -12.882500 7.689900
9.000000 -6.844600 6.661100
-9.000000 -6.844600 6.661100
-9.000000 5.637180 6.601600
9.000000 5.637180 6.601600
9.000000 9.226850 -9.624112
-9.000000 9.226850 -9.624112
9.000000 -12.862900 9.621800
9.000000 -12.864300 9.603600
-9.000000 -12.864300 9.603600
-9.000000 -12.862900 9.621800
9.000000 9.150820 -10.000000
9.000000 5.561150 6.225700
-9.000000 5.561150 6.225700
-9.000000 9.150820 -10.000000
9.000000 -12.909000 7.320300
-9.000000 -12.909000 7.320300
-9.000000 -7.061000 6.321300
9.000000 -7.061000 6.321300
-9.000000 12.876786 9.996600
9.000000 12.876786 9.996600
9.000000 12.894966 9.986600
-9.000000 12.894966 9.986600
9.000000 -9.890600 -9.624112
-9.000000 -9.890600 -9.624112
9.000000 -12.864800 7.641100
-9.000000 -12.864800 7.641100
-9.000000 -12.864300 9.603600
9.000000 -12.864300 9.603600
9.000000 12.875215 7.688000
-9.000000 12.875215 7.688000
9.000000 -10.113800 -10.000000
-9.000000 -10.113800 -10.000000
-9.000000 -12.864800 7.641100
9.000000 -12.864800 7.641100
9.000000 -12.864300 7.636200
-9.000000 -12.864300 7.636200
-9.000000 12.864263 9.595300
-9.000000 12.861748 9.620100
-9.000000 12.860463 9.622100
-9.000000 12.859031 9.623200
-9.000000 -12.861600 9.623200
-9.000000 -12.862900 9.621800
-9.000000 -12.864300 9.603600
-9.000000 -12.945700 9.920600
-9.000000 -12.914400 9.970800
-9.000000 -12.879400 9.996700
-9.000000 12.876786 9.996600
-9.000000 12.894966 9.986600
-9.000000 12.929144 9.947400
9.000000 -12.861300 10.000000
9.000000 12.858289 10.000000
-9.000000 12.858289 10.000000
-9.000000 -12.861300 10.000000
-9.000000 -12.879400 9.996700
9.000000 -12.879400 9.996700
9.000000 12.853845 9.624100
9.000000 -12.856900 9.624100
9.000000 -12.861600 9.623200
-9.000000 -12.861600 9.623200
-9.000000 -12.856900 9.624100
-9.000000 12.853845 9.624100
-9.000000 12.859031 9.623200
9.000000 12.859031 9.623200
9.000000 12.929144 9.947400
-9.000000 12.929144 9.947400
-9.000000 -9.226800 -9.624112
9.000000 -9.226800 -9.624112
9.000000 -5.637200 6.601600
-9.000000 -5.637200 6.601600
9.000000 -12.945700 9.920600
9.000000 -12.864300 9.603600
-9.000000 -12.864300 9.603600
-9.000000 -12.945700 9.920600
9.000000 12.902506 7.319300
9.000000 7.061000 6.321300
-9.000000 7.061000 6.321300
-9.000000 12.902506 7.319300
9.000000 12.871532 7.683200
9.000000 12.869882 7.679900
9.000000 12.868396 7.676000
9.000000 12.866003 7.666900
-9.000000 12.866003 7.666900
-9.000000 12.868396 7.676000
-9.000000 12.869882 7.679900
-9.000000 12.871532 7.683200
-9.000000 12.873319 7.685900
9.000000 12.873319 7.685900
-9.000000 -9.150800 -10.000000
9.000000 -9.150800 -10.000000
-9.000000 12.861748 9.620100
9.000000 12.861748 9.620100
9.000000 12.860463 9.622100
-9.000000 12.860463 9.622100
9.000000 -5.561100 6.225700
-9.000000 -5.561100 6.225700
9.000000 -12.969700 7.412400
9.000000 -12.996500 7.547400
9.000000 -12.995300 9.715300
9.000000 -12.981400 9.808000
9.000000 -12.959400 9.887500
9.000000 -12.945700 9.920600
-9.000000 -12.945700 9.920600
-9.000000 -12.959400 9.887500
-9.000000 -12.981400 9.808000
-9.000000 -12.995300 9.715300
-9.000000 -12.996500 7.547400
-9.000000 -12.969700 7.412400
9.000000 -12.922600 7.329900
-9.000000 -12.922600 7.329900
9.000000 -12.969700 7.412400
9.000000 -12.922600 7.329900
9.000000 -12.909000 7.320300
9.000000 -7.061000 6.321300
9.000000 -10.113800 -10.000000
9.000000 -9.150800 -10.000000
9.000000 -5.561100 6.225700
9.000000 5.561150 6.225700
9.000000 9.150820 -10.000000
9.000000 10.113790 -10.000000
9.000000 7.061000 6.321300
9.000000 12.902506 7.319300
9.000000 12.956492 7.389500
9.000000 12.929144 9.947400
9.000000 12.865123 7.686300
9.000000 6.844590 6.661100
9.000000 9.890610 -9.624112
9.000000 9.226850 -9.624112
9.000000 5.637180 6.601600
9.000000 -5.637200 6.601600
9.000000 -9.226800 -9.624112
9.000000 -9.890600 -9.624112
9.000000 -6.844600 6.661100
9.000000 -12.865700 7.687000
9.000000 -12.945700 9.920600
9.000000 -12.872800 7.676100
-9.000000 -12.872800 7.676100
-9.000000 12.866003 7.666900
9.000000 12.866003 7.666900
9.000000 12.865134 7.661800
-9.000000 12.865134 7.661800
9.000000 -12.879400 9.996700
9.000000 -12.914400 9.970800
9.000000 -12.945700 9.920600
9.000000 -12.864300 9.603600
9.000000 -12.862900 9.621800
9.000000 -12.861600 9.623200
9.000000 12.859031 9.623200
9.000000 12.860463 9.622100
9.000000 12.861748 9.620100
9.000000 12.929144 9.947400
9.000000 12.894966 9.986600
9.000000 12.876786 9.996600
9.000000 12.917095 7.329700
-9.000000 12.917095 7.329700
-9.000000 12.931101 7.345000
9.000000 12.931101 7.345000
-9.000000 -9.150800 -10.000000
-9.000000 -10.113800 -10.000000
-9.000000 -7.061000 6.321300
-9.000000 -12.909000 7.320300
-9.000000 -12.922600 7.329900
-9.000000 -12.969700 7.412400
-9.000000 -12.945700 9.920600
-9.000000 -12.865700 7.687000
-9.000000 -6.844600 6.661100
-9.000000 -9.890600 -9.624112
-9.000000 -9.226800 -9.624112
-9.000000 -5.637200 6.601600
-9.000000 5.637180 6.601600
-9.000000 9.226850 -9.624112
-9.000000 9.890610 -9.624112
-9.000000 6.844590 6.661100
-9.000000 12.865123 7.686300
-9.000000 12.929144 9.947400
-9.000000 12.956492 7.389500
-9.000000 12.902506 7.319300
-9.000000 7.061000 6.321300
-9.000000 10.113790 -10.000000
-9.000000 9.150820 -10.000000
-9.000000 5.561150 6.225700
-9.000000 -5.561100 6.225700
-9.000000 10.113790 -10.000000
9.000000 10.113790 -10.000000
9.000000 7.061000 6.321300
-9.000000 7.061000 6.321300
9.000000 -12.864800 7.641100
-9.000000 -12.864800 7.641100
9.000000 12.865134 7.661800
9.000000 12.866003 7.666900
-9.000000 12.866003 7.666900
-9.000000 12.865134 7.661800
9.000000 12.866003 7.666900
9.000000 12.864263 9.595300
9.000000 -12.864300 7.636200
9.000000 -12.864800 7.641100
-9.000000 -12.864800 7.641100
-9.000000 -12.864300 7.636200
9.000000 12.864263 7.657100
9.000000 12.865134 7.661800
-9.000000 12.865134 7.661800
-9.000000 12.864263 7.657100
-9.000000 12.865134 7.661800
9.000000 12.865134 7.661800
9.000000 12.864263 7.657100
-9.000000 12.864263 7.657100
9.000000 12.862307 9.618700
-9.000000 12.862307 9.618700
-9.000000 12.862797 9.617100
-9.000000 12.863210 9.615400
-9.000000 12.863539 9.613600
-9.000000 12.863778 9.611600
-9.000000 12.863923 9.609600
-9.000000 12.864263 9.595300
9.000000 12.864263 9.595300
9.000000 12.863923 9.609600
9.000000 12.863778 9.611600
9.000000 12.863539 9.613600
9.000000 12.863210 9.615400
9.000000 12.862797 9.617100
4 0 1 2 3
4 4 5 6 7
3 8 9 10
10 11 12 13 14 15 16 17 18 19 20
4 21 22 23 24
4 25 26 27 28
4 29 30 31 32
4 33 34 35 36
4 37 38 39 40
4 41 42 43 44
4 28 27 1 0
4 24 23 45 46
4 47 48 49 50
4 3 2 51 52
4 53 40 39 54
4 55 56 57 58
13 59 60 61 62 63 64 65 66 67 68 69 70 71
8 72 73 42 41 74 75 76 77
8 78 79 80 81 82 83 84 85
4 43 86 87 44
4 88 89 90 91
4 92 93 94 95
4 96 97 98 99
4 80 29 32 81
12 100 101 102 103 104 105 106 107 108 52 51 109
4 53 54 110 111
4 112 113 114 115
4 116 111 110 117
12 118 119 120 121 122 123 124 125 126 127 128 129
4 130 131 38 37
4 6 5 77 76
25 132 133 134 135 136 137 138 139 140 141 142 143 144 145 146 147 148 149 150 151 152 153 154 155 156
4 91 90 26 25
4 46 45 89 88
4 157 22 21 158
4 159 160 161 162
12 163 164 165 166 167 168 169 170 171 172 173 174
8 175 96 99 176 177 13 12 178
25 179 180 181 182 183 184 185 186 187 188 189 190 191 192 193 194 195 196 197 198 199 200 201 202 203
4 116 117 35 34
4 33 36 204 205
4 206 205 204 207
4 115 114 85 84
4 208 157 158 209
4 210 211 212 213
4 8 214 215 9
4 216 217 218 219
4 220 221 222 223
4 224 225 226 227
4 130 118 129 131
16 228 113 112 229 230 231 232 233 234 235 236 237 238 239 240 241
