ply
format ascii 1.0
comment Created by Blender 2.82 (sub 7) - www.blender.org, source file: ''
element vertex 150
property float x
property float y
property float z
element face 56
property list uchar uint vertex_indices
end_header
3.324825 -14.112580 12.110900
3.352025 -13.605380 12.110900
13.997425 -14.175580 4.390400
13.970225 -14.682780 4.390400
14.557725 13.845220 4.390400
14.050525 13.872390 4.390400
13.480325 3.227020 12.110900
13.987525 3.199820 12.110900
18.000025 -17.999981 14.000000
10.000025 -17.999981 14.000000
10.000025 -16.062481 14.000000
16.062525 -16.062481 14.000000
16.062525 15.999980 14.000000
-16.000025 15.999980 14.000000
-16.000025 -17.999981 14.000000
-18.000025 -17.999981 14.000000
-18.000025 17.999981 14.000000
18.000025 17.999981 14.000000
-18.000025 -17.999981 14.500000
18.000025 -17.999981 14.500000
18.000025 17.999981 14.500000
-18.000025 17.999981 14.500000
-3.547175 13.682628 12.399500
-3.324875 13.925070 12.110900
-13.970259 14.495272 4.390400
-14.192527 14.252830 4.678900
14.590725 13.643586 12.323100
13.953425 13.677719 12.323100
13.953425 13.677719 -14.500000
14.590725 13.643586 -14.500000
-14.315369 -14.317480 4.678900
-13.745167 -3.672180 12.399500
-13.480369 -3.477080 12.110900
-14.050572 -14.122380 4.390400
-16.000025 15.999980 14.000000
-16.000025 15.999980 12.000000
16.062525 15.999980 12.000000
16.062525 15.999980 14.000000
-14.557811 -14.095280 4.390400
-13.987609 -3.449880 12.110900
-14.192527 14.252830 4.678900
-13.970259 14.495272 4.390400
-3.324875 13.925070 12.110900
-3.547175 13.682628 12.399500
-13.745167 -3.672180 12.399500
-13.987609 -3.449880 12.110900
-14.557811 -14.095280 4.390400
-14.315369 -14.317480 4.678900
-13.987609 -14.564980 12.323100
-14.624859 -14.530880 12.323100
-14.624859 -14.530880 -14.500000
-13.987609 -14.564980 -14.500000
-14.050572 -14.122380 4.390400
-13.480369 -3.477080 12.110900
13.970225 -14.682780 4.390400
13.997425 -14.175580 4.390400
3.352025 -13.605380 12.110900
3.324825 -14.112580 12.110900
14.439925 -14.112580 12.323100
14.405825 -14.749880 12.323100
14.405825 -14.749880 -14.500000
14.439925 -14.112580 -14.500000
13.768625 -14.715680 12.323100
13.768625 -14.715680 -14.500000
-14.590726 -13.893580 12.323100
-13.953475 -13.927780 12.323100
-13.953475 -13.927780 -14.500000
-14.590726 -13.893580 -14.500000
3.547125 -13.870180 12.399500
14.192525 -14.440380 4.678900
-18.000025 17.999981 14.500000
18.000025 17.999981 14.500000
18.000025 -17.999981 14.500000
-18.000025 -17.999981 14.500000
18.000025 17.999981 14.500000
18.000025 17.999981 14.000000
-18.000025 17.999981 14.000000
-18.000025 17.999981 14.500000
13.987525 3.199820 12.110900
13.480325 3.227020 12.110900
14.050525 13.872390 4.390400
14.557725 13.845220 4.390400
-3.352075 13.417830 12.110900
-13.997429 13.988033 4.390400
-18.000025 -17.999981 14.500000
-18.000025 17.999981 14.500000
-18.000025 17.999981 14.000000
-18.000025 -17.999981 14.000000
-3.352075 13.417830 12.110900
-13.997429 13.988033 4.390400
-16.000025 -16.062481 14.000000
-16.000025 -16.062481 12.000000
16.062525 -16.062481 12.000000
16.062525 -16.062481 14.000000
-16.000025 -16.062481 12.000000
-16.000025 15.999980 12.000000
-16.000025 15.999980 14.000000
-16.000025 -16.062481 14.000000
13.745125 3.422120 12.399500
14.315325 14.067488 4.678900
-16.000025 -16.062481 14.000000
-16.000025 15.999980 14.000000
-16.000025 15.999980 12.000000
-16.000025 -16.062481 12.000000
-13.768625 14.528187 12.323100
-13.768625 14.528187 -14.500000
-14.405875 14.562320 -14.500000
-14.405875 14.562320 12.323100
-13.802758 13.890936 -14.500000
-13.802758 13.890936 12.323100
-14.440008 13.925070 12.323100
-14.440008 13.925070 -14.500000
14.192525 -14.440380 4.678900
3.547125 -13.870180 12.399500
13.987525 14.314969 12.323100
14.624825 14.280836 12.323100
14.624825 14.280836 -14.500000
13.987525 14.314969 -14.500000
-16.000025 -16.062481 12.000000
-16.000025 -16.062481 14.000000
16.062525 -16.062481 14.000000
16.062525 -16.062481 12.000000
-18.000025 -17.999981 14.000000
18.000025 -17.999981 14.000000
18.000025 -17.999981 14.500000
-18.000025 -17.999981 14.500000
16.062525 15.999980 14.000000
16.062525 15.999980 12.000000
-16.000025 15.999980 12.000000
-16.000025 15.999980 14.000000
13.802725 -14.078480 -14.500000
13.802725 -14.078480 12.323100
16.062525 15.999980 12.000000
16.062525 -16.062481 12.000000
16.062525 -16.062481 14.000000
16.062525 15.999980 14.000000
18.000025 17.999981 14.500000
18.000025 -17.999981 14.500000
18.000025 -17.999981 14.000000
18.000025 17.999981 14.000000
16.062525 15.999980 14.000000
16.062525 -16.062481 14.000000
16.062525 -16.062481 12.000000
16.062525 15.999980 12.000000
10.000025 -17.999981 14.000000
-16.000025 -17.999981 14.000000
-16.000025 -16.062481 14.000000
10.000025 -16.062481 14.000000
14.315325 14.067488 4.678900
13.745125 3.422120 12.399500
4 0 1 2 3
4 4 5 6 7
10 8 9 10 11 12 13 14 15 16 17
4 18 19 20 21
4 22 23 24 25
4 26 27 28 29
4 30 31 32 33
4 34 35 36 37
4 38 33 32 39
4 40 41 42 43
4 44 45 46 47
4 48 49 50 51
4 52 53 44 47
4 54 55 56 57
4 58 59 60 61
4 45 53 52 46
4 62 63 60 59
4 64 65 66 67
4 68 0 3 69
4 70 71 72 73
4 74 75 76 77
4 78 79 80 81
4 23 82 83 24
4 64 67 50 49
4 84 85 86 87
4 40 43 88 89
4 90 91 92 93
4 94 95 96 97
4 80 79 98 99
4 100 101 102 103
4 104 105 106 107
4 108 109 110 111
4 104 109 108 105
4 112 113 56 55
4 114 115 116 117
4 118 119 120 121
4 122 123 124 125
4 66 65 48 51
4 126 127 128 129
4 130 131 58 61
4 132 133 134 135
4 83 82 22 25
4 136 137 138 139
4 140 141 142 143
4 30 38 39 31
4 26 29 116 115
4 144 145 146 147
4 41 89 88 42
4 2 1 68 69
4 62 131 130 63
4 110 107 106 111
4 148 4 7 149
4 98 78 81 99
4 112 54 57 113
4 28 27 114 117
4 148 149 6 5
