ply
format ascii 1.0
comment Created by Blender 2.82 (sub 7) - www.blender.org, source file: ''
element vertex 124
property float x
property float y
property float z
element face 29
property list uchar uint vertex_indices
end_header
-26.377951 26.377951 -10.039350
-26.377951 21.653540 -10.039350
-21.653540 21.653540 -10.039350
-21.653540 26.377951 -10.039350
26.377951 21.653540 -10.039350
26.377951 21.653540 4.133850
21.653549 21.653540 4.133850
21.653549 21.653540 -10.039350
26.377951 -21.653549 4.133850
26.377951 21.653540 4.133850
26.377951 21.653540 -10.039350
26.377951 26.377951 -10.039350
26.377951 26.377951 10.039350
26.377951 -26.377951 10.039350
26.377951 -26.377951 -10.039350
26.377951 -21.653549 -10.039350
26.377951 -26.377951 -10.039350
21.653549 -26.377951 -10.039350
21.653549 -21.653549 -10.039350
26.377951 -21.653549 -10.039350
-21.653540 -21.653549 -10.039350
-26.377951 -21.653549 -10.039350
-26.377951 -26.377951 -10.039350
-21.653540 -26.377951 -10.039350
-21.653540 26.377951 -10.039350
-21.653540 21.653540 -10.039350
-26.377951 21.653540 -10.039350
-26.377951 26.377951 -10.039350
21.653549 26.377951 -10.039350
21.653549 26.377951 4.133850
-21.653540 26.377951 4.133850
-21.653540 26.377951 -10.039350
-26.377951 26.377951 -10.039350
-26.377951 26.377951 10.039350
26.377951 26.377951 10.039350
26.377951 26.377951 -10.039350
21.653549 -26.377951 4.133850
-21.653540 -26.377951 4.133850
-21.653540 -21.653549 4.133850
21.653549 -21.653549 4.133850
-26.377951 26.377951 10.039350
-26.377951 26.377951 -10.039350
-26.377951 21.653540 -10.039350
-26.377951 21.653540 4.133850
-26.377951 -21.653549 4.133850
-26.377951 -21.653549 -10.039350
-26.377951 -26.377951 -10.039350
-26.377951 -26.377951 10.039350
21.653549 -26.377951 4.133850
21.653549 -21.653549 4.133850
21.653549 -21.653549 -10.039350
21.653549 -26.377951 -10.039350
-21.653540 21.653540 4.133850
-26.377951 21.653540 4.133850
-26.377951 -21.653549 4.133850
26.377951 -21.653549 4.133850
26.377951 21.653540 4.133850
21.653549 21.653540 4.133850
21.653549 26.377951 4.133850
-21.653540 26.377951 4.133850
-21.653540 -26.377951 4.133850
21.653549 -26.377951 4.133850
21.653549 -26.377951 -10.039350
26.377951 -26.377951 -10.039350
26.377951 -26.377951 10.039350
-26.377951 -26.377951 10.039350
-26.377951 -26.377951 -10.039350
-21.653540 -26.377951 -10.039350
-21.653540 -21.653549 4.133850
-21.653540 -21.653549 -10.039350
-26.377951 -21.653549 -10.039350
-26.377951 -21.653549 4.133850
-26.377951 -26.377951 10.039350
26.377951 -26.377951 10.039350
26.377951 26.377951 10.039350
-26.377951 26.377951 10.039350
26.377951 -21.653549 4.133850
-26.377951 -21.653549 4.133850
-26.377951 21.653540 4.133850
-21.653540 21.653540 4.133850
-21.653540 26.377951 4.133850
21.653549 26.377951 4.133850
21.653549 21.653540 4.133850
26.377951 21.653540 4.133850
-21.653540 -21.653549 4.133850
-21.653540 -26.377951 4.133850
-21.653540 -26.377951 -10.039350
-21.653540 -21.653549 -10.039350
-21.653540 21.653540 -10.039350
-21.653540 21.653540 4.133850
-26.377951 21.653540 4.133850
-26.377951 21.653540 -10.039350
26.377951 -21.653549 4.133850
26.377951 -21.653549 -10.039350
21.653549 -21.653549 -10.039350
21.653549 -21.653549 4.133850
-21.653540 -21.653549 4.133850
21.653549 -21.653549 4.133850
-21.653540 -26.377951 -10.039350
-26.377951 -26.377951 -10.039350
-26.377951 -21.653549 -10.039350
-21.653540 -21.653549 -10.039350
-21.653540 26.377951 4.133850
-21.653540 21.653540 4.133850
-21.653540 21.653540 -10.039350
-21.653540 26.377951 -10.039350
21.653549 21.653540 4.133850
21.653549 26.377951 4.133850
21.653549 26.377951 -10.039350
21.653549 21.653540 -10.039350
26.377951 -21.653549 -10.039350
21.653549 -21.653549 -10.039350
21.653549 -26.377951 -10.039350
26.377951 -26.377951 -10.039350
-21.653540 -26.377951 4.133850
21.653549 -26.377951 4.133850
26.377951 21.653540 -10.039350
21.653549 21.653540 -10.039350
21.653549 26.377951 -10.039350
26.377951 26.377951 -10.039350
26.377951 26.377951 -10.039350
21.653549 26.377951 -10.039350
21.653549 21.653540 -10.039350
26.377951 21.653540 -10.039350
4 0 1 2 3
4 4 5 6 7
8 8 9 10 11 12 13 14 15
4 16 17 18 19
4 20 21 22 23
4 24 25 26 27
8 28 29 30 31 32 33 34 35
4 36 37 38 39
8 40 41 42 43 44 45 46 47
4 48 49 50 51
8 52 53 54 55 56 57 58 59
8 60 61 62 63 64 65 66 67
4 68 69 70 71
4 72 73 74 75
8 76 77 78 79 80 81 82 83
4 84 85 86 87
3 77 76 39
3 77 39 38
4 88 89 90 91
4 92 93 94 95
3 96 97 54
3 97 55 54
4 98 99 100 101
4 102 103 104 105
4 106 107 108 109
4 110 111 112 113
4 97 96 114 115
4 116 117 118 119
4 120 121 122 123
