ply
format ascii 1.0
comment Created by Blender 2.82 (sub 7) - www.blender.org, source file: ''
element vertex 860
property float x
property float y
property float z
element face 243
property list uchar uint vertex_indices
end_header
16.455351 18.774651 -14.709863
16.719049 18.849751 -14.709863
16.913151 19.045349 -14.709863
16.986250 19.308550 -14.709863
16.970051 19.443550 -14.709863
17.609850 19.961950 -14.709863
17.780350 19.299650 -14.709863
17.599449 18.646250 -14.709863
17.123249 18.166550 -14.709863
16.468651 17.980450 -14.709863
15.801150 18.149450 -14.709863
15.522950 18.361050 -14.709863
16.002750 19.030951 -14.709863
16.192850 18.840851 -14.709863
12.154050 -11.259150 14.237363
12.820950 -11.931250 14.237363
12.820950 -11.931250 13.504563
12.154050 -11.259150 13.504563
-9.654550 15.135550 14.237363
-8.983250 15.806850 14.237363
-8.983250 15.806850 13.504563
-9.654550 15.135550 13.504563
16.913151 19.045349 -14.709863
16.913151 19.045349 -13.977021
16.986250 19.308550 -13.977021
16.986250 19.308550 -14.709863
9.535250 14.209450 13.504563
9.769350 13.283950 13.504563
9.769350 13.283950 14.237363
9.535250 14.209450 14.237363
-7.152950 15.790250 13.504563
-7.152950 15.790250 14.237363
-6.480850 15.123350 14.237363
-6.480850 15.123350 13.504563
11.985350 -13.580750 13.504563
11.524750 -13.842850 13.504563
16.474251 -18.434050 -13.977021
16.706551 -18.301950 -13.977021
-8.590150 15.116450 13.504563
-8.073850 15.248950 13.504563
-13.156250 19.824249 -13.977021
-13.416550 19.757450 -13.977021
11.240150 -10.999350 14.237363
11.240150 -10.999350 13.504563
16.919451 19.568850 -13.977021
16.919451 19.568850 -14.709863
10.238350 -13.092550 13.504563
10.229050 -12.552350 13.504563
15.820950 -17.783350 -13.977021
15.825650 -18.055750 -13.977021
-8.065050 16.043051 14.237363
-8.065050 16.043051 13.504563
-13.489150 20.577351 -13.977021
-12.808350 20.570049 -13.977021
-12.808350 20.570049 -14.709863
-13.489150 20.577351 -14.709863
-11.878950 19.647051 -13.977021
-11.878950 19.647051 -14.709863
-12.223750 20.230249 -14.709863
-12.223750 20.230249 -13.977021
-12.747350 -17.466850 -13.977021
-13.009750 -17.400650 -13.977021
-7.912550 -11.793450 13.504563
-7.392050 -11.924750 13.504563
-25.590549 -25.590549 14.237363
-25.590549 25.590549 14.237363
-25.590549 25.590549 14.709863
-25.590549 -25.590549 14.709863
16.986250 19.308550 -13.977021
16.919451 19.568850 -13.977021
12.278450 14.742450 13.504563
12.410950 14.226150 13.504563
-12.697450 19.557051 -13.977021
-12.622350 19.293350 -13.977021
-12.688550 19.030951 -13.977021
-12.770650 18.922951 -13.977021
-13.005050 18.790251 -13.977021
-13.277450 18.794950 -13.977021
-13.514450 18.935150 -13.977021
-13.652650 19.172649 -13.977021
-13.655750 19.443550 -13.977021
-13.523550 19.675850 -13.977021
-13.416550 19.757450 -13.977021
-13.156250 19.824249 -13.977021
-12.893050 19.751249 -13.977021
-25.590549 -25.590549 14.237363
-25.590549 -25.590549 14.709863
25.590549 -25.590549 14.709863
25.590549 -25.590549 14.237363
-6.455050 13.283950 14.237363
-7.131650 12.607350 14.237363
-7.131650 12.607350 13.504563
-6.455050 13.283950 13.504563
-8.926950 -12.582850 13.504563
-13.521350 -17.798750 -13.977021
-13.524450 -18.069651 -13.977021
-8.933250 -13.120050 13.504563
-13.024950 -18.450350 -14.709863
-13.024950 -18.450350 -13.977021
-12.761750 -18.377251 -13.977021
-12.761750 -18.377251 -14.709863
16.337351 -16.606550 -13.977021
16.337351 -16.606550 -14.709863
15.669850 -16.775551 -14.709863
15.669850 -16.775551 -13.977021
12.968850 15.135550 13.504563
12.297550 15.806850 13.504563
12.297550 15.806850 14.237363
12.968850 15.135550 14.237363
-8.839750 -11.259150 14.237363
-8.839750 -11.259150 13.504563
-9.506750 -11.931250 13.504563
-9.506750 -11.931250 14.237363
-13.809050 18.166550 -13.977021
-14.285150 18.646250 -13.977021
-14.285150 18.646250 -14.709863
-13.809050 18.166550 -14.709863
12.952250 13.305250 13.504563
12.952250 13.305250 14.237363
12.285250 12.633150 14.237363
12.285250 12.633150 13.504563
10.445950 12.607350 13.504563
11.371350 12.373250 13.504563
11.371350 12.373250 14.237363
10.445950 12.607350 14.237363
25.590549 25.590549 14.709863
25.590549 25.590549 14.237363
-25.590549 25.590549 14.237363
-25.590549 25.590549 14.709863
-25.590549 -25.590549 14.709863
25.590549 -25.590549 14.709863
25.590549 25.590549 14.709863
-25.590549 25.590549 14.709863
16.837851 19.675850 -14.709863
16.837851 19.675850 -13.977021
16.730850 19.757450 -13.977021
16.470449 19.824249 -13.977021
11.388150 15.248950 13.504563
11.904450 15.116450 13.504563
-7.055450 14.466550 13.504563
-7.046150 13.926250 13.504563
-12.637950 19.157249 -13.977021
-12.642650 19.429750 -13.977021
-7.309250 13.461550 13.504563
-12.770650 18.922951 -13.977021
17.649050 -17.925751 -13.977021
17.478550 -18.588051 -13.977021
17.478550 -18.588051 -14.709863
17.649050 -17.925751 -14.709863
-12.747350 -17.466850 -14.709863
-12.557250 -17.656950 -14.709863
-12.557250 -17.656950 -13.977021
-12.747350 -17.466850 -13.977021
11.247950 -14.669050 13.504563
11.247950 -14.669050 14.237363
10.335950 -14.416350 14.237363
10.335950 -14.416350 13.504563
15.956850 19.429750 -14.709863
15.956850 19.429750 -13.977021
15.952250 19.157249 -13.977021
15.952250 19.157249 -14.709863
12.247450 -13.120050 13.504563
16.838751 -18.069651 -13.977021
-14.295550 19.961950 -13.977021
-14.295550 19.961950 -14.709863
-14.466050 19.299650 -14.709863
-14.466050 19.299650 -13.977021
-6.323850 -11.909950 13.504563
-7.000350 -11.233450 13.504563
-7.000350 -11.233450 14.237363
-6.323850 -11.909950 14.237363
-12.808350 20.570049 -14.709863
-12.223750 20.230249 -14.709863
-11.878950 19.647051 -14.709863
-11.867750 18.962549 -14.709863
-12.208750 18.361050 -14.709863
-12.486950 18.149450 -14.709863
-13.154350 17.980450 -14.709863
-13.809050 18.166550 -14.709863
-14.285150 18.646250 -14.709863
-14.466050 19.299650 -14.709863
-14.425050 19.641451 -14.709863
-13.514450 18.935150 -14.709863
-13.404750 18.849751 -14.709863
-13.141050 18.774651 -14.709863
-12.878650 18.840851 -14.709863
-12.688550 19.030951 -14.709863
-12.622350 19.293350 -14.709863
-12.697450 19.557051 -14.709863
-12.893050 19.751249 -14.709863
-13.156250 19.824249 -14.709863
-13.416550 19.757450 -14.709863
-13.605150 19.568850 -14.709863
-14.295550 19.961950 -14.709863
-14.085450 20.237749 -14.709863
-13.489150 20.577351 -14.709863
15.805250 -17.919350 -13.977021
15.805250 -17.919350 -14.709863
15.871550 -17.656950 -14.709863
15.871550 -17.656950 -13.977021
15.880450 -18.183149 -13.977021
15.880450 -18.183149 -14.709863
15.180150 -17.265249 -13.977021
15.011150 -17.932751 -13.977021
15.197150 -18.587351 -13.977021
15.676950 -19.063450 -13.977021
16.330351 -19.244450 -13.977021
16.672050 -19.203449 -13.977021
15.965850 -18.292749 -13.977021
15.880450 -18.183149 -13.977021
15.825650 -18.055750 -13.977021
10.492250 -12.087550 13.504563
15.953650 -17.548950 -13.977021
16.339149 -18.450350 -13.977021
16.599550 -18.383450 -13.977021
16.599550 -18.383450 -14.709863
16.339149 -18.450350 -14.709863
-6.349550 -13.749350 13.504563
-7.021650 -14.416350 13.504563
-7.933750 -14.669050 13.504563
-8.852050 -14.432850 13.504563
-9.523250 -13.761650 13.504563
-9.759450 -12.843350 13.504563
-9.506750 -11.931250 13.504563
-8.839750 -11.259150 13.504563
-7.925850 -10.999350 13.504563
-8.435550 -11.942450 13.504563
-8.820450 -12.330350 13.504563
-8.965350 -12.852150 13.504563
-8.832850 -13.368450 13.504563
-8.458850 -13.742450 13.504563
-7.942550 -13.874950 13.504563
-7.420750 -13.730050 13.504563
-7.032850 -13.345150 13.504563
-6.883850 -12.822150 13.504563
-7.015150 -12.301650 13.504563
-7.177950 -12.087550 13.504563
-7.642750 -11.824450 13.504563
-8.182950 -11.833750 13.504563
-7.447950 -11.054250 13.504563
-6.616050 -11.525650 13.504563
-6.323850 -11.909950 13.504563
-6.089650 -12.835450 13.504563
16.192850 18.840851 -13.977021
10.837650 13.298750 13.504563
10.460650 13.675650 13.504563
16.002750 19.030951 -13.977021
15.808250 20.437450 -13.977021
15.808250 20.437450 -14.709863
15.328450 19.961349 -14.709863
15.328450 19.961349 -13.977021
-12.557250 -17.656950 -13.977021
-7.015150 -12.301650 13.504563
9.663850 -13.749350 14.237363
9.663850 -13.749350 13.504563
17.609850 19.961950 -14.709863
17.123949 20.447849 -14.709863
17.123949 20.447849 -13.977021
17.609850 19.961950 -13.977021
-13.514450 18.935150 -13.977021
-13.652650 19.172649 -13.977021
-13.655750 19.443550 -13.977021
-13.523550 19.675850 -13.977021
-13.416550 19.757450 -13.977021
-13.156250 19.824249 -13.977021
-12.893050 19.751249 -13.977021
-12.697450 19.557051 -13.977021
-12.622350 19.293350 -13.977021
-12.688550 19.030951 -13.977021
-12.770650 18.922951 -13.977021
-13.005050 18.790251 -13.977021
-12.486950 18.149450 -13.977021
-12.208750 18.361050 -13.977021
-11.867750 18.962549 -13.977021
-11.878950 19.647051 -13.977021
-12.223750 20.230249 -13.977021
-12.808350 20.570049 -13.977021
-13.489150 20.577351 -13.977021
-14.085450 20.237749 -13.977021
-14.295550 19.961950 -13.977021
-14.466050 19.299650 -13.977021
-14.285150 18.646250 -13.977021
-13.809050 18.166550 -13.977021
-13.154350 17.980450 -13.977021
-12.810250 18.020050 -13.977021
16.992649 -19.073851 -13.977021
16.330351 -19.244450 -13.977021
16.330351 -19.244450 -14.709863
16.992649 -19.073851 -14.709863
-12.491050 -17.919350 -13.977021
-6.883850 -12.822150 13.504563
16.334650 19.804951 -14.709863
16.334650 19.804951 -13.977021
16.097151 19.666750 -13.977021
16.097151 19.666750 -14.709863
16.207350 19.751249 -13.977021
16.097151 19.666750 -13.977021
10.647850 14.936450 13.504563
10.866250 15.104050 13.504563
15.801150 18.149450 -14.709863
15.801150 18.149450 -13.977021
15.311450 18.639250 -13.977021
15.311450 18.639250 -14.709863
12.266050 13.704350 13.504563
16.913151 19.045349 -13.977021
16.719049 18.849751 -13.977021
16.719049 18.849751 -14.709863
16.455351 18.774651 -14.709863
16.455351 18.774651 -13.977021
11.497250 -11.833750 13.504563
11.967150 -12.111850 13.504563
16.697350 -17.561251 -13.977021
16.460449 -17.420950 -13.977021
-13.392350 -18.301950 -13.977021
-13.160050 -18.434050 -13.977021
-8.210450 -13.842850 13.504563
-8.671150 -13.580750 13.504563
16.455351 18.774651 -13.977021
16.192850 18.840851 -13.977021
16.002750 19.030951 -13.977021
15.952250 19.157249 -13.977021
15.956850 19.429750 -13.977021
16.097151 19.666750 -13.977021
16.334650 19.804951 -13.977021
16.605551 19.808050 -13.977021
16.837851 19.675850 -13.977021
16.919451 19.568850 -13.977021
16.986250 19.308550 -13.977021
16.913151 19.045349 -13.977021
16.719049 18.849751 -13.977021
15.142450 19.306650 -14.709863
15.142450 19.306650 -13.977021
25.590549 25.590549 14.709863
25.590549 -25.590549 14.709863
25.590549 -25.590549 14.237363
25.590549 25.590549 14.237363
16.076050 -18.377251 -13.977021
16.076050 -18.377251 -14.709863
-7.552050 15.104050 13.504563
-12.893050 19.751249 -13.977021
-8.964150 14.742450 13.504563
-13.605150 19.568850 -13.977021
-14.334850 -17.925751 -14.709863
-14.334850 -17.925751 -13.977021
-14.153850 -17.272350 -13.977021
-14.153850 -17.272350 -14.709863
-13.467650 -17.671350 -13.977021
-13.273550 -17.475750 -13.977021
-13.009750 -17.400650 -13.977021
-12.747350 -17.466850 -13.977021
-12.557250 -17.656950 -13.977021
-12.491050 -17.919350 -13.977021
-12.566150 -18.183149 -13.977021
-12.761750 -18.377251 -13.977021
-13.024950 -18.450350 -13.977021
-13.285250 -18.383450 -13.977021
-13.473850 -18.194851 -13.977021
-13.540650 -17.934549 -13.977021
-12.092450 -18.856251 -13.977021
-12.092450 -18.856251 -14.709863
-11.747650 -18.273050 -14.709863
-11.747650 -18.273050 -13.977021
-13.154350 17.980450 -14.709863
-13.154350 17.980450 -13.977021
-13.655750 19.443550 -13.977021
-13.655750 19.443550 -14.709863
-13.523550 19.675850 -14.709863
-13.523550 19.675850 -13.977021
-13.357850 -19.203449 -14.709863
-13.357850 -19.203449 -13.977021
-13.954150 -18.863750 -13.977021
-13.954150 -18.863750 -14.709863
-12.566150 -18.183149 -13.977021
-12.491050 -17.919350 -13.977021
-12.491050 -17.919350 -14.709863
-12.566150 -18.183149 -14.709863
17.780350 19.299650 -13.977021
17.780350 19.299650 -14.709863
-12.688550 19.030951 -13.977021
-12.622350 19.293350 -13.977021
-12.622350 19.293350 -14.709863
-12.688550 19.030951 -14.709863
16.334650 19.804951 -14.709863
16.097151 19.666750 -14.709863
15.956850 19.429750 -14.709863
15.952250 19.157249 -14.709863
15.311450 18.639250 -14.709863
15.142450 19.306650 -14.709863
15.328450 19.961349 -14.709863
15.808250 20.437450 -14.709863
16.461651 20.618349 -14.709863
17.123949 20.447849 -14.709863
16.837851 19.675850 -14.709863
16.605551 19.808050 -14.709863
-7.773950 13.198350 13.504563
-13.005050 18.790251 -13.977021
-13.009750 -17.400650 -14.709863
-13.009750 -17.400650 -13.977021
-7.933750 -14.669050 14.237363
-7.933750 -14.669050 13.504563
-7.021650 -14.416350 13.504563
-7.021650 -14.416350 14.237363
11.881050 13.316350 13.504563
16.719049 18.849751 -13.977021
-12.651650 -18.292749 -13.977021
-12.566150 -18.183149 -13.977021
-7.032850 -13.345150 13.504563
-7.202250 -13.562550 13.504563
10.987450 -13.836550 13.504563
16.203350 -18.430950 -13.977021
10.516550 -13.562550 13.504563
15.965850 -18.292749 -13.977021
16.854950 -17.934549 -13.977021
16.788151 -18.194851 -13.977021
16.706551 -18.301950 -13.977021
16.474251 -18.434050 -13.977021
16.203350 -18.430950 -13.977021
17.268351 -18.863750 -13.977021
17.478550 -18.588051 -13.977021
17.649050 -17.925751 -13.977021
17.468149 -17.272350 -13.977021
16.992050 -16.792549 -13.977021
16.337351 -16.606550 -13.977021
15.669850 -16.775551 -13.977021
15.820950 -17.783350 -13.977021
15.953650 -17.548950 -13.977021
16.061550 -17.466850 -13.977021
16.324051 -17.400650 -13.977021
16.587749 -17.475750 -13.977021
16.781851 -17.671350 -13.977021
12.116650 14.954650 13.504563
11.656050 15.216850 13.504563
11.118750 15.210550 13.504563
10.647850 14.936450 13.504563
10.478350 14.719050 13.504563
9.590150 13.731550 13.504563
9.535250 14.209450 13.504563
9.795150 15.123350 13.504563
10.467250 15.790250 13.504563
11.379250 16.043051 13.504563
12.297550 15.806850 13.504563
12.968850 15.135550 13.504563
13.205050 14.217350 13.504563
12.952250 13.305250 13.504563
12.285250 12.633150 13.504563
11.371350 12.373250 13.504563
10.445950 12.607350 13.504563
9.769350 13.283950 13.504563
10.369650 14.466550 13.504563
10.360350 13.926250 13.504563
10.623550 13.461550 13.504563
10.837650 13.298750 13.504563
11.358050 13.167350 13.504563
11.881050 13.316350 13.504563
12.266050 13.704350 13.504563
12.410950 14.226150 13.504563
12.278450 14.742450 13.504563
25.590549 25.590549 14.237363
25.590549 -25.590549 14.237363
25.590549 -25.590549 14.709863
25.590549 25.590549 14.709863
-13.005050 18.790251 -13.977021
-13.005050 18.790251 -14.709863
-13.277450 18.794950 -14.709863
-13.277450 18.794950 -13.977021
-25.590549 25.590549 14.709863
-25.590549 25.590549 14.237363
25.590549 25.590549 14.237363
25.590549 25.590549 14.709863
-8.971050 12.633150 14.237363
-9.638050 13.305250 14.237363
-9.638050 13.305250 13.504563
-8.971050 12.633150 13.504563
-12.077450 -16.987049 -14.709863
-12.355650 -16.775551 -14.709863
-12.355650 -16.775551 -13.977021
-12.077450 -16.987049 -13.977021
-14.164250 -18.588051 -14.709863
-14.164250 -18.588051 -13.977021
9.403950 -12.835450 14.237363
9.403950 -12.835450 13.504563
-13.156250 19.824249 -13.977021
-13.416550 19.757450 -13.977021
-13.416550 19.757450 -14.709863
-13.156250 19.824249 -14.709863
16.455351 18.774651 -13.977021
11.358050 13.167350 13.504563
-12.889150 -18.430950 -13.977021
-7.673250 -13.836550 13.504563
-9.096650 14.226150 13.504563
-13.671950 19.308550 -13.977021
10.956950 -11.824450 13.504563
16.187950 -17.416250 -13.977021
-12.557250 -17.656950 -14.709863
-12.747350 -17.466850 -14.709863
-13.009750 -17.400650 -14.709863
-13.273550 -17.475750 -14.709863
-13.467650 -17.671350 -14.709863
-13.540650 -17.934549 -14.709863
-13.473850 -18.194851 -14.709863
-13.285250 -18.383450 -14.709863
-13.024950 -18.450350 -14.709863
-12.761750 -18.377251 -14.709863
-12.566150 -18.183149 -14.709863
-11.736450 -17.588650 -14.709863
-11.747650 -18.273050 -14.709863
-12.092450 -18.856251 -14.709863
-12.677050 -19.196051 -14.709863
-13.357850 -19.203449 -14.709863
-13.954150 -18.863750 -14.709863
-14.164250 -18.588051 -14.709863
-14.334850 -17.925751 -14.709863
-14.153850 -17.272350 -14.709863
-13.677750 -16.792549 -14.709863
-13.023150 -16.606550 -14.709863
-12.355650 -16.775551 -14.709863
-11.865950 -17.265249 -14.709863
-12.491050 -17.919350 -14.709863
10.467250 15.790250 14.237363
10.467250 15.790250 13.504563
9.795150 15.123350 13.504563
9.795150 15.123350 14.237363
-6.089650 -12.835450 14.237363
-6.089650 -12.835450 13.504563
16.461651 20.618349 -14.709863
16.461651 20.618349 -13.977021
16.706551 -18.301950 -14.709863
16.838751 -18.069651 -14.709863
17.478550 -18.588051 -14.709863
16.992649 -19.073851 -14.709863
16.330351 -19.244450 -14.709863
15.676950 -19.063450 -14.709863
15.197150 -18.587351 -14.709863
15.011150 -17.932751 -14.709863
15.180150 -17.265249 -14.709863
15.669850 -16.775551 -14.709863
16.337351 -16.606550 -14.709863
16.992050 -16.792549 -14.709863
17.468149 -17.272350 -14.709863
17.649050 -17.925751 -14.709863
17.608049 -18.267450 -14.709863
16.854950 -17.934549 -14.709863
16.781851 -17.671350 -14.709863
16.587749 -17.475750 -14.709863
16.324051 -17.400650 -14.709863
16.061550 -17.466850 -14.709863
15.871550 -17.656950 -14.709863
15.805250 -17.919350 -14.709863
15.880450 -18.183149 -14.709863
16.076050 -18.377251 -14.709863
16.339149 -18.450350 -14.709863
16.599550 -18.383450 -14.709863
-14.085450 20.237749 -14.709863
-14.085450 20.237749 -13.977021
12.241250 -12.582850 13.504563
16.835550 -17.798750 -13.977021
-8.652950 -12.111850 13.504563
-13.383150 -17.561251 -13.977021
-8.852050 -14.432850 14.237363
-7.933750 -14.669050 14.237363
-7.021650 -14.416350 14.237363
-6.349550 -13.749350 14.237363
-6.089650 -12.835450 14.237363
-6.323850 -11.909950 14.237363
-7.000350 -11.233450 14.237363
-7.925850 -10.999350 14.237363
-8.839750 -11.259150 14.237363
-9.506750 -11.931250 14.237363
-9.759450 -12.843350 14.237363
-9.523250 -13.761650 14.237363
11.240150 -10.999350 14.237363
10.314650 -11.233450 14.237363
9.638050 -11.909950 14.237363
9.403950 -12.835450 14.237363
9.663850 -13.749350 14.237363
10.335950 -14.416350 14.237363
11.247950 -14.669050 14.237363
12.166250 -14.432850 14.237363
12.837550 -13.761650 14.237363
13.073750 -12.843350 14.237363
12.820950 -11.931250 14.237363
12.154050 -11.259150 14.237363
16.992050 -16.792549 -13.977021
16.992050 -16.792549 -14.709863
-13.023150 -16.606550 -14.709863
-13.023150 -16.606550 -13.977021
-12.486950 18.149450 -13.977021
-12.486950 18.149450 -14.709863
-13.514450 18.935150 -13.977021
-8.784150 13.485850 13.504563
-8.951750 13.704350 13.504563
-13.598950 19.045349 -13.977021
15.180150 -17.265249 -13.977021
15.180150 -17.265249 -14.709863
-6.220950 14.209450 14.237363
-6.220950 14.209450 13.504563
-8.057150 12.373250 14.237363
-8.057150 12.373250 13.504563
-13.677750 -16.792549 -14.709863
-13.677750 -16.792549 -13.977021
-12.677050 -19.196051 -13.977021
-12.677050 -19.196051 -14.709863
15.956850 19.429750 -13.977021
15.936550 19.293350 -13.977021
10.329350 14.196150 13.504563
10.369650 14.466550 13.504563
-11.736450 -17.588650 -14.709863
-11.736450 -17.588650 -13.977021
16.002750 19.030951 -14.709863
16.002750 19.030951 -13.977021
-12.208750 18.361050 -13.977021
-12.208750 18.361050 -14.709863
16.192850 18.840851 -14.709863
16.192850 18.840851 -13.977021
-13.473850 -18.194851 -14.709863
-13.473850 -18.194851 -13.977021
-13.285250 -18.383450 -13.977021
-13.285250 -18.383450 -14.709863
-8.314250 13.207750 13.504563
-13.277450 18.794950 -13.977021
-13.273550 -17.475750 -13.977021
-13.273550 -17.475750 -14.709863
-8.435550 -11.942450 13.504563
-13.273550 -17.475750 -13.977021
25.590549 25.590549 14.237363
-25.590549 25.590549 14.237363
-25.590549 -25.590549 14.237363
25.590549 -25.590549 14.237363
-13.514450 18.935150 -14.709863
-13.514450 18.935150 -13.977021
16.461651 20.618349 -13.977021
15.808250 20.437450 -13.977021
15.328450 19.961349 -13.977021
15.142450 19.306650 -13.977021
15.311450 18.639250 -13.977021
15.801150 18.149450 -13.977021
16.468651 17.980450 -13.977021
17.123249 18.166550 -13.977021
17.599449 18.646250 -13.977021
17.780350 19.299650 -13.977021
17.609850 19.961950 -13.977021
16.837851 19.675850 -13.977021
16.919451 19.568850 -13.977021
16.986250 19.308550 -13.977021
16.913151 19.045349 -13.977021
16.719049 18.849751 -13.977021
16.455351 18.774651 -13.977021
16.192850 18.840851 -13.977021
16.002750 19.030951 -13.977021
15.952250 19.157249 -13.977021
15.956850 19.429750 -13.977021
16.097151 19.666750 -13.977021
16.334650 19.804951 -13.977021
16.605551 19.808050 -13.977021
16.730850 19.757450 -13.977021
17.399651 20.237749 -13.977021
17.123949 20.447849 -13.977021
17.123249 18.166550 -14.709863
17.123249 18.166550 -13.977021
16.468651 17.980450 -13.977021
16.468651 17.980450 -14.709863
17.468149 -17.272350 -13.977021
17.468149 -17.272350 -14.709863
12.837550 -13.761650 14.237363
12.166250 -14.432850 14.237363
12.166250 -14.432850 13.504563
12.837550 -13.761650 13.504563
17.599449 18.646250 -14.709863
17.599449 18.646250 -13.977021
15.011150 -17.932751 -14.709863
15.011150 -17.932751 -13.977021
16.788151 -18.194851 -13.977021
16.854950 -17.934549 -13.977021
16.854950 -17.934549 -14.709863
16.788151 -18.194851 -14.709863
-9.759450 -12.843350 13.504563
-9.523250 -13.761650 13.504563
-9.523250 -13.761650 14.237363
-9.759450 -12.843350 14.237363
13.073750 -12.843350 13.504563
13.073750 -12.843350 14.237363
25.590549 -25.590549 14.237363
-25.590549 -25.590549 14.237363
-25.590549 25.590549 14.237363
25.590549 25.590549 14.237363
16.587749 -17.475750 -14.709863
16.781851 -17.671350 -14.709863
16.781851 -17.671350 -13.977021
16.587749 -17.475750 -13.977021
-12.782950 19.666750 -13.977021
-7.333550 14.936450 13.504563
15.197150 -18.587351 -13.977021
15.197150 -18.587351 -14.709863
15.676950 -19.063450 -14.709863
15.676950 -19.063450 -13.977021
-14.164250 -18.588051 -13.977021
-13.678450 -19.073851 -13.977021
-12.761750 -18.377251 -13.977021
-13.024950 -18.450350 -13.977021
-13.285250 -18.383450 -13.977021
-13.473850 -18.194851 -13.977021
-13.540650 -17.934549 -13.977021
9.535250 14.209450 14.237363
9.769350 13.283950 14.237363
10.445950 12.607350 14.237363
11.371350 12.373250 14.237363
12.285250 12.633150 14.237363
12.952250 13.305250 14.237363
13.205050 14.217350 14.237363
12.968850 15.135550 14.237363
12.297550 15.806850 14.237363
11.379250 16.043051 14.237363
10.467250 15.790250 14.237363
9.795150 15.123350 14.237363
11.379250 16.043051 13.504563
11.379250 16.043051 14.237363
-12.092450 -18.856251 -13.977021
-11.747650 -18.273050 -13.977021
-11.736450 -17.588650 -13.977021
-12.077450 -16.987049 -13.977021
-12.355650 -16.775551 -13.977021
-13.023150 -16.606550 -13.977021
-13.677750 -16.792549 -13.977021
-14.153850 -17.272350 -13.977021
-14.334850 -17.925751 -13.977021
-13.467650 -17.671350 -13.977021
-13.273550 -17.475750 -13.977021
-13.009750 -17.400650 -13.977021
-12.747350 -17.466850 -13.977021
-12.557250 -17.656950 -13.977021
-12.491050 -17.919350 -13.977021
-12.566150 -18.183149 -13.977021
-13.357850 -19.203449 -13.977021
-12.677050 -19.196051 -13.977021
-8.852050 -14.432850 13.504563
-8.852050 -14.432850 14.237363
10.314650 -11.233450 14.237363
10.314650 -11.233450 13.504563
9.638050 -11.909950 14.237363
9.638050 -11.909950 13.504563
-13.652650 19.172649 -14.709863
-13.652650 19.172649 -13.977021
-13.652650 19.172649 -14.709863
-13.655750 19.443550 -14.709863
16.324051 -17.400650 -14.709863
16.324051 -17.400650 -13.977021
16.587749 -17.475750 -13.977021
16.781851 -17.671350 -13.977021
16.854950 -17.934549 -13.977021
16.788151 -18.194851 -13.977021
16.599550 -18.383450 -13.977021
16.339149 -18.450350 -13.977021
16.076050 -18.377251 -13.977021
15.880450 -18.183149 -13.977021
15.805250 -17.919350 -13.977021
15.871550 -17.656950 -13.977021
16.061550 -17.466850 -13.977021
16.324051 -17.400650 -13.977021
-12.770650 18.922951 -13.977021
-12.770650 18.922951 -14.709863
16.605551 19.808050 -13.977021
16.605551 19.808050 -14.709863
-6.349550 -13.749350 13.504563
-6.349550 -13.749350 14.237363
-25.590549 25.590549 14.709863
25.590549 25.590549 14.709863
25.590549 -25.590549 14.709863
-25.590549 -25.590549 14.709863
-13.467650 -17.671350 -13.977021
-13.467650 -17.671350 -14.709863
-13.540650 -17.934549 -14.709863
-13.540650 -17.934549 -13.977021
-12.697450 19.557051 -13.977021
-12.697450 19.557051 -14.709863
-7.579250 12.428150 13.504563
-8.314250 13.207750 13.504563
-7.773950 13.198350 13.504563
-7.131650 12.607350 13.504563
16.061550 -17.466850 -13.977021
16.061550 -17.466850 -14.709863
-7.152950 15.790250 13.504563
-6.480850 15.123350 13.504563
-6.220950 14.209450 13.504563
-6.455050 13.283950 13.504563
-7.309250 13.461550 13.504563
-7.146450 13.675650 13.504563
-7.015050 14.196150 13.504563
-7.164150 14.719050 13.504563
-7.552050 15.104050 13.504563
-8.073850 15.248950 13.504563
-8.590150 15.116450 13.504563
-8.964150 14.742450 13.504563
-9.096650 14.226150 13.504563
-8.951750 13.704350 13.504563
-8.566750 13.316350 13.504563
-8.057150 12.373250 13.504563
-8.971050 12.633150 13.504563
-9.638050 13.305250 13.504563
-9.890750 14.217350 13.504563
-9.654550 15.135550 13.504563
-8.983250 15.806850 13.504563
-8.065050 16.043051 13.504563
-11.867750 18.962549 -13.977021
-11.867750 18.962549 -14.709863
-12.893050 19.751249 -13.977021
-12.893050 19.751249 -14.709863
25.590549 -25.590549 14.237363
25.590549 -25.590549 14.709863
-25.590549 -25.590549 14.709863
-25.590549 -25.590549 14.237363
13.205050 14.217350 13.504563
13.205050 14.217350 14.237363
-6.455050 13.283950 14.237363
-6.220950 14.209450 14.237363
-6.480850 15.123350 14.237363
-7.152950 15.790250 14.237363
-8.065050 16.043051 14.237363
-8.983250 15.806850 14.237363
-9.654550 15.135550 14.237363
-9.890750 14.217350 14.237363
-9.638050 13.305250 14.237363
-8.971050 12.633150 14.237363
-8.057150 12.373250 14.237363
-7.131650 12.607350 14.237363
12.279650 -12.852150 13.504563
12.134750 -12.330350 13.504563
13.016750 -13.317850 13.504563
12.837550 -13.761650 13.504563
12.247450 -13.120050 13.504563
-9.890750 14.217350 14.237363
-9.890750 14.217350 13.504563
12.166250 -14.432850 13.504563
11.247950 -14.669050 13.504563
10.335950 -14.416350 13.504563
9.663850 -13.749350 13.504563
9.403950 -12.835450 13.504563
9.638050 -11.909950 13.504563
10.314650 -11.233450 13.504563
11.240150 -10.999350 13.504563
12.154050 -11.259150 13.504563
12.820950 -11.931250 13.504563
13.073750 -12.843350 13.504563
11.967150 -12.111850 13.504563
11.497250 -11.833750 13.504563
10.956950 -11.824450 13.504563
10.492250 -12.087550 13.504563
10.329450 -12.301650 13.504563
10.198050 -12.822150 13.504563
10.347050 -13.345150 13.504563
10.734950 -13.730050 13.504563
11.256850 -13.874950 13.504563
11.773150 -13.742450 13.504563
11.985350 -13.580750 13.504563
-13.277450 18.794950 -13.977021
-25.590549 -25.590549 14.709863
-25.590549 25.590549 14.709863
-25.590549 25.590549 14.237363
-25.590549 -25.590549 14.237363
-7.925850 -10.999350 14.237363
-7.925850 -10.999350 13.504563
14 0 1 2 3 4 5 6 7 8 9 10 11 12 13
4 14 15 16 17
4 18 19 20 21
4 22 23 24 25
4 26 27 28 29
4 30 31 32 33
4 34 35 36 37
4 38 39 40 41
4 42 14 17 43
4 25 24 44 45
4 46 47 48 49
4 19 50 51 20
4 52 53 54 55
4 56 57 58 59
4 60 61 62 63
4 64 65 66 67
4 68 69 70 71
13 72 73 74 75 76 77 78 79 80 81 82 83 84
4 85 86 87 88
4 89 90 91 92
4 93 94 95 96
4 97 98 99 100
4 101 102 103 104
4 105 106 107 108
4 109 110 111 112
4 113 114 115 116
4 117 118 119 120
4 121 122 123 124
4 125 126 127 128
4 129 130 131 132
4 133 45 44 134
4 58 54 53 59
4 135 136 137 138
4 139 140 141 142
4 143 144 141 140
4 145 146 147 148
4 149 150 151 152
4 153 154 155 156
4 157 158 159 160
4 161 34 37 162
4 163 164 165 166
4 167 168 169 170
25 171 172 173 174 175 176 177 178 179 180 181 182 183 184 185 186 187 188 189 190 191 192 193 194 195
4 196 197 198 199
4 51 50 31 30
4 197 196 200 201
9 202 203 204 205 206 207 208 209 210
4 211 212 48 47
4 213 214 215 216
26 217 218 219 220 221 222 223 224 225 226 227 228 229 230 231 232 233 234 235 236 237 238 239 240 241 242
4 243 244 245 246
4 247 248 249 250
4 251 60 63 252
4 156 155 253 254
4 255 256 257 258
26 259 260 261 262 263 264 265 266 267 268 269 270 271 272 273 274 275 276 277 278 279 280 281 282 283 284
4 285 286 287 288
4 289 251 252 290
4 291 292 293 294
4 295 296 297 298
4 299 300 301 302
4 68 71 303 304
4 305 306 307 308
4 309 310 311 312
4 313 314 315 316
13 317 318 319 320 321 322 323 324 325 326 327 328 329
4 330 302 301 331
4 332 333 334 335
4 201 200 336 337
4 39 338 339 40
4 340 38 41 341
4 342 343 344 345
12 346 347 348 349 350 351 352 353 354 355 356 357
4 358 359 360 361
4 113 116 362 363
4 364 365 366 367
4 368 369 370 371
4 372 373 374 375
4 255 258 376 377
4 378 379 380 381
16 382 383 384 385 12 11 386 387 388 389 390 391 5 4 392 393
4 394 395 144 143
4 396 149 152 397
4 398 399 400 401
4 402 403 304 303
4 404 405 406 407
4 35 408 409 36
4 408 410 411 409
22 412 413 414 415 416 208 207 417 418 419 420 421 422 423 202 210 424 425 426 427 428 429
4 213 216 337 336
4 405 289 290 406
27 430 431 432 433 434 435 436 437 438 439 440 441 442 443 444 445 446 447 448 449 450 451 452 453 454 455 456
4 457 458 459 460
4 461 462 463 464
4 465 466 467 468
4 469 470 471 472
4 473 474 475 476
4 477 371 370 478
4 479 480 254 253
4 481 482 483 484
4 435 434 448 447
4 243 485 486 244
4 314 487 488 315
4 489 340 341 490
4 211 491 492 212
25 493 494 495 496 497 498 499 500 501 502 503 504 505 506 507 508 509 510 511 512 513 514 515 516 517
4 503 517 516 504
4 518 519 520 521
4 167 170 522 523
4 256 524 525 257
26 526 527 528 529 530 531 532 533 534 535 536 537 538 539 540 541 542 543 544 545 546 547 548 549 550 551
4 52 55 552 553
4 311 310 554 555
4 541 540 528 527
4 94 93 556 557
12 558 559 560 561 562 563 564 565 566 567 568 569
4 525 524 248 247
12 570 571 572 573 574 575 576 577 578 579 580 581
4 582 583 102 101
4 584 585 475 474
4 374 373 151 150
4 586 363 362 587
4 491 309 312 492
4 588 589 590 591
4 592 104 103 593
4 594 89 92 595
4 90 596 597 91
4 598 599 585 584
4 158 157 294 293
4 600 601 359 358
4 410 46 49 411
4 602 603 604 605
4 606 473 476 607
4 368 601 600 369
4 608 160 159 609
4 345 344 599 598
4 610 586 587 611
4 612 608 609 613
4 136 295 298 137
4 614 615 616 617
4 618 589 588 619
4 620 621 396 397
4 557 556 622 623
4 100 99 372 375
4 520 26 29 521
4 624 625 626 627
4 482 367 366 483
4 464 463 628 629
4 163 553 552 164
27 630 631 632 633 634 635 636 637 638 639 640 641 642 643 644 645 646 647 648 649 650 651 652 653 654 655 656
4 606 607 361 360
4 657 658 659 660
4 487 404 407 488
4 582 661 662 583
4 655 654 641 640
4 27 121 124 28
4 663 664 665 666
4 658 657 667 668
4 592 593 669 670
4 120 119 123 122
4 145 148 662 661
4 69 135 138 70
4 394 618 619 395
4 671 672 673 674
4 675 676 677 678
4 376 668 667 377
4 95 313 316 96
4 663 666 679 680
4 681 682 683 684
4 685 686 687 688
4 139 142 689 690
4 486 485 403 402
4 691 692 693 694
7 695 696 697 698 699 700 701
12 702 703 704 705 706 707 708 709 710 711 712 713
4 714 519 518 715
22 716 717 718 719 720 721 722 723 724 695 701 725 726 727 728 729 730 731 697 696 732 733
4 676 734 735 677
4 736 42 43 737
4 664 154 153 665
4 479 738 739 480
4 628 740 741 629
4 15 680 679 16
4 590 489 490 591
6 742 182 181 193 192 743
4 296 602 605 297
4 106 714 715 107
4 670 669 692 691
4 744 685 688 745
4 603 246 245 604
12 746 747 748 749 750 751 752 753 754 755 756 757
4 338 690 689 339
4 686 673 672 687
4 461 758 759 462
4 133 134 760 761
4 738 736 737 739
4 762 523 522 763
4 764 765 766 767
4 307 612 613 308
4 675 678 112 111
4 768 769 621 620
4 660 659 300 299
4 614 770 771 615
4 694 693 287 286
4 772 773 380 379
4 617 616 98 97
4 760 292 291 761
4 306 305 23 22
4 774 775 776 777
4 745 778 779 744
4 239 238 226 225
4 758 378 381 759
4 555 554 161 162
26 780 781 782 783 777 776 784 785 786 787 788 789 790 791 792 793 794 775 774 795 796 797 798 799 800 801
4 401 400 762 763
4 342 477 478 343
4 802 803 57 56
4 804 805 773 772
4 146 285 288 147
4 806 807 808 809
4 778 199 198 779
4 250 249 330 331
4 33 32 594 595
4 734 399 398 735
4 364 741 740 365
4 810 811 118 117
4 214 671 674 215
12 812 813 814 815 816 817 818 819 820 821 822 823
4 115 114 166 165
5 824 825 826 827 828
4 829 18 21 830
26 827 831 832 833 834 835 836 837 838 839 840 841 826 825 842 843 844 845 846 847 848 849 850 851 852 828
4 481 484 805 804
5 853 259 284 271 270
4 810 105 108 811
4 802 610 611 803
4 769 768 771 770
4 470 829 830 471
4 854 855 856 857
4 110 109 858 859
4 168 859 858 169
4 62 61 623 622
4 596 469 472 597
