ply
format ascii 1.0
comment Created by Blender 2.82 (sub 7) - www.blender.org, source file: ''
element vertex 312
property float x
property float y
property float z
element face 74
property list uchar uint vertex_indices
end_header
-8.297039 15.727950 -14.370100
-8.297039 15.727950 13.189000
-9.084439 15.938950 13.189000
-9.084439 15.938950 -14.370100
-4.305439 -11.543750 13.189000
-4.622439 -12.294750 13.189000
-4.622439 -12.294750 -14.370100
-4.305439 -11.543750 -14.370100
-4.609539 -10.377450 -14.370100
-5.252839 -9.876850 -14.370100
-5.252839 -9.876850 13.189000
-4.609539 -10.377450 13.189000
-7.183439 18.416309 13.189000
-7.889439 18.823900 13.189000
-8.704639 18.823900 13.189000
-9.410639 18.416309 13.189000
-9.818139 17.710350 13.189000
-13.926139 17.758631 13.189000
-12.067739 21.323009 13.189000
-7.671039 25.414980 13.189000
-2.009939 27.421890 13.189000
5.881241 26.339830 13.189000
10.793151 22.883110 13.189000
14.475469 15.820450 13.189000
10.234431 16.630449 13.189000
9.826211 16.679050 13.189000
-6.775939 16.895149 13.189000
-6.722239 17.302750 13.189000
-6.933239 18.090160 13.189000
4.269961 -11.816150 13.189000
4.269961 -11.816150 -14.370100
4.529561 -12.588850 -14.370100
4.529561 -12.588850 13.189000
13.926113 17.758631 14.370100
14.475469 15.820450 14.370100
14.475469 15.820450 13.189000
13.926113 17.758631 13.189000
13.118541 19.604231 13.189000
12.067721 21.323009 13.189000
10.793151 22.883110 13.189000
10.793151 22.883110 14.370100
12.067721 21.323009 14.370100
13.118541 19.604231 14.370100
5.743631 -10.146250 -14.370100
4.970901 -10.405950 -14.370100
4.970901 -10.405950 13.189000
5.743631 -10.146250 13.189000
-6.060339 -9.764950 -14.370100
-6.815539 -10.071850 -14.370100
-6.815539 -10.071850 13.189000
-6.060339 -9.764950 13.189000
-7.183439 18.416309 -14.370100
-6.933239 18.090160 -14.370100
-6.722239 17.302750 -14.370100
-6.933239 16.515350 -14.370100
-7.509639 15.938950 -14.370100
-8.297039 15.727950 -14.370100
-9.084439 15.938950 -14.370100
-9.660839 16.515350 -14.370100
-9.871839 17.302750 -14.370100
-9.660839 18.090160 -14.370100
-9.410639 18.416309 -14.370100
-8.704639 18.823900 -14.370100
-7.889439 18.823900 -14.370100
6.343241 -13.210850 -14.370100
6.343241 -13.210850 13.189000
5.529641 -13.261650 13.189000
5.529641 -13.261650 -14.370100
-9.871839 17.302750 13.189000
-9.660839 18.090160 13.189000
-9.660839 18.090160 -14.370100
-9.871839 17.302750 -14.370100
-7.889439 18.823900 -14.370100
-8.704639 18.823900 -14.370100
-8.704639 18.823900 13.189000
-7.889439 18.823900 13.189000
-1.331639 -27.454451 14.370100
-1.331639 -27.454451 13.189000
2.630461 -27.143150 13.189000
2.630461 -27.143150 14.370100
6.883751 -10.537250 -14.370100
6.153771 -10.174450 -14.370100
6.153771 -10.174450 13.189000
6.883751 -10.537250 13.189000
4.431461 -11.017150 13.189000
4.431461 -11.017150 -14.370100
-7.509639 15.938950 13.189000
-7.509639 15.938950 -14.370100
-6.933239 16.515350 -14.370100
-6.933239 16.515350 13.189000
11.719591 -12.655650 13.189000
6.542641 -10.307850 13.189000
5.743631 -10.146250 13.189000
-5.252839 -9.876850 13.189000
-5.649239 -9.767750 13.189000
12.592021 -9.681750 13.189000
7.334511 -11.216550 13.189000
7.334511 -11.216550 -14.370100
-7.425239 -11.111550 13.189000
-7.108239 -10.360550 13.189000
-7.108239 -10.360550 -14.370100
-7.425239 -11.111550 -14.370100
9.865131 13.529650 13.189000
9.865131 13.529650 -14.370100
10.649871 13.750350 -14.370100
10.649871 13.750350 13.189000
-13.926139 17.758631 14.370100
-12.067739 21.323009 14.370100
-12.067739 21.323009 13.189000
-13.926139 17.758631 13.189000
-6.060339 -9.764950 -14.370100
-5.252839 -9.876850 -14.370100
-4.609539 -10.377450 -14.370100
-4.406339 -10.734850 -14.370100
-4.305439 -11.543750 -14.370100
-4.622439 -12.294750 -14.370100
-4.915139 -12.583550 -14.370100
-5.670339 -12.890350 -14.370100
-6.477839 -12.778550 -14.370100
-6.832439 -12.570550 -14.370100
-7.324339 -11.920450 -14.370100
-7.425239 -11.111550 -14.370100
-7.108239 -10.360550 -14.370100
-6.815539 -10.071850 -14.370100
-6.477839 -12.778550 -14.370100
-6.477839 -12.778550 13.189000
-6.832439 -12.570550 13.189000
-6.832439 -12.570550 -14.370100
-4.406339 -10.734850 13.189000
-4.406339 -10.734850 -14.370100
7.022451 -12.760050 -14.370100
7.022451 -12.760050 13.189000
5.140771 -13.128250 13.189000
5.140771 -13.128250 -14.370100
-9.660839 16.515350 13.189000
-9.660839 16.515350 -14.370100
10.945381 16.231550 -14.370100
11.361661 15.530750 -14.370100
11.371741 14.715550 -14.370100
11.219121 14.333850 -14.370100
10.649871 13.750350 -14.370100
9.865131 13.529650 -14.370100
9.456911 13.578250 -14.370100
8.745971 13.977150 -14.370100
8.329681 14.677950 -14.370100
8.319611 15.493150 -14.370100
8.472231 15.874850 -14.370100
9.041481 16.458349 -14.370100
9.826211 16.679050 -14.370100
10.234431 16.630449 -14.370100
-3.864839 -26.632750 14.370100
-3.864839 -26.632750 13.189000
-7.183439 18.416309 13.189000
-6.933239 18.090160 13.189000
-6.933239 18.090160 -14.370100
-7.183439 18.416309 -14.370100
-9.410639 18.416309 13.189000
-9.410639 18.416309 -14.370100
14.756421 13.825550 14.370100
14.854876 5.614850 14.370100
14.685927 2.520250 14.370100
14.374352 -0.563250 14.370100
13.920815 -3.629150 14.370100
13.326281 -6.670750 14.370100
12.592021 -9.681750 14.370100
11.719591 -12.655650 14.370100
10.710861 -15.586150 14.370100
9.567971 -18.466949 14.370100
8.293361 -21.291950 14.370100
6.889741 -24.055149 14.370100
6.889741 -24.055149 13.189000
8.293361 -21.291950 13.189000
9.567971 -18.466949 13.189000
10.710861 -15.586150 13.189000
11.719591 -12.655650 13.189000
12.592021 -9.681750 13.189000
13.326281 -6.670750 13.189000
13.920815 -3.629150 13.189000
14.374352 -0.563250 13.189000
14.685927 2.520250 13.189000
14.854876 5.614850 13.189000
14.756421 13.825550 13.189000
8.329681 14.677950 13.189000
8.319611 15.493150 13.189000
8.319611 15.493150 -14.370100
8.329681 14.677950 -14.370100
10.234431 16.630449 -14.370100
9.826211 16.679050 -14.370100
9.826211 16.679050 13.189000
10.234431 16.630449 13.189000
5.881241 26.339830 13.189000
5.881241 26.339830 14.370100
11.371741 14.715550 13.189000
11.219121 14.333850 13.189000
11.219121 14.333850 -14.370100
11.371741 14.715550 -14.370100
10.945381 16.231550 13.189000
11.361661 15.530750 13.189000
11.361661 15.530750 -14.370100
10.945381 16.231550 -14.370100
-7.024039 -23.790751 13.189000
-7.024039 -23.790751 14.370100
-5.004239 -25.935850 14.370100
-6.020939 -25.069550 14.370100
-6.696939 -24.280251 14.370100
-6.696939 -24.280251 13.189000
-6.020939 -25.069550 13.189000
-5.004239 -25.935850 13.189000
7.022451 -12.760050 -14.370100
6.343241 -13.210850 -14.370100
5.529641 -13.261650 -14.370100
5.140771 -13.128250 -14.370100
4.529561 -12.588850 -14.370100
4.269961 -11.816150 -14.370100
4.431461 -11.017150 -14.370100
4.970901 -10.405950 -14.370100
5.743631 -10.146250 -14.370100
6.153771 -10.174450 -14.370100
6.883751 -10.537250 -14.370100
7.334511 -11.216550 -14.370100
7.385281 -12.030150 -14.370100
11.361661 15.530750 13.189000
10.945381 16.231550 13.189000
-6.060339 -9.764950 13.189000
-6.815539 -10.071850 13.189000
-7.108239 -10.360550 13.189000
-7.425239 -11.111550 13.189000
-7.324339 -11.920450 13.189000
-6.832439 -12.570550 13.189000
-6.477839 -12.778550 13.189000
-5.670339 -12.890350 13.189000
-4.915139 -12.583550 13.189000
-4.622439 -12.294750 13.189000
-4.305439 -11.543750 13.189000
-4.406339 -10.734850 13.189000
-4.609539 -10.377450 13.189000
4.970901 -10.405950 13.189000
4.431461 -11.017150 13.189000
4.269961 -11.816150 13.189000
4.529561 -12.588850 13.189000
5.140771 -13.128250 13.189000
5.529641 -13.261650 13.189000
6.343241 -13.210850 13.189000
7.022451 -12.760050 13.189000
7.385281 -12.030150 13.189000
7.334511 -11.216550 13.189000
6.883751 -10.537250 13.189000
6.889741 -24.055149 13.189000
2.630461 -27.143150 13.189000
-1.331639 -27.454451 13.189000
-3.864839 -26.632750 13.189000
-7.024039 -23.790751 13.189000
-9.871839 17.302750 13.189000
-9.660839 16.515350 13.189000
-9.084439 15.938950 13.189000
-8.297039 15.727950 13.189000
-7.509639 15.938950 13.189000
-7.183439 16.189251 13.189000
9.041481 16.458349 13.189000
8.472231 15.874850 13.189000
8.319611 15.493150 13.189000
8.329681 14.677950 13.189000
8.745971 13.977150 13.189000
9.456911 13.578250 13.189000
9.865131 13.529650 13.189000
10.649871 13.750350 13.189000
11.219121 14.333850 13.189000
11.371741 14.715550 13.189000
9.456911 13.578250 13.189000
9.456911 13.578250 -14.370100
-7.024039 -23.790751 14.370100
-3.864839 -26.632750 14.370100
-1.331639 -27.454451 14.370100
2.630461 -27.143150 14.370100
6.889741 -24.055149 14.370100
14.475469 15.820450 14.370100
10.793151 22.883110 14.370100
5.881241 26.339830 14.370100
-2.009939 27.421890 14.370100
-7.671039 25.414980 14.370100
-12.067739 21.323009 14.370100
-13.926139 17.758631 14.370100
-7.671039 25.414980 14.370100
-7.671039 25.414980 13.189000
-9.318439 24.255581 13.189000
-10.793139 22.883110 13.189000
-10.793139 22.883110 14.370100
-9.318439 24.255581 14.370100
8.472231 15.874850 13.189000
8.472231 15.874850 -14.370100
-6.722239 17.302750 -14.370100
-6.722239 17.302750 13.189000
-2.009939 27.421890 13.189000
-2.009939 27.421890 14.370100
9.041481 16.458349 -14.370100
9.041481 16.458349 13.189000
7.385281 -12.030150 13.189000
7.385281 -12.030150 -14.370100
-0.000039 27.559050 13.189000
-0.000039 27.559050 14.370100
2.009861 27.421890 14.370100
3.982461 27.012955 14.370100
3.982461 27.012955 13.189000
2.009861 27.421890 13.189000
-4.915139 -12.583550 -14.370100
-4.915139 -12.583550 13.189000
-5.670339 -12.890350 13.189000
-5.670339 -12.890350 -14.370100
8.745971 13.977150 13.189000
8.745971 13.977150 -14.370100
-7.324339 -11.920450 13.189000
-7.324339 -11.920450 -14.370100
4 0 1 2 3
4 4 5 6 7
4 8 9 10 11
17 12 13 14 15 16 17 18 19 20 21 22 23 24 25 26 27 28
4 29 30 31 32
10 33 34 35 36 37 38 39 40 41 42
4 43 44 45 46
4 47 48 49 50
13 51 52 53 54 55 56 57 58 59 60 61 62 63
4 64 65 66 67
4 68 69 70 71
4 72 73 74 75
4 76 77 78 79
4 80 81 82 83
4 84 45 44 85
4 86 87 88 89
6 90 91 92 93 94 95
4 96 97 80 83
4 98 99 100 101
4 102 103 104 105
4 106 107 108 109
14 110 111 112 113 114 115 116 117 118 119 120 121 122 123
4 124 125 126 127
4 11 128 129 8
4 130 131 65 64
4 67 66 132 133
4 3 2 134 135
14 136 137 138 139 140 141 142 143 144 145 146 147 148 149
4 150 151 77 76
4 152 153 154 155
4 69 156 157 70
26 158 159 160 161 162 163 164 165 166 167 168 169 170 171 172 173 174 175 176 177 178 179 180 181 35 34
4 182 183 184 185
4 186 187 188 189
4 39 190 191 40
4 192 193 194 195
4 196 197 198 199
4 106 109 200 201
10 151 150 202 203 204 201 200 205 206 207
4 7 129 128 4
13 208 209 210 211 212 213 214 215 216 217 218 219 220
59 221 222 24 23 95 94 223 224 225 226 227 228 229 230 231 232 233 234 235 93 92 236 237 238 239 240 241 242 243 244 245 246 91 90 247 248 249 250 251 17 16 252 253 254 255 256 257 26 25 258 259 260 261 262 263 264 265 266 267
4 103 102 268 269
12 270 271 272 273 274 275 276 277 278 279 280 281
4 1 0 87 86
4 68 71 135 134
8 282 283 284 285 108 107 286 287
4 183 288 289 184
4 89 88 290 291
4 292 283 282 293
4 73 157 156 74
4 187 294 295 188
4 199 186 189 196
4 296 297 97 96
10 298 292 293 299 300 301 191 190 302 303
4 105 104 194 193
4 304 305 306 307
4 308 309 269 268
4 310 98 101 311
4 48 100 99 49
4 296 131 130 297
4 85 30 29 84
4 126 310 311 127
4 81 43 46 82
4 169 79 78 170
4 133 132 32 31
4 9 47 50 10
4 182 185 309 308
4 192 195 198 197
4 6 5 305 304
4 155 72 75 152
4 153 291 290 154
4 307 306 125 124
4 288 295 294 289
