ply
format ascii 1.0
comment Created by Blender 2.82 (sub 7) - www.blender.org, source file: ''
element vertex 304
property float x
property float y
property float z
element face 80
property list uchar uint vertex_indices
end_header
4.598450 0.685700 6.654184
3.386050 0.591800 -2.487067
4.734850 0.696200 -6.923597
8.888350 1.017800 -12.230110
3.318650 0.586600 -12.296616
-0.268250 0.308900 -2.351417
0.462650 0.365400 6.195483
3.074650 0.567700 11.992083
8.644350 0.998900 12.058583
3.344050 0.258900 -12.296616
-0.242850 -0.018800 -2.351417
-0.268250 0.308900 -2.351417
3.318650 0.586600 -12.296616
-7.232150 10.977000 12.317284
-7.232150 10.977000 11.960083
-4.144650 12.474800 11.960083
-4.144650 12.474800 12.317284
0.993350 -8.992600 -12.280119
0.665650 -9.018000 -12.284031
0.234450 -3.447900 -12.284031
0.562050 -3.422600 -12.280119
0.993350 -8.992600 -12.280119
0.622050 -4.896800 -6.924657
0.294450 -4.922200 -6.928567
0.665650 -9.018000 -12.284031
10.977050 7.232100 12.317284
13.122450 0.774600 12.317284
13.122450 0.774600 11.960083
10.977050 7.232100 11.960083
8.913750 0.690200 -12.230110
3.344050 0.258900 -12.296616
3.318650 0.586600 -12.296616
8.888350 1.017800 -12.230110
0.000550 3.500400 2.228883
-0.008750 4.811700 -6.896827
-0.336350 4.786300 -6.900747
-0.327050 3.475100 2.224983
-3.455850 0.042000 12.037983
0.130950 0.319700 2.092683
-0.599850 0.263200 -6.454167
-3.211850 0.060900 -12.250778
-8.781650 -0.370400 -12.317284
-4.735750 -0.057100 -6.912867
-3.523350 0.036800 2.228383
-4.872150 -0.067600 6.664983
-9.025650 -0.389200 11.971483
0.148450 0.053100 2.021783
0.318050 -3.441500 12.008583
0.749350 -9.011500 12.008583
0.485650 -4.907400 6.653183
0.429450 -3.599800 2.201083
0.622050 -4.896800 -6.924657
0.993350 -8.992600 -12.280119
0.562050 -3.422600 -12.280119
0.297450 -0.757000 -6.515387
-0.009550 -3.466800 12.004684
0.421650 -9.036900 12.004684
0.749350 -9.011500 12.008583
0.318050 -3.441500 12.008583
-0.145150 4.801100 6.680983
-0.472750 4.775700 6.677084
7.232050 -10.977000 11.960083
7.232050 -10.977000 12.317284
4.144550 -12.474800 12.317284
4.144550 -12.474800 11.960083
0.328550 -0.148800 -2.265417
0.179550 0.661200 6.271683
-0.148050 0.635900 6.267783
0.000950 -0.174200 -2.269317
0.158950 3.345700 -12.252293
-0.168750 3.320300 -12.256205
-0.599950 8.890400 -12.256205
-0.272350 8.915800 -12.252293
-12.474850 -4.144600 11.960083
-12.875850 2.648100 11.960083
-12.875850 2.648100 12.317284
-12.474850 -4.144600 12.317284
2.648050 12.875800 11.960083
2.648050 12.875800 12.317284
-0.272350 8.915800 -12.252293
-0.599950 8.890400 -12.256205
-8.756250 -0.698000 -12.317284
-3.186550 -0.266700 -12.250778
-0.574550 -0.064500 -6.454167
0.156350 -0.007900 2.092683
-3.430550 -0.285600 12.037983
-9.000250 -0.716900 11.971483
-4.846750 -0.395300 6.664983
-3.497950 -0.290900 2.228383
-4.710350 -0.384700 -6.912867
0.487950 0.037800 6.195483
0.462650 0.365400 6.195483
-0.242850 -0.018800 -2.351417
3.344050 0.258900 -12.296616
8.913750 0.690200 -12.230110
4.760250 0.368600 -6.923597
3.411450 0.264100 -2.487067
4.623850 0.358000 6.654184
8.669750 0.671300 12.058583
3.099950 0.240000 11.992083
0.487950 0.037800 6.195483
3.411450 0.264100 -2.487067
4.760250 0.368600 -6.923597
4.734850 0.696200 -6.923597
3.386050 0.591800 -2.487067
-0.599850 0.263200 -6.454167
-0.574550 -0.064500 -6.454167
-3.186550 -0.266700 -12.250778
-3.211850 0.060900 -12.250778
-4.144650 12.474800 12.317284
-4.144650 12.474800 11.960083
-7.232150 10.977000 11.960083
-7.232150 10.977000 12.317284
-9.025650 -0.389200 11.971483
-4.872150 -0.067600 6.664983
-4.846750 -0.395300 6.664983
-9.000250 -0.716900 11.971483
-0.272350 8.915800 -12.252293
-0.599950 8.890400 -12.256205
-0.168750 3.320300 -12.256205
0.158950 3.345700 -12.252293
0.158950 3.345700 -12.252293
-0.272350 8.915800 -12.252293
-0.008750 4.811700 -6.896827
0.000550 3.500400 2.228883
-0.145150 4.801100 6.680983
-0.516350 8.896900 12.036483
-0.085050 3.326800 12.036483
0.179550 0.661200 6.271683
0.328550 -0.148800 -2.265417
-12.474850 -4.144600 11.960083
-12.875850 2.648100 11.960083
-11.751750 5.890400 11.960083
-7.232150 10.977000 11.960083
-4.144650 12.474800 11.960083
2.648050 12.875800 11.960083
5.890350 11.751700 11.960083
10.977050 7.232100 11.960083
13.122450 0.774600 11.960083
11.751650 -5.890400 11.960083
7.232050 -10.977000 11.960083
4.144550 -12.474800 11.960083
-2.648150 -12.875800 11.960083
-8.731250 -9.826700 11.960083
-11.751750 5.890400 11.960083
-11.751750 5.890400 12.317284
-0.085050 3.326800 12.036483
-0.412750 3.301500 12.032583
2.648050 12.875800 12.317284
2.648050 12.875800 11.960083
0.158050 -4.932800 6.649283
0.421650 -9.036900 12.004684
-0.009550 -3.466800 12.004684
-0.179150 0.027700 2.017783
-0.030150 -0.782300 -6.519297
0.234450 -3.447900 -12.284031
0.665650 -9.018000 -12.284031
0.294450 -4.922200 -6.928567
0.148750 -3.621500 -2.476457
-12.474850 -4.144600 12.317284
-12.875850 2.648100 12.317284
-12.875850 2.648100 11.960083
-12.474850 -4.144600 11.960083
5.890350 11.751700 11.960083
5.890350 11.751700 12.317284
11.751650 -5.890400 12.317284
11.751650 -5.890400 11.960083
-8.756250 -0.698000 -12.317284
-4.710350 -0.384700 -6.912867
-4.735750 -0.057100 -6.912867
-8.781650 -0.370400 -12.317284
5.890350 11.751700 12.317284
5.890350 11.751700 11.960083
0.130950 0.319700 2.092683
0.156350 -0.007900 2.092683
0.562050 -3.422600 -12.280119
0.234450 -3.447900 -12.284031
0.665650 -9.018000 -12.284031
0.993350 -8.992600 -12.280119
4.623850 0.358000 6.654184
4.598450 0.685700 6.654184
-0.412750 3.301500 12.032583
-0.844050 8.871500 12.032583
-0.472750 4.775700 6.677084
-0.280050 3.478700 -2.448616
-0.336350 4.786300 -6.900747
-0.599950 8.890400 -12.256205
-0.168750 3.320300 -12.256205
0.000950 -0.174200 -2.269317
-0.148050 0.635900 6.267783
8.913750 0.690200 -12.230110
8.888350 1.017800 -12.230110
-0.844050 8.871500 12.032583
-0.412750 3.301500 12.032583
-0.085050 3.326800 12.036483
-0.516350 8.896900 12.036483
0.429450 -3.599800 2.201083
0.485650 -4.907400 6.653183
0.158050 -4.932800 6.649283
0.101850 -3.625200 2.197183
-9.025650 -0.389200 11.971483
-9.000250 -0.716900 11.971483
-3.430550 -0.285600 12.037983
-3.455850 0.042000 12.037983
-0.516350 8.896900 12.036483
-0.844050 8.871500 12.032583
3.074650 0.567700 11.992083
3.099950 0.240000 11.992083
8.669750 0.671300 12.058583
8.644350 0.998900 12.058583
-3.455850 0.042000 12.037983
-3.430550 -0.285600 12.037983
8.669750 0.671300 12.058583
8.644350 0.998900 12.058583
0.148450 0.053100 2.021783
-0.179150 0.027700 2.017783
-0.009550 -3.466800 12.004684
0.318050 -3.441500 12.008583
-3.186550 -0.266700 -12.250778
-8.756250 -0.698000 -12.317284
-8.781650 -0.370400 -12.317284
-3.211850 0.060900 -12.250778
-8.731250 -9.826700 12.317284
-8.731250 -9.826700 11.960083
0.749350 -9.011500 12.008583
0.421650 -9.036900 12.004684
0.158950 3.345700 -12.252293
-0.168750 3.320300 -12.256205
3.099950 0.240000 11.992083
3.074650 0.567700 11.992083
-3.211850 0.060900 -12.250778
-8.781650 -0.370400 -12.317284
-8.756250 -0.698000 -12.317284
-3.186550 -0.266700 -12.250778
8.888350 1.017800 -12.230110
3.318650 0.586600 -12.296616
3.344050 0.258900 -12.296616
8.913750 0.690200 -12.230110
-8.731250 -9.826700 11.960083
-8.731250 -9.826700 12.317284
-8.731250 -9.826700 11.960083
-2.648150 -12.875800 11.960083
4.144550 -12.474800 11.960083
7.232050 -10.977000 11.960083
11.751650 -5.890400 11.960083
13.122450 0.774600 11.960083
10.977050 7.232100 11.960083
5.890350 11.751700 11.960083
2.648050 12.875800 11.960083
-4.144650 12.474800 11.960083
-7.232150 10.977000 11.960083
-11.751750 5.890400 11.960083
-12.875850 2.648100 11.960083
-12.474850 -4.144600 11.960083
-2.648150 -12.875800 11.960083
-2.648150 -12.875800 12.317284
-11.751750 5.890400 12.317284
-11.751750 5.890400 11.960083
-3.523350 0.036800 2.228383
-3.497950 -0.290900 2.228383
10.977050 7.232100 11.960083
10.977050 7.232100 12.317284
13.122450 0.774600 11.960083
13.122450 0.774600 12.317284
0.297450 -0.757000 -6.515387
-0.030150 -0.782300 -6.519297
0.562050 -3.422600 -12.280119
0.234450 -3.447900 -12.284031
7.232050 -10.977000 11.960083
7.232050 -10.977000 12.317284
11.751650 -5.890400 12.317284
11.751650 -5.890400 11.960083
-2.648150 -12.875800 11.960083
-2.648150 -12.875800 12.317284
4.144550 -12.474800 12.317284
4.144550 -12.474800 11.960083
4.144550 -12.474800 12.317284
7.232050 -10.977000 12.317284
11.751650 -5.890400 12.317284
13.122450 0.774600 12.317284
10.977050 7.232100 12.317284
5.890350 11.751700 12.317284
2.648050 12.875800 12.317284
-4.144650 12.474800 12.317284
-7.232150 10.977000 12.317284
-11.751750 5.890400 12.317284
-12.875850 2.648100 12.317284
-12.474850 -4.144600 12.317284
-8.731250 -9.826700 12.317284
-2.648150 -12.875800 12.317284
10.977050 7.232100 12.317284
13.122450 0.774600 12.317284
11.751650 -5.890400 12.317284
7.232050 -10.977000 12.317284
4.144550 -12.474800 12.317284
-2.648150 -12.875800 12.317284
-8.731250 -9.826700 12.317284
-12.474850 -4.144600 12.317284
-12.875850 2.648100 12.317284
-11.751750 5.890400 12.317284
-7.232150 10.977000 12.317284
-4.144650 12.474800 12.317284
2.648050 12.875800 12.317284
5.890350 11.751700 12.317284
9 0 1 2 3 4 5 6 7 8
4 9 10 11 12
4 13 14 15 16
4 17 18 19 20
4 21 22 23 24
4 25 26 27 28
4 29 30 31 32
4 33 34 35 36
9 37 38 39 40 41 42 43 44 45
9 46 47 48 49 50 51 52 53 54
4 55 56 57 58
4 59 33 36 60
4 61 62 63 64
4 65 66 67 68
4 69 70 71 72
4 73 74 75 76
4 15 77 78 16
4 35 34 79 80
9 81 82 83 84 85 86 87 88 89
4 10 90 91 11
9 92 93 94 95 96 97 98 99 100
4 101 102 103 104
4 105 106 107 108
4 109 110 111 112
4 113 114 115 116
4 117 118 119 120
9 121 122 123 124 125 126 127 128 129
14 130 131 132 133 134 135 136 137 138 139 140 141 142 143
4 144 14 13 145
4 66 146 147 67
4 148 149 110 109
9 150 151 152 153 154 155 156 157 158
4 159 160 161 162
4 78 77 163 164
4 165 62 61 166
4 167 168 169 170
4 171 172 149 148
4 106 105 173 174
4 175 176 177 178
4 179 101 104 180
9 181 182 183 184 185 186 187 188 189
4 103 102 190 191
4 192 193 194 195
4 196 197 198 199
4 200 201 202 203
4 204 59 60 205
4 206 207 208 209
4 174 173 210 211
4 212 179 180 213
4 214 215 216 217
4 218 219 220 221
4 222 159 162 223
4 224 225 198 197
4 196 199 23 22
4 226 65 68 227
4 90 228 229 91
4 230 231 232 233
4 234 235 236 237
4 238 73 76 239
14 240 241 242 243 244 245 246 247 248 249 250 251 252 253
4 222 223 254 255
4 74 144 145 75
4 160 256 257 161
4 258 169 168 259
4 26 165 166 27
4 163 260 261 164
4 260 262 263 261
4 264 265 215 214
4 266 267 265 264
4 63 255 254 64
4 268 269 270 271
4 256 112 111 257
4 262 271 270 263
4 272 273 274 275
4 275 274 269 268
4 238 239 273 272
4 171 25 28 172
14 276 277 278 279 280 281 282 283 284 285 286 287 288 289
14 290 291 292 293 294 295 296 297 298 299 300 301 302 303
4 115 114 258 259
