ply
format ascii 1.0
comment Created by Blender 2.82 (sub 7) - www.blender.org, source file: ''
element vertex 672
property float x
property float y
property float z
element face 163
property list uchar uint vertex_indices
end_header
-11.417340 21.260450 -9.055100
-14.960640 21.260450 -9.055100
-14.960640 24.803761 -9.055100
-11.417340 24.803761 -9.055100
-11.417340 -24.802549 -9.055100
-14.960640 -24.802549 -9.055100
-14.960640 -21.259251 -9.055100
-11.417340 -21.259251 -9.055100
16.224350 -24.343651 3.933100
16.224350 -24.343651 5.507900
14.960650 -24.343651 5.507900
14.960650 -24.343651 3.933100
11.417350 23.531031 3.543300
11.417350 23.531031 6.692900
-11.417340 23.531031 6.692900
-11.417340 23.531031 3.543300
14.960650 -21.259850 6.692900
14.173250 -21.259850 6.692900
14.173250 21.259850 6.692900
14.960650 21.259850 6.692900
-11.417340 -24.802549 8.661400
-11.969910 -24.249950 -7.469450
-11.969910 -21.811850 -7.469450
-11.417340 -21.259251 8.661400
14.577350 -24.419250 -7.952930
14.960650 -24.802549 -8.464549
14.960650 -21.259251 -8.464549
14.577350 -21.642450 -7.952930
14.408050 -21.811850 -7.469450
14.408050 -24.249950 -7.469450
-14.960640 21.259850 6.692900
-14.173240 21.259850 6.692900
-14.173240 -21.259850 6.692900
-14.960640 -21.259850 6.692900
-11.800580 -24.419250 -7.952930
-11.969910 -24.249950 -7.469450
-14.408070 -24.249950 -7.469450
-14.577400 -24.419250 -7.952930
-14.960640 -24.802549 -8.464549
-11.417340 -24.802549 -8.464549
-14.566940 -24.408850 9.055100
-11.811040 -24.408850 9.055100
-11.811040 -21.652950 9.055100
-14.566940 -21.652950 9.055100
14.202250 -29.181150 6.692900
14.202250 -24.803150 6.692900
14.202250 -24.803150 3.543300
14.202250 -26.611450 3.543300
14.202250 -27.033251 4.224300
14.202250 -28.126051 4.974600
14.202250 -29.181150 5.118100
14.960650 -21.259850 3.543300
14.173250 -21.259850 3.543300
14.173250 21.259850 3.543300
14.960650 21.259850 3.543300
14.577350 -21.642450 -7.952930
14.960650 -21.259251 -8.464549
11.417350 -21.259251 -8.464549
11.800550 -21.642450 -7.952930
11.969850 -21.811850 -7.469450
14.408050 -21.811850 -7.469450
11.417350 21.260450 8.661400
14.960650 21.260450 8.661400
14.566950 21.654150 9.055100
11.811050 21.654150 9.055100
16.224350 -23.949949 5.507900
16.224350 -23.949949 3.933100
14.960650 -23.949949 3.933100
14.960650 -23.949949 5.507900
11.811050 -24.408850 9.055100
14.566950 -24.408850 9.055100
14.566950 -21.652950 9.055100
11.811050 -21.652950 9.055100
-11.417340 21.260450 8.661400
-11.969910 21.813030 -7.469450
-11.969910 24.251181 -7.469450
-11.417340 24.803761 8.661400
-14.173240 21.259850 6.692900
-14.173240 -21.259850 6.692900
-14.173240 -21.259850 3.543300
-14.173240 21.259850 3.543300
-14.566940 -21.652950 9.055100
-11.811040 -21.652950 9.055100
-11.417340 -21.259251 8.661400
-14.960640 -21.259251 8.661400
14.650750 29.181089 5.118100
14.650750 29.181089 6.692900
14.650750 24.803129 6.692900
14.650750 24.803129 3.543300
14.650750 26.420950 3.543300
14.650750 26.900999 4.232300
14.650750 27.811501 4.878300
-16.224421 -24.068750 5.619300
-16.224421 -23.675051 5.619300
-16.224421 -23.675051 4.044500
-16.224421 -24.068750 4.044500
14.257050 27.811501 4.878300
14.257050 26.900999 4.232300
14.257050 26.420950 3.543300
14.257050 24.803129 3.543300
14.257050 24.803129 6.692900
14.257050 29.181089 6.692900
14.257050 29.181089 5.118100
11.417350 24.803761 8.661400
11.969850 24.251181 -7.469450
11.969850 21.813030 -7.469450
11.417350 21.260450 8.661400
-14.601690 29.181089 5.118100
-14.207990 29.181089 5.118100
-14.207990 27.719139 4.848500
-14.601690 27.719139 4.848500
-14.207990 24.803129 3.543300
-14.601690 24.803129 3.543300
-14.601690 26.116720 3.543300
-14.207990 26.116720 3.543300
11.417350 -24.282351 6.692900
-11.417340 -24.282351 6.692900
-11.417340 -23.494949 6.692900
11.417350 -23.494949 6.692900
-11.417340 21.260450 8.661400
-14.960640 21.260450 8.661400
-14.408070 21.813030 -7.469450
-11.969910 21.813030 -7.469450
-14.173240 -21.259850 6.692900
-14.173240 -21.259850 3.543300
-14.960640 -21.259850 3.543300
-14.960640 -21.259850 6.692900
14.650750 29.181089 6.692900
14.257050 29.181089 6.692900
14.257050 24.803129 6.692900
14.650750 24.803129 6.692900
-11.800580 24.420521 -7.952930
-11.417340 24.803761 -8.464549
-14.960640 24.803761 -8.464549
-14.577400 24.420521 -7.952930
-14.408070 24.251181 -7.469450
-11.969910 24.251181 -7.469450
14.960650 -24.802549 8.661400
11.417350 -24.802549 8.661400
11.969850 -24.249950 -7.469450
14.408050 -24.249950 -7.469450
11.417350 -21.259251 8.661400
11.969850 -21.811850 -7.469450
11.969850 -24.249950 -7.469450
11.417350 -24.802549 8.661400
14.960650 24.803761 -8.464549
14.960650 21.260450 -8.464549
14.960650 21.260450 -9.055100
14.960650 24.803761 -9.055100
-14.960640 24.803129 8.267700
-11.023640 24.803129 8.267700
11.023650 24.803129 8.267700
14.960650 24.803129 8.267700
17.716551 -31.496050 8.267700
17.716551 31.496050 8.267700
-17.716551 31.496050 8.267700
-17.716551 -31.496050 8.267700
-11.417340 21.259850 8.267700
-14.960640 21.259850 8.267700
11.417350 24.803761 -8.464549
14.960650 24.803761 -8.464549
14.960650 24.803761 -9.055100
11.417350 24.803761 -9.055100
-11.417340 24.803129 8.267700
11.417350 24.803129 8.267700
-11.417340 -21.259251 8.661400
-11.969910 -21.811850 -7.469450
-14.408070 -21.811850 -7.469450
-14.960640 -21.259251 8.661400
11.417350 -24.802549 -8.464549
11.417350 -21.259251 -8.464549
11.417350 -21.259251 -9.055100
11.417350 -24.802549 -9.055100
-11.811040 -24.408850 9.055100
-14.566940 -24.408850 9.055100
-14.960640 -24.802549 8.661400
-11.417340 -24.802549 8.661400
-17.716551 -31.496050 8.267700
-17.716551 31.496050 8.267700
-17.716551 31.496050 6.692900
-17.716551 -31.496050 6.692900
-14.960640 -21.259850 6.692900
-14.960640 21.259850 6.692900
-14.960640 21.259850 3.543300
-14.960640 -21.259850 3.543300
-14.601690 29.181089 6.692900
14.650750 29.181089 6.692900
14.257050 29.181089 6.692900
-14.207990 29.181089 6.692900
-14.960640 -24.802549 -9.055100
-11.417340 -24.802549 -9.055100
-11.417340 -24.802549 -8.464549
-14.960640 -24.802549 -8.464549
-14.639950 -24.803150 6.692900
-11.417340 -24.803150 6.692900
-14.246260 -24.803150 6.692900
14.577350 21.643690 -7.952930
14.408050 21.813030 -7.469450
11.969850 21.813030 -7.469450
11.800550 21.643690 -7.952930
11.417350 21.260450 -8.464549
14.960650 21.260450 -8.464549
-11.417340 -21.259251 -8.464549
-11.417340 -24.802549 -8.464549
-11.417340 -24.802549 -9.055100
-11.417340 -21.259251 -9.055100
17.716551 31.496050 8.267700
17.716551 -31.496050 8.267700
17.716551 -31.496050 6.692900
17.716551 31.496050 6.692900
-14.960640 -24.802549 -8.464549
-14.960640 -21.259251 -8.464549
-14.960640 -21.259251 -9.055100
-14.960640 -24.802549 -9.055100
-14.960640 21.260450 8.661400
-11.417340 21.260450 8.661400
-11.811040 21.654150 9.055100
-14.566940 21.654150 9.055100
14.595950 -26.611450 3.543300
14.202250 -26.611450 3.543300
14.202250 -24.803150 3.543300
14.595950 -24.803150 3.543300
-14.246260 -26.433451 3.543300
-14.639950 -26.433451 3.543300
-14.639950 -24.803150 3.543300
-14.246260 -24.803150 3.543300
14.650750 24.803129 3.543300
14.257050 24.803129 3.543300
14.257050 26.420950 3.543300
14.650750 26.420950 3.543300
-14.960640 23.693300 4.076300
-16.224421 23.693300 4.076300
-16.224421 24.087000 4.076300
-14.960640 24.087000 4.076300
-14.566940 24.410061 9.055100
-11.811040 24.410061 9.055100
-11.417340 24.803761 8.661400
-14.960640 24.803761 8.661400
-16.224421 23.693300 5.651100
-16.224421 24.087000 5.651100
-16.224421 24.087000 4.076300
-16.224421 23.693300 4.076300
-11.800580 -24.419250 -7.952930
-11.417340 -24.802549 -8.464549
-11.417340 -21.259251 -8.464549
-11.800580 -21.642450 -7.952930
-14.960640 24.803761 8.661400
-14.408070 24.251181 -7.469450
-14.408070 21.813030 -7.469450
-14.960640 21.260450 8.661400
-14.577400 -21.642450 -7.952930
-14.960640 -21.259251 -8.464549
-14.960640 -24.802549 -8.464549
-14.577400 -24.419250 -7.952930
-14.408070 -24.249950 -7.469450
-14.408070 -21.811850 -7.469450
-11.417340 24.803761 -8.464549
-11.417340 21.260450 -8.464549
-11.417340 21.260450 -9.055100
-11.417340 24.803761 -9.055100
-14.207990 26.116720 3.543300
-14.601690 26.116720 3.543300
11.417350 -24.282351 3.543300
-11.417340 -24.282351 3.543300
-11.417340 -23.494949 3.543300
11.417350 -23.494949 3.543300
14.650750 29.181089 6.692900
14.650750 29.181089 5.118100
14.257050 29.181089 5.118100
14.257050 29.181089 6.692900
-14.207990 27.719139 4.848500
-14.207990 29.181089 5.118100
-14.207990 29.181089 6.692900
-14.207990 24.803129 6.692900
-14.207990 24.803129 3.543300
-14.207990 26.116720 3.543300
11.417350 -24.282351 3.543300
11.417350 -24.282351 6.692900
-11.417340 -24.282351 6.692900
-11.417340 -24.282351 3.543300
14.257050 27.811501 4.878300
14.257050 29.181089 5.118100
14.650750 29.181089 5.118100
14.650750 27.811501 4.878300
-14.960640 -21.259850 6.692900
-14.173240 -21.259850 6.692900
-14.173240 21.259850 6.692900
-14.960640 21.259850 6.692900
11.811050 21.654150 9.055100
14.566950 21.654150 9.055100
14.566950 24.410061 9.055100
11.811050 24.410061 9.055100
11.417350 24.318430 6.692900
11.417350 24.318430 3.543300
-11.417340 24.318430 3.543300
-11.417340 24.318430 6.692900
14.577350 -24.419250 -7.952930
11.800550 -24.419250 -7.952930
11.417350 -24.802549 -8.464549
14.960650 -24.802549 -8.464549
14.960650 23.830111 5.446100
16.224350 23.830111 5.446100
16.224350 24.223810 5.446100
14.960650 24.223810 5.446100
14.960650 21.259850 6.692900
14.173250 21.259850 6.692900
14.173250 -21.259850 6.692900
14.960650 -21.259850 6.692900
11.811050 24.410061 9.055100
14.566950 24.410061 9.055100
14.960650 24.803761 8.661400
11.417350 24.803761 8.661400
17.716551 31.496050 8.267700
17.716551 31.496050 6.692900
-17.716551 31.496050 6.692900
-17.716551 31.496050 8.267700
11.417350 -24.802549 8.661400
11.811050 -24.408850 9.055100
11.811050 -21.652950 9.055100
11.417350 -21.259251 8.661400
14.566950 -21.652950 9.055100
14.566950 -24.408850 9.055100
14.960650 -24.802549 8.661400
14.960650 -21.259251 8.661400
-14.246260 -29.181150 6.692900
-14.639950 -29.181150 6.692900
-14.639950 -24.803150 6.692900
-14.246260 -24.803150 6.692900
11.800550 24.420521 -7.952930
11.417350 24.803761 -8.464549
11.417350 21.260450 -8.464549
11.800550 21.643690 -7.952930
-11.811040 -21.652950 9.055100
-11.811040 -24.408850 9.055100
-11.417340 -24.802549 8.661400
-11.417340 -21.259251 8.661400
14.595950 -27.033251 4.224300
14.595950 -26.611450 3.543300
14.595950 -24.803150 3.543300
14.595950 -24.803150 6.692900
14.595950 -29.181150 6.692900
14.595950 -29.181150 5.118100
14.595950 -28.126051 4.974600
-14.960640 -24.802549 8.661400
-14.566940 -24.408850 9.055100
-14.566940 -21.652950 9.055100
-14.960640 -21.259251 8.661400
-14.246260 -26.433451 3.543300
-14.246260 -27.119551 4.415100
-14.639950 -27.119551 4.415100
-14.639950 -26.433451 3.543300
17.716551 31.496050 6.692900
17.716551 -31.496050 6.692900
-14.246260 -29.181150 6.692900
-11.417340 -24.282351 6.692900
11.417350 -24.282351 6.692900
11.417350 -23.494949 6.692900
-11.417340 -23.494949 6.692900
14.173250 21.259850 6.692900
14.173250 -21.259850 6.692900
14.960650 -21.259850 6.692900
14.960650 21.259850 6.692900
14.650750 24.803129 6.692900
-17.716551 31.496050 6.692900
-14.246260 -29.181150 5.118100
-14.246260 -29.181150 6.692900
-14.639950 -29.181150 6.692900
-14.639950 -29.181150 5.118100
-14.960640 -24.068750 4.044500
-16.224421 -24.068750 4.044500
-16.224421 -23.675051 4.044500
-14.960640 -23.675051 4.044500
-14.246260 -27.822651 4.864200
-14.639950 -27.822651 4.864200
-14.639950 -27.574350 4.737200
-14.639950 -27.339251 4.587100
-14.246260 -27.339251 4.587100
-14.246260 -27.574350 4.737200
-14.601690 24.803129 6.692900
-14.207990 24.803129 6.692900
14.257050 24.803129 6.692900
-14.639950 -29.181150 6.692900
-17.716551 -31.496050 6.692900
14.577350 21.643690 -7.952930
14.960650 21.260450 -8.464549
14.960650 24.803761 -8.464549
14.577350 24.420521 -7.952930
14.408050 24.251181 -7.469450
14.408050 21.813030 -7.469450
14.960650 21.260450 8.661400
11.417350 21.260450 8.661400
-14.960640 -21.259251 -8.464549
-11.417340 -21.259251 -8.464549
-11.417340 -21.259251 -9.055100
-14.960640 -21.259251 -9.055100
-14.577400 24.420521 -7.952930
-14.960640 24.803761 -8.464549
-14.960640 21.260450 -8.464549
-14.577400 21.643690 -7.952930
-11.800580 21.643690 -7.952930
-11.417340 21.260450 -8.464549
-11.417340 24.803761 -8.464549
-11.800580 24.420521 -7.952930
-16.224421 -24.068750 5.619300
-14.960640 -24.068750 5.619300
-14.960640 -23.675051 5.619300
-16.224421 -23.675051 5.619300
14.960650 21.259850 6.692900
14.960650 -21.259850 6.692900
14.960650 -21.259850 3.543300
14.960650 21.259850 3.543300
-14.960640 -24.068750 4.044500
-14.960640 -24.068750 5.619300
-16.224421 -24.068750 5.619300
-16.224421 -24.068750 4.044500
-14.960640 -21.259251 8.661400
-14.960640 -24.802549 8.661400
17.716551 -31.496050 6.692900
17.716551 -31.496050 8.267700
-17.716551 -31.496050 8.267700
-17.716551 -31.496050 6.692900
14.173250 -21.259850 6.692900
14.173250 21.259850 6.692900
14.173250 21.259850 3.543300
14.173250 -21.259850 3.543300
-14.960640 -23.675051 5.619300
-14.960640 -23.675051 4.044500
-16.224421 -23.675051 4.044500
-16.224421 -23.675051 5.619300
14.202250 -29.181150 6.692900
14.595950 -29.181150 6.692900
14.595950 -24.803150 6.692900
14.202250 -24.803150 6.692900
14.202250 -24.803150 6.692900
14.595950 -24.803150 6.692900
14.595950 -29.181150 6.692900
14.202250 -29.181150 6.692900
-16.224421 23.693300 5.651100
-14.960640 23.693300 5.651100
-14.960640 24.087000 5.651100
-16.224421 24.087000 5.651100
-14.960640 23.693300 4.076300
-14.960640 23.693300 5.651100
-16.224421 23.693300 5.651100
-16.224421 23.693300 4.076300
-14.960640 21.260450 8.661400
-14.566940 21.654150 9.055100
-14.566940 24.410061 9.055100
-14.960640 24.803761 8.661400
-11.811040 24.410061 9.055100
-11.811040 21.654150 9.055100
-11.417340 21.260450 8.661400
-11.417340 24.803761 8.661400
-14.566940 21.654150 9.055100
-11.811040 21.654150 9.055100
-11.811040 24.410061 9.055100
-14.566940 24.410061 9.055100
14.595950 -26.611450 3.543300
14.595950 -27.033251 4.224300
14.202250 -27.033251 4.224300
14.202250 -26.611450 3.543300
-14.601690 24.803129 6.692900
-14.601690 29.181089 6.692900
-14.601690 29.181089 5.118100
-14.601690 27.719139 4.848500
-14.601690 26.116720 3.543300
-14.601690 24.803129 3.543300
14.960650 24.803761 8.661400
14.408050 24.251181 -7.469450
11.969850 24.251181 -7.469450
11.417350 24.803761 8.661400
14.577350 24.420521 -7.952930
14.960650 24.803761 -8.464549
11.417350 24.803761 -8.464549
11.800550 24.420521 -7.952930
-14.960640 24.087000 5.651100
-14.960640 24.087000 4.076300
-16.224421 24.087000 4.076300
-16.224421 24.087000 5.651100
-14.207990 29.181089 6.692900
-14.207990 29.181089 5.118100
-14.601690 29.181089 5.118100
-14.601690 29.181089 6.692900
14.960650 -21.259251 8.661400
11.417350 -21.259251 8.661400
11.800550 -21.642450 -7.952930
11.417350 -21.259251 -8.464549
11.417350 -24.802549 -8.464549
11.800550 -24.419250 -7.952930
14.650750 26.900999 4.232300
14.650750 26.420950 3.543300
14.257050 26.420950 3.543300
14.257050 26.900999 4.232300
-11.417340 21.260450 -9.055100
-11.417340 21.260450 -8.464549
-14.960640 21.260450 -8.464549
-14.960640 21.260450 -9.055100
-14.960640 24.803761 -8.464549
-11.417340 24.803761 -8.464549
-11.417340 24.803761 -9.055100
-14.960640 24.803761 -9.055100
-14.960640 21.260450 -8.464549
-14.960640 24.803761 -8.464549
-14.960640 24.803761 -9.055100
-14.960640 21.260450 -9.055100
14.202250 -28.126051 4.974600
14.595950 -28.126051 4.974600
14.595950 -29.181150 5.118100
14.202250 -29.181150 5.118100
-14.639950 -24.803150 6.692900
-14.639950 -24.803150 3.543300
-14.639950 -26.433451 3.543300
-14.639950 -27.119551 4.415100
-14.639950 -27.822651 4.864200
-14.639950 -29.181150 5.118100
-14.639950 -29.181150 6.692900
11.417350 -23.494949 6.692900
11.417350 -23.494949 3.543300
-11.417340 -23.494949 3.543300
-11.417340 -23.494949 6.692900
-14.207990 24.803129 6.692900
-14.601690 24.803129 6.692900
-14.601690 29.181089 6.692900
-14.207990 29.181089 6.692900
-14.960640 -21.259850 6.692900
-14.960640 -21.259850 3.543300
-14.173240 -21.259850 3.543300
-14.173240 -21.259850 6.692900
11.417350 -23.494949 6.692900
-11.417340 -23.494949 6.692900
-11.417340 -24.282351 6.692900
11.417350 -24.282351 6.692900
14.566950 24.410061 9.055100
14.566950 21.654150 9.055100
14.960650 21.260450 8.661400
14.960650 24.803761 8.661400
11.417350 21.260450 8.661400
11.811050 21.654150 9.055100
11.811050 24.410061 9.055100
11.417350 24.803761 8.661400
14.960650 -21.259850 6.692900
14.960650 -21.259850 3.543300
14.173250 -21.259850 3.543300
14.173250 -21.259850 6.692900
-14.207990 29.181089 6.692900
-14.601690 29.181089 6.692900
-14.601690 24.803129 6.692900
-14.207990 24.803129 6.692900
14.650750 24.803129 6.692900
14.257050 24.803129 6.692900
14.257050 29.181089 6.692900
14.650750 29.181089 6.692900
11.417350 23.531031 3.543300
-11.417340 23.531031 3.543300
-11.417340 24.318430 3.543300
11.417350 24.318430 3.543300
-11.417340 24.803761 8.661400
-14.960640 24.803761 8.661400
16.224350 -23.949949 5.507900
16.224350 -24.343651 5.507900
16.224350 -24.343651 3.933100
16.224350 -23.949949 3.933100
16.224350 23.830111 3.871300
14.960650 23.830111 3.871300
14.960650 24.223810 3.871300
16.224350 24.223810 3.871300
14.960650 21.260450 -9.055100
14.960650 21.260450 -8.464549
11.417350 21.260450 -8.464549
11.417350 21.260450 -9.055100
-14.577400 21.643690 -7.952930
-14.960640 21.260450 -8.464549
-11.417340 21.260450 -8.464549
-11.800580 21.643690 -7.952930
-11.417340 -24.803150 8.267700
-14.960640 -24.803150 8.267700
-14.960640 -21.259850 8.267700
14.960650 -24.803150 8.267700
11.417350 -24.803150 8.267700
11.417350 -21.259850 8.267700
11.023650 11.929650 8.267700
-11.417340 -21.259850 8.267700
16.224350 23.830111 3.871300
16.224350 23.830111 5.446100
14.960650 23.830111 5.446100
14.960650 23.830111 3.871300
16.224350 24.223810 5.446100
16.224350 24.223810 3.871300
14.960650 24.223810 3.871300
14.960650 24.223810 5.446100
16.224350 24.223810 5.446100
16.224350 23.830111 5.446100
16.224350 23.830111 3.871300
16.224350 24.223810 3.871300
14.173250 -21.259850 6.692900
14.173250 -21.259850 3.543300
14.960650 -21.259850 3.543300
14.960650 -21.259850 6.692900
11.417350 21.260450 -8.464549
11.417350 24.803761 -8.464549
11.417350 24.803761 -9.055100
11.417350 21.260450 -9.055100
14.960650 -24.343651 5.507900
16.224350 -24.343651 5.507900
16.224350 -23.949949 5.507900
14.960650 -23.949949 5.507900
14.595950 -29.181150 5.118100
14.595950 -29.181150 6.692900
14.202250 -29.181150 6.692900
14.202250 -29.181150 5.118100
14.960650 -21.259850 8.267700
14.960650 21.259850 8.267700
11.417350 21.259850 8.267700
16.224350 -24.343651 3.933100
14.960650 -24.343651 3.933100
14.960650 -23.949949 3.933100
16.224350 -23.949949 3.933100
14.960650 21.260450 -9.055100
11.417350 21.260450 -9.055100
11.417350 24.803761 -9.055100
14.960650 24.803761 -9.055100
14.960650 21.260450 8.661400
14.960650 24.803761 8.661400
-14.639950 -29.181150 5.118100
-14.246260 -29.181150 5.118100
11.417350 -24.802549 8.661400
14.960650 -24.802549 8.661400
14.566950 -24.408850 9.055100
11.811050 -24.408850 9.055100
-11.417340 -24.802549 8.661400
-14.960640 -24.802549 8.661400
-14.173240 -21.259850 3.543300
-14.960640 -21.259850 3.543300
-14.960640 21.259850 3.543300
-14.173240 21.259850 3.543300
11.811050 -21.652950 9.055100
14.566950 -21.652950 9.055100
14.960650 -21.259251 8.661400
11.417350 -21.259251 8.661400
-14.246260 -26.433451 3.543300
-14.246260 -24.803150 3.543300
-14.246260 -24.803150 6.692900
-14.246260 -29.181150 6.692900
-14.246260 -29.181150 5.118100
-14.246260 -27.822651 4.864200
-14.246260 -27.119551 4.415100
-14.246260 -24.803150 6.692900
-14.639950 -24.803150 6.692900
-14.639950 -29.181150 6.692900
-14.246260 -29.181150 6.692900
11.417350 -21.259251 -8.464549
14.960650 -21.259251 -8.464549
14.960650 -21.259251 -9.055100
11.417350 -21.259251 -9.055100
14.960650 -24.802549 8.661400
14.960650 -21.259251 8.661400
-11.800580 -21.642450 -7.952930
-11.417340 -21.259251 -8.464549
-14.960640 -21.259251 -8.464549
-14.577400 -21.642450 -7.952930
14.960650 -24.802549 -9.055100
11.417350 -24.802549 -9.055100
11.417350 -21.259251 -9.055100
14.960650 -21.259251 -9.055100
11.417350 -24.802549 -9.055100
14.960650 -24.802549 -9.055100
14.960650 -24.802549 -8.464549
11.417350 -24.802549 -8.464549
14.960650 -21.259251 -8.464549
14.960650 -24.802549 -8.464549
14.960650 -24.802549 -9.055100
14.960650 -21.259251 -9.055100
4 0 1 2 3
4 4 5 6 7
4 8 9 10 11
4 12 13 14 15
4 16 17 18 19
4 20 21 22 23
6 24 25 26 27 28 29
4 30 31 32 33
6 34 35 36 37 38 39
4 40 41 42 43
7 44 45 46 47 48 49 50
4 51 52 53 54
6 55 56 57 58 59 60
4 61 62 63 64
4 65 66 67 68
4 69 70 71 72
4 73 74 75 76
4 77 78 79 80
4 81 82 83 84
7 85 86 87 88 89 90 91
4 92 93 94 95
7 96 97 98 99 100 101 102
4 103 104 105 106
4 107 108 109 110
4 111 112 113 114
4 115 116 117 118
4 119 120 121 122
4 123 124 125 126
4 127 128 129 130
6 131 132 133 134 135 136
4 137 138 139 140
4 141 142 143 144
4 145 146 147 148
10 149 150 151 152 153 154 155 156 157 158
4 159 160 161 162
3 150 149 163
3 152 151 164
4 165 166 167 168
4 169 170 171 172
4 173 174 175 176
4 177 178 179 180
4 181 182 183 184
3 185 186 187
3 185 187 188
4 189 190 191 192
3 193 194 195
6 196 197 198 199 200 201
4 202 203 204 205
4 206 207 208 209
4 210 211 212 213
4 214 215 216 217
4 218 219 220 221
4 222 223 224 225
4 226 227 228 229
4 230 231 232 233
4 234 235 236 237
4 238 239 240 241
6 242 243 244 245 22 21
4 246 247 248 249
6 250 251 252 253 254 255
4 256 257 258 259
4 110 109 260 261
4 262 263 264 265
4 266 267 268 269
6 270 271 272 273 274 275
4 276 277 278 279
4 280 281 282 283
4 284 285 286 287
4 288 289 290 291
4 292 293 294 295
6 296 140 139 297 298 299
4 300 301 302 303
4 304 305 306 307
4 308 309 310 311
4 312 313 314 315
4 316 317 318 319
4 320 321 322 323
4 324 325 326 327
6 328 329 330 331 105 104
4 332 333 334 335
7 336 337 338 339 340 341 342
4 343 344 345 346
4 347 348 349 350
16 351 352 353 195 194 354 355 356 357 358 359 360 361 362 186 363
4 364 365 366 367
4 368 369 370 371
8 372 373 374 375 349 348 376 377
19 363 186 185 378 379 188 187 380 362 361 358 357 354 194 193 381 353 352 382
6 383 384 385 386 387 388
4 389 390 198 197
4 391 392 393 394
6 395 396 397 398 248 247
6 399 400 401 402 75 74
4 403 404 405 406
4 407 408 409 410
4 411 412 413 414
4 415 255 254 416
4 417 418 419 420
4 421 422 423 424
4 425 426 427 428
4 429 430 431 432
4 433 434 435 436
4 437 438 439 440
4 441 442 443 444
4 445 446 447 448
4 449 450 451 452
4 453 454 455 456
4 457 458 459 460
6 461 462 463 464 465 466
4 467 468 469 470
6 471 472 473 474 469 468
4 475 476 477 478
4 479 480 481 482
4 483 60 59 484
6 485 486 487 488 143 142
4 489 490 491 492
4 493 494 495 496
4 497 498 499 500
4 501 502 503 504
4 505 506 507 508
4 459 458 506 505
7 509 510 511 512 513 514 515
4 516 517 518 519
4 492 280 283 489
4 520 521 522 523
4 524 525 526 527
4 528 529 530 531
4 532 533 534 535
4 536 537 538 539
4 540 541 542 543
4 544 545 546 547
4 548 549 550 551
4 552 553 554 555
4 556 136 135 557
4 558 559 560 561
4 562 563 564 565
4 566 567 568 569
6 570 571 572 573 122 121
10 574 575 576 156 153 577 578 579 580 581
4 582 583 584 585
4 586 587 588 589
4 590 591 592 593
4 594 595 596 597
4 598 599 600 601
4 602 603 604 605
4 606 607 608 609
16 580 579 610 577 153 152 611 612 164 151 150 163 157 156 576 581
4 613 614 615 616
4 617 618 619 620
4 621 388 387 622
4 623 373 372 624
4 625 626 627 628
4 629 630 36 35
4 631 632 633 634
4 635 636 637 638
7 639 640 641 642 643 644 645
4 646 647 648 649
4 650 651 652 653
4 654 29 28 655
6 656 657 658 659 167 166
4 660 661 662 663
4 664 665 666 667
4 668 669 670 671
