ply
format ascii 1.0
comment Created by Blender 2.82 (sub 7) - www.blender.org, source file: ''
element vertex 544
property float x
property float y
property float z
element face 120
property list uchar uint vertex_indices
end_header
0.000010 -11.917600 -13.375000
0.000010 -11.917600 -14.250000
0.500010 -11.917600 -14.250000
0.500010 -11.917600 -13.375000
11.986210 0.000000 -13.375000
11.986210 0.500000 -13.375000
11.986210 0.500000 -14.250000
11.986210 0.000000 -14.250000
0.500010 -1.181370 -14.250000
0.500010 -11.917600 -14.250000
0.500010 -11.917600 -13.375000
0.500010 -1.181370 -11.250000
0.000010 -1.181370 12.750000
0.000010 -1.181370 -11.250000
0.500010 -1.181370 -11.250000
0.500010 -1.181370 -14.250000
1.250010 -1.181370 -14.250000
1.250010 -1.181370 12.750000
-0.499990 1.181370 -14.250000
-0.499990 11.917600 -14.250000
0.000010 11.917600 -14.250000
0.000010 0.000000 -14.250000
-11.986190 0.000000 -14.250000
-11.986190 0.500000 -14.250000
-1.249990 0.500000 -14.250000
-1.249990 1.181370 -14.250000
-1.249990 0.500000 -11.250000
-1.249990 0.500000 -14.250000
-11.986190 0.500000 -14.250000
-11.986190 0.500000 -13.375000
6.957710 16.797400 12.750000
6.957710 16.797400 14.250000
0.000010 18.025801 14.250000
0.000010 18.025801 12.750000
0.500010 -1.181370 -11.250000
0.000010 -1.181370 -11.250000
0.000010 -11.917600 -13.375000
0.500010 -11.917600 -13.375000
-0.499990 1.181370 -11.250000
0.000010 1.181370 -11.250000
0.000010 11.917600 -13.375000
-0.499990 11.917600 -13.375000
-0.499990 -1.181370 -14.250000
-0.499990 -11.917600 -14.250000
-0.499990 -11.917600 -13.375000
-0.499990 -1.181370 -11.250000
11.068110 14.424200 12.750000
6.957710 16.797400 12.750000
0.000010 18.025801 12.750000
0.000010 1.181370 12.750000
1.250010 1.181370 12.750000
1.250010 0.000000 12.750000
18.025810 0.000000 12.750000
16.797409 6.957710 12.750000
0.000010 11.917600 -13.375000
0.000010 11.917600 -14.250000
0.500010 11.917600 -14.250000
0.500010 11.917600 -13.375000
6.957710 -16.797400 12.750000
6.957710 -16.797400 14.250000
0.000010 -18.025801 14.250000
0.000010 -18.025801 12.750000
18.025810 0.000000 12.750000
16.797409 6.957710 12.750000
16.797409 6.957710 14.250000
18.025810 0.000000 14.250000
11.986210 0.000000 -13.375000
11.986210 -0.500000 -13.375000
11.986210 -0.500000 -14.250000
11.986210 0.000000 -14.250000
-11.986190 0.000000 -13.375000
-11.986190 0.500000 -13.375000
-11.986190 0.500000 -14.250000
-11.986190 0.000000 -14.250000
11.068110 -14.424200 14.250000
11.068110 -14.424200 12.750000
16.797409 -6.957710 12.750000
16.797409 -6.957710 14.250000
-0.499990 -11.917600 -13.375000
0.000010 -11.917600 -13.375000
0.000010 -1.181370 -11.250000
-0.499990 -1.181370 -11.250000
0.000010 -11.917600 -13.375000
0.000010 -11.917600 -14.250000
-0.499990 -11.917600 -14.250000
-0.499990 -11.917600 -13.375000
0.500010 1.181370 -11.250000
0.000010 1.181370 -11.250000
0.000010 11.917600 -13.375000
0.500010 11.917600 -13.375000
-11.986190 0.000000 -13.375000
-1.249990 0.000000 -11.250000
-1.249990 0.500000 -11.250000
-11.986190 0.500000 -13.375000
-14.424240 -11.068100 12.750000
-6.957700 -16.797400 12.750000
-6.957700 -16.797400 14.250000
-14.424240 -11.068100 14.250000
11.986210 -0.500000 -13.375000
11.986210 -0.500000 -14.250000
1.250010 -0.500000 -14.250000
1.250010 -0.500000 -11.250000
1.250010 -1.181370 -14.250000
0.500010 -1.181370 -14.250000
0.500010 -11.917600 -14.250000
0.000010 -11.917600 -14.250000
0.000010 0.000000 -14.250000
11.986210 0.000000 -14.250000
11.986210 -0.500000 -14.250000
1.250010 -0.500000 -14.250000
-11.986190 0.000000 -14.250000
-11.986190 -0.500000 -14.250000
-11.986190 -0.500000 -13.375000
-11.986190 0.000000 -13.375000
16.797409 -6.957710 12.750000
11.068110 -14.424200 12.750000
11.068110 -14.424200 14.250000
16.797409 -6.957710 14.250000
0.500010 11.917600 -13.375000
0.500010 11.917600 -14.250000
0.000010 11.917600 -14.250000
0.000010 11.917600 -13.375000
18.025810 0.000000 12.750000
18.025810 0.000000 14.250000
-11.986190 -0.500000 -13.375000
-11.986190 -0.500000 -14.250000
-1.249990 -0.500000 -14.250000
-1.249990 -0.500000 -11.250000
0.500010 1.181370 -11.250000
0.500010 11.917600 -13.375000
0.500010 11.917600 -14.250000
0.500010 1.181370 -14.250000
18.025810 0.000000 14.250000
18.025810 0.000000 12.750000
11.986210 0.000000 -13.375000
1.250010 0.000000 -11.250000
1.250010 -0.500000 -11.250000
11.986210 -0.500000 -13.375000
-11.986190 0.500000 -13.375000
-11.986190 0.500000 -14.250000
-1.249990 0.500000 -14.250000
-1.249990 0.500000 -11.250000
-11.986190 0.000000 -14.250000
-11.986190 0.500000 -14.250000
-11.986190 0.500000 -13.375000
-11.986190 0.000000 -13.375000
0.000010 11.917600 -14.250000
0.500010 11.917600 -14.250000
0.500010 1.181370 -14.250000
1.250010 1.181370 -14.250000
1.250010 0.500000 -14.250000
11.986210 0.500000 -14.250000
11.986210 0.000000 -14.250000
0.000010 0.000000 -14.250000
-0.499990 1.181370 -11.250000
-0.499990 11.917600 -13.375000
-0.499990 11.917600 -14.250000
-0.499990 1.181370 -14.250000
-6.957700 16.797400 12.750000
-6.957700 16.797400 14.250000
0.000010 18.025801 14.250000
0.000010 18.025801 12.750000
1.250010 1.181370 12.750000
1.250010 1.181370 -14.250000
0.500010 1.181370 -14.250000
0.500010 1.181370 -11.250000
0.000010 1.181370 -11.250000
0.000010 1.181370 12.750000
6.957710 16.797400 12.750000
11.068110 14.424200 12.750000
16.797409 6.957710 12.750000
18.025810 0.000000 12.750000
1.250010 0.000000 12.750000
1.250010 1.181370 12.750000
0.000010 1.181370 12.750000
0.000010 18.025801 12.750000
0.500010 -1.181370 -11.250000
0.500010 -11.917600 -13.375000
0.500010 -11.917600 -14.250000
0.500010 -1.181370 -14.250000
0.000010 -1.181370 12.750000
1.250010 -1.181370 12.750000
1.250010 -1.181370 -14.250000
0.500010 -1.181370 -14.250000
0.500010 -1.181370 -11.250000
0.000010 -1.181370 -11.250000
-16.797380 6.957710 14.250000
-14.424240 11.068100 14.250000
-14.424240 11.068100 12.750000
-16.797380 6.957710 12.750000
6.957710 -16.797400 12.750000
11.068110 -14.424200 12.750000
16.797409 -6.957710 12.750000
18.025810 0.000000 12.750000
1.250010 0.000000 12.750000
1.250010 -1.181370 12.750000
0.000010 -1.181370 12.750000
0.000010 -18.025801 12.750000
11.068110 14.424200 14.250000
11.068110 14.424200 12.750000
16.797409 6.957710 12.750000
16.797409 6.957710 14.250000
-18.025810 0.000000 12.750000
-16.797380 6.957710 12.750000
-16.797380 6.957710 14.250000
-18.025810 0.000000 14.250000
-1.249990 -0.500000 -14.250000
-1.249990 -1.181370 -14.250000
-1.249990 -1.181370 12.750000
-1.249990 0.000000 12.750000
-1.249990 0.000000 -11.250000
-1.249990 -0.500000 -11.250000
-11.986190 0.500000 -13.375000
-1.249990 0.500000 -11.250000
-1.249990 0.000000 -11.250000
-11.986190 0.000000 -13.375000
0.500010 11.917600 -13.375000
0.000010 11.917600 -13.375000
0.000010 1.181370 -11.250000
0.500010 1.181370 -11.250000
0.500010 1.181370 -14.250000
0.500010 11.917600 -14.250000
0.500010 11.917600 -13.375000
0.500010 1.181370 -11.250000
-1.249990 0.500000 -11.250000
-1.249990 0.000000 -11.250000
-1.249990 0.000000 12.750000
-1.249990 1.181370 12.750000
-1.249990 1.181370 -14.250000
-1.249990 0.500000 -14.250000
0.500010 1.181370 -14.250000
0.500010 11.917600 -14.250000
0.000010 11.917600 -14.250000
0.000010 0.000000 -14.250000
11.986210 0.000000 -14.250000
11.986210 0.500000 -14.250000
1.250010 0.500000 -14.250000
1.250010 1.181370 -14.250000
1.250010 0.500000 -11.250000
1.250010 0.000000 -11.250000
1.250010 0.000000 12.750000
1.250010 1.181370 12.750000
1.250010 1.181370 -14.250000
1.250010 0.500000 -14.250000
18.025810 0.000000 14.250000
18.025810 0.000000 12.750000
-6.957700 -16.797400 14.250000
-6.957700 -16.797400 12.750000
-14.424240 -11.068100 12.750000
-14.424240 -11.068100 14.250000
-18.025810 0.000000 12.750000
-16.797380 -6.957710 12.750000
-16.797380 -6.957710 14.250000
-18.025810 0.000000 14.250000
0.000010 -18.025801 12.750000
0.000010 -18.025801 14.250000
0.000010 -18.025801 14.250000
0.000010 0.000000 14.250000
-18.025810 0.000000 14.250000
-16.797380 -6.957710 14.250000
-14.424240 -11.068100 14.250000
-6.957700 -16.797400 14.250000
-14.424240 11.068100 12.750000
-14.424240 11.068100 14.250000
-0.499990 11.917600 -13.375000
-0.499990 11.917600 -14.250000
0.000010 11.917600 -14.250000
0.000010 11.917600 -13.375000
-0.499990 -1.181370 -11.250000
-0.499990 -11.917600 -13.375000
-0.499990 -11.917600 -14.250000
-0.499990 -1.181370 -14.250000
-16.797380 -6.957710 12.750000
-14.424240 -11.068100 12.750000
-6.957700 -16.797400 12.750000
0.000010 -18.025801 12.750000
0.000010 -1.181370 12.750000
-1.249990 -1.181370 12.750000
-1.249990 0.000000 12.750000
-18.025810 0.000000 12.750000
0.000010 -1.181370 12.750000
0.000010 -1.181370 -11.250000
-0.499990 -1.181370 -11.250000
-0.499990 -1.181370 -14.250000
-1.249990 -1.181370 -14.250000
-1.249990 -1.181370 12.750000
-16.797380 -6.957710 14.250000
-16.797380 -6.957710 12.750000
0.000010 1.181370 12.750000
0.000010 1.181370 -11.250000
-0.499990 1.181370 -11.250000
-0.499990 1.181370 -14.250000
-1.249990 1.181370 -14.250000
-1.249990 1.181370 12.750000
-0.499990 -1.181370 -11.250000
0.000010 -1.181370 -11.250000
0.000010 -11.917600 -13.375000
-0.499990 -11.917600 -13.375000
-18.025810 0.000000 14.250000
-16.797380 6.957710 14.250000
-14.424240 11.068100 14.250000
-6.957700 16.797400 14.250000
0.000010 18.025801 14.250000
0.000010 0.000000 14.250000
-11.986190 -0.500000 -13.375000
-1.249990 -0.500000 -11.250000
-1.249990 0.000000 -11.250000
-11.986190 0.000000 -13.375000
1.250010 0.000000 12.750000
1.250010 -1.181370 12.750000
1.250010 -1.181370 -14.250000
1.250010 -0.500000 -14.250000
1.250010 -0.500000 -11.250000
1.250010 0.000000 -11.250000
16.797409 6.957710 14.250000
18.025810 0.000000 14.250000
0.000010 0.000000 14.250000
0.000010 18.025801 14.250000
6.957710 16.797400 14.250000
11.068110 14.424200 14.250000
11.986210 0.500000 -13.375000
11.986210 0.500000 -14.250000
1.250010 0.500000 -14.250000
1.250010 0.500000 -11.250000
0.000010 11.917600 -13.375000
0.000010 11.917600 -14.250000
-0.499990 11.917600 -14.250000
-0.499990 11.917600 -13.375000
11.986210 0.000000 -14.250000
11.986210 0.500000 -14.250000
11.986210 0.500000 -13.375000
11.986210 0.000000 -13.375000
1.250010 -0.500000 -11.250000
1.250010 -0.500000 -14.250000
11.986210 -0.500000 -14.250000
11.986210 -0.500000 -13.375000
1.250010 -1.181370 12.750000
1.250010 0.000000 12.750000
18.025810 0.000000 12.750000
16.797409 -6.957710 12.750000
11.068110 -14.424200 12.750000
6.957710 -16.797400 12.750000
0.000010 -18.025801 12.750000
0.000010 -1.181370 12.750000
11.068110 14.424200 12.750000
11.068110 14.424200 14.250000
-1.249990 0.000000 -11.250000
-1.249990 0.500000 -11.250000
-1.249990 0.500000 -14.250000
-1.249990 1.181370 -14.250000
-1.249990 1.181370 12.750000
-1.249990 0.000000 12.750000
1.250010 -0.500000 -14.250000
1.250010 -1.181370 -14.250000
1.250010 -1.181370 12.750000
1.250010 0.000000 12.750000
1.250010 0.000000 -11.250000
1.250010 -0.500000 -11.250000
16.797409 -6.957710 14.250000
18.025810 0.000000 14.250000
0.000010 0.000000 14.250000
0.000010 -18.025801 14.250000
6.957710 -16.797400 14.250000
11.068110 -14.424200 14.250000
11.986210 0.500000 -13.375000
1.250010 0.500000 -11.250000
1.250010 0.000000 -11.250000
11.986210 0.000000 -13.375000
6.957710 16.797400 12.750000
0.000010 18.025801 12.750000
0.000010 18.025801 14.250000
6.957710 16.797400 14.250000
0.500010 -11.917600 -13.375000
0.500010 -11.917600 -14.250000
0.000010 -11.917600 -14.250000
0.000010 -11.917600 -13.375000
0.000010 -11.917600 -14.250000
0.500010 -11.917600 -14.250000
0.500010 -1.181370 -14.250000
1.250010 -1.181370 -14.250000
1.250010 -0.500000 -14.250000
11.986210 -0.500000 -14.250000
11.986210 0.000000 -14.250000
0.000010 0.000000 -14.250000
0.000010 18.025801 12.750000
-6.957700 16.797400 12.750000
-14.424240 11.068100 12.750000
-16.797380 6.957710 12.750000
-18.025810 0.000000 12.750000
-1.249990 0.000000 12.750000
-1.249990 1.181370 12.750000
0.000010 1.181370 12.750000
11.986210 0.000000 -14.250000
11.986210 -0.500000 -14.250000
11.986210 -0.500000 -13.375000
11.986210 0.000000 -13.375000
-11.986190 0.000000 -13.375000
-11.986190 -0.500000 -13.375000
-11.986190 -0.500000 -14.250000
-11.986190 0.000000 -14.250000
-0.499990 11.917600 -14.250000
-0.499990 1.181370 -14.250000
-1.249990 1.181370 -14.250000
-1.249990 0.500000 -14.250000
-11.986190 0.500000 -14.250000
-11.986190 0.000000 -14.250000
0.000010 0.000000 -14.250000
0.000010 11.917600 -14.250000
6.957710 -16.797400 14.250000
6.957710 -16.797400 12.750000
0.000010 -18.025801 12.750000
0.000010 -18.025801 14.250000
-1.249990 1.181370 12.750000
-1.249990 1.181370 -14.250000
-0.499990 1.181370 -14.250000
-0.499990 1.181370 -11.250000
0.000010 1.181370 -11.250000
0.000010 1.181370 12.750000
-18.025810 0.000000 14.250000
-18.025810 0.000000 12.750000
11.986210 0.000000 -13.375000
1.250010 0.000000 -11.250000
1.250010 0.500000 -11.250000
11.986210 0.500000 -13.375000
6.957710 -16.797400 14.250000
0.000010 -18.025801 14.250000
0.000010 0.000000 14.250000
18.025810 0.000000 14.250000
16.797409 -6.957710 14.250000
11.068110 -14.424200 14.250000
0.000010 18.025801 14.250000
0.000010 0.000000 14.250000
18.025810 0.000000 14.250000
16.797409 6.957710 14.250000
11.068110 14.424200 14.250000
6.957710 16.797400 14.250000
-1.249990 -1.181370 -14.250000
-0.499990 -1.181370 -14.250000
-0.499990 -1.181370 -11.250000
0.000010 -1.181370 -11.250000
0.000010 -1.181370 12.750000
-1.249990 -1.181370 12.750000
0.500010 -11.917600 -13.375000
0.000010 -11.917600 -13.375000
0.000010 -1.181370 -11.250000
0.500010 -1.181370 -11.250000
-18.025810 0.000000 12.750000
-1.249990 0.000000 12.750000
-1.249990 -1.181370 12.750000
0.000010 -1.181370 12.750000
0.000010 -18.025801 12.750000
-6.957700 -16.797400 12.750000
-14.424240 -11.068100 12.750000
-16.797380 -6.957710 12.750000
0.000010 -11.917600 -14.250000
-0.499990 -11.917600 -14.250000
-0.499990 -1.181370 -14.250000
-1.249990 -1.181370 -14.250000
-1.249990 -0.500000 -14.250000
-11.986190 -0.500000 -14.250000
-11.986190 0.000000 -14.250000
0.000010 0.000000 -14.250000
-0.499990 -11.917600 -13.375000
-0.499990 -11.917600 -14.250000
0.000010 -11.917600 -14.250000
0.000010 -11.917600 -13.375000
1.250010 0.500000 -11.250000
1.250010 0.500000 -14.250000
11.986210 0.500000 -14.250000
11.986210 0.500000 -13.375000
-0.499990 1.181370 -14.250000
-0.499990 11.917600 -14.250000
-0.499990 11.917600 -13.375000
-0.499990 1.181370 -11.250000
-16.797380 6.957710 12.750000
-14.424240 11.068100 12.750000
-6.957700 16.797400 12.750000
0.000010 18.025801 12.750000
0.000010 1.181370 12.750000
-1.249990 1.181370 12.750000
-1.249990 0.000000 12.750000
-18.025810 0.000000 12.750000
-6.957700 16.797400 12.750000
0.000010 18.025801 12.750000
0.000010 18.025801 14.250000
-6.957700 16.797400 14.250000
-1.249990 -0.500000 -11.250000
-1.249990 -0.500000 -14.250000
-11.986190 -0.500000 -14.250000
-11.986190 -0.500000 -13.375000
11.986210 -0.500000 -13.375000
1.250010 -0.500000 -11.250000
1.250010 0.000000 -11.250000
11.986210 0.000000 -13.375000
-1.249990 0.000000 12.750000
-1.249990 -1.181370 12.750000
-1.249990 -1.181370 -14.250000
-1.249990 -0.500000 -14.250000
-1.249990 -0.500000 -11.250000
-1.249990 0.000000 -11.250000
1.250010 1.181370 -14.250000
1.250010 1.181370 12.750000
0.000010 1.181370 12.750000
0.000010 1.181370 -11.250000
0.500010 1.181370 -11.250000
0.500010 1.181370 -14.250000
-0.499990 -1.181370 -14.250000
-0.499990 -11.917600 -14.250000
0.000010 -11.917600 -14.250000
0.000010 0.000000 -14.250000
-11.986190 0.000000 -14.250000
-11.986190 -0.500000 -14.250000
-1.249990 -0.500000 -14.250000
-1.249990 -1.181370 -14.250000
0.000010 -18.025801 14.250000
0.000010 -18.025801 12.750000
0.000010 18.025801 14.250000
-6.957700 16.797400 14.250000
-14.424240 11.068100 14.250000
-16.797380 6.957710 14.250000
-18.025810 0.000000 14.250000
0.000010 0.000000 14.250000
-0.499990 11.917600 -13.375000
0.000010 11.917600 -13.375000
0.000010 1.181370 -11.250000
-0.499990 1.181370 -11.250000
1.250010 0.500000 -14.250000
1.250010 1.181370 -14.250000
1.250010 1.181370 12.750000
1.250010 0.000000 12.750000
1.250010 0.000000 -11.250000
1.250010 0.500000 -11.250000
0.000010 -18.025801 14.250000
-6.957700 -16.797400 14.250000
-14.424240 -11.068100 14.250000
-16.797380 -6.957710 14.250000
-18.025810 0.000000 14.250000
0.000010 0.000000 14.250000
-18.025810 0.000000 14.250000
-18.025810 0.000000 12.750000
-11.986190 0.000000 -13.375000
-1.249990 0.000000 -11.250000
-1.249990 -0.500000 -11.250000
-11.986190 -0.500000 -13.375000
4 0 1 2 3
4 4 5 6 7
4 8 9 10 11
6 12 13 14 15 16 17
8 18 19 20 21 22 23 24 25
4 26 27 28 29
4 30 31 32 33
4 34 35 36 37
4 38 39 40 41
4 42 43 44 45
8 46 47 48 49 50 51 52 53
4 54 55 56 57
4 58 59 60 61
4 62 63 64 65
4 66 67 68 69
4 70 71 72 73
4 74 75 76 77
4 78 79 80 81
4 82 83 84 85
4 86 87 88 89
4 90 91 92 93
4 94 95 96 97
4 98 99 100 101
8 102 103 104 105 106 107 108 109
4 110 111 112 113
4 114 115 116 117
4 118 119 120 121
4 122 114 117 123
4 124 125 126 127
4 128 129 130 131
4 132 77 76 133
4 134 135 136 137
4 138 139 140 141
4 142 143 144 145
8 146 147 148 149 150 151 152 153
4 154 155 156 157
4 158 159 160 161
6 162 163 164 165 166 167
8 168 169 170 171 172 173 174 175
4 176 177 178 179
6 180 181 182 183 184 185
4 186 187 188 189
8 190 191 192 193 194 195 196 197
4 198 199 200 201
4 202 203 204 205
6 206 207 208 209 210 211
4 212 213 214 215
4 216 217 218 219
4 220 221 222 223
6 224 225 226 227 228 229
8 230 231 232 233 234 235 236 237
6 238 239 240 241 242 243
4 244 201 200 245
4 246 247 248 249
4 250 251 252 253
4 96 95 254 255
6 256 257 258 259 260 261
4 203 262 263 204
4 264 265 266 267
4 268 269 270 271
8 272 273 274 275 276 277 278 279
6 280 281 282 283 284 285
4 286 249 248 287
6 288 289 290 291 292 293
4 294 295 296 297
6 298 299 300 301 302 303
4 304 305 306 307
6 308 309 310 311 312 313
6 314 315 316 317 318 319
4 320 321 322 323
4 324 325 326 327
4 328 329 330 331
4 332 333 334 335
8 336 337 338 339 340 341 342 343
4 63 344 345 64
6 346 347 348 349 350 351
4 59 58 75 74
6 352 353 354 355 356 357
6 358 359 360 361 362 363
4 364 365 366 367
4 368 369 370 371
4 372 373 374 375
8 376 377 378 379 380 381 382 383
8 384 385 386 387 388 389 390 391
4 392 393 394 395
4 396 397 398 399
4 345 344 368 371
8 400 401 402 403 404 405 406 407
4 408 409 410 411
4 116 115 409 408
6 412 413 414 415 416 417
4 418 286 287 419
4 420 421 422 423
6 424 425 426 427 428 429
6 430 431 432 433 434 435
6 436 437 438 439 440 441
4 442 443 444 445
8 446 447 448 449 450 451 452 453
8 454 455 456 457 458 459 460 461
4 462 463 464 465
4 466 467 468 469
4 470 471 472 473
8 474 475 476 477 478 479 480 481
4 482 483 484 485
4 262 482 485 263
4 251 94 97 252
4 486 487 488 489
4 490 491 492 493
6 494 495 496 497 498 499
6 500 501 502 503 504 505
8 506 507 508 509 510 511 512 513
4 247 246 514 515
6 516 517 518 519 520 521
4 31 30 199 198
4 522 523 524 525
4 159 158 188 187
6 526 527 528 529 530 531
6 532 533 534 535 536 537
4 538 186 189 539
4 540 541 542 543
