ply
format ascii 1.0
comment Created by Blender 2.82 (sub 7) - www.blender.org, source file: ''
element vertex 778
property float x
property float y
property float z
element face 268
property list uchar uint vertex_indices
end_header
-12.243550 35.444000 13.431150
12.243650 35.444000 13.431150
12.086950 35.289001 13.496050
-12.086950 35.289001 13.496050
-10.908050 23.417999 13.103250
-10.940550 23.417999 12.570250
-10.940550 -23.341999 12.570250
-10.908050 -23.341999 13.103250
11.846750 23.417999 11.942350
11.846750 -23.341999 11.942350
12.369950 -23.341999 12.048950
12.369950 23.417999 12.048950
11.225750 23.417999 13.744350
11.225750 -23.341999 13.744350
10.931150 -23.341999 13.298950
10.931150 23.417999 13.298950
15.891750 35.116001 14.785850
15.891750 35.116001 15.238650
15.891750 23.289000 15.238650
15.891750 23.289000 14.785850
11.918850 -20.586000 10.328250
12.757350 -20.809999 11.166850
12.757350 -20.809999 -15.238650
11.918850 -20.586000 -15.238650
11.972150 23.417999 14.001550
11.972150 -23.341999 14.001550
11.448950 -23.341999 13.894950
11.448950 23.417999 13.894950
-11.291350 -34.429001 12.700450
11.291350 -34.429001 12.700450
11.269150 -34.407001 12.868550
11.291350 -34.429001 13.036650
-11.291350 -34.429001 13.036650
-11.269150 -34.407001 12.868550
12.378150 -35.505001 13.327850
12.086950 -35.216999 13.496050
-12.086950 -35.216999 13.496050
-12.378150 -35.505001 13.327850
-11.146450 23.417999 13.580950
-11.591750 23.417999 13.875550
-12.124750 23.417999 13.908050
-12.602450 23.417999 13.669650
-12.897050 23.417999 13.224350
-12.929550 23.417999 12.691350
-12.691150 23.417999 12.213550
-12.245850 23.417999 11.919050
-11.712850 23.417999 11.886550
-11.458250 23.417999 11.974250
-11.058450 23.417999 12.328250
-10.940550 23.417999 12.570250
-10.908050 23.417999 13.103250
10.241650 21.611000 -15.238650
10.241650 21.611000 8.651150
10.298750 22.045000 8.708250
10.466350 22.450001 8.875850
10.466350 22.450001 -15.238650
12.546250 35.743999 13.036650
12.568450 35.765999 12.868550
-12.568350 35.765999 12.868550
-12.546250 35.743999 13.036650
-12.481350 35.680000 13.193350
12.481350 35.680000 13.193350
-12.691150 23.417999 12.213550
-12.245850 23.417999 11.919050
-12.245850 -23.341999 11.919050
-12.691150 -23.341999 12.213550
-11.291350 34.500999 12.700450
11.291350 34.500999 12.700450
11.459450 34.667999 12.409250
-11.459450 34.667999 12.409250
15.891750 -35.765999 15.238650
-15.891750 -35.765999 15.238650
-15.891750 -35.765999 14.785850
15.891750 -35.765999 14.785850
11.137050 -23.341999 12.288250
10.986450 -23.341999 12.511450
10.986450 23.417999 12.511450
11.137050 23.417999 12.288250
15.891750 23.289000 15.238650
15.891750 35.116001 15.238650
-15.891750 35.116001 15.238650
-15.891750 23.289000 15.238650
-11.291350 34.500999 13.036650
-11.269150 34.479000 12.868550
-11.269150 -34.407001 12.868550
-11.291350 -34.429001 13.036650
-11.356250 -34.493999 13.193350
-11.356250 34.566002 13.193350
-11.750650 34.956001 12.241050
-11.750650 -34.883999 12.241050
-12.086950 -35.216999 12.241050
-12.086950 35.289001 12.241050
10.298750 22.045000 8.708250
10.241650 21.611000 8.651150
-10.091750 21.611000 8.651150
-10.148950 22.045000 8.708250
-10.316450 22.450001 8.875850
10.466350 22.450001 8.875850
12.546250 -35.672001 12.700450
-12.546250 -35.672001 12.700450
-12.568350 -35.694000 12.868550
-12.546250 -35.672001 13.036650
12.546250 -35.672001 13.036650
12.568450 -35.694000 12.868550
-11.593950 34.800999 13.431150
-11.593950 -34.729000 13.431150
12.481350 -35.606998 13.193350
12.243650 -35.372002 13.431150
12.243650 35.444000 13.431150
12.481350 35.680000 13.193350
11.356250 -34.493999 12.543750
11.356250 34.566002 12.543750
11.291350 34.500999 12.700450
11.269150 34.479000 12.868550
11.269150 -34.407001 12.868550
11.291350 -34.429001 12.700450
-12.568350 35.765999 12.868550
12.568450 35.765999 12.868550
12.546250 35.743999 13.036650
12.481350 35.680000 13.193350
-12.481350 35.680000 13.193350
-12.546250 35.743999 13.036650
12.243650 35.444000 12.305950
12.243650 -35.372002 12.305950
12.086950 -35.216999 12.241050
12.086950 35.289001 12.241050
-12.607550 23.063999 11.166850
12.757350 23.063999 11.166850
11.918850 23.288000 10.328250
-11.768950 23.288000 10.328250
11.080250 23.063999 9.489650
-10.930350 23.063999 9.489650
12.352850 19.990999 -15.238650
12.352850 19.990999 10.762350
11.484750 19.990999 9.894150
11.484750 19.990999 -15.238650
-15.891750 23.289000 15.238650
-15.891750 23.289000 14.785850
-15.891750 -23.938999 14.785850
-15.891750 -23.938999 15.238650
-11.334850 19.990999 9.894150
11.484750 19.990999 9.894150
12.352850 19.990999 10.762350
-12.202950 19.990999 10.762350
12.086950 -35.216999 13.496050
12.086950 35.289001 13.496050
-13.388950 -22.697001 11.948250
13.538850 -22.697001 11.948250
13.595950 -22.263000 12.005450
-13.446050 -22.263000 12.005450
-11.593950 -34.729000 13.431150
-11.593950 34.800999 13.431150
-11.750650 34.956001 13.496050
-11.750650 -34.883999 13.496050
11.291350 34.500999 13.036650
-11.291350 34.500999 13.036650
-11.459450 34.667999 13.327850
11.459450 34.667999 13.327850
11.291350 -34.429001 13.036650
11.291350 34.500999 13.036650
11.356250 34.566002 13.193350
11.356250 -34.493999 13.193350
-12.897050 -23.341999 13.224350
-12.897050 23.417999 13.224350
-12.929550 23.417999 12.691350
-12.929550 -23.341999 12.691350
-10.908050 -23.341999 13.103250
-10.940550 -23.341999 12.570250
-10.940550 23.417999 12.570250
-10.908050 23.417999 13.103250
-13.388950 -22.697001 -15.238650
-12.954850 -23.448999 -15.238650
-12.954850 -23.448999 11.514250
-13.388950 -22.697001 11.948250
-11.458250 -23.341999 11.974250
-11.458250 23.417999 11.974250
-11.712850 23.417999 11.886550
-11.712850 -23.341999 11.886550
11.291350 34.500999 12.700450
11.356250 34.566002 12.543750
11.356250 -34.493999 12.543750
11.291350 -34.429001 12.700450
11.269150 -34.407001 12.868550
11.269150 34.479000 12.868550
13.538850 21.177000 11.948250
13.538850 21.177000 -15.238650
13.595950 21.611000 -15.238650
13.595950 21.611000 12.005450
-12.124750 -23.341999 13.908050
-12.602450 -23.341999 13.669650
-12.602450 23.417999 13.669650
-12.124750 23.417999 13.908050
-11.593950 34.800999 12.305950
-11.593950 -34.729000 12.305950
-11.356250 -34.493999 12.543750
-11.356250 34.566002 12.543750
13.371250 22.450001 -15.238650
13.371250 22.450001 11.780750
13.538850 22.045000 11.948250
11.291350 34.500999 12.700450
-11.291350 34.500999 12.700450
-11.459450 34.667999 12.409250
11.459450 34.667999 12.409250
11.080250 23.063999 -15.238650
11.080250 23.063999 9.489650
-10.316450 -21.424000 -15.238650
-10.316450 -21.424000 8.875850
-10.148950 -21.829000 8.708250
-10.091750 -22.263000 8.651150
-10.091750 -22.263000 -15.238650
12.546250 -35.672001 13.036650
12.546250 35.743999 13.036650
12.568450 35.765999 12.868550
12.568450 -35.694000 12.868550
12.546250 35.743999 12.700450
12.481350 35.680000 12.543750
12.481350 -35.606998 12.543750
12.546250 -35.672001 12.700450
11.750650 34.956001 13.496050
12.086950 35.289001 13.496050
-12.086950 35.289001 13.496050
-11.750650 34.956001 13.496050
-12.202950 19.990999 -15.238650
-11.334850 19.990999 -15.238650
-11.334850 19.990999 9.894150
-12.202950 19.990999 10.762350
11.846750 -23.341999 11.942350
11.846750 23.417999 11.942350
12.369950 23.417999 12.048950
12.369950 -23.341999 12.048950
13.538850 -21.829000 11.948250
13.371250 -21.424000 11.780750
-13.221350 -21.424000 11.780750
-13.388950 -21.829000 11.948250
11.750650 -34.883999 12.241050
11.750650 34.956001 12.241050
12.546250 35.743999 13.036650
12.481350 35.680000 13.193350
12.481350 -35.606998 13.193350
12.546250 -35.672001 13.036650
12.568450 -35.694000 12.868550
12.568450 35.765999 12.868550
-13.446050 21.611000 12.005450
-13.388950 21.177000 11.948250
13.538850 21.177000 11.948250
13.595950 21.611000 12.005450
10.879850 -23.341999 13.034650
10.879850 23.417999 13.034650
13.104750 20.424999 11.514250
13.104750 20.424999 -15.238650
11.582450 23.417999 11.993650
11.582450 -23.341999 11.993650
-12.602450 -23.341999 13.669650
-12.602450 23.417999 13.669650
-11.269150 -34.407001 12.868550
-11.269150 34.479000 12.868550
-11.291350 34.500999 13.036650
-11.356250 34.566002 13.193350
-11.356250 -34.493999 13.193350
-11.291350 -34.429001 13.036650
-11.750650 34.956001 13.496050
11.750650 34.956001 13.496050
12.352850 -23.882999 10.762350
11.484750 -23.882999 9.894150
11.484750 -23.882999 -15.238650
12.352850 -23.882999 -15.238650
-10.582950 20.424999 9.142350
10.732850 20.424999 9.142350
12.757350 23.063999 -15.238650
12.757350 23.063999 11.166850
11.459450 -34.596001 13.327850
11.459450 34.667999 13.327850
11.291350 -34.429001 12.700450
11.459450 -34.596001 12.409250
-11.459450 -34.596001 12.409250
-11.291350 -34.429001 12.700450
-11.058450 -23.341999 12.328250
-11.058450 23.417999 12.328250
-11.146450 23.417999 13.580950
-11.146450 -23.341999 13.580950
-11.269150 34.479000 12.868550
11.269150 34.479000 12.868550
11.291350 34.500999 13.036650
-11.291350 34.500999 13.036650
12.481350 -35.606998 12.543750
12.481350 35.680000 12.543750
-11.591750 23.417999 13.875550
-11.591750 -23.341999 13.875550
-11.356250 34.566002 12.543750
-11.291350 34.500999 12.700450
-11.291350 -34.429001 12.700450
-11.356250 -34.493999 12.543750
13.371250 -21.424000 11.780750
13.371250 -21.424000 -15.238650
-13.221350 22.450001 -15.238650
-13.221350 22.450001 11.780750
-12.607550 23.063999 11.166850
-12.607550 23.063999 -15.238650
-11.269150 34.479000 12.868550
11.269150 34.479000 12.868550
-12.378150 -35.505001 13.327850
-12.086950 -35.216999 13.496050
12.086950 -35.216999 13.496050
12.378150 -35.505001 13.327850
12.243650 35.444000 13.431150
-12.243550 35.444000 13.431150
-12.378150 -35.505001 13.327850
-12.378150 35.577000 13.327850
-12.086950 35.289001 13.496050
-12.086950 -35.216999 13.496050
13.538850 -22.697001 -15.238650
13.595950 -22.263000 -15.238650
13.371250 -21.424000 -15.238650
12.757350 -20.809999 -15.238650
11.918850 -20.586000 -15.238650
11.080250 -20.809999 -15.238650
10.466350 -21.424000 -15.238650
10.241650 -22.263000 -15.238650
10.298750 -22.697001 -15.238650
10.732850 -23.448999 -15.238650
11.484750 -23.882999 -15.238650
12.352850 -23.882999 -15.238650
13.104750 -23.448999 -15.238650
-11.334850 -23.882999 9.894150
-11.334850 -23.882999 -15.238650
-10.582950 -23.448999 -15.238650
-10.582950 -23.448999 9.142350
12.546250 -35.672001 12.700450
-12.546250 -35.672001 12.700450
-12.378150 -35.505001 12.409250
12.378150 -35.505001 12.409250
10.466350 -21.424000 8.875850
10.298750 -21.829000 8.708250
10.241650 -22.263000 8.651150
-10.091750 -22.263000 8.651150
-10.148950 -21.829000 8.708250
-10.316450 -21.424000 8.875850
13.371250 22.450001 -15.238650
12.757350 23.063999 -15.238650
11.918850 23.288000 -15.238650
11.080250 23.063999 -15.238650
10.466350 22.450001 -15.238650
10.241650 21.611000 -15.238650
10.298750 21.177000 -15.238650
10.732850 20.424999 -15.238650
11.484750 19.990999 -15.238650
12.352850 19.990999 -15.238650
13.104750 20.424999 -15.238650
13.538850 21.177000 -15.238650
13.595950 21.611000 -15.238650
-11.768950 -20.586000 10.328250
11.918850 -20.586000 10.328250
11.080250 -20.809999 9.489650
-10.930350 -20.809999 9.489650
-12.546250 -35.672001 12.700450
-12.378150 -35.505001 12.409250
-12.378150 35.577000 12.409250
-12.546250 35.743999 12.700450
11.459450 -34.596001 13.327850
11.291350 -34.429001 13.036650
-11.291350 -34.429001 13.036650
-11.459450 -34.596001 13.327850
-11.058450 23.417999 12.328250
-11.058450 -23.341999 12.328250
11.080250 -20.809999 9.489650
11.080250 -20.809999 -15.238650
-13.221350 -21.424000 11.780750
-13.221350 -21.424000 -15.238650
-13.446050 -22.263000 -15.238650
-13.446050 -22.263000 12.005450
-13.388950 -21.829000 11.948250
10.298750 -22.697001 -15.238650
10.732850 -23.448999 -15.238650
10.732850 -23.448999 9.142350
10.298750 -22.697001 8.708250
-11.768950 23.288000 -15.238650
-11.768950 23.288000 10.328250
-11.750650 34.956001 12.241050
11.750650 34.956001 12.241050
11.459450 34.667999 13.327850
-11.459450 34.667999 13.327850
12.832450 -23.341999 13.432450
12.478550 -23.341999 13.832250
12.478550 23.417999 13.832250
12.832450 23.417999 13.432450
-12.568350 -35.694000 12.868550
-12.568350 35.765999 12.868550
-12.546250 35.743999 13.036650
-12.546250 -35.672001 13.036650
-13.446050 -22.263000 -15.238650
-13.221350 -21.424000 -15.238650
-12.607550 -20.809999 -15.238650
-11.768950 -20.586000 -15.238650
-10.930350 -20.809999 -15.238650
-10.316450 -21.424000 -15.238650
-10.091750 -22.263000 -15.238650
-10.148950 -22.697001 -15.238650
-10.582950 -23.448999 -15.238650
-11.334850 -23.882999 -15.238650
-12.202950 -23.882999 -15.238650
-12.954850 -23.448999 -15.238650
-13.388950 -22.697001 -15.238650
10.466350 -21.424000 -15.238650
10.466350 -21.424000 8.875850
-10.091750 21.611000 8.651150
-10.091750 21.611000 -15.238650
-10.316450 22.450001 -15.238650
-10.316450 22.450001 8.875850
-10.148950 22.045000 8.708250
-12.086950 35.289001 12.241050
12.086950 35.289001 12.241050
-10.148950 21.177000 8.708250
10.298750 21.177000 8.708250
-12.954850 -23.448999 11.514250
-12.202950 -23.882999 10.762350
12.352850 -23.882999 10.762350
13.104750 -23.448999 11.514250
-12.954850 -23.448999 -15.238650
-12.202950 -23.882999 -15.238650
-11.334850 -23.882999 -15.238650
-10.582950 -23.448999 -15.238650
-10.148950 -22.697001 -15.238650
-10.091750 -22.263000 -15.238650
-10.316450 -21.424000 -15.238650
-10.930350 -20.809999 -15.238650
-11.768950 -20.586000 -15.238650
-12.607550 -20.809999 -15.238650
-13.221350 -21.424000 -15.238650
-13.446050 -22.263000 -15.238650
-13.388950 -22.697001 -15.238650
-12.546250 35.743999 12.700450
-12.378150 35.577000 12.409250
-12.378150 -35.505001 12.409250
-12.546250 -35.672001 12.700450
-12.086950 -35.216999 12.241050
-12.086950 35.289001 12.241050
-13.388950 21.177000 -15.238650
-12.954850 20.424999 -15.238650
-12.202950 19.990999 -15.238650
-11.334850 19.990999 -15.238650
-10.582950 20.424999 -15.238650
-10.148950 21.177000 -15.238650
-10.091750 21.611000 -15.238650
-10.316450 22.450001 -15.238650
-10.930350 23.063999 -15.238650
-11.768950 23.288000 -15.238650
-12.607550 23.063999 -15.238650
-13.221350 22.450001 -15.238650
-13.446050 21.611000 -15.238650
12.481350 35.680000 12.543750
12.243650 35.444000 12.305950
-12.243550 35.444000 12.305950
-12.481350 35.680000 12.543750
12.086950 35.289001 12.241050
12.086950 -35.216999 12.241050
12.243650 -35.372002 12.305950
12.243650 35.444000 12.305950
-10.930350 23.063999 -15.238650
-10.930350 23.063999 9.489650
12.236450 23.417999 13.950250
12.236450 -23.341999 13.950250
12.478550 -23.341999 13.832250
12.478550 23.417999 13.832250
-13.446050 21.611000 -15.238650
-13.221350 22.450001 -15.238650
-12.607550 23.063999 -15.238650
-11.768950 23.288000 -15.238650
-10.930350 23.063999 -15.238650
-10.316450 22.450001 -15.238650
-10.091750 21.611000 -15.238650
-10.148950 21.177000 -15.238650
-10.582950 20.424999 -15.238650
-11.334850 19.990999 -15.238650
-12.202950 19.990999 -15.238650
-12.954850 20.424999 -15.238650
-13.388950 21.177000 -15.238650
12.939050 -23.341999 12.909250
12.769750 -23.341999 12.402850
12.769750 23.417999 12.402850
12.939050 23.417999 12.909250
-15.891750 -23.938999 15.238650
15.891750 -23.938999 15.238650
15.891750 -23.938999 14.785850
-15.891750 -23.938999 14.785850
-12.378150 35.577000 13.327850
-12.546250 35.743999 13.036650
-12.546250 -35.672001 13.036650
-12.378150 -35.505001 13.327850
15.891750 23.289000 15.238650
-15.891750 23.289000 15.238650
-15.891750 23.289000 14.785850
15.891750 23.289000 14.785850
10.879850 23.417999 13.034650
10.879850 -23.341999 13.034650
10.931150 -23.341999 13.298950
10.931150 23.417999 13.298950
-15.891750 35.116001 15.238650
15.891750 35.116001 15.238650
15.891750 35.116001 14.785850
-15.891750 35.116001 14.785850
13.538850 -21.829000 11.948250
13.595950 -22.263000 12.005450
13.595950 -22.263000 -15.238650
15.891750 -23.938999 15.238650
-15.891750 -23.938999 15.238650
-15.891750 -23.938999 14.785850
15.891750 -23.938999 14.785850
-15.891750 23.289000 15.238650
15.891750 23.289000 15.238650
15.891750 23.289000 14.785850
-15.891750 23.289000 14.785850
11.582450 23.417999 11.993650
11.582450 -23.341999 11.993650
-12.607550 -20.809999 11.166850
-11.768950 -20.586000 10.328250
-11.768950 -20.586000 -15.238650
-12.607550 -20.809999 -15.238650
11.484750 -23.882999 9.894150
-11.334850 -23.882999 9.894150
-10.582950 -23.448999 9.142350
10.732850 -23.448999 9.142350
12.769750 23.417999 12.402850
12.769750 -23.341999 12.402850
10.298750 -22.697001 8.708250
-10.148950 -22.697001 8.708250
-12.954850 20.424999 -15.238650
-12.954850 20.424999 11.514250
11.459450 -34.596001 13.327850
-11.459450 -34.596001 13.327850
-10.582950 20.424999 9.142350
-10.582950 20.424999 -15.238650
-10.148950 21.177000 -15.238650
-10.148950 21.177000 8.708250
-11.146450 23.417999 13.580950
-10.908050 23.417999 13.103250
-10.940550 23.417999 12.570250
-11.058450 23.417999 12.328250
-11.458250 23.417999 11.974250
-11.712850 23.417999 11.886550
-12.245850 23.417999 11.919050
-12.691150 23.417999 12.213550
-12.929550 23.417999 12.691350
-12.897050 23.417999 13.224350
-12.602450 23.417999 13.669650
-12.124750 23.417999 13.908050
-11.591750 23.417999 13.875550
-12.245850 23.417999 11.919050
-12.245850 -23.341999 11.919050
-12.691150 23.417999 12.213550
-12.691150 -23.341999 12.213550
-12.954850 20.424999 11.514250
13.104750 20.424999 11.514250
-11.750650 -34.883999 13.496050
11.750650 -34.883999 13.496050
-11.750650 34.956001 13.496050
-11.750650 -34.883999 13.496050
11.291350 34.500999 13.036650
11.291350 -34.429001 13.036650
11.356250 -34.493999 13.193350
11.356250 34.566002 13.193350
10.241650 -22.263000 -15.238650
10.241650 -22.263000 8.651150
10.298750 -21.829000 8.708250
10.298750 -22.697001 -15.238650
10.241650 -22.263000 -15.238650
10.466350 -21.424000 -15.238650
11.080250 -20.809999 -15.238650
11.918850 -20.586000 -15.238650
12.757350 -20.809999 -15.238650
13.371250 -21.424000 -15.238650
13.595950 -22.263000 -15.238650
13.538850 -22.697001 -15.238650
13.104750 -23.448999 -15.238650
12.352850 -23.882999 -15.238650
11.484750 -23.882999 -15.238650
10.732850 -23.448999 -15.238650
11.750650 -34.883999 13.496050
-11.750650 -34.883999 13.496050
13.538850 22.045000 11.948250
13.371250 22.450001 11.780750
-13.221350 22.450001 11.780750
-13.388950 22.045000 11.948250
-11.291350 -34.429001 12.700450
-11.291350 34.500999 12.700450
-11.750650 -34.883999 12.241050
11.750650 -34.883999 12.241050
12.086950 -35.216999 12.241050
-12.086950 -35.216999 12.241050
12.243650 -35.372002 13.431150
12.243650 35.444000 13.431150
12.086950 35.289001 13.496050
12.086950 -35.216999 13.496050
11.918850 23.288000 -15.238650
11.918850 23.288000 10.328250
-11.459450 -34.596001 12.409250
11.459450 -34.596001 12.409250
-12.481350 35.680000 12.543750
-12.243550 35.444000 12.305950
12.243650 35.444000 12.305950
12.481350 35.680000 12.543750
-11.593950 -34.729000 12.305950
-11.593950 34.800999 12.305950
-10.930350 -20.809999 9.489650
-10.930350 -20.809999 -15.238650
11.459450 34.667999 12.409250
11.459450 -34.596001 12.409250
10.732850 20.424999 9.142350
10.732850 20.424999 -15.238650
-12.568350 -35.694000 12.868550
12.568450 -35.694000 12.868550
12.546250 -35.672001 13.036650
-12.546250 -35.672001 13.036650
11.459450 -34.596001 12.409250
11.459450 34.667999 12.409250
-13.388950 21.177000 11.948250
-13.388950 21.177000 -15.238650
11.918850 23.288000 -15.238650
12.757350 23.063999 -15.238650
13.371250 22.450001 -15.238650
13.595950 21.611000 -15.238650
13.538850 21.177000 -15.238650
13.104750 20.424999 -15.238650
12.352850 19.990999 -15.238650
11.484750 19.990999 -15.238650
10.732850 20.424999 -15.238650
10.298750 21.177000 -15.238650
10.241650 21.611000 -15.238650
10.466350 22.450001 -15.238650
11.080250 23.063999 -15.238650
-12.202950 -23.882999 10.762350
-12.202950 -23.882999 -15.238650
-11.750650 -34.883999 12.241050
11.750650 -34.883999 12.241050
12.546250 35.743999 12.700450
-12.546250 35.743999 12.700450
11.750650 34.956001 13.496050
11.750650 -34.883999 13.496050
-11.750650 34.956001 12.241050
-11.750650 -34.883999 12.241050
11.750650 -34.883999 12.241050
11.750650 34.956001 12.241050
12.546250 35.743999 12.700450
12.546250 -35.672001 12.700450
10.298750 21.177000 -15.238650
10.298750 21.177000 8.708250
-12.086950 -35.216999 12.241050
12.086950 -35.216999 12.241050
12.757350 -20.809999 11.166850
-12.607550 -20.809999 11.166850
12.546250 35.743999 12.700450
-12.546250 35.743999 12.700450
11.750650 -34.883999 13.496050
11.750650 34.956001 13.496050
11.459450 34.667999 13.327850
11.459450 -34.596001 13.327850
12.378150 -35.505001 12.409250
-12.378150 -35.505001 12.409250
11.846750 23.417999 11.942350
11.582450 23.417999 11.993650
11.137050 23.417999 12.288250
10.986450 23.417999 12.511450
10.879850 23.417999 13.034650
10.931150 23.417999 13.298950
11.225750 23.417999 13.744350
11.448950 23.417999 13.894950
11.972150 23.417999 14.001550
12.478550 23.417999 13.832250
12.832450 23.417999 13.432450
12.939050 23.417999 12.909250
12.769750 23.417999 12.402850
12.369950 23.417999 12.048950
12.086950 35.289001 12.241050
11.750650 34.956001 12.241050
-11.750650 34.956001 12.241050
-12.086950 35.289001 12.241050
10.986450 -23.341999 12.511450
10.986450 23.417999 12.511450
11.269150 -34.407001 12.868550
-11.269150 -34.407001 12.868550
-13.446050 21.611000 12.005450
-13.446050 21.611000 -15.238650
11.448950 23.417999 13.894950
11.225750 23.417999 13.744350
10.931150 23.417999 13.298950
10.879850 23.417999 13.034650
10.986450 23.417999 12.511450
11.137050 23.417999 12.288250
11.582450 23.417999 11.993650
11.846750 23.417999 11.942350
12.369950 23.417999 12.048950
12.769750 23.417999 12.402850
12.939050 23.417999 12.909250
12.832450 23.417999 13.432450
12.478550 23.417999 13.832250
11.972150 23.417999 14.001550
-15.891750 -23.938999 15.238650
-15.891750 -23.938999 14.785850
-15.891750 -35.765999 14.785850
-15.891750 -35.765999 15.238650
-11.591750 -23.341999 13.875550
-11.591750 23.417999 13.875550
15.891750 -23.938999 14.785850
15.891750 -23.938999 15.238650
15.891750 -35.765999 15.238650
15.891750 -35.765999 14.785850
12.236450 -23.341999 13.950250
12.236450 23.417999 13.950250
15.891750 -35.765999 15.238650
15.891750 -23.938999 15.238650
-15.891750 -23.938999 15.238650
-15.891750 -35.765999 15.238650
11.972150 23.417999 14.001550
11.972150 -23.341999 14.001550
12.236450 -23.341999 13.950250
12.236450 23.417999 13.950250
12.236450 23.417999 13.950250
12.236450 -23.341999 13.950250
11.448950 23.417999 13.894950
11.448950 -23.341999 13.894950
15.891750 23.289000 14.785850
15.891750 -23.938999 14.785850
-15.891750 -23.938999 14.785850
-15.891750 23.289000 14.785850
15.891750 -23.938999 14.785850
15.891750 -35.765999 14.785850
-15.891750 -35.765999 14.785850
-15.891750 -23.938999 14.785850
11.137050 23.417999 12.288250
11.137050 -23.341999 12.288250
11.225750 -23.341999 13.744350
11.225750 23.417999 13.744350
-15.891750 35.116001 15.238650
-15.891750 35.116001 14.785850
-15.891750 23.289000 14.785850
-15.891750 23.289000 15.238650
12.939050 23.417999 12.909250
12.939050 -23.341999 12.909250
15.891750 23.289000 14.785850
15.891750 23.289000 15.238650
15.891750 -23.938999 15.238650
15.891750 -23.938999 14.785850
15.891750 -23.938999 15.238650
15.891750 23.289000 15.238650
-15.891750 23.289000 15.238650
-15.891750 -23.938999 15.238650
15.891750 35.116001 14.785850
15.891750 23.289000 14.785850
-15.891750 23.289000 14.785850
-15.891750 35.116001 14.785850
13.104750 -23.448999 11.514250
13.104750 -23.448999 -15.238650
12.832450 23.417999 13.432450
12.832450 -23.341999 13.432450
13.538850 -22.697001 11.948250
13.538850 -22.697001 -15.238650
-11.146450 -23.341999 13.580950
-11.146450 23.417999 13.580950
-12.568350 35.765999 12.868550
-12.568350 -35.694000 12.868550
-12.086950 35.289001 13.496050
-12.086950 -35.216999 13.496050
-10.148950 -22.697001 -15.238650
-10.148950 -22.697001 8.708250
-13.388950 22.045000 11.948250
-11.591750 -23.341999 13.875550
-11.591750 23.417999 13.875550
-12.897050 23.417999 13.224350
-12.897050 -23.341999 13.224350
-12.929550 -23.341999 12.691350
-12.929550 23.417999 12.691350
-12.124750 -23.341999 13.908050
-12.124750 23.417999 13.908050
-11.591750 -23.341999 13.875550
-11.591750 23.417999 13.875550
-11.712850 23.417999 11.886550
-11.712850 -23.341999 11.886550
-11.458250 -23.341999 11.974250
-11.458250 23.417999 11.974250
4 0 1 2 3
4 4 5 6 7
4 8 9 10 11
4 12 13 14 15
4 16 17 18 19
4 20 21 22 23
4 24 25 26 27
6 28 29 30 31 32 33
4 34 35 36 37
13 38 39 40 41 42 43 44 45 46 47 48 49 50
5 51 52 53 54 55
6 56 57 58 59 60 61
4 62 63 64 65
4 66 67 68 69
4 70 71 72 73
4 74 75 76 77
4 78 79 80 81
6 82 83 84 85 86 87
4 88 89 90 91
6 92 93 94 95 96 97
6 98 99 100 101 102 103
4 104 87 86 105
4 106 107 108 109
6 110 111 112 113 114 115
6 116 117 118 119 120 121
4 122 123 124 125
4 126 127 128 129
4 130 131 129 128
4 132 133 134 135
4 136 137 138 139
4 140 141 142 143
4 144 145 108 107
4 146 147 148 149
4 150 151 152 153
4 154 155 156 157
6 158 114 113 159 160 161
4 162 163 164 165
4 166 167 168 169
4 170 171 172 173
4 174 175 176 177
6 178 179 180 181 182 183
4 184 185 186 187
4 188 189 190 191
4 192 193 194 195
5 196 197 198 187 186
4 199 200 201 202
4 203 55 54 204
5 205 206 207 208 209
6 210 106 109 211 212 213
6 214 215 216 217 213 212
4 218 219 220 221
4 222 223 224 225
4 226 227 228 229
6 148 230 231 232 233 149
4 234 235 125 124
6 236 237 238 239 240 241
4 242 243 244 245
4 246 247 76 75
4 185 184 248 249
4 9 8 250 251
4 252 253 163 162
6 254 255 256 257 258 259
4 260 261 157 156
4 262 263 264 265
4 266 267 141 140
4 268 269 197 196
4 270 161 160 271
4 272 273 274 275
4 167 276 277 168
4 278 4 7 279
6 280 200 199 281 282 283
4 284 123 122 285
4 286 287 188 191
6 288 289 255 254 290 291
4 21 292 293 22
4 294 295 296 297
4 131 130 97 96
6 67 66 298 155 154 299
4 300 301 302 303
4 220 219 304 305
4 306 307 308 309
13 310 311 312 313 314 315 316 317 318 319 320 321 322
4 323 324 325 326
4 327 328 329 330
6 331 332 333 334 335 336
13 337 338 339 340 341 342 343 344 345 346 347 348 349
4 350 351 352 353
4 354 355 356 357
4 358 359 360 361
4 362 175 174 363
4 364 20 23 365
5 366 367 368 369 370
4 371 372 373 374
4 375 297 296 376
4 377 69 68 378
4 379 218 221 380
4 381 382 383 384
6 385 354 357 386 387 388
13 389 390 391 392 393 394 395 396 397 398 399 400 401
4 365 402 403 364
5 404 405 406 407 408
4 409 377 378 410
4 411 94 93 412
4 413 414 415 416
13 417 418 419 420 421 422 423 424 425 426 427 428 429
4 430 431 432 433
4 356 355 434 435
13 436 437 438 439 440 441 442 443 444 445 446 447 448
4 449 450 451 452
4 453 454 455 456
4 407 406 457 458
4 65 165 164 62
4 459 460 461 462
13 463 464 465 466 467 468 469 470 471 472 473 474 475
4 476 477 478 479
4 480 481 482 483
4 484 485 486 487
4 488 489 490 491
4 492 15 14 493
4 246 494 495 247
4 496 497 498 499
5 293 292 500 501 502
4 503 504 505 506
4 507 508 509 510
4 74 77 511 512
4 513 514 515 516
4 457 375 376 458
4 517 518 519 520
4 521 11 10 522
4 334 333 523 524
4 525 222 225 526
4 32 31 527 528
4 529 530 531 532
13 533 534 535 536 537 538 539 540 541 542 543 544 545
4 249 248 133 132
4 266 411 412 267
4 546 547 177 176
4 547 546 548 549
4 243 550 551 244
4 552 553 302 301
4 309 308 554 555
6 556 183 182 557 558 559
5 402 560 561 562 403
13 563 564 565 566 567 568 569 570 571 572 573 574 575
4 576 577 36 35
6 242 245 578 579 580 581
6 194 582 84 83 583 195
4 584 585 586 587
4 120 119 1 0
4 588 589 590 591
4 268 592 593 269
4 594 595 29 28
4 596 597 598 599
4 291 600 601 288
4 602 206 205 603
4 102 101 300 303
4 180 179 604 605
4 592 203 204 593
4 514 602 603 515
4 135 134 606 607
4 388 387 307 306
6 608 328 327 609 610 611
4 612 613 111 110
4 525 526 614 615
13 616 617 618 619 620 621 622 623 624 625 626 627 628
4 629 172 171 630
4 601 600 89 88
4 369 368 170 173
4 576 358 361 577
4 595 594 631 632
6 58 57 633 449 452 634
4 635 145 144 636
4 637 638 193 192
4 90 432 431 91
4 613 612 639 640
6 284 285 641 241 240 642
4 643 644 52 51
4 366 513 516 367
4 632 631 645 646
4 647 351 350 648
4 638 637 435 434
6 649 117 116 650 596 599
4 651 652 653 654
4 99 98 655 656
4 231 647 648 232
14 657 658 659 660 661 662 663 664 665 666 667 668 669 670
4 640 639 454 453
4 223 530 529 224
4 671 672 673 674
4 492 493 675 676
4 237 589 588 238
4 456 455 216 215
4 263 373 372 264
4 304 61 60 305
4 597 409 410 598
4 450 671 674 451
6 677 272 275 678 360 359
4 229 228 478 477
4 615 614 679 680
14 681 682 683 684 685 686 687 688 689 690 691 692 693 694
4 695 696 697 698
4 629 630 324 323
4 278 279 699 700
4 701 702 703 704
4 383 382 705 706
4 532 531 405 404
4 707 708 709 710
4 27 26 13 12
4 607 606 644 643
4 711 712 713 714
4 715 716 25 24
4 712 711 717 718
4 719 720 721 722
4 413 416 147 146
4 723 724 725 726
4 727 676 675 728
4 727 728 251 250
4 729 730 495 494
4 730 729 718 717
4 672 202 201 673
4 731 732 733 734
4 512 511 227 226
4 735 521 522 736
4 737 738 739 740
4 741 742 743 744
4 524 523 520 519
4 646 645 656 655
4 561 560 371 374
4 745 746 747 748
4 587 586 330 329
4 749 262 265 750
4 476 479 751 752
4 552 528 527 553
4 414 518 517 415
4 752 751 462 461
4 502 501 753 754
4 755 166 169 756
4 258 257 151 150
6 757 430 433 758 486 485
4 271 635 636 270
4 759 484 487 760
4 761 762 326 325
5 763 295 294 680 679
4 764 755 756 765
4 555 554 104 105
4 143 142 551 550
4 653 559 558 654
4 766 767 768 769
4 353 352 331 336
4 209 208 762 761
4 580 579 127 126
4 770 771 253 252
4 190 189 767 766
4 772 773 771 770
4 37 611 610 34
4 753 749 750 754
4 380 283 282 379
4 548 769 768 549
4 735 736 381 384
4 605 604 235 234
4 64 63 774 775
4 3 2 261 260
4 591 590 652 651
4 152 759 760 153
4 276 776 777 277
4 775 774 777 776
4 5 362 363 6
4 274 273 585 584
