ply
format ascii 1.0
comment Created by Blender 2.82 (sub 7) - www.blender.org, source file: ''
element vertex 784
property float x
property float y
property float z
element face 204
property list uchar uint vertex_indices
end_header
19.799749 41.453297 13.922250
19.749250 41.402798 13.768350
-19.749220 41.402798 13.768350
-19.789448 41.442997 13.868950
-19.799711 41.453297 14.030550
19.799749 41.453297 14.030550
19.685049 -39.370083 13.681150
17.716551 -39.370083 13.681150
17.716551 -41.338585 13.681150
19.685049 -41.338585 13.681150
-0.984250 39.370098 12.893750
-17.716539 39.370098 12.893750
-17.716539 39.370098 10.925250
17.716551 39.370098 10.925250
17.716551 39.370098 12.893750
0.984250 39.370098 12.893750
0.984250 39.370098 13.681150
-0.984250 39.370098 13.681150
-19.685040 41.338596 -13.877949
-19.685040 41.338596 -14.271650
-17.716539 41.338596 -14.271650
-17.716539 41.338596 -13.877949
-19.685040 39.370098 -13.877949
-19.685040 41.338596 -13.877949
-19.685040 41.338596 13.681150
-19.685040 39.370098 13.681150
0.984250 39.370098 12.893750
17.716551 39.370098 12.893750
17.716551 41.338596 12.893750
0.984250 41.338596 12.893750
-0.984250 -41.338585 12.893750
-0.984250 -39.370083 12.893750
-0.984250 -39.370083 13.681150
-0.984250 -41.338585 13.681150
-17.716539 -41.338585 12.893750
-0.984250 -41.338585 12.893750
-0.984250 -39.370083 12.893750
-17.716539 -39.370083 12.893750
-17.716539 41.338596 12.893750
-17.716539 41.338596 -13.877949
-19.685040 41.338596 -13.877949
-19.685040 41.338596 13.681150
-17.716539 41.338596 13.681150
-18.941816 -39.370094 -0.514750
-18.311890 -39.370094 -0.514750
-18.311890 -39.370094 -1.105350
-18.941816 -39.370094 -1.105350
-17.716539 41.338596 12.893750
-17.716539 41.338596 13.681150
-19.685040 41.338596 13.681150
-19.685040 41.338596 -13.877949
-17.716539 41.338596 -13.877949
19.772551 -41.426071 13.817350
19.772551 41.426098 13.817350
19.685049 41.338596 13.681150
19.685049 -41.338589 13.681150
-19.685040 -41.338585 -14.271650
-19.685040 -41.338585 13.681150
-17.716539 -41.338585 13.681150
-17.716539 -41.338585 12.893750
-17.716539 -41.338585 -13.877949
-17.716539 -41.338585 -14.271650
-19.685040 39.370098 -14.271650
-19.685040 39.370098 13.681150
-17.716539 39.370098 13.681150
-17.716539 39.370098 12.893750
-17.716539 39.370098 -13.877949
-17.716539 39.370098 -14.271650
17.716551 -39.370083 -13.877949
17.716551 -39.370083 -14.271650
19.685049 -39.370083 -14.271650
19.685049 -39.370083 -13.877949
-18.941816 -39.370094 11.060050
-18.311890 -39.370094 11.060050
-18.311890 39.370098 11.060050
-18.941816 39.370098 11.060050
19.685049 -39.370083 13.681150
19.685049 -39.370083 -13.877949
17.716551 -39.370083 -13.877949
17.716551 -39.370083 13.681150
-0.984250 -39.370083 12.893750
-0.984250 39.370098 12.893750
-0.984250 39.370098 10.925250
-0.984250 -39.370083 10.925250
0.984250 0.984297 13.681150
0.984250 -0.984303 13.681150
0.984250 -0.984303 12.893750
0.984250 0.984297 12.893750
-17.716539 41.338596 13.681150
-17.716539 39.370098 13.681150
-17.716539 39.370098 12.893750
-17.716539 41.338596 12.893750
-0.984250 39.370098 13.681150
0.984250 39.370098 13.681150
0.984250 41.338596 13.681150
-0.984250 41.338596 13.681150
0.984250 0.984297 13.681150
0.984250 0.984297 12.893750
-0.984250 0.984297 12.893750
-0.984250 0.984297 13.681150
-17.716539 39.370098 -13.877949
-0.984250 -39.370083 12.893750
0.984250 -39.370083 12.893750
0.984250 -0.984303 12.893750
-0.984250 -0.984303 12.893750
-0.984250 39.370098 13.681150
-0.984250 41.338596 13.681150
-0.984250 41.338596 12.893750
-0.984250 39.370098 12.893750
-0.984250 -41.338585 13.681150
-0.984250 -39.370083 13.681150
-0.984250 -39.370083 12.893750
-0.984250 -41.338585 12.893750
-0.984250 39.370098 12.893750
-0.984250 41.338596 12.893750
-0.984250 41.338596 13.681150
-0.984250 39.370098 13.681150
17.716551 -39.370083 10.925250
-17.716539 -39.370083 10.925250
-17.716539 -41.338585 10.925250
17.716551 -41.338585 10.925250
-19.685040 -41.338585 13.681150
-17.716539 -41.338585 13.681150
-17.716539 -39.370083 13.681150
-19.685040 -39.370083 13.681150
-17.716539 -39.370083 -14.271650
-19.685040 -39.370083 -14.271650
-19.685040 -41.338585 -14.271650
-17.716539 -41.338585 -14.271650
-19.749220 41.402798 14.184350
-19.685040 41.338596 14.271650
-19.685040 -41.338589 14.271650
-19.749220 -41.402767 14.184350
-19.799711 -41.453262 14.030550
-19.799711 41.453297 14.030550
-0.984250 -39.370083 10.925250
-0.984250 39.370098 10.925250
-0.984250 39.370098 12.893750
-0.984250 -39.370083 12.893750
-17.716539 -39.370083 12.893750
-17.716539 -41.338585 12.893750
-17.716539 -41.338585 13.681150
-17.716539 -39.370083 13.681150
-17.716539 -39.370083 12.893750
-17.716539 -39.370083 10.925250
17.716551 -39.370083 10.925250
17.716551 -39.370083 12.893750
0.984250 -39.370083 12.893750
0.984250 -39.370083 13.681150
-0.984250 -39.370083 13.681150
-0.984250 -39.370083 12.893750
-17.716539 -39.370083 12.893750
-0.984250 -39.370083 12.893750
-0.984250 -41.338585 12.893750
-17.716539 -41.338585 12.893750
19.685049 -41.338585 -13.877949
19.685049 -39.370083 -13.877949
19.685049 -39.370083 -14.271650
19.685049 -41.338585 -14.271650
-17.716539 39.370098 10.925250
-19.685040 39.370098 -14.271650
-19.685040 41.338596 -14.271650
-19.685040 41.338596 -13.877949
-19.685040 39.370098 -13.877949
19.685049 -39.370083 -13.877949
19.685049 -39.370083 -14.271650
17.716551 -39.370083 -14.271650
17.716551 -39.370083 -13.877949
17.716551 41.338596 -13.877949
17.716551 39.370098 -13.877949
17.716551 39.370098 -14.271650
17.716551 41.338596 -14.271650
-17.716539 41.338596 -13.877949
-17.716539 41.338596 -14.271650
-19.685040 41.338596 -14.271650
-19.685040 41.338596 -13.877949
17.716551 41.338596 10.925250
17.716551 39.370098 10.925250
17.716551 39.370098 12.893750
17.716551 41.338596 12.893750
19.685049 41.338596 13.681150
19.685049 41.338596 -13.877949
17.716551 41.338596 -13.877949
17.716551 41.338596 13.681150
-18.941816 -39.370094 -1.105350
-18.311890 -39.370094 -1.105350
-18.311890 -39.370094 -0.514750
-18.941816 -39.370094 -0.514750
-19.685040 41.338596 14.271650
19.685049 41.338596 14.271650
19.685049 -41.338589 14.271650
-19.685040 -41.338589 14.271650
-19.799711 41.453297 14.030550
-19.789448 41.442997 13.868950
-19.749220 41.402798 13.768350
19.749250 41.402798 13.768350
19.799749 41.453297 13.922250
19.799749 41.453297 14.030550
-17.716539 41.338596 10.925250
-18.311890 -39.370094 11.060050
-18.311890 -39.370094 10.469550
-18.311890 39.370098 10.469550
-18.311890 39.370098 11.060050
17.716551 41.338596 12.893750
17.716551 39.370098 12.893750
17.716551 39.370098 10.925250
17.716551 41.338596 10.925250
-17.716539 41.338596 10.925250
17.716551 41.338596 10.925250
17.716551 41.338596 12.893750
0.984250 41.338596 12.893750
0.984250 41.338596 13.681150
-0.984250 41.338596 13.681150
-0.984250 41.338596 12.893750
-17.716539 -41.338585 -14.271650
-19.685040 -41.338585 -14.271650
-19.685040 -39.370083 -14.271650
-17.716539 -39.370083 -14.271650
-18.941816 -39.370094 10.469550
-18.311890 -39.370094 10.469550
-18.311890 -39.370094 11.060050
-18.941816 -39.370094 11.060050
19.803150 -41.456696 13.976350
19.789450 -41.442997 14.083850
-19.789448 -41.442997 14.083850
-19.803150 -41.456696 13.976350
-19.772528 -41.426071 13.817350
19.772551 -41.426071 13.817350
-17.716539 -41.338585 10.925250
-0.984250 -41.338585 12.893750
-0.984250 -41.338585 13.681150
0.984250 -41.338585 13.681150
0.984250 -41.338585 12.893750
17.716551 -41.338585 12.893750
17.716551 -41.338585 10.925250
-19.685040 -39.370083 -13.877949
-17.716539 -39.370083 -13.877949
-17.716539 -41.338585 -13.877949
-19.685040 -41.338585 -13.877949
-18.626860 31.496098 10.469550
-18.626860 31.496098 -0.514750
-18.626860 -31.496073 -0.514750
-18.626860 -31.496073 10.469550
-17.716539 41.349499 -14.271650
-17.716539 39.380997 -14.271650
-19.685040 39.380997 -14.271650
-19.685040 41.338596 -14.271650
17.716551 41.338596 -14.271650
19.685049 41.338596 -14.271650
19.685049 39.370098 -14.271650
17.716551 39.370098 -14.271650
-17.716539 -39.370083 10.925250
-17.716539 -41.338585 10.925250
-17.716539 -41.338585 -13.877949
-17.716539 -39.370083 -13.877949
-18.311890 -39.370094 -0.514750
-18.311890 -39.370094 -1.105350
-18.311890 39.370098 -1.105350
-18.311890 39.370098 -0.514750
-17.716539 41.338596 -14.271650
-17.716539 39.370098 -14.271650
-17.716539 39.370098 -13.877949
-17.716539 41.338596 -13.877949
-17.716539 41.338596 -14.271650
-19.685040 41.338596 -14.271650
-19.685040 39.370098 -14.271650
-17.716539 39.370098 -14.271650
-0.984250 -0.984303 12.893750
-0.984250 0.984297 12.893750
-0.984250 0.984297 13.681150
-0.984250 -0.984303 13.681150
-17.716539 -39.370083 -13.877949
-17.716539 -41.338585 -13.877949
-17.716539 -41.338585 10.925250
-17.716539 -39.370083 10.925250
17.716551 -39.370083 -13.877949
17.716551 -41.338585 -13.877949
17.716551 -41.338585 -14.271650
17.716551 -39.370083 -14.271650
-19.685040 -39.370083 13.681150
-17.716539 -39.370083 13.681150
-17.716539 -41.338585 13.681150
-19.685040 -41.338585 13.681150
19.685049 39.370098 -13.877949
17.716551 39.370098 -13.877949
17.716551 41.338596 -13.877949
19.685049 41.338596 -13.877949
17.716551 -39.370083 10.925250
17.716551 -41.338585 10.925250
17.716551 -41.338585 13.681150
17.716551 -39.370083 13.681150
-18.941816 -39.370094 -1.105350
-18.941816 39.370098 -1.105350
-18.311890 39.370098 -1.105350
-18.311890 -39.370094 -1.105350
-17.716539 -39.370083 13.681150
-19.685040 -39.370083 13.681150
-19.685040 -39.370083 -13.877949
-17.716539 -39.370083 -13.877949
17.716551 -39.370083 -14.271650
17.716551 -41.338585 -14.271650
17.716551 -41.338585 -13.877949
17.716551 -39.370083 -13.877949
17.716551 41.338596 10.925250
-17.716539 41.338596 10.925250
-17.716539 39.370098 10.925250
17.716551 39.370098 10.925250
17.716551 -39.370083 13.681150
17.716551 -41.338585 13.681150
17.716551 -41.338585 10.925250
17.716551 -39.370083 10.925250
-17.716539 41.338596 10.925250
-17.716539 39.370098 10.925250
-17.716539 39.370098 -13.877949
-17.716539 41.338596 -13.877949
-18.311890 39.370098 10.469550
-18.941816 39.370098 10.469550
-18.941816 39.370098 11.060050
-18.311890 39.370098 11.060050
-18.941816 -39.370094 10.469550
-18.941816 -39.370094 11.060050
-18.941816 39.370098 11.060050
-18.941816 39.370098 10.469550
17.716551 -39.370083 10.925250
17.716551 -41.338585 10.925250
17.716551 -41.338585 -13.877949
17.716551 -39.370083 -13.877949
-0.984250 -0.984303 12.893750
-0.984250 0.984297 12.893750
-19.772528 -41.426071 13.817350
-19.772528 41.426098 13.817350
-19.685040 41.338596 13.681150
-19.685040 -41.338589 13.681150
17.716551 41.338596 10.925250
17.716551 39.370098 10.925250
17.716551 39.370098 -13.877949
17.716551 41.338596 -13.877949
0.984250 -39.370083 12.893750
0.984250 39.370098 12.893750
17.716551 41.338596 13.681150
17.716551 39.370098 13.681150
17.716551 39.370098 10.925250
17.716551 41.338596 10.925250
19.799749 -41.453262 13.922250
19.799749 -41.453262 14.030550
19.799749 41.453297 14.030550
19.799749 41.453297 13.922250
0.984250 -0.984303 12.893750
0.984250 0.984297 12.893750
0.984250 -39.370083 12.893750
0.984250 39.370098 12.893750
-19.685040 39.370098 -13.877949
-17.716539 39.370098 -13.877949
-17.716539 41.338596 -13.877949
-19.685040 41.338596 -13.877949
-0.984250 39.370098 12.893750
-0.984250 0.984297 12.893750
0.984250 0.984297 12.893750
0.984250 39.370098 12.893750
-17.716539 39.370098 -14.271650
-17.716539 39.370098 13.681150
-19.685040 39.370098 13.681150
-19.685040 39.370098 -14.271650
0.984250 -0.984303 13.681150
0.984250 0.984297 13.681150
0.984250 39.370098 10.925250
0.984250 -39.370083 10.925250
0.984250 41.338596 13.681150
0.984250 39.370098 13.681150
0.984250 39.370098 12.893750
0.984250 41.338596 12.893750
-17.716539 41.338596 -13.877949
-17.716539 39.370098 -13.877949
-17.716539 39.370098 10.925250
-17.716539 41.338596 10.925250
-17.716539 -41.338585 12.893750
-17.716539 -41.338585 -13.877949
-17.716539 -41.338585 10.925250
-19.685040 -41.338589 13.681150
19.685049 -41.338589 13.681150
17.716551 -41.338585 10.925250
17.716551 -41.338585 12.893750
0.984250 -41.338585 12.893750
0.984250 -41.338585 13.681150
-0.984250 -41.338585 13.681150
-0.984250 -41.338585 12.893750
-17.716539 -39.370083 -13.877949
-17.716539 -41.338585 -13.877949
-17.716539 -41.338585 -14.271650
-17.716539 -39.370083 -14.271650
-17.716539 39.370098 12.893750
-0.984250 39.370098 12.893750
-0.984250 41.338596 12.893750
-17.716539 41.338596 12.893750
17.716551 -39.370083 12.893750
17.716551 -41.338585 12.893750
17.716551 -41.338585 10.925250
17.716551 -39.370083 10.925250
19.685049 41.338596 13.681150
-19.685040 41.338596 13.681150
-19.685040 -41.338589 13.681150
19.685049 -41.338589 13.681150
19.772551 -41.426071 13.817350
19.685049 -41.338589 13.681150
-19.685040 -41.338589 13.681150
-19.772528 -41.426071 13.817350
-19.685040 -41.338585 -13.877949
-19.685040 -39.370083 -13.877949
-19.685040 -39.370083 13.681150
-19.685040 -41.338585 13.681150
-18.941816 -39.370094 10.469550
-18.941816 39.370098 10.469550
-18.311890 39.370098 10.469550
-18.311890 -39.370094 10.469550
-17.716539 41.338596 12.893750
-17.716539 39.370098 12.893750
-17.716539 39.370098 13.681150
-17.716539 41.338596 13.681150
-17.716539 -39.370083 -14.271650
-17.716539 -41.338585 -14.271650
-17.716539 -41.338585 -13.877949
-17.716539 -39.370083 -13.877949
19.685049 39.370098 -14.271650
19.685049 41.338596 -14.271650
19.685049 41.338596 -13.877949
19.685049 39.370098 -13.877949
-17.716539 -39.370083 12.893750
-17.716539 -39.370083 -13.877949
-19.685040 -39.370083 -13.877949
-19.685040 -39.370083 13.681150
-17.716539 -39.370083 13.681150
-17.716539 -39.370083 13.681150
-17.716539 -41.338585 13.681150
-17.716539 -41.338585 12.893750
-17.716539 -39.370083 12.893750
0.984250 -39.370083 12.893750
17.716551 -39.370083 12.893750
17.716551 -39.370083 10.925250
-17.716539 -39.370083 10.925250
-0.984250 -39.370083 12.893750
-0.984250 -39.370083 13.681150
0.984250 -39.370083 13.681150
0.984250 41.338596 12.893750
0.984250 39.370098 12.893750
0.984250 39.370098 13.681150
0.984250 41.338596 13.681150
17.716551 -39.370083 10.925250
17.716551 -41.338585 10.925250
17.716551 -41.338585 12.893750
17.716551 -39.370083 12.893750
19.685049 41.338596 -13.877949
17.716551 41.338596 -13.877949
17.716551 39.370098 -13.877949
19.685049 39.370098 -13.877949
17.716551 41.338596 -14.271650
17.716551 39.370098 -14.271650
17.716551 39.370098 -13.877949
17.716551 41.338596 -13.877949
19.685049 41.338596 -13.877949
19.685049 41.338596 -14.271650
17.716551 41.338596 -14.271650
17.716551 41.338596 -13.877949
0.984250 -41.338585 12.893750
17.716551 -41.338585 12.893750
17.716551 -39.370083 12.893750
0.984250 -39.370083 12.893750
-18.941816 -39.370094 -1.105350
-18.941816 -39.370094 -0.514750
-18.941816 39.370098 -0.514750
-18.941816 39.370098 -1.105350
-19.685040 41.338596 -13.877949
-17.716539 41.338596 -13.877949
-17.716539 39.370098 -13.877949
-19.685040 39.370098 -13.877949
-19.685040 39.370098 13.681150
-19.685040 41.338596 13.681150
-19.685040 41.338596 -13.877949
-19.685040 39.370098 -13.877949
17.716551 -39.370083 -13.877949
17.716551 -41.338585 -13.877949
17.716551 -41.338585 10.925250
17.716551 -39.370083 10.925250
-19.685040 39.370098 -13.877949
-19.685040 41.338596 -13.877949
-19.685040 41.338596 -14.271650
-19.685040 39.370098 -14.271650
0.984250 -39.370083 13.681150
0.984250 -41.338585 13.681150
0.984250 -41.338585 12.893750
0.984250 -39.370083 12.893750
17.716551 41.338596 -13.877949
17.716551 41.338596 -14.271650
19.685049 41.338596 -14.271650
19.685049 41.338596 -13.877949
19.685049 39.370098 -14.271650
19.685049 39.370098 13.681150
17.716551 39.370098 13.681150
17.716551 39.370098 -14.271650
17.716551 41.338596 10.925250
17.716551 39.370098 10.925250
17.716551 39.370098 13.681150
17.716551 41.338596 13.681150
19.685049 39.370098 -13.877949
19.685049 41.338596 -13.877949
19.685049 41.338596 -14.271650
19.685049 39.370098 -14.271650
0.984250 -39.370083 12.893750
17.716551 -39.370083 12.893750
17.716551 -41.338585 12.893750
0.984250 -41.338585 12.893750
17.716551 -41.338585 -14.271650
19.685049 -41.338585 -14.271650
19.685049 -39.370083 -14.271650
17.716551 -39.370083 -14.271650
0.984250 -39.370083 12.893750
0.984250 -41.338585 12.893750
0.984250 -41.338585 13.681150
0.984250 -39.370083 13.681150
-18.941816 -39.370094 -0.514750
-18.311890 -39.370094 -0.514750
-18.311890 39.370098 -0.514750
-18.941816 39.370098 -0.514750
-17.716539 39.370098 -14.271650
-19.685040 39.370098 -14.271650
-19.685040 41.338596 -14.271650
-17.716539 41.338596 -14.271650
19.685049 -41.338585 -14.271650
19.685049 -39.370083 -14.271650
19.685049 -39.370083 -13.877949
19.685049 -41.338585 -13.877949
17.716551 -39.370083 -14.271650
19.685049 -39.370083 -14.271650
19.685049 -41.338585 -14.271650
17.716551 -41.338585 -14.271650
17.716551 -41.338585 13.681150
17.716551 -41.338585 -14.271650
19.685049 -41.338585 -14.271650
19.685049 -41.338585 13.681150
19.685049 39.370098 13.681150
19.685049 41.338596 13.681150
19.685049 41.338596 -13.877949
19.685049 39.370098 -13.877949
17.716551 39.370098 -14.271650
17.716551 39.370098 13.681150
19.685049 39.370098 13.681150
19.685049 39.370098 -14.271650
-0.984250 39.370098 12.893750
-0.984250 39.370098 13.681150
0.984250 39.370098 13.681150
0.984250 39.370098 12.893750
17.716551 39.370098 12.893750
17.716551 39.370098 10.925250
19.685049 -39.370083 -13.877949
17.716551 -39.370083 -13.877949
17.716551 -41.338585 -13.877949
19.685049 -41.338585 -13.877949
19.685049 -41.338585 -13.877949
19.685049 -39.370083 -13.877949
19.685049 -39.370083 13.681150
19.685049 -41.338585 13.681150
-0.984250 -39.370083 13.681150
0.984250 -39.370083 13.681150
0.984250 -41.338585 13.681150
-0.984250 -41.338585 13.681150
0.984250 -39.370083 10.925250
0.984250 39.370098 10.925250
17.716551 41.338596 -13.877949
17.716551 39.370098 -13.877949
17.716551 39.370098 10.925250
17.716551 41.338596 10.925250
-17.716539 41.338596 -13.877949
-17.716539 39.370098 -13.877949
-17.716539 39.370098 -14.271650
-17.716539 41.338596 -14.271650
19.685049 39.370098 13.681150
17.716551 39.370098 13.681150
17.716551 41.338596 13.681150
19.685049 41.338596 13.681150
17.716551 -41.338585 -14.271650
17.716551 -41.338585 13.681150
19.685049 -41.338585 13.681150
19.685049 -41.338585 -14.271650
19.685049 -41.338585 -13.877949
17.716551 -41.338585 -13.877949
17.716551 -39.370083 -13.877949
19.685049 -39.370083 -13.877949
19.685049 41.338596 13.681150
17.716551 41.338596 13.681150
17.716551 39.370098 13.681150
19.685049 39.370098 13.681150
19.685049 -41.338585 13.681150
19.685049 -39.370083 13.681150
19.685049 -39.370083 -13.877949
19.685049 -41.338585 -13.877949
-0.984250 -0.984303 13.681150
-0.984250 0.984297 13.681150
17.716551 41.338596 13.681150
17.716551 41.338596 -13.877949
19.685049 41.338596 -13.877949
19.685049 41.338596 13.681150
-19.685040 -41.338589 14.271650
19.685049 -41.338589 14.271650
19.685049 41.338596 14.271650
-19.685040 41.338596 14.271650
19.685049 -41.338585 13.681150
17.716551 -41.338585 13.681150
17.716551 -39.370083 13.681150
19.685049 -39.370083 13.681150
0.984250 -39.370083 10.925250
-0.984250 -39.370083 10.925250
-0.984250 39.370098 10.925250
0.984250 39.370098 10.925250
-19.685040 41.338596 14.271650
-19.749220 41.402798 14.184350
-19.799711 41.453297 14.030550
-19.799711 -41.453262 14.030550
-19.749220 -41.402767 14.184350
-19.685040 -41.338589 14.271650
-0.984250 41.338596 12.893750
-0.984250 41.338596 13.681150
0.984250 41.338596 13.681150
0.984250 41.338596 12.893750
17.716551 41.338596 12.893750
17.716551 41.338596 10.925250
19.749250 41.402798 14.184350
19.685049 41.338596 14.271650
-19.685040 41.338596 14.271650
-19.749220 41.402798 14.184350
-19.799711 41.453297 13.922250
-19.799711 -41.453262 13.922250
17.716551 -39.370083 13.681150
17.716551 -39.370083 -13.877949
19.685049 -39.370083 -13.877949
19.685049 -39.370083 13.681150
-0.984250 -41.338585 13.681150
0.984250 -41.338585 13.681150
0.984250 -39.370083 13.681150
-0.984250 -39.370083 13.681150
17.716551 -41.338585 10.925250
-17.716539 -41.338585 10.925250
-17.716539 -39.370083 10.925250
17.716551 -39.370083 10.925250
17.716551 39.370098 10.925250
-17.716539 39.370098 10.925250
-17.716539 41.338596 10.925250
17.716551 41.338596 10.925250
17.716551 39.370098 -14.271650
19.685049 39.370098 -14.271650
19.685049 41.338596 -14.271650
17.716551 41.338596 -14.271650
-18.941816 -39.370094 11.060050
-18.311890 -39.370094 11.060050
-18.311890 -39.370094 10.469550
-18.941816 -39.370094 10.469550
19.803150 -41.456696 13.976350
-19.803150 -41.456696 13.976350
-19.789448 -41.442997 14.083850
19.789450 -41.442997 14.083850
-19.685040 -41.338589 14.271650
19.685049 -41.338589 14.271650
0.984250 39.370098 10.925250
-0.984250 39.370098 10.925250
-0.984250 -39.370083 10.925250
0.984250 -39.370083 10.925250
19.685049 39.370098 -13.877949
19.685049 41.338596 -13.877949
19.685049 41.338596 13.681150
19.685049 39.370098 13.681150
19.685049 -41.338589 14.271650
19.749250 -41.402767 14.184350
19.799749 -41.453262 14.030550
19.799749 41.453297 14.030550
19.749250 41.402798 14.184350
19.685049 41.338596 14.271650
-18.311890 39.370098 -1.105350
-18.941816 39.370098 -1.105350
-18.941816 39.370098 -0.514750
-18.311890 39.370098 -0.514750
0.984250 -0.984303 12.893750
0.984250 -0.984303 13.681150
-0.984250 -0.984303 13.681150
-0.984250 -0.984303 12.893750
0.984250 39.370098 12.893750
0.984250 39.370098 10.925250
-0.984250 39.370098 10.925250
-0.984250 39.370098 12.893750
-0.984250 -0.984303 13.681150
0.984250 -0.984303 13.681150
0.984250 0.984297 13.681150
-0.984250 0.984297 13.681150
-19.685040 39.370098 13.681150
-17.716539 39.370098 13.681150
-17.716539 41.338596 13.681150
-19.685040 41.338596 13.681150
-18.626860 -31.496073 10.469550
-18.626860 -31.496073 -0.514750
-18.626860 31.496098 -0.514750
-18.626860 31.496098 10.469550
0.984250 -39.370083 12.893750
0.984250 -39.370083 10.925250
-0.984250 -39.370083 10.925250
-0.984250 -39.370083 12.893750
-19.685040 41.338596 13.681150
19.685049 41.338596 13.681150
19.749250 -41.402767 14.184350
19.685049 -41.338589 14.271650
19.685049 41.338596 14.271650
19.749250 41.402798 14.184350
-0.984250 -39.370083 12.893750
-0.984250 -39.370083 10.925250
0.984250 -39.370083 10.925250
0.984250 -39.370083 12.893750
-17.716539 -39.370083 -13.877949
-17.716539 -39.370083 -14.271650
-19.685040 -39.370083 -14.271650
-19.685040 -39.370083 -13.877949
-19.685040 -41.338585 -13.877949
-19.685040 -39.370083 -13.877949
-19.685040 -39.370083 -14.271650
-19.685040 -41.338585 -14.271650
-17.716539 -41.338585 -14.271650
-17.716539 -41.338585 13.681150
-19.685040 -41.338585 13.681150
-19.685040 -41.338585 -14.271650
-19.685040 -41.338585 13.681150
-19.685040 -39.370083 13.681150
-19.685040 -39.370083 -13.877949
-19.685040 -41.338585 -13.877949
-19.685040 -41.338585 -13.877949
-17.716539 -41.338585 -13.877949
-17.716539 -39.370083 -13.877949
-19.685040 -39.370083 -13.877949
-19.799711 -41.453262 13.922250
-19.772528 -41.426071 13.817350
-19.772528 41.426098 13.817350
-19.799711 41.453297 13.922250
19.749250 41.402798 14.184350
-19.749220 41.402798 14.184350
-19.685040 41.338596 14.271650
19.685049 41.338596 14.271650
-19.685040 41.338596 -14.271650
-19.685040 39.380997 -14.271650
-17.716539 39.380997 -14.271650
-17.716539 41.349499 -14.271650
-19.685040 -41.338589 13.681150
-19.685040 41.338596 13.681150
0.984250 41.338596 12.893750
17.716551 41.338596 12.893750
17.716551 39.370098 12.893750
0.984250 39.370098 12.893750
-17.716539 41.338596 12.893750
-0.984250 41.338596 12.893750
-0.984250 39.370098 12.893750
-17.716539 39.370098 12.893750
19.799749 -41.453262 13.922250
19.772551 -41.426071 13.817350
19.772551 41.426098 13.817350
19.799749 41.453297 13.922250
-19.685040 -39.370083 -13.877949
-19.685040 -39.370083 -14.271650
-17.716539 -39.370083 -14.271650
-17.716539 -39.370083 -13.877949
-19.685040 -41.338585 -14.271650
-19.685040 -39.370083 -14.271650
-19.685040 -39.370083 -13.877949
-19.685040 -41.338585 -13.877949
19.685049 -41.338589 14.271650
-19.685040 -41.338589 14.271650
-0.984250 41.338596 13.681150
0.984250 41.338596 13.681150
0.984250 39.370098 13.681150
-0.984250 39.370098 13.681150
-19.685040 41.338596 13.681150
-17.716539 41.338596 13.681150
-17.716539 39.370098 13.681150
-19.685040 39.370098 13.681150
19.685049 -41.338589 13.681150
19.685049 41.338596 13.681150
19.685049 -41.338589 13.681150
-19.685040 -41.338589 13.681150
-19.685040 41.338596 13.681150
19.685049 41.338596 13.681150
19.685049 41.338596 13.681150
-19.685040 41.338596 13.681150
6 0 1 2 3 4 5
4 6 7 8 9
8 10 11 12 13 14 15 16 17
4 18 19 20 21
4 22 23 24 25
4 26 27 28 29
4 30 31 32 33
4 34 35 36 37
5 38 39 40 41 42
4 43 44 45 46
5 47 48 49 50 51
4 52 53 54 55
6 56 57 58 59 60 61
6 62 63 64 65 66 67
4 68 69 70 71
4 72 73 74 75
4 76 77 78 79
4 80 81 82 83
4 84 85 86 87
4 88 89 90 91
4 92 93 94 95
4 96 97 98 99
3 11 100 12
4 101 102 103 104
4 105 106 107 108
4 109 110 111 112
4 113 114 115 116
4 117 118 119 120
4 121 122 123 124
4 125 126 127 128
6 129 130 131 132 133 134
4 135 136 137 138
4 139 140 141 142
8 143 144 145 146 147 148 149 150
4 151 152 153 154
4 155 156 157 158
3 159 66 65
4 160 161 162 163
4 164 165 166 167
4 168 169 170 171
4 172 173 174 175
4 176 177 178 179
4 180 181 182 183
4 184 185 186 187
4 188 189 190 191
6 192 193 194 195 196 197
3 39 38 198
4 199 200 201 202
4 203 204 205 206
8 47 207 208 209 210 211 212 213
4 214 215 216 217
3 207 47 51
4 218 219 220 221
6 222 223 224 225 226 227
8 228 59 229 230 231 232 233 234
4 235 236 237 238
4 239 240 241 242
4 243 244 245 246
4 247 248 249 250
4 251 252 253 254
4 255 256 257 258
4 259 260 261 262
4 263 264 265 266
4 267 268 269 270
4 271 272 273 274
4 275 276 277 278
4 279 280 281 282
4 283 284 285 286
4 287 288 289 290
4 291 292 293 294
5 143 295 296 297 298
4 299 300 301 302
4 303 304 305 306
4 307 308 309 310
4 311 312 313 314
4 315 316 317 318
4 319 320 321 322
4 323 324 325 326
3 81 80 327
3 81 327 328
4 329 330 331 332
4 333 334 335 336
3 337 338 87
3 337 87 86
3 268 267 137
3 267 138 137
4 339 340 341 342
6 53 52 343 344 345 346
3 347 348 349
3 348 350 349
4 351 352 353 354
4 355 356 357 358
6 359 100 11 360 361 362
4 348 347 363 364
4 365 366 349 350
4 367 368 369 370
4 371 372 373 374
3 375 376 377
4 227 226 378 379
8 380 381 382 383 384 385 375 377
4 386 387 388 389
4 390 391 392 393
4 394 395 396 397
4 398 399 400 401
4 402 403 404 405
4 406 407 408 409
4 410 411 412 413
4 414 415 416 417
4 418 419 420 421
3 228 60 59
4 422 423 424 425
5 426 427 428 429 430
4 431 432 433 434
8 435 436 437 438 426 439 440 441
4 442 443 444 445
4 446 447 448 449
4 450 451 452 453
4 454 455 456 457
3 427 426 438
4 458 459 460 461
4 462 463 464 465
4 466 467 468 469
4 470 471 472 473
3 144 143 298
4 474 475 476 477
4 478 479 480 481
4 482 483 484 485
4 486 487 488 489
4 490 491 492 493
4 494 495 496 497
4 498 499 500 501
4 502 503 504 505
4 506 507 508 509
4 510 511 512 513
4 514 515 516 517
4 518 519 520 521
4 522 523 524 525
4 526 527 528 529
4 530 531 532 533
4 534 535 536 537
4 538 539 540 541
4 542 543 544 545
8 159 65 546 547 548 549 550 551
4 552 553 554 555
4 556 557 558 559
4 560 561 562 563
4 338 337 564 565
4 566 567 568 569
4 570 571 572 573
4 574 575 576 577
4 578 579 580 581
4 582 583 584 585
4 586 587 588 589
4 590 591 592 593
4 594 595 328 327
4 596 597 598 599
4 600 601 602 603
4 604 605 606 607
4 608 609 610 611
6 612 613 614 615 616 617
8 618 619 620 621 622 623 198 38
6 192 197 624 625 626 627
6 615 614 628 330 329 629
4 630 631 632 633
4 634 635 636 637
4 638 639 640 641
4 642 643 644 645
4 646 647 648 649
4 650 651 652 653
6 654 402 405 655 656 657
4 658 659 657 656
4 660 661 662 663
4 664 665 666 667
6 668 669 670 671 672 673
4 674 675 676 677
4 678 679 680 681
4 682 683 684 685
4 686 687 688 689
4 690 691 692 693
4 694 695 696 697
4 698 699 700 701
4 194 702 703 195
6 704 705 706 707 345 344
4 708 709 710 711
4 712 713 714 715
4 716 717 718 719
6 720 376 375 721 722 723
4 724 725 726 727
4 728 729 730 731
6 134 133 732 733 734 735
6 736 5 4 737 738 739
4 740 741 742 743
4 734 733 744 745
4 746 747 748 749
4 750 751 752 753
6 754 755 756 757 671 670
4 758 759 760 761
4 762 763 764 765
4 766 767 224 223
4 768 769 770 771
4 772 773 774 775
4 755 776 777 756
4 778 779 780 781
4 1 782 783 2
