ply
format ascii 1.0
comment Created by Blender 2.82 (sub 7) - www.blender.org, source file: ''
element vertex 716
property float x
property float y
property float z
element face 188
property list uchar uint vertex_indices
end_header
-17.716545 39.370049 12.893750
-17.716545 41.338551 12.893750
-17.716545 41.338551 10.925250
-17.716545 39.370049 10.925250
-19.685055 -39.370049 13.681150
-19.685055 -41.338551 13.681150
-19.685055 -41.338551 -13.877949
-19.685055 -39.370049 -13.877949
-19.685055 -41.338551 -13.877949
-19.685055 -41.338551 -14.271650
-17.716545 -41.338551 -14.271650
-17.716545 -41.338551 -13.877949
19.685064 41.338551 -13.877949
19.685064 39.370049 -13.877949
19.685064 39.370049 -14.271650
19.685064 41.338551 -14.271650
-17.716545 41.338551 -14.271650
-19.685055 41.338551 -14.271650
-19.685055 39.370049 -14.271650
-17.716545 39.370049 -14.271650
-17.716545 -41.338551 -13.877949
-17.716545 -41.338551 -14.271650
-19.685055 -41.338551 -14.271650
-19.685055 -41.338551 -13.877949
17.716564 -39.370049 12.893750
17.716564 -39.370049 -13.877949
17.716564 -39.370049 10.925250
17.716564 39.370049 -14.271650
17.716564 41.338551 -14.271650
17.716564 41.338551 -13.877949
17.716564 39.370049 -13.877949
19.685064 -41.338551 -14.271650
19.685064 -39.381050 -14.271650
17.716564 -39.381050 -14.271650
17.716564 -41.349548 -14.271650
-0.984235 39.370049 12.893750
-0.984235 41.338551 12.893750
-0.984235 41.338551 13.681150
-0.984235 39.370049 13.681150
17.716564 39.370049 12.893750
17.716564 39.370049 10.925250
-17.716545 39.370049 10.925250
-17.716545 39.370049 12.893750
-0.984235 39.370049 12.893750
-0.984235 39.370049 13.681150
0.984265 39.370049 13.681150
0.984265 39.370049 12.893750
0.984265 41.338551 13.681150
-0.984235 41.338551 13.681150
-0.984235 39.370049 13.681150
0.984265 39.370049 13.681150
-19.685055 41.338551 -13.877949
-19.685055 39.370049 -13.877949
-19.685055 39.370049 13.681150
-19.685055 41.338551 13.681150
-0.984235 -0.984260 13.681150
-0.984235 -0.984260 12.893750
0.984265 -0.984260 12.893750
0.984265 -0.984260 13.681150
0.984265 39.370049 12.893750
0.984265 -39.370049 12.893750
0.984265 -39.370049 10.925250
0.984265 39.370049 10.925250
17.716564 -39.370049 10.925250
17.716564 -39.370049 -13.877949
17.716564 -39.370049 12.893750
19.685064 -39.370049 13.681150
19.685064 -41.338551 13.681150
19.685064 -41.338551 -13.877949
19.685064 -39.370049 -13.877949
-19.685055 -39.370049 13.681150
-17.716545 -39.370049 13.681150
-17.716545 -39.370049 -14.271650
-19.685055 -39.370049 -14.271650
-19.685055 -41.338551 -13.877949
-17.716545 -41.338551 -13.877949
-17.716545 -39.370049 -13.877949
-19.685055 -39.370049 -13.877949
17.716564 -41.338551 -13.877949
17.716564 -39.370049 -13.877949
17.716564 -39.370049 -14.271650
17.716564 -41.338551 -14.271650
19.789465 -41.442951 13.868950
19.789465 41.442951 13.868950
19.685064 41.338551 13.681150
19.685064 -41.338551 13.681150
-0.984235 39.370049 13.681150
-0.984235 41.338551 13.681150
-0.984235 41.338551 12.893750
-0.984235 39.370049 12.893750
17.716564 39.370049 12.893750
17.716564 39.370049 -13.877949
19.685064 39.370049 -13.877949
19.685064 39.370049 13.681150
17.716564 39.370049 13.681150
17.716564 -41.338551 -13.877949
17.716564 -41.338551 12.893750
17.716564 -41.338551 10.925250
17.716564 39.370049 12.893750
17.716564 41.338551 12.893750
17.716564 41.338551 13.681150
17.716564 39.370049 13.681150
-17.716545 -41.338551 13.681150
-17.716545 -39.370049 13.681150
-17.716545 -39.370049 10.925250
-17.716545 -41.338551 10.925250
-0.984235 -0.984260 13.681150
-0.984235 0.984240 13.681150
-0.984235 0.984240 12.893750
-0.984235 -0.984260 12.893750
0.984265 -39.370049 13.681150
-0.984235 -39.370049 13.681150
-0.984235 -41.338551 13.681150
0.984265 -41.338551 13.681150
-17.716545 39.370049 -13.877949
-17.716545 41.338551 -13.877949
-17.716545 41.338551 10.925250
-17.716545 39.370049 10.925250
17.716564 -41.338551 10.925250
17.716564 -41.338551 12.893750
17.716564 -41.338551 -13.877949
-17.716545 39.370049 13.681150
-17.716545 41.338551 13.681150
-17.716545 41.338551 10.925250
-17.716545 39.370049 10.925250
-17.716545 39.370049 10.925250
-17.716545 41.338551 10.925250
-17.716545 41.338551 -13.877949
-17.716545 39.370049 -13.877949
0.984265 39.370049 10.925250
0.984265 -39.370049 10.925250
0.984265 -39.370049 12.893750
0.984265 39.370049 12.893750
-0.984235 -39.370049 10.925250
-0.984235 39.370049 10.925250
-0.984235 39.370049 12.893750
-0.984235 -39.370049 12.893750
0.984265 39.370049 12.893750
-0.984235 39.370049 12.893750
-0.984235 0.984240 12.893750
0.984265 0.984240 12.893750
-0.984235 -39.370049 10.925250
0.984265 -39.370049 10.925250
0.984265 39.370049 10.925250
-0.984235 39.370049 10.925250
17.716564 -41.338551 -13.877949
17.716564 -41.338551 -14.271650
19.685064 -41.338551 -14.271650
19.685064 -41.338551 -13.877949
-17.716545 41.338551 10.925250
17.716564 41.338551 10.925250
17.716564 39.370049 10.925250
-17.716545 39.370049 10.925250
17.716564 41.338551 10.925250
-17.716545 41.338551 10.925250
-17.716545 41.338551 12.893750
-0.984235 41.338551 12.893750
-0.984235 41.338551 13.681150
0.984265 41.338551 13.681150
0.984265 41.338551 12.893750
17.716564 41.338551 12.893750
-19.789465 41.442951 14.083850
-19.789465 -41.442951 14.083850
-19.803165 -41.456650 13.976350
-19.789465 -41.442951 13.868950
-19.789465 41.442951 13.868950
-19.803165 41.456650 13.976350
17.716564 39.370049 -14.271650
19.685064 39.370049 -14.271650
19.685064 41.338551 -14.271650
17.716564 41.338551 -14.271650
19.789465 -41.442951 14.083850
19.803165 -41.456650 13.976350
19.789465 -41.442951 13.868950
19.789465 41.442951 13.868950
19.803165 41.456650 13.976350
19.789465 41.442951 14.083850
-19.749235 -41.402748 14.184350
-19.799725 -41.453251 14.030550
19.799665 -41.453251 14.030550
19.749165 -41.402748 14.184350
19.685064 -41.338551 14.271650
-19.685055 -41.338551 14.271650
19.685064 39.370049 -13.877949
17.716564 39.370049 -13.877949
17.716564 41.338551 -13.877949
19.685064 41.338551 -13.877949
-19.685055 -41.338551 13.681150
-19.685055 41.338551 13.681150
17.716564 -39.370049 -14.271650
19.685064 -39.370049 -14.271650
19.685064 -41.338551 -14.271650
17.716564 -41.338551 -14.271650
-19.799725 -41.453251 13.922250
-19.772535 -41.426048 13.817350
19.772465 -41.426048 13.817350
19.799665 -41.453251 13.922250
17.716564 -41.338551 13.681150
17.716564 -39.370049 13.681150
17.716564 -39.370049 12.893750
17.716564 -41.338551 12.893750
-0.984235 39.370049 12.893750
-17.716545 39.370049 12.893750
-17.716545 39.370049 10.925250
17.716564 39.370049 10.925250
0.984265 39.370049 12.893750
0.984265 39.370049 13.681150
-0.984235 39.370049 13.681150
0.984265 41.338551 13.681150
0.984265 39.370049 13.681150
0.984265 39.370049 12.893750
0.984265 41.338551 12.893750
19.685064 -39.370049 -14.271650
19.685064 -41.338551 -14.271650
19.685064 -41.338551 -13.877949
19.685064 -39.370049 -13.877949
0.984265 -41.338551 12.893750
0.984265 -41.338551 13.681150
-0.984235 -41.338551 13.681150
-0.984235 -41.338551 12.893750
-17.716545 -41.338551 12.893750
-17.716545 -41.338551 10.925250
-17.716545 -41.338551 12.893750
-17.716545 -39.370049 12.893750
-17.716545 -39.370049 10.925250
-17.716545 -41.338551 10.925250
-17.716545 39.370049 -14.271650
-19.685055 39.370049 -14.271650
-19.685055 41.338551 -14.271650
-17.716545 41.338551 -14.271650
-0.984235 39.370049 12.893750
-17.716545 39.370049 12.893750
-17.716545 41.338551 12.893750
-0.984235 41.338551 12.893750
-17.716545 -41.338551 10.925250
-17.716545 -39.370049 10.925250
-17.716545 -39.370049 -13.877949
-17.716545 -41.338551 -13.877949
17.716564 -41.338551 -13.877949
17.716564 -39.370049 -13.877949
17.716564 -39.370049 10.925250
17.716564 -41.338551 10.925250
-17.716545 39.370049 -13.877949
-17.716545 39.370049 -14.271650
-19.685055 39.370049 -14.271650
-19.685055 39.370049 -13.877949
-17.716545 39.370049 -13.877949
-17.716545 41.338551 -13.877949
-17.716545 41.338551 -14.271650
-17.716545 39.370049 -14.271650
0.984265 0.984240 12.893750
0.984265 -0.984260 12.893750
-19.685055 41.338551 -13.877949
-17.716545 41.338551 -13.877949
-17.716545 39.370049 -13.877949
-19.685055 39.370049 -13.877949
-0.984235 -41.338551 13.681150
-0.984235 -39.370049 13.681150
-0.984235 -39.370049 12.893750
-0.984235 -41.338551 12.893750
-0.984235 39.370049 12.893750
-0.984235 -39.370049 12.893750
0.984265 -0.984260 12.893750
0.984265 0.984240 12.893750
-19.685055 41.338551 13.681150
-17.716545 41.338551 13.681150
-17.716545 39.370049 13.681150
-19.685055 39.370049 13.681150
0.984265 -39.370049 12.893750
0.984265 -41.338551 12.893750
0.984265 -41.338551 13.681150
0.984265 -39.370049 13.681150
-0.984235 0.984240 12.893750
-0.984235 -0.984260 12.893750
19.685064 -41.338551 -13.877949
17.716564 -41.338551 -13.877949
17.716564 -39.370049 -13.877949
19.685064 -39.370049 -13.877949
17.716564 -41.338551 12.893750
17.716564 -39.370049 12.893750
17.716564 -39.370049 13.681150
17.716564 -41.338551 13.681150
19.685064 -41.338551 13.681150
17.716564 -41.338551 13.681150
17.716564 -39.370049 13.681150
19.685064 -39.370049 13.681150
19.799665 -41.453251 13.922250
19.772465 -41.426048 13.817350
-19.772535 -41.426048 13.817350
-19.799725 -41.453251 13.922250
-19.799725 -41.453251 14.030550
19.799665 -41.453251 14.030550
17.716564 -41.338551 12.893750
0.984265 -41.338551 12.893750
0.984265 -39.370049 12.893750
17.716564 -39.370049 12.893750
17.716564 -41.338551 -14.271650
17.716564 -39.370049 -14.271650
17.716564 -39.370049 -13.877949
17.716564 -41.338551 -13.877949
17.716564 41.338551 -13.877949
17.716564 41.338551 13.681150
19.685064 41.338551 13.681150
19.685064 41.338551 -14.271650
17.716564 41.338551 -14.271650
19.749165 41.402748 14.184350
19.685064 41.338551 14.271650
-19.685055 41.338551 14.271650
-19.749235 41.402748 14.184350
-19.799725 41.453251 14.030550
19.799665 41.453251 14.030550
-17.716545 -41.338551 -14.271650
-19.685055 -41.338551 -14.271650
-19.685055 -39.370049 -14.271650
-17.716545 -39.370049 -14.271650
19.685064 41.338551 -13.877949
17.716564 41.338551 -13.877949
17.716564 39.370049 -13.877949
19.685064 39.370049 -13.877949
17.716564 -39.370049 12.893750
0.984265 -39.370049 12.893750
0.984265 -41.338551 12.893750
17.716564 -41.338551 12.893750
-17.716545 -39.370049 -14.271650
-19.685055 -39.370049 -14.271650
-19.685055 -41.338551 -14.271650
-17.716545 -41.338551 -14.271650
19.685064 41.338551 -14.271650
19.685064 39.370049 -14.271650
19.685064 39.370049 -13.877949
19.685064 41.338551 -13.877949
-17.716545 -41.338551 10.925250
-17.716545 -39.370049 10.925250
-17.716545 -39.370049 12.893750
-17.716545 -41.338551 12.893750
19.685064 -41.338551 13.681150
19.685064 41.338551 13.681150
-19.685055 41.338551 13.681150
-19.685055 -41.338551 13.681150
-19.685055 -41.338551 13.681150
-19.685055 41.338551 13.681150
19.685064 41.338551 13.681150
19.685064 -41.338551 13.681150
0.984265 41.338551 12.893750
0.984265 41.338551 13.681150
-0.984235 41.338551 13.681150
-0.984235 41.338551 12.893750
-17.716545 41.338551 12.893750
-17.716545 41.338551 10.925250
17.716564 41.338551 10.925250
17.716564 41.338551 12.893750
19.685064 41.338551 -14.271650
19.685064 41.338551 13.681150
17.716564 41.338551 13.681150
17.716564 41.338551 -13.877949
17.716564 41.338551 -14.271650
-17.716545 -41.338551 -14.271650
-17.716545 -39.370049 -14.271650
-17.716545 -39.370049 -13.877949
-17.716545 -41.338551 -13.877949
-17.716545 39.370049 10.925250
17.716564 39.370049 10.925250
17.716564 41.338551 10.925250
-17.716545 41.338551 10.925250
19.685064 -41.338551 13.681150
-19.685055 -41.338551 13.681150
-19.685055 -39.370049 -13.877949
-19.685055 -41.338551 -13.877949
-19.685055 -41.338551 13.681150
-19.685055 -39.370049 13.681150
19.685064 -41.338551 -13.877949
19.685064 -41.338551 13.681150
17.716564 -41.338551 13.681150
19.685064 41.338551 -13.877949
19.685064 39.370049 -13.877949
19.685064 39.370049 13.681150
19.685064 41.338551 13.681150
-19.685055 -41.338551 13.681150
-17.716545 -41.338551 13.681150
-17.716545 -39.370049 13.681150
-19.685055 -39.370049 13.681150
-19.685055 -39.370049 -13.877949
-19.685055 -41.338551 -13.877949
-19.685055 -41.338551 -14.271650
-19.685055 -39.370049 -14.271650
17.716564 39.370049 -13.877949
17.716564 41.338551 -13.877949
17.716564 41.338551 10.925250
17.716564 39.370049 10.925250
-19.685055 -41.338551 13.681150
-19.685055 -41.338551 -13.877949
-17.716545 -41.338551 -13.877949
-17.716545 -41.338551 13.681150
17.716564 41.338551 12.893750
0.984265 41.338551 12.893750
0.984265 39.370049 12.893750
17.716564 39.370049 12.893750
-19.685055 39.370049 -13.877949
-19.685055 39.370049 -14.271650
-17.716545 39.370049 -14.271650
-17.716545 39.370049 -13.877949
17.716564 39.370049 13.681150
17.716564 41.338551 13.681150
17.716564 41.338551 12.893750
17.716564 39.370049 12.893750
-17.716545 -41.338551 -13.877949
-17.716545 -39.370049 -13.877949
-17.716545 -39.370049 -14.271650
-17.716545 -41.338551 -14.271650
17.716564 39.370049 13.681150
19.685064 39.370049 13.681150
19.685064 39.370049 -13.877949
17.716564 39.370049 -13.877949
19.685064 41.338551 13.681150
17.716564 41.338551 13.681150
17.716564 39.370049 13.681150
19.685064 39.370049 13.681150
-17.716545 -41.338551 -13.877949
-17.716545 -39.370049 -13.877949
-17.716545 -39.370049 10.925250
-17.716545 -41.338551 10.925250
-0.984235 41.338551 12.893750
-17.716545 41.338551 12.893750
-17.716545 39.370049 12.893750
-0.984235 39.370049 12.893750
19.685064 -39.370049 13.681150
17.716564 -39.370049 13.681150
17.716564 -41.338551 13.681150
19.685064 -41.338551 13.681150
17.716564 -41.338551 -14.271650
19.685064 -41.338551 -14.271650
19.685064 -39.370049 -14.271650
17.716564 -39.370049 -14.271650
-19.685055 41.338551 -14.271650
-19.685055 39.370049 -14.271650
-19.685055 39.370049 -13.877949
-19.685055 41.338551 -13.877949
-19.685055 -39.370049 -14.271650
-17.716545 -39.370049 -14.271650
-17.716545 -39.370049 13.681150
-19.685055 -39.370049 13.681150
-0.984235 -39.370049 12.893750
-17.716545 -39.370049 12.893750
-17.716545 -41.338551 12.893750
-0.984235 -41.338551 12.893750
0.984265 39.370049 13.681150
-0.984235 39.370049 13.681150
-0.984235 41.338551 13.681150
0.984265 41.338551 13.681150
19.685064 -41.338551 14.271650
-19.685055 -41.338551 14.271650
-19.685055 41.338551 14.271650
19.685064 41.338551 14.271650
0.984265 41.338551 12.893750
0.984265 39.370049 12.893750
0.984265 39.370049 13.681150
0.984265 41.338551 13.681150
-19.685055 -39.370049 -13.877949
-17.716545 -39.370049 -13.877949
-17.716545 -41.338551 -13.877949
-19.685055 -41.338551 -13.877949
17.716564 39.370049 12.893750
0.984265 39.370049 12.893750
0.984265 41.338551 12.893750
17.716564 41.338551 12.893750
19.685064 39.370049 13.681150
17.716564 39.370049 13.681150
17.716564 41.338551 13.681150
19.685064 41.338551 13.681150
-17.716545 -41.338551 10.925250
-17.716545 -39.370049 10.925250
-17.716545 -39.370049 13.681150
-17.716545 -41.338551 13.681150
17.716564 -41.349548 -14.271650
17.716564 -39.381050 -14.271650
19.685064 -39.381050 -14.271650
19.685064 -41.338551 -14.271650
17.716564 39.370049 -13.877949
17.716564 39.370049 -14.271650
19.685064 39.370049 -14.271650
19.685064 39.370049 -13.877949
0.984265 -0.984260 13.681150
0.984265 0.984240 13.681150
-17.716545 41.338551 13.681150
-17.716545 41.338551 -14.271650
-19.685055 41.338551 -14.271650
-19.685055 41.338551 13.681150
-17.716545 39.370049 10.925250
-17.716545 41.338551 10.925250
-17.716545 41.338551 13.681150
-17.716545 39.370049 13.681150
0.984265 0.984240 13.681150
0.984265 -0.984260 13.681150
19.685064 41.338551 14.271650
-19.685055 41.338551 14.271650
-19.685055 -41.338551 14.271650
19.685064 -41.338551 14.271650
-17.716545 -41.338551 13.681150
-17.716545 -41.338551 -13.877949
-19.685055 -41.338551 -13.877949
-19.685055 -41.338551 13.681150
-19.685055 -39.370049 13.681150
-17.716545 -39.370049 13.681150
-17.716545 -41.338551 13.681150
-19.685055 -41.338551 13.681150
-19.685055 41.338551 -13.877949
-19.685055 39.370049 -13.877949
-19.685055 39.370049 -14.271650
-19.685055 41.338551 -14.271650
-19.685055 39.370049 -13.877949
-17.716545 39.370049 -13.877949
-17.716545 41.338551 -13.877949
-19.685055 41.338551 -13.877949
-0.984235 39.370049 10.925250
0.984265 39.370049 10.925250
0.984265 -39.370049 10.925250
-0.984235 -39.370049 10.925250
-17.716545 39.370049 13.681150
-17.716545 39.370049 -13.877949
-19.685055 39.370049 -13.877949
-19.685055 39.370049 13.681150
17.716564 -41.338551 13.681150
19.685064 -41.338551 13.681150
19.685064 -41.338551 -13.877949
-0.984235 39.370049 10.925250
-0.984235 -39.370049 10.925250
0.984265 -39.370049 13.681150
0.984265 -41.338551 13.681150
0.984265 -41.338551 12.893750
0.984265 -39.370049 12.893750
-19.685055 39.370049 13.681150
-17.716545 39.370049 13.681150
-17.716545 41.338551 13.681150
-19.685055 41.338551 13.681150
-19.685055 39.370049 13.681150
-19.685055 39.370049 -13.877949
-17.716545 39.370049 -13.877949
-17.716545 39.370049 13.681150
-19.685055 41.338551 -14.271650
-17.716545 41.338551 -14.271650
-17.716545 41.338551 13.681150
-19.685055 41.338551 13.681150
-19.685055 41.338551 13.681150
-19.685055 39.370049 13.681150
-19.685055 39.370049 -13.877949
-19.685055 41.338551 -13.877949
-19.685055 41.338551 14.271650
-19.685055 -41.338551 14.271650
-17.716545 -41.338551 10.925250
-17.716545 -41.338551 12.893750
-0.984235 -41.338551 12.893750
-0.984235 -41.338551 13.681150
0.984265 -41.338551 13.681150
0.984265 -41.338551 12.893750
19.685064 -39.370049 -13.877949
17.716564 -39.370049 -13.877949
17.716564 -41.338551 -13.877949
19.685064 -41.338551 -13.877949
0.984265 -39.370049 12.893750
0.984265 -0.984260 12.893750
-0.984235 -0.984260 12.893750
-0.984235 -39.370049 12.893750
0.984265 0.984240 13.681150
-0.984235 0.984240 13.681150
-0.984235 -0.984260 13.681150
0.984265 -0.984260 13.681150
19.772465 41.426048 13.817350
-19.772535 41.426048 13.817350
-19.685055 41.338551 13.681150
19.685064 41.338551 13.681150
-19.685055 41.338551 14.271650
-19.789465 41.442951 14.083850
-19.789465 -41.442951 14.083850
-19.685055 -41.338551 14.271650
-0.984235 -39.370049 12.893750
-0.984235 -39.370049 10.925250
0.984265 -39.370049 10.925250
0.984265 -39.370049 12.893750
-0.984235 0.984240 13.681150
-0.984235 -0.984260 13.681150
17.716564 41.338551 -14.271650
19.685064 41.338551 -14.271650
19.685064 39.370049 -14.271650
17.716564 39.370049 -14.271650
-0.984235 0.984240 12.893750
-0.984235 0.984240 13.681150
0.984265 0.984240 13.681150
0.984265 0.984240 12.893750
19.685064 -39.370049 -13.877949
19.685064 -41.338551 -13.877949
19.685064 -41.338551 13.681150
19.685064 -39.370049 13.681150
19.685064 -41.338551 14.271650
19.685064 41.338551 14.271650
0.984265 39.370049 12.893750
0.984265 39.370049 10.925250
-0.984235 39.370049 10.925250
-0.984235 39.370049 12.893750
19.803165 -41.456650 13.976350
19.789465 -41.442951 14.083850
19.789465 41.442951 14.083850
19.803165 41.456650 13.976350
0.984265 -39.370049 12.893750
0.984265 -39.370049 13.681150
-0.984235 -39.370049 13.681150
-0.984235 -39.370049 12.893750
-17.716545 -39.370049 12.893750
-17.716545 -39.370049 10.925250
-0.984235 39.370049 12.893750
-0.984235 39.370049 10.925250
0.984265 39.370049 10.925250
0.984265 39.370049 12.893750
-0.984235 -41.338551 12.893750
-17.716545 -41.338551 12.893750
-17.716545 -39.370049 12.893750
-0.984235 -39.370049 12.893750
-19.749235 41.402748 14.184350
-19.685055 41.338551 14.271650
19.685064 41.338551 14.271650
19.749165 41.402748 14.184350
19.799665 41.453251 14.030550
-19.799725 41.453251 14.030550
19.685064 -39.370049 -13.877949
19.685064 -41.338551 -13.877949
19.685064 -41.338551 -14.271650
19.685064 -39.370049 -14.271650
17.716564 39.370049 -13.877949
17.716564 41.338551 -13.877949
17.716564 41.338551 -14.271650
17.716564 39.370049 -14.271650
19.685064 -41.338551 -13.877949
19.685064 -41.338551 -14.271650
17.716564 -41.338551 -14.271650
17.716564 -41.338551 -13.877949
-19.749235 -41.402748 14.184350
-19.685055 -41.338551 14.271650
19.685064 -41.338551 14.271650
19.749165 -41.402748 14.184350
-17.716545 -39.370049 10.925250
17.716564 -39.370049 10.925250
17.716564 -41.338551 10.925250
-17.716545 -41.338551 10.925250
19.685064 41.338551 13.681150
19.685064 39.370049 13.681150
19.685064 39.370049 -13.877949
19.685064 41.338551 -13.877949
-19.799725 41.453251 13.922250
19.799665 41.453251 13.922250
19.772465 41.426048 13.817350
-19.772535 41.426048 13.817350
-19.685055 -39.370049 -14.271650
-19.685055 -41.338551 -14.271650
-19.685055 -41.338551 -13.877949
-19.685055 -39.370049 -13.877949
-19.799725 41.453251 13.922250
19.799665 41.453251 13.922250
0.984265 -41.338551 13.681150
-0.984235 -41.338551 13.681150
-0.984235 -39.370049 13.681150
0.984265 -39.370049 13.681150
-0.984235 -41.338551 12.893750
-0.984235 -39.370049 12.893750
-0.984235 -39.370049 13.681150
-0.984235 -41.338551 13.681150
17.716564 -41.338551 10.925250
17.716564 -39.370049 10.925250
17.716564 -39.370049 -13.877949
17.716564 -41.338551 -13.877949
19.685064 39.370049 -13.877949
19.685064 39.370049 -14.271650
17.716564 39.370049 -14.271650
17.716564 39.370049 -13.877949
19.685064 -39.370049 -14.271650
19.685064 -39.370049 13.681150
17.716564 -39.370049 13.681150
17.716564 -39.370049 -14.271650
-17.716545 -39.370049 10.925250
-17.716545 -39.370049 12.893750
-0.984235 -39.370049 12.893750
-0.984235 -39.370049 13.681150
0.984265 -39.370049 13.681150
0.984265 -39.370049 12.893750
-19.803165 41.456650 13.976350
-19.789465 41.442951 13.868950
-19.789465 -41.442951 13.868950
-19.803165 -41.456650 13.976350
19.685064 -41.338551 13.681150
19.685064 41.338551 13.681150
17.716564 39.370049 10.925250
17.716564 41.338551 10.925250
17.716564 41.338551 -13.877949
17.716564 39.370049 -13.877949
-17.716545 39.370049 10.925250
-17.716545 41.338551 10.925250
-17.716545 41.338551 12.893750
-17.716545 39.370049 12.893750
-19.685055 41.338551 13.681150
-19.685055 -41.338551 13.681150
-17.716545 -41.338551 10.925250
17.716564 -41.338551 10.925250
17.716564 -39.370049 10.925250
-17.716545 -39.370049 10.925250
19.685064 41.338551 13.681150
-19.685055 41.338551 13.681150
17.716564 -39.370049 -14.271650
17.716564 -39.370049 13.681150
19.685064 -39.370049 13.681150
19.685064 -39.370049 -14.271650
-17.716545 39.370049 -14.271650
-17.716545 41.338551 -14.271650
-17.716545 41.338551 -13.877949
-17.716545 39.370049 -13.877949
-19.685055 -41.338551 13.681150
19.685064 -41.338551 13.681150
19.685064 -41.338551 14.271650
19.685064 41.338551 14.271650
4 0 1 2 3
4 4 5 6 7
4 8 9 10 11
4 12 13 14 15
4 16 17 18 19
4 20 21 22 23
3 24 25 26
4 27 28 29 30
4 31 32 33 34
4 35 36 37 38
8 39 40 41 42 43 44 45 46
4 47 48 49 50
4 51 52 53 54
4 55 56 57 58
4 59 60 61 62
3 63 64 65
4 66 67 68 69
4 70 71 72 73
4 74 75 76 77
4 78 79 80 81
4 82 83 84 85
4 86 87 88 89
5 90 91 92 93 94
3 95 96 97
4 98 99 100 101
4 102 103 104 105
4 106 107 108 109
4 110 111 112 113
4 114 115 116 117
3 118 119 120
4 121 122 123 124
4 125 126 127 128
4 129 130 131 132
4 133 134 135 136
4 137 138 139 140
4 141 142 143 144
4 145 146 147 148
4 149 150 151 152
8 153 154 155 156 157 158 159 160
6 161 162 163 164 165 166
4 167 168 169 170
6 171 172 173 174 175 176
6 177 178 179 180 181 182
4 183 184 185 186
4 165 164 187 188
4 189 190 191 192
6 193 194 195 196 179 178
4 197 198 199 200
8 201 202 203 204 90 205 206 207
4 208 209 210 211
4 212 213 214 215
8 216 217 218 219 220 221 97 96
4 222 223 224 225
4 226 227 228 229
4 230 231 232 233
4 234 235 236 237
4 238 239 240 241
4 242 243 244 245
4 246 247 248 249
3 60 59 250
3 60 250 251
4 252 253 254 255
4 256 257 258 259
3 260 261 109
3 260 109 108
3 262 263 131
3 263 132 131
4 264 265 266 267
4 268 269 270 271
3 272 273 135
3 273 136 135
4 274 275 276 277
4 278 279 280 281
4 282 283 284 285
6 286 287 288 289 290 291
4 292 293 294 295
4 296 297 298 299
6 300 160 301 302 303 304
6 305 306 307 308 309 310
3 160 300 153
4 311 312 313 314
4 315 316 317 318
4 319 320 321 322
4 323 324 325 326
4 327 328 329 330
4 331 332 333 334
4 335 336 337 338
4 339 340 341 342
8 343 344 345 346 347 348 349 350
6 351 352 353 350 354 355
3 349 354 350
4 356 357 358 359
4 360 361 362 363
4 287 364 365 288
4 366 367 368 369
5 96 95 370 371 372
4 373 374 375 376
4 377 378 379 380
4 381 382 383 384
4 385 386 387 388
3 91 90 204
4 389 390 391 392
4 393 394 395 396
4 397 398 399 400
4 401 402 403 404
4 405 406 407 408
5 39 409 410 411 412
3 40 39 412
4 413 414 415 416
4 417 418 419 420
4 421 422 423 424
4 425 426 427 428
4 429 430 431 432
4 433 434 435 436
4 437 438 439 440
4 441 442 443 444
4 445 446 447 448
4 449 450 451 452
4 453 454 455 456
4 457 458 459 460
4 461 462 463 464
4 465 466 467 468
4 469 470 471 472
4 473 474 475 476
4 477 478 479 480
4 263 262 481 482
4 483 484 485 486
4 487 488 489 490
4 491 492 251 250
4 493 494 495 496
4 497 498 499 500
4 501 502 503 504
4 505 506 507 508
4 509 510 511 512
4 513 514 515 516
4 517 518 519 520
5 119 521 522 523 120
4 261 260 524 525
4 526 527 528 529
4 530 531 532 533
4 534 535 536 537
4 538 539 540 541
4 542 543 544 545
4 546 547 162 161
8 118 548 549 550 551 552 553 119
4 554 555 556 557
4 558 559 560 561
4 562 563 564 565
4 566 567 568 569
4 570 571 572 573
4 574 575 576 577
4 273 272 578 579
4 580 581 582 583
4 584 585 586 587
4 588 589 590 591
4 592 171 176 593
4 594 595 596 597
6 598 599 600 601 83 82
8 602 603 604 605 606 607 63 65
4 608 609 610 611
4 612 613 614 615
6 616 617 618 619 620 621
4 622 623 624 625
4 626 627 628 629
4 630 631 632 633
6 634 635 636 637 291 290
4 638 639 640 641
4 642 643 644 645
6 646 621 620 647 648 649
4 650 651 652 653
6 654 567 566 655 310 309
4 656 657 658 659
4 660 661 662 663
4 664 665 666 667
4 668 669 670 671
6 672 673 674 65 64 675
8 26 676 677 678 679 680 681 24
6 572 571 682 683 684 685
4 173 686 687 174
4 688 689 690 691
4 692 693 694 695
4 683 696 697 684
4 698 699 700 701
4 649 648 702 703
6 704 25 24 705 706 707
4 708 709 710 711
4 194 712 713 195
4 714 715 600 599
