ply
format ascii 1.0
comment Created by Blender 2.82 (sub 7) - www.blender.org, source file: ''
element vertex 1022
property float x
property float y
property float z
element face 463
property list uchar uint vertex_indices
end_header
0.138600 0.562750 -0.751150
0.138600 0.531150 -0.677850
0.138600 0.527350 -0.592150
0.196700 0.390250 -0.562050
0.196700 0.437650 -0.814950
0.196700 18.298889 -14.399203
0.138600 18.384710 -14.288108
-0.137400 -0.312550 -0.878650
0.003000 -0.260750 -0.905050
0.003000 -18.177450 -14.556319
-0.137400 -18.213051 -14.510302
-0.137400 -0.527350 -0.592150
0.003000 -0.584150 -0.604550
0.003200 -8.860450 13.176250
-0.137200 -8.811250 13.207150
-0.001800 0.614550 -0.724750
-0.001800 18.420259 -14.242091
0.198800 -0.437350 -0.164650
0.108800 -0.238750 -0.679450
0.245900 -0.092350 -0.679450
0.450000 -0.169150 -0.164650
-8.590900 -2.774650 13.306450
-8.713000 -2.806050 13.391250
-8.776200 -2.986350 13.115850
-8.647200 -2.932750 13.055950
-8.776200 2.981550 13.115850
-8.647200 2.927950 13.055950
-18.039310 0.595550 -13.739353
-18.172831 0.653650 -13.695972
-4.937500 -19.230249 13.440250
-10.284890 -16.982349 13.440250
-16.303061 -11.330950 13.440250
-18.882233 -6.135250 13.440250
-19.640968 2.900350 13.440250
-17.964399 8.453450 13.440250
-13.590970 14.472910 13.440250
-8.827800 17.783421 13.440250
-0.831400 19.836535 13.440250
8.827800 17.783421 13.440250
13.591000 14.472910 13.440250
18.302601 7.693750 13.440250
19.814800 -1.246650 13.440250
15.814300 -12.003650 13.440250
10.284900 -16.982349 13.440250
4.937500 -19.230249 13.440250
-0.142400 8.573250 13.356150
-0.142200 0.253050 -0.531950
-0.001800 0.196250 -0.519450
-0.002000 8.523950 13.387050
0.143400 -0.312550 -0.878650
0.143400 -18.213051 -14.510302
8.573900 0.142950 13.356150
0.253700 0.142850 -0.531950
0.196900 0.002450 -0.519450
8.524600 0.002550 13.387050
12.332200 -15.559450 13.440250
13.591000 -14.472950 13.440250
14.754400 -13.284850 13.440250
15.814300 -12.003650 13.440250
15.814300 -12.003650 14.592150
14.754400 -13.284850 14.592150
13.591000 -14.472950 14.592150
12.332200 -15.559450 14.592150
10.284900 -16.982349 14.592150
10.284900 -16.982349 13.440250
4.937500 -19.230249 13.440250
4.937500 -19.230249 14.592150
-4.937500 -19.230249 14.592150
-4.937500 -19.230249 13.440250
-0.001800 0.584150 -0.604550
-0.002000 8.860450 13.176250
0.138400 8.811250 13.207150
2.603300 8.808350 13.001150
2.656800 8.937250 13.061050
0.315400 18.306950 -13.652587
0.257200 18.173429 -13.695972
-0.200400 18.298889 -14.399203
-0.142200 18.384710 -14.288108
-0.001800 18.420259 -14.242091
0.138600 18.384710 -14.288108
0.196700 18.298889 -14.399203
0.138600 18.213051 -14.510302
-0.001800 18.177500 -14.556319
-0.142200 18.213051 -14.510302
2.587400 8.550750 13.242950
2.540600 8.642550 13.131250
2.635700 8.661450 13.042950
0.315400 18.039909 -13.739353
0.455700 17.984600 -13.757325
2.795400 8.603550 12.997550
18.398800 -0.459150 -13.575260
18.328600 -0.638750 -13.600630
18.476000 -0.559450 -14.073066
18.599800 -0.284550 -14.407570
18.620300 -0.189250 -14.218135
0.584700 0.002450 -0.604550
0.527900 0.142850 -0.592150
8.811800 0.142950 13.207150
8.861100 0.002550 13.176250
8.827800 17.783421 13.440250
8.827800 17.783421 14.592150
13.591000 14.472910 14.592150
13.591000 14.472910 13.440250
-2.571800 -8.931450 13.354950
2.577800 -8.931450 13.354950
2.749800 -8.963950 13.219350
2.868700 -8.888050 13.275850
2.765300 -8.859750 13.388750
2.624700 -8.839750 13.466650
-2.618600 -8.839750 13.466650
-2.759200 -8.859750 13.388750
-2.862700 -8.888050 13.275850
-2.743800 -8.963950 13.219350
0.198800 -0.437350 -0.164650
0.450000 -0.169150 -0.164650
0.438000 0.198150 -0.164650
0.169700 0.449350 -0.164650
-0.197600 0.437350 -0.164650
-0.448800 0.169150 -0.164650
-0.436800 -0.198150 -0.164650
-0.168500 -0.449350 -0.164650
0.390800 0.200950 -0.562050
8.692800 0.201150 13.281650
-8.914400 2.924050 13.142150
-18.306351 0.595550 -13.652587
-18.172831 -0.692750 -13.695972
-18.039310 -0.634650 -13.739353
8.912300 -2.529850 13.210450
8.792600 -2.516350 13.117750
8.792600 2.521250 13.117750
8.912300 2.534650 13.210450
18.631300 0.002250 -14.485028
18.599800 0.303650 -14.407570
18.620300 0.208450 -14.218135
18.174000 -0.653650 -13.695972
18.040501 -0.595550 -13.739353
17.985201 -0.455150 -13.757325
18.040501 -0.314750 -13.739353
18.174000 -0.256650 -13.695972
18.307501 -0.314750 -13.652587
18.362801 -0.455150 -13.634620
18.307501 -0.595550 -13.652587
0.253700 -0.137950 -0.531950
8.573900 -0.137850 13.356150
8.982000 2.794150 13.119450
8.937900 2.661050 13.061050
18.307501 0.353850 -13.652587
18.362801 0.494250 -13.634620
-2.586200 -8.550750 13.242950
-2.539400 -8.642550 13.131250
-2.634500 -8.661450 13.042950
-0.314200 -18.039949 -13.739353
-0.454600 -17.984650 -13.757325
-2.794200 -8.603550 12.997550
-0.311900 0.137950 -0.878650
-0.260100 -0.002450 -0.905050
-18.176910 -0.002450 -14.556319
-18.212460 0.137950 -14.510302
-0.311900 -0.142750 -0.878650
-0.437000 -0.200950 -0.814950
-18.298281 -0.200950 -14.399203
-18.212460 -0.142750 -14.510302
-18.176910 -0.002450 -14.556319
-18.212460 -0.142750 -14.510302
-18.298281 -0.200950 -14.399203
-18.384109 -0.142750 -14.288108
-18.298281 -0.002450 -14.399203
-18.384109 0.137950 -14.288108
-18.298281 0.196150 -14.399203
-18.212460 0.137950 -14.510302
-2.928300 8.914950 13.142150
-2.867500 8.888050 13.275850
-2.748600 8.963950 13.219350
-2.793600 8.981450 13.119450
-0.493700 18.362261 -13.634620
-0.634100 18.306950 -13.652587
0.438000 0.198150 -0.164650
0.239300 0.108150 -0.679450
0.092900 0.245350 -0.679450
0.169700 0.449350 -0.164650
-2.985700 8.776750 13.115850
-0.692200 18.173429 -13.695972
-0.634100 18.039909 -13.739353
-2.932200 8.647750 13.055950
0.138600 0.253050 -0.531950
0.138400 8.573250 13.356150
-8.791400 -2.521250 13.117750
-8.911100 -2.534650 13.210450
-8.911100 2.529850 13.210450
-8.791400 2.516350 13.117750
0.390800 -0.196150 -0.562050
0.527900 -0.137950 -0.592150
8.811800 -0.137850 13.207150
8.692800 -0.195950 13.281650
0.143600 -8.811250 13.207150
0.143400 -0.527350 -0.592150
0.201500 -0.390150 -0.562050
0.201700 -8.692250 13.281650
-8.980900 -2.794150 13.119450
-8.936700 -2.661050 13.061050
-18.306351 -0.353850 -13.652587
-18.361650 -0.494250 -13.634620
8.808900 -2.602650 13.001150
8.937900 -2.656250 13.061050
18.307501 -0.314750 -13.652587
18.174000 -0.256650 -13.695972
-13.590970 14.472910 14.592150
-8.827800 17.783421 14.592150
-8.827800 17.783421 13.440250
-13.590970 14.472910 13.440250
0.143400 -0.531150 -0.677850
0.143400 -0.562750 -0.751150
0.143400 -18.384750 -14.288108
0.201500 -18.298849 -14.399203
0.201500 -0.437650 -0.814950
-0.458500 -17.919149 -13.748462
-0.638200 -17.989349 -13.723097
-0.458500 -18.158649 -13.661863
-0.278900 -17.989349 -13.723097
0.464300 -17.919149 -13.748462
0.284600 -17.989349 -13.723097
0.464300 -18.158649 -13.661863
0.643900 -17.989349 -13.723097
-2.927400 -8.647750 13.055950
-0.594900 -18.039949 -13.739353
8.777300 -2.981450 13.115850
8.648400 -2.927950 13.055950
18.040501 -0.595550 -13.739353
18.174000 -0.653650 -13.695972
0.003000 -0.614550 -0.724750
0.003000 -18.420250 -14.242091
0.284600 -18.328051 -13.600630
0.184100 -18.468349 -14.028307
0.113800 -18.491051 -14.082604
0.209000 -18.619650 -14.218135
0.464300 -18.398149 -13.575260
-8.572700 -0.142950 13.356150
-0.252500 -0.142750 -0.531950
-0.195700 -0.002450 -0.519450
-8.523400 -0.002550 13.387050
-0.437000 0.196150 -0.814950
-18.298281 0.196150 -14.399203
8.690800 -2.642850 13.480150
8.840300 -2.619250 13.466650
8.840300 2.624050 13.466650
8.690800 2.647650 13.480150
-0.204500 -18.158649 -13.661863
-0.105300 -18.277849 -14.042944
-0.163800 -18.119650 -14.154392
-0.278900 -17.989349 -13.723097
-2.799000 8.603550 12.997550
-2.591000 8.550750 13.242950
2.928500 8.647750 13.055950
2.770400 8.591450 13.306450
2.630000 8.570550 13.387450
-2.633600 8.570550 13.387450
-2.774000 8.591450 13.306450
-17.984011 -0.494250 -13.757325
-8.603000 -2.799650 12.997550
-0.353300 18.039909 -13.739353
-0.295100 18.173429 -13.695972
-2.606900 8.808350 13.001150
-2.587300 8.803650 13.054650
-2.639300 8.661450 13.042950
-19.775476 1.244150 14.631550
-17.559750 9.180050 14.631550
-14.725100 13.258540 14.631550
-14.754360 13.284890 14.592150
-17.964399 8.453450 14.592150
-19.814777 1.246650 14.592150
-2.520600 8.792050 13.117750
-2.556600 8.795850 13.092950
-2.588100 8.917950 13.177850
-2.534100 8.911750 13.210450
-17.964399 -8.453450 14.592150
-16.303061 -11.330950 14.592150
-16.270720 -11.308450 14.631550
-19.084658 -5.328550 14.631550
0.596100 18.039909 -13.739353
-8.839100 -2.624050 13.466650
-8.689600 -2.647650 13.480150
-8.689600 2.642850 13.480150
-8.839100 2.619250 13.466650
-8.603000 2.794850 12.997550
-17.984011 0.455150 -13.757325
18.302601 -7.693750 14.592150
19.814800 1.246650 14.592150
19.775499 1.244150 14.631550
17.928801 -8.436650 14.631550
15.782900 -11.979850 14.631550
15.814300 -12.003650 14.592150
17.194000 -9.926950 14.592150
0.438200 -0.196150 -0.814950
0.313100 -0.137950 -0.878650
18.213600 -0.137950 -14.510302
18.299500 -0.196150 -14.399203
8.662000 -2.635050 13.042950
8.804300 -2.583050 13.054650
18.040501 -0.314750 -13.739353
8.648400 2.932750 13.055950
18.040501 0.634650 -13.739353
17.985201 0.494250 -13.757325
8.604200 2.799650 12.997550
-0.188700 -18.110750 -14.402157
-0.458500 -17.919149 -13.748462
-0.093500 -18.131250 -14.212723
-8.550200 -2.591550 13.242950
-8.550200 2.586750 13.242950
-8.590900 2.769850 13.306450
-8.569900 2.629350 13.387450
-8.569900 -2.634150 13.387450
-8.691600 -0.201150 13.281650
-0.389600 -0.200950 -0.562050
8.777300 2.986350 13.115850
8.915600 2.928950 13.142150
18.307501 0.634650 -13.652587
18.174000 0.692850 -13.695972
0.563300 -0.137950 -0.751150
0.531800 -0.137950 -0.677850
18.385300 -0.137950 -14.288108
-2.642200 -8.690250 13.480150
2.648200 -8.690250 13.480150
2.634800 -8.570550 13.387450
-2.628800 -8.570550 13.387450
2.982100 8.776750 13.115850
0.654300 18.173429 -13.695972
8.915600 -2.924050 13.142150
18.307501 -0.595550 -13.652587
18.362801 -0.455150 -13.634620
8.982000 -2.789350 13.119450
8.964500 -2.744350 13.219350
8.888600 -2.863250 13.275850
-17.964399 8.453450 14.592150
-16.303061 11.330920 14.592150
-15.297740 12.655380 14.592150
-15.297740 12.655380 13.440250
-16.303061 11.330920 13.440250
-17.964399 8.453450 13.440250
-18.882233 6.135250 13.440250
-18.882233 6.135250 14.592150
-0.220300 0.487650 -1.173050
0.189200 0.501050 -1.173050
0.488200 0.220950 -1.173050
0.501600 -0.188550 -1.173050
0.221500 -0.487550 -1.173050
-0.188000 -0.500950 -1.173050
-0.487000 -0.220950 -1.173050
-0.500400 0.188550 -1.173050
-0.107600 0.238750 -0.679450
0.189200 0.501050 -1.173050
-0.220300 0.487650 -1.173050
-0.500400 0.188550 -1.173050
-0.244700 0.092350 -0.679450
-2.582400 -8.803650 13.054650
-2.602100 -8.808250 13.001150
-0.256000 -18.173450 -13.695972
-0.487000 -0.220950 -1.173050
-0.188000 -0.500950 -1.173050
-0.091700 -0.245250 -0.679450
-0.238100 -0.108150 -0.679450
-0.168500 -0.449350 -0.164650
-0.436800 -0.198150 -0.164650
0.221500 -0.487550 -1.173050
0.501600 -0.188550 -1.173050
-19.329391 -4.533650 14.592150
-19.502287 -3.720250 14.592150
-19.640968 -2.900350 14.592150
-19.640968 -2.900350 13.440250
-19.502287 -3.720250 13.440250
-19.329391 -4.533650 13.440250
-19.122585 -5.339150 13.440250
-18.882233 -6.135250 13.440250
-18.302629 -7.693750 13.440250
-17.964399 -8.453450 13.440250
-17.964399 -8.453450 14.592150
-18.302629 -7.693750 14.592150
-18.882233 -6.135250 14.592150
-19.122585 -5.339150 14.592150
0.261300 0.002450 -0.905050
0.313100 0.142850 -0.878650
18.213600 0.142850 -14.510302
18.178101 0.002450 -14.556319
0.002900 -18.503550 -14.102625
-0.093500 -18.491051 -14.082604
-0.188700 -18.619650 -14.218135
18.420900 0.002450 -14.242091
18.385300 -0.137950 -14.288108
18.299500 0.002450 -14.399203
18.385300 0.142850 -14.288108
-0.142400 8.811250 13.207150
-0.142200 0.527350 -0.592150
-0.200400 0.390250 -0.562050
-0.200500 8.692250 13.281650
18.385300 0.142850 -14.288108
18.385300 -0.137950 -14.288108
18.299500 -0.196150 -14.399203
18.213600 -0.137950 -14.510302
18.178101 0.002450 -14.556319
18.213600 0.142850 -14.510302
18.299500 0.200950 -14.399203
-18.039310 -0.353850 -13.739353
-18.172831 -0.295750 -13.695972
-8.807700 -2.607450 13.001150
-8.803100 -2.587850 13.054650
-8.660800 -2.639950 13.042950
18.442200 -0.323950 -14.539932
18.317600 -0.632450 -14.157926
18.142799 -0.559450 -14.193556
18.239901 -0.284550 -14.537688
-8.914400 -2.928950 13.142150
-18.306351 -0.634650 -13.652587
-17.988710 0.279550 -13.723097
-18.158070 0.205150 -13.661863
-18.277290 0.105850 -14.042944
-18.119030 0.164450 -14.154392
-0.577900 18.475410 -14.073066
-0.303000 18.599171 -14.407570
-0.342500 18.441620 -14.539932
-0.651000 18.316971 -14.157926
-0.001800 0.260750 -0.905050
0.138600 0.312550 -0.878650
-8.930900 -2.577250 13.354950
-8.963300 -2.749250 13.219350
-8.887400 -2.868050 13.275850
-8.859200 -2.764650 13.388750
-8.859200 2.759850 13.388750
-8.887400 2.863250 13.275850
-8.963300 2.744350 13.219350
-8.930900 2.572450 13.354950
-8.917300 -2.588650 13.177850
-8.980900 2.789350 13.119450
-8.936700 2.656250 13.061050
-8.917300 2.583850 13.177850
-8.641900 -2.544750 13.131250
-8.795300 -2.557250 13.092950
-4.119700 19.381577 14.631550
-4.127900 19.420094 14.592150
8.932100 2.577250 13.354950
8.964500 2.749250 13.219350
8.888600 2.868150 13.275850
8.860400 2.764650 13.388750
8.860400 -2.759850 13.388750
8.932100 -2.572450 13.354950
18.142799 0.578550 -14.193556
18.239901 0.303650 -14.537688
18.111300 0.208450 -14.402157
17.919800 0.463650 -13.748462
17.989901 0.643250 -13.723097
-8.713000 2.801250 13.391250
0.189900 18.110720 -14.402157
0.285100 18.239300 -14.537688
0.560000 18.142160 -14.193556
0.639300 17.989309 -13.723097
0.459700 17.919161 -13.748462
-18.441019 -0.343050 -14.539932
-18.470261 -0.002250 -14.631550
-18.257710 -0.002250 -14.619677
-18.238701 -0.303650 -14.537688
-18.158070 -0.717650 -13.661863
-18.327431 -0.643250 -13.600630
-18.474810 -0.578550 -14.073066
-18.316370 -0.651550 -14.157926
8.592100 2.774650 13.306450
8.714200 2.806150 13.391250
-0.137400 -0.562750 -0.751150
0.003000 -0.588750 -0.669850
-0.137400 -0.531150 -0.677850
0.280100 18.328030 -13.600630
0.165000 18.468349 -14.028307
0.106500 18.277889 -14.042944
0.205700 18.158670 -13.661863
-2.980900 -8.776750 13.115850
-0.653100 -18.173450 -13.695972
-0.353300 18.306950 -13.652587
-0.295100 18.173429 -13.695972
-0.353300 18.039909 -13.739353
-0.493700 17.984600 -13.757325
-0.634100 18.039909 -13.739353
-0.692200 18.173429 -13.695972
-0.634100 18.306950 -13.652587
-0.493700 18.362261 -13.634620
-2.923500 -8.914950 13.142150
-0.594900 -18.306950 -13.652587
18.159300 0.717650 -13.661863
17.989901 0.643250 -13.723097
17.919800 0.463650 -13.748462
17.989901 0.284050 -13.723097
18.159300 0.209650 -13.661863
18.328600 0.284050 -13.600630
18.398800 0.463650 -13.575260
18.328600 0.643250 -13.600630
0.209000 -18.110750 -14.402157
0.002900 -18.138849 -14.237032
0.113800 -18.131250 -14.212723
-2.805500 8.713550 13.391250
-2.764100 8.859750 13.388750
8.551400 -2.586750 13.242950
8.643100 -2.539950 13.131250
17.985201 -0.455150 -13.757325
8.604200 -2.794850 12.997550
-18.158070 0.713150 -13.661863
-18.316370 0.632450 -14.157926
-18.474810 0.559450 -14.073066
-18.327431 0.638750 -13.600630
-0.458500 -18.398149 -13.575260
-0.638200 -18.328051 -13.600630
-0.558800 -18.475349 -14.073066
-0.283900 -18.599150 -14.407570
18.328600 0.643250 -13.600630
18.398800 0.463650 -13.575260
18.476000 0.578550 -14.073066
-18.327431 -0.284050 -13.600630
-18.467739 -0.183550 -14.028307
-18.490499 -0.113150 -14.082604
-18.619070 -0.208350 -14.218135
-18.397579 -0.463650 -13.575260
8.571100 2.634250 13.387450
2.933400 -8.647750 13.055950
2.800200 -8.603550 12.997550
2.592200 -8.550750 13.242950
-2.769200 -8.591450 13.306450
2.775200 -8.591450 13.306450
-2.660500 8.937250 13.061050
8.796400 2.557250 13.092950
8.918500 2.588650 13.177850
-8.795300 2.552350 13.092950
-0.712600 -18.158649 -13.661863
-0.631900 -18.316950 -14.157926
-8.660800 2.635150 13.042950
-8.803100 2.583050 13.054650
-8.807700 2.602650 13.001150
-18.172831 0.256650 -13.695972
-18.039310 0.314750 -13.739353
0.831400 19.836535 14.592150
0.831400 19.836535 13.440250
-18.467739 0.164450 -14.028307
-18.327431 0.279550 -13.600630
-18.397579 0.459150 -13.575260
-18.619070 0.189250 -14.218135
-18.490499 0.094050 -14.082604
-2.544200 8.642550 13.131250
8.918500 -2.583850 13.177850
8.796400 -2.552350 13.092950
18.159300 0.717650 -13.661863
18.317600 0.651550 -14.157926
2.517000 8.792050 13.117750
2.553000 8.795850 13.092950
2.583600 8.803650 13.054650
2.806700 -8.713550 13.391250
2.929500 -8.914950 13.142150
2.986900 -8.776750 13.115850
8.714200 -2.801250 13.391250
-0.112600 18.491100 -14.082604
-0.183000 18.468349 -14.028307
-0.124400 18.277889 -14.042944
-0.073100 18.288771 -14.080361
-18.158070 -0.209650 -13.661863
-17.988710 -0.284050 -13.723097
-18.119030 -0.183550 -14.154392
-18.277290 -0.124950 -14.042944
-0.558800 -18.142151 -14.193556
-0.283900 -18.239250 -14.537688
-0.323400 -18.441650 -14.539932
2.545400 -8.642550 13.131250
-2.800700 -8.713550 13.391250
0.184100 -18.119650 -14.154392
0.284600 -17.989349 -13.723097
0.464300 -17.919149 -13.748462
0.596100 18.306950 -13.652587
0.654300 18.173429 -13.695972
0.596100 18.039909 -13.739353
0.455700 17.984600 -13.757325
0.315400 18.039909 -13.739353
0.257200 18.173429 -13.695972
0.315400 18.306950 -13.652587
0.455700 18.362261 -13.634620
-0.454600 -18.362249 -13.634620
-2.788800 -8.981450 13.119450
0.635200 -18.039949 -13.739353
0.494900 -17.984650 -13.757325
0.693400 -18.173450 -13.695972
0.003200 -8.860450 13.176250
0.003200 -8.692250 13.281650
-0.137200 -8.811250 13.207150
0.003200 -8.860450 13.176250
0.143600 -8.811250 13.207150
-2.655600 -8.937250 13.061050
-0.314200 -18.306950 -13.652587
0.143600 -8.811250 13.207150
0.201700 -8.692250 13.281650
0.143600 -8.573250 13.356150
0.003200 -8.523950 13.387050
-0.137200 -8.573250 13.356150
-0.195400 -8.692250 13.281650
-0.137200 -8.811250 13.207150
-18.138220 -0.002250 -14.237032
-18.130619 0.094050 -14.212723
-18.288179 0.054650 -14.080361
-18.297701 -0.002250 -14.090863
0.531800 0.142850 -0.677850
0.563300 0.142850 -0.751150
18.385300 0.142850 -14.288108
18.299500 0.200950 -14.399203
0.438200 0.200950 -0.814950
0.003000 -0.196250 -0.519450
0.143400 -0.253050 -0.531950
19.814800 -1.246650 14.592150
19.122601 -5.339150 14.592150
18.302601 -7.693750 14.592150
18.302601 -7.693750 13.440250
19.122601 -5.339150 13.440250
19.814800 -1.246650 13.440250
0.652200 -18.316950 -14.157926
0.343700 -18.441650 -14.539932
0.304200 -18.239250 -14.537688
0.579100 -18.142151 -14.193556
-0.112600 18.131229 -14.212723
-0.001700 18.138821 -14.237032
-0.001700 18.298290 -14.090863
-0.001800 0.588750 -0.669850
-0.142200 0.531150 -0.677850
-0.142200 0.562750 -0.751150
-0.577900 18.142160 -14.193556
-0.303000 18.239300 -14.537688
-0.207800 18.110720 -14.402157
-0.463100 17.919161 -13.748462
-0.642700 17.989309 -13.723097
-0.137400 -18.384750 -14.288108
-0.137400 -18.384750 -14.288108
-0.195500 -18.298849 -14.399203
-0.137400 -18.213051 -14.510302
0.003000 -18.177450 -14.556319
0.143400 -18.213051 -14.510302
0.201500 -18.298849 -14.399203
0.143400 -18.384750 -14.288108
0.003000 -18.420250 -14.242091
19.122601 5.339150 14.592150
19.502300 3.720250 14.592150
19.641001 2.900350 14.592150
19.814800 1.246650 14.592150
19.849600 0.415750 14.592150
19.849600 -0.415750 14.592150
19.849600 -0.415750 13.440250
19.849600 0.415750 13.440250
19.814800 1.246650 13.440250
19.641001 2.900350 13.440250
19.502300 3.720250 13.440250
19.122601 5.339150 13.440250
18.882200 6.135250 13.440250
18.302601 7.693750 13.440250
18.302601 7.693750 14.592150
18.882200 6.135250 14.592150
0.296300 -18.173450 -13.695972
0.354500 -18.039949 -13.739353
0.494900 -17.984650 -13.757325
0.635200 -18.039949 -13.739353
0.693400 -18.173450 -13.695972
0.635200 -18.306950 -13.652587
0.494900 -18.362249 -13.634620
0.354500 -18.306950 -13.652587
-0.142200 18.384710 -14.288108
-0.353300 18.306950 -13.652587
0.125600 -18.277849 -14.042944
0.074300 -18.288750 -14.080361
-2.647000 8.690250 13.480150
2.643400 8.690250 13.480150
2.801900 8.713550 13.391250
2.760400 8.859750 13.388750
2.619800 8.839750 13.466650
-0.493700 17.984600 -13.757325
-13.590970 -14.472950 14.592150
-14.754360 -13.284850 14.592150
-15.297740 -12.655350 14.592150
-16.303061 -11.330950 14.592150
-16.763250 -10.638250 14.592150
-17.194031 -9.926950 14.592150
-17.594650 -9.198250 14.592150
-17.594650 -9.198250 13.440250
-17.194031 -9.926950 13.440250
-16.763250 -10.638250 13.440250
-16.303061 -11.330950 13.440250
-15.297740 -12.655350 13.440250
-14.754360 -13.284850 13.440250
-13.590970 -14.472950 13.440250
-0.583500 -0.002450 -0.604550
-0.526700 -0.142750 -0.592150
-8.810600 -0.142950 13.207150
-8.859900 -0.002550 13.176250
2.863900 8.888050 13.275850
2.924700 8.914950 13.142150
-17.988710 -0.643250 -13.723097
-18.141560 -0.578550 -14.193556
-8.641900 2.539950 13.131250
9.564700 -17.398149 14.592150
8.827800 -17.783449 14.592150
7.308700 -18.459749 14.592150
6.529300 -18.749550 14.592150
5.738400 -19.006550 14.592150
5.738400 -19.006550 13.440250
6.529300 -18.749550 13.440250
7.308700 -18.459749 13.440250
8.827800 -17.783449 13.440250
9.564700 -17.398149 13.440250
0.615100 0.002450 -0.724750
18.420900 0.002450 -14.242091
-2.623500 8.839750 13.466650
-0.613900 -0.002450 -0.724750
-0.562100 0.137950 -0.751150
-18.384109 0.137950 -14.288108
-18.419661 -0.002450 -14.242091
18.471399 0.002250 -14.631550
18.442200 0.343050 -14.539932
0.002900 -18.630751 -14.485028
0.304200 -18.599150 -14.407570
18.159300 -0.713150 -13.661863
17.989901 -0.638750 -13.723097
18.289400 -0.054650 -14.080361
18.278500 -0.105850 -14.042944
18.468901 -0.164450 -14.028307
18.491699 -0.094050 -14.082604
18.258900 0.002250 -14.619677
8.551400 2.591550 13.242950
18.040501 0.353850 -13.739353
8.662000 2.639950 13.042950
8.643100 2.544750 13.131250
-0.001700 18.258320 -14.619677
-0.001700 18.470860 -14.631550
-0.530600 0.137950 -0.677850
-0.588200 -0.002450 -0.669850
-0.526700 0.137950 -0.592150
10.965200 16.503981 14.631550
15.782900 11.979870 14.631550
15.814300 12.003680 14.592150
8.827800 17.783421 14.592150
4.127900 19.420094 14.592150
4.119700 19.381575 14.631550
18.111300 -0.189250 -14.402157
18.086901 -0.305850 -14.297368
18.120199 -0.164450 -14.154392
18.131800 -0.094050 -14.212723
18.139400 0.002250 -14.237032
18.131800 0.113150 -14.212723
-1.661300 -19.784349 14.592150
8.827800 -17.783449 14.592150
8.810200 -17.748150 14.631550
-1.658000 -19.745050 14.631550
17.919800 -0.459150 -13.748462
17.989901 -0.279550 -13.723097
-0.256000 -18.173450 -13.695972
-0.314200 -18.306950 -13.652587
-0.454600 -18.362249 -13.634620
-0.594900 -18.306950 -13.652587
-0.653100 -18.173450 -13.695972
-0.594900 -18.039949 -13.739353
-0.454600 -17.984650 -13.757325
-0.314200 -18.039949 -13.739353
0.210200 -18.158649 -13.661863
0.354500 -18.039949 -13.739353
0.296300 -18.173450 -13.695972
2.608100 -8.808250 13.001150
2.588500 -8.803650 13.054650
2.640500 -8.661450 13.042950
0.196600 8.692250 13.281650
-0.389600 0.196150 -0.562050
0.633100 18.316971 -14.157926
0.324500 18.441620 -14.539932
0.094700 18.131229 -14.212723
0.055200 18.288771 -14.080361
0.589400 0.002450 -0.669850
-18.598570 0.284550 -14.407570
-18.441019 0.323950 -14.539932
-8.523400 -0.002550 13.387050
-8.572700 0.137850 13.356150
-8.691600 0.195950 13.281650
-8.810600 0.137850 13.207150
-8.859900 -0.002550 13.176250
-8.810600 -0.142950 13.207150
-8.691600 -0.201150 13.281650
-8.572700 -0.142950 13.356150
2.794800 -8.981450 13.119450
2.661600 -8.937250 13.061050
0.354500 -18.306950 -13.652587
0.494900 -18.362249 -13.634620
-0.209100 18.158670 -13.661863
-0.283500 17.989309 -13.723097
-0.183000 18.119631 -14.154392
-0.530600 -0.142750 -0.677850
-0.562100 -0.142750 -0.751150
-18.384109 -0.142750 -14.288108
-18.419661 -0.002450 -14.242091
-18.384109 0.137950 -14.288108
-18.384109 -0.142750 -14.288108
0.143600 -8.573250 13.356150
0.003200 -8.523950 13.387050
-18.039310 -0.634650 -13.739353
-18.172831 -0.692750 -13.695972
-18.306351 -0.634650 -13.652587
-18.361650 -0.494250 -13.634620
-18.306351 -0.353850 -13.652587
-18.172831 -0.295750 -13.695972
-18.039310 -0.353850 -13.739353
-17.984011 -0.494250 -13.757325
-0.001700 18.630720 -14.485028
-18.598570 -0.303650 -14.407570
-0.638200 -17.989349 -13.723097
-18.361650 0.455150 -13.634620
2.573000 8.931450 13.354950
-2.576700 8.931450 13.354950
2.745000 8.963950 13.219350
-0.252500 0.137950 -0.531950
-8.572700 0.137850 13.356150
0.639300 18.328030 -13.600630
0.560000 18.475410 -14.073066
0.285100 18.599171 -14.407570
0.189900 18.619671 -14.218135
0.459700 18.398170 -13.575260
0.718300 -18.158649 -13.661863
0.643900 -17.989349 -13.723097
18.120199 0.183550 -14.154392
17.989901 0.284050 -13.723097
18.159300 -0.205150 -13.661863
8.571100 -2.629350 13.387450
19.775499 -1.244150 14.631550
18.844801 6.123050 14.631550
14.157000 13.863530 14.631550
4.119700 19.381575 14.631550
-3.304500 19.537088 14.631550
-8.810300 17.748140 14.631550
-15.782900 11.979870 14.631550
-19.084658 5.328550 14.631550
-19.775476 -1.244150 14.631550
-17.559750 -9.180050 14.631550
-11.646720 -16.030350 14.631550
-6.516400 -18.712450 14.631550
2.483400 -19.658350 14.631550
8.059300 -18.101549 14.631550
15.782900 -11.979850 14.631550
-0.200500 8.692250 13.281650
-0.142400 8.573250 13.356150
-0.002000 8.523950 13.387050
0.138400 8.573250 13.356150
0.196600 8.692250 13.281650
0.138400 8.811250 13.207150
-0.002000 8.860450 13.176250
-0.142400 8.811250 13.207150
-0.142200 0.312550 -0.878650
-0.163800 -18.468349 -14.028307
-0.278900 -18.328051 -13.600630
-18.630119 -0.002250 -14.485028
-18.130619 -0.113150 -14.212723
-18.288179 -0.073750 -14.080361
18.328600 0.284050 -13.600630
18.468901 0.183550 -14.028307
18.491699 0.113150 -14.082604
-0.197600 0.437350 -0.164650
-8.810600 0.137850 13.207150
-8.691600 0.195950 13.281650
0.488200 0.220950 -1.173050
-18.306351 0.595550 -13.652587
-18.172831 0.653650 -13.695972
-18.039310 0.595550 -13.739353
-17.984011 0.455150 -13.757325
-18.039310 0.314750 -13.739353
-18.172831 0.256650 -13.695972
-18.306351 0.314750 -13.652587
-18.361650 0.455150 -13.634620
8.811800 0.142950 13.207150
8.692800 0.201150 13.281650
8.573900 0.142950 13.356150
8.524600 0.002550 13.387050
8.573900 -0.137850 13.356150
8.692800 -0.195950 13.281650
8.811800 -0.137850 13.207150
8.861100 0.002550 13.176250
-0.448800 0.169150 -0.164650
-0.195500 -0.390150 -0.562050
-0.195500 -0.437650 -0.814950
-0.195500 -18.298849 -14.399203
2.589300 -8.917950 13.177850
-2.583300 -8.917950 13.177850
-2.529200 -8.911750 13.210450
2.535200 -8.911750 13.210450
-0.200400 0.437650 -0.814950
-0.200400 18.298889 -14.399203
-0.142200 18.213051 -14.510302
0.002900 -18.470850 -14.631550
0.002900 -18.258350 -14.619677
0.579100 -18.475349 -14.073066
-18.238701 0.284550 -14.537688
-18.110121 0.189250 -14.402157
-18.110121 -0.208350 -14.402157
18.504101 0.002250 -14.102625
0.138600 18.213051 -14.510302
-0.137400 -0.253050 -0.531950
-0.137200 -8.573250 13.356150
18.174000 0.295750 -13.695972
18.040501 0.353850 -13.739353
17.985201 0.494250 -13.757325
18.040501 0.634650 -13.739353
18.174000 0.692850 -13.695972
18.307501 0.634650 -13.652587
18.362801 0.494250 -13.634620
18.307501 0.353850 -13.652587
0.635200 -18.306950 -13.652587
8.592100 -2.769750 13.306450
18.278500 0.124950 -14.042944
18.289400 0.073750 -14.080361
18.328600 -0.279550 -13.600630
18.159300 0.209650 -13.661863
-0.054000 -18.288750 -14.080361
-2.515800 -8.792050 13.117750
-2.551800 -8.795850 13.092950
-18.502939 -0.002250 -14.102625
2.521800 -8.792050 13.117750
17.194000 9.926970 14.592150
17.194000 9.926970 13.440250
15.814300 12.003680 13.440250
15.814300 12.003680 14.592150
-0.001800 18.177500 -14.556319
-0.717100 18.158670 -13.661863
-0.642700 18.328030 -13.600630
-0.463100 18.398170 -13.575260
-0.207800 18.619671 -14.218135
0.713700 18.158670 -13.661863
0.643900 -18.328051 -13.600630
-18.306351 0.314750 -13.652587
0.596100 18.306950 -13.652587
2.790000 8.981450 13.119450
0.455700 18.362261 -13.634620
-0.463100 17.919161 -13.748462
-0.283500 17.989309 -13.723097
-0.209100 18.158670 -13.661863
-0.283500 18.328030 -13.600630
-0.463100 18.398170 -13.575260
-0.642700 18.328030 -13.600630
-0.717100 18.158670 -13.661863
-0.642700 17.989309 -13.723097
-18.141560 0.559450 -14.193556
-17.988710 0.638750 -13.723097
-17.918570 0.459150 -13.748462
-18.085670 0.305850 -14.297368
0.094700 18.491100 -14.082604
-10.284890 -16.982349 14.592150
-8.810300 -17.748150 14.631550
18.298901 0.002250 -14.090863
0.165000 18.119631 -14.154392
0.280100 17.989309 -13.723097
0.459700 17.919161 -13.748462
0.639300 17.989309 -13.723097
0.713700 18.158670 -13.661863
0.639300 18.328030 -13.600630
0.459700 18.398170 -13.575260
0.280100 18.328030 -13.600630
0.205700 18.158670 -13.661863
0.280100 17.989309 -13.723097
-0.001700 18.503540 -14.102625
-17.918570 -0.463650 -13.748462
-17.988710 -0.284050 -13.723097
-18.158070 -0.209650 -13.661863
-18.327431 -0.284050 -13.600630
-18.397579 -0.463650 -13.575260
-18.327431 -0.643250 -13.600630
-18.158070 -0.717650 -13.661863
-17.988710 -0.643250 -13.723097
2.584400 8.917950 13.177850
2.530400 8.911750 13.210450
-17.918570 -0.463650 -13.748462
8.808900 2.607550 13.001150
18.174000 0.295750 -13.695972
-0.195400 -8.692250 13.281650
-18.327431 0.638750 -13.600630
-18.397579 0.459150 -13.575260
-18.327431 0.279550 -13.600630
-18.158070 0.205150 -13.661863
-17.988710 0.279550 -13.723097
-17.918570 0.459150 -13.748462
-17.988710 0.638750 -13.723097
-18.158070 0.713150 -13.661863
0.718300 -18.158649 -13.661863
0.464300 -18.158649 -13.661863
0.464300 -18.158649 -13.661863
0.210200 -18.158649 -13.661863
0.284600 -18.328051 -13.600630
0.464300 -18.398149 -13.575260
0.643900 -18.328051 -13.600630
0.002900 -18.298250 -14.090863
2.557800 -8.795850 13.092950
8.804300 2.587850 13.054650
-0.204500 -18.158649 -13.661863
-0.458500 -18.158649 -13.661863
-0.638200 -18.328051 -13.600630
-0.458500 -18.398149 -13.575260
-0.278900 -18.328051 -13.600630
-0.712600 -18.158649 -13.661863
-0.458500 -18.158649 -13.661863
-0.283500 18.328030 -13.600630
3.311000 19.575916 13.440250
2.488400 19.697395 13.440250
1.661300 19.784319 13.440250
1.661300 19.784319 14.592150
2.488400 19.697395 14.592150
3.311000 19.575916 14.592150
4.127900 19.420094 14.592150
4.937500 19.230202 14.592150
5.738400 19.006573 14.592150
6.529300 18.749599 14.592150
7.308700 18.459740 14.592150
8.075300 18.137489 14.592150
8.075300 18.137489 13.440250
7.308700 18.459740 13.440250
6.529300 18.749599 13.440250
5.738400 19.006573 13.440250
4.937500 19.230202 13.440250
4.127900 19.420094 13.440250
17.989901 -0.279550 -13.723097
17.919800 -0.459150 -13.748462
17.989901 -0.638750 -13.723097
18.159300 -0.713150 -13.661863
18.328600 -0.638750 -13.600630
18.398800 -0.459150 -13.575260
18.328600 -0.279550 -13.600630
18.159300 -0.205150 -13.661863
7 0 1 2 3 4 5 6
4 7 8 9 10
4 11 12 13 14
4 15 0 6 16
4 17 18 19 20
4 21 22 23 24
4 25 26 27 28
16 29 30 31 32 33 34 35 36 37 38 39 40 41 42 43 44
4 45 46 47 48
4 8 49 50 9
4 51 52 53 54
10 55 56 57 58 59 60 61 62 63 64
4 65 66 67 68
4 2 69 70 71
4 72 73 74 75
8 76 77 78 79 80 81 82 83
6 84 85 86 87 88 89
5 90 91 92 93 94
4 95 96 97 98
4 99 100 101 102
10 103 104 105 106 107 108 109 110 111 112
8 113 114 115 116 117 118 119 120
4 97 96 121 122
4 123 25 28 124
4 24 23 125 126
4 127 128 129 130
5 93 131 132 133 94
8 134 135 136 137 138 139 140 141
4 53 142 143 54
4 144 145 146 147
6 148 149 150 151 152 153
4 154 155 156 157
4 158 159 160 161
8 162 163 164 165 166 167 168 169
6 170 171 172 173 174 175
4 176 177 178 179
4 180 181 182 183
4 47 184 185 48
4 186 187 188 189
4 190 191 192 193
4 194 195 196 197
4 198 199 200 201
4 202 203 204 205
4 206 207 208 209
7 210 211 212 213 214 196 195
4 215 216 217 218
4 219 220 221 222
4 223 153 152 224
4 225 226 227 228
4 211 229 230 212
5 231 232 233 234 235
4 236 237 238 239
4 240 154 157 241
4 242 243 244 245
4 246 247 248 249
10 183 250 251 84 89 252 253 254 255 256
4 24 126 257 258
5 259 260 261 262 263
6 264 265 266 267 268 269
4 270 271 272 273
6 269 274 275 276 277 264
4 252 89 88 278
4 279 280 281 282
4 26 283 284 27
7 285 286 287 288 289 290 291
4 292 293 294 295
5 296 297 202 205 298
4 299 300 301 302
5 303 304 249 248 305
10 24 258 306 307 283 26 308 309 310 21
6 159 158 237 236 311 312
4 313 314 315 316
7 317 318 191 190 292 295 319
4 320 321 322 323
4 324 252 278 325
6 326 327 328 329 330 331
10 332 333 334 206 209 335 336 337 338 339
8 340 341 342 343 344 345 346 347
4 348 178 349 350
4 348 350 351 352
5 150 353 354 355 151
4 356 357 358 359
4 358 360 361 359
4 18 362 363 19
4 362 18 358 357
4 20 19 177 176
14 364 365 366 367 368 369 370 371 372 373 374 375 376 377
4 378 379 380 381
4 358 18 17 360
5 234 233 382 383 384
4 385 386 387 388
4 389 390 391 392
8 393 387 394 395 396 397 398 399
5 400 401 402 403 404
4 155 158 161 156
4 405 406 407 408
4 23 409 410 125
4 411 412 413 414
4 415 416 417 418
4 419 420 184 47
10 421 422 423 424 279 282 425 426 427 428
12 429 199 198 422 421 428 427 430 431 432 188 187
5 186 433 404 403 434
4 435 436 267 266
10 437 438 439 440 244 243 441 331 330 442
5 443 444 445 446 447
4 308 448 281 309
5 449 450 451 452 453
4 454 455 456 457
4 458 459 460 461
4 462 463 313 299
4 464 229 465 466
4 467 468 469 470
4 471 223 224 472
4 293 378 381 294
8 473 474 475 476 477 478 479 480
4 481 471 472 482
8 483 484 485 486 487 488 489 490
5 491 303 305 492 493
4 494 180 183 256
5 494 495 171 170 180
4 49 214 213 50
6 496 497 296 298 498 499
4 500 501 502 503
5 504 505 506 507 384
6 144 147 315 314 439 438
5 508 509 133 132 510
5 511 512 513 514 515
4 516 245 463 462
10 517 518 519 148 153 223 520 323 322 521
5 272 271 262 261 522
4 244 440 463 245
4 129 523 524 130
4 432 525 189 188
4 505 526 527 506
5 528 529 530 531 532
4 208 207 533 534
5 535 536 537 538 539
4 251 540 85 84
4 541 542 128 127
4 447 543 544 443
5 463 440 439 314 313
5 85 545 546 547 86
5 548 107 106 549 550
5 331 441 551 225 326
4 552 553 554 555
4 556 557 558 559
4 321 108 107 548
4 466 465 12 11
4 527 560 561 562
4 519 563 149 148
4 93 92 406 405
4 564 320 323 520
5 565 566 567 491 493
4 69 390 389 70
4 412 536 535 413
8 568 569 570 571 572 573 574 575
6 481 482 576 577 112 111
4 518 517 578 579
4 550 580 578 517
3 581 582 583
3 584 585 582
4 586 577 576 587
8 588 589 590 591 592 593 594 582
4 595 596 597 598
7 599 600 601 602 603 121 96
4 49 8 604 605
8 606 607 608 59 58 609 610 611
4 612 613 614 615
4 616 617 618 555
4 1 619 69 2
4 619 620 390 69
4 620 619 15 621
5 622 623 624 625 626
4 229 464 627 230
8 628 629 630 631 632 633 634 635
18 636 637 638 639 640 641 606 611 642 643 644 645 646 647 648 649 650 651
6 198 201 410 409 423 422
8 652 653 654 655 656 657 658 659
4 621 15 16 660
4 522 261 260 661
4 522 661 174 173
4 233 232 662 663
4 664 255 254 665
4 280 310 309 281
4 666 667 668 665
6 540 251 250 669 259 263
16 670 671 672 673 674 675 676 374 373 677 678 679 680 681 682 683
4 684 685 686 687
4 255 664 494 256
5 688 667 666 324 689
4 310 280 22 21
4 690 458 461 691
4 306 433 692 307
14 693 694 695 696 697 66 65 698 699 700 701 702 64 63
4 600 703 704 601
4 705 664 665 668
4 706 707 708 709
4 132 131 710 711
5 507 712 713 234 384
4 714 715 407 406
4 379 378 53 52
4 716 717 718 719
4 405 408 720 710
6 721 302 301 722 723 724
4 664 705 495 494
5 450 449 624 623 725
4 417 726 725 623
4 727 728 684 729
6 730 731 732 733 734 735
4 170 175 181 180
4 191 95 98 192
7 445 736 737 738 739 740 741
4 742 743 744 745
4 737 746 747 738
8 748 749 750 751 752 753 754 755
4 756 566 565 662
5 757 758 759 760 761
4 3 2 71 762
7 707 727 729 763 240 241 708
5 692 189 525 529 528
4 378 293 142 53
4 764 451 450 765
5 497 128 542 297 296
4 766 767 618 617
4 318 768 95 191
4 768 599 96 95
4 769 502 501 770
5 537 503 502 769 538
4 317 703 768 318
4 768 703 600 599
4 548 550 517 521
8 771 772 773 774 775 776 777 778
4 779 780 781 782
4 366 339 338 367
4 783 784 785 554
4 354 586 587 355
7 786 787 788 160 159 312 685
4 789 790 166 791
4 792 605 604 793
5 449 766 617 616 624
8 794 795 796 797 798 799 800 801
4 253 666 665 254
4 416 802 726 417
5 459 515 514 803 460
6 563 519 518 579 757 761
5 561 560 804 304 303
6 123 124 805 430 427 426
5 529 525 432 431 530
10 806 807 172 171 495 705 668 667 688 808
4 238 809 810 239
5 811 812 813 814 815
4 816 612 615 817
4 739 738 717 716
4 540 270 545 85
5 446 445 741 818 819
4 747 820 717 738
4 245 516 821 242
15 822 823 824 825 826 827 828 829 830 831 832 833 834 835 836
4 460 803 454 461
4 703 317 319 704
8 837 838 839 840 841 842 843 844
4 812 764 765 813
4 845 419 47 46
4 543 508 510 544
4 666 253 252 324
4 158 155 238 237
5 846 847 504 384 383
4 110 109 320 564
4 803 848 455 454
4 558 849 850 559
5 851 852 853 133 509
4 179 178 348 854
4 326 225 228 327
4 763 729 855 856
4 178 177 857 349
4 351 356 359 352
8 858 859 860 861 862 863 864 865
4 19 363 857 177
4 686 685 312 311
8 866 867 868 869 870 871 872 873
4 854 348 352 874
4 874 352 359 361
7 464 466 11 875 876 877 627
12 878 780 779 105 104 103 112 577 586 879 880 881
4 729 684 687 855
4 845 882 883 884
4 885 886 614 613
5 540 263 262 271 270
4 155 154 809 238
4 780 759 758 781
4 887 713 613 612
5 456 888 889 890 457
5 111 110 564 471 481
4 0 15 619 1
5 94 133 853 891 719
4 4 420 892 5
7 620 621 660 883 882 391 390
6 292 190 193 143 142 293
4 287 286 732 731
4 728 706 787 786
4 108 321 320 109
4 604 893 894 793
4 12 195 194 13
8 895 896 897 898 899 900 901 902
4 549 903 580 550
4 226 499 498 227
4 551 242 821 904
4 203 329 328 204
6 420 4 3 762 185 184
4 853 852 905 906
4 876 7 10 877
5 718 907 90 94 719
6 306 258 257 400 404 433
4 851 908 905 852
4 526 804 560 527
4 8 7 893 604
4 305 248 247 909
10 299 302 721 496 499 226 904 821 516 462
5 149 910 911 353 150
12 524 145 144 438 437 442 330 329 203 541 127 130
4 596 414 413 597
4 433 186 189 692
4 848 769 770 455
4 850 598 912 513
4 563 913 910 149
8 914 650 649 915 916 102 101 917
4 419 845 884 918
4 497 724 129 128
5 720 408 736 445 444
4 565 493 663 662
4 919 418 622 626
4 448 425 282 281
5 920 921 922 416 415
4 544 510 132 711
4 923 452 451 764
4 597 413 535 539
5 769 848 803 514 538
4 465 210 195 12
4 785 616 555 554
5 924 235 234 713 887
4 530 431 925 531
6 549 106 105 779 782 903
4 689 324 325 926
5 86 547 72 75 87
6 307 692 528 532 284 283
4 299 313 316 300
6 927 808 688 689 926 928
4 73 927 928 74
4 431 430 805 925
4 551 904 226 225
8 929 930 931 932 933 934 935 936
6 603 379 52 51 122 121
4 322 321 548 521
6 888 937 938 939 940 889
4 847 846 247 246
5 353 911 879 586 354
4 787 706 709 788
4 712 507 562 885
5 468 467 815 814 941
6 275 942 742 745 943 276
4 741 740 944 906
4 210 465 229 211
4 598 597 539 912
5 813 802 416 922 814
4 443 544 711 444
4 909 247 846 383
4 820 907 718 717
5 22 424 423 409 23
4 712 885 613 713
4 470 469 945 946
5 434 403 402 199 429
8 947 948 949 950 951 952 953 954
5 814 922 552 955 941
4 250 183 182 669
4 448 308 26 25
8 956 957 958 959 960 961 962 963
12 927 73 964 965 273 272 522 173 172 807 806 808
4 767 941 955 618
4 964 546 545 965
4 811 923 764 812
4 68 67 670 683
4 739 716 944 740
4 940 939 411 414
4 497 496 721 724
5 691 457 890 966 690
5 426 425 448 25 123
4 564 520 223 471
4 711 710 720 444
4 145 967 968 146
4 906 944 891 853
6 408 407 715 746 737 736
4 280 279 424 22
4 726 765 450 725
4 707 706 728 727
4 875 11 14 969
4 131 93 405 710
4 944 716 719 891
5 538 514 513 912 539
4 802 813 765 726
4 770 501 937 888
4 744 743 290 289
4 91 714 406 92
4 511 556 559 512
4 506 527 562 507
4 945 469 767 766
4 938 937 501 500
5 945 766 449 453 946
6 154 240 763 856 810 809
5 966 890 849 558 557
8 970 971 972 973 974 975 976 977
3 978 222 979
3 980 220 981
6 982 983 984 978 221 981
4 879 911 910 880
4 985 909 383 382
5 913 563 761 760 986
4 469 468 941 767
4 379 603 602 380
5 129 724 723 987 523
5 615 614 491 567 817
4 849 595 598 850
4 555 618 955 552
5 886 561 303 491 614
4 270 273 965 545
4 493 492 985 663
4 461 454 457 691
6 7 876 875 969 894 893
5 524 523 987 967 145
6 882 845 46 45 392 391
6 214 49 605 792 197 196
4 663 985 382 233
3 988 218 989
6 990 991 992 988 217 993
3 994 216 993
7 890 889 940 414 596 595 849
4 924 887 612 816
5 785 784 625 624 616
4 420 419 918 892
5 921 995 553 552 922
4 920 415 418 919
4 756 662 232 231
4 908 819 818 905
4 551 441 243 242
5 547 546 964 73 72
4 418 417 623 622
4 728 786 685 684
5 878 986 760 759 780
4 512 559 850 513
5 722 968 967 987 723
4 187 186 434 429
4 885 562 561 886
4 818 741 906 905
4 455 770 888 456
4 881 913 986 878
4 492 305 909 985
4 913 881 880 910
22 996 997 998 534 533 999 1000 1001 1002 1003 1004 1005 1006 1007 100 99 1008 1009 1010 1011 1012 1013
4 783 554 553 995
4 735 734 436 435
5 297 542 541 203 202
8 1014 1015 1016 1017 1018 1019 1020 1021
4 402 401 200 199
