ply
format ascii 1.0
comment Created by Blender 2.82 (sub 7) - www.blender.org, source file: ''
element vertex 1011
property float x
property float y
property float z
element face 258
property list uchar uint vertex_indices
end_header
5.399510 -25.291809 13.500000
5.399510 -25.291809 12.000000
20.999990 -19.500010 12.000000
20.999990 -19.500010 13.500000
16.419912 -14.302510 -15.000000
16.734810 -16.049910 -15.000000
13.658750 -17.046810 -15.000000
13.658750 -14.302510 -15.000000
2.640010 2.639990 15.000000
2.640010 -0.000010 15.000000
0.000010 -0.000010 15.000000
0.000010 2.639990 15.000000
17.644295 -15.258910 9.000000
16.657145 -15.424210 -15.000000
16.419912 -14.302510 -15.000000
17.230541 -13.302510 9.000000
19.361429 -18.061510 9.903800
19.516870 -18.198009 11.096200
5.164810 -23.881510 11.096200
5.140210 -23.733709 9.903800
10.559990 10.560010 15.000000
10.559990 7.920010 15.000000
7.919990 7.920010 15.000000
7.919990 10.560010 15.000000
-13.658790 -15.674710 -15.000000
-12.658790 -15.929010 9.000000
-12.658790 -18.555611 9.000000
-13.658790 -17.046810 -15.000000
-16.419889 14.302500 -15.000000
-16.734791 16.049891 -15.000000
-13.658790 17.046854 -15.000000
-13.658790 14.302500 -15.000000
-20.999990 19.500010 12.000000
-5.399590 25.291861 12.000000
5.399510 25.291861 12.000000
20.999990 19.500010 12.000000
20.379650 18.955420 11.925300
5.301410 24.701981 11.925300
-5.301390 24.701981 11.925300
-20.379690 18.955420 11.925300
-16.987289 -6.472810 11.096200
-16.839790 -6.497510 9.903800
-17.337990 -8.853310 9.903800
-17.482691 -8.815610 11.096200
19.361429 18.061541 9.903800
19.361429 -18.061510 9.903800
19.026621 -17.767611 9.396400
19.026621 17.767611 9.396400
-19.516890 -18.198009 11.096200
-18.755890 -12.904610 11.096200
-18.611290 -12.942410 9.903800
-19.361490 -18.061510 9.903800
16.734810 16.049891 -15.000000
14.994010 16.482065 -15.000000
15.311210 17.433670 9.000000
17.836439 16.806753 9.000000
5.280010 -0.000010 15.000000
5.280010 -2.640010 15.000000
7.919990 -2.640010 15.000000
7.919990 -0.000010 15.000000
-5.279990 -5.280010 15.000000
-5.279990 -7.920010 15.000000
-7.919990 -7.920010 15.000000
-7.919990 -5.280010 15.000000
-5.279990 -7.920010 15.000000
-5.279990 -10.560010 15.000000
-2.639990 -10.560010 15.000000
-2.639990 -7.920010 15.000000
-2.639990 2.639990 15.000000
-2.639990 -0.000010 15.000000
-5.279990 -0.000010 15.000000
-5.279990 2.639990 15.000000
-15.039390 -14.302510 -15.000000
-16.419889 -14.302510 -15.000000
-17.230591 -13.302510 9.000000
-14.944690 -13.302510 9.000000
19.361429 -18.061510 9.903800
5.140210 -23.733709 9.903800
5.087210 -23.415409 9.396400
19.026621 -17.767611 9.396400
-20.922291 19.431780 14.096200
-20.922291 -19.431810 14.096200
-20.587490 -19.137810 14.603600
-20.587490 19.137859 14.603600
-20.587490 -19.137810 14.603600
-5.334290 -24.899611 14.603600
5.334210 -24.899611 14.603600
20.587460 -19.137810 14.603600
20.059490 -18.674311 14.925300
7.450460 -23.851410 14.925300
-5.250690 -24.397511 14.925300
-20.059490 -18.674311 14.925300
0.000010 5.279990 15.000000
0.000010 2.639990 15.000000
2.640010 2.639990 15.000000
2.640010 5.279990 15.000000
5.280010 10.560010 15.000000
5.280010 7.920010 15.000000
7.919990 7.920010 15.000000
7.919990 10.560010 15.000000
-14.993990 -16.482010 -15.000000
-13.658790 -17.046810 -15.000000
-12.658790 -18.555611 9.000000
-15.311190 -17.433710 9.000000
-19.026690 -17.767611 9.396400
-19.361490 -18.061510 9.903800
-19.361490 18.061541 9.903800
-19.026690 17.767611 9.396400
-2.639990 -2.640010 15.000000
-2.639990 -5.280010 15.000000
0.000010 -5.280010 15.000000
0.000010 -2.640010 15.000000
-5.279990 -0.000010 15.000000
-7.919990 -0.000010 15.000000
-7.919990 -2.640010 15.000000
-5.279990 -2.640010 15.000000
10.559990 -5.280010 15.000000
10.559990 -7.920010 15.000000
11.164990 -7.920010 15.000000
11.164990 -5.280010 15.000000
18.755920 -12.904610 11.096200
18.611219 -12.942410 9.903800
17.338003 -8.853310 9.903800
17.482700 -8.815610 11.096200
-17.836491 16.806753 9.000000
-16.734791 16.049891 -15.000000
-16.657190 15.424225 -15.000000
-17.644291 15.258877 9.000000
-11.109990 11.110010 15.000000
-10.559990 10.560010 15.000000
-7.919990 10.560010 15.000000
-7.919990 11.110010 15.000000
10.559990 -10.560010 15.000000
7.919990 -10.560010 15.000000
7.919990 -11.165010 15.000000
11.164990 -11.165010 15.000000
-2.639990 11.110010 15.000000
-2.639990 10.560010 15.000000
0.000010 10.560010 15.000000
0.000010 11.110010 15.000000
10.559990 5.279990 15.000000
10.559990 2.639990 15.000000
11.164990 2.639990 15.000000
11.164990 5.279990 15.000000
18.104059 -3.899510 12.000000
18.104059 3.899590 12.000000
20.605749 14.762830 12.000000
20.999990 19.500010 12.000000
20.999990 19.500010 13.500000
20.605749 14.762830 13.500000
18.104059 3.899590 13.500000
18.104059 -3.899510 13.500000
20.999990 -19.500010 13.500000
20.999990 -19.500010 12.000000
17.836439 16.806755 9.000000
4.905510 22.323450 9.000000
-4.905490 22.323450 9.000000
-17.836491 16.806755 9.000000
-18.498690 17.304110 9.074700
-6.974690 22.424000 9.074700
5.003610 22.913330 9.074700
18.498650 17.304110 9.074700
20.922270 19.431780 14.096200
20.587460 19.137859 14.603600
20.587460 -19.137810 14.603600
20.922270 -19.431810 14.096200
19.439150 18.129770 15.000000
19.439150 -18.129709 15.000000
20.059490 -18.674311 14.925300
20.059490 18.674351 14.925300
-20.059490 18.674351 14.925300
-20.059490 -18.674311 14.925300
-19.439190 -18.129709 15.000000
-19.439190 18.129770 15.000000
-16.533590 4.030890 9.903800
-16.682590 4.018390 11.096200
-16.987289 6.472850 11.096200
-16.839790 6.497550 9.903800
-5.399590 -25.291809 12.000000
-20.999990 -19.500010 12.000000
-20.379690 -18.955410 11.925300
-5.301390 -24.702009 11.925300
5.301410 -24.702009 11.925300
20.379650 -18.955410 11.925300
20.999990 -19.500010 12.000000
5.399510 -25.291809 12.000000
-18.498690 17.304110 9.074700
-18.232790 15.160305 9.074700
-15.706690 4.099990 9.074700
-18.232790 -15.160310 9.074700
-18.498690 -17.304110 9.074700
-19.516890 18.197990 11.096200
-19.361490 18.061541 9.903800
-17.337990 8.853320 9.903800
-17.482691 8.815580 11.096200
15.311210 -17.433710 9.000000
12.658750 -18.555611 9.000000
13.658750 -17.046810 -15.000000
14.994010 -16.482010 -15.000000
-4.576090 20.344509 15.000000
-9.356890 18.255711 15.000000
-11.109990 11.110010 15.000000
11.164990 11.110010 15.000000
11.164990 -11.165010 15.000000
-11.109990 -11.165010 15.000000
-6.151190 -19.953510 15.000000
4.576110 -20.344509 15.000000
15.608570 -15.299110 15.000000
13.117450 -4.316510 15.000000
15.608570 15.299137 15.000000
4.576110 20.344509 15.000000
12.658750 18.555611 9.000000
12.658750 -13.302510 9.000000
12.658750 -18.555611 9.000000
4.905510 -22.323410 9.000000
-6.785590 -21.856710 9.000000
-12.658790 -18.555611 9.000000
-12.658790 18.555611 9.000000
-6.785590 21.856701 9.000000
4.905510 22.323450 9.000000
19.439150 -18.129709 15.000000
5.152510 -23.807610 15.000000
-5.152490 -23.807610 15.000000
-19.439190 -18.129709 15.000000
-12.658790 -13.302510 9.000000
-12.658790 13.302500 9.000000
12.658750 13.302500 9.000000
-16.734791 -16.049910 -15.000000
-16.419889 -14.302510 -15.000000
-13.658790 -14.302510 -15.000000
-13.658790 -17.046810 -15.000000
5.280010 5.279990 15.000000
5.280010 2.639990 15.000000
2.640010 2.639990 15.000000
2.640010 5.279990 15.000000
-7.919990 5.279990 15.000000
-7.919990 2.639990 15.000000
-5.279990 2.639990 15.000000
-5.279990 5.279990 15.000000
7.919990 -7.920010 15.000000
7.919990 -10.560010 15.000000
10.559990 -10.560010 15.000000
10.559990 -7.920010 15.000000
-10.559990 5.279990 15.000000
-10.559990 2.639990 15.000000
-7.919990 2.639990 15.000000
-7.919990 5.279990 15.000000
-19.026690 17.767611 9.396400
-5.087190 23.415380 9.396400
5.087210 23.415380 9.396400
19.026621 17.767611 9.396400
-5.334290 24.899590 14.603600
-20.587490 19.137859 14.603600
-20.059490 18.674351 14.925300
-5.250690 24.397530 14.925300
5.250710 24.397530 14.925300
20.059490 18.674351 14.925300
20.587460 19.137859 14.603600
5.334210 24.899590 14.603600
0.000010 -0.000010 15.000000
0.000010 -2.640010 15.000000
2.640010 -2.640010 15.000000
2.640010 -0.000010 15.000000
7.919990 -7.920010 15.000000
7.919990 -10.560010 15.000000
5.280010 -10.560010 15.000000
5.280010 -7.920010 15.000000
16.533590 -4.030910 9.903800
16.682566 -4.018410 11.096200
0.000010 -10.560010 15.000000
0.000010 -11.165010 15.000000
2.640010 -11.165010 15.000000
2.640010 -10.560010 15.000000
-7.919990 -7.920010 15.000000
-7.919990 -10.560010 15.000000
-10.559990 -10.560010 15.000000
-10.559990 -7.920010 15.000000
2.640010 -2.640010 15.000000
2.640010 -5.280010 15.000000
0.000010 -5.280010 15.000000
0.000010 -2.640010 15.000000
-5.279990 -2.640010 15.000000
-5.279990 -5.280010 15.000000
-2.639990 -5.280010 15.000000
-2.639990 -2.640010 15.000000
0.000010 7.920010 15.000000
0.000010 5.279990 15.000000
2.640010 5.279990 15.000000
2.640010 7.920010 15.000000
19.198750 -14.998510 11.096200
19.051291 -15.023210 9.903800
-11.109990 7.920010 15.000000
-11.109990 5.279990 15.000000
-10.559990 5.279990 15.000000
-10.559990 7.920010 15.000000
-11.109990 11.110010 15.000000
-11.109990 7.920010 15.000000
-10.559990 7.920010 15.000000
-10.559990 10.560010 15.000000
7.919990 10.560010 15.000000
7.919990 7.920010 15.000000
10.559990 7.920010 15.000000
10.559990 10.560010 15.000000
5.280010 -10.560010 15.000000
5.280010 -11.165010 15.000000
7.919990 -11.165010 15.000000
7.919990 -10.560010 15.000000
19.851681 18.491920 11.603600
19.851681 -18.491911 11.603600
19.516870 -18.198009 11.096200
19.516870 18.197990 11.096200
-11.109990 -7.920010 15.000000
-11.109990 -11.165010 15.000000
-10.559990 -10.560010 15.000000
-10.559990 -7.920010 15.000000
-20.922291 -19.431810 14.096200
-5.387290 -25.217911 14.096200
19.516870 18.197990 11.096200
19.361429 18.061541 9.903800
5.140210 23.733761 9.903800
5.164810 23.881559 11.096200
10.559990 -7.920010 15.000000
10.559990 -10.560010 15.000000
11.164990 -11.165010 15.000000
11.164990 -7.920010 15.000000
-13.658790 -14.302510 -15.000000
-15.039390 -14.302510 -15.000000
-14.944690 -13.302510 9.000000
-12.658790 -13.302510 9.000000
15.039330 14.302500 -15.000000
16.419912 14.302500 -15.000000
17.230541 13.302500 9.000000
14.944640 13.302500 9.000000
5.387210 -25.217911 14.096200
20.922270 -19.431810 14.096200
10.559990 -2.640010 15.000000
10.559990 -5.280010 15.000000
11.164990 -5.280010 15.000000
11.164990 -2.640010 15.000000
-13.658790 14.302500 -15.000000
-13.658790 15.674679 -15.000000
-12.658790 15.929058 9.000000
-12.658790 13.302500 9.000000
2.640010 -5.280010 15.000000
2.640010 -7.920010 15.000000
5.280010 -7.920010 15.000000
5.280010 -5.280010 15.000000
-5.164790 -23.881510 11.096200
-5.140190 -23.733709 9.903800
-10.559990 -7.920010 15.000000
-10.559990 -10.560010 15.000000
-7.919990 -10.560010 15.000000
-7.919990 -7.920010 15.000000
17.836439 -16.806709 9.000000
15.311210 -17.433710 9.000000
14.994010 -16.482010 -15.000000
16.734810 -16.049910 -15.000000
14.994010 16.482065 -15.000000
13.658750 17.046854 -15.000000
12.658750 18.555611 9.000000
15.311210 17.433670 9.000000
-16.425289 1.534090 9.903800
-16.574690 1.530890 11.096200
-16.425289 -1.534110 9.903800
-16.533590 -4.030910 9.903800
-16.682590 -4.018410 11.096200
-16.574690 -1.530910 11.096200
-16.734791 -16.049910 -15.000000
-14.993990 -16.482010 -15.000000
-15.311190 -17.433710 9.000000
-17.836491 -16.806709 9.000000
-7.919990 -7.920010 15.000000
-7.919990 -10.560010 15.000000
-5.279990 -10.560010 15.000000
-5.279990 -7.920010 15.000000
-17.836491 16.806755 9.000000
20.379650 18.955420 11.925300
20.999990 19.500010 12.000000
20.999990 -19.500010 12.000000
20.379650 -18.955410 11.925300
12.658750 -13.302510 9.000000
14.944640 -13.302510 9.000000
15.039330 -14.302510 -15.000000
13.658750 -14.302510 -15.000000
-13.117490 -4.316510 15.000000
-15.608590 -15.299110 15.000000
-15.608590 15.299137 15.000000
15.112090 4.149790 9.000000
17.836439 16.806755 9.000000
18.498650 17.304110 9.074700
18.498650 -17.304110 9.074700
17.836439 -16.806709 9.000000
-20.605789 -14.762810 13.500000
-20.136589 -12.544510 13.500000
-18.863390 -8.455410 13.500000
-18.394291 -6.237210 13.500000
-18.104090 -3.899510 13.500000
-17.999990 -1.500010 13.500000
-17.999990 1.499990 13.500000
-18.104090 3.899590 13.500000
-18.394291 6.237180 13.500000
-18.863390 8.455470 13.500000
-20.136589 12.544540 13.500000
-20.605789 14.762830 13.500000
-20.895889 17.100451 13.500000
-20.999990 19.500010 13.500000
-20.999990 19.500010 12.000000
-20.895889 17.100451 12.000000
-20.605789 14.762830 12.000000
-20.136589 12.544540 12.000000
-18.863390 8.455470 12.000000
-18.394291 6.237180 12.000000
-18.104090 3.899590 12.000000
-17.999990 1.499990 12.000000
-17.999990 -1.500010 12.000000
-18.104090 -3.899510 12.000000
-18.394291 -6.237210 12.000000
-18.863390 -8.455410 12.000000
-20.136589 -12.544510 12.000000
-20.605789 -14.762810 12.000000
-20.895889 -17.100410 12.000000
-20.999990 -19.500010 12.000000
-20.999990 -19.500010 13.500000
-20.895889 -17.100410 13.500000
-19.516890 18.197990 11.096200
-19.516890 -18.198009 11.096200
-19.851690 -18.491911 11.603600
-19.851690 18.491920 11.603600
13.658750 14.302500 -15.000000
15.039330 14.302500 -15.000000
14.944640 13.302500 9.000000
12.658750 13.302500 9.000000
-5.399590 25.291861 13.500000
-5.387290 25.217960 14.096200
5.387210 25.217960 14.096200
5.399510 25.291861 13.500000
-5.140190 23.733761 9.903800
-5.164790 23.881559 11.096200
-12.658790 -13.302510 9.000000
-12.658790 -15.929010 9.000000
-13.658790 -15.674710 -15.000000
-13.658790 -14.302510 -15.000000
-5.399590 25.291861 13.500000
5.399510 25.291861 13.500000
5.399510 25.291861 12.000000
-5.399590 25.291861 12.000000
13.658750 15.674679 -15.000000
12.658750 15.929058 9.000000
12.658750 18.555611 9.000000
13.658750 17.046854 -15.000000
-17.644291 -15.258910 9.000000
-16.657190 -15.424210 -15.000000
-16.734791 -16.049910 -15.000000
-17.836491 -16.806709 9.000000
17.230541 -13.302510 9.000000
17.230541 13.302500 9.000000
15.112090 4.149790 9.000000
-8.338690 -20.656811 15.000000
-9.262590 -22.437611 15.000000
-5.152490 -23.807610 15.000000
-6.626990 -21.380911 15.000000
-17.836491 -16.806709 9.000000
-2.639990 -5.280010 15.000000
-2.639990 -7.920010 15.000000
0.000010 -7.920010 15.000000
0.000010 -5.280010 15.000000
-17.644291 15.258877 9.000000
-16.657190 15.424225 -15.000000
-16.419889 14.302500 -15.000000
-17.230591 13.302500 9.000000
-2.639990 10.560010 15.000000
-2.639990 7.920010 15.000000
0.000010 7.920010 15.000000
0.000010 10.560010 15.000000
2.640010 -0.000010 15.000000
2.640010 -2.640010 15.000000
5.280010 -2.640010 15.000000
5.280010 -0.000010 15.000000
-15.311190 17.433670 9.000000
-12.658790 18.555611 9.000000
-13.658790 17.046854 -15.000000
-14.993990 16.482065 -15.000000
2.640010 10.560010 15.000000
2.640010 7.920010 15.000000
5.280010 7.920010 15.000000
5.280010 10.560010 15.000000
2.640010 2.639990 15.000000
2.640010 -0.000010 15.000000
5.280010 -0.000010 15.000000
5.280010 2.639990 15.000000
10.559990 5.279990 15.000000
10.559990 2.639990 15.000000
7.919990 2.639990 15.000000
7.919990 5.279990 15.000000
-19.851690 -18.491911 11.603600
-19.516890 -18.198009 11.096200
-5.164790 -23.881510 11.096200
-5.217790 -24.199909 11.603600
10.559990 -5.280010 15.000000
10.559990 -7.920010 15.000000
7.919990 -7.920010 15.000000
7.919990 -5.280010 15.000000
-10.559990 10.560010 15.000000
-10.559990 7.920010 15.000000
-7.919990 7.920010 15.000000
-7.919990 10.560010 15.000000
0.000010 10.560010 15.000000
0.000010 7.920010 15.000000
2.640010 7.920010 15.000000
2.640010 10.560010 15.000000
7.919990 7.920010 15.000000
7.919990 5.279990 15.000000
10.559990 5.279990 15.000000
10.559990 7.920010 15.000000
5.217810 24.199930 11.603600
19.851681 18.491920 11.603600
19.516870 18.197990 11.096200
5.164810 23.881559 11.096200
-5.164790 23.881559 11.096200
-5.217790 24.199930 11.603600
-5.279990 -0.000010 15.000000
-5.279990 -2.640010 15.000000
-2.639990 -2.640010 15.000000
-2.639990 -0.000010 15.000000
0.000010 -5.280010 15.000000
0.000010 -7.920010 15.000000
2.640010 -7.920010 15.000000
2.640010 -5.280010 15.000000
-7.919990 -5.280010 15.000000
-7.919990 -7.920010 15.000000
-5.279990 -7.920010 15.000000
-5.279990 -5.280010 15.000000
-10.559990 -5.280010 15.000000
-10.559990 -7.920010 15.000000
-7.919990 -7.920010 15.000000
-7.919990 -5.280010 15.000000
-2.639990 7.920010 15.000000
-2.639990 5.279990 15.000000
0.000010 5.279990 15.000000
0.000010 7.920010 15.000000
-5.279990 -2.640010 15.000000
-7.919990 -2.640010 15.000000
-7.919990 -0.000010 15.000000
-5.279990 -0.000010 15.000000
0.000010 5.279990 15.000000
0.000010 2.639990 15.000000
-2.639990 2.639990 15.000000
-2.639990 5.279990 15.000000
7.919990 -2.640010 15.000000
7.919990 -5.280010 15.000000
10.559990 -5.280010 15.000000
10.559990 -2.640010 15.000000
5.280010 2.639990 15.000000
5.280010 -0.000010 15.000000
7.919990 -0.000010 15.000000
7.919990 2.639990 15.000000
0.000010 2.639990 15.000000
0.000010 -0.000010 15.000000
2.640010 -0.000010 15.000000
2.640010 2.639990 15.000000
-2.639990 -2.640010 15.000000
-2.639990 -5.280010 15.000000
-5.279990 -5.280010 15.000000
-5.279990 -2.640010 15.000000
-10.559990 2.639990 15.000000
-10.559990 -0.000010 15.000000
-7.919990 -0.000010 15.000000
-7.919990 2.639990 15.000000
0.000010 -2.640010 15.000000
0.000010 -5.280010 15.000000
2.640010 -5.280010 15.000000
2.640010 -2.640010 15.000000
-7.919990 2.639990 15.000000
-7.919990 -0.000010 15.000000
-10.559990 -0.000010 15.000000
-10.559990 2.639990 15.000000
-20.922291 19.431780 14.096200
7.919990 -2.640010 15.000000
7.919990 -5.280010 15.000000
5.280010 -5.280010 15.000000
5.280010 -2.640010 15.000000
5.280010 11.110010 15.000000
5.280010 10.560010 15.000000
7.919990 10.560010 15.000000
7.919990 11.110010 15.000000
2.640010 11.110010 15.000000
2.640010 10.560010 15.000000
5.280010 10.560010 15.000000
5.280010 11.110010 15.000000
5.217810 -24.199909 11.603600
19.851681 -18.491911 11.603600
-10.559990 -10.560010 15.000000
-11.109990 -11.165010 15.000000
-7.919990 -11.165010 15.000000
-7.919990 -10.560010 15.000000
-20.999990 19.500010 13.500000
-7.919990 -10.560010 15.000000
-7.919990 -11.165010 15.000000
-5.279990 -11.165010 15.000000
-5.279990 -10.560010 15.000000
-5.279990 11.110010 15.000000
-5.279990 10.560010 15.000000
-2.639990 10.560010 15.000000
-2.639990 11.110010 15.000000
-5.399590 -25.291809 13.500000
-5.399590 -25.291809 12.000000
-17.230591 -13.302510 9.000000
-16.419889 -14.302510 -15.000000
-16.657190 -15.424210 -15.000000
-17.644291 -15.258910 9.000000
-17.836491 16.806753 9.000000
-15.311190 17.433670 9.000000
-14.993990 16.482065 -15.000000
-16.734791 16.049891 -15.000000
-19.361490 18.061541 9.903800
-19.516890 18.197990 11.096200
18.498650 -17.304110 9.074700
-5.087190 -23.415409 9.396400
-19.026690 -17.767611 9.396400
-18.498690 -17.304110 9.074700
-5.003690 -22.913309 9.074700
6.974650 -22.424009 9.074700
5.280010 -5.280010 15.000000
5.280010 -7.920010 15.000000
2.640010 -7.920010 15.000000
2.640010 -5.280010 15.000000
-14.726090 -11.986410 15.000000
-14.019990 9.718740 15.000000
-14.499990 -1.575810 15.000000
-14.613490 -4.191410 15.000000
-17.285690 -16.428310 15.000000
-4.823190 -21.828711 15.000000
4.823110 -21.828711 15.000000
17.285622 -16.428310 15.000000
14.613430 -4.191410 15.000000
17.285622 16.428322 15.000000
4.823110 21.828720 15.000000
-4.823190 21.828720 15.000000
-17.285690 16.428322 15.000000
-15.608590 15.299137 15.000000
-4.576090 20.344509 15.000000
4.576110 20.344509 15.000000
15.608570 15.299137 15.000000
13.117450 -4.316510 15.000000
15.608570 -15.299110 15.000000
4.576110 -20.344509 15.000000
-4.576090 -20.344509 15.000000
-15.608590 -15.299110 15.000000
-19.851690 18.491920 11.603600
-19.516890 18.197990 11.096200
-19.516890 -18.198009 11.096200
-19.361490 -18.061510 9.903800
16.419912 14.302500 -15.000000
13.658750 14.302500 -15.000000
13.658750 17.046854 -15.000000
16.734810 16.049891 -15.000000
13.658750 -17.046810 -15.000000
12.658750 -18.555611 9.000000
12.658750 -15.929010 9.000000
13.658750 -15.674710 -15.000000
20.922270 19.431780 14.096200
20.999990 19.500010 13.500000
-12.658790 13.302500 9.000000
-14.944690 13.302500 9.000000
-15.039390 14.302500 -15.000000
-13.658790 14.302500 -15.000000
13.658750 -14.302510 -15.000000
13.658750 -15.674710 -15.000000
12.658750 -15.929010 9.000000
12.658750 -13.302510 9.000000
-5.399590 -25.291809 13.500000
5.399510 -25.291809 13.500000
17.230541 13.302500 9.000000
16.419912 14.302500 -15.000000
16.657145 15.424225 -15.000000
17.644295 15.258877 9.000000
17.836439 -16.806709 9.000000
16.734810 -16.049910 -15.000000
16.657145 -15.424210 -15.000000
17.644295 -15.258910 9.000000
20.999990 -19.500010 13.500000
20.999990 19.500010 13.500000
-13.658790 17.046854 -15.000000
-12.658790 18.555611 9.000000
-12.658790 15.929058 9.000000
-13.658790 15.674679 -15.000000
19.516870 18.197990 11.096200
16.682566 4.018390 11.096200
16.533590 4.030890 9.903800
19.361429 18.061541 9.903800
-20.379690 18.955420 11.925300
-20.379690 -18.955410 11.925300
12.658750 13.302500 9.000000
12.658750 15.929058 9.000000
13.658750 15.674679 -15.000000
13.658750 14.302500 -15.000000
17.644295 15.258877 9.000000
16.657145 15.424225 -15.000000
16.734810 16.049891 -15.000000
17.836439 16.806753 9.000000
14.944640 -13.302510 9.000000
17.230541 -13.302510 9.000000
16.419912 -14.302510 -15.000000
15.039330 -14.302510 -15.000000
-20.999990 19.500010 12.000000
-20.999990 -19.500010 12.000000
20.999990 -19.500010 13.500000
-17.836491 16.806755 9.000000
-15.112090 4.149790 9.000000
-17.836491 -16.806709 9.000000
19.361429 18.061541 9.903800
5.140210 23.733761 9.903800
-20.999990 -19.500010 13.500000
5.164810 -23.881510 11.096200
19.516870 -18.198009 11.096200
-14.944690 13.302500 9.000000
-17.230591 13.302500 9.000000
-16.419889 14.302500 -15.000000
-15.039390 14.302500 -15.000000
-20.999990 19.500010 13.500000
-20.999990 -19.500010 13.500000
-16.262791 -20.288509 13.500000
-18.600491 -19.708111 13.500000
-20.999990 -19.500010 13.500000
-20.999990 -19.500010 12.000000
-18.600491 -19.708111 12.000000
-16.262791 -20.288509 12.000000
-7.737190 -24.711510 12.000000
-7.737190 -24.711510 13.500000
-17.836491 -16.806709 9.000000
-4.905490 -22.323410 9.000000
4.905510 -22.323410 9.000000
17.836439 -16.806709 9.000000
-5.140190 23.733761 9.903800
-19.361490 18.061541 9.903800
-5.140190 -23.733709 9.903800
-19.361490 -18.061510 9.903800
4.823110 -21.828711 15.000000
5.152510 -23.807610 15.000000
19.439150 -18.129709 15.000000
19.439150 18.129770 15.000000
5.152510 23.807659 15.000000
-5.152490 23.807659 15.000000
-19.439190 18.129770 15.000000
-19.439190 -18.129709 15.000000
-18.353390 -18.223909 15.000000
-17.285690 -16.428310 15.000000
-14.613490 -4.191410 15.000000
-17.285690 16.428322 15.000000
-4.823190 21.828720 15.000000
4.823110 21.828720 15.000000
17.285622 16.428322 15.000000
14.613430 -4.191410 15.000000
17.285622 -16.428310 15.000000
-17.230591 13.302500 9.000000
-17.230591 -13.302510 9.000000
-15.112090 4.149790 9.000000
-19.439190 18.129770 15.000000
-5.152490 23.807659 15.000000
5.152510 23.807659 15.000000
19.439150 18.129770 15.000000
0.000010 -0.000010 15.000000
0.000010 -2.640010 15.000000
-2.639990 -2.640010 15.000000
-2.639990 -0.000010 15.000000
-2.639990 -0.000010 15.000000
-2.639990 -2.640010 15.000000
0.000010 -2.640010 15.000000
0.000010 -0.000010 15.000000
2.640010 -2.640010 15.000000
2.640010 -5.280010 15.000000
5.280010 -5.280010 15.000000
5.280010 -2.640010 15.000000
-2.639990 2.639990 15.000000
-2.639990 -0.000010 15.000000
0.000010 -0.000010 15.000000
0.000010 2.639990 15.000000
0.000010 10.560010 15.000000
0.000010 7.920010 15.000000
-2.639990 7.920010 15.000000
-2.639990 10.560010 15.000000
0.000010 -5.280010 15.000000
0.000010 -7.920010 15.000000
-2.639990 -7.920010 15.000000
-2.639990 -5.280010 15.000000
2.640010 -7.920010 15.000000
2.640010 -10.560010 15.000000
5.280010 -10.560010 15.000000
5.280010 -7.920010 15.000000
2.640010 7.920010 15.000000
2.640010 5.279990 15.000000
5.280010 5.279990 15.000000
5.280010 7.920010 15.000000
2.640010 5.279990 15.000000
2.640010 2.639990 15.000000
5.280010 2.639990 15.000000
5.280010 5.279990 15.000000
5.280010 -0.000010 15.000000
5.280010 -2.640010 15.000000
2.640010 -2.640010 15.000000
2.640010 -0.000010 15.000000
5.280010 10.560010 15.000000
5.280010 7.920010 15.000000
2.640010 7.920010 15.000000
2.640010 10.560010 15.000000
7.919990 -5.280010 15.000000
7.919990 -7.920010 15.000000
10.559990 -7.920010 15.000000
10.559990 -5.280010 15.000000
7.919990 2.639990 15.000000
7.919990 -0.000010 15.000000
10.559990 -0.000010 15.000000
10.559990 2.639990 15.000000
7.919990 5.279990 15.000000
7.919990 2.639990 15.000000
10.559990 2.639990 15.000000
10.559990 5.279990 15.000000
7.919990 -0.000010 15.000000
7.919990 -2.640010 15.000000
10.559990 -2.640010 15.000000
10.559990 -0.000010 15.000000
10.559990 -0.000010 15.000000
10.559990 -2.640010 15.000000
7.919990 -2.640010 15.000000
7.919990 -0.000010 15.000000
-5.279990 7.920010 15.000000
-5.279990 5.279990 15.000000
-2.639990 5.279990 15.000000
-2.639990 7.920010 15.000000
-2.639990 7.920010 15.000000
-2.639990 5.279990 15.000000
-5.279990 5.279990 15.000000
-5.279990 7.920010 15.000000
5.280010 5.279990 15.000000
5.280010 2.639990 15.000000
7.919990 2.639990 15.000000
7.919990 5.279990 15.000000
-5.279990 10.560010 15.000000
-5.279990 7.920010 15.000000
-2.639990 7.920010 15.000000
-2.639990 10.560010 15.000000
-5.279990 5.279990 15.000000
-5.279990 2.639990 15.000000
-2.639990 2.639990 15.000000
-2.639990 5.279990 15.000000
-10.559990 -0.000010 15.000000
-10.559990 -2.640010 15.000000
-7.919990 -2.640010 15.000000
-7.919990 -0.000010 15.000000
5.280010 -5.280010 15.000000
5.280010 -7.920010 15.000000
7.919990 -7.920010 15.000000
7.919990 -5.280010 15.000000
-5.279990 -5.280010 15.000000
-5.279990 -7.920010 15.000000
-2.639990 -7.920010 15.000000
-2.639990 -5.280010 15.000000
-7.919990 -2.640010 15.000000
-7.919990 -5.280010 15.000000
-5.279990 -5.280010 15.000000
-5.279990 -2.640010 15.000000
-7.919990 2.639990 15.000000
-7.919990 -0.000010 15.000000
-5.279990 -0.000010 15.000000
-5.279990 2.639990 15.000000
10.559990 -0.000010 15.000000
10.559990 -2.640010 15.000000
11.164990 -2.640010 15.000000
11.164990 -0.000010 15.000000
5.280010 -7.920010 15.000000
5.280010 -10.560010 15.000000
7.919990 -10.560010 15.000000
7.919990 -7.920010 15.000000
-7.919990 7.920010 15.000000
-7.919990 5.279990 15.000000
-5.279990 5.279990 15.000000
-5.279990 7.920010 15.000000
-7.919990 10.560010 15.000000
-7.919990 7.920010 15.000000
-5.279990 7.920010 15.000000
-5.279990 10.560010 15.000000
-5.279990 10.560010 15.000000
-5.279990 7.920010 15.000000
-7.919990 7.920010 15.000000
-7.919990 10.560010 15.000000
-2.639990 -7.920010 15.000000
-2.639990 -10.560010 15.000000
0.000010 -10.560010 15.000000
0.000010 -7.920010 15.000000
-2.639990 5.279990 15.000000
-2.639990 2.639990 15.000000
0.000010 2.639990 15.000000
0.000010 5.279990 15.000000
7.919990 7.920010 15.000000
7.919990 5.279990 15.000000
5.280010 5.279990 15.000000
5.280010 7.920010 15.000000
-5.279990 2.639990 15.000000
-5.279990 -0.000010 15.000000
-2.639990 -0.000010 15.000000
-2.639990 2.639990 15.000000
-2.639990 -7.920010 15.000000
-2.639990 -10.560010 15.000000
-5.279990 -10.560010 15.000000
-5.279990 -7.920010 15.000000
0.000010 -7.920010 15.000000
0.000010 -10.560010 15.000000
2.640010 -10.560010 15.000000
2.640010 -7.920010 15.000000
2.640010 -7.920010 15.000000
2.640010 -10.560010 15.000000
0.000010 -10.560010 15.000000
0.000010 -7.920010 15.000000
-10.559990 -2.640010 15.000000
-10.559990 -5.280010 15.000000
-7.919990 -5.280010 15.000000
-7.919990 -2.640010 15.000000
-7.919990 -2.640010 15.000000
-7.919990 -5.280010 15.000000
-10.559990 -5.280010 15.000000
-10.559990 -2.640010 15.000000
19.516870 -18.198009 11.096200
19.361429 -18.061510 9.903800
5.280010 -2.640010 15.000000
5.280010 -5.280010 15.000000
7.919990 -5.280010 15.000000
7.919990 -2.640010 15.000000
-10.559990 7.920010 15.000000
-10.559990 5.279990 15.000000
-7.919990 5.279990 15.000000
-7.919990 7.920010 15.000000
5.280010 7.920010 15.000000
5.280010 5.279990 15.000000
7.919990 5.279990 15.000000
7.919990 7.920010 15.000000
7.919990 2.639990 15.000000
7.919990 -0.000010 15.000000
5.280010 -0.000010 15.000000
5.280010 2.639990 15.000000
-7.919990 7.920010 15.000000
-7.919990 5.279990 15.000000
-10.559990 5.279990 15.000000
-10.559990 7.920010 15.000000
10.559990 10.560010 15.000000
10.559990 7.920010 15.000000
11.164990 7.920010 15.000000
11.164990 11.110010 15.000000
2.640010 7.920010 15.000000
2.640010 5.279990 15.000000
0.000010 5.279990 15.000000
0.000010 7.920010 15.000000
2.640010 -10.560010 15.000000
2.640010 -11.165010 15.000000
5.280010 -11.165010 15.000000
5.280010 -10.560010 15.000000
-11.109990 2.639990 15.000000
-11.109990 -0.000010 15.000000
-10.559990 -0.000010 15.000000
-10.559990 2.639990 15.000000
-11.109990 5.279990 15.000000
-11.109990 2.639990 15.000000
-10.559990 2.639990 15.000000
-10.559990 5.279990 15.000000
-7.919990 11.110010 15.000000
-7.919990 10.560010 15.000000
-5.279990 10.560010 15.000000
-5.279990 11.110010 15.000000
-2.639990 -10.560010 15.000000
-2.639990 -11.165010 15.000000
0.000010 -11.165010 15.000000
0.000010 -10.560010 15.000000
-11.109990 -2.640010 15.000000
-11.109990 -5.280010 15.000000
-10.559990 -5.280010 15.000000
-10.559990 -2.640010 15.000000
-20.999990 19.500010 12.000000
-20.999990 19.500010 13.500000
10.559990 7.920010 15.000000
10.559990 5.279990 15.000000
11.164990 5.279990 15.000000
11.164990 7.920010 15.000000
-5.279990 -10.560010 15.000000
-5.279990 -11.165010 15.000000
-2.639990 -11.165010 15.000000
-2.639990 -10.560010 15.000000
-5.279990 5.279990 15.000000
-5.279990 2.639990 15.000000
-7.919990 2.639990 15.000000
-7.919990 5.279990 15.000000
10.559990 2.639990 15.000000
10.559990 -0.000010 15.000000
11.164990 -0.000010 15.000000
11.164990 2.639990 15.000000
-11.109990 -5.280010 15.000000
-11.109990 -7.920010 15.000000
-10.559990 -7.920010 15.000000
-10.559990 -5.280010 15.000000
0.000010 11.110010 15.000000
0.000010 10.560010 15.000000
2.640010 10.560010 15.000000
2.640010 11.110010 15.000000
-11.109990 -0.000010 15.000000
-11.109990 -2.640010 15.000000
-10.559990 -2.640010 15.000000
-10.559990 -0.000010 15.000000
7.919990 11.110010 15.000000
7.919990 10.560010 15.000000
10.559990 10.560010 15.000000
11.164990 11.110010 15.000000
20.999990 19.500010 12.000000
20.999990 19.500010 13.500000
4 0 1 2 3
4 4 5 6 7
4 8 9 10 11
4 12 13 14 15
4 16 17 18 19
4 20 21 22 23
4 24 25 26 27
4 28 29 30 31
8 32 33 34 35 36 37 38 39
4 40 41 42 43
4 44 45 46 47
4 48 49 50 51
4 52 53 54 55
4 56 57 58 59
4 60 61 62 63
4 64 65 66 67
4 68 69 70 71
4 72 73 74 75
4 76 77 78 79
4 80 81 82 83
8 84 85 86 87 88 89 90 91
4 92 93 94 95
4 96 97 98 99
4 100 101 102 103
4 104 105 106 107
4 108 109 110 111
4 112 113 114 115
4 116 117 118 119
4 120 121 122 123
4 124 125 126 127
4 128 129 130 131
4 132 133 134 135
4 136 137 138 139
4 140 141 142 143
10 144 145 146 147 148 149 150 151 152 153
8 154 155 156 157 158 159 160 161
4 162 163 164 165
4 166 167 168 169
4 170 171 172 173
4 174 175 176 177
8 178 179 180 181 182 183 184 185
7 107 186 187 188 189 190 104
4 191 192 193 194
4 195 196 197 198
12 199 200 201 202 203 204 205 206 207 208 209 210
9 211 212 213 214 215 216 217 218 219
8 220 221 222 223 91 90 89 88
3 217 216 224
3 217 224 225
3 226 212 211
4 227 228 229 230
4 231 232 233 234
4 235 236 237 238
4 239 240 241 242
4 243 244 245 246
8 161 160 159 158 247 248 249 250
8 251 252 253 254 255 256 257 258
4 259 260 261 262
4 263 264 265 266
4 267 268 123 122
4 269 270 271 272
4 273 274 275 276
4 277 278 279 280
4 281 282 283 284
4 285 286 287 288
4 289 290 121 120
4 291 292 293 294
4 295 296 297 298
4 299 300 301 302
4 303 304 305 306
4 307 308 309 310
4 311 312 313 314
4 84 315 316 85
4 317 318 319 320
4 83 82 171 170
4 321 322 323 324
4 325 326 327 328
4 329 330 331 332
6 87 86 85 316 333 334
4 335 336 337 338
4 339 340 341 342
4 343 344 345 346
4 19 18 347 348
4 349 350 351 352
4 353 354 355 356
4 357 358 359 360
4 177 176 194 193
4 361 362 175 174
4 363 364 365 366
4 367 368 369 370
4 371 372 373 374
3 375 187 186
4 376 377 378 379
4 380 381 382 383
7 384 385 205 204 201 200 386
5 387 388 389 390 391
4 389 47 46 390
32 392 393 394 395 396 397 398 399 400 401 402 403 404 405 406 407 408 409 410 411 412 413 414 415 416 417 418 419 420 421 422 423
4 424 425 426 427
4 428 429 430 431
4 432 433 434 435
4 320 319 436 437
4 438 439 440 441
4 442 443 444 445
4 446 447 448 449
4 450 451 452 453
5 454 212 226 455 456
4 457 458 459 460
3 190 189 461
4 462 463 464 465
4 466 467 468 469
4 470 471 472 473
4 474 475 476 477
4 478 479 480 481
4 482 483 484 485
4 486 487 488 489
4 490 491 492 493
4 494 495 496 497
4 498 499 500 501
4 502 503 504 505
4 506 507 508 509
4 510 511 512 513
6 514 515 516 517 518 519
4 520 521 522 523
4 524 525 526 527
4 528 529 530 531
4 532 533 534 535
4 536 537 538 539
4 540 541 542 543
4 544 545 546 547
4 548 549 550 551
4 552 553 554 555
4 556 557 558 559
4 560 561 562 563
4 564 565 566 567
4 568 569 570 571
4 572 573 574 575
6 251 258 434 433 576 252
4 577 578 579 580
4 581 582 583 584
4 585 586 587 588
8 180 494 497 589 590 183 182 181
4 591 592 593 594
4 432 595 576 433
4 596 597 598 599
4 600 601 602 603
4 0 604 605 1
4 606 607 608 609
4 610 611 612 613
4 436 614 615 437
8 616 79 78 617 618 619 620 621
4 622 623 624 625
4 626 627 628 629
22 629 630 631 632 633 634 635 636 637 638 628 627 639 640 641 642 643 644 645 646 647 626
4 648 519 518 649
4 348 347 650 651
4 652 653 654 655
4 656 657 658 659
4 435 434 660 661
4 363 366 362 361
4 662 663 664 665
4 666 667 668 669
4 316 670 671 333
4 43 42 50 49
4 364 41 40 365
4 672 673 674 675
4 676 677 678 679
8 38 37 36 515 514 519 648 39
4 162 165 680 681
4 682 683 684 685
4 686 687 688 689
4 690 427 426 691
4 692 693 694 695
4 688 687 268 267
4 169 168 164 163
4 696 697 698 699
4 700 701 702 703
4 704 690 691 705
4 706 334 333 671
4 307 376 379 308
6 187 707 708 709 189 188
4 710 250 249 711
4 712 670 316 315
6 589 497 496 713 714 590
4 715 716 717 718
4 80 719 720 81
10 721 722 723 724 725 726 727 605 604 728
8 616 621 620 619 729 730 731 732
4 258 257 660 434
6 733 711 249 248 247 734
6 735 736 618 617 78 77
21 737 460 459 738 739 740 741 742 743 744 745 458 457 746 747 748 749 750 751 752 753
5 754 225 224 755 756
8 254 253 757 758 759 760 256 255
4 761 762 763 764
4 765 766 767 768
4 769 770 771 772
4 773 774 775 776
4 777 778 779 780
4 781 782 783 784
4 785 786 787 788
4 789 790 791 792
4 793 794 795 796
4 797 798 799 800
4 801 802 803 804
4 805 806 807 808
4 809 810 811 812
4 813 814 815 816
4 817 818 819 820
4 821 822 823 824
4 825 826 827 828
4 829 830 831 832
4 833 834 835 836
4 837 838 839 840
4 841 842 843 844
4 845 846 847 848
4 849 850 851 852
4 853 854 855 856
4 857 858 859 860
4 861 862 863 864
4 865 866 867 868
4 869 870 871 872
4 873 874 875 876
4 877 878 879 880
4 881 882 883 884
4 885 886 887 888
4 889 890 891 892
4 893 894 895 896
4 897 898 899 900
4 901 902 903 904
4 905 906 907 908
4 909 910 911 912
4 913 914 915 916
4 917 918 919 920
4 921 922 290 289
4 923 924 925 926
4 927 928 929 930
4 931 932 933 934
4 935 936 937 938
4 939 940 941 942
4 943 944 945 946
4 947 948 949 950
4 951 952 953 954
4 955 956 957 958
4 959 960 961 962
4 963 964 965 966
4 967 968 969 970
4 971 972 973 974
4 442 445 975 976
4 977 978 979 980
4 981 982 983 984
4 985 986 987 988
4 989 990 991 992
4 993 994 995 996
4 997 998 999 1000
4 1001 1002 1003 1004
4 1005 1006 1007 1008
4 1009 444 443 1010
