ply
format ascii 1.0
comment Created by Blender 2.82 (sub 7) - www.blender.org, source file: ''
element vertex 150
property float x
property float y
property float z
element face 38
property list uchar uint vertex_indices
end_header
9.250000 26.250000 6.250000
9.250000 27.000000 6.250000
9.250000 27.000000 -6.250000
9.250000 26.250000 -6.250000
-9.250000 26.250000 6.250000
-10.000000 26.250000 6.250000
-10.000000 26.250000 -7.000000
10.000000 26.250000 -7.000000
10.000000 26.250000 6.250000
9.250000 26.250000 6.250000
9.250000 26.250000 -6.250000
-9.250000 26.250000 -6.250000
10.000000 -27.000000 6.250000
-10.000000 -27.000000 6.250000
-10.000000 27.000000 6.250000
10.000000 27.000000 6.250000
-10.000000 -27.000000 7.000000
10.000000 -27.000000 7.000000
10.000000 27.000000 7.000000
-10.000000 27.000000 7.000000
0.375000 -26.250000 -7.000000
-0.375000 -26.250000 -7.000000
-0.375000 26.250000 -7.000000
0.375000 26.250000 -7.000000
10.000000 27.000000 6.250000
10.000000 26.250000 6.250000
10.000000 26.250000 -7.000000
10.000000 27.000000 -7.000000
-9.250000 27.000000 6.250000
-9.250000 26.250000 6.250000
-9.250000 26.250000 -6.250000
-9.250000 27.000000 -6.250000
-10.000000 26.250000 6.250000
-10.000000 27.000000 6.250000
-10.000000 27.000000 -7.000000
-10.000000 26.250000 -7.000000
10.000000 -26.250000 6.250000
10.000000 -27.000000 6.250000
10.000000 -27.000000 -7.000000
10.000000 -26.250000 -7.000000
9.250000 -26.250000 -6.250000
9.250000 -26.250000 6.250000
10.000000 -26.250000 6.250000
10.000000 -26.250000 -7.000000
-10.000000 -26.250000 -7.000000
-10.000000 -26.250000 6.250000
-9.250000 -26.250000 6.250000
-9.250000 -26.250000 -6.250000
-9.250000 26.250000 -6.250000
9.250000 26.250000 -6.250000
9.250000 27.000000 -6.250000
-9.250000 27.000000 -6.250000
9.250000 -27.000000 6.250000
9.250000 -26.250000 6.250000
9.250000 -26.250000 -6.250000
9.250000 -27.000000 -6.250000
0.375000 -24.764099 -6.250000
0.375000 0.000000 6.250000
0.375000 -1.664400 6.250000
0.375000 -26.428600 -6.250000
-0.375000 -26.250000 -6.250000
-0.375000 26.250000 -6.250000
-0.375000 26.250000 -7.000000
-0.375000 -26.250000 -7.000000
-0.375000 -1.664400 6.250000
-0.375000 0.000000 6.250000
-0.375000 -24.764099 -6.250000
-0.375000 -26.428600 -6.250000
10.000000 27.000000 7.000000
10.000000 27.000000 6.250000
-10.000000 27.000000 6.250000
-10.000000 27.000000 7.000000
-9.250000 -27.000000 -6.250000
9.250000 -27.000000 -6.250000
9.250000 -26.250000 -6.250000
-9.250000 -26.250000 -6.250000
-0.375000 -24.764099 -6.250000
0.375000 -24.764099 -6.250000
0.375000 24.764151 -6.250000
-0.375000 24.764151 -6.250000
-10.000000 -27.000000 6.250000
-10.000000 -26.250000 6.250000
-10.000000 -26.250000 -7.000000
-10.000000 -27.000000 -7.000000
10.000000 27.000000 7.000000
10.000000 -27.000000 7.000000
10.000000 -27.000000 6.250000
10.000000 27.000000 6.250000
9.250000 27.000000 -6.250000
9.250000 27.000000 6.250000
10.000000 27.000000 6.250000
10.000000 27.000000 -7.000000
-10.000000 27.000000 -7.000000
-10.000000 27.000000 6.250000
-9.250000 27.000000 6.250000
-9.250000 27.000000 -6.250000
-9.250000 -26.250000 6.250000
-9.250000 -27.000000 6.250000
-9.250000 -27.000000 -6.250000
-9.250000 -26.250000 -6.250000
10.000000 26.250000 -7.000000
-10.000000 26.250000 -7.000000
-10.000000 27.000000 -7.000000
10.000000 27.000000 -7.000000
0.375000 26.250000 -6.250000
0.375000 26.428556 -6.250000
0.375000 1.664400 6.250000
0.375000 24.764151 -6.250000
0.375000 -26.250000 -6.250000
0.375000 -26.250000 -7.000000
0.375000 26.250000 -7.000000
-0.375000 -26.428600 -6.250000
0.375000 -26.428600 -6.250000
0.375000 -1.664400 6.250000
-0.375000 -1.664400 6.250000
-10.000000 -27.000000 7.000000
-10.000000 27.000000 7.000000
-10.000000 27.000000 6.250000
-10.000000 -27.000000 6.250000
10.000000 -27.000000 6.250000
10.000000 -27.000000 7.000000
-10.000000 -27.000000 7.000000
-10.000000 -27.000000 6.250000
-0.375000 26.428556 -6.250000
-0.375000 24.764151 -6.250000
10.000000 -27.000000 -7.000000
-10.000000 -27.000000 -7.000000
-10.000000 -26.250000 -7.000000
10.000000 -26.250000 -7.000000
-9.250000 -27.000000 6.250000
-10.000000 -27.000000 6.250000
-10.000000 -27.000000 -7.000000
10.000000 -27.000000 -7.000000
10.000000 -27.000000 6.250000
9.250000 -27.000000 6.250000
9.250000 -27.000000 -6.250000
-9.250000 -27.000000 -6.250000
0.375000 0.000000 6.250000
-0.375000 0.000000 6.250000
-0.375000 24.764151 -6.250000
0.375000 24.764151 -6.250000
0.375000 -24.764099 -6.250000
-0.375000 -24.764099 -6.250000
-0.375000 0.000000 6.250000
0.375000 0.000000 6.250000
-0.375000 1.664400 6.250000
-0.375000 1.664400 6.250000
0.375000 1.664400 6.250000
0.375000 26.428556 -6.250000
-0.375000 26.428556 -6.250000
4 0 1 2 3
8 4 5 6 7 8 9 10 11
4 12 13 14 15
4 16 17 18 19
4 20 21 22 23
4 24 25 26 27
4 28 29 30 31
4 32 33 34 35
4 36 37 38 39
8 40 41 42 43 44 45 46 47
4 48 49 50 51
4 52 53 54 55
4 56 57 58 59
4 60 61 62 63
5 64 65 66 60 67
4 68 69 70 71
4 72 73 74 75
4 76 77 78 79
4 80 81 82 83
4 84 85 86 87
8 88 89 90 91 92 93 94 95
4 96 97 98 99
4 100 101 102 103
8 104 105 106 57 107 108 109 110
3 108 107 56
3 108 56 59
4 111 112 113 114
4 115 116 117 118
4 119 120 121 122
3 60 66 61
3 61 66 123
3 123 66 124
4 125 126 127 128
8 129 130 131 132 133 134 135 136
4 137 138 139 140
4 141 142 143 144
4 124 65 145 123
4 146 147 148 149
