ply
format ascii 1.0
comment Created by Blender 2.82 (sub 7) - www.blender.org, source file: ''
element vertex 897
property float x
property float y
property float z
element face 217
property list uchar uint vertex_indices
end_header
15.595250 13.168850 13.976400
15.900950 13.168850 13.976400
15.900950 13.168850 13.582700
15.595250 13.168850 13.582700
16.259451 12.893750 13.582700
16.259451 12.893750 13.976400
16.338650 12.598450 13.976400
16.338650 12.598450 13.582700
15.177650 -12.445560 13.582700
15.177650 -12.445560 13.976400
15.330450 -12.180830 13.976400
15.330450 -12.180830 13.582700
16.043350 12.087050 13.976400
15.748050 12.007850 13.976400
15.748050 12.007850 13.582700
16.043350 12.087050 13.582700
13.779550 38.351250 12.994500
13.779550 38.376350 12.689900
-13.779450 38.376350 12.689900
-13.779450 38.351250 12.994500
15.900950 37.224850 13.976400
15.595250 37.224850 13.976400
15.595250 37.224850 13.582700
15.900950 37.224850 13.582700
-15.748050 -38.385849 13.976400
-16.043249 -38.306648 13.976400
-16.043249 -38.306648 13.582700
-15.748050 -38.385849 13.582700
-17.716551 -39.763748 -14.370100
-13.779450 -39.763748 -14.370100
-13.779450 -39.763748 12.007900
-17.716551 -39.763748 12.007900
15.177650 12.445550 13.976400
15.177650 12.445550 13.582700
15.330450 12.180850 13.582700
15.330450 12.180850 13.976400
-15.177550 12.751250 13.582700
-15.177550 12.751250 13.976400
-15.177550 12.445550 13.976400
-15.177550 12.445550 13.582700
15.177650 -12.751250 13.582700
15.177650 -12.751250 13.976400
-15.330450 -37.377651 13.976400
-15.595150 -37.224850 13.976400
-15.900850 -37.224850 13.976400
-16.165550 -37.377651 13.976400
-16.318451 -37.642448 13.976400
-16.318451 -37.948151 13.976400
-16.259451 -38.090549 13.976400
-16.043249 -38.306648 13.976400
-15.748050 -38.385849 13.976400
-15.595150 -38.365650 13.976400
-15.330450 -38.212849 13.976400
-15.177550 -37.948151 13.976400
-15.177550 -37.642448 13.976400
13.779550 -37.961849 13.361800
13.779550 -37.656250 13.369200
-13.779450 -37.656250 13.369200
-13.779450 -37.961849 13.361800
15.330450 38.212849 13.976400
15.330450 38.212849 13.582700
15.177650 37.948151 13.582700
15.177650 37.948151 13.976400
13.779550 38.245850 12.413500
13.779550 37.994549 12.239300
-13.779450 37.994549 12.239300
-13.779450 38.245850 12.413500
15.452750 -38.306648 13.976400
15.330450 -38.212849 13.976400
15.330450 -38.212849 13.582700
15.452750 -38.306648 13.582700
-13.779450 41.338551 -14.370100
-13.779450 39.763748 -14.370100
-17.716551 39.763748 -14.370100
-17.716551 41.338551 -14.370100
-13.779450 -41.338551 -14.370100
-17.716551 -41.338551 -14.370100
-17.716551 -41.338551 13.582700
-13.779450 -41.338551 13.582700
16.338650 -12.598410 13.976400
16.259451 -12.893680 13.976400
16.259451 -12.893680 13.582700
16.338650 -12.598410 13.582700
-15.236550 12.303150 13.582700
-15.236550 12.303150 13.976400
-15.452750 12.087050 13.976400
-15.452750 12.087050 13.582700
15.748050 -12.007860 13.976400
15.900950 -12.027980 13.976400
15.900950 -12.027980 13.582700
15.748050 -12.007860 13.582700
13.779550 -37.204849 12.809500
13.779550 -37.276852 12.512400
-13.779450 -37.276852 12.512400
-13.779450 -37.204849 12.809500
-15.900850 -37.224850 13.976400
-15.595150 -37.224850 13.976400
-15.595150 -37.224850 13.582700
-15.900850 -37.224850 13.582700
15.177650 -37.948151 13.582700
15.177650 -37.948151 13.976400
15.177650 -37.642448 13.976400
15.177650 -37.642448 13.582700
-13.779450 38.047451 13.329300
-13.779450 37.746651 13.383800
-13.779450 37.458950 13.280700
-13.779450 37.261250 13.047400
-13.779450 37.206749 12.746700
-13.779450 37.239349 12.596000
-13.779450 37.413448 12.344700
-13.779450 37.689949 12.214200
-13.779450 37.994549 12.239300
-13.779450 38.245850 12.413500
-13.779450 38.376350 12.689900
-13.779450 38.351250 12.994500
-13.779450 38.177052 13.245800
-15.177550 -12.751250 13.976400
-15.177550 -12.445560 13.976400
-15.236550 -12.303130 13.976400
-15.452750 -12.086980 13.976400
-15.595150 -12.027980 13.976400
-15.900850 -12.027980 13.976400
-16.043249 -12.086980 13.976400
-16.259451 -12.303130 13.976400
-16.318451 -12.445560 13.976400
-16.318451 -12.751250 13.976400
-16.259451 -12.893680 13.976400
-16.043249 -13.109840 13.976400
-15.900850 -13.168840 13.976400
-15.595150 -13.168840 13.976400
-15.452750 -13.109840 13.976400
-15.236550 -12.893680 13.976400
17.716551 -41.338551 13.582700
13.779550 -41.338551 13.582700
13.779550 -41.338551 -14.370100
17.716551 -41.338551 -14.370100
-16.165550 -37.377651 13.976400
-16.165550 -37.377651 13.582700
16.165649 -37.377651 13.582700
16.165649 -37.377651 13.976400
16.259451 -37.499950 13.976400
16.259451 -37.499950 13.582700
13.779550 37.261250 13.047400
-13.779450 37.261250 13.047400
-13.779450 37.206749 12.746700
13.779550 37.206749 12.746700
13.779550 -37.291050 13.102800
13.779550 -37.204849 12.809500
13.779550 -37.276852 12.512400
13.779550 -37.487751 12.291100
13.779550 -37.628750 12.228700
13.779550 -37.934349 12.221300
13.779550 -38.078152 12.276800
13.779550 -38.299450 12.487700
13.779550 -38.361851 12.628700
13.779550 -38.369251 12.934300
13.779550 -38.313648 13.078100
13.779550 -38.102749 13.299400
13.779550 -37.961849 13.361800
13.779550 -37.656250 13.369200
13.779550 -37.512451 13.313700
-17.716551 41.338551 -14.370100
-13.779450 41.338551 -14.370100
-13.779450 41.338551 13.582700
-17.716551 41.338551 13.582700
-16.259451 37.500050 13.976400
-16.259451 37.500050 13.582700
-16.043249 37.283852 13.582700
-16.043249 37.283852 13.976400
17.716551 39.763748 12.007900
13.779550 39.763748 12.007900
13.779550 39.763748 -14.370100
17.716551 39.763748 -14.370100
17.716551 39.763748 -14.370100
13.779550 39.763748 -14.370100
13.779550 39.763748 12.007900
17.716551 39.763748 12.007900
17.716551 41.338551 -14.370100
17.716551 39.763748 -14.370100
13.779550 39.763748 -14.370100
13.779550 41.338551 -14.370100
13.779550 41.338551 13.582700
17.716551 41.338551 13.582700
17.716551 41.338551 -14.370100
13.779550 41.338551 -14.370100
17.716551 -41.338551 13.582700
17.716551 41.338551 13.582700
13.779550 41.338551 13.582700
13.779550 -41.338551 13.582700
-13.779450 -38.313648 13.078100
-13.779450 -38.102749 13.299400
-13.779450 -37.961849 13.361800
-13.779450 -37.656250 13.369200
-13.779450 -37.512451 13.313700
-13.779450 -37.291050 13.102800
-13.779450 -37.204849 12.809500
-13.779450 -37.276852 12.512400
-13.779450 -37.487751 12.291100
-13.779450 -37.628750 12.228700
-13.779450 -37.934349 12.221300
-13.779450 -38.078152 12.276800
-13.779450 -38.299450 12.487700
-13.779450 -38.361851 12.628700
-13.779450 -38.369251 12.934300
15.330450 37.377750 13.582700
15.330450 37.377750 13.976400
15.177650 37.642448 13.976400
15.177650 37.642448 13.582700
16.259451 12.893750 13.582700
16.338650 12.598450 13.582700
16.259451 12.303150 13.582700
16.043350 12.087050 13.582700
15.748050 12.007850 13.582700
15.452750 12.087050 13.582700
15.330450 12.180850 13.582700
15.177650 12.445550 13.582700
15.177650 12.751250 13.582700
15.330450 13.016050 13.582700
15.595250 13.168850 13.582700
15.900950 13.168850 13.582700
16.165649 13.016050 13.582700
-15.177550 37.948151 13.582700
-15.177550 37.948151 13.976400
-15.177550 37.642448 13.976400
-15.177550 37.642448 13.582700
-16.043249 38.306751 13.582700
-16.259451 38.090549 13.582700
-16.259451 38.090549 13.976400
-16.043249 38.306751 13.976400
15.452750 12.087050 13.976400
15.452750 12.087050 13.582700
15.330450 13.016050 13.976400
15.330450 13.016050 13.582700
13.779550 38.047451 13.329300
13.779550 38.177052 13.245800
-13.779450 38.177052 13.245800
-13.779450 38.047451 13.329300
13.779550 -37.628750 12.228700
13.779550 -37.934349 12.221300
-13.779450 -37.934349 12.221300
-13.779450 -37.628750 12.228700
17.716551 -41.338551 13.976400
-17.716551 -41.338551 13.976400
-17.716551 -41.338551 14.370100
17.716551 -41.338551 14.370100
13.779550 -38.078152 12.276800
13.779550 -38.299450 12.487700
-13.779450 -38.299450 12.487700
-13.779450 -38.078152 12.276800
13.779550 -38.313648 13.078100
-13.779450 -38.313648 13.078100
-13.779450 -38.369251 12.934300
13.779550 -38.369251 12.934300
17.716551 39.763748 12.007900
17.716551 -39.763748 12.007900
13.779550 -39.763748 12.007900
13.779550 39.763748 12.007900
-15.595150 38.365749 13.976400
-15.452750 38.306751 13.976400
-15.452750 38.306751 13.582700
-15.595150 38.365749 13.582700
13.779550 -38.102749 13.299400
-13.779450 -38.102749 13.299400
-16.043249 12.087050 13.976400
-16.259451 12.303150 13.976400
-16.259451 12.303150 13.582700
-16.043249 12.087050 13.582700
13.779550 -38.299450 12.487700
13.779550 -38.078152 12.276800
13.779550 -37.934349 12.221300
13.779550 -37.628750 12.228700
13.779550 -37.487751 12.291100
13.779550 -37.276852 12.512400
13.779550 -37.204849 12.809500
13.779550 -37.291050 13.102800
13.779550 -37.512451 13.313700
13.779550 -37.656250 13.369200
13.779550 -37.961849 13.361800
13.779550 -38.102749 13.299400
13.779550 -38.313648 13.078100
13.779550 -38.369251 12.934300
13.779550 -38.361851 12.628700
15.330450 37.377750 13.582700
15.177650 37.642448 13.582700
15.177650 37.948151 13.582700
15.330450 38.212849 13.582700
15.595250 38.365749 13.582700
15.900950 38.365749 13.582700
16.043350 38.306751 13.582700
16.259451 38.090549 13.582700
16.338650 37.795250 13.582700
16.259451 37.500050 13.582700
16.043350 37.283852 13.582700
15.900950 37.224850 13.582700
15.595250 37.224850 13.582700
-13.779450 37.239349 12.596000
13.779550 37.239349 12.596000
15.900950 38.365749 13.976400
16.043350 38.306751 13.976400
16.043350 38.306751 13.582700
15.900950 38.365749 13.582700
16.338650 -37.795250 13.582700
16.338650 -37.795250 13.976400
16.259451 -38.090549 13.976400
16.259451 -38.090549 13.582700
13.779550 -39.763748 -14.370100
13.779550 -39.763748 12.007900
13.779550 39.763748 12.007900
13.779550 38.376350 12.689900
13.779550 38.245850 12.413500
13.779550 37.994549 12.239300
13.779550 37.689949 12.214200
13.779550 37.413448 12.344700
13.779550 37.239349 12.596000
13.779550 37.214249 12.900600
13.779550 -37.204849 12.809500
13.779550 -37.276852 12.512400
13.779550 -37.487751 12.291100
13.779550 -37.628750 12.228700
13.779550 -37.934349 12.221300
13.779550 -38.078152 12.276800
13.779550 -38.299450 12.487700
13.779550 -38.361851 12.628700
13.779550 -38.369251 12.934300
13.779550 -38.313648 13.078100
13.779550 -38.102749 13.299400
13.779550 -37.961849 13.361800
13.779550 -37.656250 13.369200
13.779550 -37.387852 13.222800
13.779550 41.338551 13.582700
13.779550 -41.338551 13.582700
13.779550 -41.338551 -14.370100
-15.330450 -37.377651 13.582700
-15.330450 -37.377651 13.976400
-15.177550 -37.642448 13.976400
-15.177550 -37.642448 13.582700
-16.318451 12.751250 13.582700
-16.318451 12.751250 13.976400
-16.165550 13.016050 13.976400
-16.165550 13.016050 13.582700
16.259451 -38.090549 13.582700
16.043350 -38.306648 13.582700
15.748050 -38.385849 13.582700
15.452750 -38.306648 13.582700
15.330450 -38.212849 13.582700
15.177650 -37.948151 13.582700
15.177650 -37.642448 13.582700
15.330450 -37.377651 13.582700
15.595250 -37.224850 13.582700
15.900950 -37.224850 13.582700
16.165649 -37.377651 13.582700
16.259451 -37.499950 13.582700
16.338650 -37.795250 13.582700
13.779550 -37.204849 12.809500
13.779550 37.543152 12.261300
13.779550 37.689949 12.214200
13.779550 39.763748 12.007900
13.779550 -39.763748 12.007900
13.779550 -38.202648 12.367700
13.779550 -37.934349 12.221300
13.779550 -37.628750 12.228700
13.779550 -37.487751 12.291100
13.779550 -37.276852 12.512400
13.779550 -37.291050 13.102800
13.779550 -37.512451 13.313700
13.779550 -37.656250 13.369200
13.779550 -37.961849 13.361800
13.779550 -38.102749 13.299400
13.779550 -38.313648 13.078100
13.779550 -38.369251 12.934300
13.779550 -38.361851 12.628700
13.779550 -39.763748 -14.370100
13.779550 -41.338551 -14.370100
13.779550 -41.338551 13.582700
13.779550 41.338551 13.582700
13.779550 41.338551 -14.370100
13.779550 39.763748 -14.370100
13.779550 37.994549 12.239300
13.779550 38.245850 12.413500
13.779550 38.376350 12.689900
13.779550 38.351250 12.994500
13.779550 38.177052 13.245800
13.779550 38.047451 13.329300
13.779550 37.746651 13.383800
13.779550 37.458950 13.280700
13.779550 37.261250 13.047400
13.779550 37.206749 12.746700
13.779550 37.239349 12.596000
13.779550 37.413448 12.344700
-13.779450 39.763748 -14.370100
-17.716551 39.763748 -14.370100
-17.716551 39.763748 12.007900
-13.779450 39.763748 12.007900
-13.779450 -41.338551 13.582700
-17.716551 -41.338551 13.582700
-17.716551 -41.338551 -14.370100
-13.779450 -41.338551 -14.370100
-13.779450 -39.763748 -14.370100
-13.779450 -39.763748 12.007900
-13.779450 39.763748 12.007900
-13.779450 39.763748 -14.370100
-13.779450 41.338551 -14.370100
-13.779450 41.338551 13.582700
-13.779450 -41.338551 13.582700
-13.779450 -41.338551 -14.370100
-15.900850 -12.027980 13.976400
-15.595150 -12.027980 13.976400
-15.595150 -12.027980 13.582700
-15.900850 -12.027980 13.582700
-15.177550 -12.445560 13.582700
-15.177550 -12.445560 13.976400
-15.177550 -12.751250 13.976400
-15.177550 -12.751250 13.582700
15.595250 -37.224850 13.976400
15.595250 -37.224850 13.582700
15.330450 -37.377651 13.582700
15.330450 -37.377651 13.976400
-16.043249 -12.086980 13.976400
-16.043249 -12.086980 13.582700
13.779550 37.413448 12.344700
13.779550 37.239349 12.596000
13.779550 37.206749 12.746700
13.779550 37.261250 13.047400
13.779550 37.458950 13.280700
13.779550 37.746651 13.383800
13.779550 38.047451 13.329300
13.779550 38.177052 13.245800
13.779550 38.351250 12.994500
13.779550 38.376350 12.689900
13.779550 38.245850 12.413500
13.779550 37.994549 12.239300
13.779550 37.689949 12.214200
16.338650 37.795250 13.976400
16.259451 37.500050 13.976400
16.259451 37.500050 13.582700
16.338650 37.795250 13.582700
15.177650 12.751250 13.976400
15.177650 12.751250 13.582700
16.165649 13.016050 13.582700
16.165649 13.016050 13.976400
-17.716551 41.338551 13.976400
17.716551 41.338551 13.976400
17.716551 41.338551 14.370100
-17.716551 41.338551 14.370100
-16.318451 37.642448 13.582700
-16.318451 37.642448 13.976400
-16.318451 37.948151 13.976400
-16.318451 37.948151 13.582700
-15.330450 13.016050 13.976400
-15.330450 13.016050 13.582700
17.716551 -41.338551 14.370100
17.716551 41.338551 14.370100
-17.716551 41.338551 14.370100
-17.716551 -41.338551 14.370100
-15.236550 -12.893680 13.976400
-15.452750 -13.109840 13.976400
-15.452750 -13.109840 13.582700
-15.236550 -12.893680 13.582700
-16.259451 -12.303130 13.976400
-16.259451 -12.303130 13.582700
-16.318451 -12.445560 13.582700
-16.318451 -12.445560 13.976400
-17.716551 41.338551 13.976400
-17.716551 -41.338551 13.976400
17.716551 -41.338551 13.976400
17.716551 41.338551 13.976400
13.779550 -39.763748 -14.370100
17.716551 -39.763748 -14.370100
17.716551 -39.763748 12.007900
13.779550 -39.763748 12.007900
17.716551 41.338551 13.976400
17.716551 41.338551 14.370100
17.716551 -41.338551 14.370100
17.716551 -41.338551 13.976400
16.259451 -12.303130 13.582700
16.338650 -12.598410 13.582700
16.259451 -12.893680 13.582700
16.165649 -13.015990 13.582700
15.900950 -13.168840 13.582700
15.748050 -13.188960 13.582700
15.452750 -13.109840 13.582700
15.330450 -13.015990 13.582700
15.177650 -12.751250 13.582700
15.177650 -12.445560 13.582700
15.330450 -12.180830 13.582700
15.452750 -12.086980 13.582700
15.748050 -12.007860 13.582700
15.900950 -12.027980 13.582700
16.165649 -12.180830 13.582700
13.779550 -39.763748 12.007900
17.716551 -39.763748 12.007900
17.716551 -39.763748 -14.370100
13.779550 -39.763748 -14.370100
15.452750 -12.086980 13.976400
15.452750 -12.086980 13.582700
17.716551 -41.338551 13.976400
17.716551 -41.338551 14.370100
17.716551 41.338551 14.370100
17.716551 41.338551 13.976400
13.779550 37.746651 13.383800
-13.779450 37.746651 13.383800
-16.165550 -37.377651 13.582700
-15.900850 -37.224850 13.582700
-15.595150 -37.224850 13.582700
-15.330450 -37.377651 13.582700
-15.177550 -37.642448 13.582700
-15.177550 -37.948151 13.582700
-15.330450 -38.212849 13.582700
-15.595150 -38.365650 13.582700
-15.748050 -38.385849 13.582700
-16.043249 -38.306648 13.582700
-16.259451 -38.090549 13.582700
-16.318451 -37.948151 13.582700
-16.318451 -37.642448 13.582700
13.779550 -37.487751 12.291100
-13.779450 -37.487751 12.291100
16.259451 -12.303130 13.976400
16.165649 -12.180830 13.976400
15.900950 -12.027980 13.976400
15.748050 -12.007860 13.976400
15.452750 -12.086980 13.976400
15.330450 -12.180830 13.976400
15.177650 -12.445560 13.976400
15.177650 -12.751250 13.976400
15.330450 -13.015990 13.976400
15.452750 -13.109840 13.976400
15.748050 -13.188960 13.976400
15.900950 -13.168840 13.976400
16.165649 -13.015990 13.976400
16.259451 -12.893680 13.976400
16.338650 -12.598410 13.976400
16.165649 -12.180830 13.582700
16.165649 -12.180830 13.976400
16.259451 -12.303130 13.976400
16.259451 -12.303130 13.582700
15.452750 -13.109840 13.976400
15.330450 -13.015990 13.976400
15.330450 -13.015990 13.582700
15.452750 -13.109840 13.582700
-13.779450 -37.291050 13.102800
13.779550 -37.291050 13.102800
17.716551 -39.763748 -14.370100
17.716551 -41.338551 -14.370100
13.779550 -41.338551 -14.370100
13.779550 -39.763748 -14.370100
-15.595150 -38.365650 13.976400
-15.595150 -38.365650 13.582700
15.595250 38.365749 13.976400
15.595250 38.365749 13.582700
15.330450 38.212849 13.976400
15.177650 37.948151 13.976400
15.177650 37.642448 13.976400
15.330450 37.377750 13.976400
15.595250 37.224850 13.976400
15.900950 37.224850 13.976400
16.043350 37.283852 13.976400
16.259451 37.500050 13.976400
16.338650 37.795250 13.976400
16.259451 38.090549 13.976400
16.043350 38.306751 13.976400
15.900950 38.365749 13.976400
15.595250 38.365749 13.976400
13.779550 37.261250 13.047400
13.779550 37.458950 13.280700
13.779550 37.746651 13.383800
13.779550 38.047451 13.329300
13.779550 38.177052 13.245800
13.779550 38.351250 12.994500
13.779550 39.763748 -14.370100
13.779550 41.338551 -14.370100
13.779550 -37.291050 13.102800
13.779550 -37.512451 13.313700
-13.779450 -37.512451 13.313700
15.900950 -37.224850 13.976400
15.900950 -37.224850 13.582700
16.165649 -13.015990 13.976400
15.900950 -13.168840 13.976400
15.900950 -13.168840 13.582700
16.165649 -13.015990 13.582700
13.779550 37.689949 12.214200
13.779550 37.413448 12.344700
-13.779450 37.413448 12.344700
-13.779450 37.689949 12.214200
15.330450 -37.377651 13.976400
15.177650 -37.642448 13.976400
15.177650 -37.948151 13.976400
15.330450 -38.212849 13.976400
15.452750 -38.306648 13.976400
15.748050 -38.385849 13.976400
16.043350 -38.306648 13.976400
16.259451 -38.090549 13.976400
16.338650 -37.795250 13.976400
16.259451 -37.499950 13.976400
16.165649 -37.377651 13.976400
15.900950 -37.224850 13.976400
15.595250 -37.224850 13.976400
16.259451 38.090549 13.976400
16.259451 38.090549 13.582700
-15.900850 38.365749 13.976400
-15.900850 38.365749 13.582700
-15.900850 13.168850 13.976400
-15.900850 13.168850 13.582700
-13.779450 39.763748 12.007900
-13.779450 -39.763748 12.007900
-17.716551 -39.763748 12.007900
-17.716551 39.763748 12.007900
15.748050 -38.385849 13.976400
15.748050 -38.385849 13.582700
-15.595150 13.168850 13.976400
-15.595150 13.168850 13.582700
-13.779450 -41.338551 13.582700
-13.779450 41.338551 13.582700
-17.716551 41.338551 13.582700
-17.716551 -41.338551 13.582700
-17.716551 -39.763748 12.007900
-13.779450 -39.763748 12.007900
-13.779450 -39.763748 -14.370100
-17.716551 -39.763748 -14.370100
-17.716551 39.763748 12.007900
-17.716551 -39.763748 12.007900
-13.779450 -39.763748 12.007900
-13.779450 39.763748 12.007900
13.779550 -41.338551 13.582700
13.779550 41.338551 13.582700
17.716551 41.338551 13.582700
17.716551 -41.338551 13.582700
-17.716551 -39.763748 -14.370100
-17.716551 -41.338551 -14.370100
-13.779450 -41.338551 -14.370100
-13.779450 -39.763748 -14.370100
-13.779450 39.763748 12.007900
-13.779450 -39.763748 12.007900
-13.779450 -39.763748 -14.370100
-13.779450 -41.338551 -14.370100
-13.779450 -41.338551 13.582700
-13.779450 41.338551 13.582700
-13.779450 41.338551 -14.370100
-13.779450 39.763748 -14.370100
13.779550 38.376350 12.689900
13.779550 38.351250 12.994500
13.779550 38.177052 13.245800
13.779550 38.047451 13.329300
13.779550 37.746651 13.383800
13.779550 37.458950 13.280700
13.779550 37.261250 13.047400
13.779550 37.206749 12.746700
13.779550 37.239349 12.596000
13.779550 37.413448 12.344700
13.779550 37.689949 12.214200
13.779550 37.994549 12.239300
13.779550 38.245850 12.413500
-17.716551 -39.763748 -14.370100
-17.716551 -39.763748 12.007900
-17.716551 39.763748 12.007900
-17.716551 39.763748 -14.370100
-17.716551 41.338551 -14.370100
-17.716551 41.338551 13.582700
-17.716551 -41.338551 13.582700
-17.716551 -41.338551 -14.370100
-13.779450 -39.763748 -14.370100
-13.779450 -41.338551 -14.370100
-17.716551 -41.338551 -14.370100
-17.716551 -39.763748 -14.370100
-17.716551 39.763748 12.007900
-17.716551 -39.763748 12.007900
-17.716551 -39.763748 -14.370100
-17.716551 -41.338551 -14.370100
-17.716551 -41.338551 13.582700
-17.716551 41.338551 13.582700
-17.716551 41.338551 -14.370100
-17.716551 39.763748 -14.370100
-13.779450 39.763748 12.007900
-17.716551 39.763748 12.007900
-17.716551 39.763748 -14.370100
-13.779450 39.763748 -14.370100
-17.716551 -41.338551 13.582700
-17.716551 41.338551 13.582700
-13.779450 41.338551 13.582700
-13.779450 -41.338551 13.582700
13.779550 41.338551 -14.370100
13.779550 39.763748 -14.370100
17.716551 39.763748 -14.370100
17.716551 41.338551 -14.370100
-17.716551 41.338551 13.582700
-13.779450 41.338551 13.582700
-13.779450 41.338551 -14.370100
-17.716551 41.338551 -14.370100
13.779550 41.338551 -14.370100
17.716551 41.338551 -14.370100
17.716551 41.338551 13.582700
13.779550 41.338551 13.582700
-17.716551 41.338551 -14.370100
-17.716551 39.763748 -14.370100
-13.779450 39.763748 -14.370100
-13.779450 41.338551 -14.370100
-15.177550 12.751250 13.582700
-15.177550 12.445550 13.582700
-15.236550 12.303150 13.582700
-15.452750 12.087050 13.582700
-15.748050 12.007850 13.582700
-16.043249 12.087050 13.582700
-16.259451 12.303150 13.582700
-16.318451 12.445550 13.582700
-16.318451 12.751250 13.582700
-16.165550 13.016050 13.582700
-15.900850 13.168850 13.582700
-15.595150 13.168850 13.582700
-15.330450 13.016050 13.582700
17.716551 -41.338551 -14.370100
13.779550 -41.338551 -14.370100
13.779550 -41.338551 13.582700
17.716551 -41.338551 13.582700
-16.318451 12.445550 13.976400
-16.318451 12.445550 13.582700
-15.900850 13.168850 13.976400
-16.165550 13.016050 13.976400
-16.318451 12.751250 13.976400
-16.318451 12.445550 13.976400
-16.259451 12.303150 13.976400
-16.043249 12.087050 13.976400
-15.748050 12.007850 13.976400
-15.452750 12.087050 13.976400
-15.236550 12.303150 13.976400
-15.177550 12.445550 13.976400
-15.177550 12.751250 13.976400
-15.330450 13.016050 13.976400
-15.595150 13.168850 13.976400
-15.177550 -37.948151 13.582700
-15.177550 -37.948151 13.976400
-15.330450 -38.212849 13.976400
-15.330450 -38.212849 13.582700
-16.318451 -37.642448 13.582700
-16.318451 -37.642448 13.976400
16.043350 37.283852 13.976400
16.043350 37.283852 13.582700
-13.779450 37.458950 13.280700
-13.779450 37.746651 13.383800
-13.779450 38.047451 13.329300
-13.779450 38.177052 13.245800
-13.779450 38.351250 12.994500
-13.779450 38.376350 12.689900
-13.779450 38.245850 12.413500
-13.779450 37.994549 12.239300
-13.779450 37.689949 12.214200
-13.779450 37.413448 12.344700
-13.779450 37.239349 12.596000
-13.779450 37.206749 12.746700
-13.779450 37.261250 13.047400
-17.716551 41.338551 14.370100
17.716551 41.338551 14.370100
17.716551 41.338551 13.976400
-17.716551 41.338551 13.976400
15.595250 13.168850 13.976400
15.330450 13.016050 13.976400
15.177650 12.751250 13.976400
15.177650 12.445550 13.976400
15.330450 12.180850 13.976400
15.452750 12.087050 13.976400
15.748050 12.007850 13.976400
16.043350 12.087050 13.976400
16.259451 12.303150 13.976400
16.338650 12.598450 13.976400
16.259451 12.893750 13.976400
16.165649 13.016050 13.976400
15.900950 13.168850 13.976400
-15.177550 -12.445560 13.582700
-15.177550 -12.751250 13.582700
-15.236550 -12.893680 13.582700
-15.452750 -13.109840 13.582700
-15.595150 -13.168840 13.582700
-15.900850 -13.168840 13.582700
-16.043249 -13.109840 13.582700
-16.259451 -12.893680 13.582700
-16.318451 -12.751250 13.582700
-16.318451 -12.445560 13.582700
-16.259451 -12.303130 13.582700
-16.043249 -12.086980 13.582700
-15.900850 -12.027980 13.582700
-15.595150 -12.027980 13.582700
-15.452750 -12.086980 13.582700
-15.236550 -12.303130 13.582700
17.716551 41.338551 13.976400
17.716551 -41.338551 13.976400
-17.716551 -41.338551 13.976400
-17.716551 41.338551 13.976400
-15.236550 -12.303130 13.582700
-15.236550 -12.303130 13.976400
-15.595150 -13.168840 13.976400
-15.900850 -13.168840 13.976400
-15.900850 -13.168840 13.582700
-15.595150 -13.168840 13.582700
-13.779450 -38.361851 12.628700
13.779550 -38.361851 12.628700
-17.716551 -41.338551 14.370100
-17.716551 -41.338551 13.976400
-17.716551 41.338551 13.976400
-17.716551 41.338551 14.370100
-16.318451 -12.751250 13.976400
-16.318451 -12.751250 13.582700
-16.259451 -12.893680 13.582700
-16.259451 -12.893680 13.976400
-16.043249 -13.109840 13.976400
-16.043249 -13.109840 13.582700
13.779550 37.458950 13.280700
-13.779450 37.458950 13.280700
-15.452750 -12.086980 13.976400
-15.452750 -12.086980 13.582700
-15.748050 12.007850 13.976400
-15.748050 12.007850 13.582700
-17.716551 41.338551 14.370100
-17.716551 41.338551 13.976400
-17.716551 -41.338551 13.976400
-17.716551 -41.338551 14.370100
-15.177550 37.948151 13.582700
-15.177550 37.642448 13.582700
-15.236550 37.500050 13.582700
-15.452750 37.283852 13.582700
-15.595150 37.224850 13.582700
-15.900850 37.224850 13.582700
-16.043249 37.283852 13.582700
-16.259451 37.500050 13.582700
-16.318451 37.642448 13.582700
-16.318451 37.948151 13.582700
-16.259451 38.090549 13.582700
-16.043249 38.306751 13.582700
-15.900850 38.365749 13.582700
-15.595150 38.365749 13.582700
-15.452750 38.306751 13.582700
-15.236550 38.090549 13.582700
15.748050 -13.188960 13.976400
15.748050 -13.188960 13.582700
-15.236550 38.090549 13.976400
-15.236550 38.090549 13.582700
17.716551 -41.338551 13.582700
17.716551 41.338551 13.582700
17.716551 41.338551 -14.370100
17.716551 39.763748 -14.370100
17.716551 39.763748 12.007900
17.716551 -39.763748 12.007900
17.716551 -39.763748 -14.370100
17.716551 -41.338551 -14.370100
-17.716551 -41.338551 14.370100
-17.716551 41.338551 14.370100
17.716551 41.338551 14.370100
17.716551 -41.338551 14.370100
-15.177550 37.948151 13.976400
-15.236550 38.090549 13.976400
-15.452750 38.306751 13.976400
-15.595150 38.365749 13.976400
-15.900850 38.365749 13.976400
-16.043249 38.306751 13.976400
-16.259451 38.090549 13.976400
-16.318451 37.948151 13.976400
-16.318451 37.642448 13.976400
-16.259451 37.500050 13.976400
-16.043249 37.283852 13.976400
-15.900850 37.224850 13.976400
-15.595150 37.224850 13.976400
-15.452750 37.283852 13.976400
-15.236550 37.500050 13.976400
-15.177550 37.642448 13.976400
-15.236550 37.500050 13.976400
-15.236550 37.500050 13.582700
-15.452750 37.283852 13.976400
-15.452750 37.283852 13.582700
-15.595150 37.224850 13.976400
-15.900850 37.224850 13.976400
-15.900850 37.224850 13.582700
-15.595150 37.224850 13.582700
17.716551 -41.338551 14.370100
-17.716551 -41.338551 14.370100
-17.716551 -41.338551 13.976400
17.716551 -41.338551 13.976400
16.259451 12.303150 13.582700
16.259451 12.303150 13.976400
-16.259451 -38.090549 13.976400
-16.259451 -38.090549 13.582700
13.779550 39.763748 12.007900
13.779550 -39.763748 12.007900
17.716551 -39.763748 12.007900
17.716551 39.763748 12.007900
17.716551 41.338551 -14.370100
17.716551 41.338551 13.582700
17.716551 -41.338551 13.582700
17.716551 -41.338551 -14.370100
17.716551 -39.763748 -14.370100
17.716551 -39.763748 12.007900
17.716551 39.763748 12.007900
17.716551 39.763748 -14.370100
-16.318451 -37.948151 13.582700
-16.318451 -37.948151 13.976400
13.779550 -39.763748 -14.370100
13.779550 -41.338551 -14.370100
17.716551 -41.338551 -14.370100
17.716551 -39.763748 -14.370100
16.043350 -38.306648 13.976400
16.043350 -38.306648 13.582700
4 0 1 2 3
4 4 5 6 7
4 8 9 10 11
4 12 13 14 15
4 16 17 18 19
4 20 21 22 23
4 24 25 26 27
4 28 29 30 31
4 32 33 34 35
4 36 37 38 39
4 9 8 40 41
13 42 43 44 45 46 47 48 49 50 51 52 53 54
4 55 56 57 58
4 59 60 61 62
4 63 64 65 66
4 67 68 69 70
4 71 72 73 74
4 75 76 77 78
4 79 80 81 82
4 83 84 85 86
4 87 88 89 90
4 91 92 93 94
4 95 96 97 98
4 99 100 101 102
13 103 104 105 106 107 108 109 110 111 112 113 114 115
4 69 68 100 99
16 116 117 118 119 120 121 122 123 124 125 126 127 128 129 130 131
4 132 133 134 135
4 136 95 98 137
4 138 139 140 141
4 142 143 144 145
15 146 147 148 149 150 151 152 153 154 155 156 157 158 159 160
4 161 162 163 164
4 165 166 167 168
4 169 170 171 172
4 173 174 175 176
4 177 178 179 180
4 181 182 183 184
4 185 186 187 188
15 189 190 191 192 193 194 195 196 197 198 199 200 201 202 203
4 204 205 206 207
13 208 209 210 211 212 213 214 215 216 217 218 219 220
4 221 222 223 224
4 225 226 227 228
4 229 35 34 230
4 231 0 3 232
4 233 234 235 236
4 237 238 239 240
4 241 242 243 244
4 245 246 247 248
4 249 250 251 252
4 253 254 255 256
4 257 258 259 260
4 261 55 58 262
4 263 264 265 266
15 267 268 269 270 271 272 273 274 275 276 277 278 279 280 281
13 282 283 284 285 286 287 288 289 290 291 292 293 294
4 145 144 295 296
4 297 298 299 300
4 301 302 303 304
27 305 306 307 308 309 310 311 312 313 314 315 316 317 318 319 320 321 322 323 324 325 326 327 328 329 330 331
4 332 333 334 335
4 336 337 338 339
13 340 341 342 343 344 345 346 347 348 349 350 351 352
10 353 354 355 356 357 358 359 360 361 362
32 363 364 365 366 367 368 369 370 358 357 371 372 373 374 375 376 356 355 377 378 379 380 381 382 383 384 385 386 387 388 354 353
4 389 390 391 392
4 393 394 395 396
8 397 398 399 400 401 402 403 404
4 405 406 407 408
4 409 410 411 412
4 250 249 261 262
4 413 414 415 416
4 417 405 408 418
13 419 420 421 422 423 424 425 426 427 428 429 430 431
4 432 433 434 435
4 33 32 436 437
4 438 439 5 4
4 440 441 442 443
4 444 445 446 447
4 448 37 36 449
4 450 451 452 453
4 454 455 456 457
4 458 459 460 461
4 462 463 464 465
4 466 467 468 469
4 470 471 472 473
15 474 475 476 477 478 479 480 481 482 483 484 485 486 487 488
4 489 490 491 492
4 10 493 494 11
4 495 496 497 498
4 499 233 236 500
4 445 444 166 165
13 501 502 503 504 505 506 507 508 509 510 511 512 513
4 93 92 514 515
15 516 517 518 519 520 521 522 523 524 525 526 527 528 529 530
4 531 532 533 534
4 535 536 537 538
4 539 540 91 94
4 541 542 543 544
4 545 24 27 546
4 534 533 79 82
4 547 548 60 59
4 62 61 207 206
4 13 229 230 14
13 549 550 551 552 553 554 555 556 557 558 559 560 561
15 562 563 564 565 566 567 308 307 568 569 329 328 570 315 314
4 416 415 102 101
4 571 540 539 572
4 21 205 204 22
4 573 139 138 574
4 231 232 437 436
4 575 576 577 578
4 579 580 581 582
4 413 573 574 414
13 583 584 585 586 587 588 589 590 591 592 593 594 595
4 298 596 597 299
4 41 40 537 536
4 228 598 599 225
4 1 439 438 2
4 514 237 240 515
4 338 600 601 339
4 602 603 604 605
4 606 67 70 607
4 600 608 609 601
4 610 611 612 613
4 614 615 616 617
4 618 619 620 621
4 622 623 624 625
4 626 627 628 629
8 630 631 632 633 634 635 636 637
13 638 639 640 641 642 643 644 645 646 647 648 649 650
8 651 652 653 654 655 656 657 658
4 659 660 661 662
8 663 664 665 666 667 668 669 670
4 671 672 673 674
4 675 676 677 678
4 679 680 681 682
4 683 684 685 686
4 687 688 689 690
4 691 692 693 694
13 695 696 697 698 699 700 701 702 703 704 705 706 707
4 64 579 582 65
4 708 709 710 711
4 712 713 265 264
13 714 715 716 717 718 719 720 721 722 723 724 725 726
4 727 728 729 730
4 39 38 84 83
4 136 137 731 732
4 337 336 713 712
4 733 20 23 734
4 417 418 459 458
4 296 295 581 580
13 735 736 737 738 739 740 741 742 743 744 745 746 747
4 748 749 750 751
13 752 753 754 755 756 757 758 759 760 761 762 763 764
16 765 766 767 768 769 770 771 772 773 774 775 776 777 778 779 780
4 412 411 454 457
4 781 782 783 784
4 493 87 90 494
4 785 786 410 409
4 141 140 302 301
4 787 788 789 790
4 455 787 790 456
4 791 792 252 251
4 596 432 435 597
4 793 794 795 796
4 797 798 799 800
4 788 801 802 789
4 238 245 248 239
4 803 499 500 804
4 406 805 806 407
4 461 460 798 797
4 807 263 266 808
4 809 810 811 812
4 608 448 449 609
16 813 814 815 816 817 818 819 820 821 822 823 824 825 826 827 828
4 829 535 538 830
4 258 831 832 259
8 833 834 835 836 837 838 839 840
4 841 842 843 844
16 845 846 847 848 849 850 851 852 853 854 855 856 857 858 859 860
4 224 223 861 862
4 861 863 864 862
4 805 786 785 806
4 234 16 19 235
4 832 831 222 221
4 865 866 867 868
4 869 870 871 872
4 873 874 12 15
4 334 728 727 335
4 227 226 447 446
4 866 168 167 867
4 6 874 873 7
4 17 63 66 18
4 96 333 332 97
4 25 875 876 26
4 877 878 879 880
8 881 882 883 884 885 886 887 888
4 792 791 247 246
4 81 80 575 578
4 732 731 889 890
4 863 865 868 864
4 891 892 893 894
4 803 804 143 142
4 303 895 896 304
4 547 297 300 548
4 85 807 808 86
4 433 733 734 434
4 576 829 830 577
4 890 889 876 875
4 729 545 546 730
4 88 532 531 89
4 800 799 802 801
4 598 257 260 599
4 56 571 572 57
4 895 606 607 896
