ply
format ascii 1.0
comment Created by Blender 2.82 (sub 7) - www.blender.org, source file: ''
element vertex 630
property float x
property float y
property float z
element face 155
property list uchar uint vertex_indices
end_header
8.750000 -8.711050 11.250000
8.750000 10.288950 11.250000
8.750000 10.288950 6.250000
8.750000 -8.711050 6.250000
-7.500000 11.788950 11.250000
7.500000 11.788950 11.250000
7.500000 12.288950 11.250000
-7.500000 12.288950 11.250000
6.312500 8.188940 10.187500
6.437500 8.313940 10.187500
-6.437500 8.313940 10.187500
-6.437500 -12.413950 10.187500
-6.312500 8.188940 10.187500
8.750000 -8.711050 11.250000
9.500000 -8.711050 11.250000
9.500000 10.288950 11.250000
8.750000 10.288950 11.250000
10.000000 12.788950 6.250000
10.000000 10.288950 6.250000
9.625000 10.663950 -12.000000
9.625000 12.413950 -12.000000
-7.500000 -10.711050 11.250000
-7.500000 -10.211050 11.250000
-7.500000 -10.211050 6.250000
-7.500000 -10.711050 6.250000
-10.379520 -12.050050 12.000000
-10.516501 -11.959350 12.000000
-10.640165 -11.851250 12.000000
-10.640165 -11.851250 11.250000
-10.516501 -11.959350 11.250000
-10.379520 -12.050050 11.250000
-10.231670 -12.121650 11.250000
-10.231670 -12.121650 12.000000
-10.231670 -12.121650 11.250000
-10.640165 -11.851250 11.250000
-10.910594 -11.442750 11.250000
-10.961846 12.864542 11.250000
-10.748305 13.305451 11.250000
-10.516501 13.537255 11.250000
-10.075592 13.750796 11.250000
10.231700 13.699544 11.250000
10.640200 13.429115 11.250000
10.910600 13.020620 11.250000
10.910600 -11.442750 11.250000
10.640200 -11.851250 11.250000
10.231700 -12.121650 11.250000
7.500000 -11.211050 11.250000
7.500000 -8.711050 11.250000
7.500000 -8.711050 6.250000
7.500000 -11.211050 6.250000
6.562500 -12.663950 10.312500
6.437500 -12.663950 10.187500
6.437500 -12.663950 7.312500
-6.437500 -12.663950 7.312500
6.562500 -12.663950 7.187500
7.500000 10.288950 11.250000
10.000000 10.288950 11.250000
10.000000 12.788950 11.250000
7.500000 12.788950 11.250000
6.437500 -12.413950 10.187500
6.437500 -12.413950 7.312500
-6.437500 -12.413950 7.312500
-6.437500 -12.413950 10.187500
1.548400 -12.663950 9.101600
1.548400 -12.663950 8.601600
0.924400 -13.317350 8.601600
0.924400 -13.317350 9.101600
10.000000 -8.711050 6.250000
9.625000 -9.086050 -12.000000
7.875000 -9.086050 -12.000000
7.500000 -8.711050 6.250000
-10.000000 10.288950 6.250000
-7.500000 10.288950 6.250000
-7.500000 12.788950 6.250000
-10.000000 12.788950 6.250000
0.048400 -13.788950 9.101600
-1.043120 -13.560650 9.101600
-1.043120 -13.560650 8.601600
0.048400 -13.788950 8.601600
6.312500 8.188940 7.437500
6.312500 8.188940 10.187500
-6.312500 8.188940 10.187500
-6.312500 8.188940 7.437500
10.640200 13.429115 12.000000
10.910600 13.020620 12.000000
10.910600 13.020620 11.250000
10.640200 13.429115 11.250000
-10.000000 -11.211050 6.250000
-10.000000 -8.711050 6.250000
-9.625000 -9.086050 -12.000000
-9.625000 -10.836050 -12.000000
-7.500000 -8.711050 6.250000
-7.875000 -9.086050 -12.000000
-9.625000 -9.086050 -12.000000
-10.000000 -8.711050 6.250000
-7.500000 12.788950 6.250000
-7.500000 10.288950 6.250000
-7.875000 10.663950 -12.000000
-7.875000 12.413950 -12.000000
10.000000 -8.711050 11.250000
10.000000 -11.211050 11.250000
10.000000 -11.211050 6.250000
10.000000 -8.711050 6.250000
10.000000 -11.211050 6.250000
10.000000 -11.211050 11.250000
7.500000 -11.211050 11.250000
7.500000 -11.211050 6.250000
7.875000 -10.836050 -12.000000
9.625000 -10.836050 -12.000000
10.000000 -11.211050 6.250000
7.500000 -11.211050 6.250000
-6.687500 -12.538950 10.437500
-6.687500 -12.413950 10.437500
-6.687500 -12.413950 7.062500
-6.687500 -12.538950 7.062500
10.000000 10.288950 6.250000
7.500000 10.288950 6.250000
7.500000 12.788950 6.250000
10.000000 12.788950 6.250000
-6.575440 -12.618150 10.325400
-6.575440 -12.618150 7.174600
-6.562500 -12.663950 7.187500
-6.562500 -12.663950 10.312500
-9.211140 -10.423350 -8.250000
-9.211140 12.019400 -8.250000
-9.211140 12.019400 -9.000000
-9.211140 -10.423350 -9.000000
9.211300 -10.423350 -9.000000
-9.211140 -10.423350 -9.000000
-9.211140 12.019400 -9.000000
9.211300 12.019400 -9.000000
-8.750000 -8.711050 6.250000
-8.750000 -8.711050 11.250000
-9.500000 -8.711050 11.250000
-9.500000 -8.711050 6.250000
-10.961846 -11.286650 12.000000
-10.991826 -11.125150 12.000000
-11.000000 -10.961050 12.000000
-11.000000 -10.961050 11.250000
-10.991826 -11.125150 11.250000
-10.961846 -11.286650 11.250000
-10.910594 -11.442750 11.250000
-10.910594 -11.442750 12.000000
9.500000 10.288950 11.250000
9.500000 -8.711050 11.250000
9.500000 -8.711050 6.250000
9.500000 10.288950 6.250000
1.548400 -12.663950 8.601600
1.548400 -12.663950 9.101600
1.923400 -12.663950 9.101600
1.923400 -12.663950 8.601600
7.500000 12.288950 11.250000
7.500000 12.288950 6.250000
-7.500000 12.288950 6.250000
-7.500000 12.288950 11.250000
6.500000 -10.711050 10.250000
6.500000 -10.211050 10.250000
6.500000 -10.211050 7.250000
6.500000 -10.711050 7.250000
-6.500000 -10.211050 10.250000
-6.500000 -10.711050 10.250000
-6.500000 -10.711050 7.250000
-6.500000 -10.211050 7.250000
-6.500000 -10.711050 7.250000
6.500000 -10.711050 7.250000
6.500000 -10.211050 7.250000
-6.500000 -10.211050 7.250000
-7.500000 -10.711050 6.250000
7.500000 -10.711050 6.250000
7.500000 -10.711050 11.250000
6.500000 -10.711050 10.250000
6.500000 -10.711050 7.250000
-6.500000 -10.711050 7.250000
-7.500000 -10.711050 11.250000
-9.625000 -10.836050 -12.000000
-7.875000 -10.836050 -12.000000
-7.500000 -11.211050 6.250000
-10.000000 -11.211050 6.250000
10.910600 13.020620 12.000000
10.640200 13.429115 12.000000
10.231700 13.699544 12.000000
-10.075592 13.750796 12.000000
-10.516501 13.537255 12.000000
-10.748305 13.305451 12.000000
-10.961846 12.864542 12.000000
-10.910594 -11.442750 12.000000
-10.640165 -11.851250 12.000000
-10.231670 -12.121650 12.000000
10.231700 -12.121650 12.000000
10.640200 -11.851250 12.000000
10.910600 -11.442750 12.000000
-7.875000 -10.836050 -12.000000
-9.625000 -10.836050 -12.000000
-9.625000 -9.086050 -12.000000
-7.875000 -9.086050 -12.000000
-9.750000 13.788950 12.000000
-9.750000 13.788950 11.250000
-10.075592 13.750796 11.250000
-10.075592 13.750796 12.000000
-7.500000 -11.211050 6.250000
-7.500000 -11.211050 11.250000
-10.000000 -11.211050 11.250000
-10.000000 -11.211050 6.250000
11.000000 12.538950 12.000000
11.000000 -10.961050 12.000000
11.000000 -10.961050 11.250000
11.000000 12.538950 11.250000
-6.687500 -12.538950 10.437500
6.687500 -12.538950 10.437500
6.687500 -12.413950 10.437500
-6.687500 -12.413950 10.437500
6.437500 -12.413950 7.312500
6.437500 -12.413950 10.187500
-6.437500 -12.413950 10.187500
6.687500 -12.413950 10.437500
6.687500 -12.413950 7.062500
-6.437500 -12.413950 7.312500
1.139900 -13.560650 9.101600
1.139900 -13.560650 8.601600
9.211300 12.019400 -9.000000
9.211300 12.019400 -8.250000
9.211300 -10.423350 -8.250000
9.211300 -10.423350 -9.000000
11.000000 12.538950 12.000000
11.000000 12.538950 11.250000
6.437500 8.313940 10.187500
6.437500 -12.413950 10.187500
6.437500 -12.413950 7.312500
6.437500 8.313940 7.312500
9.500000 10.288950 11.250000
9.500000 10.288950 6.250000
8.750000 10.288950 6.250000
8.750000 10.288950 11.250000
-10.075592 -12.172850 12.000000
-10.075592 -12.172850 11.250000
-9.914070 -12.202850 11.250000
-9.750000 -12.211050 11.250000
-9.750000 -12.211050 12.000000
-9.914070 -12.202850 12.000000
7.500000 11.788950 6.250000
7.500000 11.788950 11.250000
-7.500000 11.788950 11.250000
-7.500000 11.788950 6.250000
7.500000 -10.211050 11.250000
7.500000 -10.711050 11.250000
7.500000 -10.711050 6.250000
7.500000 -10.211050 6.250000
-6.614780 -12.568750 10.364800
-6.687500 -12.538950 10.437500
-6.687500 -12.538950 7.062500
-6.614780 -12.568750 7.135200
6.437500 8.313940 10.187500
6.437500 8.313940 7.312500
-6.437500 8.313940 7.312500
-6.437500 8.313940 10.187500
7.500000 -10.211050 11.250000
7.500000 -10.211050 6.250000
-6.500000 -10.211050 7.250000
6.500000 -10.211050 7.250000
6.500000 -10.211050 10.250000
-10.516501 13.537255 12.000000
-10.516501 13.537255 11.250000
-10.748305 13.305451 11.250000
-10.748305 13.305451 12.000000
-6.312500 -12.288950 7.437500
6.312500 -12.288950 7.437500
6.312500 8.188940 7.437500
-6.312500 8.188940 7.437500
2.048400 -12.913950 8.601600
2.048400 -12.913950 9.101600
-0.796100 -13.263450 9.101600
0.048400 -13.538950 9.101600
0.048400 -13.538950 8.601600
-0.796100 -13.263450 8.601600
6.312500 -12.288950 10.187500
6.312500 -12.288950 7.437500
-6.312500 -12.288950 7.437500
-6.312500 -12.288950 10.187500
6.437500 -12.413950 10.187500
6.312500 -12.288950 10.187500
-6.312500 -12.288950 10.187500
-6.575440 -12.618150 7.174600
6.575400 -12.618150 7.174600
6.562500 -12.663950 7.187500
-6.562500 -12.663950 7.187500
-10.961846 12.864542 12.000000
-10.961846 12.864542 11.250000
6.687500 -12.538950 7.062500
6.614800 -12.568750 7.135200
-6.614780 -12.568750 7.135200
-6.687500 -12.538950 7.062500
-7.500000 -8.711050 11.250000
-7.500000 -8.711050 6.250000
-10.000000 -8.711050 6.250000
-10.000000 -8.711050 11.250000
-7.500000 -8.711050 11.250000
-7.500000 -11.211050 11.250000
-7.500000 -11.211050 6.250000
-7.500000 -8.711050 6.250000
-7.500000 -11.211050 6.250000
-10.000000 -11.211050 6.250000
-10.000000 -8.711050 6.250000
-7.500000 -8.711050 6.250000
10.000000 12.788950 11.250000
10.000000 12.788950 6.250000
7.500000 12.788950 6.250000
7.500000 12.788950 11.250000
10.000000 12.788950 6.250000
9.625000 12.413950 -12.000000
7.875000 12.413950 -12.000000
7.500000 12.788950 6.250000
-9.500000 -8.711050 11.250000
-8.750000 -8.711050 11.250000
-8.750000 10.288950 11.250000
-9.500000 10.288950 11.250000
9.211300 12.019400 -8.250000
9.211300 12.019400 -9.000000
-9.211140 12.019400 -9.000000
-9.211140 12.019400 -8.250000
10.000000 -8.711050 6.250000
10.000000 -11.211050 6.250000
9.625000 -10.836050 -12.000000
9.625000 -9.086050 -12.000000
9.750000 -12.211050 11.250000
9.750000 -12.211050 12.000000
-9.750000 -12.211050 12.000000
-9.750000 -12.211050 11.250000
11.000000 -10.961050 12.000000
10.910600 -11.442750 12.000000
10.910600 -11.442750 11.250000
11.000000 -10.961050 11.250000
-1.951610 -12.913950 9.101600
-1.951610 -12.913950 8.601600
-8.750000 10.288950 11.250000
-8.750000 -8.711050 11.250000
-8.750000 -8.711050 6.250000
-8.750000 10.288950 6.250000
9.500000 -8.711050 6.250000
9.500000 -8.711050 11.250000
8.750000 -8.711050 11.250000
8.750000 -8.711050 6.250000
9.211300 -10.423350 -9.000000
9.211300 -10.423350 -8.250000
-9.211140 -10.423350 -8.250000
-9.211140 -10.423350 -9.000000
-9.211140 -10.423350 -8.250000
9.211300 -10.423350 -8.250000
9.211300 12.019400 -8.250000
-9.211140 12.019400 -8.250000
9.625000 10.663950 -12.000000
7.875000 10.663950 -12.000000
7.875000 12.413950 -12.000000
9.625000 12.413950 -12.000000
10.379500 13.627937 11.250000
10.231700 13.699544 11.250000
10.231700 13.699544 12.000000
10.379500 13.627937 12.000000
10.516500 13.537255 12.000000
10.516500 13.537255 11.250000
-7.500000 11.788950 11.250000
-7.500000 12.288950 11.250000
-7.500000 12.288950 6.250000
-7.500000 11.788950 6.250000
-9.500000 -8.711050 11.250000
-9.500000 10.288950 11.250000
-9.500000 10.288950 6.250000
-9.500000 -8.711050 6.250000
-8.750000 -8.711050 6.250000
-9.500000 -8.711050 6.250000
-9.500000 10.288950 6.250000
-8.750000 10.288950 6.250000
7.500000 11.788950 6.250000
-7.500000 11.788950 6.250000
-7.500000 12.288950 6.250000
7.500000 12.288950 6.250000
9.500000 -8.711050 6.250000
8.750000 -8.711050 6.250000
8.750000 10.288950 6.250000
9.500000 10.288950 6.250000
-10.231670 13.699544 11.250000
-10.379520 13.627937 11.250000
-10.379520 13.627937 12.000000
-10.231670 13.699544 12.000000
7.500000 -10.711050 6.250000
-7.500000 -10.711050 6.250000
-7.500000 -10.211050 6.250000
7.500000 -10.211050 6.250000
7.500000 12.288950 11.250000
7.500000 11.788950 11.250000
7.500000 11.788950 6.250000
7.500000 12.288950 6.250000
-11.000000 12.538950 12.000000
-11.000000 12.538950 11.250000
-6.500000 -10.711050 10.250000
-7.500000 -10.711050 11.250000
7.500000 -10.711050 11.250000
7.500000 -10.211050 11.250000
-7.500000 -10.211050 11.250000
-7.500000 -10.211050 6.250000
-7.500000 -10.211050 11.250000
-6.500000 -10.211050 10.250000
10.075600 13.750796 11.250000
9.914100 13.780776 11.250000
9.750000 13.788950 11.250000
9.750000 13.788950 12.000000
9.914100 13.780776 12.000000
10.075600 13.750796 12.000000
6.437500 -12.413950 7.312500
-6.437500 -12.413950 7.312500
-6.437500 8.313940 7.312500
6.437500 8.313940 7.312500
-7.500000 12.788950 11.250000
-7.500000 10.288950 11.250000
-7.500000 10.288950 6.250000
-7.500000 12.788950 6.250000
-7.500000 10.288950 6.250000
-10.000000 10.288950 6.250000
-10.000000 12.788950 6.250000
-7.500000 12.788950 6.250000
-7.500000 12.788950 11.250000
-7.500000 12.788950 6.250000
-10.000000 12.788950 6.250000
-10.000000 12.788950 11.250000
6.500000 -10.711050 10.250000
-6.500000 -10.711050 10.250000
-6.500000 -10.211050 10.250000
6.500000 -10.211050 10.250000
-6.437500 -12.413950 10.187500
-6.437500 8.313940 10.187500
-6.437500 8.313940 7.312500
-6.437500 -12.413950 7.312500
-10.000000 10.288950 11.250000
-7.500000 10.288950 11.250000
-7.500000 12.788950 11.250000
-10.000000 12.788950 11.250000
6.312500 -12.288950 10.187500
6.312500 8.188940 10.187500
6.312500 8.188940 7.437500
6.312500 -12.288950 7.437500
6.437500 -12.413950 7.312500
6.437500 -12.413950 10.187500
-6.437500 -12.413950 10.187500
-6.437500 -12.413950 7.312500
-10.000000 10.288950 11.250000
-10.000000 12.788950 11.250000
-10.000000 12.788950 6.250000
-10.000000 10.288950 6.250000
-7.500000 10.288950 6.250000
-7.500000 10.288950 11.250000
-10.000000 10.288950 11.250000
-10.000000 10.288950 6.250000
-6.312500 8.188940 10.187500
-6.312500 -12.288950 10.187500
-6.312500 -12.288950 7.437500
-6.312500 8.188940 7.437500
-10.000000 10.288950 6.250000
-10.000000 12.788950 6.250000
-9.625000 12.413950 -12.000000
-9.625000 10.663950 -12.000000
-11.000000 -10.961050 12.000000
-11.000000 12.538950 12.000000
-11.000000 12.538950 11.250000
-11.000000 -10.961050 11.250000
-7.500000 12.788950 6.250000
-7.875000 12.413950 -12.000000
-9.625000 12.413950 -12.000000
-10.000000 12.788950 6.250000
-7.875000 10.663950 -12.000000
-9.625000 10.663950 -12.000000
-9.625000 12.413950 -12.000000
-7.875000 12.413950 -12.000000
6.614800 -12.568750 10.364800
6.614800 -12.568750 7.135200
6.687500 -12.538950 7.062500
6.687500 -12.538950 10.437500
9.750000 13.788950 12.000000
9.750000 13.788950 11.250000
-9.750000 13.788950 11.250000
-9.750000 13.788950 12.000000
-10.000000 -11.211050 6.250000
-7.500000 -11.211050 6.250000
-7.500000 -8.711050 6.250000
-10.000000 -8.711050 6.250000
7.500000 -11.211050 6.250000
10.000000 -11.211050 6.250000
10.000000 -8.711050 6.250000
7.500000 -8.711050 6.250000
-9.625000 10.663950 -12.000000
-7.875000 10.663950 -12.000000
-7.500000 10.288950 6.250000
-10.000000 10.288950 6.250000
-7.500000 -8.711050 6.250000
-7.500000 -11.211050 6.250000
-7.875000 -10.836050 -12.000000
-7.875000 -9.086050 -12.000000
6.575400 -12.618150 10.325400
6.575400 -12.618150 7.174600
6.575400 -12.618150 10.325400
-6.575440 -12.618150 10.325400
-6.562500 -12.663950 10.312500
6.562500 -12.663950 10.312500
6.614800 -12.568750 10.364800
6.687500 -12.538950 10.437500
-6.687500 -12.538950 10.437500
-6.614780 -12.568750 10.364800
-10.000000 -11.211050 11.250000
-10.000000 -8.711050 11.250000
-10.000000 -8.711050 6.250000
-10.000000 -11.211050 6.250000
-6.562500 -12.663950 7.187500
-6.437500 -12.663950 10.187500
-6.562500 -12.663950 10.312500
-10.000000 -11.211050 11.250000
-7.500000 -11.211050 11.250000
-7.500000 -8.711050 11.250000
-10.000000 -8.711050 11.250000
10.640200 -11.851250 12.000000
10.640200 -11.851250 11.250000
0.048400 -13.538950 9.101600
0.048400 -13.538950 8.601600
10.000000 -11.211050 6.250000
7.500000 -11.211050 6.250000
7.500000 -8.711050 6.250000
10.000000 -8.711050 6.250000
6.687500 -12.538950 7.062500
-6.687500 -12.538950 7.062500
-6.687500 -12.413950 7.062500
6.687500 -12.413950 7.062500
7.500000 -11.211050 11.250000
10.000000 -11.211050 11.250000
10.000000 -8.711050 11.250000
7.500000 -8.711050 11.250000
6.687500 -12.413950 10.437500
6.687500 -12.538950 10.437500
6.687500 -12.538950 7.062500
6.687500 -12.413950 7.062500
-6.687500 -12.413950 7.062500
-6.687500 -12.413950 10.437500
10.000000 -8.711050 11.250000
10.000000 -8.711050 6.250000
7.500000 -8.711050 6.250000
7.500000 -8.711050 11.250000
10.231700 -12.121650 12.000000
10.231700 -12.121650 11.250000
10.075600 -12.172850 12.000000
9.914100 -12.202850 12.000000
9.750000 -12.211050 12.000000
9.750000 -12.211050 11.250000
9.914100 -12.202850 11.250000
10.075600 -12.172850 11.250000
7.500000 10.288950 6.250000
10.000000 10.288950 6.250000
10.000000 12.788950 6.250000
7.500000 12.788950 6.250000
7.500000 -11.211050 6.250000
7.500000 -8.711050 6.250000
7.875000 -9.086050 -12.000000
7.875000 -10.836050 -12.000000
-1.451610 -12.663950 9.101600
-1.826610 -12.663950 9.101600
-1.951610 -12.913950 9.101600
-1.043120 -13.560650 9.101600
0.048400 -13.788950 9.101600
1.139900 -13.560650 9.101600
2.048400 -12.913950 9.101600
1.923400 -12.663950 9.101600
1.548400 -12.663950 9.101600
0.924400 -13.317350 9.101600
0.048400 -13.538950 9.101600
-0.796100 -13.263450 9.101600
9.625000 -10.836050 -12.000000
7.875000 -10.836050 -12.000000
7.875000 -9.086050 -12.000000
9.625000 -9.086050 -12.000000
6.437500 -12.663950 7.312500
6.437500 -12.663950 10.187500
-6.437500 -12.663950 10.187500
-6.437500 -12.663950 7.312500
10.000000 10.288950 6.250000
10.000000 10.288950 11.250000
7.500000 10.288950 11.250000
7.500000 10.288950 6.250000
10.000000 12.788950 11.250000
10.000000 10.288950 11.250000
10.000000 10.288950 6.250000
10.000000 12.788950 6.250000
-1.826610 -12.663950 8.601600
-1.451610 -12.663950 8.601600
-0.796100 -13.263450 8.601600
0.048400 -13.538950 8.601600
0.924400 -13.317350 8.601600
1.548400 -12.663950 8.601600
1.923400 -12.663950 8.601600
2.048400 -12.913950 8.601600
1.139900 -13.560650 8.601600
0.048400 -13.788950 8.601600
-1.043120 -13.560650 8.601600
-1.951610 -12.913950 8.601600
7.500000 10.288950 11.250000
7.500000 12.788950 11.250000
7.500000 12.788950 6.250000
7.500000 10.288950 6.250000
-1.826610 -12.663950 9.101600
-1.826610 -12.663950 8.601600
-1.951610 -12.913950 8.601600
-1.951610 -12.913950 9.101600
-1.826610 -12.663950 9.101600
-1.451610 -12.663950 9.101600
-1.451610 -12.663950 8.601600
-1.826610 -12.663950 8.601600
-8.750000 10.288950 11.250000
-8.750000 10.288950 6.250000
-9.500000 10.288950 6.250000
-9.500000 10.288950 11.250000
-1.451610 -12.663950 8.601600
-1.451610 -12.663950 9.101600
2.048400 -12.913950 9.101600
2.048400 -12.913950 8.601600
1.923400 -12.663950 8.601600
1.923400 -12.663950 9.101600
7.500000 10.288950 6.250000
7.500000 12.788950 6.250000
7.875000 12.413950 -12.000000
7.875000 10.663950 -12.000000
7.875000 10.663950 -12.000000
9.625000 10.663950 -12.000000
10.000000 10.288950 6.250000
7.500000 10.288950 6.250000
6.562500 -12.663950 10.312500
6.562500 -12.663950 7.187500
4 0 1 2 3
4 4 5 6 7
5 8 9 10 11 12
4 13 14 15 16
4 17 18 19 20
4 21 22 23 24
8 25 26 27 28 29 30 31 32
13 33 34 35 36 37 38 39 40 41 42 43 44 45
4 46 47 48 49
5 50 51 52 53 54
4 55 56 57 58
4 59 60 61 62
4 63 64 65 66
4 67 68 69 70
4 71 72 73 74
4 75 76 77 78
4 79 80 81 82
4 83 84 85 86
4 87 88 89 90
4 91 92 93 94
4 95 96 97 98
4 99 100 101 102
4 103 104 105 106
4 107 108 109 110
4 111 112 113 114
4 115 116 117 118
4 119 120 121 122
4 123 124 125 126
4 127 128 129 130
4 131 132 133 134
8 135 136 137 138 139 140 141 142
4 143 144 145 146
4 147 148 149 150
4 151 152 153 154
4 155 156 157 158
4 159 160 161 162
4 163 164 165 166
7 167 168 169 170 171 172 173
4 174 175 176 177
13 178 179 180 181 182 183 184 185 186 187 188 189 190
4 191 192 193 194
4 195 196 197 198
4 199 200 201 202
4 203 204 205 206
4 207 208 209 210
6 211 212 213 214 215 216
4 217 75 78 218
4 219 220 221 222
4 84 223 224 85
4 225 226 227 228
4 229 230 231 232
8 233 32 31 234 235 236 237 238
4 239 240 241 242
4 243 244 245 246
4 247 248 249 250
4 251 252 253 254
5 255 256 257 258 259
4 260 261 262 263
4 264 265 266 267
4 217 218 268 269
4 270 271 272 273
4 274 275 276 277
7 11 278 9 8 279 280 12
4 281 282 283 284
4 285 263 262 286
4 287 288 289 290
4 291 292 293 294
4 295 296 297 298
4 299 300 301 302
4 303 304 305 306
4 307 308 309 310
4 311 312 313 314
4 315 316 317 318
4 319 320 321 322
4 323 324 325 326
4 327 328 329 330
4 331 332 77 76
4 333 334 335 336
4 337 338 339 340
4 341 342 343 344
4 345 346 347 348
4 349 350 351 352
8 353 354 355 356 357 83 86 358
4 359 360 361 362
4 363 364 365 366
4 367 368 369 370
4 371 372 373 374
4 375 376 377 378
8 198 197 379 380 261 260 381 382
4 383 384 385 386
4 387 388 389 390
4 391 285 286 392
5 173 172 393 170 169
4 394 395 396 397
7 398 399 255 259 400 257 256
8 401 402 403 404 405 406 355 354
4 407 408 409 410
4 411 412 413 414
4 415 416 417 418
4 419 420 421 422
4 423 424 425 426
4 427 428 429 430
4 431 432 433 434
4 435 436 437 438
4 439 440 441 442
4 443 444 445 446
4 447 448 449 450
4 451 452 453 454
4 455 456 457 458
4 459 460 461 462
4 463 464 465 466
4 467 468 469 470
4 471 472 473 474
4 475 476 477 478
4 479 480 481 482
4 288 282 281 289
4 483 484 485 486
4 487 488 489 490
4 491 492 493 494
4 472 471 495 496
4 497 498 499 500
4 501 502 503 504
4 505 506 507 508
7 509 54 53 510 51 50 511
4 512 513 514 515
4 328 516 517 329
4 247 250 120 119
4 518 66 65 519
4 520 521 522 523
4 524 525 526 527
4 528 529 530 531
4 532 533 534 535
6 536 537 214 213 216 215
4 538 539 540 541
4 517 516 542 543
8 543 542 544 545 546 547 548 549
4 550 551 552 553
4 554 555 556 557
12 558 559 560 561 562 563 564 565 566 567 568 569
4 27 142 141 28
4 570 571 572 573
4 501 504 498 497
4 574 575 576 577
4 578 579 580 581
4 582 583 584 585
12 586 587 588 589 590 591 592 593 594 595 596 597
4 598 599 600 601
4 602 603 604 605
4 606 607 608 609
4 610 611 612 613
4 614 615 270 273
4 616 617 618 619
4 620 621 622 623
4 624 625 626 627
4 495 628 629 496
