ply
format ascii 1.0
comment Created by Blender 2.82 (sub 7) - www.blender.org, source file: ''
element vertex 810
property float x
property float y
property float z
element face 220
property list uchar uint vertex_indices
end_header
-13.464600 21.496050 7.145700
-13.209900 21.496050 7.179200
-13.209900 22.086651 7.179200
-13.464600 22.086651 7.145700
-11.166600 -22.494850 -16.200800
-11.412900 -22.637051 -16.200800
-11.463900 -22.446850 -17.657499
-11.305800 -22.355650 -17.657499
13.188900 21.301050 -16.200800
13.188900 21.301050 15.295300
13.343900 21.419950 15.295300
13.343900 21.419950 -16.200800
-12.084100 -22.635250 15.295300
-12.084100 -22.635250 -16.200800
-11.748800 -22.828850 -16.200800
-11.748800 -22.828850 15.295300
12.814900 22.696850 -16.200800
12.440900 22.596649 -16.200800
12.440900 22.596649 15.295300
12.814900 22.696850 15.295300
-12.995000 -23.622049 17.542200
-12.818500 -23.622049 17.644100
-12.818500 23.622049 17.644100
-12.995000 23.622049 17.542200
13.064300 22.198250 -17.657499
13.203500 22.337351 -16.200800
12.957100 22.479650 -16.200800
12.906200 22.289450 -17.657499
-13.956700 -22.244049 7.277500
-13.719300 -22.244049 7.179200
-13.719300 -21.653549 7.179200
-13.956700 -21.653549 7.277500
12.348400 -22.396650 -16.200800
12.515600 -22.292549 -17.657499
12.648800 -22.417351 -17.657499
12.556100 -22.590950 -16.200800
12.167100 22.322849 -16.200800
12.167100 22.322849 15.295300
12.066900 21.948851 15.295300
12.066900 21.948851 -16.200800
-13.719300 21.496050 7.179200
-13.464600 21.496050 7.145700
-13.464600 22.086651 7.145700
-13.719300 22.086651 7.179200
-13.719300 -22.244049 7.179200
-13.464600 -22.244049 7.145700
-13.464600 -21.653549 7.145700
-13.719300 -21.653549 7.179200
-11.646400 -22.446850 -17.657499
-11.697400 -22.637051 -16.200800
-11.943700 -22.494850 -16.200800
-11.804500 -22.355650 -17.657499
13.530700 -21.888849 15.295300
13.530700 -21.888849 -16.200800
13.326100 -21.560150 -16.200800
13.326100 -21.560150 15.295300
12.167100 21.574850 -16.200800
12.167100 21.574850 15.295300
12.167100 22.322849 15.295300
12.167100 22.322849 -16.200800
12.066900 21.948851 -16.200800
12.066900 21.948851 15.295300
-13.075700 -22.244049 7.889700
-13.075700 22.086651 7.889700
-13.208200 22.086651 8.119100
-13.208200 -22.244049 8.119100
13.361100 -22.617451 -16.200800
13.361100 -22.617451 15.295300
13.032400 -22.822050 15.295300
13.032400 -22.822050 -16.200800
-11.181100 21.301050 -16.200800
-11.181100 21.301050 15.295300
-11.555100 21.200850 15.295300
-11.555100 21.200850 -16.200800
-11.412900 22.479650 -16.200800
-11.166600 22.337351 -16.200800
-11.305800 22.198250 -17.657499
-11.463900 22.289450 -17.657499
-11.555100 -22.106251 -8.405500
12.814900 -22.106251 -8.405500
12.814900 21.948851 -8.405500
-11.555100 21.948851 -8.405500
-14.317000 22.086651 7.637800
-14.317000 21.496050 7.637800
-14.160600 21.496050 7.434000
-14.160600 22.086651 7.434000
-11.829900 22.424749 -16.200800
-12.031000 22.223551 -16.200800
-12.085900 22.091049 -16.200800
-12.085900 21.806650 -16.200800
-11.943700 21.560350 -16.200800
-12.203000 21.574850 -16.200800
-12.303200 21.948851 -16.200800
-12.203000 22.322849 -16.200800
-12.084100 22.477751 -16.200800
-11.555100 22.498350 -16.200800
-12.972500 21.496050 7.277500
-12.768600 21.496050 7.434000
-12.768600 22.086651 7.434000
-12.972500 22.086651 7.277500
-12.480300 -22.244049 12.066900
-12.480300 -21.653549 12.066900
-12.480300 -21.653549 8.129900
-12.480300 -22.244049 8.129900
-11.929200 22.596649 -16.200800
-11.555100 22.696850 -16.200800
-11.181100 22.596649 -16.200800
-10.907300 22.322849 -16.200800
-10.807100 21.948851 -16.200800
-10.907300 21.574850 -16.200800
-11.181100 21.301050 -16.200800
-11.555100 21.200850 -16.200800
-11.929200 21.301050 -16.200800
-11.697400 21.418051 -16.200800
-11.412900 21.418051 -16.200800
-11.280400 21.472950 -16.200800
-11.079300 21.674150 -16.200800
-11.024400 21.806650 -16.200800
-11.024400 22.091049 -16.200800
-11.079300 22.223551 -16.200800
-11.280400 22.424749 -16.200800
-11.555100 -21.556749 -16.200800
-11.555100 -21.753651 -17.657499
-11.731500 -21.800850 -17.657499
-11.829900 -21.630449 -16.200800
-13.932000 -22.244049 8.119100
-13.932000 22.086651 8.119100
-14.013300 22.086651 8.013100
-14.013300 -22.244049 8.013100
12.814900 21.200850 15.295300
12.814900 21.200850 -16.200800
13.188900 21.301050 -16.200800
13.188900 21.301050 15.295300
14.448800 23.622049 17.263800
14.448800 -23.622049 17.263800
14.448800 -23.622049 15.295300
14.448800 23.622049 15.295300
-10.907300 21.574850 15.295300
-10.907300 21.574850 -16.200800
12.814900 -22.106251 -9.783500
-11.555100 -22.106251 -9.783500
-11.555100 21.948851 -9.783500
12.814900 21.948851 -9.783500
-11.214500 22.040150 -17.657499
-11.214500 21.857550 -17.657499
-11.305800 21.699551 -17.657499
-11.378800 21.643450 -17.657499
-11.555100 21.596251 -17.657499
-11.731500 21.643450 -17.657499
-11.804500 21.699551 -17.657499
-11.895800 21.857550 -17.657499
-11.895800 22.040150 -17.657499
-11.804500 22.198250 -17.657499
-11.731500 22.254250 -17.657499
-11.555100 22.301451 -17.657499
-11.378800 22.254250 -17.657499
-11.305800 22.198250 -17.657499
12.440900 22.596649 15.295300
12.440900 22.596649 -16.200800
12.814900 22.696850 -16.200800
12.814900 22.696850 15.295300
13.537500 22.142450 -16.200800
13.537500 22.142450 15.295300
13.343900 22.477751 15.295300
13.343900 22.477751 -16.200800
-11.024400 22.091049 -16.200800
-11.214500 22.040150 -17.657499
-12.513900 -22.244049 7.875200
-12.513900 -21.653549 7.875200
-12.612200 -21.653549 7.637800
-12.612200 -22.244049 7.637800
-11.181100 -21.458450 15.295300
-11.181100 -21.458450 -16.200800
-11.555100 -21.358250 -16.200800
-11.555100 -21.358250 15.295300
-11.646400 21.608250 -17.657499
-11.463900 21.608250 -17.657499
-11.412900 21.418051 -16.200800
-11.697400 21.418051 -16.200800
12.814900 21.948851 -8.405500
12.814900 -22.106251 -8.405500
12.814900 -22.106251 -9.783500
12.814900 21.948851 -9.783500
12.419700 -21.471149 15.295300
12.419700 -21.471149 -16.200800
12.155100 -21.753950 -16.200800
12.155100 -21.753950 15.295300
-12.203000 -22.480249 15.295300
-12.203000 -22.480249 -16.200800
12.462300 21.948851 -17.657499
12.509500 22.125151 -17.657499
12.339100 22.223551 -16.200800
12.265400 21.948851 -16.200800
12.474300 21.857550 -17.657499
12.474300 22.040150 -17.657499
12.509500 22.125151 -17.657499
12.638600 22.254250 -17.657499
12.814900 22.301451 -17.657499
12.906200 22.289450 -17.657499
13.064300 22.198250 -17.657499
13.120300 22.125151 -17.657499
13.167600 21.948851 -17.657499
13.120300 21.772551 -17.657499
12.991200 21.643450 -17.657499
12.814900 21.596251 -17.657499
12.638600 21.643450 -17.657499
12.509500 21.772551 -17.657499
13.326100 -21.560150 15.295300
13.167300 -21.446449 15.295300
12.790200 -21.358650 15.295300
12.419700 -21.471149 15.295300
12.155100 -21.753950 15.295300
12.067300 -22.131050 15.295300
12.099200 -22.323650 15.295300
12.303800 -22.652451 15.295300
12.645400 -22.834850 15.295300
13.032400 -22.822050 15.295300
13.361100 -22.617451 15.295300
13.474800 -22.458651 15.295300
13.562600 -22.081450 15.295300
13.530700 -21.888849 15.295300
12.339100 21.674150 -16.200800
12.265400 21.948851 -16.200800
12.462300 21.948851 -17.657499
12.509500 21.772551 -17.657499
12.796700 -21.557051 -16.200800
12.524600 -21.639750 -16.200800
12.330200 -21.847450 -16.200800
12.265800 -22.124451 -16.200800
12.348400 -22.396650 -16.200800
12.556100 -22.590950 -16.200800
12.690400 -22.641451 -16.200800
12.974600 -22.632050 -16.200800
13.216100 -22.481750 -16.200800
13.350100 -22.230850 -16.200800
13.340700 -21.946550 -16.200800
13.530700 -21.888849 -16.200800
13.562600 -22.081450 -16.200800
13.474800 -22.458651 -16.200800
13.361100 -22.617451 -16.200800
13.032400 -22.822050 -16.200800
12.645400 -22.834850 -16.200800
12.303800 -22.652451 -16.200800
12.099200 -22.323650 -16.200800
12.067300 -22.131050 -16.200800
12.155100 -21.753950 -16.200800
12.419700 -21.471149 -16.200800
12.790200 -21.358650 -16.200800
13.167300 -21.446449 -16.200800
13.450000 -21.711050 -16.200800
13.190400 -21.705050 -16.200800
12.939500 -21.571051 -16.200800
13.167300 -21.446449 -16.200800
13.167300 -21.446449 15.295300
-12.480300 22.874050 15.295300
-9.055100 22.874050 15.295300
-10.315000 22.874050 12.066900
-12.480300 22.874050 12.066900
-13.956700 21.496050 7.277500
-13.719300 21.496050 7.179200
-13.719300 22.086651 7.179200
-13.956700 22.086651 7.277500
13.740100 -20.866150 12.066900
13.740100 -23.031450 12.066900
13.740100 -23.031450 15.295300
13.740100 -19.606251 15.295300
11.574800 22.874050 12.066900
13.740100 22.874050 12.066900
13.740100 22.874050 15.295300
10.314900 22.874050 15.295300
-12.480300 20.708651 12.066900
-12.480300 22.874050 12.066900
-12.480300 22.874050 15.295300
-12.480300 19.448851 15.295300
-12.085900 -22.248449 -16.200800
-11.943700 -22.494850 -16.200800
-12.203000 -22.480249 -16.200800
-12.277700 -22.299850 -16.200800
-12.612200 21.496050 7.637800
-12.612200 22.086651 7.637800
-12.768600 22.086651 7.434000
-12.768600 21.496050 7.434000
-14.448800 22.086651 8.129900
-14.448800 21.496050 8.129900
-14.415300 21.496050 7.875200
-14.415300 22.086651 7.875200
12.814900 21.948851 -8.405500
12.814900 21.948851 -9.783500
-11.555100 21.948851 -9.783500
-11.555100 21.948851 -8.405500
-13.464600 -22.244049 7.145700
-13.209900 -22.244049 7.179200
-13.209900 -21.653549 7.179200
-13.464600 -21.653549 7.145700
-14.415300 -21.653549 7.875200
-14.415300 -22.244049 7.875200
-14.317000 -22.244049 7.637800
-14.317000 -21.653549 7.637800
-12.716600 -23.622049 17.657499
-12.716600 23.622049 17.657499
14.055100 -23.622049 17.657499
14.205800 -23.622049 17.627501
14.205800 23.622049 17.627501
14.055100 23.622049 17.657499
-11.929200 21.301050 -16.200800
-11.929200 21.301050 15.295300
-12.203000 21.574850 15.295300
-12.203000 21.574850 -16.200800
14.448800 -23.622049 15.295300
-13.110300 -23.622049 15.295300
-13.110300 23.622049 15.295300
14.448800 23.622049 15.295300
12.167100 21.574850 15.295300
12.440900 21.301050 15.295300
12.814900 21.200850 15.295300
13.188900 21.301050 15.295300
13.343900 21.419950 15.295300
13.537500 21.755251 15.295300
13.537500 22.142450 15.295300
13.343900 22.477751 15.295300
13.188900 22.596649 15.295300
12.814900 22.696850 15.295300
12.440900 22.596649 15.295300
12.167100 22.322849 15.295300
12.066900 21.948851 15.295300
-11.929200 -21.458450 -16.200800
-11.929200 -21.458450 15.295300
12.167100 21.574850 15.295300
12.167100 21.574850 -16.200800
13.562600 -22.081450 15.295300
13.562600 -22.081450 -16.200800
13.188900 22.596649 15.295300
13.188900 22.596649 -16.200800
-11.555100 -22.106251 -8.405500
-11.555100 21.948851 -8.405500
-11.555100 21.948851 -9.783500
-11.555100 -22.106251 -9.783500
-11.024400 21.806650 -16.200800
-11.214500 21.857550 -17.657499
12.440900 21.301050 -16.200800
12.440900 21.301050 15.295300
12.814900 21.200850 15.295300
12.814900 21.200850 -16.200800
13.537500 22.142450 15.295300
13.537500 21.755251 15.295300
13.343900 21.419950 15.295300
13.188900 21.301050 15.295300
12.814900 21.200850 15.295300
12.440900 21.301050 15.295300
12.167100 21.574850 15.295300
12.066900 21.948851 15.295300
12.167100 22.322849 15.295300
12.440900 22.596649 15.295300
12.814900 22.696850 15.295300
13.188900 22.596649 15.295300
13.343900 22.477751 15.295300
12.477500 -22.208750 -17.657499
12.462500 -22.117950 -17.657499
12.503900 -21.940149 -17.657499
12.628600 -21.806850 -17.657499
12.712400 -21.768850 -17.657499
12.894900 -21.762850 -17.657499
13.055900 -21.848749 -17.657499
13.114300 -21.919950 -17.657499
13.167400 -22.094549 -17.657499
13.158400 -22.186251 -17.657499
13.072400 -22.347250 -17.657499
13.001300 -22.405649 -17.657499
12.826600 -22.458750 -17.657499
12.648800 -22.417351 -17.657499
12.574000 -22.363750 -17.657499
12.339100 21.674150 -16.200800
12.540200 21.472950 -16.200800
12.672700 21.418051 -16.200800
12.440900 21.301050 -16.200800
12.167100 21.574850 -16.200800
12.066900 21.948851 -16.200800
12.092400 22.142450 -16.200800
12.339100 22.223551 -16.200800
12.265400 21.948851 -16.200800
12.540200 21.472950 -16.200800
12.638600 21.643450 -17.657499
13.474800 -22.458651 15.295300
13.474800 -22.458651 -16.200800
13.155500 22.040150 -17.657499
13.345700 22.091049 -16.200800
-11.166600 -21.717751 -16.200800
-11.024400 -21.964050 -16.200800
-11.214500 -22.014950 -17.657499
-11.305800 -21.856951 -17.657499
12.939500 -21.571051 -16.200800
12.894900 -21.762850 -17.657499
12.803300 -21.753851 -17.657499
12.796700 -21.557051 -16.200800
-10.907300 -22.480249 15.295300
-11.026200 -22.635250 15.295300
-11.026200 -22.635250 -16.200800
-10.907300 -22.480249 -16.200800
12.906200 21.608250 -17.657499
12.957100 21.418051 -16.200800
12.672700 21.418051 -16.200800
12.723700 21.608250 -17.657499
-11.555100 22.696850 -16.200800
-11.929200 22.596649 -16.200800
-11.929200 22.596649 15.295300
-11.555100 22.696850 15.295300
-12.303200 21.948851 15.295300
-12.303200 21.948851 -16.200800
12.638600 21.643450 -17.657499
12.509500 21.772551 -17.657499
12.339100 21.674150 -16.200800
12.540200 21.472950 -16.200800
12.067300 -22.131050 -16.200800
12.067300 -22.131050 15.295300
12.957100 21.418051 -16.200800
12.906200 21.608250 -17.657499
12.723700 21.608250 -17.657499
12.672700 21.418051 -16.200800
-12.203000 22.322849 15.295300
-12.203000 22.322849 -16.200800
12.638600 22.254250 -17.657499
12.540200 22.424749 -16.200800
-11.361500 -22.828850 15.295300
-11.361500 -22.828850 -16.200800
13.089700 21.472950 -16.200800
12.991200 21.643450 -17.657499
12.826600 -22.458750 -17.657499
12.833100 -22.655451 -16.200800
13.364400 21.948851 -16.200800
13.290800 21.674150 -16.200800
13.120300 21.772551 -17.657499
13.167600 21.948851 -17.657499
-14.415300 22.086651 7.875200
-14.415300 21.496050 7.875200
-14.317000 21.496050 7.637800
-14.317000 22.086651 7.637800
-11.697400 -22.637051 -16.200800
-11.412900 -22.637051 -16.200800
-11.166600 -22.494850 -16.200800
-11.024400 -22.248449 -16.200800
-11.024400 -21.964050 -16.200800
-11.166600 -21.717751 -16.200800
-11.280400 -21.630449 -16.200800
-11.555100 -21.556749 -16.200800
-11.829900 -21.630449 -16.200800
-11.943700 -21.717751 -16.200800
-12.085900 -21.964050 -16.200800
-12.303200 -22.106251 -16.200800
-12.203000 -21.732250 -16.200800
-11.929200 -21.458450 -16.200800
-11.555100 -21.358250 -16.200800
-11.181100 -21.458450 -16.200800
-10.907300 -21.732250 -16.200800
-10.807100 -22.106251 -16.200800
-10.907300 -22.480249 -16.200800
-11.026200 -22.635250 -16.200800
-11.361500 -22.828850 -16.200800
-11.748800 -22.828850 -16.200800
-12.084100 -22.635250 -16.200800
-12.612200 -22.244049 7.637800
-12.612200 -21.653549 7.637800
-12.768600 -21.653549 7.434000
-12.768600 -22.244049 7.434000
-14.160600 21.496050 7.434000
-13.956700 21.496050 7.277500
-13.956700 22.086651 7.277500
-14.160600 22.086651 7.434000
-13.702500 -22.244049 8.251600
-13.702500 22.086651 8.251600
-14.448800 -21.653549 8.129900
-14.448800 -22.244049 8.129900
-14.415300 -22.244049 7.875200
-14.415300 -21.653549 7.875200
-11.804500 -21.856951 -17.657499
-11.943700 -21.717751 -16.200800
12.790200 -21.358650 -16.200800
12.790200 -21.358650 15.295300
-11.280400 -21.630449 -16.200800
-11.378800 -21.800850 -17.657499
13.203500 22.337351 -16.200800
13.345700 22.091049 -16.200800
13.155500 22.040150 -17.657499
13.064300 22.198250 -17.657499
-10.907300 22.322849 15.295300
-10.907300 22.322849 -16.200800
-11.181100 22.596649 -16.200800
-11.181100 22.596649 15.295300
-12.085900 -22.248449 -16.200800
-11.895800 -22.197550 -17.657499
12.099200 -22.323650 15.295300
12.099200 -22.323650 -16.200800
12.303800 -22.652451 -16.200800
12.303800 -22.652451 15.295300
-12.085900 -21.964050 -16.200800
-11.895800 -22.014950 -17.657499
14.418800 -23.622049 17.414400
14.435400 -23.622049 17.365700
14.435400 23.622049 17.365700
14.418800 23.622049 17.414400
14.396000 23.622049 17.460600
14.367400 23.622049 17.503401
14.333500 23.622049 17.542200
14.333500 -23.622049 17.542200
14.367400 -23.622049 17.503401
14.396000 -23.622049 17.460600
-13.110300 -23.622049 17.263800
-13.110300 23.622049 17.263800
-13.110300 23.622049 15.295300
-13.110300 -23.622049 15.295300
13.537500 21.755251 15.295300
13.537500 21.755251 -16.200800
13.537500 22.142450 -16.200800
13.537500 22.142450 15.295300
-13.075700 -22.244049 7.624700
-13.075700 22.086651 7.624700
-11.697400 22.479650 -16.200800
-11.646400 22.289450 -17.657499
12.645400 -22.834850 -16.200800
12.645400 -22.834850 15.295300
-11.166600 21.560350 -16.200800
-11.305800 21.699551 -17.657499
-11.943700 21.560350 -16.200800
-12.085900 21.806650 -16.200800
-11.895800 21.857550 -17.657499
-11.804500 21.699551 -17.657499
12.339100 22.223551 -16.200800
12.509500 22.125151 -17.657499
-11.804500 22.198250 -17.657499
-11.943700 22.337351 -16.200800
12.265800 -22.124451 -16.200800
12.462500 -22.117950 -17.657499
13.188900 21.301050 -16.200800
12.814900 21.200850 -16.200800
12.957100 21.418051 -16.200800
13.089700 21.472950 -16.200800
13.290800 21.674150 -16.200800
13.345700 21.806650 -16.200800
13.345700 22.091049 -16.200800
13.290800 22.223551 -16.200800
13.089700 22.424749 -16.200800
12.957100 22.479650 -16.200800
12.672700 22.479650 -16.200800
12.540200 22.424749 -16.200800
12.167100 22.322849 -16.200800
12.440900 22.596649 -16.200800
12.814900 22.696850 -16.200800
13.188900 22.596649 -16.200800
13.343900 22.477751 -16.200800
13.537500 22.142450 -16.200800
13.537500 21.755251 -16.200800
13.343900 21.419950 -16.200800
-13.080300 23.622049 17.414400
-13.096900 23.622049 17.365700
-13.096900 -23.622049 17.365700
-13.080300 -23.622049 17.414400
-13.057500 -23.622049 17.460600
-13.057500 23.622049 17.460600
13.190400 -21.705050 -16.200800
13.055900 -21.848749 -17.657499
12.440900 21.301050 15.295300
12.440900 21.301050 -16.200800
-13.437600 -22.244049 8.251600
-13.437600 22.086651 8.251600
-12.203000 -21.732250 -16.200800
-12.203000 -21.732250 15.295300
12.723700 22.289450 -17.657499
12.672700 22.479650 -16.200800
12.957100 22.479650 -16.200800
12.906200 22.289450 -17.657499
-12.480300 -22.244049 8.129900
-12.480300 -21.653549 8.129900
-12.513900 -21.653549 7.875200
-12.513900 -22.244049 7.875200
-10.807100 21.948851 -16.200800
-10.807100 21.948851 15.295300
13.072400 -22.347250 -17.657499
13.216100 -22.481750 -16.200800
13.105300 -22.572750 -16.200800
13.001300 -22.405649 -17.657499
-11.024400 -22.248449 -16.200800
-11.214500 -22.197550 -17.657499
-10.807100 -22.106251 -16.200800
-10.807100 -22.106251 15.295300
12.330200 -21.847450 -16.200800
12.503900 -21.940149 -17.657499
-11.929200 -21.458450 15.295300
-12.203000 -21.732250 15.295300
-12.303200 -22.106251 15.295300
-12.203000 -22.480249 15.295300
-12.084100 -22.635250 15.295300
-11.748800 -22.828850 15.295300
-11.361500 -22.828850 15.295300
-11.026200 -22.635250 15.295300
-10.907300 -22.480249 15.295300
-10.807100 -22.106251 15.295300
-10.907300 -21.732250 15.295300
-11.181100 -21.458450 15.295300
-11.555100 -21.358250 15.295300
12.814900 -22.106251 -9.783500
12.814900 -22.106251 -8.405500
-11.555100 -22.106251 -8.405500
-11.555100 -22.106251 -9.783500
12.638600 22.254250 -17.657499
12.540200 22.424749 -16.200800
13.345700 22.091049 -16.200800
13.345700 21.806650 -16.200800
13.537500 21.755251 -16.200800
13.537500 22.142450 -16.200800
-10.907300 -21.732250 15.295300
-10.907300 -21.732250 -16.200800
13.167600 21.948851 -17.657499
13.364400 21.948851 -16.200800
13.120300 21.772551 -17.657499
13.290800 21.674150 -16.200800
-12.303200 -22.106251 -16.200800
-12.303200 -22.106251 15.295300
12.991200 21.643450 -17.657499
13.089700 21.472950 -16.200800
13.350100 -22.230850 -16.200800
13.158400 -22.186251 -17.657499
13.343900 21.419950 15.295300
13.343900 21.419950 -16.200800
13.343900 22.477751 -16.200800
13.188900 22.596649 -16.200800
12.814900 22.696850 -16.200800
12.440900 22.596649 -16.200800
12.167100 22.322849 -16.200800
12.066900 21.948851 -16.200800
12.167100 21.574850 -16.200800
12.440900 21.301050 -16.200800
12.814900 21.200850 -16.200800
13.188900 21.301050 -16.200800
13.343900 21.419950 -16.200800
13.290800 21.674150 -16.200800
13.089700 21.472950 -16.200800
12.957100 21.418051 -16.200800
12.672700 21.418051 -16.200800
12.540200 21.472950 -16.200800
12.339100 21.674150 -16.200800
12.265400 21.948851 -16.200800
12.339100 22.223551 -16.200800
12.540200 22.424749 -16.200800
12.672700 22.479650 -16.200800
12.957100 22.479650 -16.200800
13.089700 22.424749 -16.200800
13.290800 22.223551 -16.200800
-13.437600 -22.244049 7.262800
-13.437600 22.086651 7.262800
-13.208200 22.086651 7.395300
-13.208200 -22.244049 7.395300
12.723700 22.289450 -17.657499
12.672700 22.479650 -16.200800
12.814900 22.301451 -17.657499
12.638600 22.254250 -17.657499
12.509500 22.125151 -17.657499
12.474300 22.040150 -17.657499
12.474300 21.857550 -17.657499
12.509500 21.772551 -17.657499
12.638600 21.643450 -17.657499
12.814900 21.596251 -17.657499
12.991200 21.643450 -17.657499
13.120300 21.772551 -17.657499
13.167600 21.948851 -17.657499
13.120300 22.125151 -17.657499
13.064300 22.198250 -17.657499
12.906200 22.289450 -17.657499
13.188900 22.596649 15.295300
13.188900 22.596649 -16.200800
12.524600 -21.639750 -16.200800
12.628600 -21.806850 -17.657499
13.340700 -21.946550 -16.200800
13.152300 -22.003750 -17.657499
-12.480300 21.496050 8.129900
-12.480300 22.086651 8.129900
-12.513900 22.086651 7.875200
-12.513900 21.496050 7.875200
-12.480300 21.496050 12.066900
-12.480300 22.086651 12.066900
-12.480300 22.086651 8.129900
-12.480300 21.496050 8.129900
-10.315000 -23.031450 12.066900
-12.480300 -23.031450 12.066900
-12.480300 -23.031450 15.295300
-9.055100 -23.031450 15.295300
-12.480300 -23.031450 15.295300
-12.480300 -19.606251 15.295300
-12.480300 -20.866150 12.066900
-12.480300 -23.031450 12.066900
-12.513900 21.496050 7.875200
-12.513900 22.086651 7.875200
-12.612200 22.086651 7.637800
-12.612200 21.496050 7.637800
13.740100 -23.031450 15.295300
10.314900 -23.031450 15.295300
11.574800 -23.031450 12.066900
13.740100 -23.031450 12.066900
13.740100 22.874050 15.295300
13.740100 19.448851 15.295300
13.740100 20.708651 12.066900
13.740100 22.874050 12.066900
-13.209900 21.496050 7.179200
-12.972500 21.496050 7.277500
-12.972500 22.086651 7.277500
-13.209900 22.086651 7.179200
-12.972500 -22.244049 7.277500
-12.768600 -22.244049 7.434000
-12.768600 -21.653549 7.434000
-12.972500 -21.653549 7.277500
-14.160600 -22.244049 7.434000
-13.956700 -22.244049 7.277500
-13.956700 -21.653549 7.277500
-14.160600 -21.653549 7.434000
-13.209900 -22.244049 7.179200
-12.972500 -22.244049 7.277500
-12.972500 -21.653549 7.277500
-13.209900 -21.653549 7.179200
13.343900 22.477751 15.295300
13.343900 22.477751 -16.200800
-14.317000 -21.653549 7.637800
-14.317000 -22.244049 7.637800
-14.160600 -22.244049 7.434000
-14.160600 -21.653549 7.434000
-13.437600 -22.244049 8.251600
-13.702500 -22.244049 8.251600
-13.932000 -22.244049 8.119100
-14.013300 -22.244049 8.013100
-14.081900 -22.244049 7.757200
-14.013300 -22.244049 7.501300
-13.932000 -22.244049 7.395300
-13.702500 -22.244049 7.262800
-13.437600 -22.244049 7.262800
-13.208200 -22.244049 7.395300
-13.075700 -22.244049 7.624700
-13.075700 -22.244049 7.889700
-13.208200 -22.244049 8.119100
-11.214500 -22.014950 -17.657499
-11.214500 -22.197550 -17.657499
-11.305800 -22.355650 -17.657499
-11.378800 -22.411650 -17.657499
-11.555100 -22.458851 -17.657499
-11.731500 -22.411650 -17.657499
-11.804500 -22.355650 -17.657499
-11.895800 -22.197550 -17.657499
-11.895800 -22.014950 -17.657499
-11.804500 -21.856951 -17.657499
-11.731500 -21.800850 -17.657499
-11.555100 -21.753651 -17.657499
-11.378800 -21.800850 -17.657499
-11.305800 -21.856951 -17.657499
-13.075700 22.086651 7.889700
-13.075700 22.086651 7.624700
-13.208200 22.086651 7.395300
-13.437600 22.086651 7.262800
-13.702500 22.086651 7.262800
-13.932000 22.086651 7.395300
-14.013300 22.086651 7.501300
-14.081900 22.086651 7.757200
-14.013300 22.086651 8.013100
-13.932000 22.086651 8.119100
-13.702500 22.086651 8.251600
-13.437600 22.086651 8.251600
-13.208200 22.086651 8.119100
-13.932000 -22.244049 7.395300
-13.932000 22.086651 7.395300
-13.702500 22.086651 7.262800
-13.702500 -22.244049 7.262800
-14.081900 22.086651 7.757200
-14.081900 -22.244049 7.757200
-14.013300 -22.244049 7.501300
-14.013300 22.086651 7.501300
-12.085900 22.091049 -16.200800
-11.895800 22.040150 -17.657499
-11.181100 22.596649 15.295300
-11.555100 22.696850 15.295300
-11.929200 22.596649 15.295300
-12.203000 22.322849 15.295300
-12.303200 21.948851 15.295300
-12.203000 21.574850 15.295300
-11.929200 21.301050 15.295300
-11.555100 21.200850 15.295300
-11.181100 21.301050 15.295300
-10.907300 21.574850 15.295300
-10.807100 21.948851 15.295300
-10.907300 22.322849 15.295300
-12.716600 -23.622049 17.657499
14.055100 -23.622049 17.657499
14.055100 23.622049 17.657499
-12.716600 23.622049 17.657499
14.435400 23.622049 17.365700
14.448800 23.622049 15.295300
-13.110300 23.622049 15.295300
-13.096900 23.622049 17.365700
-12.995000 23.622049 17.542200
-12.818500 23.622049 17.644100
14.205800 23.622049 17.627501
14.333500 23.622049 17.542200
13.537500 21.755251 -16.200800
13.537500 21.755251 15.295300
-13.110300 23.622049 17.263800
-13.110300 -23.622049 17.263800
14.448800 -23.622049 17.263800
14.448800 23.622049 17.263800
-13.096900 -23.622049 17.365700
-13.110300 -23.622049 15.295300
14.448800 -23.622049 15.295300
14.435400 -23.622049 17.365700
14.333500 -23.622049 17.542200
14.205800 -23.622049 17.627501
-12.818500 -23.622049 17.644100
-12.995000 -23.622049 17.542200
4 0 1 2 3
4 4 5 6 7
4 8 9 10 11
4 12 13 14 15
4 16 17 18 19
4 20 21 22 23
4 24 25 26 27
4 28 29 30 31
4 32 33 34 35
4 36 37 38 39
4 40 41 42 43
4 44 45 46 47
4 48 49 50 51
4 52 53 54 55
4 56 39 38 57
4 58 59 60 61
4 62 63 64 65
4 66 67 68 69
4 70 71 72 73
4 74 75 76 77
4 78 79 80 81
4 82 83 84 85
10 86 87 88 89 90 91 92 93 94 95
4 96 97 98 99
4 100 101 102 103
21 95 94 104 105 106 107 108 109 110 111 112 91 90 113 114 115 116 117 118 119 120
4 121 122 123 124
4 125 126 127 128
4 129 130 131 132
4 133 134 135 136
4 137 71 70 138
4 139 140 141 142
14 143 144 145 146 147 148 149 150 151 152 153 154 155 156
4 157 158 159 160
4 161 162 163 164
4 75 165 166 76
4 167 168 169 170
4 171 172 173 174
4 175 176 177 178
4 179 180 181 182
4 183 184 185 186
4 12 187 188 13
4 189 190 191 192
14 193 194 195 196 197 198 199 200 201 202 203 204 205 206
14 207 208 209 210 211 212 213 214 215 216 217 218 219 220
4 221 222 223 224
27 225 226 227 228 229 230 231 232 233 234 235 236 237 238 239 240 241 242 243 244 245 246 247 248 249 250 251
4 55 54 252 253
4 254 255 256 257
4 258 259 260 261
4 262 263 264 265
4 266 267 268 269
4 270 271 272 273
4 274 275 276 277
4 278 279 280 281
4 282 283 284 285
4 286 287 288 289
4 290 291 292 293
4 294 295 296 297
4 21 298 299 22
4 300 301 302 303
4 304 305 306 307
4 308 309 310 311
13 312 313 314 315 316 317 318 319 320 321 322 323 324
4 174 173 325 326
4 327 61 60 328
4 52 329 330 53
4 331 332 164 163
4 333 334 335 336
4 165 337 338 166
4 339 340 341 342
13 343 344 345 346 347 348 349 350 351 352 353 354 355
15 356 357 358 359 360 361 362 363 364 365 366 367 368 369 370
9 371 372 373 374 375 376 377 378 379
4 380 221 224 381
4 382 383 330 329
4 24 384 385 25
4 386 387 388 389
4 390 391 392 393
4 394 395 396 397
4 398 399 400 401
4 402 403 404 405
4 306 406 407 307
4 408 409 410 411
4 186 185 412 413
4 414 415 416 417
4 418 404 403 419
4 190 420 421 191
4 396 395 422 423
4 409 189 192 410
4 415 414 424 425
4 34 426 427 35
4 428 429 430 431
4 432 433 434 435
27 275 436 437 438 439 440 441 442 443 444 445 446 274 277 447 448 449 450 451 452 453 454 455 456 457 458 276
4 459 460 461 462
4 463 464 465 466
4 125 467 468 126
4 469 470 471 472
4 124 123 473 474
4 253 252 475 476
4 477 386 389 478
4 479 480 481 482
4 483 484 485 486
4 50 487 488 51
4 489 490 491 492
4 480 428 431 481
4 493 474 473 494
10 495 496 497 498 499 500 501 502 503 504
4 505 506 507 508
4 489 413 412 490
4 509 510 511 512
4 63 62 513 514
4 382 67 66 383
4 515 74 77 516
4 517 518 492 491
4 337 519 520 338
4 521 522 523 524
4 222 525 526 223
4 332 331 160 159
4 158 157 37 36
4 515 516 527 528
4 32 529 530 33
24 531 532 374 373 533 534 535 536 537 538 539 540 541 542 378 377 543 544 545 546 547 548 549 550
8 551 552 553 554 555 20 23 556
4 390 557 558 391
4 130 129 559 560
4 121 477 478 122
4 561 562 468 467
4 326 325 563 564
4 565 566 567 568
4 6 5 49 48
4 57 340 339 56
4 569 570 571 572
4 486 485 402 405
4 137 138 573 574
4 575 576 577 578
4 483 574 573 484
4 579 4 7 580
4 394 397 581 582
4 529 583 584 530
4 15 14 423 422
13 585 586 587 588 589 590 591 592 593 594 595 596 597
4 598 599 600 601
4 566 565 602 603
4 604 605 606 607
4 608 582 581 609
4 384 610 611 385
4 610 612 613 611
4 608 609 172 171
4 418 419 407 406
4 381 401 400 380
4 564 563 614 615
4 616 617 399 398
4 618 576 575 619
4 620 621 510 509
4 577 427 426 578
4 487 493 494 488
28 622 623 624 625 626 627 628 629 630 631 632 606 605 633 634 635 636 637 638 639 640 641 642 643 644 645 604 607
4 646 647 648 649
4 421 420 650 651
14 652 653 654 655 656 657 658 659 660 661 662 663 664 665
4 666 667 16 19
4 73 72 305 304
4 429 617 616 430
4 18 17 59 58
4 651 650 27 26
4 668 669 584 583
4 670 671 558 557
4 525 603 602 526
4 672 673 674 675
4 236 235 250 249
4 676 677 678 679
4 680 681 682 683
4 684 685 686 687
4 688 689 690 691
4 692 693 694 695
4 696 697 698 699
4 700 701 702 703
4 704 705 706 707
4 670 618 619 671
4 425 424 613 612
4 708 709 710 711
4 393 392 669 668
4 187 615 614 188
4 712 713 714 715
4 561 65 64 562
4 716 717 667 666
4 718 719 720 721
13 722 723 724 725 726 727 728 729 730 731 732 733 734
4 387 579 580 388
14 735 736 737 738 739 740 741 742 743 744 745 746 747 748
13 749 750 751 752 753 754 755 756 757 758 759 760 761
4 762 763 764 765
4 512 511 717 716
4 128 127 766 767
4 519 177 176 520
4 475 184 183 476
4 69 68 518 517
4 411 417 416 408
4 768 769 763 762
4 766 769 768 767
4 522 770 771 523
4 524 175 178 521
4 765 764 647 646
4 479 482 568 567
4 560 559 327 328
12 772 773 774 775 776 777 778 779 780 781 782 783
4 784 785 786 787
8 788 789 790 791 792 793 794 795
4 796 797 162 161
4 770 528 527 771
4 553 552 798 799
4 497 496 800 801
4 301 502 501 302
4 11 10 797 796
4 621 620 132 131
4 342 341 9 8
8 802 803 804 805 806 807 808 809
4 514 513 649 648
