ply
format ascii 1.0
comment Created by Blender 2.82 (sub 7) - www.blender.org, source file: ''
element vertex 864
property float x
property float y
property float z
element face 239
property list uchar uint vertex_indices
end_header
-11.993560 11.320770 -8.937500
-11.993560 11.320770 -8.687500
-12.113390 11.269020 -8.687500
-12.113390 11.269020 -8.937500
12.241600 -11.187000 -8.687500
12.241600 -11.187000 -8.937500
11.961200 -11.266700 -8.937500
11.961200 -11.266700 -8.687500
12.686700 11.506500 -8.937500
12.749900 11.757470 -8.937500
12.749900 11.757470 -8.687500
12.734800 11.627820 -8.687500
12.734800 11.627820 3.812500
12.608800 11.401770 3.812500
12.608800 11.401770 -8.687500
12.686700 11.506500 -8.687500
12.608800 11.401770 -8.687500
12.608800 11.401770 -8.937500
11.765200 11.872180 3.812500
11.891200 12.098230 3.812500
11.891200 12.098230 -8.687500
11.813300 11.993500 -8.687500
11.891200 12.098230 -8.687500
11.891200 12.098230 -8.937500
11.765200 11.872180 -8.937500
11.820800 11.493560 -8.937500
11.766700 11.461230 -8.937500
11.687000 11.741590 -8.937500
11.769000 11.613390 -8.937500
14.491500 -14.314700 8.625000
14.491500 -14.314700 8.500000
14.491500 -14.185300 8.500000
14.491500 -14.185300 8.625000
-12.372180 11.265160 3.812500
-12.242530 11.250060 3.812500
-14.750000 -13.750000 3.812500
-14.750000 13.750000 3.812500
-12.386610 12.230980 3.812500
-12.608800 12.098230 3.812500
-12.734840 11.872180 3.812500
-12.730980 11.613390 3.812500
-12.598230 11.391200 3.812500
-14.375000 14.466506 8.625000
-14.375000 14.466506 8.500000
-14.466506 14.375000 8.500000
-14.466506 14.375000 8.625000
-12.538770 12.233350 -8.687500
-12.538770 12.233350 -8.937500
-12.741760 12.024200 -8.937500
-12.741760 12.024200 -8.687500
-12.258410 -11.187000 -8.687500
-12.258410 -11.187000 -8.937500
-12.403830 -11.208400 -8.937500
-12.403830 -11.208400 -8.687500
14.750000 -14.750000 8.625000
14.750000 -14.750000 8.937500
-14.750000 -14.750000 8.937500
-14.750000 -14.750000 8.625000
-12.258410 12.312980 -8.937500
-12.258410 12.312980 -8.687500
-11.975800 12.241760 -8.687500
-11.975800 12.241760 -8.937500
14.750000 13.750000 4.812500
14.750000 13.750000 3.812500
14.750000 14.750000 3.812500
14.750000 14.750000 8.500000
14.750000 13.750000 8.500000
12.524200 -11.258200 -8.937500
12.524200 -11.258200 -8.687500
12.733300 -11.461200 -8.687500
12.733300 -11.461200 -8.937500
-11.901770 -11.391200 3.812500
-11.901770 -11.391200 -8.687500
-12.127820 -11.265200 -8.687500
-12.127820 -11.265200 3.812500
-14.073223 14.426777 8.625000
-14.073223 14.426777 8.500000
-14.125000 14.466506 8.500000
-14.125000 14.466506 8.625000
-11.891200 -12.098200 -8.687500
-11.891200 -12.098200 -8.937500
-11.993560 -12.179200 -8.937500
-11.993560 -12.179200 -8.687500
14.250000 14.500000 8.500000
14.375000 14.466506 8.500000
-14.750000 14.750000 8.500000
-14.750000 13.750000 8.500000
14.466500 14.375000 8.500000
14.491500 14.314705 8.500000
14.491500 14.185295 8.500000
14.426800 14.073223 8.500000
14.314700 14.008519 8.500000
14.185300 14.008519 8.500000
14.073200 14.073223 8.500000
14.008500 14.185295 8.500000
14.008500 14.314705 8.500000
14.073200 14.426777 8.500000
14.185300 14.491482 8.500000
-14.185295 14.008518 8.625000
-14.073223 14.073223 8.625000
-14.008518 14.185295 8.625000
-14.008518 14.314705 8.625000
-14.073223 14.426777 8.625000
-14.125000 14.466506 8.625000
-14.250000 14.500000 8.625000
-14.375000 14.466506 8.625000
-14.466506 14.375000 8.625000
-14.500000 14.250000 8.625000
-14.466506 14.125000 8.625000
-14.426777 14.073223 8.625000
-14.314705 14.008518 8.625000
-14.008518 -14.185300 8.625000
-14.008518 -14.185300 8.500000
-14.073223 -14.073200 8.500000
-14.073223 -14.073200 8.625000
-11.891200 11.401770 -8.687500
-11.891200 11.401770 -8.937500
-11.993560 11.320770 -8.937500
-11.993560 11.320770 -8.687500
-12.113390 11.269020 3.812500
-12.372180 11.265160 3.812500
-12.372180 11.265160 -8.937500
14.750000 14.750000 8.937500
14.750000 14.750000 8.625000
-14.750000 14.750000 8.625000
-14.750000 14.750000 8.937500
-11.769020 11.886610 3.812500
-11.765160 11.627820 3.812500
-11.765160 11.627820 -8.687500
-11.769020 11.886610 -8.687500
14.008500 -14.314700 8.500000
14.000000 -14.250000 8.500000
-14.750000 -14.750000 8.500000
14.750000 -14.750000 8.500000
14.491500 -14.185300 8.500000
14.491500 -14.314700 8.500000
14.426800 -14.426800 8.500000
14.314700 -14.491500 8.500000
14.185300 -14.491500 8.500000
14.073200 -14.426800 8.500000
-12.608800 12.098230 -8.687500
-12.608800 12.098230 3.812500
-12.386610 12.230980 3.812500
-12.386610 12.230980 -8.687500
12.598200 -11.391200 3.812500
12.731000 -11.613400 3.812500
12.731000 -11.613400 -8.687500
12.598200 -11.391200 -8.687500
-14.750000 -13.750000 4.812500
-14.750000 -13.750000 3.812500
14.750000 -13.750000 3.812500
14.750000 -13.750000 4.812500
14.185300 14.008518 8.625000
14.185300 14.008518 8.500000
14.314700 14.008518 8.500000
14.314700 14.008518 8.625000
-11.891200 -12.098200 3.812500
-12.113390 -12.231000 3.812500
-12.113390 -12.231000 -8.687500
-11.891200 -12.098200 -8.687500
-12.372180 -12.234800 3.812500
-12.372180 -12.234800 -8.937500
-12.113390 -12.231000 -8.937500
-11.766650 12.038770 -8.687500
-11.687020 11.758410 -8.687500
-11.687020 11.758410 -8.937500
-11.766650 12.038770 -8.937500
14.185300 14.008518 8.625000
14.314700 14.008518 8.625000
14.426800 14.073223 8.625000
14.491500 14.185295 8.625000
14.491500 14.314705 8.625000
14.426800 14.426777 8.625000
14.314700 14.491481 8.625000
14.185300 14.491481 8.625000
14.073200 14.426777 8.625000
14.008500 14.314705 8.625000
14.008500 14.185295 8.625000
14.073200 14.073223 8.625000
11.961200 12.233350 -8.687500
11.961200 12.233350 -8.937500
11.758200 12.024200 -8.937500
11.758200 12.024200 -8.687500
11.708400 11.596170 -8.687500
11.687000 11.741590 -8.687500
11.687000 11.741590 -8.937500
11.708400 11.596170 -8.937500
-12.096170 -12.291600 -8.937500
-12.096170 -12.291600 -8.687500
-12.241590 -12.313000 -8.687500
-12.241590 -12.313000 -8.937500
-12.127820 12.234840 -8.687500
-12.127820 12.234840 3.812500
-11.901770 12.108800 3.812500
-11.901770 12.108800 -8.687500
-14.073223 -14.426800 8.500000
-14.073223 -14.426800 8.625000
-14.185295 -14.491500 8.625000
-14.185295 -14.491500 8.500000
12.749900 11.757470 -8.687500
12.731000 11.886610 -8.687500
12.731000 11.886610 -8.937500
12.749900 11.757470 -8.937500
-12.734840 -11.627800 -8.937500
-12.734840 -11.627800 3.812500
-12.608800 -11.401800 3.812500
-12.608800 -11.401800 -8.687500
-12.686700 -11.506500 -8.687500
-12.608800 -11.401800 -8.687500
-12.608800 -11.401800 -8.937500
14.426800 -14.073200 8.500000
14.466500 -14.125000 8.500000
14.750000 -13.750000 8.500000
-14.750000 -13.750000 8.500000
14.008500 -14.185300 8.500000
14.073200 -14.073200 8.500000
14.185300 -14.008500 8.500000
14.314700 -14.008500 8.500000
-14.750000 -13.750000 4.812500
-14.750000 -13.750000 3.812500
-14.750000 -14.750000 3.812500
-12.730980 11.613390 -8.937500
-12.598230 11.391200 -8.937500
-12.493500 11.313300 -8.937500
-12.642140 11.345970 -8.937500
-12.791620 11.596170 -8.937500
-14.750000 -14.750000 8.937500
-14.750000 14.750000 8.937500
-14.750000 14.750000 8.625000
-14.750000 -14.750000 8.625000
-14.750000 -14.750000 8.625000
-14.750000 14.750000 8.625000
-14.750000 14.750000 8.937500
-14.750000 -14.750000 8.937500
12.386600 11.269020 -8.937500
12.127800 11.265160 -8.937500
11.901800 11.391200 -8.937500
11.769000 11.613390 -8.937500
11.765200 11.872180 -8.937500
11.891200 12.098230 -8.937500
12.113400 12.230980 -8.937500
12.372200 12.234840 -8.937500
12.598200 12.108800 -8.937500
12.731000 11.886610 -8.937500
12.734800 11.627820 -8.937500
12.608800 11.401770 -8.937500
12.538800 11.266650 -8.937500
12.538800 11.266650 -8.687500
12.258400 11.187020 -8.687500
12.258400 11.187020 -8.937500
14.750000 13.750000 3.812500
14.750000 13.750000 4.812500
-14.750000 13.750000 4.812500
-14.750000 13.750000 3.812500
-11.901770 -11.391200 -8.687500
-11.901770 -11.391200 -8.937500
-11.769020 -11.613400 -8.937500
-11.769020 -11.613400 -8.687500
12.734800 -11.872200 3.812500
12.734800 -11.872200 -8.687500
-12.386610 -11.269000 3.812500
-12.386610 -11.269000 -8.687500
12.127800 11.265160 3.812500
11.901800 11.391200 3.812500
11.901800 11.391200 -8.937500
12.127800 11.265160 -8.937500
-14.750000 13.750000 4.812500
-14.750000 13.750000 3.812500
-14.750000 13.750000 4.812500
14.750000 13.750000 4.812500
14.750000 13.750000 3.812500
14.750000 -13.750000 4.812500
14.750000 -13.750000 3.812500
-14.750000 -13.750000 3.812500
-14.750000 -13.750000 4.812500
12.791600 11.903830 -8.687500
12.813000 11.758410 -8.687500
12.813000 11.758410 -8.937500
12.791600 11.903830 -8.937500
11.765200 -11.627800 -8.687500
11.891200 -11.401800 -8.687500
12.113400 -11.269000 -8.687500
12.242500 -11.250100 -8.687500
11.961200 -11.266700 -8.687500
11.758200 -11.475800 -8.687500
11.687000 -11.758400 -8.687500
11.766700 -12.038800 -8.687500
11.975800 -12.241800 -8.687500
12.258400 -12.313000 -8.687500
12.538800 -12.233300 -8.687500
12.741800 -12.024200 -8.687500
12.686700 -11.993500 -8.687500
12.608800 -12.098200 -8.687500
12.386600 -12.231000 -8.687500
12.127800 -12.234800 -8.687500
11.901800 -12.108800 -8.687500
11.769000 -11.886600 -8.687500
-14.314705 -14.008500 8.500000
-14.426777 -14.073200 8.500000
-14.426777 -14.073200 8.625000
-14.314705 -14.008500 8.625000
-11.766650 -11.461200 -8.687500
-11.687020 -11.741600 -8.687500
-11.687020 -11.741600 -8.937500
-11.766650 -11.461200 -8.937500
-11.975800 -11.258200 -8.687500
-11.975800 -11.258200 -8.937500
11.769000 11.613390 3.812500
11.769000 11.613390 -8.937500
-12.258410 -11.187000 -8.937500
-11.975800 -11.258200 -8.937500
-11.766650 -11.461200 -8.937500
-11.687020 -11.741600 -8.937500
-11.758240 -12.024200 -8.937500
-11.845970 -12.142100 -8.937500
-12.096170 -12.291600 -8.937500
-12.387580 -12.296000 -8.937500
-12.242530 -12.249900 -8.937500
-12.113390 -12.231000 -8.937500
-11.891200 -12.098200 -8.937500
-11.765160 -11.872200 -8.937500
-11.769020 -11.613400 -8.937500
-11.901770 -11.391200 -8.937500
-12.127820 -11.265200 -8.937500
-12.386610 -11.269000 -8.937500
-12.608800 -11.401800 -8.937500
-12.734840 -11.627800 -8.937500
-12.730980 -11.886600 -8.937500
-12.598230 -12.108800 -8.937500
-12.642140 -12.154000 -8.937500
-12.733350 -12.038800 -8.937500
-12.812980 -11.758400 -8.937500
-12.741760 -11.475800 -8.937500
-12.654030 -11.357900 -8.937500
-12.403830 -11.208400 -8.937500
-12.654030 -11.357900 -8.937500
-12.654030 -11.357900 -8.687500
-14.185295 -14.008500 8.625000
-14.185295 -14.008500 8.500000
12.741800 11.475800 -8.687500
12.741800 11.475800 -8.937500
14.008500 -14.185300 8.625000
14.073200 -14.073200 8.625000
14.073200 -14.073200 8.500000
14.008500 -14.185300 8.500000
-12.598230 11.391200 -8.937500
-12.598230 11.391200 3.812500
-12.730980 11.613390 3.812500
-12.730980 11.613390 -8.937500
-14.750000 -13.750000 4.812500
14.750000 -13.750000 4.812500
14.750000 13.750000 4.812500
-14.750000 13.750000 4.812500
14.426800 14.073223 8.500000
14.426800 14.073223 8.625000
-14.750000 13.750000 3.812500
-14.750000 14.750000 3.812500
14.008500 14.314705 8.625000
14.073200 14.426777 8.625000
14.073200 14.426777 8.500000
14.008500 14.314705 8.500000
14.491500 14.185295 8.625000
14.491500 14.185295 8.500000
14.491500 14.314705 8.500000
14.491500 14.314705 8.625000
12.493500 -11.313300 -8.687500
12.493500 -11.313300 -8.937500
12.372200 -11.265200 -8.937500
12.372200 -11.265200 -8.687500
-14.314705 -14.491500 8.625000
-14.314705 -14.491500 8.500000
-11.891200 11.401770 -8.687500
-11.891200 11.401770 3.812500
12.598200 -11.391200 -8.937500
12.598200 -11.391200 -8.687500
12.493500 -11.313300 -8.687500
12.493500 -11.313300 -8.937500
-14.426777 -14.426800 8.625000
-14.426777 -14.426800 8.500000
14.750000 -13.750000 3.812500
14.750000 -14.750000 3.812500
14.750000 -13.750000 4.812500
14.750000 14.750000 8.625000
-14.750000 14.750000 8.625000
-14.750000 -14.750000 8.625000
14.750000 -14.750000 8.625000
14.185300 -14.008500 8.500000
14.185300 -14.008500 8.625000
14.314700 -14.008500 8.625000
14.314700 -14.008500 8.500000
-14.750000 14.750000 8.937500
14.750000 14.750000 8.937500
14.750000 -14.750000 8.937500
-14.750000 -14.750000 8.937500
14.073200 -14.073200 8.625000
14.008500 -14.185300 8.625000
14.008500 -14.314700 8.625000
14.073200 -14.426800 8.625000
14.185300 -14.491500 8.625000
14.314700 -14.491500 8.625000
14.426800 -14.426800 8.625000
14.491500 -14.314700 8.625000
14.491500 -14.185300 8.625000
14.426800 -14.073200 8.625000
14.314700 -14.008500 8.625000
14.185300 -14.008500 8.625000
-12.733350 11.461230 -8.687500
-12.812980 11.741590 -8.687500
-12.812980 11.741590 -8.937500
-12.733350 11.461230 -8.937500
11.891200 -11.401800 -8.687500
11.891200 -11.401800 3.812500
12.113400 -11.269000 3.812500
12.113400 -11.269000 -8.687500
-12.734840 11.872180 3.812500
-12.734840 11.872180 -8.937500
11.765200 -11.627800 -8.937500
11.765200 -11.627800 3.812500
11.813300 -11.506500 -8.687500
11.891200 -11.401800 -8.687500
11.891200 -11.401800 -8.937500
12.113400 12.230980 -8.937500
12.113400 12.230980 -8.687500
12.113400 12.230980 3.812500
12.372200 12.234840 3.812500
12.372200 12.234840 -8.687500
12.372200 12.234840 -8.937500
-14.250000 14.500000 8.500000
-14.250000 14.500000 8.625000
-12.127820 -11.265200 -8.937500
-12.386610 -11.269000 -8.937500
12.608800 -12.098200 3.812500
12.386600 -12.231000 3.812500
12.386600 -12.231000 -8.687500
12.608800 -12.098200 -8.687500
14.008500 14.185295 8.500000
14.008500 14.185295 8.625000
12.257500 -12.249900 -8.937500
12.112400 -12.296000 -8.937500
11.975800 -12.241800 -8.937500
12.127800 -12.234800 -8.937500
14.750000 -13.750000 3.812500
14.750000 13.750000 3.812500
14.008500 -14.314700 8.625000
14.008500 -14.314700 8.500000
12.386600 11.269020 -8.937500
12.608800 11.401770 -8.937500
12.734800 11.627820 -8.937500
12.731000 11.886610 -8.937500
12.598200 12.108800 -8.937500
12.372200 12.234840 -8.937500
12.113400 12.230980 -8.937500
11.891200 12.098230 -8.937500
11.765200 11.872180 -8.937500
11.758200 12.024200 -8.937500
11.961200 12.233350 -8.937500
12.241600 12.312980 -8.937500
12.524200 12.241760 -8.937500
12.642100 12.154030 -8.937500
12.791600 11.903830 -8.937500
12.813000 11.758410 -8.937500
12.741800 11.475800 -8.937500
12.538800 11.266650 -8.937500
12.258400 11.187020 -8.937500
11.975800 11.258240 -8.937500
12.006500 11.313300 -8.937500
12.127800 11.265160 -8.937500
14.073200 14.073223 8.625000
14.073200 14.073223 8.500000
14.314700 14.491481 8.625000
14.314700 14.491481 8.500000
14.185300 14.491481 8.500000
14.185300 14.491481 8.625000
-11.765160 -11.872200 3.812500
-11.813300 -11.993500 -8.687500
-11.891200 -12.098200 -8.687500
-11.891200 -12.098200 -8.937500
-11.765160 -11.872200 -8.937500
-11.765160 -11.872200 -8.687500
12.241600 12.312980 -8.687500
12.241600 12.312980 -8.937500
11.993600 12.179230 3.812500
11.891200 12.098230 3.812500
-11.901770 12.108800 3.812500
-12.006500 12.186700 3.812500
-14.426777 14.073223 8.625000
-14.466506 14.125000 8.625000
-14.466506 14.125000 8.500000
-14.426777 14.073223 8.500000
-12.524200 -12.241800 -8.687500
-12.733350 -12.038800 -8.687500
-12.733350 -12.038800 -8.937500
-12.524200 -12.241800 -8.937500
-12.598230 -12.108800 3.812500
-12.598230 -12.108800 -8.937500
-14.008518 14.314705 8.625000
-14.008518 14.314705 8.500000
-14.314705 14.008518 8.500000
-14.314705 14.008518 8.625000
-11.758240 11.475800 -8.687500
-11.758240 11.475800 -8.937500
-14.185295 14.008518 8.500000
-14.185295 14.008518 8.625000
-14.073223 14.073223 8.500000
-14.073223 14.073223 8.625000
12.598200 12.108800 3.812500
12.598200 12.108800 -8.687500
-12.113390 11.269020 -8.937500
-12.372180 11.265160 -8.937500
-12.598230 11.391200 -8.937500
-12.730980 11.613390 -8.937500
-12.734840 11.872180 -8.937500
-12.608800 12.098230 -8.937500
-12.386610 12.230980 -8.937500
-12.127820 12.234840 -8.937500
-11.901770 12.108800 -8.937500
-11.769020 11.886610 -8.937500
-11.765160 11.627820 -8.937500
-11.891200 11.401770 -8.937500
-14.073223 -14.073200 8.625000
-14.185295 -14.008500 8.625000
-14.314705 -14.008500 8.625000
-14.426777 -14.073200 8.625000
-14.491481 -14.185300 8.625000
-14.491481 -14.314700 8.625000
-14.426777 -14.426800 8.625000
-14.314705 -14.491500 8.625000
-14.185295 -14.491500 8.625000
-14.073223 -14.426800 8.625000
-14.008518 -14.314700 8.625000
-14.008518 -14.185300 8.625000
-11.901770 12.108800 -8.687500
-11.901770 12.108800 -8.937500
-11.769020 11.886610 -8.937500
-11.769020 11.886610 -8.687500
-11.758240 -12.024200 -8.687500
-11.758240 -12.024200 -8.937500
12.524200 12.241760 -8.687500
12.524200 12.241760 -8.937500
-14.008518 14.185295 8.625000
-14.008518 14.185295 8.500000
14.426800 14.426777 8.625000
14.426800 14.426777 8.500000
-12.608800 12.098230 -8.937500
-12.608800 12.098230 -8.687500
-12.386610 12.230980 -8.937500
-12.113390 11.269020 3.812500
-11.891200 11.401770 3.812500
-11.765160 11.627820 3.812500
-11.769020 11.886610 3.812500
11.765200 11.872180 3.812500
11.769000 11.613390 3.812500
11.901800 11.391200 3.812500
12.127800 11.265160 3.812500
12.386600 11.269020 3.812500
12.608800 11.401770 3.812500
12.734800 11.627820 3.812500
12.731000 11.886610 3.812500
12.598200 12.108800 3.812500
12.372200 12.234840 3.812500
12.113400 12.230980 3.812500
-12.127820 12.234840 3.812500
-12.730980 -11.886600 -8.937500
-12.730980 -11.886600 3.812500
-14.008518 -14.314700 8.625000
-14.008518 -14.314700 8.500000
-14.500000 14.250000 8.500000
-14.500000 14.250000 8.625000
-11.813300 11.506500 -8.687500
-11.891200 11.401770 -8.687500
-11.891200 11.401770 -8.937500
-11.765160 11.627820 -8.937500
14.314700 -14.491500 8.500000
14.314700 -14.491500 8.625000
14.185300 -14.491500 8.625000
14.185300 -14.491500 8.500000
-11.769020 -11.613400 3.812500
-11.769020 -11.613400 -8.687500
-14.491481 -14.185300 8.625000
-14.491481 -14.185300 8.500000
14.750000 14.750000 8.937500
14.750000 -14.750000 8.937500
14.750000 -14.750000 8.625000
14.750000 14.750000 8.625000
14.750000 14.750000 8.625000
14.750000 -14.750000 8.625000
14.750000 -14.750000 8.937500
14.750000 14.750000 8.937500
-14.750000 -14.750000 8.937500
14.750000 -14.750000 8.937500
14.750000 14.750000 8.937500
-14.750000 14.750000 8.937500
14.750000 -14.750000 8.625000
-14.750000 -14.750000 8.625000
-14.750000 14.750000 8.625000
14.750000 14.750000 8.625000
-14.750000 -14.750000 8.625000
-14.750000 -14.750000 8.937500
14.750000 -14.750000 8.937500
14.750000 -14.750000 8.625000
-14.750000 14.750000 8.937500
-14.750000 14.750000 8.625000
14.750000 14.750000 8.625000
14.750000 14.750000 8.937500
14.073200 -14.426800 8.625000
14.073200 -14.426800 8.500000
12.731000 11.886610 3.812500
12.731000 11.886610 -8.687500
-12.524200 11.258240 -8.687500
-12.524200 11.258240 -8.937500
-12.241590 11.187020 -8.937500
-12.241590 11.187020 -8.687500
12.598200 12.108800 -8.937500
12.598200 12.108800 -8.687500
12.493500 12.186700 -8.687500
12.493500 12.186700 -8.937500
14.426800 -14.426800 8.500000
14.426800 -14.426800 8.625000
-12.812980 -11.758400 -8.687500
-12.741760 -11.475800 -8.687500
-12.741760 -11.475800 -8.937500
-12.812980 -11.758400 -8.937500
-12.241590 11.187020 -8.687500
-11.961230 11.266650 -8.687500
-11.993560 11.320770 -8.687500
-12.113390 11.269020 -8.687500
-12.372180 11.265160 -8.687500
-12.598230 11.391200 -8.687500
-12.730980 11.613390 -8.687500
-12.734840 11.872180 -8.687500
-12.608800 12.098230 -8.687500
-12.386610 12.230980 -8.687500
-12.127820 12.234840 -8.687500
-11.901770 12.108800 -8.687500
-11.769020 11.886610 -8.687500
-11.708380 11.903830 -8.687500
-11.857860 12.154030 -8.687500
-11.975800 12.241760 -8.687500
-12.258410 12.312980 -8.687500
-12.538770 12.233350 -8.687500
-12.741760 12.024200 -8.687500
-12.812980 11.741590 -8.687500
-12.733350 11.461230 -8.687500
-12.524200 11.258240 -8.687500
-11.891200 11.401770 -8.937500
-11.765160 11.627820 -8.937500
-11.769020 11.886610 -8.937500
-11.901770 12.108800 -8.937500
-12.127820 12.234840 -8.937500
-12.386610 12.230980 -8.937500
-12.608800 12.098230 -8.937500
-12.734840 11.872180 -8.937500
-12.812980 11.741590 -8.937500
-12.741760 12.024200 -8.937500
-12.538770 12.233350 -8.937500
-12.258410 12.312980 -8.937500
-11.975800 12.241760 -8.937500
-11.766650 12.038770 -8.937500
-11.687020 11.758410 -8.937500
-11.758240 11.475800 -8.937500
-11.961230 11.266650 -8.937500
-12.241590 11.187020 -8.937500
-12.524200 11.258240 -8.937500
-12.372180 11.265160 -8.937500
-12.113390 11.269020 -8.937500
12.493500 12.186700 -8.687500
12.493500 12.186700 -8.937500
-11.758240 11.475800 -8.687500
-11.687020 11.758410 -8.687500
-11.765160 11.627820 -8.687500
-11.891200 11.401770 -8.687500
12.127800 -12.234800 3.812500
11.901800 -12.108800 3.812500
11.901800 -12.108800 -8.937500
12.127800 -12.234800 -8.937500
11.891200 -11.401800 -8.937500
12.113400 -11.269000 -8.937500
12.372200 -11.265200 -8.937500
12.598200 -11.391200 -8.937500
12.731000 -11.613400 -8.937500
12.734800 -11.872200 -8.937500
12.608800 -12.098200 -8.937500
12.386600 -12.231000 -8.937500
12.127800 -12.234800 -8.937500
11.901800 -12.108800 -8.937500
11.769000 -11.886600 -8.937500
11.765200 -11.627800 -8.937500
12.813000 -11.741600 -8.687500
12.741800 -12.024200 -8.687500
12.741800 -12.024200 -8.937500
12.813000 -11.741600 -8.937500
12.258400 -12.313000 -8.687500
11.975800 -12.241800 -8.687500
11.975800 -12.241800 -8.937500
12.258400 -12.313000 -8.937500
12.538800 -12.233300 -8.687500
12.538800 -12.233300 -8.937500
11.769000 -11.886600 3.812500
11.769000 -11.886600 -8.937500
-11.961230 11.266650 -8.687500
-11.961230 11.266650 -8.937500
12.731000 -11.613400 -8.687500
12.731000 -11.613400 -8.937500
12.749900 -11.742500 -8.687500
12.749900 -11.742500 -8.937500
-11.750060 11.757470 -8.687500
-11.750060 11.757470 -8.937500
12.642100 12.154030 -8.687500
12.642100 12.154030 -8.937500
12.113400 -11.269000 -8.937500
12.372200 -11.265200 3.812500
12.608800 -12.098200 -8.687500
12.608800 -12.098200 -8.937500
12.506400 -12.179200 -8.937500
12.506400 -12.179200 -8.687500
14.426800 -14.073200 8.625000
14.426800 -14.073200 8.500000
12.608800 11.401770 -8.687500
12.608800 11.401770 -8.937500
12.506400 11.320770 -8.937500
12.506400 11.320770 -8.687500
12.506400 11.320770 -8.937500
12.506400 11.320770 -8.687500
12.386600 11.269020 -8.687500
12.386600 11.269020 -8.937500
12.733300 -11.461200 -8.937500
12.813000 -11.741600 -8.937500
12.741800 -12.024200 -8.937500
12.538800 -12.233300 -8.937500
12.258400 -12.313000 -8.937500
12.386600 -12.231000 -8.937500
12.608800 -12.098200 -8.937500
12.734800 -11.872200 -8.937500
12.731000 -11.613400 -8.937500
12.598200 -11.391200 -8.937500
12.372200 -11.265200 -8.937500
12.113400 -11.269000 -8.937500
11.891200 -11.401800 -8.937500
11.765200 -11.627800 -8.937500
11.769000 -11.886600 -8.937500
11.901800 -12.108800 -8.937500
11.766700 -12.038800 -8.937500
11.687000 -11.758400 -8.937500
11.758200 -11.475800 -8.937500
11.961200 -11.266700 -8.937500
12.241600 -11.187000 -8.937500
12.524200 -11.258200 -8.937500
11.766700 -12.038800 -8.687500
11.687000 -11.758400 -8.687500
11.687000 -11.758400 -8.937500
11.766700 -12.038800 -8.937500
12.686700 -11.993500 -8.937500
12.749900 -11.742500 -8.937500
12.749900 -11.742500 -8.687500
12.686700 -11.993500 -8.687500
12.608800 -12.098200 -8.687500
12.608800 -12.098200 -8.937500
11.758200 -11.475800 -8.687500
11.758200 -11.475800 -8.937500
-11.765160 -11.872200 -8.687500
-11.891200 -12.098200 -8.687500
-12.113390 -12.231000 -8.687500
-12.242530 -12.249900 -8.687500
-12.524200 -12.241800 -8.687500
-12.241590 -12.313000 -8.687500
-12.096170 -12.291600 -8.687500
-11.845970 -12.142100 -8.687500
-11.704030 -11.887600 -8.687500
11.857900 11.345970 -8.687500
11.857900 11.345970 -8.937500
-12.386610 -11.269000 -8.937500
-12.127820 -11.265200 -8.937500
-11.901770 -11.391200 -8.937500
-11.769020 -11.613400 -8.937500
-11.765160 -11.872200 -8.937500
-11.891200 -12.098200 -8.937500
-12.113390 -12.231000 -8.937500
-12.372180 -12.234800 -8.937500
-12.598230 -12.108800 -8.937500
-12.730980 -11.886600 -8.937500
-12.734840 -11.627800 -8.937500
-12.608800 -11.401800 -8.937500
-12.006500 -11.313300 -8.687500
-12.006500 -11.313300 -8.937500
12.506400 -12.179200 -8.937500
12.506400 -12.179200 -8.687500
12.386600 -12.231000 -8.937500
12.524200 -11.258200 -8.687500
12.241600 -11.187000 -8.687500
12.493500 -11.313300 -8.687500
12.598200 -11.391200 -8.687500
12.731000 -11.613400 -8.687500
12.734800 -11.872200 -8.687500
12.813000 -11.741600 -8.687500
12.733300 -11.461200 -8.687500
11.975800 11.258240 -8.937500
11.975800 11.258240 -8.687500
-11.750060 11.757470 -8.687500
-11.750060 11.757470 -8.937500
-11.993560 -12.179200 -8.937500
-11.993560 -12.179200 -8.687500
-11.845970 -12.142100 -8.937500
-11.845970 -12.142100 -8.687500
-14.491481 -14.314700 8.625000
-14.491481 -14.314700 8.500000
-11.750060 -11.742500 -8.687500
-11.750060 -11.742500 -8.937500
-11.750060 -11.742500 -8.687500
-11.750060 -11.742500 -8.937500
-12.006500 -11.313300 -8.687500
-12.006500 -11.313300 -8.937500
12.386600 11.269020 3.812500
11.975800 11.258240 -8.687500
12.258400 11.187020 -8.687500
12.538800 11.266650 -8.687500
12.741800 11.475800 -8.687500
12.796000 11.612420 -8.687500
12.749900 11.757470 -8.687500
12.686700 11.506500 -8.687500
12.608800 11.401770 -8.687500
12.386600 11.269020 -8.687500
12.127800 11.265160 -8.687500
11.901800 11.391200 -8.687500
11.769000 11.613390 -8.687500
11.765200 11.872180 -8.687500
11.891200 12.098230 -8.687500
12.113400 12.230980 -8.687500
12.372200 12.234840 -8.687500
12.493500 12.186700 -8.687500
12.679200 12.006440 -8.687500
12.733300 12.038770 -8.687500
12.524200 12.241760 -8.687500
12.241600 12.312980 -8.687500
11.961200 12.233350 -8.687500
11.758200 12.024200 -8.687500
11.687000 11.741590 -8.687500
11.708400 11.596170 -8.687500
11.857900 11.345970 -8.687500
-12.493500 -12.186700 -8.937500
12.813000 11.758410 -8.687500
-12.006500 12.186700 -8.687500
-12.006500 12.186700 -8.937500
-12.127820 12.234840 -8.937500
-12.006500 12.186700 -8.687500
-12.006500 12.186700 -8.937500
-12.493500 -12.186700 -8.687500
-12.598230 -12.108800 -8.687500
-12.730980 -11.886600 -8.687500
-12.734840 -11.627800 -8.687500
-12.608800 -11.401800 -8.687500
-12.386610 -11.269000 -8.687500
-12.127820 -11.265200 -8.687500
-11.901770 -11.391200 -8.687500
-11.769020 -11.613400 -8.687500
-11.687020 -11.741600 -8.687500
-11.766650 -11.461200 -8.687500
-11.975800 -11.258200 -8.687500
-12.258410 -11.187000 -8.687500
-12.403830 -11.208400 -8.687500
-12.654030 -11.357900 -8.687500
-12.741760 -11.475800 -8.687500
-12.812980 -11.758400 -8.687500
-12.733350 -12.038800 -8.687500
-12.686700 11.993500 -8.687500
4 0 1 2 3
4 4 5 6 7
10 8 9 10 11 12 13 14 15 16 17
7 18 19 20 21 22 23 24
4 25 26 27 28
4 29 30 31 32
9 33 34 35 36 37 38 39 40 41
4 42 43 44 45
4 46 47 48 49
4 50 51 52 53
4 54 55 56 57
4 58 59 60 61
5 62 63 64 65 66
4 67 68 69 70
4 71 72 73 74
4 75 76 77 78
4 79 80 81 82
17 83 84 65 85 86 66 87 88 89 90 91 92 93 94 95 96 97
13 98 99 100 101 102 103 104 105 106 107 108 109 110
4 111 112 113 114
4 115 116 117 118
5 119 120 121 3 2
4 122 123 124 125
4 126 127 128 129
10 130 131 132 133 134 135 136 137 138 139
4 140 141 142 143
4 144 145 146 147
4 148 149 150 151
4 152 153 154 155
4 156 157 158 159
5 157 160 161 162 158
4 163 164 165 166
12 167 168 169 170 171 172 173 174 175 176 177 178
4 179 180 181 182
4 183 184 185 186
4 187 188 189 190
4 191 192 193 194
4 195 196 197 198
4 199 200 201 202
7 203 204 205 206 207 208 209
12 210 211 134 133 212 213 132 131 214 215 216 217
5 132 213 218 219 220
5 221 222 223 224 225
4 226 227 228 229
4 230 231 232 233
12 234 235 236 237 238 239 240 241 242 243 244 245
4 246 247 248 249
4 250 251 252 253
4 254 255 256 257
4 145 258 259 146
4 260 261 206 205
4 262 263 264 265
4 62 66 86 266
4 267 268 269 270
4 271 272 273 274
4 275 276 277 278
18 279 280 281 282 283 284 285 286 287 288 289 290 291 292 293 294 295 296
4 297 298 299 300
4 301 302 303 304
4 51 50 305 306
4 264 263 307 308
26 309 310 311 312 313 314 315 316 317 318 319 320 321 322 323 324 325 326 327 328 329 330 331 332 333 334
4 335 336 53 52
4 337 338 297 300
4 276 339 340 277
4 341 342 343 344
4 345 346 347 348
4 349 350 351 352
4 353 354 155 154
4 63 355 356 64
4 357 358 359 360
4 361 362 363 364
4 365 366 367 368
4 198 197 369 370
4 371 372 119 2
4 373 374 375 376
4 377 378 370 369
4 379 380 220 219
5 133 380 379 381 212
4 59 58 47 46
4 380 133 132 220
4 382 383 384 385
4 386 387 388 389
4 390 391 392 393
12 394 395 396 397 398 399 400 401 402 403 404 405
5 266 86 85 356 355
4 406 407 408 409
4 410 411 412 413
4 348 347 414 415
7 416 417 411 410 418 419 420
6 421 422 423 424 425 426
4 427 43 42 428
4 114 113 338 337
6 73 429 430 261 260 74
4 431 432 433 434
4 357 360 435 436
4 437 438 439 440
4 351 350 441 442
4 20 19 423 422
4 443 341 344 444
26 445 446 447 448 449 450 451 452 453 28 27 454 455 456 457 458 459 460 461 462 463 464 26 25 465 466
4 467 436 435 468
4 469 470 471 472
8 473 156 159 474 475 476 477 478
4 180 179 479 480
4 481 482 483 484
4 485 486 487 488
4 489 490 491 492
4 161 160 493 494
4 495 496 76 75
4 65 84 87 66
4 497 498 485 488
4 164 499 500 165
4 498 497 501 502
4 502 501 503 504
4 153 152 467 468
4 505 506 425 424
12 507 508 509 510 511 512 513 514 515 516 517 518
12 519 520 521 522 523 524 525 526 527 528 529 530
4 531 532 533 534
4 302 535 536 303
4 77 427 428 78
4 349 352 36 35
4 537 538 480 479
4 539 540 496 495
4 541 364 363 542
4 543 544 143 545
4 354 353 362 361
4 539 504 503 540
26 36 442 441 35 34 546 547 548 549 483 482 550 551 552 553 554 555 556 557 558 559 560 481 484 561 37
4 562 563 204 203
4 564 196 195 565
4 121 120 346 345
4 542 470 469 541
4 45 44 566 567
8 568 569 570 571 128 127 372 371
4 572 573 574 575
4 576 473 478 577
4 193 126 129 194
4 578 299 298 579
4 212 381 218 213
4 580 581 582 583
4 584 585 586 587
4 588 589 590 591
4 592 593 594 595
4 596 597 598 599
4 600 601 602 603
4 604 443 444 605
4 505 606 607 506
4 407 49 48 408
4 608 406 409 609
4 610 611 608 609
4 612 613 614 615
4 616 617 573 572
4 618 619 620 621
4 60 163 166 61
22 622 623 624 625 626 627 628 629 630 631 632 633 634 635 636 637 638 639 640 641 642 643
25 644 645 646 647 648 649 650 651 221 225 652 653 654 655 656 657 658 659 660 661 662 224 223 663 664
4 562 494 493 563
4 665 666 426 425
8 624 623 667 668 635 634 669 670
4 671 672 673 674
12 675 676 677 678 679 680 681 682 683 684 685 686
4 386 343 342 387
4 209 208 261 430
4 687 688 689 690
4 691 692 693 694
4 688 695 696 689
4 697 417 416 698
4 699 611 610 700
4 701 374 373 702
4 703 701 702 704
4 705 128 571 706
4 673 672 697 698
4 707 708 538 537
6 709 413 412 710 368 367
4 69 687 690 70
4 711 712 713 714
4 339 247 246 340
4 617 616 30 29
4 413 709 420 419
4 715 32 31 716
4 604 605 575 574
4 144 147 368 710
4 717 718 719 720
4 71 576 577 72
4 721 722 723 724
4 24 308 307 18
4 715 716 389 388
26 725 726 727 728 729 438 437 730 731 732 733 734 735 736 737 738 739 740 440 439 741 742 743 744 745 746
4 747 748 749 750
10 751 752 753 259 258 431 434 754 755 756
4 693 692 747 750
4 696 695 691 694
4 707 275 278 708
4 757 7 6 758
4 748 757 758 749
9 759 760 761 762 763 764 765 766 767
4 486 567 566 487
4 65 64 356 85
4 23 22 422 421
4 768 183 186 769
12 770 771 772 773 774 775 776 777 778 779 780 781
4 184 182 181 185
4 499 699 700 500
4 613 612 201 200
4 68 67 5 4
4 255 254 782 783
4 784 785 433 786
12 787 788 283 282 789 790 791 792 291 290 793 794
4 795 796 768 769
4 797 534 533 798
4 799 800 158 162
4 190 189 489 492
4 801 802 188 187
4 803 578 579 804
4 805 257 256 806
4 248 796 795 249
4 807 478 477 808
4 606 12 11 607
4 809 810 429 73
4 14 13 811 723
5 724 723 811 262 265
5 786 433 432 671 674
4 535 802 801 536
26 812 813 814 815 816 817 818 819 820 821 822 823 824 825 826 827 828 829 830 831 832 833 834 835 836 837
5 838 317 316 329 328
5 817 816 839 830 829
4 840 841 842 191
4 305 301 304 306
6 191 842 545 143 142 192
4 619 336 335 620
4 490 618 621 491
4 803 804 378 377
4 532 531 843 844
22 763 762 845 846 847 848 849 850 851 852 853 759 767 854 855 856 857 858 859 860 861 862
4 472 471 359 358
7 415 414 141 140 863 544 543
4 564 565 112 111
