ply
format ascii 1.0
comment Created by Blender 2.82 (sub 7) - www.blender.org, source file: ''
element vertex 294
property float x
property float y
property float z
element face 71
property list uchar uint vertex_indices
end_header
-5.118090 13.779540 -7.972451
-7.086599 13.779540 -7.972451
-7.086599 15.748050 -7.972451
-5.118090 15.748050 -7.972451
-6.446480 -13.779550 7.185050
6.446500 -13.779550 7.185050
5.118100 -13.779550 7.185050
-5.118090 -13.779550 7.185050
5.118100 13.779540 -7.972451
5.118100 13.779540 7.185050
5.118100 15.107930 7.185050
5.118100 15.107930 5.216551
5.118100 14.370090 -4.035440
5.118100 14.370090 -6.003951
-5.118090 -13.779550 7.185050
5.118100 -13.779550 7.185050
-6.446480 -13.779550 7.185050
6.446500 -13.779550 7.185050
-5.708650 -13.779550 -6.003951
-6.475720 -13.779550 -6.003951
-6.475720 13.779540 -6.003951
-5.708650 13.779540 -6.003951
-7.874000 -17.716551 7.972451
7.874000 -17.716551 7.972451
7.874000 17.716551 7.972451
-7.874000 17.716551 7.972451
-6.446480 -13.779550 5.216551
-6.446480 13.779540 5.216551
-6.446480 13.779540 7.185050
-6.446480 -13.779550 7.185050
-5.118090 14.370090 -4.035440
5.118100 14.370090 -4.035440
5.118100 15.157490 -4.035440
-5.118090 15.157490 -4.035440
5.118100 -15.157450 -6.003951
-5.118090 -15.157450 -6.003951
-5.118090 -14.370050 -6.003951
5.118100 -14.370050 -6.003951
-5.708650 13.779540 -4.035440
-5.118090 13.779540 -7.972451
-5.118090 13.779540 7.185050
-6.446480 13.779540 7.185050
-6.446480 13.779540 5.216551
-7.086599 13.779540 5.216551
-7.086599 13.779540 -7.972451
-6.475720 13.779540 -6.003951
-6.475720 13.779540 -4.035440
-5.118090 -15.107850 5.216551
-5.118090 -14.370050 -4.035440
-5.118090 -14.370050 -6.003951
-5.118090 -13.779550 -7.972451
-5.118090 -13.779550 7.185050
-5.118090 -15.107850 7.185050
7.086600 -13.779550 5.216551
7.086600 13.779540 5.216551
7.086600 13.779540 7.185050
7.086600 -13.779550 7.185050
-7.086599 15.748050 7.185050
-7.086599 13.779540 7.185050
-7.874000 -17.716551 7.185050
-7.874000 17.716551 7.185050
-7.086599 -13.779550 5.216551
-6.446480 -13.779550 5.216551
-5.708650 -13.779550 -4.035440
-6.475720 -13.779550 -4.035440
-6.475720 -13.779550 -6.003951
-5.708650 -13.779550 -6.003951
-5.118090 -13.779550 -7.972451
-7.086599 -13.779550 -7.972451
6.446500 13.779540 5.216551
6.446500 13.779540 7.185050
5.118100 13.779540 7.185050
5.706500 13.779540 -6.003951
5.706500 13.779540 -4.035440
6.496100 13.779540 -4.035440
6.496100 13.779540 -6.003951
7.086600 13.779540 -7.972451
7.086600 13.779540 5.216551
-6.446480 -13.779550 7.185050
-5.118090 -13.779550 7.185050
7.086600 -13.779550 5.216551
6.446500 -13.779550 5.216551
6.446500 13.779540 5.216551
7.086600 13.779540 5.216551
6.446500 13.779540 5.216551
6.446500 -13.779550 5.216551
6.446500 -13.779550 7.185050
6.446500 13.779540 7.185050
-5.708650 13.779540 -6.003951
5.118100 -13.779550 -7.972451
5.706500 -13.779550 -6.003951
6.496100 -13.779550 -6.003951
6.496100 -13.779550 -4.035440
5.706500 -13.779550 -4.035440
5.118100 -13.779550 7.185050
6.446500 -13.779550 7.185050
6.446500 -13.779550 5.216551
7.086600 -13.779550 5.216551
7.086600 -13.779550 -7.972451
5.118100 15.107930 5.216551
-5.118090 15.107930 5.216551
-5.118090 15.748050 5.216551
5.118100 15.748050 5.216551
7.086600 -15.748050 -7.972451
7.086600 -13.779550 -7.972451
7.086600 -13.779550 7.185050
7.086600 -15.748050 7.185050
-5.118090 -15.157450 -4.035440
5.118100 -15.157450 -4.035440
5.118100 -14.370050 -4.035440
-5.118090 -14.370050 -4.035440
-5.118090 -15.157450 -6.003951
-5.118090 -15.157450 -4.035440
-5.118090 -15.748050 5.216551
-5.118090 -15.748050 -7.972451
-7.086599 -15.748050 7.185050
-7.086599 15.748050 7.185050
-7.086599 15.748050 -7.972451
-7.086599 13.779540 -7.972451
-7.086599 13.779540 5.216551
-7.086599 -13.779550 5.216551
-7.086599 -13.779550 -7.972451
-7.086599 -15.748050 -7.972451
5.118100 -15.107850 7.185050
-5.118090 -15.107850 7.185050
7.086600 13.779540 -7.972451
5.118100 13.779540 -7.972451
5.118100 15.748050 -7.972451
7.086600 15.748050 -7.972451
-5.118090 -14.370050 -6.003951
-5.118090 -14.370050 -4.035440
5.118100 -14.370050 -4.035440
5.118100 -14.370050 -6.003951
6.496100 -13.779550 -6.003951
5.706500 -13.779550 -6.003951
5.706500 13.779540 -6.003951
6.496100 13.779540 -6.003951
-7.874000 17.716551 7.185050
-7.874000 -17.716551 7.185050
-7.874000 -17.716551 7.972451
-7.874000 17.716551 7.972451
-5.118090 -15.107850 7.185050
5.118100 -15.107850 7.185050
5.118100 15.748050 -7.972451
5.118100 15.748050 7.185050
7.086600 15.748050 7.185050
7.086600 15.748050 -7.972451
5.118100 13.779540 7.185050
5.118100 15.107930 7.185050
-5.118090 15.107930 7.185050
-5.118090 13.779540 7.185050
-6.446480 13.779540 7.185050
6.446500 13.779540 7.185050
7.086600 13.779540 7.185050
7.086600 13.779540 -7.972451
7.086600 15.748050 -7.972451
7.086600 15.748050 7.185050
-7.086599 15.748050 7.185050
7.086600 15.748050 7.185050
7.874000 -17.716551 7.185050
7.874000 17.716551 7.185050
-7.874000 17.716551 7.185050
-7.874000 -17.716551 7.185050
5.118100 15.157490 -6.003951
5.118100 15.157490 -4.035440
5.118100 15.748050 5.216551
5.118100 15.748050 -7.972451
5.118100 -13.779550 -7.972451
5.118100 -15.748050 -7.972451
5.118100 -15.748050 5.216551
5.118100 -15.157450 -4.035440
5.118100 -15.157450 -6.003951
5.118100 -14.370050 -6.003951
5.118100 -15.107850 5.216551
5.118100 -15.107850 7.185050
5.118100 -13.779550 7.185050
5.118100 -14.370050 -4.035440
5.118100 13.779540 -7.972451
-6.446480 -13.779550 5.216551
-7.086599 -13.779550 5.216551
-7.086599 13.779540 5.216551
-6.446480 13.779540 5.216551
-5.118090 15.748050 7.185050
-5.118090 15.748050 -7.972451
-7.086599 15.748050 -7.972451
-7.086599 15.748050 7.185050
-5.118090 15.107930 7.185050
-5.118090 15.107930 5.216551
5.118100 15.107930 5.216551
5.118100 15.107930 7.185050
-5.118090 -15.748050 -7.972451
-7.086599 -15.748050 -7.972451
-7.086599 -13.779550 -7.972451
-5.118090 -13.779550 -7.972451
5.118100 -15.748050 -7.972451
5.118100 -15.748050 7.185050
5.118100 -15.748050 5.216551
-5.118090 -15.157450 -4.035440
-5.118090 -15.157450 -6.003951
5.118100 -15.157450 -6.003951
5.118100 -15.157450 -4.035440
-5.708650 -13.779550 -6.003951
-5.708650 13.779540 -6.003951
-5.708650 13.779540 -4.035440
-5.708650 -13.779550 -4.035440
7.086600 -15.748050 -7.972451
7.086600 -15.748050 7.185050
-5.118090 15.157490 -6.003951
-5.118090 15.157490 -4.035440
5.118100 15.157490 -4.035440
5.118100 15.157490 -6.003951
-5.118090 15.748050 5.216551
-5.118090 15.748050 7.185050
5.118100 15.748050 7.185050
5.118100 15.748050 5.216551
-5.118090 14.370090 -4.035440
-5.118090 14.370090 -6.003951
5.118100 14.370090 -6.003951
5.118100 14.370090 -4.035440
5.118100 14.370090 -6.003951
-5.118090 14.370090 -6.003951
-5.118090 15.157490 -6.003951
5.118100 15.157490 -6.003951
-6.475720 13.779540 -6.003951
-6.475720 -13.779550 -6.003951
-6.475720 -13.779550 -4.035440
-6.475720 13.779540 -4.035440
5.706500 13.779540 -6.003951
5.706500 -13.779550 -6.003951
5.706500 -13.779550 -4.035440
5.706500 13.779540 -4.035440
6.496100 -13.779550 -6.003951
6.496100 13.779540 -6.003951
6.496100 13.779540 -4.035440
6.496100 -13.779550 -4.035440
-5.118090 15.157490 -4.035440
-5.118090 15.157490 -6.003951
-5.118090 15.748050 -7.972451
-5.118090 15.748050 5.216551
-7.874000 17.716551 7.185050
-7.874000 17.716551 7.972451
7.874000 17.716551 7.972451
7.874000 17.716551 7.185050
-5.118090 -15.107850 5.216551
-5.118090 -15.107850 7.185050
5.118100 -15.107850 7.185050
5.118100 -15.107850 5.216551
5.118100 -15.748050 5.216551
-5.118090 -15.748050 5.216551
-5.118090 -15.107850 5.216551
5.118100 -15.107850 5.216551
-7.874000 -17.716551 7.972451
-7.874000 -17.716551 7.185050
7.874000 -17.716551 7.185050
7.874000 -17.716551 7.972451
7.874000 -17.716551 7.185050
7.874000 17.716551 7.185050
7.874000 17.716551 7.972451
7.874000 -17.716551 7.972451
-5.118090 15.107930 5.216551
-5.118090 15.107930 7.185050
-5.118090 13.779540 7.185050
-5.118090 13.779540 -7.972451
-5.118090 14.370090 -6.003951
-5.118090 14.370090 -4.035440
-6.446480 13.779540 7.185050
-5.118090 13.779540 7.185050
-5.118090 15.107930 7.185050
5.118100 15.107930 7.185050
5.118100 13.779540 7.185050
6.446500 13.779540 7.185050
-7.086599 -15.748050 7.185050
7.086600 -15.748050 7.185050
7.086600 15.748050 7.185050
7.874000 17.716551 7.185050
7.874000 -17.716551 7.185050
-5.118090 -15.748050 5.216551
-7.086599 -15.748050 7.185050
-7.086599 -15.748050 -7.972451
-5.118090 -15.748050 -7.972451
-7.086599 -15.748050 7.185050
7.086600 -15.748050 7.185050
-6.475720 -13.779550 -4.035440
-5.708650 -13.779550 -4.035440
-5.708650 13.779540 -4.035440
-6.475720 13.779540 -4.035440
5.706500 -13.779550 -4.035440
6.496100 -13.779550 -4.035440
6.496100 13.779540 -4.035440
5.706500 13.779540 -4.035440
7.086600 -15.748050 -7.972451
5.118100 -15.748050 -7.972451
5.118100 -13.779550 -7.972451
7.086600 -13.779550 -7.972451
4 0 1 2 3
3 4 5 6
3 4 6 7
6 8 9 10 11 12 13
3 14 15 16
3 15 17 16
4 18 19 20 21
4 22 23 24 25
4 26 27 28 29
4 30 31 32 33
4 34 35 36 37
9 38 39 40 41 42 43 44 45 46
6 47 48 49 50 51 52
4 53 54 55 56
4 57 58 59 60
8 61 62 63 64 65 66 67 68
9 69 70 71 72 73 74 75 76 77
6 66 63 62 78 79 67
4 80 81 82 83
4 84 85 86 87
5 39 38 88 45 44
10 89 90 91 92 93 94 95 96 97 98
4 99 100 101 102
4 103 104 105 106
4 107 108 109 110
8 50 49 111 112 48 47 113 114
8 115 116 117 118 119 120 121 122
4 123 124 7 6
4 125 126 127 128
4 129 130 131 132
4 133 134 135 136
4 137 138 139 140
4 15 14 141 142
4 143 144 145 146
8 147 148 149 150 151 16 17 152
4 153 154 155 156
6 157 158 159 160 161 162
8 13 163 164 12 11 165 166 8
6 167 168 169 170 171 172
8 169 173 174 175 167 172 176 170
4 94 93 90 89
5 72 71 177 76 75
4 178 179 180 181
4 182 183 184 185
4 186 187 188 189
4 190 191 192 193
3 194 195 196
4 197 198 199 200
4 201 202 203 204
4 195 194 205 206
4 207 208 209 210
4 211 212 213 214
4 215 216 217 218
4 219 220 221 222
4 223 224 225 226
4 227 228 229 230
4 231 232 233 234
4 235 236 237 238
4 239 240 241 242
4 243 244 245 246
4 247 248 249 250
4 251 252 253 254
4 255 256 257 258
10 259 260 261 262 237 236 263 264 235 238
8 5 4 265 266 267 268 269 270
9 271 272 273 57 60 274 275 59 58
6 276 196 195 277 278 279
6 280 157 162 159 158 281
4 282 283 284 285
4 286 287 288 289
4 290 291 292 293
