ply
format ascii 1.0
comment Created by Blender 2.82 (sub 7) - www.blender.org, source file: ''
element vertex 454
property float x
property float y
property float z
element face 116
property list uchar uint vertex_indices
end_header
13.000000 11.672700 -6.220850
12.627500 11.226772 -8.220850
11.122500 11.226772 -8.220850
10.750000 11.672700 -6.220850
-11.250000 9.577600 7.720850
13.000000 9.577600 7.720850
13.000000 11.672700 7.720850
-11.250000 11.672700 7.720850
-13.000000 11.672700 -6.220850
11.250000 9.577600 -6.220850
-11.250000 9.577600 -6.220850
-13.000000 -11.672700 -6.220850
-12.627525 -11.226800 -8.220850
-12.627525 -9.424900 -8.220850
-13.000000 -8.979000 -6.220850
-13.000000 -11.672700 -6.220850
-11.250000 11.672700 -3.279130
-11.250000 11.672700 7.720850
-13.000000 11.672700 7.720850
-13.000000 11.672700 -6.220850
13.000000 11.672700 -6.220850
13.000000 11.672700 7.720850
11.250000 11.672700 4.720850
11.250000 11.672700 -3.279130
10.750000 11.672700 -6.220850
11.122500 11.226772 -8.220850
12.627500 11.226772 -8.220850
13.000000 11.672700 -6.220850
-11.250000 9.577600 -3.279130
-11.250000 9.577600 4.720850
-13.000000 9.577600 4.720850
-13.000000 9.577600 -3.279130
-11.122480 11.226772 -8.220850
-11.122480 9.424930 -8.220850
-10.750000 8.979000 -6.220850
-10.750000 11.672700 -6.220850
-11.250000 9.577600 -3.279130
11.250000 9.577600 -3.279130
11.250000 9.577600 -6.220850
-11.250000 9.577600 -6.220850
-11.250000 -9.577600 7.720850
11.250000 -9.577600 7.720850
11.250000 -9.577600 4.720850
-11.250000 -9.577600 4.720850
13.000000 -11.672700 7.720850
-13.000000 -11.672700 7.720850
-13.000000 11.672700 7.720850
13.000000 11.672700 7.720850
-11.250000 -9.577600 -6.220850
-11.250000 -9.577600 -3.279130
-11.250000 9.577600 -3.279130
-11.250000 9.577600 -6.220850
13.000000 11.672700 -6.220850
-13.000000 11.672700 -6.220850
-13.000000 -11.672700 -6.220850
-11.250000 9.577600 -6.220850
11.250000 9.577600 -6.220850
13.000000 -11.672700 -6.220850
-12.627525 -11.226800 -8.220850
-11.122480 -11.226800 -8.220850
-10.750000 -11.672700 -6.220850
-13.000000 -11.672700 -6.220850
-11.122480 9.424930 -8.220850
-12.627525 9.424930 -8.220850
-12.627525 11.226772 -8.220850
-11.122480 11.226772 -8.220850
11.250000 9.577600 -3.279130
11.250000 -9.577600 -3.279130
13.000000 -9.577600 -3.279130
13.000000 9.577600 -3.279130
-13.000000 -11.672700 -6.220850
-10.750000 -11.672700 -6.220850
-11.122480 -11.226800 -8.220850
-12.627525 -11.226800 -8.220850
-11.250000 11.672700 7.720850
-11.250000 -9.577600 7.720850
-11.250000 -9.577600 4.720850
-11.250000 9.577600 4.720850
-11.250000 9.577600 -3.279130
-11.250000 11.672700 -3.279130
13.000000 -11.672700 -6.220850
10.750000 -11.672700 -6.220850
10.750000 -8.979000 -6.220850
13.000000 -8.979000 -6.220850
-10.750000 -8.979000 -6.220850
-13.000000 -8.979000 -6.220850
-13.000000 -11.672700 -6.220850
-10.750000 -11.672700 -6.220850
13.000000 11.672700 -6.220850
11.250000 11.672700 4.720850
-11.250000 11.672700 4.720850
-11.250000 11.672700 7.720850
13.000000 11.672700 7.720850
-13.000000 -11.672700 -6.220850
-13.000000 -8.979000 -6.220850
-12.627525 -9.424900 -8.220850
-12.627525 -11.226800 -8.220850
11.250000 -11.672700 7.720850
11.250000 -11.672700 -3.279130
-11.250000 -11.672700 -3.279130
-11.250000 -11.672700 4.720850
-13.000000 -11.672700 7.720850
-13.000000 -11.672700 -6.220850
13.000000 -11.672700 -6.220850
13.000000 -11.672700 7.720850
-13.000000 8.979000 -6.220850
-13.000000 11.672700 -6.220850
-12.627525 11.226772 -8.220850
-12.627525 9.424930 -8.220850
-10.750000 -8.979000 -6.220850
-11.122480 -9.424900 -8.220850
-12.627525 -9.424900 -8.220850
-13.000000 -8.979000 -6.220850
12.627500 9.424930 -8.220850
11.122500 9.424930 -8.220850
11.122500 11.226772 -8.220850
12.627500 11.226772 -8.220850
-11.122480 -9.424900 -8.220850
-12.627525 -9.424900 -8.220850
-12.627525 -11.226800 -8.220850
-11.122480 -11.226800 -8.220850
-11.250000 11.672700 4.720850
-13.000000 -9.577600 -3.279130
-13.000000 -11.672700 -6.220850
-13.000000 11.672700 -6.220850
-13.000000 9.577600 -3.279130
-13.000000 -8.979000 -6.220850
-12.627525 -9.424900 -8.220850
-11.122480 -9.424900 -8.220850
-10.750000 -8.979000 -6.220850
11.250000 -11.672700 4.720850
11.250000 -9.577600 4.720850
11.250000 -9.577600 -3.279130
11.250000 -11.672700 -3.279130
13.000000 11.672700 -6.220850
13.000000 8.979000 -6.220850
12.627500 9.424930 -8.220850
12.627500 11.226772 -8.220850
12.627500 -9.424900 -8.220850
12.627500 -11.226800 -8.220850
13.000000 -11.672700 -6.220850
13.000000 -8.979000 -6.220850
-11.250000 -9.577600 4.720850
-11.250000 -9.577600 -3.279130
-13.000000 -9.577600 -3.279130
-13.000000 -9.577600 4.720850
-10.750000 -8.979000 -6.220850
-10.750000 -11.672700 -6.220850
-11.122480 -11.226800 -8.220850
-11.122480 -9.424900 -8.220850
13.000000 9.577600 -3.279130
13.000000 9.577600 4.720850
11.250000 9.577600 4.720850
11.250000 9.577600 -3.279130
-10.750000 11.672700 -6.220850
-10.750000 8.979000 -6.220850
-11.122480 9.424930 -8.220850
-11.122480 11.226772 -8.220850
-10.750000 -11.672700 -6.220850
-13.000000 -11.672700 -6.220850
-13.000000 -8.979000 -6.220850
-10.750000 -8.979000 -6.220850
-13.000000 -9.577600 -3.279130
-11.250000 -9.577600 -3.279130
-11.250000 9.577600 -3.279130
-13.000000 9.577600 -3.279130
-13.000000 -11.672700 -6.220850
-13.000000 -11.672700 7.720850
11.250000 -11.672700 7.720850
11.250000 -11.672700 4.720850
-11.250000 -11.672700 4.720850
-11.250000 -11.672700 -3.279130
-11.250000 11.672700 -3.279130
-10.750000 11.672700 -6.220850
-11.122480 11.226772 -8.220850
-12.627525 11.226772 -8.220850
-13.000000 11.672700 -6.220850
-11.250000 11.672700 -3.279130
-11.250000 9.577600 -3.279130
11.250000 9.577600 -3.279130
11.250000 11.672700 -3.279130
-13.000000 -9.577600 7.720850
-11.250000 -9.577600 7.720850
-11.250000 11.672700 7.720850
-13.000000 11.672700 7.720850
11.250000 -9.577600 -3.279130
11.250000 9.577600 -3.279130
11.250000 9.577600 -6.220850
11.250000 -9.577600 -6.220850
-11.122480 -9.424900 -8.220850
-11.122480 -11.226800 -8.220850
-10.750000 -11.672700 -6.220850
-10.750000 -8.979000 -6.220850
-13.000000 11.672700 -6.220850
-13.000000 11.672700 7.720850
11.250000 11.672700 -3.279130
-11.250000 9.577600 4.720850
-11.250000 9.577600 7.720850
-11.250000 11.672700 7.720850
-11.250000 11.672700 4.720850
-13.000000 -11.672700 8.220850
-13.000000 11.672700 8.220850
-13.000000 11.672700 7.720850
-13.000000 -11.672700 7.720850
13.000000 -8.979000 -6.220850
13.000000 -11.672700 -6.220850
12.627500 -11.226800 -8.220850
12.627500 -9.424900 -8.220850
12.627500 -11.226800 -8.220850
11.122500 -11.226800 -8.220850
11.122500 -9.424900 -8.220850
12.627500 -9.424900 -8.220850
-13.000000 11.672700 7.720850
13.000000 11.672700 7.720850
13.000000 11.672700 8.220850
-13.000000 11.672700 8.220850
11.250000 -11.672700 4.720850
-13.000000 -11.672700 7.720850
-13.000000 -11.672700 8.220850
13.000000 -11.672700 8.220850
13.000000 -11.672700 7.720850
13.000000 11.672700 7.720850
13.000000 11.672700 8.220850
13.000000 -11.672700 8.220850
13.000000 -11.672700 7.720850
-13.000000 8.979000 -6.220850
-10.750000 8.979000 -6.220850
-11.122480 9.424930 -8.220850
-12.627525 9.424930 -8.220850
-11.122480 11.226772 -8.220850
-12.627525 11.226772 -8.220850
-12.627525 9.424930 -8.220850
-11.122480 9.424930 -8.220850
12.627500 -9.424900 -8.220850
11.122500 -9.424900 -8.220850
11.122500 -11.226800 -8.220850
12.627500 -11.226800 -8.220850
-13.000000 11.672700 -6.220850
-12.627525 11.226772 -8.220850
-11.122480 11.226772 -8.220850
-10.750000 11.672700 -6.220850
-10.750000 8.979000 -6.220850
-13.000000 8.979000 -6.220850
-13.000000 11.672700 -6.220850
-10.750000 11.672700 -6.220850
13.000000 9.577600 -3.279130
13.000000 11.672700 -6.220850
13.000000 -11.672700 -6.220850
13.000000 -9.577600 -3.279130
-11.250000 -9.577600 -6.220850
11.250000 -9.577600 -6.220850
-10.750000 11.672700 -6.220850
-13.000000 11.672700 -6.220850
-13.000000 8.979000 -6.220850
-10.750000 8.979000 -6.220850
10.750000 -11.672700 -6.220850
13.000000 -11.672700 -6.220850
12.627500 -11.226800 -8.220850
11.122500 -11.226800 -8.220850
-13.000000 9.577600 4.720850
-13.000000 11.672700 7.720850
-13.000000 -11.672700 7.720850
-13.000000 -9.577600 4.720850
11.122500 9.424930 -8.220850
12.627500 9.424930 -8.220850
13.000000 8.979000 -6.220850
10.750000 8.979000 -6.220850
11.250000 -11.672700 -3.279130
11.122500 -11.226800 -8.220850
12.627500 -11.226800 -8.220850
13.000000 -11.672700 -6.220850
10.750000 -11.672700 -6.220850
12.627500 11.226772 -8.220850
12.627500 9.424930 -8.220850
13.000000 8.979000 -6.220850
13.000000 11.672700 -6.220850
13.000000 -11.672700 -6.220850
13.000000 -11.672700 7.720850
13.000000 -9.577600 4.720850
13.000000 -9.577600 -3.279130
11.250000 -9.577600 -3.279130
11.250000 -9.577600 4.720850
-11.250000 -9.577600 -3.279130
-11.250000 -9.577600 4.720850
-11.250000 -11.672700 4.720850
-11.250000 -11.672700 -3.279130
10.750000 -8.979000 -6.220850
11.122500 -9.424900 -8.220850
12.627500 -9.424900 -8.220850
13.000000 -8.979000 -6.220850
12.627500 11.226772 -8.220850
11.122500 11.226772 -8.220850
11.122500 9.424930 -8.220850
12.627500 9.424930 -8.220850
10.750000 8.979000 -6.220850
13.000000 8.979000 -6.220850
12.627500 9.424930 -8.220850
11.122500 9.424930 -8.220850
10.750000 8.979000 -6.220850
10.750000 11.672700 -6.220850
11.122500 11.226772 -8.220850
11.122500 9.424930 -8.220850
-11.250000 -9.577600 -3.279130
-11.250000 -11.672700 -3.279130
11.250000 -11.672700 -3.279130
11.250000 -9.577600 -3.279130
11.122500 9.424930 -8.220850
11.122500 11.226772 -8.220850
10.750000 11.672700 -6.220850
10.750000 8.979000 -6.220850
11.250000 -11.672700 7.720850
11.250000 -9.577600 7.720850
-13.000000 -9.577600 7.720850
-13.000000 -11.672700 7.720850
11.122500 -11.226800 -8.220850
11.122500 -9.424900 -8.220850
10.750000 -8.979000 -6.220850
10.750000 -11.672700 -6.220850
-12.627525 9.424930 -8.220850
-11.122480 9.424930 -8.220850
-10.750000 8.979000 -6.220850
-13.000000 8.979000 -6.220850
13.000000 9.577600 4.720850
13.000000 -9.577600 4.720850
11.250000 -9.577600 4.720850
11.250000 9.577600 4.720850
13.000000 -8.979000 -6.220850
10.750000 -8.979000 -6.220850
10.750000 -11.672700 -6.220850
13.000000 -11.672700 -6.220850
13.000000 8.979000 -6.220850
10.750000 8.979000 -6.220850
10.750000 11.672700 -6.220850
13.000000 11.672700 -6.220850
13.000000 11.672700 -6.220850
10.750000 11.672700 -6.220850
10.750000 8.979000 -6.220850
13.000000 8.979000 -6.220850
11.250000 -9.577600 7.720850
11.250000 9.577600 7.720850
11.250000 9.577600 4.720850
11.250000 -9.577600 4.720850
13.000000 11.672700 -6.220850
13.000000 -11.672700 -6.220850
-11.250000 -9.577600 -6.220850
11.250000 -9.577600 -6.220850
-11.250000 9.577600 4.720850
-11.250000 -9.577600 4.720850
-13.000000 -9.577600 4.720850
-13.000000 9.577600 4.720850
11.250000 -11.672700 4.720850
-11.250000 -11.672700 4.720850
-11.250000 -9.577600 4.720850
11.250000 -9.577600 4.720850
13.000000 -9.577600 4.720850
13.000000 9.577600 4.720850
13.000000 9.577600 -3.279130
13.000000 11.672700 -6.220850
13.000000 11.672700 7.720850
13.000000 -11.672700 7.720850
13.000000 -11.672700 -6.220850
13.000000 -9.577600 -3.279130
11.250000 9.577600 7.720850
11.250000 -11.672700 7.720850
13.000000 -11.672700 7.720850
13.000000 9.577600 7.720850
10.750000 -11.672700 -6.220850
10.750000 -8.979000 -6.220850
11.122500 -9.424900 -8.220850
11.122500 -11.226800 -8.220850
-11.250000 -9.577600 -3.279130
11.250000 -9.577600 -3.279130
11.250000 -9.577600 -6.220850
-11.250000 -9.577600 -6.220850
11.250000 9.577600 -3.279130
11.250000 9.577600 4.720850
11.250000 11.672700 4.720850
11.250000 11.672700 -3.279130
11.250000 9.577600 4.720850
11.250000 9.577600 7.720850
-11.250000 9.577600 7.720850
-11.250000 9.577600 4.720850
-11.250000 9.577600 -6.220850
-11.250000 9.577600 -3.279130
-11.250000 -9.577600 -3.279130
-11.250000 -9.577600 -6.220850
-11.122480 -11.226800 -8.220850
-12.627525 -11.226800 -8.220850
-12.627525 -9.424900 -8.220850
-11.122480 -9.424900 -8.220850
-13.000000 11.672700 8.220850
13.000000 11.672700 8.220850
13.000000 11.672700 7.720850
-13.000000 11.672700 7.720850
-11.250000 9.577600 -6.220850
11.250000 9.577600 -6.220850
11.250000 9.577600 -3.279130
-11.250000 9.577600 -3.279130
11.250000 9.577600 4.720850
-11.250000 9.577600 4.720850
-11.250000 11.672700 4.720850
11.250000 11.672700 4.720850
13.000000 11.672700 8.220850
13.000000 -11.672700 8.220850
-13.000000 -11.672700 8.220850
-13.000000 11.672700 8.220850
11.250000 -9.577600 -6.220850
11.250000 9.577600 -6.220850
11.250000 9.577600 -3.279130
11.250000 -9.577600 -3.279130
-13.000000 -11.672700 7.720850
-13.000000 11.672700 7.720850
-13.000000 11.672700 8.220850
-13.000000 -11.672700 8.220850
-13.000000 9.577600 -3.279130
-13.000000 9.577600 4.720850
-13.000000 11.672700 7.720850
-13.000000 11.672700 -6.220850
-13.000000 -11.672700 -6.220850
-13.000000 -11.672700 7.720850
-13.000000 -9.577600 -3.279130
-13.000000 11.672700 8.220850
-13.000000 -11.672700 8.220850
13.000000 -11.672700 8.220850
13.000000 11.672700 8.220850
-13.000000 -9.577600 4.720850
13.000000 -8.979000 -6.220850
12.627500 -9.424900 -8.220850
11.122500 -9.424900 -8.220850
10.750000 -8.979000 -6.220850
13.000000 -11.672700 7.720850
13.000000 -11.672700 8.220850
-13.000000 -11.672700 8.220850
-13.000000 -11.672700 7.720850
13.000000 11.672700 7.720850
-13.000000 11.672700 7.720850
-13.000000 -11.672700 7.720850
13.000000 -11.672700 7.720850
-11.250000 -9.577600 -6.220850
11.250000 -9.577600 -6.220850
11.250000 -9.577600 -3.279130
-11.250000 -9.577600 -3.279130
13.000000 -11.672700 7.720850
13.000000 -11.672700 8.220850
13.000000 11.672700 8.220850
13.000000 11.672700 7.720850
13.000000 -11.672700 7.720850
13.000000 11.672700 7.720850
13.000000 9.577600 4.720850
13.000000 -9.577600 4.720850
-12.627525 9.424930 -8.220850
-12.627525 11.226772 -8.220850
-13.000000 11.672700 -6.220850
-13.000000 8.979000 -6.220850
4 0 1 2 3
4 4 5 6 7
4 8 9 10 11
4 12 13 14 15
8 16 17 18 19 20 21 22 23
4 24 25 26 27
4 28 29 30 31
4 32 33 34 35
4 36 37 38 39
4 40 41 42 43
4 44 45 46 47
4 48 49 50 51
6 52 53 54 55 56 57
4 58 59 60 61
4 62 63 64 65
4 66 67 68 69
4 70 71 72 73
6 74 75 76 77 78 79
4 80 81 82 83
4 84 85 86 87
5 88 89 90 91 92
4 93 94 95 96
8 97 98 99 100 101 102 103 104
4 105 106 107 108
4 109 110 111 112
4 113 114 115 116
4 117 118 119 120
4 21 17 121 22
4 122 123 124 125
4 126 127 128 129
4 130 131 132 133
4 134 135 136 137
4 138 139 140 141
4 142 143 144 145
4 146 147 148 149
4 150 151 152 153
4 154 155 156 157
4 158 159 160 161
4 162 163 164 165
6 166 167 168 169 170 171
3 172 91 90
4 173 174 175 176
4 177 178 179 180
4 181 182 183 184
4 185 186 187 188
4 189 190 191 192
7 193 194 91 172 195 89 88
4 196 197 198 199
4 200 201 202 203
4 204 205 206 207
4 208 209 210 211
4 212 213 214 215
3 97 216 98
4 217 218 219 220
4 221 222 223 224
4 225 226 227 228
4 229 230 231 232
4 233 234 235 236
4 237 238 239 240
4 241 242 243 244
4 245 246 247 248
6 249 55 54 57 56 250
4 251 252 253 254
4 255 256 257 258
3 121 17 16
8 259 125 124 260 261 123 122 262
4 263 264 265 266
3 267 169 168
4 268 269 270 271
4 272 273 274 275
6 276 166 171 267 168 277
4 278 279 280 281
4 282 283 284 285
4 286 287 288 289
4 290 291 292 293
4 294 295 296 297
4 298 299 300 301
4 302 303 304 305
4 306 307 308 309
4 310 311 312 313
4 314 315 316 317
4 318 319 320 321
4 322 323 324 325
4 326 327 328 329
4 330 331 332 333
4 334 335 336 337
4 338 339 340 341
8 342 343 11 10 344 345 9 8
4 346 347 348 349
4 350 351 352 353
8 354 355 356 357 358 359 360 361
4 362 363 364 365
4 366 367 368 369
4 370 371 372 373
4 374 375 376 377
4 378 379 380 381
4 382 383 384 385
4 386 387 388 389
4 390 391 392 393
4 394 395 396 397
4 356 361 360 357
4 398 399 400 401
4 402 403 404 405
4 406 407 408 409
4 410 411 412 413
7 414 415 416 417 418 419 420
4 421 422 423 424
5 416 415 425 420 419
4 426 427 428 429
4 100 216 97 101
4 430 431 432 433
4 434 435 436 437
4 438 439 440 441
4 442 443 444 445
8 446 447 246 245 448 449 248 247
4 450 451 452 453
