ply
format ascii 1.0
comment Created by Blender 2.82 (sub 7) - www.blender.org, source file: ''
element vertex 611
property float x
property float y
property float z
element face 140
property list uchar uint vertex_indices
end_header
-20.000000 44.000000 16.500000
-20.000000 44.000000 -16.750000
-20.000000 40.000000 -16.750000
-20.000000 40.000000 16.500000
15.853550 -40.353600 -10.603550
15.853550 -40.353600 -9.750000
15.933010 -40.250000 -9.750000
15.933010 -40.250000 -10.683010
16.000000 40.250000 -9.816990
16.000000 40.433010 -10.000000
-16.000000 40.433010 -10.000000
-16.000000 40.250000 -9.816990
-24.000000 48.000000 18.250000
24.000000 48.000000 18.250000
24.000000 48.000000 16.500000
-24.000000 48.000000 16.500000
20.000000 44.000000 -16.750000
20.000000 40.000000 -16.750000
16.000000 40.000000 -16.750000
16.000000 44.000000 -16.750000
20.000000 44.000000 16.500000
20.000000 -43.996899 16.500000
20.000000 -40.000000 16.500000
20.000000 40.000000 16.500000
16.000000 -40.000000 14.702100
16.000000 -40.000000 16.500000
16.000000 -40.500000 16.500000
16.000000 -40.500000 14.702100
-24.000000 48.000000 18.250000
-24.000000 -48.000000 18.250000
24.000000 -48.000000 18.250000
24.000000 48.000000 18.250000
-16.000000 40.500000 -10.250000
-16.000000 40.500000 14.808000
-16.000000 40.000000 14.808000
-16.000000 40.000000 -9.750000
-16.000000 40.250000 -9.816990
-16.000000 40.433010 -10.000000
16.000000 40.000000 14.808000
16.000000 40.000000 16.500000
16.000000 40.500000 16.500000
16.000000 40.500000 14.808000
16.250000 40.000000 -9.816990
16.250000 -40.000000 -9.816990
16.433010 -40.000000 -10.000000
16.433010 40.000000 -10.000000
15.982960 -40.129398 -10.732960
15.982960 -40.129398 -9.750000
16.000000 -40.000000 -9.750000
16.000000 -40.000000 -10.750000
-16.000000 40.500000 16.500000
16.000000 40.500000 16.500000
16.000000 40.500000 14.808000
-16.000000 40.500000 14.808000
-16.000000 40.000000 14.808000
-16.000000 40.500000 14.808000
16.000000 40.500000 14.808000
16.000000 40.000000 14.808000
16.000000 40.000000 -9.750000
16.000000 -40.000000 -9.750000
-16.000000 -40.483002 -10.379410
15.629410 -40.483002 -10.379410
15.500000 -40.500000 -10.250000
-16.000000 -40.500000 -10.250000
16.000000 40.000000 14.738300
16.000000 40.000000 16.500000
16.500000 40.000000 16.500000
16.500000 40.000000 14.738300
16.000000 40.000000 14.738300
16.500000 40.000000 14.738300
16.500000 40.000000 16.500000
16.000000 40.000000 16.500000
16.000000 -40.500000 14.702100
16.000000 -40.000000 14.702100
16.000000 -40.000000 -16.750000
16.000000 -43.996899 -16.750000
16.000000 -43.996899 16.500000
16.000000 -40.500000 16.500000
16.000000 40.000000 16.500000
-16.000000 40.000000 16.500000
-16.000000 40.000000 14.808000
16.000000 40.000000 14.808000
-16.500000 -40.000000 14.702100
-16.500000 40.000000 14.702100
-16.000000 40.000000 14.702100
-16.000000 -40.000000 14.702100
15.500000 -40.500000 -10.250000
15.500000 -40.500000 -9.750000
15.629410 -40.483002 -9.750000
15.629410 -40.483002 -10.379410
16.000000 44.000000 16.500000
16.000000 40.500000 16.500000
-16.000000 40.500000 16.500000
-16.000000 44.000000 16.500000
-20.000000 44.000000 16.500000
-20.000000 40.000000 16.500000
-16.500000 40.000000 16.500000
-16.500000 -40.000000 16.500000
-20.000000 -40.000000 16.500000
-20.000000 -44.000000 16.500000
-16.000000 -44.000000 16.500000
-24.000000 -48.000000 16.500000
-24.000000 48.000000 16.500000
24.000000 48.000000 16.500000
24.000000 -48.000000 16.500000
-16.000000 40.500000 -10.250000
16.000000 40.500000 -10.250000
16.000000 40.433010 -10.500000
-16.000000 40.433010 -10.500000
-16.353600 40.000000 -9.896450
-16.129400 40.000000 -9.767040
-16.000000 40.000000 -9.750000
-16.000000 40.000000 14.702100
-16.500000 40.000000 14.702100
-16.500000 40.000000 16.500000
-20.000000 40.000000 16.500000
-20.000000 40.000000 -16.750000
-16.000000 40.000000 -16.750000
-16.000000 40.000000 -10.750000
-16.129400 40.000000 -10.732960
-16.353600 40.000000 -10.603550
-16.483000 40.000000 -10.379410
-16.483000 40.000000 -10.120590
15.500000 -40.500000 -10.250000
15.500000 -40.500000 -9.750000
15.370590 -40.483002 -9.750000
15.370590 -40.483002 -10.120590
15.017040 -40.129398 -9.750000
15.146450 -40.353600 -9.750000
15.370590 -40.483002 -9.750000
15.629410 -40.483002 -9.750000
15.853550 -40.353600 -9.750000
15.982960 -40.129398 -9.750000
16.000000 -40.000000 -9.750000
15.000000 -40.000000 -9.750000
15.933010 -40.250000 -10.683010
15.933010 -40.250000 -9.750000
15.853550 -40.353600 -9.750000
15.853550 -40.353600 -10.603550
15.853550 -40.353600 -10.603550
15.853550 -40.353600 -9.750000
15.750000 -40.432999 -9.750000
15.750000 -40.432999 -10.500000
15.250000 -40.432999 -10.000000
15.250000 -40.432999 -9.750000
15.146450 -40.353600 -9.750000
15.146450 -40.353600 -9.896450
15.066990 -40.250000 -9.750000
15.066990 -40.250000 -9.816990
15.146450 -40.353600 -9.896450
15.146450 -40.353600 -9.750000
15.017040 -40.129398 -9.750000
15.017040 -40.129398 -9.767040
15.066990 -40.250000 -9.816990
15.066990 -40.250000 -9.750000
16.500000 -40.000000 -10.250000
16.433010 -40.000000 -10.000000
16.250000 -40.000000 -9.816990
16.000000 -40.000000 -9.750000
16.000000 -40.000000 14.738300
16.500000 -40.000000 14.738300
16.500000 -40.000000 16.500000
20.000000 -40.000000 16.500000
20.000000 -40.000000 -16.750000
16.000000 -40.000000 -16.750000
16.000000 -40.000000 -10.750000
16.250000 -40.000000 -10.683010
16.433010 -40.000000 -10.500000
-16.483000 -39.749298 -10.120590
-16.353600 -39.749298 -9.896450
-16.129400 -39.749298 -9.767040
-16.000000 -39.749298 -9.750000
-16.000000 -39.749298 -10.750000
-16.129400 -39.749298 -10.732960
-16.353600 -39.749298 -10.603550
-16.483000 -39.749298 -10.379410
20.000000 -43.996899 16.500000
16.000000 -43.996899 16.500000
16.000000 -43.996899 -16.750000
20.000000 -43.996899 -16.750000
-16.000000 -40.353600 -10.603550
15.853550 -40.353600 -10.603550
15.750000 -40.432999 -10.500000
-16.000000 -40.432999 -10.500000
16.000000 -40.500000 16.500000
16.000000 -40.000000 16.500000
16.000000 -40.000000 14.702100
16.000000 -40.500000 14.702100
-16.000000 40.250000 -10.683010
-16.000000 40.000000 -10.750000
-16.000000 40.000000 -16.750000
-16.000000 44.000000 -16.750000
-16.000000 44.000000 16.500000
-16.000000 40.500000 16.500000
-16.000000 40.433010 -10.500000
-16.000000 40.000000 14.702100
24.000000 -48.000000 18.250000
24.000000 -48.000000 16.500000
24.000000 48.000000 16.500000
24.000000 48.000000 18.250000
15.146450 -40.353600 -9.896450
15.066990 -40.250000 -9.816990
-16.000000 -40.250000 -9.816990
-16.000000 -40.353600 -9.896450
24.000000 -48.000000 18.250000
-24.000000 -48.000000 18.250000
-24.000000 -48.000000 16.500000
24.000000 -48.000000 16.500000
-16.000000 -40.500000 16.500000
-16.000000 -40.500000 14.702100
-16.000000 -40.000000 14.702100
-16.000000 -40.000000 16.500000
-16.500000 -40.000000 14.702100
-16.000000 -40.000000 14.702100
-16.000000 -40.000000 16.500000
-16.500000 -40.000000 16.500000
16.500000 -40.000000 16.500000
16.500000 -40.000000 14.738300
16.500000 40.000000 14.738300
16.500000 40.000000 16.500000
-16.000000 -40.000000 16.500000
16.000000 -40.000000 16.500000
-16.000000 -40.000000 14.702100
16.000000 40.500000 14.808000
16.000000 40.500000 16.500000
16.000000 40.000000 16.500000
16.000000 40.000000 14.808000
15.933010 -40.250000 -10.683010
15.933010 -40.250000 -9.750000
15.982960 -40.129398 -9.750000
15.982960 -40.129398 -10.732960
15.853550 -40.353600 -9.750000
15.629410 -40.483002 -9.750000
15.370590 -40.483002 -9.750000
15.146450 -40.353600 -9.750000
15.017040 -40.129398 -9.750000
15.000000 -40.000000 -9.750000
16.000000 -40.000000 -9.750000
15.982960 -40.129398 -9.750000
-16.000000 -44.000000 -16.750000
-16.000000 -40.000000 -16.750000
-16.000000 -40.000000 -10.750000
-16.000000 -40.129398 -10.732960
-16.000000 -40.353600 -10.603550
-16.000000 -40.483002 -10.379410
-16.000000 -40.483002 -10.120590
-16.000000 -40.353600 -9.896450
-16.000000 -40.129398 -9.767040
-16.000000 -40.000000 -9.750000
-16.000000 -40.000000 14.702100
-16.000000 -40.500000 14.702100
-16.000000 -40.500000 16.500000
-16.000000 -44.000000 16.500000
-16.000000 -40.129398 -10.732960
-16.000000 -40.000000 -10.750000
-16.000000 -40.000000 -9.750000
-16.000000 -40.129398 -9.767040
-16.000000 -40.353600 -9.896450
-16.000000 -40.483002 -10.120590
-16.000000 -40.483002 -10.379410
-16.000000 -40.353600 -10.603550
15.629410 -40.483002 -10.379410
15.629410 -40.483002 -9.750000
15.750000 -40.432999 -9.750000
15.750000 -40.432999 -10.500000
-16.000000 -40.353600 -9.896450
-16.000000 -40.129398 -9.767040
-16.000000 -40.000000 -9.750000
-16.000000 -40.000000 -10.750000
-16.000000 -40.129398 -10.732960
-16.000000 -40.353600 -10.603550
-16.000000 -40.483002 -10.379410
-16.000000 -40.483002 -10.120590
15.066990 -40.250000 -9.816990
15.017040 -40.129398 -9.767040
-16.000000 -40.129398 -9.767040
-16.000000 -40.250000 -9.816990
20.000000 -43.996899 16.500000
20.000000 -43.996899 -16.750000
20.000000 -40.000000 -16.750000
20.000000 -40.000000 16.500000
-16.000000 -40.500000 -10.250000
15.500000 -40.500000 -10.250000
15.370590 -40.483002 -10.120590
-16.000000 -40.483002 -10.120590
15.982960 -40.129398 -10.732960
15.933010 -40.250000 -10.683010
-16.000000 -40.250000 -10.683010
-16.000000 -40.129398 -10.732960
-24.000000 -48.000000 16.500000
-24.000000 -48.000000 18.250000
-24.000000 48.000000 18.250000
-24.000000 48.000000 16.500000
16.000000 40.000000 14.808000
16.000000 40.500000 14.808000
16.000000 40.500000 -10.250000
16.000000 40.433010 -10.000000
16.000000 40.250000 -9.816990
16.000000 40.000000 -9.750000
-16.000000 -40.500000 16.500000
16.000000 -40.500000 16.500000
16.000000 -43.996899 16.500000
15.629410 -40.483002 -10.379410
15.629410 -40.483002 -9.750000
15.500000 -40.500000 -9.750000
15.500000 -40.500000 -10.250000
16.000000 40.000000 -10.750000
16.000000 -40.000000 -10.750000
-16.000000 -40.000000 -10.750000
-16.000000 40.000000 -10.750000
16.000000 40.000000 -9.750000
16.250000 40.000000 -9.816990
16.433010 40.000000 -10.000000
16.500000 40.000000 -10.250000
16.433010 40.000000 -10.500000
16.250000 40.000000 -10.683010
16.000000 40.000000 -10.750000
16.000000 40.000000 -16.750000
20.000000 40.000000 -16.750000
20.000000 40.000000 16.500000
16.500000 40.000000 16.500000
16.500000 40.000000 14.738300
16.000000 40.000000 14.738300
-16.000000 -40.432999 -10.500000
15.750000 -40.432999 -10.500000
15.629410 -40.483002 -10.379410
-16.000000 -40.483002 -10.379410
16.000000 44.000000 16.500000
16.000000 44.000000 -16.750000
16.000000 40.000000 -16.750000
16.000000 40.000000 -10.750000
16.000000 40.250000 -10.683010
16.000000 40.433010 -10.500000
16.000000 40.500000 16.500000
16.500000 -40.000000 16.500000
16.500000 40.000000 16.500000
16.000000 -43.996899 -16.750000
16.000000 -40.000000 -16.750000
20.000000 -40.000000 -16.750000
20.000000 -43.996899 -16.750000
-20.000000 -44.000000 -16.750000
-20.000000 -44.000000 16.500000
-20.000000 -40.000000 16.500000
-20.000000 -40.000000 -16.750000
-16.500000 -40.000000 16.500000
-16.000000 -40.000000 16.500000
-16.000000 -40.000000 14.702100
-16.500000 -40.000000 14.702100
16.000000 40.000000 14.738300
20.000000 44.000000 -16.750000
20.000000 44.000000 16.500000
20.000000 40.000000 16.500000
20.000000 40.000000 -16.750000
-16.000000 -40.000000 -16.750000
-16.000000 -44.000000 -16.750000
-20.000000 -44.000000 -16.750000
-20.000000 -40.000000 -16.750000
20.000000 44.000000 -16.750000
16.000000 44.000000 -16.750000
16.000000 44.000000 16.500000
20.000000 44.000000 16.500000
-16.000000 -40.432999 -10.000000
15.250000 -40.432999 -10.000000
15.146450 -40.353600 -9.896450
-16.000000 -40.353600 -9.896450
-16.000000 40.000000 16.500000
-16.000000 40.000000 14.808000
-16.000000 40.500000 14.808000
-16.000000 40.500000 16.500000
-16.129400 -39.749298 -10.732960
-16.129400 40.000000 -10.732960
-16.000000 40.000000 -10.750000
-16.000000 -39.749298 -10.750000
16.000000 -40.000000 16.500000
16.000000 40.000000 16.500000
16.500000 40.000000 16.500000
16.500000 -40.000000 16.500000
20.000000 -40.000000 16.500000
20.000000 -43.996899 16.500000
16.000000 -43.996899 16.500000
16.000000 -40.500000 16.500000
16.500000 -40.000000 16.500000
16.000000 -40.000000 16.500000
16.000000 -40.000000 14.738300
16.500000 -40.000000 14.738300
-16.353600 -39.749298 -9.896450
-16.129400 -39.749298 -9.767040
-16.129400 40.000000 -9.767040
-16.353600 40.000000 -9.896450
-16.483000 -39.749298 -10.379410
-16.483000 -39.749298 -10.120590
-16.483000 40.000000 -10.120590
-16.483000 40.000000 -10.379410
-16.000000 -44.000000 16.500000
-20.000000 -44.000000 16.500000
-20.000000 -44.000000 -16.750000
-16.000000 -44.000000 -16.750000
-16.353600 -39.749298 -10.603550
-16.353600 40.000000 -10.603550
-16.000000 40.000000 16.500000
-16.500000 40.000000 16.500000
-16.500000 40.000000 14.702100
-16.000000 40.000000 14.702100
16.000000 -40.500000 14.702100
16.000000 -40.500000 16.500000
-16.000000 -40.500000 16.500000
-16.000000 -40.500000 14.702100
-16.000000 40.500000 16.500000
-16.000000 40.500000 14.808000
-16.000000 40.000000 14.808000
-16.000000 40.000000 16.500000
16.500000 -40.000000 14.738300
16.000000 -40.000000 14.738300
16.000000 -40.000000 16.500000
16.500000 -40.000000 16.500000
-16.500000 40.000000 14.702100
-16.500000 40.000000 16.500000
-16.000000 40.000000 16.500000
-16.000000 40.000000 14.702100
-16.500000 -40.000000 16.500000
-16.500000 40.000000 16.500000
-20.000000 40.000000 16.500000
-20.000000 44.000000 16.500000
-16.000000 44.000000 16.500000
-16.000000 40.500000 16.500000
16.000000 40.500000 16.500000
-16.000000 40.000000 16.500000
-16.000000 -40.000000 16.500000
-16.000000 -40.500000 16.500000
-16.000000 -44.000000 16.500000
-20.000000 -44.000000 16.500000
-20.000000 -40.000000 16.500000
16.433010 40.000000 -10.500000
16.433010 -40.000000 -10.500000
16.250000 -40.000000 -10.683010
16.250000 40.000000 -10.683010
16.000000 -40.500000 16.500000
16.000000 -43.996899 16.500000
16.000000 -40.000000 16.500000
15.017040 -40.129398 -9.767040
15.000000 -40.000000 -9.750000
-16.000000 -40.000000 -9.750000
-16.000000 -40.129398 -9.767040
20.000000 -43.996899 16.500000
20.000000 -40.000000 16.500000
16.500000 -40.000000 16.500000
16.500000 40.000000 16.500000
16.000000 40.000000 16.500000
-16.000000 44.000000 -16.750000
-16.000000 40.000000 -16.750000
-20.000000 40.000000 -16.750000
-20.000000 44.000000 -16.750000
-16.000000 -40.000000 16.500000
-16.000000 40.000000 16.500000
16.000000 40.500000 16.500000
-16.000000 40.500000 16.500000
-16.000000 44.000000 16.500000
-20.000000 44.000000 16.500000
-20.000000 40.000000 16.500000
-16.500000 40.000000 16.500000
-16.500000 -40.000000 16.500000
-20.000000 -40.000000 16.500000
-20.000000 -44.000000 16.500000
-16.000000 -44.000000 16.500000
-16.000000 -40.500000 16.500000
-16.000000 -40.000000 16.500000
-16.000000 -40.000000 14.702100
-16.000000 -40.500000 14.702100
-16.000000 -40.500000 16.500000
-16.000000 -40.129398 -10.732960
-16.000000 -40.250000 -10.683010
15.933010 -40.250000 -10.683010
15.982960 -40.129398 -10.732960
-16.000000 -40.000000 16.500000
-16.000000 40.000000 16.500000
-16.000000 -39.749298 -9.750000
-16.000000 40.000000 -9.750000
15.370590 -40.483002 -10.120590
15.370590 -40.483002 -9.750000
15.500000 -40.500000 -9.750000
15.500000 -40.500000 -10.250000
-16.500000 40.000000 16.500000
-16.500000 40.000000 14.702100
-16.500000 -40.000000 14.702100
-16.500000 -40.000000 16.500000
16.500000 -40.000000 -10.250000
16.433010 -40.000000 -10.500000
16.250000 -40.000000 -10.683010
16.000000 -40.000000 -10.750000
16.000000 -40.000000 -9.750000
16.250000 -40.000000 -9.816990
16.433010 -40.000000 -10.000000
16.000000 -40.000000 -9.750000
16.000000 40.000000 -9.750000
-16.000000 40.000000 -9.750000
-16.000000 -40.000000 -9.750000
16.000000 40.250000 -10.683010
16.000000 40.000000 -10.750000
-16.000000 40.000000 -10.750000
-16.000000 40.250000 -10.683010
16.500000 40.000000 -10.250000
16.500000 -40.000000 -10.250000
16.000000 -40.000000 14.738300
16.000000 40.000000 14.738300
16.500000 40.000000 14.738300
16.500000 -40.000000 14.738300
-16.000000 -40.000000 16.500000
-16.000000 40.000000 16.500000
16.000000 40.000000 16.500000
16.000000 -40.000000 16.500000
15.146450 -40.353600 -9.896450
15.146450 -40.353600 -9.750000
15.250000 -40.432999 -9.750000
15.250000 -40.432999 -10.000000
15.250000 -40.432999 -10.000000
15.250000 -40.432999 -9.750000
15.370590 -40.483002 -9.750000
15.370590 -40.483002 -10.120590
-16.000000 -40.000000 -16.750000
-20.000000 -40.000000 -16.750000
-20.000000 -40.000000 16.500000
-16.500000 -40.000000 16.500000
-16.500000 -40.000000 14.702100
16.000000 -40.000000 -10.750000
16.000000 40.000000 -10.750000
15.750000 -40.432999 -10.500000
15.750000 -40.432999 -9.750000
15.853550 -40.353600 -9.750000
15.853550 -40.353600 -10.603550
16.000000 40.000000 -9.750000
-16.000000 40.000000 -9.750000
-16.000000 -40.250000 -10.683010
-16.000000 -40.353600 -10.603550
15.853550 -40.353600 -10.603550
15.933010 -40.250000 -10.683010
15.017040 -40.129398 -9.767040
15.000000 -40.000000 -9.750000
15.017040 -40.129398 -9.750000
-16.000000 -40.000000 -9.750000
-16.000000 -40.000000 -10.750000
-16.000000 -39.749298 -10.750000
-16.000000 -39.749298 -9.750000
15.066990 -40.250000 -9.750000
15.066990 -40.250000 -9.816990
15.017040 -40.129398 -9.767040
15.017040 -40.129398 -9.750000
15.146450 -40.353600 -9.750000
15.146450 -40.353600 -9.896450
15.066990 -40.250000 -9.816990
15.066990 -40.250000 -9.750000
-16.353600 -39.749298 -9.896450
-16.483000 -39.749298 -10.120590
-16.483000 -39.749298 -10.379410
-16.353600 -39.749298 -10.603550
-16.129400 -39.749298 -10.732960
-16.000000 -39.749298 -10.750000
-16.000000 -39.749298 -9.750000
-16.129400 -39.749298 -9.767040
16.250000 -40.000000 -9.816990
16.000000 -40.000000 -9.750000
16.000000 -40.000000 -10.750000
16.250000 -40.000000 -10.683010
16.433010 -40.000000 -10.500000
16.500000 -40.000000 -10.250000
16.433010 -40.000000 -10.000000
-16.000000 44.000000 -16.750000
-20.000000 44.000000 -16.750000
-20.000000 44.000000 16.500000
-16.000000 44.000000 16.500000
-16.000000 -40.000000 -10.750000
-16.000000 -40.129398 -10.732960
15.982960 -40.129398 -10.732960
16.000000 -40.000000 -10.750000
15.982960 -40.129398 -10.732960
15.982960 -40.129398 -9.750000
15.933010 -40.250000 -9.750000
15.933010 -40.250000 -10.683010
16.000000 -40.000000 -10.750000
16.000000 -40.000000 -9.750000
15.982960 -40.129398 -9.750000
15.982960 -40.129398 -10.732960
-16.000000 -40.483002 -10.120590
15.370590 -40.483002 -10.120590
15.250000 -40.432999 -10.000000
-16.000000 -40.432999 -10.000000
15.933010 -40.250000 -10.683010
15.853550 -40.353600 -10.603550
-16.000000 -40.353600 -10.603550
-16.000000 -40.250000 -10.683010
-16.000000 -39.749298 -9.750000
-16.000000 -39.749298 -10.750000
-16.000000 -40.000000 -10.750000
-16.000000 -40.000000 -9.750000
16.000000 40.000000 16.500000
16.000000 -40.000000 14.738300
16.000000 -40.000000 16.500000
15.017040 -40.129398 -9.750000
15.000000 -40.000000 -9.750000
15.017040 -40.129398 -9.767040
15.370590 -40.483002 -10.120590
15.370590 -40.483002 -9.750000
15.250000 -40.432999 -9.750000
15.250000 -40.432999 -10.000000
15.750000 -40.432999 -10.500000
15.750000 -40.432999 -9.750000
15.629410 -40.483002 -9.750000
15.629410 -40.483002 -10.379410
16.000000 -40.000000 -10.750000
15.982960 -40.129398 -10.732960
-16.000000 -40.129398 -10.732960
-16.000000 -40.000000 -10.750000
4 0 1 2 3
4 4 5 6 7
4 8 9 10 11
4 12 13 14 15
4 16 17 18 19
3 20 21 22
3 20 22 23
4 24 25 26 27
4 28 29 30 31
6 32 33 34 35 36 37
4 38 39 40 41
4 42 43 44 45
4 46 47 48 49
4 50 51 52 53
4 54 55 56 57
4 58 59 43 42
4 60 61 62 63
4 64 65 66 67
4 68 69 70 71
6 72 73 74 75 76 77
4 78 79 80 81
4 82 83 84 85
4 86 87 88 89
17 90 91 92 93 94 95 96 97 98 99 100 101 102 103 104 21 20
4 105 106 107 108
14 109 110 111 112 113 114 115 116 117 118 119 120 121 122
4 123 124 125 126
8 127 128 129 130 131 132 133 134
4 135 136 137 138
4 139 140 141 142
4 143 144 145 146
4 147 148 149 150
4 151 152 153 154
13 155 156 157 158 159 160 161 162 163 164 165 166 167
8 168 169 170 171 172 173 174 175
4 176 177 178 179
4 180 181 182 183
4 184 185 186 187
8 188 189 190 191 192 193 32 194
3 35 34 195
3 32 193 33
4 196 197 198 199
4 200 201 202 203
4 204 205 206 207
4 208 209 210 211
4 212 213 214 215
4 216 217 218 219
4 220 221 159 222
4 223 224 225 226
4 227 228 229 230
8 231 232 233 234 235 236 237 238
14 239 240 241 242 243 244 245 246 247 248 249 250 251 252
8 253 254 255 256 257 258 259 260
4 261 262 263 264
8 265 266 267 268 269 270 271 272
4 273 274 275 276
4 277 278 279 280
4 281 282 283 284
4 285 286 287 288
4 106 105 10 9
4 289 290 291 292
6 293 294 295 296 297 298
7 101 100 299 300 301 21 104
4 302 303 304 305
4 306 307 308 309
13 310 311 312 313 314 315 316 317 318 319 320 321 322
4 323 324 325 326
8 327 328 329 330 331 332 295 333
4 334 335 23 22
4 336 337 338 339
4 340 341 342 343
4 344 345 346 347
3 293 298 348
4 349 350 351 352
3 333 295 294
4 353 354 355 356
4 357 358 359 360
4 361 362 363 364
4 365 366 367 368
4 369 370 371 372
7 373 374 375 376 377 378 379
3 373 379 380
4 381 382 383 384
4 385 386 387 388
4 389 390 391 392
4 393 394 395 396
4 397 398 370 369
4 399 400 401 402
4 403 404 405 406
4 390 385 388 391
4 407 408 409 410
4 411 412 413 414
4 415 416 417 418
16 419 420 421 422 423 424 425 374 426 427 373 380 428 429 430 431
4 432 433 434 435
3 436 437 438
4 439 440 441 442
7 443 444 445 446 447 438 437
4 448 449 450 451
16 438 452 453 447 454 455 456 457 458 459 460 461 462 463 464 436
4 465 466 467 468
4 469 470 471 472
5 473 249 195 34 474
4 387 386 475 476
4 477 478 479 480
4 481 482 483 484
7 485 486 487 488 489 490 491
4 492 493 494 495
4 496 497 498 499
4 500 45 44 501
4 502 503 504 505
4 506 507 508 509
4 510 511 512 513
4 108 107 496 499
4 514 515 516 517
6 518 519 520 521 522 222
4 500 501 433 432
4 434 523 524 435
4 397 389 392 398
4 525 526 527 528
4 529 8 11 530
4 531 532 533 534
3 535 536 537
4 538 539 540 541
4 542 543 544 545
4 546 547 548 549
8 550 551 552 553 554 555 556 557
7 558 559 560 561 562 563 564
4 565 566 567 568
4 569 570 571 572
4 573 574 575 576
4 577 578 579 580
4 581 582 583 584
4 585 586 587 588
4 589 590 591 592
5 593 293 348 594 595
3 596 597 598
4 599 600 601 602
4 603 604 605 606
4 607 608 609 610
