ply
format ascii 1.0
comment Created by Blender 2.82 (sub 7) - www.blender.org, source file: ''
element vertex 316
property float x
property float y
property float z
element face 66
property list uchar uint vertex_indices
end_header
-18.897648 -48.425201 10.826700
-18.897648 -48.425201 11.614100
-19.685049 -48.425201 11.614100
-19.685049 -48.425201 10.826700
-18.897648 -48.425201 11.614100
18.897650 -48.425201 11.614100
18.897650 -48.425201 10.826700
-18.897648 -48.425201 10.826700
-19.685049 36.220501 -13.188998
-18.897652 36.220501 -13.188998
-18.897652 35.433102 -13.188998
-19.685049 35.433102 -13.188998
18.897650 35.433102 11.614100
18.897650 48.425198 11.614100
18.897650 48.425198 10.826700
18.897650 35.433102 10.826700
-0.393750 -35.433102 -13.188998
0.393650 -35.433102 -13.188998
0.393650 35.433102 -13.188998
-0.393750 35.433102 -13.188998
19.685049 35.433102 11.614100
19.685049 35.433102 10.826700
-19.685049 35.433102 10.826700
-19.685049 35.433102 11.614100
-18.897648 -48.425201 10.826700
-18.897648 -35.433102 10.826700
-18.897648 -35.433102 11.614100
-18.897648 -48.425201 11.614100
0.393650 -35.433102 -13.976400
-0.393750 -35.433102 -13.976400
-0.393750 35.433102 -13.976400
0.393650 35.433102 -13.976400
-18.897648 -35.433102 10.826700
-18.897648 -36.220501 10.826700
-18.897648 -36.220501 -13.188998
-18.897648 -35.433102 -13.188998
0.393650 -35.433102 -13.976400
0.393650 -35.433102 -13.188998
-0.393750 -35.433102 -13.188998
-0.393750 -35.433102 -13.976400
-18.897652 35.433102 -13.188998
-18.897652 35.433102 11.614100
-19.685049 35.433102 11.614100
-19.685049 35.433102 -13.976400
19.685049 35.433102 -13.976400
19.685049 35.433102 11.614100
18.897650 35.433102 11.614100
18.897650 35.433102 -13.188998
0.393650 35.433102 -13.976400
-0.393750 35.433102 -13.976400
-0.393750 -35.433102 -13.976400
0.393650 -35.433102 -13.976400
-18.897652 36.220501 10.826700
-18.897652 48.425198 10.826700
-18.897652 48.425198 11.614100
-18.897652 35.433102 11.614100
-18.897652 35.433102 -13.188998
-18.897652 36.220501 -13.188998
19.685049 -35.433102 10.826700
19.685049 -35.433102 11.614100
-19.685049 -35.433102 11.614100
-19.685049 -35.433102 10.826700
-19.685049 36.220501 10.826700
-19.685049 36.220501 -13.976400
-19.685049 35.433102 -13.976400
-19.685049 35.433102 11.614100
-19.685049 49.212601 11.614100
-19.685049 49.212601 10.826700
-19.685049 49.212601 11.614100
-19.685049 35.433102 11.614100
-18.897652 35.433102 11.614100
-18.897652 48.425198 11.614100
18.897650 48.425198 11.614100
18.897650 35.433102 11.614100
19.685049 35.433102 11.614100
19.685049 49.212601 11.614100
19.685049 -49.212601 11.614100
19.685049 -49.212601 10.826700
19.685049 -36.220501 10.826700
19.685049 -36.220501 -13.976400
19.685049 -35.433102 -13.976400
19.685049 -35.433102 11.614100
-0.393750 35.433102 -13.188998
0.393650 35.433102 -13.188998
0.393650 -35.433102 -13.188998
-0.393750 -35.433102 -13.188998
19.685049 49.212601 10.826700
19.685049 36.220501 10.826700
18.897650 36.220501 10.826700
18.897650 48.425198 10.826700
-18.897652 48.425198 10.826700
-18.897652 35.433102 10.826700
-19.685049 35.433102 10.826700
-19.685049 49.212601 10.826700
0.393650 35.433102 -13.976400
0.393650 -35.433102 -13.976400
0.393650 -35.433102 -13.188998
0.393650 35.433102 -13.188998
-18.897648 -49.212601 10.826700
-18.897648 -49.212601 11.614100
-19.685049 -49.212601 11.614100
-19.685049 -49.212601 10.826700
19.685049 -36.220501 -13.976400
18.897650 -36.220501 -13.976400
18.897650 -35.433102 -13.976400
19.685049 -35.433102 -13.976400
19.685049 36.220501 10.826700
19.685049 49.212601 10.826700
19.685049 49.212601 11.614100
19.685049 35.433102 11.614100
19.685049 35.433102 -13.976400
19.685049 36.220501 -13.976400
-19.685049 48.425198 10.826700
-19.685049 48.425198 11.614100
-18.897652 48.425198 11.614100
-18.897652 48.425198 10.826700
19.685049 -35.433102 11.614100
19.685049 -35.433102 -13.976400
-19.685049 -35.433102 -13.976400
-19.685049 -35.433102 11.614100
-18.897648 -35.433102 11.614100
-18.897648 -35.433102 -13.188998
18.897650 -35.433102 -13.188998
18.897650 -35.433102 11.614100
18.897650 49.212601 10.826700
18.897650 49.212601 11.614100
19.685049 49.212601 11.614100
19.685049 49.212601 10.826700
-0.393750 -35.433102 -13.976400
-0.393750 -35.433102 -13.188998
0.393650 -35.433102 -13.188998
0.393650 -35.433102 -13.976400
-19.685049 36.220501 -13.976400
-18.897652 36.220501 -13.976400
-18.897652 35.433102 -13.976400
-19.685049 35.433102 -13.976400
-18.897652 36.220501 -13.976400
18.897650 36.220501 -13.976400
18.897650 35.433102 -13.976400
-18.897652 35.433102 -13.976400
0.393650 35.433102 -13.188998
0.393650 35.433102 -13.976400
-0.393750 35.433102 -13.976400
-0.393750 35.433102 -13.188998
19.685049 -48.425201 10.826700
19.685049 -48.425201 11.614100
18.897650 -48.425201 11.614100
18.897650 -48.425201 10.826700
18.897650 36.220501 -13.976400
19.685049 36.220501 -13.976400
19.685049 35.433102 -13.976400
18.897650 35.433102 -13.976400
19.685049 -49.212601 10.826700
-19.685049 -49.212601 10.826700
-19.685049 -36.220501 10.826700
-18.897648 -36.220501 10.826700
-18.897648 -48.425201 10.826700
18.897650 -48.425201 10.826700
18.897650 -35.433102 10.826700
19.685049 -35.433102 10.826700
18.897650 -48.425201 11.614100
18.897650 -35.433102 11.614100
18.897650 -35.433102 -13.188998
18.897650 -36.220501 -13.188998
18.897650 -36.220501 10.826700
18.897650 -48.425201 10.826700
19.685049 -49.212601 10.826700
19.685049 -49.212601 11.614100
-18.897648 -49.212601 11.614100
-18.897648 -49.212601 10.826700
-18.897648 -36.220501 -13.188998
-18.897648 -36.220501 10.826700
-19.685049 -36.220501 10.826700
-19.685049 -36.220501 -13.976400
19.685049 -36.220501 -13.976400
19.685049 -36.220501 10.826700
18.897650 -36.220501 10.826700
18.897650 -36.220501 -13.188998
0.393650 35.433102 -13.188998
0.393650 -35.433102 -13.188998
0.393650 -35.433102 -13.976400
0.393650 35.433102 -13.976400
18.897650 36.220501 10.826700
19.685049 36.220501 10.826700
19.685049 35.433102 10.826700
18.897650 35.433102 10.826700
19.685049 36.220501 10.826700
19.685049 36.220501 -13.976400
-19.685049 36.220501 -13.976400
-19.685049 36.220501 10.826700
-18.897652 36.220501 10.826700
-18.897652 36.220501 -13.188998
18.897650 36.220501 -13.188998
18.897650 36.220501 10.826700
-0.393750 -35.433102 -13.976400
-0.393750 35.433102 -13.976400
-0.393750 35.433102 -13.188998
-0.393750 -35.433102 -13.188998
18.897650 36.220501 -13.188998
-18.897652 36.220501 -13.188998
-18.897652 35.433102 -13.188998
18.897650 35.433102 -13.188998
18.897650 -36.220501 -13.188998
18.897650 -35.433102 -13.188998
18.897650 -35.433102 -13.976400
18.897650 -36.220501 -13.976400
-18.897652 36.220501 -13.188998
-18.897652 35.433102 -13.188998
-18.897652 35.433102 -13.976400
-18.897652 36.220501 -13.976400
19.685049 -36.220501 -13.188998
18.897650 -36.220501 -13.188998
18.897650 -35.433102 -13.188998
19.685049 -35.433102 -13.188998
-18.897648 -36.220501 10.826700
-19.685049 -36.220501 10.826700
-19.685049 -35.433102 10.826700
-18.897648 -35.433102 10.826700
-18.897648 -36.220501 -13.188998
18.897650 -36.220501 -13.188998
18.897650 -35.433102 -13.188998
-18.897648 -35.433102 -13.188998
-19.685049 -35.433102 11.614100
-19.685049 -35.433102 -13.976400
-19.685049 -36.220501 -13.976400
-19.685049 -36.220501 10.826700
-19.685049 -49.212601 10.826700
-19.685049 -49.212601 11.614100
-0.393750 -35.433102 -13.188998
-0.393750 35.433102 -13.188998
-0.393750 35.433102 -13.976400
-0.393750 -35.433102 -13.976400
18.897650 48.425198 10.826700
18.897650 48.425198 11.614100
19.685049 48.425198 11.614100
19.685049 48.425198 10.826700
19.685049 35.433102 11.614100
-19.685049 35.433102 11.614100
-19.685049 49.212601 11.614100
19.685049 49.212601 11.614100
-18.897648 -36.220501 -13.188998
-19.685049 -36.220501 -13.188998
-19.685049 -35.433102 -13.188998
-18.897648 -35.433102 -13.188998
-18.897648 -36.220501 -13.976400
-19.685049 -36.220501 -13.976400
-19.685049 -35.433102 -13.976400
-18.897648 -35.433102 -13.976400
18.897650 -36.220501 -13.976400
-18.897648 -36.220501 -13.976400
-18.897648 -35.433102 -13.976400
18.897650 -35.433102 -13.976400
18.897650 36.220501 -13.188998
19.685049 36.220501 -13.188998
19.685049 35.433102 -13.188998
18.897650 35.433102 -13.188998
-0.393750 35.433102 -13.188998
-0.393750 35.433102 -13.976400
0.393650 35.433102 -13.976400
0.393650 35.433102 -13.188998
-19.685049 -49.212601 11.614100
19.685049 -49.212601 11.614100
19.685049 -35.433102 11.614100
18.897650 -35.433102 11.614100
18.897650 -48.425201 11.614100
-18.897648 -48.425201 11.614100
-18.897648 -35.433102 11.614100
-19.685049 -35.433102 11.614100
18.897650 48.425198 11.614100
-18.897652 48.425198 11.614100
-18.897652 48.425198 10.826700
18.897650 48.425198 10.826700
19.685049 49.212601 13.976400
19.685049 -49.212601 13.976400
19.685049 -49.212601 11.614100
19.685049 -35.433102 11.614100
19.685049 -35.433102 10.826700
19.685049 35.433102 10.826700
19.685049 35.433102 11.614100
19.685049 49.212601 11.614100
19.685049 35.433102 10.826700
19.685049 -35.433102 10.826700
-19.685049 -35.433102 10.826700
-19.685049 35.433102 10.826700
-19.685049 -49.212601 13.976400
-19.685049 49.212601 13.976400
-19.685049 49.212601 11.614100
-19.685049 35.433102 11.614100
-19.685049 35.433102 10.826700
-19.685049 -35.433102 10.826700
-19.685049 -35.433102 11.614100
-19.685049 -49.212601 11.614100
19.685049 49.212601 13.976400
19.685049 49.212601 11.614100
-19.685049 49.212601 11.614100
-19.685049 49.212601 13.976400
-19.685049 -49.212601 13.976400
19.685049 -49.212601 13.976400
19.685049 49.212601 13.976400
-19.685049 49.212601 13.976400
19.685049 -49.212601 11.614100
19.685049 -49.212601 13.976400
-19.685049 -49.212601 13.976400
-19.685049 -49.212601 11.614100
18.897650 35.433102 10.826700
18.897650 36.220501 10.826700
18.897650 36.220501 -13.188998
18.897650 35.433102 -13.188998
-19.685049 49.212601 10.826700
-19.685049 49.212601 11.614100
18.897650 49.212601 11.614100
18.897650 49.212601 10.826700
19.685049 -49.212601 11.614100
-19.685049 -49.212601 11.614100
-19.685049 -35.433102 11.614100
19.685049 -35.433102 11.614100
4 0 1 2 3
4 4 5 6 7
4 8 9 10 11
4 12 13 14 15
4 16 17 18 19
4 20 21 22 23
4 24 25 26 27
4 28 29 30 31
4 32 33 34 35
4 36 37 38 39
8 40 41 42 43 44 45 46 47
4 48 49 50 51
6 52 53 54 55 56 57
4 58 59 60 61
6 62 63 64 65 66 67
8 68 69 70 71 72 73 74 75
6 76 77 78 79 80 81
4 82 83 84 85
8 86 87 88 89 90 91 92 93
4 94 95 96 97
4 98 99 100 101
4 102 103 104 105
6 106 107 108 109 110 111
4 112 113 114 115
8 116 117 118 119 120 121 122 123
4 124 125 126 127
4 128 129 130 131
4 132 133 134 135
4 136 137 138 139
4 140 141 142 143
4 144 145 146 147
4 148 149 150 151
8 152 153 154 155 156 157 158 159
6 160 161 162 163 164 165
4 166 167 168 169
8 170 171 172 173 174 175 176 177
4 178 179 180 181
4 182 183 184 185
8 186 187 188 189 190 191 192 193
4 194 195 196 197
4 198 199 200 201
4 202 203 204 205
4 206 207 208 209
4 210 211 212 213
4 214 215 216 217
4 218 219 220 221
6 222 223 224 225 226 227
4 228 229 230 231
4 232 233 234 235
4 236 237 238 239
4 240 241 242 243
4 244 245 246 247
4 248 249 250 251
4 252 253 254 255
4 256 257 258 259
8 260 261 262 263 264 265 266 267
4 268 269 270 271
8 272 273 274 275 276 277 278 279
4 280 281 282 283
8 284 285 286 287 288 289 290 291
4 292 293 294 295
4 296 297 298 299
4 300 301 302 303
4 304 305 306 307
4 308 309 310 311
4 312 313 314 315
