ply
format ascii 1.0
comment Created by Blender 2.82 (sub 7) - www.blender.org, source file: ''
element vertex 879
property float x
property float y
property float z
element face 191
property list uchar uint vertex_indices
end_header
-9.357850 -21.636749 -9.545334
-9.357850 -21.636749 4.364165
9.327170 -21.636749 4.364165
9.327170 -21.636749 -9.545334
11.992530 -21.636749 -9.545334
11.992530 -21.636749 6.320765
-12.023250 -21.636749 6.320765
-12.023250 -21.636749 -9.545334
7.370320 19.282249 6.320765
7.370320 19.282249 9.210365
7.113460 19.288549 9.210365
7.113460 19.288549 6.320765
8.165570 19.862249 9.210365
7.845640 19.465750 9.210365
7.845640 19.465750 6.320765
8.165570 19.862249 6.320765
-9.357850 21.630951 -9.545334
-12.023250 21.630951 -9.545334
-12.023250 21.630951 6.320765
11.992530 21.630951 6.320765
11.992530 21.630951 -9.545334
9.327170 21.630951 -9.545334
9.327170 21.630951 4.364165
-9.357850 21.630951 4.364165
-7.886250 -20.151350 9.210365
-7.803750 -19.648550 9.210365
-7.803750 -19.648550 6.320765
-7.886250 -20.151350 6.320765
8.244390 -19.949350 9.210365
8.165570 -20.452749 9.210365
8.165570 -20.452749 6.320765
8.244390 -19.949350 6.320765
6.470460 19.681049 9.210365
6.287030 20.156349 9.210365
6.287030 20.156349 6.320765
6.470460 19.681049 6.320765
-7.794450 -20.530951 4.364165
-7.471570 -20.925051 4.364165
-9.357850 -21.636749 4.364165
-9.357850 -18.684050 4.364165
-7.521250 -19.364149 4.364165
-7.697050 -19.551451 4.364165
-7.876950 -20.028151 4.364165
8.183960 -19.699650 9.210365
8.183960 -19.699650 6.320765
7.883770 -19.287951 6.320765
7.883770 -19.287951 9.210365
-6.323510 -19.325951 4.364165
-6.000650 -19.720150 4.364165
-6.000650 -19.720150 1.883765
-6.323510 -19.325951 1.883765
-7.697050 -19.551451 4.364165
-7.697050 -19.551451 1.883765
-7.876950 -20.028151 1.883765
-7.876950 -20.028151 4.364165
7.370320 -21.032650 6.320765
7.370320 -21.032650 9.210365
6.866970 -20.953850 9.210365
6.866970 -20.953850 6.320765
-12.330750 18.370649 -9.545334
-9.050350 18.370649 -9.545334
-9.050350 21.938450 -9.545334
-12.330750 21.938450 -9.545334
12.687850 22.326349 -9.545334
12.687850 22.326349 -9.899666
8.631810 22.326349 -9.899666
8.631810 22.326349 -9.545334
11.992530 21.630951 6.320765
11.992530 18.678150 6.320765
11.992530 18.678150 -9.545334
11.992530 21.630951 -9.545334
-6.994900 -21.104950 1.883765
-6.994900 -21.104950 4.364165
-7.471570 -20.925051 4.364165
-7.471570 -20.925051 1.883765
-7.312230 -20.950850 9.210365
-6.809480 -21.033449 9.210365
-6.332810 -20.853550 9.210365
-6.145440 -20.677750 9.210365
-5.935590 -20.213449 9.210365
-5.985980 -19.706450 9.210365
-6.283120 -19.292549 9.210365
-6.747380 -19.082750 9.210365
-7.004190 -19.074551 9.210365
-7.480860 -19.254450 9.210365
-7.803750 -19.648550 9.210365
-7.886250 -20.151350 9.210365
-7.706350 -20.628050 9.210365
-7.480860 21.060551 9.210365
-7.480860 21.060551 6.320765
-7.803750 20.666349 6.320765
-7.803750 20.666349 9.210365
-6.009950 19.855551 9.210365
-6.332810 19.461451 9.210365
-6.332810 19.461451 6.320765
-6.009950 19.855551 6.320765
-6.809480 -21.033449 9.210365
-7.312230 -20.950850 9.210365
-7.706350 -20.628050 9.210365
-7.886250 -20.151350 9.210365
-7.803750 -19.648550 9.210365
-7.480860 -19.254450 9.210365
-7.004190 -19.074551 9.210365
-6.747380 -19.082750 9.210365
-6.283120 -19.292549 9.210365
-5.985980 -19.706450 9.210365
-5.935590 -20.213449 9.210365
-6.145440 -20.677750 9.210365
-6.332810 -20.853550 9.210365
6.647650 19.494949 9.210365
6.647650 19.494949 6.320765
-7.254370 21.181850 9.210365
-7.254370 21.181850 6.320765
12.687850 -22.332150 -9.899666
8.631810 -22.332150 -9.899666
8.631810 -17.988649 -9.899666
12.687850 -17.988649 -9.899666
7.770970 -19.325951 4.364165
7.294310 -19.146049 4.364165
6.791550 -19.228649 4.364165
6.397420 -19.551451 4.364165
6.276090 -19.777950 4.364165
-6.000650 -19.720150 4.364165
-6.323510 -19.325951 4.364165
-6.800180 -19.146049 4.364165
-7.056990 -19.154249 4.364165
9.327170 -18.684050 4.364165
9.327170 -21.636749 4.364165
-6.994900 -21.104950 4.364165
-6.492140 -21.022449 4.364165
-6.273820 -20.886950 4.364165
-5.976690 -20.473049 4.364165
-5.918120 -20.222851 4.364165
6.217520 -20.028151 4.364165
6.300060 -20.530951 4.364165
6.622920 -20.925051 4.364165
7.099590 -21.104950 4.364165
7.602350 -21.022449 4.364165
7.996480 -20.699551 4.364165
8.117800 -20.473049 4.364165
8.168200 -19.966049 4.364165
8.093830 -19.720150 4.364165
-6.332810 -20.853550 6.320765
-6.809480 -21.033449 6.320765
-12.023250 -21.636749 6.320765
11.992530 -21.636749 6.320765
7.845640 -20.849251 6.320765
7.370320 -21.032650 6.320765
6.866970 -20.953850 6.320765
-6.145440 -20.677750 9.210365
-6.145440 -20.677750 6.320765
-5.935590 -20.213449 6.320765
-5.935590 -20.213449 9.210365
14.960650 26.181150 9.899666
14.960650 -26.181049 9.899666
15.748050 -27.559050 9.427166
15.748050 27.559050 9.427166
-9.050350 21.938450 -9.545334
-9.050350 21.938450 -9.820926
-12.330750 21.938450 -9.820926
-12.330750 21.938450 -9.545334
-5.926290 -19.966049 4.364165
-5.976690 -20.473049 4.364165
-5.976690 -20.473049 1.883765
-5.926290 -19.966049 1.883765
-7.876950 20.286751 4.364165
-7.876950 20.286751 1.883765
-7.794450 19.784050 1.883765
-7.794450 19.784050 4.364165
8.244390 20.365549 9.210365
8.244390 20.365549 6.320765
8.060960 20.840950 6.320765
8.060960 20.840950 9.210365
-9.050350 -18.376450 -9.545334
-9.050350 -21.944349 -9.545334
-9.050350 -21.944349 -9.820926
-9.050350 -18.376450 -9.820926
7.161100 21.239651 6.320765
6.685770 21.056250 6.320765
6.685770 21.056250 9.210365
7.161100 21.239651 9.210365
-6.098010 19.615450 4.364165
-6.273820 19.428049 4.364165
-6.273820 19.428049 1.883765
-6.098010 19.615450 1.883765
7.356400 19.218149 1.883765
7.356400 19.218149 4.364165
6.849410 19.268551 4.364165
6.849410 19.268551 1.883765
7.602350 -21.022449 1.883765
7.602350 -21.022449 4.364165
7.099590 -21.104950 4.364165
7.099590 -21.104950 1.883765
-7.697050 20.763451 4.364165
-7.302940 21.086349 4.364165
-7.302940 21.086349 1.883765
-7.697050 20.763451 1.883765
7.996480 19.615450 4.364165
7.820660 19.428049 4.364165
7.820660 19.428049 1.883765
7.996480 19.615450 1.883765
8.168200 -19.966049 4.364165
8.117800 -20.473049 4.364165
8.117800 -20.473049 1.883765
8.168200 -19.966049 1.883765
-7.480860 -19.254450 9.210365
-7.480860 -19.254450 6.320765
6.622920 -20.925051 1.883765
6.622920 -20.925051 4.364165
6.300060 -20.530951 4.364165
6.300060 -20.530951 1.883765
6.622920 -20.925051 4.364165
6.622920 -20.925051 1.883765
-7.794450 -20.530951 4.364165
-7.794450 -20.530951 1.883765
-7.471570 -20.925051 1.883765
-7.471570 -20.925051 4.364165
-7.004190 -19.074551 9.210365
-7.004190 -19.074551 6.320765
-12.023250 -21.636749 6.320765
-12.023250 -18.684050 6.320765
-12.023250 -18.684050 -9.545334
-12.023250 -21.636749 -9.545334
7.883770 -19.287951 9.210365
8.183960 -19.699650 9.210365
8.244390 -19.949350 9.210365
8.165570 -20.452749 9.210365
7.845640 -20.849251 9.210365
7.370320 -21.032650 9.210365
6.866970 -20.953850 9.210365
6.470460 -20.633949 9.210365
6.347450 -20.408350 9.210365
6.293300 -19.901751 9.210365
6.365840 -19.655251 9.210365
6.685770 -19.258751 9.210365
6.911360 -19.135750 9.210365
7.417960 -19.081551 9.210365
-6.747380 21.232250 6.320765
-6.747380 21.232250 9.210365
-5.918120 20.092051 4.364165
-5.918120 20.092051 1.883765
8.060960 20.840950 9.210365
8.060960 20.840950 6.320765
7.664450 21.160851 6.320765
7.664450 21.160851 9.210365
6.225700 20.029949 4.364165
6.276090 20.536949 4.364165
6.276090 20.536949 1.883765
6.225700 20.029949 1.883765
8.631810 22.326349 -9.545334
8.631810 17.982849 -9.545334
12.687850 17.982849 -9.545334
12.687850 22.326349 -9.545334
7.958350 20.813150 4.364165
7.958350 20.813150 1.883765
7.770970 20.988951 1.883765
7.770970 20.988951 4.364165
6.217520 -20.028151 4.364165
6.217520 -20.028151 1.883765
-12.330750 18.370649 -9.545334
-12.330750 21.938450 -9.545334
-12.330750 21.938450 -9.820926
-12.330750 18.370649 -9.820926
-9.050350 -18.376450 -9.820926
-9.050350 -21.944349 -9.820926
-12.330750 -21.944349 -9.820926
-12.330750 -18.376450 -9.820926
-12.023250 18.678150 6.320765
-12.023250 21.630951 6.320765
-12.023250 21.630951 -9.545334
-12.023250 18.678150 -9.545334
-14.960650 26.181150 9.899666
14.960650 26.181150 9.899666
14.960650 -26.181049 9.899666
-14.960650 -26.181049 9.899666
-6.283120 -19.292549 9.210365
-6.283120 -19.292549 6.320765
-6.501440 -19.157150 6.320765
-6.501440 -19.157150 9.210365
8.165570 -20.452749 6.320765
11.992530 -18.684050 6.320765
-12.023250 -18.684050 6.320765
-7.312230 -20.950850 6.320765
-7.706350 -20.628050 6.320765
-7.886250 -20.151350 6.320765
-7.803750 -19.648550 6.320765
-7.480860 -19.254450 6.320765
-7.004190 -19.074551 6.320765
-6.747380 -19.082750 6.320765
-6.283120 -19.292549 6.320765
-5.985980 -19.706450 6.320765
-5.935590 -20.213449 6.320765
-6.145440 -20.677750 6.320765
6.470460 -20.633949 6.320765
6.347450 -20.408350 6.320765
6.293300 -19.901751 6.320765
6.365840 -19.655251 6.320765
6.685770 -19.258751 6.320765
6.911360 -19.135750 6.320765
7.417960 -19.081551 6.320765
7.883770 -19.287951 6.320765
8.183960 -19.699650 6.320765
8.244390 -19.949350 6.320765
8.314480 -23.308350 1.371965
8.314480 -23.308350 2.238165
-8.260350 -23.308350 2.238165
-8.260350 -23.308350 1.371965
8.183960 -19.699650 6.320765
7.883770 -19.287951 6.320765
7.417960 -19.081551 6.320765
6.911360 -19.135750 6.320765
6.685770 -19.258751 6.320765
6.365840 -19.655251 6.320765
6.293300 -19.901751 6.320765
-5.985980 -19.706450 6.320765
-6.283120 -19.292549 6.320765
-6.747380 -19.082750 6.320765
-7.004190 -19.074551 6.320765
-12.023250 -18.684050 6.320765
11.992530 -18.684050 6.320765
11.992530 -21.636749 6.320765
8.244390 -19.949350 6.320765
-5.985980 -19.706450 6.320765
-5.985980 -19.706450 9.210365
11.992530 -18.684050 6.320765
11.992530 -18.684050 -9.545334
9.327170 -18.684050 -9.545334
9.327170 -18.684050 4.364165
-9.357850 -18.684050 4.364165
-9.357850 -18.684050 -9.545334
-12.023250 -18.684050 -9.545334
-12.023250 -18.684050 6.320765
-6.145440 -20.677750 6.320765
-5.935590 -20.213449 6.320765
6.347450 -20.408350 6.320765
6.470460 -20.633949 6.320765
6.866970 -20.953850 6.320765
7.370320 -21.032650 6.320765
7.845640 -20.849251 6.320765
8.165570 -20.452749 6.320765
-12.023250 -21.636749 6.320765
-7.480860 -19.254450 6.320765
-7.803750 -19.648550 6.320765
-7.886250 -20.151350 6.320765
-7.706350 -20.628050 6.320765
-7.312230 -20.950850 6.320765
-6.809480 -21.033449 6.320765
-6.332810 -20.853550 6.320765
6.791550 21.086349 1.883765
6.791550 21.086349 4.364165
7.294310 21.168850 4.364165
7.294310 21.168850 1.883765
-7.254370 21.181850 9.210365
-6.747380 21.232250 9.210365
-6.283120 21.022350 9.210365
-5.985980 20.608549 9.210365
-5.927410 20.358351 9.210365
-6.009950 19.855551 9.210365
-6.332810 19.461451 9.210365
-6.809480 19.281549 9.210365
-7.312230 19.364050 9.210365
-7.706350 19.686951 9.210365
-7.886250 20.163651 9.210365
-7.803750 20.666349 9.210365
-7.480860 21.060551 9.210365
-5.927410 20.358351 9.210365
-5.927410 20.358351 6.320765
-6.107310 20.834949 6.320765
-6.107310 20.834949 9.210365
-7.658950 19.565750 4.364165
-7.658950 19.565750 1.883765
-7.245070 19.268551 1.883765
-7.245070 19.268551 4.364165
-15.748050 -27.559050 9.427166
-14.960650 -26.181049 9.899666
-14.960650 26.181150 9.899666
-15.748050 27.559050 9.427166
-6.492140 -21.022449 1.883765
-6.492140 -21.022449 4.364165
7.996480 -20.699551 4.364165
7.996480 -20.699551 1.883765
11.992530 21.630951 6.320765
-12.023250 21.630951 6.320765
-12.023250 18.678150 6.320765
11.992530 18.678150 6.320765
-6.809480 19.281549 6.320765
-7.066290 19.289749 6.320765
-7.312230 19.364050 6.320765
-7.706350 19.686951 6.320765
-7.886250 20.163651 6.320765
-7.803750 20.666349 6.320765
-7.480860 21.060551 6.320765
-7.254370 21.181850 6.320765
-6.747380 21.232250 6.320765
-6.283120 21.022350 6.320765
-5.985980 20.608549 6.320765
-5.927410 20.358351 6.320765
-6.009950 19.855551 6.320765
-6.332810 19.461451 6.320765
-6.559300 19.340151 6.320765
6.866970 19.361151 6.320765
6.647650 19.494949 6.320765
6.347450 19.906651 6.320765
6.287030 20.156349 6.320765
6.365840 20.659750 6.320765
6.685770 21.056250 6.320765
7.161100 21.239651 6.320765
7.664450 21.160851 6.320765
6.647650 -20.819950 9.210365
6.647650 -20.819950 6.320765
-6.323510 20.988951 4.364165
-6.323510 20.988951 1.883765
-6.800180 21.168850 1.883765
-6.800180 21.168850 4.364165
6.573230 20.950850 4.364165
6.573230 20.950850 1.883765
-7.794450 -20.530951 1.883765
-7.471570 -20.925051 1.883765
-6.994900 -21.104950 1.883765
-6.492140 -21.022449 1.883765
-6.273820 -20.886950 1.883765
-5.976690 -20.473049 1.883765
-5.926290 -19.966049 1.883765
-6.000650 -19.720150 1.883765
-6.323510 -19.325951 1.883765
-6.800180 -19.146049 1.883765
-7.302940 -19.228649 1.883765
-7.697050 -19.551451 1.883765
-7.876950 -20.028151 1.883765
-5.927410 20.358351 6.320765
6.293300 20.413250 6.320765
6.287030 20.156349 6.320765
-5.935590 20.101549 6.320765
-6.809480 -21.033449 6.320765
-6.809480 -21.033449 9.210365
-7.312230 -20.950850 9.210365
-7.312230 -20.950850 6.320765
-7.302940 -19.228649 4.364165
-7.302940 -19.228649 1.883765
6.685770 -19.258751 9.210365
6.365840 -19.655251 9.210365
6.293300 -19.901751 9.210365
6.347450 -20.408350 9.210365
6.470460 -20.633949 9.210365
6.866970 -20.953850 9.210365
7.370320 -21.032650 9.210365
7.845640 -20.849251 9.210365
8.165570 -20.452749 9.210365
8.244390 -19.949350 9.210365
8.183960 -19.699650 9.210365
7.883770 -19.287951 9.210365
7.417960 -19.081551 9.210365
6.911360 -19.135750 9.210365
-15.748050 27.559050 9.427166
-14.960650 26.181150 9.899666
-14.960650 -26.181049 9.899666
-15.748050 -27.559050 9.427166
-7.886250 20.163651 9.210365
-7.886250 20.163651 6.320765
-6.323510 -19.325951 4.364165
-6.323510 -19.325951 1.883765
-6.800180 -19.146049 1.883765
-6.800180 -19.146049 4.364165
-7.706350 -20.628050 9.210365
-7.706350 -20.628050 6.320765
-9.357850 -18.684050 4.364165
-9.357850 -21.636749 4.364165
-9.357850 -21.636749 -9.545334
-9.357850 -18.684050 -9.545334
-6.000650 20.594851 4.364165
-6.000650 20.594851 1.883765
6.365840 20.659750 9.210365
6.365840 20.659750 6.320765
-6.501440 -19.157150 6.320765
-6.501440 -19.157150 9.210365
12.687850 17.982849 -9.899666
8.631810 17.982849 -9.899666
8.631810 22.326349 -9.899666
12.687850 22.326349 -9.899666
12.687850 -22.332150 -9.899666
12.687850 -22.332150 -9.545334
8.631810 -22.332150 -9.545334
8.631810 -22.332150 -9.899666
8.631810 -17.988649 -9.545334
8.631810 -22.332150 -9.545334
12.687850 -22.332150 -9.545334
12.687850 -17.988649 -9.545334
9.327170 -21.636749 4.364165
9.327170 -18.684050 4.364165
9.327170 -18.684050 -9.545334
9.327170 -21.636749 -9.545334
-9.050350 18.370649 -9.820926
-9.050350 18.370649 -9.545334
-12.330750 18.370649 -9.545334
-12.330750 18.370649 -9.820926
8.631810 17.982849 -9.545334
8.631810 22.326349 -9.545334
8.631810 22.326349 -9.899666
8.631810 17.982849 -9.899666
-8.260350 -23.308350 2.238165
-8.260350 23.030251 2.238165
-8.260350 23.030251 1.371965
-8.260350 -23.308350 1.371965
-9.357850 18.678150 -9.545334
-9.357850 18.678150 4.364165
9.327170 18.678150 4.364165
9.327170 18.678150 -9.545334
11.992530 18.678150 -9.545334
11.992530 18.678150 6.320765
-12.023250 18.678150 6.320765
-12.023250 18.678150 -9.545334
-12.330750 -21.944349 -9.545334
-12.330750 -18.376450 -9.545334
-12.330750 -18.376450 -9.820926
-12.330750 -21.944349 -9.820926
7.356400 19.218149 4.364165
7.820660 19.428049 4.364165
9.327170 18.678150 4.364165
-9.357850 18.678150 4.364165
-7.245070 19.268551 4.364165
-6.994900 19.210051 4.364165
-6.738090 19.218149 4.364165
7.099590 19.210051 4.364165
6.225700 20.029949 4.364165
6.435550 19.565750 4.364165
6.849410 19.268551 4.364165
-6.273820 19.428049 4.364165
-6.098010 19.615450 4.364165
-5.918120 20.092051 4.364165
-6.000650 20.594851 4.364165
-6.323510 20.988951 4.364165
-6.800180 21.168850 4.364165
-7.302940 21.086349 4.364165
-7.697050 20.763451 4.364165
-7.876950 20.286751 4.364165
-7.794450 19.784050 4.364165
-7.658950 19.565750 4.364165
-9.357850 21.630951 4.364165
9.327170 21.630951 4.364165
7.996480 19.615450 4.364165
8.176370 20.092051 4.364165
8.093830 20.594851 4.364165
7.770970 20.988951 4.364165
7.294310 21.168850 4.364165
6.791550 21.086349 4.364165
6.573230 20.950850 4.364165
6.276090 20.536949 4.364165
11.992530 -18.684050 6.320765
11.992530 -21.636749 6.320765
11.992530 -21.636749 -9.545334
11.992530 -18.684050 -9.545334
-7.312230 19.364050 9.210365
-6.809480 19.281549 9.210365
-6.332810 19.461451 9.210365
-6.009950 19.855551 9.210365
-5.927410 20.358351 9.210365
-5.985980 20.608549 9.210365
-6.283120 21.022350 9.210365
-6.747380 21.232250 9.210365
-7.254370 21.181850 9.210365
-7.480860 21.060551 9.210365
-7.803750 20.666349 9.210365
-7.886250 20.163651 9.210365
-7.706350 19.686951 9.210365
8.093830 20.594851 4.364165
8.176370 20.092051 4.364165
8.176370 20.092051 1.883765
8.093830 20.594851 1.883765
-6.738090 19.218149 4.364165
-6.738090 19.218149 1.883765
-6.273820 -20.886950 4.364165
-6.273820 -20.886950 1.883765
-6.332810 -20.853550 9.210365
-6.332810 -20.853550 6.320765
-6.283120 21.022350 9.210365
-6.107310 20.834949 9.210365
-6.107310 20.834949 6.320765
-6.283120 21.022350 6.320765
-7.312230 -20.950850 9.210365
-7.312230 -20.950850 6.320765
7.294310 -19.146049 4.364165
7.294310 -19.146049 1.883765
6.791550 -19.228649 1.883765
6.791550 -19.228649 4.364165
7.845640 -20.849251 9.210365
7.845640 -20.849251 6.320765
7.417960 -19.081551 9.210365
7.417960 -19.081551 6.320765
6.911360 -19.135750 6.320765
6.911360 -19.135750 9.210365
6.685770 -19.258751 6.320765
6.685770 -19.258751 9.210365
6.435550 19.565750 4.364165
6.435550 19.565750 1.883765
6.435550 19.565750 4.364165
6.435550 19.565750 1.883765
8.093830 -19.720150 4.364165
8.093830 -19.720150 1.883765
7.770970 -19.325951 1.883765
7.770970 -19.325951 4.364165
6.647650 -20.819950 9.210365
6.347450 -20.408350 9.210365
6.347450 -20.408350 6.320765
6.647650 -20.819950 6.320765
6.470460 19.681049 9.210365
6.470460 19.681049 6.320765
7.883770 -19.287951 9.210365
7.883770 -19.287951 6.320765
6.347450 19.906651 9.210365
6.647650 19.494949 9.210365
7.113460 19.288549 9.210365
7.370320 19.282249 9.210365
7.845640 19.465750 9.210365
8.165570 19.862249 9.210365
8.244390 20.365549 9.210365
8.060960 20.840950 9.210365
7.664450 21.160851 9.210365
7.161100 21.239651 9.210365
6.685770 21.056250 9.210365
6.365840 20.659750 9.210365
6.287030 20.156349 9.210365
7.161100 21.239651 9.210365
7.664450 21.160851 9.210365
8.060960 20.840950 9.210365
8.244390 20.365549 9.210365
8.165570 19.862249 9.210365
7.845640 19.465750 9.210365
7.370320 19.282249 9.210365
7.113460 19.288549 9.210365
6.647650 19.494949 9.210365
6.347450 19.906651 9.210365
6.287030 20.156349 9.210365
6.365840 20.659750 9.210365
6.685770 21.056250 9.210365
-6.273820 -20.886950 1.883765
-6.492140 -21.022449 1.883765
-6.994900 -21.104950 1.883765
-7.471570 -20.925051 1.883765
-7.794450 -20.530951 1.883765
-7.876950 -20.028151 1.883765
-7.697050 -19.551451 1.883765
-7.302940 -19.228649 1.883765
-6.800180 -19.146049 1.883765
-6.323510 -19.325951 1.883765
-6.000650 -19.720150 1.883765
-5.926290 -19.966049 1.883765
-5.976690 -20.473049 1.883765
7.370320 19.282249 6.320765
8.060960 20.840950 6.320765
8.244390 20.365549 6.320765
8.165570 19.862249 6.320765
7.845640 19.465750 6.320765
6.365840 20.659750 6.320765
-5.985980 20.608549 6.320765
-6.283120 21.022350 6.320765
-6.747380 21.232250 6.320765
-7.004190 21.240351 6.320765
11.992530 21.630951 6.320765
11.992530 18.678150 6.320765
-12.023250 18.678150 6.320765
-12.023250 21.630951 6.320765
-7.254370 21.181850 6.320765
-7.480860 21.060551 6.320765
-7.803750 20.666349 6.320765
-7.886250 20.163651 6.320765
-7.706350 19.686951 6.320765
-7.312230 19.364050 6.320765
-6.809480 19.281549 6.320765
-6.332810 19.461451 6.320765
-6.009950 19.855551 6.320765
6.347450 19.906651 6.320765
6.647650 19.494949 6.320765
7.113460 19.288549 6.320765
7.370320 19.282249 6.320765
7.845640 19.465750 6.320765
8.165570 19.862249 6.320765
8.244390 20.365549 6.320765
8.060960 20.840950 6.320765
7.664450 21.160851 6.320765
7.161100 21.239651 6.320765
6.685770 21.056250 6.320765
-6.809480 19.281549 6.320765
-6.809480 19.281549 9.210365
-7.312230 19.364050 9.210365
-7.312230 19.364050 6.320765
7.770970 -19.325951 4.364165
7.770970 -19.325951 1.883765
-7.706350 19.686951 9.210365
-7.706350 19.686951 6.320765
6.397420 -19.551451 4.364165
6.397420 -19.551451 1.883765
-7.658950 19.565750 4.364165
-7.658950 19.565750 1.883765
-6.136140 20.813150 4.364165
-6.136140 20.813150 1.883765
6.293300 -19.901751 9.210365
6.365840 -19.655251 9.210365
6.365840 -19.655251 6.320765
6.293300 -19.901751 6.320765
-14.960650 26.181150 9.899666
14.960650 26.181150 9.899666
15.748050 27.559050 9.427166
-15.748050 27.559050 9.427166
8.117800 -20.473049 1.883765
8.168200 -19.966049 1.883765
8.093830 -19.720150 1.883765
7.770970 -19.325951 1.883765
7.294310 -19.146049 1.883765
6.791550 -19.228649 1.883765
6.397420 -19.551451 1.883765
6.217520 -20.028151 1.883765
6.300060 -20.530951 1.883765
6.622920 -20.925051 1.883765
7.099590 -21.104950 1.883765
7.602350 -21.022449 1.883765
7.996480 -20.699551 1.883765
-9.357850 21.630951 4.364165
-9.357850 18.678150 4.364165
-9.357850 18.678150 -9.545334
-9.357850 21.630951 -9.545334
-6.273820 19.428049 1.883765
-6.738090 19.218149 1.883765
-7.245070 19.268551 1.883765
-7.658950 19.565750 1.883765
-7.794450 19.784050 1.883765
-7.876950 20.286751 1.883765
-7.697050 20.763451 1.883765
-7.302940 21.086349 1.883765
-6.800180 21.168850 1.883765
-6.323510 20.988951 1.883765
-6.000650 20.594851 1.883765
-5.918120 20.092051 1.883765
-6.098010 19.615450 1.883765
7.602350 -21.022449 1.883765
7.099590 -21.104950 1.883765
6.622920 -20.925051 1.883765
6.300060 -20.530951 1.883765
6.217520 -20.028151 1.883765
6.397420 -19.551451 1.883765
6.791550 -19.228649 1.883765
7.294310 -19.146049 1.883765
7.770970 -19.325951 1.883765
8.093830 -19.720150 1.883765
8.168200 -19.966049 1.883765
8.117800 -20.473049 1.883765
7.996480 -20.699551 1.883765
-6.098010 19.615450 1.883765
-5.918120 20.092051 1.883765
-6.000650 20.594851 1.883765
-6.323510 20.988951 1.883765
-6.800180 21.168850 1.883765
-7.302940 21.086349 1.883765
-7.697050 20.763451 1.883765
-7.876950 20.286751 1.883765
-7.794450 19.784050 1.883765
-7.658950 19.565750 1.883765
-7.245070 19.268551 1.883765
-6.738090 19.218149 1.883765
-6.273820 19.428049 1.883765
-7.706350 19.686951 9.210365
-7.706350 19.686951 6.320765
-6.136140 20.813150 4.364165
-6.136140 20.813150 1.883765
9.327170 18.678150 4.364165
9.327170 21.630951 4.364165
9.327170 21.630951 -9.545334
9.327170 18.678150 -9.545334
-12.330750 -21.944349 -9.545334
-9.050350 -21.944349 -9.545334
-9.050350 -18.376450 -9.545334
-12.330750 -18.376450 -9.545334
7.356400 19.218149 1.883765
6.849410 19.268551 1.883765
6.435550 19.565750 1.883765
6.225700 20.029949 1.883765
6.276090 20.536949 1.883765
6.573230 20.950850 1.883765
6.791550 21.086349 1.883765
7.294310 21.168850 1.883765
7.770970 20.988951 1.883765
8.093830 20.594851 1.883765
8.176370 20.092051 1.883765
7.996480 19.615450 1.883765
7.820660 19.428049 1.883765
7.996480 19.615450 1.883765
8.176370 20.092051 1.883765
8.093830 20.594851 1.883765
7.770970 20.988951 1.883765
7.294310 21.168850 1.883765
6.791550 21.086349 1.883765
6.573230 20.950850 1.883765
6.276090 20.536949 1.883765
6.225700 20.029949 1.883765
6.435550 19.565750 1.883765
6.849410 19.268551 1.883765
7.356400 19.218149 1.883765
7.820660 19.428049 1.883765
8.631810 -22.332150 -9.545334
8.631810 -17.988649 -9.545334
8.631810 -17.988649 -9.899666
8.631810 -22.332150 -9.899666
12.687850 -17.988649 -9.545334
12.687850 -22.332150 -9.545334
12.687850 -22.332150 -9.899666
12.687850 -17.988649 -9.899666
12.687850 -17.988649 -9.545334
12.687850 -17.988649 -9.899666
8.631810 -17.988649 -9.899666
8.631810 -17.988649 -9.545334
-9.050350 21.938450 -9.820926
-9.050350 18.370649 -9.820926
-12.330750 18.370649 -9.820926
-12.330750 21.938450 -9.820926
12.687850 22.326349 -9.545334
12.687850 17.982849 -9.545334
12.687850 17.982849 -9.899666
12.687850 22.326349 -9.899666
12.687850 17.982849 -9.899666
12.687850 17.982849 -9.545334
8.631810 17.982849 -9.545334
8.631810 17.982849 -9.899666
-9.050350 -21.944349 -9.820926
-9.050350 -21.944349 -9.545334
-12.330750 -21.944349 -9.545334
-12.330750 -21.944349 -9.820926
15.748050 -27.559050 9.427166
-15.748050 -27.559050 9.427166
-15.748050 27.559050 9.427166
15.748050 27.559050 9.427166
-14.960650 -26.181049 9.899666
14.960650 -26.181049 9.899666
14.960650 26.181150 9.899666
-14.960650 26.181150 9.899666
-9.050350 -18.376450 -9.545334
-9.050350 -18.376450 -9.820926
-12.330750 -18.376450 -9.820926
-12.330750 -18.376450 -9.545334
-9.050350 21.938450 -9.545334
-9.050350 18.370649 -9.545334
-9.050350 18.370649 -9.820926
-9.050350 21.938450 -9.820926
7.958350 20.813150 4.364165
7.958350 20.813150 1.883765
-14.960650 -26.181049 9.899666
14.960650 -26.181049 9.899666
15.748050 -27.559050 9.427166
-15.748050 -27.559050 9.427166
-15.748050 27.559050 9.427166
15.748050 27.559050 9.427166
14.960650 26.181150 9.899666
-14.960650 26.181150 9.899666
-15.748050 -27.559050 9.427166
15.748050 -27.559050 9.427166
14.960650 -26.181049 9.899666
-14.960650 -26.181049 9.899666
8.314480 23.030251 2.238165
8.314480 23.030251 1.371965
-8.260350 23.030251 1.371965
-8.260350 23.030251 2.238165
15.748050 27.559050 9.427166
15.748050 -27.559050 9.427166
14.960650 -26.181049 9.899666
14.960650 26.181150 9.899666
8.314480 -23.308350 1.371965
-8.260350 -23.308350 1.371965
-8.260350 23.030251 1.371965
8.314480 23.030251 1.371965
-8.260350 -23.308350 2.238165
8.314480 -23.308350 2.238165
8.314480 23.030251 2.238165
-8.260350 23.030251 2.238165
15.748050 27.559050 9.427166
-15.748050 27.559050 9.427166
-15.748050 -27.559050 9.427166
15.748050 -27.559050 9.427166
8.314480 23.030251 2.238165
8.314480 -23.308350 2.238165
8.314480 -23.308350 1.371965
8.314480 23.030251 1.371965
8 0 1 2 3 4 5 6 7
4 8 9 10 11
4 12 13 14 15
8 16 17 18 19 20 21 22 23
4 24 25 26 27
4 28 29 30 31
4 32 33 34 35
7 36 37 38 39 40 41 42
4 43 44 45 46
4 47 48 49 50
4 51 52 53 54
4 55 56 57 58
4 59 60 61 62
4 63 64 65 66
4 67 68 69 70
4 71 72 73 74
13 75 76 77 78 79 80 81 82 83 84 85 86 87
4 88 89 90 91
4 92 93 94 95
13 96 97 98 99 100 101 102 103 104 105 106 107 108
4 11 10 109 110
4 111 112 89 88
4 113 114 115 116
29 117 118 119 120 121 122 123 124 125 40 39 126 127 38 37 128 129 130 131 132 133 134 135 136 137 138 139 140 141
7 142 143 144 145 146 147 148
4 149 150 151 152
4 153 154 155 156
4 157 158 159 160
4 161 162 163 164
4 165 166 167 168
4 169 170 171 172
4 173 174 175 176
4 177 178 179 180
4 181 182 183 184
4 185 186 187 188
4 189 190 191 192
4 193 194 195 196
4 197 198 199 200
4 201 202 203 204
4 205 206 26 25
4 207 208 209 210
4 191 211 212 192
4 213 214 215 216
4 217 218 206 205
4 219 220 221 222
14 223 224 225 226 227 228 229 230 231 232 233 234 235 236
4 237 112 111 238
4 239 181 184 240
4 241 242 243 244
4 245 246 247 248
4 249 250 251 252
4 253 254 255 256
4 209 257 258 210
4 259 260 261 262
4 263 264 265 266
4 267 268 269 270
4 271 272 273 274
4 275 276 277 278
30 279 146 145 280 281 144 143 282 283 284 285 286 287 288 289 290 291 292 142 148 293 294 295 296 297 298 299 300 301 302
4 303 304 305 306
15 307 308 309 310 311 312 313 314 315 316 317 318 319 320 321
4 152 151 322 323
8 324 325 326 327 328 329 330 331
22 332 333 314 313 334 335 336 337 338 339 321 320 340 318 317 341 342 343 344 345 346 347
4 348 349 350 351
13 352 353 354 355 356 357 358 359 360 361 362 363 364
4 43 28 31 44
4 365 366 367 368
4 369 370 371 372
4 373 374 375 376
4 377 378 72 71
4 202 379 380 203
27 381 382 383 384 385 386 387 388 389 390 391 392 393 394 395 396 397 398 399 400 401 402 403 404 405 406 407
4 58 57 408 409
4 410 411 412 413
4 246 414 415 247
13 416 417 418 419 420 421 422 423 424 425 426 427 428
4 429 430 431 432
4 433 434 435 436
4 51 437 438 52
4 169 12 15 170
4 92 95 366 365
14 439 440 441 442 443 444 445 446 447 448 449 450 451 452
4 453 454 455 456
4 457 91 90 458
4 459 460 461 462
4 463 24 27 464
4 465 466 467 468
4 469 239 240 470
4 33 471 472 34
4 473 218 217 474
4 475 476 477 478
4 479 480 481 482
4 483 484 485 486
4 487 488 489 490
4 491 492 493 494
4 495 496 497 498
4 499 500 501 502
8 503 504 505 506 507 508 509 510
4 511 512 513 514
8 515 516 517 518 519 520 521 522
30 523 524 525 522 521 526 527 528 529 530 531 532 533 534 535 536 519 518 537 538 517 516 539 540 541 542 543 544 545 546
4 547 548 549 550
13 551 552 553 554 555 556 557 558 559 560 561 562 563
4 379 190 189 380
4 564 565 566 567
4 183 182 568 569
4 569 568 372 371
4 197 200 566 565
4 165 193 196 166
4 162 570 571 163
4 572 434 433 573
4 574 575 576 577
4 578 463 464 579
4 580 581 582 583
4 29 584 585 30
4 586 587 588 589
4 150 149 572 573
4 589 588 590 591
4 188 187 592 593
4 594 245 248 595
4 243 177 180 244
4 596 597 598 599
4 600 601 602 603
4 585 584 56 55
4 109 604 605 110
4 606 607 587 586
4 323 322 276 275
4 571 570 378 377
13 608 609 610 611 612 613 614 615 616 617 618 619 620
4 48 161 164 49
4 199 198 186 185
13 621 622 623 624 625 626 627 628 629 630 631 632 633
13 634 635 636 637 638 639 640 641 642 643 644 645 646
11 647 400 399 385 384 381 407 648 649 650 651
33 652 430 429 653 654 655 656 657 658 659 660 661 662 663 664 665 666 667 668 669 432 431 670 671 672 673 674 675 676 677 678 679 680
4 681 682 683 684
4 413 412 195 194
4 657 656 661 660
4 685 686 581 580
4 596 201 204 597
4 462 461 438 437
4 683 687 688 684
4 121 133 132 122
4 574 577 237 238
4 179 178 472 471
4 689 583 582 690
4 691 168 167 692
4 693 469 470 694
4 695 696 697 698
4 699 700 701 702
4 13 9 8 14
13 703 704 705 706 707 708 709 710 711 712 713 714 715
4 716 717 718 719
13 720 721 722 723 724 725 726 727 728 729 730 731 732
13 733 734 735 736 737 738 739 740 741 742 743 744 745
13 746 747 748 749 750 751 752 753 754 755 756 757 758
4 213 54 53 214
4 93 682 681 94
4 759 457 458 760
4 257 689 690 258
4 761 762 411 410
4 256 255 351 350
4 763 764 765 766
4 767 768 769 770
13 771 772 773 774 775 776 777 778 779 780 781 782 783
13 784 785 786 787 788 789 790 791 792 793 794 795 796
4 797 798 799 800
4 801 802 803 804
4 805 806 807 808
4 809 810 811 812
4 813 814 815 816
4 817 818 819 820
4 821 822 823 824
4 825 826 827 828
4 829 830 831 832
4 833 834 835 836
4 837 838 839 840
4 841 564 567 842
4 601 695 698 602
4 843 844 845 846
4 847 848 849 850
4 851 852 853 854
4 855 856 857 858
4 859 860 861 862
4 591 590 697 696
4 863 864 865 866
4 867 868 869 870
4 871 872 873 874
4 875 876 877 878
4 349 348 415 414
