ply
format ascii 1.0
comment Created by Blender 2.82 (sub 7) - www.blender.org, source file: ''
element vertex 482
property float x
property float y
property float z
element face 112
property list uchar uint vertex_indices
end_header
-1.764140 -25.041651 -14.960650
-1.764140 -22.979650 -14.960650
-1.764140 -22.979650 7.086550
-1.764140 -25.041651 7.086550
1.764160 -25.041651 7.086550
1.764160 -25.041651 -14.960650
2.802160 -24.718651 -14.960650
2.802160 -24.718651 12.992150
-0.000040 -25.590651 12.992150
-0.000040 -25.590651 7.086550
-10.656240 3.062250 7.086550
-10.662340 -2.952750 7.086550
-8.690740 -2.952750 7.086550
-8.690740 3.062250 7.086550
-5.841340 17.309050 12.992150
-1.764140 22.980049 12.992150
-1.764140 22.980049 -14.960650
-5.841340 17.309050 -14.960650
-2.802240 -24.718651 12.992150
-0.000040 -25.590651 12.992150
2.802160 -24.718651 12.992150
7.655660 -18.095650 12.992150
10.457860 6.623350 12.992150
5.413360 22.162149 12.992150
2.802160 24.718651 12.992150
-0.000040 25.590549 12.992150
-2.802240 24.718651 12.992150
-5.413440 22.162149 12.992150
-10.457840 6.623350 12.992150
-7.655740 -18.095650 12.992150
-10.656240 3.062250 12.992150
-10.662340 -2.952750 12.992150
-10.662340 -2.952750 7.086550
-10.656240 3.062250 7.086550
7.655660 -18.095650 12.992150
2.802160 -24.718651 12.992150
-0.000040 -25.590651 12.992150
-2.802240 -24.718651 12.992150
-7.655740 -18.095650 12.992150
-10.457840 6.623350 12.992150
-5.413440 22.162149 12.992150
-2.802240 24.718651 12.992150
-0.000040 25.590549 12.992150
2.802160 24.718651 12.992150
5.413360 22.162149 12.992150
10.457860 6.623350 12.992150
-5.413440 -22.161650 12.992150
-10.457840 -6.623250 12.992150
-23.622061 -49.212650 12.992150
23.622061 -49.212650 12.992150
9.376260 -12.795650 12.992150
5.413360 -22.161650 12.992150
2.802160 -24.718651 12.992150
-0.000040 -25.590651 12.992150
-2.802240 -24.718651 12.992150
8.690760 2.952850 12.992150
8.690760 2.952850 -14.960650
10.662260 2.952850 -14.960650
10.662260 2.952850 12.992150
7.655660 18.095249 -14.960650
2.802160 24.718651 -14.960650
2.802160 24.718651 12.992150
7.655660 18.095249 12.992150
-23.622061 -49.212650 14.960650
-23.622061 49.212650 14.960650
-23.622061 49.212650 12.992150
-23.622061 -49.212650 12.992150
10.662260 2.952850 -14.960650
10.662260 2.952850 12.992150
-8.690740 2.952850 -14.960650
-5.841340 17.309050 -14.960650
-5.841340 17.309050 12.992150
-8.690740 2.952850 12.992150
2.802160 -24.718651 12.992150
2.802160 -24.718651 -14.960650
1.764160 -25.041651 -14.960650
1.764160 -25.041651 7.086550
-0.000040 -25.590651 7.086550
-0.000040 -25.590651 12.992150
-7.655740 -18.095650 -14.960650
-5.413440 -22.161650 -14.960650
-5.413440 -22.161650 12.992150
-7.655740 -18.095650 12.992150
-1.764140 -22.979650 12.992150
-1.764140 -22.979650 -14.960650
-1.764140 -22.979650 7.086550
-1.764140 -22.979650 7.086550
-1.764140 -22.979650 -14.960650
-1.764140 -22.979650 12.992150
-7.655740 -18.095650 12.992150
-5.413440 -22.161650 12.992150
-5.413440 -22.161650 -14.960650
-7.655740 -18.095650 -14.960650
-8.690740 -2.952750 7.086550
-8.690740 2.952850 7.086550
-8.690740 2.952850 12.992150
-8.690740 -2.952750 12.992150
10.662260 2.952850 12.992150
10.662260 2.952850 -14.960650
8.690760 2.952850 -14.960650
8.690760 2.952850 12.992150
1.764160 -22.979650 -14.960650
1.764160 -22.979650 7.086550
1.764160 -22.979650 12.992150
5.841260 -17.308649 12.992150
5.841260 -17.308649 -14.960650
1.764160 22.980049 12.992150
1.764160 22.980049 7.086550
-0.000040 23.528950 7.086550
-0.000040 23.528950 12.992150
23.622061 -49.212650 12.992150
23.622061 -49.212650 14.960650
-23.622061 -49.212650 14.960650
-23.622061 -49.212650 12.992150
-23.622061 -49.212650 12.992150
-23.622061 -49.212650 14.960650
23.622061 -49.212650 14.960650
23.622061 -49.212650 12.992150
-10.457840 -6.623250 12.992150
-9.376240 -12.795650 12.992150
-9.376240 -12.795650 -14.960650
-10.457840 -6.623250 -14.960650
-0.000040 23.528950 12.992150
-0.000040 23.528950 7.086550
1.764160 22.980049 7.086550
1.764160 22.980049 12.992150
8.690760 -2.952750 -14.960650
8.690760 -2.952750 12.992150
5.841260 -17.308649 12.992150
5.841260 -17.308649 -14.960650
7.655660 18.095249 12.992150
2.802160 24.718651 12.992150
2.802160 24.718651 -14.960650
7.655660 18.095249 -14.960650
10.662260 -2.952750 -14.960650
10.662260 -2.952750 12.992150
7.655660 -18.095650 12.992150
7.655660 -18.095650 -14.960650
-2.802240 -24.718651 12.992150
-2.802240 -24.718651 -14.960650
-1.764140 -25.041651 -14.960650
-1.764140 -25.041651 7.086550
-0.000040 -25.590651 7.086550
-0.000040 -25.590651 12.992150
-10.662340 -2.952750 7.086550
-8.690740 -2.952750 7.086550
-8.690740 -2.952750 12.992150
-10.662340 -2.952750 12.992150
5.841260 17.309050 -14.960650
1.764160 22.980049 -14.960650
5.841260 17.309050 12.992150
-10.457840 -6.623250 -14.960650
-9.376240 -12.795650 -14.960650
-9.376240 -12.795650 12.992150
-10.457840 -6.623250 12.992150
10.457860 6.623350 -14.960650
10.662260 2.952850 -14.960650
10.662260 2.952850 12.992150
10.457860 6.623350 12.992150
9.376260 12.795350 12.992150
9.376260 12.795350 -14.960650
-10.662340 -2.952750 7.086550
-10.662340 -2.952750 -14.960650
-8.690740 -2.952750 -14.960650
-8.690740 -2.952750 7.086550
-8.690740 -2.952750 7.086550
-10.662340 -2.952750 7.086550
-10.656240 3.062250 7.086550
-8.690740 3.062250 7.086550
-10.656240 3.062250 7.086550
-10.662340 -2.952750 7.086550
-10.662340 -2.952750 12.992150
-10.656240 3.062250 12.992150
-2.802240 -24.718651 12.992150
-0.000040 -25.590651 12.992150
2.802160 -24.718651 12.992150
23.622061 -49.212650 12.992150
-23.622061 -49.212650 12.992150
-9.376240 -12.795650 12.992150
-5.413440 -22.161650 12.992150
-0.000040 -23.528650 7.086550
-0.000040 -23.528650 12.992150
-8.690740 -2.952750 12.992150
-8.690740 2.952850 12.992150
-8.690740 2.952850 7.086550
-8.690740 -2.952750 7.086550
-8.690740 -2.952750 -14.960650
-5.841340 -17.308649 -14.960650
-5.841340 -17.308649 12.992150
-8.690740 -2.952750 12.992150
8.498860 -6.397850 12.992150
8.690760 -2.952750 12.992150
8.690760 -2.952750 -14.960650
8.498860 -6.397850 -14.960650
7.461160 -12.318650 -14.960650
7.461160 -12.318650 12.992150
-10.656240 3.062250 -14.960650
-10.656240 3.062250 12.992150
-7.655740 18.095249 12.992150
-7.655740 18.095249 -14.960650
10.662260 2.952850 -14.960650
7.655660 18.095249 -14.960650
2.802160 24.718651 -14.960650
1.764160 25.041651 -14.960650
1.764160 22.980049 -14.960650
5.841260 17.309050 -14.960650
8.690760 2.952850 -14.960650
-0.000040 23.528950 7.086550
-1.764140 22.980049 7.086550
-1.764140 25.041651 7.086550
-0.000040 25.590549 7.086550
1.764160 25.041651 7.086550
1.764160 22.980049 7.086550
1.764160 25.041651 -14.960650
2.802160 24.718651 -14.960650
7.655660 18.095249 -14.960650
10.662260 2.952850 -14.960650
8.690760 2.952850 -14.960650
5.841260 17.309050 -14.960650
1.764160 22.980049 -14.960650
10.662260 -2.952750 7.086550
10.662260 2.952850 7.086550
10.662260 2.952850 12.992150
10.662260 -2.952750 12.992150
-10.656240 3.062250 7.086550
-10.656240 3.062250 -14.960650
-8.690740 2.952850 -14.960650
-8.690740 2.952850 7.086550
-0.000040 -25.590651 12.992150
-0.000040 -25.590651 7.086550
-1.764140 -25.041651 7.086550
-1.764140 -25.041651 -14.960650
-2.802240 -24.718651 -14.960650
-2.802240 -24.718651 12.992150
1.764160 -22.979650 7.086550
1.764160 -22.979650 12.992150
-0.000040 -23.528650 12.992150
-0.000040 -23.528650 7.086550
-1.764140 22.980049 12.992150
-1.764140 22.980049 7.086550
-0.000040 23.528950 7.086550
-0.000040 23.528950 12.992150
-10.656240 3.062250 12.992150
-10.656240 3.062250 -14.960650
-7.655740 18.095249 -14.960650
-7.655740 18.095249 12.992150
-9.376240 -12.795650 -14.960650
-7.655740 -18.095650 -14.960650
-7.655740 -18.095650 12.992150
-9.376240 -12.795650 12.992150
-1.764140 22.980049 7.086550
-1.764140 22.980049 -14.960650
-9.376240 -12.795650 12.992150
-7.655740 -18.095650 12.992150
-7.655740 -18.095650 -14.960650
-9.376240 -12.795650 -14.960650
-2.802240 -24.718651 12.992150
-2.802240 -24.718651 -14.960650
-5.413440 -22.161650 -14.960650
-5.413440 -22.161650 12.992150
-0.000040 23.528950 12.992150
-0.000040 23.528950 7.086550
-8.690740 2.952850 12.992150
-8.690740 2.952850 -14.960650
-2.802240 24.718651 12.992150
-2.802240 24.718651 -14.960650
-0.000040 25.590549 12.992150
-2.802240 24.718651 12.992150
-2.802240 24.718651 -14.960650
-1.764140 25.041651 -14.960650
-1.764140 25.041651 7.086550
-0.000040 25.590549 7.086550
-1.764140 25.041651 7.086550
-1.764140 25.041651 -14.960650
-0.000040 25.590549 12.992150
-0.000040 25.590549 7.086550
1.764160 -22.979650 -14.960650
1.764160 25.041651 7.086550
1.764160 25.041651 -14.960650
-0.000040 25.590549 12.992150
-0.000040 25.590549 7.086550
1.764160 25.041651 -14.960650
1.764160 25.041651 7.086550
-0.000040 25.590549 7.086550
-0.000040 25.590549 12.992150
-5.841340 -17.308649 -14.960650
-5.841340 -17.308649 12.992150
7.461160 12.319150 12.992150
8.498860 6.397950 12.992150
8.690760 2.952850 12.992150
8.690760 2.952850 -14.960650
8.498860 6.397950 -14.960650
7.461160 12.319150 -14.960650
-10.662340 -2.952750 -14.960650
-10.662340 -2.952750 7.086550
-8.690740 -2.952750 7.086550
-8.690740 -2.952750 -14.960650
-8.498840 -6.397850 -14.960650
-8.690740 -2.952750 -14.960650
-8.690740 -2.952750 12.992150
-8.498840 -6.397850 12.992150
-7.461240 -12.318650 12.992150
-7.461240 -12.318650 -14.960650
7.461160 12.319150 -14.960650
8.498860 6.397950 -14.960650
8.690760 2.952850 -14.960650
8.690760 2.952850 12.992150
8.498860 6.397950 12.992150
7.461160 12.319150 12.992150
5.841260 17.309050 12.992150
5.841260 17.309050 -14.960650
-23.622061 -49.212650 14.960650
23.622061 -49.212650 14.960650
23.622061 49.212650 14.960650
-23.622061 49.212650 14.960650
1.764160 22.980049 -14.960650
-10.457840 -6.623250 -14.960650
-10.457840 -6.623250 12.992150
-10.662340 -2.952750 12.992150
-10.662340 -2.952750 -14.960650
10.662260 -2.952750 12.992150
10.662260 -2.952750 -14.960650
7.655660 -18.095650 -14.960650
7.655660 -18.095650 12.992150
-0.000040 -23.528650 7.086550
-0.000040 -23.528650 12.992150
7.655660 -18.095650 12.992150
10.457860 6.623350 12.992150
5.413360 22.162149 12.992150
2.802160 24.718651 12.992150
-0.000040 25.590549 12.992150
-2.802240 24.718651 12.992150
-5.413440 22.162149 12.992150
-10.457840 6.623350 12.992150
-23.622061 49.212650 12.992150
23.622061 49.212650 12.992150
-10.656240 3.062250 12.992150
-10.656240 3.062250 7.086550
-8.690740 2.952850 7.086550
-8.690740 2.952850 12.992150
-0.000040 -23.528650 12.992150
-0.000040 -23.528650 7.086550
-10.662340 -2.952750 12.992150
-8.690740 -2.952750 12.992150
-8.690740 -2.952750 7.086550
-10.662340 -2.952750 7.086550
-8.690740 2.952850 12.992150
-8.690740 2.952850 7.086550
-10.656240 3.062250 7.086550
-10.656240 3.062250 12.992150
8.690760 -2.952750 -14.960650
5.841260 -17.308649 -14.960650
1.764160 -22.979650 -14.960650
1.764160 -25.041651 -14.960650
2.802160 -24.718651 -14.960650
7.655660 -18.095650 -14.960650
10.662260 -2.952750 -14.960650
-0.000040 25.590549 12.992150
2.802160 24.718651 12.992150
5.413360 22.162149 12.992150
10.457860 6.623350 12.992150
23.622061 49.212650 12.992150
-23.622061 49.212650 12.992150
-7.655740 18.095249 12.992150
-2.802240 24.718651 12.992150
23.622061 49.212650 14.960650
23.622061 -49.212650 14.960650
23.622061 -49.212650 12.992150
23.622061 49.212650 12.992150
-23.622061 -49.212650 12.992150
-23.622061 49.212650 12.992150
-23.622061 49.212650 14.960650
-23.622061 -49.212650 14.960650
-1.764140 25.041651 -14.960650
-1.764140 22.980049 -14.960650
-5.841340 17.309050 -14.960650
-8.690740 2.952850 -14.960650
-10.656240 3.062250 -14.960650
-7.655740 18.095249 -14.960650
-2.802240 24.718651 -14.960650
23.622061 49.212650 14.960650
23.622061 49.212650 12.992150
-23.622061 49.212650 12.992150
-23.622061 49.212650 14.960650
-8.690740 2.952850 7.086550
-8.690740 2.952850 -14.960650
-10.656240 3.062250 -14.960650
-10.656240 3.062250 7.086550
23.622061 49.212650 12.992150
23.622061 -49.212650 12.992150
23.622061 -49.212650 14.960650
23.622061 49.212650 14.960650
-23.622061 49.212650 14.960650
-23.622061 49.212650 12.992150
23.622061 49.212650 12.992150
23.622061 49.212650 14.960650
-23.622061 49.212650 14.960650
23.622061 49.212650 14.960650
23.622061 -49.212650 14.960650
-23.622061 -49.212650 14.960650
-5.413440 -22.161650 12.992150
-5.413440 -22.161650 -14.960650
-2.802240 -24.718651 -14.960650
-2.802240 -24.718651 12.992150
-5.841340 17.309050 -14.960650
-1.764140 22.980049 -14.960650
-1.764140 25.041651 -14.960650
-2.802240 24.718651 -14.960650
-7.655740 18.095249 -14.960650
-10.656240 3.062250 -14.960650
-8.690740 2.952850 -14.960650
8.690760 2.952850 7.086550
10.662260 2.952850 7.086550
10.662260 -2.952750 7.086550
8.690760 -2.952750 7.086550
8.690760 -2.952750 7.086550
10.662260 -2.952750 7.086550
10.662260 2.952850 7.086550
8.690760 2.952850 7.086550
-10.662340 -2.952750 -14.960650
-10.662340 -2.952750 12.992150
-10.457840 -6.623250 12.992150
-10.457840 -6.623250 -14.960650
7.655660 -18.095650 -14.960650
2.802160 -24.718651 -14.960650
1.764160 -25.041651 -14.960650
1.764160 -22.979650 -14.960650
5.841260 -17.308649 -14.960650
8.690760 -2.952750 -14.960650
10.662260 -2.952750 -14.960650
1.764160 25.041651 -14.960650
1.764160 22.980049 -14.960650
1.764160 22.980049 7.086550
1.764160 25.041651 7.086550
10.662260 -2.952750 12.992150
10.662260 -2.952750 -14.960650
8.690760 -2.952750 -14.960650
8.690760 -2.952750 12.992150
8.690760 2.952850 12.992150
8.690760 -2.952750 12.992150
8.690760 -2.952750 7.086550
8.690760 2.952850 7.086550
10.662260 -2.952750 -14.960650
10.662260 -2.952750 12.992150
8.690760 -2.952750 12.992150
8.690760 -2.952750 -14.960650
8.690760 2.952850 7.086550
8.690760 -2.952750 7.086550
8.690760 -2.952750 12.992150
8.690760 2.952850 12.992150
-5.841340 -17.308649 -14.960650
-8.690740 -2.952750 -14.960650
-10.662340 -2.952750 -14.960650
-7.655740 -18.095650 -14.960650
-2.802240 -24.718651 -14.960650
-1.764140 -25.041651 -14.960650
-1.764140 -22.979650 -14.960650
1.764160 -22.979650 -14.960650
1.764160 -25.041651 -14.960650
1.764160 -25.041651 7.086550
1.764160 -22.979650 7.086550
-1.764140 22.980049 -14.960650
-1.764140 25.041651 -14.960650
-1.764140 25.041651 7.086550
-1.764140 22.980049 7.086550
10.662260 -2.952750 12.992150
10.662260 2.952850 12.992150
10.662260 2.952850 7.086550
10.662260 -2.952750 7.086550
1.764160 -22.979650 7.086550
1.764160 -25.041651 7.086550
-0.000040 -25.590651 7.086550
-1.764140 -25.041651 7.086550
-1.764140 -22.979650 7.086550
-0.000040 -23.528650 7.086550
-1.764140 -22.979650 -14.960650
-1.764140 -25.041651 -14.960650
-2.802240 -24.718651 -14.960650
-7.655740 -18.095650 -14.960650
-10.662340 -2.952750 -14.960650
-8.690740 -2.952750 -14.960650
-5.841340 -17.308649 -14.960650
4 0 1 2 3
6 4 5 6 7 8 9
4 10 11 12 13
4 14 15 16 17
12 18 19 20 21 22 23 24 25 26 27 28 29
4 30 31 32 33
12 34 35 36 37 38 39 40 41 42 43 44 45
9 46 47 48 49 50 51 52 53 54
4 55 56 57 58
4 59 60 61 62
4 63 64 65 66
4 67 59 62 68
4 69 70 71 72
6 73 74 75 76 77 78
4 79 80 81 82
3 83 84 85
3 86 87 88
4 89 90 91 92
4 93 94 95 96
4 97 98 99 100
5 101 102 103 104 105
4 106 107 108 109
4 110 111 112 113
4 114 115 116 117
4 118 119 120 121
4 122 123 124 125
4 126 127 128 129
4 130 131 132 133
4 134 135 136 137
6 138 139 140 141 142 143
4 144 145 146 147
5 148 149 107 106 150
4 151 152 153 154
8 155 156 157 158 159 130 133 160
4 161 162 163 164
4 165 166 167 168
4 169 170 171 172
7 173 174 175 176 177 178 179
4 180 181 83 85
4 182 183 184 185
4 186 187 188 189
8 190 191 192 193 194 105 104 195
4 196 197 198 199
7 200 201 202 203 204 205 206
6 207 208 209 210 211 212
7 213 214 215 216 217 218 219
4 7 6 137 136
4 220 221 222 223
4 224 225 226 227
6 228 229 230 231 232 233
4 234 235 236 237
4 238 239 240 241
4 242 243 244 245
4 246 247 248 249
3 16 15 250
3 239 238 251
4 252 253 254 255
4 256 257 258 259
4 260 261 250 15
4 262 14 17 263
4 199 198 264 265
6 266 267 268 269 270 271
6 272 273 265 264 274 275
5 235 234 276 129 128
4 188 187 84 83
6 277 278 132 131 279 280
4 70 251 238 71
6 281 282 283 284 61 60
4 285 286 88 87
8 287 288 289 290 291 292 148 150
4 293 294 295 296
8 297 298 299 300 301 286 285 302
8 303 304 305 306 307 308 309 310
4 311 312 313 314
5 124 315 310 309 125
4 245 244 268 267
4 316 317 318 319
4 320 321 322 323
4 324 325 103 102
14 326 327 328 329 330 331 332 333 178 177 334 335 176 175
4 336 337 338 339
4 86 88 340 341
4 342 343 344 345
4 346 347 348 349
7 350 351 352 353 354 355 356
12 357 358 359 360 50 49 361 362 48 47 363 364
4 365 366 367 368
4 369 370 371 372
7 373 374 375 376 377 378 379
4 380 381 382 383
4 384 385 386 387
4 388 389 390 391
4 392 393 394 395
4 396 397 398 399
4 400 401 402 403
7 404 405 406 407 408 409 410
4 411 412 413 414
4 415 416 417 418
4 322 74 73 323
4 419 420 421 422
7 423 424 425 426 427 428 429
4 430 431 432 433
4 434 435 436 437
4 438 439 440 441
4 442 443 444 445
4 446 447 448 449
7 450 451 452 453 454 455 456
4 457 458 459 460
4 461 462 463 464
4 465 466 467 468
6 469 470 471 472 473 474
7 475 476 477 478 479 480 481
