ply
format ascii 1.0
comment Created by Blender 2.82 (sub 7) - www.blender.org, source file: ''
element vertex 100
property float x
property float y
property float z
element face 22
property list uchar uint vertex_indices
end_header
17.000000 30.000000 12.000000
-17.000000 30.000000 12.000000
-17.000000 30.000000 -14.500000
-19.000000 30.000000 -14.500000
-19.000000 30.000000 14.500000
19.000000 30.000000 14.500000
19.000000 30.000000 -14.500000
17.000000 30.000000 -14.500000
17.000000 -30.000000 12.000000
17.000000 -28.000000 12.000000
17.000000 -28.000000 -14.500000
17.000000 -30.000000 -14.500000
-19.000000 -30.000000 14.500000
19.000000 -30.000000 14.500000
19.000000 30.000000 14.500000
-19.000000 30.000000 14.500000
-17.000000 28.000000 -14.500000
-17.000000 28.000000 12.000000
-19.000000 28.000000 12.000000
-19.000000 28.000000 -14.500000
-17.000000 -30.000000 -14.500000
-17.000000 -30.000000 12.000000
17.000000 -30.000000 12.000000
17.000000 -30.000000 -14.500000
19.000000 -30.000000 -14.500000
19.000000 -30.000000 14.500000
-19.000000 -30.000000 14.500000
-19.000000 -30.000000 -14.500000
-19.000000 -30.000000 14.500000
-19.000000 30.000000 14.500000
-19.000000 30.000000 -14.500000
-19.000000 28.000000 -14.500000
-19.000000 28.000000 12.000000
-19.000000 -28.000000 12.000000
-19.000000 -28.000000 -14.500000
-19.000000 -30.000000 -14.500000
-17.000000 -28.000000 12.000000
-17.000000 -28.000000 -14.500000
-19.000000 -28.000000 -14.500000
-19.000000 -28.000000 12.000000
-19.000000 -28.000000 12.000000
19.000000 -28.000000 12.000000
17.000000 -28.000000 12.000000
-17.000000 -28.000000 12.000000
19.000000 28.000000 -14.500000
19.000000 28.000000 12.000000
17.000000 28.000000 12.000000
17.000000 28.000000 -14.500000
19.000000 28.000000 -14.500000
17.000000 28.000000 -14.500000
17.000000 30.000000 -14.500000
19.000000 30.000000 -14.500000
17.000000 28.000000 12.000000
17.000000 30.000000 12.000000
17.000000 30.000000 -14.500000
17.000000 28.000000 -14.500000
-19.000000 28.000000 12.000000
-17.000000 28.000000 12.000000
-17.000000 30.000000 12.000000
17.000000 30.000000 12.000000
17.000000 28.000000 12.000000
19.000000 28.000000 12.000000
17.000000 -30.000000 12.000000
-17.000000 -30.000000 12.000000
19.000000 30.000000 14.500000
19.000000 -30.000000 14.500000
19.000000 -30.000000 -14.500000
19.000000 -28.000000 -14.500000
19.000000 -28.000000 12.000000
19.000000 28.000000 12.000000
19.000000 28.000000 -14.500000
19.000000 30.000000 -14.500000
-19.000000 30.000000 12.000000
-19.000000 -30.000000 12.000000
19.000000 -30.000000 12.000000
19.000000 30.000000 12.000000
19.000000 -30.000000 -14.500000
17.000000 -30.000000 -14.500000
17.000000 -28.000000 -14.500000
19.000000 -28.000000 -14.500000
-17.000000 -28.000000 12.000000
-17.000000 -30.000000 12.000000
-17.000000 -30.000000 -14.500000
-17.000000 -28.000000 -14.500000
19.000000 -28.000000 12.000000
19.000000 -28.000000 -14.500000
17.000000 -28.000000 -14.500000
17.000000 -28.000000 12.000000
-17.000000 30.000000 12.000000
-17.000000 28.000000 12.000000
-17.000000 28.000000 -14.500000
-17.000000 30.000000 -14.500000
-17.000000 28.000000 -14.500000
-19.000000 28.000000 -14.500000
-19.000000 30.000000 -14.500000
-17.000000 30.000000 -14.500000
-17.000000 -30.000000 -14.500000
-19.000000 -30.000000 -14.500000
-19.000000 -28.000000 -14.500000
-17.000000 -28.000000 -14.500000
8 0 1 2 3 4 5 6 7
4 8 9 10 11
4 12 13 14 15
4 16 17 18 19
8 20 21 22 23 24 25 26 27
8 28 29 30 31 32 33 34 35
4 36 37 38 39
3 40 41 42
3 40 42 43
4 44 45 46 47
4 48 49 50 51
4 52 53 54 55
8 41 40 56 57 58 59 60 61
4 62 63 43 42
8 64 65 66 67 68 69 70 71
4 72 73 74 75
4 76 77 78 79
4 80 81 82 83
4 84 85 86 87
4 88 89 90 91
4 92 93 94 95
4 96 97 98 99
