ply
format ascii 1.0
comment Created by Blender 2.82 (sub 7) - www.blender.org, source file: ''
element vertex 256
property float x
property float y
property float z
element face 64
property list uchar uint vertex_indices
end_header
-7.829773 17.590231 -33.318134
-7.829773 22.943359 -32.504436
-7.829773 -14.761950 32.803143
-7.829773 -19.805450 32.863743
-15.342583 21.731680 33.496559
-8.563733 21.731680 33.496559
-8.563733 26.547020 33.252995
-15.342583 26.547020 33.252995
-15.342583 -16.201750 -32.276535
-8.563733 -16.201750 -32.276535
-8.563733 21.731680 33.496559
-15.342583 21.731680 33.496559
8.563717 22.110060 -33.252934
8.563717 -15.595250 32.054604
15.342517 -15.595250 32.054604
15.342517 22.110060 -33.252934
7.829717 27.380325 32.504463
7.829717 -10.325050 -32.803135
14.608617 -10.325050 -32.803135
14.608617 27.380325 32.504463
15.342517 22.110060 -33.252934
15.342517 -15.595250 32.054604
8.563717 -15.595250 32.054604
8.563717 22.110060 -33.252934
-8.563733 -11.158350 -32.054535
-8.563733 26.547020 33.252995
-8.563733 21.731680 33.496559
-8.563733 -16.201750 -32.276535
15.342517 17.294750 -33.496536
8.563717 17.294750 -33.496536
8.563717 22.110060 -33.252934
15.342517 22.110060 -33.252934
-15.342583 -16.201750 -32.276535
-15.342583 -11.158350 -32.054535
-15.342583 26.547020 33.252995
-15.342583 21.731680 33.496559
15.841817 27.562349 33.720467
15.841817 27.562349 32.645664
-15.484983 27.562349 32.645664
-15.484983 27.562349 33.720467
-14.608625 -19.805450 32.863743
-14.608625 17.590231 -33.318134
-14.608625 22.943359 -32.504436
-14.608625 -14.761950 32.803143
15.841817 -23.125450 32.645664
-15.484983 -23.125450 32.645664
-15.484983 27.562349 32.645664
15.841817 27.562349 32.645664
15.342517 0.109950 -1.535335
15.342517 0.109950 -4.575935
15.342517 5.766450 -4.575935
15.342517 5.766450 -1.535335
-15.484983 -23.125450 33.720467
15.841817 -23.125450 33.720467
15.841817 27.562349 33.720467
-15.484983 27.562349 33.720467
-15.342583 26.547020 33.252995
-8.563733 26.547020 33.252995
-8.563733 21.731680 33.496559
-15.342583 21.731680 33.496559
15.841817 27.562349 37.076286
15.841817 -23.125450 37.076286
15.841817 -23.125450 33.720467
15.841817 27.562349 33.720467
-15.484983 -23.125450 33.720467
-15.484983 27.562349 33.720467
-15.484983 27.562349 32.645664
-15.484983 -23.125450 32.645664
-14.608625 -19.805450 32.863743
-7.829773 -19.805450 32.863743
-7.829773 -14.761950 32.803143
-14.608625 -14.761950 32.803143
-14.608625 -19.805450 32.863743
-14.608625 17.590231 -33.318134
-7.829773 17.590231 -33.318134
-7.829773 -19.805450 32.863743
7.829717 -15.368450 -32.863735
7.829717 22.027189 33.318165
14.608617 22.027189 33.318165
14.608617 -15.368450 -32.863735
15.841817 27.562349 33.720467
15.841817 -23.125450 33.720467
15.841817 -23.125450 32.645664
15.841817 27.562349 32.645664
8.563717 -15.595250 32.054604
8.563717 22.110060 -33.252934
8.563717 17.294750 -33.496536
8.563717 -20.638750 32.276627
15.342517 17.294750 -33.496536
15.342517 22.110060 -33.252934
15.342517 -15.595250 32.054604
15.342517 -20.638750 32.276627
14.608617 -10.325050 -32.803135
14.608617 27.380325 32.504463
14.608617 22.027189 33.318165
14.608617 -15.368450 -32.863735
15.342517 0.109950 -1.535335
-15.342581 0.109950 -1.535335
-15.342581 0.109950 -4.575935
15.342517 0.109950 -4.575935
7.829717 22.027189 33.318165
7.829717 27.380325 32.504463
7.829717 -10.325050 -32.803135
7.829717 -15.368450 -32.863735
-14.608625 -14.761950 32.803143
-14.608625 22.943359 -32.504436
-14.608625 17.590231 -33.318134
-14.608625 -19.805450 32.863743
-8.563733 26.547020 33.252995
-8.563733 -11.158350 -32.054535
-15.342583 -11.158350 -32.054535
-15.342583 26.547020 33.252995
-15.342583 21.731680 33.496559
-8.563733 21.731680 33.496559
-8.563733 -16.201750 -32.276535
-15.342583 -16.201750 -32.276535
-15.484983 -23.125450 33.720467
-15.484983 27.562349 33.720467
-15.484983 27.562349 37.078136
-15.484983 -23.125450 37.078136
15.841817 27.562349 33.720467
15.841817 -23.125450 33.720467
15.841817 -23.125450 37.076286
15.841817 27.562349 37.076286
-15.342583 26.547020 33.252995
-15.342583 -11.158350 -32.054535
-8.563733 -11.158350 -32.054535
-8.563733 26.547020 33.252995
14.608617 -15.368450 -32.863735
14.608617 22.027189 33.318165
7.829717 22.027189 33.318165
7.829717 -15.368450 -32.863735
-15.484983 27.562349 37.078136
-15.484983 27.562349 33.720467
-15.484983 -23.125450 33.720467
-15.484983 -23.125450 37.078136
-8.563733 -11.158350 -32.054535
-15.342583 -11.158350 -32.054535
-15.342583 -16.201750 -32.276535
-8.563733 -16.201750 -32.276535
-14.608625 -14.761950 32.803143
-7.829773 -14.761950 32.803143
-7.829773 -19.805450 32.863743
-14.608625 -19.805450 32.863743
15.342517 22.110060 -33.252934
8.563717 22.110060 -33.252934
8.563717 17.294750 -33.496536
15.342517 17.294750 -33.496536
-14.608625 22.943359 -32.504436
-14.608625 -14.761950 32.803143
-7.829773 -14.761950 32.803143
-7.829773 22.943359 -32.504436
15.841817 -23.125450 32.645664
15.841817 -23.125450 33.720467
-15.484983 -23.125450 33.720467
-15.484983 -23.125450 32.645664
-15.484983 -23.125450 33.720467
-15.484983 -23.125450 37.076286
15.841817 -23.125450 37.076286
15.841817 -23.125450 33.720467
-7.829773 22.943359 -32.504436
-7.829773 -14.761950 32.803143
-14.608625 -14.761950 32.803143
-14.608625 22.943359 -32.504436
14.608617 -15.368450 -32.863735
7.829717 -15.368450 -32.863735
7.829717 -10.325050 -32.803135
14.608617 -10.325050 -32.803135
14.608617 -15.368450 -32.863735
14.608617 22.027189 33.318165
14.608617 27.380325 32.504463
14.608617 -10.325050 -32.803135
7.829717 -15.368450 -32.863735
7.829717 -10.325050 -32.803135
7.829717 27.380325 32.504463
7.829717 22.027189 33.318165
14.608617 27.380325 32.504463
14.608617 -10.325050 -32.803135
7.829717 -10.325050 -32.803135
7.829717 27.380325 32.504463
-15.342583 21.731680 33.496559
-15.342583 26.547020 33.252995
-15.342583 -11.158350 -32.054535
-15.342583 -16.201750 -32.276535
-8.563733 -16.201750 -32.276535
-15.342583 -16.201750 -32.276535
-15.342583 -11.158350 -32.054535
-8.563733 -11.158350 -32.054535
15.841817 -23.125450 33.720467
15.841817 -23.125450 37.076286
-15.484983 -23.125450 37.076286
-15.484983 -23.125450 33.720467
-7.829773 -19.805450 32.863743
-7.829773 17.590231 -33.318134
-14.608625 17.590231 -33.318134
-14.608625 -19.805450 32.863743
-7.829773 -19.805450 32.863743
-7.829773 -14.761950 32.803143
-7.829773 22.943359 -32.504436
-7.829773 17.590231 -33.318134
15.342517 -20.638750 32.276627
8.563717 -20.638750 32.276627
8.563717 17.294750 -33.496536
15.342517 17.294750 -33.496536
-15.342581 0.109950 -4.575935
-15.342581 0.109950 -1.535335
-15.342581 5.766450 -1.535335
-15.342581 5.766450 -4.575935
15.342517 -20.638750 32.276627
15.342517 -15.595250 32.054604
15.342517 22.110060 -33.252934
15.342517 17.294750 -33.496536
-15.484983 27.562349 37.078136
-15.484983 27.562349 33.720467
15.841817 27.562349 33.720467
15.841817 27.562349 37.078136
8.563717 -20.638750 32.276627
8.563717 17.294750 -33.496536
8.563717 22.110060 -33.252934
8.563717 -15.595250 32.054604
14.608617 -10.325050 -32.803135
7.829717 -10.325050 -32.803135
7.829717 -15.368450 -32.863735
14.608617 -15.368450 -32.863735
8.563717 -20.638750 32.276627
15.342517 -20.638750 32.276627
15.342517 -15.595250 32.054604
8.563717 -15.595250 32.054604
15.841817 27.562349 37.078136
15.841817 27.562349 33.720467
-15.484983 27.562349 33.720467
-15.484983 27.562349 37.078136
-15.342581 5.766450 -1.535335
-15.342581 0.109950 -1.535335
15.342517 0.109950 -1.535335
15.342517 5.766450 -1.535335
-15.342581 0.109950 -4.575935
-15.342581 5.766450 -4.575935
15.342517 5.766450 -4.575935
15.342517 0.109950 -4.575935
8.563717 -15.595250 32.054604
15.342517 -15.595250 32.054604
15.342517 -20.638750 32.276627
8.563717 -20.638750 32.276627
-8.563733 -16.201750 -32.276535
-8.563733 21.731680 33.496559
-8.563733 26.547020 33.252995
-8.563733 -11.158350 -32.054535
-15.342581 5.766450 -1.535335
15.342517 5.766450 -1.535335
15.342517 5.766450 -4.575935
-15.342581 5.766450 -4.575935
15.342517 17.294750 -33.496536
8.563717 17.294750 -33.496536
8.563717 -20.638750 32.276627
15.342517 -20.638750 32.276627
4 0 1 2 3
4 4 5 6 7
4 8 9 10 11
4 12 13 14 15
4 16 17 18 19
4 20 21 22 23
4 24 25 26 27
4 28 29 30 31
4 32 33 34 35
4 36 37 38 39
4 40 41 42 43
4 44 45 46 47
4 48 49 50 51
4 52 53 54 55
4 56 57 58 59
4 60 61 62 63
4 64 65 66 67
4 68 69 70 71
4 72 73 74 75
4 76 77 78 79
4 80 81 82 83
4 84 85 86 87
4 88 89 90 91
4 92 93 94 95
4 96 97 98 99
4 100 101 102 103
4 104 105 106 107
4 108 109 110 111
4 112 113 114 115
4 116 117 118 119
4 120 121 122 123
4 124 125 126 127
4 128 129 130 131
4 132 133 134 135
4 136 137 138 139
4 140 141 142 143
4 144 145 146 147
4 148 149 150 151
4 152 153 154 155
4 156 157 158 159
4 160 161 162 163
4 164 165 166 167
4 168 169 170 171
4 172 173 174 175
4 176 177 178 179
4 180 181 182 183
4 184 185 186 187
4 188 189 190 191
4 192 193 194 195
4 196 197 198 199
4 200 201 202 203
4 204 205 206 207
4 208 209 210 211
4 212 213 214 215
4 216 217 218 219
4 220 221 222 223
4 224 225 226 227
4 228 229 230 231
4 232 233 234 235
4 236 237 238 239
4 240 241 242 243
4 244 245 246 247
4 248 249 250 251
4 252 253 254 255
