ply
format ascii 1.0
comment Created by Blender 2.82 (sub 7) - www.blender.org, source file: ''
element vertex 364
property float x
property float y
property float z
element face 96
property list uchar uint vertex_indices
end_header
-4.234050 27.231400 11.811050
-5.769850 28.767300 11.811050
-14.078030 37.075401 -13.385850
-12.407780 35.405201 -13.385850
-3.475750 26.473200 4.794950
4.263150 -28.374100 4.165050
-4.263150 -28.374100 4.165050
-4.263150 28.374100 4.165050
4.263150 28.374100 4.165050
-7.526650 -32.444302 4.947750
-7.526650 -32.444302 4.642050
-4.742750 -29.660400 4.642050
-4.742750 -29.660400 4.947750
12.964450 38.188999 -13.385850
4.656350 29.880800 11.811050
5.769850 28.767300 11.811050
14.077950 37.075401 -13.385850
8.333350 31.637600 4.642050
8.225250 31.745701 4.377350
8.138750 31.832100 4.283550
7.929950 32.040901 4.204350
7.821850 32.148998 4.224550
7.634650 32.336201 4.377350
7.568350 32.402599 4.499650
7.512350 32.458500 4.794950
7.568350 32.402599 5.090250
7.634650 32.336201 5.212550
7.821850 32.148998 5.365350
8.038050 31.932899 5.365350
8.225250 31.745701 5.212550
8.333350 31.637600 4.947750
-4.937350 -29.465799 4.283550
-7.721200 -32.249699 4.283550
-7.929990 -32.040901 4.204350
-5.146150 -29.257099 4.204350
14.077950 -37.075401 -13.385850
5.769850 -28.767300 11.811050
4.656350 -29.880800 11.811050
12.964450 -38.188999 -13.385850
-2.362250 27.586700 4.794950
-3.475750 26.473200 4.794950
-12.407780 35.405201 -13.385850
-11.294230 36.518700 -13.385850
12.964450 38.188999 -13.385850
11.294150 36.518700 -13.385850
2.362150 27.586700 4.794950
3.120450 28.344999 11.811050
4.656350 29.880800 11.811050
4.784450 29.618700 4.499650
7.568350 32.402599 4.499650
7.721150 32.249699 4.283550
4.937250 29.465799 4.283550
-12.964470 -38.188999 -13.385850
-4.656350 -29.880800 11.811050
-5.769850 -28.767300 11.811050
-14.078030 -37.075401 -13.385850
-7.634750 32.336201 5.212550
-4.850850 29.552299 5.212550
-4.742750 29.660400 4.947750
-7.526650 32.444302 4.947750
-5.254150 29.149000 5.365350
-5.038050 29.365101 5.365350
-7.821910 32.148998 5.365350
-8.038070 31.932899 5.365350
-8.225270 31.745701 5.212550
-8.333340 31.637600 4.947750
-5.549450 28.853701 4.947750
-5.441350 28.961800 5.212550
-5.441350 -28.961800 5.212550
-8.225260 -31.745701 5.212550
-8.038070 -31.932899 5.365350
-5.254150 -29.149000 5.365350
-5.549450 -28.853701 4.642050
-8.333340 -31.637600 4.642050
-8.333340 -31.637600 4.947750
-5.549450 -28.853701 4.947750
-5.549450 28.853701 4.642050
-8.333340 31.637600 4.642050
-8.291630 31.679300 4.499650
-5.507750 28.895399 4.499650
5.037950 -29.365101 5.365350
7.821850 -32.148998 5.365350
8.038050 -31.932899 5.365350
5.254150 -29.149000 5.365350
-5.146150 29.257099 4.204350
-5.354850 29.048300 4.283550
-8.138780 31.832100 4.283550
-7.929990 32.040901 4.204350
-4.234050 -27.231400 11.811050
-3.120450 -28.344999 11.811050
-2.362250 -27.586700 4.794950
-3.475750 -26.473200 4.794950
8.225250 -31.745701 5.212550
8.333350 -31.637600 4.947750
5.549450 -28.853701 4.947750
5.441350 -28.961800 5.212550
4.728450 -29.674601 4.794950
7.512350 -32.458500 4.794950
7.568350 -32.402599 5.090250
4.784450 -29.618700 5.090250
4.850750 -29.552299 5.212550
7.634650 -32.336201 5.212550
8.138750 -31.832100 4.283550
5.354850 -29.048300 4.283550
5.441350 -28.961800 4.377350
8.225250 -31.745701 4.377350
4.234050 -27.231400 11.811050
5.769850 -28.767300 11.811050
14.077950 -37.075401 -13.385850
12.407750 -35.405201 -13.385850
3.475750 -26.473200 4.794950
11.294150 -36.518700 -13.385850
12.964450 -38.188999 -13.385850
4.656350 -29.880800 11.811050
3.120450 -28.344999 11.811050
2.362150 -27.586700 4.794950
4.850750 29.552299 5.212550
4.784450 29.618700 5.090250
4.728450 29.674601 4.794950
4.784450 29.618700 4.499650
4.937250 29.465799 4.283550
5.146050 29.257099 4.204350
5.254150 29.149000 4.224550
5.441350 28.961800 4.377350
5.549450 28.853701 4.642050
5.549450 28.853701 4.947750
5.441350 28.961800 5.212550
5.254150 29.149000 5.365350
5.037950 29.365101 5.365350
-12.964470 38.188999 -13.385850
-11.294230 36.518700 -13.385850
-12.407780 35.405201 -13.385850
-14.078030 37.075401 -13.385850
-5.354850 -29.048300 4.283550
-8.138780 -31.832100 4.283550
-5.254150 29.149000 5.365350
-5.441350 28.961800 5.212550
-5.549450 28.853701 4.947750
-5.549450 28.853701 4.642050
-5.507750 28.895399 4.499650
-5.354850 29.048300 4.283550
-5.146150 29.257099 4.204350
-4.937350 29.465799 4.283550
-4.784450 29.618700 4.499650
-4.742750 29.660400 4.642050
-4.742750 29.660400 4.947750
-4.850850 29.552299 5.212550
-5.038050 29.365101 5.365350
-4.850850 -29.552299 5.212550
-5.038050 -29.365101 5.365350
-7.821910 -32.148998 5.365350
-7.634750 -32.336201 5.212550
4.263150 28.374100 5.424850
4.263150 28.374100 4.165050
-4.263150 28.374100 4.165050
-4.263150 28.374100 5.424850
4.784450 -29.618700 5.090250
4.850750 -29.552299 5.212550
5.037950 -29.365101 5.365350
5.254150 -29.149000 5.365350
5.441350 -28.961800 5.212550
5.549450 -28.853701 4.947750
5.549450 -28.853701 4.642050
5.441350 -28.961800 4.377350
5.254150 -29.149000 4.224550
5.146050 -29.257099 4.204350
4.937250 -29.465799 4.283550
4.784450 -29.618700 4.499650
4.728450 -29.674601 4.794950
4.263150 28.374100 5.424850
4.263150 -28.374100 5.424850
4.263150 -28.374100 4.165050
4.263150 28.374100 4.165050
5.037950 29.365101 5.365350
5.254150 29.149000 5.365350
8.038050 31.932899 5.365350
7.821850 32.148998 5.365350
5.441350 28.961800 4.377350
5.354850 29.048300 4.283550
8.138750 31.832100 4.283550
8.225250 31.745701 4.377350
-12.407780 -35.405201 -13.385850
-14.078030 -37.075401 -13.385850
-5.769850 -28.767300 11.811050
-4.234050 -27.231400 11.811050
-3.475750 -26.473200 4.794950
-12.964470 -38.188999 -13.385850
-11.294230 -36.518700 -13.385850
-2.362250 -27.586700 4.794950
-3.120450 -28.344999 11.811050
-4.656350 -29.880800 11.811050
-4.784450 -29.618700 4.499650
-4.937350 -29.465799 4.283550
-5.146150 -29.257099 4.204350
-5.354850 -29.048300 4.283550
-5.507750 -28.895399 4.499650
-5.549450 -28.853701 4.642050
-5.549450 -28.853701 4.947750
-5.441350 -28.961800 5.212550
-5.254150 -29.149000 5.365350
-5.038050 -29.365101 5.365350
-4.850850 -29.552299 5.212550
-4.742750 -29.660400 4.947750
-4.742750 -29.660400 4.642050
4.850750 29.552299 5.212550
7.634650 32.336201 5.212550
7.568350 32.402599 5.090250
4.784450 29.618700 5.090250
-17.716551 -49.212601 13.385850
-17.716551 49.212601 13.385850
-17.716551 49.212601 11.811050
-17.716551 -49.212601 11.811050
-8.291630 -31.679300 4.499650
-5.507750 -28.895399 4.499650
8.333350 31.637600 4.947750
5.549450 28.853701 4.947750
5.549450 28.853701 4.642050
8.333350 31.637600 4.642050
17.716551 49.212601 13.385850
17.716551 -49.212601 13.385850
17.716551 -49.212601 11.811050
17.716551 49.212601 11.811050
17.716551 -49.212601 11.811050
17.716551 -49.212601 13.385850
-17.716551 -49.212601 13.385850
-17.716551 -49.212601 11.811050
4.937250 -29.465799 4.283550
5.146050 -29.257099 4.204350
7.929950 -32.040901 4.204350
7.721150 -32.249699 4.283550
8.333350 -31.637600 4.642050
8.333350 -31.637600 4.947750
8.225250 -31.745701 5.212550
8.038050 -31.932899 5.365350
7.821850 -32.148998 5.365350
7.634650 -32.336201 5.212550
7.568350 -32.402599 5.090250
7.512350 -32.458500 4.794950
7.568350 -32.402599 4.499650
7.634650 -32.336201 4.377350
7.821850 -32.148998 4.224550
7.929950 -32.040901 4.204350
8.138750 -31.832100 4.283550
8.225250 -31.745701 4.377350
-3.120450 28.344999 11.811050
-4.234050 27.231400 11.811050
-3.475750 26.473200 4.794950
-2.362250 27.586700 4.794950
-7.721200 32.249699 4.283550
-4.937350 29.465799 4.283550
12.964450 -38.188999 -13.385850
11.294150 -36.518700 -13.385850
12.407750 -35.405201 -13.385850
14.077950 -37.075401 -13.385850
8.225250 31.745701 5.212550
5.441350 28.961800 5.212550
4.234050 27.231400 11.811050
3.120450 28.344999 11.811050
2.362150 27.586700 4.794950
3.475750 26.473200 4.794950
-12.964470 38.188999 -13.385850
-4.656350 29.880800 11.811050
-3.120450 28.344999 11.811050
-2.362250 27.586700 4.794950
-11.294230 36.518700 -13.385850
4.263150 -28.374100 4.165050
4.263150 -28.374100 5.424850
-4.263150 -28.374100 5.424850
-4.263150 -28.374100 4.165050
12.407750 35.405201 -13.385850
14.077950 37.075401 -13.385850
5.769850 28.767300 11.811050
4.234050 27.231400 11.811050
3.475750 26.473200 4.794950
-14.078030 37.075401 -13.385850
-5.769850 28.767300 11.811050
-4.656350 29.880800 11.811050
-12.964470 38.188999 -13.385850
7.512350 32.458500 4.794950
4.728450 29.674601 4.794950
14.077950 37.075401 -13.385850
12.407750 35.405201 -13.385850
11.294150 36.518700 -13.385850
12.964450 38.188999 -13.385850
3.475750 26.473200 4.794950
2.362150 27.586700 4.794950
11.294150 36.518700 -13.385850
12.407750 35.405201 -13.385850
17.716551 49.212601 13.385850
17.716551 49.212601 11.811050
-17.716551 49.212601 11.811050
-17.716551 49.212601 13.385850
-4.263150 -28.374100 5.424850
4.263150 -28.374100 5.424850
4.263150 28.374100 5.424850
-4.263150 28.374100 5.424850
-8.333340 -31.637600 4.642050
-8.291630 -31.679300 4.499650
-8.138780 -31.832100 4.283550
-7.929990 -32.040901 4.204350
-7.721200 -32.249699 4.283550
-7.568350 -32.402599 4.499650
-7.526650 -32.444302 4.642050
-7.526650 -32.444302 4.947750
-7.634750 -32.336201 5.212550
-7.821910 -32.148998 5.365350
-8.038070 -31.932899 5.365350
-8.138780 -31.832100 5.306350
-8.291630 -31.679300 5.090250
-8.333340 -31.637600 4.947750
-4.263150 -28.374100 5.424850
-4.263150 28.374100 5.424850
-4.263150 28.374100 4.165050
-4.263150 -28.374100 4.165050
8.333350 -31.637600 4.642050
5.549450 -28.853701 4.642050
-4.784450 -29.618700 4.499650
-7.568350 -32.402599 4.499650
-7.568350 32.402599 4.499650
-4.784450 29.618700 4.499650
17.716551 -49.212601 11.811050
-17.716551 -49.212601 11.811050
-17.716551 49.212601 11.811050
17.716551 49.212601 11.811050
-14.078030 -37.075401 -13.385850
-12.407780 -35.405201 -13.385850
-11.294230 -36.518700 -13.385850
-12.964470 -38.188999 -13.385850
3.120450 -28.344999 11.811050
4.234050 -27.231400 11.811050
3.475750 -26.473200 4.794950
2.362150 -27.586700 4.794950
-3.475750 -26.473200 4.794950
-2.362250 -27.586700 4.794950
-11.294230 -36.518700 -13.385850
-12.407780 -35.405201 -13.385850
7.568350 -32.402599 4.499650
4.784450 -29.618700 4.499650
-7.526650 32.444302 4.642050
-4.742750 29.660400 4.642050
5.146050 29.257099 4.204350
7.929950 32.040901 4.204350
-17.716551 -49.212601 13.385850
17.716551 -49.212601 13.385850
17.716551 49.212601 13.385850
-17.716551 49.212601 13.385850
2.362150 -27.586700 4.794950
3.475750 -26.473200 4.794950
12.407750 -35.405201 -13.385850
11.294150 -36.518700 -13.385850
-7.929990 32.040901 4.204350
-8.138780 31.832100 4.283550
-8.291630 31.679300 4.499650
-8.333340 31.637600 4.642050
-8.333340 31.637600 4.947750
-8.291630 31.679300 5.090250
-8.138780 31.832100 5.306350
-8.038070 31.932899 5.365350
-7.821910 32.148998 5.365350
-7.634750 32.336201 5.212550
-7.526650 32.444302 4.947750
-7.526650 32.444302 4.642050
-7.568350 32.402599 4.499650
-7.721200 32.249699 4.283550
5 0 1 2 3 4
4 5 6 7 8
4 9 10 11 12
4 13 14 15 16
14 17 18 19 20 21 22 23 24 25 26 27 28 29 30
4 31 32 33 34
4 35 36 37 38
4 39 40 41 42
5 43 44 45 46 47
4 48 49 50 51
4 52 53 54 55
4 56 57 58 59
4 60 61 62 63
4 64 65 66 67
4 68 69 70 71
4 72 73 74 75
4 76 77 78 79
4 80 81 82 83
4 84 85 86 87
4 88 89 90 91
4 92 93 94 95
4 96 97 98 99
4 80 100 101 81
4 102 103 104 105
5 106 107 108 109 110
5 111 112 113 114 115
13 116 117 118 119 120 121 122 123 124 125 126 127 128
4 101 100 99 98
4 129 130 131 132
4 133 34 33 134
13 135 136 137 138 139 140 141 142 143 144 145 146 147
4 148 149 150 151
4 152 153 154 155
13 156 157 158 159 160 161 162 163 164 165 166 167 168
4 169 170 171 172
4 173 174 175 176
4 177 178 179 180
5 181 182 183 184 185
5 186 187 188 189 190
13 191 192 193 194 195 196 197 198 199 200 201 202 203
4 204 205 206 207
4 61 57 56 62
4 208 209 210 211
4 133 134 212 213
4 214 215 216 217
4 218 219 220 221
4 216 177 180 217
4 222 223 224 225
4 226 227 228 229
14 230 231 232 233 234 235 236 237 238 239 240 241 242 243
4 244 245 246 247
4 84 87 248 249
4 250 251 252 253
4 215 214 254 255
4 256 257 258 259
5 260 261 262 263 264
4 265 266 267 268
5 269 270 271 272 273
4 274 275 276 277
4 207 206 278 279
4 280 281 282 283
4 284 285 286 287
4 71 70 150 149
4 288 289 290 291
4 292 293 294 295
4 173 176 205 204
4 151 9 12 148
14 296 297 298 299 300 301 302 303 304 305 306 307 308 309
4 310 311 312 313
4 93 314 315 94
4 316 317 32 31
4 318 319 249 248
4 279 278 49 48
4 75 74 69 68
4 320 321 322 323
4 255 254 175 174
4 324 325 326 327
4 314 105 104 315
4 328 329 330 331
4 332 333 334 335
4 226 229 336 337
4 338 339 319 318
4 83 82 92 95
4 340 341 179 178
4 59 58 339 338
4 67 60 63 64
4 86 85 79 78
4 66 65 77 76
4 73 72 213 212
4 97 96 337 336
4 342 343 344 345
4 227 103 102 228
4 340 51 50 341
4 11 10 317 316
4 346 347 348 349
14 350 351 352 353 354 355 356 357 358 359 360 361 362 363
