ply
format ascii 1.0
comment Created by Blender 2.82 (sub 7) - www.blender.org, source file: ''
element vertex 307
property float x
property float y
property float z
element face 75
property list uchar uint vertex_indices
end_header
11.318900 -19.604900 14.507850
11.318900 -19.604900 13.523650
19.605000 -11.318900 13.523650
19.605000 -11.318900 14.507850
-21.486099 -5.757190 13.523650
-21.486099 5.757190 13.523650
-21.486099 5.757190 10.767750
-21.486099 -5.757190 10.767750
-22.637800 0.000000 14.507850
-19.604900 11.318900 14.507850
-19.604900 11.318900 13.523650
-22.637800 0.000000 13.523650
-15.728900 -15.729000 13.523650
-15.728900 -15.729000 10.767750
20.725599 -5.553400 13.523650
20.725599 -5.553400 10.767750
15.172200 -15.172200 10.767750
15.172200 -15.172200 13.523650
-11.122000 -19.264000 10.767750
-11.122000 -19.264000 13.523650
-15.005100 16.731100 13.523650
-13.279100 15.005100 13.523650
-13.279100 15.005100 -14.507850
-15.005100 16.731100 -14.507850
-20.725500 5.553400 13.523650
-20.725500 -5.553400 13.523650
-20.725500 -5.553400 10.767750
-20.725500 5.553400 10.767750
0.000050 -22.244101 10.767750
0.000050 -22.244101 13.523650
-15.172100 15.172200 13.523650
-15.172100 15.172200 10.767750
-5.553350 20.725599 10.767750
-5.553350 20.725599 13.523650
13.279200 15.005100 13.523650
15.005200 16.731100 13.523650
15.005200 16.731100 -14.507850
13.279200 15.005100 -14.507850
11.122100 -19.264000 10.767750
11.122100 -19.264000 13.523650
-15.005100 -13.279100 13.523650
-13.279100 -15.005100 13.523650
-13.279100 -15.005100 -14.507850
-15.005100 -13.279100 -14.507850
20.725599 5.553400 13.523650
20.725599 5.553400 10.767750
-15.728900 15.729000 13.523650
-15.728900 15.729000 10.767750
15.005200 13.279100 -14.507850
15.005200 13.279100 13.523650
13.279200 15.005100 13.523650
13.279200 15.005100 -14.507850
15.005200 16.731100 13.523650
16.731199 15.005100 13.523650
16.731199 15.005100 -14.507850
15.005200 16.731100 -14.507850
15.729000 15.729000 10.767750
11.122100 19.264000 10.767750
11.122100 19.264000 13.523650
15.729000 15.729000 13.523650
13.279200 15.005100 13.523650
15.005200 13.279100 13.523650
15.921600 14.195600 13.523650
20.725599 5.553400 13.523650
20.725599 -5.553400 13.523650
15.921600 -14.195600 13.523650
15.005200 -13.279100 13.523650
13.279200 -15.005100 13.523650
14.195600 -15.921600 13.523650
5.553450 -20.725599 13.523650
-5.553350 -20.725599 13.523650
-14.195500 -15.921600 13.523650
-13.279100 -15.005100 13.523650
-15.005100 -13.279100 13.523650
-15.921500 -14.195600 13.523650
-20.725500 -5.553400 13.523650
-20.725500 5.553400 13.523650
-15.921500 14.195600 13.523650
-15.005100 13.279100 13.523650
-13.279100 15.005100 13.523650
-14.195500 15.921600 13.523650
-5.553350 20.725599 13.523650
5.553450 20.725599 13.523650
14.195600 15.921600 13.523650
-15.172100 -15.172200 13.523650
-15.172100 -15.172200 10.767750
5.553450 -20.725599 10.767750
15.172200 -15.172200 10.767750
20.725599 -5.553400 10.767750
20.725599 5.553400 10.767750
15.172200 15.172200 10.767750
5.553450 20.725599 10.767750
-5.553350 20.725599 10.767750
-5.757150 21.486099 10.767750
0.000050 22.244101 10.767750
11.122100 19.264000 10.767750
15.729000 15.729000 10.767750
21.486200 5.757190 10.767750
21.486200 -5.757190 10.767750
15.729000 -15.729000 10.767750
11.122100 -19.264000 10.767750
0.000050 -22.244101 10.767750
-11.122000 -19.264000 10.767750
-15.728900 -15.729000 10.767750
-21.486099 -5.757190 10.767750
-21.486099 5.757190 10.767750
-15.728900 15.729000 10.767750
-10.728300 18.582001 10.767750
-15.172100 15.172200 10.767750
-20.725500 5.553400 10.767750
-20.725500 -5.553400 10.767750
-15.172100 -15.172200 10.767750
-5.553350 -20.725599 10.767750
-11.318850 19.604900 14.507850
-11.318850 19.604900 13.523650
-13.279100 -15.005100 -14.507850
-15.005100 -16.731100 -14.507850
-16.731100 -15.005100 -14.507850
-15.005100 -13.279100 -14.507850
5.553450 20.725599 10.767750
5.553450 20.725599 13.523650
0.000050 22.244101 13.523650
0.000050 22.244101 10.767750
-11.122000 19.264000 10.767750
-11.122000 19.264000 13.523650
16.731199 -15.005100 -14.507850
15.005200 -16.731100 -14.507850
13.279200 -15.005100 -14.507850
15.005200 -13.279100 -14.507850
16.731199 15.005100 13.523650
15.005200 13.279100 13.523650
13.279200 15.005100 13.523650
15.005200 16.731100 13.523650
11.318900 19.604900 14.507850
0.000050 22.637800 14.507850
-11.318850 19.604900 14.507850
-19.604900 11.318900 14.507850
-22.637800 0.000000 14.507850
-19.604900 -11.318900 14.507850
-11.318850 -19.604900 14.507850
0.000050 -22.637800 14.507850
11.318900 -19.604900 14.507850
19.605000 -11.318900 14.507850
21.866501 -5.859090 14.507850
21.866501 5.859090 14.507850
19.605000 11.318900 14.507850
15.005200 -13.279100 13.523650
16.731199 -15.005100 13.523650
16.731199 -15.005100 -14.507850
15.005200 -13.279100 -14.507850
19.605000 11.318900 14.507850
21.866501 5.859090 14.507850
21.866501 5.859090 13.523650
19.605000 11.318900 13.523650
-13.279100 15.005100 13.523650
-15.005100 16.731100 13.523650
-16.731100 15.005100 13.523650
-15.005100 13.279100 13.523650
13.279200 -15.005100 13.523650
15.005200 -13.279100 13.523650
15.005200 -13.279100 -14.507850
13.279200 -15.005100 -14.507850
16.731199 15.005100 13.523650
15.005200 13.279100 13.523650
15.005200 13.279100 -14.507850
16.731199 15.005100 -14.507850
16.731199 -15.005100 -14.507850
16.731199 -15.005100 13.523650
15.005200 -16.731100 13.523650
15.005200 -16.731100 -14.507850
-13.279100 -15.005100 13.523650
-15.005100 -16.731100 13.523650
-16.731100 -15.005100 13.523650
-15.005100 -13.279100 13.523650
-19.263901 -11.122000 13.523650
-19.604900 -11.318900 13.523650
-21.866400 -5.859090 13.523650
-21.866400 5.859090 13.523650
-19.604900 11.318900 13.523650
-16.007299 16.007299 13.523650
-11.318850 19.604900 13.523650
0.000050 22.637800 13.523650
11.318900 19.604900 13.523650
16.007401 16.007299 13.523650
19.605000 11.318900 13.523650
21.866501 5.859090 13.523650
21.866501 -5.859090 13.523650
19.605000 -11.318900 13.523650
16.007401 -16.007299 13.523650
11.318900 -19.604900 13.523650
0.000050 -22.637800 13.523650
-11.318850 -19.604900 13.523650
-16.007299 -16.007299 13.523650
-15.005100 -16.731100 13.523650
-14.752300 -16.478300 13.523650
-11.122000 -19.264000 13.523650
0.000050 -22.244101 13.523650
11.122100 -19.264000 13.523650
14.752400 -16.478300 13.523650
15.005200 -16.731100 13.523650
16.731199 -15.005100 13.523650
16.478399 -14.752300 13.523650
21.486200 -5.757190 13.523650
21.486200 5.757190 13.523650
16.478399 14.752300 13.523650
16.731199 15.005100 13.523650
15.005200 16.731100 13.523650
14.752400 16.478300 13.523650
11.122100 19.264000 13.523650
0.000050 22.244101 13.523650
-11.122000 19.264000 13.523650
-14.752300 16.478300 13.523650
-15.005100 16.731100 13.523650
-16.731100 15.005100 13.523650
-16.478300 14.752300 13.523650
-21.486099 5.757190 13.523650
-21.486099 -5.757190 13.523650
-15.005100 -13.279100 13.523650
-16.731100 -15.005100 13.523650
-15.005100 -16.731100 13.523650
-13.279100 -15.005100 13.523650
-15.005100 13.279100 -14.507850
-15.005100 13.279100 13.523650
-16.731100 15.005100 13.523650
-16.731100 15.005100 -14.507850
-11.318850 -19.604900 13.523650
-11.318850 -19.604900 14.507850
-19.604900 -11.318900 14.507850
-19.604900 -11.318900 13.523650
21.486200 5.757190 13.523650
21.486200 -5.757190 13.523650
21.486200 -5.757190 10.767750
21.486200 5.757190 10.767750
-16.731100 -15.005100 13.523650
-15.005100 -13.279100 13.523650
-15.005100 -13.279100 -14.507850
-16.731100 -15.005100 -14.507850
15.172200 15.172200 10.767750
15.172200 15.172200 13.523650
-13.279100 -15.005100 13.523650
-15.005100 -16.731100 13.523650
-15.005100 -16.731100 -14.507850
-13.279100 -15.005100 -14.507850
-15.005100 -16.731100 13.523650
-16.731100 -15.005100 13.523650
-16.731100 -15.005100 -14.507850
-15.005100 -16.731100 -14.507850
-15.005100 16.731100 13.523650
-15.005100 16.731100 -14.507850
-16.731100 15.005100 -14.507850
-16.731100 15.005100 13.523650
-5.553350 -20.725599 10.767750
-5.553350 -20.725599 13.523650
-13.279100 15.005100 13.523650
-15.005100 13.279100 13.523650
-15.005100 13.279100 -14.507850
-13.279100 15.005100 -14.507850
5.553450 -20.725599 13.523650
5.553450 -20.725599 10.767750
15.005200 -16.731100 13.523650
13.279200 -15.005100 13.523650
15.005200 -13.279100 13.523650
16.731199 -15.005100 13.523650
15.005200 -13.279100 13.523650
13.279200 -15.005100 13.523650
15.005200 -16.731100 13.523650
16.731199 -15.005100 13.523650
0.000050 22.637800 13.523650
0.000050 22.637800 14.507850
0.000050 -22.637800 14.507850
0.000050 -22.637800 13.523650
13.279200 15.005100 13.523650
15.005200 13.279100 13.523650
16.731199 15.005100 13.523650
15.005200 16.731100 13.523650
21.866501 -5.859090 14.507850
21.866501 -5.859090 13.523650
11.318900 19.604900 13.523650
11.318900 19.604900 14.507850
-15.005100 13.279100 13.523650
-16.731100 15.005100 13.523650
-15.005100 16.731100 13.523650
-13.279100 15.005100 13.523650
13.279200 -15.005100 13.523650
13.279200 -15.005100 -14.507850
15.005200 -16.731100 -14.507850
15.005200 -16.731100 13.523650
-13.279100 15.005100 -14.507850
-15.005100 13.279100 -14.507850
-16.731100 15.005100 -14.507850
-15.005100 16.731100 -14.507850
16.731199 15.005100 -14.507850
15.005200 13.279100 -14.507850
13.279200 15.005100 -14.507850
15.005200 16.731100 -14.507850
15.729000 -15.729000 10.767750
15.729000 -15.729000 13.523650
13.837000 -11.943300 13.523650
13.277300 -11.943300 13.523650
13.277300 -13.515600 13.523650
13.837000 -13.515600 13.523650
-16.731100 -15.005100 13.523650
-16.478300 -14.752300 13.523650
13.277300 -11.943300 13.523650
13.837000 -11.943300 13.523650
13.837000 -13.515600 13.523650
13.277300 -13.515600 13.523650
4 0 1 2 3
4 4 5 6 7
4 8 9 10 11
4 12 4 7 13
4 14 15 16 17
4 12 13 18 19
4 20 21 22 23
4 24 25 26 27
4 28 29 19 18
4 30 31 32 33
4 34 35 36 37
4 29 28 38 39
4 40 41 42 43
4 14 44 45 15
4 5 46 47 6
4 48 49 50 51
4 52 53 54 55
4 56 57 58 59
24 60 61 62 63 64 65 66 67 68 69 70 71 72 73 74 75 76 77 78 79 80 81 82 83
4 25 84 85 26
27 86 87 88 89 90 91 92 93 94 95 96 97 98 99 100 101 102 103 104 105 106 107 108 109 110 111 112
4 113 114 10 9
4 115 116 117 118
4 33 32 119 120
4 121 122 123 124
4 125 126 127 128
4 129 130 131 132
13 133 134 135 136 137 138 139 140 141 142 143 144 145
4 146 147 148 149
4 150 151 152 153
4 154 155 156 157
4 158 159 160 161
4 162 163 164 165
4 166 167 168 169
4 170 171 172 173
43 174 175 176 177 178 179 180 181 182 183 184 185 186 187 188 189 190 191 192 193 194 195 196 197 198 199 200 201 202 203 204 205 206 207 208 209 210 211 212 213 214 215 216
4 217 218 219 220
4 221 222 223 224
4 107 106 93 92
4 225 226 227 228
4 229 230 231 232
4 233 234 235 236
4 120 119 237 238
4 24 27 31 30
4 239 240 241 242
4 243 244 245 246
4 247 248 249 250
4 251 85 84 252
4 253 254 255 256
4 257 17 16 258
4 259 260 261 262
4 263 264 265 266
4 267 114 113 268
4 46 124 123 47
4 269 270 1 0
4 271 272 273 274
4 275 276 152 151
4 277 267 268 278
4 44 238 237 45
4 8 11 228 227
4 275 3 2 276
4 153 277 278 150
4 279 280 281 282
4 257 258 251 252
4 122 121 58 57
4 283 284 285 286
4 226 225 270 269
4 287 288 289 290
4 291 292 293 294
4 39 38 295 296
4 297 298 299 300
6 301 193 192 175 174 302
4 230 296 295 231
4 303 304 305 306
4 229 232 56 59
