ply
format ascii 1.0
comment Created by Blender 2.82 (sub 7) - www.blender.org, source file: ''
element vertex 801
property float x
property float y
property float z
element face 195
property list uchar uint vertex_indices
end_header
10.875000 -18.500000 -0.062500
10.875000 -18.500000 0.062500
-10.875000 -18.500000 0.062500
-10.875000 -18.500000 -0.062500
8.992400 -16.994400 7.250000
9.130600 -17.132601 7.250000
9.130600 -17.132601 7.000000
8.992400 -16.994400 7.000000
10.500000 27.500000 0.812500
10.500000 -27.500000 0.812500
10.500000 -27.500000 0.062500
10.500000 27.500000 0.062500
-9.125000 17.283501 -7.500000
-9.125000 17.283501 -7.375000
-9.216510 17.375000 -7.375000
-9.216510 17.375000 -7.500000
8.119400 -17.132601 7.250000
8.257600 -16.994400 7.250000
8.257600 -16.994400 7.000000
8.119400 -17.132601 7.000000
-10.532503 16.500000 6.694000
-10.844926 16.500000 6.226400
-10.844926 18.500000 6.226400
-10.532503 18.500000 6.694000
10.500000 27.500000 0.812500
10.500000 27.500000 0.062500
-10.500000 27.500000 0.062500
-10.500000 27.500000 0.812500
8.257600 16.994400 7.250000
8.625000 16.875000 7.250000
8.992400 16.994400 7.250000
9.130600 17.132601 7.250000
9.250000 17.500000 7.250000
9.219400 17.693140 7.250000
8.992400 18.005640 7.250000
8.625000 18.125000 7.250000
8.257600 18.005640 7.250000
8.030600 17.693140 7.250000
8.000000 17.500000 7.250000
8.119400 17.132601 7.250000
-8.818140 16.905600 7.000000
-8.818140 16.905600 7.250000
-9.130640 17.132601 7.250000
-9.130640 17.132601 7.000000
8.000000 17.500000 7.250000
8.030600 17.693140 7.250000
8.030600 17.693140 7.000000
8.000000 17.500000 7.000000
-8.818140 -18.094400 7.000000
-8.818140 -18.094400 7.250000
-9.130640 -17.867399 7.250000
-9.130640 -17.867399 7.000000
-10.334745 16.500000 -7.183147
-10.114175 16.500000 -7.242248
10.114200 16.500000 -7.242248
10.226400 16.500000 -7.219926
10.437400 16.500000 -7.132540
10.437400 18.500000 -7.132540
10.226400 18.500000 -7.219926
10.114200 18.500000 -7.242248
-10.114175 18.500000 -7.242248
-10.334745 18.500000 -7.183147
-10.965926 -16.500000 6.258800
-10.991445 -16.500000 6.130500
-10.991445 -18.500000 6.130500
-10.965926 -18.500000 6.258800
-10.923879 -18.500000 6.382700
-10.793353 -18.500000 6.608800
-10.793353 -16.500000 6.608800
-10.923879 -16.500000 6.382700
-10.532503 -18.500000 6.694000
-10.844926 -18.500000 6.226400
-10.844926 -16.500000 6.226400
-10.532503 -16.500000 6.694000
-10.334745 -18.500000 -7.183147
-10.114175 -18.500000 -7.242248
10.114200 -18.500000 -7.242248
10.226400 -18.500000 -7.219926
10.437400 -18.500000 -7.132540
10.437400 -16.500000 -7.132540
10.226400 -16.500000 -7.219926
10.114200 -16.500000 -7.242248
-10.114175 -16.500000 -7.242248
-10.334745 -16.500000 -7.183147
-10.130526 -18.500000 -7.366445
-10.258819 -18.500000 -7.340926
-10.382683 -18.500000 -7.298880
-10.382683 -16.500000 -7.298880
-10.258819 -16.500000 -7.340926
-10.130526 -16.500000 -7.366445
-10.000000 -16.500000 -7.375000
-9.216510 -17.375000 -7.375000
-9.250000 -17.500000 -7.375000
-9.216510 -17.625000 -7.375000
-9.125000 -17.716499 -7.375000
-10.000000 -18.500000 -7.375000
9.125000 17.283501 -7.500000
9.000000 17.250000 -7.500000
8.875000 17.283501 -7.500000
8.783500 17.375000 -7.500000
8.750000 17.500000 -7.500000
8.783500 17.625000 -7.500000
8.875000 17.716511 -7.500000
9.000000 17.750000 -7.500000
9.125000 17.716511 -7.500000
9.216500 17.625000 -7.500000
9.250000 17.500000 -7.500000
9.216500 17.375000 -7.500000
8.000000 -17.500000 7.250000
8.000000 -17.500000 7.000000
8.119400 -17.867399 7.000000
8.119400 -17.867399 7.250000
10.500000 -27.500000 0.062500
10.500000 -27.500000 0.812500
-10.500000 -27.500000 0.812500
-10.500000 -27.500000 0.062500
-8.875000 -17.716499 -7.500000
-9.000000 -17.750000 -7.500000
-9.125000 -17.716499 -7.500000
-9.216510 -17.625000 -7.500000
-9.250000 -17.500000 -7.500000
-9.216510 -17.375000 -7.500000
-9.125000 -17.283501 -7.500000
-9.000000 -17.250000 -7.500000
-8.875000 -17.283501 -7.500000
-8.783490 -17.375000 -7.500000
-8.750000 -17.500000 -7.500000
-8.783490 -17.625000 -7.500000
-10.114175 -18.500000 6.867200
-10.114175 -16.500000 6.867200
10.226400 -16.500000 6.844900
10.226400 -18.500000 6.844900
-8.783490 17.375000 -7.500000
-8.783490 17.375000 -7.375000
-8.875000 17.283501 -7.375000
-8.875000 17.283501 -7.500000
9.219400 17.693140 7.250000
9.219400 17.693140 7.000000
8.992400 18.005640 7.000000
8.992400 18.005640 7.250000
11.000000 -27.500000 7.250000
11.000000 -27.500000 7.500000
-11.000000 -27.500000 7.500000
-11.000000 -27.500000 7.250000
-10.875000 -18.500000 0.062500
10.875000 -18.500000 0.062500
10.875000 -16.500000 0.062500
-10.875000 -16.500000 0.062500
8.875000 -17.716499 -7.500000
8.783500 -17.625000 -7.500000
8.750000 -17.500000 -7.500000
8.783500 -17.375000 -7.500000
8.875000 -17.283501 -7.500000
9.000000 -17.250000 -7.500000
9.125000 -17.283501 -7.500000
9.216500 -17.375000 -7.500000
9.250000 -17.500000 -7.500000
9.216500 -17.625000 -7.500000
9.125000 -17.716499 -7.500000
9.000000 -17.750000 -7.500000
-9.250000 -17.500000 7.250000
-9.130640 -17.132601 7.250000
-9.130640 -17.132601 7.000000
-9.250000 -17.500000 7.000000
-8.431860 -18.094400 7.250000
-8.431860 -18.094400 7.000000
-8.119360 -17.867399 7.000000
-8.119360 -17.867399 7.250000
-8.119360 17.867371 7.250000
-8.000000 17.500000 7.250000
-8.000000 17.500000 7.000000
-8.119360 17.867371 7.000000
8.257600 18.005640 7.250000
8.257600 18.005640 7.000000
-8.119360 -17.132601 7.250000
-8.431860 -16.905600 7.250000
-8.818140 -16.905600 7.250000
-9.130640 -17.132601 7.250000
-9.250000 -17.500000 7.250000
-9.130640 -17.867399 7.250000
-8.818140 -18.094400 7.250000
-8.431860 -18.094400 7.250000
-8.119360 -17.867399 7.250000
-8.000000 -17.500000 7.250000
10.334700 -18.500000 6.808100
10.334700 -16.500000 6.808100
10.437400 -16.500000 6.757500
10.532500 -16.500000 6.694000
10.618500 -16.500000 6.618500
10.694000 -16.500000 6.532500
10.694000 -18.500000 6.532500
10.618500 -18.500000 6.618500
10.532500 -18.500000 6.694000
10.437400 -18.500000 6.757500
-8.431860 16.905600 7.000000
8.431900 16.905600 7.000000
8.257600 16.994400 7.000000
-8.257630 16.994400 7.000000
-10.000000 -18.500000 7.000000
10.382700 -18.500000 6.923900
10.382700 -16.500000 6.923900
10.000000 -16.500000 7.000000
8.992400 -16.994400 7.000000
9.130600 -17.132601 7.000000
9.250000 -17.500000 7.000000
9.130600 -17.867399 7.000000
8.992400 -18.005600 7.000000
8.625000 -18.125000 7.000000
8.431900 -18.094400 7.000000
-8.431860 -18.094400 7.000000
-8.625000 -18.125000 7.000000
-8.818140 -18.094400 7.000000
-9.130640 -17.867399 7.000000
10.923900 18.500000 6.382700
10.923900 18.500000 -6.757683
10.608800 18.500000 -7.168353
10.130500 18.500000 -7.366445
-10.258819 18.500000 -7.340926
-10.334745 18.500000 -7.183147
10.437400 18.500000 -7.132540
10.808100 18.500000 -6.709745
10.875000 18.500000 -0.062500
-10.875000 18.500000 -0.062500
-10.875000 18.500000 0.062500
10.875000 18.500000 0.062500
-8.431860 16.905600 7.250000
-8.431860 16.905600 7.000000
-8.119360 17.132601 7.000000
-8.119360 17.132601 7.250000
-10.808147 18.500000 -6.709745
-10.618529 18.500000 -6.993529
-10.707107 18.500000 -7.082107
-10.965926 18.500000 -6.633819
-10.991445 18.500000 6.130500
-10.793353 18.500000 6.608800
-10.382683 18.500000 6.923900
10.382700 18.500000 6.923900
10.793400 18.500000 6.608800
10.844900 18.500000 6.226400
10.694000 18.500000 6.532500
10.226400 18.500000 6.844900
-10.114175 18.500000 6.867200
-10.532503 18.500000 6.694000
-10.757540 18.500000 6.437400
-10.875000 18.500000 5.995900
-10.875000 18.500000 -6.370910
8.625000 18.125000 7.250000
8.625000 18.125000 7.000000
-9.250000 17.500000 7.250000
-9.250000 17.500000 7.000000
-9.130640 17.867371 7.250000
-9.130640 17.867371 7.000000
-8.992370 18.005640 7.250000
-8.992370 18.005640 7.000000
11.000000 27.500000 7.250000
-11.000000 27.500000 7.250000
-11.000000 -27.500000 7.250000
11.000000 -27.500000 7.250000
-10.130526 16.500000 -7.366445
-10.258819 16.500000 -7.340926
-10.382683 16.500000 -7.298880
-10.382683 18.500000 -7.298880
-10.258819 18.500000 -7.340926
-10.130526 18.500000 -7.366445
-10.000000 18.500000 -7.375000
-9.000000 17.750000 -7.375000
-9.125000 17.716511 -7.375000
-9.216510 17.625000 -7.375000
-9.250000 17.500000 -7.375000
-9.216510 17.375000 -7.375000
-9.125000 17.283501 -7.375000
-9.000000 17.250000 -7.375000
-8.875000 17.283501 -7.375000
9.000000 17.250000 -7.375000
9.125000 17.283501 -7.375000
10.000000 16.500000 -7.375000
-10.000000 16.500000 -7.375000
10.793400 16.500000 -6.983761
10.382700 16.500000 -7.298880
10.382700 18.500000 -7.298880
10.793400 18.500000 -6.983761
-10.608761 -18.500000 -7.168353
-10.707107 -18.500000 -7.082107
-10.707107 -16.500000 -7.082107
-10.608761 -16.500000 -7.168353
-10.500000 -16.500000 -7.241025
-10.500000 -18.500000 -7.241025
9.000000 -17.250000 -7.375000
9.000000 -17.250000 -7.500000
8.875000 -17.283501 -7.500000
8.875000 -17.283501 -7.375000
11.000000 27.500000 7.250000
11.000000 -27.500000 7.250000
11.000000 -27.500000 7.500000
11.000000 27.500000 7.500000
10.500000 -27.500000 0.062500
-10.500000 -27.500000 0.062500
-10.500000 27.500000 0.062500
10.500000 27.500000 0.062500
-9.250000 17.500000 -7.375000
-9.250000 17.500000 -7.500000
-8.875000 -17.283501 -7.375000
-8.875000 -17.283501 -7.500000
-9.000000 -17.250000 -7.500000
-9.000000 -17.250000 -7.375000
8.750000 -17.500000 -7.375000
8.783500 -17.375000 -7.375000
8.783500 -17.375000 -7.500000
8.750000 -17.500000 -7.500000
9.125000 17.716511 -7.375000
9.216500 17.625000 -7.375000
9.216500 17.625000 -7.500000
9.125000 17.716511 -7.500000
10.793400 -18.500000 6.608800
10.793400 -16.500000 6.608800
9.250000 -17.500000 7.250000
9.250000 -17.500000 7.000000
-8.257630 18.005640 7.250000
-8.257630 18.005640 7.000000
-8.625000 18.125000 7.000000
-8.625000 18.125000 7.250000
11.000000 -27.500000 7.250000
-11.000000 -27.500000 7.250000
-11.000000 27.500000 7.250000
11.000000 27.500000 7.250000
8.625000 16.875000 7.000000
8.625000 16.875000 7.250000
8.257600 16.994400 7.250000
8.257600 16.994400 7.000000
-8.783490 17.625000 -7.375000
-8.750000 17.500000 -7.375000
-8.750000 17.500000 -7.500000
-8.783490 17.625000 -7.500000
-8.875000 -17.716499 -7.500000
-8.875000 -17.716499 -7.375000
-9.000000 -17.750000 -7.375000
-9.000000 -17.750000 -7.500000
-9.125000 -17.716499 -7.375000
-9.125000 -17.716499 -7.500000
-8.818140 -16.905600 7.250000
-8.818140 -16.905600 7.000000
-9.125000 -17.283501 -7.500000
-9.125000 -17.283501 -7.375000
-11.000000 -27.500000 7.250000
-11.000000 27.500000 7.250000
-11.000000 27.500000 7.500000
-11.000000 -27.500000 7.500000
11.000000 27.500000 7.500000
11.000000 -27.500000 7.500000
11.000000 -27.500000 7.250000
11.000000 27.500000 7.250000
-10.875000 16.500000 -0.062500
-10.875000 16.500000 0.062500
-10.875000 16.500000 5.995900
10.923900 -18.500000 6.382700
10.923900 -16.500000 6.382700
10.875000 16.500000 0.062500
10.875000 16.500000 -0.062500
10.875000 16.500000 -6.370910
10.130500 -16.500000 -7.366445
-10.258819 -16.500000 -7.340926
-10.334745 -16.500000 -7.183147
10.437400 -16.500000 -7.132540
10.808100 -16.500000 -6.709745
10.875000 -16.500000 -0.062500
-10.875000 -16.500000 -0.062500
-10.875000 -16.500000 0.062500
10.875000 -16.500000 0.062500
10.844900 -16.500000 6.226400
10.694000 -16.500000 6.532500
10.226400 -16.500000 6.844900
-10.114175 -16.500000 6.867200
-10.532503 -16.500000 6.694000
-10.844926 -16.500000 6.226400
-10.866025 -16.500000 6.500000
-10.608761 -16.500000 6.793400
-10.130526 -16.500000 6.991400
10.382700 -16.500000 6.923900
10.793400 -16.500000 6.608800
10.923900 -16.500000 6.382700
10.923900 -16.500000 -6.757683
10.608800 -16.500000 -7.168353
-10.382683 16.500000 6.923900
10.000000 16.500000 7.000000
9.130600 17.867371 7.000000
9.250000 17.500000 7.000000
9.130600 17.132601 7.000000
8.992400 16.994400 7.000000
8.625000 16.875000 7.000000
-8.625000 16.875000 7.000000
-8.818140 16.905600 7.000000
-9.130640 17.132601 7.000000
-9.250000 17.500000 7.000000
-9.130640 17.867371 7.000000
-8.992370 18.005640 7.000000
-8.625000 18.125000 7.000000
-8.257630 18.005640 7.000000
-8.119360 17.867371 7.000000
-8.000000 17.500000 7.000000
-8.119360 17.132601 7.000000
8.119400 17.132601 7.000000
8.000000 17.500000 7.000000
8.030600 17.693140 7.000000
8.257600 18.005640 7.000000
8.431900 18.094410 7.000000
8.625000 18.125000 7.000000
10.000000 18.500000 7.000000
-10.382683 18.500000 6.923900
10.000000 -16.500000 -7.375000
9.125000 -17.283501 -7.375000
9.000000 -17.250000 -7.375000
8.875000 -17.283501 -7.375000
8.783500 -17.375000 -7.375000
8.750000 -17.500000 -7.375000
8.783500 -17.625000 -7.375000
8.875000 -17.716499 -7.375000
9.000000 -17.750000 -7.375000
9.125000 -17.716499 -7.375000
10.000000 -18.500000 -7.375000
-9.000000 -17.750000 -7.375000
-8.875000 -17.716499 -7.375000
-8.783490 -17.625000 -7.375000
-8.750000 -17.500000 -7.375000
-8.783490 -17.375000 -7.375000
-8.875000 -17.283501 -7.375000
-9.000000 -17.250000 -7.375000
-9.125000 -17.283501 -7.375000
10.258800 16.500000 -7.340926
10.334700 16.500000 -7.183147
10.226400 16.500000 -7.219926
10.130500 16.500000 -7.366445
-10.382683 16.500000 -7.298880
-10.334745 16.500000 -7.183147
-10.618529 16.500000 -6.993529
-10.808147 16.500000 -6.709745
-10.875000 16.500000 -6.370910
-10.757540 16.500000 6.437400
-10.532503 16.500000 6.694000
-10.114175 16.500000 6.867200
10.226400 16.500000 6.844900
10.694000 16.500000 6.532500
10.875000 16.500000 5.995900
10.694000 16.500000 -6.907503
10.608800 16.500000 -7.168353
10.923900 16.500000 -6.757683
10.923900 16.500000 6.382700
10.793400 16.500000 6.608800
10.382700 16.500000 6.923900
-10.382683 16.500000 6.923900
-10.793353 16.500000 6.608800
-10.991445 16.500000 6.130500
-10.965926 16.500000 -6.633819
-10.707107 16.500000 -7.082107
-11.000000 27.500000 7.500000
-11.000000 27.500000 7.250000
11.000000 27.500000 7.250000
11.000000 27.500000 7.500000
8.119400 17.132601 7.250000
8.119400 17.132601 7.000000
10.991400 -16.500000 -6.505526
10.991400 -18.500000 -6.505526
10.793400 -18.500000 -6.983761
10.793400 -16.500000 -6.983761
10.793400 18.500000 6.608800
10.793400 16.500000 6.608800
10.923900 16.500000 6.382700
10.923900 18.500000 6.382700
10.258800 16.500000 -7.340926
10.130500 16.500000 -7.366445
9.216500 17.375000 -7.375000
9.250000 17.500000 -7.375000
9.216500 17.625000 -7.375000
9.125000 17.716511 -7.375000
9.000000 17.750000 -7.375000
8.875000 17.716511 -7.375000
8.783500 17.625000 -7.375000
8.750000 17.500000 -7.375000
8.783500 17.375000 -7.375000
8.875000 17.283501 -7.375000
-8.783490 17.375000 -7.375000
-8.750000 17.500000 -7.375000
-8.783490 17.625000 -7.375000
-8.875000 17.716511 -7.375000
10.000000 18.500000 -7.375000
10.130500 18.500000 -7.366445
10.258800 18.500000 -7.340926
9.216500 -17.375000 -7.375000
9.250000 -17.500000 -7.375000
9.250000 -17.500000 -7.500000
9.216500 -17.375000 -7.500000
10.867200 -16.500000 -6.489180
10.844900 -16.500000 -6.601397
10.808100 -16.500000 -6.709745
10.808100 -18.500000 -6.709745
10.844900 -18.500000 -6.601397
10.867200 -18.500000 -6.489180
10.875000 -18.500000 -6.370910
10.875000 -18.500000 -0.062500
10.875000 -16.500000 -0.062500
10.875000 -16.500000 -6.370910
8.992400 16.994400 7.000000
8.992400 16.994400 7.250000
-10.114175 16.500000 6.867200
-10.114175 18.500000 6.867200
10.226400 18.500000 6.844900
10.226400 16.500000 6.844900
10.991400 18.500000 -6.505526
10.991400 16.500000 -6.505526
9.216500 -17.625000 -7.375000
9.125000 -17.716499 -7.375000
9.125000 -17.716499 -7.500000
9.216500 -17.625000 -7.500000
10.875000 -18.500000 -0.062500
-10.875000 -18.500000 -0.062500
-10.875000 -16.500000 -0.062500
10.875000 -16.500000 -0.062500
-9.216510 17.625000 -7.375000
-9.216510 17.625000 -7.500000
9.125000 17.283501 -7.500000
9.125000 17.283501 -7.375000
9.000000 17.250000 -7.375000
9.000000 17.250000 -7.500000
-9.125000 17.716511 -7.375000
-9.125000 17.716511 -7.500000
-10.875000 16.500000 0.062500
-10.875000 18.500000 0.062500
-8.875000 17.716511 -7.500000
-8.875000 17.716511 -7.375000
-10.875000 -18.500000 0.062500
-10.875000 -16.500000 0.062500
-9.000000 17.750000 -7.500000
-9.000000 17.750000 -7.375000
-10.965926 -16.500000 -6.633819
-10.965926 -18.500000 -6.633819
9.000000 -17.750000 -7.500000
9.000000 -17.750000 -7.375000
8.875000 -17.716499 -7.375000
8.875000 -17.716499 -7.500000
-9.000000 17.250000 -7.375000
-9.000000 17.250000 -7.500000
-10.500000 -27.500000 0.812500
-10.500000 27.500000 0.812500
-10.500000 27.500000 0.062500
-10.500000 -27.500000 0.062500
8.000000 -17.500000 7.250000
8.119400 -17.867399 7.250000
8.257600 -18.005600 7.250000
8.625000 -18.125000 7.250000
8.992400 -18.005600 7.250000
9.130600 -17.867399 7.250000
9.250000 -17.500000 7.250000
9.130600 -17.132601 7.250000
8.992400 -16.994400 7.250000
8.625000 -16.875000 7.250000
8.257600 -16.994400 7.250000
8.119400 -17.132601 7.250000
-10.500000 -27.500000 0.812500
10.500000 -27.500000 0.812500
10.500000 27.500000 0.812500
-10.500000 27.500000 0.812500
9.130600 -17.867399 7.250000
9.130600 -17.867399 7.000000
-10.808147 -16.500000 -6.709745
-10.618529 -16.500000 -6.993529
-10.707107 -16.500000 -7.082107
-10.965926 -16.500000 -6.633819
-10.991445 -16.500000 6.130500
-10.875000 -16.500000 5.995900
-10.875000 -16.500000 -6.370910
10.382700 16.500000 6.923900
10.382700 18.500000 6.923900
8.625000 -18.125000 7.000000
8.625000 -18.125000 7.250000
8.257600 -18.005600 7.250000
8.257600 -18.005600 7.000000
-8.783490 -17.375000 -7.375000
-8.783490 -17.375000 -7.500000
8.625000 -16.875000 7.000000
8.625000 -16.875000 7.250000
10.867200 18.500000 -6.489180
10.844900 18.500000 -6.601397
10.808100 18.500000 -6.709745
10.808100 16.500000 -6.709745
10.844900 16.500000 -6.601397
10.867200 16.500000 -6.489180
10.875000 16.500000 -6.370910
10.875000 16.500000 -0.062500
10.875000 18.500000 -0.062500
10.875000 18.500000 -6.370910
-9.216510 -17.375000 -7.500000
-9.216510 -17.375000 -7.375000
9.250000 17.500000 7.250000
9.130600 17.132601 7.250000
9.130600 17.132601 7.000000
9.250000 17.500000 7.000000
11.000000 27.500000 7.500000
11.000000 27.500000 7.250000
-11.000000 27.500000 7.250000
-11.000000 27.500000 7.500000
-8.000000 -17.500000 7.250000
-8.000000 -17.500000 7.000000
-8.119360 -17.132601 7.000000
-8.119360 -17.132601 7.250000
-8.431860 -16.905600 7.000000
-8.431860 -16.905600 7.250000
-8.000000 17.500000 7.250000
-8.119360 17.867371 7.250000
-8.257630 18.005640 7.250000
-8.625000 18.125000 7.250000
-8.992370 18.005640 7.250000
-9.130640 17.867371 7.250000
-9.250000 17.500000 7.250000
-9.130640 17.132601 7.250000
-8.818140 16.905600 7.250000
-8.431860 16.905600 7.250000
-8.119360 17.132601 7.250000
-8.750000 -17.500000 -7.375000
-8.783490 -17.625000 -7.375000
-8.783490 -17.625000 -7.500000
-8.750000 -17.500000 -7.500000
8.992400 -18.005600 7.250000
8.992400 -18.005600 7.000000
-10.707107 18.500000 6.707100
-10.793353 18.500000 6.608800
-10.793353 16.500000 6.608800
-10.707107 16.500000 6.707100
-10.608761 16.500000 6.793400
-10.500000 16.500000 6.866000
-10.500000 18.500000 6.866000
-10.608761 18.500000 6.793400
-9.250000 -17.500000 -7.375000
-9.250000 -17.500000 -7.500000
-9.216510 -17.625000 -7.375000
-9.216510 -17.625000 -7.500000
-11.000000 -27.500000 7.250000
-11.000000 -27.500000 7.500000
11.000000 -27.500000 7.500000
11.000000 -27.500000 7.250000
10.382700 -18.500000 -7.298880
10.382700 -16.500000 -7.298880
-10.965926 18.500000 -6.633819
-10.965926 16.500000 -6.633819
-10.991445 16.500000 6.130500
-10.991445 18.500000 6.130500
-11.000000 -27.500000 7.500000
-11.000000 27.500000 7.500000
-11.000000 27.500000 7.250000
-11.000000 -27.500000 7.250000
-10.808147 -16.500000 -6.709745
-10.875000 -16.500000 -0.062500
-10.875000 -18.500000 -0.062500
-10.808147 -18.500000 -6.709745
-10.608761 16.500000 -7.168353
-10.707107 16.500000 -7.082107
-10.707107 18.500000 -7.082107
-10.608761 18.500000 -7.168353
-10.500000 18.500000 -7.241025
-10.500000 16.500000 -7.241025
9.250000 17.500000 -7.375000
9.250000 17.500000 -7.500000
-10.923880 18.500000 -6.757683
-10.866025 18.500000 -6.875000
-10.793353 18.500000 -6.983761
-10.793353 16.500000 -6.983761
-10.866025 16.500000 -6.875000
-10.923880 16.500000 -6.757683
-10.923880 18.500000 6.382700
-10.965926 18.500000 6.258800
-10.965926 16.500000 6.258800
-10.923880 16.500000 6.382700
-10.808147 18.500000 -6.709745
-10.875000 18.500000 -0.062500
-10.875000 16.500000 -0.062500
-10.808147 16.500000 -6.709745
-11.000000 27.500000 7.500000
11.000000 27.500000 7.500000
11.000000 -27.500000 7.500000
-11.000000 -27.500000 7.500000
-10.707107 -16.500000 6.707100
-10.707107 -18.500000 6.707100
-10.608761 -18.500000 6.793400
-10.500000 -18.500000 6.866000
-10.382683 -18.500000 6.923900
-10.382683 -16.500000 6.923900
-10.500000 -16.500000 6.866000
-10.608761 -16.500000 6.793400
-10.875000 -18.500000 5.995900
10.875000 -18.500000 -6.370910
-10.618529 -18.500000 -6.993529
-10.618529 -16.500000 -6.993529
10.875000 16.500000 -0.062500
-10.875000 16.500000 -0.062500
-10.875000 18.500000 -0.062500
10.875000 18.500000 -0.062500
-8.875000 17.283501 -7.500000
-9.000000 17.250000 -7.500000
-9.125000 17.283501 -7.500000
-9.216510 17.375000 -7.500000
-9.250000 17.500000 -7.500000
-9.216510 17.625000 -7.500000
-9.125000 17.716511 -7.500000
-9.000000 17.750000 -7.500000
-8.875000 17.716511 -7.500000
-8.783490 17.625000 -7.500000
-8.750000 17.500000 -7.500000
-8.783490 17.375000 -7.500000
-10.866025 -16.500000 -6.875000
-10.793353 -16.500000 -6.983761
-10.793353 -18.500000 -6.983761
-10.866025 -18.500000 -6.875000
10.867200 -18.500000 6.114200
10.875000 -18.500000 5.995900
10.923900 -18.500000 6.382700
10.866000 -18.500000 6.500000
-10.114175 -18.500000 6.867200
10.226400 -18.500000 6.844900
10.694000 -18.500000 6.532500
10.382700 -18.500000 6.923900
-10.382683 -18.500000 6.923900
-10.793353 -18.500000 6.608800
-10.991445 -18.500000 6.130500
-10.965926 -18.500000 -6.633819
-10.707107 -18.500000 -7.082107
-10.382683 -18.500000 -7.298880
10.382700 -18.500000 -7.298880
10.793400 -18.500000 -6.983761
10.991400 -18.500000 -6.505526
10.694000 -18.500000 -6.907503
10.437400 -18.500000 -7.132540
-10.334745 -18.500000 -7.183147
-10.618529 -18.500000 -6.993529
-10.808147 -18.500000 -6.709745
-10.875000 -18.500000 -6.370910
-10.757540 -18.500000 6.437400
-10.532503 -18.500000 6.694000
-10.618529 18.500000 -6.993529
-10.618529 16.500000 -6.993529
10.334700 16.500000 6.808100
10.334700 18.500000 6.808100
10.437400 18.500000 6.757500
10.532500 18.500000 6.694000
10.618500 18.500000 6.618500
10.694000 18.500000 6.532500
10.694000 16.500000 6.532500
10.618500 16.500000 6.618500
10.532500 16.500000 6.694000
10.437400 16.500000 6.757500
10.258800 -18.500000 -7.340926
10.130500 -18.500000 -7.366445
9.216500 -17.625000 -7.375000
9.250000 -17.500000 -7.375000
9.216500 -17.375000 -7.375000
10.130500 -16.500000 -7.366445
10.258800 -16.500000 -7.340926
8.783500 17.375000 -7.375000
8.750000 17.500000 -7.375000
8.750000 17.500000 -7.500000
8.783500 17.375000 -7.500000
10.844900 -16.500000 6.226400
10.844900 -18.500000 6.226400
8.992400 18.005640 7.000000
9.125000 -17.283501 -7.375000
9.125000 -17.283501 -7.500000
-10.875000 16.500000 0.062500
10.875000 16.500000 0.062500
10.875000 18.500000 0.062500
-10.875000 18.500000 0.062500
-11.000000 -27.500000 7.500000
11.000000 -27.500000 7.500000
11.000000 27.500000 7.500000
-11.000000 27.500000 7.500000
10.875000 18.500000 0.062500
10.875000 16.500000 0.062500
10.844900 16.500000 6.226400
10.844900 18.500000 6.226400
10.875000 -16.500000 0.062500
10.875000 -18.500000 0.062500
8.783500 17.625000 -7.375000
8.875000 17.716511 -7.375000
8.875000 17.716511 -7.500000
8.783500 17.625000 -7.500000
9.000000 17.750000 -7.375000
9.000000 17.750000 -7.500000
-9.250000 -17.500000 7.000000
-9.130640 -17.132601 7.000000
-8.818140 -16.905600 7.000000
-8.431860 -16.905600 7.000000
-8.119360 -17.132601 7.000000
-8.000000 -17.500000 7.000000
-8.119360 -17.867399 7.000000
8.119400 -17.867399 7.000000
8.000000 -17.500000 7.000000
8.119400 -17.132601 7.000000
8.257600 -16.994400 7.000000
8.625000 -16.875000 7.000000
8.875000 17.283501 -7.375000
8.875000 17.283501 -7.500000
9.216500 17.375000 -7.375000
9.216500 17.375000 -7.500000
8.783500 -17.625000 -7.375000
8.783500 -17.625000 -7.500000
4 0 1 2 3
4 4 5 6 7
4 8 9 10 11
4 12 13 14 15
4 16 17 18 19
4 20 21 22 23
4 24 25 26 27
12 28 29 30 31 32 33 34 35 36 37 38 39
4 40 41 42 43
4 44 45 46 47
4 48 49 50 51
10 52 53 54 55 56 57 58 59 60 61
8 62 63 64 65 66 67 68 69
4 70 71 72 73
10 74 75 76 77 78 79 80 81 82 83
12 84 85 86 87 88 89 90 91 92 93 94 95
12 96 97 98 99 100 101 102 103 104 105 106 107
4 108 109 110 111
4 112 113 114 115
12 116 117 118 119 120 121 122 123 124 125 126 127
4 128 129 130 131
4 132 133 134 135
4 136 137 138 139
4 140 141 142 143
4 144 145 146 147
12 148 149 150 151 152 153 154 155 156 157 158 159
4 160 161 162 163
4 164 165 166 167
4 168 169 170 171
4 45 172 173 46
10 174 175 176 177 178 179 180 181 182 183
12 184 131 130 185 186 187 188 189 190 191 192 193
4 194 195 196 197
15 198 199 200 201 202 203 204 205 206 207 208 209 210 211 212
12 213 214 215 216 217 218 219 220 221 222 223 224
4 225 226 227 228
22 229 230 218 217 231 232 233 234 235 236 237 213 224 238 239 240 241 242 243 244 222 245
4 246 247 173 172
4 42 248 249 43
4 248 250 251 249
3 223 222 244
4 252 253 251 250
4 254 255 256 257
19 258 259 260 261 262 263 264 265 266 267 268 269 270 271 272 273 274 275 276
4 277 278 279 280
8 281 282 283 284 285 87 86 286
4 287 288 289 290
4 291 292 293 294
4 295 296 297 298
4 14 299 300 15
4 301 302 303 304
4 305 306 307 308
4 128 70 73 129
4 309 310 311 312
4 199 313 314 200
4 315 316 6 5
4 139 138 247 246
4 317 318 319 320
4 321 322 323 324
4 50 160 163 51
4 325 326 327 328
4 329 330 331 332
4 333 334 335 336
4 336 335 337 338
4 339 340 162 161
4 304 303 341 342
4 343 344 345 346
4 347 348 349 350
3 351 352 353
4 314 313 354 355
3 356 357 358
23 359 360 361 362 363 364 365 366 367 368 369 370 371 372 373 374 375 376 377 378 379 380 381
30 382 383 384 385 386 387 388 195 194 389 390 391 392 393 394 395 396 397 398 399 197 196 400 401 402 403 404 405 406 407
23 90 408 409 410 411 412 413 414 415 416 417 418 95 94 419 420 421 422 423 424 425 426 91
4 427 428 429 430
30 431 430 429 432 433 434 435 351 353 436 437 438 439 440 441 356 358 442 428 427 443 444 445 446 447 448 449 450 451 452
4 49 48 165 164
4 453 454 455 456
4 327 457 458 328
4 459 460 461 462
4 463 464 465 466
4 317 168 171 318
27 278 467 468 275 274 469 470 471 472 473 474 475 476 477 478 273 272 479 480 481 482 265 264 483 484 485 279
4 486 487 488 489
10 490 491 492 493 494 495 496 497 498 499
4 326 325 500 501
4 502 503 504 505
4 506 507 277 280
4 508 509 510 511
4 512 513 514 515
4 299 516 517 300
4 518 519 520 521
4 522 523 517 516
4 21 524 525 22
4 329 332 526 527
4 71 528 529 72
4 527 526 530 531
4 502 20 23 503
4 532 533 64 63
4 534 535 536 537
4 135 134 538 539
4 540 541 542 543
12 544 545 546 547 548 549 550 551 552 553 554 555
4 556 557 558 559
4 315 560 561 316
12 562 563 361 360 564 565 566 374 373 567 365 568
4 569 464 463 570
4 571 572 573 574
4 575 576 302 301
4 7 577 578 4
10 579 580 581 582 583 584 585 586 587 588
4 342 341 589 590
4 591 592 593 594
4 595 596 597 598
4 599 167 166 600
4 136 591 594 137
4 41 40 226 225
4 599 600 601 602
4 601 603 604 602
11 605 606 607 608 609 610 611 612 613 614 615
4 616 617 618 619
4 560 620 621 561
10 622 623 624 625 626 627 382 407 628 629
4 630 590 589 631
4 44 47 458 457
4 575 616 619 576
4 573 111 110 574
4 572 571 621 620
4 338 337 632 633
4 632 630 631 633
4 634 635 636 637
4 357 356 352 351
4 618 617 334 333
3 366 365 567
4 461 638 639 462
4 640 641 642 643
4 644 645 646 647
4 355 354 460 459
4 648 649 650 651
8 652 653 654 655 656 261 260 657
4 310 658 659 311
10 641 640 660 661 662 654 653 663 664 665
4 319 253 252 320
4 466 465 507 506
4 603 340 339 604
8 666 667 643 642 668 669 624 623
4 670 671 672 673
4 674 675 676 677
10 678 68 67 679 680 681 682 683 684 685
3 3 2 686
3 1 0 687
4 228 227 170 169
4 688 74 83 689
4 690 691 692 693
12 694 695 696 697 698 699 700 701 702 703 704 705
4 689 648 651 688
8 706 707 283 282 708 709 533 532
4 710 711 712 713
29 714 715 716 710 713 717 718 719 720 721 722 723 724 725 726 712 711 1 687 727 728 729 730 731 732 3 686 733 734
4 735 670 673 736
4 330 133 132 331
4 578 577 18 17
12 737 505 504 738 739 740 741 742 743 744 745 746
13 638 747 748 418 417 749 750 751 409 408 752 753 639
4 754 755 756 757
4 108 16 19 109
4 189 758 759 190
4 592 501 500 593
4 539 538 13 12
7 383 569 570 406 405 760 384
4 56 582 581 57
4 761 486 489 762
4 763 764 765 766
4 767 768 769 770
4 771 772 773 774
4 78 493 492 79
4 736 52 61 735
4 775 776 759 758
4 742 774 773 743
4 777 778 779 780
4 781 782 779 778
20 682 198 212 783 784 785 786 787 788 789 209 208 790 791 792 793 794 202 201 683
4 531 530 523 522
4 795 754 757 796
4 309 312 782 781
4 521 520 795 796
4 797 519 518 798
4 755 777 780 756
4 487 508 511 488
4 658 797 798 659
4 510 509 535 534
4 761 762 288 287
4 536 799 800 537
4 799 305 308 800
4 306 290 289 307
