ply
format ascii 1.0
comment Created by Blender 2.82 (sub 7) - www.blender.org, source file: ''
element vertex 451
property float x
property float y
property float z
element face 120
property list uchar uint vertex_indices
end_header
-16.061001 -23.211000 9.500000
-16.061001 -23.211000 12.439500
16.500000 -23.211000 12.439500
16.500000 -23.211000 9.500000
19.750000 26.625000 12.439500
20.117001 26.990999 12.827700
20.117001 -26.992001 12.827700
19.750000 -26.625000 12.439500
19.893999 26.768000 14.141900
-19.893000 26.768000 14.141900
-19.750000 26.625000 14.250000
19.750000 26.625000 14.250000
-16.655001 -23.667999 -14.250000
-16.061001 -23.211000 9.500000
-15.763000 -23.927999 9.500000
-16.506001 -24.027000 -14.250000
16.862000 -25.573999 9.500000
17.056000 -24.850000 -14.250000
17.444000 -24.850000 -14.250000
17.638000 -25.573999 9.500000
16.500000 -22.826000 9.500000
17.250000 -22.625000 9.500000
17.250000 -23.375000 -14.250000
16.875000 -23.476000 -14.250000
-20.190001 27.065001 12.991700
-20.250000 27.125000 13.344800
20.250000 27.125000 13.344800
20.190001 27.065001 12.991700
-16.061001 22.825001 9.500000
-16.500000 22.825001 9.500000
16.500000 22.825001 9.500000
16.500000 -22.826000 9.500000
16.500000 -23.211000 9.500000
16.500000 -23.211000 12.439500
16.500000 -22.826000 12.439500
20.235001 27.108999 13.165700
20.235001 -27.110001 13.165700
18.750000 24.125000 9.500000
18.698999 24.513000 9.500000
18.311001 25.184999 9.500000
18.000000 25.424000 9.500000
17.250000 25.625000 9.500000
16.500000 25.424000 9.500000
-16.500000 25.424000 9.500000
-17.250000 25.625000 9.500000
-18.000000 25.424000 9.500000
-18.311001 25.184999 9.500000
-18.698999 24.513000 9.500000
-18.698999 23.736000 9.500000
-18.311001 23.063999 9.500000
-18.000000 22.825001 9.500000
-17.250000 22.625000 9.500000
-16.061001 -23.211000 9.500000
-16.337999 -22.934000 9.500000
-17.056000 -22.638000 9.500000
-17.826000 -22.740000 9.500000
-18.441000 -23.214001 9.500000
-18.636000 -23.552999 9.500000
-18.737000 -24.323000 9.500000
-18.438999 -25.040001 9.500000
-19.318001 -26.194000 9.495600
-19.386000 26.261000 9.501700
19.386000 26.261000 9.501700
19.386000 -26.261999 9.501700
19.318001 26.193001 9.495600
-19.747999 26.622999 9.864000
-19.750000 26.625000 12.439500
19.750000 26.625000 12.439500
19.747999 26.622999 9.864000
-16.188999 23.063999 9.500000
-15.801000 23.736000 9.500000
-15.801000 24.513000 9.500000
-16.188999 25.184999 9.500000
16.188999 25.184999 9.500000
15.801000 24.513000 9.500000
15.801000 23.736000 9.500000
16.188999 23.063999 9.500000
19.705000 26.580000 9.734900
19.625000 26.500000 9.625000
-19.625000 26.500000 9.625000
-19.705000 26.580000 9.734900
-20.190001 27.065001 13.697800
20.190001 27.065001 13.697800
16.500000 22.825001 9.500000
16.500000 22.825001 12.439500
16.500000 -22.826000 12.439500
16.500000 -22.826000 9.500000
16.188999 25.184999 9.500000
16.500000 25.424000 9.500000
16.875000 24.774000 -14.250000
16.719999 24.655001 -14.250000
-16.600000 24.500000 -14.250000
-16.875000 24.774000 -14.250000
-16.500000 25.424000 9.500000
-15.951000 24.874001 9.500000
16.525999 24.319000 -14.250000
15.801000 24.513000 9.500000
-19.750000 -26.625000 14.250000
-19.750000 26.625000 14.250000
-19.893000 26.768000 14.141900
-19.893000 -26.768999 14.141900
-16.653999 -24.580999 -14.250000
-16.506001 -24.222000 -14.250000
-15.762000 -24.319000 9.500000
-16.059000 -25.037001 9.500000
16.500000 22.825001 12.439500
16.500000 22.825001 9.500000
-16.061001 22.825001 9.500000
-16.061001 22.825001 12.439500
-19.750000 26.625000 12.439500
19.750000 26.625000 12.439500
19.750000 -26.625000 12.439500
16.500000 -23.211000 12.439500
16.500000 22.825001 12.439500
-16.061001 22.825001 12.439500
-19.750000 -26.625000 12.439500
-19.750000 -26.625000 12.439500
19.750000 -26.625000 12.439500
19.893999 -26.768999 12.547600
-19.893000 -26.768999 12.547600
-18.311001 25.184999 9.500000
-18.000000 25.424000 9.500000
-17.625000 24.774000 -14.250000
-17.780001 24.655001 -14.250000
-19.625000 -26.500000 9.625000
-19.732000 -26.607000 9.797700
-19.732000 26.606001 9.797700
-19.625000 26.500000 9.625000
-20.190001 -27.066000 13.697800
20.190001 -27.066000 13.697800
19.893999 -26.768999 14.141900
-19.893000 -26.768999 14.141900
-17.444000 23.400000 -14.250000
-17.780001 23.594000 -14.250000
-17.974001 23.930000 -14.250000
-18.000000 24.125000 -14.250000
-17.899000 24.500000 -14.250000
-17.625000 24.774000 -14.250000
-17.444000 24.849001 -14.250000
-17.056000 24.849001 -14.250000
-16.875000 24.774000 -14.250000
-16.600000 24.500000 -14.250000
-16.525000 24.319000 -14.250000
-16.525000 23.930000 -14.250000
-16.600000 23.750000 -14.250000
-16.875000 23.475000 -14.250000
-17.056000 23.400000 -14.250000
-20.117001 26.990999 12.827700
-20.117001 -26.992001 12.827700
-20.190001 -27.066000 12.991700
-20.190001 27.065001 12.991700
16.719999 23.594000 -14.250000
16.188999 23.063999 9.500000
15.801000 23.736000 9.500000
16.525999 23.930000 -14.250000
19.625000 26.500000 9.625000
19.625000 -26.500000 9.625000
-20.235001 -27.110001 13.165700
-20.235001 27.108999 13.165700
-19.750000 26.625000 12.439500
-19.750000 -26.625000 12.439500
-20.017000 -26.892000 12.678200
-20.017000 26.891001 12.678200
-20.250000 -27.125000 13.344800
-20.250000 27.125000 13.344800
-20.235001 -27.110001 13.523800
-20.190001 -27.066000 13.697800
-20.190001 27.065001 13.697800
-20.235001 27.108999 13.523800
18.000000 -22.826000 9.500000
17.625000 -23.476000 -14.250000
-19.386000 -26.261999 9.501700
-20.117001 -26.992001 13.861800
-20.117001 26.990999 13.861800
20.235001 27.108999 13.523800
20.117001 26.990999 13.861800
20.117001 -26.992001 13.861800
20.235001 -27.110001 13.523800
20.190001 -27.066000 12.991700
-20.190001 -27.066000 12.991700
-20.017000 -26.892000 14.011300
-20.017000 26.891001 14.011300
-19.747999 -26.624001 9.864000
-19.705000 -26.580999 9.734900
19.705000 -26.580999 9.734900
19.747999 -26.624001 9.864000
19.750000 -26.625000 12.439500
-19.750000 -26.625000 12.439500
19.750000 26.625000 14.250000
19.750000 -26.625000 14.250000
19.747999 26.622999 9.864000
19.750000 26.625000 12.439500
19.750000 -26.625000 12.439500
19.747999 -26.624001 9.864000
19.732000 -26.607000 9.797700
19.732000 26.606001 9.797700
17.975000 -23.931000 -14.250000
17.900000 -23.750000 -14.250000
18.549000 -23.375000 9.500000
18.698999 -23.737000 9.500000
-19.750000 26.625000 14.250000
-19.750000 26.125000 14.250000
-16.698999 23.573999 14.250000
16.698999 23.573999 14.250000
16.698999 -23.575001 14.250000
-16.698999 -23.575001 14.250000
19.750000 -26.625000 14.250000
19.750000 26.625000 14.250000
-19.750000 -26.625000 14.250000
-16.061001 22.825001 12.439500
16.500000 22.825001 12.439500
16.500000 -23.211000 12.439500
19.750000 -26.625000 12.439500
19.750000 26.625000 12.439500
-19.750000 26.625000 12.439500
-19.750000 -26.625000 12.439500
-16.061001 -23.211000 12.439500
16.500000 -22.826000 12.439500
16.500000 -23.211000 12.439500
16.500000 -23.211000 9.500000
16.500000 -22.826000 9.500000
-16.525000 23.930000 -14.250000
-16.525000 24.319000 -14.250000
-15.801000 24.513000 9.500000
-15.801000 23.736000 9.500000
17.780001 23.594000 -14.250000
17.975000 23.930000 -14.250000
18.698999 23.736000 9.500000
18.311001 23.063999 9.500000
16.862000 22.676001 9.500000
17.056000 23.400000 -14.250000
17.444000 23.400000 -14.250000
17.638000 22.676001 9.500000
16.500000 -24.125000 -14.250000
15.750000 -24.125000 9.500000
15.951000 -23.375000 9.500000
16.601000 -23.750000 -14.250000
16.719999 -24.656000 -14.250000
16.188999 -25.186001 9.500000
15.801000 -24.514000 9.500000
16.525999 -24.320000 -14.250000
-17.993000 -24.224001 -14.250000
-17.844000 -24.583000 -14.250000
-18.438999 -25.040001 9.500000
-18.737000 -24.323000 9.500000
-18.165001 -22.937000 9.500000
-17.826000 -22.740000 9.500000
-17.538000 -23.433001 -14.250000
-17.707001 -23.531000 -14.250000
17.250000 25.625000 9.500000
17.250000 24.874001 -14.250000
-19.750000 26.625000 12.439500
-20.017000 26.891001 12.678200
20.017000 26.891001 12.678200
19.750000 26.625000 12.439500
-18.162001 -25.316999 9.500000
-17.444000 -25.613001 9.500000
-16.674000 -25.511000 9.500000
-16.334999 -25.313999 9.500000
-15.863000 -24.698000 9.500000
-15.763000 -23.927999 9.500000
16.077000 -23.211000 9.500000
15.801000 -23.737000 9.500000
15.801000 -24.514000 9.500000
16.188999 -25.186001 9.500000
16.500000 -25.424999 9.500000
17.250000 -25.625000 9.500000
18.000000 -25.424999 9.500000
18.311001 -25.186001 9.500000
18.698999 -24.514000 9.500000
18.698999 -23.737000 9.500000
18.549000 -23.375000 9.500000
18.000000 -22.826000 9.500000
17.250000 -22.625000 9.500000
16.500000 -22.826000 9.500000
17.250000 22.625000 9.500000
18.000000 22.825001 9.500000
18.311001 23.063999 9.500000
18.698999 23.736000 9.500000
-17.056000 23.400000 -14.250000
-16.875000 23.475000 -14.250000
-16.600000 23.750000 -14.250000
-16.525000 23.930000 -14.250000
-16.525000 24.319000 -14.250000
-16.600000 24.500000 -14.250000
-16.875000 24.774000 -14.250000
-17.056000 24.849001 -14.250000
-17.444000 24.849001 -14.250000
-17.625000 24.774000 -14.250000
-17.899000 24.500000 -14.250000
-18.000000 24.125000 -14.250000
-17.974001 23.930000 -14.250000
-17.780001 23.594000 -14.250000
-17.444000 23.400000 -14.250000
-16.061001 -23.211000 12.439500
17.975000 24.319000 -14.250000
18.698999 24.513000 9.500000
18.000000 25.424000 9.500000
17.625000 24.774000 -14.250000
-17.056000 23.400000 -14.250000
-16.719999 23.594000 -14.250000
-16.188999 23.063999 9.500000
-16.862000 22.676001 9.500000
17.900000 24.500000 -14.250000
18.549000 24.874001 9.500000
-17.444000 -25.613001 9.500000
-17.347000 -24.868999 -14.250000
-16.962000 -24.818001 -14.250000
-16.674000 -25.511000 9.500000
17.975000 -24.320000 -14.250000
18.698999 -24.514000 9.500000
-17.974001 23.930000 -14.250000
-17.780001 23.594000 -14.250000
-18.311001 23.063999 9.500000
-18.698999 23.736000 9.500000
17.056000 23.400000 -14.250000
17.444000 23.400000 -14.250000
17.625000 23.475000 -14.250000
17.900000 23.750000 -14.250000
17.975000 23.930000 -14.250000
17.975000 24.319000 -14.250000
17.900000 24.500000 -14.250000
17.625000 24.774000 -14.250000
17.444000 24.849001 -14.250000
17.056000 24.849001 -14.250000
16.875000 24.774000 -14.250000
16.601000 24.500000 -14.250000
16.500000 24.125000 -14.250000
16.525999 23.930000 -14.250000
16.719999 23.594000 -14.250000
-19.747999 -26.624001 9.864000
-19.750000 -26.625000 12.439500
-19.750000 26.625000 12.439500
-19.747999 26.622999 9.864000
-17.056000 -22.638000 9.500000
-17.153000 -23.382000 -14.250000
-17.974001 24.319000 -14.250000
-18.698999 24.513000 9.500000
-17.638000 22.676001 9.500000
-17.444000 23.400000 -14.250000
17.780001 -24.656000 -14.250000
18.311001 -25.186001 9.500000
17.056000 23.400000 -14.250000
16.719999 23.594000 -14.250000
16.525999 23.930000 -14.250000
16.500000 24.125000 -14.250000
16.601000 24.500000 -14.250000
16.875000 24.774000 -14.250000
17.056000 24.849001 -14.250000
17.444000 24.849001 -14.250000
17.625000 24.774000 -14.250000
17.900000 24.500000 -14.250000
17.975000 24.319000 -14.250000
17.975000 23.930000 -14.250000
17.900000 23.750000 -14.250000
17.625000 23.475000 -14.250000
17.444000 23.400000 -14.250000
-16.794001 -23.530001 -14.250000
-16.337999 -22.934000 9.500000
-18.636000 -23.552999 9.500000
-17.943001 -23.839001 -14.250000
19.573000 -26.448999 9.580600
-19.573000 -26.448999 9.580600
-17.150999 -24.868999 -14.250000
-16.962000 -24.818001 -14.250000
-16.653999 -24.580999 -14.250000
-16.506001 -24.222000 -14.250000
-16.506001 -24.027000 -14.250000
-16.655001 -23.667999 -14.250000
-16.964001 -23.431999 -14.250000
-17.349001 -23.382000 -14.250000
-17.707001 -23.531000 -14.250000
-17.943001 -23.839001 -14.250000
-17.993999 -24.028999 -14.250000
-17.941999 -24.413000 -14.250000
-17.705999 -24.721001 -14.250000
-17.535999 -24.819000 -14.250000
-17.705999 -24.721001 -14.250000
-18.162001 -25.316999 9.500000
19.750000 -26.625000 14.250000
-19.750000 -26.625000 14.250000
-17.349001 -23.382000 -14.250000
-16.964001 -23.431999 -14.250000
-16.655001 -23.667999 -14.250000
-16.506001 -24.027000 -14.250000
-16.506001 -24.222000 -14.250000
-16.653999 -24.580999 -14.250000
-16.962000 -24.818001 -14.250000
-17.150999 -24.868999 -14.250000
-17.535999 -24.819000 -14.250000
-17.844000 -24.583000 -14.250000
-17.941999 -24.413000 -14.250000
-17.993999 -24.028999 -14.250000
-17.943001 -23.839001 -14.250000
-17.707001 -23.531000 -14.250000
-17.250000 25.625000 9.500000
-17.250000 24.874001 -14.250000
-16.061001 -23.211000 9.500000
-16.061001 22.825001 9.500000
-16.061001 22.825001 12.439500
-16.061001 -23.211000 12.439500
17.056000 -24.850000 -14.250000
17.444000 -24.850000 -14.250000
17.625000 -24.775000 -14.250000
17.900000 -24.500000 -14.250000
17.975000 -24.320000 -14.250000
17.975000 -23.931000 -14.250000
17.900000 -23.750000 -14.250000
17.625000 -23.476000 -14.250000
17.250000 -23.375000 -14.250000
16.875000 -23.476000 -14.250000
16.601000 -23.750000 -14.250000
16.500000 -24.125000 -14.250000
16.525999 -24.320000 -14.250000
16.719999 -24.656000 -14.250000
17.625000 -24.775000 -14.250000
17.444000 -24.850000 -14.250000
17.056000 -24.850000 -14.250000
16.719999 -24.656000 -14.250000
16.525999 -24.320000 -14.250000
16.500000 -24.125000 -14.250000
16.601000 -23.750000 -14.250000
16.875000 -23.476000 -14.250000
17.250000 -23.375000 -14.250000
17.625000 -23.476000 -14.250000
17.900000 -23.750000 -14.250000
17.975000 -23.931000 -14.250000
17.975000 -24.320000 -14.250000
17.900000 -24.500000 -14.250000
16.500000 -22.826000 9.500000
16.500000 -22.826000 12.439500
16.500000 22.825001 12.439500
16.500000 22.825001 9.500000
16.698999 23.573999 14.250000
-16.698999 23.573999 14.250000
-16.698999 -23.575001 14.250000
16.698999 -23.575001 14.250000
20.250000 -27.125000 13.344800
-20.250000 -27.125000 13.344800
-16.061001 -23.211000 12.439500
-16.061001 22.825001 12.439500
-16.061001 22.825001 9.500000
-16.061001 -23.211000 9.500000
16.500000 -23.211000 9.500000
16.500000 -23.211000 12.439500
-16.061001 -23.211000 12.439500
-16.061001 -23.211000 9.500000
-16.061001 22.825001 12.439500
-16.061001 22.825001 9.500000
16.500000 22.825001 9.500000
16.500000 22.825001 12.439500
4 0 1 2 3
4 4 5 6 7
4 8 9 10 11
4 12 13 14 15
4 16 17 18 19
4 20 21 22 23
4 24 25 26 27
3 28 29 30
4 31 32 33 34
4 6 5 35 36
30 37 38 39 40 41 42 43 44 45 46 47 48 49 50 51 29 28 52 53 54 55 56 57 58 59 60 61 62 63 64
4 65 66 67 68
12 29 69 70 71 72 43 42 73 74 75 76 30
6 77 78 79 80 65 68
4 25 81 82 26
4 83 84 85 86
4 87 88 89 90
4 91 92 93 94
4 90 95 96 87
4 97 98 99 100
4 101 102 103 104
4 105 106 107 108
7 109 110 111 112 113 114 115
4 116 117 118 119
4 120 121 122 123
4 124 125 126 127
4 128 129 130 131
15 132 133 134 135 136 137 138 139 140 141 142 143 144 145 146
4 147 148 149 150
4 151 152 153 154
4 63 62 155 156
4 149 157 158 150
4 159 160 161 162
4 158 157 163 164
4 165 166 167 168
4 163 165 168 164
4 169 170 22 21
4 61 171 124 127
4 166 172 173 167
4 174 175 176 177
4 62 61 79 78
4 119 118 178 179
4 173 172 180 181
6 182 183 184 185 186 187
4 81 9 8 82
4 175 188 189 176
6 190 191 192 193 194 195
4 196 197 198 199
8 200 201 202 203 204 205 206 207
5 205 202 201 208 206
8 209 210 211 212 213 214 215 216
4 217 218 219 220
4 95 154 153 96
4 221 222 223 224
4 225 226 227 228
4 102 15 14 103
4 229 230 231 232
4 233 234 235 236
4 237 238 239 240
4 241 242 243 244
4 231 225 228 232
4 245 246 247 248
4 88 249 250 89
6 251 252 24 27 253 254
33 60 59 255 256 257 258 259 260 52 261 262 263 264 265 266 267 268 269 270 271 272 273 274 30 275 276 277 278 37 64 63 171 61
15 279 280 281 282 283 284 285 286 287 288 289 290 291 292 293
5 294 112 111 115 114
4 36 35 174 177
4 162 161 148 147
4 226 295 296 227
4 250 249 297 298
4 230 229 152 151
4 299 300 301 302
4 295 303 304 296
4 305 306 307 308
4 233 240 239 234
4 309 196 199 310
4 101 104 308 307
4 311 312 313 314
15 315 316 317 318 319 320 321 322 323 324 325 326 327 328 329
4 155 195 194 156
6 330 331 332 333 126 125
4 334 335 247 246
4 336 311 314 337
4 338 339 299 302
4 303 298 297 304
4 18 340 341 19
15 342 343 344 345 346 347 348 349 350 351 352 353 354 355 356
4 357 358 13 12
4 300 221 224 301
4 335 334 358 357
4 340 309 310 341
4 359 360 241 244
4 171 63 361 362
14 363 364 365 366 367 368 369 370 371 372 373 374 375 376
4 181 180 100 99
4 362 361 184 183
4 243 242 377 378
4 379 380 131 130
14 381 382 383 384 385 386 387 388 389 390 391 392 393 394
4 17 16 238 237
4 312 339 338 313
4 222 91 94 223
4 123 336 337 120
4 395 396 122 121
4 197 170 169 198
4 235 20 23 236
4 396 395 93 92
4 248 360 359 245
4 377 306 305 378
4 212 211 216 215
4 397 398 399 400
14 401 402 403 404 405 406 407 408 409 410 411 412 413 414
14 415 416 417 418 419 420 421 422 423 424 425 426 427 428
4 429 430 431 432
4 433 434 435 436
6 178 437 129 128 438 179
4 439 440 441 442
4 443 444 445 446
4 447 448 449 450
