ply
format ascii 1.0
comment Created by Blender 2.82 (sub 7) - www.blender.org, source file: ''
element vertex 768
property float x
property float y
property float z
element face 190
property list uchar uint vertex_indices
end_header
1.999950 -30.499950 9.333450
-0.000050 -30.499950 9.333450
-0.000050 -1.842350 -3.295350
1.999950 -1.842350 -3.295350
0.999950 61.999950 0.704650
0.999950 61.999950 -3.295350
-1.000050 61.999950 -3.295350
-1.000050 61.999950 0.704650
-15.795450 -1.000050 13.704650
-15.795450 -3.000050 13.704650
-27.562950 -3.000050 -14.704650
-27.562950 -1.000050 -14.704650
20.124950 65.999947 13.704650
20.124950 63.999950 13.704650
31.892550 63.999950 -14.704650
31.892550 65.999947 -14.704650
-25.509750 33.499950 0.704650
-25.509750 29.499950 0.704650
-25.509750 29.499950 -1.295350
-25.509750 33.499950 -1.295350
-4.500050 -71.999947 13.704650
-12.500050 -71.999947 13.704650
-12.500050 71.999947 13.704650
-4.500050 71.999947 13.704650
25.509750 -33.499950 0.704650
33.884750 -33.499950 0.704650
33.884750 -29.499950 0.704650
25.509750 -29.499950 0.704650
29.884750 -73.999947 2.704650
33.884750 -73.999947 2.704650
33.884750 73.999947 2.704650
29.884750 73.999947 2.704650
-13.000050 -71.999947 13.704650
-13.000050 -71.999947 14.704650
-21.000050 -71.999947 14.704650
-21.000050 -71.999947 13.704650
31.892550 -65.999947 -14.704650
27.562950 -65.999947 -14.704650
27.562950 -63.999950 -14.704650
31.892550 -63.999950 -14.704650
15.795450 -65.999947 13.704650
20.124950 -65.999947 13.704650
20.124950 -63.999950 13.704650
15.795450 -63.999950 13.704650
33.884750 -33.499950 -1.295350
25.509750 -33.499950 -1.295350
25.509750 -29.499950 -1.295350
33.884750 -29.499950 -1.295350
-29.509750 -73.999947 0.704650
-29.509750 -73.999947 2.704650
-29.509750 73.999947 2.704650
-29.509750 73.999947 0.704650
-20.125050 61.999950 13.704650
20.124950 61.999950 13.704650
20.124950 63.999950 13.704650
-20.125050 63.999950 13.704650
-21.781851 -1.000050 9.704650
21.781851 -1.000050 9.704650
20.124950 -1.000050 13.704650
-20.125050 -1.000050 13.704650
15.795450 -3.000050 13.704650
20.124950 -3.000050 13.704650
20.124950 -1.000050 13.704650
15.795450 -1.000050 13.704650
12.499950 -71.999947 13.704650
4.499950 -71.999947 13.704650
4.499950 71.999947 13.704650
12.499950 71.999947 13.704650
-20.125050 63.999950 13.704650
20.124950 63.999950 13.704650
21.781851 63.999950 9.704650
-21.781851 63.999950 9.704650
-20.125050 -63.999950 13.704650
20.124950 -63.999950 13.704650
20.124950 -61.999950 13.704650
-20.125050 -61.999950 13.704650
-33.884750 -61.999950 -3.295350
-33.884750 -61.999950 0.704650
33.884750 -61.999950 0.704650
33.884750 -61.999950 -3.295350
20.124950 63.999950 13.704650
20.124950 61.999950 13.704650
21.781851 61.999950 9.704650
21.781851 63.999950 9.704650
33.884750 29.499950 -1.295350
25.509750 29.499950 -1.295350
25.509750 33.499950 -1.295350
33.884750 33.499950 -1.295350
-2.000050 30.499950 9.333450
-2.000050 1.842250 -3.295350
-2.000050 0.999950 -3.295350
-2.000050 0.999950 0.704650
-2.000050 30.499950 13.704650
-33.884750 -33.499950 -1.295350
-25.509750 -33.499950 -1.295350
-25.509750 -33.499950 0.704650
-33.884750 -33.499950 0.704650
3.999950 71.999947 14.704650
3.999950 71.999947 13.704650
-4.000050 71.999947 13.704650
-4.000050 71.999947 14.704650
-33.884750 -1.000050 -3.295350
33.884750 -1.000050 -3.295350
33.884750 -1.000050 0.704650
-33.884750 -1.000050 0.704650
-33.884750 -1.000050 0.704650
33.884750 -1.000050 0.704650
33.884750 0.999950 0.704650
-33.884750 0.999950 0.704650
-15.795450 -1.000050 13.704650
-20.125050 -1.000050 13.704650
-20.125050 -3.000050 13.704650
-15.795450 -3.000050 13.704650
33.884750 61.999950 -3.295350
33.884750 61.999950 0.704650
-33.884750 61.999950 0.704650
-33.884750 61.999950 -3.295350
-21.000050 30.499950 13.704650
-19.343149 30.499950 9.704650
19.343149 30.499950 9.704650
20.999950 30.499950 13.704650
-15.795450 -63.999950 13.704650
-20.125050 -63.999950 13.704650
-20.125050 -65.999947 13.704650
-15.795450 -65.999947 13.704650
21.781851 -1.000050 9.704650
21.781851 0.999950 9.704650
20.124950 0.999950 13.704650
20.124950 -1.000050 13.704650
27.562950 -1.000050 -14.704650
27.562950 -3.000050 -14.704650
15.795450 -3.000050 13.704650
15.795450 -1.000050 13.704650
31.892550 -3.000050 -14.704650
31.892550 -1.000050 -14.704650
20.124950 -1.000050 13.704650
20.124950 -3.000050 13.704650
-20.125050 -3.000050 13.704650
-31.892550 -3.000050 -14.704650
-27.562950 -3.000050 -14.704650
-15.795450 -3.000050 13.704650
-13.000050 71.999947 14.704650
-13.000050 71.999947 13.704650
-21.000050 71.999947 13.704650
-21.000050 71.999947 14.704650
-25.509750 -33.499950 -1.295350
-33.884750 -33.499950 -1.295350
-33.884750 -29.499950 -1.295350
-25.509750 -29.499950 -1.295350
25.509750 -33.499950 -1.295350
33.884750 -33.499950 -1.295350
33.884750 -33.499950 0.704650
25.509750 -33.499950 0.704650
-0.000050 -1.000050 -3.295350
-0.000050 -1.842350 -3.295350
-0.000050 -30.499950 9.333450
-0.000050 -30.499950 13.704650
-0.000050 -1.000050 0.704650
1.999950 -1.842350 -3.295350
1.999950 -1.000050 -3.295350
1.999950 -1.000050 0.704650
1.999950 -30.499950 13.704650
1.999950 -30.499950 9.333450
0.999950 32.499950 9.333450
0.999950 32.499950 13.704650
-1.000050 32.499950 13.704650
-1.000050 32.499950 9.333450
-29.884750 73.999947 2.704650
-29.884750 73.999947 0.704650
-33.884750 73.999947 0.704650
-33.884750 73.999947 2.704650
-2.000050 30.499950 9.333450
-2.000050 30.499950 13.704650
-0.000050 30.499950 13.704650
-0.000050 30.499950 9.333450
0.999950 -61.999950 -3.295350
-1.000050 -61.999950 -3.295350
-1.000050 -61.157951 -3.295350
0.999950 -61.157951 -3.295350
-33.884750 -73.999947 0.704650
-33.884750 -73.999947 2.704650
-33.884750 73.999947 2.704650
-33.884750 73.999947 0.704650
-15.795450 65.999947 13.704650
-27.562950 65.999947 -14.704650
-31.892550 65.999947 -14.704650
-20.125050 65.999947 13.704650
-31.892550 65.999947 -14.704650
-27.562950 65.999947 -14.704650
-27.562950 63.999950 -14.704650
-31.892550 63.999950 -14.704650
-1.000050 -32.499950 9.333450
-1.000050 -61.157951 -3.295350
-1.000050 -61.999950 -3.295350
-1.000050 -61.999950 0.704650
-1.000050 -32.499950 13.704650
-33.884750 -33.499950 0.704650
-25.509750 -33.499950 0.704650
-25.509750 -29.499950 0.704650
-33.884750 -29.499950 0.704650
12.999950 -71.999947 14.704650
20.999950 -71.999947 14.704650
20.999950 71.999947 14.704650
12.999950 71.999947 14.704650
-27.562950 -1.000050 -14.704650
-31.892550 -1.000050 -14.704650
-20.125050 -1.000050 13.704650
-15.795450 -1.000050 13.704650
33.884750 73.999947 2.704650
33.884750 -73.999947 2.704650
33.884750 -73.999947 0.704650
33.884750 73.999947 0.704650
33.884750 73.999947 2.704650
33.884750 73.999947 0.704650
29.884750 73.999947 0.704650
29.884750 73.999947 2.704650
33.884750 61.999950 -3.295350
-33.884750 61.999950 -3.295350
-33.884750 63.999950 -3.295350
33.884750 63.999950 -3.295350
15.795450 63.999950 13.704650
20.124950 63.999950 13.704650
20.124950 65.999947 13.704650
15.795450 65.999947 13.704650
33.884750 -73.999947 0.704650
33.884750 -73.999947 2.704650
29.884750 -73.999947 2.704650
29.884750 -73.999947 0.704650
33.884750 -1.000050 -3.295350
-33.884750 -1.000050 -3.295350
-33.884750 0.999950 -3.295350
33.884750 0.999950 -3.295350
-13.000050 71.999947 14.704650
-13.000050 -71.999947 14.704650
-13.000050 -71.999947 13.704650
-13.000050 71.999947 13.704650
-33.884750 -73.999947 2.704650
-29.884750 -73.999947 2.704650
-29.884750 73.999947 2.704650
-33.884750 73.999947 2.704650
-4.500050 71.999947 14.704650
-4.500050 71.999947 13.704650
-12.500050 71.999947 13.704650
-12.500050 71.999947 14.704650
-25.509750 73.999947 2.704650
-25.509750 73.999947 0.704650
-29.509750 73.999947 0.704650
-29.509750 73.999947 2.704650
33.884750 -73.999947 0.704650
29.884750 -73.999947 0.704650
29.884750 73.999947 0.704650
33.884750 73.999947 0.704650
-29.884750 73.999947 2.704650
-29.884750 -73.999947 2.704650
-29.884750 -73.999947 0.704650
-29.884750 73.999947 0.704650
33.884750 -29.499950 0.704650
33.884750 -29.499950 -1.295350
25.509750 -29.499950 -1.295350
25.509750 -29.499950 0.704650
3.999950 -71.999947 13.704650
3.999950 -71.999947 14.704650
-4.000050 -71.999947 14.704650
-4.000050 -71.999947 13.704650
-29.509750 -73.999947 2.704650
-25.509750 -73.999947 2.704650
-25.509750 73.999947 2.704650
-29.509750 73.999947 2.704650
33.884750 -29.499950 0.704650
33.884750 -33.499950 0.704650
33.884750 -33.499950 -1.295350
33.884750 -29.499950 -1.295350
29.884750 -73.999947 0.704650
29.884750 -73.999947 2.704650
29.884750 73.999947 2.704650
29.884750 73.999947 0.704650
-19.343149 32.499950 9.704650
19.343149 32.499950 9.704650
19.343149 30.499950 9.704650
-19.343149 30.499950 9.704650
-21.000050 -32.499950 13.704650
-19.343149 -32.499950 9.704650
19.343149 -32.499950 9.704650
20.999950 -32.499950 13.704650
-21.000050 -30.499950 13.704650
-21.000050 -32.499950 13.704650
20.999950 -32.499950 13.704650
20.999950 -30.499950 13.704650
-29.884750 -73.999947 0.704650
-29.884750 -73.999947 2.704650
-33.884750 -73.999947 2.704650
-33.884750 -73.999947 0.704650
12.499950 -71.999947 13.704650
12.499950 -71.999947 14.704650
4.499950 -71.999947 14.704650
4.499950 -71.999947 13.704650
-1.000050 -61.999950 0.704650
0.999950 -61.999950 0.704650
0.999950 -32.499950 13.704650
-1.000050 -32.499950 13.704650
3.999950 71.999947 14.704650
3.999950 -71.999947 14.704650
3.999950 -71.999947 13.704650
3.999950 71.999947 13.704650
21.781851 61.999950 9.704650
-21.781851 61.999950 9.704650
-21.781851 63.999950 9.704650
21.781851 63.999950 9.704650
-33.884750 -33.499950 0.704650
-33.884750 -29.499950 0.704650
-33.884750 -29.499950 -1.295350
-33.884750 -33.499950 -1.295350
-13.000050 -71.999947 13.704650
-21.000050 -71.999947 13.704650
-21.000050 71.999947 13.704650
-13.000050 71.999947 13.704650
-25.509750 -73.999947 0.704650
-29.509750 -73.999947 0.704650
-29.509750 73.999947 0.704650
-25.509750 73.999947 0.704650
20.999950 71.999947 14.704650
20.999950 71.999947 13.704650
12.999950 71.999947 13.704650
12.999950 71.999947 14.704650
-25.509750 -73.999947 0.704650
-25.509750 -73.999947 2.704650
-29.509750 -73.999947 2.704650
-29.509750 -73.999947 0.704650
-25.509750 29.499950 -1.295350
-33.884750 29.499950 -1.295350
-33.884750 33.499950 -1.295350
-25.509750 33.499950 -1.295350
1.999950 -1.000050 0.704650
1.999950 -1.000050 -3.295350
-0.000050 -1.000050 -3.295350
-0.000050 -1.000050 0.704650
1.999950 -1.842350 -3.295350
-0.000050 -1.842350 -3.295350
-0.000050 -1.000050 -3.295350
1.999950 -1.000050 -3.295350
29.509750 73.999947 2.704650
29.509750 -73.999947 2.704650
29.509750 -73.999947 0.704650
29.509750 73.999947 0.704650
-0.000050 1.842250 -3.295350
-2.000050 1.842250 -3.295350
-2.000050 30.499950 9.333450
-0.000050 30.499950 9.333450
33.884750 33.499950 0.704650
33.884750 33.499950 -1.295350
25.509750 33.499950 -1.295350
25.509750 33.499950 0.704650
15.795450 -63.999950 13.704650
20.124950 -63.999950 13.704650
31.892550 -63.999950 -14.704650
27.562950 -63.999950 -14.704650
29.509750 73.999947 2.704650
29.509750 73.999947 0.704650
25.509750 73.999947 0.704650
25.509750 73.999947 2.704650
-0.000050 0.999950 -3.295350
-0.000050 1.842250 -3.295350
-0.000050 30.499950 9.333450
-0.000050 30.499950 13.704650
-0.000050 0.999950 0.704650
-21.781851 -61.999950 9.704650
-20.125050 -61.999950 13.704650
20.124950 -61.999950 13.704650
21.781851 -61.999950 9.704650
-20.125050 61.999950 13.704650
-20.125050 63.999950 13.704650
-21.781851 63.999950 9.704650
-21.781851 61.999950 9.704650
-1.000050 32.499950 13.704650
0.999950 32.499950 13.704650
0.999950 61.999950 0.704650
-1.000050 61.999950 0.704650
29.509750 -73.999947 0.704650
25.509750 -73.999947 0.704650
25.509750 73.999947 0.704650
29.509750 73.999947 0.704650
25.509750 29.499950 0.704650
25.509750 33.499950 0.704650
25.509750 33.499950 -1.295350
25.509750 29.499950 -1.295350
25.509750 29.499950 -1.295350
33.884750 29.499950 -1.295350
33.884750 29.499950 0.704650
25.509750 29.499950 0.704650
-0.000050 -30.499950 13.704650
1.999950 -30.499950 13.704650
1.999950 -1.000050 0.704650
-0.000050 -1.000050 0.704650
25.509750 -73.999947 0.704650
25.509750 -73.999947 2.704650
25.509750 73.999947 2.704650
25.509750 73.999947 0.704650
-20.125050 -65.999947 13.704650
-20.125050 -63.999950 13.704650
-31.892550 -63.999950 -14.704650
-31.892550 -65.999947 -14.704650
-15.795450 63.999950 13.704650
-20.125050 63.999950 13.704650
-31.892550 63.999950 -14.704650
-27.562950 63.999950 -14.704650
-33.884750 29.499950 0.704650
-25.509750 29.499950 0.704650
-25.509750 33.499950 0.704650
-33.884750 33.499950 0.704650
21.781851 61.999950 9.704650
20.124950 61.999950 13.704650
-20.125050 61.999950 13.704650
-21.781851 61.999950 9.704650
-33.884750 61.999950 0.704650
33.884750 61.999950 0.704650
33.884750 63.999950 0.704650
-33.884750 63.999950 0.704650
-21.000050 -71.999947 14.704650
-13.000050 -71.999947 14.704650
-13.000050 71.999947 14.704650
-21.000050 71.999947 14.704650
33.884750 63.999950 0.704650
33.884750 61.999950 0.704650
33.884750 61.999950 -3.295350
33.884750 63.999950 -3.295350
20.999950 71.999947 14.704650
20.999950 -71.999947 14.704650
20.999950 -71.999947 13.704650
20.999950 71.999947 13.704650
20.999950 -71.999947 13.704650
20.999950 -71.999947 14.704650
12.999950 -71.999947 14.704650
12.999950 -71.999947 13.704650
12.999950 -71.999947 13.704650
12.999950 -71.999947 14.704650
12.999950 71.999947 14.704650
12.999950 71.999947 13.704650
-21.781851 0.999950 9.704650
-21.781851 -1.000050 9.704650
-20.125050 -1.000050 13.704650
-20.125050 0.999950 13.704650
-33.884750 61.999950 0.704650
-33.884750 63.999950 0.704650
-33.884750 63.999950 -3.295350
-33.884750 61.999950 -3.295350
27.562950 63.999950 -14.704650
31.892550 63.999950 -14.704650
20.124950 63.999950 13.704650
15.795450 63.999950 13.704650
-33.884750 63.999950 0.704650
33.884750 63.999950 0.704650
33.884750 63.999950 -3.295350
-33.884750 63.999950 -3.295350
-21.000050 -71.999947 13.704650
-21.000050 -71.999947 14.704650
-21.000050 71.999947 14.704650
-21.000050 71.999947 13.704650
20.124950 65.999947 13.704650
31.892550 65.999947 -14.704650
27.562950 65.999947 -14.704650
15.795450 65.999947 13.704650
3.999950 -71.999947 13.704650
-4.000050 -71.999947 13.704650
-4.000050 71.999947 13.704650
3.999950 71.999947 13.704650
-21.000050 30.499950 13.704650
-21.000050 32.499950 13.704650
-19.343149 32.499950 9.704650
-19.343149 30.499950 9.704650
-31.892550 65.999947 -14.704650
-31.892550 63.999950 -14.704650
-20.125050 63.999950 13.704650
-20.125050 65.999947 13.704650
-4.500050 71.999947 14.704650
-4.500050 -71.999947 14.704650
-4.500050 -71.999947 13.704650
-4.500050 71.999947 13.704650
-33.884750 0.999950 -3.295350
-33.884750 -1.000050 -3.295350
-33.884750 -1.000050 0.704650
-33.884750 0.999950 0.704650
33.884750 -1.000050 -3.295350
33.884750 0.999950 -3.295350
33.884750 0.999950 0.704650
33.884750 -1.000050 0.704650
-12.500050 -71.999947 14.704650
-4.500050 -71.999947 14.704650
-4.500050 71.999947 14.704650
-12.500050 71.999947 14.704650
25.509750 -33.499950 0.704650
25.509750 -29.499950 0.704650
25.509750 -29.499950 -1.295350
25.509750 -33.499950 -1.295350
-4.500050 -71.999947 13.704650
-4.500050 -71.999947 14.704650
-12.500050 -71.999947 14.704650
-12.500050 -71.999947 13.704650
-12.500050 -71.999947 13.704650
-12.500050 -71.999947 14.704650
-12.500050 71.999947 14.704650
-12.500050 71.999947 13.704650
-33.884750 0.999950 -3.295350
-33.884750 0.999950 0.704650
33.884750 0.999950 0.704650
33.884750 0.999950 -3.295350
31.892550 63.999950 -14.704650
27.562950 63.999950 -14.704650
27.562950 65.999947 -14.704650
31.892550 65.999947 -14.704650
-21.000050 32.499950 13.704650
-21.000050 30.499950 13.704650
20.999950 30.499950 13.704650
20.999950 32.499950 13.704650
-21.781851 0.999950 9.704650
-20.125050 0.999950 13.704650
20.124950 0.999950 13.704650
21.781851 0.999950 9.704650
-20.125050 -3.000050 13.704650
-20.125050 -1.000050 13.704650
-31.892550 -1.000050 -14.704650
-31.892550 -3.000050 -14.704650
-20.125050 -65.999947 13.704650
-31.892550 -65.999947 -14.704650
-27.562950 -65.999947 -14.704650
-15.795450 -65.999947 13.704650
-4.000050 -71.999947 13.704650
-4.000050 -71.999947 14.704650
-4.000050 71.999947 14.704650
-4.000050 71.999947 13.704650
-20.125050 -1.000050 13.704650
20.124950 -1.000050 13.704650
20.124950 0.999950 13.704650
-20.125050 0.999950 13.704650
20.999950 32.499950 13.704650
20.999950 30.499950 13.704650
19.343149 30.499950 9.704650
19.343149 32.499950 9.704650
-4.000050 -71.999947 14.704650
3.999950 -71.999947 14.704650
3.999950 71.999947 14.704650
-4.000050 71.999947 14.704650
15.795450 -1.000050 13.704650
20.124950 -1.000050 13.704650
31.892550 -1.000050 -14.704650
27.562950 -1.000050 -14.704650
-31.892550 -1.000050 -14.704650
-27.562950 -1.000050 -14.704650
-27.562950 -3.000050 -14.704650
-31.892550 -3.000050 -14.704650
12.499950 71.999947 14.704650
12.499950 71.999947 13.704650
4.499950 71.999947 13.704650
4.499950 71.999947 14.704650
15.795450 -3.000050 13.704650
27.562950 -3.000050 -14.704650
31.892550 -3.000050 -14.704650
20.124950 -3.000050 13.704650
20.999950 -30.499950 13.704650
20.999950 -32.499950 13.704650
19.343149 -32.499950 9.704650
19.343149 -30.499950 9.704650
-21.000050 -32.499950 13.704650
-21.000050 -30.499950 13.704650
-19.343149 -30.499950 9.704650
-19.343149 -32.499950 9.704650
12.499950 71.999947 14.704650
12.499950 -71.999947 14.704650
12.499950 -71.999947 13.704650
12.499950 71.999947 13.704650
-27.562950 -63.999950 -14.704650
-31.892550 -63.999950 -14.704650
-20.125050 -63.999950 13.704650
-15.795450 -63.999950 13.704650
-21.000050 32.499950 13.704650
20.999950 32.499950 13.704650
19.343149 32.499950 9.704650
-19.343149 32.499950 9.704650
4.499950 -71.999947 14.704650
12.499950 -71.999947 14.704650
12.499950 71.999947 14.704650
4.499950 71.999947 14.704650
0.999950 61.999950 -3.295350
0.999950 61.999950 0.704650
0.999950 32.499950 13.704650
0.999950 32.499950 9.333450
0.999950 61.157650 -3.295350
0.999950 32.499950 9.333450
-1.000050 32.499950 9.333450
-1.000050 61.157650 -3.295350
0.999950 61.157650 -3.295350
4.499950 -71.999947 13.704650
4.499950 -71.999947 14.704650
4.499950 71.999947 14.704650
4.499950 71.999947 13.704650
-21.000050 -30.499950 13.704650
20.999950 -30.499950 13.704650
19.343149 -30.499950 9.704650
-19.343149 -30.499950 9.704650
-19.343149 -30.499950 9.704650
19.343149 -30.499950 9.704650
19.343149 -32.499950 9.704650
-19.343149 -32.499950 9.704650
31.892550 -3.000050 -14.704650
27.562950 -3.000050 -14.704650
27.562950 -1.000050 -14.704650
31.892550 -1.000050 -14.704650
21.781851 -1.000050 9.704650
-21.781851 -1.000050 9.704650
-21.781851 0.999950 9.704650
21.781851 0.999950 9.704650
0.999950 61.157650 -3.295350
-1.000050 61.157650 -3.295350
-1.000050 61.999950 -3.295350
0.999950 61.999950 -3.295350
-25.509750 33.499950 0.704650
-25.509750 33.499950 -1.295350
-33.884750 33.499950 -1.295350
-33.884750 33.499950 0.704650
25.509750 29.499950 0.704650
33.884750 29.499950 0.704650
33.884750 33.499950 0.704650
25.509750 33.499950 0.704650
-21.781851 -63.999950 9.704650
21.781851 -63.999950 9.704650
20.124950 -63.999950 13.704650
-20.125050 -63.999950 13.704650
-33.884750 -63.999950 0.704650
33.884750 -63.999950 0.704650
33.884750 -61.999950 0.704650
-33.884750 -61.999950 0.704650
-31.892550 -63.999950 -14.704650
-27.562950 -63.999950 -14.704650
-27.562950 -65.999947 -14.704650
-31.892550 -65.999947 -14.704650
33.884750 -63.999950 -3.295350
33.884750 -61.999950 -3.295350
33.884750 -61.999950 0.704650
33.884750 -63.999950 0.704650
-21.781851 -61.999950 9.704650
-21.781851 -63.999950 9.704650
-20.125050 -63.999950 13.704650
-20.125050 -61.999950 13.704650
-25.509750 -29.499950 0.704650
-25.509750 -29.499950 -1.295350
-33.884750 -29.499950 -1.295350
-33.884750 -29.499950 0.704650
21.781851 -63.999950 9.704650
21.781851 -61.999950 9.704650
20.124950 -61.999950 13.704650
20.124950 -63.999950 13.704650
-25.509750 -29.499950 0.704650
-25.509750 -33.499950 0.704650
-25.509750 -33.499950 -1.295350
-25.509750 -29.499950 -1.295350
29.509750 -73.999947 0.704650
29.509750 -73.999947 2.704650
25.509750 -73.999947 2.704650
25.509750 -73.999947 0.704650
-33.884750 -63.999950 -3.295350
33.884750 -63.999950 -3.295350
33.884750 -63.999950 0.704650
-33.884750 -63.999950 0.704650
0.999950 -61.157951 -3.295350
-1.000050 -61.157951 -3.295350
-1.000050 -32.499950 9.333450
0.999950 -32.499950 9.333450
-1.000050 61.999950 -3.295350
-1.000050 61.157650 -3.295350
-1.000050 32.499950 9.333450
-1.000050 32.499950 13.704650
-1.000050 61.999950 0.704650
-15.795450 -63.999950 13.704650
-15.795450 -65.999947 13.704650
-27.562950 -65.999947 -14.704650
-27.562950 -63.999950 -14.704650
-25.509750 73.999947 2.704650
-25.509750 -73.999947 2.704650
-25.509750 -73.999947 0.704650
-25.509750 73.999947 0.704650
33.884750 -63.999950 -3.295350
-33.884750 -63.999950 -3.295350
-33.884750 -61.999950 -3.295350
33.884750 -61.999950 -3.295350
-33.884750 -61.999950 -3.295350
-33.884750 -63.999950 -3.295350
-33.884750 -63.999950 0.704650
-33.884750 -61.999950 0.704650
-33.884750 29.499950 -1.295350
-25.509750 29.499950 -1.295350
-25.509750 29.499950 0.704650
-33.884750 29.499950 0.704650
-33.884750 29.499950 0.704650
-33.884750 33.499950 0.704650
-33.884750 33.499950 -1.295350
-33.884750 29.499950 -1.295350
-1.000050 -61.999950 0.704650
-1.000050 -61.999950 -3.295350
0.999950 -61.999950 -3.295350
0.999950 -61.999950 0.704650
27.562950 -63.999950 -14.704650
27.562950 -65.999947 -14.704650
15.795450 -65.999947 13.704650
15.795450 -63.999950 13.704650
1.999950 -30.499950 9.333450
1.999950 -30.499950 13.704650
-0.000050 -30.499950 13.704650
-0.000050 -30.499950 9.333450
25.509750 -73.999947 2.704650
29.509750 -73.999947 2.704650
29.509750 73.999947 2.704650
25.509750 73.999947 2.704650
31.892550 -65.999947 -14.704650
31.892550 -63.999950 -14.704650
20.124950 -63.999950 13.704650
20.124950 -65.999947 13.704650
20.999950 -71.999947 13.704650
12.999950 -71.999947 13.704650
12.999950 71.999947 13.704650
20.999950 71.999947 13.704650
-2.000050 0.999950 0.704650
-2.000050 0.999950 -3.295350
-0.000050 0.999950 -3.295350
-0.000050 0.999950 0.704650
-1.000050 -32.499950 9.333450
-1.000050 -32.499950 13.704650
0.999950 -32.499950 13.704650
0.999950 -32.499950 9.333450
0.999950 -61.999950 -3.295350
0.999950 -61.157951 -3.295350
0.999950 -32.499950 9.333450
0.999950 -32.499950 13.704650
0.999950 -61.999950 0.704650
15.795450 63.999950 13.704650
15.795450 65.999947 13.704650
27.562950 65.999947 -14.704650
27.562950 63.999950 -14.704650
-29.884750 -73.999947 0.704650
-33.884750 -73.999947 0.704650
-33.884750 73.999947 0.704650
-29.884750 73.999947 0.704650
33.884750 33.499950 0.704650
33.884750 29.499950 0.704650
33.884750 29.499950 -1.295350
33.884750 33.499950 -1.295350
15.795450 -65.999947 13.704650
27.562950 -65.999947 -14.704650
31.892550 -65.999947 -14.704650
20.124950 -65.999947 13.704650
-15.795450 65.999947 13.704650
-20.125050 65.999947 13.704650
-20.125050 63.999950 13.704650
-15.795450 63.999950 13.704650
21.781851 -63.999950 9.704650
-21.781851 -63.999950 9.704650
-21.781851 -61.999950 9.704650
21.781851 -61.999950 9.704650
-0.000050 0.999950 -3.295350
-2.000050 0.999950 -3.295350
-2.000050 1.842250 -3.295350
-0.000050 1.842250 -3.295350
-27.562950 63.999950 -14.704650
-27.562950 65.999947 -14.704650
-15.795450 65.999947 13.704650
-15.795450 63.999950 13.704650
-2.000050 0.999950 0.704650
-0.000050 0.999950 0.704650
-0.000050 30.499950 13.704650
-2.000050 30.499950 13.704650
4 0 1 2 3
4 4 5 6 7
4 8 9 10 11
4 12 13 14 15
4 16 17 18 19
4 20 21 22 23
4 24 25 26 27
4 28 29 30 31
4 32 33 34 35
4 36 37 38 39
4 40 41 42 43
4 44 45 46 47
4 48 49 50 51
4 52 53 54 55
4 56 57 58 59
4 60 61 62 63
4 64 65 66 67
4 68 69 70 71
4 72 73 74 75
4 76 77 78 79
4 80 81 82 83
4 84 85 86 87
5 88 89 90 91 92
4 93 94 95 96
4 97 98 99 100
4 101 102 103 104
4 105 106 107 108
4 109 110 111 112
4 113 114 115 116
4 117 118 119 120
4 121 122 123 124
4 125 126 127 128
4 129 130 131 132
4 133 134 135 136
4 137 138 139 140
4 141 142 143 144
4 145 146 147 148
4 149 150 151 152
5 153 154 155 156 157
5 158 159 160 161 162
4 163 164 165 166
4 167 168 169 170
4 171 172 173 174
4 175 176 177 178
4 179 180 181 182
4 183 184 185 186
4 187 188 189 190
5 191 192 193 194 195
4 196 197 198 199
4 200 201 202 203
4 204 205 206 207
4 208 209 210 211
4 212 213 214 215
4 216 217 218 219
4 220 221 222 223
4 224 225 226 227
4 228 229 230 231
4 232 233 234 235
4 236 237 238 239
4 240 241 242 243
4 244 245 246 247
4 248 249 250 251
4 252 253 254 255
4 256 257 258 259
4 260 261 262 263
4 264 265 266 267
4 268 269 270 271
4 272 273 274 275
4 276 277 278 279
4 280 281 282 283
4 284 285 286 287
4 288 289 290 291
4 292 293 294 295
4 296 297 298 299
4 300 301 302 303
4 304 305 306 307
4 308 309 310 311
4 312 313 314 315
4 316 317 318 319
4 320 321 322 323
4 324 325 326 327
4 328 329 330 331
4 332 333 334 335
4 336 337 338 339
4 340 341 342 343
4 344 345 346 347
4 348 349 350 351
4 352 353 354 355
4 356 357 358 359
5 360 361 362 363 364
4 365 366 367 368
4 369 370 371 372
4 373 374 375 376
4 377 378 379 380
4 381 382 383 384
4 385 386 387 388
4 389 390 391 392
4 393 394 395 396
4 397 398 399 400
4 401 402 403 404
4 405 406 407 408
4 409 410 411 412
4 413 414 415 416
4 417 418 419 420
4 421 422 423 424
4 425 426 427 428
4 429 430 431 432
4 433 434 435 436
4 437 438 439 440
4 441 442 443 444
4 445 446 447 448
4 449 450 451 452
4 453 454 455 456
4 457 458 459 460
4 461 462 463 464
4 465 466 467 468
4 469 470 471 472
4 473 474 475 476
4 477 478 479 480
4 481 482 483 484
4 485 486 487 488
4 489 490 491 492
4 493 494 495 496
4 497 498 499 500
4 501 502 503 504
4 505 506 507 508
4 509 510 511 512
4 513 514 515 516
4 517 518 519 520
4 521 522 523 524
4 525 526 527 528
4 529 530 531 532
4 533 534 535 536
4 537 538 539 540
4 541 542 543 544
4 545 546 547 548
4 549 550 551 552
4 553 554 555 556
4 557 558 559 560
4 561 562 563 564
4 565 566 567 568
4 569 570 571 572
4 573 574 575 576
4 577 578 579 580
5 581 582 583 584 585
4 586 587 588 589
4 590 591 592 593
4 594 595 596 597
4 598 599 600 601
4 602 603 604 605
4 606 607 608 609
4 610 611 612 613
4 614 615 616 617
4 618 619 620 621
4 622 623 624 625
4 626 627 628 629
4 630 631 632 633
4 634 635 636 637
4 638 639 640 641
4 642 643 644 645
4 646 647 648 649
4 650 651 652 653
4 654 655 656 657
4 658 659 660 661
4 662 663 664 665
5 666 667 668 669 670
4 671 672 673 674
4 675 676 677 678
4 679 680 681 682
4 683 684 685 686
4 687 688 689 690
4 691 692 693 694
4 695 696 697 698
4 699 700 701 702
4 703 704 705 706
4 707 708 709 710
4 711 712 713 714
4 715 716 717 718
4 719 720 721 722
4 723 724 725 726
5 727 728 729 730 731
4 732 733 734 735
4 736 737 738 739
4 740 741 742 743
4 744 745 746 747
4 748 749 750 751
4 752 753 754 755
4 756 757 758 759
4 760 761 762 763
4 764 765 766 767
