ply
format ascii 1.0
comment Created by Blender 2.82 (sub 7) - www.blender.org, source file: ''
element vertex 644
property float x
property float y
property float z
element face 169
property list uchar uint vertex_indices
end_header
5.180950 7.147200 0.204290
5.180950 7.147200 0.785540
4.606750 7.730200 0.785540
4.606750 7.730200 0.204290
-4.751750 7.730200 0.204290
-4.570150 7.834700 0.204290
-4.377450 7.919900 0.204290
-4.175950 7.984700 0.204290
-3.968050 8.028500 0.204290
-3.968050 8.028500 0.785540
-4.175950 7.984700 0.785540
-4.377450 7.919900 0.785540
-4.570150 7.834700 0.785540
-4.751750 7.730200 0.785540
3.056050 7.068900 6.123750
3.215550 7.345200 6.123750
3.491950 7.504800 6.123750
3.811050 7.504800 6.123750
3.959750 7.443200 6.123750
4.185350 7.217600 6.123750
4.246950 7.068900 6.123750
4.246950 6.749800 6.123750
4.185350 6.601100 6.123750
3.959750 6.375500 6.123750
3.811050 6.313900 6.123750
3.491950 6.313900 6.123750
3.215550 6.473500 6.123750
3.056050 6.749800 6.123750
7.297150 -9.599000 -6.813750
4.986250 -7.654600 6.123750
4.678050 -7.572000 6.123750
7.172150 -9.565500 -6.813750
-4.986250 -6.421700 6.123750
-5.294450 -6.504300 6.123750
-7.422050 -9.132500 -6.813750
-7.297050 -9.099000 -6.813750
-7.297050 -9.099000 -6.813750
-7.422050 -9.132500 -6.813750
-5.294450 -6.504300 6.123750
-4.986250 -6.421700 6.123750
-7.513550 -9.224000 -6.813750
-7.547050 -9.349000 -6.813750
-5.602650 -7.038100 6.123750
-5.520050 -6.729900 6.123750
8.092250 -9.129300 6.813750
8.092250 -9.129300 6.123750
5.728850 8.967000 6.123750
5.728850 8.967000 6.813750
-3.974450 11.061700 6.813750
-3.695150 11.132900 6.813750
-3.409450 11.172000 6.813750
-3.409450 11.172000 6.123750
-3.695150 11.132900 6.123750
-3.974450 11.061700 6.123750
-4.500150 10.827100 6.123750
-4.500150 10.827100 6.813750
4.185350 7.217600 6.123750
4.267950 6.909400 6.123750
6.212350 9.220200 -6.813750
6.178850 9.345200 -6.813750
-5.073050 7.468400 0.785540
-5.208950 7.314300 0.785540
-5.325950 7.147200 0.785540
-5.325950 7.147200 0.204290
-5.208950 7.314300 0.204290
-5.073050 7.468400 0.204290
-4.920050 7.607600 0.204290
-4.920050 7.607600 0.785540
7.361850 -9.107500 -6.813750
7.232450 -9.107500 -6.813750
4.826650 -6.442700 6.123750
5.145750 -6.442700 6.123750
-6.133650 -11.172000 6.123750
-6.902850 -11.014800 6.123750
-7.354150 -10.745800 6.123750
-7.967550 -9.904400 6.123750
-8.085650 -9.392500 6.123750
-5.474250 9.789700 6.123750
-4.959550 10.480200 6.123750
-5.294450 -6.504300 6.123750
-5.427950 -6.504300 6.123750
-5.427950 -7.254300 6.123750
-4.677950 -7.254300 6.123750
-4.395550 6.811400 6.123750
-4.374550 6.651800 6.123750
-4.215050 6.375500 6.123750
-4.087350 6.277500 6.123750
-3.779150 6.195000 6.123750
-3.470850 6.277500 6.123750
-3.245250 6.503200 6.123750
-3.183650 6.651800 6.123750
-3.183650 6.970900 6.123750
-3.343250 7.247300 6.123750
-3.619550 7.406800 6.123750
-3.938650 7.406800 6.123750
-4.215050 7.247300 6.123750
-4.374550 6.970900 6.123750
-4.500150 10.827100 6.123750
-3.974450 11.061700 6.123750
3.974550 11.061700 6.123750
4.500150 10.827100 6.123750
4.267950 6.909400 6.123750
4.185350 7.217600 6.123750
3.959750 7.443200 6.123750
3.811050 7.504800 6.123750
3.491950 7.504800 6.123750
3.215550 7.345200 6.123750
3.056050 7.068900 6.123750
3.056050 6.749800 6.123750
3.215550 6.473500 6.123750
3.491950 6.313900 6.123750
3.811050 6.313900 6.123750
3.959750 6.375500 6.123750
4.185350 6.601100 6.123750
6.902850 -11.014800 6.813750
6.133750 -11.172000 6.813750
6.133750 -11.172000 6.123750
6.902850 -11.014800 6.123750
-6.902850 -11.014800 6.813750
-7.354150 -10.745800 6.813750
-7.354150 -10.745800 6.123750
-6.902850 -11.014800 6.123750
3.651450 7.525800 6.123750
3.343250 7.443200 6.123750
5.837350 9.436700 -6.813750
5.962350 9.470200 -6.813750
3.117650 7.217600 6.123750
3.035050 6.909400 6.123750
5.712350 9.220200 -6.813750
5.745850 9.345200 -6.813750
-4.369750 -7.038100 6.123750
-4.452350 -7.346400 6.123750
-7.080550 -9.474000 -6.813750
-7.047050 -9.349000 -6.813750
6.087350 9.436700 -6.813750
5.962350 9.470200 -6.813750
3.651450 7.525800 6.123750
3.959750 7.443200 6.123750
5.520050 -6.729900 6.123750
5.602650 -7.038100 6.123750
7.547150 -9.349000 -6.813750
7.513650 -9.224000 -6.813750
5.329250 10.038900 6.123750
5.590150 9.525700 6.123750
5.675350 9.250300 6.123750
5.728850 8.967000 6.123750
5.728850 8.967000 6.813750
5.675350 9.250300 6.813750
5.590150 9.525700 6.813750
5.329250 10.038900 6.813750
5.156950 10.270100 6.813750
5.156950 10.270100 6.123750
-3.470850 6.277500 6.123750
-3.245250 6.503200 6.123750
-5.873450 8.997300 -6.813750
-5.964950 8.905800 -6.813750
5.422150 -6.602200 6.123750
5.145750 -6.442700 6.123750
7.361850 -9.107500 -6.813750
7.473850 -9.172200 -6.813750
-4.677950 -6.504300 6.123750
3.651450 6.292900 6.123750
3.959750 6.375500 6.123750
6.087350 9.003700 -6.813750
5.962350 8.970200 -6.813750
3.409550 11.172000 6.813750
3.974550 11.061700 6.813750
3.974550 11.061700 6.123750
3.409550 11.172000 6.123750
6.133750 -11.172000 6.813750
-6.133650 -11.172000 6.813750
-6.133650 -11.172000 6.123750
6.133750 -11.172000 6.123750
-6.932350 -8.322400 0.785540
-6.937950 -8.113200 0.785540
-6.937950 -8.113200 0.204290
-6.932350 -8.322400 0.204290
-6.896850 -8.529100 0.204290
-6.832150 -8.729500 0.204290
-6.739350 -8.919900 0.204290
-6.739350 -8.919900 0.785540
-6.832150 -8.729500 0.785540
-6.896850 -8.529100 0.785540
-6.214950 9.338800 -6.813750
-6.306450 9.247300 -6.813750
-4.312950 7.119600 6.123750
-4.087350 7.345200 6.123750
-5.474250 9.789700 6.813750
-5.675250 9.250300 6.813750
-5.728750 8.967000 6.813750
-5.728750 8.967000 6.123750
-5.675250 9.250300 6.123750
-5.474250 9.789700 6.123750
-5.329250 10.038900 6.123750
-5.156950 10.270100 6.123750
-5.156950 10.270100 6.813750
-5.329250 10.038900 6.813750
7.858150 -10.143900 6.123750
7.967550 -9.904400 6.123750
8.043850 -9.652400 6.123750
8.043850 -9.652400 6.813750
7.967550 -9.904400 6.813750
7.858150 -10.143900 6.813750
7.717750 -10.366600 6.813750
7.717750 -10.366600 6.123750
-6.476850 -9.257400 0.785540
-6.620250 -9.096900 0.785540
-6.620250 -9.096900 0.204290
-6.476850 -9.257400 0.204290
-6.311750 -9.398400 0.204290
-6.128050 -9.517500 0.204290
-6.128050 -9.517500 0.785540
-6.311750 -9.398400 0.785540
-5.602650 -7.038100 6.123750
-7.547050 -9.349000 -6.813750
-7.513550 -9.224000 -6.813750
-5.520050 -6.729900 6.123750
7.513650 -9.224000 -6.813750
5.520050 -6.729900 6.123750
4.606750 7.730200 0.785540
4.606750 7.730200 0.204290
3.823050 8.028500 0.204290
3.823050 8.028500 0.785540
-3.245250 7.119600 6.123750
-3.470850 7.345200 6.123750
-5.964950 9.338800 -6.813750
-5.873450 9.247300 -6.813750
6.787350 -8.322400 0.204290
6.792950 -8.113200 0.204290
6.792950 -8.113200 0.785540
6.787350 -8.322400 0.785540
6.751850 -8.529100 0.785540
6.687150 -8.729500 0.785540
6.594350 -8.919900 0.785540
6.594350 -8.919900 0.204290
6.687150 -8.729500 0.204290
6.751850 -8.529100 0.204290
6.594350 -8.919900 0.785540
6.594350 -8.919900 0.204290
6.475150 -9.096900 0.204290
6.331750 -9.257400 0.204290
5.982950 -9.517500 0.204290
5.982950 -9.517500 0.785540
6.331750 -9.257400 0.785540
6.475150 -9.096900 0.785540
4.678050 -7.572000 6.123750
4.986250 -7.654600 6.123750
7.297150 -9.599000 -6.813750
7.172150 -9.565500 -6.813750
-3.779150 7.427800 6.123750
-6.089950 9.372300 -6.813750
-4.677950 -7.572000 6.123750
-4.452350 -7.346400 6.123750
-7.080550 -9.474000 -6.813750
-7.172050 -9.565500 -6.813750
4.185350 6.601100 6.123750
6.178850 9.095200 -6.813750
5.520050 -7.346400 6.123750
7.513650 -9.474000 -6.813750
-3.245250 6.503200 6.123750
-5.873450 8.997300 -6.813750
-5.839950 9.122300 -6.813750
-3.162650 6.811400 6.123750
-5.873450 9.247300 -6.813750
-3.245250 7.119600 6.123750
-4.215050 6.375500 6.123750
-4.374550 6.651800 6.123750
-4.374550 6.970900 6.123750
-4.215050 7.247300 6.123750
-3.938650 7.406800 6.123750
-3.619550 7.406800 6.123750
-3.343250 7.247300 6.123750
-3.183650 6.970900 6.123750
-3.183650 6.651800 6.123750
-3.245250 6.503200 6.123750
-3.470850 6.277500 6.123750
-3.779150 6.195000 6.123750
-4.087350 6.277500 6.123750
-5.581650 6.390100 0.204290
-5.581650 6.390100 0.785540
-6.937950 -8.113200 0.785540
-6.937950 -8.113200 0.204290
-3.162650 6.811400 6.123750
-5.839950 9.122300 -6.813750
5.837350 9.436700 -6.813750
5.745850 9.345200 -6.813750
3.117650 7.217600 6.123750
3.343250 7.443200 6.123750
-5.156950 10.270100 6.813750
-5.156950 10.270100 6.123750
-5.728750 8.967000 6.123750
-5.728750 8.967000 6.813750
4.267950 6.909400 6.123750
6.212350 9.220200 -6.813750
-4.087350 6.277500 6.123750
-6.214950 8.905800 -6.813750
-6.306450 8.997300 -6.813750
-4.312950 6.503200 6.123750
-4.500150 10.827100 6.813750
-4.500150 10.827100 6.123750
3.409550 11.172000 6.123750
3.974550 11.061700 6.123750
3.974550 11.061700 6.813750
3.409550 11.172000 6.813750
-6.089950 9.372300 -6.813750
-3.779150 7.427800 6.123750
-5.551450 6.588200 0.785540
-5.581650 6.390100 0.785540
-5.581650 6.390100 0.204290
-5.551450 6.588200 0.204290
-5.498250 6.781900 0.204290
-5.498250 6.781900 0.785540
-5.520050 -7.346400 6.123750
-7.513550 -9.474000 -6.813750
-7.422050 -9.565500 -6.813750
-5.294450 -7.572000 6.123750
5.728850 8.967000 6.123750
5.156950 10.270100 6.123750
5.156950 10.270100 6.813750
5.728850 8.967000 6.813750
5.131350 -9.737400 0.785540
-5.276350 -9.737400 0.785540
-5.276350 -9.737400 0.204290
5.131350 -9.737400 0.204290
-4.395550 6.811400 6.123750
-6.339950 9.122300 -6.813750
-6.306450 9.247300 -6.813750
-4.312950 7.119600 6.123750
5.131350 -9.737400 0.204290
5.131350 -9.737400 0.785540
7.547150 -9.349000 -6.813750
7.513650 -9.474000 -6.813750
5.520050 -7.346400 6.123750
5.602650 -7.038100 6.123750
-5.964950 9.338800 -6.813750
-3.470850 7.345200 6.123750
6.792950 -8.113200 0.785540
6.792950 -8.113200 0.204290
5.436650 6.390100 0.204290
5.436650 6.390100 0.785540
5.422150 -6.602200 6.123750
7.473850 -9.172200 -6.813750
4.390850 -6.878600 6.123750
7.055650 -9.284300 -6.813750
7.055650 -9.413700 -6.813750
4.390850 -7.197700 6.123750
7.120350 -9.525800 -6.813750
4.550350 -7.474000 6.123750
-6.937950 -8.113200 0.204290
-6.937950 -8.113200 0.785540
-5.581650 6.390100 0.785540
-5.581650 6.390100 0.204290
-4.087350 7.345200 6.123750
-6.214950 9.338800 -6.813750
-6.339950 9.122300 -6.813750
-4.395550 6.811400 6.123750
-3.779150 6.195000 6.123750
-6.089950 8.872300 -6.813750
4.244050 10.959300 6.123750
4.739750 10.666700 6.123750
4.959650 10.480200 6.123750
4.959650 10.480200 6.813750
4.739750 10.666700 6.813750
4.244050 10.959300 6.813750
3.117650 6.601100 6.123750
5.745850 9.095200 -6.813750
5.354150 -9.723300 0.785540
-5.928950 -9.612400 0.785540
-6.620250 -9.096900 0.785540
-6.932350 -8.322400 0.785540
-5.325950 7.147200 0.785540
-4.751750 7.730200 0.785540
-3.968050 8.028500 0.785540
3.823050 8.028500 0.785540
4.606750 7.730200 0.785540
5.180950 7.147200 0.785540
6.787350 -8.322400 0.785540
6.687150 -8.729500 0.785540
6.166750 -9.398400 0.785540
-6.739350 -8.919900 0.204290
-6.739350 -8.919900 0.785540
-6.128050 -9.517500 0.785540
-6.128050 -9.517500 0.204290
-7.297050 -9.599000 -6.813750
-4.986250 -7.654600 6.123750
5.406450 6.588200 0.204290
5.436650 6.390100 0.204290
5.436650 6.390100 0.785540
5.406450 6.588200 0.785540
5.353250 6.781900 0.785540
5.353250 6.781900 0.204290
7.422150 -9.565500 -6.813750
5.294450 -7.572000 6.123750
-4.452350 -6.729900 6.123750
-7.080550 -9.224000 -6.813750
5.436650 6.390100 0.785540
5.436650 6.390100 0.204290
6.792950 -8.113200 0.204290
6.792950 -8.113200 0.785540
4.390850 -6.878600 6.123750
7.055650 -9.284300 -6.813750
7.120350 -9.172200 -6.813750
4.550350 -6.602200 6.123750
5.712350 9.220200 -6.813750
3.035050 6.909400 6.123750
-6.654250 -11.101600 6.813750
-6.654250 -11.101600 6.123750
-6.396350 -11.154400 6.123750
-6.133650 -11.172000 6.123750
-6.133650 -11.172000 6.813750
-6.396350 -11.154400 6.813750
-7.967550 -9.904400 6.123750
-7.967550 -9.904400 6.813750
-8.043750 -9.652400 6.813750
-8.085650 -9.392500 6.813750
-8.092250 -9.129300 6.813750
-8.092250 -9.129300 6.123750
-8.085650 -9.392500 6.123750
-8.043750 -9.652400 6.123750
4.678050 -6.504300 6.123750
4.678050 -7.254300 6.123750
5.428050 -7.254300 6.123750
6.087350 9.003700 -6.813750
6.178850 9.095200 -6.813750
4.185350 6.601100 6.123750
3.959750 6.375500 6.123750
5.745850 9.095200 -6.813750
3.117650 6.601100 6.123750
-3.470850 6.277500 6.123750
-5.964950 8.905800 -6.813750
4.244050 10.959300 6.813750
4.739750 10.666700 6.813750
4.959650 10.480200 6.813750
4.959650 10.480200 6.123750
4.739750 10.666700 6.123750
4.244050 10.959300 6.123750
8.092250 -9.129300 6.123750
8.092250 -9.129300 6.813750
-5.675250 9.250300 6.813750
-8.085650 -9.392500 6.813750
-7.967550 -9.904400 6.813750
-7.354150 -10.745800 6.813750
-6.396350 -11.154400 6.813750
6.396350 -11.154400 6.813750
7.354150 -10.745800 6.813750
7.717750 -10.366600 6.813750
8.043850 -9.652400 6.813750
5.590150 9.525700 6.813750
5.156950 10.270100 6.813750
3.974550 11.061700 6.813750
-3.974450 11.061700 6.813750
-5.156950 10.270100 6.813750
5.837350 9.003700 -6.813750
5.962350 8.970200 -6.813750
3.651450 6.292900 6.123750
3.343250 6.375500 6.123750
3.823050 8.028500 0.785540
3.823050 8.028500 0.204290
4.826650 -6.442700 6.123750
7.232450 -9.107500 -6.813750
-5.728750 8.967000 6.123750
-5.728750 8.967000 6.813750
-8.092250 -9.129300 6.813750
-8.092250 -9.129300 6.123750
-6.214950 8.905800 -6.813750
-4.087350 6.277500 6.123750
-4.312950 6.503200 6.123750
-6.306450 8.997300 -6.813750
-4.677950 -6.504300 6.123750
-7.172050 -9.132500 -6.813750
-6.089950 8.872300 -6.813750
-3.779150 6.195000 6.123750
-7.297050 -9.599000 -6.813750
-4.986250 -7.654600 6.123750
5.590150 9.525700 6.813750
8.043850 -9.652400 6.813750
7.717750 -10.366600 6.813750
7.354150 -10.745800 6.813750
6.396350 -11.154400 6.813750
-6.396350 -11.154400 6.813750
-7.354150 -10.745800 6.813750
-7.967550 -9.904400 6.813750
-8.085650 -9.392500 6.813750
-5.675250 9.250300 6.813750
-5.156950 10.270100 6.813750
-3.974450 11.061700 6.813750
3.974550 11.061700 6.813750
5.156950 10.270100 6.813750
5.728850 8.967000 6.813750
5.728850 8.967000 6.123750
8.092250 -9.129300 6.123750
8.092250 -9.129300 6.813750
-7.080550 -9.224000 -6.813750
-4.452350 -6.729900 6.123750
4.550350 -7.474000 6.123750
7.120350 -9.525800 -6.813750
-8.092250 -9.129300 6.123750
-8.092250 -9.129300 6.813750
-5.728750 8.967000 6.813750
-5.728750 8.967000 6.123750
-4.677950 -6.504300 6.123750
-4.677950 -7.254300 6.123750
-5.427950 -7.254300 6.123750
-5.427950 -6.504300 6.123750
-3.974450 11.061700 6.123750
-3.695150 11.132900 6.123750
-3.409450 11.172000 6.123750
-3.409450 11.172000 6.813750
-3.695150 11.132900 6.813750
-3.974450 11.061700 6.813750
5.294450 -7.572000 6.123750
7.422150 -9.565500 -6.813750
-5.928950 -9.612400 0.785540
5.354150 -9.723300 0.785540
6.166750 -9.398400 0.785540
6.687150 -8.729500 0.785540
6.787350 -8.322400 0.785540
5.180950 7.147200 0.785540
4.606750 7.730200 0.785540
3.823050 8.028500 0.785540
-3.968050 8.028500 0.785540
-4.751750 7.730200 0.785540
-5.325950 7.147200 0.785540
-6.932350 -8.322400 0.785540
-6.620250 -9.096900 0.785540
5.131350 -9.737400 0.785540
5.131350 -9.737400 0.204290
5.982950 -9.517500 0.204290
5.982950 -9.517500 0.785540
5.180950 7.147200 0.785540
5.180950 7.147200 0.204290
5.063850 7.314300 0.204290
4.928050 7.468400 0.204290
4.775050 7.607600 0.204290
4.775050 7.607600 0.785540
4.928050 7.468400 0.785540
5.063850 7.314300 0.785540
-5.581650 6.390100 0.204290
-5.581650 6.390100 0.785540
-5.325950 7.147200 0.785540
-5.325950 7.147200 0.204290
-5.294450 -7.572000 6.123750
-7.422050 -9.565500 -6.813750
-3.968050 8.028500 0.204290
-3.968050 8.028500 0.785540
3.823050 8.028500 0.785540
3.823050 8.028500 0.204290
-5.208950 7.314300 0.785540
-5.073050 7.468400 0.785540
-4.920050 7.607600 0.785540
-4.751750 7.730200 0.785540
-4.751750 7.730200 0.204290
-4.920050 7.607600 0.204290
-5.073050 7.468400 0.204290
-5.208950 7.314300 0.204290
4.550350 -6.602200 6.123750
7.120350 -9.172200 -6.813750
-7.047050 -9.349000 -6.813750
-4.369750 -7.038100 6.123750
-5.718050 -9.681400 0.204290
-5.928950 -9.612400 0.204290
-5.928950 -9.612400 0.785540
-5.718050 -9.681400 0.785540
-5.499150 -9.723300 0.785540
-5.276350 -9.737400 0.785540
-5.276350 -9.737400 0.204290
-5.499150 -9.723300 0.204290
5.131350 -9.737400 0.204290
-5.276350 -9.737400 0.204290
-5.276350 -9.737400 0.785540
5.131350 -9.737400 0.785540
-5.718050 -9.681400 0.785540
-5.928950 -9.612400 0.785540
-5.928950 -9.612400 0.204290
-5.718050 -9.681400 0.204290
-5.499150 -9.723300 0.204290
-5.276350 -9.737400 0.204290
-5.276350 -9.737400 0.785540
-5.499150 -9.723300 0.785540
6.792950 -8.113200 0.785540
6.792950 -8.113200 0.204290
3.959750 7.443200 6.123750
6.087350 9.436700 -6.813750
6.178850 9.345200 -6.813750
4.185350 7.217600 6.123750
3.343250 6.375500 6.123750
5.837350 9.003700 -6.813750
7.055650 -9.413700 -6.813750
4.390850 -7.197700 6.123750
8.043850 -9.652400 6.123750
7.717750 -10.366600 6.123750
6.902850 -11.014800 6.123750
5.428050 -6.504300 6.123750
5.156950 10.270100 6.123750
5.590150 9.525700 6.123750
-5.520050 -7.346400 6.123750
-7.513550 -9.474000 -6.813750
-4.570150 7.834700 0.785540
-4.377450 7.919900 0.785540
-4.175950 7.984700 0.785540
-3.968050 8.028500 0.785540
-3.968050 8.028500 0.204290
-4.175950 7.984700 0.204290
-4.377450 7.919900 0.204290
-4.570150 7.834700 0.204290
-7.172050 -9.132500 -6.813750
-4.677950 -6.504300 6.123750
5.428050 -6.504300 6.123750
5.428050 -7.254300 6.123750
4.678050 -7.254300 6.123750
4.678050 -6.504300 6.123750
-7.172050 -9.565500 -6.813750
-4.677950 -7.572000 6.123750
3.823050 8.028500 0.204290
3.823050 8.028500 0.785540
-3.968050 8.028500 0.785540
-3.968050 8.028500 0.204290
6.475150 -9.096900 0.204290
6.475150 -9.096900 0.785540
6.331750 -9.257400 0.785540
6.166750 -9.398400 0.785540
6.166750 -9.398400 0.204290
6.331750 -9.257400 0.204290
-6.937950 -8.113200 0.204290
-6.937950 -8.113200 0.785540
5.436650 6.390100 0.785540
5.436650 6.390100 0.204290
-3.409450 11.172000 6.813750
3.409550 11.172000 6.813750
3.409550 11.172000 6.123750
-3.409450 11.172000 6.123750
-6.620250 -9.096900 0.204290
-6.932350 -8.322400 0.204290
-5.325950 7.147200 0.204290
-4.751750 7.730200 0.204290
-3.968050 8.028500 0.204290
3.823050 8.028500 0.204290
4.606750 7.730200 0.204290
5.180950 7.147200 0.204290
6.787350 -8.322400 0.204290
6.687150 -8.729500 0.204290
6.166750 -9.398400 0.204290
5.354150 -9.723300 0.204290
-5.928950 -9.612400 0.204290
4 0 1 2 3
10 4 5 6 7 8 9 10 11 12 13
14 14 15 16 17 18 19 20 21 22 23 24 25 26 27
4 28 29 30 31
4 32 33 34 35
4 36 37 38 39
4 40 41 42 43
4 44 45 46 47
8 48 49 50 51 52 53 54 55
4 56 57 58 59
10 60 61 62 63 64 65 66 4 13 67
4 68 69 70 71
42 72 73 74 75 76 77 78 79 80 81 82 83 84 85 86 87 88 89 90 91 92 93 94 95 96 97 98 99 100 101 102 103 104 105 106 107 108 109 110 111 112 113
4 114 115 116 117
4 118 119 120 121
4 122 123 124 125
4 126 127 128 129
4 130 131 132 133
4 134 135 136 137
4 138 139 140 141
10 142 143 144 145 146 147 148 149 150 151
4 152 153 154 155
4 156 157 158 159
7 83 82 160 79 78 97 96
4 161 162 163 164
4 165 166 167 168
4 169 170 171 172
10 173 174 175 176 177 178 179 180 181 182
4 183 184 185 186
10 187 188 189 190 191 192 193 194 195 196
8 197 198 199 200 201 202 203 204
10 205 206 180 179 207 208 209 210 211 212
4 213 214 215 216
4 159 217 218 156
4 219 220 221 222
4 223 224 225 226
10 227 228 229 230 231 232 233 234 235 236
8 237 238 239 240 241 242 243 244
4 245 246 247 248
4 134 137 56 59
4 224 249 250 225
4 251 252 253 254
4 162 255 256 163
4 139 257 258 140
4 259 260 261 262
4 262 261 263 264
13 265 266 267 268 269 270 271 272 273 274 275 276 277
4 278 279 280 281
4 154 153 282 283
4 284 285 286 287
4 288 289 290 291
4 256 255 292 293
4 294 295 296 297
4 298 195 194 299
4 300 301 302 303
4 304 183 186 305
8 306 307 308 309 310 63 62 311
4 312 313 314 315
4 316 317 318 319
4 320 321 322 323
4 324 325 326 327
4 328 329 242 241
4 330 331 332 333
4 334 304 305 335
4 336 337 338 339
4 340 138 141 341
4 342 343 344 345
4 346 347 345 344
4 348 349 350 351
4 249 352 353 250
4 354 355 185 184
4 217 330 333 218
4 352 327 326 353
4 294 356 357 295
4 283 282 223 226
10 358 359 360 151 150 361 362 363 302 301
4 356 152 155 357
4 127 364 365 128
13 366 367 368 369 370 371 372 373 374 375 376 377 378
4 379 380 381 382
4 314 383 384 315
8 385 386 387 388 389 1 0 390
4 331 391 392 332
4 393 130 133 394
4 246 392 391 247
4 37 40 43 38
4 395 396 397 398
4 216 215 34 33
4 399 400 401 402
4 123 126 129 124
4 285 403 404 286
8 405 118 121 406 407 408 409 410
8 411 412 413 414 415 416 417 418
7 101 100 419 420 421 72 113
4 135 284 287 136
4 422 423 424 425
4 403 426 427 404
4 260 259 428 429
10 430 431 432 318 317 433 434 435 167 166
4 436 437 200 199
14 438 439 440 441 442 443 444 445 446 447 448 449 450 451
4 452 453 454 455
4 426 452 455 427
4 3 2 456 457
4 157 458 459 158
4 453 422 425 454
4 460 461 462 463
4 464 465 466 467
4 458 402 401 459
4 468 32 35 469
4 470 429 428 471
4 251 254 472 473
4 464 470 471 465
14 474 475 476 477 478 479 480 481 482 483 484 485 486 487
4 203 114 117 204
4 488 489 490 491
4 492 493 468 469
4 494 245 248 495
4 496 497 498 499
4 500 501 502 503
8 504 505 506 507 508 509 298 299
4 341 68 71 340
4 257 510 511 258
13 512 513 514 515 516 517 518 519 520 521 522 523 524
4 525 526 527 528
10 529 530 531 532 533 220 219 534 535 536
4 537 538 539 540
4 541 473 472 542
4 543 544 545 546
10 547 548 549 550 551 552 553 554 540 539
4 343 342 555 556
4 492 557 558 493
4 28 511 510 29
4 289 288 55 54
10 559 560 382 381 561 562 563 564 565 566
4 567 568 569 570
10 571 572 211 210 573 574 575 576 577 578
4 467 466 355 354
4 579 580 238 237
4 581 582 583 584
4 364 585 586 365
4 69 556 555 70
4 346 31 30 347
4 585 161 164 586
4 587 400 399 588
10 589 590 591 72 421 592 419 100 593 594
4 119 412 411 120
4 595 596 214 213
10 550 597 598 599 600 601 602 603 604 551
4 393 394 605 606
4 607 608 609 610
4 383 611 612 384
4 542 596 595 541
4 613 614 615 616
4 605 36 39 606
10 617 234 233 618 619 620 528 527 621 622
4 623 624 380 379
4 297 296 325 324
4 313 312 42 41
4 625 626 530 529
4 627 628 629 630
4 557 253 252 558
4 581 122 125 582
4 494 495 587 588
4 263 334 335 264
4 293 292 584 583
13 631 632 633 634 635 636 637 638 639 640 641 642 643
4 57 424 423 58
4 611 132 131 612
