ply
format ascii 1.0
comment Created by Blender 2.82 (sub 7) - www.blender.org, source file: ''
element vertex 396
property float x
property float y
property float z
element face 104
property list uchar uint vertex_indices
end_header
-10.529000 78.063248 -13.996050
-10.557300 78.939148 -13.996050
-10.557300 78.939148 12.972460
-10.529000 78.063248 12.972460
-13.386100 2.372650 -13.996050
-13.105900 2.030650 -13.996050
-13.105900 2.030650 12.972460
-13.386100 2.372650 12.972460
-12.976300 76.955849 -13.996050
-12.122900 76.756447 -13.996050
-12.122900 76.756447 12.972460
-12.976300 76.955849 12.972460
-12.333200 1.617650 -13.996050
-12.333200 1.617650 12.972460
-9.881600 -78.941353 -14.031150
-10.344000 -78.197350 -14.031150
-10.344000 -78.197350 12.937330
-9.881600 -78.941353 12.937330
12.851300 -76.351349 12.933090
12.851300 -76.351349 -14.035450
11.975500 -76.379349 -14.035450
11.975500 -76.379349 12.933090
-13.183100 4.423650 -13.996050
-13.440700 4.064650 -13.996050
-13.440700 4.064650 12.972460
-13.183100 4.423650 12.972460
11.159900 78.344551 12.972460
11.159900 78.344551 -13.996050
12.013200 78.145149 -13.996050
12.013200 78.145149 12.972460
12.851900 78.399147 12.972460
12.851900 78.399147 -13.996050
13.451200 79.038452 -13.996050
13.451200 79.038452 12.972460
-13.640100 3.211650 -13.996050
-13.640100 3.211650 12.972460
-11.893500 1.573650 12.972460
-11.893500 1.573650 -13.996050
-11.054800 1.827650 -13.996050
-11.054800 1.827650 12.972460
11.065300 81.275253 -13.996050
11.065300 81.275253 12.972460
11.467900 81.457451 12.972460
11.467900 81.457451 -13.996050
-9.853400 -79.817352 -14.031150
-9.853400 -79.817352 12.937330
-10.266800 -80.590347 12.937330
-10.266800 -80.590347 -14.031150
-19.360399 91.535347 12.854350
-19.360399 91.535347 14.035450
18.434799 91.535347 14.035450
18.434799 91.535347 12.854350
12.520700 -79.692352 -14.035450
13.359400 -79.438347 -14.035450
13.359400 -79.438347 12.933090
12.520700 -79.692352 12.933090
-19.360399 -91.535347 14.035450
-19.360399 -91.535347 12.854350
18.434799 -91.535347 12.854350
18.434799 -91.535347 14.035450
12.851900 78.399147 12.972460
13.451200 79.038452 12.972460
13.607100 79.451950 12.972460
13.578900 80.327850 12.972460
13.116500 81.072250 12.972460
12.343800 81.485748 12.972460
11.467900 81.457451 12.972460
11.065300 81.275253 12.972460
10.466000 80.635948 12.972460
10.310100 80.222450 12.972460
10.338300 79.346550 12.972460
10.800700 78.602150 12.972460
11.159900 78.344551 12.972460
12.013200 78.145149 12.972460
10.338300 79.346550 -13.996050
10.800700 78.602150 -13.996050
10.800700 78.602150 12.972460
10.338300 79.346550 12.972460
11.147500 0.908650 -13.956650
11.427700 0.566650 -13.956650
11.427700 0.566650 13.011830
11.147500 0.908650 13.011830
-12.668200 80.068748 12.972460
-12.668200 80.068748 -13.996050
-13.412600 79.606354 -13.996050
-13.412600 79.606354 12.972460
14.086400 -77.509354 -14.035450
13.904200 -77.106354 -14.035450
13.904200 -77.106354 12.933090
14.086400 -77.509354 12.933090
13.701100 -79.158348 -14.035450
13.701100 -79.158348 12.933090
-11.284200 77.010452 -13.996050
-11.284200 77.010452 12.972460
-12.994500 -78.633347 -14.031150
-13.193900 -79.486351 -14.031150
-13.193900 -79.486351 12.937330
-12.994500 -78.633347 12.937330
-12.395200 -77.994347 12.937330
-12.395200 -77.994347 -14.031150
-19.360399 91.535347 12.854350
18.434799 91.535347 12.854350
18.434799 -91.535347 12.854350
-19.360399 -91.535347 12.854350
11.231100 -76.842346 -14.035450
11.975500 -76.379349 -14.035450
12.851300 -76.351349 -14.035450
13.264900 -76.507347 -14.035450
13.904200 -77.106354 -14.035450
14.086400 -77.509354 -14.035450
14.114600 -78.385353 -14.035450
13.701100 -79.158348 -14.035450
13.359400 -79.438347 -14.035450
12.520700 -79.692352 -14.035450
12.080900 -79.648354 -14.035450
11.308200 -79.235352 -14.035450
11.028100 -78.893349 -14.035450
10.774100 -78.054352 -14.035450
10.817600 -77.614349 -14.035450
12.094900 3.422650 -13.956650
12.094900 3.422650 13.011830
12.970800 3.450650 13.011830
12.970800 3.450650 -13.956650
10.774100 -78.054352 -14.035450
11.028100 -78.893349 -14.035450
11.028100 -78.893349 12.933090
10.774100 -78.054352 12.933090
-11.556500 -77.740349 12.937330
-11.556500 -77.740349 -14.031150
10.893500 1.747650 -13.956650
10.893500 1.747650 13.011830
14.114600 -78.385353 12.933090
14.086400 -77.509354 12.933090
13.904200 -77.106354 12.933090
13.264900 -76.507347 12.933090
12.851300 -76.351349 12.933090
11.975500 -76.379349 12.933090
11.231100 -76.842346 12.933090
10.817600 -77.614349 12.933090
10.774100 -78.054352 12.933090
11.028100 -78.893349 12.933090
11.308200 -79.235352 12.933090
12.080900 -79.648354 12.933090
12.520700 -79.692352 12.933090
13.359400 -79.438347 12.933090
13.701100 -79.158348 12.933090
13.607100 79.451950 -13.996050
13.607100 79.451950 12.972460
-10.684900 77.649750 -13.996050
-10.684900 77.649750 12.972460
14.023600 2.695650 -13.956650
13.384300 3.294650 -13.956650
13.384300 3.294650 13.011830
14.023600 2.695650 13.011830
14.114600 -78.385353 -14.035450
14.114600 -78.385353 12.933090
-10.713000 2.107650 -13.996050
-10.299500 2.880650 -13.996050
-10.299500 2.880650 12.972460
-10.713000 2.107650 12.972460
-11.019700 79.683548 -13.996050
-11.019700 79.683548 12.972460
-10.608600 -80.870354 -14.031150
-10.608600 -80.870354 12.937330
-11.447300 -81.124352 12.937330
-11.447300 -81.124352 -14.031150
-19.360399 91.535347 14.035450
-19.360399 -91.535347 14.035450
18.434799 -91.535347 14.035450
18.434799 91.535347 14.035450
13.264900 -76.507347 -14.035450
13.264900 -76.507347 12.933090
11.350500 2.959650 -13.956650
10.937000 2.187650 -13.956650
10.937000 2.187650 13.011830
11.350500 2.959650 13.011830
-12.659700 -80.667351 12.937330
-12.659700 -80.667351 -14.031150
-11.887100 -81.080353 -14.031150
-11.887100 -81.080353 12.937330
12.080900 -79.648354 12.933090
12.080900 -79.648354 -14.035450
11.231100 -76.842346 -14.035450
10.817600 -77.614349 -14.035450
10.817600 -77.614349 12.933090
11.231100 -76.842346 12.933090
12.640100 0.109650 13.011830
12.640100 0.109650 -13.956650
13.478800 0.363650 -13.956650
13.478800 0.363650 13.011830
12.200300 0.153650 13.011830
12.200300 0.153650 -13.956650
11.427700 0.566650 -13.956650
11.147500 0.908650 -13.956650
10.893500 1.747650 -13.956650
10.937000 2.187650 -13.956650
11.350500 2.959650 -13.956650
12.094900 3.422650 -13.956650
12.970800 3.450650 -13.956650
13.384300 3.294650 -13.956650
14.023600 2.695650 -13.956650
14.277600 1.856650 -13.956650
14.234100 1.416650 -13.956650
13.820600 0.643650 -13.956650
13.478800 0.363650 -13.956650
12.640100 0.109650 -13.956650
12.200300 0.153650 -13.956650
10.466000 80.635948 -13.996050
10.466000 80.635948 12.972460
-12.939900 -80.325348 -14.031150
-12.939900 -80.325348 12.937330
-11.562800 4.914650 -13.996050
-11.149300 4.758650 -13.996050
-10.510000 4.159650 -13.996050
-10.256000 3.320650 -13.996050
-10.299500 2.880650 -13.996050
-10.713000 2.107650 -13.996050
-11.054800 1.827650 -13.996050
-11.893500 1.573650 -13.996050
-12.333200 1.617650 -13.996050
-13.105900 2.030650 -13.996050
-13.386100 2.372650 -13.996050
-13.640100 3.211650 -13.996050
-13.440700 4.064650 -13.996050
-13.183100 4.423650 -13.996050
-12.438700 4.886650 -13.996050
-13.640100 3.211650 12.972460
-13.386100 2.372650 12.972460
-13.105900 2.030650 12.972460
-12.333200 1.617650 12.972460
-11.893500 1.573650 12.972460
-11.054800 1.827650 12.972460
-10.713000 2.107650 12.972460
-10.299500 2.880650 12.972460
-10.256000 3.320650 12.972460
-10.510000 4.159650 12.972460
-11.149300 4.758650 12.972460
-11.562800 4.914650 12.972460
-12.438700 4.886650 12.972460
-13.183100 4.423650 12.972460
-13.440700 4.064650 12.972460
-11.887100 -81.080353 -14.031150
-12.659700 -80.667351 -14.031150
-12.939900 -80.325348 -14.031150
-13.193900 -79.486351 -14.031150
-12.994500 -78.633347 -14.031150
-12.395200 -77.994347 -14.031150
-11.556500 -77.740349 -14.031150
-11.116700 -77.783348 -14.031150
-10.344000 -78.197350 -14.031150
-9.881600 -78.941353 -14.031150
-9.853400 -79.817352 -14.031150
-10.266800 -80.590347 -14.031150
-10.608600 -80.870354 -14.031150
-11.447300 -81.124352 -14.031150
-11.562800 4.914650 -13.996050
-11.562800 4.914650 12.972460
-11.149300 4.758650 12.972460
-11.149300 4.758650 -13.996050
26.574800 -0.000350 12.854350
26.348101 15.333650 12.854350
25.668200 30.654449 12.854350
24.535801 45.948250 12.854350
22.951700 61.201851 12.854350
20.917500 76.401947 12.854350
18.434799 91.535347 12.854350
18.434799 91.535347 14.035450
20.917500 76.401947 14.035450
22.951700 61.201851 14.035450
24.535801 45.948250 14.035450
25.668200 30.654449 14.035450
26.348101 15.333650 14.035450
26.574800 -0.000350 14.035450
26.348101 -15.334350 14.035450
24.535801 -45.948349 14.035450
22.951700 -61.202351 14.035450
20.917500 -76.402351 14.035450
18.434799 -91.535347 14.035450
18.434799 -91.535347 12.854350
20.917500 -76.402351 12.854350
22.951700 -61.202351 12.854350
24.535801 -45.948349 12.854350
26.348101 -15.334350 12.854350
-11.792300 80.096947 -13.996050
-11.792300 80.096947 12.972460
14.277600 1.856650 -13.956650
14.277600 1.856650 13.011830
13.820600 0.643650 -13.956650
14.234100 1.416650 -13.956650
14.234100 1.416650 13.011830
13.820600 0.643650 13.011830
-11.116700 -77.783348 12.937330
-11.116700 -77.783348 -14.031150
-26.574800 -0.000350 12.854350
-25.771799 -30.624350 12.854350
-23.364799 -61.164349 12.854350
-19.360399 -91.535347 12.854350
-19.360399 -91.535347 14.035450
-23.364799 -61.164349 14.035450
-25.771799 -30.624350 14.035450
-26.574800 -0.000350 14.035450
-24.768499 45.909550 14.035450
-19.360399 91.535347 14.035450
-19.360399 91.535347 12.854350
-24.768499 45.909550 12.854350
-13.826000 78.833649 -13.996050
-13.826000 78.833649 12.972460
-10.256000 3.320650 -13.996050
-10.256000 3.320650 12.972460
10.310100 80.222450 -13.996050
10.310100 80.222450 12.972460
13.578900 80.327850 -13.996050
13.578900 80.327850 12.972460
13.578900 80.327850 -13.996050
13.607100 79.451950 -13.996050
13.451200 79.038452 -13.996050
12.851900 78.399147 -13.996050
12.013200 78.145149 -13.996050
11.159900 78.344551 -13.996050
10.800700 78.602150 -13.996050
10.338300 79.346550 -13.996050
10.310100 80.222450 -13.996050
10.466000 80.635948 -13.996050
11.065300 81.275253 -13.996050
11.467900 81.457451 -13.996050
12.343800 81.485748 -13.996050
13.116500 81.072250 -13.996050
-13.797800 77.957848 -13.996050
-13.797800 77.957848 12.972460
-9.853400 -79.817352 12.937330
-9.881600 -78.941353 12.937330
-10.344000 -78.197350 12.937330
-11.116700 -77.783348 12.937330
-11.556500 -77.740349 12.937330
-12.395200 -77.994347 12.937330
-12.994500 -78.633347 12.937330
-13.193900 -79.486351 12.937330
-12.939900 -80.325348 12.937330
-12.659700 -80.667351 12.937330
-11.887100 -81.080353 12.937330
-11.447300 -81.124352 12.937330
-10.608600 -80.870354 12.937330
-10.266800 -80.590347 12.937330
-12.976300 76.955849 12.972460
-12.122900 76.756447 12.972460
-11.284200 77.010452 12.972460
-10.684900 77.649750 12.972460
-10.529000 78.063248 12.972460
-10.557300 78.939148 12.972460
-11.019700 79.683548 12.972460
-11.792300 80.096947 12.972460
-12.668200 80.068748 12.972460
-13.412600 79.606354 12.972460
-13.826000 78.833649 12.972460
-13.797800 77.957848 12.972460
-13.615600 77.555153 12.972460
-13.615600 77.555153 -13.996050
-13.615600 77.555153 12.972460
13.384300 3.294650 13.011830
12.970800 3.450650 13.011830
12.094900 3.422650 13.011830
11.350500 2.959650 13.011830
10.937000 2.187650 13.011830
10.893500 1.747650 13.011830
11.147500 0.908650 13.011830
11.427700 0.566650 13.011830
12.200300 0.153650 13.011830
12.640100 0.109650 13.011830
13.478800 0.363650 13.011830
13.820600 0.643650 13.011830
14.234100 1.416650 13.011830
14.277600 1.856650 13.011830
14.023600 2.695650 13.011830
-13.615600 77.555153 -13.996050
-13.797800 77.957848 -13.996050
-13.826000 78.833649 -13.996050
-13.412600 79.606354 -13.996050
-12.668200 80.068748 -13.996050
-11.792300 80.096947 -13.996050
-11.019700 79.683548 -13.996050
-10.557300 78.939148 -13.996050
-10.529000 78.063248 -13.996050
-10.684900 77.649750 -13.996050
-11.284200 77.010452 -13.996050
-12.122900 76.756447 -13.996050
-12.976300 76.955849 -13.996050
12.343800 81.485748 12.972460
12.343800 81.485748 -13.996050
11.308200 -79.235352 -14.035450
11.308200 -79.235352 12.933090
13.116500 81.072250 -13.996050
13.116500 81.072250 12.972460
-10.510000 4.159650 -13.996050
-10.510000 4.159650 12.972460
-12.438700 4.886650 12.972460
-12.438700 4.886650 -13.996050
4 0 1 2 3
4 4 5 6 7
4 8 9 10 11
4 6 5 12 13
4 14 15 16 17
4 18 19 20 21
4 22 23 24 25
4 26 27 28 29
4 30 31 32 33
4 23 34 35 24
4 36 37 38 39
4 40 41 42 43
4 44 45 46 47
4 48 49 50 51
4 13 12 37 36
4 52 53 54 55
4 56 57 58 59
14 60 61 62 63 64 65 66 67 68 69 70 71 72 73
4 74 75 76 77
4 78 79 80 81
4 28 31 30 29
4 82 83 84 85
4 86 87 88 89
4 54 53 90 91
4 14 17 45 44
4 9 92 93 10
4 94 95 96 97
4 97 98 99 94
4 100 101 102 103
15 104 105 106 107 108 109 110 111 112 113 114 115 116 117 118
4 119 120 121 122
4 123 124 125 126
4 98 127 128 99
4 129 78 81 130
15 131 132 133 134 135 136 137 138 139 140 141 142 143 144 145
4 32 146 147 33
4 93 92 148 149
4 150 151 152 153
4 154 86 89 155
4 156 157 158 159
4 1 160 161 2
4 148 0 3 149
4 162 163 164 165
4 166 167 168 169
4 87 170 171 88
4 172 173 174 175
4 173 129 130 174
4 176 177 178 179
4 180 181 52 55
4 182 183 184 185
4 186 187 188 189
4 190 191 187 186
15 192 193 194 195 196 197 198 199 200 201 202 203 204 205 206
4 41 40 207 208
4 209 177 176 210
15 211 212 213 214 215 216 217 218 219 220 221 222 223 224 225
15 226 227 228 229 230 231 232 233 234 235 236 237 238 239 240
4 163 162 47 46
4 39 38 156 159
14 241 242 243 244 245 246 247 248 249 250 251 252 253 254
4 21 20 182 185
4 255 256 257 258
24 259 260 261 262 263 264 265 266 267 268 269 270 271 272 273 274 275 276 277 278 279 280 281 282
4 79 191 190 80
4 179 178 165 164
4 95 209 210 96
4 90 154 155 91
4 161 160 283 284
4 285 150 153 286
4 287 288 289 290
4 82 284 283 83
4 128 127 291 292
12 293 294 295 296 297 298 299 300 301 302 303 304
4 84 305 306 85
4 157 307 308 158
4 207 309 310 208
4 309 74 77 310
4 291 16 15 292
4 76 75 27 26
4 146 311 312 147
14 313 314 315 316 317 318 319 320 321 322 323 324 325 326
4 19 18 171 170
4 305 327 328 306
14 329 330 331 332 333 334 335 336 337 338 339 340 341 342
4 172 175 120 119
13 343 344 345 346 347 348 349 350 351 352 353 354 355
4 356 8 11 357
15 358 359 360 361 362 363 364 365 366 367 368 369 370 371 372
13 373 374 375 376 377 378 379 380 381 382 383 384 385
4 386 387 43 42
4 189 188 287 290
4 388 181 180 389
4 288 285 286 289
4 311 390 391 312
4 183 123 126 184
4 307 392 393 308
4 34 4 7 35
4 392 258 257 393
4 391 390 387 386
4 122 121 152 151
4 124 388 389 125
4 22 25 394 395
4 395 394 256 255
4 327 356 357 328
