ply
format ascii 1.0
comment Created by Blender 2.82 (sub 7) - www.blender.org, source file: ''
element vertex 243
property float x
property float y
property float z
element face 63
property list uchar uint vertex_indices
end_header
9.194300 26.137911 14.325000
-9.194300 26.137911 14.325000
-9.194300 -26.137890 14.325000
9.194300 -26.137890 14.325000
-9.570000 26.637350 -13.385958
-9.570000 27.576389 -13.385958
9.570000 27.576389 -13.385958
9.570000 26.637350 -13.385958
9.570000 -26.637289 -13.385958
10.530000 26.637350 -13.385958
10.530000 -26.637289 -13.385958
9.570000 26.637350 1.363100
9.570000 -26.637289 1.363100
10.530000 -26.637289 1.363100
10.530000 26.637350 1.363100
9.570000 26.637350 13.115000
9.570000 -26.637289 13.115000
9.570000 27.576389 13.115000
-9.570000 27.576389 13.115000
-9.570000 -27.576389 13.115000
-9.570000 -26.637289 13.115000
-9.570000 26.637350 13.115000
-9.570000 27.576389 -12.388880
-9.570000 26.637350 -12.388880
9.570000 26.637350 -12.388880
9.570000 27.576389 -12.388880
-9.570000 -26.637289 -14.325000
-10.530000 -26.637289 -14.325000
-10.530000 -26.637289 13.115000
-9.570000 -26.637289 13.115000
9.570000 -27.576389 -14.325000
9.570000 -27.576389 -13.356941
9.570000 -26.637289 -13.385958
9.570000 -26.637289 -14.325000
-10.530000 26.637350 -14.325000
-10.530000 26.637350 13.115000
-10.530000 27.576389 13.115000
-10.530000 27.576389 -14.325000
-9.194300 -26.137890 13.115000
-9.194300 26.137911 13.115000
9.194300 26.137911 13.115000
9.194300 -26.137890 13.115000
9.570000 26.637350 -12.388880
10.530000 26.637350 -12.388880
10.530000 26.637350 13.115000
9.570000 26.637350 13.115000
9.570000 26.637350 -12.388880
-9.570000 26.637350 -12.388880
-9.570000 26.637350 -13.385958
9.570000 26.637350 -13.385958
-9.570000 27.576389 -12.388880
9.570000 27.576389 -12.388880
9.570000 27.576389 13.115000
10.530000 27.576389 13.115000
10.530000 27.576389 -14.325000
9.570000 27.576389 -14.325000
9.570000 27.576389 -13.385958
-9.570000 27.576389 -13.385958
-10.530000 27.576389 14.325000
10.530000 27.576389 14.325000
10.530000 27.576389 13.115000
-10.530000 27.576389 13.115000
-9.194300 -26.137890 14.325000
-9.194300 -26.137890 13.115000
-9.194300 26.137911 13.115000
-9.194300 26.137911 14.325000
-9.570000 26.637350 -14.325000
-9.570000 26.637350 13.115000
-10.530000 26.637350 13.115000
-10.530000 26.637350 -14.325000
9.570000 26.637350 1.363100
10.530000 26.637350 1.363100
10.530000 26.637350 0.363100
9.570000 26.637350 0.363100
9.570000 -27.576389 -12.388880
9.570000 -27.576389 13.115000
9.570000 -26.637289 13.115000
9.570000 -26.637289 1.363100
9.570000 26.637350 1.363100
9.570000 26.637350 0.363100
9.570000 -26.637289 0.363100
9.570000 -26.637289 -12.388880
10.530000 -27.576389 13.115000
10.530000 -27.576389 14.325000
-10.530000 -27.576389 14.325000
-10.530000 -27.576389 13.115000
9.570000 -27.576389 -13.356941
-9.570000 -27.576389 -13.356941
-9.570000 -26.637289 -13.385958
9.570000 -26.637289 -13.385958
9.570000 -26.637289 0.363100
10.530000 -26.637289 0.363100
10.530000 -26.637289 -14.325000
9.570000 -26.637289 -14.325000
-9.570000 -27.576389 -14.325000
-9.570000 -27.576389 13.115000
-10.530000 -27.576389 13.115000
-10.530000 -27.576389 -14.325000
9.570000 26.637350 -14.325000
9.570000 27.576389 -14.325000
10.530000 27.576389 -14.325000
10.530000 26.637350 -14.325000
9.570000 26.637350 -14.325000
9.570000 26.637350 -13.385958
9.570000 27.576389 -13.385958
9.570000 27.576389 -14.325000
10.530000 -27.576389 14.325000
10.530000 -27.576389 13.115000
10.530000 27.576389 13.115000
10.530000 27.576389 14.325000
9.570000 -27.576389 -13.356941
9.570000 -27.576389 -14.325000
10.530000 -27.576389 -14.325000
10.530000 -27.576389 13.115000
9.570000 -27.576389 13.115000
9.570000 -27.576389 -12.388880
-9.570000 -27.576389 -12.388880
-9.570000 -27.576389 -13.356941
-9.570000 26.637350 13.115000
-9.570000 26.637350 -14.325000
-9.570000 27.576389 -14.325000
-9.570000 27.576389 13.115000
-9.570000 -26.637289 -14.325000
-9.570000 -26.637289 13.115000
-9.570000 -27.576389 13.115000
-9.570000 -27.576389 -14.325000
9.570000 26.637350 -12.388880
9.570000 26.637350 13.115000
9.570000 27.576389 13.115000
9.570000 27.576389 -12.388880
-9.570000 -27.576389 -13.356941
-9.570000 -27.576389 -12.388880
-9.570000 -26.637289 -12.388880
-9.570000 -26.637289 -13.385958
-10.530000 -27.576389 -14.325000
-10.530000 -27.576389 13.115000
-10.530000 -26.637289 13.115000
-10.530000 -26.637289 -14.325000
9.570000 -27.576389 13.115000
9.194300 -26.137890 13.115000
9.194300 26.137911 13.115000
-9.570000 27.576389 -14.325000
-10.530000 27.576389 -14.325000
-10.530000 27.576389 13.115000
-9.570000 27.576389 13.115000
10.530000 26.637350 13.115000
10.530000 -26.637289 13.115000
-9.570000 26.637350 -13.385958
-9.570000 26.637350 -12.388880
-9.570000 27.576389 -12.388880
-9.570000 27.576389 -13.385958
-10.530000 26.637350 -14.325000
-10.530000 27.576389 -14.325000
-9.570000 27.576389 -14.325000
-9.570000 26.637350 -14.325000
9.570000 -27.576389 -14.325000
9.570000 -26.637289 -14.325000
10.530000 -26.637289 -14.325000
10.530000 -27.576389 -14.325000
10.530000 26.637350 -14.325000
10.530000 26.637350 13.115000
10.530000 26.637350 -12.388880
10.530000 26.637350 -13.385958
9.570000 -26.637289 1.363100
9.570000 -26.637289 13.115000
10.530000 -26.637289 13.115000
10.530000 -26.637289 1.363100
10.530000 27.576389 -14.325000
10.530000 27.576389 13.115000
10.530000 -26.637289 0.363100
10.530000 26.637350 0.363100
10.530000 26.637350 1.363100
10.530000 -26.637289 1.363100
10.530000 -26.637289 13.115000
10.530000 -27.576389 13.115000
10.530000 -27.576389 -14.325000
10.530000 -26.637289 -14.325000
-10.530000 27.576389 13.115000
-10.530000 -27.576389 13.115000
-10.530000 -27.576389 14.325000
-10.530000 27.576389 14.325000
10.530000 -26.637289 -12.388880
9.570000 -26.637289 -12.388880
9.570000 -26.637289 -13.385958
10.530000 -26.637289 -13.385958
9.194300 -26.137890 13.115000
9.194300 -26.137890 14.325000
9.194300 26.137911 14.325000
9.194300 26.137911 13.115000
9.570000 -26.637289 -12.388880
10.530000 -26.637289 -12.388880
10.530000 26.637350 -12.388880
10.530000 -26.637289 -12.388880
10.530000 -26.637289 -13.385958
-10.530000 27.576389 14.325000
-10.530000 -27.576389 14.325000
-9.194300 -26.137890 14.325000
-9.194300 26.137911 14.325000
9.194300 26.137911 14.325000
-10.530000 -26.637289 13.115000
-10.530000 26.637350 13.115000
9.570000 -26.637289 0.363100
9.570000 26.637350 0.363100
10.530000 26.637350 0.363100
10.530000 -26.637289 0.363100
10.530000 27.576389 14.325000
9.194300 -26.137890 14.325000
10.530000 -27.576389 14.325000
-9.194300 26.137911 13.115000
-9.194300 -26.137890 13.115000
9.570000 -26.637289 -13.385958
9.570000 -26.637289 -12.388880
9.570000 26.637350 -12.388880
-9.570000 -26.637289 -12.388880
-9.570000 -27.576389 -12.388880
9.570000 -27.576389 -12.388880
-10.530000 -27.576389 -14.325000
-10.530000 -26.637289 -14.325000
-9.570000 -26.637289 -14.325000
-9.570000 -27.576389 -14.325000
-9.194300 -26.137890 14.325000
9.194300 -26.137890 14.325000
9.194300 -26.137890 13.115000
-9.194300 -26.137890 13.115000
-9.570000 -26.637289 -12.388880
9.570000 -26.637289 -12.388880
9.570000 -26.637289 -13.385958
-9.570000 -26.637289 -13.385958
9.194300 26.137911 14.325000
-9.194300 26.137911 14.325000
-9.194300 26.137911 13.115000
9.194300 26.137911 13.115000
9.194300 -26.137890 13.115000
9.194300 26.137911 13.115000
-9.194300 26.137911 13.115000
-9.194300 -26.137890 13.115000
10.530000 26.637350 -13.385958
9.570000 26.637350 -14.325000
10.530000 26.637350 -14.325000
9.194300 -26.137890 14.325000
-9.194300 -26.137890 14.325000
-9.194300 26.137911 14.325000
9.194300 26.137911 14.325000
4 0 1 2 3
4 4 5 6 7
4 8 7 9 10
4 11 12 13 14
3 15 16 17
3 18 19 20
3 18 20 21
4 22 23 24 25
4 26 27 28 29
4 30 31 32 33
4 34 35 36 37
4 38 39 40 41
4 42 43 44 45
4 46 47 48 49
8 50 51 52 53 54 55 56 57
4 58 59 60 61
4 62 63 64 65
4 66 67 68 69
4 70 71 72 73
8 74 75 76 77 78 79 80 81
4 82 83 84 85
4 86 87 88 89
4 90 91 92 93
4 94 95 96 97
4 98 99 100 101
4 102 103 104 105
4 106 107 108 109
8 110 111 112 113 114 115 116 117
4 118 119 120 121
4 122 123 124 125
4 126 127 128 129
4 130 131 132 133
4 134 135 136 137
7 16 138 19 139 140 18 17
4 141 142 143 144
4 16 15 145 146
4 147 148 149 150
4 151 152 153 154
4 155 156 157 158
3 159 160 161
3 159 161 162
4 163 164 165 166
4 160 159 167 168
8 169 170 171 172 173 174 175 176
4 177 178 179 180
4 181 182 183 184
4 185 186 187 188
4 24 189 190 191
4 192 193 162 161
5 194 195 196 197 198
4 199 200 21 20
4 201 202 203 204
7 205 194 198 206 196 195 207
6 19 18 140 208 209 139
4 210 211 212 103
4 213 214 215 189
4 216 217 218 219
4 220 221 222 223
4 224 225 226 227
4 228 229 230 231
4 232 233 234 235
4 236 49 237 238
4 239 240 241 242
