ply
format ascii 1.0
comment Created by Blender 2.82 (sub 7) - www.blender.org, source file: ''
element vertex 472
property float x
property float y
property float z
element face 159
property list uchar uint vertex_indices
end_header
-21.823065 12.295760 6.773200
-13.818965 28.535860 6.773200
-2.112065 37.129902 6.773200
4.166335 37.738338 6.773200
10.160835 35.774971 6.773200
19.711065 24.834160 6.773200
23.979765 7.239060 6.773200
21.823095 -12.295740 6.773200
13.818935 -28.535940 6.773200
2.112035 -37.129940 6.773200
-4.166365 -37.738338 6.773200
-10.160765 -35.775040 6.773200
-19.711065 -24.834240 6.773200
-23.979765 -7.239040 6.773200
-6.897665 -4.563840 0.845640
-6.765465 -4.798140 0.711650
-9.709465 -9.065940 5.187000
-9.924565 -8.689140 5.624000
-6.946465 -4.372040 1.000750
-4.086665 -0.226340 -0.571960
-9.906265 -8.581340 5.874300
-6.908665 -4.235940 1.166400
-4.097365 -0.160540 -0.379640
1.734735 8.293960 1.166400
4.732335 12.639460 5.874300
4.824035 12.691160 5.624000
1.846035 8.373960 1.000750
-1.013865 4.228260 -0.571960
-13.743865 27.231260 -7.663110
-6.343165 10.406660 4.921200
-7.170665 10.249260 4.929700
-7.841965 10.027360 5.187000
-15.367265 27.135260 -7.543437
-2.112065 37.129902 7.676000
-13.818965 28.535860 7.676000
-21.823065 12.295760 7.676000
-23.979765 -7.239040 7.676000
-19.711065 -24.834240 7.676000
-10.160765 -35.775040 7.676000
-4.166365 -37.738338 7.676000
2.112035 -37.129940 7.676000
13.818935 -28.535940 7.676000
21.823095 -12.295740 7.676000
23.979765 7.239060 7.676000
19.711065 24.834160 7.676000
10.160835 35.774971 7.676000
4.166335 37.738338 7.676000
-23.979765 -7.239040 7.676000
-21.823065 12.295760 7.676000
-13.818965 28.535860 7.676000
-2.112065 37.129902 7.676000
4.166335 37.738338 7.676000
10.160835 35.774971 7.676000
19.711065 24.834160 7.676000
23.979765 7.239060 7.676000
21.823095 -12.295740 7.676000
13.818935 -28.535940 7.676000
2.112035 -37.129940 7.676000
-4.166365 -37.738338 7.676000
-10.160765 -35.775040 7.676000
-19.711065 -24.834240 7.676000
-19.711065 -24.834240 7.676000
-23.979765 -7.239040 7.676000
-23.979765 -7.239040 6.773200
-19.711065 -24.834240 6.773200
15.927515 28.787260 -7.346655
16.040384 28.262260 -7.543437
11.295035 21.383160 0.285040
5.231335 12.592860 5.187000
4.824035 12.691160 5.624000
11.139835 21.846861 0.547540
1.910735 7.713060 1.614770
4.961235 12.135060 6.552100
4.725235 12.523560 6.123600
1.708135 8.149960 1.331310
-3.976565 0.627760 -0.752040
-3.742465 0.707460 -0.907610
-1.539765 -4.299940 -0.907610
0.510135 -8.960240 0.711650
0.017435 -8.829240 1.000750
-1.973565 -4.302940 -0.571960
-4.112865 0.560560 -0.571960
-9.803765 -8.538340 6.123600
-9.906265 -8.581340 5.874300
-21.178366 -24.921940 -7.233899
-21.243864 -25.122339 -7.121649
2.779235 -8.549240 0.696230
2.998435 -8.407740 0.826750
5.057435 -13.088740 5.360900
4.827535 -13.205940 5.163700
6.112035 11.142960 6.786000
3.043335 6.694460 1.769510
3.922735 6.326160 1.465350
6.955535 10.722660 6.326200
6.718535 10.805060 6.528800
-6.555865 8.024960 4.427600
-7.235565 9.570160 6.702100
-7.884665 9.579860 6.354800
-8.086665 9.629160 6.123600
-5.986165 4.854060 1.331310
-5.470665 4.731660 1.614770
-6.938765 8.069260 4.358100
17.111086 27.178160 -7.663110
12.391435 20.336260 0.125400
11.753135 20.830160 0.130530
-21.108166 -25.656240 -6.928710
-16.230665 -18.585739 1.105070
-9.379465 -8.653840 6.552100
9.900235 -30.919540 -7.452233
9.821035 -31.116541 -7.346655
6.487835 -23.539040 0.547540
2.090735 -13.542740 5.624000
2.280035 -13.595740 5.389500
6.582935 -23.377939 0.406710
-13.488265 28.528259 -6.939207
-12.948065 28.289360 -7.135989
-12.821565 28.118361 -7.248745
-12.804365 27.927860 -7.360995
-12.897865 27.730761 -7.465090
-13.095665 27.540560 -7.553935
-13.743865 27.231260 -7.663110
-15.367265 27.135260 -7.543437
-15.907465 27.374161 -7.346655
-16.034065 27.545160 -7.233899
-16.051165 27.735760 -7.121649
-15.957665 27.932760 -7.017555
-15.759865 28.122959 -6.928710
-15.111665 28.432261 -6.819535
-15.907465 27.374161 -7.346655
-8.177265 9.800360 5.624000
-8.186365 9.704460 5.874300
-16.034065 27.545160 -7.233899
-4.402665 -6.005440 1.310240
1.342035 2.322360 -0.212640
1.198935 2.377660 -0.032560
-4.451565 -5.813640 1.465350
12.903935 -30.517139 -7.360995
12.664335 -30.382240 -7.465090
5.057435 -13.088740 5.360900
5.188635 -12.977340 5.592100
-5.792365 5.367760 0.711650
-5.134965 5.621460 0.541480
-0.810465 -4.209840 -1.105170
-5.999165 5.225960 0.845640
-21.028065 -24.785339 -7.346655
-9.924565 -8.689140 5.624000
0.046635 -8.451240 1.484240
2.159635 -13.254840 6.354800
2.389535 -13.137740 6.552100
0.265835 -8.309740 1.614770
-8.059765 9.910560 5.389500
-7.841965 10.027360 5.187000
11.015135 -27.982540 -2.565760
10.661535 -28.121639 -2.515000
3.907335 -12.766840 6.786000
3.077235 -12.918340 6.794500
2.389535 -13.137740 6.552100
7.159335 -23.981440 1.105070
9.038535 -28.253540 -2.633240
9.418935 -28.292040 -2.557420
10.938335 -31.746140 -6.861169
12.534235 -31.435940 -6.868592
-4.023765 -0.159340 -0.188180
-9.803765 -8.538340 6.123600
-6.786765 -4.164740 1.331310
4.166335 37.738338 7.676000
10.160835 35.774971 7.676000
10.160835 35.774971 6.773200
4.166335 37.738338 6.773200
5.231335 12.592860 5.187000
5.837735 12.255060 4.929700
2.913835 8.016360 0.541480
2.034435 8.384660 0.845640
4.994235 12.675260 5.389500
2.112035 -37.129940 6.773200
2.112035 -37.129940 7.676000
13.818935 -28.535940 7.676000
13.818935 -28.535940 6.773200
-21.823065 12.295760 7.676000
-21.823065 12.295760 6.773200
-18.835865 -26.928341 -7.135989
-18.685465 -26.791740 -7.248745
-7.435565 -10.483240 5.841400
-7.417265 -10.375440 6.091800
21.823095 -12.295740 6.773200
21.823095 -12.295740 7.676000
-20.011965 -26.727840 -6.823377
-8.125865 -9.496940 6.786000
-8.765265 -9.004740 6.794500
18.431456 27.784760 -6.939207
13.556235 20.717461 1.091070
6.718535 10.805060 6.528800
7.125735 10.706760 6.091800
13.711435 20.253759 0.828570
18.544325 27.259760 -7.135989
12.534235 -31.435940 -6.868592
10.938335 -31.746140 -6.861169
10.232635 -31.607840 -7.017555
9.993035 -31.472839 -7.121649
9.852635 -31.305241 -7.233899
9.821035 -31.116541 -7.346655
9.900235 -30.919540 -7.452233
10.362735 -30.554140 -7.614053
11.958635 -30.243839 -7.621476
12.664335 -30.382240 -7.465090
12.903935 -30.517139 -7.360995
13.044335 -30.684740 -7.248745
13.075935 -30.873440 -7.135989
12.996735 -31.070440 -7.030412
-10.160765 -35.775040 7.676000
-10.160765 -35.775040 6.773200
13.522035 20.003460 0.528410
18.306616 26.939360 -7.360995
18.467436 27.066959 -7.248745
13.658735 20.096060 0.678150
7.217535 10.758560 5.841400
7.224635 10.874360 5.592100
23.979765 7.239060 7.676000
23.979765 7.239060 6.773200
19.711065 24.834160 6.773200
19.711065 24.834160 7.676000
-3.868665 4.911060 1.769510
-5.311965 8.192160 4.466500
-5.713765 8.088660 4.483700
-6.412865 9.677960 6.823100
-1.995565 -4.218040 -0.188180
-1.845765 -4.148940 -0.010630
-1.599965 -4.067940 0.140910
-3.297765 -0.988340 -1.105170
-6.292065 -5.328940 0.541480
-3.992365 -0.352240 -0.752040
-0.870765 4.173060 -0.752040
-0.080465 3.675660 -1.105170
-4.166365 -37.738338 6.773200
-4.166365 -37.738338 7.676000
17.360765 28.868860 -6.819535
16.689835 29.137461 -6.928710
11.812435 22.066959 1.105070
12.459835 21.764360 1.250710
2.112035 -37.129940 7.676000
-4.166365 -37.738338 7.676000
-4.166365 -37.738338 6.773200
2.112035 -37.129940 6.773200
13.818935 -28.535940 6.773200
13.818935 -28.535940 7.676000
13.075935 -30.873440 -7.135989
13.044335 -30.684740 -7.248745
5.212135 -12.879140 5.841400
5.126335 -12.800840 6.091800
2.104635 -8.798540 0.535830
0.018935 -4.056840 -1.111730
0.726135 -3.881740 -0.925510
0.971935 -3.800840 -0.773970
5.468835 11.629760 6.794500
-5.020165 -6.145640 0.696230
-2.071165 -1.870640 -0.925510
-1.849365 -1.994540 -0.773970
-4.760165 -6.214140 0.826750
4.725235 12.523560 6.123600
4.961235 12.135060 6.552100
16.165224 29.107660 -7.121649
11.329235 22.097160 0.847690
-23.979765 -7.239040 6.773200
-19.711065 -24.834240 6.773200
-10.160765 -35.775040 6.773200
-4.166365 -37.738338 6.773200
2.112035 -37.129940 6.773200
13.818935 -28.535940 6.773200
21.823095 -12.295740 6.773200
23.979765 7.239060 6.773200
19.711065 24.834160 6.773200
10.160835 35.774971 6.773200
4.166335 37.738338 6.773200
-2.112065 37.129902 6.773200
-13.818965 28.535860 6.773200
-21.823065 12.295760 6.773200
1.121735 -3.731740 -0.596420
3.117035 -8.267740 0.979680
5.188635 -12.977340 5.592100
4.111235 6.336760 1.310240
7.125735 10.706760 6.091800
-3.648965 -0.346640 0.140910
-6.329065 -4.231840 1.614770
-5.695965 -4.555240 1.775160
-5.057165 -5.048540 1.769510
-2.422365 -1.229040 0.320570
-13.818965 28.535860 7.676000
-13.818965 28.535860 6.773200
21.823095 -12.295740 6.773200
21.823095 -12.295740 7.676000
19.711065 24.834160 6.773200
23.979765 7.239060 6.773200
23.979765 7.239060 7.676000
19.711065 24.834160 7.676000
6.626235 -23.818741 0.847690
2.028435 -13.366340 6.123600
2.004935 -13.464540 5.874300
6.502635 -23.689341 0.697960
9.852635 -31.305241 -7.233899
9.993035 -31.472839 -7.121649
4.139835 -13.425340 4.921200
-5.653265 -5.822140 0.535830
10.160835 35.774971 6.773200
10.160835 35.774971 7.676000
0.408635 2.874960 0.320570
-2.112065 37.129902 6.773200
4.166335 37.738338 6.773200
4.166335 37.738338 7.676000
-2.112065 37.129902 7.676000
-15.111665 28.432261 -6.819535
-15.759865 28.122959 -6.928710
-15.957665 27.932760 -7.017555
-7.884665 9.579860 6.354800
-6.832565 9.610460 6.794500
-6.762865 10.339260 4.892600
-6.373465 9.453860 3.589200
-6.775265 9.350260 3.606400
3.127035 -8.138840 1.144590
-0.942465 1.112760 -0.404960
-2.904165 5.572460 1.144590
-4.989365 10.312760 5.841400
-4.998465 10.216760 6.091800
-2.899765 5.445560 1.310240
-0.971865 1.062660 -0.212640
3.027635 -8.029640 1.310240
5.126335 -12.800840 6.091800
5.212135 -12.879140 5.841400
2.090735 -13.542740 5.624000
2.004935 -13.464540 5.874300
-0.081965 -8.720140 1.166400
-2.039165 -4.270540 -0.379640
-6.099465 4.960060 1.166400
-8.186365 9.704460 5.874300
-8.177265 9.800360 5.624000
-6.103865 5.086860 1.000750
-8.576565 -10.059940 4.921200
-9.215965 -9.567640 4.929700
13.038835 20.033661 0.271040
17.782015 26.909460 -7.553935
6.988635 11.262860 5.163700
6.481035 11.768260 4.921200
6.988635 11.262860 5.163700
4.046435 6.997760 0.696230
-6.005065 9.767860 6.786000
-5.333765 9.989860 6.528800
-13.488265 28.528259 -6.939207
3.077235 -12.918340 6.794500
0.940435 -8.060440 1.775160
-8.765265 -9.004740 6.794500
-8.125865 -9.496940 6.786000
-7.632365 -9.998740 6.528800
-4.583765 -5.579240 1.599340
3.309735 -13.576840 4.929700
2.559735 -13.619840 5.187000
-10.160765 -35.775040 6.773200
-10.160765 -35.775040 7.676000
-5.940165 10.447060 5.013700
-5.531265 9.517460 3.645300
-5.148365 9.473260 3.714800
-3.532965 5.800760 0.696230
2.534935 -7.898740 1.599340
0.665935 -3.649740 0.123010
-0.063365 -3.739840 0.320570
-0.892765 -3.892940 0.327130
-23.979765 -7.239040 6.773200
-23.979765 -7.239040 7.676000
-19.711065 -24.834240 7.676000
-19.711065 -24.834240 6.773200
-2.112065 37.129902 7.676000
-2.112065 37.129902 6.773200
11.116135 -30.306740 -7.676000
9.632035 -26.932739 -3.472110
10.055835 -26.874640 -3.457640
4.139835 -13.425340 4.921200
4.827535 -13.205940 5.163700
-19.345366 -26.978340 -6.939207
-14.470165 -19.911039 1.091070
-7.632365 -9.998740 6.528800
-18.755766 -26.057440 -7.553935
-18.620066 -26.591339 -7.360995
-18.685465 -26.791740 -7.248745
-18.835865 -26.928341 -7.135989
-19.345366 -26.978340 -6.939207
-20.011965 -26.727840 -6.823377
-21.108166 -25.656240 -6.928710
-21.243864 -25.122339 -7.121649
-21.178366 -24.921940 -7.233899
-21.028065 -24.785339 -7.346655
-20.518564 -24.735340 -7.543437
-19.851866 -24.985840 -7.659268
-13.818965 28.535860 7.676000
-13.818965 28.535860 6.773200
-18.620066 -26.591339 -7.360995
-7.538065 -10.526240 5.592100
3.907335 -12.766840 6.786000
4.657335 -12.723840 6.528800
-21.823065 12.295760 6.773200
-21.823065 12.295760 7.676000
-12.804365 27.927860 -7.360995
-12.821565 28.118361 -7.248745
-4.989365 10.312760 5.841400
-5.089065 10.387960 5.592100
2.559735 -13.619840 5.187000
3.309735 -13.576840 4.929700
10.085035 -30.727739 -7.543437
16.004416 28.980061 -7.233899
11.192535 22.004560 0.697960
4.732335 12.639460 5.874300
-3.004565 5.306460 1.465350
-1.108265 0.995460 -0.032560
-5.115965 10.106660 6.326200
6.481035 11.768260 4.921200
5.837735 12.255060 4.929700
-12.948065 28.289360 -7.135989
-4.998465 10.216760 6.091800
2.028435 -13.366340 6.123600
-0.071965 -8.591140 1.331310
4.249035 6.560760 0.979680
1.383035 2.406160 -0.596420
-1.696465 -2.058040 -0.596420
-5.290965 10.437360 5.360900
-5.089065 10.387960 5.592100
-3.017465 5.678360 0.979680
-7.417265 -10.375440 6.091800
-4.562465 -6.212740 0.979680
-7.538065 -10.526240 5.592100
-7.717665 -10.501540 5.360900
-18.755766 -26.057440 -7.553935
-7.962365 -10.410740 5.163700
-12.897865 27.730761 -7.465090
-5.290965 10.437360 5.360900
-9.215965 -9.567640 4.929700
-19.851866 -24.985840 -7.659268
-20.518564 -24.735340 -7.543437
-9.709465 -9.065940 5.187000
-1.022165 1.142360 -0.596420
-16.051165 27.735760 -7.121649
-8.086665 9.629160 6.123600
-4.440565 -6.141540 1.144590
1.404835 2.332160 -0.404960
4.222535 6.416760 1.144590
7.217535 10.758560 5.841400
-7.435565 -10.483240 5.841400
10.232635 -31.607840 -7.017555
12.996735 -31.070440 -7.030412
4.937135 -12.747940 6.326200
-3.870765 -0.222840 -0.010630
-3.211265 5.164660 1.599340
-5.333765 9.989860 6.528800
7.224635 10.874360 5.592100
-1.342365 0.915760 0.123010
-8.576565 -10.059940 4.921200
15.927515 28.787260 -7.346655
16.004416 28.980061 -7.233899
16.165224 29.107660 -7.121649
16.689835 29.137461 -6.928710
17.360765 28.868860 -6.819535
18.431456 27.784760 -6.939207
18.544325 27.259760 -7.135989
18.467436 27.066959 -7.248745
18.306616 26.939360 -7.360995
17.782015 26.909460 -7.553935
17.111086 27.178160 -7.663110
16.040384 28.262260 -7.543437
-9.624165 -8.563040 6.354800
-6.589065 -4.163340 1.484240
13.098235 21.270361 1.245580
6.112035 11.142960 6.786000
-9.379465 -8.653840 6.552100
-13.095665 27.540560 -7.553935
-7.962365 -10.410740 5.163700
5.468835 11.629760 6.794500
14 0 1 2 3 4 5 6 7 8 9 10 11 12 13
5 14 15 16 17 18
11 19 18 17 20 21 22 23 24 25 26 27
5 28 29 30 31 32
14 33 34 35 36 37 38 39 40 41 42 43 44 45 46
14 47 48 49 50 51 52 53 54 55 56 57 58 59 60
4 61 62 63 64
6 65 66 67 68 69 70
4 71 72 73 74
7 75 76 77 78 79 80 81
4 82 83 84 85
4 86 87 88 89
5 90 91 92 93 94
7 95 96 97 98 99 100 101
5 102 103 104 67 66
5 105 106 107 82 85
6 108 109 110 111 112 113
14 114 115 116 117 118 119 120 121 122 123 124 125 126 127
4 128 129 130 131
4 132 133 134 135
4 136 137 138 139
7 140 141 142 77 76 75 143
4 144 84 83 145
4 146 147 148 149
4 143 150 151 140
10 152 153 154 155 156 157 158 159 160 161
10 162 74 73 24 23 22 21 20 163 164
4 165 166 167 168
5 169 170 171 172 173
4 174 175 176 177
4 63 62 178 179
4 180 181 182 183
4 184 177 176 185
6 186 187 188 107 106 105
6 189 190 191 192 193 194
14 195 196 197 198 199 200 201 202 203 204 205 206 207 208
4 209 61 64 210
6 211 212 213 214 215 216
4 217 218 219 220
8 95 101 100 221 222 223 224 96
5 100 99 225 226 227
7 228 229 15 14 230 231 232
4 174 233 234 175
4 235 236 237 238
4 239 240 241 242
4 239 242 243 244
4 245 246 247 248
6 249 250 251 252 87 86
5 71 91 90 253 72
4 254 255 256 257
6 258 259 237 236 260 261
14 262 263 264 265 266 267 268 269 270 271 272 273 274 275
6 87 252 276 277 278 88
6 92 134 133 279 280 93
5 281 282 283 284 285
4 179 178 286 287
4 244 243 288 289
4 290 291 292 293
6 294 295 296 297 298 299
4 220 219 167 166
4 300 249 86 89
5 228 255 254 301 229
4 302 290 293 303
5 304 91 71 281 285
4 246 136 139 247
4 305 306 307 308
4 289 288 218 217
5 249 78 77 142 250
5 309 310 311 312 313
6 151 314 315 316 141 140
10 317 318 319 320 321 322 323 324 325 326
11 80 79 327 328 329 330 331 332 333 334 81
6 301 335 336 16 15 229
6 337 338 212 211 216 339
6 109 298 297 296 111 110
5 171 170 340 341 342
5 309 313 343 344 345
4 148 346 347 149
6 284 283 348 349 350 351
5 78 249 300 352 353
4 233 354 355 234
8 141 316 315 314 356 357 358 359
5 347 360 361 362 363
4 91 304 134 92
5 221 100 227 363 362
4 364 365 366 367
4 286 368 369 287
7 137 370 371 372 373 374 138
5 186 375 376 377 187
12 378 379 380 381 382 383 384 385 386 387 388 389
6 149 347 363 227 226 146
4 390 391 305 308
4 181 392 393 182
5 347 346 394 395 360
4 365 364 396 397
4 398 399 400 401
4 291 184 185 292
7 402 403 373 372 371 370 404
6 405 406 407 258 261 260
6 408 409 323 322 321 410
4 397 396 391 390
5 404 108 113 112 402
5 171 342 255 228 232
6 103 337 339 411 412 104
6 334 333 150 143 75 81
4 399 413 414 400
5 141 359 251 250 142
4 103 102 338 337
4 78 353 327 79
10 225 99 98 332 331 330 329 328 415 416
6 255 342 417 418 419 256
7 356 420 421 422 359 358 357
5 135 351 350 423 132
4 306 302 303 307
6 257 256 419 424 425 426
4 360 395 325 324
4 427 428 393 392
4 429 398 401 430
4 345 344 414 413
4 431 432 433 434
11 318 317 326 278 277 276 435 422 421 320 319
4 436 437 312 311
6 26 25 173 172 231 27
10 438 439 440 441 280 279 133 132 423 442
4 172 171 232 231
4 368 165 168 369
9 158 157 156 295 294 299 443 160 159
4 444 245 248 445
5 71 74 162 446 281
4 130 437 436 131
6 224 223 222 221 447 448
11 440 439 438 442 425 424 419 418 417 449 441
4 447 408 410 448
4 433 144 145 434
4 128 32 31 129
7 221 362 361 450 409 408 447
5 375 180 183 377 376
6 361 360 324 323 409 450
5 432 431 451 428 427
4 354 367 366 355
12 452 453 454 455 456 457 458 459 460 461 462 463
6 285 284 351 135 134 304
6 164 163 464 465 446 162
4 67 104 412 68
6 152 161 444 445 154 153
4 466 467 191 190
4 240 209 210 241
6 468 348 283 282 465 464
5 28 469 429 430 29
5 235 238 466 190 189
6 251 359 422 435 276 252
6 416 415 147 146 226 225
4 342 341 449 417
6 65 70 69 407 406 405
6 335 301 254 257 426 470
4 446 465 282 281
6 14 18 19 27 231 230
6 238 237 259 471 467 466
6 214 213 194 193 192 215
