ply
format ascii 1.0
comment Created by Blender 2.82 (sub 7) - www.blender.org, source file: ''
element vertex 464
property float x
property float y
property float z
element face 124
property list uchar uint vertex_indices
end_header
8.189000 2.022880 -3.010130
-8.684330 2.022880 -3.010130
-8.684330 2.022880 -4.510130
8.189000 2.022880 -4.510130
8.189000 -6.977119 -4.510130
8.189000 -7.977119 -4.510130
-8.798270 -7.977119 -4.510130
-8.798270 -6.977119 -4.510130
-8.810640 1.022880 -3.010130
-8.810640 1.022880 -4.510130
-8.810640 0.022880 -4.510130
-8.810640 0.022880 -3.010130
-11.750000 18.737282 7.376850
-8.684330 18.737282 7.376850
-8.684330 20.219280 7.376850
-11.750000 20.219280 7.376850
-8.684330 18.737282 7.376850
-11.750000 18.737282 7.376850
-11.750000 18.737282 -3.010130
-8.684330 18.737282 -3.010130
13.750000 -19.770220 7.086550
-13.750000 -19.770220 7.086550
-13.750000 -19.770220 6.711550
13.750000 -19.770220 6.711550
8.189000 -1.977120 -3.010130
8.189000 -1.977120 -4.510130
8.189000 -2.977120 -4.510130
8.189000 -2.977120 -3.010130
-13.750000 19.729780 6.711550
13.750000 19.729780 6.711550
13.750000 19.729780 7.086550
-13.750000 19.729780 7.086550
-8.731810 5.022881 -3.010130
8.189000 5.022880 -3.010130
8.189000 5.022880 -4.510130
-8.731810 5.022881 -4.510130
-13.750000 -19.770220 7.086550
13.750000 -19.770220 7.086550
13.750000 -19.770220 6.711550
-13.750000 -19.770220 6.711550
-13.750000 19.729780 7.086550
-13.750000 19.729780 6.711550
-13.750000 -19.770220 6.711550
-13.750000 -19.770220 7.086550
11.250000 18.763580 -7.594650
11.250000 18.763580 -4.510130
8.189000 18.763580 -4.510130
8.189000 18.763580 -7.594650
8.189000 -7.977119 -3.010130
8.189000 -7.977119 -4.510130
8.189000 -18.717899 -4.510130
8.189000 -18.717899 -3.010130
-8.684330 -20.245781 7.566850
-8.684330 -18.756599 7.566850
-11.750000 -18.756599 7.566850
-11.750000 -20.245781 7.566850
8.189000 -20.228102 -7.594650
11.250000 -20.228102 -7.594650
11.250000 -18.717899 -7.594650
8.189000 -18.717899 -7.594650
8.189000 1.022880 -4.510130
8.189000 0.022880 -4.510130
-8.810640 0.022880 -4.510130
-8.810640 1.022880 -4.510130
-11.750000 -18.752789 7.086550
-11.750000 -18.752789 -3.010130
-11.750000 18.737282 -3.010130
-11.750000 18.737282 7.376850
-11.750000 20.219280 7.376850
-11.750000 20.219280 -7.594650
-11.750000 18.737282 -7.594650
-11.750000 18.737282 -4.510130
-11.750000 -18.756599 -4.510130
-11.750000 -18.756599 7.086550
-8.731810 4.022881 -3.010130
-8.731810 4.022881 -4.510130
-8.731810 5.022881 -4.510130
-8.731810 5.022881 -3.010130
8.189000 5.022880 -4.510130
8.189000 4.022880 -4.510130
-8.731810 4.022881 -4.510130
-8.731810 5.022881 -4.510130
-8.684330 -18.756599 -7.594650
-8.684330 -20.245781 -7.594650
-11.750000 -20.245781 -7.594650
-11.750000 -18.756599 -7.594650
-8.798270 -6.977119 -3.010130
8.189000 -6.977119 -3.010130
8.189000 -6.977119 -4.510130
-8.798270 -6.977119 -4.510130
11.250000 18.763580 -3.010130
11.250000 -18.717899 -3.010130
11.250000 -18.717899 -4.510130
11.250000 18.763580 -4.510130
11.250000 18.763580 -7.594650
11.250000 20.245781 -7.594650
11.250000 20.245781 7.594650
11.250000 18.763580 7.594650
11.250000 18.763580 7.594650
11.250000 20.245781 7.594650
8.189000 20.245781 7.594650
8.189000 18.763580 7.594650
11.250000 -18.717899 7.500350
11.250000 -18.717899 -7.594650
8.189000 6.022880 -4.510130
8.189000 7.022880 -4.510130
8.189000 18.763580 -4.510130
-8.810640 0.022880 -3.010130
-8.810640 0.022880 -4.510130
-8.810640 1.022880 -4.510130
-8.810640 1.022880 -3.010130
8.189000 3.022880 -4.510130
8.189000 2.022880 -4.510130
8.189000 -0.977120 -4.510130
8.189000 -1.977120 -4.510130
8.189000 -2.977120 -4.510130
8.189000 -3.977119 -4.510130
8.189000 -4.977119 -4.510130
8.189000 -5.977119 -4.510130
8.189000 -18.717899 -4.510130
-8.698530 7.022881 -3.010130
8.189000 7.022880 -3.010130
8.189000 7.022880 -4.510130
-8.698530 7.022881 -4.510130
-8.684330 -3.977119 -4.510130
-8.684330 -2.977120 -4.510130
-8.731810 5.022881 -3.010130
-8.731810 5.022881 -4.510130
-8.731810 4.022881 -4.510130
-8.731810 4.022881 -3.010130
13.750000 19.729780 6.711550
13.750000 -19.770220 6.711550
-13.750000 -19.770220 6.711550
-13.750000 19.729780 6.711550
-8.684330 20.219280 -7.594650
-8.684330 18.737282 -7.594650
-11.750000 18.737282 -7.594650
-11.750000 20.219280 -7.594650
-8.684330 -3.977119 -4.510130
-8.684330 -3.977119 -3.010130
-8.684330 -4.977119 -3.010130
-8.684330 -4.977119 -4.510130
-8.684330 -20.245781 7.566850
-11.750000 -20.245781 7.566850
-11.750000 -20.245781 -7.594650
-8.684330 -20.245781 -7.594650
11.250000 18.763580 7.594650
8.189000 18.763580 7.594650
8.189000 18.763580 -3.010130
11.250000 18.763580 -3.010130
13.750000 -19.770220 7.086550
13.750000 19.729780 7.086550
-13.750000 19.729780 7.086550
-13.750000 -19.770220 7.086550
-11.750000 -19.770220 7.086550
-11.750000 -18.752789 7.086550
-8.684330 -18.752789 7.086550
-8.684330 -19.770220 7.086550
-13.750000 19.729780 6.711550
-13.750000 -19.770220 6.711550
13.750000 -19.770220 6.711550
13.750000 19.729780 6.711550
8.189000 18.763580 -4.510130
8.189000 7.022880 -4.510130
8.189000 7.022880 -3.010130
8.189000 18.763580 -3.010130
8.189000 18.763580 7.594650
8.189000 20.245781 7.594650
8.189000 20.245781 -7.594650
8.189000 18.763580 -7.594650
-8.684330 18.737282 -3.010130
-11.750000 18.737282 -3.010130
-11.750000 -18.752789 -3.010130
-8.684330 -18.752789 -3.010130
-13.750000 19.729780 7.086550
13.750000 19.729780 7.086550
13.750000 19.729780 6.711550
-13.750000 19.729780 6.711550
-8.684330 -19.770220 7.086550
-11.750000 -19.770220 7.086550
-11.750000 -18.752789 7.086550
-8.684330 -18.752789 7.086550
8.189000 2.022880 -3.010130
8.189000 2.022880 -4.510130
8.189000 1.022880 -4.510130
8.189000 1.022880 -3.010130
-11.750000 -20.245781 7.566850
-11.750000 -18.756599 7.566850
-8.684330 -18.756599 7.566850
-8.684330 -20.245781 7.566850
-8.812080 -0.977120 -3.010130
8.189000 -0.977120 -3.010130
8.189000 -0.977120 -4.510130
-8.812080 -0.977120 -4.510130
11.250000 18.763580 -4.510130
11.250000 -18.717899 -4.510130
-8.684330 -3.977119 -3.010130
-8.684330 -3.977119 -4.510130
-8.684330 -2.977120 -4.510130
-8.684330 -2.977120 -3.010130
13.750000 19.729780 6.711550
13.750000 19.729780 7.086550
13.750000 -19.770220 7.086550
13.750000 -19.770220 6.711550
-8.684330 -18.756599 -7.594650
-8.684330 -18.756599 7.566850
-8.684330 -20.245781 7.566850
-8.684330 -20.245781 -7.594650
8.189000 4.022880 -3.010130
8.189000 4.022880 -4.510130
8.189000 3.022880 -4.510130
8.189000 3.022880 -3.010130
-8.812080 -1.977120 -4.510130
-8.812080 -0.977120 -4.510130
-8.684330 -18.756599 -4.510130
-8.684330 -18.756599 7.086550
-8.684330 -5.977119 -4.510130
-8.684330 -4.977119 -4.510130
-13.750000 -19.770220 7.086550
-13.750000 19.729780 7.086550
13.750000 19.729780 7.086550
13.750000 -19.770220 7.086550
-8.684330 -19.770220 7.086550
-8.684330 -18.752789 7.086550
-11.750000 -18.752789 7.086550
-11.750000 -19.770220 7.086550
-8.684330 3.022880 -3.010130
8.189000 3.022880 -3.010130
8.189000 3.022880 -4.510130
-8.684330 3.022880 -4.510130
-11.750000 -18.756599 -7.594650
-11.750000 -18.756599 7.566850
-8.684330 2.022880 -4.510130
-8.684330 3.022880 -4.510130
-8.698530 6.022881 -4.510130
-8.698530 7.022881 -4.510130
-8.684330 18.737282 -3.010130
-8.684330 3.022880 -3.010130
-8.684330 3.022880 -4.510130
-8.684330 18.737282 -4.510130
-8.684330 18.737282 -7.594650
-8.684330 20.219280 -7.594650
-8.684330 20.219280 7.376850
-8.684330 18.737282 7.376850
8.189000 -3.977119 -3.010130
8.189000 -3.977119 -4.510130
8.189000 -4.977119 -4.510130
8.189000 -4.977119 -3.010130
11.250000 -20.228102 7.500350
8.189000 -20.228102 7.500350
8.189000 -20.228102 -7.594650
11.250000 -20.228102 -7.594650
8.189000 -7.977119 -3.010130
-8.798270 -7.977119 -3.010130
-8.798270 -7.977119 -4.510130
8.189000 -7.977119 -4.510130
-11.750000 -18.756599 7.566850
-8.684330 -18.756599 7.566850
-8.684330 -18.756599 7.086550
-11.750000 -18.756599 7.086550
8.189000 -18.717899 7.500350
11.250000 -18.717899 7.500350
11.250000 -18.717899 -3.010130
8.189000 -18.717899 -3.010130
-11.750000 -18.752789 7.086550
-8.684330 -18.752789 7.086550
-8.684330 -18.752789 -3.010130
-11.750000 -18.752789 -3.010130
-8.684330 2.022880 -4.510130
-8.684330 2.022880 -3.010130
-8.684330 -2.977120 -3.010130
-8.684330 -2.977120 -4.510130
-8.684330 -4.977119 -3.010130
8.189000 -4.977119 -3.010130
8.189000 -4.977119 -4.510130
-8.684330 -4.977119 -4.510130
11.250000 -20.228102 7.500350
11.250000 -20.228102 -7.594650
8.189000 4.022880 -3.010130
-8.731810 4.022881 -3.010130
-8.731810 4.022881 -4.510130
8.189000 4.022880 -4.510130
8.189000 20.245781 7.594650
11.250000 20.245781 7.594650
11.250000 20.245781 -7.594650
8.189000 20.245781 -7.594650
-8.684330 18.737282 -4.510130
-8.684330 -18.756599 -4.510130
-11.750000 -18.756599 -4.510130
-11.750000 18.737282 -4.510130
13.750000 -19.770220 6.711550
13.750000 -19.770220 7.086550
13.750000 19.729780 7.086550
13.750000 19.729780 6.711550
8.189000 -5.977119 -3.010130
8.189000 -5.977119 -4.510130
8.189000 -6.977119 -4.510130
8.189000 -6.977119 -3.010130
8.189000 1.022880 -3.010130
-8.810640 1.022880 -3.010130
-8.810640 0.022880 -3.010130
8.189000 0.022880 -3.010130
8.189000 -0.977120 -3.010130
-8.812080 -0.977120 -3.010130
-8.812080 -1.977120 -3.010130
8.189000 -1.977120 -3.010130
8.189000 -2.977120 -3.010130
-8.684330 -2.977120 -3.010130
-8.684330 -3.977119 -3.010130
8.189000 -3.977119 -3.010130
8.189000 -4.977119 -3.010130
-8.684330 -4.977119 -3.010130
-8.684330 -5.977119 -3.010130
8.189000 -5.977119 -3.010130
8.189000 -6.977119 -3.010130
-8.798270 -6.977119 -3.010130
-8.798270 -7.977119 -3.010130
8.189000 -7.977119 -3.010130
8.189000 -18.717899 -3.010130
11.250000 -18.717899 -3.010130
11.250000 18.763580 -3.010130
8.189000 18.763580 -3.010130
8.189000 7.022880 -3.010130
-8.698530 7.022881 -3.010130
-8.698530 6.022881 -3.010130
8.189000 6.022880 -3.010130
8.189000 5.022880 -3.010130
-8.731810 5.022881 -3.010130
-8.731810 4.022881 -3.010130
8.189000 4.022880 -3.010130
8.189000 3.022880 -3.010130
-8.684330 3.022880 -3.010130
-8.684330 2.022880 -3.010130
8.189000 2.022880 -3.010130
8.189000 -5.977119 -3.010130
-8.684330 -5.977119 -3.010130
-8.684330 -5.977119 -4.510130
8.189000 -5.977119 -4.510130
-8.684330 -5.977119 -4.510130
-8.684330 -5.977119 -3.010130
-8.684330 -18.752789 -3.010130
-8.684330 -18.752789 7.086550
-11.750000 20.219280 7.376850
-8.684330 20.219280 7.376850
-8.684330 20.219280 -7.594650
-11.750000 20.219280 -7.594650
-8.684330 18.737282 -4.510130
-11.750000 18.737282 -4.510130
-11.750000 18.737282 -7.594650
-8.684330 18.737282 -7.594650
8.189000 -1.977120 -3.010130
-8.812080 -1.977120 -3.010130
-8.812080 -1.977120 -4.510130
8.189000 -1.977120 -4.510130
-8.684330 -2.977120 -3.010130
8.189000 -2.977120 -3.010130
8.189000 -2.977120 -4.510130
-8.684330 -2.977120 -4.510130
8.189000 20.245781 -7.594650
8.189000 18.763580 -7.594650
11.250000 18.763580 -7.594650
11.250000 20.245781 -7.594650
8.189000 -3.977119 -3.010130
-8.684330 -3.977119 -3.010130
-8.684330 -3.977119 -4.510130
8.189000 -3.977119 -4.510130
8.189000 0.022880 -3.010130
-8.810640 0.022880 -3.010130
-8.810640 0.022880 -4.510130
8.189000 0.022880 -4.510130
8.189000 -18.717899 -7.594650
8.189000 -18.717899 7.500350
8.189000 -20.228102 -7.594650
8.189000 -20.228102 7.500350
8.189000 0.022880 -3.010130
8.189000 0.022880 -4.510130
8.189000 -0.977120 -4.510130
8.189000 -0.977120 -3.010130
11.250000 -20.228102 7.500350
11.250000 -18.717899 7.500350
8.189000 -18.717899 7.500350
8.189000 -20.228102 7.500350
11.250000 20.245781 -7.594650
11.250000 18.763580 -7.594650
8.189000 18.763580 -7.594650
8.189000 20.245781 -7.594650
8.189000 -18.717899 -7.594650
11.250000 -18.717899 -7.594650
11.250000 -20.228102 -7.594650
8.189000 -20.228102 -7.594650
8.189000 -18.717899 -4.510130
11.250000 -18.717899 -4.510130
11.250000 -18.717899 -7.594650
8.189000 -18.717899 -7.594650
-8.810640 1.022880 -3.010130
8.189000 1.022880 -3.010130
8.189000 1.022880 -4.510130
-8.810640 1.022880 -4.510130
-8.684330 -5.977119 -3.010130
-8.684330 -5.977119 -4.510130
-8.684330 -4.977119 -4.510130
-8.684330 -4.977119 -3.010130
-8.684330 -19.770220 7.086550
-8.684330 -18.752789 7.086550
-11.750000 -18.752789 7.086550
-11.750000 -19.770220 7.086550
-8.812080 -0.977120 -3.010130
-8.812080 -0.977120 -4.510130
-8.812080 -1.977120 -4.510130
-8.812080 -1.977120 -3.010130
-8.698530 6.022881 -3.010130
-8.698530 6.022881 -4.510130
-8.698530 7.022881 -4.510130
-8.698530 7.022881 -3.010130
-8.698530 7.022881 -3.010130
-8.698530 7.022881 -4.510130
-8.698530 6.022881 -4.510130
-8.698530 6.022881 -3.010130
-11.750000 -20.245781 -7.594650
-11.750000 -20.245781 7.566850
-8.684330 -4.977119 -3.010130
-8.684330 -4.977119 -4.510130
-8.684330 -5.977119 -4.510130
-8.684330 -5.977119 -3.010130
-8.684330 2.022880 -3.010130
-8.684330 2.022880 -4.510130
-8.684330 3.022880 -4.510130
-8.684330 3.022880 -3.010130
8.189000 6.022880 -3.010130
8.189000 6.022880 -4.510130
8.189000 5.022880 -4.510130
8.189000 5.022880 -3.010130
8.189000 6.022880 -4.510130
8.189000 6.022880 -3.010130
-8.698530 6.022881 -3.010130
-8.698530 6.022881 -4.510130
-8.684330 3.022880 -3.010130
-8.684330 3.022880 -4.510130
-8.684330 2.022880 -4.510130
-8.684330 2.022880 -3.010130
-13.750000 -19.770220 7.086550
-13.750000 -19.770220 6.711550
-13.750000 19.729780 6.711550
-13.750000 19.729780 7.086550
-8.684330 -2.977120 -3.010130
-8.684330 -2.977120 -4.510130
-8.684330 -3.977119 -4.510130
-8.684330 -3.977119 -3.010130
-8.812080 -1.977120 -3.010130
-8.812080 -1.977120 -4.510130
-8.812080 -0.977120 -4.510130
-8.812080 -0.977120 -3.010130
-11.750000 -18.756599 -4.510130
-8.684330 -18.756599 -4.510130
-8.684330 -18.756599 -7.594650
-11.750000 -18.756599 -7.594650
-8.798270 -6.977119 -3.010130
-8.798270 -6.977119 -4.510130
-8.798270 -7.977119 -4.510130
-8.798270 -7.977119 -3.010130
-8.798270 -7.977119 -3.010130
-8.798270 -7.977119 -4.510130
-8.798270 -6.977119 -4.510130
-8.798270 -6.977119 -3.010130
4 0 1 2 3
4 4 5 6 7
4 8 9 10 11
4 12 13 14 15
4 16 17 18 19
4 20 21 22 23
4 24 25 26 27
4 28 29 30 31
4 32 33 34 35
4 36 37 38 39
4 40 41 42 43
4 44 45 46 47
4 48 49 50 51
4 52 53 54 55
4 56 57 58 59
4 60 61 62 63
10 64 65 66 67 68 69 70 71 72 73
4 74 75 76 77
4 78 79 80 81
4 82 83 84 85
4 86 87 88 89
8 90 91 92 93 94 95 96 97
4 98 99 100 101
3 102 103 92
3 102 92 91
3 104 105 106
4 107 108 109 110
3 79 78 104
3 79 104 111
3 111 104 112
3 112 104 60
3 60 104 61
3 61 104 113
3 113 104 114
3 114 104 115
3 115 104 116
3 116 104 117
3 117 104 118
3 118 104 4
3 4 104 5
3 5 104 119
3 119 104 106
4 120 121 122 123
4 115 116 124 125
4 126 127 128 129
4 130 131 132 133
4 134 135 136 137
4 138 139 140 141
4 142 143 144 145
4 146 147 148 149
8 150 151 152 153 154 155 156 157
4 158 159 160 161
8 162 163 164 165 166 167 168 169
4 170 171 172 173
4 174 175 176 177
4 178 179 180 181
4 182 183 184 185
4 186 187 188 189
4 190 191 192 193
4 194 195 119 106
4 196 197 198 199
4 200 201 202 203
4 204 205 206 207
4 208 209 210 211
4 113 114 212 213
3 214 215 204
4 117 118 216 217
3 205 204 215
8 218 219 220 221 222 223 224 225
4 226 227 228 229
3 230 231 73
3 230 73 72
4 111 112 232 233
4 105 104 234 235
8 236 237 238 239 240 241 242 243
4 244 245 246 247
4 248 249 250 251
4 252 253 254 255
4 256 257 258 259
4 260 261 262 263
4 264 265 266 267
4 268 269 270 271
4 272 273 274 275
4 103 102 276 277
4 278 279 280 281
4 282 283 284 285
4 286 287 288 289
4 290 291 292 293
4 294 295 296 297
36 298 299 300 301 302 303 304 305 306 307 308 309 310 311 312 313 314 315 316 317 318 319 320 321 322 323 324 325 326 327 328 329 330 331 332 333
4 334 335 336 337
6 214 338 339 340 341 215
4 342 343 344 345
4 346 347 348 349
4 350 351 352 353
4 354 355 356 357
4 358 359 360 361
4 362 363 364 365
4 366 367 368 369
3 370 51 50
5 371 51 370 372 373
4 374 375 376 377
4 378 379 380 381
4 382 383 384 385
4 386 387 388 389
4 390 391 392 393
4 394 395 396 397
4 398 399 400 401
4 402 403 404 405
4 406 407 408 409
4 410 411 412 413
4 414 415 416 417
4 231 230 418 419
4 420 421 422 423
4 424 425 426 427
4 428 429 430 431
4 432 433 434 435
4 436 437 438 439
4 440 441 442 443
4 444 445 446 447
4 448 449 450 451
4 452 453 454 455
4 456 457 458 459
4 460 461 462 463
