ply
format ascii 1.0
comment Created by Blender 2.82 (sub 7) - www.blender.org, source file: ''
element vertex 148
property float x
property float y
property float z
element face 36
property list uchar uint vertex_indices
end_header
-25.000000 25.000000 -18.000000
-25.000000 25.000000 16.500000
-28.000000 25.000000 16.500000
-28.000000 25.000000 -18.000000
-25.000000 -28.000000 -18.000000
-28.000000 -28.000000 -18.000000
-28.000000 -25.000031 -18.000000
-25.000000 -25.000031 -18.000000
-25.000000 -28.000000 -18.000000
-25.000000 -28.000000 16.500000
-28.000000 -28.000000 16.500000
-28.000000 -28.000000 -18.000000
28.000000 25.000000 -18.000000
25.000000 25.000000 -18.000000
25.000000 28.000000 -18.000000
28.000000 28.000000 -18.000000
28.000000 28.000000 16.500000
28.000000 25.000000 16.500000
28.000000 25.000000 -18.000000
28.000000 28.000000 -18.000000
28.000000 -25.000031 16.500000
28.000000 -25.000031 -18.000000
25.000000 -25.000031 -18.000000
25.000000 -25.000031 16.500000
25.000000 -28.000000 16.500000
25.000000 -25.000031 16.500000
25.000000 -25.000031 -18.000000
25.000000 -28.000000 -18.000000
28.000000 25.000000 16.500000
25.000000 25.000000 16.500000
25.000000 28.000000 16.500000
28.000000 28.000000 16.500000
-28.000000 -28.000000 18.000000
28.000000 -28.000000 18.000000
28.000000 -0.500000 18.000000
-28.000000 -0.500000 18.000000
28.000000 -28.000000 -18.000000
25.000000 -28.000000 -18.000000
25.000000 -25.000031 -18.000000
28.000000 -25.000031 -18.000000
-25.000000 -28.000000 16.500000
-28.000000 -28.000000 16.500000
-28.000000 -25.000031 16.500000
-25.000000 -25.000031 16.500000
-25.000000 -25.000031 16.500000
-25.000000 -28.000000 16.500000
-25.000000 -28.000000 -18.000000
-25.000000 -25.000031 -18.000000
-25.000000 -25.000031 16.500000
-25.000000 -25.000031 -18.000000
-28.000000 -25.000031 -18.000000
-28.000000 -25.000031 16.500000
-28.000000 -28.000000 16.500000
28.000000 -28.000000 16.500000
28.000000 -28.000000 18.000000
-28.000000 -28.000000 18.000000
-28.000000 -25.000031 16.500000
28.000000 -25.000031 16.500000
25.000000 -25.000031 16.500000
-25.000000 -25.000031 16.500000
-28.000000 25.000000 16.500000
-28.000000 28.000000 16.500000
-28.000000 28.000000 -18.000000
-28.000000 25.000000 -18.000000
-25.000000 25.000000 -18.000000
-28.000000 25.000000 -18.000000
-28.000000 28.000000 -18.000000
-25.000000 28.000000 -18.000000
-28.000000 -0.500000 18.000000
28.000000 -0.500000 18.000000
28.000000 0.500000 18.000000
-28.000000 0.500000 18.000000
28.000000 -25.000031 16.500000
28.000000 -28.000000 16.500000
28.000000 -28.000000 -18.000000
28.000000 -25.000031 -18.000000
-25.000000 28.000000 16.500000
-25.000000 28.000000 -18.000000
-28.000000 28.000000 -18.000000
-28.000000 28.000000 16.500000
-25.000000 28.000000 16.500000
-25.000000 25.000000 16.500000
-25.000000 25.000000 -18.000000
-25.000000 28.000000 -18.000000
-28.000000 -28.000000 18.000000
-28.000000 -0.500000 18.000000
-28.000000 -0.500000 17.690001
-28.000000 0.500000 17.690001
-28.000000 0.500000 18.000000
-28.000000 28.000000 18.000000
-28.000000 28.000000 16.500000
-28.000000 -28.000000 16.500000
-28.000000 28.000000 16.500000
-28.000000 28.000000 18.000000
28.000000 28.000000 18.000000
28.000000 28.000000 16.500000
28.000000 28.000000 16.500000
28.000000 28.000000 -18.000000
25.000000 28.000000 -18.000000
25.000000 28.000000 16.500000
28.000000 -0.500000 17.690001
28.000000 -0.500000 18.000000
28.000000 -28.000000 18.000000
28.000000 -28.000000 16.500000
28.000000 28.000000 16.500000
28.000000 28.000000 18.000000
28.000000 0.500000 18.000000
28.000000 0.500000 17.690001
-28.000000 25.000000 16.500000
-25.000000 25.000000 16.500000
-25.000000 28.000000 16.500000
25.000000 28.000000 16.500000
25.000000 25.000000 16.500000
28.000000 25.000000 16.500000
28.000000 -28.000000 -18.000000
28.000000 -28.000000 16.500000
25.000000 -28.000000 16.500000
25.000000 -28.000000 -18.000000
28.000000 0.500000 18.000000
28.000000 -0.500000 18.000000
28.000000 -0.500000 17.690001
28.000000 0.500000 17.690001
25.000000 -28.000000 16.500000
-25.000000 -28.000000 16.500000
-28.000000 0.500000 18.000000
28.000000 0.500000 18.000000
28.000000 28.000000 18.000000
-28.000000 28.000000 18.000000
-28.000000 -28.000000 16.500000
-28.000000 -25.000031 16.500000
-28.000000 -25.000031 -18.000000
-28.000000 -28.000000 -18.000000
25.000000 25.000000 16.500000
25.000000 28.000000 16.500000
25.000000 28.000000 -18.000000
25.000000 25.000000 -18.000000
-28.000000 -0.500000 18.000000
-28.000000 0.500000 18.000000
-28.000000 0.500000 17.690001
-28.000000 -0.500000 17.690001
28.000000 25.000000 -18.000000
28.000000 25.000000 16.500000
25.000000 25.000000 16.500000
25.000000 25.000000 -18.000000
28.000000 -28.000000 16.500000
25.000000 -28.000000 16.500000
25.000000 -25.000031 16.500000
28.000000 -25.000031 16.500000
4 0 1 2 3
4 4 5 6 7
4 8 9 10 11
4 12 13 14 15
4 16 17 18 19
4 20 21 22 23
4 24 25 26 27
4 28 29 30 31
4 32 33 34 35
4 36 37 38 39
4 40 41 42 43
4 44 45 46 47
4 48 49 50 51
4 52 53 54 55
3 56 57 58
3 56 58 59
4 60 61 62 63
4 64 65 66 67
4 68 69 70 71
4 72 73 74 75
4 76 77 78 79
4 80 81 82 83
8 84 85 86 87 88 89 90 91
4 92 93 94 95
4 96 97 98 99
8 100 101 102 103 104 105 106 107
8 108 109 110 111 112 113 57 56
4 114 115 116 117
4 118 119 120 121
4 122 123 59 58
4 124 125 126 127
4 128 129 130 131
4 132 133 134 135
4 136 137 138 139
4 140 141 142 143
4 144 145 146 147
