ply
format ascii 1.0
comment Created by Blender 2.82 (sub 7) - www.blender.org, source file: ''
element vertex 918
property float x
property float y
property float z
element face 276
property list uchar uint vertex_indices
end_header
0.078755 7.804740 4.500622
0.078755 -7.795270 3.818132
0.078755 7.804740 3.818132
0.313645 0.206799 -4.419923
-0.136675 -0.243509 3.761472
-0.141115 -0.247951 3.761472
-0.141115 -0.247951 -4.419923
0.318085 0.211241 -4.419923
4.247783 -3.718460 -4.500621
0.318085 0.211241 -4.500621
3.316225 7.090390 4.499382
0.075985 -7.804740 4.499382
4.292987 6.557040 4.499382
0.078755 -7.795270 3.818132
0.078615 -7.795300 4.499402
-0.073185 -7.795270 3.818132
-4.594245 4.053240 -4.419923
-4.135045 4.512430 -4.419923
-0.293045 0.670432 -4.419923
-0.752235 0.211241 -4.419923
-2.273465 -7.488780 4.499382
-3.316185 -7.099870 4.499382
-3.316185 -7.099870 3.802922
-2.273465 -7.488780 3.802922
-0.141115 -0.247951 -4.500621
0.313685 0.206842 -4.420696
0.318085 0.211241 -4.500621
-3.746165 -2.782680 3.761472
-0.752235 0.211241 3.761472
-0.293045 -0.247951 3.761472
-3.286975 -3.241870 3.761472
-3.809795 3.268790 3.842172
-3.350605 3.727980 3.842172
-0.293045 0.670432 3.842172
-0.752235 0.211241 3.842172
-3.316185 -7.099870 4.499382
-4.292945 -6.566520 4.499382
-4.292945 -6.566520 3.802922
-3.316185 -7.099870 3.802922
-0.073185 7.804740 3.818132
-0.073185 -7.795270 3.818132
-0.073185 -7.795270 4.500622
-0.073185 7.804740 4.500622
-4.363775 4.741160 -4.431221
-4.822975 4.281970 -4.431221
-4.681945 4.140940 -4.500621
-4.222755 4.600130 -4.500621
-3.316185 7.090390 3.802922
-4.292945 6.557040 3.802922
-4.292945 6.557040 4.499382
-3.316185 7.090390 4.499382
-4.866985 4.325970 -4.270768
-4.407785 4.785160 -4.270768
-3.350605 3.727980 3.842172
-3.809795 3.268790 3.842172
2.852815 -3.241870 3.761472
-0.141115 -0.247951 3.761472
0.318085 0.211241 3.761472
3.312005 -2.782680 3.761472
-4.292945 -6.566520 4.499382
-5.183885 -5.899590 4.499382
-5.183885 -5.899590 3.802922
-4.292945 -6.566520 3.802922
-3.286965 3.664350 3.761472
-3.746165 3.205160 3.761472
-0.752235 0.211241 3.761472
-0.293045 0.670432 3.761472
0.313685 0.215640 -4.420696
0.318085 0.211241 -4.500621
-0.141115 0.670432 -4.500621
-0.075945 -7.804740 4.499382
-0.075945 -7.804740 3.802922
-0.075945 7.795260 3.802922
-0.075945 7.795260 4.499382
-4.276055 4.653430 -4.350553
-4.135045 4.512430 -4.419923
-4.594245 4.053240 -4.419923
-4.735245 4.194240 -4.350553
-0.073185 -7.795270 3.818132
-0.073185 7.804740 3.818132
0.078755 7.804740 3.818132
0.078755 -7.795270 3.818132
0.078755 -7.795270 4.500622
0.078755 7.804740 4.500622
-0.073185 7.804740 4.500622
-0.073185 -7.795270 4.500622
-5.183885 5.890110 3.802922
-5.970785 5.103170 3.802922
-5.970785 5.103170 4.499382
-5.183885 5.890110 4.499382
-1.186005 -7.725350 4.499382
-2.273465 -7.488780 4.499382
-2.273465 -7.488780 3.802922
-1.186005 -7.725350 3.802922
-0.075945 -7.804740 4.499382
-0.075945 7.795260 4.499382
-2.273465 7.479310 4.499382
-5.183885 5.890110 4.499382
-7.171085 3.235500 4.499382
-7.796585 -1.114800 4.499382
-7.171085 -3.244980 4.499382
-5.183885 -5.899590 4.499382
-3.316185 -7.099870 4.499382
-5.183885 -5.899590 3.802922
-7.171085 -3.244980 3.802922
-7.796585 -1.114800 3.802922
-7.171085 3.235500 3.802922
-5.183885 5.890110 3.802922
-2.273465 7.479310 3.802922
-0.075945 7.795260 3.802922
-0.075945 -7.804740 3.802922
-3.316185 -7.099870 3.802922
3.375635 -2.846310 3.842172
0.318085 0.211241 3.842172
-0.141115 -0.247951 3.842172
2.916445 -3.305500 3.842172
-0.074595 -0.160731 -4.500620
-0.141115 -0.247951 -4.500621
-0.199905 -0.189968 -4.500622
-0.074575 -0.067620 -4.500620
-0.202315 0.615231 3.848522
-0.202305 0.615232 -4.500622
0.203285 0.203632 -4.500622
-0.075945 -7.804740 4.499382
-1.186005 -7.725350 4.499382
-1.186005 -7.725350 3.802922
-0.075945 -7.804740 3.802922
0.051605 0.004740 -4.500620
-0.074595 -0.160731 -4.500620
-0.074575 -0.067620 -4.500620
-0.000455 0.004740 -4.500620
-7.875985 -0.004740 3.802922
-7.796585 -1.114800 3.802922
-7.796585 -1.114800 4.499382
-7.875985 -0.004740 4.499382
1.186045 -7.725340 4.499382
0.075985 -7.804740 4.499382
0.075985 -7.804740 3.802922
-7.559985 -2.202250 4.499382
-7.559985 -2.202250 3.802922
-7.171085 -3.244980 3.802922
-7.171085 -3.244980 4.499382
1.186045 -7.725340 4.499382
0.075985 -7.804740 3.802922
1.186045 -7.725340 3.802922
2.273505 -7.488780 4.499382
1.186045 -7.725340 4.499382
1.186045 -7.725340 3.802922
-0.293045 0.670432 3.842172
-0.293045 0.670432 3.761472
-0.752235 0.211241 3.761472
-0.752235 0.211241 3.842172
1.186045 7.715870 3.802922
0.075985 7.795260 3.802922
0.075985 7.795260 4.499382
2.273505 -7.488780 4.499382
1.186045 -7.725340 3.802922
2.273505 -7.488780 3.802922
3.316225 -7.099870 4.499382
2.273505 -7.488780 4.499382
2.273505 -7.488780 3.802922
1.186045 7.715870 3.802922
0.075985 7.795260 4.499382
1.186045 7.715870 4.499382
3.316225 -7.099870 4.499382
2.273505 -7.488780 3.802922
3.316225 -7.099870 3.802922
4.292987 -6.566520 4.499382
3.316225 -7.099870 4.499382
3.316225 -7.099870 3.802922
2.916775 3.497610 -4.500620
3.189915 3.083080 -4.500620
4.247783 4.140940 -4.500621
3.788595 4.600130 -4.500621
3.788595 -4.177650 -4.500621
-0.074625 -0.314442 -4.500620
-0.074595 -0.181436 -4.500620
0.111585 0.004740 -4.500620
0.481375 0.004740 -4.500620
2.273505 7.479310 3.802922
1.186045 7.715870 3.802922
1.186045 7.715870 4.499382
-0.233455 -0.189968 -4.500622
-0.636645 0.203632 -4.500622
-0.231045 0.615232 -4.500622
-0.292245 0.670432 -4.500622
-0.751435 0.211241 -4.500622
-0.292245 -0.247951 -4.500622
2.273505 7.479310 3.802922
1.186045 7.715870 4.499382
2.273505 7.479310 4.499382
4.292987 -6.566520 4.499382
3.316225 -7.099870 3.802922
4.292987 -6.566520 3.802922
5.183904 -5.899590 4.499382
4.292987 -6.566520 4.499382
4.292987 -6.566520 3.802922
3.316225 7.090390 3.802922
2.273505 7.479310 3.802922
2.273505 7.479310 4.499382
3.316225 7.090390 3.802922
2.273505 7.479310 4.499382
3.316225 7.090390 4.499382
5.183904 -5.899590 4.499382
4.292987 -6.566520 3.802922
5.183904 -5.899590 3.802922
5.183904 -5.899590 4.499382
5.183904 -5.899590 3.802922
5.970837 -5.112650 4.499382
4.292987 6.557040 3.802922
3.316225 7.090390 3.802922
3.316225 7.090390 4.499382
-0.073185 -7.795270 3.818132
0.078755 -7.795270 4.500622
-0.073185 -7.795270 4.500622
4.292987 6.557040 3.802922
3.316225 7.090390 4.499382
4.292987 6.557040 4.499382
5.970837 -5.112650 4.499382
5.183904 -5.899590 3.802922
5.970837 -5.112650 3.802922
5.970837 -5.112650 4.499382
5.970837 -5.112650 3.802922
6.637765 -4.221740 4.499382
-0.075945 7.795260 3.802922
-1.186005 7.715870 3.802922
-1.186005 7.715870 4.499382
-0.075945 7.795260 4.499382
5.183901 5.890110 3.802922
4.292987 6.557040 3.802922
4.292987 6.557040 4.499382
-7.171085 3.235500 3.802922
-7.559985 2.192770 3.802922
-7.559985 2.192770 4.499382
-7.171085 3.235500 4.499382
5.183901 5.890110 3.802922
4.292987 6.557040 4.499382
5.183901 5.890110 4.499382
6.637765 -4.221740 4.499382
5.970837 -5.112650 3.802922
6.637765 -4.221740 3.802922
3.316225 -7.099870 4.499382
5.183904 -5.899590 4.499382
7.560035 -2.202250 4.499382
7.796595 1.105320 4.499382
6.637765 4.212260 4.499382
5.183901 5.890110 4.499382
0.075985 -7.804740 4.499382
5.183901 5.890110 4.499382
5.970834 5.103170 3.802922
5.183901 5.890110 3.802922
6.637765 -4.221740 3.802922
7.171115 -3.244980 3.802922
7.171115 -3.244980 4.499382
6.637765 -4.221740 4.499382
-7.171085 -3.244980 4.499382
-7.171085 -3.244980 3.802922
-6.637685 -4.221740 3.802922
-6.637685 -4.221740 4.499382
5.970834 5.103170 4.499382
5.970834 5.103170 3.802922
5.183901 5.890110 4.499382
7.171115 -3.244980 4.499382
7.171115 -3.244980 3.802922
7.560035 -2.202250 4.499382
-6.637685 -4.221740 4.499382
-6.637685 -4.221740 3.802922
-5.970785 -5.112650 3.802922
-5.970785 -5.112650 4.499382
5.970834 5.103170 4.499382
6.637765 4.212260 3.802922
5.970834 5.103170 3.802922
-7.559985 2.192770 3.802922
-7.796585 1.105320 3.802922
-7.796585 1.105320 4.499382
-7.559985 2.192770 4.499382
6.637765 4.212260 4.499382
6.637765 4.212260 3.802922
5.970834 5.103170 4.499382
7.560035 -2.202250 4.499382
7.171115 -3.244980 3.802922
7.560035 -2.202250 3.802922
7.560035 -2.202250 4.499382
7.560035 -2.202250 3.802922
7.796595 -1.114790 4.499382
-7.796585 1.105320 3.802922
-7.875985 -0.004740 3.802922
-7.875985 -0.004740 4.499382
-7.796585 1.105320 4.499382
6.637765 4.212260 4.499382
7.171115 3.235500 3.802922
6.637765 4.212260 3.802922
7.171115 3.235500 4.499382
7.171115 3.235500 3.802922
6.637765 4.212260 4.499382
7.796595 -1.114790 4.499382
7.560035 -2.202250 3.802922
7.796595 -1.114790 3.802922
7.796595 -1.114790 4.499382
7.796595 -1.114790 3.802922
7.875985 -0.004738 4.499382
7.171115 3.235500 4.499382
7.560035 2.192770 3.802922
7.171115 3.235500 3.802922
7.560035 2.192770 4.499382
7.560035 2.192770 3.802922
7.171115 3.235500 4.499382
7.875985 -0.004738 4.499382
7.796595 -1.114790 3.802922
7.875985 -0.004738 3.802922
7.875985 -0.004738 4.499382
7.875985 -0.004738 3.802922
7.796595 1.105320 4.499382
7.560035 2.192770 4.499382
7.796595 1.105320 3.802922
7.560035 2.192770 3.802922
7.796595 1.105320 4.499382
7.796595 1.105320 3.802922
7.560035 2.192770 4.499382
7.796595 1.105320 4.499382
7.875985 -0.004738 3.802922
7.796595 1.105320 3.802922
-0.233455 -0.189968 -4.500622
-0.636645 0.203632 -4.500622
-0.233445 -0.189967 3.848522
-0.233445 -0.189967 3.848522
-0.292245 -0.247950 3.848522
-0.233455 -0.189968 -4.500622
-0.636645 0.203632 -4.500622
-0.636645 0.203632 3.848522
-0.233445 -0.189967 3.848522
-0.199905 -0.189968 -4.500622
-0.141115 -0.247950 3.848522
-0.199915 -0.189967 3.848522
-0.293045 -0.247951 3.761472
-0.292245 -0.247951 -4.500622
-0.233455 -0.189968 -4.500622
-0.293045 -0.247951 3.842172
-3.350605 -3.305500 3.842172
-0.293045 -0.247951 3.761472
0.075985 7.795260 4.499382
0.075985 7.795260 3.802922
0.075985 -7.804740 3.802922
0.075985 -7.804740 4.499382
-2.273465 7.479310 3.802922
-3.316185 7.090390 3.802922
-3.316185 7.090390 4.499382
-2.273465 7.479310 4.499382
-0.636645 0.203632 3.848522
-0.636645 0.203632 -4.500622
-0.231045 0.615231 3.848522
0.111585 0.004740 -4.500620
0.051605 0.004740 -4.500620
0.203285 0.203632 -4.500622
0.318085 0.211241 -4.500621
-0.293045 -0.247951 -4.419923
-4.363775 -4.318680 -4.431221
-0.292245 -0.247951 -4.500622
-0.293045 -0.247951 -4.419923
-0.292245 -0.247951 -4.500622
-0.752235 0.211241 -4.419923
-0.292245 -0.247951 -4.500622
-0.751435 0.211241 -4.500622
-4.222755 -4.177650 -4.500621
-0.292245 -0.247951 -4.500622
-0.751435 0.211241 -4.500622
-0.752235 0.211241 -4.419923
-3.350605 -3.305500 3.842172
-3.286975 -3.241870 3.761472
-0.293045 -0.247951 3.761472
-0.751435 0.211241 3.848522
-0.751435 0.211241 -4.500622
-0.292245 -0.247950 3.848522
-0.751435 0.211241 3.848522
-0.292245 0.670431 3.848522
-0.751435 0.211241 -4.500622
-0.292245 0.670432 -4.500622
-0.751435 0.211241 -4.500622
-0.752235 0.211241 -4.419923
-0.636645 0.203632 -4.500622
-0.231045 0.615232 -4.500622
-0.231045 0.615231 3.848522
-4.363775 -4.318680 -4.431221
-4.222755 -4.177650 -4.500621
-0.292245 -0.247951 -4.500622
-0.751435 0.211241 -4.500622
-4.681945 -3.718460 -4.500621
-4.222755 -4.177650 -4.500621
-4.681945 -3.718460 -4.500621
-0.752235 0.211241 -4.419923
-0.751435 0.211241 -4.500622
-4.681945 4.140940 -4.500621
-0.752235 0.211241 -4.419923
-0.751435 0.211241 -4.500622
0.075985 7.795260 4.499382
3.316225 7.090390 4.499382
-3.350605 -3.305500 3.842172
-4.320085 -4.274990 -4.190151
-3.286975 -3.241870 3.761472
-0.752235 0.211241 3.761472
-3.746165 -2.782680 3.761472
-0.752235 0.211241 3.842172
-0.752235 0.211241 3.761472
-3.746165 3.205160 3.761472
-0.752235 0.211241 3.842172
-0.292245 -0.247951 -4.500622
-0.293045 -0.247951 3.842172
-0.751435 0.211241 -4.500622
-0.231045 0.615231 3.848522
-0.231045 0.615232 -4.500622
-0.292245 0.670431 3.848522
-0.292245 0.670432 -4.500622
-4.222755 4.600130 -4.500621
-0.751435 0.211241 -4.500622
-0.752235 0.211241 -4.419923
-0.293045 0.670432 -4.419923
-0.292245 0.670432 -4.500622
-4.681945 -3.718460 -4.500621
-4.222755 -4.177650 -4.500621
-4.363775 -4.318680 -4.431221
-4.276055 -4.230950 -4.350553
-4.363775 -4.318680 -4.431221
-4.135045 -4.089950 -4.419923
-3.746165 -2.782680 3.761472
-3.809795 -2.846310 3.842172
-0.752235 0.211241 3.842172
-5.970785 5.103170 3.802922
-6.637685 4.212260 3.802922
-6.637685 4.212260 4.499382
-5.970785 5.103170 4.499382
-4.681945 -3.718460 -4.500621
-4.822975 -3.859490 -4.431221
-0.752235 0.211241 -4.419923
-4.222755 4.600130 -4.500621
-4.681945 4.140940 -4.500621
-0.751435 0.211241 -4.500622
-4.681945 4.140940 -4.500621
-4.822975 4.281970 -4.431221
-0.752235 0.211241 -4.419923
-5.183885 -5.899590 4.499382
-5.970785 -5.112650 4.499382
-5.970785 -5.112650 3.802922
-5.183885 -5.899590 3.802922
-4.407785 -4.362680 -4.270768
-4.320085 -4.274990 -4.190151
-3.350605 -3.305500 3.842172
-4.779285 -3.815800 -4.190151
-4.866985 -3.903490 -4.270768
-3.809795 -2.846310 3.842172
-3.746165 3.205160 3.761472
-3.809795 3.268790 3.842172
-0.752235 0.211241 3.842172
-0.231045 0.615232 -4.500622
-0.292245 0.670432 -4.500622
-0.293045 0.670432 3.842172
-0.293045 0.670432 3.842172
-3.350605 3.727980 3.842172
-0.293045 0.670432 3.761472
-0.293045 0.670432 -4.419923
-4.363775 4.741160 -4.431221
-0.292245 0.670432 -4.500622
-4.363775 4.741160 -4.431221
-4.222755 4.600130 -4.500621
-0.292245 0.670432 -4.500622
3.316225 -7.099870 3.802922
0.075985 -7.804740 3.802922
0.075985 7.795260 3.802922
2.273505 7.479310 3.802922
5.183901 5.890110 3.802922
6.637765 4.212260 3.802922
7.796595 1.105320 3.802922
7.560035 -2.202250 3.802922
5.183904 -5.899590 3.802922
-3.350605 3.727980 3.842172
-3.286965 3.664350 3.761472
-0.293045 0.670432 3.761472
-4.822975 -3.859490 -4.431221
-4.681945 -3.718460 -4.500621
-4.363775 -4.318680 -4.431221
-4.594245 -3.630760 -4.419923
-4.735245 -3.771760 -4.350553
-4.135045 -4.089950 -4.419923
-4.135045 -4.089950 -4.419923
-4.276055 -4.230950 -4.350553
-4.407785 -4.362680 -4.270768
-4.363775 -4.318680 -4.431221
-4.276055 -4.230950 -4.350553
-4.779285 -3.815800 -4.190151
-3.809795 -2.846310 3.842172
-3.746165 -2.782680 3.761472
-4.822975 -3.859490 -4.431221
-4.735245 -3.771760 -4.350553
-4.594245 -3.630760 -4.419923
-1.186005 7.715870 3.802922
-2.273465 7.479310 3.802922
-2.273465 7.479310 4.499382
-1.186005 7.715870 4.499382
-4.320085 -4.274990 -4.190151
-4.407785 -4.362680 -4.270768
-4.276055 -4.230950 -4.350553
-4.866985 -3.903490 -4.270768
-4.822975 -3.859490 -4.431221
-4.407785 -4.362680 -4.270768
-4.866985 -3.903490 -4.270768
-4.779285 -3.815800 -4.190151
-4.735245 -3.771760 -4.350553
-3.286965 3.664350 3.761472
-4.320085 4.697470 -4.190151
-3.746165 3.205160 3.761472
-4.779285 4.238280 -4.190151
-3.809795 3.268790 3.842172
-3.746165 3.205160 3.761472
-3.350605 3.727980 3.842172
-4.320085 4.697470 -4.190151
-3.286965 3.664350 3.761472
-4.822975 -3.859490 -4.431221
-4.363775 -4.318680 -4.431221
-4.407785 -4.362680 -4.270768
-4.276055 -4.230950 -4.350553
-4.735245 -3.771760 -4.350553
-4.779285 -3.815800 -4.190151
-4.822975 -3.859490 -4.431221
-4.866985 -3.903490 -4.270768
-4.735245 -3.771760 -4.350553
-4.822975 4.281970 -4.431221
-4.363775 4.741160 -4.431221
-4.407785 4.785160 -4.270768
-4.822975 4.281970 -4.431221
-4.735245 4.194240 -4.350553
-4.594245 4.053240 -4.419923
-4.320085 -4.274990 -4.190151
-4.276055 -4.230950 -4.350553
-4.779285 -3.815800 -4.190151
-4.320085 4.697470 -4.190151
-4.779285 4.238280 -4.190151
-3.746165 3.205160 3.761472
-4.779285 4.238280 -4.190151
-4.866985 4.325970 -4.270768
-3.809795 3.268790 3.842172
-4.276055 4.653430 -4.350553
-4.363775 4.741160 -4.431221
-4.135045 4.512430 -4.419923
-4.292945 6.557040 3.802922
-5.183885 5.890110 3.802922
-5.183885 5.890110 4.499382
-4.292945 6.557040 4.499382
-4.407785 4.785160 -4.270768
-4.320085 4.697470 -4.190151
-3.350605 3.727980 3.842172
-4.363775 4.741160 -4.431221
-4.276055 4.653430 -4.350553
-4.407785 4.785160 -4.270768
-4.866985 4.325970 -4.270768
-4.822975 4.281970 -4.431221
-4.407785 4.785160 -4.270768
-4.822975 4.281970 -4.431221
-4.866985 4.325970 -4.270768
-4.735245 4.194240 -4.350553
-4.779285 4.238280 -4.190151
-4.320085 4.697470 -4.190151
-4.276055 4.653430 -4.350553
-4.866985 4.325970 -4.270768
-4.779285 4.238280 -4.190151
-4.735245 4.194240 -4.350553
-4.320085 4.697470 -4.190151
-4.407785 4.785160 -4.270768
-4.276055 4.653430 -4.350553
-4.276055 4.653430 -4.350553
-4.735245 4.194240 -4.350553
-4.779285 4.238280 -4.190151
2.916445 -3.305500 3.842172
4.432814 -3.903490 -4.270768
3.375635 -2.846310 3.842172
2.916445 -3.305500 3.842172
3.973625 -4.362680 -4.270768
4.432814 -3.903490 -4.270768
3.375635 -2.846310 3.842172
4.432814 -3.903490 -4.270768
4.345124 -3.815800 -4.190151
2.916445 -3.305500 3.842172
-0.141115 -0.247951 3.842172
-0.141115 -0.247951 3.761472
2.916445 -3.305500 3.842172
3.885935 -4.274990 -4.190151
3.973625 -4.362680 -4.270768
3.973625 -4.362680 -4.270768
4.388814 -3.859490 -4.431221
4.432814 -3.903490 -4.270768
4.345124 -3.815800 -4.190151
4.432814 -3.903490 -4.270768
4.301087 -3.771760 -4.350553
4.345124 -3.815800 -4.190151
3.312005 -2.782680 3.761472
3.375635 -2.846310 3.842172
-0.141115 -0.247951 -4.500621
-0.141115 -0.247951 3.842172
-0.199905 -0.189968 -4.500622
2.916445 -3.305500 3.842172
-0.141115 -0.247951 3.761472
2.852815 -3.241870 3.761472
-0.141115 -0.247951 -4.500621
3.788595 -4.177650 -4.500621
3.929625 -4.318680 -4.431221
3.375635 -2.846310 3.842172
3.312005 -2.782680 3.761472
0.318085 0.211241 3.842172
3.885935 -4.274990 -4.190151
3.841895 -4.230950 -4.350553
3.973625 -4.362680 -4.270768
2.916445 -3.305500 3.842172
2.852815 -3.241870 3.761472
3.885935 -4.274990 -4.190151
4.388814 -3.859490 -4.431221
3.973625 -4.362680 -4.270768
3.929625 -4.318680 -4.431221
4.432814 -3.903490 -4.270768
4.388814 -3.859490 -4.431221
4.301087 -3.771760 -4.350553
4.345124 -3.815800 -4.190151
4.301087 -3.771760 -4.350553
3.841895 -4.230950 -4.350553
3.312005 -2.782680 3.761472
4.345124 -3.815800 -4.190151
3.885935 -4.274990 -4.190151
-0.136715 -0.243552 3.762242
-0.141115 -0.247951 3.842172
-0.141115 -0.247951 3.761472
4.292987 6.557040 4.499382
0.075985 -7.804740 4.499382
5.183901 5.890110 4.499382
3.929625 -4.318680 -4.431221
-0.141115 -0.247951 -4.419923
-0.141115 -0.247951 -4.500621
0.318085 0.211241 3.761472
-0.136675 -0.243509 3.761472
0.318085 0.211241 -4.500621
0.318085 0.211241 3.842172
-0.141115 -0.247951 3.842172
-0.136715 -0.243552 3.762242
-0.141115 0.670432 -4.500621
3.788595 4.600130 -4.500621
3.929625 4.741160 -4.431221
0.203285 0.203632 3.848522
-0.199915 -0.189967 3.848522
-0.141115 -0.247950 3.848522
0.318075 0.211241 3.848522
-0.141115 0.670431 3.848522
-0.202315 0.615231 3.848522
0.318085 0.211241 3.842172
3.312005 -2.782680 3.761472
0.318085 0.211241 3.761472
4.345124 -3.815800 -4.190151
3.841895 -4.230950 -4.350553
3.885935 -4.274990 -4.190151
3.973625 -4.362680 -4.270768
3.841895 -4.230950 -4.350553
3.929625 -4.318680 -4.431221
3.312005 -2.782680 3.761472
3.885935 -4.274990 -4.190151
2.852815 -3.241870 3.761472
3.929625 -4.318680 -4.431221
4.247783 -3.718460 -4.500621
4.388814 -3.859490 -4.431221
4.388814 -3.859490 -4.431221
4.160084 -3.630760 -4.419923
4.301087 -3.771760 -4.350553
3.841895 -4.230950 -4.350553
4.301087 -3.771760 -4.350553
3.700895 -4.089950 -4.419923
-7.796585 -1.114800 4.499382
-7.796585 -1.114800 3.802922
-7.559985 -2.202250 3.802922
-7.559985 -2.202250 4.499382
-4.320085 -4.274990 -4.190151
-4.779285 -3.815800 -4.190151
-3.746165 -2.782680 3.761472
-3.286975 -3.241870 3.761472
-0.141115 -0.247951 -4.500621
-0.074595 -0.160731 -4.500620
-0.074595 -0.181436 -4.500620
0.318075 0.211241 3.848522
0.318085 0.211241 3.842172
-0.141115 0.670432 3.842172
-0.141115 0.670431 3.848522
-0.199915 -0.189967 3.848522
0.203285 0.203632 -4.500622
-0.199905 -0.189968 -4.500622
-0.141115 0.670431 3.848522
-0.202305 0.615232 -4.500622
-0.202315 0.615231 3.848522
0.078755 7.804740 4.500622
0.078755 -7.795270 4.500622
0.078755 -7.795270 3.818132
0.318085 0.211241 3.842172
-0.136715 0.666033 3.762242
-0.141115 0.670432 3.842172
-0.141115 -0.247951 3.842172
0.318085 0.211241 3.842172
0.318075 0.211241 3.848522
-0.141115 -0.247950 3.848522
-0.074595 -0.181436 -4.500620
-0.074595 -0.160731 -4.500620
0.051605 0.004740 -4.500620
0.111585 0.004740 -4.500620
3.841895 -4.230950 -4.350553
3.700895 -4.089950 -4.419923
3.929625 -4.318680 -4.431221
3.929625 -4.318680 -4.431221
3.788595 -4.177650 -4.500621
4.247783 -3.718460 -4.500621
4.388814 -3.859490 -4.431221
4.247783 -3.718460 -4.500621
0.318085 0.211241 -4.419923
3.700895 -4.089950 -4.419923
4.301087 -3.771760 -4.350553
4.160084 -3.630760 -4.419923
0.203285 0.203632 -4.500622
-0.199915 -0.189967 3.848522
0.203285 0.203632 3.848522
0.051605 0.004740 -4.500620
-0.000455 0.004740 -4.500620
0.203285 0.203632 -4.500622
-0.293045 -0.247951 3.761472
-0.752235 0.211241 3.761472
-0.752235 0.211241 3.842172
-0.293045 -0.247951 3.842172
-0.074625 -0.314442 -4.500620
-0.141115 -0.247951 -4.500621
-0.074595 -0.181436 -4.500620
-0.292245 0.670431 3.848522
-0.751435 0.211241 3.848522
-0.292245 -0.247950 3.848522
-0.233445 -0.189967 3.848522
-0.636645 0.203632 3.848522
-0.231045 0.615231 3.848522
3.700895 -4.089950 -4.419923
4.160084 -3.630760 -4.419923
-0.141115 -0.247951 -4.419923
0.318085 0.211241 3.761472
0.318085 0.211241 -4.500621
-0.136675 0.665991 3.761472
0.318085 0.211241 -4.419923
-0.141115 -0.247951 -4.419923
4.160084 -3.630760 -4.419923
-0.136715 0.666033 3.762242
-0.141115 0.670432 3.761472
-0.141115 0.670432 3.842172
-0.074465 0.580096 -4.500620
-0.074475 0.485511 -4.500620
-0.202305 0.615232 -4.500622
-0.141115 0.670432 -4.500621
-0.141115 0.670432 3.761472
-0.141115 0.670432 -4.500621
-0.202305 0.615232 -4.500622
-0.141115 0.670432 3.842172
2.916445 3.727980 3.842172
3.375635 3.268790 3.842172
0.318085 0.211241 3.842172
4.247783 -3.718460 -4.500621
3.788595 -4.177650 -4.500621
0.481375 0.004740 -4.500620
0.524585 0.004740 -4.500620
-0.202315 0.615231 3.848522
0.203285 0.203632 -4.500622
0.203285 0.203632 3.848522
-0.293045 -0.247951 3.842172
-0.752235 0.211241 3.842172
-3.809795 -2.846310 3.842172
-3.350605 -3.305500 3.842172
-6.637685 4.212260 3.802922
-7.171085 3.235500 3.802922
-7.171085 3.235500 4.499382
-6.637685 4.212260 4.499382
-4.866985 -3.903490 -4.270768
-4.407785 -4.362680 -4.270768
-3.350605 -3.305500 3.842172
-3.809795 -2.846310 3.842172
0.111585 0.004740 -4.500620
0.318085 0.211241 -4.500621
0.481375 0.004740 -4.500620
2.916445 3.727980 3.842172
-0.141115 0.670432 3.842172
-0.141115 0.670432 3.761472
3.375635 3.268790 3.842172
3.312005 3.205160 3.761472
0.318085 0.211241 3.842172
0.318085 0.211241 -4.419923
4.247783 4.140940 -4.500621
0.318085 0.211241 -4.500621
0.203285 0.203632 -4.500622
-0.074475 0.485511 -4.500620
-0.074465 0.580096 -4.500620
0.481375 0.004740 -4.500620
0.318085 0.211241 -4.500621
0.524585 0.004740 -4.500620
-0.136675 0.665991 3.761472
0.313645 0.215683 -4.419923
-0.141115 0.670432 -4.419923
-0.141115 0.670432 3.761472
0.318085 0.211241 -4.500621
2.916775 3.497610 -4.500620
4.388814 4.281970 -4.431221
4.247783 4.140940 -4.500621
0.318085 0.211241 -4.419923
-0.074435 0.737109 -4.500620
-0.074455 0.603779 -4.500620
0.318085 0.211241 -4.500621
2.916775 3.497610 -4.500620
2.825145 3.636680 -4.500620
-4.594245 -3.630760 -4.419923
-4.135045 -4.089950 -4.419923
-0.293045 -0.247951 -4.419923
-0.752235 0.211241 -4.419923
0.318085 0.211241 -4.500621
0.203285 0.203632 -4.500622
-0.074465 0.580096 -4.500620
-0.074455 0.603779 -4.500620
-0.074455 0.603779 -4.500620
-0.074435 0.737109 -4.500620
-0.141115 0.670432 -4.500621
-0.074465 0.580096 -4.500620
-0.141115 0.670432 -4.500621
-0.074455 0.603779 -4.500620
2.916445 3.727980 3.842172
-0.141115 0.670432 3.761472
2.852815 3.664350 3.761472
2.916445 3.727980 3.842172
4.432814 4.325970 -4.270768
3.375635 3.268790 3.842172
4.345124 4.238280 -4.190151
3.312005 3.205160 3.761472
3.375635 3.268790 3.842172
0.318085 0.211241 3.842172
3.312005 3.205160 3.761472
0.318085 0.211241 3.761472
4.247783 4.140940 -4.500621
4.388814 4.281970 -4.431221
3.929625 4.741160 -4.431221
2.916775 3.497610 -4.500620
3.788595 4.600130 -4.500621
2.825145 3.636680 -4.500620
4.247783 4.140940 -4.500621
3.929625 4.741160 -4.431221
3.788595 4.600130 -4.500621
-0.292245 0.670432 -4.500622
-0.751435 0.211241 -4.500622
-0.293045 0.670432 3.842172
0.078755 7.804740 3.818132
-0.073185 7.804740 3.818132
-0.073185 7.804740 4.500622
0.078755 7.804740 4.500622
0.318085 0.211241 3.761472
3.312005 3.205160 3.761472
2.852815 3.664350 3.761472
-0.141115 0.670432 3.761472
2.916445 3.727980 3.842172
2.852815 3.664350 3.761472
3.885935 4.697470 -4.190151
2.916445 3.727980 3.842172
3.973625 4.785160 -4.270768
4.432814 4.325970 -4.270768
3.375635 3.268790 3.842172
4.432814 4.325970 -4.270768
4.345124 4.238280 -4.190151
3.312005 3.205160 3.761472
4.345124 4.238280 -4.190151
3.885935 4.697470 -4.190151
4.388814 4.281970 -4.431221
3.973625 4.785160 -4.270768
3.929625 4.741160 -4.431221
0.318085 0.211241 -4.419923
-0.141115 0.670432 -4.419923
4.160084 4.053240 -4.419923
4.388814 4.281970 -4.431221
4.160084 4.053240 -4.419923
4.301087 4.194240 -4.350553
3.929625 4.741160 -4.431221
-0.141115 0.670432 -4.419923
-0.141115 0.670432 -4.500621
3.312005 3.205160 3.761472
3.885935 4.697470 -4.190151
2.852815 3.664350 3.761472
2.916445 3.727980 3.842172
3.885935 4.697470 -4.190151
3.973625 4.785160 -4.270768
3.973625 4.785160 -4.270768
4.388814 4.281970 -4.431221
4.432814 4.325970 -4.270768
4.345124 4.238280 -4.190151
4.432814 4.325970 -4.270768
4.301087 4.194240 -4.350553
4.345124 4.238280 -4.190151
3.841895 4.653430 -4.350553
3.885935 4.697470 -4.190151
3.973625 4.785160 -4.270768
3.841895 4.653430 -4.350553
3.929625 4.741160 -4.431221
-0.141115 0.670432 -4.419923
3.700895 4.512430 -4.419923
4.160084 4.053240 -4.419923
4.160084 4.053240 -4.419923
3.700895 4.512430 -4.419923
4.301087 4.194240 -4.350553
4.432814 4.325970 -4.270768
4.388814 4.281970 -4.431221
4.301087 4.194240 -4.350553
3.885935 4.697470 -4.190151
3.841895 4.653430 -4.350553
3.973625 4.785160 -4.270768
4.345124 4.238280 -4.190151
4.301087 4.194240 -4.350553
3.841895 4.653430 -4.350553
3.841895 4.653430 -4.350553
3.700895 4.512430 -4.419923
3.929625 4.741160 -4.431221
4.301087 4.194240 -4.350553
3.700895 4.512430 -4.419923
3.841895 4.653430 -4.350553
3 0 1 2
4 3 4 5 6
3 7 8 9
3 10 11 12
3 13 14 15
4 16 17 18 19
4 20 21 22 23
3 24 25 26
4 27 28 29 30
4 31 32 33 34
4 35 36 37 38
4 39 40 41 42
4 43 44 45 46
4 47 48 49 50
4 51 52 53 54
4 55 56 57 58
4 59 60 61 62
4 63 64 65 66
3 67 68 69
4 70 71 72 73
4 74 75 76 77
4 78 79 80 81
4 82 83 84 85
4 86 87 88 89
4 90 91 92 93
9 94 95 96 97 98 99 100 101 102
9 103 104 105 106 107 108 109 110 111
4 112 113 114 115
4 116 117 118 119
3 120 121 122
4 123 124 125 126
4 127 128 129 130
4 131 132 133 134
3 135 136 137
4 138 139 140 141
3 142 143 144
3 145 146 147
4 148 149 150 151
3 152 153 154
3 155 156 157
3 158 159 160
3 161 162 163
3 164 165 166
3 167 168 169
4 170 171 172 173
5 174 175 176 177 178
3 179 180 181
6 182 183 184 185 186 187
3 188 189 190
3 191 192 193
3 194 195 196
3 197 198 199
3 200 201 202
3 203 204 205
3 206 207 208
3 209 210 211
3 212 213 214
3 215 216 217
3 218 219 220
3 221 222 223
4 224 225 226 227
3 228 229 230
4 231 232 233 234
3 235 236 237
3 238 239 240
7 241 242 243 244 245 246 247
3 248 249 250
4 251 252 253 254
4 255 256 257 258
3 259 260 261
3 262 263 264
4 265 266 267 268
3 269 270 271
4 272 273 274 275
3 276 277 278
3 279 280 281
3 282 283 284
4 285 286 287 288
3 289 290 291
3 292 293 294
3 295 296 297
3 298 299 300
3 301 302 303
3 304 305 306
3 307 308 309
3 310 311 312
3 313 314 315
3 316 317 318
3 319 320 321
3 322 323 324
3 325 326 327
3 328 329 330
3 331 332 333
3 334 335 336
3 337 338 339
4 340 341 342 343
4 344 345 346 347
3 348 349 350
4 351 352 353 354
3 355 356 357
3 358 359 360
3 361 362 363
3 364 365 366
3 367 368 369
3 370 371 372
3 373 374 375
3 376 377 378
3 379 380 381
3 382 383 384
3 385 386 387
3 388 389 390
3 391 392 393
3 394 247 395
3 396 397 398
3 399 400 401
3 402 403 404
3 405 406 407
3 408 409 410
3 411 412 413
3 414 415 416
3 417 418 419
3 420 421 422
3 423 424 425
4 426 427 428 429
3 430 431 432
3 433 434 435
3 436 437 438
4 439 440 441 442
3 443 444 445
3 446 447 448
3 449 450 451
3 452 453 454
3 455 456 457
3 458 459 460
3 461 462 463
9 464 465 466 467 468 469 470 471 472
3 473 474 475
3 476 477 478
3 479 480 481
3 482 480 483
3 484 485 486
3 487 488 489
3 490 491 492
4 493 494 495 496
3 497 498 499
3 500 501 502
3 503 504 505
3 506 507 508
3 509 510 511
3 512 513 514
3 515 516 517
3 518 519 520
3 521 522 523
3 524 525 526
3 527 528 529
3 530 531 532
3 533 534 535
3 536 537 538
3 539 540 541
4 542 543 544 545
3 546 547 548
3 549 550 551
3 552 553 554
3 555 556 557
3 558 559 560
3 561 562 563
3 564 565 566
3 567 568 569
3 570 571 572
3 573 574 575
3 576 577 578
3 579 580 581
3 582 583 584
3 585 586 587
3 588 589 590
3 591 592 593
3 594 595 596
3 597 598 599
3 600 601 602
3 603 604 605
3 606 607 608
3 609 610 611
3 612 613 614
3 615 616 617
3 618 619 620
3 621 622 623
3 624 625 626
3 627 628 629
3 630 631 632
3 633 634 635
3 636 637 638
3 639 640 641
6 642 643 644 645 646 647
3 648 649 650
3 651 652 653
3 654 655 656
3 657 658 659
3 660 661 662
3 663 664 665
3 666 667 668
4 669 670 671 672
4 673 674 675 676
3 677 678 679
4 680 681 682 683
3 684 685 686
3 687 688 689
3 690 691 692
3 693 694 695
4 696 697 698 699
4 700 701 702 703
3 704 705 706
3 707 708 709
3 710 711 712
3 713 714 715
3 716 717 718
3 719 720 721
4 722 723 724 725
3 726 727 728
6 729 730 731 732 733 734
3 735 736 737
3 738 739 740
3 741 742 743
3 744 745 746
4 747 748 749 750
3 751 752 753
4 754 755 756 757
4 758 759 760 761
3 762 763 764
4 765 766 767 768
4 769 770 771 772
4 773 774 775 776
3 777 778 779
3 780 781 782
3 783 784 785
3 786 787 788
3 789 790 791
3 792 793 794
4 795 796 797 798
3 799 171 800
3 801 802 803
5 804 805 806 807 808
4 809 810 811 812
4 813 814 815 816
3 817 818 819
3 820 821 822
3 823 824 825
3 826 827 828
3 829 830 831
3 832 833 834
3 835 836 837
3 838 839 840
3 841 842 843
3 844 845 846
4 847 848 849 850
4 851 852 853 854
3 855 856 857
3 858 859 860
3 861 862 863
3 864 865 866
3 867 868 869
3 870 871 872
3 873 874 875
3 876 877 878
3 879 880 881
3 882 883 884
3 885 886 887
3 888 889 890
3 891 892 893
3 894 895 896
3 897 898 899
3 900 901 902
3 903 904 905
3 906 907 908
3 909 910 911
3 912 913 914
3 915 916 917
