ply
format ascii 1.0
comment Created by Blender 2.82 (sub 7) - www.blender.org, source file: ''
element vertex 194
property float x
property float y
property float z
element face 54
property list uchar uint vertex_indices
end_header
6.959699 -6.959720 8.464550
2.547499 -9.507120 8.464550
-2.547411 -9.507120 8.464550
-6.959691 -6.959720 8.464550
-9.507123 -2.547420 8.464550
-1.181081 -3.740120 8.464550
-1.181081 -4.330720 8.464550
1.181099 -4.330720 8.464550
1.181099 -3.740120 8.464550
9.507199 -2.547420 8.464550
-6.959691 -6.959720 8.464550
-6.959691 -6.959720 10.039350
-2.547411 -9.507120 10.039350
-2.547411 -9.507120 8.464550
-6.819081 3.937010 -9.251948
-6.819081 3.937010 -10.039350
-7.873991 0.000000 -10.039350
-7.873991 0.000000 -9.251948
1.181099 -3.740120 8.464550
1.181099 -4.330720 8.464550
1.181099 -4.330720 -9.251948
1.181099 -3.740120 -9.251948
2.037999 7.605720 -9.251948
2.037999 7.605720 -10.039350
-2.037921 7.605720 -10.039350
-2.037921 7.605720 -9.251948
-1.181081 -4.330720 8.464550
-1.181081 -3.740120 8.464550
-1.181081 -3.740120 -9.251948
-1.181081 -4.330720 -9.251948
-4.921241 8.523874 8.464550
-2.547411 9.507146 8.464550
2.547499 9.507146 8.464550
4.921299 8.523874 8.464550
8.523899 4.921260 8.464550
9.507199 2.547430 8.464550
-9.842499 0.000000 8.464550
-8.523851 4.921260 8.464550
4.921299 8.523874 10.039350
2.547499 9.507146 10.039350
-2.547411 9.507146 10.039350
-4.921241 8.523874 10.039350
-8.523851 4.921260 10.039350
-9.842499 0.000000 10.039350
-9.507123 -2.547420 10.039350
-6.959691 -6.959720 10.039350
-2.547411 -9.507120 10.039350
2.547499 -9.507120 10.039350
6.959699 -6.959720 10.039350
9.507199 -2.547420 10.039350
9.507199 2.547430 10.039350
8.523899 4.921260 10.039350
3.936999 -6.819120 -10.039350
3.936999 -6.819120 -9.251948
0.000019 -7.874020 -9.251948
0.000019 -7.874020 -10.039350
9.507199 2.547430 8.464550
9.507199 -2.547420 8.464550
9.507199 -2.547420 10.039350
9.507199 2.547430 10.039350
7.873999 0.000000 -9.251948
6.819099 -3.937020 -9.251948
6.819099 -3.937020 -10.039350
7.873999 0.000000 -10.039350
-2.547411 9.507146 8.464550
-2.547411 9.507146 10.039350
2.547499 9.507146 10.039350
2.547499 9.507146 8.464550
-9.507123 -2.547420 8.464550
-9.842499 0.000000 8.464550
-9.842499 0.000000 10.039350
-9.507123 -2.547420 10.039350
4.921299 8.523874 8.464550
8.523899 4.921260 8.464550
8.523899 4.921260 10.039350
4.921299 8.523874 10.039350
2.547499 -9.507120 8.464550
2.547499 -9.507120 10.039350
-2.547411 -9.507120 10.039350
-2.547411 -9.507120 8.464550
2.547499 -9.507120 10.039350
2.547499 -9.507120 8.464550
8.523899 4.921260 8.464550
4.921299 8.523874 8.464550
2.547499 9.507146 8.464550
-2.547411 9.507146 8.464550
-4.921241 8.523874 8.464550
-8.523851 4.921260 8.464550
-9.842499 0.000000 8.464550
-9.507123 -2.547420 8.464550
-1.181081 -3.740120 8.464550
1.181099 -3.740120 8.464550
1.181099 -4.330720 8.464550
-1.181081 -4.330720 8.464550
8.523899 -4.921220 8.464550
9.507199 -2.547420 8.464550
9.507199 2.547430 8.464550
1.181099 -3.740120 -9.251948
1.181099 -4.330720 -9.251948
5.567799 -5.567720 -9.251948
7.605699 -2.037920 -9.251948
-1.181081 -3.740120 -9.251948
-6.819081 -3.937020 -9.251948
-3.936991 -6.819120 -9.251948
0.000019 -7.874020 -9.251948
3.936999 -6.819120 -9.251948
-1.181081 -4.330720 -9.251948
7.873999 0.000000 -9.251948
6.819099 3.937010 -9.251948
5.567799 5.567770 -9.251948
2.037999 7.605720 -9.251948
-2.037921 7.605720 -9.251948
-3.936991 6.819100 -9.251948
-6.819081 3.937010 -9.251948
-7.873991 0.000000 -9.251948
5.567799 5.567770 -9.251948
5.567799 5.567770 -10.039350
6.819099 3.937010 -9.251948
6.819099 3.937010 -10.039350
-9.842499 0.000000 10.039350
-8.523851 4.921260 10.039350
-8.523851 4.921260 8.464550
-9.842499 0.000000 8.464550
2.547499 9.507146 10.039350
4.921299 8.523874 10.039350
8.523899 4.921260 10.039350
9.507199 2.547430 10.039350
9.507199 -2.547420 10.039350
6.959699 -6.959720 10.039350
2.547499 -9.507120 10.039350
-2.547411 -9.507120 10.039350
-6.959691 -6.959720 10.039350
-9.507123 -2.547420 10.039350
-9.842499 0.000000 10.039350
-8.523851 4.921260 10.039350
-4.921241 8.523874 10.039350
-2.547411 9.507146 10.039350
4.921299 8.523874 10.039350
8.523899 4.921260 10.039350
8.523899 4.921260 8.464550
4.921299 8.523874 8.464550
-4.921241 8.523874 10.039350
-4.921241 8.523874 8.464550
-2.547411 9.507146 8.464550
-2.547411 9.507146 10.039350
9.507199 2.547430 10.039350
9.507199 2.547430 8.464550
-3.936991 -6.819120 -10.039350
-3.936991 -6.819120 -9.251948
-6.819081 -3.937020 -9.251948
-6.819081 -3.937020 -10.039350
6.959699 -6.959720 8.464550
6.959699 -6.959720 10.039350
2.547499 9.507146 10.039350
2.547499 9.507146 8.464550
-3.936991 6.819100 -9.251948
-3.936991 6.819100 -10.039350
3.936999 -6.819120 -10.039350
0.000019 -7.874020 -10.039350
-3.936991 -6.819120 -10.039350
-6.819081 -3.937020 -10.039350
-7.873991 0.000000 -10.039350
-6.819081 3.937010 -10.039350
-3.936991 6.819100 -10.039350
-2.037921 7.605720 -10.039350
2.037999 7.605720 -10.039350
5.567799 5.567770 -10.039350
6.819099 3.937010 -10.039350
7.873999 0.000000 -10.039350
6.819099 -3.937020 -10.039350
-9.507123 -2.547420 10.039350
-9.507123 -2.547420 8.464550
2.547499 -9.507120 8.464550
6.959699 -6.959720 8.464550
-6.959691 -6.959720 8.464550
-2.547411 -9.507120 8.464550
9.507199 -2.547420 10.039350
9.507199 -2.547420 8.464550
6.959699 -6.959720 8.464550
6.959699 -6.959720 10.039350
-6.959691 -6.959720 10.039350
-6.959691 -6.959720 8.464550
-4.921241 8.523874 8.464550
-4.921241 8.523874 10.039350
1.181099 -4.330720 -9.251948
1.181099 -4.330720 8.464550
-1.181081 -4.330720 8.464550
-1.181081 -4.330720 -9.251948
-8.523851 4.921260 8.464550
-8.523851 4.921260 10.039350
1.181099 -3.740120 8.464550
1.181099 -3.740120 -9.251948
-1.181081 -3.740120 -9.251948
-1.181081 -3.740120 8.464550
10 0 1 2 3 4 5 6 7 8 9
4 10 11 12 13
4 14 15 16 17
4 18 19 20 21
4 22 23 24 25
4 26 27 28 29
12 30 31 32 33 34 35 9 8 5 4 36 37
14 38 39 40 41 42 43 44 45 46 47 48 49 50 51
4 52 53 54 55
4 56 57 58 59
4 60 61 62 63
4 64 65 66 67
4 61 53 52 62
4 68 69 70 71
4 72 73 74 75
4 76 77 78 79
4 12 80 81 13
15 82 83 84 85 86 87 88 89 90 91 92 93 94 95 96
5 97 98 99 100 101
17 102 103 104 105 99 98 106 101 100 107 108 109 110 111 112 113 114
4 23 22 115 116
4 117 60 63 118
4 119 120 121 122
4 73 56 59 74
14 123 124 125 126 127 128 129 130 131 132 133 134 135 136
4 137 138 139 140
4 141 142 143 144
4 138 145 146 139
4 147 148 149 150
4 57 151 152 58
4 137 140 67 66
4 153 154 72 75
4 54 148 147 55
4 14 155 156 15
4 149 17 16 150
4 10 68 71 11
13 157 158 159 160 161 162 163 164 165 166 167 168 169
4 152 151 81 80
4 170 119 122 171
8 172 173 94 93 90 89 174 175
4 145 176 177 146
4 178 179 77 76
4 176 179 178 177
4 180 170 171 181
4 115 117 118 116
4 65 64 182 183
4 25 24 156 155
4 144 143 154 153
4 184 185 186 187
4 78 180 181 79
4 188 142 141 189
4 190 191 192 193
4 69 188 189 70
4 183 182 121 120
