ply
format ascii 1.0
comment Created by Blender 2.82 (sub 7) - www.blender.org, source file: ''
element vertex 102
property float x
property float y
property float z
element face 46
property list uchar uint vertex_indices
end_header
14.592779 14.592722 20.506451
14.592780 -14.592699 20.506451
14.999980 -14.999999 20.256451
14.999979 14.999999 20.256451
0.288679 -1.077099 -19.030560
-0.288621 -1.077099 -19.030560
-0.288621 -1.077099 19.506451
0.288679 -1.077099 19.506451
1.115179 0.000001 19.506451
0.965779 0.557601 19.506451
0.965779 0.557601 -19.030560
1.115179 0.000001 -19.030560
14.999980 -14.999999 19.756451
-14.999979 -14.999999 20.256451
-14.999979 -14.999999 19.756451
8.898079 2.075301 -19.530563
9.210979 -0.301499 -19.530563
9.210979 -0.301499 -20.506451
8.898079 2.075301 -20.506451
0.965779 -0.557599 19.506451
0.557580 -0.965699 19.506451
0.288679 -1.077099 19.506451
-0.288621 -1.077099 19.506451
-0.788521 -0.788499 19.506451
-0.965720 -0.557599 19.506451
-1.115120 0.000001 19.506451
1.115179 0.000001 19.506451
-1.115120 0.000001 19.506451
-1.115120 0.000001 -19.030560
-0.965720 0.557601 -19.030560
-0.965720 0.557601 19.506451
14.999979 14.999999 19.756451
14.592779 14.592722 19.506451
-14.592701 14.592722 19.506451
-14.999980 14.999999 19.756451
-14.592700 -14.592699 20.506451
-14.592701 14.592722 20.506451
-8.842641 2.075301 -19.530563
-6.465831 6.192051 -19.530563
-6.465831 6.192051 -20.506451
-8.842641 2.075301 -20.506451
2.404579 -9.171899 -19.530563
-2.349120 -9.171899 -19.530563
-2.349120 -9.171899 -20.506451
2.404579 -9.171899 -20.506451
-0.965720 -0.557599 19.506451
-0.788521 -0.788499 19.506451
-0.788521 -0.788499 -19.030560
-0.965720 -0.557599 -19.030560
-2.349121 8.568861 -20.506451
-2.349121 8.568861 -19.530563
2.404579 8.568861 -19.530563
2.404579 8.568861 -20.506451
7.980679 -4.893199 -19.530563
7.980679 -4.893199 -20.506451
-14.999980 14.999999 20.256451
-9.155551 -0.301499 -19.530563
-9.155551 -0.301499 -20.506451
4.619379 -8.254499 -19.530563
6.521280 6.192051 -19.530563
-7.925221 -4.893199 -19.530563
-4.563920 -8.254499 -19.530563
-4.563920 -8.254499 -20.506451
4.619379 -8.254499 -20.506451
0.965779 -0.557599 19.506451
0.965779 -0.557599 -19.030560
0.557580 -0.965699 -19.030560
0.557580 -0.965699 19.506451
-2.349121 8.568861 -20.506451
2.404579 8.568861 -20.506451
6.521280 6.192051 -20.506451
8.898079 2.075301 -20.506451
9.210979 -0.301499 -20.506451
7.980679 -4.893199 -20.506451
4.619379 -8.254499 -20.506451
2.404579 -9.171899 -20.506451
-2.349120 -9.171899 -20.506451
-4.563920 -8.254499 -20.506451
-7.925221 -4.893199 -20.506451
-9.155551 -0.301499 -20.506451
-8.842641 2.075301 -20.506451
-6.465831 6.192051 -20.506451
0.288679 1.077101 19.506451
0.557580 0.965701 19.506451
0.965779 0.557601 19.506451
1.115179 0.000001 19.506451
-1.115120 0.000001 19.506451
-0.965720 0.557601 19.506451
-0.788521 0.788501 19.506451
-0.288621 1.077101 19.506451
-7.925221 -4.893199 -20.506451
6.521280 6.192051 -20.506451
0.557580 0.965701 -19.030560
0.557580 0.965701 19.506451
0.288679 1.077101 19.506451
0.288679 1.077101 -19.030560
-0.788521 0.788501 19.506451
-0.788521 0.788501 -19.030560
-0.288621 1.077101 -19.030560
-0.288621 1.077101 19.506451
14.592780 -14.592699 19.506451
-14.592700 -14.592699 19.506451
4 0 1 2 3
4 4 5 6 7
4 8 9 10 11
4 12 2 13 14
4 15 16 17 18
8 19 20 21 22 23 24 25 26
4 27 28 29 30
4 31 32 33 34
4 35 1 0 36
4 37 38 39 40
4 41 42 43 44
4 45 46 47 48
4 49 50 51 52
4 16 53 54 17
4 13 35 36 55
4 56 37 40 57
14 42 41 58 53 16 15 59 51 50 38 37 56 60 61
4 43 42 61 62
4 53 58 63 54
4 64 65 66 67
14 68 69 70 71 72 73 74 75 76 77 78 79 80 81
4 3 31 34 55
8 82 83 84 85 86 87 88 89
4 61 60 90 62
4 5 47 46 6
4 59 15 18 91
4 52 51 59 91
4 92 93 94 95
4 96 30 29 97
4 67 66 4 7
4 50 49 39 38
4 36 0 3 55
4 96 97 98 99
4 63 58 41 44
4 12 100 32 31
4 32 100 101 33
4 8 11 65 64
4 99 98 95 94
4 93 92 10 9
4 12 14 101 100
4 13 2 1 35
4 33 101 14 34
4 45 48 28 27
4 31 3 2 12
4 14 13 55 34
4 60 56 57 90
