ply
format ascii 1.0
comment Created by Blender 2.82 (sub 7) - www.blender.org, source file: ''
element vertex 682
property float x
property float y
property float z
element face 181
property list uchar uint vertex_indices
end_header
-9.142600 16.333506 -3.250000
-9.142600 16.333506 -3.750000
-12.489000 5.978505 -3.750000
-12.489000 5.978505 -3.250000
12.433900 0.816105 9.250000
12.933900 0.316105 -9.750000
13.433900 0.316105 -9.750000
13.933900 0.816105 9.250000
-9.499200 16.970606 9.750000
-12.976100 -6.211695 9.750000
-12.976100 -6.211695 9.000000
-9.499200 16.970606 9.000000
-3.346400 -22.311995 -3.250000
0.000000 -23.098995 -3.250000
0.000000 -23.098995 -3.750000
-3.346400 -22.311995 -3.750000
-9.142600 16.333506 9.500000
-9.142600 16.333506 9.750000
-12.489000 5.978505 9.750000
-12.489000 5.978505 9.500000
12.976100 6.211705 9.750000
12.976100 6.211705 9.000000
9.499200 16.970606 9.000000
9.499200 16.970606 9.750000
-9.499200 -16.970594 -3.250000
-9.499200 -16.970594 -4.000000
-3.476900 -23.182196 -4.000000
-3.476900 -23.182196 -3.250000
-0.250000 -22.895796 -9.750000
-0.250000 -23.395796 -9.750000
-0.750000 -23.895796 9.250000
-0.750000 -22.395796 9.250000
6.716900 20.784605 9.750000
9.499200 16.970606 9.750000
9.142600 16.333506 9.750000
6.464800 20.004305 9.750000
12.433900 -0.683895 9.250000
13.933900 -0.683895 9.250000
13.933900 0.816105 9.250000
12.433900 0.816105 9.250000
-12.976100 6.211705 -3.250000
-12.976100 6.211705 -4.000000
-3.346400 22.311905 9.750000
-3.346400 22.311905 9.500000
3.346400 22.311905 -3.750000
0.000000 23.099026 -3.750000
0.000000 23.099026 -3.250000
3.346400 22.311905 -3.250000
0.000000 23.099026 9.000000
-3.346400 22.311905 9.000000
-3.346400 22.311905 9.250000
0.000000 23.099026 9.250000
0.000000 23.099026 -3.250000
-3.346400 22.311905 -3.250000
-3.346400 22.311905 -3.750000
0.000000 23.099026 -3.750000
-9.142600 16.333506 -3.250000
-9.142600 16.333506 -3.750000
11.197300 -11.549495 9.750000
12.489000 -5.978495 9.750000
12.929600 0.000005 9.750000
12.489000 5.978505 9.750000
12.489000 5.978505 9.500000
12.929600 0.000005 9.500000
12.489000 -5.978495 9.500000
11.197300 -11.549495 9.500000
9.142600 -16.333494 9.500000
9.142600 -16.333494 9.750000
-0.250000 23.499994 -9.750000
0.250000 23.499994 -9.750000
0.750000 23.999994 9.250000
-0.750000 23.999994 9.250000
-12.933900 0.316105 -9.750000
-12.933900 -0.183895 -9.750000
-12.433900 -0.683895 9.250000
-12.433900 0.816105 9.250000
-13.933900 -0.683895 9.250000
-12.433900 -0.683895 9.250000
-12.433900 0.816105 9.250000
-13.933900 0.816105 9.250000
9.142600 16.333506 9.000000
9.142600 16.333506 9.250000
11.197300 11.549505 9.250000
12.489000 5.978505 9.250000
12.929600 0.000005 9.250000
12.489000 -5.978495 9.250000
12.489000 -5.978495 9.000000
12.929600 0.000005 9.000000
12.489000 5.978505 9.000000
11.197300 11.549505 9.000000
-12.489000 -5.978495 -3.750000
-11.197300 -11.549495 -3.750000
-9.142600 -16.333494 -3.750000
-9.142600 -16.333494 -3.250000
-11.197300 -11.549495 -3.250000
-12.489000 -5.978495 -3.250000
9.142600 -16.333494 -3.250000
9.142600 -16.333494 -3.750000
3.346400 -22.311995 -3.750000
3.346400 -22.311995 -3.250000
-3.346400 -22.311995 -3.750000
0.000000 -23.098995 -3.750000
0.000000 -23.098995 -3.250000
-3.346400 -22.311995 -3.250000
-9.142600 -16.333494 9.000000
-3.346400 -22.311995 9.000000
-3.346400 -22.311995 9.250000
-9.142600 -16.333494 9.250000
-3.346400 22.311905 -3.750000
-3.346400 22.311905 -3.250000
-9.142600 -16.333494 -3.250000
-12.489000 -5.978495 -3.250000
-9.142600 16.333506 -3.250000
-3.346400 22.311905 -3.250000
0.000000 23.099026 -3.250000
3.346400 22.311905 -3.250000
9.142600 16.333506 -3.250000
12.489000 5.978505 -3.250000
9.142600 -16.333494 -3.250000
3.346400 -22.311995 -3.250000
0.000000 -23.098995 -3.250000
-3.346400 -22.311995 -3.250000
0.000000 -23.999994 -3.250000
3.476900 -23.182196 -3.250000
9.499200 -16.970594 -3.250000
12.976100 6.211705 -3.250000
9.499200 16.970606 -3.250000
3.476900 23.182215 -3.250000
0.000000 23.999994 -3.250000
-3.476900 23.182215 -3.250000
-9.499200 16.970606 -3.250000
-12.976100 -6.211695 -3.250000
-9.499200 -16.970594 -3.250000
9.142600 16.333506 -3.750000
9.142600 16.333506 -3.250000
-12.489000 -5.978495 9.500000
-11.197300 -11.549495 9.500000
-9.142600 -16.333494 9.500000
-9.142600 -16.333494 9.750000
-11.197300 -11.549495 9.750000
-12.489000 -5.978495 9.750000
-12.489000 5.978505 9.750000
-12.489000 5.978505 9.500000
9.499200 16.970606 -4.000000
9.499200 16.970606 -3.250000
3.476900 23.182215 -3.250000
3.476900 23.182215 -4.000000
-9.499200 16.970606 -3.250000
-12.976100 6.211705 -3.250000
-12.976100 6.211705 -4.000000
-9.499200 16.970606 -4.000000
-9.499200 16.970606 9.750000
-9.499200 16.970606 9.000000
-12.976100 -6.211695 9.000000
-12.976100 -6.211695 9.750000
9.499200 16.970606 9.000000
9.499200 16.970606 9.750000
3.476900 23.182215 9.750000
3.476900 23.182215 9.000000
-9.142600 -16.333494 9.500000
-3.346400 -22.311995 9.500000
0.000000 -23.098995 9.500000
3.346400 -22.311995 9.500000
9.142600 -16.333494 9.500000
12.489000 5.978505 9.500000
9.142600 16.333506 9.500000
3.346400 22.311905 9.500000
0.000000 23.099026 9.500000
-3.346400 22.311905 9.500000
-9.142600 16.333506 9.500000
-12.489000 5.978505 9.500000
-0.250000 -23.395796 -9.750000
-0.250000 -22.895796 -9.750000
0.250000 -22.895796 -9.750000
0.250000 -23.395796 -9.750000
0.750000 22.500006 9.250000
-0.750000 22.500006 9.250000
-0.250000 22.999994 -9.750000
0.250000 22.999994 -9.750000
3.346400 22.311905 9.250000
0.000000 23.099026 9.250000
0.000000 23.099026 9.000000
3.346400 22.311905 9.000000
3.346400 -22.311995 9.750000
0.000000 -23.098995 9.750000
-3.346400 -22.311995 9.750000
0.000000 -23.999994 9.750000
3.476900 -23.182196 9.750000
9.499200 -16.970594 9.750000
12.976100 -6.211695 9.750000
9.499200 16.970606 9.750000
3.476900 23.182215 9.750000
0.000000 23.999994 9.750000
-3.476900 23.182215 9.750000
-9.499200 16.970606 9.750000
-12.976100 -6.211695 9.750000
-6.716900 -20.784595 9.750000
-6.464800 -20.004395 9.750000
-12.489000 -5.978495 9.750000
-9.142600 16.333506 9.750000
-3.346400 22.311905 9.750000
0.000000 23.099026 9.750000
3.346400 22.311905 9.750000
9.142600 16.333506 9.750000
12.489000 -5.978495 9.750000
9.142600 -16.333494 9.750000
-0.250000 22.999994 -9.750000
-0.250000 23.499994 -9.750000
0.250000 23.499994 -9.750000
0.250000 22.999994 -9.750000
-3.476900 -23.182196 9.750000
-0.750000 23.999994 9.250000
0.750000 23.999994 9.250000
0.250000 23.499994 -9.750000
-0.250000 23.499994 -9.750000
9.142600 -16.333494 9.500000
9.142600 -16.333494 9.750000
3.346400 -22.311995 9.750000
3.346400 -22.311995 9.500000
13.433900 -0.183895 -9.750000
12.933900 -0.183895 -9.750000
12.933900 0.316105 -9.750000
13.433900 0.316105 -9.750000
0.750000 23.999994 9.250000
0.250000 23.499994 -9.750000
0.250000 22.999994 -9.750000
0.750000 22.500006 9.250000
-13.433900 -0.183895 -9.750000
-12.933900 -0.183895 -9.750000
-12.433900 -0.683895 9.250000
-13.933900 -0.683895 9.250000
-12.433900 0.816105 9.250000
-12.933900 0.316105 -9.750000
-13.433900 0.316105 -9.750000
-13.933900 0.816105 9.250000
3.476900 23.182215 9.000000
3.476900 23.182215 9.750000
9.142600 16.333506 9.250000
9.142600 16.333506 9.000000
12.489000 -5.978495 9.000000
12.489000 -5.978495 9.250000
-11.197300 -11.549495 9.500000
-12.489000 -5.978495 9.500000
-12.929600 0.000005 9.500000
-12.929600 0.000005 9.750000
-12.489000 -5.978495 9.750000
-11.197300 -11.549495 9.750000
-9.142600 -16.333494 9.750000
-9.142600 -16.333494 9.500000
3.346400 22.311905 -3.250000
3.346400 22.311905 -3.750000
12.976100 -6.211695 9.000000
12.976100 -6.211695 9.750000
3.476900 -23.182196 9.750000
3.476900 -23.182196 9.000000
9.499200 -16.970594 9.000000
9.499200 -16.970594 9.750000
11.197300 11.549505 -3.250000
12.489000 5.978505 -3.250000
12.929600 0.000005 -3.250000
12.489000 -5.978495 -3.250000
12.489000 -5.978495 -3.750000
12.929600 0.000005 -3.750000
12.489000 5.978505 -3.750000
11.197300 11.549505 -3.750000
9.142600 16.333506 9.750000
9.142600 16.333506 9.500000
3.346400 22.311905 9.000000
3.346400 22.311905 9.250000
0.000000 -23.098995 9.250000
3.346400 -22.311995 9.250000
3.346400 -22.311995 9.000000
0.000000 -23.098995 9.000000
0.000000 -23.098995 9.500000
0.000000 -23.098995 9.750000
3.346400 22.311905 9.750000
0.000000 23.099026 9.750000
0.000000 23.099026 9.500000
3.346400 22.311905 9.500000
0.000000 23.099026 9.500000
-3.346400 22.311905 9.500000
-3.346400 22.311905 9.750000
0.000000 23.099026 9.750000
-3.476900 -23.182196 -3.250000
-9.499200 16.970606 -3.250000
-9.499200 16.970606 -4.000000
-12.976100 6.211705 9.000000
-12.929600 0.000005 9.000000
-11.197300 -11.549495 9.000000
-6.464800 -20.004395 9.000000
-3.346400 -22.311995 9.000000
0.000000 -23.098995 9.000000
3.346400 -22.311995 9.000000
9.142600 -16.333494 9.000000
12.489000 5.978505 9.000000
9.142600 16.333506 9.000000
3.346400 22.311905 9.000000
0.000000 23.099026 9.000000
-3.346400 22.311905 9.000000
-6.464800 20.004305 9.000000
-11.197300 11.549505 9.000000
-11.634100 12.000005 9.000000
-6.716900 20.784605 9.000000
-3.476900 23.182215 9.000000
0.000000 23.999994 9.000000
3.476900 23.182215 9.000000
9.499200 16.970606 9.000000
12.976100 6.211705 9.000000
9.499200 -16.970594 9.000000
3.476900 -23.182196 9.000000
0.000000 -23.999994 9.000000
-3.476900 -23.182196 9.000000
-9.499200 -16.970594 9.000000
-12.976100 -6.211695 9.000000
-3.476900 23.182215 9.000000
-3.476900 23.182215 9.750000
-9.142600 16.333506 9.750000
-9.142600 16.333506 9.500000
3.346400 -22.311995 9.500000
3.346400 -22.311995 9.750000
9.142600 -16.333494 9.250000
9.142600 -16.333494 9.000000
0.000000 -23.098995 9.750000
0.000000 -23.098995 9.500000
0.000000 -23.098995 9.000000
3.346400 -22.311995 9.000000
3.346400 -22.311995 9.250000
0.000000 -23.098995 9.250000
0.000000 23.999994 9.000000
0.000000 23.999994 9.750000
9.499200 -16.970594 -4.000000
9.499200 -16.970594 -3.250000
12.976100 6.211705 -3.250000
12.976100 6.211705 -4.000000
-3.346400 -22.311995 9.750000
-3.346400 -22.311995 9.500000
12.489000 -5.978495 9.750000
11.197300 -11.549495 9.750000
11.197300 -11.549495 9.500000
12.489000 -5.978495 9.500000
12.489000 5.978505 9.500000
12.489000 5.978505 9.750000
-9.499200 -16.970594 -4.000000
-9.499200 -16.970594 -3.250000
-3.476900 -23.182196 -3.250000
-3.476900 -23.182196 -4.000000
9.499200 -16.970594 9.000000
3.476900 -23.182196 9.000000
3.476900 -23.182196 9.750000
9.499200 -16.970594 9.750000
9.499200 -16.970594 -4.000000
12.976100 -6.211695 -4.000000
12.976100 -6.211695 -3.250000
9.499200 -16.970594 -3.250000
-0.750000 -22.395796 9.250000
-0.750000 -23.895796 9.250000
0.750000 -23.895796 9.250000
0.750000 -22.395796 9.250000
-3.346400 22.311905 9.250000
-3.346400 22.311905 9.000000
0.250000 -23.395796 -9.750000
-0.250000 -23.395796 -9.750000
-0.750000 -23.895796 9.250000
0.750000 -23.895796 9.250000
12.433900 0.816105 9.250000
13.933900 0.816105 9.250000
13.933900 -0.683895 9.250000
12.433900 -0.683895 9.250000
0.750000 -23.895796 9.250000
0.250000 -23.395796 -9.750000
0.250000 -22.895796 -9.750000
0.750000 -22.395796 9.250000
12.433900 -0.683895 9.250000
12.433900 0.816105 9.250000
12.933900 0.316105 -9.750000
12.933900 -0.183895 -9.750000
-0.750000 23.999994 9.250000
-0.750000 22.500006 9.250000
0.750000 22.500006 9.250000
0.750000 23.999994 9.250000
0.750000 22.500006 9.250000
0.250000 22.999994 -9.750000
0.250000 23.499994 -9.750000
0.750000 23.999994 9.250000
13.933900 0.816105 9.250000
13.433900 0.316105 -9.750000
12.933900 0.316105 -9.750000
12.433900 0.816105 9.250000
-0.750000 23.999994 9.250000
-0.750000 22.500006 9.250000
-0.250000 22.999994 -9.750000
-0.250000 23.499994 -9.750000
-12.433900 0.816105 9.250000
-12.433900 -0.683895 9.250000
-12.933900 -0.183895 -9.750000
-12.933900 0.316105 -9.750000
-9.142600 -16.333494 -3.750000
-12.489000 -5.978495 -3.750000
-12.489000 -5.978495 -3.250000
-9.142600 -16.333494 -3.250000
12.489000 5.978505 -3.250000
9.142600 16.333506 -3.250000
9.142600 16.333506 -3.750000
12.489000 5.978505 -3.750000
-9.499200 -16.970594 9.750000
-9.499200 -16.970594 9.000000
-3.476900 -23.182196 9.000000
-3.476900 -23.182196 9.750000
-9.142600 16.333506 -3.750000
-12.489000 -5.978495 -3.750000
-9.142600 -16.333494 -3.750000
-3.346400 -22.311995 -3.750000
0.000000 -23.098995 -3.750000
3.346400 -22.311995 -3.750000
9.142600 -16.333494 -3.750000
12.489000 -5.978495 -3.750000
9.142600 16.333506 -3.750000
3.346400 22.311905 -3.750000
0.000000 23.099026 -3.750000
-3.346400 22.311905 -3.750000
-3.346400 -22.311995 9.250000
-3.346400 -22.311995 9.000000
9.142600 -16.333494 9.250000
9.142600 -16.333494 9.000000
0.000000 -23.999994 9.750000
0.000000 -23.999994 9.000000
9.142600 -16.333494 -3.750000
9.142600 -16.333494 -3.250000
3.346400 -22.311995 -3.250000
3.346400 -22.311995 -3.750000
3.476900 -23.182196 -3.250000
3.476900 -23.182196 -4.000000
9.499200 16.970606 -4.000000
9.499200 16.970606 -3.250000
-9.142600 -16.333494 9.250000
-9.142600 -16.333494 9.000000
3.476900 23.182215 -4.000000
3.476900 23.182215 -3.250000
-3.346400 -22.311995 9.500000
-3.346400 -22.311995 9.750000
-9.142600 16.333506 9.000000
-9.142600 16.333506 9.250000
3.346400 22.311905 9.500000
3.346400 22.311905 9.750000
-3.476900 23.182215 -3.250000
-3.476900 23.182215 -4.000000
-11.197300 11.549505 9.000000
-12.489000 5.978505 9.000000
-12.929600 0.000005 9.000000
-12.489000 -5.978495 9.000000
-12.489000 -5.978495 9.250000
-12.929600 0.000005 9.250000
-12.489000 5.978505 9.250000
-11.197300 11.549505 9.250000
-11.197300 -11.549495 9.000000
-12.489000 -5.978495 9.000000
-12.929600 0.000005 9.000000
-12.489000 5.978505 9.000000
-12.489000 5.978505 9.250000
-12.929600 0.000005 9.250000
-12.489000 -5.978495 9.250000
-11.197300 -11.549495 9.250000
0.000000 23.999994 -3.250000
0.000000 23.999994 -4.000000
11.197300 -11.549495 -3.250000
12.489000 -5.978495 -3.250000
12.929600 0.000005 -3.250000
12.929600 0.000005 -3.750000
12.489000 -5.978495 -3.750000
11.197300 -11.549495 -3.750000
0.000000 -23.999994 -3.250000
0.000000 -23.999994 -4.000000
12.976100 -6.211695 -4.000000
9.499200 -16.970594 -4.000000
3.476900 -23.182196 -4.000000
0.000000 -23.999994 -4.000000
-3.476900 -23.182196 -4.000000
-9.499200 -16.970594 -4.000000
-12.976100 6.211705 -4.000000
-9.499200 16.970606 -4.000000
-3.476900 23.182215 -4.000000
0.000000 23.999994 -4.000000
3.476900 23.182215 -4.000000
9.499200 16.970606 -4.000000
3.346400 22.311905 9.750000
0.000000 23.099026 9.750000
-3.346400 22.311905 9.750000
-9.142600 16.333506 9.750000
-12.489000 -5.978495 9.750000
-9.142600 -16.333494 9.750000
-3.346400 -22.311995 9.750000
0.000000 -23.098995 9.750000
3.346400 -22.311995 9.750000
9.142600 -16.333494 9.750000
12.489000 5.978505 9.750000
12.976100 6.211705 9.750000
9.499200 -16.970594 9.750000
3.476900 -23.182196 9.750000
0.000000 -23.999994 9.750000
-3.476900 -23.182196 9.750000
-9.499200 -16.970594 9.750000
-12.976100 -6.211695 9.750000
-9.499200 16.970606 9.750000
-3.476900 23.182215 9.750000
0.000000 23.999994 9.750000
3.476900 23.182215 9.750000
3.346400 22.311905 -3.250000
0.000000 23.999994 -3.250000
3.476900 23.182215 -3.250000
9.499200 16.970606 -3.250000
12.976100 6.211705 -3.250000
9.499200 -16.970594 -3.250000
3.476900 -23.182196 -3.250000
0.000000 -23.999994 -3.250000
-3.476900 -23.182196 -3.250000
-9.499200 -16.970594 -3.250000
-12.976100 6.211705 -3.250000
-9.499200 16.970606 -3.250000
-3.476900 23.182215 -3.250000
0.000000 23.099026 -3.250000
-3.346400 22.311905 -3.250000
-9.142600 16.333506 -3.250000
-12.489000 5.978505 -3.250000
-9.142600 -16.333494 -3.250000
-3.346400 -22.311995 -3.250000
0.000000 -23.098995 -3.250000
3.346400 -22.311995 -3.250000
9.142600 -16.333494 -3.250000
12.489000 5.978505 -3.250000
9.142600 16.333506 -3.250000
-9.142600 16.333506 9.000000
-9.142600 16.333506 9.250000
0.000000 23.999994 -4.000000
0.000000 23.999994 -3.250000
-3.476900 23.182215 -4.000000
-3.476900 23.182215 -3.250000
0.000000 -23.999994 -4.000000
0.000000 -23.999994 -3.250000
-9.499200 -16.970594 9.750000
-9.499200 -16.970594 9.000000
3.476900 -23.182196 -4.000000
3.476900 -23.182196 -3.250000
0.000000 -23.999994 9.000000
-3.476900 -23.182196 9.000000
-3.476900 -23.182196 9.750000
0.000000 -23.999994 9.750000
0.000000 -23.999994 -4.000000
3.476900 -23.182196 -4.000000
9.499200 -16.970594 -4.000000
12.976100 -6.211695 -4.000000
9.499200 16.970606 -4.000000
3.476900 23.182215 -4.000000
0.000000 23.999994 -4.000000
-3.476900 23.182215 -4.000000
-9.499200 16.970606 -4.000000
-12.976100 -6.211695 -4.000000
-9.499200 -16.970594 -4.000000
-3.476900 -23.182196 -4.000000
-3.476900 23.182215 9.750000
-3.476900 23.182215 9.000000
9.142600 16.333506 9.500000
9.142600 16.333506 9.750000
9.499200 -16.970594 9.000000
12.976100 -6.211695 9.000000
12.489000 -5.978495 9.000000
9.142600 -16.333494 9.000000
3.346400 -22.311995 9.000000
0.000000 -23.098995 9.000000
-3.346400 -22.311995 9.000000
-9.142600 -16.333494 9.000000
-12.489000 -5.978495 9.000000
-9.142600 16.333506 9.000000
-3.346400 22.311905 9.000000
0.000000 23.099026 9.000000
3.346400 22.311905 9.000000
6.464800 20.004305 9.000000
6.716900 20.784605 9.000000
3.476900 23.182215 9.000000
0.000000 23.999994 9.000000
-3.476900 23.182215 9.000000
-9.499200 16.970606 9.000000
-12.976100 -6.211695 9.000000
-9.499200 -16.970594 9.000000
-3.476900 -23.182196 9.000000
0.000000 -23.999994 9.000000
3.476900 -23.182196 9.000000
0.000000 -23.098995 9.250000
-3.346400 -22.311995 9.250000
-9.142600 -16.333494 9.250000
-12.489000 -5.978495 9.250000
-9.142600 16.333506 9.250000
-3.346400 22.311905 9.250000
0.000000 23.099026 9.250000
3.346400 22.311905 9.250000
9.142600 16.333506 9.250000
12.489000 5.978505 9.250000
9.142600 -16.333494 9.250000
3.346400 -22.311995 9.250000
0.750000 -23.895796 9.250000
-0.750000 -23.895796 9.250000
-0.250000 -23.395796 -9.750000
0.250000 -23.395796 -9.750000
-0.750000 -22.395796 9.250000
0.750000 -22.395796 9.250000
0.250000 -22.895796 -9.750000
-0.250000 -22.895796 -9.750000
-0.250000 -22.895796 -9.750000
0.250000 -22.895796 -9.750000
0.750000 -22.395796 9.250000
-0.750000 -22.395796 9.250000
0.750000 -22.395796 9.250000
0.250000 -22.895796 -9.750000
0.250000 -23.395796 -9.750000
0.750000 -23.895796 9.250000
-0.750000 -22.395796 9.250000
-0.750000 -23.895796 9.250000
-0.250000 -23.395796 -9.750000
-0.250000 -22.895796 -9.750000
0.250000 22.999994 -9.750000
-0.250000 22.999994 -9.750000
-0.750000 22.500006 9.250000
0.750000 22.500006 9.250000
0.750000 -22.395796 9.250000
0.750000 -23.895796 9.250000
-0.750000 -23.895796 9.250000
-0.750000 -22.395796 9.250000
9.142600 16.333506 9.000000
9.499200 16.970606 9.000000
-13.933900 0.816105 9.250000
-12.433900 0.816105 9.250000
-12.433900 -0.683895 9.250000
-13.933900 -0.683895 9.250000
13.933900 0.816105 9.250000
13.933900 -0.683895 9.250000
13.433900 -0.183895 -9.750000
13.433900 0.316105 -9.750000
12.933900 -0.183895 -9.750000
13.433900 -0.183895 -9.750000
13.933900 -0.683895 9.250000
12.433900 -0.683895 9.250000
0.750000 23.999994 9.250000
0.750000 22.500006 9.250000
-0.750000 22.500006 9.250000
-0.750000 23.999994 9.250000
13.433900 0.316105 -9.750000
13.433900 -0.183895 -9.750000
13.933900 -0.683895 9.250000
13.933900 0.816105 9.250000
12.933900 -0.183895 -9.750000
12.933900 0.316105 -9.750000
12.433900 0.816105 9.250000
12.433900 -0.683895 9.250000
0.000000 23.999994 9.750000
0.000000 23.999994 9.000000
-0.250000 23.499994 -9.750000
-0.250000 22.999994 -9.750000
-0.750000 22.500006 9.250000
-0.750000 23.999994 9.250000
-13.933900 -0.683895 9.250000
-13.933900 0.816105 9.250000
-13.433900 0.316105 -9.750000
-13.433900 -0.183895 -9.750000
12.433900 -0.683895 9.250000
13.933900 -0.683895 9.250000
13.433900 -0.183895 -9.750000
12.933900 -0.183895 -9.750000
-13.933900 0.816105 9.250000
-13.433900 0.316105 -9.750000
-12.933900 0.316105 -9.750000
-12.433900 0.816105 9.250000
-13.433900 -0.183895 -9.750000
-13.433900 0.316105 -9.750000
-13.933900 0.816105 9.250000
-13.933900 -0.683895 9.250000
-13.933900 -0.683895 9.250000
-12.433900 -0.683895 9.250000
-12.933900 -0.183895 -9.750000
-13.433900 -0.183895 -9.750000
-12.933900 -0.183895 -9.750000
-13.433900 -0.183895 -9.750000
-13.433900 0.316105 -9.750000
-12.933900 0.316105 -9.750000
4 0 1 2 3
4 4 5 6 7
4 8 9 10 11
4 12 13 14 15
4 16 17 18 19
4 20 21 22 23
4 24 25 26 27
4 28 29 30 31
4 32 33 34 35
4 36 37 38 39
4 40 41 25 24
4 42 17 16 43
4 44 45 46 47
4 48 49 50 51
4 52 53 54 55
4 53 56 57 54
10 58 59 60 61 62 63 64 65 66 67
4 68 69 70 71
4 72 73 74 75
4 76 77 78 79
10 80 81 82 83 84 85 86 87 88 89
8 90 91 92 93 94 95 3 2
4 96 97 98 99
4 100 101 102 103
4 104 105 106 107
4 45 108 109 46
4 108 1 0 109
23 110 111 112 113 114 115 116 117 118 119 120 121 122 123 124 125 126 127 128 129 130 131 132
4 133 44 47 134
8 135 136 137 138 139 140 141 142
4 143 144 145 146
4 147 148 149 150
4 151 152 153 154
4 155 156 157 158
12 159 160 161 162 163 164 165 166 167 168 169 170
4 171 172 173 174
4 175 176 177 178
4 179 180 181 182
23 183 184 185 186 187 188 189 190 191 192 193 194 195 196 197 198 199 200 201 202 203 204 205
4 206 207 208 209
5 197 196 210 186 185
4 211 212 213 214
4 215 216 217 218
4 219 220 221 222
4 223 224 225 226
4 227 228 229 230
4 231 232 233 234
4 23 22 235 236
4 237 238 239 240
10 241 242 243 19 18 244 245 246 247 248
4 249 52 55 250
4 251 252 156 155
4 253 254 255 256
10 133 134 257 258 259 260 261 262 263 264
4 61 265 266 62
4 80 267 268 81
4 269 270 271 272
4 273 218 217 274
4 275 276 277 278
4 279 280 281 282
5 110 132 283 122 121
4 267 48 51 268
4 179 182 238 237
4 41 40 284 285
28 286 287 288 289 290 291 292 293 294 295 296 297 298 299 300 301 302 303 304 305 306 307 308 309 310 311 312 313
4 300 287 286 301
4 11 314 315 8
4 316 317 142 141
4 255 21 20 256
4 67 66 318 319
4 86 85 320 321
4 322 319 318 323
4 324 325 326 327
4 314 328 329 315
4 330 331 332 333
4 328 158 157 329
4 334 322 323 335
8 336 337 216 215 338 339 340 341
4 342 343 344 345
4 346 347 348 349
4 350 351 352 353
4 354 355 356 357
4 180 358 359 181
4 360 361 362 363
4 364 365 366 367
4 368 369 370 371
4 372 373 374 375
4 376 377 378 379
4 380 381 382 383
4 384 385 386 387
4 388 389 390 391
4 392 393 394 395
4 396 397 398 399
4 276 42 43 277
4 400 401 402 403
4 404 405 406 407
12 408 409 410 411 412 413 414 415 416 417 418 419
4 420 269 272 421
4 321 320 326 325
4 13 99 98 14
4 422 423 271 270
4 280 317 316 281
4 424 407 406 425
4 399 12 15 396
4 426 427 428 429
4 253 424 425 254
4 430 431 350 353
4 261 260 427 426
4 351 432 433 352
4 101 429 428 102
4 434 420 421 435
4 433 432 436 437
4 240 239 423 422
4 137 438 439 138
4 92 100 103 93
4 49 440 441 50
4 442 279 282 443
4 438 273 274 439
4 284 444 445 285
10 441 440 446 447 448 449 450 451 452 453
4 57 56 398 397
10 454 455 456 457 458 459 460 461 434 435
4 462 437 436 463
4 148 343 342 149
4 444 462 463 445
4 333 332 144 143
10 464 465 466 400 403 467 468 469 97 96
4 430 470 471 431
4 470 27 26 471
12 472 473 474 475 476 477 478 479 480 481 482 483
4 247 334 335 248
4 450 449 104 107
4 105 324 327 106
26 484 485 486 487 488 489 490 491 492 493 494 34 33 495 496 497 498 499 500 501 502 503 504 505 32 35
4 401 249 250 402
24 506 507 508 509 510 511 512 513 514 515 516 517 518 519 520 521 522 523 524 525 526 527 528 529
4 507 506 519 518
4 530 531 458 457
4 265 275 278 266
4 358 531 530 359
4 532 146 145 533
4 534 532 533 535
4 150 534 535 147
4 536 345 344 537
4 10 9 538 539
4 252 251 346 349
4 540 541 331 330
4 540 536 537 541
4 542 543 544 545
12 546 547 548 549 550 551 552 553 554 555 556 557
4 347 542 545 348
4 151 558 559 152
4 560 442 443 561
4 560 561 341 340
24 562 563 564 565 566 567 568 569 570 571 572 573 574 575 576 577 578 579 580 581 582 583 584 585
12 586 587 588 589 590 591 592 593 594 595 596 597
4 598 599 600 601
4 602 603 604 605
4 606 607 608 609
4 610 611 612 613
4 614 615 616 617
4 618 619 620 621
4 622 623 624 625
6 626 564 563 627 576 575
4 628 629 630 631
4 632 633 634 635
4 636 637 638 639
4 640 641 642 643
4 644 645 646 647
4 648 649 650 651
4 558 652 653 559
4 654 655 656 657
4 658 659 660 661
4 662 663 664 665
4 652 236 235 653
4 666 667 668 669
4 154 153 405 404
4 670 671 672 673
4 674 675 676 677
4 678 679 680 681
4 543 539 538 544
