ply
format ascii 1.0
comment Created by Blender 2.82 (sub 7) - www.blender.org, source file: ''
element vertex 383
property float x
property float y
property float z
element face 141
property list uchar uint vertex_indices
end_header
0.140386 -0.140386 -0.276465
0.075976 -0.183423 -0.276465
0.076391 -0.184424 -0.278087
0.141152 -0.141152 -0.278087
0.184424 -0.076391 -0.278087
0.183423 -0.075976 -0.276465
0.064705 0.241481 0.285000
0.176777 0.176777 0.285000
0.176777 0.176777 0.260000
0.064705 0.241481 0.260000
-0.184424 -0.076391 -0.281913
-0.141152 -0.141152 -0.281913
-0.141421 -0.141421 -0.280000
-0.184776 -0.076537 -0.280000
0.141152 -0.141152 -0.281913
0.184424 -0.076391 -0.281913
0.184776 -0.076537 -0.280000
0.141421 -0.141421 -0.280000
-0.030060 0.072572 -0.274999
-0.055544 0.055544 -0.274999
-0.026929 0.026929 -0.222767
-0.014574 0.035184 -0.222767
0.000000 0.038083 -0.222767
0.000000 0.078552 -0.274999
-0.076537 -0.184776 -0.280000
-0.076391 -0.184424 -0.278087
-0.141152 -0.141152 -0.278087
0.241481 -0.064705 0.285000
0.241481 0.064705 0.285000
0.176777 0.176777 0.285000
0.064705 0.241481 0.285000
-0.064705 0.241481 0.285000
-0.176777 0.176777 0.285000
-0.241481 0.064705 0.285000
-0.241481 -0.064705 0.285000
-0.176777 -0.176777 0.285000
-0.064705 -0.241481 0.285000
0.064705 -0.241481 0.285000
0.176777 -0.176777 0.285000
-0.200000 0.000000 -0.280000
-0.184424 -0.076391 -0.278087
-0.199619 0.000000 -0.278087
0.198536 0.000000 -0.283535
0.183423 0.075976 -0.283535
0.184424 0.076391 -0.281913
0.199619 0.000000 -0.281913
0.183423 -0.075976 -0.283535
0.200000 0.000000 -0.280000
-0.241481 0.064705 0.260000
-0.241481 0.064705 0.285000
-0.176777 0.176777 0.285000
-0.176777 0.176777 0.260000
0.000000 -0.199619 -0.281913
0.076391 -0.184424 -0.281913
0.076537 -0.184776 -0.280000
0.000000 -0.200000 -0.280000
0.000000 0.200000 -0.280000
0.000000 0.199619 -0.281913
-0.076391 0.184424 -0.281913
-0.076537 0.184776 -0.280000
-0.199619 0.000000 -0.281913
0.075976 0.183423 -0.276465
0.000000 0.198536 -0.276465
-0.075976 0.183423 -0.276465
-0.075356 0.181924 -0.275381
0.000000 0.196913 -0.275381
0.075355 0.181924 -0.275381
0.000000 0.125000 0.260000
0.000000 0.025000 -0.125000
-0.009567 0.023097 -0.125000
-0.047835 0.115485 0.260000
0.000000 -0.125000 0.260000
-0.047835 -0.115485 0.260000
-0.009567 -0.023097 -0.125000
0.000000 -0.025000 -0.125000
0.000000 -0.198536 -0.276465
0.075356 -0.181924 -0.275381
0.000000 -0.196913 -0.275381
-0.075355 -0.181924 -0.275381
-0.075976 -0.183423 -0.276465
-0.141152 0.141152 -0.278087
-0.184424 0.076391 -0.278087
-0.183423 0.075976 -0.276465
-0.140386 0.140386 -0.276465
-0.076391 0.184424 -0.278087
0.199619 0.000000 -0.278087
0.184424 0.076391 -0.278087
0.183423 0.075976 -0.276465
0.198536 0.000000 -0.276465
0.000000 -0.199619 -0.278087
-0.076391 -0.184424 -0.281913
-0.009567 0.023097 -0.125000
0.000000 0.025000 -0.125000
0.009567 0.023097 -0.125000
0.017678 0.017678 -0.125000
0.023097 0.009567 -0.125000
0.025000 0.000000 -0.125000
0.023097 -0.009567 -0.125000
0.017678 -0.017678 -0.125000
0.009567 -0.023097 -0.125000
0.000000 -0.025000 -0.125000
-0.009567 -0.023097 -0.125000
-0.017678 -0.017678 -0.125000
-0.023097 -0.009567 -0.125000
-0.025000 0.000000 -0.125000
-0.023097 0.009567 -0.125000
-0.017678 0.017678 -0.125000
-0.141421 0.141421 -0.280000
-0.141152 0.141152 -0.281913
-0.075976 0.183423 -0.283535
-0.140386 0.140386 -0.283535
-0.183423 0.075976 -0.283535
-0.184424 0.076391 -0.281913
0.064705 -0.241481 0.260000
-0.064705 -0.241481 0.260000
-0.176777 -0.176777 0.260000
-0.241481 -0.064705 0.260000
-0.241481 0.064705 0.260000
-0.176777 0.176777 0.260000
-0.064705 0.241481 0.260000
0.064705 0.241481 0.260000
0.176777 0.176777 0.260000
0.241481 0.064705 0.260000
0.241481 -0.064705 0.260000
0.176777 -0.176777 0.260000
0.176777 -0.176777 0.260000
0.241481 -0.064705 0.260000
0.241481 -0.064705 0.285000
0.176777 -0.176777 0.285000
0.000000 -0.025000 -0.125000
0.000000 -0.038083 -0.222767
0.014574 -0.035184 -0.222767
0.009567 -0.023097 -0.125000
0.025000 0.000000 -0.125000
0.023097 0.009567 -0.125000
0.017678 0.017678 -0.125000
0.009567 0.023097 -0.125000
0.000000 0.025000 -0.125000
-0.009567 0.023097 -0.125000
-0.017678 0.017678 -0.125000
-0.023097 0.009567 -0.125000
-0.025000 0.000000 -0.125000
-0.023097 -0.009567 -0.125000
-0.017678 -0.017678 -0.125000
-0.009567 -0.023097 -0.125000
0.000000 -0.025000 -0.125000
0.009567 -0.023097 -0.125000
0.017678 -0.017678 -0.125000
0.023097 -0.009567 -0.125000
-0.115485 0.047835 0.260000
-0.023097 0.009567 -0.125000
-0.025000 0.000000 -0.125000
-0.125000 0.000000 0.260000
0.241481 0.064705 0.260000
0.241481 0.064705 0.285000
-0.241481 -0.064705 0.285000
-0.241481 -0.064705 0.260000
-0.176777 -0.176777 0.260000
-0.176777 -0.176777 0.285000
0.000000 0.198536 -0.283535
0.075976 0.183423 -0.283535
0.075355 0.181924 -0.284619
0.000000 0.196913 -0.284619
-0.075356 0.181924 -0.284619
-0.196913 0.000000 -0.275381
-0.181924 0.075355 -0.275381
-0.198536 0.000000 -0.276465
-0.183423 -0.075976 -0.276465
-0.181924 -0.075356 -0.275381
0.017678 0.017678 -0.125000
0.023097 0.009567 -0.125000
0.035184 0.014574 -0.222767
0.026929 0.026929 -0.222767
0.055544 -0.055544 -0.274999
0.072572 -0.030060 -0.274999
0.078552 0.000000 -0.274999
0.038083 0.000000 -0.222767
0.035184 -0.014574 -0.222767
0.026929 -0.026929 -0.222767
-0.075976 -0.183423 -0.283535
0.000000 -0.198536 -0.283535
0.075976 -0.183423 -0.283535
-0.009567 -0.023097 -0.125000
-0.014574 -0.035184 -0.222767
-0.064705 0.241481 0.285000
-0.064705 0.241481 0.260000
-0.026929 -0.026929 -0.222767
-0.055544 -0.055544 -0.274999
-0.030060 -0.072572 -0.274999
0.000000 -0.078552 -0.274999
-0.139239 0.139239 -0.275381
-0.140386 -0.140386 -0.276465
-0.072572 0.030060 -0.274999
-0.078552 0.000000 -0.274999
-0.038083 0.000000 -0.222767
-0.035184 0.014574 -0.222767
0.184776 0.076537 -0.280000
0.141421 0.141421 -0.280000
0.141152 0.141152 -0.278087
0.076537 0.184776 -0.280000
0.000000 0.199619 -0.278087
0.076391 0.184424 -0.278087
-0.115485 -0.047835 0.260000
-0.023097 -0.009567 -0.125000
-0.017678 -0.017678 -0.125000
-0.088388 -0.088388 0.260000
0.180156 -0.074623 -0.275000
0.078552 0.000000 -0.274999
0.072572 -0.030060 -0.274999
0.137886 -0.137886 -0.275000
0.072572 -0.030060 -0.274999
0.055544 -0.055544 -0.274999
0.074623 -0.180156 -0.275000
0.055544 -0.055544 -0.274999
0.030060 -0.072572 -0.274999
0.000000 -0.195000 -0.275000
0.030060 -0.072572 -0.274999
0.000000 -0.078552 -0.274999
-0.017678 0.017678 -0.125000
-0.009567 0.023097 -0.125000
0.196913 0.000000 -0.284619
0.181924 0.075356 -0.284619
0.181924 -0.075355 -0.284619
0.140386 0.140386 -0.276465
0.139239 0.139239 -0.275381
0.181924 0.075356 -0.275381
-0.139239 -0.139239 -0.284619
-0.075355 -0.181924 -0.284619
-0.140386 -0.140386 -0.283535
-0.183423 -0.075976 -0.283535
-0.181924 -0.075356 -0.284619
0.195000 0.000000 -0.275000
0.072572 0.030060 -0.274999
0.078552 0.000000 -0.274999
0.139239 -0.139239 -0.275381
0.181924 -0.075355 -0.275381
0.196913 0.000000 -0.275381
0.137886 0.137886 -0.275000
0.055544 0.055544 -0.274999
0.180156 0.074623 -0.275000
0.072572 0.030060 -0.274999
0.078552 0.000000 -0.274999
0.072572 -0.030060 -0.274999
-0.074623 -0.180156 -0.275000
0.000000 -0.078552 -0.274999
-0.030060 -0.072572 -0.274999
0.047835 -0.115485 0.260000
0.088388 -0.088388 0.260000
0.115485 -0.047835 0.260000
0.125000 0.000000 0.260000
0.115485 0.047835 0.260000
0.088388 0.088388 0.260000
0.047835 0.115485 0.260000
0.000000 0.125000 0.260000
-0.047835 0.115485 0.260000
-0.088388 0.088388 0.260000
-0.115485 0.047835 0.260000
-0.125000 0.000000 0.260000
-0.115485 -0.047835 0.260000
-0.088388 -0.088388 0.260000
-0.047835 -0.115485 0.260000
0.000000 -0.125000 0.260000
0.025000 0.000000 -0.125000
0.023097 -0.009567 -0.125000
0.088388 -0.088388 0.260000
0.047835 -0.115485 0.260000
0.009567 -0.023097 -0.125000
0.017678 -0.017678 -0.125000
-0.017678 -0.017678 -0.125000
0.072572 0.030060 -0.274999
0.055544 0.055544 -0.274999
-0.137886 -0.137886 -0.275000
-0.030060 -0.072572 -0.274999
-0.055544 -0.055544 -0.274999
-0.023097 0.009567 -0.125000
-0.025000 0.000000 -0.125000
0.055544 0.055544 -0.274999
0.030060 0.072572 -0.274999
-0.064705 -0.241481 0.260000
0.064705 -0.241481 0.260000
0.064705 -0.241481 0.285000
-0.064705 -0.241481 0.285000
-0.139239 -0.139239 -0.275381
-0.180156 -0.074623 -0.275000
-0.055544 -0.055544 -0.274999
-0.072572 -0.030060 -0.274999
0.030060 0.072572 -0.274999
0.074623 0.180156 -0.275000
0.000000 0.078552 -0.274999
0.047835 0.115485 0.260000
0.009567 0.023097 -0.125000
-0.072572 -0.030060 -0.274999
-0.078552 0.000000 -0.274999
-0.195000 0.000000 -0.275000
-0.030060 0.072572 -0.274999
0.000000 0.078552 -0.274999
0.000000 0.195000 -0.275000
-0.078552 0.000000 -0.274999
-0.072572 0.030060 -0.274999
-0.180156 0.074623 -0.275000
-0.055544 0.055544 -0.274999
-0.030060 0.072572 -0.274999
-0.074623 0.180156 -0.275000
0.055544 -0.055544 -0.274999
0.030060 -0.072572 -0.274999
0.000000 -0.078552 -0.274999
-0.030060 -0.072572 -0.274999
-0.055544 -0.055544 -0.274999
-0.072572 -0.030060 -0.274999
-0.078552 0.000000 -0.274999
-0.072572 0.030060 -0.274999
-0.137886 0.137886 -0.275000
-0.055544 0.055544 -0.274999
-0.030060 0.072572 -0.274999
0.000000 0.078552 -0.274999
0.030060 0.072572 -0.274999
0.009567 0.023097 -0.125000
0.014574 0.035184 -0.222767
0.000000 0.025000 -0.125000
0.030060 -0.072572 -0.274999
-0.072572 0.030060 -0.274999
-0.055544 0.055544 -0.274999
0.072572 0.030060 -0.274999
0.055544 0.055544 -0.274999
0.139239 0.139239 -0.284619
0.140386 0.140386 -0.283535
0.076391 0.184424 -0.281913
-0.072572 -0.030060 -0.274999
-0.035184 -0.014574 -0.222767
-0.088388 0.088388 0.260000
-0.017678 0.017678 -0.125000
0.017678 -0.017678 -0.125000
-0.184776 0.076537 -0.280000
0.125000 0.000000 0.260000
0.025000 0.000000 -0.125000
0.023097 0.009567 -0.125000
0.115485 0.047835 0.260000
0.023097 -0.009567 -0.125000
0.115485 -0.047835 0.260000
-0.196913 0.000000 -0.284619
-0.198536 0.000000 -0.283535
-0.181924 0.075355 -0.284619
0.141152 0.141152 -0.281913
0.140386 -0.140386 -0.283535
0.030060 0.072572 -0.274999
-0.023097 -0.009567 -0.125000
-0.139239 0.139239 -0.284619
0.088388 0.088388 0.260000
0.017678 0.017678 -0.125000
0.000000 -0.196913 -0.284619
0.075356 -0.181924 -0.284619
0.139239 -0.139239 -0.284619
0.180156 -0.074623 -0.285000
0.000000 0.000000 -0.285000
0.195000 0.000000 -0.285000
0.000000 0.000000 -0.285000
0.180156 0.074623 -0.285000
0.000000 0.000000 -0.285000
0.137886 0.137886 -0.285000
0.000000 0.000000 -0.285000
0.074623 0.180156 -0.285000
0.000000 0.000000 -0.285000
0.000000 0.195000 -0.285000
0.000000 0.000000 -0.285000
-0.074623 0.180156 -0.285000
0.000000 0.000000 -0.285000
-0.137886 0.137886 -0.285000
-0.137886 -0.137886 -0.285000
0.000000 0.000000 -0.285000
-0.074623 -0.180156 -0.285000
0.000000 0.000000 -0.285000
0.000000 -0.195000 -0.285000
0.000000 0.000000 -0.285000
0.074623 -0.180156 -0.285000
0.000000 0.000000 -0.285000
0.137886 -0.137886 -0.285000
0.000000 0.000000 -0.285000
-0.180156 0.074623 -0.285000
0.000000 0.000000 -0.285000
-0.195000 0.000000 -0.285000
0.000000 0.000000 -0.285000
-0.180156 -0.074623 -0.285000
0.000000 0.000000 -0.285000
6 0 1 2 3 4 5
4 6 7 8 9
4 10 11 12 13
4 14 15 16 17
6 18 19 20 21 22 23
4 12 24 25 26
12 27 28 29 30 31 32 33 34 35 36 37 38
4 39 13 40 41
6 42 43 44 45 15 46
4 15 45 47 16
4 48 49 50 51
4 52 53 54 55
4 56 57 58 59
4 60 10 13 39
6 61 62 63 64 65 66
4 67 68 69 70
4 71 72 73 74
6 75 1 76 77 78 79
6 80 81 82 83 63 84
6 85 86 87 88 5 4
4 54 2 89 55
4 52 55 24 90
16 91 92 93 94 95 96 97 98 99 100 101 102 103 104 105 106
4 84 59 107 80
6 108 58 109 110 111 112
12 113 114 115 116 117 118 119 120 121 122 123 124
4 125 126 127 128
4 53 14 17 54
4 129 130 131 132
16 133 134 135 136 137 138 139 140 141 142 143 144 145 146 147 148
4 149 150 151 152
4 153 8 7 154
4 155 156 157 158
4 13 12 26 40
6 159 160 161 162 163 109
6 164 165 82 166 167 168
4 169 170 171 172
6 173 174 175 176 177 178
6 52 90 179 180 181 53
4 182 183 130 129
4 50 184 185 51
6 183 186 187 188 189 130
6 190 64 63 83 82 165
6 26 25 79 191 167 40
6 19 192 193 194 195 20
4 196 197 198 86
4 16 47 85 4
4 199 56 200 201
4 49 48 156 155
4 202 203 204 205
3 206 207 208
3 209 210 211
3 212 213 214
3 215 216 217
4 218 219 21 20
6 220 221 43 42 46 222
6 87 223 61 66 224 225
6 226 227 179 228 229 230
3 231 232 233
14 234 235 236 225 224 237 238 239 240 231 241 206 242 209
3 243 244 245
16 246 247 248 249 250 251 252 253 254 255 256 257 258 259 260 261
4 177 176 262 263
4 264 265 266 267
4 182 268 186 183
3 269 239 270
4 184 6 9 185
3 271 272 273
4 274 195 194 275
4 274 218 20 195
3 276 237 277
4 278 279 280 281
6 282 168 167 191 79 78
3 283 284 285
3 286 287 288
4 289 290 68 67
4 72 205 204 73
3 291 292 293
6 88 87 225 236 235 5
3 294 295 296
3 297 298 299
3 300 301 302
38 190 165 164 168 282 78 77 76 234 209 303 212 304 215 305 243 306 271 307 283 308 293 309 299 310 311 312 302 313 296 314 287 315 237 224 66 65 64
4 316 169 172 317
4 317 22 318 316
6 198 201 61 223 87 86
6 41 40 167 166 82 81
4 265 71 74 266
4 22 21 219 318
6 131 130 189 319 173 178
3 320 321 311
6 322 323 172 171 176 175
6 324 161 160 325 43 221
6 159 109 58 57 326 160
4 17 3 2 54
6 194 193 327 187 186 328
4 17 16 4 3
4 329 70 69 330
4 47 196 86 85
4 24 55 89 25
4 331 132 131 178
4 281 158 157 278
4 81 332 39 41
6 229 228 179 90 11 10
4 333 334 335 336
4 264 267 337 338
4 80 107 332 81
4 326 57 56 199
4 112 60 39 332
6 339 230 229 340 111 341
4 342 326 199 197
4 44 342 197 196
4 107 108 112 332
4 197 199 201 198
4 329 330 150 149
4 45 44 196 47
6 343 46 15 14 53 181
4 107 59 58 108
6 340 229 10 60 112 111
4 84 200 56 59
6 325 160 326 342 44 43
4 338 337 334 333
4 126 153 154 127
6 344 23 22 317 172 323
4 275 194 328 345
4 152 151 203 202
6 25 89 2 1 75 79
6 341 111 110 109 163 346
6 200 84 63 62 61 201
4 347 348 290 289
4 279 125 128 280
4 336 335 348 347
4 345 328 186 268
6 227 349 350 181 180 179
6 1 0 5 235 234 76
4 90 24 12 11
4 331 178 177 263
6 351 222 46 343 181 350
38 352 353 354 355 356 357 358 359 360 361 362 363 364 365 366 346 163 162 161 324 221 220 222 351 350 349 227 226 367 368 369 370 371 372 373 374 375 376
14 341 346 366 353 377 378 379 380 381 382 367 226 230 339
4 176 171 170 262
