ply
format ascii 1.0
comment Created by Blender 2.82 (sub 7) - www.blender.org, source file: ''
element vertex 314
property float x
property float y
property float z
element face 78
property list uchar uint vertex_indices
end_header
-14.750000 34.250000 -15.000000
-17.750000 34.250000 -15.000000
-17.750000 34.250000 14.000000
-14.750000 34.250000 14.000000
17.750000 -31.250000 14.000000
17.750000 -31.250000 -15.000000
14.750000 -31.250000 -15.000000
14.750000 -31.250000 14.000000
-18.500000 -35.000000 14.000000
-18.500000 35.000000 14.000000
-18.500000 35.000000 12.000000
-18.500000 -35.000000 12.000000
17.750000 31.250000 -15.000000
14.750000 31.250000 -15.000000
14.750000 34.250000 -15.000000
17.750000 34.250000 -15.000000
-18.500000 -35.000000 12.000000
-18.500000 35.000000 12.000000
-18.500000 35.000000 14.000000
-18.500000 -35.000000 14.000000
14.750000 -34.250000 14.000000
-14.750000 -34.250000 14.000000
-14.750000 -31.250000 14.000000
14.750000 -31.250000 14.000000
17.750000 34.250000 14.000000
17.750000 34.250000 -15.000000
17.750000 31.250000 -15.000000
17.750000 31.250000 12.000000
17.750000 -31.250000 12.000000
17.750000 -31.250000 -15.000000
17.750000 -34.250000 -15.000000
17.750000 -34.250000 14.000000
-14.750000 34.250000 -15.000000
-14.750000 34.250000 14.000000
-14.750000 31.250000 14.000000
-14.750000 31.250000 -15.000000
14.750000 31.250000 -15.000000
14.750000 31.250000 14.000000
17.750000 31.250000 14.000000
17.750000 31.250000 -15.000000
-14.750000 -31.250000 14.000000
-14.750000 -34.250000 14.000000
-14.750000 -34.250000 -15.000000
-14.750000 -31.250000 -15.000000
-14.750000 -34.250000 -15.000000
-17.750000 -34.250000 -15.000000
-17.750000 -31.250000 -15.000000
-14.750000 -31.250000 -15.000000
-18.500000 35.000000 14.000000
-18.500000 35.000000 12.000000
18.500000 35.000000 12.000000
18.500000 35.000000 14.000000
-17.750000 31.250000 12.000000
-17.750000 -31.250000 12.000000
-17.750000 -31.250000 14.000000
-17.750000 31.250000 14.000000
18.500000 35.000000 12.000000
18.500000 -35.000000 12.000000
-18.500000 -35.000000 12.000000
-17.750000 31.250000 12.000000
-17.750000 -34.250000 12.000000
17.750000 -34.250000 12.000000
17.750000 34.250000 12.000000
-17.750000 34.250000 12.000000
-18.500000 35.000000 12.000000
-17.750000 34.250000 14.000000
-17.750000 31.250000 14.000000
-17.750000 31.250000 -15.000000
-17.750000 34.250000 -15.000000
-19.500000 -36.000000 14.000000
-19.500000 36.000000 14.000000
-19.500000 36.000000 15.000000
-19.500000 -36.000000 15.000000
14.750000 -31.250000 14.000000
14.750000 -31.250000 -15.000000
17.750000 -31.250000 -15.000000
17.750000 -31.250000 14.000000
19.500000 36.000000 15.000000
19.500000 -36.000000 15.000000
19.500000 -36.000000 14.000000
19.500000 36.000000 14.000000
14.750000 -31.250000 14.000000
14.750000 -31.250000 -15.000000
14.750000 -34.250000 -15.000000
14.750000 -34.250000 14.000000
14.750000 -34.250000 14.000000
14.750000 -34.250000 12.000000
-14.750000 -34.250000 12.000000
-14.750000 -34.250000 14.000000
-18.500000 35.000000 14.000000
-19.500000 36.000000 14.000000
19.500000 36.000000 14.000000
18.500000 35.000000 14.000000
14.750000 -34.250000 -15.000000
14.750000 -34.250000 14.000000
17.750000 -34.250000 14.000000
17.750000 -34.250000 -15.000000
-19.500000 36.000000 15.000000
19.500000 36.000000 15.000000
19.500000 -36.000000 15.000000
-19.500000 -36.000000 15.000000
-14.750000 31.250000 -15.000000
-17.750000 31.250000 -15.000000
-17.750000 34.250000 -15.000000
-14.750000 34.250000 -15.000000
17.750000 34.250000 14.000000
17.750000 34.250000 -15.000000
14.750000 34.250000 -15.000000
14.750000 34.250000 14.000000
-17.750000 -34.250000 -15.000000
-17.750000 -31.250000 -15.000000
-17.750000 -31.250000 14.000000
-17.750000 -34.250000 14.000000
18.500000 35.000000 14.000000
18.500000 35.000000 12.000000
-18.500000 35.000000 12.000000
-18.500000 35.000000 14.000000
-19.500000 -36.000000 14.000000
-18.500000 35.000000 14.000000
18.500000 35.000000 14.000000
-19.500000 36.000000 14.000000
-14.750000 34.250000 12.000000
-14.750000 34.250000 14.000000
14.750000 34.250000 14.000000
14.750000 34.250000 12.000000
-17.750000 -31.250000 14.000000
17.750000 -31.250000 14.000000
18.500000 -35.000000 14.000000
-18.500000 -35.000000 14.000000
19.500000 -36.000000 14.000000
19.500000 36.000000 14.000000
-17.750000 31.250000 14.000000
-14.750000 31.250000 14.000000
-14.750000 31.250000 -15.000000
-17.750000 31.250000 -15.000000
-14.750000 -31.250000 -15.000000
-14.750000 -34.250000 -15.000000
-14.750000 -34.250000 14.000000
-14.750000 -31.250000 14.000000
-18.500000 -35.000000 14.000000
18.500000 -35.000000 14.000000
19.500000 -36.000000 14.000000
-19.500000 -36.000000 14.000000
-17.750000 34.250000 14.000000
-17.750000 34.250000 -15.000000
-14.750000 34.250000 -15.000000
-14.750000 34.250000 14.000000
-17.750000 -31.250000 14.000000
-17.750000 -31.250000 -15.000000
-14.750000 -31.250000 -15.000000
-14.750000 -31.250000 14.000000
17.750000 34.250000 -15.000000
14.750000 34.250000 -15.000000
14.750000 31.250000 -15.000000
17.750000 31.250000 -15.000000
-17.750000 31.250000 14.000000
-17.750000 34.250000 14.000000
-17.750000 34.250000 -15.000000
-17.750000 31.250000 -15.000000
18.500000 35.000000 14.000000
18.500000 -35.000000 14.000000
18.500000 -35.000000 12.000000
18.500000 35.000000 12.000000
18.500000 -35.000000 12.000000
18.500000 -35.000000 14.000000
-18.500000 -35.000000 14.000000
-18.500000 -35.000000 12.000000
19.500000 -36.000000 14.000000
19.500000 -36.000000 15.000000
-19.500000 -36.000000 15.000000
-19.500000 -36.000000 14.000000
-19.500000 36.000000 15.000000
-19.500000 36.000000 14.000000
19.500000 36.000000 14.000000
19.500000 36.000000 15.000000
19.500000 36.000000 15.000000
19.500000 36.000000 14.000000
-19.500000 36.000000 14.000000
-19.500000 36.000000 15.000000
-17.750000 -31.250000 -15.000000
-17.750000 -31.250000 14.000000
-14.750000 -31.250000 14.000000
-14.750000 -31.250000 -15.000000
18.500000 35.000000 12.000000
18.500000 -35.000000 12.000000
18.500000 -35.000000 14.000000
18.500000 35.000000 14.000000
18.500000 -35.000000 12.000000
18.500000 35.000000 12.000000
17.750000 34.250000 12.000000
17.750000 31.250000 12.000000
14.750000 31.250000 -15.000000
14.750000 34.250000 -15.000000
14.750000 34.250000 14.000000
14.750000 31.250000 14.000000
17.750000 -31.250000 12.000000
17.750000 31.250000 12.000000
17.750000 31.250000 -15.000000
17.750000 34.250000 -15.000000
17.750000 34.250000 14.000000
17.750000 -34.250000 14.000000
17.750000 -34.250000 -15.000000
17.750000 -31.250000 -15.000000
-19.500000 -36.000000 15.000000
19.500000 -36.000000 15.000000
19.500000 36.000000 15.000000
-19.500000 36.000000 15.000000
17.750000 -34.250000 -15.000000
14.750000 -34.250000 -15.000000
14.750000 -31.250000 -15.000000
17.750000 -31.250000 -15.000000
-19.500000 -36.000000 15.000000
-19.500000 36.000000 15.000000
-19.500000 36.000000 14.000000
-19.500000 -36.000000 14.000000
-14.750000 -34.250000 14.000000
-17.750000 -34.250000 14.000000
-17.750000 -34.250000 -15.000000
-14.750000 -34.250000 -15.000000
14.750000 -34.250000 14.000000
14.750000 -34.250000 -15.000000
17.750000 -34.250000 -15.000000
17.750000 -34.250000 14.000000
-17.750000 -34.250000 14.000000
-17.750000 -31.250000 14.000000
-17.750000 -31.250000 -15.000000
-17.750000 -34.250000 -15.000000
-14.750000 -31.250000 14.000000
14.750000 -31.250000 14.000000
-17.750000 -31.250000 14.000000
17.750000 -31.250000 14.000000
17.750000 31.250000 14.000000
14.750000 31.250000 14.000000
14.750000 34.250000 14.000000
-14.750000 34.250000 14.000000
-14.750000 31.250000 14.000000
-17.750000 31.250000 14.000000
-14.750000 -34.250000 14.000000
14.750000 -34.250000 14.000000
-17.750000 31.250000 14.000000
-17.750000 -31.250000 14.000000
-17.750000 -31.250000 12.000000
-17.750000 31.250000 12.000000
14.750000 31.250000 14.000000
17.750000 31.250000 14.000000
-17.750000 31.250000 14.000000
-14.750000 31.250000 14.000000
-14.750000 34.250000 14.000000
14.750000 34.250000 14.000000
-14.750000 31.250000 -15.000000
-14.750000 31.250000 14.000000
-14.750000 34.250000 14.000000
-14.750000 34.250000 -15.000000
-19.500000 -36.000000 14.000000
-19.500000 -36.000000 15.000000
19.500000 -36.000000 15.000000
19.500000 -36.000000 14.000000
-17.750000 31.250000 14.000000
-17.750000 31.250000 -15.000000
-14.750000 31.250000 -15.000000
-14.750000 31.250000 14.000000
14.750000 34.250000 14.000000
14.750000 34.250000 -15.000000
17.750000 34.250000 -15.000000
17.750000 34.250000 14.000000
-14.750000 -34.250000 14.000000
-14.750000 -34.250000 12.000000
14.750000 -34.250000 12.000000
14.750000 -34.250000 14.000000
14.750000 -31.250000 -15.000000
14.750000 -31.250000 14.000000
14.750000 -34.250000 14.000000
14.750000 -34.250000 -15.000000
14.750000 34.250000 12.000000
14.750000 34.250000 14.000000
-14.750000 34.250000 14.000000
-14.750000 34.250000 12.000000
17.750000 31.250000 -15.000000
17.750000 31.250000 14.000000
14.750000 31.250000 14.000000
14.750000 31.250000 -15.000000
17.750000 -34.250000 12.000000
-17.750000 -34.250000 12.000000
-17.750000 34.250000 12.000000
-18.500000 35.000000 12.000000
-18.500000 -35.000000 12.000000
14.750000 34.250000 -15.000000
14.750000 31.250000 -15.000000
14.750000 31.250000 14.000000
14.750000 34.250000 14.000000
-14.750000 34.250000 -15.000000
-17.750000 34.250000 -15.000000
-17.750000 31.250000 -15.000000
-14.750000 31.250000 -15.000000
-18.500000 -35.000000 12.000000
-18.500000 -35.000000 14.000000
18.500000 -35.000000 14.000000
18.500000 -35.000000 12.000000
-17.750000 -34.250000 -15.000000
-17.750000 -34.250000 14.000000
-14.750000 -34.250000 14.000000
-14.750000 -34.250000 -15.000000
17.750000 -31.250000 -15.000000
14.750000 -31.250000 -15.000000
14.750000 -34.250000 -15.000000
17.750000 -34.250000 -15.000000
19.500000 36.000000 14.000000
19.500000 -36.000000 14.000000
19.500000 -36.000000 15.000000
19.500000 36.000000 15.000000
-14.750000 -31.250000 -15.000000
-17.750000 -31.250000 -15.000000
-17.750000 -34.250000 -15.000000
-14.750000 -34.250000 -15.000000
4 0 1 2 3
4 4 5 6 7
4 8 9 10 11
4 12 13 14 15
4 16 17 18 19
4 20 21 22 23
8 24 25 26 27 28 29 30 31
4 32 33 34 35
4 36 37 38 39
4 40 41 42 43
4 44 45 46 47
4 48 49 50 51
4 52 53 54 55
9 56 57 58 59 60 61 62 63 64
4 65 66 67 68
4 69 70 71 72
4 73 74 75 76
4 77 78 79 80
4 81 82 83 84
4 85 86 87 88
4 89 90 91 92
4 93 94 95 96
4 97 98 99 100
4 101 102 103 104
4 105 106 107 108
4 109 110 111 112
4 113 114 115 116
4 117 118 119 120
4 121 122 123 124
3 125 126 23
3 125 23 22
8 120 119 127 128 118 117 129 130
4 131 132 133 134
4 135 136 137 138
8 139 140 92 91 141 142 90 89
4 143 144 145 146
4 147 148 149 150
4 63 59 58 64
4 151 152 153 154
4 155 156 157 158
4 159 160 161 162
4 163 164 165 166
4 167 168 169 170
4 171 172 173 174
4 175 176 177 178
4 179 180 181 182
4 183 184 185 186
4 187 188 189 190
4 191 192 193 194
8 195 196 197 198 199 200 201 202
4 203 204 205 206
4 207 208 209 210
4 211 212 213 214
4 215 216 217 218
4 219 220 221 222
4 223 224 225 226
3 227 228 229
3 228 230 229
8 230 231 232 233 234 235 236 229
4 228 227 237 238
4 239 240 241 242
8 243 244 126 125 245 246 247 248
4 249 250 251 252
4 253 254 255 256
4 257 258 259 260
4 261 262 263 264
4 265 266 267 268
4 269 270 271 272
4 273 274 275 276
4 277 278 279 280
9 187 190 281 282 283 189 188 284 285
4 286 287 288 289
4 290 291 292 293
4 294 295 296 297
4 298 299 300 301
4 302 303 304 305
4 306 307 308 309
4 310 311 312 313
