ply
format ascii 1.0
comment Created by Blender 2.82 (sub 7) - www.blender.org, source file: ''
element vertex 299
property float x
property float y
property float z
element face 76
property list uchar uint vertex_indices
end_header
10.680850 -14.612700 8.492100
10.680850 -14.612700 9.870100
10.282050 -15.011500 9.870100
10.282050 -15.011500 8.492100
8.416450 11.789490 8.492100
7.883450 12.097220 8.492100
7.404250 11.618000 -9.870100
8.241050 11.134870 -9.870100
-6.829870 -13.106400 -9.870100
-7.309090 -12.627200 8.492100
-7.842090 -12.934900 8.492100
-7.666690 -13.589500 -9.870100
-8.457550 -12.934900 8.492100
-8.632960 -13.589500 -9.870100
7.694550 12.343460 8.492100
7.107550 12.004610 -9.870100
-10.826750 -13.903000 9.870100
-10.826750 13.702360 9.870100
-10.826750 13.702360 8.492100
-10.826750 -13.903000 8.492100
-7.001360 -12.094200 8.492100
-6.346740 -12.269600 -9.870100
10.019350 -15.120300 8.492100
10.154250 -15.074500 8.492100
10.154250 -15.074500 9.870100
10.019350 -15.120300 9.870100
9.879550 -15.148100 9.870100
9.737350 -15.157500 9.870100
9.737350 -15.157500 8.492100
9.879550 -15.148100 8.492100
-8.990560 -10.945700 8.492100
-8.457550 -10.638000 8.492100
-8.632960 -9.983400 -9.870100
-9.469770 -10.466500 -9.870100
-9.298290 -11.478700 8.492100
-9.952910 -11.303300 -9.870100
10.400550 14.932365 8.492100
9.737350 15.157500 8.492100
9.737350 15.157500 9.870100
10.400550 14.932365 9.870100
7.535250 12.937950 8.492100
6.857450 12.937950 -9.870100
10.680850 14.612766 9.870100
10.680850 14.612766 8.492100
-10.199501 -14.989400 9.870100
-10.335942 -14.898200 9.870100
-10.459316 -14.790000 9.870100
-10.567512 -14.666700 9.870100
-10.567512 -14.666700 8.492100
-10.459316 -14.790000 8.492100
-10.335942 -14.898200 8.492100
-10.199501 -14.989400 8.492100
-10.052328 -15.062000 8.492100
-10.052328 -15.062000 9.870100
-10.784004 -14.227700 8.492100
-10.715984 14.259218 8.492100
-8.149820 14.126930 8.492100
-8.744310 13.967640 8.492100
-9.179510 13.532440 8.492100
-9.298290 13.245680 8.492100
-9.298290 12.630220 8.492100
-8.990560 12.097220 8.492100
-8.457550 11.789490 8.492100
-8.149820 11.748980 8.492100
-8.744310 -10.756800 8.492100
-8.990560 -10.945700 8.492100
-9.298290 -11.478700 8.492100
-9.298290 -12.094200 8.492100
-8.990560 -12.627200 8.492100
-8.457550 -12.934900 8.492100
-7.842090 -12.934900 8.492100
7.883450 -12.946100 8.492100
8.416450 -13.253800 8.492100
9.031950 -13.253800 8.492100
9.564950 -12.946100 8.492100
9.872650 -12.413100 8.492100
9.913150 -12.105400 8.492100
10.826750 -14.068000 8.492100
10.680850 -14.612700 8.492100
10.282050 -15.011500 8.492100
-10.052328 -15.062000 8.492100
-10.567512 -14.666700 8.492100
9.564950 13.778680 8.492100
9.872650 13.245680 8.492100
10.527250 13.421090 -9.870100
10.044150 14.257903 -9.870100
-9.371610 15.157500 9.870100
9.737350 15.157500 9.870100
9.737350 15.157500 8.492100
-9.371610 15.157500 8.492100
-9.748230 15.107917 8.492100
-10.400550 14.731300 8.492100
-10.400550 14.731300 9.870100
-9.748230 15.107917 9.870100
10.527250 -11.622200 -9.870100
10.527250 -12.588500 -9.870100
10.044150 -13.425300 -9.870100
9.657550 -13.722000 -9.870100
8.724150 -13.972000 -9.870100
7.790850 -13.722000 -9.870100
7.107550 -13.038700 -9.870100
6.857450 -12.105400 -9.870100
7.107550 -11.172000 -9.870100
7.404250 -10.785400 -9.870100
8.241050 -10.302300 -9.870100
9.207350 -10.302300 -9.870100
10.044150 -10.785400 -9.870100
-9.298290 12.630220 8.492100
-9.298290 13.245680 8.492100
-9.952910 13.421090 -9.870100
-9.952910 12.454820 -9.870100
9.207350 -13.908400 -9.870100
10.044150 -13.425300 -9.870100
9.564950 -12.946100 8.492100
9.031950 -13.253800 8.492100
-7.842090 -10.638000 8.492100
-7.666690 -9.983400 -9.870100
-7.216480 11.321350 -9.870100
-7.555330 11.908270 8.492100
-8.149820 11.748980 8.492100
-8.149820 11.071260 -9.870100
-10.777167 14.078980 8.492100
-10.777167 14.078980 9.870100
7.575750 12.630220 8.492100
-7.001360 12.630220 8.492100
-6.960850 12.937950 8.492100
7.535250 12.937950 8.492100
9.564950 -11.264600 8.492100
10.044150 -10.785400 -9.870100
9.207350 -10.302300 -9.870100
9.031950 -10.956900 8.492100
-7.120140 13.532440 8.492100
-6.960850 12.937950 8.492100
-6.283130 12.937950 -9.870100
-6.533220 13.871300 -9.870100
9.207350 14.741039 -9.870100
10.044150 14.257903 -9.870100
10.527250 13.421090 -9.870100
10.527250 12.454820 -9.870100
10.044150 11.618000 -9.870100
9.207350 11.134870 -9.870100
8.724150 11.071260 -9.870100
7.790850 11.321350 -9.870100
7.107550 12.004610 -9.870100
6.857450 12.937950 -9.870100
7.107550 13.871300 -9.870100
7.790850 14.554555 -9.870100
8.241050 14.741039 -9.870100
7.883450 -12.946100 8.492100
7.694550 -12.699800 8.492100
7.107550 -13.038700 -9.870100
7.404250 -13.425300 -9.870100
7.107550 13.871300 -9.870100
7.694550 13.532440 8.492100
7.883450 13.778680 8.492100
7.404250 14.257903 -9.870100
-8.744310 11.908270 8.492100
-9.179510 12.343460 8.492100
-9.766430 12.004610 -9.870100
-9.083170 11.321350 -9.870100
-8.744310 13.967640 8.492100
-8.149820 14.126930 8.492100
-8.149820 14.804645 -9.870100
-9.083170 14.554555 -9.870100
-6.346740 -11.303300 -9.870100
-7.001360 -11.478700 8.492100
-6.283130 -11.786500 -9.870100
-6.533220 -12.719800 -9.870100
-7.216480 -13.403100 -9.870100
-8.149820 -13.653100 -9.870100
-9.083170 -13.403100 -9.870100
-9.766430 -12.719800 -9.870100
-9.952910 -12.269600 -9.870100
-9.952910 -11.303300 -9.870100
-9.469770 -10.466500 -9.870100
-8.632960 -9.983400 -9.870100
-7.666690 -9.983400 -9.870100
-6.829870 -10.466500 -9.870100
-6.346740 -11.303300 -9.870100
8.416450 -13.253800 8.492100
8.241050 -13.908400 -9.870100
10.817450 14.210237 9.870100
10.826750 14.068030 9.870100
10.826750 14.068030 8.492100
10.817450 14.210237 8.492100
10.789650 14.350008 8.492100
10.743850 14.484954 8.492100
10.743850 14.484954 9.870100
10.789650 14.350008 9.870100
10.680850 14.612766 9.870100
10.400550 14.932365 9.870100
10.019350 15.120377 9.870100
-9.748230 15.107917 9.870100
-10.400550 14.731300 9.870100
-10.777167 14.078980 9.870100
-10.784004 -14.227700 9.870100
-10.567512 -14.666700 9.870100
-10.052328 -15.062000 9.870100
10.282050 -15.011500 9.870100
10.680850 -14.612700 9.870100
10.789650 -14.350000 9.870100
9.872650 -11.797600 8.492100
10.527250 -11.622200 -9.870100
8.416450 14.086410 8.492100
8.241050 14.741039 -9.870100
-9.083170 14.554555 -9.870100
-8.632960 14.741039 -9.870100
-7.666690 14.741039 -9.870100
-6.829870 14.257903 -9.870100
-6.533220 13.871300 -9.870100
-6.283130 12.937950 -9.870100
-6.533220 12.004610 -9.870100
-7.216480 11.321350 -9.870100
-8.149820 11.071260 -9.870100
-9.083170 11.321350 -9.870100
-9.766430 12.004610 -9.870100
-10.016516 12.937950 -9.870100
-9.766430 13.871300 -9.870100
7.883450 -11.264600 8.492100
8.416450 -10.956900 8.492100
8.241050 -10.302300 -9.870100
7.404250 -10.785400 -9.870100
-6.533220 12.004610 -9.870100
-7.120140 12.343460 8.492100
-7.555330 13.967640 8.492100
-7.216480 14.554555 -9.870100
10.527250 12.454820 -9.870100
9.872650 12.630220 8.492100
9.564950 12.097220 8.492100
10.044150 11.618000 -9.870100
9.031950 14.086410 8.492100
9.207350 14.741039 -9.870100
9.872650 -12.413100 8.492100
10.527250 -12.588500 -9.870100
9.207350 11.134870 -9.870100
9.031950 11.789490 8.492100
7.107550 -11.172000 -9.870100
7.694550 -11.510900 8.492100
10.400550 14.932365 8.492100
10.789650 14.350008 8.492100
9.872650 -11.797600 8.492100
9.564950 -11.264600 8.492100
9.031950 -10.956900 8.492100
8.416450 -10.956900 8.492100
7.883450 -11.264600 8.492100
7.575750 -11.797600 8.492100
7.575750 -12.413100 8.492100
-7.309090 -12.627200 8.492100
-7.001360 -12.094200 8.492100
-7.001360 -11.478700 8.492100
-7.309090 -10.945700 8.492100
-7.842090 -10.638000 8.492100
-8.457550 -10.638000 8.492100
-7.555330 11.908270 8.492100
-7.120140 12.343460 8.492100
7.883450 12.097220 8.492100
8.416450 11.789490 8.492100
9.031950 11.789490 8.492100
9.564950 12.097220 8.492100
9.872650 12.630220 8.492100
9.872650 13.245680 8.492100
9.564950 13.778680 8.492100
9.031950 14.086410 8.492100
8.416450 14.086410 8.492100
7.883450 13.778680 8.492100
7.575750 13.245680 8.492100
-7.120140 13.532440 8.492100
-7.555330 13.967640 8.492100
-10.400550 14.731300 8.492100
-9.748230 15.107917 8.492100
10.019350 15.120377 8.492100
-6.829870 -10.466500 -9.870100
-7.309090 -10.945700 8.492100
9.737350 -15.157500 8.492100
9.737350 -15.157500 9.870100
-9.572250 -15.157500 9.870100
-9.572250 -15.157500 8.492100
-8.990560 -12.627200 8.492100
-9.298290 -12.094200 8.492100
-9.952910 -12.269600 -9.870100
-9.469770 -13.106400 -9.870100
-9.572250 -15.157500 8.492100
-9.572250 -15.157500 9.870100
-10.826750 -13.903000 9.870100
-10.826750 -13.903000 8.492100
-10.826750 13.702360 8.492100
-10.826750 13.702360 9.870100
7.535250 -12.105400 8.492100
6.857450 -12.105400 -9.870100
10.826750 14.068030 8.492100
10.826750 14.068030 9.870100
10.826750 -14.068000 9.870100
10.826750 -14.068000 8.492100
-9.179510 13.532440 8.492100
-9.766430 13.871300 -9.870100
10.826750 -14.068000 8.492100
10.826750 -14.068000 9.870100
-9.371610 15.157500 8.492100
-9.371610 15.157500 9.870100
4 0 1 2 3
4 4 5 6 7
4 8 9 10 11
4 11 10 12 13
4 5 14 15 6
4 16 17 18 19
4 20 9 8 21
10 22 23 3 2 24 25 26 27 28 29
4 30 31 32 33
4 34 30 33 35
4 36 37 38 39
4 15 14 40 41
4 39 42 43 36
10 44 45 46 47 48 49 50 51 52 53
28 54 55 56 57 58 59 60 61 62 63 64 65 66 67 68 69 70 71 72 73 74 75 76 77 78 79 80 81
4 82 83 84 85
4 86 87 88 89
4 90 91 92 93
13 94 95 96 97 98 99 100 101 102 103 104 105 106
4 107 108 109 110
4 111 112 113 114
4 31 115 116 32
4 117 118 119 120
4 92 91 121 122
4 123 124 125 126
4 127 128 129 130
4 131 132 133 134
13 135 136 137 138 139 140 141 142 143 144 145 146 147
4 148 149 150 151
4 152 153 154 155
4 156 157 158 159
4 160 161 162 163
4 164 165 20 21
13 166 167 168 169 170 171 172 173 174 175 176 177 178
4 111 114 179 180
10 181 182 183 184 185 186 43 42 187 188
12 189 190 191 192 193 194 195 196 197 198 199 200
4 127 201 202 128
4 154 203 204 155
13 205 206 207 208 209 210 211 212 213 214 215 216 217
4 218 219 220 221
4 117 222 223 118
4 161 224 225 162
4 226 227 228 229
4 230 231 204 203
4 202 201 232 233
4 234 235 4 7
4 236 237 218 221
4 119 156 159 120
4 158 157 107 110
45 238 239 77 76 240 241 242 243 244 245 246 71 70 247 248 249 250 251 252 64 63 253 254 124 123 255 256 257 258 259 260 261 262 263 264 265 126 125 266 267 56 55 268 269 270
4 271 116 115 272
4 180 179 148 151
4 273 274 275 276
4 132 223 222 133
4 277 278 279 280
4 84 83 227 226
4 272 165 164 271
4 219 130 129 220
4 53 52 281 282
4 283 284 48 47
4 122 121 285 286
4 149 287 288 150
4 289 290 291 292
4 233 232 113 112
4 41 40 153 152
4 234 229 228 235
4 287 237 236 288
4 278 34 35 279
4 13 12 277 280
4 108 293 294 109
4 82 85 231 230
4 295 296 1 0
4 297 90 93 298
4 224 131 134 225
4 293 160 163 294
