ply
format ascii 1.0
comment Created by Blender 2.82 (sub 7) - www.blender.org, source file: ''
element vertex 1000
property float x
property float y
property float z
element face 228
property list uchar uint vertex_indices
end_header
-11.649490 21.379471 -5.450000
-11.960830 21.379471 -6.200000
-12.097920 20.097919 -6.200000
-14.250000 22.250000 -10.000000
-14.250000 24.000000 -10.000000
-10.678520 20.428520 -2.865890
-10.959940 18.959940 -3.165380
-11.816670 19.816669 -5.450000
13.379500 0.000000 -5.450000
13.379500 -19.649500 -5.450000
13.379500 -19.960800 -6.200000
13.379500 0.000000 -6.200000
11.960800 21.379471 -6.200000
12.097900 20.097919 -6.200000
14.250000 22.250000 -10.000000
14.250000 24.000000 -10.000000
10.678500 20.428520 -2.865890
10.959900 18.959940 -3.165380
11.816700 19.816669 -5.450000
11.649500 21.379471 -5.450000
-11.500000 -19.500000 9.000000
-12.147090 -20.147100 -2.566390
-10.678520 -20.428499 -2.865890
-10.001380 -19.751400 9.000000
12.097900 -20.097900 -6.200000
13.379500 -19.960800 -6.200000
13.379500 0.000000 -6.200000
0.000000 0.000000 -6.200000
0.000000 -21.379499 -6.200000
11.960800 -21.379499 -6.200000
16.000000 24.000000 10.000000
16.000000 24.000000 9.000000
0.000000 24.000000 9.000000
0.000000 24.000000 10.000000
-11.835830 -11.767500 5.196600
-12.125000 -11.767500 5.196600
-12.125000 -11.242000 4.893200
-11.835830 -11.242000 4.893200
-12.125000 -11.767500 5.803400
-11.835830 -11.767500 5.803400
-11.835830 -11.242000 6.106800
-12.125000 -11.242000 6.106800
14.250000 -22.250000 -10.000000
16.000000 -22.250000 -10.000000
16.000000 -24.000000 -10.000000
14.250000 -24.000000 -10.000000
-12.428520 -18.678499 -2.865890
-11.751380 -18.001400 9.000000
-11.500000 -18.043501 9.000000
-11.500000 -18.043501 2.000000
-10.252760 -18.252800 2.000000
-10.959940 -18.959900 -3.165380
-12.428520 18.678520 -2.865890
-11.751380 18.001381 9.000000
-11.500000 18.043550 9.000000
-11.500000 18.043550 2.000000
-10.252760 18.252760 2.000000
-10.959940 18.959940 -3.165380
11.649500 21.379471 -5.450000
0.000000 21.379471 -5.450000
0.000000 21.379471 -6.200000
11.960800 21.379471 -6.200000
0.000000 19.500000 9.000000
-10.043550 19.500000 9.000000
-10.001380 19.751381 9.000000
-11.500000 19.500000 9.000000
-11.751380 18.001381 9.000000
-11.500000 18.043550 9.000000
-11.500000 0.000000 9.000000
-16.000000 0.000000 9.000000
-16.000000 24.000000 9.000000
0.000000 24.000000 9.000000
-16.000000 22.250000 -10.000000
-12.428520 18.678520 -2.865890
-12.147090 20.147091 -2.566390
-16.000000 24.000000 -10.000000
-16.000000 0.000000 10.000000
-16.000000 24.000000 10.000000
-16.000000 24.000000 9.000000
-16.000000 0.000000 9.000000
0.000000 24.000000 9.000000
-16.000000 24.000000 9.000000
-16.000000 0.000000 9.000000
-11.500000 0.000000 9.000000
-11.500000 18.043550 9.000000
-11.751380 18.001381 9.000000
-11.500000 19.500000 9.000000
-10.001380 19.751381 9.000000
-10.043550 19.500000 9.000000
0.000000 19.500000 9.000000
-16.000000 -24.000000 10.000000
0.000000 -24.000000 10.000000
0.000000 0.000000 10.000000
-16.000000 0.000000 10.000000
10.043500 -19.500000 9.000000
0.000000 -19.500000 9.000000
0.000000 -19.500000 2.000000
10.043500 -19.500000 2.000000
12.125000 -11.242000 6.106800
11.835800 -11.242000 6.106800
11.835800 -11.767500 5.803400
12.125000 -11.767500 5.803400
0.000000 -19.500000 2.000000
-10.043550 -19.500000 2.000000
-10.252760 -18.252800 2.000000
-11.500000 -18.043501 2.000000
-11.500000 0.000000 2.000000
0.000000 0.000000 2.000000
-13.379470 -19.649500 -5.450000
-13.379470 0.000000 -5.450000
0.000000 0.000000 -5.450000
0.000000 -21.379499 -5.450000
-11.649490 -21.379499 -5.450000
-11.816670 -19.816700 -5.450000
11.835800 -10.716500 5.196600
11.835800 -10.716500 5.803400
12.125000 -10.716500 5.803400
12.125000 -10.716500 5.196600
0.000000 -19.500000 2.000000
0.000000 -19.500000 9.000000
10.043500 -19.500000 9.000000
10.043500 -19.500000 2.000000
-12.097920 20.097919 -6.200000
-11.960830 21.379471 -6.200000
0.000000 21.379471 -6.200000
0.000000 0.000000 -6.200000
-13.379470 0.000000 -6.200000
-13.379470 19.960831 -6.200000
0.000000 0.000000 -5.450000
0.000000 21.379471 -5.450000
-11.649490 21.379471 -5.450000
-11.816670 19.816669 -5.450000
-13.379470 19.649490 -5.450000
-13.379470 0.000000 -5.450000
-13.379470 19.649490 -5.450000
-11.816670 19.816669 -5.450000
-11.649490 21.379471 -5.450000
0.000000 21.379471 -5.450000
0.000000 0.000000 -5.450000
-13.379470 0.000000 -5.450000
-11.500000 -10.334100 6.024200
-11.500000 -10.334100 4.975800
-11.500000 -11.242000 4.451700
-11.500000 -12.149800 4.975800
-11.500000 -12.149800 6.024200
-11.500000 -11.242000 6.548300
10.001400 19.751381 9.000000
10.678500 20.428520 -2.865890
12.147100 20.147091 -2.566390
11.500000 19.500000 9.000000
10.678500 -20.428499 -2.865890
12.147100 -20.147100 -2.566390
16.000000 -24.000000 -10.000000
14.250000 -24.000000 -10.000000
0.000000 0.000000 2.000000
-11.500000 0.000000 2.000000
-11.500000 18.043550 2.000000
-10.252760 18.252760 2.000000
-10.043550 19.500000 2.000000
0.000000 19.500000 2.000000
-10.252760 18.252760 2.000000
-11.500000 18.043550 2.000000
-11.500000 0.000000 2.000000
0.000000 0.000000 2.000000
0.000000 19.500000 2.000000
-10.043550 19.500000 2.000000
14.250000 -24.000000 -10.000000
16.000000 -24.000000 -10.000000
16.000000 -22.250000 -10.000000
14.250000 -22.250000 -10.000000
-16.000000 24.000000 -10.000000
-12.147090 20.147091 -2.566390
-12.428520 18.678520 -2.865890
-16.000000 22.250000 -10.000000
10.959900 18.959940 -3.165380
10.252800 18.252760 2.000000
10.043500 19.500000 2.000000
10.043500 19.500000 9.000000
10.001400 19.751381 9.000000
10.678500 20.428520 -2.865890
16.000000 0.000000 10.000000
16.000000 -24.000000 10.000000
16.000000 -24.000000 9.000000
16.000000 0.000000 9.000000
11.649500 -21.379499 -5.450000
11.960800 -21.379499 -6.200000
12.097900 -20.097900 -6.200000
14.250000 -22.250000 -10.000000
14.250000 -24.000000 -10.000000
10.678500 -20.428499 -2.865890
10.959900 -18.959900 -3.165380
11.816700 -19.816700 -5.450000
-11.649490 21.379471 -5.450000
-11.816670 19.816669 -5.450000
-10.959940 18.959940 -3.165380
-10.678520 20.428520 -2.865890
-14.250000 24.000000 -10.000000
-14.250000 22.250000 -10.000000
-12.097920 20.097919 -6.200000
-11.960830 21.379471 -6.200000
12.125000 -10.716500 5.803400
12.125000 -11.242000 6.106800
12.125000 -11.767500 5.803400
12.125000 -11.767500 5.196600
12.125000 -11.242000 4.893200
12.125000 -10.716500 5.196600
11.960800 -21.379499 -6.200000
0.000000 -21.379499 -6.200000
0.000000 -21.379499 -5.450000
11.649500 -21.379499 -5.450000
-14.250000 22.250000 -10.000000
-16.000000 22.250000 -10.000000
-16.000000 24.000000 -10.000000
-14.250000 24.000000 -10.000000
-14.250000 24.000000 -10.000000
-16.000000 24.000000 -10.000000
-16.000000 22.250000 -10.000000
-14.250000 22.250000 -10.000000
12.125000 -11.242000 4.893200
11.835800 -11.242000 4.893200
16.000000 -24.000000 10.000000
16.000000 -24.000000 9.000000
0.000000 -24.000000 9.000000
0.000000 -24.000000 10.000000
12.097900 -20.097900 -6.200000
13.379500 -19.960800 -6.200000
13.379500 -19.649500 -5.450000
11.816700 -19.816700 -5.450000
10.959900 -18.959900 -3.165380
12.428500 -18.678499 -2.865890
16.000000 -22.250000 -10.000000
14.250000 -22.250000 -10.000000
0.000000 -24.000000 9.000000
-16.000000 -24.000000 9.000000
-16.000000 0.000000 9.000000
-11.500000 0.000000 9.000000
-11.500000 -18.043501 9.000000
-11.751380 -18.001400 9.000000
-11.500000 -19.500000 9.000000
-10.001380 -19.751400 9.000000
-10.043550 -19.500000 9.000000
0.000000 -19.500000 9.000000
-12.125000 10.716500 5.803400
-11.835830 10.716500 5.803400
-11.835830 11.242000 6.106800
-12.125000 11.242000 6.106800
16.000000 0.000000 10.000000
0.000000 0.000000 10.000000
0.000000 -24.000000 10.000000
16.000000 -24.000000 10.000000
16.000000 -24.000000 10.000000
0.000000 -24.000000 10.000000
0.000000 0.000000 10.000000
16.000000 0.000000 10.000000
-11.835830 11.242000 6.106800
-11.835830 10.716500 5.803400
-11.375000 11.242000 5.500000
-11.835830 10.716500 5.196600
-11.375000 11.242000 5.500000
-11.375000 11.242000 5.500000
-11.835830 11.767500 5.803400
-16.000000 24.000000 10.000000
0.000000 24.000000 10.000000
0.000000 0.000000 10.000000
-16.000000 0.000000 10.000000
-11.375000 11.242000 5.500000
-11.835830 11.242000 4.893200
-11.375000 11.242000 5.500000
-11.835830 11.767500 5.196600
-12.125000 -10.716500 5.196600
-11.835830 -10.716500 5.196600
-11.375000 11.242000 5.500000
16.000000 0.000000 10.000000
0.000000 0.000000 10.000000
0.000000 24.000000 10.000000
16.000000 24.000000 10.000000
16.000000 24.000000 10.000000
0.000000 24.000000 10.000000
0.000000 0.000000 10.000000
16.000000 0.000000 10.000000
-11.500000 0.000000 7.500000
-11.500000 0.000000 9.000000
-11.500000 -16.543501 7.500000
-11.500000 -11.242000 4.451700
-11.500000 -12.149800 4.975800
-11.500000 -12.149800 6.024200
-11.500000 -11.242000 6.548300
-11.500000 -10.334100 6.024200
-11.835830 11.767500 5.803400
-12.125000 11.767500 5.803400
12.125000 11.767500 5.803400
12.125000 11.767500 5.196600
11.835800 11.767500 5.196600
11.835800 11.767500 5.803400
10.043500 19.500000 2.000000
10.252800 18.252760 2.000000
10.001400 19.751381 9.000000
10.043500 19.500000 9.000000
11.751400 -18.001400 9.000000
11.500000 -18.043501 9.000000
11.500000 0.000000 9.000000
16.000000 0.000000 9.000000
16.000000 -24.000000 9.000000
0.000000 -24.000000 9.000000
0.000000 -19.500000 9.000000
10.043500 -19.500000 9.000000
10.001400 -19.751400 9.000000
11.500000 -19.500000 9.000000
-12.147090 20.147091 -2.566390
-10.678520 20.428520 -2.865890
-10.001380 19.751381 9.000000
-11.500000 19.500000 9.000000
-10.043550 19.500000 2.000000
-10.043550 19.500000 9.000000
-10.001380 19.751381 9.000000
-10.252760 18.252760 2.000000
-12.428520 -18.678499 -2.865890
-12.147090 -20.147100 -2.566390
-11.500000 -19.500000 9.000000
-11.751380 -18.001400 9.000000
11.649500 21.379471 -5.450000
11.816700 19.816669 -5.450000
14.250000 24.000000 -10.000000
14.250000 22.250000 -10.000000
12.097900 20.097919 -6.200000
11.960800 21.379471 -6.200000
11.500000 0.000000 7.500000
11.500000 0.000000 9.000000
11.500000 -16.543501 7.500000
11.500000 -11.242000 4.451700
11.500000 -12.149800 4.975800
11.500000 -12.149800 6.024200
11.500000 -11.242000 6.548300
11.500000 -10.334100 6.024200
11.500000 -10.334100 6.024200
11.500000 -10.334100 4.975800
11.500000 -11.242000 4.451700
11.500000 -12.149800 4.975800
11.500000 -12.149800 6.024200
11.500000 -11.242000 6.548300
0.000000 19.500000 2.000000
-10.043550 19.500000 2.000000
-10.043550 19.500000 9.000000
0.000000 19.500000 9.000000
-16.000000 24.000000 -10.000000
-14.250000 24.000000 -10.000000
-12.097920 -20.097900 -6.200000
-13.379470 -19.960800 -6.200000
-13.379470 0.000000 -6.200000
0.000000 0.000000 -6.200000
0.000000 -21.379499 -6.200000
-11.960830 -21.379499 -6.200000
11.500000 -11.242000 4.451700
11.500000 0.000000 3.500000
11.500000 0.000000 2.000000
11.500000 -18.043501 2.000000
11.500000 -18.043501 9.000000
11.500000 0.000000 9.000000
11.500000 0.000000 7.500000
11.500000 -10.334100 6.024200
11.500000 -11.242000 6.548300
11.500000 -12.149800 6.024200
11.500000 -12.149800 4.975800
-13.379470 0.000000 -6.200000
-13.379470 -19.960800 -6.200000
-13.379470 -19.649500 -5.450000
-13.379470 0.000000 -5.450000
0.000000 0.000000 -6.200000
-13.379470 0.000000 -6.200000
-13.379470 -19.960800 -6.200000
-12.097920 -20.097900 -6.200000
-11.960830 -21.379499 -6.200000
0.000000 -21.379499 -6.200000
12.147100 20.147091 -2.566390
11.500000 19.500000 9.000000
11.751400 18.001381 9.000000
12.428500 18.678520 -2.865890
-13.379470 0.000000 -5.450000
-13.379470 -19.649500 -5.450000
-13.379470 -19.960800 -6.200000
-13.379470 0.000000 -6.200000
11.835800 -11.767500 5.196600
12.125000 -11.767500 5.196600
16.000000 24.000000 -10.000000
14.250000 24.000000 -10.000000
10.678500 20.428520 -2.865890
12.147100 20.147091 -2.566390
12.428500 18.678520 -2.865890
11.751400 18.001381 9.000000
11.500000 18.043550 9.000000
11.500000 18.043550 2.000000
10.252800 18.252760 2.000000
10.959900 18.959940 -3.165380
11.500000 19.500000 9.000000
10.001400 19.751381 9.000000
-11.500000 19.500000 9.000000
-11.751380 18.001381 9.000000
-11.500000 -18.043501 2.000000
-11.500000 -18.043501 9.000000
-11.500000 0.000000 9.000000
-11.500000 -16.543501 7.500000
-11.500000 -11.242000 4.451700
-11.500000 -10.334100 4.975800
-11.500000 -10.334100 6.024200
-11.500000 0.000000 7.500000
-11.500000 0.000000 2.000000
-11.500000 -18.043501 9.000000
-11.500000 -18.043501 2.000000
-11.500000 0.000000 2.000000
-11.500000 -10.334100 4.975800
-11.960830 -21.379499 -6.200000
-11.649490 -21.379499 -5.450000
-11.816670 -19.816700 -5.450000
-10.959940 -18.959900 -3.165380
-10.678520 -20.428499 -2.865890
-14.250000 -24.000000 -10.000000
-14.250000 -22.250000 -10.000000
-12.097920 -20.097900 -6.200000
-16.000000 0.000000 10.000000
-16.000000 -24.000000 10.000000
-16.000000 -24.000000 9.000000
-16.000000 0.000000 9.000000
13.379500 19.960831 -6.200000
13.379500 19.649490 -5.450000
11.816700 19.816669 -5.450000
10.959900 18.959940 -3.165380
12.428500 18.678520 -2.865890
16.000000 22.250000 -10.000000
14.250000 22.250000 -10.000000
12.097900 20.097919 -6.200000
16.000000 24.000000 9.000000
0.000000 24.000000 9.000000
0.000000 19.500000 9.000000
10.043500 19.500000 9.000000
10.001400 19.751381 9.000000
11.500000 19.500000 9.000000
11.751400 18.001381 9.000000
11.500000 18.043550 9.000000
11.500000 0.000000 9.000000
16.000000 0.000000 9.000000
-11.816670 19.816669 -5.450000
-13.379470 19.649490 -5.450000
-13.379470 19.960831 -6.200000
-12.097920 20.097919 -6.200000
-14.250000 22.250000 -10.000000
-16.000000 22.250000 -10.000000
-16.000000 0.000000 9.000000
-16.000000 -24.000000 9.000000
-16.000000 -24.000000 10.000000
-16.000000 0.000000 10.000000
13.379500 -19.960800 -6.200000
12.097900 -20.097900 -6.200000
14.250000 -22.250000 -10.000000
16.000000 -22.250000 -10.000000
12.428500 -18.678499 -2.865890
10.959900 -18.959900 -3.165380
11.816700 -19.816700 -5.450000
13.379500 -19.649500 -5.450000
-16.000000 0.000000 10.000000
0.000000 0.000000 10.000000
0.000000 24.000000 10.000000
-16.000000 24.000000 10.000000
10.001400 -19.751400 9.000000
10.043500 -19.500000 9.000000
10.043500 -19.500000 2.000000
10.252800 -18.252800 2.000000
-11.960830 -21.379499 -6.200000
0.000000 -21.379499 -6.200000
0.000000 -21.379499 -5.450000
-11.649490 -21.379499 -5.450000
0.000000 19.500000 2.000000
10.043500 19.500000 2.000000
10.252800 18.252760 2.000000
11.500000 18.043550 2.000000
11.500000 0.000000 2.000000
0.000000 0.000000 2.000000
-11.500000 -11.242000 6.548300
-11.500000 -12.149800 6.024200
-11.500000 -12.149800 4.975800
11.500000 10.334100 6.024200
11.500000 10.334100 4.975800
11.500000 11.242000 4.451700
11.500000 16.543550 3.500000
11.500000 18.043550 9.000000
11.500000 18.043550 2.000000
11.500000 0.000000 2.000000
11.500000 0.000000 7.500000
11.500000 11.242000 6.548300
-11.835830 10.716500 5.196600
-12.125000 10.716500 5.196600
12.147100 -20.147100 -2.566390
10.678500 -20.428499 -2.865890
14.250000 -24.000000 -10.000000
16.000000 -24.000000 -10.000000
16.000000 0.000000 10.000000
16.000000 24.000000 10.000000
16.000000 24.000000 9.000000
16.000000 0.000000 9.000000
-11.375000 -11.242000 5.500000
-11.835830 -10.716500 5.803400
-11.835830 -11.242000 6.106800
-11.375000 -11.242000 5.500000
-11.835830 -10.716500 5.196600
-11.835830 -11.767500 5.803400
-11.375000 -11.242000 5.500000
-12.125000 11.767500 5.803400
-12.125000 11.767500 5.196600
-12.125000 11.242000 4.893200
-12.125000 10.716500 5.196600
-12.125000 10.716500 5.803400
-12.125000 11.242000 6.106800
-11.835830 -11.242000 4.893200
-11.375000 -11.242000 5.500000
-12.125000 -11.242000 4.893200
-12.125000 -11.767500 5.196600
-12.125000 -11.767500 5.803400
-12.125000 -11.242000 6.106800
-12.125000 -10.716500 5.803400
-12.125000 -10.716500 5.196600
-11.835830 -11.767500 5.196600
-11.375000 -11.242000 5.500000
-12.125000 -10.716500 5.803400
-11.835830 -10.716500 5.803400
-12.125000 11.242000 4.893200
-11.835830 11.242000 4.893200
-11.375000 -11.242000 5.500000
-11.500000 12.149800 6.024200
-11.500000 12.149800 4.975800
-11.500000 11.242000 4.451700
-11.500000 10.334100 4.975800
-11.500000 10.334100 6.024200
-11.500000 11.242000 6.548300
12.147100 -20.147100 -2.566390
11.500000 -19.500000 9.000000
11.751400 -18.001400 9.000000
12.428500 -18.678499 -2.865890
14.250000 24.000000 -10.000000
16.000000 24.000000 -10.000000
10.252800 -18.252800 2.000000
11.500000 -18.043501 2.000000
11.500000 -18.043501 9.000000
11.751400 -18.001400 9.000000
-10.001380 -19.751400 9.000000
-10.678520 -20.428499 -2.865890
-12.147090 -20.147100 -2.566390
-11.500000 -19.500000 9.000000
-16.000000 -24.000000 -10.000000
-14.250000 -24.000000 -10.000000
-11.816670 -19.816700 -5.450000
-10.959940 -18.959900 -3.165380
-12.428520 -18.678499 -2.865890
-16.000000 -22.250000 -10.000000
-14.250000 -22.250000 -10.000000
-12.097920 -20.097900 -6.200000
-13.379470 -19.960800 -6.200000
-13.379470 -19.649500 -5.450000
-10.678520 -20.428499 -2.865890
-10.001380 -19.751400 9.000000
-10.043550 -19.500000 9.000000
-10.043550 -19.500000 2.000000
-10.252760 -18.252800 2.000000
-10.959940 -18.959900 -3.165380
10.043500 -19.500000 2.000000
10.043500 -19.500000 9.000000
10.001400 -19.751400 9.000000
10.678500 -20.428499 -2.865890
10.959900 -18.959900 -3.165380
10.252800 -18.252800 2.000000
11.751400 -18.001400 9.000000
11.500000 -18.043501 9.000000
11.500000 -18.043501 2.000000
10.252800 -18.252800 2.000000
11.500000 18.043550 9.000000
11.751400 18.001381 9.000000
10.252800 18.252760 2.000000
11.500000 18.043550 2.000000
-12.428520 -18.678499 -2.865890
-12.147090 -20.147100 -2.566390
-16.000000 -24.000000 -10.000000
-16.000000 -22.250000 -10.000000
-12.147090 20.147091 -2.566390
-10.678520 20.428520 -2.865890
-14.250000 24.000000 -10.000000
-16.000000 24.000000 -10.000000
-11.751380 18.001381 9.000000
-11.500000 19.500000 9.000000
16.000000 -22.250000 -10.000000
12.428500 -18.678499 -2.865890
12.147100 -20.147100 -2.566390
16.000000 -24.000000 -10.000000
-11.751380 -18.001400 9.000000
-11.500000 -19.500000 9.000000
11.751400 -18.001400 9.000000
11.500000 -19.500000 9.000000
16.000000 -24.000000 9.000000
16.000000 0.000000 9.000000
11.500000 0.000000 9.000000
11.500000 -18.043501 9.000000
11.751400 -18.001400 9.000000
11.500000 -19.500000 9.000000
10.001400 -19.751400 9.000000
10.043500 -19.500000 9.000000
0.000000 -19.500000 9.000000
0.000000 -24.000000 9.000000
11.751400 18.001381 9.000000
11.500000 19.500000 9.000000
12.147100 20.147091 -2.566390
12.428500 18.678520 -2.865890
11.649500 -21.379499 -5.450000
11.816700 -19.816700 -5.450000
14.250000 -24.000000 -10.000000
14.250000 -22.250000 -10.000000
12.097900 -20.097900 -6.200000
11.960800 -21.379499 -6.200000
13.379500 -19.960800 -6.200000
12.097900 -20.097900 -6.200000
11.960800 -21.379499 -6.200000
0.000000 -21.379499 -6.200000
0.000000 0.000000 -6.200000
13.379500 0.000000 -6.200000
13.379500 0.000000 -6.200000
13.379500 -19.960800 -6.200000
13.379500 -19.649500 -5.450000
13.379500 0.000000 -5.450000
13.379500 -19.649500 -5.450000
13.379500 0.000000 -5.450000
0.000000 0.000000 -5.450000
0.000000 -21.379499 -5.450000
11.649500 -21.379499 -5.450000
11.816700 -19.816700 -5.450000
-11.500000 0.000000 9.000000
-16.000000 0.000000 9.000000
-16.000000 -24.000000 9.000000
0.000000 -24.000000 9.000000
0.000000 -19.500000 9.000000
-10.043550 -19.500000 9.000000
-10.001380 -19.751400 9.000000
-11.500000 -19.500000 9.000000
-11.751380 -18.001400 9.000000
-11.500000 -18.043501 9.000000
0.000000 0.000000 2.000000
11.500000 0.000000 2.000000
11.500000 -18.043501 2.000000
10.252800 -18.252800 2.000000
10.043500 -19.500000 2.000000
0.000000 -19.500000 2.000000
0.000000 -21.379499 -5.450000
0.000000 0.000000 -5.450000
13.379500 0.000000 -5.450000
13.379500 -19.649500 -5.450000
11.816700 -19.816700 -5.450000
11.649500 -21.379499 -5.450000
0.000000 -19.500000 2.000000
10.043500 -19.500000 2.000000
10.252800 -18.252800 2.000000
11.500000 -18.043501 2.000000
11.500000 0.000000 2.000000
0.000000 0.000000 2.000000
-11.500000 -18.043501 9.000000
-11.751380 -18.001400 9.000000
-10.252760 -18.252800 2.000000
-11.500000 -18.043501 2.000000
11.500000 0.000000 2.000000
11.500000 -10.334100 4.975800
11.500000 -18.043501 9.000000
11.500000 -18.043501 2.000000
16.000000 0.000000 9.000000
16.000000 -24.000000 9.000000
16.000000 -24.000000 10.000000
16.000000 0.000000 10.000000
-14.250000 -22.250000 -10.000000
-16.000000 -22.250000 -10.000000
-16.000000 -24.000000 -10.000000
-14.250000 -24.000000 -10.000000
-14.250000 -24.000000 -10.000000
-16.000000 -24.000000 -10.000000
-16.000000 -22.250000 -10.000000
-14.250000 -22.250000 -10.000000
0.000000 24.000000 10.000000
0.000000 24.000000 9.000000
-16.000000 24.000000 9.000000
-16.000000 24.000000 10.000000
-14.250000 -24.000000 -10.000000
-16.000000 -24.000000 -10.000000
0.000000 -24.000000 10.000000
0.000000 -24.000000 9.000000
16.000000 -24.000000 9.000000
16.000000 -24.000000 10.000000
-11.816670 -19.816700 -5.450000
-13.379470 -19.649500 -5.450000
-13.379470 -19.960800 -6.200000
-12.097920 -20.097900 -6.200000
-14.250000 -22.250000 -10.000000
-16.000000 -22.250000 -10.000000
11.649500 -21.379499 -5.450000
0.000000 -21.379499 -5.450000
0.000000 -21.379499 -6.200000
11.960800 -21.379499 -6.200000
-11.500000 19.500000 9.000000
-10.001380 19.751381 9.000000
11.500000 -10.334100 4.975800
16.000000 22.250000 -10.000000
16.000000 24.000000 -10.000000
11.835800 -11.242000 6.106800
11.835800 -10.716500 5.803400
11.375000 -11.242000 5.500000
11.835800 -10.716500 5.196600
11.375000 -11.242000 5.500000
11.375000 -11.242000 5.500000
11.835800 -11.767500 5.803400
11.375000 -11.242000 5.500000
11.835800 -11.242000 4.893200
11.375000 -11.242000 5.500000
11.835800 -11.767500 5.196600
-12.097920 20.097919 -6.200000
-13.379470 19.960831 -6.200000
-13.379470 19.649490 -5.450000
-11.816670 19.816669 -5.450000
-10.959940 18.959940 -3.165380
-12.428520 18.678520 -2.865890
-16.000000 22.250000 -10.000000
-14.250000 22.250000 -10.000000
-10.043550 19.500000 9.000000
-10.043550 19.500000 2.000000
0.000000 19.500000 2.000000
0.000000 19.500000 9.000000
11.375000 -11.242000 5.500000
-11.649490 -21.379499 -5.450000
0.000000 -21.379499 -5.450000
0.000000 0.000000 -5.450000
-13.379470 0.000000 -5.450000
-13.379470 -19.649500 -5.450000
-11.816670 -19.816700 -5.450000
11.500000 -12.149800 6.024200
11.500000 -12.149800 4.975800
11.500000 -11.242000 4.451700
11.500000 -10.334100 4.975800
11.500000 -10.334100 6.024200
11.500000 -11.242000 6.548300
-11.500000 11.242000 6.548300
-11.500000 12.149800 6.024200
-11.500000 12.149800 4.975800
-11.500000 11.242000 4.451700
-11.500000 16.543550 3.500000
-11.500000 18.043550 9.000000
-11.500000 0.000000 9.000000
-11.500000 0.000000 7.500000
-11.500000 10.334100 6.024200
16.000000 -24.000000 -10.000000
16.000000 -22.250000 -10.000000
-11.500000 10.334100 6.024200
-11.500000 10.334100 4.975800
-11.500000 11.242000 4.451700
-11.500000 0.000000 3.500000
-11.500000 0.000000 7.500000
-11.500000 11.242000 6.548300
-11.649490 21.379471 -5.450000
0.000000 21.379471 -5.450000
0.000000 21.379471 -6.200000
-11.960830 21.379471 -6.200000
-16.000000 24.000000 10.000000
-16.000000 24.000000 9.000000
0.000000 24.000000 9.000000
0.000000 24.000000 10.000000
13.379500 19.649490 -5.450000
13.379500 19.960831 -6.200000
12.097900 20.097919 -6.200000
14.250000 22.250000 -10.000000
16.000000 22.250000 -10.000000
11.816700 19.816669 -5.450000
16.000000 24.000000 -10.000000
16.000000 22.250000 -10.000000
-11.960830 21.379471 -6.200000
0.000000 21.379471 -6.200000
0.000000 21.379471 -5.450000
-11.649490 21.379471 -5.450000
-16.000000 -24.000000 10.000000
-16.000000 -24.000000 9.000000
0.000000 -24.000000 9.000000
0.000000 -24.000000 10.000000
-11.500000 18.043550 9.000000
-11.751380 18.001381 9.000000
-10.252760 18.252760 2.000000
-11.500000 18.043550 2.000000
10.001400 -19.751400 9.000000
11.500000 -19.500000 9.000000
-10.001380 -19.751400 9.000000
-10.252760 -18.252800 2.000000
-10.043550 -19.500000 2.000000
-10.043550 -19.500000 9.000000
-11.500000 18.043550 9.000000
-11.500000 18.043550 2.000000
-11.500000 0.000000 2.000000
-11.500000 12.149800 4.975800
-11.500000 12.149800 6.024200
-11.500000 0.000000 9.000000
16.000000 24.000000 9.000000
16.000000 0.000000 9.000000
11.500000 0.000000 9.000000
11.500000 18.043550 9.000000
11.751400 18.001381 9.000000
11.500000 19.500000 9.000000
10.001400 19.751381 9.000000
10.043500 19.500000 9.000000
0.000000 19.500000 9.000000
0.000000 24.000000 9.000000
-11.500000 10.334100 4.975800
-11.500000 0.000000 2.000000
-11.500000 18.043550 2.000000
0.000000 -24.000000 10.000000
0.000000 -24.000000 9.000000
-16.000000 -24.000000 9.000000
-16.000000 -24.000000 10.000000
14.250000 24.000000 -10.000000
16.000000 24.000000 -10.000000
16.000000 22.250000 -10.000000
14.250000 22.250000 -10.000000
-16.000000 -22.250000 -10.000000
-16.000000 -24.000000 -10.000000
14.250000 22.250000 -10.000000
16.000000 22.250000 -10.000000
16.000000 24.000000 -10.000000
14.250000 24.000000 -10.000000
11.500000 -19.500000 9.000000
10.001400 -19.751400 9.000000
0.000000 -19.500000 9.000000
-10.043550 -19.500000 9.000000
-10.043550 -19.500000 2.000000
0.000000 -19.500000 2.000000
12.097900 20.097919 -6.200000
13.379500 19.960831 -6.200000
13.379500 0.000000 -6.200000
0.000000 0.000000 -6.200000
0.000000 21.379471 -6.200000
11.960800 21.379471 -6.200000
11.649500 21.379471 -5.450000
0.000000 21.379471 -5.450000
0.000000 0.000000 -5.450000
13.379500 0.000000 -5.450000
13.379500 19.649490 -5.450000
11.816700 19.816669 -5.450000
-11.960830 21.379471 -6.200000
-12.097920 20.097919 -6.200000
-13.379470 19.960831 -6.200000
-13.379470 0.000000 -6.200000
0.000000 0.000000 -6.200000
0.000000 21.379471 -6.200000
0.000000 0.000000 -6.200000
13.379500 0.000000 -6.200000
13.379500 19.960831 -6.200000
12.097900 20.097919 -6.200000
11.960800 21.379471 -6.200000
0.000000 21.379471 -6.200000
-11.649490 -21.379499 -5.450000
-11.960830 -21.379499 -6.200000
-12.097920 -20.097900 -6.200000
-14.250000 -22.250000 -10.000000
-14.250000 -24.000000 -10.000000
-11.816670 -19.816700 -5.450000
-10.043550 -19.500000 9.000000
0.000000 -19.500000 9.000000
0.000000 -19.500000 2.000000
-10.043550 -19.500000 2.000000
11.816700 19.816669 -5.450000
13.379500 19.649490 -5.450000
13.379500 0.000000 -5.450000
0.000000 0.000000 -5.450000
0.000000 21.379471 -5.450000
11.649500 21.379471 -5.450000
13.379500 0.000000 -5.450000
13.379500 19.649490 -5.450000
13.379500 19.960831 -6.200000
13.379500 0.000000 -6.200000
13.379500 0.000000 -6.200000
13.379500 19.960831 -6.200000
13.379500 19.649490 -5.450000
13.379500 0.000000 -5.450000
10.252800 18.252760 2.000000
10.043500 19.500000 2.000000
0.000000 19.500000 2.000000
0.000000 0.000000 2.000000
11.500000 0.000000 2.000000
11.500000 18.043550 2.000000
-11.649490 -21.379499 -5.450000
0.000000 -21.379499 -5.450000
0.000000 -21.379499 -6.200000
-11.960830 -21.379499 -6.200000
16.000000 0.000000 9.000000
16.000000 24.000000 9.000000
16.000000 24.000000 10.000000
16.000000 0.000000 10.000000
-13.379470 0.000000 -6.200000
-13.379470 19.960831 -6.200000
-13.379470 19.649490 -5.450000
-13.379470 0.000000 -5.450000
11.500000 0.000000 2.000000
11.500000 18.043550 2.000000
11.500000 18.043550 9.000000
11.500000 0.000000 9.000000
11.500000 0.000000 7.500000
11.500000 11.242000 6.548300
11.500000 12.149800 6.024200
11.500000 12.149800 4.975800
11.500000 11.242000 4.451700
11.500000 0.000000 3.500000
0.000000 24.000000 10.000000
0.000000 24.000000 9.000000
16.000000 24.000000 9.000000
16.000000 24.000000 10.000000
11.960800 21.379471 -6.200000
0.000000 21.379471 -6.200000
0.000000 21.379471 -5.450000
11.649500 21.379471 -5.450000
12.125000 11.242000 6.106800
11.835800 11.242000 6.106800
11.835800 10.716500 5.803400
12.125000 10.716500 5.803400
-10.043550 19.500000 2.000000
-10.252760 18.252760 2.000000
-10.001380 19.751381 9.000000
-10.043550 19.500000 9.000000
10.043500 19.500000 2.000000
10.043500 19.500000 9.000000
0.000000 19.500000 9.000000
0.000000 19.500000 2.000000
-16.000000 0.000000 9.000000
-16.000000 24.000000 9.000000
-16.000000 24.000000 10.000000
-16.000000 0.000000 10.000000
11.500000 10.334100 4.975800
11.500000 10.334100 6.024200
-13.379470 0.000000 -5.450000
-13.379470 19.649490 -5.450000
-13.379470 19.960831 -6.200000
-13.379470 0.000000 -6.200000
0.000000 0.000000 2.000000
-11.500000 0.000000 2.000000
-11.500000 -18.043501 2.000000
-10.252760 -18.252800 2.000000
-10.043550 -19.500000 2.000000
0.000000 -19.500000 2.000000
-12.125000 11.767500 5.196600
-11.835830 11.767500 5.196600
11.500000 12.149800 4.975800
11.500000 12.149800 6.024200
11.500000 0.000000 9.000000
12.125000 10.716500 5.196600
11.835800 10.716500 5.196600
10.043500 19.500000 9.000000
10.043500 19.500000 2.000000
0.000000 19.500000 2.000000
0.000000 19.500000 9.000000
-16.000000 0.000000 10.000000
0.000000 0.000000 10.000000
0.000000 -24.000000 10.000000
-16.000000 -24.000000 10.000000
11.375000 11.242000 5.500000
11.835800 10.716500 5.803400
11.835800 11.242000 6.106800
11.375000 11.242000 5.500000
11.835800 10.716500 5.196600
11.835800 11.767500 5.803400
11.375000 11.242000 5.500000
11.835800 11.242000 4.893200
11.375000 11.242000 5.500000
11.835800 11.767500 5.196600
11.375000 11.242000 5.500000
12.125000 11.242000 4.893200
11.835800 11.242000 4.893200
11.375000 11.242000 5.500000
12.125000 10.716500 5.803400
12.125000 10.716500 5.196600
12.125000 11.242000 4.893200
12.125000 11.767500 5.196600
12.125000 11.767500 5.803400
12.125000 11.242000 6.106800
-11.500000 10.334100 6.024200
-11.500000 10.334100 4.975800
-11.500000 11.242000 4.451700
-11.500000 12.149800 4.975800
-11.500000 12.149800 6.024200
-11.500000 11.242000 6.548300
11.500000 12.149800 6.024200
11.500000 12.149800 4.975800
11.500000 11.242000 4.451700
11.500000 10.334100 4.975800
11.500000 10.334100 6.024200
11.500000 11.242000 6.548300
11.500000 10.334100 6.024200
11.500000 10.334100 4.975800
11.500000 11.242000 4.451700
11.500000 12.149800 4.975800
11.500000 12.149800 6.024200
11.500000 11.242000 6.548300
-11.500000 -12.149800 6.024200
-11.500000 -12.149800 4.975800
-11.500000 -11.242000 4.451700
-11.500000 -10.334100 4.975800
-11.500000 -10.334100 6.024200
-11.500000 -11.242000 6.548300
8 0 1 2 3 4 5 6 7
4 8 9 10 11
8 12 13 14 15 16 17 18 19
4 20 21 22 23
6 24 25 26 27 28 29
4 30 31 32 33
4 34 35 36 37
4 38 39 40 41
4 42 43 44 45
6 46 47 48 49 50 51
6 52 53 54 55 56 57
4 58 59 60 61
10 62 63 64 65 66 67 68 69 70 71
4 72 73 74 75
4 76 77 78 79
10 80 81 82 83 84 85 86 87 88 89
4 90 91 92 93
4 94 95 96 97
4 98 99 100 101
6 102 103 104 105 106 107
6 108 109 110 111 112 113
4 114 115 116 117
4 118 119 120 121
6 122 123 124 125 126 127
6 128 129 130 131 132 133
6 134 135 136 137 138 139
6 140 141 142 143 144 145
4 146 147 148 149
4 150 151 152 153
6 154 155 156 157 158 159
6 160 161 162 163 164 165
4 166 167 168 169
4 170 171 172 173
6 174 175 176 177 178 179
4 180 181 182 183
8 184 185 186 187 188 189 190 191
8 192 193 194 195 196 197 198 199
6 200 201 202 203 204 205
4 206 207 208 209
4 210 211 212 213
4 214 215 216 217
4 114 117 218 219
4 220 221 222 223
8 224 225 226 227 228 229 230 231
10 232 233 234 235 236 237 238 239 240 241
4 242 243 244 245
4 246 247 248 249
4 250 251 252 253
3 254 255 256
3 255 257 258
3 254 259 260
4 261 262 263 264
3 265 257 266
3 260 267 268
4 37 36 269 270
3 271 266 268
4 272 273 274 275
4 276 277 278 279
8 280 281 282 283 284 285 286 287
4 245 244 288 289
4 290 291 292 293
6 294 295 17 16 296 297
10 298 299 300 301 302 303 304 305 306 307
4 308 309 310 311
6 312 313 314 195 194 315
4 316 317 318 319
8 320 321 174 179 322 323 324 325
8 326 327 328 329 330 331 332 333
6 334 335 336 337 338 339
4 340 341 342 343
4 309 308 344 345
6 346 347 348 349 350 351
11 352 353 354 355 356 357 358 359 360 361 362
4 363 364 365 366
6 367 368 369 370 371 372
4 373 374 375 376
4 377 378 379 380
4 100 381 382 101
4 383 384 385 386
6 387 388 389 390 391 392
4 393 386 385 394
4 172 171 395 396
4 219 218 382 381
9 397 398 399 400 401 402 403 404 405
9 283 282 281 406 407 408 280 287 409
8 410 411 412 413 414 415 416 417
4 418 419 420 421
8 422 423 424 425 426 427 428 429
10 430 431 432 433 434 435 436 437 438 439
8 52 57 440 441 442 443 444 445
4 446 447 448 449
8 450 451 452 453 454 455 456 457
4 458 459 460 461
6 462 463 464 465 190 189
4 466 467 468 469
6 470 471 472 473 474 475
8 476 477 478 401 400 399 404 403
9 479 480 481 482 483 484 485 486 487
4 488 243 242 489
4 490 491 492 493
4 494 495 496 497
3 498 499 500
3 501 502 499
3 503 504 500
6 505 506 507 508 509 510
3 511 502 512
6 513 514 515 516 517 518
3 519 520 503
4 269 521 522 270
4 488 489 523 524
4 41 40 522 521
3 519 511 525
6 526 527 528 529 530 531
4 532 533 534 535
4 147 536 537 148
6 228 538 539 540 541 229
4 542 543 544 545
4 22 21 546 547
8 548 549 550 551 552 553 554 555
6 556 557 558 559 560 561
6 562 563 564 565 566 567
6 454 568 569 570 571 455
6 572 573 426 425 574 575
4 576 577 578 579
4 580 581 582 583
4 74 73 584 585
4 586 587 588 589
4 577 576 590 591
4 592 593 588 587
10 594 595 596 597 598 599 600 601 602 603
4 604 605 606 607
8 608 609 566 565 610 611 612 613
6 614 615 616 617 618 619
4 620 621 622 623
6 624 625 626 627 628 629
10 630 631 632 633 634 635 636 637 638 639
6 640 641 642 643 644 645
6 646 647 648 649 650 651
6 652 653 654 655 656 657
6 658 659 550 549 660 661
9 662 326 333 663 329 328 327 664 665
4 666 667 668 669
4 670 671 672 673
4 674 675 676 677
4 678 679 680 681
4 544 543 682 683
4 684 685 686 687
8 688 689 690 691 692 693 46 51
4 694 695 696 697
4 581 580 698 699
5 352 700 359 358 353
4 373 376 701 702
3 703 704 705
3 704 706 707
3 703 708 709
3 710 706 711
4 116 115 99 98
3 709 712 713
8 714 715 716 717 718 719 720 721
4 722 723 724 725
3 726 711 713
6 727 728 729 730 731 732
6 733 734 735 736 737 738
9 739 740 741 742 743 744 745 746 747
4 748 532 535 749
6 750 751 752 753 754 755
4 756 757 758 759
4 760 761 762 763
8 764 765 766 767 768 387 392 769
4 607 606 770 771
4 772 773 774 775
4 776 777 778 779
6 780 781 719 718 782 783
4 151 150 784 785
6 786 414 413 787 788 789
10 790 791 792 753 752 793 794 755 754 795
10 796 797 798 799 800 801 802 803 804 805
8 742 806 747 746 807 808 744 743
4 809 810 811 812
4 813 814 815 816
4 317 316 817 818
4 819 820 821 822
4 491 490 823 824
4 825 826 827 828
6 829 830 831 832 833 834
6 835 836 837 838 839 840
6 841 842 843 844 845 846
6 847 848 849 850 851 852
8 853 854 855 856 857 556 561 858
4 859 860 861 862
6 863 864 865 866 867 868
4 869 870 871 872
4 873 874 875 876
6 877 878 879 880 881 882
4 883 884 885 886
4 887 888 889 890
4 891 892 893 894
10 895 896 897 898 899 900 901 902 903 904
4 905 906 907 908
4 909 910 911 912
4 913 914 915 916
6 917 918 6 5 919 920
4 921 922 923 924
4 925 926 927 928
6 903 929 930 900 899 904
4 931 932 933 934
6 935 936 937 938 939 940
4 524 523 941 942
8 943 944 487 486 945 483 482 481
4 288 942 941 289
4 946 916 915 947
4 948 949 950 951
4 952 953 954 955
3 956 957 958
3 959 960 957
3 961 962 958
3 963 960 964
3 965 966 961
4 292 291 967 968
4 290 293 914 913
4 38 35 34 39
3 965 963 969
4 968 967 946 947
6 970 971 972 973 974 975
6 976 977 978 979 980 981
6 982 983 984 985 986 987
6 988 989 990 991 992 993
6 994 995 996 997 998 999
