ply
format ascii 1.0
comment Created by Blender 2.82 (sub 7) - www.blender.org, source file: ''
element vertex 1044
property float x
property float y
property float z
element face 254
property list uchar uint vertex_indices
end_header
78.446999 179.639999 11.625000
78.446999 179.639999 8.625000
78.446999 168.889999 8.625000
78.446999 168.889999 11.625000
93.058998 -161.224701 -63.625000
93.058998 -161.224701 0.625000
93.058998 -174.474701 0.625000
93.058998 -174.474701 -63.625000
-94.262070 184.886002 58.375000
-94.262070 184.886002 52.125000
-94.262070 -186.114059 52.125000
-94.262070 -186.114059 58.375000
77.558998 180.774994 0.625000
93.058998 180.774994 0.625000
93.058998 180.774994 -63.625000
77.558998 180.774994 -63.625000
-74.441200 -174.474701 0.625000
-89.941254 -174.474701 0.625000
-89.941254 -174.474701 -63.625000
-74.441200 -174.474701 -63.625000
91.946999 168.889999 11.625000
78.446999 168.889999 11.625000
78.446999 168.889999 8.625000
91.946999 168.889999 8.625000
77.558998 -161.224701 0.625000
93.058998 -161.224701 0.625000
93.058998 -161.224701 -63.625000
77.558998 -161.224701 -63.625000
91.401001 169.632004 5.875000
90.444000 170.845993 5.875000
90.444000 177.095993 5.875000
91.401001 178.882004 5.875000
-76.098900 -163.117798 3.375000
-77.055702 -164.904404 3.375000
-77.055702 -171.154404 3.375000
-76.098900 -172.367798 3.375000
91.946999 -162.360306 -0.875000
91.946999 -162.360306 1.375000
91.946999 -173.110306 1.375000
91.946999 -173.110306 -0.875000
-87.168404 -164.904404 5.875000
-77.055702 -164.904404 5.875000
-77.055702 -164.904404 3.375000
-87.168404 -164.904404 3.375000
-89.052834 167.222000 11.625000
-89.941254 165.858002 11.625000
-89.941254 179.108002 11.625000
-74.441200 179.108002 11.625000
-75.552803 167.222000 11.625000
-75.552803 177.972000 11.625000
-89.052834 177.972000 11.625000
-89.941254 -174.474701 52.125000
-89.941254 179.108002 52.125000
-89.941254 165.858002 52.125000
-89.941254 -161.224701 52.125000
79.151001 -163.117798 8.625000
79.151001 -163.117798 5.875000
79.151001 -172.367798 5.875000
79.151001 -172.367798 8.625000
-75.552803 177.972000 1.375000
-76.098900 177.214996 1.375000
-76.098900 167.964996 1.375000
-88.348900 167.964996 1.375000
-75.552803 167.222000 1.375000
77.558998 167.524994 11.625000
77.558998 167.524994 52.125000
77.558998 180.774994 52.125000
77.558998 176.440002 26.900000
77.558998 176.440002 35.650002
77.558998 167.940002 35.650002
77.558998 167.940002 26.900000
77.558998 180.774994 11.625000
77.558998 -174.474701 52.125000
77.558998 180.774994 52.125000
77.558998 167.524994 52.125000
77.558998 -161.224701 52.125000
-89.052834 -162.360306 1.375000
-89.052834 -162.360306 -0.875000
-89.052834 -173.110306 -0.875000
-89.052834 -173.110306 1.375000
-88.348900 -163.117798 3.375000
-88.348900 -163.117798 1.375000
-88.348900 -172.367798 1.375000
-88.348900 -172.367798 3.375000
91.946999 179.639999 8.625000
91.946999 179.639999 11.625000
91.946999 168.889999 11.625000
91.946999 168.889999 8.625000
-77.055702 169.177994 5.875000
-76.098900 177.214996 5.875000
-76.098900 167.964996 5.875000
-87.168404 169.177994 5.875000
-92.018944 -177.224686 -63.625000
-72.441200 -177.224686 -63.625000
-89.941254 -174.474701 -63.625000
-89.941254 -161.224701 -63.625000
-74.441200 -161.224701 -63.625000
-72.441200 -158.974701 -63.625000
-92.018944 -158.974701 -63.625000
2.724000 165.858002 60.875000
2.724000 165.858002 54.875000
-6.983700 165.858002 54.875000
-6.983700 165.858002 60.875000
-55.861401 165.858002 60.875000
-55.861401 165.858002 57.125000
-73.898903 165.858002 57.125000
-73.898903 165.858002 52.125000
75.100998 165.858002 52.125000
75.100998 165.858002 57.125000
54.599998 165.858002 57.125000
54.599998 165.858002 60.875000
-74.441200 -174.474701 11.625000
-75.552803 -173.110306 11.625000
-75.552803 -162.360306 11.625000
-74.441200 -161.224701 11.625000
-89.941254 -161.224701 52.125000
-89.941254 -161.224701 11.625000
-89.941254 -174.474701 11.625000
-89.941254 -174.474701 52.125000
95.058998 183.024994 -69.125000
95.058998 183.024994 -63.625000
95.058998 164.774994 -63.625000
95.058998 164.774994 -69.125000
-55.861401 165.858002 57.125000
-73.898903 147.820007 57.125000
-73.898903 165.858002 57.125000
-74.441200 179.108002 11.625000
-74.441200 179.108002 52.125000
-74.441200 165.858002 52.125000
-74.441200 167.940002 35.650002
-74.441200 176.440002 35.650002
-74.441200 176.440002 26.900000
-74.441200 167.940002 26.900000
79.151001 -163.117798 8.625000
91.401001 -163.117798 8.625000
91.401001 -163.117798 5.875000
79.151001 -163.117798 5.875000
-74.441200 165.858002 11.625000
90.084999 -161.224701 35.650002
90.084999 167.524994 35.650002
80.334999 167.524994 35.650002
80.334999 -161.224701 35.650002
75.100998 41.275002 54.875000
75.100998 41.275002 60.875000
75.100998 145.356003 60.875000
75.100998 145.356003 57.125000
75.100998 165.858002 57.125000
75.100998 165.858002 52.125000
75.100998 -151.892105 52.125000
75.100998 -151.892105 57.125000
75.100998 -136.975098 57.125000
75.100998 -136.975098 60.875000
75.100998 -34.328999 60.875000
75.100998 -34.328999 54.875000
91.401001 -172.367798 3.375000
79.151001 -172.367798 3.375000
79.151001 -172.367798 1.375000
91.401001 -172.367798 1.375000
-75.552803 177.972000 -0.875000
-75.552803 177.972000 1.375000
-75.552803 167.222000 1.375000
-75.552803 167.222000 -0.875000
90.444000 -164.904404 3.375000
90.444000 -164.904404 5.875000
90.444000 -171.154404 5.875000
90.444000 -171.154404 3.375000
75.100998 145.356003 57.125000
54.599998 165.858002 57.125000
75.100998 165.858002 57.125000
80.332001 177.095993 5.875000
80.332001 170.845993 5.875000
79.151001 169.632004 5.875000
79.151001 178.882004 5.875000
77.558998 -161.224701 -63.625000
93.058998 -161.224701 -63.625000
95.058998 -177.224686 -63.625000
95.058998 -158.974701 -63.625000
75.481003 -158.974701 -63.625000
-88.348900 -163.117798 8.625000
-88.348900 -163.117798 5.875000
-88.348900 -172.367798 5.875000
-88.348900 -172.367798 8.625000
90.444000 170.845993 5.875000
80.332001 170.845993 5.875000
80.332001 170.845993 3.375000
90.444000 170.845993 3.375000
79.151001 178.882004 3.375000
79.151001 178.882004 1.375000
79.151001 169.632004 1.375000
79.151001 169.632004 3.375000
2.724000 -151.892105 54.875000
2.724000 41.275002 54.875000
2.724000 -34.328999 54.875000
-76.098900 -172.367798 8.625000
-88.348900 -172.367798 8.625000
-88.348900 -172.367798 5.875000
-76.098900 -172.367798 5.875000
-89.052834 -173.110306 11.625000
-89.941254 -174.474701 11.625000
-89.941254 -161.224701 11.625000
-89.052834 -162.360306 11.625000
91.401001 169.632004 1.375000
91.401001 178.882004 1.375000
79.151001 178.882004 1.375000
79.151001 169.632004 1.375000
-6.983700 -34.328999 60.875000
-6.983700 -151.892105 60.875000
-54.931198 -151.892105 60.875000
-73.898903 -132.924500 60.875000
-73.898903 -34.328999 60.875000
-74.441200 -163.373398 35.650002
77.558998 -163.373398 35.650002
77.558998 -163.373398 26.900000
-74.441200 -163.373398 26.900000
-54.931198 -151.892105 57.125000
-73.898903 -151.892105 57.125000
-73.898903 -132.924500 57.125000
-72.441200 -177.224686 -63.625000
-92.018944 -177.224686 -63.625000
-92.018944 -177.224686 -69.125000
-72.441200 -177.224686 -69.125000
-87.168404 -164.904404 5.875000
-87.168404 -164.904404 3.375000
-87.168404 -171.154404 3.375000
-87.168404 -171.154404 5.875000
-89.941254 -161.224701 52.125000
-74.441200 -161.224701 52.125000
-74.441200 -161.224701 11.625000
-89.941254 -161.224701 11.625000
-92.018944 -158.974701 -63.625000
-72.441200 -158.974701 -63.625000
-72.441200 -158.974701 -69.125000
-92.018944 -158.974701 -69.125000
75.100998 -151.892105 57.125000
60.183998 -151.892105 57.125000
75.100998 -136.975098 57.125000
-76.098900 167.964996 8.625000
-75.552803 177.972000 8.625000
-75.552803 167.222000 8.625000
-89.052834 167.222000 8.625000
-88.348900 177.214996 8.625000
-88.348900 167.964996 8.625000
-76.098900 177.214996 1.375000
-76.098900 177.214996 3.375000
-76.098900 167.964996 3.375000
-76.098900 167.964996 1.375000
95.058998 164.774994 -63.625000
75.481003 164.774994 -63.625000
75.481003 164.774994 -69.125000
95.058998 164.774994 -69.125000
-74.441200 179.108002 -63.625000
-74.441200 179.108002 0.625000
-74.441200 165.858002 0.625000
-74.441200 165.858002 -63.625000
93.058998 180.774994 11.625000
91.946999 168.889999 11.625000
91.946999 179.639999 11.625000
78.446999 179.639999 11.625000
77.558998 167.524994 11.625000
77.558998 180.774994 11.625000
-89.052834 177.972000 1.375000
-89.052834 177.972000 -0.875000
-89.052834 167.222000 -0.875000
-89.052834 167.222000 1.375000
79.151001 -172.367798 5.875000
80.332001 -164.904404 5.875000
80.332001 -171.154404 5.875000
91.401001 -172.367798 5.875000
77.558998 167.940002 35.650002
-74.441200 167.940002 35.650002
-74.441200 167.940002 26.900000
77.558998 167.940002 26.900000
-72.441200 163.108002 -63.625000
-72.441200 181.358002 -63.625000
-92.018944 181.358002 -63.625000
-89.941254 179.108002 -63.625000
-74.441200 179.108002 -63.625000
-74.441200 165.858002 -63.625000
91.946999 -173.110306 11.625000
93.058998 -161.224701 11.625000
93.058998 -174.474701 11.625000
78.446999 -173.110306 11.625000
93.058998 -161.224701 11.625000
93.058998 -161.224701 52.125000
93.058998 -174.474701 52.125000
93.058998 -174.474701 11.625000
-72.441200 181.358002 -69.125000
-72.441200 163.108002 -69.125000
-92.018944 163.108002 -69.125000
-92.018944 181.358002 -69.125000
-74.441200 176.440002 35.650002
77.558998 176.440002 35.650002
77.558998 176.440002 26.900000
-74.441200 176.440002 26.900000
77.558998 167.940002 35.650002
77.558998 176.440002 35.650002
-74.441200 176.440002 35.650002
-74.441200 167.940002 35.650002
-77.055702 169.177994 5.875000
-87.168404 169.177994 5.875000
-87.168404 169.177994 3.375000
-77.055702 169.177994 3.375000
-92.018944 181.358002 -63.625000
-92.018944 181.358002 -69.125000
-92.018944 163.108002 -69.125000
-92.018944 163.108002 -63.625000
95.058998 -158.974701 -69.125000
95.058998 -177.224686 -69.125000
75.481003 -177.224686 -69.125000
75.481003 -158.974701 -69.125000
-6.983700 165.858002 60.875000
-6.983700 165.858002 54.875000
-6.983700 41.275002 54.875000
-6.983700 41.275002 60.875000
91.401001 -172.367798 1.375000
79.151001 -172.367798 1.375000
78.446999 -173.110306 1.375000
91.946999 -173.110306 1.375000
91.946999 -162.360306 1.375000
78.446999 -162.360306 1.375000
79.151001 -163.117798 1.375000
91.401001 -163.117798 1.375000
-94.262070 184.886002 58.375000
-94.262070 -186.114059 58.375000
94.987999 -186.114059 58.375000
99.000000 -192.750000 58.375000
-99.000000 -192.750000 58.375000
-99.000000 192.750000 58.375000
80.332001 -164.904404 5.875000
90.444000 -164.904404 5.875000
90.444000 -164.904404 3.375000
80.332001 -164.904404 3.375000
99.000000 -192.750000 69.125000
99.000000 192.750000 69.125000
-99.000000 192.750000 69.125000
-99.000000 -192.750000 69.125000
75.481003 -177.224686 -63.625000
93.058998 -174.474701 -63.625000
77.558998 -174.474701 -63.625000
75.481003 -158.974701 -63.625000
95.058998 -158.974701 -63.625000
95.058998 -158.974701 -69.125000
75.481003 -158.974701 -69.125000
2.724000 165.858002 54.875000
2.724000 165.858002 60.875000
2.724000 41.275002 60.875000
2.724000 41.275002 54.875000
93.058998 -161.224701 52.125000
93.058998 167.524994 52.125000
93.058998 180.774994 52.125000
75.100998 -151.892105 52.125000
75.100998 165.858002 52.125000
-73.898903 165.858002 52.125000
-74.441200 -174.474701 52.125000
-74.441200 -161.224701 52.125000
-74.441200 165.858002 52.125000
-74.441200 179.108002 52.125000
-94.262070 -186.114059 52.125000
-94.262070 184.886002 52.125000
94.987999 184.886002 52.125000
94.987999 -186.114059 52.125000
-73.898903 -151.892105 52.125000
93.058998 -174.474701 52.125000
75.100998 41.275002 54.875000
75.100998 -34.328999 54.875000
-76.098900 -163.117798 1.375000
-75.552803 -173.110306 1.375000
-75.552803 -162.360306 1.375000
-89.052834 -162.360306 1.375000
-88.348900 -163.117798 1.375000
-6.983700 -34.328999 54.875000
-73.898903 -34.328999 54.875000
-73.898903 41.275002 54.875000
-6.983700 41.275002 54.875000
-6.983700 165.858002 54.875000
2.724000 165.858002 54.875000
-6.983700 -151.892105 54.875000
-94.262070 184.886002 58.375000
94.987999 184.886002 58.375000
94.987999 184.886002 52.125000
-94.262070 184.886002 52.125000
90.444000 177.095993 3.375000
90.444000 170.845993 3.375000
80.332001 170.845993 3.375000
91.401001 169.632004 3.375000
91.401001 178.882004 3.375000
79.151001 178.882004 3.375000
80.332001 177.095993 3.375000
94.987999 184.886002 52.125000
94.987999 184.886002 58.375000
94.987999 -186.114059 58.375000
94.987999 -186.114059 52.125000
94.987999 -186.114059 58.375000
-94.262070 -186.114059 58.375000
-94.262070 -186.114059 52.125000
94.987999 -186.114059 52.125000
-76.098900 -172.367798 3.375000
-88.348900 -172.367798 3.375000
-88.348900 -172.367798 1.375000
-76.098900 -172.367798 1.375000
91.401001 169.632004 8.625000
79.151001 169.632004 8.625000
79.151001 169.632004 5.875000
91.401001 169.632004 5.875000
78.446999 -162.360306 1.375000
78.446999 -162.360306 -0.875000
78.446999 -173.110306 -0.875000
78.446999 -173.110306 1.375000
78.446999 -162.360306 1.375000
91.946999 -162.360306 1.375000
91.946999 -162.360306 -0.875000
78.446999 -162.360306 -0.875000
54.599998 165.858002 60.875000
54.599998 165.858002 57.125000
75.100998 145.356003 57.125000
75.100998 145.356003 60.875000
-75.552803 167.222000 11.625000
-89.052834 167.222000 11.625000
-89.052834 167.222000 8.625000
-75.552803 167.222000 8.625000
78.446999 168.889999 11.625000
93.058998 167.524994 11.625000
91.946999 179.639999 -0.875000
91.946999 179.639999 1.375000
91.946999 168.889999 1.375000
91.946999 168.889999 -0.875000
91.946999 -173.110306 1.375000
78.446999 -173.110306 1.375000
78.446999 -173.110306 -0.875000
91.946999 -173.110306 -0.875000
-74.441200 -174.474701 -63.625000
-72.441200 -158.974701 -69.125000
-72.441200 -177.224686 -69.125000
-92.018944 -177.224686 -69.125000
-92.018944 -158.974701 -69.125000
-88.348900 -172.367798 8.625000
-76.098900 -172.367798 8.625000
-75.552803 -173.110306 8.625000
-89.052834 -173.110306 8.625000
-88.348900 -163.117798 8.625000
-88.348900 177.214996 8.625000
-88.348900 177.214996 5.875000
-88.348900 167.964996 5.875000
-88.348900 167.964996 8.625000
93.058998 180.774994 -63.625000
93.058998 180.774994 0.625000
93.058998 167.524994 0.625000
93.058998 167.524994 -63.625000
91.401001 178.882004 1.375000
91.401001 178.882004 3.375000
91.401001 169.632004 3.375000
91.401001 169.632004 1.375000
75.100998 -34.328999 60.875000
2.724000 -34.328999 60.875000
2.724000 -34.328999 54.875000
75.100998 -34.328999 54.875000
75.481003 183.024994 -63.625000
75.481003 183.024994 -69.125000
75.481003 164.774994 -69.125000
75.481003 164.774994 -63.625000
-88.348900 177.214996 3.375000
-76.098900 177.214996 3.375000
-76.098900 177.214996 1.375000
-88.348900 177.214996 1.375000
-76.098900 167.964996 1.375000
-76.098900 177.214996 1.375000
-88.348900 177.214996 1.375000
-88.348900 167.964996 1.375000
77.558998 -171.873398 35.650002
-74.441200 -171.873398 35.650002
-74.441200 -171.873398 26.900000
77.558998 -171.873398 26.900000
94.987999 184.886002 58.375000
99.000000 192.750000 58.375000
75.100998 -136.975098 60.875000
75.100998 -136.975098 57.125000
60.183998 -151.892105 57.125000
60.183998 -151.892105 60.875000
93.058998 180.774994 -63.625000
93.058998 167.524994 -63.625000
95.058998 164.774994 -63.625000
95.058998 183.024994 -63.625000
77.558998 180.774994 -63.625000
77.558998 167.524994 -63.625000
75.481003 183.024994 -63.625000
75.481003 164.774994 -63.625000
77.558998 180.774994 0.625000
77.558998 180.774994 -63.625000
77.558998 167.524994 -63.625000
77.558998 167.524994 0.625000
-75.552803 177.972000 -0.875000
-75.552803 167.222000 -0.875000
-89.052834 167.222000 -0.875000
-89.052834 177.972000 -0.875000
-99.000000 192.750000 69.125000
-99.000000 192.750000 58.375000
-99.000000 -192.750000 58.375000
-99.000000 -192.750000 69.125000
-74.441200 165.858002 0.625000
-89.941254 165.858002 0.625000
-89.941254 165.858002 -63.625000
-74.441200 165.858002 -63.625000
-6.983700 -34.328999 60.875000
-6.983700 -34.328999 54.875000
-6.983700 -151.892105 54.875000
-6.983700 -151.892105 60.875000
91.946999 -162.360306 8.625000
91.946999 -162.360306 11.625000
91.946999 -173.110306 11.625000
91.946999 -173.110306 8.625000
2.724000 -34.328999 54.875000
2.724000 -34.328999 60.875000
2.724000 -151.892105 60.875000
2.724000 -151.892105 54.875000
-77.055702 175.427994 3.375000
-77.055702 175.427994 5.875000
-77.055702 169.177994 5.875000
-77.055702 169.177994 3.375000
77.558998 -161.224701 52.125000
77.558998 -161.224701 11.625000
77.558998 -174.474701 11.625000
77.558998 -174.474701 52.125000
-92.018944 163.108002 -63.625000
-89.941254 165.858002 -63.625000
93.058998 180.774994 11.625000
93.058998 180.774994 52.125000
93.058998 167.524994 52.125000
93.058998 167.524994 11.625000
91.401001 -172.367798 3.375000
90.444000 -164.904404 3.375000
90.444000 -171.154404 3.375000
80.332001 -171.154404 3.375000
79.151001 -172.367798 3.375000
-92.018944 181.358002 -63.625000
-72.441200 181.358002 -63.625000
-72.441200 181.358002 -69.125000
-92.018944 181.358002 -69.125000
90.084999 167.524994 26.900000
90.084999 -161.224701 26.900000
80.334999 -161.224701 26.900000
80.334999 167.524994 26.900000
90.084999 -161.224701 26.900000
93.058998 -161.224701 11.625000
77.558998 -161.224701 11.625000
77.558998 -161.224701 52.125000
80.334999 -161.224701 35.650002
80.334999 -161.224701 26.900000
80.334999 167.524994 35.650002
80.334999 167.524994 26.900000
80.334999 -161.224701 26.900000
80.334999 -161.224701 35.650002
-74.441200 165.858002 11.625000
-76.873802 167.524994 26.900000
-76.873802 -161.224701 26.900000
-86.623802 -161.224701 26.900000
-86.623802 167.524994 26.900000
-73.898903 -151.892105 52.125000
-73.898903 165.858002 52.125000
-73.898903 165.858002 57.125000
-73.898903 147.820007 57.125000
-73.898903 147.820007 60.875000
-73.898903 41.275002 60.875000
-73.898903 41.275002 54.875000
-73.898903 -34.328999 54.875000
-73.898903 -34.328999 60.875000
-73.898903 -132.924500 60.875000
-73.898903 -132.924500 57.125000
-73.898903 -151.892105 57.125000
79.151001 178.882004 8.625000
91.401001 178.882004 8.625000
91.401001 178.882004 5.875000
79.151001 178.882004 5.875000
-99.000000 192.750000 69.125000
99.000000 192.750000 69.125000
99.000000 192.750000 58.375000
-99.000000 192.750000 58.375000
-75.552803 -173.110306 1.375000
-89.052834 -173.110306 1.375000
-89.052834 -173.110306 -0.875000
-75.552803 -173.110306 -0.875000
91.946999 -162.360306 -0.875000
91.946999 -173.110306 -0.875000
78.446999 -173.110306 -0.875000
78.446999 -162.360306 -0.875000
79.151001 169.632004 8.625000
78.446999 168.889999 8.625000
78.446999 179.639999 8.625000
79.151001 178.882004 8.625000
91.946999 179.639999 8.625000
91.946999 168.889999 8.625000
91.401001 169.632004 8.625000
91.401001 178.882004 8.625000
91.401001 -163.117798 1.375000
91.401001 -163.117798 3.375000
91.401001 -172.367798 3.375000
91.401001 -172.367798 1.375000
54.599998 165.858002 60.875000
75.100998 145.356003 60.875000
75.100998 41.275002 60.875000
2.724000 41.275002 60.875000
2.724000 165.858002 60.875000
78.446999 179.639999 11.625000
91.946999 179.639999 11.625000
91.946999 179.639999 8.625000
78.446999 179.639999 8.625000
90.444000 -171.154404 5.875000
80.332001 -171.154404 5.875000
80.332001 -171.154404 3.375000
90.444000 -171.154404 3.375000
93.058998 -161.224701 52.125000
90.084999 -161.224701 35.650002
91.946999 168.889999 1.375000
78.446999 168.889999 1.375000
78.446999 168.889999 -0.875000
91.946999 168.889999 -0.875000
91.401001 -172.367798 1.375000
91.401001 -163.117798 1.375000
79.151001 -163.117798 1.375000
79.151001 -172.367798 1.375000
75.481003 -158.974701 -63.625000
75.481003 -158.974701 -69.125000
75.481003 -177.224686 -69.125000
75.481003 -177.224686 -63.625000
-89.052834 -162.360306 11.625000
-75.552803 -162.360306 11.625000
-75.552803 -162.360306 8.625000
-89.052834 -162.360306 8.625000
95.058998 -177.224686 -63.625000
75.481003 -177.224686 -63.625000
75.481003 -177.224686 -69.125000
95.058998 -177.224686 -69.125000
95.058998 -158.974701 -69.125000
95.058998 -158.974701 -63.625000
95.058998 -177.224686 -63.625000
95.058998 -177.224686 -69.125000
93.058998 -174.474701 0.625000
77.558998 -174.474701 0.625000
77.558998 -174.474701 -63.625000
93.058998 -174.474701 -63.625000
77.558998 -161.224701 0.625000
77.558998 -161.224701 -63.625000
77.558998 -174.474701 -63.625000
77.558998 -174.474701 0.625000
80.332001 -164.904404 5.875000
80.332001 -164.904404 3.375000
80.332001 -171.154404 3.375000
80.332001 -171.154404 5.875000
91.401001 178.882004 5.875000
91.401001 178.882004 8.625000
91.401001 169.632004 8.625000
91.401001 169.632004 5.875000
99.000000 192.750000 58.375000
99.000000 192.750000 69.125000
99.000000 -192.750000 69.125000
99.000000 -192.750000 58.375000
-76.098900 -163.117798 5.875000
-76.098900 -163.117798 8.625000
-76.098900 -172.367798 8.625000
-76.098900 -172.367798 5.875000
91.401001 169.632004 3.375000
79.151001 169.632004 3.375000
79.151001 169.632004 1.375000
91.401001 169.632004 1.375000
80.332001 177.095993 5.875000
90.444000 177.095993 5.875000
90.444000 177.095993 3.375000
80.332001 177.095993 3.375000
-87.168404 -171.154404 5.875000
-77.055702 -171.154404 5.875000
-76.098900 -172.367798 5.875000
-88.348900 -172.367798 5.875000
-88.348900 -163.117798 5.875000
-76.098900 -163.117798 5.875000
-77.055702 -164.904404 5.875000
-87.168404 -164.904404 5.875000
79.151001 178.882004 8.625000
79.151001 178.882004 5.875000
79.151001 169.632004 5.875000
79.151001 169.632004 8.625000
-88.348900 -163.117798 8.625000
-76.098900 -163.117798 8.625000
-76.098900 -163.117798 5.875000
-88.348900 -163.117798 5.875000
80.332001 177.095993 5.875000
80.332001 177.095993 3.375000
80.332001 170.845993 3.375000
80.332001 170.845993 5.875000
-87.168404 -164.904404 3.375000
-88.348900 -163.117798 3.375000
-88.348900 -172.367798 3.375000
-87.168404 -171.154404 3.375000
79.151001 169.632004 3.375000
90.444000 177.095993 3.375000
90.444000 177.095993 5.875000
90.444000 170.845993 5.875000
90.444000 170.845993 3.375000
-88.348900 -163.117798 3.375000
-76.098900 -163.117798 3.375000
-76.098900 -163.117798 1.375000
-88.348900 -163.117798 1.375000
79.151001 178.882004 3.375000
91.401001 178.882004 3.375000
91.401001 178.882004 1.375000
79.151001 178.882004 1.375000
-75.552803 -162.360306 -0.875000
-75.552803 -173.110306 -0.875000
-89.052834 -173.110306 -0.875000
-89.052834 -162.360306 -0.875000
-89.052834 -162.360306 1.375000
-75.552803 -162.360306 1.375000
-75.552803 -162.360306 -0.875000
-89.052834 -162.360306 -0.875000
-89.052834 -173.110306 1.375000
-76.098900 -172.367798 1.375000
-88.348900 -172.367798 1.375000
-76.098900 -163.117798 8.625000
-89.052834 -162.360306 8.625000
-75.552803 -162.360306 8.625000
-75.552803 -162.360306 -0.875000
-75.552803 -162.360306 1.375000
-75.552803 -173.110306 1.375000
-75.552803 -173.110306 -0.875000
-76.098900 -163.117798 1.375000
-76.098900 -163.117798 3.375000
-76.098900 -172.367798 3.375000
-76.098900 -172.367798 1.375000
-74.441200 -161.224701 -63.625000
-74.441200 -161.224701 0.625000
-74.441200 -174.474701 0.625000
-74.441200 -174.474701 -63.625000
2.724000 41.275002 60.875000
75.100998 41.275002 60.875000
75.100998 41.275002 54.875000
2.724000 41.275002 54.875000
99.000000 -192.750000 69.125000
-99.000000 -192.750000 69.125000
-99.000000 -192.750000 58.375000
99.000000 -192.750000 58.375000
75.100998 -151.892105 52.125000
-73.898903 -151.892105 52.125000
-73.898903 -151.892105 57.125000
-54.931198 -151.892105 57.125000
-54.931198 -151.892105 60.875000
-6.983700 -151.892105 60.875000
-6.983700 -151.892105 54.875000
2.724000 -151.892105 54.875000
2.724000 -151.892105 60.875000
60.183998 -151.892105 60.875000
60.183998 -151.892105 57.125000
75.100998 -151.892105 57.125000
-89.941254 -161.224701 0.625000
-74.441200 -161.224701 0.625000
-74.441200 -161.224701 -63.625000
-89.941254 -161.224701 -63.625000
-89.941254 -161.224701 0.625000
-89.941254 -161.224701 -63.625000
-89.941254 -174.474701 -63.625000
-89.941254 -174.474701 0.625000
-75.552803 -173.110306 11.625000
-89.052834 -173.110306 11.625000
-89.052834 -173.110306 8.625000
-75.552803 -173.110306 8.625000
-89.052834 -162.360306 11.625000
-89.052834 -162.360306 8.625000
-89.052834 -173.110306 8.625000
-89.052834 -173.110306 11.625000
-73.898903 41.275002 60.875000
-6.983700 41.275002 60.875000
-6.983700 41.275002 54.875000
-73.898903 41.275002 54.875000
93.058998 167.524994 0.625000
77.558998 167.524994 0.625000
77.558998 167.524994 -63.625000
93.058998 167.524994 -63.625000
91.946999 179.639999 -0.875000
91.946999 168.889999 -0.875000
78.446999 168.889999 -0.875000
78.446999 179.639999 -0.875000
-74.441200 -161.224701 11.625000
-74.441200 -161.224701 52.125000
-74.441200 -174.474701 52.125000
-74.441200 -174.474701 11.625000
91.401001 178.882004 1.375000
91.401001 169.632004 1.375000
79.151001 169.632004 1.375000
78.446999 168.889999 1.375000
91.946999 168.889999 1.375000
91.946999 179.639999 1.375000
78.446999 179.639999 1.375000
79.151001 178.882004 1.375000
78.446999 179.639999 1.375000
78.446999 179.639999 -0.875000
78.446999 168.889999 -0.875000
78.446999 168.889999 1.375000
-77.055702 -164.904404 3.375000
-77.055702 -164.904404 5.875000
-77.055702 -171.154404 5.875000
-77.055702 -171.154404 3.375000
-77.055702 -171.154404 5.875000
-87.168404 -171.154404 5.875000
-87.168404 -171.154404 3.375000
-77.055702 -171.154404 3.375000
-74.441200 -174.474701 52.125000
-89.941254 -174.474701 52.125000
-89.941254 -174.474701 11.625000
-74.441200 -174.474701 11.625000
-76.098900 -172.367798 1.375000
-76.098900 -163.117798 1.375000
-88.348900 -163.117798 1.375000
-88.348900 -172.367798 1.375000
-72.441200 -158.974701 -69.125000
-72.441200 -158.974701 -63.625000
-72.441200 -177.224686 -63.625000
-72.441200 -177.224686 -69.125000
-55.861401 165.858002 57.125000
-55.861401 165.858002 60.875000
-73.898903 147.820007 60.875000
-73.898903 147.820007 57.125000
-76.098900 167.964996 8.625000
-88.348900 167.964996 8.625000
-88.348900 167.964996 5.875000
-76.098900 167.964996 5.875000
-76.098900 177.214996 5.875000
-76.098900 177.214996 8.625000
-76.098900 167.964996 8.625000
-76.098900 167.964996 5.875000
-76.098900 177.214996 8.625000
-89.052834 177.972000 8.625000
-88.348900 167.964996 5.875000
-88.348900 177.214996 5.875000
-77.055702 175.427994 5.875000
-87.168404 175.427994 5.875000
-75.552803 177.972000 8.625000
-75.552803 177.972000 11.625000
-75.552803 167.222000 11.625000
-75.552803 167.222000 8.625000
-88.348900 177.214996 8.625000
-76.098900 177.214996 8.625000
-76.098900 177.214996 5.875000
-88.348900 177.214996 5.875000
-92.018944 -158.974701 -63.625000
-92.018944 -158.974701 -69.125000
-92.018944 -177.224686 -69.125000
-92.018944 -177.224686 -63.625000
-76.098900 167.964996 3.375000
-76.098900 177.214996 3.375000
-88.348900 177.214996 3.375000
-87.168404 175.427994 3.375000
-77.055702 175.427994 3.375000
-77.055702 169.177994 3.375000
-87.168404 169.177994 3.375000
-88.348900 167.964996 3.375000
-6.983700 -34.328999 60.875000
-73.898903 -34.328999 60.875000
-73.898903 -34.328999 54.875000
-6.983700 -34.328999 54.875000
91.401001 -172.367798 8.625000
79.151001 -172.367798 8.625000
79.151001 -172.367798 5.875000
91.401001 -172.367798 5.875000
75.481003 183.024994 -63.625000
95.058998 183.024994 -63.625000
95.058998 183.024994 -69.125000
75.481003 183.024994 -69.125000
75.100998 -34.328999 60.875000
75.100998 -136.975098 60.875000
60.183998 -151.892105 60.875000
2.724000 -151.892105 60.875000
2.724000 -34.328999 60.875000
90.084999 167.524994 26.900000
80.334999 167.524994 26.900000
77.558998 167.524994 52.125000
77.558998 167.524994 11.625000
93.058998 167.524994 11.625000
-76.098900 167.964996 3.375000
-88.348900 167.964996 3.375000
-88.348900 167.964996 1.375000
-76.098900 167.964996 1.375000
-88.348900 177.214996 3.375000
-88.348900 177.214996 1.375000
-88.348900 167.964996 1.375000
-88.348900 167.964996 3.375000
91.401001 -163.117798 5.875000
91.401001 -163.117798 8.625000
91.401001 -172.367798 8.625000
91.401001 -172.367798 5.875000
95.058998 183.024994 -69.125000
95.058998 164.774994 -69.125000
75.481003 164.774994 -69.125000
75.481003 183.024994 -69.125000
79.151001 -163.117798 3.375000
79.151001 -163.117798 1.375000
79.151001 -172.367798 1.375000
79.151001 -172.367798 3.375000
-89.941254 179.108002 0.625000
-89.941254 179.108002 -63.625000
-89.941254 165.858002 -63.625000
-89.941254 165.858002 0.625000
-88.348900 177.214996 1.375000
-89.052834 177.972000 1.375000
-89.052834 167.222000 1.375000
-89.052834 177.972000 11.625000
-75.552803 177.972000 11.625000
-75.552803 177.972000 8.625000
-89.052834 177.972000 8.625000
93.058998 -174.474701 52.125000
77.558998 -174.474701 52.125000
77.558998 -174.474701 11.625000
93.058998 -174.474701 11.625000
90.444000 -171.154404 5.875000
90.444000 -164.904404 5.875000
79.151001 -163.117798 5.875000
91.401001 -163.117798 5.875000
-75.552803 167.222000 1.375000
-89.052834 167.222000 1.375000
-89.052834 167.222000 -0.875000
-75.552803 167.222000 -0.875000
-87.168404 175.427994 5.875000
-87.168404 175.427994 3.375000
-87.168404 169.177994 3.375000
-87.168404 169.177994 5.875000
78.446999 179.639999 1.375000
91.946999 179.639999 1.375000
91.946999 179.639999 -0.875000
78.446999 179.639999 -0.875000
78.446999 -162.360306 11.625000
78.446999 -162.360306 8.625000
78.446999 -173.110306 8.625000
78.446999 -173.110306 11.625000
91.946999 -173.110306 11.625000
78.446999 -173.110306 11.625000
78.446999 -173.110306 8.625000
91.946999 -173.110306 8.625000
-6.983700 41.275002 60.875000
-73.898903 41.275002 60.875000
-73.898903 147.820007 60.875000
-55.861401 165.858002 60.875000
-6.983700 165.858002 60.875000
-89.941254 179.108002 52.125000
-74.441200 179.108002 52.125000
-74.441200 179.108002 11.625000
-89.941254 179.108002 11.625000
-89.941254 179.108002 52.125000
-89.941254 179.108002 11.625000
-89.941254 165.858002 11.625000
-89.941254 165.858002 52.125000
78.446999 -162.360306 8.625000
91.946999 -162.360306 8.625000
91.401001 -172.367798 8.625000
91.401001 -163.117798 8.625000
79.151001 -163.117798 8.625000
79.151001 -172.367798 8.625000
78.446999 -173.110306 8.625000
78.446999 -162.360306 11.625000
91.946999 -162.360306 11.625000
91.946999 -162.360306 8.625000
78.446999 -162.360306 8.625000
77.558998 -171.873398 35.650002
77.558998 -163.373398 35.650002
-74.441200 -163.373398 35.650002
-74.441200 -171.873398 35.650002
91.946999 -173.110306 8.625000
80.334999 167.524994 35.650002
90.084999 167.524994 35.650002
93.058998 167.524994 52.125000
-74.441200 165.858002 52.125000
-89.941254 165.858002 52.125000
-89.941254 165.858002 11.625000
-74.441200 165.858002 11.625000
-89.941254 179.108002 0.625000
-74.441200 179.108002 0.625000
-74.441200 179.108002 -63.625000
-89.941254 179.108002 -63.625000
79.151001 -163.117798 3.375000
91.401001 -163.117798 3.375000
91.401001 -163.117798 1.375000
79.151001 -163.117798 1.375000
93.058998 -161.224701 52.125000
93.058998 -174.474701 52.125000
77.558998 -174.474701 52.125000
77.558998 -161.224701 52.125000
-72.441200 181.358002 -69.125000
-72.441200 181.358002 -63.625000
-72.441200 163.108002 -63.625000
-72.441200 163.108002 -69.125000
77.558998 -174.474701 11.625000
77.558998 -161.224701 11.625000
91.946999 -162.360306 11.625000
78.446999 -162.360306 11.625000
77.558998 180.774994 52.125000
93.058998 180.774994 52.125000
93.058998 180.774994 11.625000
77.558998 180.774994 11.625000
-72.441200 163.108002 -63.625000
-92.018944 163.108002 -63.625000
-92.018944 163.108002 -69.125000
-72.441200 163.108002 -69.125000
-89.052834 177.972000 1.375000
-75.552803 177.972000 1.375000
-75.552803 177.972000 -0.875000
-89.052834 177.972000 -0.875000
77.558998 176.440002 26.900000
77.558998 167.940002 26.900000
-74.441200 167.940002 26.900000
-74.441200 176.440002 26.900000
90.084999 167.524994 26.900000
90.084999 167.524994 35.650002
90.084999 -161.224701 35.650002
90.084999 -161.224701 26.900000
91.401001 -163.117798 3.375000
79.151001 -163.117798 3.375000
80.332001 -164.904404 3.375000
77.558998 -163.373398 26.900000
77.558998 -171.873398 26.900000
-74.441200 -171.873398 26.900000
-74.441200 -163.373398 26.900000
-86.623802 167.524994 35.650002
-86.623802 167.524994 26.900000
-86.623802 -161.224701 26.900000
-86.623802 -161.224701 35.650002
-76.873802 -161.224701 35.650002
-76.873802 167.524994 35.650002
-86.623802 167.524994 35.650002
-86.623802 -161.224701 35.650002
-76.873802 167.524994 26.900000
-76.873802 167.524994 35.650002
-76.873802 -161.224701 35.650002
-76.873802 -161.224701 26.900000
-87.168404 175.427994 5.875000
-77.055702 175.427994 5.875000
-77.055702 175.427994 3.375000
-87.168404 175.427994 3.375000
-89.052834 177.972000 11.625000
-89.052834 177.972000 8.625000
-89.052834 167.222000 8.625000
-89.052834 167.222000 11.625000
-75.552803 -162.360306 8.625000
-75.552803 -162.360306 11.625000
-75.552803 -173.110306 11.625000
-75.552803 -173.110306 8.625000
-73.898903 -132.924500 57.125000
-73.898903 -132.924500 60.875000
-54.931198 -151.892105 60.875000
-54.931198 -151.892105 57.125000
4 0 1 2 3
4 4 5 6 7
4 8 9 10 11
4 12 13 14 15
4 16 17 18 19
4 20 21 22 23
4 24 25 26 27
4 28 29 30 31
4 32 33 34 35
4 36 37 38 39
4 40 41 42 43
7 44 45 46 47 48 49 50
3 51 52 53
3 51 53 54
4 55 56 57 58
5 59 60 61 62 63
8 64 65 66 67 68 69 70 71
3 72 73 74
3 72 74 75
4 76 77 78 79
4 80 81 82 83
4 84 85 86 87
4 88 89 90 91
7 92 93 94 95 96 97 98
12 99 100 101 102 103 104 105 106 107 108 109 110
4 111 112 113 114
4 115 116 117 118
4 119 120 121 122
3 123 124 125
7 126 127 128 129 130 131 132
4 133 134 135 136
5 44 48 47 137 45
4 138 139 140 141
12 142 143 144 145 146 147 148 149 150 151 152 153
4 154 155 156 157
4 158 159 160 161
4 162 163 164 165
3 166 167 168
8 169 170 29 28 171 172 31 30
5 173 174 175 176 177
4 178 179 180 181
4 182 183 184 185
4 186 187 188 189
3 190 191 192
4 193 194 195 196
8 197 112 111 198 199 114 113 200
4 201 202 203 204
5 205 206 207 208 209
4 210 211 212 213
3 214 215 216
4 217 218 219 220
4 221 222 223 224
4 225 226 227 228
4 229 230 231 232
3 233 234 235
6 236 237 238 239 240 241
4 242 243 244 245
4 246 247 248 249
4 250 251 252 253
6 254 255 256 257 258 259
4 260 261 262 263
4 264 265 266 267
4 268 269 270 271
6 272 273 274 275 276 277
4 278 279 280 281
4 282 283 284 285
4 286 287 288 289
4 290 291 292 293
4 294 295 296 297
4 298 299 300 301
4 302 303 304 305
4 306 307 308 309
4 310 311 312 313
8 314 315 316 317 318 319 320 321
6 322 323 324 325 326 327
4 328 329 330 331
4 332 333 334 335
7 173 177 336 175 174 337 338
4 339 340 341 342
4 343 344 345 346
24 347 75 74 348 349 73 350 351 352 353 354 54 53 355 356 52 51 357 358 359 360 361 72 362
4 363 364 192 191
5 365 366 367 368 369
9 370 371 372 373 374 375 191 190 376
4 377 378 379 380
7 381 382 383 384 385 386 387
4 388 389 390 391
4 392 393 394 395
4 396 397 398 399
4 400 401 402 403
4 404 405 406 407
4 408 409 410 411
4 412 413 414 415
4 416 417 418 419
6 420 255 254 421 258 257
4 422 423 424 425
4 426 427 428 429
5 97 96 430 94 93
4 431 432 433 434
5 435 436 437 438 439
4 440 441 442 443
4 444 445 446 447
4 448 449 450 451
4 452 453 454 455
4 456 457 458 459
4 460 461 462 463
4 464 465 466 467
4 468 469 470 471
6 472 322 327 473 325 324
4 474 475 476 477
5 478 479 480 481 482
7 483 482 481 484 485 480 479
4 486 487 488 489
4 350 73 72 361
4 490 491 492 493
4 494 495 496 497
4 498 499 500 501
4 502 503 504 505
4 506 507 508 509
4 510 511 512 513
4 514 515 516 517
4 518 519 520 521
6 275 274 522 272 277 523
4 524 525 526 527
5 528 529 530 531 532
4 533 534 535 536
4 537 538 539 540
6 541 542 543 544 545 546
4 547 548 549 550
5 129 128 551 126 132
4 552 553 554 555
12 556 557 558 559 560 561 562 563 564 565 566 567
4 568 569 570 571
4 572 573 574 575
4 576 577 578 579
4 580 581 582 583
4 320 319 316 315
4 584 585 586 587
8 588 589 585 584 590 591 587 586
4 592 593 594 595
5 596 597 598 599 600
4 601 602 603 604
4 605 606 607 608
6 544 609 542 541 610 545
4 611 612 613 614
4 615 616 617 618
4 619 620 621 622
4 623 624 625 626
4 627 628 629 630
4 631 632 633 634
4 635 636 637 638
4 639 640 641 642
4 643 644 645 646
4 647 648 649 650
4 651 652 653 654
4 655 656 657 658
4 659 660 661 662
4 663 664 665 666
8 667 668 669 670 671 672 673 674
4 675 676 677 678
4 679 680 681 682
4 683 684 685 686
8 687 33 32 688 689 35 34 690
5 691 384 383 387 386
4 669 668 673 672
4 692 693 694 695
4 696 697 698 699
4 700 701 702 703
4 704 705 706 707
4 708 709 710 711
7 369 368 712 366 365 713 714
7 715 439 438 716 717 437 436
4 718 719 720 721
4 722 723 724 725
4 726 727 728 729
4 67 66 71 70
4 730 731 732 733
4 734 735 736 737
12 738 739 740 741 742 743 744 745 746 747 748 749
4 750 751 752 753
4 754 755 756 757
4 758 759 760 761
4 762 763 764 765
4 766 767 768 769
4 770 771 772 773
4 774 775 776 777
4 778 779 780 781
8 782 783 784 785 786 787 788 789
4 790 791 792 793
4 794 795 796 797
4 798 799 800 801
4 802 803 804 805
4 806 807 808 809
4 810 811 812 813
4 814 815 816 817
4 818 819 820 821
4 822 823 824 825
6 237 236 826 240 239 827
8 828 829 89 88 830 831 91 90
4 832 833 834 835
4 836 837 838 839
4 840 841 842 843
7 844 845 846 847 848 849 850
5 851 844 850 847 846
4 852 853 854 855
4 856 857 858 859
4 860 861 862 863
5 864 865 866 867 868
5 869 870 871 872 873
4 874 875 876 877
4 878 879 880 881
4 882 883 884 885
4 886 887 888 889
4 890 891 892 893
4 894 895 896 897
7 62 898 60 59 899 900 63
4 901 902 903 904
4 905 906 907 908
8 909 910 265 264 911 912 267 266
4 913 914 915 916
4 917 918 919 920
4 921 922 923 924
4 925 926 927 928
4 929 930 931 932
5 933 934 935 936 937
6 361 360 357 51 353 352
4 938 939 940 941
4 942 943 944 945
7 946 947 948 949 950 951 952
4 953 954 955 956
4 957 958 959 960
5 948 947 961 952 951
7 962 963 869 873 964 871 870
4 965 966 967 968
4 969 970 971 972
4 973 974 975 976
4 977 978 979 980
4 981 982 983 984
8 985 986 279 278 987 988 281 280
4 989 990 991 992
4 993 994 995 996
4 997 998 999 1000
4 789 788 785 784
4 1001 1002 1003 1004
4 1005 1006 1007 1008
7 529 528 1009 1010 532 531 1011
4 1012 1013 1014 1015
4 1016 1017 1018 1019
4 1020 1021 1022 1023
4 1024 1025 1026 1027
4 1028 1029 1030 1031
4 1032 1033 1034 1035
4 1036 1037 1038 1039
4 1040 1041 1042 1043
