ply
format ascii 1.0
comment Created by Blender 2.82 (sub 7) - www.blender.org, source file: ''
element vertex 295
property float x
property float y
property float z
element face 75
property list uchar uint vertex_indices
end_header
0.165000 -12.746000 12.842220
-0.063200 -12.807200 12.842220
-0.063200 -12.807200 -12.748340
0.165000 -12.746000 -12.748340
8.908400 -8.896500 12.448520
8.908400 -8.896500 12.842220
3.260700 -12.157200 12.842220
3.260700 -12.157200 12.448520
-10.205300 -5.720300 10.861920
-10.205300 -5.720300 8.905220
-5.732300 -10.193300 8.905220
-5.732300 -10.193300 10.861920
12.598400 -0.106100 12.763520
12.598400 0.130100 12.763520
12.598400 0.130100 12.448520
12.598400 -0.106100 12.448520
10.961200 -5.720300 10.861920
6.488200 -10.193300 10.861920
6.488200 -10.193300 8.905220
10.961200 -5.720300 8.905220
-0.118100 12.807200 12.842220
0.118100 12.807200 12.842220
0.118100 12.807200 -12.748340
-0.118100 12.807200 -12.748340
8.850600 -8.082800 8.905220
11.951900 -2.711300 8.905220
11.951900 3.491100 8.905220
8.850600 8.862600 8.905220
10.961200 6.500200 8.905220
12.182000 3.552800 8.905220
12.182000 -2.773000 8.905220
9.019100 -8.251300 8.905220
3.540800 -11.414100 8.905220
3.479200 -11.184000 8.905220
0.118100 12.610400 12.842220
0.118100 12.610400 12.527220
0.118100 10.248200 12.527220
0.118100 11.822900 -12.763480
0.118100 12.807200 -12.748340
0.118100 12.807200 12.842220
-0.118100 12.807200 12.842220
-0.118100 12.807200 -12.748340
-0.118100 11.822900 -12.763480
-0.118100 10.248200 12.527220
-0.118100 12.610400 12.527220
-0.118100 12.610400 12.842220
-0.118100 12.610400 12.527220
-0.118100 10.248200 12.527220
0.118100 10.248200 12.527220
0.118100 12.610400 12.527220
-5.732300 10.973200 10.861920
-5.732300 10.973200 8.905220
-10.205300 6.500200 8.905220
-10.205300 6.500200 10.861920
3.540800 12.194000 8.905220
9.019100 9.031100 8.905220
3.479200 11.963900 8.905220
-2.723300 11.963900 8.905220
-8.094800 8.862600 8.905220
-9.999000 6.381000 8.905220
-11.604300 0.389900 8.905220
-9.999000 -5.601200 8.905220
-5.613200 -9.987000 8.905220
0.377900 -11.592300 8.905220
0.377900 -11.830600 8.905220
-5.732300 -10.193300 8.905220
-10.205300 -5.720300 8.905220
-11.842500 0.389900 8.905220
-10.205300 6.500200 8.905220
-8.263200 9.031100 8.905220
-2.785000 12.194000 8.905220
-0.114100 -12.617000 12.527220
-0.725500 -10.335300 12.527220
-0.317900 -11.856400 -12.763480
-0.063200 -12.807200 -12.748340
-0.063200 -12.807200 12.842220
-0.114100 -12.617000 12.842220
0.377900 -11.592300 10.861920
0.377900 -11.592300 8.905220
-5.613200 -9.987000 8.905220
-5.613200 -9.987000 10.861920
0.114100 -12.555900 12.842220
0.165000 -12.746000 12.842220
0.165000 -12.746000 -12.748340
-0.089800 -11.795200 -12.763480
-0.497300 -10.274200 12.527220
0.114100 -12.555900 12.527220
-11.811000 -0.106100 -12.842220
-12.795300 -0.106100 -12.827080
-12.795300 0.130100 -12.827080
-11.811000 0.130100 -12.842220
12.169100 -3.248700 12.842220
12.169100 3.272700 12.842220
8.908400 8.920400 12.842220
3.260700 12.181100 12.842220
-3.260700 12.181100 12.842220
-8.908500 8.920400 12.842220
-12.169200 3.272700 12.842220
-12.169200 -3.248700 12.842220
-8.908500 -8.896500 12.842220
-3.260700 -12.157200 12.842220
3.260700 -12.157200 12.842220
8.908400 -8.896500 12.842220
-5.613200 -9.987000 10.861920
-9.999000 -5.601200 10.861920
-11.604300 0.389900 10.861920
-9.999000 6.381000 10.861920
-8.094800 8.862600 10.861920
-10.205300 6.500200 10.861920
-11.842500 0.389900 10.861920
-10.205300 -5.720300 10.861920
-5.732300 -10.193300 10.861920
0.377900 -11.830600 10.861920
3.540800 -11.414100 10.861920
0.377900 -11.592300 10.861920
10.236200 -0.106100 12.448520
10.236200 0.130100 12.448520
11.810900 0.130100 -12.842220
11.810900 -0.106100 -12.842220
-8.908500 8.920400 12.842220
-8.908500 8.920400 12.448520
-12.169200 3.272700 12.448520
-12.169200 3.272700 12.842220
11.951900 3.491100 10.861920
8.850600 8.862600 10.861920
8.850600 8.862600 8.905220
11.951900 3.491100 8.905220
-8.908500 -8.896500 12.842220
-8.908500 -8.896500 12.448520
-3.260700 -12.157200 12.448520
-3.260700 -12.157200 12.842220
8.908400 8.920400 12.842220
8.908400 8.920400 12.448520
3.260700 12.181100 12.448520
3.260700 12.181100 12.842220
0.377900 -11.830600 8.905220
0.377900 -11.830600 10.861920
-3.260700 12.181100 12.448520
-3.260700 12.181100 12.842220
11.951900 -2.711300 10.861920
11.951900 -2.711300 8.905220
12.169100 3.272700 12.842220
12.169100 3.272700 12.448520
8.850600 -8.082800 8.905220
8.850600 -8.082800 10.861920
12.169100 -3.248700 12.842220
12.169100 -3.248700 12.448520
12.795300 0.130100 12.763520
12.795300 -0.106100 12.763520
12.795300 -0.106100 -12.827080
12.795300 0.130100 -12.827080
-10.236200 0.130100 12.448520
-10.236200 -0.106100 12.448520
-11.811000 -0.106100 -12.842220
-11.811000 0.130100 -12.842220
-2.723300 11.963900 8.905220
-2.723300 11.963900 10.861920
-8.094800 8.862600 10.861920
-8.094800 8.862600 8.905220
-9.999000 6.381000 10.861920
-9.999000 6.381000 8.905220
11.810900 0.130100 -12.842220
12.795300 0.130100 -12.827080
12.795300 -0.106100 -12.827080
11.810900 -0.106100 -12.842220
3.260700 12.181100 12.448520
8.908400 8.920400 12.448520
12.169100 3.272700 12.448520
12.169100 -3.248700 12.448520
8.908400 -8.896500 12.448520
3.260700 -12.157200 12.448520
-3.260700 -12.157200 12.448520
-8.908500 -8.896500 12.448520
-12.169200 -3.248700 12.448520
-12.169200 3.272700 12.448520
-8.908500 8.920400 12.448520
-3.260700 12.181100 12.448520
3.479200 -11.184000 10.861920
3.479200 -11.184000 8.905220
-12.795300 -0.106100 12.763520
-12.598400 -0.106100 12.763520
-12.598400 0.130100 12.763520
-12.795300 0.130100 12.763520
-0.114100 -12.617000 12.842220
0.114100 -12.555900 12.842220
0.114100 -12.555900 12.527220
-0.114100 -12.617000 12.527220
0.114100 -12.555900 12.527220
-0.497300 -10.274200 12.527220
-0.725500 -10.335300 12.527220
-0.114100 -12.617000 12.527220
-11.604300 0.389900 10.861920
-9.999000 -5.601200 10.861920
-9.999000 -5.601200 8.905220
-11.604300 0.389900 8.905220
-11.811000 0.130100 -12.842220
-12.795300 0.130100 -12.827080
-12.795300 0.130100 12.763520
-12.598400 0.130100 12.763520
-12.598400 0.130100 12.448520
-10.236200 0.130100 12.448520
9.019100 -8.251300 10.861920
12.182000 -2.773000 10.861920
12.182000 3.552800 10.861920
9.019100 9.031100 10.861920
3.540800 12.194000 10.861920
-2.785000 12.194000 10.861920
-8.263200 9.031100 10.861920
-2.723300 11.963900 10.861920
3.479200 11.963900 10.861920
8.850600 8.862600 10.861920
11.951900 3.491100 10.861920
11.951900 -2.711300 10.861920
8.850600 -8.082800 10.861920
3.479200 -11.184000 10.861920
-0.118100 11.822900 -12.763480
-0.118100 12.807200 -12.748340
0.118100 12.807200 -12.748340
0.118100 11.822900 -12.763480
12.598400 -0.106100 12.448520
10.236200 -0.106100 12.448520
11.810900 -0.106100 -12.842220
12.795300 -0.106100 -12.827080
12.795300 -0.106100 12.763520
12.598400 -0.106100 12.763520
-12.169200 -3.248700 12.842220
-12.169200 -3.248700 12.448520
10.961200 6.500200 8.905220
6.488200 10.973200 8.905220
6.488200 10.973200 10.861920
10.961200 6.500200 10.861920
3.479200 11.963900 10.861920
3.479200 11.963900 8.905220
12.598400 0.130100 12.448520
10.236200 0.130100 12.448520
10.236200 -0.106100 12.448520
12.598400 -0.106100 12.448520
-12.598400 0.130100 12.763520
-12.598400 -0.106100 12.763520
-12.598400 -0.106100 12.448520
-12.598400 0.130100 12.448520
-11.842500 0.389900 10.861920
-11.842500 0.389900 8.905220
-12.795300 -0.106100 12.763520
-12.795300 0.130100 12.763520
-12.795300 0.130100 -12.827080
-12.795300 -0.106100 -12.827080
12.598400 0.389900 10.861920
12.598400 0.389900 8.905220
0.118100 12.610400 12.842220
-0.118100 12.610400 12.842220
-0.118100 12.610400 12.527220
0.118100 12.610400 12.527220
-0.725500 -10.335300 12.527220
-0.497300 -10.274200 12.527220
-0.089800 -11.795200 -12.763480
-0.317900 -11.856400 -12.763480
11.810900 0.130100 -12.842220
10.236200 0.130100 12.448520
12.598400 0.130100 12.448520
12.598400 0.130100 12.763520
12.795300 0.130100 12.763520
12.795300 0.130100 -12.827080
-0.118100 12.807200 12.842220
-0.118100 12.610400 12.842220
0.118100 12.610400 12.842220
0.118100 12.807200 12.842220
12.795300 0.130100 12.763520
12.598400 0.130100 12.763520
12.598400 -0.106100 12.763520
12.795300 -0.106100 12.763520
-12.598400 -0.106100 12.448520
-10.236200 -0.106100 12.448520
-10.236200 0.130100 12.448520
-12.598400 0.130100 12.448520
0.165000 -12.746000 12.842220
0.114100 -12.555900 12.842220
-0.114100 -12.617000 12.842220
-0.063200 -12.807200 12.842220
-0.089800 -11.795200 -12.763480
0.165000 -12.746000 -12.748340
-0.063200 -12.807200 -12.748340
-0.317900 -11.856400 -12.763480
-12.598400 -0.106100 12.763520
-12.795300 -0.106100 12.763520
-12.795300 -0.106100 -12.827080
-11.811000 -0.106100 -12.842220
-10.236200 -0.106100 12.448520
-12.598400 -0.106100 12.448520
0.118100 10.248200 12.527220
-0.118100 10.248200 12.527220
-0.118100 11.822900 -12.763480
0.118100 11.822900 -12.763480
0.377900 12.610400 10.861920
0.377900 12.610400 8.905220
4 0 1 2 3
4 4 5 6 7
4 8 9 10 11
4 12 13 14 15
4 16 17 18 19
4 20 21 22 23
10 24 25 26 27 28 29 30 31 32 33
6 34 35 36 37 38 39
6 40 41 42 43 44 45
4 46 47 48 49
4 50 51 52 53
21 54 55 28 27 56 57 58 59 60 61 62 63 33 32 64 65 66 67 68 69 70
6 71 72 73 74 75 76
4 77 78 79 80
6 81 82 83 84 85 86
4 87 88 89 90
12 91 92 93 94 95 96 97 98 99 100 101 102
12 103 104 105 106 107 108 109 110 111 112 113 114
4 115 116 117 118
4 119 120 121 122
4 123 124 125 126
4 127 128 129 130
4 131 132 133 134
4 11 10 135 136
4 133 137 138 134
4 139 123 126 140
4 137 120 119 138
4 131 141 142 132
4 139 140 143 144
4 145 146 142 141
4 147 148 149 150
4 151 152 153 154
4 155 156 157 158
4 5 4 146 145
4 157 159 160 158
4 18 17 136 135
4 161 162 163 164
12 165 166 167 168 169 170 171 172 173 174 175 176
4 177 178 78 77
4 179 180 181 182
4 183 184 185 186
4 187 188 189 190
4 191 192 193 194
6 195 196 197 198 199 200
18 201 202 203 204 205 206 207 108 107 208 209 210 211 212 213 214 114 113
4 215 216 217 218
6 219 220 221 222 223 224
4 127 225 226 128
4 130 129 7 6
4 227 228 229 230
4 124 231 232 125
4 233 234 235 236
4 143 178 177 144
4 225 122 121 226
4 237 238 239 240
4 241 242 9 8
4 231 156 155 232
4 243 244 245 246
4 230 247 248 227
4 249 250 251 252
4 253 254 255 256
6 257 258 259 260 261 262
4 263 264 265 266
4 267 268 269 270
4 271 272 273 274
4 275 276 277 278
4 16 19 248 247
4 279 280 281 282
4 53 52 242 241
6 283 284 285 286 287 288
4 289 290 291 292
4 192 80 79 193
4 293 294 51 50
4 228 294 293 229
4 159 191 194 160
