ply
format ascii 1.0
comment Created by Blender 2.82 (sub 7) - www.blender.org, source file: ''
element vertex 120
property float x
property float y
property float z
element face 32
property list uchar uint vertex_indices
end_header
11.614150 -21.259840 5.275600
-11.614150 -21.259840 5.275600
-11.614150 21.259850 5.275600
11.614150 21.259850 5.275600
-11.614150 21.259850 7.283500
11.614150 21.259850 7.283500
11.614150 21.259850 7.480300
-11.614150 21.259850 7.480300
-11.614150 -21.259850 7.283500
-11.614150 -21.259850 7.480300
-11.614150 21.259850 7.480300
-11.614150 21.259850 7.283500
-11.614150 21.259850 5.275600
11.614150 21.259850 5.275600
11.614150 21.259850 -7.480300
-11.614150 21.259850 -7.480300
-11.614150 21.259850 -7.480300
-11.614150 21.259850 7.480300
-11.614150 23.228350 7.480300
-11.614150 23.228350 -7.480300
-11.614150 21.259850 7.480300
11.614150 21.259850 7.480300
11.614150 21.259850 7.244100
-11.614150 21.259850 7.244100
11.614150 21.259850 7.480300
11.614150 21.259850 -7.480300
11.614150 23.228350 -7.480300
11.614150 23.228350 7.480300
-11.614150 -21.259850 7.283500
-11.614150 21.259850 7.283500
11.614150 21.259850 7.283500
11.614150 -21.259850 7.283500
11.614150 -23.228350 7.480300
11.614150 -23.228350 -7.480300
11.614150 -21.259840 -7.480300
11.614150 -21.259840 5.275600
11.614150 21.259850 5.275600
11.614150 21.259850 7.244100
11.614150 -21.259840 7.244100
11.614150 -21.259840 7.480300
11.614150 -21.259840 -7.480300
-11.614150 -21.259840 -7.480300
-11.614150 -21.259840 7.480300
11.614150 -21.259840 7.480300
11.614150 -21.259840 7.480300
-11.614150 -21.259840 7.480300
-11.614150 -23.228350 7.480300
11.614150 -23.228350 7.480300
-11.614150 23.228350 7.480300
11.614150 23.228350 7.480300
11.614150 23.228350 -7.480300
-11.614150 23.228350 -7.480300
-11.614150 21.259850 7.244100
-11.614150 -21.259840 7.244100
11.614150 -21.259840 7.244100
11.614150 21.259850 7.244100
-11.614150 21.259850 7.283500
-11.614150 21.259850 7.480300
-11.614150 -21.259850 7.480300
-11.614150 -21.259850 7.283500
11.614150 -23.228350 7.480300
-11.614150 -23.228350 7.480300
-11.614150 -23.228350 -7.480300
11.614150 -23.228350 -7.480300
-11.614150 21.259850 5.275600
-11.614150 21.259850 7.244100
-11.614150 21.259850 7.480300
-11.614150 -21.259850 7.480300
11.614150 -21.259850 7.480300
11.614150 21.259850 7.480300
-11.614150 21.259850 7.480300
11.614150 21.259850 7.480300
11.614150 21.259850 7.283500
-11.614150 21.259850 7.283500
-11.614150 -23.228350 -7.480300
-11.614150 -21.259840 -7.480300
11.614150 -21.259840 -7.480300
11.614150 -23.228350 -7.480300
-11.614150 23.228350 7.480300
-11.614150 21.259850 7.480300
11.614150 21.259850 7.480300
11.614150 23.228350 7.480300
-11.614150 21.259850 -7.480300
-11.614150 23.228350 -7.480300
11.614150 23.228350 -7.480300
11.614150 21.259850 -7.480300
-11.614150 -21.259840 5.275600
-11.614150 -21.259840 -7.480300
-11.614150 -23.228350 -7.480300
-11.614150 -23.228350 7.480300
-11.614150 -21.259840 7.480300
-11.614150 -21.259840 7.244100
-11.614150 21.259850 7.244100
11.614150 21.259850 7.244100
11.614150 21.259850 5.275600
-11.614150 21.259850 5.275600
11.614150 21.259850 7.480300
11.614150 21.259850 7.283500
11.614150 -21.259850 7.283500
11.614150 -21.259850 7.480300
11.614150 -21.259850 7.283500
11.614150 21.259850 7.283500
-11.614150 21.259850 7.283500
-11.614150 -21.259850 7.283500
11.614150 -21.259850 7.480300
11.614150 -21.259850 7.283500
11.614150 21.259850 7.283500
11.614150 21.259850 7.480300
11.614150 21.259850 7.480300
11.614150 -21.259850 7.480300
-11.614150 -21.259850 7.480300
-11.614150 21.259850 7.480300
11.614150 -21.259850 7.480300
-11.614150 -21.259850 7.480300
-11.614150 -21.259850 7.283500
11.614150 -21.259850 7.283500
11.614150 -21.259850 7.283500
-11.614150 -21.259850 7.283500
-11.614150 -21.259850 7.480300
11.614150 -21.259850 7.480300
4 0 1 2 3
4 4 5 6 7
4 8 9 10 11
4 12 13 14 15
4 16 17 18 19
4 20 21 22 23
4 24 25 26 27
4 28 29 30 31
8 32 33 34 35 36 37 38 39
4 40 41 42 43
4 44 45 46 47
4 48 49 50 51
4 52 53 54 55
4 56 57 58 59
4 60 61 62 63
3 17 16 64
3 17 64 65
4 66 67 68 69
4 70 71 72 73
3 25 24 37
3 25 37 36
4 74 75 76 77
4 78 79 80 81
4 82 83 84 85
8 86 87 88 89 90 91 65 64
4 92 93 94 95
4 96 97 98 99
4 100 101 102 103
4 104 105 106 107
4 108 109 110 111
4 112 113 114 115
4 116 117 118 119
