ply
format ascii 1.0
comment Created by Blender 2.82 (sub 7) - www.blender.org, source file: ''
element vertex 642
property float x
property float y
property float z
element face 122
property list uchar uint vertex_indices
end_header
18.719780 1.179800 -13.657328
18.719780 -1.179700 -13.657328
18.719780 -1.179700 -14.175267
18.719780 1.179800 -14.175267
-0.589820 1.021700 -13.031498
-0.589820 1.021700 13.630542
-0.589820 1.021700 13.040742
-0.589820 -1.021700 13.040742
-0.589820 -1.021700 -13.031498
-0.000020 -1.179700 -13.031498
-0.000020 -1.179700 13.040742
-15.178520 0.589900 13.630542
-1.021720 0.589900 13.630542
-0.589820 1.021700 13.630542
-0.589820 15.178600 13.630542
0.589880 15.178600 13.630542
0.589880 1.021700 13.630542
1.021680 0.589900 13.630542
15.178480 0.589900 13.630542
15.178480 -0.589800 13.630542
-15.178520 -0.589800 13.630542
-0.589820 -1.021700 13.630542
-1.021720 -0.589800 13.040742
-1.179720 0.000000 13.040742
-1.179720 0.000000 -13.031498
-1.021720 -0.589800 -13.031498
0.589880 -1.021700 13.630542
0.589880 -1.021700 13.040742
0.589880 -1.021700 -13.031498
0.834180 -0.834200 -13.031498
0.834180 -0.834200 13.630542
-18.210819 1.179800 -13.088718
-1.179720 1.179800 -13.031498
-1.179720 1.179800 -14.801101
-18.210819 1.179800 -14.743883
-18.608709 1.179800 -14.412308
-18.757820 1.179800 -13.916298
-18.608709 1.179800 -13.420288
-18.210819 -1.179700 -13.088718
-18.608709 -1.179700 -13.420288
-18.757820 -1.179700 -13.916298
-18.608709 -1.179700 -14.412308
-18.210819 -1.179700 -14.743883
-1.179720 -1.179700 -14.801101
-1.179720 -1.179700 -13.031498
-1.179720 18.210899 -13.088718
1.179780 18.210899 -13.088718
1.179780 18.434200 -13.225248
-1.179720 18.434200 -13.225248
-17.696051 -1.179700 -14.801101
17.696079 -1.179700 -14.801101
1.179780 -1.179700 -14.801101
-1.179720 -1.179700 -14.801101
1.179780 17.696100 -13.031498
-1.179720 17.696100 -13.031498
18.434179 -1.179700 -13.225248
18.434179 1.179800 -13.225248
-18.608709 -1.179700 -13.420288
-18.608709 1.179800 -13.420288
-18.757820 1.179800 -13.916298
-18.757820 -1.179700 -13.916298
-1.179720 18.210899 -14.743883
-1.179720 1.179800 -14.801101
-1.179720 1.179800 -13.031498
-1.179720 18.210899 -13.088718
-1.179720 18.434200 -13.225248
-1.179720 18.719801 -13.657328
-1.179720 18.719801 -14.175267
-1.179720 18.434200 -14.607352
5.595380 -27.153299 14.810342
-11.959920 -25.011400 14.810342
-11.959920 -25.011400 13.630542
5.595380 -27.153299 13.630542
-1.179720 -18.210800 -13.088718
-1.179720 -1.179700 -13.031498
-1.179720 -1.179700 -14.801101
-1.179720 -18.210800 -14.743883
-1.179720 -18.608700 -14.412308
-1.179720 -18.757799 -13.916298
-1.179720 -18.608700 -13.420288
1.179780 1.179800 -14.801101
1.179780 18.210899 -14.743883
1.179780 18.434200 -14.607352
1.179780 18.719801 -14.175267
1.179780 18.719801 -13.657328
1.179780 18.434200 -13.225248
1.179780 18.210899 -13.088718
1.179780 1.179800 -13.031498
0.589880 16.358299 13.630542
0.589880 1.021700 13.630542
0.589880 1.021700 13.040742
0.589880 15.178600 13.040742
1.179780 -1.179700 -13.031498
1.179780 -18.210800 -13.088718
1.179780 -18.608700 -13.420288
1.179780 -18.757799 -13.916298
1.179780 -18.608700 -14.412308
1.179780 -18.210800 -14.743883
1.179780 -1.179700 -14.801101
-1.021720 0.589900 -13.031498
-1.021720 0.589900 13.040742
-1.021720 0.589900 13.630542
0.589880 -16.358200 13.630542
-0.589820 -16.358200 13.630542
-0.589820 -15.178500 13.040742
0.589880 -15.178500 13.040742
1.021680 0.589900 13.040742
1.139580 0.305400 13.040742
1.139580 0.305400 -13.031498
1.021680 0.589900 -13.031498
-18.608709 -1.179700 -14.412308
-18.608709 1.179800 -14.412308
-18.434151 1.179800 -14.607352
-18.434151 -1.179700 -14.607352
-24.095230 -13.712400 14.810342
-24.377119 -13.204700 14.810342
-24.908701 -12.172400 14.810342
-24.908701 -12.172400 13.630542
-24.377119 -13.204700 13.630542
-24.095230 -13.712400 13.630542
-23.802780 -14.214000 13.630542
-23.186680 -15.198300 13.630542
-22.529900 -16.155899 13.630542
-22.186621 -16.624201 13.630542
-21.471010 -17.538700 13.630542
-21.098989 -17.984501 13.630542
-20.717730 -18.422400 13.630542
-19.928101 -19.273800 13.630542
-19.103519 -20.091400 13.630542
-18.678570 -20.487101 13.630542
-18.245420 -20.873800 13.630542
-18.245420 -20.873800 14.810342
-18.678570 -20.487101 14.810342
-19.103519 -20.091400 14.810342
-19.928101 -19.273800 14.810342
-20.717730 -18.422400 14.810342
-21.098989 -17.984501 14.810342
-21.471010 -17.538700 14.810342
-22.186621 -16.624201 14.810342
-22.529900 -16.155899 14.810342
-23.186680 -15.198300 14.810342
-23.802780 -14.214000 14.810342
0.589880 -16.358200 13.630542
0.589880 -15.178500 13.040742
-26.809446 7.061500 14.810342
-25.011400 11.960000 14.810342
-25.011400 11.960000 13.630542
-26.809446 7.061500 13.630542
-27.483076 3.645700 13.630542
-27.589430 -2.726500 13.630542
-27.589430 -2.726500 14.810342
-27.483076 3.645700 14.810342
1.179780 1.179800 -13.031498
-1.179720 1.179800 -13.031498
-0.000020 1.179800 -13.031498
1.179780 17.696100 -13.031498
-1.179720 17.696100 -13.031498
17.696079 -1.179700 -13.031498
-0.000020 -1.179700 -13.031498
1.179780 -1.179700 -13.031498
-17.696051 -1.179700 -13.031498
-0.589820 -1.021700 -13.031498
-1.021720 -0.589800 -13.031498
-1.179720 0.000000 -13.031498
-1.021720 0.589900 -13.031498
-0.834220 0.834200 -13.031498
-0.305320 1.139600 -13.031498
-17.696051 1.179800 -13.031498
-1.179720 -1.179700 -13.031498
-1.179720 -1.179700 -13.031498
-17.696051 -1.179700 -13.031498
-0.000020 -1.179700 -13.031498
-26.589849 -7.847900 14.810342
-27.030155 -6.162800 14.810342
-27.264521 -5.025500 14.810342
-27.264521 -5.025500 13.630542
-27.030155 -6.162800 13.630542
-26.589849 -7.847900 13.630542
-25.839897 -10.045400 13.630542
-25.839897 -10.045400 14.810342
1.179780 -1.179700 -13.031498
17.696079 -1.179700 -13.031498
-0.000020 1.179800 -13.031498
-1.179720 1.179800 -13.031498
1.179780 1.179800 -13.031498
0.305380 1.139600 13.040742
-0.305320 1.139600 13.040742
-0.589820 1.021700 13.040742
-0.589820 15.178600 13.040742
0.589880 15.178600 13.040742
0.589880 1.021700 13.040742
1.139580 -0.305300 13.040742
1.139580 -0.305300 -13.031498
-1.021720 -0.589800 13.630542
-0.589820 -1.021700 13.630542
-0.589820 -15.178500 13.630542
0.589880 -15.178500 13.630542
0.589880 -1.021700 13.630542
1.021680 -0.589800 13.630542
-17.696051 1.179800 -14.801101
-1.179720 1.179800 -14.801101
-1.179720 17.696100 -14.801101
1.179780 17.696100 -14.801101
1.179780 1.179800 -14.801101
17.696079 1.179800 -14.801101
1.179780 -17.695999 -14.801101
-1.179720 -17.695999 -14.801101
-1.021720 -0.589800 13.630542
-16.358219 -0.589800 13.630542
-15.178520 -0.589800 13.040742
1.179780 17.696100 -14.801101
-1.179720 17.696100 -14.801101
-1.179720 18.210899 -14.743883
1.179780 18.210899 -14.743883
-15.178520 -0.589800 13.040742
-16.358219 -0.589800 13.630542
-16.358219 0.589900 13.630542
-15.178520 0.589900 13.040742
1.179780 -18.608700 -14.412308
1.179780 -18.757799 -13.916298
-1.179720 -18.757799 -13.916298
-1.179720 -18.608700 -14.412308
1.021680 0.589900 13.630542
16.358280 0.589900 13.630542
15.178480 0.589900 13.040742
-18.852270 20.327400 13.630542
-19.273840 19.928101 13.630542
-19.686951 19.520100 13.630542
-20.091431 19.103600 13.630542
-20.487101 18.678600 13.630542
-20.873779 18.245501 13.630542
-21.251310 17.804300 13.630542
-21.619511 17.355301 13.630542
-21.978230 16.898800 13.630542
-22.327311 16.434799 13.630542
-22.666599 15.963600 13.630542
-22.995939 15.485400 13.630542
-23.315201 15.000400 13.630542
-23.624229 14.508800 13.630542
-23.922899 14.010900 13.630542
-24.211069 13.506800 13.630542
-24.488630 12.996800 13.630542
-24.755440 12.481100 13.630542
-24.755440 12.481100 14.810342
-24.488630 12.996800 14.810342
-24.211069 13.506800 14.810342
-23.922899 14.010900 14.810342
-23.624229 14.508800 14.810342
-23.315201 15.000400 14.810342
-22.995939 15.485400 14.810342
-22.666599 15.963600 14.810342
-22.327311 16.434799 14.810342
-21.978230 16.898800 14.810342
-21.619511 17.355301 14.810342
-21.251310 17.804300 14.810342
-20.873779 18.245501 14.810342
-20.487101 18.678600 14.810342
-20.091431 19.103600 14.810342
-19.686951 19.520100 14.810342
-19.273840 19.928101 14.810342
-18.852270 20.327400 14.810342
-18.422430 20.717800 14.810342
-18.422430 20.717800 13.630542
-18.434151 -1.179700 -13.225248
-17.957640 -1.179700 -13.022258
-17.957640 1.179800 -13.022258
-18.434151 1.179800 -13.225248
17.696079 1.179800 -13.031498
17.696079 -1.179700 -13.031498
17.957680 -1.179700 -13.022258
17.957680 1.179800 -13.022258
18.434179 -1.179700 -14.607352
17.957680 -1.179700 -14.810342
17.957680 1.179800 -14.810342
18.434179 1.179800 -14.607352
26.895180 6.727600 14.810342
27.363779 4.453500 14.810342
27.526279 3.303700 14.810342
27.526279 3.303700 13.630542
27.363779 4.453500 13.630542
26.895180 6.727600 13.630542
26.044580 9.502100 13.630542
25.158180 11.648100 13.630542
24.095280 13.712400 13.630542
22.863279 15.680600 13.630542
22.186581 16.624201 13.630542
20.717779 18.422501 13.630542
20.717779 18.422501 14.810342
22.186581 16.624201 14.810342
22.863279 15.680600 14.810342
24.095280 13.712400 14.810342
25.158180 11.648100 14.810342
26.044580 9.502100 14.810342
1.179780 -18.608700 -13.420288
1.179780 -18.210800 -13.088718
-1.179720 -18.210800 -13.088718
-1.179720 -18.608700 -13.420288
-17.696051 -1.179700 -13.031498
-17.696051 1.179800 -13.031498
-0.589820 16.358299 13.630542
-0.589820 15.178600 13.040742
15.178480 -0.589800 13.040742
16.358280 -0.589800 13.630542
1.021680 -0.589800 13.630542
1.021680 -0.589800 13.040742
-15.178520 0.589900 13.040742
-16.358219 0.589900 13.630542
-0.589820 -16.358200 13.630542
-0.589820 -15.178500 13.040742
-0.752920 -27.713600 13.630542
-11.959920 -25.011400 13.630542
-18.245420 -20.873800 13.630542
-24.908701 -12.172400 13.630542
-27.679399 -1.568700 13.630542
-0.589820 -1.021700 13.630542
-0.589820 -16.358200 13.630542
0.589880 -16.358200 13.630542
0.589880 -1.021700 13.630542
1.021680 -0.589800 13.630542
16.358280 -0.589800 13.630542
16.358280 0.589900 13.630542
1.021680 0.589900 13.630542
0.589880 1.021700 13.630542
25.158180 11.648100 13.630542
27.691780 -1.333100 13.630542
24.755480 -12.481100 13.630542
14.709380 -23.499901 13.630542
-1.179720 -17.695999 -13.031498
1.179780 -17.695999 -13.031498
-1.179720 17.696100 -13.031498
1.179780 17.696100 -13.031498
0.305380 1.139600 13.040742
0.305380 1.139600 -13.031498
-0.305320 1.139600 -13.031498
-0.305320 1.139600 13.040742
17.696079 -1.179700 -14.801101
17.696079 1.179800 -14.801101
15.178480 0.589900 13.040742
1.021680 0.589900 13.040742
1.139580 0.305400 13.040742
1.139580 -0.305300 13.040742
1.021680 -0.589800 13.040742
15.178480 -0.589800 13.040742
-1.179720 0.000000 13.040742
-1.021720 -0.589800 13.040742
-15.178520 -0.589800 13.040742
-15.178520 0.589900 13.040742
-1.021720 0.589900 13.040742
-15.178520 -0.589800 13.630542
-16.358219 -0.589800 13.630542
-16.358219 0.589900 13.630542
-15.178520 0.589900 13.630542
1.021680 0.589900 13.630542
0.589880 1.021700 13.630542
0.589880 15.178600 13.630542
-0.589820 15.178600 13.630542
-0.589820 1.021700 13.630542
-1.021720 0.589900 13.630542
-15.178520 0.589900 13.630542
-15.178520 -0.589800 13.630542
15.178480 -0.589800 13.630542
15.178480 0.589900 13.630542
-0.589820 1.021700 13.040742
-0.305320 1.139600 13.040742
0.305380 1.139600 13.040742
0.589880 1.021700 13.040742
0.589880 15.178600 13.040742
-0.589820 15.178600 13.040742
1.179780 -1.179700 -13.031498
1.179780 -1.179700 -14.801101
18.210779 -1.179700 -14.743883
18.434179 -1.179700 -14.607352
18.719780 -1.179700 -14.175267
18.719780 -1.179700 -13.657328
18.434179 -1.179700 -13.225248
18.210779 -1.179700 -13.088718
16.358280 -0.589800 13.630542
15.178480 -0.589800 13.040742
15.178480 0.589900 13.040742
16.358280 0.589900 13.630542
-17.957640 -1.179700 -14.810342
-17.957640 1.179800 -14.810342
14.709380 -23.499901 14.810342
24.755480 -12.481100 14.810342
27.691780 -1.333100 14.810342
26.044580 9.502100 14.810342
20.717779 18.422501 14.810342
12.996780 24.488701 14.810342
-2.726520 27.589500 14.810342
-18.422430 20.717800 14.810342
-25.011400 11.960000 14.810342
-27.589430 -2.726500 14.810342
-24.908701 -12.172400 14.810342
-18.245420 -20.873800 14.810342
-11.959920 -25.011400 14.810342
-0.752920 -27.713600 14.810342
-1.179720 18.434200 -14.607352
1.179780 18.434200 -14.607352
1.179780 18.719801 -13.657328
-1.179720 18.719801 -13.657328
0.589880 15.178600 13.040742
-0.589820 15.178600 13.040742
-0.589820 16.358299 13.630542
0.589880 16.358299 13.630542
1.179780 -17.695999 -13.031498
-1.179720 -17.695999 -13.031498
1.333080 27.691799 13.630542
-2.726520 27.589500 13.630542
-2.726520 27.589500 14.810342
1.333080 27.691799 14.810342
7.061380 26.809500 14.810342
12.996780 24.488701 14.810342
12.996780 24.488701 13.630542
7.061380 26.809500 13.630542
-17.696051 -1.179700 -14.801101
-17.696051 1.179800 -14.801101
-1.179720 -18.210800 -14.743883
1.179780 -18.210800 -14.743883
0.589880 1.021700 -13.031498
-1.179720 -17.695999 -14.801101
1.179780 -17.695999 -14.801101
-10.584320 25.623899 13.630542
-2.726520 27.589500 13.630542
12.996780 24.488701 13.630542
0.589880 16.358299 13.630542
-0.589820 16.358299 13.630542
-0.589820 1.021700 13.630542
-1.021720 0.589900 13.630542
-16.358219 0.589900 13.630542
-16.358219 -0.589800 13.630542
-1.021720 -0.589800 13.630542
-26.809446 7.061500 13.630542
-22.666599 15.963600 13.630542
1.179780 18.719801 -14.175267
-1.179720 18.719801 -14.175267
26.490280 -8.177900 14.810342
26.490280 -8.177900 13.630542
0.589880 -1.021700 -13.031498
17.696079 1.179800 -13.031498
0.589880 1.021700 -13.031498
1.021680 0.589900 -13.031498
1.139580 0.305400 -13.031498
1.139580 -0.305300 -13.031498
0.834180 -0.834200 -13.031498
23.624281 -14.508800 14.810342
21.978279 -16.898701 14.810342
19.273880 -19.928101 14.810342
19.273880 -19.928101 13.630542
21.978279 -16.898701 13.630542
23.624281 -14.508800 13.630542
24.755480 -12.481100 13.630542
25.924480 -9.825100 13.630542
25.924480 -9.825100 14.810342
24.755480 -12.481100 14.810342
-15.485420 -22.995899 14.810342
-15.963520 -22.666599 14.810342
-16.434719 -22.327299 14.810342
-16.898741 -21.978201 14.810342
-17.355310 -21.619499 14.810342
-17.804270 -21.251301 14.810342
-17.804270 -21.251301 13.630542
-17.355310 -21.619499 13.630542
-16.898741 -21.978201 13.630542
-16.434719 -22.327299 13.630542
-15.963520 -22.666599 13.630542
-15.485420 -22.995899 13.630542
-15.000420 -23.315201 13.630542
-14.010920 -23.922899 13.630542
-12.996820 -24.488600 13.630542
-12.481120 -24.755400 13.630542
-12.481120 -24.755400 14.810342
-12.996820 -24.488600 14.810342
-14.010920 -23.922899 14.810342
-15.000420 -23.315201 14.810342
14.213980 -23.802799 14.810342
13.204780 -24.377100 14.810342
12.172380 -24.908701 14.810342
11.118680 -25.396500 14.810342
10.045380 -25.839899 14.810342
9.502080 -26.044600 14.810342
8.954480 -26.237900 14.810342
7.847980 -26.589800 14.810342
6.727580 -26.895100 14.810342
6.727580 -26.895100 13.630542
7.847980 -26.589800 13.630542
8.954480 -26.237900 13.630542
9.502080 -26.044600 13.630542
10.045380 -25.839899 13.630542
11.118680 -25.396500 13.630542
12.172380 -24.908701 13.630542
13.204780 -24.377100 13.630542
14.213980 -23.802799 13.630542
14.709380 -23.499901 13.630542
15.680580 -22.863300 13.630542
16.624180 -22.186600 13.630542
17.538679 -21.471001 13.630542
18.422480 -20.717699 13.630542
18.422480 -20.717699 14.810342
17.538679 -21.471001 14.810342
16.624180 -22.186600 14.810342
15.680580 -22.863300 14.810342
14.709380 -23.499901 14.810342
-1.179720 -17.695999 -13.031498
1.179780 -17.695999 -13.031498
16.898781 21.978300 13.630542
15.485380 22.996000 13.630542
15.485380 22.996000 14.810342
16.898781 21.978300 14.810342
19.103479 20.091499 14.810342
19.103479 20.091499 13.630542
-0.589820 -1.021700 -13.031498
-17.696051 1.179800 -13.031498
-0.305320 1.139600 -13.031498
-0.834220 0.834200 -13.031498
-1.021720 0.589900 -13.031498
-1.179720 0.000000 -13.031498
-1.021720 -0.589800 -13.031498
-12.172420 24.908701 13.630542
-13.204820 24.377199 13.630542
-13.712420 24.095301 13.630542
-14.214020 23.802799 13.630542
-14.709320 23.499901 13.630542
-15.198320 23.186701 13.630542
-15.680520 22.863300 13.630542
-16.155920 22.529900 13.630542
-16.624201 22.186600 13.630542
-17.085199 21.833599 13.630542
-17.538700 21.471001 13.630542
-17.984510 21.099001 13.630542
-17.984510 21.099001 14.810342
-17.538700 21.471001 14.810342
-17.085199 21.833599 14.810342
-16.624201 22.186600 14.810342
-16.155920 22.529900 14.810342
-15.680520 22.863300 14.810342
-15.198320 23.186701 14.810342
-14.709320 23.499901 14.810342
-14.214020 23.802799 14.810342
-13.712420 24.095301 14.810342
-13.204820 24.377199 14.810342
-12.172420 24.908701 14.810342
-11.648020 25.158199 14.810342
-11.118620 25.396601 14.810342
-10.584320 25.623899 14.810342
-10.045420 25.839899 14.810342
-9.502020 26.044600 14.810342
-8.954520 26.237900 14.810342
-8.403020 26.419701 14.810342
-7.847920 26.589899 14.810342
-7.289320 26.748400 14.810342
-6.727620 26.895201 14.810342
-6.162820 27.030199 14.810342
-5.595420 27.153299 14.810342
-5.025520 27.264601 14.810342
-4.453420 27.363800 14.810342
-3.879420 27.451099 14.810342
-3.303720 27.526300 14.810342
-3.303720 27.526300 13.630542
-3.879420 27.451099 13.630542
-4.453420 27.363800 13.630542
-5.025520 27.264601 13.630542
-5.595420 27.153299 13.630542
-6.162820 27.030199 13.630542
-6.727620 26.895201 13.630542
-7.289320 26.748400 13.630542
-7.847920 26.589899 13.630542
-8.403020 26.419701 13.630542
-8.954520 26.237900 13.630542
-9.502020 26.044600 13.630542
-10.045420 25.839899 13.630542
-10.584320 25.623899 13.630542
-11.118620 25.396601 13.630542
-11.648020 25.158199 13.630542
1.139580 0.305400 -13.031498
1.021680 0.589900 -13.031498
0.589880 1.021700 -13.031498
17.696079 1.179800 -13.031498
0.589880 -1.021700 -13.031498
0.834180 -0.834200 -13.031498
1.139580 -0.305300 -13.031498
15.178480 -0.589800 13.040742
1.021680 -0.589800 13.040742
1.139580 -0.305300 13.040742
1.139580 0.305400 13.040742
1.021680 0.589900 13.040742
15.178480 0.589900 13.040742
16.358280 -0.589800 13.630542
15.178480 -0.589800 13.630542
15.178480 0.589900 13.630542
16.358280 0.589900 13.630542
1.179780 1.179800 -14.801101
1.179780 1.179800 -13.031498
18.210779 1.179800 -13.088718
18.434179 1.179800 -13.225248
18.719780 1.179800 -13.657328
18.719780 1.179800 -14.175267
18.434179 1.179800 -14.607352
18.210779 1.179800 -14.743883
0.589880 15.178600 13.630542
-0.589820 15.178600 13.630542
-0.589820 16.358299 13.630542
0.589880 16.358299 13.630542
-15.178520 0.589900 13.040742
-15.178520 -0.589800 13.040742
-1.021720 -0.589800 13.040742
-1.179720 0.000000 13.040742
-1.021720 0.589900 13.040742
-1.021720 -0.589800 13.630542
1.021680 -0.589800 13.630542
0.589880 -16.358200 13.630542
-0.589820 -16.358200 13.630542
-0.589820 -15.178500 13.630542
0.589880 -15.178500 13.630542
16.358280 0.589900 13.630542
15.178480 -0.589800 13.630542
16.358280 -0.589800 13.630542
0.589880 -15.178500 13.630542
-0.589820 -15.178500 13.630542
-0.589820 -16.358200 13.630542
0.589880 -16.358200 13.630542
0.589880 -15.178500 13.630542
-0.589820 -15.178500 13.630542
-0.589820 -1.021700 13.630542
0.589880 -1.021700 13.630542
-0.589820 -1.021700 13.040742
-0.589820 -15.178500 13.040742
0.589880 -15.178500 13.040742
0.589880 -1.021700 13.040742
-0.000020 -1.179700 13.040742
0.589880 -15.178500 13.040742
-0.589820 -15.178500 13.040742
-0.589820 -1.021700 13.040742
-0.000020 -1.179700 13.040742
0.589880 -1.021700 13.040742
0.589880 16.358299 13.630542
-0.589820 16.358299 13.630542
-0.589820 15.178600 13.630542
0.589880 15.178600 13.630542
-15.178520 0.589900 13.630542
-16.358219 0.589900 13.630542
-16.358219 -0.589800 13.630542
-15.178520 -0.589800 13.630542
4 0 1 2 3
3 4 5 6
4 7 8 9 10
10 11 12 13 14 15 16 17 18 19 20
3 21 8 7
4 22 23 24 25
5 26 27 28 29 30
7 31 32 33 34 35 36 37
7 38 39 40 41 42 43 44
4 45 46 47 48
3 49 50 51
3 49 51 52
4 53 46 45 54
4 55 1 0 56
4 57 58 59 60
8 61 62 63 64 65 66 67 68
4 69 70 71 72
7 73 74 75 76 77 78 79
8 80 81 82 83 84 85 86 87
4 88 89 90 91
7 92 93 94 95 96 97 98
5 5 4 99 100 101
4 102 103 104 105
4 106 107 108 109
4 28 27 10 9
4 110 111 112 113
28 114 115 116 117 118 119 120 121 122 123 124 125 126 127 128 129 130 131 132 133 134 135 136 137 138 139 140 141
4 26 142 143 27
8 144 145 146 147 148 149 150 151
3 152 153 154
4 153 152 155 156
3 157 158 159
11 160 158 161 162 163 164 165 166 154 153 167
3 158 160 168
3 169 170 171
12 172 173 174 150 149 175 176 177 178 117 116 179
3 180 171 181
3 182 183 184
6 185 186 187 188 189 190
4 107 191 192 108
6 193 194 195 196 197 198
4 100 99 24 23
8 50 49 199 200 201 202 203 204
4 205 206 52 51
4 22 207 208 209
4 210 211 212 213
4 214 215 216 217
4 218 219 220 221
4 222 223 224 106
40 225 226 227 228 229 230 231 232 233 234 235 236 237 238 239 240 241 242 146 145 243 244 245 246 247 248 249 250 251 252 253 254 255 256 257 258 259 260 261 262
4 263 264 265 266
4 267 268 269 270
4 271 272 273 274
18 275 276 277 278 279 280 281 282 283 284 285 286 287 288 289 290 291 292
4 269 55 56 270
4 293 294 295 296
4 264 297 298 265
4 5 299 300 6
4 301 302 303 304
4 101 100 305 306
4 307 21 7 308
18 309 310 311 312 313 314 315 316 317 318 319 320 321 322 323 324 325 326
5 159 158 168 327 328
4 263 266 58 57
4 329 330 184 183
4 331 332 333 334
4 272 335 336 273
6 337 338 339 340 341 342
5 343 344 345 346 347
4 348 349 350 351
10 352 353 354 355 356 357 358 359 360 361
6 362 363 364 365 366 367
8 368 369 370 371 372 373 374 375
4 376 377 378 379
4 380 113 112 381
14 382 383 384 385 386 387 388 389 390 391 392 393 394 395
4 60 59 111 110
4 213 212 396 397
4 47 398 399 48
4 400 401 402 403
4 219 293 296 220
4 295 294 404 405
8 406 407 408 409 410 411 412 413
4 3 2 271 274
4 414 380 381 415
4 416 417 218 221
4 90 418 332 331
4 419 420 417 416
16 421 422 423 323 322 424 425 426 427 428 429 430 314 313 431 432
4 433 397 396 434
4 277 435 436 278
11 437 158 157 438 152 154 439 440 441 442 443
12 444 445 446 447 448 449 450 451 436 435 452 453
24 454 455 456 457 458 459 131 130 460 461 462 463 464 465 466 467 468 469 71 70 470 471 472 473
32 474 475 476 477 478 479 480 481 482 69 72 483 484 485 486 487 488 489 490 491 492 493 494 495 496 447 446 497 498 499 500 501
4 398 433 434 399
5 502 169 171 180 503
10 504 505 412 411 506 507 508 287 286 509
5 207 22 25 8 21
11 510 171 170 511 183 182 512 513 514 515 516
6 304 303 30 29 192 191
6 106 109 418 90 89 222
60 517 518 519 520 521 522 523 524 525 526 527 528 262 261 529 530 531 532 533 534 535 536 537 538 539 540 541 542 543 544 545 546 547 548 549 550 551 552 553 554 555 556 408 407 557 558 559 560 561 562 563 564 565 566 567 568 569 570 571 572
11 573 574 575 182 184 576 181 171 577 578 579
6 580 581 582 583 584 585
4 586 587 588 589
4 334 333 4 6
8 590 591 592 593 594 595 596 597
4 598 599 600 601
5 602 603 604 605 606
3 20 19 607
3 607 19 608
4 609 610 611 612
4 613 361 614 615
4 616 617 618 619
3 198 360 193
3 193 360 359
6 620 621 622 607 608 623
5 624 625 626 627 628
5 629 630 631 632 633
4 634 635 636 637
4 638 639 640 641
