ply
format ascii 1.0
comment Created by Blender 2.82 (sub 7) - www.blender.org, source file: ''
element vertex 850
property float x
property float y
property float z
element face 242
property list uchar uint vertex_indices
end_header
-24.036011 23.170780 -20.326050
-24.036011 23.170780 18.326050
-24.445795 23.299881 18.326050
-24.445795 23.299881 -20.326050
-24.325640 -24.763500 18.326050
-24.663738 -24.498400 18.326050
-24.663738 -24.498400 -20.326050
-24.325640 -24.763500 -20.326050
23.177000 -24.611799 3.283850
-23.166931 -24.611799 3.283850
-23.166931 -24.810301 3.664850
23.177000 -24.810301 3.664850
-23.173941 24.611809 4.405650
-23.173941 24.810284 4.024550
-23.173941 24.829220 3.808750
-23.173941 24.700119 3.398950
-23.173941 24.560883 3.232950
-23.173941 24.179834 3.034450
-23.173941 23.750601 3.053050
-23.173941 23.388191 3.283850
-23.173941 23.189716 3.664850
-23.173941 23.208357 4.094150
-23.173941 23.439117 4.456550
-23.173941 23.820166 4.655050
-23.173941 24.036011 4.673950
-23.173941 24.445795 4.544850
-23.173941 24.829220 3.808750
-23.173941 24.700119 3.398950
23.170000 24.700119 3.398950
23.170000 24.829220 3.808750
23.879400 -23.178801 18.326050
23.879400 -23.178801 -20.326050
24.306200 -23.228500 -20.326050
24.306200 -23.228500 18.326050
23.177000 -23.170799 3.808750
-23.166931 -23.170799 3.808750
-23.166931 -23.299900 3.398950
23.177000 -23.299900 3.398950
-23.690420 -24.770100 -20.326050
-23.690420 -24.770100 18.326050
-23.346844 -24.512100 18.326050
-23.346844 -24.512100 -20.326050
23.177000 -24.791599 4.094150
-23.166931 -24.791599 4.094150
-23.166931 -24.560900 4.456550
23.177000 -24.560900 4.456550
-0.823000 23.125095 3.016250
-0.859000 23.125095 3.013050
-0.859000 -23.218800 3.013050
-0.823000 -23.218800 3.016250
24.821199 -23.879400 18.326050
24.771500 -24.306200 18.326050
24.771500 -24.306200 -20.326050
24.821199 -23.879400 -20.326050
-0.787000 23.125095 4.671550
-0.377200 23.125095 4.542450
-0.377200 -23.218800 4.542450
-0.787000 -23.218800 4.671550
24.830000 24.000000 -20.326050
24.830000 24.000000 18.326050
24.718800 24.415001 18.326050
24.718800 24.415001 -20.326050
-23.166931 -23.170799 3.808750
23.177000 -23.170799 3.808750
23.177000 -23.299900 3.398950
-23.166931 -23.299900 3.398950
30.000000 -30.000000 18.326050
-30.000000 -30.000000 18.326050
-30.000000 30.000000 18.326050
30.000000 30.000000 18.326050
-23.173941 23.820166 4.655050
-23.173941 24.036011 4.673950
23.170000 24.036011 4.673950
23.170000 23.820166 4.655050
-24.700119 24.445795 18.326050
-24.383425 24.736130 18.326050
-24.383425 24.736130 -20.326050
-24.700119 24.445795 -20.326050
-23.173941 24.560883 3.232950
23.170000 24.560883 3.232950
24.650900 -23.485001 18.326050
24.650900 -23.485001 -20.326050
24.306200 -23.228500 -20.326050
24.306200 -23.228500 18.326050
23.177000 -23.554199 4.544850
23.177000 -23.388201 4.405650
-23.166931 -23.388201 4.405650
-23.166931 -23.554199 4.544850
30.000000 -30.000000 18.326050
30.000000 -30.000000 20.326050
-30.000000 -30.000000 20.326050
-30.000000 -30.000000 18.326050
23.228500 -23.693800 -20.326050
23.485001 -23.349100 -20.326050
23.485001 -23.349100 18.326050
23.228500 -23.693800 18.326050
23.177000 -24.826099 3.844750
-23.166931 -24.826099 3.844750
-23.263870 24.383425 -20.326050
-23.554205 24.700119 -20.326050
-23.963989 24.829220 -20.326050
-24.383425 24.736130 -20.326050
-24.700119 24.445795 -20.326050
-24.829220 24.036011 -20.326050
-24.736130 23.616575 -20.326050
-24.445795 23.299881 -20.326050
-24.036011 23.170780 -20.326050
-23.616575 23.263870 -20.326050
-23.299881 23.554205 -20.326050
-23.170780 23.963989 -20.326050
-23.166931 -24.826099 3.844750
-23.166931 -24.810301 3.664850
23.177000 -24.810301 3.664850
23.177000 -24.826099 3.844750
-24.036011 23.170780 18.326050
-24.036011 23.170780 -20.326050
-24.445795 23.299881 -20.326050
-24.445795 23.299881 18.326050
-23.166931 -24.584101 3.260650
23.177000 -24.584101 3.260650
23.170000 24.810284 4.024550
-23.173941 24.810284 4.024550
-23.173941 24.611809 4.405650
23.170000 24.611809 4.405650
23.170000 24.000000 18.326050
23.281200 24.415001 18.326050
23.281200 24.415001 -20.326050
23.170000 24.000000 -20.326050
23.177000 -23.388201 4.405650
-23.166931 -23.388201 4.405650
-23.166931 -23.189699 4.024550
23.177000 -23.189699 4.024550
24.415001 24.718801 18.326050
24.415001 24.718801 -20.326050
-0.377200 -23.218800 4.542450
-0.086900 -23.218800 4.225750
-0.012700 -23.218800 4.022150
-0.031300 -23.218800 3.592950
-0.262100 -23.218800 3.230550
-0.439600 -23.218800 3.106150
-0.859000 -23.218800 3.013050
-1.268800 -23.218800 3.142150
-1.559100 -23.218800 3.458850
-1.652200 -23.218800 3.878350
-1.523100 -23.218800 4.288150
-1.206400 -23.218800 4.578450
-0.787000 -23.218800 4.671550
-1.383900 -23.218800 4.454150
-1.614600 -23.218800 4.091750
-1.614600 23.125095 4.091750
-1.383900 23.125095 4.454150
-0.859000 23.125095 3.013050
-0.859000 -23.218800 3.013050
-1.268800 -23.218800 3.142150
-1.268800 23.125095 3.142150
-23.173941 24.000000 -20.326050
-23.170780 23.963989 -20.326050
-23.170780 23.963989 18.326050
-23.173941 24.000000 18.326050
24.000000 24.830000 -20.326050
24.000000 24.830000 18.326050
23.693800 -24.771500 18.326050
23.349100 -24.514999 18.326050
23.349100 -24.514999 -20.326050
23.693800 -24.771500 -20.326050
-23.173941 23.439117 4.456550
-23.173941 23.299881 4.290550
23.170000 23.299881 4.290550
23.170000 23.439117 4.456550
-23.173941 24.611809 4.405650
-23.173941 24.810284 4.024550
23.170000 24.810284 4.024550
23.170000 24.611809 4.405650
-30.000000 -30.000000 20.326050
-30.000000 30.000000 20.326050
-30.000000 30.000000 18.326050
-30.000000 -30.000000 18.326050
23.170000 24.560883 3.232950
-23.173941 24.560883 3.232950
-23.173941 24.700119 3.398950
23.170000 24.700119 3.398950
-23.173941 24.000000 3.018650
-23.173941 23.750601 3.053050
23.170000 23.750601 3.053050
23.170000 24.000000 3.018650
24.830000 24.000000 18.326050
24.718800 23.584999 18.326050
24.415001 23.281199 18.326050
24.000000 23.170000 18.326050
23.584999 23.281199 18.326050
23.281200 23.584999 18.326050
23.170000 24.000000 18.326050
23.281200 24.415001 18.326050
23.584999 24.718801 18.326050
24.000000 24.830000 18.326050
24.415001 24.718801 18.326050
24.718800 24.415001 18.326050
-24.036011 23.170780 18.326050
-24.445795 23.299881 18.326050
-24.736130 23.616575 18.326050
-24.829220 24.036011 18.326050
-24.700119 24.445795 18.326050
-24.383425 24.736130 18.326050
-23.963989 24.829220 18.326050
-23.554205 24.700119 18.326050
-23.263870 24.383425 18.326050
-23.170780 23.963989 18.326050
-23.299881 23.554205 18.326050
-23.616575 23.263870 18.326050
-23.173941 23.388191 3.283850
-23.173941 23.750601 3.053050
-23.173941 24.179834 3.034450
-23.173941 24.560883 3.232950
-23.173941 24.700119 3.398950
-23.173941 24.829220 3.808750
-23.173941 24.810284 4.024550
-23.173941 24.611809 4.405650
-23.173941 24.445795 4.544850
-23.173941 24.036011 4.673950
-23.173941 23.820166 4.655050
-23.173941 23.439117 4.456550
-23.173941 23.208357 4.094150
-23.173941 23.189716 3.664850
-23.173941 23.170780 3.880750
23.170000 23.170780 3.880750
-23.487860 -23.346800 -20.326050
-23.229897 -23.690399 -20.326050
-23.229897 -23.690399 18.326050
-23.487860 -23.346800 18.326050
-23.173941 23.415888 3.260650
-23.173941 23.388191 3.283850
23.170000 23.388191 3.283850
23.170000 23.415888 3.260650
-23.883053 -23.178301 -20.326050
-23.487860 -23.346800 -20.326050
-23.229897 -23.690399 -20.326050
-23.178280 -24.117001 -20.326050
-23.346844 -24.512100 -20.326050
-23.690420 -24.770100 -20.326050
-23.900288 -24.823999 -20.326050
-24.325640 -24.763500 -20.326050
-24.663738 -24.498400 -20.326050
-24.823990 -24.099701 -20.326050
-24.763453 -23.674400 -20.326050
-24.653156 -23.487900 -20.326050
-24.309580 -23.229900 -20.326050
24.415001 23.281199 -20.326050
24.000000 23.170000 -20.326050
23.584999 23.281199 -20.326050
23.281200 23.584999 -20.326050
23.170000 24.000000 -20.326050
23.281200 24.415001 -20.326050
23.584999 24.718801 -20.326050
24.000000 24.830000 -20.326050
24.415001 24.718801 -20.326050
24.718800 24.415001 -20.326050
24.830000 24.000000 -20.326050
24.718800 23.584999 -20.326050
23.879400 -23.178801 -20.326050
23.485001 -23.349100 -20.326050
23.228500 -23.693800 -20.326050
23.178801 -24.120600 -20.326050
23.349100 -24.514999 -20.326050
23.693800 -24.771500 -20.326050
24.120600 -24.821199 -20.326050
24.514999 -24.650900 -20.326050
24.771500 -24.306200 -20.326050
24.821199 -23.879400 -20.326050
24.650900 -23.485001 -20.326050
24.306200 -23.228500 -20.326050
-23.263870 24.383425 -20.326050
-23.173941 24.000000 -20.326050
-23.173941 24.000000 18.326050
-23.263870 24.383425 18.326050
24.120600 -24.821199 18.326050
24.120600 -24.821199 -20.326050
23.693800 -24.771500 -20.326050
23.693800 -24.771500 18.326050
-23.166931 -23.439100 3.232950
-23.166931 -23.820200 3.034450
23.177000 -23.820200 3.034450
23.177000 -23.439100 3.232950
23.170000 24.036011 4.673950
23.170000 24.445795 4.544850
-23.173941 24.445795 4.544850
-23.173941 24.036011 4.673950
-0.012700 23.125095 4.022150
-0.031300 23.125095 3.592950
-0.031300 -23.218800 3.592950
-0.012700 -23.218800 4.022150
-23.166931 -24.611799 3.283850
23.177000 -24.611799 3.283850
-1.383900 23.125095 4.454150
-1.383900 -23.218800 4.454150
-1.206400 -23.218800 4.578450
-1.206400 23.125095 4.578450
-24.829220 24.036011 -20.326050
-24.700119 24.445795 -20.326050
-24.700119 24.445795 18.326050
-24.829220 24.036011 18.326050
23.584999 23.281199 18.326050
23.281200 23.584999 18.326050
23.281200 23.584999 -20.326050
23.584999 23.281199 -20.326050
-23.170780 23.963989 18.326050
-23.299881 23.554205 18.326050
-23.299881 23.554205 -20.326050
-23.170780 23.963989 -20.326050
24.718800 23.584999 -20.326050
24.415001 23.281199 -20.326050
24.415001 23.281199 18.326050
24.718800 23.584999 18.326050
-1.649100 -23.218800 3.842350
-1.633300 -23.218800 3.662450
-1.633300 23.125095 3.662450
-1.649100 23.125095 3.842350
-24.736130 23.616575 18.326050
-24.829220 24.036011 18.326050
-24.829220 24.036011 -20.326050
-24.736130 23.616575 -20.326050
-0.262100 23.125095 3.230550
-0.439600 23.125095 3.106150
-0.439600 -23.218800 3.106150
-0.262100 -23.218800 3.230550
-1.407100 23.125095 3.258250
-1.434800 23.125095 3.281450
-1.434800 -23.218800 3.281450
-1.407100 -23.218800 3.258250
23.281200 23.584999 -20.326050
23.170000 24.000000 -20.326050
23.170000 24.000000 18.326050
23.281200 23.584999 18.326050
-23.299881 23.554205 -20.326050
-23.299881 23.554205 18.326050
23.584999 23.281199 -20.326050
23.584999 23.281199 18.326050
24.000000 23.170000 18.326050
24.000000 23.170000 -20.326050
-24.823990 -24.099701 -20.326050
-24.763453 -23.674400 -20.326050
-24.763453 -23.674400 18.326050
-24.823990 -24.099701 18.326050
-24.653156 -23.487900 -20.326050
-24.653156 -23.487900 18.326050
30.000000 30.000000 20.326050
30.000000 30.000000 18.326050
-30.000000 30.000000 18.326050
-30.000000 30.000000 20.326050
-23.173941 24.829220 3.808750
23.170000 24.829220 3.808750
23.170000 23.820166 4.655050
-23.173941 23.820166 4.655050
-23.173941 24.179834 3.034450
23.170000 24.179834 3.034450
23.170000 24.000000 3.018650
-23.173941 24.000000 3.018650
-23.173941 23.415888 3.260650
23.170000 23.415888 3.260650
24.120600 -24.821199 -20.326050
24.120600 -24.821199 18.326050
-23.173941 23.189716 3.664850
-23.173941 23.388191 3.283850
23.170000 23.388191 3.283850
23.170000 23.189716 3.664850
-23.166931 -23.554199 4.544850
-23.166931 -23.388201 4.405650
-23.166931 -23.189699 4.024550
-23.166931 -23.170799 3.808750
-23.166931 -23.299900 3.398950
-23.166931 -23.439100 3.232950
-23.166931 -23.820200 3.034450
-23.166931 -24.249399 3.053050
-23.166931 -24.611799 3.283850
-23.166931 -24.810301 3.664850
-23.166931 -24.829201 3.880750
-23.166931 -24.700100 4.290550
-23.166931 -24.560900 4.456550
-23.166931 -24.179800 4.655050
-23.166931 -23.964001 4.673950
24.415001 24.718801 -20.326050
24.415001 24.718801 18.326050
24.718800 24.415001 18.326050
24.718800 24.415001 -20.326050
23.170000 23.173941 3.844750
23.170000 23.189716 3.664850
-23.173941 23.189716 3.664850
-23.173941 23.173941 3.844750
24.514999 -24.650900 18.326050
24.514999 -24.650900 -20.326050
-23.263870 24.383425 18.326050
-23.173941 24.000000 18.326050
-23.173941 24.000000 -20.326050
-23.263870 24.383425 -20.326050
23.177000 -24.000000 3.018650
23.177000 -24.249399 3.053050
-23.166931 -24.249399 3.053050
-23.166931 -24.000000 3.018650
23.693800 -24.771500 18.326050
24.120600 -24.821199 18.326050
24.514999 -24.650900 18.326050
24.771500 -24.306200 18.326050
24.821199 -23.879400 18.326050
24.650900 -23.485001 18.326050
24.306200 -23.228500 18.326050
23.879400 -23.178801 18.326050
23.485001 -23.349100 18.326050
23.228500 -23.693800 18.326050
23.178801 -24.120600 18.326050
23.349100 -24.514999 18.326050
-23.166931 -23.964001 4.673950
-23.166931 -23.554199 4.544850
23.177000 -23.554199 4.544850
23.177000 -23.964001 4.673950
-23.166931 -24.179800 4.655050
23.177000 -24.179800 4.655050
-24.000000 23.173941 -20.326050
-24.000000 23.173941 18.326050
-23.616575 23.263870 18.326050
-23.616575 23.263870 -20.326050
24.821199 -23.879400 -20.326050
24.771500 -24.306200 -20.326050
24.771500 -24.306200 18.326050
24.821199 -23.879400 18.326050
23.177000 -24.584101 3.260650
-23.166931 -24.584101 3.260650
24.514999 -24.650900 18.326050
24.514999 -24.650900 -20.326050
23.177000 -23.964001 4.673950
23.177000 -24.179800 4.655050
23.177000 -24.560900 4.456550
23.177000 -24.700100 4.290550
23.177000 -24.829201 3.880750
23.177000 -24.810301 3.664850
23.177000 -24.611799 3.283850
23.177000 -24.249399 3.053050
23.177000 -23.820200 3.034450
23.177000 -23.439100 3.232950
23.177000 -23.299900 3.398950
23.177000 -23.170799 3.808750
23.177000 -23.189699 4.024550
23.177000 -23.388201 4.405650
23.177000 -23.554199 4.544850
-24.383425 24.736130 -20.326050
-24.383425 24.736130 18.326050
-1.614600 23.125095 4.091750
-1.649100 23.125095 3.842350
-1.649100 -23.218800 3.842350
-1.614600 -23.218800 4.091750
-23.166931 -24.560900 4.456550
23.177000 -24.560900 4.456550
23.177000 -24.179800 4.655050
-23.166931 -24.179800 4.655050
24.120600 -24.821199 18.326050
23.693800 -24.771500 18.326050
23.349100 -24.514999 18.326050
23.178801 -24.120600 18.326050
23.228500 -23.693800 18.326050
23.485001 -23.349100 18.326050
23.879400 -23.178801 18.326050
24.306200 -23.228500 18.326050
24.650900 -23.485001 18.326050
24.821199 -23.879400 18.326050
24.771500 -24.306200 18.326050
24.514999 -24.650900 18.326050
-23.883053 -23.178301 -20.326050
-23.883053 -23.178301 18.326050
-23.487860 -23.346800 18.326050
-23.487860 -23.346800 -20.326050
-1.649100 -23.218800 3.842350
-1.649100 23.125095 3.842350
-23.554205 24.700119 -20.326050
-23.554205 24.700119 18.326050
-1.206400 23.125095 4.578450
-1.206400 -23.218800 4.578450
-30.000000 -30.000000 20.326050
30.000000 -30.000000 20.326050
30.000000 30.000000 20.326050
-30.000000 30.000000 20.326050
-24.823990 -24.099701 18.326050
-24.663738 -24.498400 18.326050
-24.325640 -24.763500 18.326050
-23.900288 -24.823999 18.326050
-23.690420 -24.770100 18.326050
-23.346844 -24.512100 18.326050
-23.178280 -24.117001 18.326050
-23.229897 -23.690399 18.326050
-23.487860 -23.346800 18.326050
-23.883053 -23.178301 18.326050
-24.309580 -23.229900 18.326050
-24.653156 -23.487900 18.326050
-24.763453 -23.674400 18.326050
-0.262100 -23.218800 3.230550
-0.439600 -23.218800 3.106150
-0.439600 23.125095 3.106150
-0.262100 23.125095 3.230550
-0.823000 23.125095 3.016250
-0.823000 -23.218800 3.016250
-1.407100 -23.218800 3.258250
-1.407100 23.125095 3.258250
24.000000 23.170000 18.326050
24.000000 23.170000 -20.326050
-1.407100 -23.218800 3.258250
-1.434800 -23.218800 3.281450
-1.434800 23.125095 3.281450
-1.407100 23.125095 3.258250
24.830000 24.000000 18.326050
24.718800 23.584999 18.326050
24.718800 23.584999 -20.326050
24.830000 24.000000 -20.326050
-23.883053 -23.178301 -20.326050
-24.309580 -23.229900 -20.326050
-24.653156 -23.487900 -20.326050
-24.763453 -23.674400 -20.326050
-24.823990 -24.099701 -20.326050
-24.663738 -24.498400 -20.326050
-24.325640 -24.763500 -20.326050
-23.900288 -24.823999 -20.326050
-23.690420 -24.770100 -20.326050
-23.346844 -24.512100 -20.326050
-23.178280 -24.117001 -20.326050
-23.229897 -23.690399 -20.326050
-23.487860 -23.346800 -20.326050
23.584999 24.718801 18.326050
23.584999 24.718801 -20.326050
-23.554205 24.700119 -20.326050
-23.554205 24.700119 18.326050
23.170000 23.750601 3.053050
23.170000 23.415888 3.260650
-23.173941 23.415888 3.260650
-23.173941 23.750601 3.053050
23.281200 23.584999 18.326050
23.584999 23.281199 18.326050
24.000000 23.170000 18.326050
24.415001 23.281199 18.326050
24.718800 23.584999 18.326050
24.830000 24.000000 18.326050
24.718800 24.415001 18.326050
24.415001 24.718801 18.326050
24.000000 24.830000 18.326050
23.584999 24.718801 18.326050
23.281200 24.415001 18.326050
23.170000 24.000000 18.326050
-23.229897 -23.690399 18.326050
-23.178280 -24.117001 18.326050
-23.178280 -24.117001 -20.326050
-23.229897 -23.690399 -20.326050
-24.000000 23.173941 -20.326050
-24.000000 23.173941 18.326050
-1.633300 -23.218800 3.662450
-1.633300 23.125095 3.662450
24.718800 24.415001 -20.326050
24.415001 24.718801 -20.326050
24.000000 24.830000 -20.326050
23.584999 24.718801 -20.326050
23.281200 24.415001 -20.326050
23.170000 24.000000 -20.326050
23.281200 23.584999 -20.326050
23.584999 23.281199 -20.326050
24.000000 23.170000 -20.326050
24.415001 23.281199 -20.326050
24.718800 23.584999 -20.326050
24.830000 24.000000 -20.326050
23.584999 24.718801 18.326050
23.584999 24.718801 -20.326050
-0.823000 -23.218800 3.016250
-0.823000 23.125095 3.016250
23.281200 24.415001 -20.326050
23.281200 24.415001 18.326050
30.000000 30.000000 20.326050
30.000000 -30.000000 20.326050
30.000000 -30.000000 18.326050
30.000000 30.000000 18.326050
24.650900 -23.485001 -20.326050
24.650900 -23.485001 18.326050
23.170000 24.000000 3.018650
-23.173941 24.000000 3.018650
-24.823990 -24.099701 18.326050
-24.823990 -24.099701 -20.326050
-23.346844 -24.512100 18.326050
-23.346844 -24.512100 -20.326050
-23.554205 24.700119 -20.326050
-23.263870 24.383425 -20.326050
-23.170780 23.963989 -20.326050
-23.299881 23.554205 -20.326050
-23.616575 23.263870 -20.326050
-24.036011 23.170780 -20.326050
-24.445795 23.299881 -20.326050
-24.736130 23.616575 -20.326050
-24.829220 24.036011 -20.326050
-24.700119 24.445795 -20.326050
-24.383425 24.736130 -20.326050
-23.963989 24.829220 -20.326050
-23.415888 23.415888 -20.326050
-23.415888 23.415888 18.326050
-23.883053 -23.178301 18.326050
-23.487860 -23.346800 18.326050
-23.229897 -23.690399 18.326050
-23.178280 -24.117001 18.326050
-23.346844 -24.512100 18.326050
-23.690420 -24.770100 18.326050
-23.900288 -24.823999 18.326050
-24.325640 -24.763500 18.326050
-24.663738 -24.498400 18.326050
-24.823990 -24.099701 18.326050
-24.763453 -23.674400 18.326050
-24.653156 -23.487900 18.326050
-24.309580 -23.229900 18.326050
-0.031300 -23.218800 3.592950
-0.031300 23.125095 3.592950
-0.012700 23.125095 4.022150
-0.012700 -23.218800 4.022150
-23.963989 24.829220 -20.326050
-23.963989 24.829220 18.326050
-23.173941 23.439117 4.456550
23.170000 23.439117 4.456550
-23.173941 23.173941 3.844750
23.170000 23.173941 3.844750
-23.173941 23.173941 3.844750
23.170000 23.173941 3.844750
-23.173941 24.445795 4.544850
23.170000 24.445795 4.544850
23.170000 23.299881 4.290550
23.170000 23.170780 3.880750
-23.173941 23.170780 3.880750
-23.173941 23.299881 4.290550
-23.690420 -24.770100 18.326050
-23.690420 -24.770100 -20.326050
23.228500 -23.693800 -20.326050
23.485001 -23.349100 -20.326050
23.879400 -23.178801 -20.326050
24.306200 -23.228500 -20.326050
24.650900 -23.485001 -20.326050
24.821199 -23.879400 -20.326050
24.771500 -24.306200 -20.326050
24.514999 -24.650900 -20.326050
24.120600 -24.821199 -20.326050
23.693800 -24.771500 -20.326050
23.349100 -24.514999 -20.326050
23.178801 -24.120600 -20.326050
23.170000 23.173941 3.844750
-23.173941 23.173941 3.844750
23.170000 23.208357 4.094150
23.170000 23.189716 3.664850
23.170000 23.388191 3.283850
23.170000 23.750601 3.053050
23.170000 24.179834 3.034450
23.170000 24.560883 3.232950
23.170000 24.700119 3.398950
23.170000 24.829220 3.808750
23.170000 24.810284 4.024550
23.170000 24.611809 4.405650
23.170000 24.445795 4.544850
23.170000 24.036011 4.673950
23.170000 23.820166 4.655050
23.170000 23.439117 4.456550
-1.559100 23.125095 3.458850
-1.652200 23.125095 3.878350
-1.523100 23.125095 4.288150
-1.206400 23.125095 4.578450
-0.787000 23.125095 4.671550
-0.377200 23.125095 4.542450
-0.086900 23.125095 4.225750
-0.012700 23.125095 4.022150
-0.031300 23.125095 3.592950
-0.262100 23.125095 3.230550
-0.439600 23.125095 3.106150
-0.859000 23.125095 3.013050
-1.268800 23.125095 3.142150
23.228500 -23.693800 18.326050
23.485001 -23.349100 18.326050
23.485001 -23.349100 -20.326050
23.228500 -23.693800 -20.326050
23.178801 -24.120600 18.326050
23.178801 -24.120600 -20.326050
24.415001 23.281199 -20.326050
24.415001 23.281199 18.326050
23.879400 -23.178801 -20.326050
23.879400 -23.178801 18.326050
-23.963989 24.829220 -20.326050
-23.963989 24.829220 18.326050
23.177000 -24.826099 3.844750
-23.166931 -24.826099 3.844750
23.177000 -23.439100 3.232950
23.177000 -23.820200 3.034450
-23.166931 -23.820200 3.034450
-23.166931 -23.439100 3.232950
-24.763453 -23.674400 18.326050
-24.763453 -23.674400 -20.326050
-23.173941 24.000000 3.018650
23.170000 24.000000 3.018650
23.170000 24.179834 3.034450
-23.173941 24.179834 3.034450
-23.166931 -24.584101 3.260650
23.170000 24.829220 3.808750
23.170000 24.700119 3.398950
23.170000 24.560883 3.232950
23.170000 24.179834 3.034450
23.170000 23.750601 3.053050
23.170000 23.388191 3.283850
23.170000 23.189716 3.664850
23.170000 23.208357 4.094150
23.170000 23.439117 4.456550
23.170000 23.820166 4.655050
23.170000 24.036011 4.673950
23.170000 24.445795 4.544850
23.170000 24.611809 4.405650
23.170000 24.810284 4.024550
-24.445795 23.299881 18.326050
-24.036011 23.170780 18.326050
-23.616575 23.263870 18.326050
-23.299881 23.554205 18.326050
-23.170780 23.963989 18.326050
-23.263870 24.383425 18.326050
-23.554205 24.700119 18.326050
-23.963989 24.829220 18.326050
-24.383425 24.736130 18.326050
-24.700119 24.445795 18.326050
-24.829220 24.036011 18.326050
-24.736130 23.616575 18.326050
-24.309580 -23.229900 18.326050
-24.309580 -23.229900 -20.326050
-24.653156 -23.487900 -20.326050
-24.653156 -23.487900 18.326050
-23.166931 -24.249399 3.053050
23.177000 -24.249399 3.053050
23.177000 -24.000000 3.018650
-23.166931 -24.000000 3.018650
-23.900288 -24.823999 18.326050
-23.900288 -24.823999 -20.326050
23.349100 -24.514999 -20.326050
23.178801 -24.120600 -20.326050
23.178801 -24.120600 18.326050
23.349100 -24.514999 18.326050
-23.166931 -23.189699 4.024550
23.177000 -23.189699 4.024550
-23.415888 23.415888 18.326050
-23.616575 23.263870 18.326050
-23.616575 23.263870 -20.326050
-23.415888 23.415888 -20.326050
-23.178280 -24.117001 -20.326050
-23.178280 -24.117001 18.326050
-23.166931 -24.584101 3.260650
23.177000 -24.584101 3.260650
-24.325640 -24.763500 -20.326050
-24.663738 -24.498400 -20.326050
-24.663738 -24.498400 18.326050
-24.325640 -24.763500 18.326050
-23.900288 -24.823999 18.326050
-23.900288 -24.823999 -20.326050
-0.086900 -23.218800 4.225750
-0.086900 23.125095 4.225750
-0.377200 23.125095 4.542450
-0.377200 -23.218800 4.542450
-23.166931 -23.439100 3.232950
-23.166931 -23.299900 3.398950
-23.166931 -23.170799 3.808750
-23.166931 -23.189699 4.024550
-23.166931 -23.388201 4.405650
-23.166931 -23.554199 4.544850
-23.166931 -23.964001 4.673950
-23.166931 -24.179800 4.655050
-23.166931 -24.560900 4.456550
-23.166931 -24.700100 4.290550
-23.166931 -24.829201 3.880750
-23.166931 -24.810301 3.664850
-23.166931 -24.611799 3.283850
-23.166931 -24.249399 3.053050
-23.166931 -23.820200 3.034450
-23.173941 23.415888 3.260650
-0.787000 -23.218800 4.671550
-0.787000 23.125095 4.671550
23.177000 -23.964001 4.673950
-23.166931 -23.964001 4.673950
-23.166931 -24.791599 4.094150
23.177000 -24.791599 4.094150
-24.736130 23.616575 -20.326050
-24.736130 23.616575 18.326050
-24.309580 -23.229900 18.326050
-24.309580 -23.229900 -20.326050
-23.883053 -23.178301 -20.326050
-23.883053 -23.178301 18.326050
23.177000 -24.000000 3.018650
-23.166931 -24.000000 3.018650
-24.000000 23.173941 18.326050
-24.000000 23.173941 -20.326050
23.177000 -23.820200 3.034450
23.177000 -24.249399 3.053050
23.177000 -24.611799 3.283850
23.177000 -24.810301 3.664850
23.177000 -24.829201 3.880750
23.177000 -24.700100 4.290550
23.177000 -24.560900 4.456550
23.177000 -24.179800 4.655050
23.177000 -23.964001 4.673950
23.177000 -23.554199 4.544850
23.177000 -23.388201 4.405650
23.177000 -23.189699 4.024550
23.177000 -23.170799 3.808750
23.177000 -23.299900 3.398950
23.177000 -23.439100 3.232950
-1.649100 23.125095 3.842350
-1.649100 -23.218800 3.842350
-0.086900 23.125095 4.225750
-0.086900 -23.218800 4.225750
-0.823000 -23.218800 3.016250
-0.823000 23.125095 3.016250
24.000000 24.830000 18.326050
24.000000 24.830000 -20.326050
-24.000000 23.173941 18.326050
-24.000000 23.173941 -20.326050
-0.787000 -23.218800 4.671550
-1.206400 -23.218800 4.578450
-1.523100 -23.218800 4.288150
-1.652200 -23.218800 3.878350
-1.559100 -23.218800 3.458850
-1.268800 -23.218800 3.142150
-0.859000 -23.218800 3.013050
-0.439600 -23.218800 3.106150
-0.262100 -23.218800 3.230550
-0.031300 -23.218800 3.592950
-0.012700 -23.218800 4.022150
-0.086900 -23.218800 4.225750
-0.377200 -23.218800 4.542450
-0.262100 23.125095 3.230550
-0.031300 23.125095 3.592950
-0.012700 23.125095 4.022150
-0.086900 23.125095 4.225750
-0.377200 23.125095 4.542450
-0.787000 23.125095 4.671550
-1.206400 23.125095 4.578450
-1.523100 23.125095 4.288150
-1.652200 23.125095 3.878350
-1.559100 23.125095 3.458850
-1.268800 23.125095 3.142150
-0.859000 23.125095 3.013050
-0.439600 23.125095 3.106150
-23.173941 24.000000 18.326050
-23.173941 24.000000 -20.326050
-23.166931 -24.826099 3.844750
23.177000 -24.826099 3.844750
-23.166931 -24.000000 3.018650
23.177000 -24.000000 3.018650
-1.407100 23.125095 3.258250
-1.407100 -23.218800 3.258250
-1.268800 -23.218800 3.142150
-1.268800 23.125095 3.142150
-23.415888 23.415888 -20.326050
-23.415888 23.415888 18.326050
-23.415888 23.415888 18.326050
-23.415888 23.415888 -20.326050
4 0 1 2 3
4 4 5 6 7
4 8 9 10 11
14 12 13 14 15 16 17 18 19 20 21 22 23 24 25
4 26 27 28 29
4 30 31 32 33
4 34 35 36 37
4 38 39 40 41
4 42 43 44 45
4 46 47 48 49
4 50 51 52 53
4 54 55 56 57
4 58 59 60 61
4 62 63 64 65
4 66 67 68 69
4 70 71 72 73
4 74 75 76 77
4 28 27 78 79
4 80 81 82 83
4 84 85 86 87
4 88 89 90 91
4 92 93 94 95
4 96 11 10 97
12 98 99 100 101 102 103 104 105 106 107 108 109
4 110 111 112 113
4 114 115 116 117
4 118 9 8 119
4 120 121 122 123
4 124 125 126 127
4 128 129 130 131
4 132 133 61 60
13 134 135 136 137 138 139 140 141 142 143 144 145 146
4 147 148 149 150
4 151 152 153 154
4 155 156 157 158
4 159 133 132 160
4 161 162 163 164
4 165 166 167 168
4 169 170 171 172
4 173 174 175 176
4 177 178 179 180
4 181 182 183 184
12 185 186 187 188 189 190 191 192 193 194 195 196
12 197 198 199 200 201 202 203 204 205 206 207 208
14 209 210 211 212 213 214 215 216 217 218 219 220 221 222
4 166 223 224 167
4 225 226 227 228
4 229 230 231 232
13 233 234 235 236 237 238 239 240 241 242 243 244 245
12 246 247 248 249 250 251 252 253 254 255 256 257
12 258 259 260 261 262 263 264 265 266 267 268 269
4 270 271 272 273
4 274 275 276 277
4 278 279 280 281
4 282 283 284 285
4 286 287 288 289
4 290 291 112 111
4 292 293 294 295
4 296 297 298 299
4 300 301 302 303
4 304 305 306 307
4 308 309 310 311
4 312 313 314 315
4 316 317 318 319
4 320 321 322 323
4 324 325 326 327
4 328 329 330 331
4 156 332 333 157
4 334 335 336 337
4 338 339 340 341
4 339 342 343 340
4 344 345 346 347
4 180 179 348 349
4 350 282 285 351
4 317 74 77 318
4 352 353 354 355
4 182 356 357 183
4 358 359 161 164
4 360 361 362 363
15 364 365 366 367 368 369 370 371 372 373 374 375 376 377 378
4 379 380 381 382
4 383 384 385 386
4 387 359 358 388
4 389 390 391 392
4 171 170 26 29
4 393 394 395 396
12 397 398 399 400 401 402 403 404 405 406 407 408
4 409 410 411 412
4 45 44 413 414
4 415 416 417 418
4 419 420 421 422
4 423 291 290 424
4 275 274 425 426
15 427 428 429 430 431 432 433 434 435 436 437 438 439 440 441
4 297 442 443 298
4 93 31 30 94
4 444 445 446 447
4 448 449 450 451
4 51 387 388 52
12 452 453 454 455 456 457 458 459 460 461 462 463
4 464 465 466 467
4 468 469 149 148
4 470 270 273 471
4 472 54 57 473
4 474 475 476 477
13 478 479 480 481 482 483 484 485 486 487 488 489 490
4 491 492 493 494
4 495 496 322 321
4 154 153 497 498
4 499 300 303 500
4 501 502 503 504
4 310 309 337 336
4 505 506 507 508
13 509 510 511 512 513 514 515 516 517 518 519 520 521
4 125 522 523 126
4 524 525 389 392
4 526 527 528 529
4 288 287 320 323
12 530 531 532 533 534 535 536 537 538 539 540 541
4 542 543 544 545
4 546 547 1 0
4 2 316 319 3
4 503 502 548 549
12 550 551 552 553 554 555 556 557 558 559 560 561
4 562 563 159 160
4 492 564 565 493
4 329 566 567 330
4 568 569 570 571
4 572 419 422 573
4 574 526 529 575
4 566 563 562 567
4 5 576 577 6
4 58 308 311 59
4 543 578 579 544
12 580 581 582 583 584 585 586 587 588 589 590 591
4 332 592 593 333
13 594 595 596 597 598 599 600 601 602 603 604 605 606
4 607 608 609 610
4 525 524 611 612
4 613 70 73 614
4 615 360 363 616
4 283 123 122 284
4 223 617 618 224
4 349 348 121 120
4 168 350 351 165
4 71 619 620 72
4 621 622 623 624
4 579 578 625 626
12 627 628 629 630 631 632 633 634 635 636 637 638
4 622 639 640 623
14 641 642 643 644 645 646 647 648 649 650 651 652 653 654
13 655 656 657 658 659 660 661 662 663 664 665 666 667
4 668 669 670 671
4 614 621 624 613
4 672 668 671 673
4 674 675 499 500
4 676 677 83 82
4 384 231 230 385
4 677 676 670 669
4 442 678 679 443
4 162 672 673 163
4 42 680 681 43
4 619 169 172 620
4 682 683 684 685
4 576 686 687 577
4 688 689 690 691
4 78 691 690 79
4 394 423 692 395
14 693 694 695 696 697 698 699 700 701 702 703 704 705 706
12 707 708 709 710 711 712 713 714 715 716 717 718
4 719 720 721 722
4 720 719 465 464
4 80 50 53 81
4 723 724 725 726
4 626 625 727 728
4 729 730 731 732
4 682 685 65 64
4 63 62 733 734
4 735 736 737 738
4 729 732 277 276
4 739 41 40 740
4 723 741 742 724
4 743 744 745 746
4 747 748 743 746
4 730 92 95 731
4 749 750 751 752
4 686 722 721 687
4 744 338 341 745
15 753 754 755 756 757 758 759 760 761 762 763 764 765 766 767
4 527 362 361 768
4 32 572 573 33
4 177 353 352 178
4 612 611 76 75
4 294 769 770 295
4 450 771 772 451
4 773 774 449 448
4 117 116 775 776
4 37 36 278 281
4 777 778 779 780
4 771 84 87 772
4 684 683 781 782
4 131 130 35 34
4 410 129 128 411
4 115 114 783 784
4 780 779 225 228
15 785 786 787 788 789 790 791 792 793 794 795 796 797 798 799
4 800 549 548 801
4 56 55 802 803
4 804 152 151 805
4 610 609 750 749
4 301 124 127 302
4 413 409 412 414
4 505 508 382 381
4 86 85 734 733
4 523 522 806 807
4 466 542 545 467
4 808 809 737 736
4 506 675 674 507
4 775 296 299 776
13 810 811 812 813 814 815 816 817 818 819 820 821 822
4 380 379 807 806
4 679 678 470 471
13 823 824 825 826 827 828 829 830 831 832 833 834 835
4 836 304 307 837
4 773 838 839 774
4 472 473 147 150
4 728 727 4 7
4 803 802 286 289
4 840 841 280 279
4 608 607 491 494
4 769 752 751 770
4 842 843 844 845
4 292 444 447 293
4 326 325 314 313
4 48 47 845 844
4 748 747 39 38
4 343 342 778 777
4 226 739 740 227
4 334 328 331 335
4 846 418 417 847
4 305 848 849 306
4 420 426 425 421
