ply
format ascii 1.0
comment Created by Blender 2.82 (sub 7) - www.blender.org, source file: ''
element vertex 276
property float x
property float y
property float z
element face 68
property list uchar uint vertex_indices
end_header
-20.978901 -59.829849 -6.166300
-20.978901 -57.079849 -6.166300
-20.978901 -57.079849 -12.166340
-20.978901 -59.829849 -12.166340
-18.775700 57.460548 15.429100
-18.775700 60.210548 15.429100
-18.775700 60.210548 9.429100
-18.775700 57.460548 9.429100
19.982800 -55.921848 15.394200
19.982800 56.161049 15.394200
19.982800 56.161049 9.394200
19.982800 -55.921848 9.394200
-18.775700 61.272652 15.394200
-18.775700 56.272652 15.394200
-18.775700 56.272652 -17.250000
-18.775700 61.272652 -17.250000
22.732800 -55.921848 9.394200
22.732800 -55.921848 15.394200
23.521099 -55.921848 15.394200
23.521099 -55.921848 -17.250000
18.521099 -55.921848 -17.250000
18.521099 -55.921848 15.394200
19.982800 -55.921848 15.394200
19.982800 -55.921848 9.394200
-18.775700 61.272652 15.394200
-18.775700 61.272652 -17.250000
-23.775700 61.272652 -17.250000
-23.775700 61.272652 15.394200
18.521099 -57.077850 15.489000
18.521099 -59.827850 15.489000
18.521099 -59.827850 9.489000
18.521099 -57.077850 9.489000
23.801600 56.161049 15.394200
18.801600 56.161049 15.394200
18.801600 61.161049 15.394200
23.801600 61.161049 15.394200
-24.750000 -62.374851 17.250000
-24.750000 62.374851 17.250000
-24.750000 62.374851 15.394200
-24.750000 -62.374851 15.394200
18.801600 56.161049 15.394200
18.801600 56.161049 -17.250000
23.801600 56.161049 -17.250000
23.801600 56.161049 15.394200
22.732800 56.161049 15.394200
22.732800 56.161049 9.394200
19.982800 56.161049 9.394200
19.982800 56.161049 15.394200
-18.367201 -61.002850 -17.250000
-18.367201 -61.002850 15.394200
-23.367201 -61.002850 15.394200
-23.367201 -61.002850 -17.250000
22.732800 -55.921848 15.394200
19.982800 -55.921848 15.394200
19.982800 56.161049 15.394200
22.732800 56.161049 15.394200
18.801600 57.201752 -12.134760
-19.698400 57.201752 -12.134760
-19.698400 59.951752 -12.134760
18.801600 59.951752 -12.134760
18.521099 -60.921848 15.394200
18.521099 -55.921848 15.394200
18.521099 -55.921848 -17.250000
18.521099 -59.829849 -12.166340
18.521099 -57.079849 -12.166340
18.521099 -57.079849 -6.166300
18.521099 -59.829849 -6.166300
21.224300 57.460548 9.429100
21.224300 57.460548 15.429100
-18.775700 57.460548 15.429100
-18.775700 57.460548 9.429100
23.521099 -55.921848 15.394200
22.732800 -55.921848 15.394200
22.732800 56.161049 15.394200
23.801600 56.161049 15.394200
23.801600 61.161049 15.394200
24.750000 62.374851 15.394200
24.750000 -62.374851 15.394200
-24.750000 -62.374851 15.394200
-23.367201 -61.002850 15.394200
-18.367201 -61.002850 15.394200
-18.367201 -56.002850 15.394200
-23.367201 -56.002850 15.394200
18.521099 -55.921848 15.394200
18.521099 -60.921848 15.394200
23.521099 -60.921848 15.394200
0.457700 -57.297852 -12.134760
-2.292300 -57.297852 -12.134760
-2.292300 57.201752 -12.134760
0.457700 57.201752 -12.134760
-23.367201 -61.002850 15.394200
-23.367201 -56.002850 15.394200
-23.367201 -56.002850 -17.250000
-23.367201 -61.002850 -17.250000
-20.228901 -59.827850 15.489000
-20.228901 -57.077850 15.489000
-20.228901 -57.077850 9.489000
-20.228901 -59.827850 9.489000
-20.978901 -59.829849 -6.166300
18.521099 -59.829849 -6.166300
18.521099 -57.079849 -6.166300
-20.978901 -57.079849 -6.166300
-19.698400 57.201752 -6.134800
-19.698400 57.201752 -12.134760
18.801600 57.201752 -12.134760
18.801600 57.201752 -6.134800
18.521099 -59.829849 -12.166340
-20.978901 -59.829849 -12.166340
-20.978901 -57.079849 -12.166340
18.521099 -57.079849 -12.166340
18.521099 -59.829849 -12.166340
18.521099 -59.829849 -6.166300
-20.978901 -59.829849 -6.166300
-20.978901 -59.829849 -12.166340
-18.367201 -56.002850 15.394200
-18.367201 -56.002850 -17.250000
-23.367201 -56.002850 -17.250000
-23.367201 -56.002850 15.394200
-22.637400 -57.476849 15.423800
-19.887400 -57.476849 15.423800
-19.887400 56.272652 15.423800
-22.637400 56.272652 15.423800
21.224300 60.210548 15.429100
21.224300 57.460548 15.429100
21.224300 57.460548 9.429100
21.224300 60.210548 9.429100
0.457700 -57.297852 -12.134760
0.457700 -57.297852 -6.134800
-2.292300 -57.297852 -6.134800
-2.292300 -57.297852 -12.134760
-2.292300 -57.297852 -6.134800
-2.292300 57.201752 -6.134800
-2.292300 57.201752 -12.134760
-2.292300 -57.297852 -12.134760
24.750000 62.374851 17.250000
24.750000 -62.374851 17.250000
24.750000 -62.374851 15.394200
24.750000 62.374851 15.394200
-19.887400 56.272652 15.423800
-19.887400 -57.476849 15.423800
-19.887400 -57.476849 9.423800
-19.887400 56.272652 9.423800
18.521099 -57.077850 15.489000
18.521099 -57.077850 9.489000
-20.228901 -57.077850 9.489000
-20.228901 -57.077850 15.489000
22.732800 56.161049 15.394200
22.732800 -55.921848 15.394200
22.732800 -55.921848 9.394200
22.732800 56.161049 9.394200
-18.367201 -56.002850 15.394200
-18.367201 -61.002850 15.394200
-18.367201 -61.002850 -17.250000
-18.367201 -56.002850 -17.250000
18.801600 61.161049 15.394200
18.801600 59.951752 -6.134800
18.801600 57.201752 -6.134800
18.801600 57.201752 -12.134760
18.801600 56.161049 -17.250000
18.801600 56.161049 15.394200
18.521099 -59.827850 9.489000
-20.228901 -59.827850 9.489000
-20.228901 -57.077850 9.489000
18.521099 -57.077850 9.489000
18.521099 -60.921848 -17.250000
23.521099 -55.921848 15.394200
23.521099 -60.921848 15.394200
23.521099 -60.921848 -17.250000
23.521099 -55.921848 -17.250000
23.801600 61.161049 15.394200
23.801600 56.161049 15.394200
23.801600 56.161049 -17.250000
23.801600 61.161049 -17.250000
23.801600 61.161049 15.394200
23.801600 61.161049 -17.250000
18.801600 61.161049 -17.250000
18.801600 61.161049 15.394200
18.521099 -57.079849 -6.166300
18.521099 -57.079849 -12.166340
-20.978901 -57.079849 -12.166340
-20.978901 -57.079849 -6.166300
21.224300 57.460548 9.429100
-18.775700 57.460548 9.429100
-18.775700 60.210548 9.429100
21.224300 60.210548 9.429100
18.521099 -59.827850 9.489000
18.521099 -59.827850 15.489000
-20.228901 -59.827850 15.489000
-20.228901 -59.827850 9.489000
-2.292300 -57.297852 -6.134800
0.457700 -57.297852 -6.134800
0.457700 57.201752 -6.134800
-2.292300 57.201752 -6.134800
-20.228901 -59.827850 15.489000
18.521099 -59.827850 15.489000
18.521099 -57.077850 15.489000
-20.228901 -57.077850 15.489000
18.801600 59.951752 -6.134800
18.801600 59.951752 -12.134760
-19.698400 59.951752 -12.134760
-19.698400 59.951752 -6.134800
-19.698400 57.201752 -6.134800
18.801600 57.201752 -6.134800
18.801600 59.951752 -6.134800
-19.698400 59.951752 -6.134800
-18.775700 56.272652 -17.250000
-18.775700 56.272652 15.394200
-23.775700 56.272652 15.394200
-23.775700 56.272652 -17.250000
-23.775700 56.272652 15.394200
-23.775700 61.272652 15.394200
-23.775700 61.272652 -17.250000
-23.775700 56.272652 -17.250000
-19.698400 57.201752 -6.134800
-19.698400 59.951752 -6.134800
-19.698400 59.951752 -12.134760
-19.698400 57.201752 -12.134760
-19.887400 -57.476849 9.423800
-22.637400 -57.476849 9.423800
-22.637400 56.272652 9.423800
-19.887400 56.272652 9.423800
23.521099 -60.921848 -17.250000
23.521099 -60.921848 15.394200
18.521099 -60.921848 15.394200
18.521099 -60.921848 -17.250000
18.801600 61.161049 15.394200
18.801600 56.161049 15.394200
-18.775700 56.272652 15.394200
-18.775700 61.272652 15.394200
-19.887400 56.272652 15.423800
-19.887400 56.272652 9.423800
-22.637400 56.272652 9.423800
-22.637400 56.272652 15.423800
0.457700 57.201752 -6.134800
0.457700 -57.297852 -6.134800
0.457700 -57.297852 -12.134760
0.457700 57.201752 -12.134760
22.732800 -55.921848 9.394200
19.982800 -55.921848 9.394200
19.982800 56.161049 9.394200
22.732800 56.161049 9.394200
-19.887400 -57.476849 9.423800
-19.887400 -57.476849 15.423800
-22.637400 -57.476849 15.423800
-22.637400 -57.476849 9.423800
19.982800 56.161049 15.394200
19.982800 -55.921848 15.394200
-24.750000 62.374851 15.394200
-23.775700 61.272652 15.394200
-23.775700 56.272652 15.394200
18.801600 59.951752 -12.134760
18.801600 61.161049 -17.250000
-22.637400 -57.476849 15.423800
-22.637400 56.272652 15.423800
-22.637400 56.272652 9.423800
-22.637400 -57.476849 9.423800
24.750000 62.374851 17.250000
24.750000 62.374851 15.394200
-24.750000 62.374851 15.394200
-24.750000 62.374851 17.250000
21.224300 60.210548 15.429100
21.224300 60.210548 9.429100
-18.775700 60.210548 9.429100
-18.775700 60.210548 15.429100
-24.750000 -62.374851 17.250000
24.750000 -62.374851 17.250000
24.750000 62.374851 17.250000
-24.750000 62.374851 17.250000
-18.775700 57.460548 15.429100
21.224300 57.460548 15.429100
21.224300 60.210548 15.429100
-18.775700 60.210548 15.429100
24.750000 -62.374851 15.394200
24.750000 -62.374851 17.250000
-24.750000 -62.374851 17.250000
-24.750000 -62.374851 15.394200
4 0 1 2 3
4 4 5 6 7
4 8 9 10 11
4 12 13 14 15
8 16 17 18 19 20 21 22 23
4 24 25 26 27
4 28 29 30 31
4 32 33 34 35
4 36 37 38 39
8 40 41 42 43 44 45 46 47
4 48 49 50 51
4 52 53 54 55
4 56 57 58 59
7 60 61 62 63 64 65 66
4 67 68 69 70
15 71 72 73 74 75 76 77 78 79 80 81 82 83 84 85
4 86 87 88 89
4 90 91 92 93
4 94 95 96 97
4 98 99 100 101
4 102 103 104 105
4 106 107 108 109
4 110 111 112 113
4 114 115 116 117
4 118 119 120 121
4 122 123 124 125
3 33 32 55
3 33 55 54
4 126 127 128 129
4 130 131 132 133
4 134 135 136 137
4 138 139 140 141
4 142 143 144 145
4 146 147 148 149
4 150 151 152 153
6 154 155 156 157 158 159
4 160 161 162 163
5 60 66 63 62 164
4 165 166 167 168
4 169 170 171 172
4 173 174 175 176
4 177 178 179 180
4 181 182 183 184
4 185 186 187 188
4 189 190 191 192
4 193 194 195 196
4 197 198 199 200
4 201 202 203 204
3 57 56 89
3 57 89 88
4 205 206 207 208
4 209 210 211 212
4 213 214 215 216
4 217 218 219 220
4 221 222 223 224
4 225 226 227 228
4 229 230 231 232
4 233 234 235 236
4 237 238 239 240
4 241 242 243 244
15 226 245 246 83 82 79 78 247 76 75 225 228 248 249 227
6 157 250 155 154 251 158
4 252 253 254 255
4 256 257 258 259
4 260 261 262 263
4 264 265 266 267
4 268 269 270 271
4 272 273 274 275
