ply
format ascii 1.0
comment Created by Blender 2.82 (sub 7) - www.blender.org, source file: ''
element vertex 428
property float x
property float y
property float z
element face 97
property list uchar uint vertex_indices
end_header
4.875000 -10.500000 7.500000
4.875000 -9.250000 7.500000
4.875000 -9.250000 -10.000000
4.875000 -11.000000 -10.000000
-9.000000 13.500000 10.000000
-9.000000 -13.500000 10.000000
9.000000 -13.500000 10.000000
9.000000 13.500000 10.000000
-5.562500 9.125000 -2.000000
-5.562500 9.125000 -1.375000
-4.812500 9.125000 -1.375000
-4.812500 9.125000 -2.000000
9.000000 -13.500000 9.750000
-9.000000 -13.500000 9.750000
-8.500000 -13.000000 9.250000
8.500000 -13.000000 9.250000
-9.000000 13.500000 9.750000
9.000000 13.500000 9.750000
8.500000 13.000000 9.250000
-8.500000 13.000000 9.250000
-4.875000 -10.681100 -2.000000
-4.875000 -10.681100 -2.750000
4.875000 -10.681100 -2.750000
4.875000 -10.681100 -2.000000
4.875000 12.500000 8.250000
6.125000 12.500000 8.250000
6.125000 12.500000 8.000000
4.875000 12.500000 8.000000
6.625000 -11.000000 -10.000000
6.125000 -10.500000 7.500000
4.875000 -10.500000 7.500000
4.875000 -11.000000 -10.000000
4.875000 12.000000 7.500000
4.875000 -12.000000 7.500000
4.875000 -12.500000 8.000000
4.875000 -12.500000 8.250000
4.875000 12.500000 8.250000
4.875000 12.500000 8.000000
-9.000000 -13.500000 9.750000
-9.000000 13.500000 9.750000
9.000000 13.500000 9.750000
9.000000 -13.500000 9.750000
-6.125000 12.500000 8.250000
-6.125000 -12.500000 8.250000
-4.875000 -12.500000 8.250000
-4.875000 12.500000 8.250000
-4.875000 -12.500000 8.250000
-6.125000 -12.500000 8.250000
-6.125000 -12.500000 8.000000
-4.875000 -12.500000 8.000000
4.875000 12.500000 8.000000
6.125000 12.500000 8.000000
6.125000 12.000000 7.500000
4.875000 12.000000 7.500000
4.687500 11.250000 -1.375000
-4.812500 11.250000 -1.375000
-4.812500 9.125000 -1.375000
4.687500 9.125000 -1.375000
4.875000 -10.500000 7.500000
6.125000 -10.500000 7.500000
6.125000 -9.250000 7.500000
4.875000 -9.250000 7.500000
6.125000 -9.250000 7.500000
6.125000 -10.500000 7.500000
6.625000 -11.000000 -10.000000
6.625000 -9.250000 -10.000000
-9.000000 -13.500000 9.750000
-9.000000 -13.500000 10.000000
-9.000000 13.500000 10.000000
-9.000000 13.500000 9.750000
6.125000 9.250000 7.500000
6.125000 10.500000 7.500000
4.875000 10.500000 7.500000
4.875000 9.250000 7.500000
-4.875000 10.500000 7.500000
-6.125000 10.500000 7.500000
-6.125000 9.250000 7.500000
-4.875000 9.250000 7.500000
8.125000 -9.250000 9.250000
8.125000 -10.500000 9.250000
8.125000 -10.500000 8.750000
8.125000 -9.250000 8.750000
6.125000 10.500000 8.250000
4.875000 10.500000 8.250000
4.875000 10.500000 7.500000
-4.875000 10.500000 7.500000
-4.875000 10.500000 8.250000
-6.125000 10.500000 8.250000
-6.125000 10.500000 7.500000
-6.875000 10.500000 7.500000
-8.125000 10.500000 8.750000
-8.125000 10.500000 9.250000
8.125000 10.500000 9.250000
8.125000 10.500000 8.750000
6.875000 10.500000 7.500000
6.125000 10.500000 7.500000
-6.125000 -9.250000 7.500000
-6.125000 -10.500000 7.500000
-4.875000 -10.500000 7.500000
-4.875000 -9.250000 7.500000
-4.812500 10.629813 -2.750000
-4.812500 10.629813 -2.000000
4.937500 10.629813 -2.000000
4.937500 10.629813 -2.750000
-4.812500 -11.250000 -1.375000
-4.812500 -9.125000 -1.375000
-4.812500 -9.125000 -2.000000
-4.812500 -11.250000 -2.000000
-6.125000 -12.500000 8.250000
-6.125000 12.500000 8.250000
-6.125000 12.500000 8.000000
-6.125000 12.000000 7.500000
-6.125000 -12.000000 7.500000
-6.125000 -12.500000 8.000000
4.937500 10.629813 -2.000000
-4.812500 10.629813 -2.000000
-4.812500 9.379810 -2.000000
4.937500 9.379810 -2.000000
-9.000000 13.500000 10.000000
9.000000 13.500000 10.000000
9.000000 13.500000 9.750000
-9.000000 13.500000 9.750000
-4.875000 -10.500000 7.500000
-6.125000 -10.500000 7.500000
-6.625000 -11.000000 -10.000000
-4.875000 -11.000000 -10.000000
-8.125000 9.250000 9.250000
-8.125000 10.500000 9.250000
-8.125000 10.500000 8.750000
-8.125000 9.250000 8.750000
4.875000 -9.431100 -2.000000
-4.875000 -9.431100 -2.000000
-4.875000 -10.681100 -2.000000
4.875000 -10.681100 -2.000000
-8.125000 9.250000 8.750000
-8.125000 10.500000 8.750000
-6.875000 10.500000 7.500000
-6.875000 9.250000 7.500000
-6.625000 -11.000000 -10.000000
-6.625000 -9.250000 -10.000000
-4.875000 -9.250000 -10.000000
-4.875000 -11.000000 -10.000000
-4.812500 11.250000 -2.000000
-4.812500 11.250000 -1.375000
4.687500 11.250000 -1.375000
4.687500 11.250000 -2.000000
9.000000 -13.500000 10.000000
-9.000000 -13.500000 10.000000
-9.000000 -13.500000 9.750000
9.000000 -13.500000 9.750000
4.687500 -9.125000 -2.000000
4.687500 -11.250000 -2.000000
-4.812500 -11.250000 -2.000000
-4.812500 -9.125000 -2.000000
-5.562500 -9.125000 -2.000000
-5.562500 9.125000 -2.000000
5.437500 9.125000 -2.000000
5.437500 -9.125000 -2.000000
6.125000 -12.000000 7.500000
6.125000 12.000000 7.500000
6.125000 12.500000 8.000000
6.125000 12.500000 8.250000
6.125000 -12.500000 8.250000
6.125000 -12.500000 8.000000
-4.812500 9.125000 -2.000000
4.687500 9.125000 -2.000000
-4.875000 -10.500000 7.500000
-4.875000 -9.250000 7.500000
4.875000 -9.250000 7.500000
4.875000 -10.500000 7.500000
4.687500 -9.125000 -1.375000
4.687500 -9.125000 -2.000000
5.437500 -9.125000 -2.000000
5.437500 -9.125000 -1.375000
-4.812500 -9.125000 -1.375000
-4.812500 -11.250000 -1.375000
4.687500 -11.250000 -1.375000
4.687500 -9.125000 -1.375000
5.437500 -9.125000 -1.375000
5.437500 9.125000 -1.375000
-5.562500 9.125000 -1.375000
-5.562500 -9.125000 -1.375000
6.125000 -9.250000 7.500000
6.625000 -9.250000 -10.000000
4.875000 -9.250000 -10.000000
4.875000 -9.250000 7.500000
4.875000 10.500000 7.500000
6.125000 10.500000 7.500000
6.625000 11.000000 -10.000000
4.875000 11.000000 -10.000000
-8.500000 -13.000000 9.250000
-8.500000 13.000000 9.250000
8.500000 13.000000 9.250000
8.500000 -13.000000 9.250000
-4.875000 10.500000 7.500000
-4.875000 9.250000 7.500000
-4.875000 9.250000 -10.000000
-4.875000 11.000000 -10.000000
-6.125000 9.250000 7.500000
-6.125000 10.500000 7.500000
-6.625000 11.000000 -10.000000
-6.625000 9.250000 -10.000000
-6.625000 11.000000 -10.000000
-6.125000 10.500000 7.500000
-4.875000 10.500000 7.500000
-4.875000 11.000000 -10.000000
-4.875000 9.250000 7.500000
-4.875000 10.500000 7.500000
4.875000 10.500000 7.500000
4.875000 9.250000 7.500000
4.875000 12.500000 8.250000
4.875000 -12.500000 8.250000
6.125000 -12.500000 8.250000
6.125000 12.500000 8.250000
-4.812500 10.629813 -2.750000
4.937500 10.629813 -2.750000
4.937500 9.379810 -2.750000
-4.812500 9.379810 -2.750000
-4.812500 -11.250000 -1.375000
-4.812500 -11.250000 -2.000000
4.687500 -11.250000 -2.000000
4.687500 -11.250000 -1.375000
6.125000 -12.500000 8.250000
4.875000 -12.500000 8.250000
4.875000 -12.500000 8.000000
6.125000 -12.500000 8.000000
4.875000 -12.000000 7.500000
4.875000 12.000000 7.500000
6.125000 12.000000 7.500000
6.125000 -12.000000 7.500000
6.125000 -9.250000 8.250000
4.875000 -9.250000 8.250000
4.875000 -9.250000 7.500000
-4.875000 -9.250000 7.500000
-4.875000 -9.250000 8.250000
-6.125000 -9.250000 8.250000
-6.125000 -9.250000 7.500000
-6.875000 -9.250000 7.500000
-8.125000 -9.250000 8.750000
-8.125000 -9.250000 9.250000
8.125000 -9.250000 9.250000
8.125000 -9.250000 8.750000
6.875000 -9.250000 7.500000
6.125000 -9.250000 7.500000
-6.875000 10.500000 7.500000
-6.125000 10.500000 7.500000
-6.125000 9.250000 7.500000
-6.875000 9.250000 7.500000
-6.125000 -9.250000 7.500000
-4.875000 -9.250000 7.500000
-4.875000 -9.250000 -10.000000
-6.625000 -9.250000 -10.000000
-8.125000 -10.500000 9.250000
-8.125000 -9.250000 9.250000
-8.125000 -9.250000 8.750000
-8.125000 -10.500000 8.750000
-8.125000 -10.500000 8.750000
-8.125000 -9.250000 8.750000
-6.875000 -9.250000 7.500000
-6.875000 -10.500000 7.500000
8.125000 10.500000 8.750000
8.125000 9.250000 8.750000
6.875000 9.250000 7.500000
6.875000 10.500000 7.500000
8.125000 10.500000 9.250000
8.125000 9.250000 9.250000
8.125000 9.250000 8.750000
8.125000 10.500000 8.750000
6.125000 9.250000 7.500000
6.125000 10.500000 7.500000
6.875000 10.500000 7.500000
6.875000 9.250000 7.500000
-4.875000 -9.431100 -2.750000
4.875000 -9.431100 -2.750000
4.875000 -10.681100 -2.750000
-4.875000 -10.681100 -2.750000
-4.875000 -9.431100 -2.750000
-4.875000 -9.431100 -2.000000
4.875000 -9.431100 -2.000000
4.875000 -9.431100 -2.750000
-4.812500 11.250000 -2.000000
4.687500 11.250000 -2.000000
-6.625000 -11.000000 -10.000000
-6.125000 -10.500000 7.500000
-6.125000 -9.250000 7.500000
-6.625000 -9.250000 -10.000000
6.125000 -10.500000 7.500000
6.875000 -10.500000 7.500000
8.125000 -10.500000 8.750000
8.125000 -10.500000 9.250000
-8.125000 -10.500000 9.250000
-8.125000 -10.500000 8.750000
-6.875000 -10.500000 7.500000
-6.125000 -10.500000 7.500000
-6.125000 -10.500000 8.250000
-4.875000 -10.500000 8.250000
-4.875000 -10.500000 7.500000
4.875000 -10.500000 7.500000
4.875000 -10.500000 8.250000
6.125000 -10.500000 8.250000
6.625000 -11.000000 -10.000000
4.875000 -11.000000 -10.000000
4.875000 -9.250000 -10.000000
6.625000 -9.250000 -10.000000
9.000000 -13.500000 10.000000
9.000000 -13.500000 9.750000
9.000000 13.500000 9.750000
9.000000 13.500000 10.000000
4.687500 11.250000 -1.375000
4.687500 9.125000 -1.375000
4.687500 9.125000 -2.000000
4.687500 11.250000 -2.000000
4.687500 -9.125000 -1.375000
4.687500 -11.250000 -1.375000
4.687500 -11.250000 -2.000000
4.687500 -9.125000 -2.000000
-4.812500 9.125000 -1.375000
-4.812500 11.250000 -1.375000
-4.812500 11.250000 -2.000000
-4.812500 9.125000 -2.000000
6.125000 -12.500000 8.000000
4.875000 -12.500000 8.000000
4.875000 -12.000000 7.500000
6.125000 -12.000000 7.500000
-6.625000 11.000000 -10.000000
-4.875000 11.000000 -10.000000
-4.875000 9.250000 -10.000000
-6.625000 9.250000 -10.000000
9.000000 -13.500000 9.750000
8.500000 -13.000000 9.250000
8.500000 13.000000 9.250000
9.000000 13.500000 9.750000
6.125000 -10.500000 7.500000
6.125000 -9.250000 7.500000
6.875000 -9.250000 7.500000
6.875000 -10.500000 7.500000
-6.875000 -9.250000 7.500000
-6.125000 -9.250000 7.500000
-6.125000 -10.500000 7.500000
-6.875000 -10.500000 7.500000
4.875000 10.500000 7.500000
4.875000 11.000000 -10.000000
4.875000 9.250000 -10.000000
4.875000 9.250000 7.500000
6.125000 9.250000 7.500000
4.875000 9.250000 7.500000
4.875000 9.250000 -10.000000
6.625000 9.250000 -10.000000
4.687500 9.125000 -2.000000
4.687500 9.125000 -1.375000
5.437500 9.125000 -1.375000
5.437500 9.125000 -2.000000
-8.125000 9.250000 9.250000
-8.125000 9.250000 8.750000
-6.875000 9.250000 7.500000
-6.125000 9.250000 7.500000
-6.125000 9.250000 8.250000
-4.875000 9.250000 8.250000
-4.875000 9.250000 7.500000
4.875000 9.250000 7.500000
4.875000 9.250000 8.250000
6.125000 9.250000 8.250000
6.125000 9.250000 7.500000
6.875000 9.250000 7.500000
8.125000 9.250000 8.750000
8.125000 9.250000 9.250000
-6.125000 9.250000 7.500000
-6.625000 9.250000 -10.000000
-4.875000 9.250000 -10.000000
-4.875000 9.250000 7.500000
-5.562500 -9.125000 -1.375000
-5.562500 9.125000 -1.375000
-5.562500 9.125000 -2.000000
-5.562500 -9.125000 -2.000000
-4.875000 -10.500000 7.500000
-4.875000 -11.000000 -10.000000
-4.875000 -9.250000 -10.000000
-4.875000 -9.250000 7.500000
6.625000 11.000000 -10.000000
6.625000 9.250000 -10.000000
4.875000 9.250000 -10.000000
4.875000 11.000000 -10.000000
5.437500 9.125000 -1.375000
5.437500 -9.125000 -1.375000
5.437500 -9.125000 -2.000000
5.437500 9.125000 -2.000000
6.625000 11.000000 -10.000000
6.125000 10.500000 7.500000
6.125000 9.250000 7.500000
6.625000 9.250000 -10.000000
-8.500000 13.000000 9.250000
-8.500000 -13.000000 9.250000
-9.000000 -13.500000 9.750000
-9.000000 13.500000 9.750000
-6.125000 12.500000 8.250000
-4.875000 12.500000 8.250000
-4.875000 12.500000 8.000000
-6.125000 12.500000 8.000000
-4.875000 -12.000000 7.500000
-4.875000 12.000000 7.500000
-4.875000 12.500000 8.000000
-4.875000 12.500000 8.250000
-4.875000 -12.500000 8.250000
-4.875000 -12.500000 8.000000
8.125000 -9.250000 8.750000
8.125000 -10.500000 8.750000
6.875000 -10.500000 7.500000
6.875000 -9.250000 7.500000
-5.562500 -9.125000 -1.375000
-5.562500 -9.125000 -2.000000
-4.812500 -9.125000 -2.000000
-4.812500 -9.125000 -1.375000
-6.125000 12.500000 8.000000
-4.875000 12.500000 8.000000
-4.875000 12.000000 7.500000
-6.125000 12.000000 7.500000
-4.812500 9.379810 -2.000000
-4.812500 9.379810 -2.750000
4.937500 9.379810 -2.750000
4.937500 9.379810 -2.000000
-6.125000 -12.000000 7.500000
-6.125000 12.000000 7.500000
-4.875000 12.000000 7.500000
-4.875000 -12.000000 7.500000
-4.875000 -12.500000 8.000000
-6.125000 -12.500000 8.000000
-6.125000 -12.000000 7.500000
-4.875000 -12.000000 7.500000
4 0 1 2 3
4 4 5 6 7
4 8 9 10 11
4 12 13 14 15
4 16 17 18 19
4 20 21 22 23
4 24 25 26 27
4 28 29 30 31
6 32 33 34 35 36 37
4 38 39 40 41
4 42 43 44 45
4 46 47 48 49
4 50 51 52 53
4 54 55 56 57
4 58 59 60 61
4 62 63 64 65
4 66 67 68 69
4 70 71 72 73
4 74 75 76 77
4 78 79 80 81
14 82 83 84 85 86 87 88 89 90 91 92 93 94 95
4 96 97 98 99
4 100 101 102 103
4 104 105 106 107
6 108 109 110 111 112 113
4 114 115 116 117
4 118 119 120 121
4 122 123 124 125
4 126 127 128 129
4 130 131 132 133
4 134 135 136 137
4 138 139 140 141
4 142 143 144 145
4 146 147 148 149
8 150 151 152 153 154 155 156 157
6 158 159 160 161 162 163
3 156 155 164
3 156 164 165
4 166 167 168 169
4 170 171 172 173
8 174 175 176 177 178 179 180 181
4 182 183 184 185
3 180 179 57
3 180 57 56
4 186 187 188 189
4 190 191 192 193
4 194 195 196 197
4 198 199 200 201
4 202 203 204 205
4 206 207 208 209
4 210 211 212 213
4 214 215 216 217
4 218 219 220 221
4 222 223 224 225
4 226 227 228 229
14 230 231 232 233 234 235 236 237 238 239 240 241 242 243
4 244 245 246 247
4 248 249 250 251
4 252 253 254 255
4 256 257 258 259
4 260 261 262 263
4 264 265 266 267
4 268 269 270 271
4 272 273 274 275
4 276 277 278 279
4 280 281 165 164
4 282 283 284 285
14 286 287 288 289 290 291 292 293 294 295 296 297 298 299
4 300 301 302 303
4 304 305 306 307
4 308 309 310 311
4 312 313 314 315
4 316 317 318 319
4 320 321 322 323
4 324 325 326 327
4 328 329 330 331
4 332 333 334 335
4 336 337 338 339
4 340 341 342 343
4 344 345 346 347
4 348 349 350 351
14 352 353 354 355 356 357 358 359 360 361 362 363 364 365
4 366 367 368 369
4 370 371 372 373
4 374 375 376 377
4 378 379 380 381
4 382 383 384 385
4 386 387 388 389
4 390 391 392 393
4 394 395 396 397
6 398 399 400 401 402 403
4 404 405 406 407
4 408 409 410 411
4 412 413 414 415
4 416 417 418 419
4 420 421 422 423
4 424 425 426 427
