ply
format ascii 1.0
comment Created by Blender 2.82 (sub 7) - www.blender.org, source file: ''
element vertex 822
property float x
property float y
property float z
element face 202
property list uchar uint vertex_indices
end_header
17.440966 2.952780 6.141700
17.440966 2.952780 2.638300
17.440966 2.952780 3.268200
17.440966 2.952780 5.511800
-16.181124 26.960251 6.141700
-16.181124 28.220051 6.141700
16.181065 28.220051 6.141700
16.181065 26.960251 6.141700
16.181065 28.220051 2.638300
16.181065 26.960251 2.638300
-16.181124 26.960251 2.638300
-16.181124 28.220051 2.638300
-16.181124 28.220051 2.638300
16.181065 28.220051 2.638300
16.181065 28.220051 1.771330
-16.181124 28.220051 1.771330
-17.440964 -2.952750 3.268200
-16.181124 -2.952750 3.268200
-16.181124 -2.952750 5.511800
-17.440964 -2.952750 5.511800
17.440966 26.960251 2.638300
16.181065 26.960251 2.638300
16.181065 -26.960150 2.638300
17.440966 -26.960150 2.638300
-16.181124 -28.220051 1.771330
-16.181124 -26.960150 1.771330
16.181065 -26.960150 1.771330
16.181065 -28.220051 1.771330
17.440966 2.952780 5.511800
17.440966 2.952780 3.268200
17.440966 2.952780 6.141700
17.440966 2.952780 2.638300
16.181065 2.341450 2.638300
16.181065 3.700810 2.638300
17.440966 3.700810 2.638300
17.440966 2.341450 2.638300
-17.440964 -2.321680 6.141700
-17.440964 2.319670 6.141700
-16.181124 2.319670 6.141700
-16.181124 -2.321680 6.141700
-16.181124 0.951690 4.391000
-16.181124 2.952780 5.511800
-17.440964 2.952780 5.511800
-17.440964 0.951690 4.391000
16.181065 -28.220051 6.141700
16.181065 -26.960150 6.141700
-16.181124 -26.960150 6.141700
-16.181124 -28.220051 6.141700
16.181065 2.952780 6.141700
16.181065 2.952780 2.638300
16.181065 2.952780 3.268200
16.181065 2.952780 5.511800
-16.181124 -26.960150 1.771330
-16.181124 26.960251 1.771330
-17.440964 26.960251 1.771330
-17.440964 -26.960150 1.771330
-16.181124 26.960251 6.141700
-17.440964 26.960251 6.141700
-17.440964 26.960251 -7.480300
-16.181124 26.960251 -7.480300
16.181065 26.960251 2.638300
16.181065 26.960251 1.771330
16.181065 28.220051 1.771330
16.181065 28.220051 2.638300
-16.181124 -3.712750 2.638300
-17.440964 -3.712750 2.638300
-17.440964 -2.318100 2.638300
-16.181124 -2.318100 2.638300
-16.181124 2.952780 2.638300
-16.181124 2.952780 3.268200
-16.181124 0.951690 4.391000
-16.181124 2.952780 5.511800
-16.181124 2.952780 6.141700
-16.181124 2.319670 6.141700
-16.181124 0.000020 4.842500
-16.181124 -2.321680 6.141700
-16.181124 -2.952750 5.511800
-16.181124 -0.960780 4.397100
-16.181124 -2.952750 3.268200
-16.181124 -2.952750 2.638300
-16.181124 -2.318100 2.638300
-16.181124 0.000020 3.952100
-16.181124 2.341450 2.638300
-17.440964 -26.960150 -7.480300
-17.440964 -26.960150 6.141700
-16.181124 -26.960150 6.141700
-16.181124 -26.960150 -7.480300
16.181065 2.952780 5.511800
16.181065 2.952780 3.268200
16.181065 2.952780 6.141700
16.181065 2.952780 2.638300
16.181065 2.319670 6.141700
16.181065 3.700810 6.141700
17.440966 3.700810 6.141700
17.440966 2.319670 6.141700
16.181065 2.952780 3.268200
16.181065 0.951690 4.391000
17.440966 0.951690 4.391000
17.440966 2.952780 3.268200
17.440966 2.952780 3.268200
17.440966 0.951690 4.391000
16.181065 0.951690 4.391000
16.181065 2.952780 3.268200
17.440966 2.319670 6.141700
17.440966 3.700810 6.141700
16.181065 3.700810 6.141700
16.181065 2.319670 6.141700
17.440966 3.700810 2.638300
17.440966 26.960251 2.638300
17.440966 26.960251 1.771330
17.440966 -26.960150 1.771330
17.440966 -26.960150 2.638300
17.440966 -3.712750 2.638300
17.440966 -3.712750 6.141700
17.440966 -2.321680 6.141700
17.440966 -2.952750 5.511800
17.440966 -2.952750 3.268200
17.440966 -0.960780 4.397100
17.440966 0.000020 4.842500
17.440966 0.000020 3.952100
17.440966 -2.318100 2.638300
17.440966 2.341450 2.638300
17.440966 0.951690 4.391000
17.440966 3.700810 6.141700
17.440966 28.220051 6.574800
17.835365 28.614450 6.574800
-17.835365 28.614450 6.574800
-17.835365 -28.614450 6.574800
17.440966 -28.220051 6.574800
-17.440964 -28.220051 6.574800
-17.440964 28.220051 6.574800
17.440966 -26.960150 6.141700
17.440966 -26.960150 -7.480300
17.440966 -28.220051 -7.480300
17.440966 -28.220051 6.574800
17.440966 28.220051 6.574800
17.440966 28.220051 -7.480300
17.440966 26.960251 -7.480300
17.440966 26.960251 6.141700
16.181065 0.951690 4.391000
16.181065 2.952780 5.511800
17.440966 2.952780 5.511800
17.440966 0.951690 4.391000
-16.181124 28.220051 1.771330
-16.181124 28.220051 2.638300
-16.181124 26.960251 2.638300
-16.181124 26.960251 1.771330
-16.181124 -28.220051 1.771330
-16.181124 -28.220051 2.638300
-16.181124 -26.960150 2.638300
-16.181124 -26.960150 1.771330
-16.181124 -0.960780 4.397100
-17.440964 -0.960780 4.397100
-17.440964 -2.952750 3.268200
-16.181124 -2.952750 3.268200
-16.181124 28.220051 -7.480300
-16.181124 26.960251 -7.480300
-16.181124 26.960251 6.141700
-16.181124 28.220051 6.141700
17.440966 -2.318100 2.638300
17.440966 0.000020 3.952100
16.181065 0.000020 3.952100
16.181065 -2.318100 2.638300
16.181065 0.000020 3.952100
16.181065 2.341450 2.638300
17.440966 2.341450 2.638300
17.440966 0.000020 3.952100
-16.181124 0.000020 4.842500
-16.181124 -2.321680 6.141700
-17.440964 -2.321680 6.141700
-17.440964 0.000020 4.842500
16.181065 -2.318100 2.638300
16.181065 0.000020 3.952100
17.440966 0.000020 3.952100
17.440966 -2.318100 2.638300
16.181065 -3.712750 2.638300
16.181065 -2.318100 2.638300
17.440966 -2.318100 2.638300
17.440966 -3.712750 2.638300
17.440966 -3.712750 2.638300
17.440966 -2.318100 2.638300
16.181065 -2.318100 2.638300
16.181065 -3.712750 2.638300
16.181065 28.220051 2.638300
16.181065 28.220051 1.771330
16.181065 26.960251 1.771330
16.181065 26.960251 2.638300
17.440966 -3.712750 6.141700
16.181065 -3.712750 6.141700
16.181065 -3.712750 2.638300
17.440966 -3.712750 2.638300
-17.440964 -26.960150 2.638300
-17.440964 26.960251 2.638300
-16.181124 -26.960150 2.638300
16.181065 28.220051 -7.480300
16.181065 28.220051 6.141700
16.181065 26.960251 6.141700
16.181065 26.960251 -7.480300
-16.181124 3.700810 2.638300
-16.181124 3.700810 6.141700
16.181065 -26.960150 6.141700
16.181065 -26.960150 6.574800
16.181065 26.960251 6.574800
16.181065 26.960251 6.141700
-16.181124 -3.712750 2.638300
-16.181124 -2.318100 2.638300
-17.440964 -2.318100 2.638300
-17.440964 -3.712750 2.638300
-16.181124 -3.712750 6.141700
-17.440964 -3.712750 6.141700
-17.440964 -3.712750 2.638300
-16.181124 -3.712750 2.638300
17.440966 26.960251 6.141700
17.440966 26.960251 -7.480300
17.440966 28.220051 -7.480300
17.440966 28.220051 6.574800
17.440966 -28.220051 6.574800
17.440966 -28.220051 -7.480300
17.440966 -26.960150 -7.480300
17.440966 -26.960150 6.141700
-17.835365 -28.614450 6.574800
-17.440964 -28.220051 6.574800
17.440966 -28.220051 6.574800
17.835365 -28.614450 6.574800
-16.181124 -26.960150 6.574800
16.181065 -26.960150 6.574800
16.181065 -26.960150 6.141700
-16.181124 -26.960150 6.141700
-16.181124 26.960251 1.771330
-16.181124 26.960251 2.638300
-16.181124 28.220051 2.638300
-16.181124 28.220051 1.771330
16.181065 -26.960150 6.141700
16.181065 -3.712750 6.141700
17.440966 -3.712750 6.141700
17.440966 -26.960150 6.141700
17.440966 3.700810 2.638300
16.181065 3.700810 2.638300
16.181065 2.341450 2.638300
17.440966 2.341450 2.638300
-16.181124 2.952780 5.511800
-17.440964 2.952780 5.511800
-17.440964 2.952780 3.268200
-16.181124 2.952780 3.268200
17.440966 26.960251 -7.480300
16.181065 26.960251 -7.480300
16.181065 26.960251 6.141700
17.440966 26.960251 6.141700
16.181065 -28.220051 2.638300
-16.181124 -28.220051 2.638300
-16.181124 -28.220051 1.771330
16.181065 -28.220051 1.771330
17.440966 -2.318100 2.638300
17.440966 0.000020 3.952100
17.440966 2.341450 2.638300
17.440966 0.951690 4.391000
17.440966 2.319670 6.141700
17.440966 0.000020 4.842500
17.440966 -2.321680 6.141700
17.440966 -2.952750 5.511800
17.440966 -0.960780 4.397100
-16.181124 -26.960150 -7.480300
-16.181124 -28.220051 -7.480300
-16.181124 -28.220051 6.141700
-16.181124 -26.960150 6.141700
17.440966 26.960251 2.638300
17.440966 26.960251 1.771330
-17.440964 26.960251 1.771330
-17.440964 26.960251 2.638300
17.440966 26.960251 1.771330
17.440966 26.960251 2.638300
-17.440964 26.960251 2.638300
-17.440964 26.960251 1.771330
17.440966 3.700810 2.638300
17.440966 3.700810 6.141700
17.440966 -2.952750 3.268200
17.440966 -3.712750 6.141700
17.440966 -3.712750 2.638300
17.440966 -26.960150 2.638300
17.440966 -26.960150 1.771330
17.440966 26.960251 1.771330
17.440966 26.960251 2.638300
-16.181124 26.960251 2.638300
-16.181124 26.960251 1.771330
-16.181124 -26.960150 1.771330
-16.181124 -26.960150 2.638300
-16.181124 26.960251 6.141700
-16.181124 26.960251 -7.480300
-17.440964 26.960251 -7.480300
-17.440964 26.960251 6.141700
17.440966 26.960251 6.141700
16.181065 26.960251 6.141700
16.181065 26.960251 -7.480300
17.440966 26.960251 -7.480300
16.181065 26.960251 -7.480300
16.181065 28.220051 -7.480300
17.440966 28.220051 -7.480300
17.440966 26.960251 -7.480300
16.181065 0.000020 4.842500
16.181065 -2.321680 6.141700
17.440966 -2.321680 6.141700
17.440966 0.000020 4.842500
-16.181124 0.000020 3.952100
-16.181124 2.341450 2.638300
-17.440964 2.341450 2.638300
-17.440964 0.000020 3.952100
-17.440964 -2.318100 2.638300
-17.440964 0.000020 3.952100
-16.181124 0.000020 3.952100
-16.181124 -2.318100 2.638300
-17.440964 -2.952750 5.511800
-16.181124 -2.952750 5.511800
-16.181124 -2.952750 3.268200
-17.440964 -2.952750 3.268200
-17.440964 3.700810 6.141700
-17.440964 26.960251 6.141700
-16.181124 3.700810 6.141700
17.440966 -26.960150 -7.480300
16.181065 -26.960150 -7.480300
16.181065 -26.960150 6.141700
17.440966 -26.960150 6.141700
17.440966 2.319670 6.141700
17.440966 0.000020 4.842500
16.181065 0.000020 4.842500
16.181065 2.319670 6.141700
-17.440964 26.960251 2.638300
-17.440964 26.960251 1.771330
-17.440964 -26.960150 1.771330
-17.440964 -26.960150 2.638300
16.181065 28.220051 6.141700
-16.181124 28.220051 6.141700
-16.181124 28.220051 -7.480300
-17.440964 28.220051 -7.480300
-17.440964 28.220051 6.574800
17.440966 28.220051 6.574800
17.440966 28.220051 -7.480300
16.181065 28.220051 -7.480300
-16.181124 28.220051 -7.480300
-16.181124 28.220051 6.141700
16.181065 28.220051 6.141700
16.181065 28.220051 -7.480300
17.440966 28.220051 -7.480300
17.440966 28.220051 6.574800
-17.440964 28.220051 6.574800
-17.440964 28.220051 -7.480300
-17.440964 -28.220051 -7.480300
-17.440964 -28.220051 6.574800
17.440966 -28.220051 6.574800
17.440966 -28.220051 -7.480300
16.181065 -28.220051 -7.480300
16.181065 -28.220051 6.141700
-16.181124 -28.220051 6.141700
-16.181124 -28.220051 -7.480300
16.181065 28.220051 6.141700
16.181065 28.220051 -7.480300
16.181065 26.960251 -7.480300
16.181065 26.960251 6.141700
16.181065 -28.220051 2.638300
16.181065 -28.220051 1.771330
16.181065 -26.960150 1.771330
16.181065 -26.960150 2.638300
16.181065 26.960251 6.574800
-16.181124 26.960251 6.574800
-16.181124 26.960251 6.141700
16.181065 26.960251 6.141700
16.181065 -26.960150 -7.480300
16.181065 -26.960150 6.141700
16.181065 -28.220051 6.141700
16.181065 -28.220051 -7.480300
-17.440964 3.700810 2.638300
-16.181124 3.700810 2.638300
-16.181124 3.700810 6.141700
-17.440964 3.700810 6.141700
-16.181124 2.319670 6.141700
-16.181124 0.000020 4.842500
-17.440964 0.000020 4.842500
-17.440964 2.319670 6.141700
17.835365 -28.614450 6.574800
-17.440964 26.960251 2.638300
-17.440964 -26.960150 2.638300
-16.181124 -26.960150 2.638300
-16.181124 26.960251 2.638300
17.440966 0.951690 4.391000
17.440966 2.952780 5.511800
16.181065 2.952780 5.511800
16.181065 0.951690 4.391000
-16.181124 -26.960150 6.574800
-16.181124 26.960251 6.574800
16.181065 26.960251 6.574800
16.181065 -26.960150 6.574800
16.181065 -2.952750 5.511800
17.440966 -2.952750 5.511800
17.440966 -2.952750 3.268200
16.181065 -2.952750 3.268200
16.181065 -2.952750 3.268200
17.440966 -2.952750 3.268200
17.440966 -2.952750 5.511800
16.181065 -2.952750 5.511800
-17.440964 28.220051 -7.480300
-17.440964 28.220051 6.574800
-17.440964 -28.220051 6.574800
-17.440964 -28.220051 -7.480300
-17.440964 -26.960150 -7.480300
-17.440964 -26.960150 6.141700
-17.440964 26.960251 6.141700
-17.440964 26.960251 -7.480300
17.440966 -3.712750 6.141700
17.440966 -2.321680 6.141700
16.181065 -2.321680 6.141700
16.181065 -3.712750 6.141700
16.181065 3.700810 2.638300
17.440966 3.700810 2.638300
17.440966 3.700810 6.141700
16.181065 3.700810 6.141700
-17.440964 0.951690 4.391000
-17.440964 2.952780 5.511800
-16.181124 2.952780 5.511800
-16.181124 0.951690 4.391000
16.181065 3.700810 2.638300
16.181065 3.700810 6.141700
-16.181124 28.220051 1.771330
16.181065 28.220051 1.771330
16.181065 28.220051 2.638300
-16.181124 28.220051 2.638300
17.835365 28.614450 7.480300
17.835365 -28.614450 7.480300
-17.835365 -28.614450 7.480300
-17.835365 28.614450 7.480300
17.440966 0.000020 4.842500
17.440966 -2.321680 6.141700
16.181065 -2.321680 6.141700
16.181065 0.000020 4.842500
-16.181124 -28.220051 -7.480300
-16.181124 -26.960150 -7.480300
-17.440964 -26.960150 -7.480300
-17.440964 -28.220051 -7.480300
-17.440964 -28.220051 -7.480300
-17.440964 -26.960150 -7.480300
-16.181124 -26.960150 -7.480300
-16.181124 -28.220051 -7.480300
16.181065 -28.220051 1.771330
-16.181124 -28.220051 1.771330
-16.181124 -28.220051 2.638300
16.181065 -28.220051 2.638300
-16.181124 -26.960150 -7.480300
-16.181124 -26.960150 6.141700
-16.181124 -28.220051 6.141700
-16.181124 -28.220051 -7.480300
16.181065 3.700810 6.141700
16.181065 3.700810 2.638300
16.181065 -28.220051 -7.480300
16.181065 -26.960150 -7.480300
17.440966 -26.960150 -7.480300
17.440966 -28.220051 -7.480300
17.440966 -3.712750 2.638300
16.181065 -3.712750 2.638300
16.181065 -3.712750 6.141700
17.440966 -3.712750 6.141700
16.181065 26.960251 1.771330
16.181065 28.220051 1.771330
-16.181124 28.220051 1.771330
-16.181124 26.960251 1.771330
-16.181124 28.220051 1.771330
16.181065 28.220051 1.771330
16.181065 26.960251 1.771330
-16.181124 -28.220051 6.141700
-16.181124 -26.960150 6.141700
16.181065 -26.960150 6.141700
16.181065 -28.220051 6.141700
16.181065 2.341450 2.638300
16.181065 0.000020 3.952100
16.181065 -2.318100 2.638300
16.181065 -2.952750 3.268200
16.181065 -0.960780 4.397100
16.181065 -2.952750 5.511800
16.181065 -2.321680 6.141700
16.181065 0.000020 4.842500
16.181065 2.319670 6.141700
16.181065 0.951690 4.391000
-16.181124 -26.960150 1.771330
-16.181124 -26.960150 2.638300
-16.181124 -28.220051 2.638300
-16.181124 -28.220051 1.771330
-16.181124 26.960251 -7.480300
-16.181124 28.220051 -7.480300
-17.440964 28.220051 -7.480300
-17.440964 26.960251 -7.480300
17.440966 -2.952750 5.511800
17.440966 -0.960780 4.397100
16.181065 -0.960780 4.397100
16.181065 -2.952750 5.511800
-16.181124 -26.960150 2.638300
-16.181124 -26.960150 1.771330
-16.181124 26.960251 1.771330
-16.181124 26.960251 2.638300
17.440966 -26.960150 1.771330
17.440966 26.960251 1.771330
16.181065 -26.960150 1.771330
-16.181124 3.700810 6.141700
-16.181124 26.960251 6.141700
-17.440964 26.960251 6.141700
-17.440964 3.700810 6.141700
17.440966 26.960251 1.771330
17.440966 -26.960150 1.771330
16.181065 -26.960150 2.638300
16.181065 -28.220051 2.638300
-16.181124 -28.220051 2.638300
-16.181124 -28.220051 2.638300
16.181065 -28.220051 2.638300
16.181065 -28.220051 1.771330
-16.181124 -28.220051 1.771330
-16.181124 28.220051 2.638300
16.181065 28.220051 2.638300
-17.440964 -26.960150 -7.480300
-16.181124 -26.960150 -7.480300
-16.181124 -26.960150 6.141700
-17.440964 -26.960150 6.141700
16.181065 -3.712750 2.638300
16.181065 -3.712750 6.141700
-17.440964 -26.960150 2.638300
-17.440964 -26.960150 1.771330
-17.440964 26.960251 1.771330
-17.440964 26.960251 2.638300
17.440966 -26.960150 2.638300
17.440966 26.960251 2.638300
17.440966 26.960251 -7.480300
17.440966 28.220051 -7.480300
16.181065 28.220051 -7.480300
16.181065 26.960251 -7.480300
16.181065 -26.960150 -7.480300
17.440966 -26.960150 -7.480300
17.440966 -26.960150 6.141700
16.181065 -26.960150 6.141700
-17.440964 2.952780 6.141700
-17.440964 2.952780 2.638300
-17.440964 2.952780 3.268200
-17.440964 2.952780 5.511800
-17.440964 -2.321680 6.141700
-17.440964 -3.712750 6.141700
-17.440964 -3.712750 2.638300
-17.440964 -2.318100 2.638300
-17.440964 0.000020 3.952100
-17.440964 2.341450 2.638300
-17.440964 2.952780 2.638300
-17.440964 2.952780 3.268200
-17.440964 0.951690 4.391000
-17.440964 2.952780 5.511800
-17.440964 2.952780 6.141700
-17.440964 2.319670 6.141700
-17.440964 0.000020 4.842500
-17.440964 -0.960780 4.397100
-17.440964 -2.952750 3.268200
-17.440964 -2.952750 5.511800
-17.440964 -3.712750 2.638300
-17.440964 -3.712750 6.141700
-17.440964 -2.952750 6.141700
-17.440964 -2.952750 5.511800
-17.440964 -2.952750 3.268200
-17.440964 -0.960780 4.397100
-17.440964 -2.318100 2.638300
-17.440964 2.341450 2.638300
-17.440964 0.000020 3.952100
-17.440964 -2.321680 6.141700
-17.440964 0.000020 4.842500
-17.440964 2.319670 6.141700
-17.440964 0.951690 4.391000
-17.440964 -26.960150 1.771330
-17.440964 26.960251 1.771330
-17.440964 3.700810 6.141700
-17.440964 2.319670 6.141700
-16.181124 2.319670 6.141700
-16.181124 3.700810 6.141700
-16.181124 3.700810 6.141700
-16.181124 2.319670 6.141700
-17.440964 2.319670 6.141700
-17.440964 3.700810 6.141700
-16.181124 -2.321680 6.141700
-17.440964 -2.321680 6.141700
-17.440964 -26.960150 6.141700
-16.181124 -26.960150 6.141700
16.181065 -28.220051 6.141700
16.181065 -28.220051 -7.480300
17.440966 -28.220051 -7.480300
17.440966 -28.220051 6.574800
-17.440964 -28.220051 6.574800
-17.440964 -28.220051 -7.480300
-16.181124 -28.220051 -7.480300
-16.181124 -28.220051 6.141700
-16.181124 -2.321680 6.141700
-16.181124 -26.960150 6.141700
-17.440964 -26.960150 6.141700
-17.440964 -2.321680 6.141700
-17.440964 3.700810 2.638300
-17.440964 3.700810 6.141700
-17.440964 26.960251 -7.480300
-17.440964 28.220051 -7.480300
-16.181124 28.220051 -7.480300
-16.181124 26.960251 -7.480300
17.440966 -28.220051 -7.480300
17.440966 -26.960150 -7.480300
16.181065 -26.960150 -7.480300
16.181065 -28.220051 -7.480300
-16.181124 -3.712750 2.638300
-16.181124 -3.712750 6.141700
-16.181124 -2.952750 6.141700
-16.181124 -2.952750 5.511800
-16.181124 -2.952750 3.268200
-16.181124 2.952780 6.141700
-16.181124 2.952780 2.638300
-16.181124 2.952780 3.268200
-16.181124 2.952780 5.511800
-16.181124 3.700810 6.141700
-16.181124 3.700810 2.638300
-16.181124 -3.712750 6.141700
-16.181124 -3.712750 2.638300
16.181065 -3.712750 2.638300
16.181065 -2.318100 2.638300
16.181065 -2.952750 3.268200
16.181065 -2.952750 5.511800
16.181065 -2.952750 6.141700
16.181065 -3.712750 6.141700
16.181065 -26.960150 2.638300
16.181065 -26.960150 1.771330
16.181065 -28.220051 1.771330
16.181065 -28.220051 2.638300
16.181065 3.700810 6.141700
17.440966 3.700810 6.141700
17.440966 3.700810 2.638300
16.181065 3.700810 2.638300
-16.181124 -0.960780 4.397100
-16.181124 -2.321680 6.141700
-16.181124 0.000020 4.842500
-16.181124 2.319670 6.141700
-16.181124 0.951690 4.391000
-16.181124 2.341450 2.638300
-16.181124 0.000020 3.952100
-16.181124 -2.318100 2.638300
-17.440964 2.341450 2.638300
-17.440964 3.700810 2.638300
-16.181124 3.700810 2.638300
-16.181124 2.341450 2.638300
-16.181124 2.341450 2.638300
-16.181124 3.700810 2.638300
-17.440964 3.700810 2.638300
-17.440964 2.341450 2.638300
16.181065 -26.960150 -7.480300
16.181065 -28.220051 -7.480300
16.181065 -28.220051 6.141700
16.181065 -26.960150 6.141700
-17.440964 3.700810 6.141700
-16.181124 3.700810 6.141700
-16.181124 3.700810 2.638300
-17.440964 3.700810 2.638300
17.440966 -0.960780 4.397100
17.440966 -2.952750 3.268200
16.181065 -2.952750 3.268200
16.181065 -0.960780 4.397100
-17.440964 0.000020 4.842500
-17.440964 -2.321680 6.141700
-16.181124 -2.321680 6.141700
-16.181124 0.000020 4.842500
-16.181124 -2.318100 2.638300
-16.181124 0.000020 3.952100
-17.440964 0.000020 3.952100
-17.440964 -2.318100 2.638300
-17.440964 2.319670 6.141700
-17.440964 0.000020 4.842500
-16.181124 0.000020 4.842500
-16.181124 2.319670 6.141700
-16.181124 -2.952750 3.268200
-17.440964 -2.952750 3.268200
-17.440964 -0.960780 4.397100
-16.181124 -0.960780 4.397100
17.440966 -26.960150 1.771330
17.440966 -26.960150 2.638300
-17.440964 -26.960150 2.638300
-17.440964 -26.960150 1.771330
17.440966 -26.960150 1.771330
-17.440964 -26.960150 1.771330
-17.440964 -26.960150 2.638300
17.440966 -26.960150 2.638300
-17.440964 0.000020 3.952100
-17.440964 2.341450 2.638300
-16.181124 2.341450 2.638300
-16.181124 0.000020 3.952100
-16.181124 -3.712750 2.638300
-17.440964 -3.712750 2.638300
-17.440964 -3.712750 6.141700
-16.181124 -3.712750 6.141700
-17.440964 2.952780 3.268200
-17.440964 0.951690 4.391000
-16.181124 0.951690 4.391000
-16.181124 2.952780 3.268200
-16.181124 26.960251 6.141700
-16.181124 26.960251 6.574800
-16.181124 -26.960150 6.574800
-16.181124 -26.960150 6.141700
-17.835365 28.614450 6.574800
17.835365 28.614450 6.574800
17.835365 28.614450 7.480300
-17.835365 28.614450 7.480300
-17.440964 -28.220051 6.574800
-17.440964 28.220051 6.574800
-17.440964 28.220051 -7.480300
-17.440964 26.960251 -7.480300
-17.440964 26.960251 6.141700
-17.440964 -26.960150 6.141700
-17.440964 -26.960150 -7.480300
-17.440964 -28.220051 -7.480300
-17.440964 3.700810 6.141700
-17.440964 3.700810 2.638300
16.181065 -0.960780 4.397100
16.181065 -2.952750 3.268200
17.440966 -2.952750 3.268200
17.440966 -0.960780 4.397100
16.181065 -2.952750 5.511800
16.181065 -0.960780 4.397100
17.440966 -0.960780 4.397100
17.440966 -2.952750 5.511800
-17.835365 28.614450 6.574800
-17.835365 28.614450 7.480300
-17.835365 -28.614450 7.480300
-17.835365 -28.614450 6.574800
17.440966 2.952780 3.268200
16.181065 2.952780 3.268200
16.181065 2.952780 5.511800
17.440966 2.952780 5.511800
16.181065 -26.960150 2.638300
16.181065 -26.960150 1.771330
16.181065 26.960251 1.771330
16.181065 26.960251 2.638300
-16.181124 2.952780 3.268200
-17.440964 2.952780 3.268200
-17.440964 2.952780 5.511800
-16.181124 2.952780 5.511800
17.440966 2.952780 5.511800
16.181065 2.952780 5.511800
16.181065 2.952780 3.268200
17.440966 2.952780 3.268200
16.181065 -2.321680 6.141700
16.181065 2.319670 6.141700
17.440966 2.319670 6.141700
17.440966 -2.321680 6.141700
-16.181124 2.952780 3.268200
-16.181124 0.951690 4.391000
-17.440964 0.951690 4.391000
-17.440964 2.952780 3.268200
16.181065 3.700810 6.141700
16.181065 26.960251 6.141700
17.440966 26.960251 6.141700
17.440966 3.700810 6.141700
16.181065 26.960251 2.638300
16.181065 26.960251 1.771330
16.181065 -26.960150 1.771330
16.181065 -26.960150 2.638300
-17.835365 28.614450 7.480300
-17.835365 -28.614450 7.480300
17.835365 -28.614450 7.480300
17.835365 28.614450 7.480300
-16.181124 26.960251 6.141700
-16.181124 26.960251 -7.480300
-16.181124 28.220051 -7.480300
-16.181124 28.220051 6.141700
-16.181124 -2.952750 5.511800
-16.181124 -0.960780 4.397100
-17.440964 -0.960780 4.397100
-17.440964 -2.952750 5.511800
16.181065 0.000020 4.842500
16.181065 -2.321680 6.141700
16.181065 -0.960780 4.397100
16.181065 0.000020 3.952100
16.181065 2.341450 2.638300
16.181065 0.951690 4.391000
16.181065 2.319670 6.141700
-17.835365 28.614450 6.574800
17.835365 28.614450 6.574800
17.440966 28.220051 6.574800
-17.440964 28.220051 6.574800
-17.440964 -2.952750 5.511800
-17.440964 -0.960780 4.397100
-16.181124 -0.960780 4.397100
-16.181124 -2.952750 5.511800
17.835365 -28.614450 7.480300
-17.835365 -28.614450 7.480300
-17.835365 -28.614450 6.574800
17.835365 -28.614450 6.574800
17.440966 -2.321680 6.141700
17.440966 -3.712750 6.141700
16.181065 -3.712750 6.141700
16.181065 -2.321680 6.141700
16.181065 2.319670 6.141700
16.181065 0.000020 4.842500
17.440966 0.000020 4.842500
17.440966 2.319670 6.141700
17.835365 -28.614450 6.574800
-17.835365 -28.614450 6.574800
-17.835365 -28.614450 7.480300
17.835365 -28.614450 7.480300
17.835365 28.614450 7.480300
17.835365 28.614450 6.574800
17.835365 -28.614450 6.574800
17.835365 -28.614450 7.480300
-17.835365 28.614450 7.480300
17.835365 28.614450 7.480300
17.835365 28.614450 6.574800
-17.835365 28.614450 6.574800
17.835365 -28.614450 7.480300
17.835365 -28.614450 6.574800
17.835365 28.614450 6.574800
17.835365 28.614450 7.480300
16.181065 26.960251 6.141700
16.181065 28.220051 6.141700
-16.181124 28.220051 6.141700
-17.835365 -28.614450 6.574800
-17.835365 -28.614450 7.480300
-17.835365 28.614450 7.480300
-17.835365 28.614450 6.574800
17.440966 2.319670 6.141700
17.440966 0.000020 3.952100
17.440966 2.341450 2.638300
16.181065 2.341450 2.638300
16.181065 0.000020 3.952100
3 0 1 2
3 0 2 3
4 4 5 6 7
4 8 9 10 11
4 12 13 14 15
4 16 17 18 19
4 20 21 22 23
4 24 25 26 27
3 28 29 30
3 29 31 30
4 32 33 34 35
4 36 37 38 39
4 40 41 42 43
4 44 45 46 47
3 48 49 50
3 48 50 51
4 52 53 54 55
4 56 57 58 59
4 60 61 62 63
4 64 65 66 67
15 68 69 70 71 72 73 74 75 76 77 78 79 80 81 82
4 83 84 85 86
3 87 88 89
3 88 90 89
4 91 92 93 94
4 95 96 97 98
4 99 100 101 102
4 103 104 105 106
20 107 108 109 110 111 112 113 114 115 116 117 118 119 120 121 122 2 1 0 123
7 124 125 126 127 128 129 130
8 131 132 133 134 135 136 137 138
4 139 140 141 142
4 143 144 145 146
4 147 148 149 150
4 151 152 153 154
4 155 156 157 158
4 159 160 161 162
4 163 164 165 166
4 167 168 169 170
4 171 172 173 174
4 175 176 177 178
4 179 180 181 182
4 183 184 185 186
4 187 188 189 190
4 191 192 10 193
4 194 195 196 197
4 198 199 72 68
4 200 201 202 203
4 204 205 206 207
4 208 209 210 211
8 212 213 214 215 216 217 218 219
4 220 221 222 223
4 224 225 226 227
4 228 229 230 231
4 232 233 234 235
4 236 237 238 239
4 240 241 242 243
4 244 245 246 247
4 248 249 250 251
13 252 253 254 31 29 255 28 30 256 257 258 259 260
4 261 262 263 264
4 265 266 267 268
4 269 270 271 272
16 273 274 30 31 254 252 260 275 259 258 276 277 278 279 280 281
4 282 283 284 285
4 286 287 288 289
4 290 291 292 293
4 294 295 296 297
4 298 299 300 301
4 302 303 304 305
4 306 307 308 309
4 310 311 312 313
4 314 315 4 316
4 317 318 319 320
4 321 322 323 324
4 325 326 327 328
8 329 330 331 332 333 334 335 336
8 337 338 339 340 341 342 343 344
8 345 346 347 348 349 350 351 352
4 353 354 355 356
4 357 358 359 360
4 361 362 363 364
4 365 366 367 368
4 369 370 371 372
4 373 374 375 376
5 377 125 124 128 127
4 378 379 380 381
4 382 383 384 385
4 386 387 388 389
4 390 391 392 393
4 394 395 396 397
8 398 399 400 401 402 403 404 405
4 406 407 408 409
4 410 411 412 413
4 414 415 416 417
4 418 419 89 90
4 420 421 422 423
4 424 425 426 427
4 428 429 430 431
4 432 433 434 435
4 436 437 438 439
4 440 441 442 443
4 444 445 446 447
4 49 48 448 449
4 450 451 452 453
4 454 455 456 457
4 458 459 460 53
4 461 462 463 464
4 465 466 467 468
14 469 470 471 472 473 474 475 476 477 48 51 478 50 49
4 479 480 481 482
4 483 484 485 486
4 487 488 489 490
4 491 492 493 494
4 495 496 458 497
4 498 499 500 501
4 26 464 502 503
4 504 505 506 193
4 380 507 508 22
4 509 497 52 510
4 511 381 21 512
4 513 514 515 516
6 517 518 475 474 472 471
4 519 520 521 522
4 523 504 9 524
4 525 526 527 528
4 529 530 531 532
3 533 534 535
3 533 535 536
16 537 538 539 540 541 542 543 544 545 546 547 548 549 550 551 552
7 553 554 555 556 557 558 559
14 560 561 559 558 556 555 562 563 564 533 536 565 535 534
4 566 567 461 25
4 549 537 552 550
3 546 544 547
3 544 543 547
4 568 569 570 571
4 572 573 574 575
4 576 577 578 579
8 580 581 582 583 584 585 586 587
4 588 589 590 591
4 592 593 547 543
4 594 595 596 597
4 598 599 600 601
5 602 603 604 605 606
3 607 608 609
3 607 609 610
4 608 607 611 612
6 78 76 75 613 614 79
6 615 616 617 618 619 620
4 621 622 623 624
4 625 626 627 628
16 629 605 604 630 631 632 607 610 633 609 608 634 635 636 602 606
3 71 69 72
3 69 68 72
4 637 638 639 640
4 641 642 643 644
4 645 646 647 648
4 649 650 651 652
4 653 654 655 656
4 657 658 659 660
4 661 662 663 664
4 665 666 667 668
4 669 670 671 672
4 673 674 675 676
4 677 678 679 680
4 681 682 683 684
4 685 686 687 688
4 689 690 691 692
4 693 694 695 696
4 697 698 699 700
8 701 702 703 704 705 706 707 708
4 534 533 709 710
4 711 712 713 714
4 715 716 717 718
4 719 720 721 722
4 723 724 725 726
4 727 728 729 730
4 731 732 733 734
4 735 736 737 738
4 739 740 741 742
4 117 115 114 118
4 743 744 745 746
4 747 748 749 750
4 751 752 753 754
4 755 756 757 758
4 759 760 761 762
4 763 764 765 766
15 767 768 619 618 769 617 616 770 771 90 88 772 87 89 773
8 220 774 775 223 222 776 777 221
4 778 779 780 781
4 782 783 784 785
4 786 787 788 789
4 790 791 792 793
4 794 795 796 797
4 798 799 800 801
4 802 803 804 805
4 806 807 808 809
4 810 811 812 499
4 813 814 815 816
7 119 118 817 0 3 122 121
4 818 819 820 821
