ply
format ascii 1.0
comment Created by Blender 2.82 (sub 7) - www.blender.org, source file: ''
element vertex 1280
property float x
property float y
property float z
element face 333
property list uchar uint vertex_indices
end_header
1.305218 -30.740000 9.852250
1.305218 -31.528000 9.852250
12.801318 -31.528000 9.852250
12.801318 -30.740000 9.852250
-13.942082 31.528000 9.852250
-12.642782 31.528000 9.852250
-25.438103 31.528000 9.852250
-1.146782 31.528000 9.852250
29.632618 -29.664000 -13.686370
31.496017 -29.664000 -13.686370
31.496017 -29.559000 -13.779550
29.527517 -29.559000 -13.779550
30.708618 -13.982000 11.098950
30.708618 -13.982000 9.852250
31.496017 -13.982000 9.852250
31.496017 -13.982000 11.098950
1.305218 -31.528000 9.852250
1.305218 -31.528000 11.098950
0.079218 -31.528000 11.889750
0.079218 -31.528000 9.053950
25.491419 -31.528000 9.053950
25.491419 -31.528000 7.438350
29.598919 -31.528000 7.438350
28.706818 -31.528000 8.041250
26.817019 -31.528000 8.041250
26.817019 -31.528000 11.098950
25.596518 -31.528000 11.098950
25.596518 -31.528000 9.852250
31.496017 -12.683000 11.098950
30.708618 -12.683000 11.098950
30.708618 -1.187000 11.098950
31.496017 -1.187000 11.098950
31.496017 -31.528000 11.889750
31.496017 -29.559000 11.889750
29.527517 -29.559000 11.889750
29.527517 -31.528000 11.889750
31.496017 29.837999 -15.748050
31.496017 31.528000 -15.748050
31.496017 31.528000 11.889750
31.496017 29.559000 11.889750
31.496017 29.559000 -13.070880
31.496017 29.664000 -13.164060
31.496017 29.750000 -13.355010
31.496017 29.750000 -13.495420
31.496017 29.664000 -13.686370
31.496017 29.559000 -13.779550
31.496017 31.528000 13.123350
31.496017 -31.528000 13.123350
31.496017 -31.528000 11.889750
31.496017 31.528000 11.889750
-29.719301 -31.528000 -15.748050
-29.440453 -31.528000 -13.779550
-29.545492 -31.528000 -13.686370
-29.613682 -31.528000 -13.563630
-29.637302 -31.528000 -13.425220
-29.613682 -31.528000 -13.286800
-29.545492 -31.528000 -13.164060
-29.440453 -31.528000 -13.070880
-29.440453 -31.528000 11.889750
-31.408953 -31.528000 11.889750
-31.408953 -31.528000 -15.748050
-30.708616 -25.478001 11.098950
-31.496017 -25.478001 11.098950
-31.496017 -13.982000 11.098950
-30.708616 -13.982000 11.098950
-31.496017 -31.528000 15.669250
-31.496017 31.528000 15.669250
-31.496017 31.528000 14.435650
-31.496017 -31.528000 14.435650
-29.637302 -29.756001 -13.425220
-29.637302 -31.528000 -13.425220
-29.613682 -31.528000 -13.563630
-29.613682 -29.732000 -13.563630
-29.440453 29.559000 11.889750
-29.440453 29.559000 -13.070880
-29.440453 31.528000 -13.070880
-29.440453 31.528000 11.889750
30.708618 -28.587999 8.041250
31.496017 -28.587999 8.041250
31.496017 -26.698000 8.041250
30.708618 -26.698000 8.041250
29.632618 29.664000 -13.164060
29.718418 29.750000 -13.355010
31.496017 29.750000 -13.355010
31.496017 29.664000 -13.164060
31.496017 -29.480000 11.889750
31.496017 -29.480000 7.438350
31.496017 -28.587999 8.041250
31.496017 -28.587999 11.098950
-12.642782 30.740000 9.852250
-13.942082 30.740000 9.852250
-1.146782 30.740000 9.852250
-25.438103 30.740000 9.852250
-29.719301 -31.528000 -15.748050
-31.408953 -31.528000 -15.748050
-31.408953 -29.837999 -15.748050
-29.719301 -29.837999 -15.748050
31.496017 -31.528000 15.669250
31.452318 -31.448999 15.748050
-31.452244 -31.448999 15.748050
-31.496017 -31.528000 15.669250
30.708618 -29.480000 11.889750
30.708618 -29.480000 7.438350
31.496017 -29.480000 7.438350
31.496017 -29.480000 11.889750
-12.642782 31.528000 9.852250
-12.642782 30.740000 9.852250
-1.146782 30.740000 9.852250
-1.146782 31.528000 9.852250
31.496017 -28.587999 11.098950
30.708618 -28.587999 11.098950
30.708618 -26.698000 11.098950
31.496017 -26.698000 11.098950
26.817019 30.740000 11.098950
26.817019 31.528000 11.098950
28.706818 31.528000 11.098950
28.706818 30.740000 11.098950
29.718418 29.750000 -13.495420
29.632618 29.664000 -13.686370
31.496017 29.664000 -13.686370
31.496017 29.750000 -13.495420
-29.440453 29.559000 11.889750
-31.408953 29.559000 11.889750
-31.408953 29.559000 -13.070880
-29.440453 29.559000 -13.070880
-1.146782 31.528000 11.098950
-1.146782 31.528000 9.852250
-1.146782 30.740000 9.852250
-1.146782 30.740000 11.098950
25.596518 31.528000 9.852250
1.305218 31.528000 9.852250
12.801318 31.528000 9.852250
14.100518 31.528000 9.852250
12.801318 -31.528000 11.098950
12.801318 -31.528000 9.852250
14.100518 -31.528000 9.852250
14.100518 -31.528000 11.098950
28.706818 -31.528000 11.098950
29.598919 -31.528000 11.889750
0.079218 -30.740000 11.889750
0.079218 -31.528000 11.889750
29.598919 -31.528000 11.889750
29.598919 -30.740000 11.889750
-30.708616 1.265000 11.098950
-30.708616 1.265000 9.852250
-31.496017 1.265000 9.852250
-31.496017 1.265000 11.098950
-29.440453 -31.528000 -13.779550
-29.719301 -31.528000 -15.748050
-29.719301 -29.837999 -15.748050
-29.440453 -29.559000 -13.779550
1.305218 30.740000 9.852250
25.596518 30.740000 9.852250
14.100518 30.740000 9.852250
12.801318 30.740000 9.852250
31.496017 -25.372999 7.438350
31.496017 -25.372999 9.053950
31.496017 0.039000 9.053950
31.496017 -1.187000 9.852250
31.496017 -25.478001 9.852250
31.496017 -25.478001 11.098950
31.496017 -26.698000 11.098950
31.496017 -26.698000 8.041250
30.708618 -29.480000 11.889750
31.496017 -29.480000 11.889750
31.496017 0.039000 11.889750
30.708618 0.039000 11.889750
29.700817 -29.732000 -13.563630
29.632618 -29.664000 -13.686370
29.632618 -31.528000 -13.686370
29.700817 -31.528000 -13.563630
-25.332941 30.740000 9.053950
-25.332941 31.528000 9.053950
0.079218 31.528000 9.053950
0.079218 30.740000 9.053950
31.496017 12.761000 9.852250
31.496017 12.761000 11.098950
30.708618 12.761000 11.098950
30.708618 12.761000 9.852250
-31.452244 31.448999 15.748050
31.452318 31.448999 15.748050
31.496017 31.528000 15.669250
-31.496017 31.528000 15.669250
-28.548332 -30.740000 8.041250
-28.548332 -31.528000 8.041250
-26.658571 -31.528000 8.041250
-26.658571 -30.740000 8.041250
-31.143658 30.893999 13.609650
-31.238071 31.063999 13.315550
-31.238071 -31.063999 13.315550
-31.143658 -30.893999 13.609650
-31.143658 -30.893999 13.949350
-31.143658 30.893999 13.949350
-25.438103 -30.740000 9.852250
-25.438103 -30.740000 11.098950
-25.438103 -31.528000 11.098950
-25.438103 -31.528000 9.852250
31.496017 1.265000 11.098950
31.496017 1.265000 9.852250
30.708618 1.265000 9.852250
30.708618 1.265000 11.098950
-29.440453 31.528000 11.889750
-29.440453 31.528000 7.438350
-29.440453 30.740000 7.438350
-29.440453 30.740000 11.889750
1.305218 -31.528000 11.098950
1.305218 -30.740000 11.098950
12.801318 -30.740000 11.098950
12.801318 -31.528000 11.098950
12.801318 -31.528000 9.852250
12.801318 -31.528000 11.098950
12.801318 -30.740000 11.098950
12.801318 -30.740000 9.852250
26.817019 -30.740000 8.041250
26.817019 -31.528000 8.041250
28.706818 -31.528000 8.041250
28.706818 -30.740000 8.041250
-30.708616 25.452000 7.438350
-31.496017 25.452000 7.438350
-31.496017 29.559000 7.438350
-30.708616 29.559000 7.438350
-30.708616 0.039000 9.053950
-31.496017 0.039000 9.053950
-31.496017 25.452000 9.053950
-30.708616 25.452000 9.053950
-31.238071 -31.063999 14.243450
-31.238071 31.063999 14.243450
29.724419 29.756001 -13.425220
29.724419 31.528000 -13.425220
29.700817 31.528000 -13.563630
29.700817 29.732000 -13.563630
29.527517 29.559000 -13.070880
31.496017 29.559000 -13.070880
-31.408953 -29.559000 -13.070880
-29.440453 -29.559000 -13.070880
-29.545492 -29.664000 -13.164060
-31.408953 -29.664000 -13.164060
-30.708616 12.761000 9.852250
-30.708616 12.761000 11.098950
-31.496017 12.761000 11.098950
-31.496017 12.761000 9.852250
-30.708616 26.777000 11.098950
-31.496017 26.777000 11.098950
-31.496017 28.667000 11.098950
-30.708616 28.667000 11.098950
29.700817 31.528000 -13.286800
29.700817 29.732000 -13.286800
29.632618 29.664000 -13.164060
29.632618 31.528000 -13.164060
31.143719 -30.893999 13.949350
31.143719 30.893999 13.949350
31.238117 31.063999 14.243450
31.238117 -31.063999 14.243450
-30.708616 28.667000 8.041250
-30.708616 28.667000 11.098950
-31.496017 28.667000 11.098950
-31.496017 28.667000 8.041250
31.131218 -30.871000 13.779550
31.180119 -30.959000 14.107550
-31.180099 -30.959000 14.107550
-31.131227 -30.871000 13.779550
30.708618 -26.698000 11.098950
30.708618 -26.698000 8.041250
31.496017 -26.698000 8.041250
31.496017 -26.698000 11.098950
29.724419 -29.756001 -13.425220
29.724419 -31.528000 -13.425220
-31.313622 -31.198999 13.211250
31.313618 -31.198999 13.211250
31.180119 -30.959000 13.451450
-31.180099 -30.959000 13.451450
29.700817 -29.732000 -13.286800
29.700817 -31.528000 -13.286800
-12.642782 31.528000 9.852250
-12.642782 31.528000 11.098950
-12.642782 30.740000 11.098950
-12.642782 30.740000 9.852250
31.496017 -29.559000 -13.779550
31.496017 -29.837999 -15.748050
29.806417 -29.837999 -15.748050
29.527517 -29.559000 -13.779550
28.706818 30.740000 11.098950
28.706818 30.740000 8.041250
29.598919 30.740000 7.438350
29.598919 30.740000 11.889750
1.305218 30.740000 11.098950
12.801318 30.740000 11.098950
14.100518 30.740000 11.098950
25.596518 30.740000 11.098950
26.817019 30.740000 11.098950
30.708618 1.265000 9.852250
31.496017 1.265000 9.852250
31.496017 12.761000 9.852250
30.708618 12.761000 9.852250
-31.496017 -13.982000 9.852250
-31.496017 -12.683000 9.852250
-31.496017 -25.478001 9.852250
-31.496017 -1.187000 9.852250
-31.496017 -29.480000 11.889750
-30.708616 -29.480000 11.889750
-30.708616 0.039000 11.889750
-31.496017 0.039000 11.889750
26.817019 -30.740000 8.041250
28.706818 -30.740000 8.041250
28.706818 -30.740000 11.098950
29.598919 -30.740000 11.889750
29.598919 -30.740000 7.438350
25.491419 -30.740000 7.438350
25.491419 -30.740000 9.053950
0.079218 -30.740000 9.053950
0.079218 -30.740000 11.889750
14.100518 -30.740000 11.098950
14.100518 -30.740000 9.852250
12.801318 -30.740000 9.852250
12.801318 -30.740000 11.098950
1.305218 -30.740000 11.098950
1.305218 -30.740000 9.852250
25.596518 -30.740000 9.852250
25.596518 -30.740000 11.098950
26.817019 -30.740000 11.098950
-29.440453 -30.740000 7.438350
-28.548332 -30.740000 8.041250
-26.658571 -30.740000 8.041250
-25.332941 -30.740000 7.438350
-31.496017 -26.698000 8.041250
-31.496017 -26.698000 11.098950
-31.496017 0.039000 11.889750
-31.496017 -1.187000 11.098950
-31.496017 -12.683000 11.098950
-31.496017 -13.982000 11.098950
-31.496017 -25.478001 11.098950
-31.496017 -25.372999 9.053950
-31.496017 -25.372999 7.438350
-31.496017 -29.480000 7.438350
-31.496017 -29.480000 11.889750
-31.496017 -28.587999 8.041250
31.496017 28.667000 8.041250
31.496017 28.667000 11.098950
30.708618 28.667000 11.098950
30.708618 28.667000 8.041250
14.100518 31.528000 9.852250
14.100518 30.740000 9.852250
25.596518 30.740000 9.852250
25.596518 31.528000 9.852250
31.496017 -29.664000 -13.164060
29.632618 -29.664000 -13.164060
29.527517 -29.559000 -13.070880
31.496017 -29.559000 -13.070880
-28.548332 31.528000 8.041250
-28.548332 30.740000 8.041250
-26.658571 30.740000 8.041250
-26.658571 31.528000 8.041250
-12.642782 -30.740000 9.852250
-12.642782 -30.740000 11.098950
-12.642782 -31.528000 11.098950
-12.642782 -31.528000 9.852250
-30.708616 -12.683000 9.852250
-30.708616 -13.982000 9.852250
-30.708616 -1.187000 9.852250
-30.708616 -25.478001 9.852250
-25.438103 -30.740000 9.852250
-25.438103 -31.528000 9.852250
-13.942082 -31.528000 9.852250
-13.942082 -30.740000 9.852250
31.496017 -31.528000 11.889750
31.496017 -31.528000 13.123350
-31.496017 -31.528000 13.123350
-31.496017 -31.528000 11.889750
-31.496017 -25.372999 7.438350
-31.496017 -25.372999 9.053950
-30.708616 -25.372999 9.053950
-30.708616 -25.372999 7.438350
31.401617 -31.358000 14.413350
31.401617 31.358000 14.413350
0.079218 -31.528000 9.053950
0.079218 -30.740000 9.053950
25.491419 -30.740000 9.053950
25.491419 -31.528000 9.053950
25.491419 -31.528000 7.438350
25.491419 -30.740000 7.438350
29.598919 -30.740000 7.438350
29.598919 -31.528000 7.438350
1.305218 -31.528000 11.098950
1.305218 -31.528000 9.852250
1.305218 -30.740000 9.852250
1.305218 -30.740000 11.098950
26.817019 31.528000 8.041250
28.706818 31.528000 8.041250
28.706818 31.528000 11.098950
26.817019 31.528000 11.098950
25.596518 31.528000 11.098950
14.100518 31.528000 11.098950
12.801318 31.528000 11.098950
1.305218 31.528000 11.098950
0.079218 31.528000 11.889750
29.598919 31.528000 11.889750
29.598919 31.528000 7.438350
25.491419 31.528000 7.438350
25.491419 31.528000 9.053950
-31.452244 -31.448999 11.811050
31.452318 -31.448999 11.811050
31.496017 -31.528000 11.889750
-31.496017 -31.528000 11.889750
-30.708616 -12.683000 11.098950
-31.496017 -12.683000 11.098950
-31.496017 -1.187000 11.098950
-30.708616 -1.187000 11.098950
25.596518 -31.528000 9.852250
25.596518 -31.528000 11.098950
25.596518 -30.740000 11.098950
25.596518 -30.740000 9.852250
26.817019 -31.528000 11.098950
26.817019 -30.740000 11.098950
28.706818 -30.740000 11.098950
28.706818 -31.528000 11.098950
31.496017 31.528000 13.123350
31.496017 31.528000 11.889750
-31.496017 31.528000 11.889750
-31.496017 31.528000 13.123350
31.496017 31.528000 11.889750
31.496017 -31.528000 11.889750
31.452318 -31.448999 11.811050
31.452318 31.448999 11.811050
-31.496017 25.556999 9.852250
-31.496017 1.265000 9.852250
-31.496017 12.761000 9.852250
-31.496017 14.061000 9.852250
-31.496017 28.667000 8.041250
-31.496017 28.667000 11.098950
-31.496017 29.559000 11.889750
-31.496017 29.559000 7.438350
-13.942082 31.528000 11.098950
-25.438103 31.528000 11.098950
-26.658571 31.528000 11.098950
-28.548332 31.528000 11.098950
-28.548332 31.528000 8.041250
-29.440453 31.528000 11.889750
0.079218 31.528000 11.889750
0.079218 31.528000 9.053950
-25.332941 31.528000 9.053950
-1.146782 31.528000 11.098950
-12.642782 31.528000 11.098950
31.452318 -31.448999 11.811050
-31.452244 -31.448999 11.811050
-31.452244 31.448999 11.811050
31.452318 31.448999 11.811050
-31.496017 -26.698000 11.098950
-31.496017 -26.698000 8.041250
-30.708616 -26.698000 8.041250
-30.708616 -26.698000 11.098950
-31.401604 -31.358000 14.413350
-31.401604 31.358000 14.413350
0.079218 31.528000 11.889750
0.079218 30.740000 11.889750
29.598919 30.740000 11.889750
29.598919 31.528000 11.889750
31.496017 31.528000 11.889750
31.452318 31.448999 11.811050
-31.452244 31.448999 11.811050
-31.496017 31.528000 11.889750
-30.708616 1.265000 9.852250
-30.708616 25.556999 9.852250
-30.708616 14.061000 9.852250
-30.708616 12.761000 9.852250
-31.408953 -31.528000 11.889750
-29.440453 -31.528000 11.889750
-29.440453 -29.559000 11.889750
-31.408953 -29.559000 11.889750
-30.708616 25.556999 11.098950
-30.708616 26.777000 11.098950
-30.708616 28.667000 11.098950
-30.708616 28.667000 8.041250
-30.708616 26.777000 8.041250
-30.708616 25.452000 7.438350
-30.708616 29.559000 7.438350
-30.708616 29.559000 11.889750
-30.708616 0.039000 11.889750
-30.708616 1.265000 11.098950
-30.708616 12.761000 11.098950
-30.708616 14.061000 11.098950
-29.440453 31.528000 11.889750
-29.440453 30.740000 11.889750
0.079218 30.740000 11.889750
0.079218 31.528000 11.889750
29.527517 29.559000 -13.779550
31.496017 29.559000 -13.779550
-30.708616 14.061000 11.098950
-30.708616 14.061000 9.852250
-31.496017 14.061000 9.852250
-31.496017 14.061000 11.098950
-29.440453 -31.528000 -13.070880
-29.545492 -31.528000 -13.164060
-29.545492 -29.664000 -13.164060
-29.440453 -29.559000 -13.070880
-30.708616 25.556999 9.852250
-30.708616 25.556999 11.098950
-31.496017 25.556999 11.098950
-31.496017 25.556999 9.852250
-29.613682 29.732000 -13.563630
-29.545492 29.664000 -13.686370
-29.545492 31.528000 -13.686370
-29.613682 31.528000 -13.563630
29.598919 30.740000 11.889750
29.598919 30.740000 7.438350
29.598919 31.528000 7.438350
29.598919 31.528000 11.889750
30.708618 -13.982000 9.852250
30.708618 -12.683000 9.852250
30.708618 -25.478001 9.852250
30.708618 -1.187000 9.852250
25.491419 30.740000 7.438350
25.491419 30.740000 9.053950
25.491419 31.528000 9.053950
25.491419 31.528000 7.438350
30.708618 -13.982000 11.098950
30.708618 -25.478001 11.098950
30.708618 -26.698000 11.098950
30.708618 -28.587999 11.098950
30.708618 -28.587999 8.041250
30.708618 -26.698000 8.041250
30.708618 -29.480000 7.438350
30.708618 -29.480000 11.889750
30.708618 0.039000 11.889750
30.708618 0.039000 9.053950
30.708618 -25.372999 9.053950
30.708618 -1.187000 11.098950
30.708618 -12.683000 11.098950
30.708618 -25.372999 7.438350
31.496017 -12.683000 9.852250
31.496017 -13.982000 9.852250
31.496017 31.528000 11.889750
29.527517 31.528000 11.889750
29.527517 29.559000 11.889750
31.496017 29.559000 11.889750
31.496017 -12.683000 11.098950
31.496017 -1.187000 11.098950
31.496017 0.039000 11.889750
31.496017 -13.982000 11.098950
29.527517 29.559000 11.889750
29.527517 29.559000 -13.070880
31.496017 29.559000 -13.070880
31.496017 29.559000 11.889750
31.313618 31.200001 13.211250
-31.313623 31.200001 13.211250
-31.180099 30.959000 13.451450
31.180119 30.959000 13.451450
31.496017 -25.478001 11.098950
30.708618 -25.478001 11.098950
30.708618 -13.982000 11.098950
31.496017 -13.982000 11.098950
-25.332941 31.528000 7.438350
-29.440453 31.528000 7.438350
-26.658571 31.528000 8.041250
29.632618 -29.664000 -13.164060
29.632618 -31.528000 -13.164060
29.527517 29.559000 11.889750
29.527517 31.528000 11.889750
29.527517 31.528000 -13.070880
29.527517 29.559000 -13.070880
30.708618 14.061000 11.098950
30.708618 14.061000 9.852250
30.708618 12.761000 9.852250
30.708618 12.761000 11.098950
30.708618 1.265000 11.098950
30.708618 1.265000 9.852250
30.708618 0.039000 11.889750
30.708618 29.559000 11.889750
30.708618 28.667000 11.098950
30.708618 26.777000 11.098950
30.708618 25.556999 9.852250
30.708618 25.556999 11.098950
-25.438103 30.740000 11.098950
-25.438103 31.528000 11.098950
-13.942082 31.528000 11.098950
-13.942082 30.740000 11.098950
31.496017 -31.528000 14.435650
31.496017 -31.528000 15.669250
-31.496017 -31.528000 15.669250
-31.496017 -31.528000 14.435650
-29.440453 31.528000 -13.070880
-29.440453 29.559000 -13.070880
-29.545492 29.664000 -13.164060
-29.545492 31.528000 -13.164060
-29.440453 30.740000 7.438350
-29.440453 31.528000 7.438350
-25.332941 31.528000 7.438350
-25.332941 30.740000 7.438350
-13.942082 31.528000 11.098950
-13.942082 31.528000 9.852250
-13.942082 30.740000 9.852250
-13.942082 30.740000 11.098950
1.305218 30.740000 11.098950
1.305218 31.528000 11.098950
12.801318 31.528000 11.098950
12.801318 30.740000 11.098950
-29.545492 -29.664000 -13.686370
-29.545492 -31.528000 -13.686370
-29.440453 -31.528000 -13.779550
-29.440453 -29.559000 -13.779550
31.496017 25.452000 7.438350
31.496017 25.452000 9.053950
30.708618 25.452000 9.053950
30.708618 25.452000 7.438350
31.496017 31.528000 15.669250
31.496017 -31.528000 15.669250
31.496017 -31.528000 14.435650
31.496017 31.528000 14.435650
31.496017 29.559000 11.889750
31.496017 29.559000 7.438350
30.708618 29.559000 7.438350
30.708618 29.559000 11.889750
-31.452244 -31.448999 15.748050
31.452318 -31.448999 15.748050
31.452318 31.448999 15.748050
-31.452244 31.448999 15.748050
-31.408953 31.528000 11.889750
-31.408953 29.559000 11.889750
-29.440453 29.559000 11.889750
-29.440453 31.528000 11.889750
-31.496017 31.528000 15.669250
31.496017 31.528000 15.669250
31.496017 31.528000 14.435650
-31.496017 31.528000 14.435650
1.305218 30.740000 11.098950
1.305218 30.740000 9.852250
1.305218 31.528000 9.852250
1.305218 31.528000 11.098950
31.496017 1.265000 9.852250
31.496017 25.556999 9.852250
31.496017 14.061000 9.852250
31.496017 12.761000 9.852250
31.452318 31.448999 15.748050
31.452318 -31.448999 15.748050
31.496017 -31.528000 15.669250
31.496017 31.528000 15.669250
31.496017 14.061000 11.098950
31.496017 25.556999 11.098950
31.496017 26.777000 11.098950
31.496017 28.667000 11.098950
31.496017 28.667000 8.041250
31.496017 26.777000 8.041250
31.496017 25.452000 7.438350
31.496017 29.559000 7.438350
31.496017 29.559000 11.889750
31.496017 0.039000 11.889750
31.496017 1.265000 11.098950
31.496017 12.761000 11.098950
-25.332941 31.528000 7.438350
-25.332941 31.528000 9.053950
-25.332941 30.740000 9.053950
-25.332941 30.740000 7.438350
26.817019 30.740000 11.098950
26.817019 30.740000 8.041250
26.817019 31.528000 8.041250
26.817019 31.528000 11.098950
14.100518 30.740000 11.098950
14.100518 31.528000 11.098950
25.596518 31.528000 11.098950
25.596518 30.740000 11.098950
-26.658571 31.528000 11.098950
-26.658571 31.528000 8.041250
-26.658571 30.740000 8.041250
-26.658571 30.740000 11.098950
31.496017 14.061000 11.098950
30.708618 14.061000 11.098950
30.708618 25.556999 11.098950
31.496017 25.556999 11.098950
-31.496017 -1.187000 11.098950
-31.496017 -1.187000 9.852250
-30.708616 -1.187000 9.852250
-30.708616 -1.187000 11.098950
-25.438103 31.528000 9.852250
-25.438103 31.528000 11.098950
-25.438103 30.740000 11.098950
-25.438103 30.740000 9.852250
-13.942082 -30.740000 9.852250
-12.642782 -30.740000 9.852250
-25.438103 -30.740000 9.852250
-1.146782 -30.740000 9.852250
30.708618 26.777000 8.041250
31.496017 26.777000 8.041250
31.496017 28.667000 8.041250
30.708618 28.667000 8.041250
29.527517 -29.559000 -13.779550
29.806417 -29.837999 -15.748050
29.806417 -31.528000 -15.748050
29.527517 -31.528000 -13.779550
25.596518 30.740000 9.852250
25.596518 30.740000 11.098950
25.596518 31.528000 11.098950
25.596518 31.528000 9.852250
31.496017 -29.837999 -15.748050
31.496017 -31.528000 -15.748050
29.806417 -31.528000 -15.748050
29.806417 -29.837999 -15.748050
0.079218 -30.740000 9.053950
0.079218 -30.740000 11.889750
0.079218 -31.528000 11.889750
0.079218 -31.528000 9.053950
-29.613682 29.732000 -13.286800
-29.613682 31.528000 -13.286800
-29.440453 -31.528000 7.438350
-25.332941 -31.528000 7.438350
-25.332941 -31.528000 9.053950
-26.658571 -31.528000 8.041250
-28.548332 -31.528000 8.041250
-29.440453 -31.528000 11.889750
-28.548332 30.740000 11.098950
-28.548332 31.528000 11.098950
-26.658571 31.528000 11.098950
-26.658571 30.740000 11.098950
-12.642782 -31.528000 9.852250
-13.942082 -31.528000 9.852250
-1.146782 -31.528000 9.852250
-25.438103 -31.528000 9.852250
29.527517 -29.559000 -13.779550
29.527517 -31.528000 -13.779550
-31.313623 31.200001 14.347750
-31.496017 31.528000 14.435650
31.496017 31.528000 14.435650
31.313618 31.200001 14.347750
26.817019 31.528000 8.041250
26.817019 30.740000 8.041250
28.706818 30.740000 8.041250
28.706818 31.528000 8.041250
-28.548332 31.528000 8.041250
-28.548332 31.528000 11.098950
-28.548332 30.740000 11.098950
-28.548332 30.740000 8.041250
-12.642782 -30.740000 9.852250
-12.642782 -31.528000 9.852250
-1.146782 -31.528000 9.852250
-1.146782 -30.740000 9.852250
-30.708616 0.039000 9.053950
-30.708616 0.039000 11.889750
-30.708616 -29.480000 11.889750
-30.708616 -12.683000 11.098950
-30.708616 -1.187000 11.098950
-1.146782 -30.740000 11.098950
-1.146782 -30.740000 9.852250
-1.146782 -31.528000 9.852250
-1.146782 -31.528000 11.098950
-28.548332 -30.740000 8.041250
-28.548332 -30.740000 11.098950
-28.548332 -31.528000 11.098950
-28.548332 -31.528000 8.041250
-30.708616 -25.478001 11.098950
-30.708616 -13.982000 11.098950
-30.708616 -26.698000 11.098950
-30.708616 -26.698000 8.041250
-30.708616 -25.372999 9.053950
-28.548332 -31.528000 11.098950
-28.548332 -30.740000 11.098950
-26.658571 -30.740000 11.098950
-26.658571 -31.528000 11.098950
28.706818 30.740000 8.041250
28.706818 30.740000 11.098950
28.706818 31.528000 11.098950
28.706818 31.528000 8.041250
14.100518 -31.528000 11.098950
14.100518 -30.740000 11.098950
25.596518 -30.740000 11.098950
25.596518 -31.528000 11.098950
-26.658571 -30.740000 11.098950
-26.658571 -30.740000 8.041250
-26.658571 -31.528000 8.041250
-26.658571 -31.528000 11.098950
-13.942082 -30.740000 11.098950
-13.942082 -30.740000 9.852250
-13.942082 -31.528000 9.852250
-13.942082 -31.528000 11.098950
-29.440453 -31.528000 7.438350
-29.440453 -30.740000 7.438350
-25.332941 -30.740000 7.438350
-25.332941 -31.528000 7.438350
31.180119 30.959000 14.107550
31.131218 30.871000 13.779550
-31.131227 30.871000 13.779550
-31.180099 30.959000 14.107550
-31.496017 -13.982000 11.098950
-31.496017 -13.982000 9.852250
-30.708616 -13.982000 9.852250
-30.708616 -13.982000 11.098950
-31.496017 -12.683000 9.852250
-31.496017 -12.683000 11.098950
-30.708616 -12.683000 11.098950
-30.708616 -12.683000 9.852250
-31.496017 -12.683000 9.852250
-30.708616 -12.683000 9.852250
-30.708616 -1.187000 9.852250
-31.496017 -1.187000 9.852250
14.100518 -31.528000 11.098950
14.100518 -31.528000 9.852250
14.100518 -30.740000 9.852250
14.100518 -30.740000 11.098950
25.491419 -31.528000 7.438350
25.491419 -31.528000 9.053950
25.491419 -30.740000 9.053950
25.491419 -30.740000 7.438350
29.598919 -31.528000 11.889750
29.598919 -31.528000 7.438350
29.598919 -30.740000 7.438350
29.598919 -30.740000 11.889750
0.079218 -31.528000 9.053950
0.079218 -31.528000 11.889750
0.079218 -30.740000 11.889750
0.079218 -30.740000 9.053950
-31.496017 -25.478001 9.852250
-31.496017 -25.478001 11.098950
-30.708616 -25.478001 11.098950
-30.708616 -25.478001 9.852250
-31.496017 -25.478001 9.852250
-30.708616 -25.478001 9.852250
-30.708616 -13.982000 9.852250
-31.496017 -13.982000 9.852250
-29.440453 -29.559000 -13.779550
-29.719301 -29.837999 -15.748050
-31.408953 -29.837999 -15.748050
-31.408953 -29.559000 -13.779550
0.079218 31.528000 9.053950
0.079218 31.528000 11.889750
0.079218 30.740000 11.889750
0.079218 30.740000 9.053950
0.079218 31.528000 9.053950
-30.708616 -28.587999 11.098950
-31.496017 -28.587999 11.098950
-31.496017 -26.698000 11.098950
-30.708616 -26.698000 11.098950
-31.496017 -28.587999 8.041250
-30.708616 -28.587999 8.041250
-30.708616 -26.698000 8.041250
-31.496017 -26.698000 8.041250
-31.496017 -28.587999 8.041250
-31.496017 -28.587999 11.098950
-30.708616 -28.587999 11.098950
-30.708616 -28.587999 8.041250
14.100518 -30.740000 9.852250
14.100518 -31.528000 9.852250
25.596518 -31.528000 9.852250
25.596518 -30.740000 9.852250
-31.496017 26.777000 11.098950
-31.496017 26.777000 8.041250
-31.496017 25.452000 7.438350
-31.496017 25.452000 9.053950
-31.496017 0.039000 9.053950
-31.496017 25.556999 11.098950
-31.496017 14.061000 11.098950
-31.496017 0.039000 11.889750
-25.332941 30.740000 7.438350
-25.332941 30.740000 9.053950
0.079218 30.740000 9.053950
0.079218 30.740000 11.889750
-25.438103 30.740000 11.098950
-29.440453 30.740000 11.889750
-28.548332 30.740000 11.098950
-26.658571 30.740000 11.098950
-26.658571 30.740000 8.041250
-28.548332 30.740000 8.041250
-29.440453 30.740000 7.438350
28.706818 -31.528000 8.041250
28.706818 -31.528000 11.098950
28.706818 -30.740000 11.098950
28.706818 -30.740000 8.041250
26.817019 -31.528000 11.098950
26.817019 -31.528000 8.041250
26.817019 -30.740000 8.041250
26.817019 -30.740000 11.098950
-30.708616 0.039000 9.053950
-30.708616 0.039000 11.889750
-31.496017 0.039000 11.889750
-31.496017 0.039000 9.053950
-31.408953 29.559000 -13.779550
-31.408953 29.837999 -15.748050
-29.719301 29.837999 -15.748050
-29.440453 29.559000 -13.779550
-31.408953 -29.837999 -15.748050
-31.408953 -31.528000 -15.748050
-31.408953 -31.528000 11.889750
-31.408953 -29.559000 11.889750
-31.408953 -29.559000 -13.070880
-31.408953 -29.664000 -13.164060
-31.408953 -29.750000 -13.355010
-31.408953 -29.750000 -13.495420
-31.408953 -29.664000 -13.686370
-31.408953 -29.559000 -13.779550
-31.496017 -31.528000 11.889750
-31.496017 31.528000 11.889750
-31.452244 31.448999 11.811050
-31.452244 -31.448999 11.811050
-31.496017 0.039000 11.889750
-30.708616 0.039000 11.889750
-30.708616 29.559000 11.889750
-31.496017 29.559000 11.889750
-30.708616 29.559000 11.889750
-30.708616 29.559000 7.438350
-31.496017 29.559000 7.438350
-31.496017 29.559000 11.889750
-30.708616 25.452000 7.438350
-30.708616 25.452000 9.053950
-31.496017 25.452000 9.053950
-31.496017 25.452000 7.438350
-31.496017 -31.528000 13.123350
-31.401604 -31.358000 13.145650
-31.401604 31.358000 13.145650
-31.496017 31.528000 13.123350
-12.642782 30.740000 11.098950
-1.146782 30.740000 11.098950
-13.942082 30.740000 11.098950
-31.496017 -28.587999 11.098950
-30.708616 0.039000 9.053950
-30.708616 25.452000 9.053950
-30.708616 1.265000 11.098950
-31.496017 1.265000 11.098950
-31.496017 12.761000 11.098950
-30.708616 12.761000 11.098950
0.079218 30.740000 9.053950
0.079218 30.740000 11.889750
0.079218 31.528000 11.889750
0.079218 31.528000 9.053950
-29.440453 -29.559000 11.889750
-29.440453 -29.559000 -13.070880
-31.408953 -29.559000 -13.070880
-31.408953 -29.559000 11.889750
-31.496017 1.265000 9.852250
-30.708616 1.265000 9.852250
-30.708616 12.761000 9.852250
-31.496017 12.761000 9.852250
-12.642782 30.740000 11.098950
-12.642782 31.528000 11.098950
-1.146782 31.528000 11.098950
-1.146782 30.740000 11.098950
-29.631351 -29.750000 -13.495420
-29.545492 -29.664000 -13.686370
-31.408953 -29.664000 -13.686370
-31.408953 -29.750000 -13.495420
31.496017 -31.528000 14.435650
-31.496017 -31.528000 14.435650
-31.313622 -31.198999 14.347750
31.313618 -31.198999 14.347750
-31.496017 14.061000 9.852250
-30.708616 14.061000 9.852250
-30.708616 25.556999 9.852250
-31.496017 25.556999 9.852250
-29.637302 29.756001 -13.425220
-29.637302 31.528000 -13.425220
-30.708616 14.061000 11.098950
-31.496017 14.061000 11.098950
-31.496017 25.556999 11.098950
-30.708616 25.556999 11.098950
-31.496017 26.777000 8.041250
-30.708616 26.777000 8.041250
-30.708616 28.667000 8.041250
-31.496017 28.667000 8.041250
-30.708616 26.777000 11.098950
-30.708616 26.777000 8.041250
-31.496017 26.777000 8.041250
-31.496017 26.777000 11.098950
-31.408953 29.664000 -13.686370
-29.545492 29.664000 -13.686370
-29.631351 29.750000 -13.495420
-31.408953 29.750000 -13.495420
-29.440453 -29.559000 11.889750
-29.440453 -31.528000 11.889750
-29.440453 -31.528000 -13.070880
-29.440453 -29.559000 -13.070880
25.491419 30.740000 7.438350
25.491419 31.528000 7.438350
29.598919 31.528000 7.438350
29.598919 30.740000 7.438350
0.079218 30.740000 9.053950
0.079218 31.528000 9.053950
25.491419 31.528000 9.053950
25.491419 30.740000 9.053950
31.496017 -29.480000 7.438350
30.708618 -29.480000 7.438350
30.708618 -25.372999 7.438350
31.496017 -25.372999 7.438350
-31.496017 -31.528000 14.435650
-31.496017 31.528000 14.435650
12.801318 30.740000 9.852250
12.801318 30.740000 11.098950
12.801318 31.528000 11.098950
12.801318 31.528000 9.852250
-29.719301 31.528000 -15.748050
-31.408953 31.528000 -15.748050
-31.408953 31.528000 11.889750
-29.440453 31.528000 11.889750
-29.440453 31.528000 -13.070880
-29.545492 31.528000 -13.164060
-29.613682 31.528000 -13.286800
-29.637302 31.528000 -13.425220
-29.613682 31.528000 -13.563630
-29.545492 31.528000 -13.686370
-29.440453 31.528000 -13.779550
-25.438103 31.528000 9.852250
-25.438103 30.740000 9.852250
-13.942082 30.740000 9.852250
-13.942082 31.528000 9.852250
30.708618 0.039000 9.053950
30.708618 0.039000 11.889750
31.496017 0.039000 11.889750
31.496017 0.039000 9.053950
30.708618 -25.372999 7.438350
30.708618 -25.372999 9.053950
31.496017 -25.372999 9.053950
31.496017 -25.372999 7.438350
31.496017 -25.372999 9.053950
30.708618 -25.372999 9.053950
30.708618 0.039000 9.053950
31.496017 0.039000 9.053950
29.806417 31.528000 -15.748050
31.496017 31.528000 -15.748050
31.496017 29.837999 -15.748050
29.806417 29.837999 -15.748050
-31.408953 29.559000 -13.779550
-29.440453 29.559000 -13.779550
29.806417 31.528000 -15.748050
29.527517 31.528000 -13.779550
29.632618 31.528000 -13.686370
29.700817 31.528000 -13.563630
29.724419 31.528000 -13.425220
29.700817 31.528000 -13.286800
29.632618 31.528000 -13.164060
29.527517 31.528000 -13.070880
29.527517 31.528000 11.889750
31.496017 31.528000 11.889750
31.496017 31.528000 -15.748050
29.527517 31.528000 -13.070880
29.527517 29.559000 -13.070880
29.718418 -29.750000 -13.495420
31.496017 -29.750000 -13.495420
-29.631351 -29.750000 -13.355010
-31.408953 -29.750000 -13.355010
-31.408953 29.750000 -13.355010
-29.631351 29.750000 -13.355010
-29.545492 29.664000 -13.164060
-31.408953 29.664000 -13.164060
30.708618 -1.187000 11.098950
30.708618 -1.187000 9.852250
31.496017 -1.187000 9.852250
31.496017 -1.187000 11.098950
-31.496017 -31.528000 13.123350
31.496017 -31.528000 13.123350
30.708618 -12.683000 9.852250
30.708618 -12.683000 11.098950
31.496017 -12.683000 11.098950
31.496017 -12.683000 9.852250
30.708618 -12.683000 9.852250
31.496017 -12.683000 9.852250
31.496017 -1.187000 9.852250
30.708618 -1.187000 9.852250
29.527517 29.559000 -13.779550
29.806417 29.837999 -15.748050
31.496017 29.837999 -15.748050
31.496017 29.559000 -13.779550
31.401617 -31.358000 13.145650
31.401617 31.358000 13.145650
31.238117 31.063999 13.315550
31.238117 -31.063999 13.315550
30.708618 -25.478001 9.852250
30.708618 -25.478001 11.098950
31.496017 -25.478001 11.098950
31.496017 -25.478001 9.852250
30.708618 -25.478001 9.852250
31.496017 -25.478001 9.852250
31.496017 -13.982000 9.852250
30.708618 -13.982000 9.852250
0.079218 30.740000 11.889750
0.079218 30.740000 9.053950
25.491419 30.740000 9.053950
25.491419 30.740000 7.438350
26.817019 30.740000 8.041250
31.496017 31.528000 13.123350
-31.496017 31.528000 13.123350
31.496017 0.039000 9.053950
31.496017 0.039000 11.889750
30.708618 0.039000 11.889750
30.708618 0.039000 9.053950
1.305218 31.528000 9.852250
1.305218 30.740000 9.852250
12.801318 30.740000 9.852250
12.801318 31.528000 9.852250
30.708618 -28.587999 8.041250
30.708618 -28.587999 11.098950
31.496017 -28.587999 11.098950
31.496017 -28.587999 8.041250
29.632618 31.528000 -13.686370
29.632618 29.664000 -13.686370
31.496017 -31.528000 14.435650
31.496017 31.528000 14.435650
30.708618 25.452000 9.053950
30.708618 0.039000 9.053950
30.708618 26.777000 8.041250
30.708618 28.667000 8.041250
30.708618 29.559000 7.438350
30.708618 25.452000 7.438350
29.718418 -29.750000 -13.355010
31.496017 -29.750000 -13.355010
-29.440453 29.559000 -13.779550
-29.719301 29.837999 -15.748050
-29.719301 31.528000 -15.748050
-29.440453 31.528000 -13.779550
30.708618 0.039000 11.889750
31.496017 0.039000 11.889750
31.496017 29.559000 11.889750
30.708618 29.559000 11.889750
-31.408953 29.837999 -15.748050
-31.408953 31.528000 -15.748050
-29.719301 31.528000 -15.748050
-29.719301 29.837999 -15.748050
31.496017 25.452000 7.438350
30.708618 25.452000 7.438350
30.708618 29.559000 7.438350
31.496017 29.559000 7.438350
31.496017 0.039000 9.053950
30.708618 0.039000 9.053950
30.708618 25.452000 9.053950
31.496017 25.452000 9.053950
-31.408953 29.837999 -15.748050
-31.408953 29.559000 -13.779550
-31.408953 29.664000 -13.686370
-31.408953 29.750000 -13.495420
-31.408953 29.750000 -13.355010
-31.408953 29.664000 -13.164060
-31.408953 29.559000 -13.070880
-31.408953 29.559000 11.889750
-31.408953 31.528000 11.889750
-31.408953 31.528000 -15.748050
31.496017 0.039000 9.053950
31.496017 25.452000 9.053950
-31.496017 31.528000 15.669250
-31.496017 -31.528000 15.669250
-31.452244 -31.448999 15.748050
-31.452244 31.448999 15.748050
-29.613682 -29.732000 -13.286800
-29.613682 -31.528000 -13.286800
31.496017 26.777000 11.098950
30.708618 26.777000 11.098950
30.708618 28.667000 11.098950
31.496017 28.667000 11.098950
31.496017 1.265000 11.098950
30.708618 1.265000 11.098950
30.708618 12.761000 11.098950
31.496017 12.761000 11.098950
-29.440453 29.559000 -13.070880
-31.408953 29.559000 -13.070880
-31.496017 -31.528000 13.123350
-31.496017 31.528000 13.123350
-31.496017 31.528000 11.889750
-31.496017 -31.528000 11.889750
14.100518 30.740000 11.098950
14.100518 30.740000 9.852250
14.100518 31.528000 9.852250
14.100518 31.528000 11.098950
31.496017 26.777000 11.098950
31.496017 26.777000 8.041250
30.708618 26.777000 8.041250
30.708618 26.777000 11.098950
31.496017 25.556999 9.852250
31.496017 25.556999 11.098950
30.708618 25.556999 11.098950
30.708618 25.556999 9.852250
31.496017 14.061000 11.098950
31.496017 14.061000 9.852250
30.708618 14.061000 9.852250
30.708618 14.061000 11.098950
30.708618 14.061000 9.852250
31.496017 14.061000 9.852250
31.496017 25.556999 9.852250
30.708618 25.556999 9.852250
-31.496017 0.039000 9.053950
-31.496017 0.039000 11.889750
-30.708616 0.039000 11.889750
-30.708616 0.039000 9.053950
-29.440453 -30.740000 11.889750
-29.440453 -30.740000 7.438350
-29.440453 -31.528000 7.438350
-29.440453 -31.528000 11.889750
31.496017 -31.528000 11.889750
29.527517 -31.528000 11.889750
29.527517 -31.528000 -13.070880
29.632618 -31.528000 -13.164060
29.700817 -31.528000 -13.286800
29.724419 -31.528000 -13.425220
29.700817 -31.528000 -13.563630
29.632618 -31.528000 -13.686370
29.527517 -31.528000 -13.779550
29.806417 -31.528000 -15.748050
31.496017 -31.528000 -15.748050
-29.440453 -30.740000 11.889750
-29.440453 -31.528000 11.889750
0.079218 -31.528000 11.889750
0.079218 -30.740000 11.889750
-31.496017 0.039000 9.053950
31.496017 -29.664000 -13.164060
31.496017 -29.559000 -13.070880
31.496017 -29.559000 11.889750
31.496017 -31.528000 11.889750
31.496017 -31.528000 -15.748050
31.496017 -29.837999 -15.748050
31.496017 -29.559000 -13.779550
31.496017 -29.664000 -13.686370
31.496017 -29.750000 -13.495420
31.496017 -29.750000 -13.355010
-25.332941 -30.740000 9.053950
-26.658571 -30.740000 11.098950
-28.548332 -30.740000 11.098950
-29.440453 -30.740000 11.889750
0.079218 -30.740000 11.889750
-1.146782 -30.740000 11.098950
-12.642782 -30.740000 11.098950
-13.942082 -30.740000 11.098950
-25.438103 -30.740000 11.098950
0.079218 -30.740000 9.053950
-31.496017 -29.480000 11.889750
-31.496017 -29.480000 7.438350
-30.708616 -29.480000 7.438350
-30.708616 -29.480000 11.889750
-25.332941 -31.528000 9.053950
-25.332941 -30.740000 9.053950
0.079218 -30.740000 9.053950
0.079218 -31.528000 9.053950
-25.332941 -30.740000 7.438350
-25.332941 -30.740000 9.053950
-25.332941 -31.528000 9.053950
-25.332941 -31.528000 7.438350
29.527517 31.528000 -13.779550
29.806417 31.528000 -15.748050
29.806417 29.837999 -15.748050
29.527517 29.559000 -13.779550
-12.642782 -31.528000 11.098950
-12.642782 -30.740000 11.098950
-1.146782 -30.740000 11.098950
-1.146782 -31.528000 11.098950
29.527517 -29.559000 11.889750
29.527517 -29.559000 -13.070880
29.527517 -31.528000 -13.070880
29.527517 -31.528000 11.889750
-30.708616 -29.480000 7.438350
-31.496017 -29.480000 7.438350
-31.496017 -25.372999 7.438350
-30.708616 -25.372999 7.438350
-30.708616 -25.372999 9.053950
-31.496017 -25.372999 9.053950
-31.496017 0.039000 9.053950
-30.708616 0.039000 9.053950
0.079218 -31.528000 9.053950
0.079218 -31.528000 11.889750
-12.642782 -31.528000 11.098950
-1.146782 -31.528000 11.098950
-25.438103 -31.528000 11.098950
-13.942082 -31.528000 11.098950
-28.548332 -31.528000 11.098950
-26.658571 -31.528000 11.098950
-29.440453 29.559000 -13.779550
-29.440453 31.528000 -13.779550
29.527517 31.528000 -13.779550
29.527517 29.559000 -13.779550
29.527517 -29.559000 -13.070880
29.527517 -31.528000 -13.070880
-30.708616 -28.587999 8.041250
-30.708616 -28.587999 11.098950
-30.708616 -29.480000 7.438350
-30.708616 -25.372999 7.438350
29.527517 -29.559000 11.889750
31.496017 -29.559000 11.889750
31.496017 -29.559000 -13.070880
29.527517 -29.559000 -13.070880
31.496017 -31.528000 13.123350
31.496017 31.528000 13.123350
-31.496017 12.761000 11.098950
-31.496017 1.265000 11.098950
-25.438103 -31.528000 11.098950
-25.438103 -30.740000 11.098950
-13.942082 -30.740000 11.098950
-13.942082 -31.528000 11.098950
-29.440453 -29.559000 -13.779550
-31.408953 -29.559000 -13.779550
31.143719 -30.893999 13.609650
31.143719 30.893999 13.609650
4 0 1 2 3
3 4 5 6
3 5 7 6
4 8 9 10 11
4 12 13 14 15
12 16 17 18 19 20 21 22 23 24 25 26 27
4 28 29 30 31
4 32 33 34 35
10 36 37 38 39 40 41 42 43 44 45
4 46 47 48 49
11 50 51 52 53 54 55 56 57 58 59 60
4 61 62 63 64
4 65 66 67 68
4 69 70 71 72
4 73 74 75 76
4 77 78 79 80
4 81 82 83 84
4 85 86 87 88
3 89 90 91
3 90 92 91
4 93 94 95 96
4 97 98 99 100
4 101 102 103 104
4 105 106 107 108
4 109 110 111 112
4 113 114 115 116
4 117 118 119 120
4 121 122 123 124
4 125 126 127 128
3 129 130 131
3 129 131 132
12 18 17 133 134 135 136 26 25 137 23 22 138
4 139 140 141 142
4 143 144 145 146
4 147 148 149 150
3 151 152 153
3 151 153 154
12 87 86 155 156 157 158 159 160 85 88 161 162
4 163 164 165 166
4 167 168 169 170
4 171 172 173 174
4 175 176 177 178
4 179 180 181 182
4 183 184 185 186
6 187 188 189 190 191 192
4 193 194 195 196
4 197 198 199 200
4 201 202 203 204
4 205 206 207 208
4 209 210 211 212
4 213 214 215 216
4 217 218 219 220
4 221 222 223 224
4 225 226 192 191
4 227 228 229 230
4 231 81 84 232
4 233 234 235 236
4 237 238 239 240
4 241 242 243 244
4 245 246 247 248
4 249 250 251 252
4 253 254 255 256
4 257 258 259 260
4 261 262 263 264
4 265 167 170 266
4 267 268 269 270
4 271 265 266 272
4 273 274 275 276
4 277 278 279 280
11 281 282 283 284 285 286 154 153 287 288 289
4 290 291 292 293
3 294 295 296
3 295 297 296
4 298 299 300 301
18 302 303 304 305 306 307 308 309 310 311 312 313 314 315 316 317 318 319
4 320 321 322 323
16 324 325 326 327 328 295 294 329 330 296 297 331 332 333 334 335
4 336 337 338 339
4 340 341 342 343
4 344 345 346 347
4 348 349 350 351
6 305 304 319 318 311 310
4 352 353 354 355
3 356 357 358
3 357 359 358
4 360 361 362 363
4 364 365 366 367
4 368 369 370 371
4 372 252 251 373
4 374 375 376 377
4 378 379 380 381
4 382 383 384 385
16 386 387 388 389 390 391 132 131 392 393 130 394 395 396 397 398
4 399 400 401 402
4 403 404 405 406
4 407 408 409 410
4 411 412 413 414
4 415 416 417 418
4 419 420 421 422
3 423 424 425
3 423 425 426
4 427 428 429 430
15 5 4 431 432 6 433 434 435 436 437 438 439 7 440 441
4 442 443 444 445
4 446 447 448 449
4 225 450 451 226
4 452 453 454 455
4 456 457 458 459
3 460 461 462
3 460 462 463
4 464 465 466 467
15 468 461 469 470 471 472 473 474 475 476 477 478 463 462 479
4 480 481 482 483
4 118 484 485 119
4 486 487 488 489
4 490 491 492 493
4 494 495 496 497
4 498 499 500 501
4 502 503 504 505
3 506 507 508
3 507 509 508
4 510 511 512 513
17 514 515 516 517 518 519 520 521 522 523 524 508 509 525 526 507 506
7 520 519 516 515 508 524 527
3 528 529 158
3 529 159 158
4 530 531 532 533
10 529 528 534 535 158 157 536 85 160 537
4 538 539 540 541
4 542 543 544 545
4 546 547 548 549
9 439 550 551 436 435 552 433 6 7
4 553 271 272 554
4 555 556 557 558
12 559 560 561 562 563 564 565 566 567 568 569 570
4 571 572 573 574
4 575 576 577 578
4 579 580 581 582
3 569 564 561
3 569 561 560
4 583 584 585 586
4 587 588 589 590
4 591 592 593 594
4 595 596 597 598
4 599 600 601 602
4 603 604 605 606
4 607 608 609 610
4 611 612 613 614
4 615 616 617 618
4 619 620 621 622
4 623 624 625 626
3 627 628 629
3 627 629 630
4 631 632 633 634
15 635 636 628 637 638 639 640 641 642 643 644 645 646 630 629
4 647 648 649 650
4 651 652 653 654
4 655 656 657 658
4 659 660 661 662
4 663 664 665 666
4 667 668 669 670
4 671 672 673 674
3 675 676 677
3 676 678 677
4 679 680 681 682
4 683 684 685 686
4 687 688 689 690
4 691 692 693 694
4 695 696 697 698
4 581 699 700 582
6 701 702 703 704 705 706
4 707 708 709 710
3 711 712 713
3 712 714 713
4 168 715 716 169
4 717 718 719 720
4 721 722 723 724
4 725 726 727 728
4 729 730 731 732
6 358 733 734 735 736 737
4 738 739 740 741
4 742 743 744 745
12 359 746 747 357 356 736 735 748 749 750 733 358
4 751 752 753 754
4 755 756 757 758
4 759 760 761 762
4 763 764 765 766
4 767 768 769 770
4 771 772 773 774
4 775 776 777 778
3 317 316 313
3 317 313 312
4 779 780 781 782
4 783 784 785 786
4 787 788 789 790
4 791 792 793 794
4 795 796 797 798
4 799 800 801 802
4 803 804 805 806
4 807 808 809 810
4 811 812 813 814
3 16 27 135
3 16 135 134
4 815 816 817 818
4 819 820 821 822
8 398 823 394 130 129 390 389 386
4 824 825 826 827
4 828 829 830 831
4 832 833 834 835
4 836 837 838 839
14 840 841 427 430 842 843 844 424 423 845 846 847 429 428
13 848 849 850 851 91 92 852 853 854 855 856 857 858
4 859 860 861 862
4 863 864 865 866
4 867 868 869 870
4 871 872 873 874
10 875 876 877 878 879 880 881 882 883 884
4 885 886 887 888
4 889 890 891 892
4 893 894 895 896
4 269 257 260 270
4 853 858 857 854
4 897 898 899 900
4 901 902 903 904
9 90 89 905 906 91 851 853 852 907
5 326 325 908 335 334
9 461 460 477 476 909 910 473 472 469
4 911 912 913 914
4 915 916 917 918
4 919 920 921 922
4 923 924 925 926
4 927 928 929 930
4 931 932 933 934
4 935 936 937 938
4 777 776 545 544
4 939 940 941 942
4 699 943 944 700
4 945 946 947 948
4 82 117 120 83
4 778 717 720 775
4 949 950 951 952
4 953 954 955 956
4 957 958 959 960
4 961 962 963 964
4 965 966 967 968
4 943 498 501 944
4 969 970 971 972
4 973 974 975 976
4 451 450 977 978
4 979 980 981 982
11 983 984 985 986 987 988 989 990 991 992 993
4 994 995 996 997
4 998 999 1000 1001
4 1002 1003 1004 1005
4 1006 1007 1008 1009
4 1010 1011 1012 1013
4 958 957 1014 1015
11 1016 1017 1018 1019 1020 1021 1022 1023 1024 1025 1026
4 902 189 188 903
4 1027 248 247 1028
4 9 8 1029 1030
4 235 1031 1032 236
4 1033 1034 1035 1036
4 1037 1038 1039 1040
4 1041 1042 268 267
4 1043 1044 1045 1046
4 1047 1048 1049 1050
4 1051 1052 1053 1054
4 1055 1056 1057 1058
4 1059 1060 1061 1062
4 1063 1064 1065 1066
13 152 151 285 284 1067 1068 1069 1070 283 282 1071 289 288
4 1072 1073 543 542
4 1074 1075 1076 1077
4 1078 1079 1080 1081
4 1082 1083 1084 1085
4 230 229 1086 1087
4 1088 372 373 1089
12 1090 1091 565 564 569 568 1092 1093 567 566 1094 1095
4 1096 1097 1030 1029
4 1098 1099 1100 1101
4 1102 1103 1104 1105
4 1106 1107 1108 1109
4 1110 1111 1112 1113
4 1114 1115 1116 1117
10 1118 1119 1120 1121 1122 1123 1124 1125 1126 1127
9 1128 1129 641 640 637 628 627 645 644
4 1130 1131 1132 1133
4 70 69 1134 1135
4 492 491 1135 1134
4 1136 1137 1138 1139
4 1140 1141 1142 1143
4 1036 1035 1144 1145
4 1146 1147 1148 1149
4 1150 1151 1152 1153
4 1031 931 934 1032
4 1154 1155 1156 1157
4 1158 1159 1160 1161
4 1162 1163 1164 1165
4 1166 1167 1168 1169
4 345 344 1097 1096
4 1170 1171 1172 1173
4 1174 1175 1176 1177
11 1178 1179 1180 1181 1182 1183 1184 1185 1186 1187 1188
4 596 595 72 71
4 938 937 259 258
4 1189 1190 1191 1192
5 331 297 327 326 1193
10 1194 1195 1196 1197 1198 1199 1200 1201 1202 1203
17 1204 323 322 1205 1206 321 320 1207 1208 678 1209 1210 676 675 1211 1212 677
5 1213 1204 677 678 1208
4 1034 1033 960 959
4 1214 1215 1216 1217
4 1218 1219 1220 1221
4 1222 1223 1224 1225
4 1226 1227 1228 1229
4 246 245 228 227
4 1230 1231 1232 1233
4 1234 1235 1236 1237
4 1238 1239 1240 1241
4 1242 1243 1244 1245
6 713 1246 1247 706 1248 1249
14 714 1250 1251 712 711 1248 706 705 1252 1253 704 703 1246 713
4 499 1254 1255 500
4 1087 1086 1256 1257
4 1258 553 554 1259
8 1260 1261 748 735 1262 1263 750 749
4 1264 1265 1266 1267
4 1056 1055 1268 1269
8 847 846 426 425 1270 1271 424 844
4 1272 1273 1274 1275
4 1276 1277 933 932
6 1278 1058 1057 1279 250 249
