ply
format ascii 1.0
comment Created by Blender 2.82 (sub 7) - www.blender.org, source file: ''
element vertex 565
property float x
property float y
property float z
element face 192
property list uchar uint vertex_indices
end_header
-6.261890 7.899190 -14.638602
-4.004100 9.250720 -14.638602
-4.013600 9.272860 -14.623002
-6.276880 7.918090 -14.623002
-9.394980 3.718800 -14.623002
-10.037360 1.160500 -14.623002
-10.013390 1.157700 -14.638602
-9.372550 3.709900 -14.638602
-3.680500 -9.298100 -14.621302
-7.836420 -6.212100 -14.621302
-7.836420 -6.212100 -14.521302
-3.680500 -9.298100 -14.521302
14.867400 -14.867400 14.632249
14.808500 -14.808500 14.643802
14.808500 14.808488 14.643802
14.867400 14.867380 14.632249
1.465100 -9.915900 -14.504902
-3.689200 -9.320000 -14.504902
-3.680500 -9.298100 -14.521302
1.461700 -9.892600 -14.521302
6.212100 -7.836400 -14.521302
6.226800 -7.854900 -14.504902
-9.272860 -4.013600 -14.519602
-7.918090 -6.276900 -14.519602
-7.930750 -6.286900 -14.543302
-9.287690 -4.020100 -14.543302
-10.011690 -1.479300 -14.543302
-9.995710 -1.476900 -14.519602
-14.808488 14.808488 14.643802
-14.808488 -14.808500 14.643802
-14.867380 -14.867400 14.632249
-14.867380 14.867380 14.632249
-9.410010 3.724800 -14.543302
-10.017310 -1.480100 -14.571302
-10.059050 1.163000 -14.571302
-9.415290 3.726900 -14.571302
8.028700 -5.961600 -14.521302
3.972200 -9.177200 -14.521302
3.972200 -9.177200 -14.504902
8.028700 -5.961600 -14.504902
7.836400 6.212130 -14.521302
7.836400 6.212130 -14.504902
3.680500 9.298070 -14.504902
3.680500 9.298070 -14.521302
14.963200 -14.963200 14.536390
14.963200 14.963242 14.536390
15.000000 15.000000 14.378698
15.000000 -15.000000 14.378698
3.724800 9.410010 -14.543302
7.930800 6.286920 -14.543302
7.918100 6.276880 -14.519602
3.718800 9.394980 -14.519602
1.160500 10.037360 -14.519602
1.162400 10.053410 -14.543302
14.808500 14.808488 14.643802
-14.808488 14.808488 14.643802
-14.867380 14.867380 14.632249
14.867400 14.867380 14.632249
1.295300 0.747800 -14.504902
1.495700 0.000000 -14.504902
1.495700 0.000000 -14.621302
1.295300 0.747800 -14.621302
9.892600 1.461700 -14.621302
9.298100 -3.680500 -14.621302
9.298100 -3.680500 -14.521302
9.298100 -3.680500 -14.504902
9.892600 1.461700 -14.504902
9.892600 1.461700 -14.521302
-7.854910 -6.226800 -14.504902
-9.915950 -1.465100 -14.504902
-9.320020 3.689200 -14.504902
-9.298070 3.680500 -14.521302
-9.892600 -1.461700 -14.521302
-7.836420 -6.212100 -14.521302
0.000000 1.495700 -14.621302
0.000000 1.495700 -14.504902
0.747800 1.295300 -14.504902
0.747800 1.295300 -14.621302
14.750000 14.750000 14.378698
14.750000 14.750000 14.628698
-14.750000 14.750000 14.628698
-14.750000 14.750000 14.378698
-3.724800 -9.410000 -14.543302
-1.162400 -10.053400 -14.543302
-1.163000 -10.059100 -14.571302
-3.726900 -9.415300 -14.571302
-6.036730 -8.129900 -14.571302
-6.033350 -8.125300 -14.543302
-6.226790 7.854910 -14.637702
-6.212130 7.836420 -14.621302
-1.461700 9.892600 -14.621302
3.680500 9.298070 -14.621302
3.689200 9.320020 -14.637702
1.151300 9.957270 -14.637702
-1.465100 9.915950 -14.637702
14.808500 -14.808500 14.643802
-14.808488 -14.808500 14.643802
-14.750000 -14.750000 14.628698
14.750000 -14.750000 14.628698
-14.750000 14.750000 14.628698
-14.750000 -14.750000 14.628698
-14.750000 -14.750000 14.378698
-14.750000 14.750000 14.378698
-6.286920 7.930750 -14.599302
-4.020100 9.287690 -14.599302
-1.479300 10.011690 -14.599302
-1.480100 10.017310 -14.571302
-4.022300 9.292910 -14.571302
-6.290440 7.935200 -14.571302
14.750000 14.750000 14.378698
14.750000 14.750000 14.128698
-14.750000 14.750000 14.128698
-14.750000 14.750000 14.378698
-14.963242 14.963242 14.221008
-14.963242 -14.963200 14.221008
-14.920753 -14.920800 14.162193
-14.920753 14.920753 14.162193
-14.867380 -14.867400 14.125147
-14.808488 -14.808500 14.113594
-14.808488 14.808488 14.113594
-14.867380 14.867380 14.125147
14.963200 -14.963200 14.221008
14.963200 14.963242 14.221008
14.920800 14.920753 14.162193
14.920800 -14.920800 14.162193
14.920800 -14.920800 14.595203
14.920800 14.920753 14.595203
-14.920753 -14.920800 14.162193
14.920800 -14.920800 14.162193
14.867400 -14.867400 14.125147
-14.867380 -14.867400 14.125147
1.479300 -10.011700 -14.599302
4.020100 -9.287700 -14.599302
6.286900 -7.930800 -14.599302
6.276900 -7.918100 -14.623002
1.476900 -9.995700 -14.623002
-15.000000 -15.000000 14.378698
-15.000000 15.000000 14.378698
-14.963242 14.963242 14.536390
-14.963242 -14.963200 14.536390
0.000000 -1.495700 14.378698
-0.747800 -1.295300 14.378698
-0.747800 -1.295300 -14.504902
0.000000 -1.495700 -14.504902
14.750000 -14.750000 14.628698
14.750000 14.750000 14.628698
14.750000 -14.750000 14.628698
14.750000 -14.750000 14.378698
-14.750000 -14.750000 14.378698
-14.750000 -14.750000 14.628698
-6.033350 -8.125300 -14.599302
-7.930750 -6.286900 -14.599302
-9.287690 -4.020100 -14.599302
-9.292910 -4.022300 -14.571302
-7.935200 -6.290400 -14.571302
-8.125320 6.033350 -14.543302
-8.129880 6.036730 -14.571302
-6.286920 7.930750 -14.543302
14.750000 14.750000 14.128698
14.750000 -14.750000 14.128698
14.808500 -14.808500 14.113594
14.808500 14.808488 14.113594
15.000000 15.000000 14.378698
14.963200 14.963242 14.536390
-14.963242 14.963242 14.536390
-15.000000 15.000000 14.378698
0.747800 1.295300 14.378698
1.295300 0.747800 14.378698
1.295300 0.747800 -14.504902
0.747800 1.295300 -14.504902
-6.212130 7.836420 -14.504902
-9.298070 3.680500 -14.504902
-9.298070 3.680500 -14.521302
-6.212130 7.836420 -14.521302
1.295300 -0.747800 14.378698
0.747800 -1.295300 14.378698
0.747800 -1.295300 -14.504902
1.295300 -0.747800 -14.504902
14.920800 -14.920800 14.595203
-14.920753 -14.920800 14.595203
-14.867380 -14.867400 14.632249
14.867400 -14.867400 14.632249
1.476900 -9.995700 -14.519602
-3.718800 -9.395000 -14.519602
-3.709900 -9.372600 -14.504002
1.473400 -9.971800 -14.504002
4.004100 -9.250700 -14.504002
4.013600 -9.272900 -14.519602
-0.747800 1.295300 -14.504902
-0.747800 1.295300 -14.621302
-1.295300 0.747800 -14.621302
-1.295300 0.747800 -14.504902
-9.892600 -1.461700 -14.521302
-9.298070 3.680500 -14.521302
-9.298070 3.680500 -14.621302
-9.892600 -1.461700 -14.621302
3.680500 9.298070 -14.521302
3.680500 9.298070 -14.621302
-1.461700 9.892600 -14.621302
-1.461700 9.892600 -14.521302
3.680500 9.298070 -14.621302
-14.963242 -14.963200 14.536390
14.963200 -14.963200 14.536390
15.000000 -15.000000 14.378698
-15.000000 -15.000000 14.378698
14.750000 -14.750000 14.128698
14.750000 -14.750000 14.378698
-14.750000 -14.750000 14.378698
-14.750000 -14.750000 14.128698
-1.495700 0.000000 -14.504902
-1.495700 0.000000 -14.621302
-1.461700 9.892600 -14.504902
1.461700 -9.892600 -14.504902
-3.680500 -9.298100 -14.504902
-7.836420 -6.212100 -14.504902
-9.177210 -3.972200 -14.504902
0.000000 -1.495700 -14.504902
0.747800 -1.295300 -14.504902
1.295300 -0.747800 -14.504902
1.495700 0.000000 -14.504902
1.295300 0.747800 -14.504902
0.747800 1.295300 -14.504902
0.000000 1.495700 -14.504902
-0.747800 1.295300 -14.504902
-1.057600 1.057600 -14.504902
-9.892600 -1.461700 -14.504902
14.750000 14.750000 14.378698
14.750000 -14.750000 14.378698
14.750000 -14.750000 14.128698
14.750000 14.750000 14.128698
14.750000 -14.750000 14.628698
14.750000 14.750000 14.628698
14.750000 14.750000 14.378698
14.750000 -14.750000 14.378698
15.000000 -15.000000 14.378698
15.000000 15.000000 14.378698
-9.943800 -1.469200 -14.643802
-9.346200 3.699500 -14.643802
-6.244280 7.876980 -14.643802
-1.469200 9.943800 -14.643802
1.154500 9.985240 -14.643802
7.854900 6.226790 -14.637702
9.915900 1.465100 -14.637702
9.320000 -3.689200 -14.637702
6.226800 -7.854900 -14.637702
1.465100 -9.915900 -14.637702
-3.689200 -9.320000 -14.637702
-3.699500 -9.346200 -14.643802
1.469200 -9.943800 -14.643802
6.244300 -7.877000 -14.643802
9.346200 -3.699500 -14.643802
9.943800 1.469200 -14.643802
9.250700 4.004100 -14.638602
7.899200 6.261890 -14.638602
3.709900 9.372550 -14.638602
1.157700 10.013390 -14.638602
-1.473400 9.971840 -14.638602
-9.971840 -1.473400 -14.638602
-7.899190 -6.261900 -14.638602
1.160500 10.037360 -14.623002
-1.476900 9.995710 -14.623002
-1.479300 10.011690 -14.543302
-14.920753 14.920753 14.595203
-14.920753 -14.920800 14.595203
1.461700 -9.892600 -14.621302
1.461700 -9.892600 -14.521302
-9.971840 -1.473400 -14.504002
-9.250720 -4.004100 -14.504002
-9.394980 3.718800 -14.519602
-8.112350 6.023710 -14.519602
-8.092980 6.009330 -14.504002
-9.372550 3.709900 -14.504002
9.971800 1.473400 -14.504002
9.250700 4.004100 -14.504002
9.272900 4.013600 -14.519602
9.995700 1.476900 -14.519602
10.037400 -1.160500 -14.519602
9.395000 -3.718800 -14.519602
9.372600 -3.709900 -14.504002
10.013400 -1.157700 -14.504002
-14.808488 14.808488 14.113594
-14.750000 14.750000 14.128698
14.750000 14.750000 14.128698
14.808500 14.808488 14.113594
-1.473400 9.971840 -14.504002
-6.261890 7.899190 -14.504002
-6.276880 7.918090 -14.519602
-1.476900 9.995710 -14.519602
1.157700 10.013390 -14.504002
-3.680500 -9.298100 -14.621302
-3.680500 -9.298100 -14.521302
-1.000000 -1.732100 14.378698
0.000000 -2.000000 14.378698
-15.000000 -15.000000 14.378698
-15.000000 15.000000 14.378698
15.000000 15.000000 14.378698
15.000000 -15.000000 14.378698
2.000000 0.000000 14.378698
1.732100 1.000000 14.378698
1.000000 1.732100 14.378698
0.517600 1.931900 14.378698
-0.517600 1.931900 14.378698
-1.000000 1.732100 14.378698
-1.732100 1.000000 14.378698
-1.931900 0.517600 14.378698
-1.931900 -0.517600 14.378698
-1.732100 -1.000000 14.378698
9.292900 4.022300 -14.571302
7.935200 6.290440 -14.571302
7.930800 6.286920 -14.599302
9.287700 4.020100 -14.599302
-14.750000 -14.750000 14.128698
-14.750000 14.750000 14.128698
6.036700 8.129880 -14.571302
3.726900 9.415290 -14.571302
14.920800 14.920753 14.595203
-14.920753 14.920753 14.595203
1.163000 10.059050 -14.571302
9.415300 -3.726900 -14.571302
10.059100 -1.163000 -14.571302
10.053400 -1.162400 -14.599302
9.410000 -3.724800 -14.599302
8.125300 -6.033300 -14.599302
8.129900 -6.036700 -14.571302
1.479300 -10.011700 -14.543302
4.020100 -9.287700 -14.543302
4.022300 -9.292900 -14.571302
1.480100 -10.017300 -14.571302
-0.747800 1.295300 -14.504902
-0.747800 1.295300 14.378698
0.000000 1.495700 14.378698
0.000000 1.495700 -14.504902
-3.718800 -9.395000 -14.623002
-1.160500 -10.037400 -14.623002
-1.157700 -10.013400 -14.638602
-3.709900 -9.372600 -14.638602
-7.918090 -6.276900 -14.623002
3.972200 -9.177200 -14.521302
3.972200 -9.177200 -14.621302
1.461700 -9.892600 -14.621302
1.461700 -9.892600 -14.521302
-7.836420 -6.212100 -14.521302
-9.892600 -1.461700 -14.521302
-1.495700 0.000000 14.378698
-1.295300 0.747800 14.378698
-1.295300 0.747800 -14.504902
-1.495700 0.000000 -14.504902
14.963200 -14.963200 14.221008
-14.963242 -14.963200 14.221008
6.212100 -7.836400 -14.621302
9.298100 -3.680500 -14.621302
15.000000 -15.000000 14.378698
-15.000000 -15.000000 14.378698
9.892600 1.461700 -14.521302
9.298100 -3.680500 -14.521302
9.298100 -3.680500 -14.621302
9.892600 1.461700 -14.621302
10.053400 -1.162400 -14.543302
10.011700 1.479300 -14.543302
9.287700 4.020100 -14.543302
10.017300 1.480100 -14.571302
-14.963242 14.963242 14.221008
14.963200 14.963242 14.221008
15.000000 15.000000 14.378698
-15.000000 15.000000 14.378698
1.461700 -9.892600 -14.621302
-3.680500 -9.298100 -14.621302
-14.920753 14.920753 14.162193
14.920800 14.920753 14.162193
14.867400 14.867380 14.125147
14.867400 -14.867400 14.125147
-9.915950 -1.465100 -14.637702
-7.854910 -6.226800 -14.637702
-7.836420 -6.212100 -14.621302
-9.892600 -1.461700 -14.621302
-9.298070 3.680500 -14.621302
-9.320020 3.689200 -14.637702
6.261900 -7.899200 -14.638602
9.372600 -3.709900 -14.638602
9.971800 1.473400 -14.638602
1.473400 -9.971800 -14.638602
-1.295300 -0.747800 14.378698
-1.295300 -0.747800 -14.504902
-14.867380 14.867380 14.125147
14.867400 14.867380 14.125147
-14.750000 14.750000 14.628698
-14.750000 -14.750000 14.628698
-1.461700 9.892600 -14.521302
-6.212130 7.836420 -14.521302
-6.226790 7.854910 -14.504902
-1.465100 9.915950 -14.504902
3.689200 9.320020 -14.504902
3.680500 9.298070 -14.521302
7.899200 6.261890 -14.504002
3.709900 9.372550 -14.504002
14.808500 -14.808500 14.113594
-14.808488 -14.808500 14.113594
-15.000000 15.000000 14.378698
-15.000000 -15.000000 14.378698
1.495700 0.000000 14.378698
1.495700 0.000000 -14.504902
-1.162400 -10.053400 -14.599302
-3.724800 -9.410000 -14.599302
-7.899190 -6.261900 -14.504002
6.244300 -7.877000 -14.498802
1.469200 -9.943800 -14.498802
-3.699500 -9.346200 -14.498802
9.943800 1.469200 -14.498802
7.877000 6.244280 -14.498802
3.699500 9.346200 -14.498802
-1.469200 9.943800 -14.498802
-6.244280 7.876980 -14.498802
-9.346200 3.699500 -14.498802
-0.747800 -1.295300 -14.504902
-1.295300 0.747800 -14.504902
-1.495700 0.000000 -14.504902
-1.295300 -0.747800 -14.504902
1.000000 -1.732100 14.378698
1.732100 -1.000000 14.378698
9.395000 -3.718800 -14.623002
10.011700 1.479300 -14.599302
6.033300 8.125320 -14.599302
6.023700 8.112350 -14.623002
7.918100 6.276880 -14.623002
9.272900 4.013600 -14.623002
9.995700 1.476900 -14.623002
14.750000 14.750000 14.628698
-14.750000 14.750000 14.628698
9.320000 -3.689200 -14.504902
9.915900 1.465100 -14.504902
7.854900 6.226790 -14.504902
6.261900 -7.899200 -14.504002
9.892600 1.461700 -14.521302
7.836400 6.212130 -14.521302
7.836400 6.212130 -14.621302
9.892600 1.461700 -14.621302
-10.011690 -1.479300 -14.599302
-10.053410 1.162400 -14.599302
-9.410010 3.724800 -14.599302
3.718800 9.394980 -14.623002
0.747800 -1.295300 -14.621302
0.000000 -1.495700 -14.621302
-0.747800 -1.295300 -14.621302
-1.295300 -0.747800 -14.621302
-1.495700 0.000000 -14.621302
-1.295300 0.747800 -14.621302
-0.747800 1.295300 -14.621302
0.000000 1.495700 -14.621302
0.747800 1.295300 -14.621302
1.295300 0.747800 -14.621302
1.495700 0.000000 -14.621302
1.295300 -0.747800 -14.621302
-9.995710 -1.476900 -14.623002
9.892600 1.461700 -14.521302
7.836400 6.212130 -14.521302
9.298100 -3.680500 -14.521302
-1.461700 9.892600 -14.521302
-6.212130 7.836420 -14.521302
-6.212130 7.836420 -14.621302
-1.461700 9.892600 -14.621302
0.747800 -1.295300 -14.504902
0.000000 -1.495700 -14.504902
0.000000 -1.495700 -14.621302
0.747800 -1.295300 -14.621302
6.276900 -7.918100 -14.519602
14.750000 -14.750000 14.628698
-14.750000 -14.750000 14.628698
-14.750000 14.750000 14.628698
14.750000 14.750000 14.628698
-9.298070 3.680500 -14.521302
-9.298070 3.680500 -14.621302
1.162400 10.053410 -14.599302
-9.892600 -1.461700 -14.521302
-9.892600 -1.461700 -14.621302
8.028700 -5.961600 -14.621302
8.028700 -5.961600 -14.521302
-1.295300 -0.747800 -14.504902
-1.295300 -0.747800 -14.621302
3.680500 9.298070 -14.521302
3.680500 9.298070 -14.621302
9.410000 -3.724800 -14.543302
7.836400 6.212130 -14.621302
6.286900 -7.930800 -14.543302
1.461700 -9.892600 -14.621302
1.461700 -9.892600 -14.521302
-3.680500 -9.298100 -14.521302
-3.680500 -9.298100 -14.621302
3.724800 9.410010 -14.599302
8.125300 -6.033300 -14.543302
6.290400 -7.935200 -14.571302
9.892600 1.461700 -14.621302
1.295300 -0.747800 -14.504902
1.295300 -0.747800 -14.621302
-0.747800 -1.295300 -14.504902
-0.747800 -1.295300 -14.621302
0.517600 -1.931900 14.378698
-0.517600 -1.931900 14.378698
-1.000000 -1.732100 14.378698
0.000000 -1.495700 14.378698
0.387100 -1.444700 14.378698
1.057600 -1.057600 14.378698
1.295300 -0.747800 14.378698
1.495700 0.000000 14.378698
1.295300 0.747800 14.378698
0.747800 1.295300 14.378698
0.000000 1.495700 14.378698
-0.747800 1.295300 14.378698
-1.295300 0.747800 14.378698
-1.495700 0.000000 14.378698
-1.295300 -0.747800 14.378698
-0.747800 -1.295300 14.378698
-1.414200 -1.414200 14.378698
-1.931900 -0.517600 14.378698
-1.931900 0.517600 14.378698
-1.732100 1.000000 14.378698
-1.000000 1.732100 14.378698
-0.517600 1.931900 14.378698
0.517600 1.931900 14.378698
1.000000 1.732100 14.378698
1.732100 1.000000 14.378698
1.931900 0.517600 14.378698
1.931900 -0.517600 14.378698
1.732100 -1.000000 14.378698
1.000000 -1.732100 14.378698
14.750000 -14.750000 14.128698
-14.750000 -14.750000 14.128698
-9.892600 -1.461700 -14.621302
-9.298070 3.680500 -14.621302
-1.461700 9.892600 -14.521302
-1.461700 9.892600 -14.621302
-0.517600 -1.931900 14.378698
0.517600 -1.931900 14.378698
1.000000 -1.732100 14.378698
0.387100 -1.444700 14.378698
0.000000 -1.495700 14.378698
-0.747800 -1.295300 14.378698
-1.295300 -0.747800 14.378698
-1.495700 0.000000 14.378698
-1.295300 0.747800 14.378698
-0.747800 1.295300 14.378698
0.000000 1.495700 14.378698
0.747800 1.295300 14.378698
1.295300 0.747800 14.378698
1.495700 0.000000 14.378698
1.295300 -0.747800 14.378698
0.747800 -1.295300 14.378698
1.414200 -1.414200 14.378698
1.931900 -0.517600 14.378698
1.931900 0.517600 14.378698
1.732100 1.000000 14.378698
1.000000 1.732100 14.378698
0.517600 1.931900 14.378698
-0.517600 1.931900 14.378698
-1.000000 1.732100 14.378698
-1.732100 1.000000 14.378698
-1.931900 0.517600 14.378698
-1.931900 -0.517600 14.378698
-1.732100 -1.000000 14.378698
-1.000000 -1.732100 14.378698
-14.750000 -14.750000 14.378698
-14.750000 14.750000 14.378698
-14.750000 14.750000 14.128698
-14.750000 -14.750000 14.128698
9.298100 -3.680500 -14.521302
9.298100 -3.680500 -14.621302
8 0 1 2 3 4 5 6 7
4 8 9 10 11
4 12 13 14 15
6 16 17 18 19 20 21
6 22 23 24 25 26 27
4 28 29 30 31
5 32 26 33 34 35
4 36 37 38 39
4 40 41 42 43
4 44 45 46 47
6 48 49 50 51 52 53
4 54 55 56 57
4 58 59 60 61
6 62 63 64 65 66 67
6 68 69 70 71 72 73
4 74 75 76 77
4 78 79 80 81
6 82 83 84 85 86 87
7 88 89 90 91 92 93 94
4 95 96 97 98
4 99 100 101 102
6 103 104 105 106 107 108
4 109 110 111 112
4 113 114 115 116
4 117 118 119 120
4 121 122 123 124
4 125 12 15 126
4 127 128 129 130
5 131 132 133 134 135
4 136 137 138 139
4 140 141 142 143
4 13 144 145 14
4 146 147 148 149
6 86 150 151 152 153 154
6 155 32 35 156 108 157
4 158 159 160 161
4 77 76 58 61
4 162 163 164 165
4 166 167 168 169
4 17 68 73 18
4 170 171 172 173
4 174 175 176 177
4 178 179 180 181
6 182 183 184 185 186 187
4 188 189 190 191
4 192 193 194 195
4 196 197 198 199
3 42 200 43
4 181 180 96 95
4 201 202 203 204
4 205 206 207 208
4 209 191 190 210
4 125 126 45 44
23 211 42 41 66 65 39 38 212 213 214 215 216 217 218 219 220 221 222 223 224 225 171 170
4 226 227 228 229
4 230 231 232 233
4 234 235 122 121
29 236 237 238 239 240 93 92 241 242 243 244 245 246 247 248 249 250 251 252 253 254 255 256 1 0 7 6 257 258
6 256 255 259 260 2 1
5 261 157 108 107 106
4 262 263 139 138
3 264 212 265
8 266 267 22 27 268 269 270 271
8 272 273 274 275 276 277 278 279
4 280 281 282 283
8 284 285 270 269 286 287 52 288
4 38 37 265 212
5 264 289 290 213 212
16 291 292 293 294 295 296 297 298 299 300 301 302 303 304 305 306
4 307 308 309 310
4 118 311 312 119
5 313 308 49 48 314
4 163 315 316 164
6 317 314 48 53 261 106
6 318 319 320 321 322 323
6 83 324 325 326 327 84
4 328 329 330 331
6 332 333 334 335 258 336
4 337 338 339 340
5 215 214 341 342 225
4 343 344 345 346
4 347 128 127 348
4 349 244 243 350
4 351 347 348 352
4 353 354 355 356
4 166 169 331 330
6 357 358 359 307 360 319
4 361 362 363 364
4 75 74 189 188
6 246 245 244 349 365 366
4 367 368 362 361
4 369 370 124 123
6 371 372 373 374 375 376
25 377 378 379 252 251 250 249 248 247 246 372 371 376 88 94 93 240 239 238 237 236 258 335 334 380
4 142 141 381 382
4 367 383 384 368
4 385 386 29 28
6 24 87 86 154 153 25
6 387 388 389 390 391 392
4 161 160 370 369
8 274 273 393 394 288 52 51 50
4 130 129 395 396
4 397 398 114 113
4 115 117 120 116
6 269 268 27 26 32 155
4 167 399 400 168
6 84 401 402 150 86 85
4 31 30 263 262
6 184 183 23 22 267 403
28 69 68 17 16 21 404 405 406 403 267 266 271 270 285 284 288 394 393 273 272 279 407 408 409 410 411 412 70
8 413 216 215 225 224 414 415 416
4 315 57 56 316
4 176 175 140 143
6 293 292 417 418 297 296
4 134 419 378 377
8 420 310 309 421 422 423 424 425
4 426 427 55 54
4 53 52 287 261
24 185 184 403 406 405 404 21 428 429 430 391 390 389 70 412 411 410 409 408 407 279 278 431 186
4 432 433 434 435
6 35 34 33 436 437 438
9 254 253 252 424 423 422 439 259 255
4 329 328 345 344
12 440 441 442 443 444 445 446 447 448 449 450 451
6 452 336 258 257 6 5
6 453 454 430 429 428 455
4 456 457 458 459
6 287 286 269 155 157 261
5 320 420 425 419 321
4 290 341 214 213
4 460 461 462 463
6 275 274 50 49 359 358
6 277 464 187 186 431 278
4 465 466 467 468
6 131 401 84 327 326 132
6 135 134 377 380 334 333
4 469 470 458 457
8 3 2 260 259 471 105 104 103
4 472 10 9 473
4 474 338 337 475
5 182 324 83 82 183
4 430 454 392 391
5 402 332 336 151 150
4 476 209 210 477
4 434 433 478 479
6 276 275 358 357 480 277
6 252 379 378 419 425 424
4 91 481 241 92
6 325 324 182 187 464 482
4 483 484 485 486
6 103 438 437 5 4 3
4 372 246 366 373
4 39 65 64 36
4 399 174 177 400
6 422 421 487 471 259 439
5 322 321 419 134 133
5 464 277 480 488 482
5 183 82 87 24 23
6 487 314 317 106 105 471
4 26 25 153 33
7 152 151 336 452 5 437 436
4 41 40 67 66
6 489 323 322 133 132 326
6 309 308 313 314 487 421
4 71 70 389 388
6 131 135 333 332 402 401
6 481 490 350 243 242 241
4 491 460 463 492
6 482 488 323 489 326 325
6 319 360 307 310 420 320
6 480 357 319 318 323 488
4 461 493 494 462
4 476 477 494 493
5 156 35 438 103 108
4 359 49 308 307
4 33 153 152 436
4 21 20 455 428
29 495 496 497 498 499 500 501 502 503 504 505 506 507 508 509 510 511 512 513 514 515 516 517 518 519 520 521 522 523
4 396 395 524 525
4 59 491 492 60
6 342 526 527 172 171 225
5 200 42 211 528 529
4 179 178 202 201
4 383 280 283 384
29 530 531 532 533 534 535 536 537 538 539 540 541 542 543 544 545 546 547 548 549 550 551 552 553 554 555 556 557 558
4 559 560 561 562
4 510 498 497 511
4 381 343 346 382
4 89 88 376 375
4 533 532 546 545
4 475 563 564 474
4 211 170 173 528
