ply
format ascii 1.0
comment Created by Blender 2.82 (sub 7) - www.blender.org, source file: ''
element vertex 311
property float x
property float y
property float z
element face 72
property list uchar uint vertex_indices
end_header
-11.978290 -17.500000 15.000000
-16.166990 -13.728700 15.000000
-14.978290 -21.500000 15.000000
15.021710 -21.500000 15.000000
-11.978290 -18.500000 15.000000
-11.978290 -17.500000 15.000000
-11.978290 -17.500000 -16.000000
-10.978290 -17.500000 -16.000000
-10.978290 -17.500000 15.000000
-11.978290 -18.500000 15.000000
15.021710 -21.500000 15.000000
-14.978290 -21.500000 15.000000
-16.166990 -13.728700 15.000000
-11.978290 -17.500000 15.000000
12.021710 -17.500000 15.000000
12.021710 -17.500000 -16.000000
11.021710 -17.500000 -16.000000
11.021710 -17.500000 15.000000
-16.961710 1.965700 16.000000
-16.829130 5.894900 16.000000
-16.564131 9.817400 16.000000
-16.166990 13.728670 16.000000
-15.638176 17.624359 16.000000
-14.978290 21.500000 16.000000
-14.978290 21.500000 15.000000
-15.638176 17.624359 15.000000
-16.166990 13.728670 15.000000
-16.564131 9.817400 15.000000
-16.829130 5.894900 15.000000
-16.961710 1.965700 15.000000
-16.961710 -1.965700 15.000000
-16.564131 -9.817400 15.000000
-16.166990 -13.728700 15.000000
-15.638176 -17.624399 15.000000
-14.978290 -21.500000 15.000000
-14.978290 -21.500000 16.000000
-15.638176 -17.624399 16.000000
-16.166990 -13.728700 16.000000
-16.564131 -9.817400 16.000000
-16.961710 -1.965700 16.000000
11.021710 -18.500000 -16.000000
11.021710 -17.500000 -16.000000
11.021710 -17.500000 15.000000
11.021710 -18.500000 15.000000
15.021710 21.500000 16.000000
15.021710 21.500000 15.000000
-14.978290 21.500000 15.000000
-14.978290 21.500000 16.000000
12.021710 -17.500000 -16.000000
11.021710 -17.500000 -16.000000
11.021710 -18.500000 -16.000000
12.021710 -18.500000 -16.000000
12.021710 -17.500000 -16.000000
12.021710 -18.500000 -16.000000
12.021710 -18.500000 15.000000
12.021710 -17.500000 15.000000
15.021710 21.500000 15.000000
15.667210 17.622910 15.000000
13.021710 17.500000 15.000000
13.021710 18.500000 15.000000
-14.978290 21.500000 15.000000
13.021710 18.500000 15.000000
12.021710 18.500000 15.000000
12.021710 17.500000 15.000000
13.021710 17.500000 15.000000
12.021710 17.500000 -16.000000
12.021710 18.500000 -16.000000
12.021710 18.500000 15.000000
12.021710 17.500000 15.000000
-10.978290 -18.500000 -16.000000
-10.978290 -18.500000 15.000000
-11.978290 -18.500000 15.000000
-11.978290 -18.500000 -16.000000
-10.978290 18.500000 15.000000
-10.978290 18.500000 -16.000000
-11.978290 18.500000 -16.000000
-11.978290 18.500000 15.000000
-11.978290 17.500000 15.000000
-11.978290 18.500000 15.000000
-11.978290 18.500000 -16.000000
-11.978290 17.500000 -16.000000
-10.978290 -17.500000 -16.000000
-11.978290 -17.500000 -16.000000
-11.978290 -18.500000 -16.000000
-10.978290 -18.500000 -16.000000
-10.978290 18.500000 15.000000
-11.978290 18.500000 15.000000
-11.978290 17.500000 15.000000
-10.978290 17.500000 15.000000
-11.978290 17.500000 -16.000000
-11.978290 18.500000 -16.000000
-11.978290 18.500000 15.000000
-11.978290 17.500000 15.000000
-11.978290 18.500000 15.000000
13.021710 18.500000 15.000000
13.021710 17.500000 15.000000
12.021710 17.500000 15.000000
16.184410 13.726640 15.000000
15.021710 21.500000 15.000000
-14.978290 21.500000 15.000000
-16.166990 13.728670 15.000000
-11.978290 17.500000 15.000000
-11.978290 -18.500000 -16.000000
-11.978290 -17.500000 -16.000000
-11.978290 -17.500000 15.000000
-11.978290 -18.500000 15.000000
-11.978290 17.500000 -16.000000
-11.978290 17.500000 15.000000
-10.978290 17.500000 15.000000
-10.978290 17.500000 -16.000000
12.021710 -17.500000 15.000000
12.021710 -18.500000 15.000000
12.021710 -18.500000 -16.000000
12.021710 -17.500000 -16.000000
13.021710 18.500000 15.000000
13.021710 18.500000 -16.000000
12.021710 18.500000 -16.000000
12.021710 18.500000 15.000000
-10.978290 -18.500000 15.000000
-11.978290 -18.500000 15.000000
-11.978290 -17.500000 15.000000
-10.978290 -17.500000 15.000000
-16.961710 1.965700 15.000000
-16.564131 9.817400 15.000000
-16.166990 13.728670 15.000000
-15.638176 17.624359 15.000000
-14.978290 21.500000 15.000000
-14.978290 21.500000 16.000000
-15.638176 17.624359 16.000000
-16.166990 13.728670 16.000000
-16.564131 9.817400 16.000000
-16.961710 1.965700 16.000000
-16.961710 -1.965700 16.000000
-16.564131 -9.817400 16.000000
-16.166990 -13.728700 16.000000
-15.638176 -17.624399 16.000000
-14.978290 -21.500000 16.000000
-14.978290 -21.500000 15.000000
-15.638176 -17.624399 15.000000
-16.166990 -13.728700 15.000000
-16.564131 -9.817400 15.000000
-16.961710 -1.965700 15.000000
12.021710 17.500000 15.000000
12.021710 18.500000 15.000000
12.021710 18.500000 -16.000000
12.021710 17.500000 -16.000000
-10.978290 -17.500000 15.000000
-10.978290 -17.500000 -16.000000
-11.978290 -17.500000 -16.000000
-11.978290 -17.500000 15.000000
-11.978290 18.500000 15.000000
-11.978290 17.500000 15.000000
-10.978290 17.500000 15.000000
-10.978290 18.500000 15.000000
12.021710 18.500000 15.000000
12.021710 17.500000 15.000000
-10.978290 -18.500000 15.000000
-10.978290 -17.500000 15.000000
11.021710 -17.500000 15.000000
11.021710 -18.500000 15.000000
12.021710 -18.500000 15.000000
12.021710 -17.500000 15.000000
-10.978290 17.500000 -16.000000
-10.978290 17.500000 15.000000
-11.978290 17.500000 15.000000
-11.978290 17.500000 -16.000000
-10.978290 -18.500000 -16.000000
-11.978290 -18.500000 -16.000000
-11.978290 -17.500000 -16.000000
-10.978290 -17.500000 -16.000000
13.021710 18.500000 15.000000
13.021710 17.500000 15.000000
13.021710 17.500000 -16.000000
13.021710 18.500000 -16.000000
-10.978290 17.500000 15.000000
-11.978290 17.500000 15.000000
-11.978290 18.500000 15.000000
-10.978290 18.500000 15.000000
-10.978290 -17.500000 15.000000
-10.978290 -18.500000 15.000000
-10.978290 -18.500000 -16.000000
-10.978290 -17.500000 -16.000000
-10.978290 18.500000 -16.000000
-11.978290 18.500000 -16.000000
-11.978290 17.500000 -16.000000
-10.978290 17.500000 -16.000000
-11.978290 -18.500000 15.000000
-11.978290 -17.500000 15.000000
-11.978290 -17.500000 -16.000000
-11.978290 -18.500000 -16.000000
13.021710 18.500000 -16.000000
13.021710 17.500000 -16.000000
13.021710 17.500000 15.000000
13.021710 18.500000 15.000000
12.021710 17.500000 -16.000000
12.021710 17.500000 15.000000
13.021710 17.500000 15.000000
13.021710 17.500000 -16.000000
-10.978290 18.500000 15.000000
-10.978290 17.500000 15.000000
-10.978290 17.500000 -16.000000
-10.978290 18.500000 -16.000000
-14.978290 -21.500000 15.000000
-14.978290 -21.500000 16.000000
15.021710 -21.500000 16.000000
15.021710 -21.500000 15.000000
-10.978290 18.500000 -16.000000
-10.978290 17.500000 -16.000000
-10.978290 17.500000 15.000000
-10.978290 18.500000 15.000000
15.021710 21.500000 15.000000
15.021710 -21.500000 15.000000
15.021710 -21.500000 16.000000
15.021710 21.500000 16.000000
13.021710 17.500000 -16.000000
12.021710 17.500000 -16.000000
12.021710 18.500000 -16.000000
13.021710 18.500000 -16.000000
-10.978290 17.500000 -16.000000
-11.978290 17.500000 -16.000000
-11.978290 18.500000 -16.000000
-10.978290 18.500000 -16.000000
12.021710 -18.500000 15.000000
11.021710 -18.500000 15.000000
11.021710 -17.500000 15.000000
12.021710 -17.500000 15.000000
11.021710 -18.500000 15.000000
11.021710 -17.500000 15.000000
11.021710 -17.500000 -16.000000
11.021710 -18.500000 -16.000000
12.021710 -18.500000 -16.000000
12.021710 -18.500000 15.000000
11.021710 -18.500000 15.000000
11.021710 -18.500000 -16.000000
11.021710 -17.500000 15.000000
11.021710 -17.500000 -16.000000
12.021710 -17.500000 -16.000000
12.021710 -17.500000 15.000000
-10.978290 -17.500000 15.000000
-11.978290 -17.500000 15.000000
-11.978290 -18.500000 15.000000
-10.978290 -18.500000 15.000000
-14.978290 21.500000 16.000000
-14.978290 -21.500000 16.000000
15.021710 -21.500000 16.000000
15.021710 21.500000 16.000000
12.021710 -17.500000 15.000000
11.021710 -17.500000 15.000000
11.021710 -18.500000 15.000000
12.021710 -18.500000 15.000000
11.021710 -18.500000 -16.000000
11.021710 -18.500000 15.000000
12.021710 -18.500000 15.000000
12.021710 -18.500000 -16.000000
-10.978290 18.500000 15.000000
12.021710 18.500000 15.000000
-11.978290 -18.500000 -16.000000
-11.978290 -18.500000 15.000000
-10.978290 -18.500000 15.000000
-10.978290 -18.500000 -16.000000
-10.978290 -17.500000 15.000000
11.021710 -17.500000 15.000000
12.021710 -17.500000 15.000000
-10.978290 -18.500000 15.000000
-10.978290 17.500000 15.000000
12.021710 -18.500000 15.000000
11.021710 -18.500000 15.000000
12.021710 -18.500000 -16.000000
11.021710 -18.500000 -16.000000
11.021710 -17.500000 -16.000000
12.021710 -17.500000 -16.000000
13.021710 17.500000 15.000000
12.021710 17.500000 15.000000
12.021710 18.500000 15.000000
13.021710 18.500000 15.000000
-14.978290 21.500000 16.000000
-14.978290 21.500000 15.000000
15.021710 21.500000 15.000000
15.021710 21.500000 16.000000
15.021710 21.500000 16.000000
15.021710 -21.500000 16.000000
15.021710 -21.500000 15.000000
15.021710 21.500000 15.000000
-11.978290 18.500000 15.000000
-11.978290 18.500000 -16.000000
-10.978290 18.500000 -16.000000
-10.978290 18.500000 15.000000
13.021710 17.500000 -16.000000
13.021710 17.500000 15.000000
12.021710 17.500000 15.000000
12.021710 17.500000 -16.000000
12.021710 18.500000 15.000000
12.021710 18.500000 -16.000000
13.021710 18.500000 -16.000000
13.021710 18.500000 15.000000
15.021710 -21.500000 15.000000
15.021710 -21.500000 16.000000
-14.978290 -21.500000 16.000000
-14.978290 -21.500000 15.000000
13.021710 18.500000 -16.000000
12.021710 18.500000 -16.000000
12.021710 17.500000 -16.000000
13.021710 17.500000 -16.000000
-10.978290 -17.500000 -16.000000
-10.978290 -18.500000 -16.000000
-10.978290 -18.500000 15.000000
-10.978290 -17.500000 15.000000
-14.978290 -21.500000 16.000000
-14.978290 21.500000 16.000000
15.021710 21.500000 16.000000
15.021710 -21.500000 16.000000
5 0 1 2 3 4
4 5 6 7 8
5 9 10 11 12 13
4 14 15 16 17
22 18 19 20 21 22 23 24 25 26 27 28 29 30 31 32 33 34 35 36 37 38 39
4 40 41 42 43
4 44 45 46 47
4 48 49 50 51
4 52 53 54 55
5 56 57 58 59 60
4 61 62 63 64
4 65 66 67 68
4 69 70 71 72
4 73 74 75 76
4 77 78 79 80
4 81 82 83 84
4 85 86 87 88
4 89 90 91 92
9 93 94 95 96 97 98 99 100 101
4 102 103 104 105
4 106 107 108 109
4 110 111 112 113
4 114 115 116 117
4 118 119 120 121
20 122 123 124 125 126 127 128 129 130 131 132 133 134 135 136 137 138 139 140 141
4 142 143 144 145
4 146 147 148 149
20 60 59 150 151 152 153 154 155 58 57 10 9 156 157 158 159 160 161 13 12
4 162 163 164 165
4 166 167 168 169
4 170 171 172 173
3 13 161 158
3 13 158 157
4 174 175 176 177
4 178 179 180 181
3 150 59 154
3 150 154 153
4 182 183 184 185
4 186 187 188 189
4 190 191 192 193
4 194 195 196 197
4 198 199 200 201
4 202 203 204 205
4 206 207 208 209
4 210 211 212 213
4 214 215 216 217
4 218 219 220 221
4 222 223 224 225
4 226 227 228 229
4 230 231 232 233
4 234 235 236 237
4 238 239 240 241
4 242 243 244 245
4 246 247 248 249
4 250 251 252 253
3 254 255 93
3 255 94 93
4 256 257 258 259
3 260 261 0
3 261 262 0
17 261 260 263 4 3 97 96 255 254 264 101 100 1 0 262 265 266
4 267 268 269 270
4 271 272 273 274
4 275 276 277 278
4 279 280 281 282
4 283 284 285 286
4 287 288 289 290
4 291 292 293 294
4 295 296 297 298
4 299 300 301 302
4 303 304 305 306
4 307 308 309 310
