ply
format ascii 1.0
comment Created by Blender 2.82 (sub 7) - www.blender.org, source file: ''
element vertex 1085
property float x
property float y
property float z
element face 264
property list uchar uint vertex_indices
end_header
-6.791000 25.272499 -14.527580
-7.185000 23.697500 -14.527580
-7.185000 25.666500 -14.527580
-0.975000 25.666500 -14.527580
-5.610000 25.272499 -14.527580
-7.185000 -25.666500 12.795300
7.185000 -25.666500 12.795300
0.994000 -25.666500 12.795300
-0.975000 -25.666500 12.795300
0.994000 -23.697500 12.795300
7.185000 -23.697500 12.795300
-7.185000 -23.697500 12.795300
-0.975000 -23.697500 12.795300
-0.975000 -17.487499 12.795300
0.994000 -17.487499 12.795300
6.303000 -24.712500 12.559000
6.299000 -24.681499 12.559000
6.299000 -24.681499 12.795300
6.303000 -24.712500 12.795300
-0.975000 -31.640499 -14.291359
-0.975000 -31.640499 12.559000
0.994000 -31.640499 12.559000
0.994000 -31.640499 -14.291359
0.994000 23.697500 -14.291359
0.994000 25.666500 -14.291359
0.994000 25.666500 -14.527580
0.994000 23.697500 -14.527580
-0.093000 -31.030500 12.559000
-0.093000 -31.030500 12.795300
-0.108000 -31.089500 12.795300
-0.108000 -31.089500 12.559000
-6.791000 25.272499 -14.763800
-6.791000 25.272499 -14.527580
-5.610000 25.272499 -14.527580
-5.610000 25.272499 -14.763800
-17.716999 -45.213501 14.763800
-17.716999 45.213501 14.763800
-17.716999 45.213501 12.795300
-17.716999 -45.213501 12.795300
-0.093000 -31.148500 12.559000
-0.093000 -31.148500 12.795300
6.501000 -24.598499 12.559000
6.531000 -24.651501 12.559000
6.531000 -24.651501 12.795300
6.501000 -24.598499 12.795300
-0.021000 18.160500 12.795300
-0.021000 18.160500 12.559000
-0.074000 18.190500 12.559000
-0.074000 18.190500 12.795300
0.600000 -30.301500 -14.763800
0.600000 -30.301500 -14.527580
0.600000 -31.483500 -14.527580
0.600000 -31.483500 -14.763800
0.124000 -18.305500 12.559000
0.093000 -18.358500 12.559000
0.093000 -18.358500 12.795300
0.124000 -18.305500 12.795300
-0.581000 31.482500 -14.527580
-0.581000 30.301500 -14.527580
0.600000 30.301500 -14.527580
-0.975000 25.666500 -14.527580
-0.975000 31.876499 -14.527580
7.185000 23.697500 12.795300
-7.185000 23.697500 12.795300
-7.185000 25.666500 12.795300
-0.975000 25.666500 12.795300
-0.975000 31.876499 12.795300
0.994000 31.876499 12.795300
0.994000 25.666500 12.795300
7.185000 25.666500 12.795300
0.994000 -23.697500 -14.291359
0.994000 -25.666500 -14.291359
6.968000 -25.666500 -14.291359
6.968000 -23.697500 -14.291359
0.994000 23.697500 12.795300
-0.975000 23.697500 12.795300
0.010000 -31.207500 12.559000
0.010000 -31.207500 12.795300
0.069000 -31.191500 12.795300
0.069000 -31.191500 12.559000
6.358000 24.579500 12.795300
6.358000 24.579500 12.559000
6.315000 24.622499 12.559000
6.315000 24.622499 12.795300
-6.500000 -24.622499 12.559000
-6.457000 -24.579500 12.559000
-6.457000 -24.579500 12.795300
-6.500000 -24.622499 12.795300
-0.074000 -18.358500 12.559000
-0.093000 -18.333500 12.559000
-0.093000 -18.333500 12.795300
-0.074000 -18.358500 12.795300
-6.516000 -24.681499 12.559000
-6.516000 -24.681499 12.795300
0.994000 25.666500 12.795300
7.205000 25.666500 12.795300
7.205000 25.666500 -14.527580
0.994000 25.666500 -14.527580
0.994000 25.666500 -14.291359
6.968000 25.666500 -14.291359
6.968000 25.666500 12.559000
0.994000 25.666500 12.559000
0.994000 17.723499 -14.291359
0.994000 31.640499 -14.291359
-0.975000 31.640499 -14.291359
-0.975000 17.723499 -14.291359
0.069000 18.376499 12.559000
0.010000 18.392500 12.559000
-0.021000 18.388500 12.559000
0.994000 23.697500 12.559000
0.994000 17.723499 12.559000
6.811000 25.272499 -14.527580
5.630000 25.272499 -14.527580
5.630000 24.091499 -14.527580
0.994000 23.697500 -14.527580
0.994000 25.666500 -14.527580
7.205000 25.666500 -14.527580
7.205000 23.697500 -14.527580
6.811000 24.091499 -14.527580
-6.457000 24.579500 12.559000
-6.457000 24.579500 12.795300
-6.398000 24.563499 12.795300
-6.398000 24.563499 12.559000
0.010000 -18.156500 12.795300
0.010000 -18.156500 12.559000
0.069000 -18.172501 12.559000
0.069000 -18.172501 12.795300
5.630000 25.272499 -14.763800
6.811000 25.272499 -14.763800
6.811000 24.091499 -14.763800
5.630000 24.091499 -14.763800
6.299000 24.681499 12.559000
6.299000 24.681499 12.795300
-6.791000 -25.272499 -14.527580
-6.791000 -25.272499 -14.763800
-5.610000 -25.272499 -14.763800
-5.610000 -25.272499 -14.527580
-0.074000 -31.172501 12.559000
-0.074000 -31.172501 12.795300
-0.021000 -31.203501 12.795300
-0.021000 -31.203501 12.559000
0.040000 -18.388500 12.795300
0.040000 -18.388500 12.559000
-6.295000 24.622499 12.559000
-6.314000 24.598499 12.559000
-6.314000 24.598499 12.795300
-6.295000 24.622499 12.795300
-0.581000 -19.061501 -14.527580
-0.581000 -19.061501 -14.763800
0.600000 -19.061501 -14.763800
0.600000 -19.061501 -14.527580
-0.581000 -31.483500 -14.527580
-0.581000 -31.483500 -14.763800
0.600000 -31.483500 -14.763800
0.600000 -31.483500 -14.527580
-0.581000 -30.301500 -14.763800
-0.581000 -30.301500 -14.527580
0.600000 -30.301500 -14.527580
0.600000 -30.301500 -14.763800
0.994000 25.666500 -14.291359
0.994000 23.697500 -14.291359
6.968000 23.697500 -14.291359
6.968000 25.666500 -14.291359
-17.716999 -45.213501 12.795300
17.716999 -45.213501 12.795300
17.716999 -45.213501 14.763800
-17.716999 -45.213501 14.763800
-0.581000 19.061501 -14.763800
-0.581000 17.880501 -14.763800
-0.581000 17.880501 -14.527580
-0.581000 19.061501 -14.527580
-0.581000 31.482500 -14.763800
-0.581000 30.301500 -14.763800
-0.581000 30.301500 -14.527580
-0.581000 31.482500 -14.527580
-0.581000 19.061501 -14.763800
0.600000 19.061501 -14.763800
0.600000 17.880501 -14.763800
-0.581000 17.880501 -14.763800
-0.975000 17.486500 12.795300
-0.975000 17.486500 -14.527580
0.994000 17.486500 -14.527580
0.994000 17.486500 12.795300
0.010000 18.392500 12.795300
0.069000 18.376499 12.795300
0.093000 18.357500 12.795300
-0.975000 23.697500 12.795300
-0.975000 17.486500 12.795300
0.994000 17.486500 12.795300
0.124000 18.304501 12.795300
0.124000 18.243500 12.795300
0.093000 18.190500 12.795300
0.040000 18.160500 12.795300
-0.021000 18.160500 12.795300
-0.074000 18.190500 12.795300
-0.093000 18.215500 12.795300
-0.108000 18.274500 12.795300
-0.093000 18.333500 12.795300
-0.074000 18.357500 12.795300
-0.021000 18.388500 12.795300
0.069000 31.191500 12.795300
0.112000 31.148500 12.795300
0.128000 31.089500 12.795300
0.124000 31.058500 12.795300
0.093000 31.005501 12.795300
0.069000 30.986500 12.795300
0.010000 30.971500 12.795300
-0.049000 30.986500 12.795300
-0.093000 31.030500 12.795300
-0.975000 25.666500 12.795300
0.994000 31.876499 12.795300
-0.975000 31.876499 12.795300
-0.021000 31.203501 12.795300
0.010000 31.207500 12.795300
-6.791000 24.091499 -14.527580
-6.791000 24.091499 -14.763800
-5.610000 24.091499 -14.763800
-5.610000 24.091499 -14.527580
-0.108000 31.089500 12.795300
-0.093000 31.148500 12.795300
-0.074000 31.172501 12.795300
6.334000 24.765499 12.795300
6.334000 24.765499 12.559000
6.358000 24.784500 12.559000
6.358000 24.784500 12.795300
-6.500000 -24.622499 12.559000
-6.512000 -24.651501 12.559000
-6.949000 -25.666500 12.559000
-6.949000 -23.697500 12.559000
-0.975000 -23.697500 12.559000
-0.975000 -25.666500 12.559000
-6.280000 -24.681499 12.559000
-6.295000 -24.622499 12.559000
-6.314000 -24.598499 12.559000
-6.367000 -24.567499 12.559000
-6.398000 -24.563499 12.559000
-6.457000 -24.579500 12.559000
-6.512000 -24.712500 12.559000
-6.481000 -24.765499 12.559000
-6.457000 -24.784500 12.559000
-6.398000 -24.800501 12.559000
-6.367000 -24.796499 12.559000
-6.314000 -24.765499 12.559000
-6.295000 -24.740499 12.559000
-6.457000 -24.784500 12.559000
-6.457000 -24.784500 12.795300
-6.398000 -24.800501 12.795300
-6.398000 -24.800501 12.559000
-6.949000 -25.666500 -14.291359
-6.949000 -23.697500 -14.291359
-6.949000 -23.697500 12.559000
-6.949000 -25.666500 12.559000
-17.716999 -45.213501 14.763800
17.716999 -45.213501 14.763800
17.716999 45.213501 14.763800
-17.716999 45.213501 14.763800
-7.185000 -23.697500 -14.527580
-7.185000 -25.666500 -14.527580
-7.185000 -25.666500 12.795300
-7.185000 -23.697500 12.795300
6.531000 24.651501 12.559000
6.501000 24.598499 12.559000
6.501000 24.598499 12.795300
6.531000 24.651501 12.795300
6.531000 -24.712500 12.559000
6.501000 -24.765499 12.559000
6.501000 -24.765499 12.795300
6.531000 -24.712500 12.795300
0.112000 -18.215500 12.559000
0.112000 -18.215500 12.795300
-0.108000 -18.274500 12.559000
-0.093000 -18.215500 12.559000
-0.093000 -18.215500 12.795300
-0.108000 -18.274500 12.795300
-5.610000 -25.272499 -14.763800
-5.610000 -24.091499 -14.763800
-5.610000 -24.091499 -14.527580
-5.610000 -25.272499 -14.527580
6.315000 -24.622499 12.559000
6.358000 -24.579500 12.559000
6.358000 -24.579500 12.795300
6.315000 -24.622499 12.795300
0.112000 31.148500 12.559000
0.112000 31.148500 12.795300
0.069000 31.191500 12.795300
0.069000 31.191500 12.559000
5.630000 24.091499 -14.763800
5.630000 24.091499 -14.527580
5.630000 25.272499 -14.527580
5.630000 25.272499 -14.763800
6.448000 -24.567499 12.795300
6.448000 -24.567499 12.559000
-0.093000 31.030500 12.559000
-0.108000 31.089500 12.559000
-0.108000 31.089500 12.795300
-0.093000 31.030500 12.795300
0.994000 17.723499 -14.291359
0.994000 17.723499 12.559000
0.994000 23.697500 12.559000
0.994000 23.697500 12.795300
0.994000 17.486500 12.795300
0.994000 17.486500 -14.527580
0.994000 23.697500 -14.527580
0.994000 23.697500 -14.291359
-0.581000 -30.301500 -14.763800
-0.581000 -31.483500 -14.763800
-0.581000 -31.483500 -14.527580
-0.581000 -30.301500 -14.527580
-0.975000 23.697500 -14.527580
-0.975000 17.486500 -14.527580
-0.975000 17.486500 12.795300
-0.975000 23.697500 12.795300
-0.975000 23.697500 12.559000
-0.975000 17.723499 12.559000
-0.975000 17.723499 -14.291359
-0.975000 23.697500 -14.291359
0.600000 -17.880501 -14.763800
0.600000 -17.880501 -14.527580
0.600000 -19.061501 -14.527580
0.600000 -19.061501 -14.763800
-0.975000 25.666500 12.795300
-0.975000 23.697500 12.795300
-0.975000 23.697500 12.559000
-0.975000 25.666500 12.559000
-0.975000 31.640499 -14.291359
-0.975000 31.640499 12.559000
-0.975000 25.666500 12.559000
-0.975000 25.666500 12.795300
-0.975000 31.876499 12.795300
-0.975000 31.876499 -14.527580
-0.975000 25.666500 -14.527580
-0.975000 25.666500 -14.291359
0.994000 23.697500 -14.527580
0.994000 25.666500 -14.527580
0.994000 25.666500 -14.291359
0.994000 23.697500 -14.291359
-0.581000 31.482500 -14.763800
-0.581000 31.482500 -14.527580
0.600000 31.482500 -14.527580
0.600000 31.482500 -14.763800
0.600000 31.482500 -14.763800
0.600000 31.482500 -14.527580
0.600000 30.301500 -14.527580
0.600000 30.301500 -14.763800
-6.949000 23.697500 12.559000
-6.512000 24.651501 12.559000
-6.500000 24.622499 12.559000
-6.457000 24.579500 12.559000
-6.398000 24.563499 12.559000
-6.367000 24.567499 12.559000
-6.314000 24.598499 12.559000
-6.295000 24.622499 12.559000
-6.280000 24.681499 12.559000
-6.295000 24.740499 12.559000
-6.339000 24.784500 12.559000
-6.367000 24.795500 12.559000
-0.975000 23.697500 12.559000
-6.457000 24.784500 12.559000
-6.481000 24.765499 12.559000
-6.512000 24.712500 12.559000
-6.949000 25.666500 12.559000
-0.975000 25.666500 12.559000
-6.398000 24.799500 12.559000
-0.975000 -17.723499 12.559000
-0.093000 -18.215500 12.559000
-0.104000 -18.243500 12.559000
-0.975000 -23.697500 12.559000
-0.975000 23.697500 -14.527580
-6.791000 24.091499 -14.527580
-5.610000 24.091499 -14.527580
0.994000 -31.876499 12.795300
-0.975000 -31.876499 12.795300
0.994000 23.697500 12.795300
0.994000 23.697500 12.559000
6.968000 23.697500 12.559000
6.968000 23.697500 -14.291359
0.994000 23.697500 -14.291359
0.994000 23.697500 -14.527580
7.205000 23.697500 -14.527580
7.205000 23.697500 12.795300
6.519000 -24.622499 12.795300
6.535000 -24.681499 12.795300
6.531000 -24.712500 12.795300
7.205000 -25.666500 12.795300
7.205000 -23.697500 12.795300
-0.975000 -23.697500 12.795300
-0.975000 -25.666500 12.795300
0.093000 -31.005501 12.795300
0.112000 -31.030500 12.795300
0.994000 -31.876499 12.795300
0.994000 -23.697500 12.795300
0.069000 -18.376499 12.795300
0.010000 -18.392500 12.795300
-0.975000 31.876499 12.795300
0.994000 31.876499 12.795300
0.994000 31.876499 -14.527580
-0.975000 31.876499 -14.527580
0.010000 30.971500 12.559000
0.010000 30.971500 12.795300
0.069000 30.986500 12.795300
0.069000 30.986500 12.559000
6.417000 24.563499 12.559000
6.417000 24.563499 12.795300
6.448000 24.567499 12.795300
6.448000 24.567499 12.559000
0.994000 -23.697500 -14.527580
7.205000 -23.697500 -14.527580
6.811000 -24.091499 -14.527580
5.630000 -24.091499 -14.527580
-0.975000 -31.640499 -14.291359
-0.975000 -25.666500 -14.291359
-0.975000 -25.666500 -14.527580
-0.975000 -31.876499 -14.527580
-0.975000 -31.876499 12.795300
-0.975000 -25.666500 12.795300
-0.975000 -25.666500 12.559000
-0.975000 -31.640499 12.559000
0.040000 -30.975500 12.795300
-0.975000 -31.876499 12.795300
0.128000 -31.089500 12.795300
0.112000 -31.148500 12.795300
0.069000 -31.191500 12.795300
0.010000 -31.207500 12.795300
-0.021000 -31.203501 12.795300
-0.074000 -31.172501 12.795300
-0.093000 -31.148500 12.795300
-0.108000 -31.089500 12.795300
-0.093000 -31.030500 12.795300
-0.074000 -31.005501 12.795300
-0.021000 -30.975500 12.795300
-0.074000 18.357500 12.795300
-0.074000 18.357500 12.559000
-0.021000 18.388500 12.559000
-0.021000 18.388500 12.795300
7.205000 -25.666500 -14.527580
7.205000 -23.697500 -14.527580
7.205000 -23.697500 12.795300
7.205000 -25.666500 12.795300
-6.339000 24.784500 12.795300
-6.339000 24.784500 12.559000
-6.295000 24.740499 12.559000
-6.295000 24.740499 12.795300
0.124000 18.243500 12.559000
0.093000 18.190500 12.559000
0.093000 18.190500 12.795300
0.124000 18.243500 12.795300
6.476000 24.784500 12.795300
6.476000 24.784500 12.559000
6.501000 24.765499 12.559000
6.501000 24.765499 12.795300
0.128000 31.089500 12.559000
0.124000 31.058500 12.559000
0.124000 31.058500 12.795300
0.128000 31.089500 12.795300
7.205000 23.697500 -14.527580
7.205000 25.666500 -14.527580
7.205000 25.666500 12.795300
7.205000 23.697500 12.795300
-0.975000 -17.487499 12.795300
-0.975000 17.486500 12.795300
0.994000 17.486500 12.795300
17.716999 -45.213501 12.795300
-17.716999 -45.213501 12.795300
-0.975000 -31.876499 12.795300
0.994000 -31.876499 12.795300
0.994000 -25.666500 12.795300
7.185000 -25.666500 12.795300
7.185000 -23.697500 12.795300
0.994000 -23.697500 12.795300
0.994000 -17.487499 12.795300
17.716999 45.213501 14.763800
17.716999 45.213501 12.795300
-17.716999 45.213501 12.795300
-17.716999 45.213501 14.763800
-6.791000 24.091499 -14.763800
-6.791000 24.091499 -14.527580
-6.791000 25.272499 -14.527580
-6.791000 25.272499 -14.763800
6.299000 24.681499 12.795300
6.303000 24.712500 12.795300
6.334000 24.765499 12.795300
6.358000 24.784500 12.795300
6.417000 24.799500 12.795300
6.476000 24.784500 12.795300
6.519000 24.740499 12.795300
7.205000 25.666500 12.795300
0.994000 25.666500 12.795300
0.994000 23.697500 12.795300
7.205000 23.697500 12.795300
6.531000 24.651501 12.795300
6.501000 24.598499 12.795300
6.448000 24.567499 12.795300
6.417000 24.563499 12.795300
6.358000 24.579500 12.795300
6.315000 24.622499 12.795300
6.417000 24.799500 12.795300
6.417000 24.799500 12.559000
-6.949000 -23.697500 12.559000
-6.949000 -23.697500 -14.291359
-0.975000 -23.697500 -14.291359
-0.975000 -23.697500 -14.527580
-7.185000 -23.697500 -14.527580
-7.185000 -23.697500 12.795300
-0.975000 -23.697500 12.795300
-0.975000 -23.697500 12.559000
0.093000 31.005501 12.795300
0.093000 31.005501 12.559000
-0.049000 30.986500 12.559000
-0.049000 30.986500 12.795300
-6.791000 -24.091499 -14.527580
-7.185000 -25.666500 -14.527580
-7.185000 -23.697500 -14.527580
-0.975000 -23.697500 -14.527580
-5.610000 -24.091499 -14.527580
-0.021000 -18.388500 12.795300
-0.021000 -18.388500 12.559000
-5.610000 24.091499 -14.763800
-5.610000 25.272499 -14.763800
-5.610000 25.272499 -14.527580
-5.610000 24.091499 -14.527580
-0.074000 -18.191500 12.559000
-0.074000 -18.191500 12.795300
0.124000 -18.305500 12.795300
0.093000 -18.358500 12.795300
0.994000 -17.487499 12.795300
-0.975000 -17.487499 12.795300
-0.021000 -18.388500 12.795300
-0.074000 -18.358500 12.795300
-0.093000 -18.333500 12.795300
-0.108000 -18.274500 12.795300
-0.093000 -18.215500 12.795300
-0.074000 -18.191500 12.795300
-0.021000 -18.160500 12.795300
0.010000 -18.156500 12.795300
0.069000 -18.172501 12.795300
0.112000 -18.215500 12.795300
0.124000 -18.243500 12.795300
6.303000 24.712500 12.559000
6.303000 24.712500 12.795300
-6.791000 -24.091499 -14.763800
-6.791000 -24.091499 -14.527580
-5.610000 -24.091499 -14.527580
-5.610000 -24.091499 -14.763800
-6.791000 -25.272499 -14.763800
-6.791000 -25.272499 -14.527580
-6.791000 -24.091499 -14.527580
-6.791000 -24.091499 -14.763800
-0.093000 31.148500 12.559000
-0.093000 31.148500 12.795300
-0.093000 18.215500 12.559000
-0.093000 18.215500 12.795300
0.010000 31.207500 12.795300
0.010000 31.207500 12.559000
5.630000 -24.091499 -14.763800
5.630000 -24.091499 -14.527580
6.811000 -24.091499 -14.527580
6.811000 -24.091499 -14.763800
0.128000 18.274500 12.559000
0.128000 18.274500 12.795300
-0.074000 -31.005501 12.559000
-0.074000 -31.005501 12.795300
-6.367000 24.567499 12.795300
-6.367000 24.567499 12.559000
0.112000 18.333500 12.559000
0.112000 18.333500 12.795300
-0.021000 -30.975500 12.559000
-0.021000 -30.975500 12.795300
-6.398000 -24.563499 12.559000
-6.398000 -24.563499 12.795300
-6.367000 -24.567499 12.559000
-6.314000 -24.598499 12.559000
-6.314000 -24.598499 12.795300
-6.367000 -24.567499 12.795300
-0.108000 -18.274500 12.559000
-0.093000 -18.333500 12.559000
-0.074000 -18.358500 12.559000
-0.021000 -18.388500 12.559000
0.040000 -18.388500 12.559000
0.093000 -18.358500 12.559000
0.124000 -18.305500 12.559000
0.124000 -18.243500 12.559000
0.112000 -18.215500 12.559000
0.069000 -18.172501 12.559000
0.010000 -18.156500 12.559000
-0.021000 -18.160500 12.559000
-0.074000 -18.191500 12.559000
0.994000 -17.723499 12.559000
0.994000 -25.666500 12.559000
0.010000 -30.971500 12.559000
-0.021000 -30.975500 12.559000
-0.074000 -31.005501 12.559000
-0.093000 -31.030500 12.559000
-0.108000 -31.089500 12.559000
-0.093000 -31.148500 12.559000
-0.049000 -31.191500 12.559000
-0.975000 -31.640499 12.559000
-6.295000 -24.740499 12.559000
-6.314000 -24.765499 12.559000
-6.314000 -24.765499 12.795300
-6.295000 -24.740499 12.795300
-0.975000 -23.697500 -14.527580
-0.975000 -23.697500 -14.291359
-0.975000 -25.666500 -14.291359
-0.975000 -25.666500 -14.527580
-6.516000 24.681499 12.559000
-6.512000 24.712500 12.559000
-6.512000 24.712500 12.795300
-6.516000 24.681499 12.795300
-0.975000 -23.697500 12.559000
-0.975000 -25.666500 12.559000
-0.975000 -25.666500 12.795300
-0.975000 -23.697500 12.795300
-6.481000 24.765499 12.559000
-6.481000 24.765499 12.795300
-0.021000 31.203501 12.795300
-0.021000 31.203501 12.559000
0.124000 -31.058500 12.559000
0.128000 -31.089500 12.559000
0.128000 -31.089500 12.795300
0.124000 -31.058500 12.795300
-0.975000 25.666500 12.559000
-0.975000 23.697500 12.559000
-0.975000 23.697500 12.795300
-0.975000 25.666500 12.795300
0.994000 31.876499 -14.527580
0.994000 31.876499 12.795300
0.994000 25.666500 12.795300
0.994000 25.666500 12.559000
0.994000 31.640499 12.559000
0.994000 31.640499 -14.291359
0.994000 25.666500 -14.291359
0.994000 25.666500 -14.527580
-0.975000 25.666500 -14.527580
-0.975000 25.666500 -14.291359
-0.975000 23.697500 -14.291359
-0.975000 23.697500 -14.527580
6.334000 -24.765499 12.559000
6.334000 -24.765499 12.795300
6.358000 -24.784500 12.795300
6.358000 -24.784500 12.559000
17.716999 45.213501 14.763800
17.716999 -45.213501 14.763800
17.716999 -45.213501 12.795300
17.716999 45.213501 12.795300
-0.581000 30.301500 -14.527580
-0.581000 30.301500 -14.763800
0.600000 30.301500 -14.763800
0.600000 30.301500 -14.527580
-0.581000 31.482500 -14.763800
0.600000 31.482500 -14.763800
0.600000 30.301500 -14.763800
-0.581000 30.301500 -14.763800
-0.581000 17.880501 -14.527580
-0.581000 17.880501 -14.763800
0.600000 17.880501 -14.763800
0.600000 17.880501 -14.527580
0.994000 23.697500 12.795300
7.185000 23.697500 12.795300
7.185000 25.666500 12.795300
0.994000 25.666500 12.795300
0.994000 31.876499 12.795300
-0.975000 31.876499 12.795300
-0.975000 25.666500 12.795300
-7.185000 25.666500 12.795300
-7.185000 23.697500 12.795300
-0.975000 23.697500 12.795300
-0.975000 -23.697500 12.795300
-7.185000 -23.697500 12.795300
-7.185000 -25.666500 12.795300
-0.975000 -25.666500 12.795300
-17.716999 45.213501 12.795300
17.716999 45.213501 12.795300
0.994000 -23.697500 12.795300
7.205000 -23.697500 12.795300
7.205000 -23.697500 -14.527580
0.994000 -23.697500 -14.527580
0.994000 -23.697500 -14.291359
6.968000 -23.697500 -14.291359
6.968000 -23.697500 12.559000
0.994000 -23.697500 12.559000
0.994000 -17.723499 -14.291359
0.994000 -23.697500 -14.291359
0.994000 -23.697500 -14.527580
0.994000 -17.487499 -14.527580
0.994000 -17.487499 12.795300
0.994000 -23.697500 12.795300
0.994000 -23.697500 12.559000
0.994000 -17.723499 12.559000
-0.975000 31.640499 12.559000
-0.975000 31.640499 -14.291359
0.994000 31.640499 -14.291359
0.994000 31.640499 12.559000
0.069000 -31.191500 12.559000
0.112000 -31.148500 12.559000
0.128000 -31.089500 12.559000
0.124000 -31.058500 12.559000
0.093000 -31.005501 12.559000
0.040000 -30.975500 12.559000
0.994000 -31.640499 12.559000
0.010000 -31.207500 12.559000
-0.975000 -31.876499 -14.527580
-0.975000 -25.666500 -14.527580
-0.581000 -30.301500 -14.527580
-0.581000 -31.483500 -14.527580
0.994000 -31.640499 -14.291359
0.994000 -17.723499 -14.291359
-0.975000 -17.723499 -14.291359
-0.975000 -31.640499 -14.291359
-6.512000 24.712500 12.795300
-6.481000 24.765499 12.795300
-6.457000 24.784500 12.795300
-6.398000 24.799500 12.795300
-6.339000 24.784500 12.795300
-6.314000 24.765499 12.795300
-0.975000 23.697500 12.795300
-0.975000 25.666500 12.795300
-7.185000 25.666500 12.795300
-7.185000 23.697500 12.795300
-6.516000 24.681499 12.795300
-6.295000 24.740499 12.795300
-6.280000 24.681499 12.795300
-6.295000 24.622499 12.795300
-6.314000 24.598499 12.795300
-6.367000 24.567499 12.795300
-6.398000 24.563499 12.795300
-6.457000 24.579500 12.795300
-6.500000 24.622499 12.795300
-6.949000 23.697500 -14.291359
-6.949000 25.666500 -14.291359
-6.949000 25.666500 12.559000
-6.949000 23.697500 12.559000
-6.949000 25.666500 -14.291359
-0.975000 25.666500 -14.291359
-0.975000 25.666500 -14.527580
-7.185000 25.666500 -14.527580
-7.185000 25.666500 12.795300
-0.975000 25.666500 12.795300
-0.975000 25.666500 12.559000
-6.949000 25.666500 12.559000
-0.975000 -17.487499 12.795300
0.994000 -17.487499 12.795300
0.994000 -17.487499 -14.527580
-0.975000 -17.487499 -14.527580
0.600000 -17.880501 -14.527580
-0.581000 -17.880501 -14.527580
0.994000 -17.487499 -14.527580
0.994000 -23.697500 -14.527580
0.600000 -19.061501 -14.527580
-0.581000 -19.061501 -14.527580
0.994000 -31.876499 -14.527580
0.600000 -31.483500 -14.527580
0.600000 -30.301500 -14.527580
-0.975000 -17.487499 -14.527580
5.630000 -25.272499 -14.527580
6.811000 -25.272499 -14.527580
7.205000 -25.666500 -14.527580
0.994000 -25.666500 -14.527580
-7.185000 23.697500 -14.527580
-0.975000 23.697500 -14.527580
-0.975000 23.697500 -14.291359
-6.949000 23.697500 -14.291359
-6.949000 23.697500 12.559000
-0.975000 23.697500 12.559000
-0.975000 23.697500 12.795300
-7.185000 23.697500 12.795300
0.600000 17.880501 -14.527580
0.600000 19.061501 -14.527580
0.994000 17.486500 -14.527580
-0.975000 17.486500 -14.527580
-0.581000 19.061501 -14.527580
-0.581000 17.880501 -14.527580
0.069000 18.376499 12.795300
0.069000 18.376499 12.559000
0.010000 18.392500 12.795300
0.010000 18.392500 12.559000
6.358000 -24.579500 12.795300
6.417000 -24.563499 12.795300
6.448000 -24.567499 12.795300
6.501000 -24.598499 12.795300
0.994000 -23.697500 12.795300
0.994000 -25.666500 12.795300
6.501000 -24.765499 12.795300
6.448000 -24.796499 12.795300
6.417000 -24.800501 12.795300
6.358000 -24.784500 12.795300
6.334000 -24.765499 12.795300
6.303000 -24.712500 12.795300
6.299000 -24.681499 12.795300
6.315000 -24.622499 12.795300
0.093000 -31.005501 12.559000
0.093000 -31.005501 12.795300
0.040000 -30.975500 12.795300
0.040000 -30.975500 12.559000
-7.185000 25.666500 -14.527580
-7.185000 23.697500 -14.527580
-7.185000 23.697500 12.795300
-7.185000 25.666500 12.795300
6.531000 -24.651501 12.559000
6.501000 -24.598499 12.559000
6.448000 -24.567499 12.559000
6.387000 -24.567499 12.559000
6.968000 -23.697500 12.559000
6.968000 -25.666500 12.559000
0.994000 -25.666500 12.559000
6.334000 -24.765499 12.559000
6.358000 -24.784500 12.559000
6.417000 -24.800501 12.559000
6.448000 -24.796499 12.559000
6.501000 -24.765499 12.559000
6.531000 -24.712500 12.559000
6.358000 -24.579500 12.559000
6.315000 -24.622499 12.559000
6.299000 -24.681499 12.559000
6.303000 -24.712500 12.559000
0.994000 -23.697500 12.559000
6.968000 -23.697500 -14.291359
6.968000 -25.666500 -14.291359
6.968000 -25.666500 12.559000
6.968000 -23.697500 12.559000
0.112000 -31.148500 12.559000
0.112000 -31.148500 12.795300
-6.280000 -24.681499 12.559000
-6.280000 -24.681499 12.795300
0.994000 -31.876499 -14.527580
0.994000 -25.666500 -14.527580
0.994000 -25.666500 -14.291359
0.994000 -31.640499 -14.291359
0.994000 -31.640499 12.559000
0.994000 -25.666500 12.559000
0.994000 -25.666500 12.795300
0.994000 -31.876499 12.795300
-6.367000 -24.796499 12.795300
-6.367000 -24.796499 12.559000
0.600000 31.482500 -14.527580
0.994000 31.876499 -14.527580
-0.975000 -23.697500 -14.291359
-6.949000 -23.697500 -14.291359
-6.949000 -25.666500 -14.291359
-0.975000 -25.666500 -14.291359
-0.975000 -17.487499 12.795300
-0.975000 -17.487499 -14.527580
-0.975000 -23.697500 -14.527580
-0.975000 -23.697500 -14.291359
-0.975000 -17.723499 -14.291359
-0.975000 -17.723499 12.559000
-0.975000 -23.697500 12.559000
-0.975000 -23.697500 12.795300
-6.295000 -24.622499 12.795300
-6.295000 -24.622499 12.559000
0.994000 17.486500 12.795300
-0.975000 17.486500 12.795300
-0.975000 -31.876499 12.795300
-0.975000 -31.876499 -14.527580
0.994000 -31.876499 -14.527580
0.994000 -31.876499 12.795300
-6.457000 24.784500 12.795300
-6.457000 24.784500 12.559000
-6.398000 24.799500 12.559000
-6.398000 24.799500 12.795300
-6.500000 -24.622499 12.795300
-6.457000 -24.579500 12.795300
-6.398000 -24.563499 12.795300
-6.367000 -24.567499 12.795300
-7.185000 -23.697500 12.795300
-7.185000 -25.666500 12.795300
-0.975000 -25.666500 12.795300
-6.284000 -24.712500 12.795300
-6.314000 -24.765499 12.795300
-6.367000 -24.796499 12.795300
-6.398000 -24.800501 12.795300
-6.457000 -24.784500 12.795300
-6.481000 -24.765499 12.795300
-6.512000 -24.712500 12.795300
-6.516000 -24.681499 12.795300
0.994000 31.640499 12.559000
0.093000 31.172501 12.559000
0.069000 31.191500 12.559000
0.010000 31.207500 12.559000
-0.021000 31.203501 12.559000
-0.074000 31.172501 12.559000
-0.093000 31.148500 12.559000
-0.108000 31.089500 12.559000
-0.093000 31.030500 12.559000
-0.049000 30.986500 12.559000
0.010000 30.971500 12.559000
0.069000 30.986500 12.559000
0.093000 31.005501 12.559000
0.124000 31.058500 12.559000
0.128000 31.089500 12.559000
0.994000 25.666500 12.559000
-0.074000 18.357500 12.559000
-0.093000 18.333500 12.559000
-0.108000 18.274500 12.559000
-0.093000 18.215500 12.559000
-0.074000 18.190500 12.559000
-0.021000 18.160500 12.559000
0.040000 18.160500 12.559000
0.093000 18.190500 12.559000
0.124000 18.243500 12.559000
0.128000 18.274500 12.559000
0.112000 18.333500 12.559000
-0.975000 17.723499 12.559000
-0.975000 31.640499 12.559000
-6.500000 24.622499 12.559000
-6.500000 24.622499 12.795300
-5.610000 -25.272499 -14.527580
-0.975000 -25.666500 -14.527580
-6.791000 -25.272499 -14.527580
-6.314000 -24.598499 12.795300
-6.295000 -24.622499 12.795300
-6.280000 -24.681499 12.795300
-0.975000 -23.697500 12.795300
0.124000 31.119499 12.559000
0.994000 -25.666500 12.795300
0.994000 -25.666500 12.559000
6.968000 -25.666500 12.559000
6.968000 -25.666500 -14.291359
0.994000 -25.666500 -14.291359
0.994000 -25.666500 -14.527580
7.205000 -25.666500 -14.527580
7.205000 -25.666500 12.795300
6.531000 24.712500 12.795300
-7.185000 -25.666500 12.795300
-7.185000 -25.666500 -14.527580
-0.975000 -25.666500 -14.527580
-0.975000 -25.666500 -14.291359
-6.949000 -25.666500 -14.291359
-6.949000 -25.666500 12.559000
-0.975000 -25.666500 12.559000
-0.975000 -25.666500 12.795300
-5.610000 25.272499 -14.763800
-5.610000 24.091499 -14.763800
-6.791000 24.091499 -14.763800
-6.791000 25.272499 -14.763800
0.040000 18.160500 12.559000
0.040000 18.160500 12.795300
6.417000 -24.800501 12.559000
6.417000 -24.800501 12.795300
6.448000 -24.796499 12.795300
6.448000 -24.796499 12.559000
0.994000 23.697500 12.559000
0.994000 25.666500 12.559000
0.994000 25.666500 12.795300
0.994000 23.697500 12.795300
6.531000 24.712500 12.559000
6.531000 24.712500 12.795300
0.994000 25.666500 12.559000
6.968000 25.666500 12.559000
6.519000 24.740499 12.559000
6.476000 24.784500 12.559000
6.417000 24.799500 12.559000
6.358000 24.784500 12.559000
6.315000 24.740499 12.559000
0.994000 23.697500 12.559000
-0.021000 -18.160500 12.795300
-0.021000 -18.160500 12.559000
0.994000 23.697500 12.795300
0.994000 25.666500 12.795300
0.994000 25.666500 12.559000
0.994000 23.697500 12.559000
-0.108000 18.274500 12.559000
-0.108000 18.274500 12.795300
-0.975000 -17.723499 12.559000
-0.975000 -17.723499 -14.291359
0.994000 -17.723499 -14.291359
0.994000 -17.723499 12.559000
6.417000 -24.563499 12.559000
6.417000 -24.563499 12.795300
-0.093000 18.333500 12.559000
-0.093000 18.333500 12.795300
5.630000 24.091499 -14.527580
5.630000 24.091499 -14.763800
6.811000 24.091499 -14.763800
6.811000 24.091499 -14.527580
5.630000 -25.272499 -14.763800
5.630000 -25.272499 -14.527580
5.630000 -24.091499 -14.527580
5.630000 -24.091499 -14.763800
-5.610000 -24.091499 -14.763800
-5.610000 -25.272499 -14.763800
-6.791000 -25.272499 -14.763800
-6.791000 -24.091499 -14.763800
6.501000 24.598499 12.559000
6.531000 24.651501 12.559000
6.531000 24.712500 12.559000
6.968000 23.697500 12.559000
6.299000 24.681499 12.559000
6.315000 24.622499 12.559000
6.358000 24.579500 12.559000
6.417000 24.563499 12.559000
6.448000 24.567499 12.559000
0.124000 -18.243500 12.559000
0.124000 -18.243500 12.795300
5.630000 25.272499 -14.763800
5.630000 25.272499 -14.527580
6.811000 25.272499 -14.527580
6.811000 25.272499 -14.763800
6.811000 24.091499 -14.763800
6.811000 25.272499 -14.763800
6.811000 25.272499 -14.527580
6.811000 24.091499 -14.527580
-6.280000 24.681499 12.559000
-6.280000 24.681499 12.795300
5.630000 -25.272499 -14.527580
5.630000 -25.272499 -14.763800
6.811000 -25.272499 -14.763800
6.811000 -25.272499 -14.527580
-0.074000 31.172501 12.795300
-0.074000 31.172501 12.559000
0.994000 -25.666500 12.795300
0.994000 -23.697500 12.795300
0.994000 -23.697500 12.559000
0.994000 -25.666500 12.559000
6.811000 -25.272499 -14.763800
6.811000 -24.091499 -14.763800
6.811000 -24.091499 -14.527580
6.811000 -25.272499 -14.527580
-6.512000 -24.712500 12.559000
-6.512000 -24.712500 12.795300
-0.975000 17.723499 -14.291359
-0.975000 17.723499 12.559000
0.994000 17.723499 12.559000
0.994000 17.723499 -14.291359
-6.481000 -24.765499 12.559000
-6.481000 -24.765499 12.795300
6.968000 25.666500 -14.291359
6.968000 23.697500 -14.291359
6.968000 23.697500 12.559000
6.968000 25.666500 12.559000
-0.975000 -25.666500 -14.527580
-0.975000 -25.666500 -14.291359
-0.975000 -23.697500 -14.291359
-0.975000 -23.697500 -14.527580
5.630000 -24.091499 -14.763800
6.811000 -24.091499 -14.763800
6.811000 -25.272499 -14.763800
5.630000 -25.272499 -14.763800
-0.975000 -23.697500 12.795300
-0.975000 -25.666500 12.795300
-0.975000 -25.666500 12.559000
-0.975000 -23.697500 12.559000
-0.581000 -30.301500 -14.763800
0.600000 -30.301500 -14.763800
0.600000 -31.483500 -14.763800
-0.581000 -31.483500 -14.763800
0.994000 -25.666500 -14.527580
0.994000 -23.697500 -14.527580
0.994000 -23.697500 -14.291359
0.994000 -25.666500 -14.291359
0.994000 -25.666500 -14.291359
0.994000 -23.697500 -14.291359
0.994000 -23.697500 -14.527580
0.994000 -25.666500 -14.527580
-0.975000 25.666500 -14.291359
-6.949000 25.666500 -14.291359
-6.949000 23.697500 -14.291359
-0.975000 23.697500 -14.291359
0.994000 -25.666500 12.559000
0.994000 -23.697500 12.559000
0.994000 -23.697500 12.795300
0.994000 -25.666500 12.795300
-0.581000 19.061501 -14.763800
-0.581000 19.061501 -14.527580
0.600000 19.061501 -14.527580
0.600000 19.061501 -14.763800
-0.581000 -17.880501 -14.763800
-0.581000 -19.061501 -14.763800
-0.581000 -19.061501 -14.527580
-0.581000 -17.880501 -14.527580
0.600000 19.061501 -14.763800
0.600000 19.061501 -14.527580
0.600000 17.880501 -14.527580
0.600000 17.880501 -14.763800
-0.975000 23.697500 -14.527580
-0.975000 23.697500 -14.291359
-0.975000 25.666500 -14.291359
-0.975000 25.666500 -14.527580
-0.581000 -17.880501 -14.763800
-0.581000 -17.880501 -14.527580
0.600000 -17.880501 -14.527580
0.600000 -17.880501 -14.763800
-0.581000 -17.880501 -14.763800
0.600000 -17.880501 -14.763800
0.600000 -19.061501 -14.763800
-0.581000 -19.061501 -14.763800
5 0 1 2 3 4
3 5 6 7
3 5 7 8
8 9 10 6 5 11 12 13 14
4 15 16 17 18
4 19 20 21 22
4 23 24 25 26
4 27 28 29 30
4 31 32 33 34
4 35 36 37 38
4 39 30 29 40
4 41 42 43 44
4 45 46 47 48
4 49 50 51 52
4 53 54 55 56
5 57 58 59 60 61
8 62 63 64 65 66 67 68 69
4 70 71 72 73
3 63 62 74
3 63 74 75
4 76 77 78 79
4 80 81 82 83
4 84 85 86 87
4 88 89 90 91
4 92 84 87 93
8 94 95 96 97 98 99 100 101
4 102 103 104 105
5 106 107 108 109 110
8 111 112 113 114 115 116 117 118
4 119 120 121 122
4 123 124 125 126
4 127 128 129 130
4 82 131 132 83
4 133 134 135 136
4 137 138 139 140
4 141 55 54 142
4 143 144 145 146
4 147 148 149 150
4 151 152 153 154
4 155 156 157 158
4 159 160 161 162
4 163 164 165 166
4 167 168 169 170
4 171 172 173 174
4 175 176 177 178
4 179 180 181 182
17 183 184 185 186 187 188 189 190 191 192 193 194 195 196 197 198 199
18 200 201 202 203 204 205 206 207 208 209 186 185 189 188 210 211 212 213
4 214 215 216 217
7 211 209 208 218 219 220 212
4 221 222 223 224
12 225 226 227 228 229 230 231 232 233 234 235 236
11 237 238 239 240 241 242 243 231 230 227 226
4 244 245 246 247
4 248 249 250 251
4 252 253 254 255
4 256 257 258 259
4 260 261 262 263
4 264 265 266 267
4 268 269 126 125
4 270 271 272 273
4 274 275 276 277
4 278 279 280 281
4 282 283 284 285
4 286 287 288 289
4 41 44 290 291
4 292 293 294 295
8 296 297 298 299 300 301 302 303
4 304 305 306 307
8 308 309 310 311 312 313 314 315
4 316 317 318 319
4 320 321 322 323
8 324 325 326 327 328 329 330 331
4 332 333 334 335
4 336 337 338 339
4 340 341 342 343
13 344 345 346 347 348 349 350 351 352 353 354 355 356
10 357 358 359 345 344 360 361 356 355 362
4 363 364 365 366
7 3 367 1 0 368 369 4
4 370 371 8 7
8 372 373 374 375 376 377 378 379
5 380 381 382 383 384
8 385 386 387 388 389 390 391 392
4 393 394 395 396
4 397 398 399 400
4 401 402 403 404
4 405 406 407 408
8 409 410 411 412 413 414 415 416
17 417 387 386 418 389 388 419 420 421 422 423 424 425 426 427 428 429
4 430 431 432 433
4 434 435 436 437
4 438 439 440 441
4 442 443 444 445
4 446 447 448 449
4 450 451 452 453
4 454 455 456 457
12 458 459 460 461 462 463 464 465 466 467 468 469
4 470 471 472 473
4 474 475 476 477
17 478 479 480 481 482 483 484 485 486 487 488 489 490 491 492 493 494
4 447 446 495 496
8 497 498 499 500 501 502 503 504
4 400 399 505 506
4 507 292 295 508
5 509 510 511 512 513
4 88 91 514 515
4 516 517 518 519
4 282 450 453 283
4 271 520 521 272
4 514 141 142 515
19 522 523 391 390 524 525 385 392 526 527 528 529 530 531 532 533 534 535 536
4 537 222 221 538
4 16 278 281 17
4 539 540 541 542
4 543 544 545 546
4 451 506 505 452
4 293 547 548 294
4 47 549 550 48
4 551 552 285 284
4 553 554 555 556
4 557 442 445 558
4 27 559 560 28
4 122 121 561 562
4 563 557 558 564
4 565 566 560 559
4 86 85 567 568
4 569 570 571 572
27 366 365 573 574 575 576 577 578 579 580 581 582 583 584 585 364 363 586 587 588 589 590 591 592 593 594 595
4 596 597 598 599
4 600 601 602 603
4 507 508 398 397
4 604 605 606 607
4 608 609 610 611
4 605 612 613 606
4 614 615 552 551
4 616 617 618 619
4 620 621 622 623
8 624 625 626 627 628 629 630 631
4 632 633 634 635
4 636 637 638 639
4 640 641 642 643
4 644 645 646 647
4 648 649 650 651
4 652 653 654 655
22 461 460 656 657 658 659 660 661 662 663 664 665 459 458 666 667 668 669 463 462 670 671
8 672 673 674 675 676 677 678 679
8 680 681 682 683 684 685 686 687
4 688 689 690 691
12 692 693 694 695 696 697 588 587 698 595 594 699
4 700 701 702 703
4 704 705 706 707
10 708 709 710 711 712 713 714 715 716 717
13 718 708 717 714 713 719 720 721 722 723 724 725 726
4 727 728 729 730
8 731 732 733 734 735 736 737 738
4 739 740 741 742
5 743 744 745 746 747
13 748 747 746 749 700 703 750 751 702 701 752 745 744
8 408 753 754 407 406 755 756 405
8 757 758 759 760 761 762 763 764
6 765 766 767 768 769 770
4 113 118 117 114
4 563 564 771 772
4 773 774 772 771
18 775 776 777 778 380 384 779 780 383 382 781 782 783 784 785 786 787 788
4 789 790 791 792
4 793 794 795 796
13 797 798 799 800 801 802 803 804 805 806 807 808 809
9 801 800 810 811 812 813 804 803 814
4 815 816 817 818
4 617 819 820 618
4 131 537 538 132
4 821 596 599 822
8 823 824 825 826 827 828 829 830
4 831 598 597 832
10 833 57 61 834 767 766 769 768 60 59
4 835 836 837 838
8 839 840 841 842 843 844 845 846
4 821 822 847 848
4 849 850 75 74
4 851 852 853 854
4 855 856 857 858
15 859 860 861 862 863 864 865 866 867 868 869 870 871 872 873
4 636 15 18 637
33 874 875 876 877 878 879 880 881 882 883 884 885 886 887 888 889 109 108 890 891 892 893 894 895 896 897 898 899 900 106 110 901 902
4 903 904 120 119
7 905 513 512 906 510 509 907
4 903 604 607 904
8 863 862 908 909 910 866 865 911
5 912 875 874 889 888
8 913 914 915 916 917 918 919 920
5 484 921 489 488 485
8 922 923 924 925 926 927 928 929
4 930 931 932 933
4 444 443 934 935
4 936 937 938 939
4 89 270 273 90
4 940 941 942 943
4 937 936 639 638
4 944 945 449 448
4 616 619 790 789
8 946 947 948 949 950 951 952 953
4 81 80 402 401
4 954 955 124 123
4 956 957 958 959
4 561 145 144 562
4 549 960 961 550
4 962 963 964 965
4 280 279 966 967
4 968 431 430 969
4 970 971 972 973
4 568 567 569 572
4 935 934 46 45
4 967 966 291 290
4 521 520 955 954
4 974 975 976 977
4 819 79 78 820
4 260 263 945 944
4 978 979 980 981
13 982 983 984 948 947 985 953 952 986 987 988 989 990
4 268 991 992 269
4 857 439 438 858
4 137 39 40 138
4 993 994 995 996
4 433 432 774 773
4 997 998 999 1000
4 1001 143 146 1002
4 1003 1004 1005 1006
4 247 246 831 832
4 1007 1008 615 614
4 1009 1010 1011 1012
4 1013 1014 1015 1016
4 140 139 77 76
4 1017 92 93 1018
4 1019 1020 1021 1022
4 613 612 856 855
4 547 1008 1007 548
4 1023 1024 245 244
4 42 264 267 43
4 1025 1026 1027 1028
4 53 56 992 991
4 792 791 566 565
4 1017 1018 1024 1023
4 960 968 969 961
4 223 496 495 224
4 938 266 265 939
4 403 262 261 404
4 1029 1030 1031 1032
4 570 848 847 571
4 1033 1034 1035 1036
4 1037 1038 1039 1040
4 1041 1042 1043 1044
4 1045 1046 1047 1048
4 1049 1050 1051 1052
4 1053 1054 1055 1056
4 1057 1058 1059 1060
4 1061 1062 1063 1064
4 1065 1066 1067 1068
4 1069 1070 1071 1072
4 1073 1074 1075 1076
4 1077 1078 1079 1080
4 1081 1082 1083 1084
4 1001 1002 441 440
