ply
format ascii 1.0
comment Created by Blender 2.82 (sub 7) - www.blender.org, source file: ''
element vertex 334
property float x
property float y
property float z
element face 157
property list uchar uint vertex_indices
end_header
11.273860 -19.503500 4.695250
-10.828357 -18.916800 4.095250
-10.796381 -17.883900 4.404250
11.299760 -18.666800 4.945550
-11.941991 15.273010 -5.983210
-12.002042 -17.854700 -5.001120
-12.258047 -17.790300 -4.090210
-12.258047 15.352560 -4.858630
-12.129716 15.234230 9.043250
-12.243789 16.607420 9.043250
-12.970970 17.069870 -10.345750
-12.830140 15.374570 -10.345750
-12.317633 -17.987600 5.381050
-12.317633 -17.987600 6.786850
-12.004925 15.174500 6.572150
-12.004925 15.174500 4.836650
-10.828357 -18.916800 7.215050
-10.854000 -19.745100 6.349350
11.253060 -20.174400 6.521150
11.273860 -19.503500 7.222350
-13.270780 -17.838301 -10.345750
-11.723916 -16.446800 -10.345750
-9.795010 -16.943399 -10.345750
-8.936570 -18.954201 -10.345750
-9.795010 -20.964899 -10.345750
-11.723916 -21.461500 -10.345750
-13.270780 -20.070000 -10.345750
9.588660 16.009319 9.032350
10.198660 17.251064 9.032350
10.341760 17.914425 -10.345750
9.588660 16.381411 -10.345750
10.811660 23.975269 10.145750
12.974660 21.914869 10.145750
12.974660 21.914869 9.195750
10.811660 23.975269 9.195750
11.282060 16.982000 -4.105110
-10.824809 17.329165 -3.713140
-10.824809 16.677050 -2.934040
11.282060 16.453791 -3.474040
15.398960 -18.334400 9.195750
15.398960 -18.334400 10.145750
10.371560 -25.385300 10.145750
10.371560 -25.385300 9.195750
11.282060 15.501980 -4.611190
11.282060 15.795120 -3.699270
-10.824809 15.863880 -3.212100
-10.824809 15.501980 -4.337930
-11.066148 -24.866699 9.195750
-16.846661 -14.865000 9.195750
-16.595930 15.199130 9.195750
-13.299460 21.914869 9.195750
-10.646600 24.441910 9.195750
12.401860 -17.396200 -5.887260
11.400560 -17.380199 -6.165120
11.675460 15.756100 -5.322990
12.486560 15.743130 -5.097930
-3.745510 28.714100 10.295750
-0.162440 29.744600 10.295750
-0.162440 29.744600 9.195750
-3.745510 28.714100 9.195750
-16.595930 15.199130 10.095750
-16.595930 15.199130 9.195750
-16.846661 -14.865000 9.195750
-16.846661 -14.865000 10.095750
10.103060 24.650320 9.195750
10.103060 24.650320 10.345750
10.103060 -25.761900 10.345750
10.103060 -25.761900 9.195750
10.253460 -17.908001 7.268050
10.141460 14.924040 7.350450
9.663860 14.924040 6.083950
9.663860 -17.908001 5.704350
-9.951960 17.364843 9.043250
-9.271850 16.178720 9.043250
-9.301920 16.540600 -10.345750
-10.141560 18.004955 -10.345750
-7.206600 27.718769 9.195750
-4.221140 28.577400 9.195750
-4.221140 -29.461100 9.195750
-10.427820 -25.761900 9.195750
-10.427820 24.650320 9.195750
14.248060 -11.695400 9.154250
14.248060 -14.714500 9.154250
14.444760 -14.711300 8.404250
14.444760 -11.695400 8.404250
-9.253700 15.145690 7.268050
-10.089140 -18.010900 7.350450
-9.538740 -18.016701 6.083950
-8.574200 15.138570 5.704350
11.025060 15.661480 -3.680970
10.597560 -17.497000 -4.137920
11.400560 -17.541800 -3.359390
11.675460 15.625140 -3.050360
-12.447278 -19.370001 8.499550
-12.447278 -17.562300 8.499550
-8.936570 -18.466101 8.499550
-9.631910 -20.094801 8.499550
11.282060 16.982000 -5.117280
-10.824809 17.329165 -4.962730
-11.774440 18.240499 -10.345750
-11.274598 17.555635 9.043250
12.668260 16.698441 9.032350
13.390660 17.232170 -10.345750
12.033760 18.293049 -10.345750
11.569160 17.557749 9.032350
-12.002042 -17.725800 -3.179290
-12.258047 -17.790300 -4.090210
-12.002042 -17.854700 -5.001120
-11.426804 -17.870600 -5.226100
-10.965499 -17.826000 -4.595730
-10.965499 -17.754499 -3.584690
-11.426804 -17.709900 -2.954310
11.282060 16.719620 7.215050
11.282060 17.477888 6.349350
-10.824809 17.074209 6.521150
-10.824809 16.460011 7.222350
-10.824809 -20.346600 -3.839210
-10.824809 -20.290001 -4.797450
11.282060 -20.352600 -5.286170
11.282060 -20.422400 -4.103160
2.779660 28.898500 9.195750
2.779660 28.898500 10.295750
3.273860 -29.744600 10.295750
3.273860 -29.744600 9.195750
12.075160 14.924040 5.381050
12.640760 -17.908001 4.836650
11.578360 -17.908001 3.754550
11.214560 14.924040 4.504550
-10.662310 15.396710 -4.234530
-10.662310 15.308410 -5.482720
-11.231821 15.253360 -6.260960
-11.941991 15.432110 -3.734040
-11.231821 15.451760 -3.456290
13.902460 -14.720200 7.654250
13.902460 -11.695400 7.654250
3.420760 28.714100 10.345750
6.881860 27.718769 10.345750
6.881860 27.718769 9.195750
3.420760 28.714100 9.195750
-9.746410 14.890440 9.043250
-9.887790 14.950130 -10.345750
-10.965499 -17.826000 -4.595730
-11.426804 -17.870600 -5.226100
-11.457994 14.431200 -10.345750
-11.018277 14.470100 9.043250
12.847560 -17.461000 -4.762250
12.401860 -17.525801 -3.637250
10.597560 -17.424999 -5.386590
14.248060 13.304610 9.154250
14.444760 13.304610 8.404250
13.902460 13.304610 7.654250
-14.107580 13.304610 7.654250
-15.255190 13.304610 9.154250
11.399760 -16.864100 9.054750
11.862660 -16.821600 -10.345750
10.209760 -17.388800 -10.345750
10.060960 -17.323500 9.054750
-14.492250 9.817040 7.654250
-15.255190 9.804610 9.154250
14.248060 10.285470 9.154250
-15.255190 -15.195400 9.154250
-14.492250 -15.183000 7.654250
3.420760 -29.744600 9.195750
3.420760 -29.744600 10.345750
-10.824809 17.074209 5.396450
11.282060 17.477888 4.960950
11.282060 16.719620 4.095250
-10.824809 16.460011 4.695250
-10.780513 15.161680 7.654250
-11.325859 -17.997999 7.663350
-10.824809 15.694110 4.945550
-10.824809 15.353260 5.958850
-10.824809 15.694110 6.972050
-10.824809 16.460011 7.222350
-10.824809 17.074209 6.521150
-10.824809 17.074209 5.396450
-10.824809 16.460011 4.695250
-11.325859 -17.997999 4.504550
-10.780513 15.161680 3.754550
-9.253700 15.145690 4.140750
-10.089140 -18.010900 4.817350
-14.107580 -11.695400 7.654250
-15.255190 -11.695400 9.154250
-4.221140 -29.461100 10.245750
-10.427820 -25.761900 10.245750
-10.427820 -25.761900 9.195750
-4.221140 -29.461100 9.195750
-4.221140 28.577400 9.195750
-4.221140 28.577400 10.245750
-10.646600 24.441910 9.195750
-10.646600 24.441910 10.095750
-11.066148 -24.866699 10.095750
-11.066148 -24.866699 9.195750
11.282060 15.774070 6.906150
-10.824809 15.694110 6.972050
-10.824809 15.863880 -5.463770
11.282060 15.795120 -5.523120
11.025060 15.719760 -4.692390
12.569760 -17.699301 9.054750
13.306960 -17.852699 -10.345750
12.486560 15.638110 -3.275420
12.847560 15.690620 -4.186680
12.486560 15.743130 -5.097930
11.675460 15.756100 -5.322990
11.025060 15.719760 -4.692390
11.025060 15.661480 -3.680970
11.675460 15.625140 -3.050360
-10.796381 -17.883900 6.906150
11.299760 -18.666800 6.972050
11.311260 -18.294500 5.958850
-10.782151 -17.424200 5.655150
-10.824809 15.353260 5.958850
-10.824809 15.694110 4.945550
11.282060 15.774070 4.404250
11.282060 15.353260 5.655150
9.588660 16.009319 9.032350
10.198660 14.767580 9.032350
11.569160 14.460890 9.032350
12.668260 15.320210 9.032350
12.668260 16.698441 9.032350
11.569160 17.557749 9.032350
10.198660 17.251064 9.032350
-11.194320 -16.435200 8.499550
12.847560 15.690620 -4.186680
12.486560 15.638110 -3.275420
-3.745510 -29.744600 10.295750
-10.824809 -18.924400 -4.718760
11.282060 -18.666599 -5.189030
11.282060 -19.571100 -5.769430
-10.824809 -19.657101 -5.188890
9.593060 -19.127199 -10.345750
9.561460 -18.731600 9.054750
-10.965499 -17.754499 -3.584690
-11.426804 -17.709900 -2.954310
-12.002042 -17.725800 -3.179290
11.282060 -18.792400 -3.057310
11.282060 -18.320000 -3.982020
-10.824809 -18.643700 -3.741090
-10.824809 -19.026300 -2.992070
-13.299460 21.914869 10.095750
-13.299460 21.914869 9.195750
6.881860 27.718769 9.195750
10.103060 24.650320 9.195750
10.103060 -25.761900 9.195750
3.420760 -29.744600 9.195750
3.420760 28.714100 9.195750
10.141460 14.924040 4.817350
9.663860 14.924040 6.083950
10.141460 14.924040 7.350450
11.214560 14.924040 7.663350
12.075160 14.924040 6.786850
12.075160 14.924040 5.381050
11.214560 14.924040 4.504550
12.075160 14.924040 6.786850
12.640760 -17.908001 6.572150
10.253460 -17.908001 4.140750
11.578360 -17.908001 7.654250
11.214560 14.924040 7.663350
12.974660 21.914869 9.195750
16.846661 14.026680 9.195750
15.398960 -18.334400 9.195750
10.371560 -25.385300 9.195750
10.811660 23.975269 9.195750
10.141460 14.924040 4.817350
11.299760 -18.666800 6.972050
11.273860 -19.503500 7.222350
11.253060 -20.174400 6.521150
11.253060 -20.174400 5.396450
11.273860 -19.503500 4.695250
11.299760 -18.666800 4.945550
11.311260 -18.294500 5.958850
-7.206600 27.718769 10.245750
-7.206600 27.718769 9.195750
14.444760 10.288680 8.404250
13.902460 10.279840 7.654250
-10.427820 24.650320 10.245750
-10.427820 24.650320 9.195750
16.846661 14.026680 10.145750
16.846661 14.026680 9.195750
-11.194320 -20.497101 8.499550
-10.089140 -18.010900 4.817350
-9.538740 -18.016701 6.083950
-10.089140 -18.010900 7.350450
-11.325859 -17.997999 7.663350
-12.317633 -17.987600 6.786850
-12.317633 -17.987600 5.381050
-11.325859 -17.997999 4.504550
-10.824809 16.677050 -5.741830
11.253060 -20.174400 5.396450
-10.854000 -19.745100 4.960950
11.282060 16.982000 -5.117280
11.282060 16.982000 -4.105110
11.282060 16.453791 -3.474040
11.282060 15.795120 -3.699270
11.282060 15.501980 -4.611190
11.282060 15.795120 -5.523120
11.282060 16.453791 -5.748350
-3.745510 28.714100 9.195750
-0.162440 29.744600 9.195750
2.779660 28.898500 9.195750
3.273860 -29.744600 9.195750
-3.745510 -29.744600 9.195750
12.195760 -20.985201 -10.345750
13.455260 -19.705700 -10.345750
12.689760 -19.200199 9.054750
11.669560 -20.236601 9.054750
11.282060 16.453791 -5.748350
-3.745510 -29.744600 9.195750
-9.631910 -20.094801 8.499550
-8.936570 -18.466101 8.499550
-9.631910 -16.837400 8.499550
-11.194320 -16.435200 8.499550
-12.447278 -17.562300 8.499550
-12.447278 -19.370001 8.499550
-11.194320 -20.497101 8.499550
-9.631910 -16.837400 8.499550
10.341760 14.848390 -10.345750
10.198660 14.767580 9.032350
11.282060 -19.728001 -3.111220
-10.824809 -19.784201 -3.035740
-10.646600 24.441910 9.195750
12.668260 15.320210 9.032350
13.390660 15.530650 -10.345750
10.476960 -20.727800 -10.345750
10.277360 -20.028099 9.054750
12.033760 14.469770 -10.345750
11.569160 14.460890 9.032350
-10.824809 -20.290001 -4.797450
-10.824809 -20.346600 -3.839210
-10.824809 -19.784201 -3.035740
-10.824809 -19.026300 -2.992070
-10.824809 -18.643700 -3.741090
-10.824809 -18.924400 -4.718760
-10.824809 -19.657101 -5.188890
4 0 1 2 3
4 4 5 6 7
4 8 9 10 11
4 12 13 14 15
4 16 17 18 19
7 20 21 22 23 24 25 26
4 27 28 29 30
4 31 32 33 34
4 35 36 37 38
4 39 40 41 42
4 43 44 45 46
5 47 48 49 50 51
4 52 53 54 55
4 56 57 58 59
4 60 61 62 63
4 64 65 66 67
4 68 69 70 71
4 72 73 74 75
5 76 77 78 79 80
4 81 82 83 84
4 85 86 87 88
4 89 90 91 92
4 93 94 20 26
4 95 96 24 23
4 35 97 98 36
4 99 10 9 100
4 101 102 103 104
7 105 106 107 108 109 110 111
4 112 113 114 115
4 116 117 118 119
4 120 121 122 123
4 124 125 126 127
7 128 129 130 4 7 131 132
4 84 83 133 134
4 135 136 137 138
4 74 73 139 140
4 130 129 141 142
4 8 11 143 144
7 145 146 91 90 147 53 52
5 148 149 150 151 152
4 144 143 140 139
4 153 154 155 156
4 75 99 100 72
4 151 157 158 152
4 158 159 148 152
5 133 83 82 160 161
4 135 138 162 163
4 164 165 166 167
4 168 14 13 169
7 170 171 172 173 174 175 176
4 177 178 179 180
4 181 161 160 182
4 87 180 179 88
4 183 184 185 186
4 187 188 183 186
4 189 190 191 192
4 193 112 115 194
4 195 196 43 46
4 89 197 147 90
4 198 199 154 153
7 200 201 202 203 204 205 206
4 136 65 64 137
4 207 208 209 210
4 211 212 213 214
7 215 216 217 218 219 220 221
4 21 20 94 222
4 223 224 146 145
5 57 56 225 122 121
4 226 227 228 229
4 230 231 156 155
4 232 128 132 233
4 229 228 118 117
4 233 132 131 234
4 235 236 237 238
4 232 141 129 128
4 239 240 61 60
5 241 242 243 244 245
7 246 247 248 249 250 251 252
4 124 253 254 125
7 68 71 255 126 125 254 256
4 68 256 257 69
5 258 259 260 261 262
4 127 126 255 263
4 4 130 142 5
5 81 84 134 181 182
7 264 265 266 267 268 269 270
4 6 234 131 7
5 191 190 239 60 63
7 72 100 9 8 144 139 73
7 75 74 140 143 11 10 99
4 256 254 253 257
4 271 188 187 272
4 149 273 274 150
4 134 133 161 181
4 160 82 81 182
4 164 114 113 165
4 63 62 192 191
4 148 159 273 149
4 275 276 185 184
4 277 40 39 278
4 150 274 157 151
5 274 273 159 158 157
4 279 25 24 96
7 280 281 282 283 284 285 286
4 33 32 277 278
7 88 179 178 15 14 168 85
4 38 37 45 44
4 66 163 162 67
7 98 287 195 46 45 37 36
7 113 112 193 214 213 166 165
4 85 168 169 86
4 275 271 272 276
4 167 166 213 212
4 288 289 1 0
4 193 194 211 214
7 290 291 292 293 294 295 296
5 297 298 299 300 301
4 302 303 304 305
4 12 15 178 177
4 31 34 42 41
4 288 18 17 289
5 66 65 136 135 163
4 57 121 120 58
4 209 3 2 210
4 287 98 97 306
5 271 275 184 183 188
4 207 16 19 208
4 93 26 25 279
4 56 59 307 225
4 52 55 223 145
4 92 91 146 224
4 122 225 307 123
4 198 304 303 199
5 40 277 32 31 41
4 226 237 236 227
4 53 147 197 54
7 308 309 310 311 312 313 314
4 195 287 306 196
4 22 21 222 315
4 316 317 27 30
4 318 319 116 119
4 239 190 320 240
4 101 321 322 102
7 230 155 154 199 303 302 323
4 22 315 95 23
7 17 16 207 210 2 1 289
4 324 231 230 323
4 104 103 29 28
7 324 305 304 198 153 156 231
4 316 325 326 317
4 325 322 321 326
7 327 328 329 330 331 332 333
7 316 30 29 103 102 322 325
7 236 235 318 119 118 228 227
4 70 263 255 71
4 318 235 238 319
4 323 302 305 324
