ply
format ascii 1.0
comment Created by Blender 2.82 (sub 7) - www.blender.org, source file: ''
element vertex 200
property float x
property float y
property float z
element face 50
property list uchar uint vertex_indices
end_header
-10.669250 5.905550 6.889799
10.984250 5.905550 6.889799
10.984250 21.653549 6.889799
-10.669250 21.653549 6.889799
-10.669250 15.936330 4.620299
-10.669250 11.841840 4.620299
-10.669250 11.841840 4.305399
-10.669250 5.905550 6.889799
-10.669250 5.905550 7.873999
-10.669250 21.653549 7.873999
-10.669250 21.653549 6.889799
-10.669250 15.936330 4.305399
-10.669250 15.936330 4.620299
-10.669250 15.936330 4.305399
-10.984250 15.936330 4.305399
-10.984250 15.936330 4.620299
-9.881850 -20.866150 -7.387361
10.196848 -20.866150 -7.387361
10.196848 -20.866150 -1.968491
10.984250 -20.866150 -1.968491
10.984250 -20.866150 -7.873999
-10.669250 -20.866150 -7.873999
-10.669250 -20.866150 -1.968491
-9.881850 -20.866150 -1.968491
10.984250 20.866148 -1.968491
10.984250 20.866148 -7.873999
10.984250 21.653549 -7.873999
10.984250 21.653549 -0.393681
10.984250 -21.653549 -0.393681
10.984250 -21.653549 -7.873999
10.984250 -20.866150 -7.873999
10.984250 -20.866150 -1.968491
-9.881850 20.866148 -7.873999
-9.881850 20.866148 -1.968491
-10.669250 20.866148 -1.968491
-10.669250 20.866148 -7.873999
-10.669250 21.653549 -0.393681
-10.669250 5.905550 -0.393681
10.984250 -21.653549 -7.873999
10.196848 -21.653549 -7.873999
10.196848 -20.866150 -7.873999
10.984250 -20.866150 -7.873999
-9.881850 20.866148 -7.873999
-10.669250 20.866148 -7.873999
-10.669250 21.653549 -7.873999
-9.881850 21.653549 -7.873999
10.984250 21.653549 7.873999
10.984250 -21.653549 7.873999
10.984250 -20.669250 -0.393681
10.984250 -20.669250 7.559099
10.984250 5.905550 7.559099
10.984250 5.905550 -0.393681
-9.881850 -20.866150 -1.968491
-9.881850 -21.653549 -1.968491
-9.881850 -21.653549 -7.387361
-9.881850 -20.866150 -7.387361
10.984250 20.866148 -7.873999
10.984250 20.866148 -1.968491
10.196848 20.866148 -1.968491
10.196848 20.866148 -7.387361
-9.881850 20.866148 -7.387361
-10.669250 -21.653549 -1.181081
-10.669250 21.653549 -1.181081
-10.669250 21.653549 -7.873999
-10.669250 20.866148 -7.873999
-10.669250 20.866148 -1.968491
-10.669250 -20.866150 -1.968491
-10.669250 -20.866150 -7.873999
-10.669250 -21.653549 -7.873999
-10.669250 -21.653549 -0.393681
-10.669250 -20.669250 -0.393681
-10.669250 -20.669250 7.559099
-10.669250 5.905550 7.559099
-10.669250 5.905550 7.873999
-10.669250 -20.669250 7.873999
-10.669250 5.905550 7.873999
10.984250 5.905550 7.873999
10.984250 -20.669250 7.873999
-10.669250 -20.669250 7.873999
10.984250 5.905550 7.873999
-10.669250 5.905550 7.873999
-10.669250 5.905550 -0.393681
10.984250 5.905550 -0.393681
-10.669250 5.905550 7.873999
10.984250 5.905550 7.873999
10.984250 21.653549 7.873999
-10.669250 21.653549 7.873999
10.196848 -21.653549 -7.873999
-10.669250 -21.653549 -7.873999
-10.669250 -20.866150 -7.873999
10.196848 -20.866150 -7.873999
-10.669250 -21.653549 7.873999
-10.669250 -20.669250 7.873999
10.196848 -21.653549 -7.387361
10.984250 -21.653549 -7.873999
10.984250 -21.653549 -1.181081
10.196848 -21.653549 -1.968491
-10.669250 -20.669250 7.873999
10.984250 -20.669250 7.873999
10.984250 5.905550 7.873999
-10.669250 5.905550 7.873999
-10.984250 11.841840 4.620299
-10.984250 15.936330 4.620299
-10.984250 15.936330 4.305399
-10.984250 11.841840 4.305399
-10.669250 -21.653549 7.873999
10.984250 -21.653549 7.873999
10.984250 -20.669250 7.873999
-10.669250 -20.669250 7.873999
-9.881850 21.653549 -7.873999
-9.881850 21.653549 -1.968491
-9.881850 21.653549 -7.387361
-9.685050 5.905550 6.889799
-9.685050 21.653549 6.889799
-9.685050 21.653549 -0.393681
-9.685050 5.905550 -0.393681
10.984250 20.866148 -7.873999
-9.881850 20.866148 -7.873999
-9.881850 21.653549 -7.873999
10.984250 21.653549 -7.873999
-10.669250 -21.653549 -0.393681
10.984250 -21.653549 -0.393681
10.984250 21.653549 -0.393681
-10.669250 21.653549 -0.393681
10.196848 -21.653549 -1.968491
-9.881850 -21.653549 -1.968491
-9.881850 -20.866150 -1.968491
-10.669250 -20.866150 -1.968491
-10.669250 20.866148 -1.968491
-9.881850 20.866148 -1.968491
-9.881850 21.653549 -1.968491
10.196848 21.653549 -1.968491
10.196848 20.866148 -1.968491
10.984250 20.866148 -1.968491
10.984250 -20.866150 -1.968491
10.196848 -20.866150 -1.968491
-9.881850 21.653549 -1.968491
-9.881850 20.866148 -1.968491
-9.881850 20.866148 -7.387361
-9.881850 21.653549 -7.387361
10.196848 21.653549 -7.387361
10.984250 21.653549 -7.873999
-10.669250 -21.653549 -1.181081
-10.669250 -21.653549 -7.873999
-9.881850 -21.653549 -7.387361
-9.881850 -21.653549 -1.968491
-10.669250 11.841840 4.305399
-10.984250 11.841840 4.305399
-10.984250 15.936330 4.305399
-10.669250 15.936330 4.305399
10.984250 -20.669250 -0.393681
-10.669250 -20.669250 -0.393681
-10.669250 -20.669250 7.873999
10.984250 -20.669250 7.873999
10.984250 21.653549 7.873999
10.196848 21.653549 -1.968491
-10.669250 21.653549 -7.873999
-10.669250 21.653549 7.873999
10.984250 -21.653549 -1.181081
10.984250 -21.653549 7.873999
-10.669250 -21.653549 7.873999
-10.669250 -21.653549 -1.181081
-9.881850 -21.653549 -7.387361
10.196848 -21.653549 -7.387361
10.196848 -20.866150 -7.387361
-9.881850 -20.866150 -7.387361
10.196848 -21.653549 -1.968491
10.196848 -20.866150 -1.968491
10.196848 -20.866150 -7.387361
10.196848 -21.653549 -7.387361
-9.881850 20.866148 -7.387361
10.196848 20.866148 -7.387361
10.196848 21.653549 -7.387361
-9.881850 21.653549 -7.387361
-10.669250 21.653549 -1.181081
-10.669250 -21.653549 -1.181081
10.984250 5.905550 7.559099
-10.669250 5.905550 7.559099
-10.669250 -20.669250 7.559099
10.984250 -20.669250 7.559099
10.984250 -20.669250 7.559099
-10.669250 -20.669250 7.559099
-10.669250 5.905550 7.559099
10.984250 5.905550 7.559099
-10.669250 -20.669250 7.873999
-10.669250 5.905550 7.873999
-10.669250 5.905550 7.559099
-10.669250 -20.669250 7.559099
10.196848 20.866148 -1.968491
10.196848 21.653549 -1.968491
10.196848 21.653549 -7.387361
10.196848 20.866148 -7.387361
-10.669250 11.841840 4.305399
-10.669250 11.841840 4.620299
-10.984250 11.841840 4.620299
-10.984250 11.841840 4.305399
-10.984250 11.841840 4.620299
-10.669250 11.841840 4.620299
-10.669250 15.936330 4.620299
-10.984250 15.936330 4.620299
4 0 1 2 3
8 4 5 6 7 8 9 10 11
4 12 13 14 15
8 16 17 18 19 20 21 22 23
8 24 25 26 27 28 29 30 31
4 32 33 34 35
6 7 6 11 10 36 37
4 38 39 40 41
4 42 43 44 45
8 46 47 28 48 49 50 51 27
4 52 53 54 55
6 56 57 58 59 60 32
8 61 62 63 64 65 66 67 68
3 36 69 70
3 36 70 37
4 71 72 73 74
4 75 76 77 78
4 79 80 81 82
3 28 27 51
3 28 51 48
4 83 84 85 86
4 87 88 89 90
4 91 92 70 69
4 93 94 95 96
4 97 98 99 100
4 101 102 103 104
4 105 106 107 108
3 109 110 111
4 112 113 114 115
4 116 117 118 119
4 120 121 122 123
12 124 125 126 127 128 129 130 131 132 133 134 135
4 136 137 138 139
4 140 141 109 111
8 142 143 94 93 144 145 96 95
4 146 147 148 149
3 33 32 60
4 150 151 152 153
8 154 141 140 155 110 109 156 157
4 158 159 160 161
4 162 163 164 165
4 166 167 168 169
4 170 171 172 173
4 69 36 174 175
4 176 177 178 179
4 180 181 182 183
4 184 185 186 187
4 188 189 190 191
4 192 193 194 195
4 196 197 198 199
