ply
format ascii 1.0
comment Created by Blender 2.82 (sub 7) - www.blender.org, source file: ''
element vertex 347
property float x
property float y
property float z
element face 90
property list uchar uint vertex_indices
end_header
-17.105400 4.643950 13.779550
-16.046400 4.032550 13.779550
19.386700 1.670350 -14.566950
18.327700 2.281750 -14.566950
-6.496300 15.343050 -14.566950
-6.576800 15.954450 -14.566950
9.094000 -15.912650 13.779550
9.174500 -16.524050 13.779550
-17.716700 0.000050 13.779550
17.716299 -2.362150 -14.566950
18.327700 -2.281650 -14.566950
-17.105400 0.080550 13.779550
14.763600 25.571650 14.566950
14.763600 25.571650 13.779550
-0.000200 29.527651 13.779550
-0.000200 29.527651 14.566950
-8.247100 -17.624649 -14.566950
11.515200 11.880250 13.779550
10.292400 11.880250 13.779550
-9.469900 -17.624649 -14.566950
17.821199 -23.225349 13.779550
17.821199 -23.225349 14.566950
14.763600 -25.571550 14.566950
14.763600 -25.571550 13.779550
-14.764000 -25.571550 14.566950
-14.764000 -25.571550 13.779550
-25.571800 -14.763750 13.779550
-25.571800 -14.763750 14.566950
8.622100 13.550550 13.779550
-11.140200 -15.954250 -14.566950
-10.528800 -17.013250 -14.566950
9.233500 12.491550 13.779550
25.571800 14.763850 13.779550
28.520800 7.642350 13.779550
12.949500 12.980850 13.779550
13.266000 14.161950 13.779550
12.949500 15.343050 13.779550
12.084900 16.207649 13.779550
10.903800 16.524151 13.779550
10.292400 16.443649 13.779550
-25.571800 14.763850 13.779550
-14.764000 25.571650 13.779550
-0.000200 29.527651 13.779550
14.763600 25.571650 13.779550
-16.535601 0.316550 13.779550
-17.716700 0.000050 13.779550
29.527800 0.000050 13.779550
-15.354500 2.362250 13.779550
-15.671000 1.181150 13.779550
-25.571800 -14.763750 14.566950
-29.527800 0.000050 14.566950
-29.527800 0.000050 13.779550
-25.571800 -14.763750 13.779550
-14.764000 -25.571550 13.779550
-14.764000 -25.571550 14.566950
-17.716700 4.724450 13.779550
17.716299 2.362250 -14.566950
17.821199 -23.225349 13.779550
17.821199 -23.225349 14.566950
25.571800 -14.763750 14.566950
25.571800 -14.763750 13.779550
-10.904200 14.161950 -14.566950
-10.528800 13.672650 -14.566950
5.142000 -18.194349 13.779550
4.766600 -17.705151 13.779550
9.174500 -16.524050 13.779550
8.858100 -15.342950 13.779550
7.993400 -14.478250 13.779550
25.571800 -14.763750 13.779550
20.878901 -20.879049 13.779550
7.993400 -18.569750 13.779550
8.858100 -17.705151 13.779550
-7.188200 -17.013250 -14.566950
-6.812800 -16.524050 -14.566950
12.949500 12.980850 13.779550
12.574100 12.491550 13.779550
-18.897800 4.407950 13.779550
-18.328100 4.643950 13.779550
17.104900 2.281750 -14.566950
16.535200 2.045750 -14.566950
-10.039600 -13.297150 -14.566950
9.722700 16.207649 13.779550
10.903800 16.524151 13.779550
-8.858500 -12.980750 -14.566950
15.670600 1.181150 -14.566950
-19.762501 3.543350 13.779550
-10.904200 -14.161850 -14.566950
-11.140200 -14.731550 -14.566950
8.622100 14.773350 13.779550
8.858100 15.343050 13.779550
6.812300 -18.886250 13.779550
14.763600 -25.571550 13.779550
-0.000200 -29.527651 13.779550
-14.764000 -25.571550 13.779550
-25.571800 -14.763750 13.779550
-29.527800 0.000050 13.779550
29.527800 0.000050 13.779550
6.812300 -14.161850 13.779550
5.631200 -14.478250 13.779550
5.142000 -14.853650 13.779550
4.530600 -15.912650 13.779550
4.450100 -16.524050 13.779550
4.766600 -17.705151 13.779550
5.631200 -18.569750 13.779550
-10.039600 13.297250 -14.566950
5.631200 -18.569750 13.779550
-18.328100 0.080550 13.779550
17.104900 -2.281650 -14.566950
-18.897800 0.316550 13.779550
16.535200 -2.045650 -14.566950
29.527800 0.000050 13.779550
29.527800 0.000050 14.566950
10.903800 16.524151 13.779550
11.515200 16.443649 13.779550
-8.247100 -13.061250 -14.566950
-8.858500 -12.980750 -14.566950
-11.203200 27.046551 14.566950
-11.203200 27.046551 13.779550
-0.000200 29.527651 13.779550
-0.000200 29.527651 14.566950
14.763600 -25.571550 14.566950
14.763600 -25.571550 13.779550
-0.000200 -29.527651 13.779550
-0.000200 -29.527651 14.566950
25.571800 14.763850 14.566950
25.571800 14.763850 13.779550
14.763600 25.571650 13.779550
14.763600 25.571650 14.566950
8.482700 -18.194349 13.779550
7.423700 -18.805750 13.779550
6.812300 -18.886250 13.779550
-8.858500 12.980850 -14.566950
-7.677400 13.297250 -14.566950
-7.188200 13.672650 -14.566950
-29.527800 0.000050 13.779550
-29.527800 0.000050 14.566950
-6.576800 -15.954250 -14.566950
13.185500 13.550550 13.779550
6.812300 -14.161850 13.779550
5.631200 -14.478250 13.779550
5.142000 -14.853650 13.779550
4.530600 -15.912650 13.779550
4.450100 -16.524050 13.779550
4.766600 -17.705151 13.779550
5.631200 -18.569750 13.779550
6.812300 -18.886250 13.779550
7.423700 -18.805750 13.779550
8.482700 -18.194349 13.779550
8.858100 -17.705151 13.779550
9.174500 -16.524050 13.779550
8.858100 -15.342950 13.779550
7.993400 -14.478250 13.779550
-10.528800 -13.672550 -14.566950
9.233500 15.832250 13.779550
-17.716700 0.000050 13.779550
-6.812800 16.524151 -14.566950
-7.188200 17.013350 -14.566950
8.482700 -14.853650 13.779550
8.858100 -15.342950 13.779550
-19.762501 1.181150 13.779550
15.670600 -1.181050 -14.566950
-6.496300 -15.342950 -14.566950
-6.812800 -14.161850 -14.566950
12.949500 15.343050 13.779550
13.266000 14.161950 13.779550
-15.435000 2.973650 13.779550
19.997999 0.611450 -14.566950
-16.535601 4.407950 13.779550
-17.716700 4.724450 13.779550
-18.328100 4.643950 13.779550
-19.387100 4.032550 13.779550
-19.998501 2.973650 13.779550
-19.998501 1.750850 13.779550
-19.387100 0.691950 13.779550
-18.328100 0.080550 13.779550
-17.716700 0.000050 13.779550
-16.535601 0.316550 13.779550
-15.671000 1.181150 13.779550
-15.354500 2.362250 13.779550
-15.671000 3.543350 13.779550
8.858100 15.343050 13.779550
8.541600 14.161950 13.779550
8.622100 13.550550 13.779550
9.233500 12.491550 13.779550
9.722700 12.116150 13.779550
10.903800 11.799750 13.779550
12.084900 12.116150 13.779550
-15.671000 3.543350 13.779550
-16.535601 4.407950 13.779550
-17.716700 4.724450 13.779550
-18.328100 4.643950 13.779550
-19.387100 4.032550 13.779550
-19.998501 2.973650 13.779550
-19.998501 1.750850 13.779550
-19.387100 0.691950 13.779550
-18.328100 0.080550 13.779550
9.722700 16.207649 13.779550
12.574100 12.491550 13.779550
13.185500 13.550550 13.779550
13.266000 14.161950 13.779550
12.949500 15.343050 13.779550
12.084900 16.207649 13.779550
10.903800 16.524151 13.779550
9.722700 16.207649 13.779550
8.858100 15.343050 13.779550
8.541600 14.161950 13.779550
8.622100 13.550550 13.779550
9.233500 12.491550 13.779550
9.722700 12.116150 13.779550
10.903800 11.799750 13.779550
12.084900 12.116150 13.779550
-8.247100 17.624750 -14.566950
7.423700 -14.242350 13.779550
-25.571800 14.763850 14.566950
-25.571800 14.763850 13.779550
-0.000200 -29.527651 13.779550
14.763600 -25.571550 13.779550
20.878901 -20.879049 13.779550
7.993400 -18.569750 13.779550
6.812300 -18.886250 13.779550
5.631200 -18.569750 13.779550
4.766600 -17.705151 13.779550
4.450100 -16.524050 13.779550
4.530600 -15.912650 13.779550
5.142000 -14.853650 13.779550
5.631200 -14.478250 13.779550
6.812300 -14.161850 13.779550
7.423700 -14.242350 13.779550
25.571800 -14.763750 13.779550
-29.527800 0.000050 13.779550
-25.571800 -14.763750 13.779550
-14.764000 -25.571550 13.779550
-11.140200 15.954450 -14.566950
4.530600 -15.912650 13.779550
5.142000 -14.853650 13.779550
-10.528800 17.013350 -14.566950
-15.671000 3.543350 13.779550
28.520800 7.642350 13.779550
11.515200 11.880250 13.779550
10.903800 11.799750 13.779550
9.722700 12.116150 13.779550
9.233500 12.491550 13.779550
8.622100 13.550550 13.779550
8.541600 14.161950 13.779550
8.858100 15.343050 13.779550
9.722700 16.207649 13.779550
10.292400 16.443649 13.779550
-25.571800 14.763850 13.779550
-18.328100 0.080550 13.779550
-19.387100 0.691950 13.779550
-19.998501 1.750850 13.779550
-19.998501 2.973650 13.779550
-19.387100 4.032550 13.779550
-18.328100 4.643950 13.779550
-17.716700 4.724450 13.779550
-16.535601 4.407950 13.779550
-9.469900 17.624750 -14.566950
6.200900 -14.242350 13.779550
8.482700 -14.853650 13.779550
8.858100 -15.342950 13.779550
9.174500 -16.524050 13.779550
8.858100 -17.705151 13.779550
-19.998501 1.750850 13.779550
15.434600 -0.611350 -14.566950
15.670600 -1.181050 -14.566950
-19.762501 1.181150 13.779550
12.084900 16.207649 13.779550
12.949500 15.343050 13.779550
13.266000 14.161950 13.779550
13.185500 13.550550 13.779550
12.574100 12.491550 13.779550
25.571800 14.763850 13.779550
14.763600 25.571650 13.779550
-0.000200 29.527651 13.779550
-14.764000 25.571650 13.779550
10.903800 16.524151 13.779550
-6.812800 14.161950 -14.566950
8.858100 -17.705151 13.779550
8.858100 -17.705151 13.779550
-6.812800 14.161950 -14.566950
25.571800 14.763850 13.779550
25.571800 14.763850 14.566950
-14.764000 25.571650 14.566950
-14.764000 25.571650 13.779550
-11.203200 27.046551 13.779550
-11.203200 27.046551 14.566950
-8.858500 12.980850 -14.566950
6.812300 -18.886250 13.779550
-11.203200 27.046551 14.566950
-11.203200 27.046551 13.779550
-14.764000 25.571650 13.779550
-14.764000 25.571650 14.566950
12.084900 16.207649 13.779550
12.949500 15.343050 13.779550
-6.812800 -14.161850 -14.566950
-7.677400 -13.297150 -14.566950
-0.000200 -29.527651 14.566950
-0.000200 -29.527651 13.779550
-11.140200 14.731650 -14.566950
4.530600 -17.135450 13.779550
15.670600 1.181150 -14.566950
15.354100 0.000050 -14.566950
-20.079000 2.362250 13.779550
-19.762501 3.543350 13.779550
-14.764000 25.571650 14.566950
-25.571800 14.763850 14.566950
-29.527800 0.000050 14.566950
-25.571800 -14.763750 14.566950
-14.764000 -25.571550 14.566950
-0.000200 -29.527651 14.566950
14.763600 -25.571550 14.566950
25.571800 -14.763750 14.566950
29.527800 0.000050 14.566950
25.571800 14.763850 14.566950
14.763600 25.571650 14.566950
-0.000200 29.527651 14.566950
29.527800 0.000050 14.566950
25.571800 -14.763750 14.566950
25.571800 -14.763750 13.779550
29.527800 0.000050 13.779550
17.821199 -23.225349 14.566950
17.821199 -23.225349 13.779550
17.821199 -23.225349 14.566950
17.821199 -23.225349 13.779550
-15.435000 1.750850 13.779550
19.997999 -0.611350 -14.566950
-16.046400 0.691950 13.779550
19.386700 -1.670250 -14.566950
-25.571800 14.763850 13.779550
-25.571800 14.763850 14.566950
-11.203200 27.046551 13.779550
-11.203200 27.046551 14.566950
-16.535601 0.316550 13.779550
-15.671000 1.181150 13.779550
-15.354500 2.362250 13.779550
14.763600 25.571650 14.566950
25.571800 14.763850 14.566950
29.527800 0.000050 14.566950
25.571800 -14.763750 14.566950
14.763600 -25.571550 14.566950
-0.000200 -29.527651 14.566950
-14.764000 -25.571550 14.566950
-25.571800 -14.763750 14.566950
-29.527800 0.000050 14.566950
-25.571800 14.763850 14.566950
-14.764000 25.571650 14.566950
-0.000200 29.527651 14.566950
4 0 1 2 3
4 4 5 6 7
4 8 9 10 11
4 12 13 14 15
4 16 17 18 19
4 20 21 22 23
4 24 25 26 27
4 28 29 30 31
12 32 33 34 35 36 37 38 39 40 41 42 43
5 44 45 46 47 48
4 49 50 51 52
4 53 54 49 52
4 55 0 3 56
4 57 58 59 60
4 61 62 63 64
7 65 66 67 68 69 70 71
4 72 73 74 75
4 76 77 78 79
4 80 81 82 83
4 76 79 84 85
4 86 87 88 89
18 90 70 69 91 92 93 94 95 96 68 67 97 98 99 100 101 102 103
4 62 104 105 63
4 106 107 9 8
4 108 109 107 106
4 110 60 59 111
4 112 113 114 115
4 116 117 118 119
4 120 121 122 123
4 31 30 19 18
4 12 124 125 13
4 118 126 127 119
6 128 129 130 131 132 133
4 26 134 135 27
4 73 136 137 74
14 138 139 140 141 142 143 144 145 146 147 148 149 150 151
4 152 153 81 80
3 154 96 95
4 29 28 88 87
4 155 156 157 158
4 159 160 109 108
4 161 162 163 164
4 1 165 166 2
13 167 168 169 170 171 172 173 174 175 176 177 178 179
24 180 181 182 183 184 185 186 34 33 96 187 188 189 190 191 192 193 194 195 154 95 40 39 196
14 197 198 199 200 201 202 203 204 205 206 207 208 209 210
4 136 161 164 137
4 211 212 157 156
4 50 213 214 51
18 215 216 217 218 219 220 221 222 223 224 225 226 227 228 46 229 230 231
3 229 46 45
4 232 233 234 235
4 152 86 89 153
24 236 47 46 237 238 239 240 241 242 243 244 245 246 247 229 45 248 249 250 251 252 253 254 255
4 256 235 234 257
8 258 259 260 261 218 217 228 227
4 262 263 264 265
14 266 267 268 269 270 238 237 271 272 273 274 247 246 275
4 77 55 56 78
4 276 277 128 133
4 278 279 4 7
4 126 280 281 127
4 282 283 284 285
4 286 287 105 104
4 288 289 290 291
6 113 292 293 294 295 114
4 296 54 53 297
4 298 299 233 232
4 23 22 296 297
4 298 61 64 299
6 300 301 263 262 302 303
12 304 305 306 307 308 309 310 311 312 313 314 315
4 316 317 318 319
4 121 120 320 321
4 72 75 17 16
4 316 319 125 124
4 25 24 123 122
4 317 322 323 318
4 280 110 111 281
4 165 324 325 166
4 324 326 327 325
4 134 328 329 135
4 330 331 15 14
4 326 11 10 327
4 328 283 282 329
4 5 155 158 6
6 332 333 334 187 96 154
12 335 336 337 338 339 340 341 342 343 344 345 346
4 257 212 211 256
4 291 290 214 213
