ply
format ascii 1.0
comment Created by Blender 2.82 (sub 7) - www.blender.org, source file: ''
element vertex 723
property float x
property float y
property float z
element face 172
property list uchar uint vertex_indices
end_header
-3.937030 35.432941 -7.803355
0.000070 35.432941 -8.858285
0.000070 37.401443 -8.858285
-3.937030 37.401443 -7.803355
7.605770 39.369942 1.053645
7.605770 41.338444 1.053645
5.567770 41.338444 4.583545
5.567770 39.369942 4.583545
-18.700769 51.180958 14.566945
18.700769 51.180958 14.566945
18.700769 -51.180958 14.566945
-18.700769 -51.180958 14.566945
0.000070 35.432941 6.889745
-3.937030 35.432941 5.834845
-3.937030 37.401443 5.834845
0.000070 37.401443 6.889745
-18.700769 -51.180958 14.566945
-18.700769 51.180958 14.566945
-18.700769 51.180958 12.598445
-18.700769 41.338444 12.598445
-18.700769 41.338444 -14.566945
-18.700769 39.369942 -14.566945
-18.700769 39.369942 12.598445
-18.700769 37.401443 12.598445
-18.700769 37.401443 -14.566945
-18.700769 35.432941 -14.566945
-18.700769 35.432941 12.598445
-18.700769 -35.433258 12.598445
-18.700769 -35.433258 -14.566945
-18.700769 -37.401756 -14.566945
-18.700769 -37.401756 12.598445
-18.700769 -39.370258 12.598445
-18.700769 -39.370258 -14.566945
-18.700769 -41.338757 -14.566945
-18.700769 -41.338757 12.598445
-18.700769 -51.180958 12.598445
6.318570 -41.338757 -5.573555
6.318570 -39.370258 -5.573555
7.605770 -39.370258 -3.022255
7.605770 -41.338757 -3.022255
-3.937030 39.369942 5.834845
0.000070 39.369942 6.889745
2.037970 39.369942 6.621445
18.700769 39.369942 12.598445
-18.700769 39.369942 12.598445
-5.567730 39.369942 4.583545
-18.700769 -51.180958 12.598445
-18.700769 -51.180958 14.566945
18.700769 -51.180958 14.566945
18.700769 -51.180958 12.598445
18.700769 51.180958 14.566945
18.700769 -51.180958 14.566945
18.700769 -51.180958 12.598445
18.700769 -41.338757 12.598445
18.700769 -41.338757 -14.566945
18.700769 -39.370258 -14.566945
18.700769 -39.370258 12.598445
18.700769 -37.401756 12.598445
18.700769 -37.401756 -14.566945
18.700769 -35.433258 -14.566945
18.700769 -35.433258 12.598445
18.700769 35.432941 12.598445
18.700769 35.432941 -14.566945
18.700769 37.401443 -14.566945
18.700769 37.401443 12.598445
18.700769 39.369942 12.598445
18.700769 39.369942 -14.566945
18.700769 41.338444 -14.566945
18.700769 41.338444 12.598445
18.700769 51.180958 12.598445
7.605770 -41.338757 1.053645
7.605770 -39.370258 1.053645
7.605770 -39.370258 -3.022255
7.605770 -41.338757 -3.022255
7.605770 -35.433258 -3.022255
5.567770 -35.433258 -6.552055
5.567770 -37.401756 -6.552055
7.605770 -37.401756 -3.022255
-7.605730 35.432941 1.053645
-7.605730 35.432941 -3.022255
-7.605730 37.401443 -3.022255
-7.605730 37.401443 1.053645
18.700769 -39.370258 12.598445
18.700769 -39.370258 -14.566945
18.700769 -41.338757 -14.566945
18.700769 -41.338757 12.598445
18.700769 -51.180958 12.598445
18.700769 -51.180958 14.566945
18.700769 51.180958 14.566945
18.700769 51.180958 12.598445
18.700769 41.338444 12.598445
18.700769 41.338444 -14.566945
18.700769 39.369942 -14.566945
18.700769 39.369942 12.598445
18.700769 37.401443 12.598445
18.700769 37.401443 -14.566945
18.700769 35.432941 -14.566945
18.700769 35.432941 12.598445
18.700769 -35.433258 12.598445
18.700769 -35.433258 -14.566945
18.700769 -37.401756 -14.566945
18.700769 -37.401756 12.598445
0.000070 -35.433258 -8.858285
0.000070 -37.401756 -8.858285
-3.937030 -37.401756 -7.803355
-3.937030 -35.433258 -7.803355
-3.937030 -41.338757 5.834845
-3.937030 -39.370258 5.834845
0.000070 -39.370258 6.889745
0.000070 -41.338757 6.889745
-7.605730 39.369942 1.053645
-7.605730 41.338444 1.053645
-6.318530 41.338444 3.605045
-6.318530 39.369942 3.605045
-18.700769 51.180958 14.566945
-18.700769 51.180958 12.598445
18.700769 51.180958 12.598445
18.700769 51.180958 14.566945
0.000070 41.338444 -8.858285
0.000070 39.369942 -8.858285
-3.937030 39.369942 -7.803355
-3.937030 41.338444 -7.803355
3.937070 -41.338757 5.834845
5.567770 -41.338757 4.583545
7.605770 -41.338757 1.053645
18.700769 -41.338757 12.598445
-18.700769 -41.338757 12.598445
-18.700769 -41.338757 -14.566945
18.700769 -41.338757 -14.566945
7.874070 -41.338757 -0.984255
7.605770 -41.338757 -3.022255
5.567770 -41.338757 -6.552055
3.937070 -41.338757 -7.803355
0.000070 -41.338757 -8.858285
-3.937030 -41.338757 -7.803355
-5.567730 -41.338757 -6.552055
-7.605730 -41.338757 -3.022255
-7.605730 -41.338757 1.053645
-5.567730 -41.338757 4.583545
-3.937030 -41.338757 5.834845
0.000070 -41.338757 6.889745
-7.605730 -39.370258 -3.022255
-5.567730 -39.370258 -6.552055
-18.700769 -39.370258 -14.566945
-18.700769 -39.370258 12.598445
18.700769 -39.370258 12.598445
18.700769 -39.370258 -14.566945
6.318570 -39.370258 -5.573555
7.605770 -39.370258 -3.022255
7.605770 -39.370258 1.053645
5.567770 -39.370258 4.583545
3.937070 -39.370258 5.834845
0.000070 -39.370258 6.889745
-3.937030 -39.370258 5.834845
-5.567730 -39.370258 4.583545
-7.605730 -39.370258 1.053645
3.937070 41.338444 -7.803355
3.937070 39.369942 -7.803355
7.605770 -39.370258 -3.022255
6.819070 -39.370258 -4.921255
18.700769 -39.370258 -14.566945
18.700769 -39.370258 12.598445
5.567770 -39.370258 4.583545
7.605770 -39.370258 1.053645
-3.937030 35.432941 5.834845
0.000070 35.432941 6.889745
3.937070 35.432941 5.834845
5.567770 35.432941 4.583545
7.605770 35.432941 1.053645
18.700769 35.432941 12.598445
-18.700769 35.432941 12.598445
-18.700769 35.432941 -14.566945
18.700769 35.432941 -14.566945
7.874070 35.432941 -0.984255
7.605770 35.432941 -3.022255
5.567770 35.432941 -6.552055
3.937070 35.432941 -7.803355
0.000070 35.432941 -8.858285
-3.937030 35.432941 -7.803355
-5.567730 35.432941 -6.552055
-7.605730 35.432941 -3.022255
-7.605730 35.432941 1.053645
-5.567730 35.432941 4.583545
-7.605730 41.338444 -3.022255
-7.605730 39.369942 -3.022255
-7.605730 39.369942 1.053645
-7.605730 41.338444 1.053645
7.605770 37.401443 1.053645
7.605770 37.401443 -3.022255
7.605770 35.432941 -3.022255
7.605770 35.432941 1.053645
0.000070 37.401443 -8.858285
3.937070 37.401443 -7.803355
3.937070 35.432941 -7.803355
0.000070 35.432941 -8.858285
-18.700769 35.432941 12.598445
-6.819030 35.432941 -4.921255
-3.937030 35.432941 -7.803355
0.000070 35.432941 -8.858285
3.937070 35.432941 -7.803355
5.567770 35.432941 -6.552055
7.605770 35.432941 -3.022255
18.700769 35.432941 -14.566945
-18.700769 35.432941 -14.566945
-3.937030 37.401443 -7.803355
-3.937030 35.432941 -7.803355
0.000070 41.338444 6.889745
-3.937030 41.338444 5.834845
-3.937030 39.369942 5.834845
0.000070 39.369942 6.889745
18.700769 37.401443 12.598445
-18.700769 37.401443 12.598445
-18.700769 39.369942 12.598445
18.700769 39.369942 12.598445
-7.605730 -37.401756 1.053645
-7.605730 -35.433258 1.053645
-7.605730 -35.433258 -3.022255
-7.605730 -37.401756 -3.022255
3.937070 39.369942 -7.803355
6.318570 39.369942 -5.573555
6.318570 41.338444 -5.573555
3.937070 41.338444 -7.803355
3.937070 -35.433258 -7.803355
3.937070 -37.401756 -7.803355
18.700769 -37.401756 -14.566945
-18.700769 -37.401756 -14.566945
-18.700769 -35.433258 -14.566945
18.700769 -35.433258 -14.566945
-7.605730 -41.338757 1.053645
-7.605730 -39.370258 1.053645
-7.605730 -39.370258 -3.022255
-7.605730 -41.338757 -3.022255
18.700769 -51.180958 12.598445
18.700769 -51.180958 14.566945
-18.700769 -51.180958 14.566945
-18.700769 -51.180958 12.598445
7.605770 41.338444 -3.022255
7.874070 41.338444 -0.984255
18.700769 41.338444 -14.566945
-18.700769 41.338444 -14.566945
-5.567730 41.338444 -6.552055
-3.937030 41.338444 -7.803355
0.000070 41.338444 -8.858285
3.937070 41.338444 -7.803355
5.567770 41.338444 -6.552055
18.700769 39.369942 -14.566945
-18.700769 39.369942 -14.566945
-18.700769 41.338444 -14.566945
18.700769 41.338444 -14.566945
18.700769 -51.180958 12.598445
-18.700769 -51.180958 12.598445
-18.700769 -41.338757 12.598445
18.700769 -41.338757 12.598445
-5.567730 -37.401756 4.583545
-5.567730 -35.433258 4.583545
5.567770 -37.401756 -6.552055
5.567770 -35.433258 -6.552055
7.605770 -35.433258 -3.022255
7.605770 -37.401756 -3.022255
6.318570 -35.433258 3.605045
6.318570 -37.401756 3.605045
7.605770 -37.401756 1.053645
7.605770 -35.433258 1.053645
18.700769 -35.433258 -14.566945
-18.700769 -35.433258 -14.566945
-18.700769 -37.401756 -14.566945
18.700769 -37.401756 -14.566945
-18.700769 37.401443 12.598445
-3.937030 37.401443 5.834845
-2.037930 37.401443 6.621445
18.700769 37.401443 12.598445
7.605770 41.338444 -3.022255
6.819070 41.338444 -4.921255
18.700769 41.338444 -14.566945
18.700769 41.338444 12.598445
6.819070 41.338444 2.952745
7.605770 41.338444 1.053645
-7.605730 41.338444 1.053645
-5.567730 41.338444 4.583545
-3.937030 41.338444 5.834845
0.000070 41.338444 6.889745
3.937070 41.338444 5.834845
-18.700769 41.338444 12.598445
-18.700769 41.338444 -14.566945
3.937070 41.338444 -7.803355
0.000070 41.338444 -8.858285
-3.937030 41.338444 -7.803355
-5.567730 41.338444 -6.552055
-7.605730 41.338444 -3.022255
18.700769 -41.338757 -14.566945
-18.700769 -41.338757 -14.566945
-18.700769 -39.370258 -14.566945
18.700769 -39.370258 -14.566945
-7.605730 -35.433258 1.053645
-7.605730 -37.401756 1.053645
-7.605730 -37.401756 -3.022255
-7.605730 -35.433258 -3.022255
-5.567730 39.369942 -6.552055
-5.567730 41.338444 -6.552055
-7.605730 41.338444 -3.022255
-7.605730 39.369942 -3.022255
18.700769 51.180958 12.598445
-18.700769 51.180958 12.598445
-18.700769 41.338444 12.598445
18.700769 41.338444 12.598445
18.700769 35.432941 12.598445
-18.700769 35.432941 12.598445
-18.700769 -35.433258 12.598445
18.700769 -35.433258 12.598445
18.700769 37.401443 -14.566945
-18.700769 37.401443 -14.566945
-18.700769 35.432941 -14.566945
18.700769 35.432941 -14.566945
18.700769 35.432941 -14.566945
-18.700769 35.432941 -14.566945
-18.700769 37.401443 -14.566945
18.700769 37.401443 -14.566945
18.700769 -35.433258 12.598445
-18.700769 -35.433258 12.598445
-18.700769 35.432941 12.598445
18.700769 35.432941 12.598445
7.605770 -41.338757 1.053645
5.567770 -41.338757 4.583545
3.937070 -41.338757 5.834845
0.000070 -41.338757 6.889745
-3.937030 -41.338757 5.834845
-5.567730 -41.338757 4.583545
-7.605730 -41.338757 1.053645
-7.605730 -41.338757 -3.022255
-6.819030 -41.338757 -4.921255
-18.700769 -41.338757 12.598445
18.700769 -41.338757 12.598445
18.700769 -41.338757 -14.566945
7.605770 -41.338757 -3.022255
-3.937030 -41.338757 -7.803355
0.000070 -41.338757 -8.858285
3.937070 -41.338757 -7.803355
5.567770 -41.338757 -6.552055
-18.700769 -41.338757 -14.566945
-6.318530 41.338444 3.605045
-6.318530 39.369942 3.605045
-18.700769 41.338444 12.598445
-18.700769 51.180958 12.598445
-18.700769 51.180958 14.566945
-18.700769 -51.180958 14.566945
-18.700769 -51.180958 12.598445
-18.700769 -41.338757 12.598445
-18.700769 -41.338757 -14.566945
-18.700769 -39.370258 -14.566945
-18.700769 -39.370258 12.598445
-18.700769 -37.401756 12.598445
-18.700769 -37.401756 -14.566945
-18.700769 -35.433258 -14.566945
-18.700769 -35.433258 12.598445
-18.700769 35.432941 12.598445
-18.700769 35.432941 -14.566945
-18.700769 37.401443 -14.566945
-18.700769 37.401443 12.598445
-18.700769 39.369942 12.598445
-18.700769 39.369942 -14.566945
-18.700769 41.338444 -14.566945
5.567770 37.401443 4.583545
5.567770 35.432941 4.583545
3.937070 41.338444 5.834845
3.937070 39.369942 5.834845
7.605770 -35.433258 1.053645
5.567770 -35.433258 4.583545
3.937070 -35.433258 5.834845
0.000070 -35.433258 6.889745
-3.937030 -35.433258 5.834845
-5.567730 -35.433258 4.583545
-7.605730 -35.433258 1.053645
-7.605730 -35.433258 -3.022255
-6.819030 -35.433258 -4.921255
-18.700769 -35.433258 -14.566945
-18.700769 -35.433258 12.598445
18.700769 -35.433258 12.598445
18.700769 -35.433258 -14.566945
7.874070 -35.433258 -0.984255
5.567770 -35.433258 -6.552055
3.937070 -35.433258 -7.803355
18.700769 -35.433258 -14.566945
18.700769 -35.433258 12.598445
7.605770 -35.433258 1.053645
7.605770 -35.433258 -3.022255
-3.937030 -39.370258 5.834845
-3.937030 -41.338757 5.834845
0.000070 -41.338757 6.889745
0.000070 -39.370258 6.889745
7.605770 35.432941 1.053645
7.605770 37.401443 1.053645
5.567770 37.401443 4.583545
5.567770 35.432941 4.583545
-7.605730 37.401443 -3.022255
-7.605730 35.432941 -3.022255
-7.605730 35.432941 1.053645
-7.605730 37.401443 1.053645
-6.318530 37.401443 3.605045
-6.318530 35.432941 3.605045
-3.937030 35.432941 5.834845
-3.937030 37.401443 5.834845
3.937070 37.401443 5.834845
3.937070 35.432941 5.834845
5.567770 -41.338757 4.583545
5.567770 -39.370258 4.583545
18.700769 -39.370258 12.598445
-18.700769 -39.370258 12.598445
-18.700769 -37.401756 12.598445
18.700769 -37.401756 12.598445
0.000070 -37.401756 6.889745
-3.937030 -37.401756 5.834845
-3.937030 -35.433258 5.834845
0.000070 -35.433258 6.889745
-5.567730 -39.370258 -6.552055
-5.567730 -41.338757 -6.552055
-6.318530 -41.338757 3.605045
-6.318530 -39.370258 3.605045
3.937070 -41.338757 5.834845
3.937070 -39.370258 5.834845
-18.700769 39.369942 12.598445
-6.819030 39.369942 -4.921255
-3.937030 39.369942 -7.803355
0.000070 39.369942 -8.858285
3.937070 39.369942 -7.803355
5.567770 39.369942 -6.552055
7.605770 39.369942 -3.022255
18.700769 39.369942 -14.566945
-18.700769 39.369942 -14.566945
-18.700769 -51.180958 14.566945
18.700769 -51.180958 14.566945
18.700769 51.180958 14.566945
-18.700769 51.180958 14.566945
5.567770 -39.370258 4.583545
5.567770 -41.338757 4.583545
7.605770 -41.338757 1.053645
7.605770 -39.370258 1.053645
0.000070 37.401443 6.889745
0.000070 35.432941 6.889745
6.318570 -37.401756 3.605045
6.318570 -35.433258 3.605045
7.605770 -35.433258 1.053645
7.605770 -37.401756 1.053645
3.937070 -37.401756 5.834845
3.937070 -35.433258 5.834845
-6.318530 -37.401756 -5.573555
-6.318530 -35.433258 -5.573555
-7.605730 -39.370258 1.053645
-7.605730 -41.338757 1.053645
-7.605730 -41.338757 -3.022255
-7.605730 -39.370258 -3.022255
-2.037930 37.401443 -8.589985
2.037970 37.401443 -8.589985
18.700769 37.401443 -14.566945
-18.700769 37.401443 -14.566945
-5.567730 -35.433258 4.583545
-5.567730 -37.401756 4.583545
0.000070 -35.433258 6.889745
-3.937030 -35.433258 5.834845
-3.937030 -37.401756 5.834845
0.000070 -37.401756 6.889745
3.937070 -37.401756 -7.803355
3.937070 -35.433258 -7.803355
-5.567730 -37.401756 -6.552055
-7.605730 -37.401756 -3.022255
-18.700769 -37.401756 12.598445
-18.700769 -37.401756 -14.566945
18.700769 -37.401756 -14.566945
-2.037930 -37.401756 -8.589985
18.700769 41.338444 12.598445
-18.700769 41.338444 12.598445
-18.700769 51.180958 12.598445
18.700769 51.180958 12.598445
18.700769 -37.401756 12.598445
-18.700769 -37.401756 12.598445
-18.700769 -39.370258 12.598445
18.700769 -39.370258 12.598445
0.000070 39.369942 6.889745
-3.937030 39.369942 5.834845
-3.937030 41.338444 5.834845
0.000070 41.338444 6.889745
-7.605730 -37.401756 -3.022255
-5.567730 -37.401756 -6.552055
-2.037930 -37.401756 -8.589985
18.700769 -37.401756 -14.566945
-18.700769 -37.401756 -14.566945
-18.700769 -37.401756 12.598445
5.567770 -37.401756 4.583545
7.605770 -37.401756 1.053645
7.605770 -37.401756 -3.022255
5.567770 -37.401756 -6.552055
3.937070 -37.401756 -7.803355
0.000070 -37.401756 -8.858285
18.700769 -37.401756 12.598445
-7.605730 -37.401756 1.053645
-5.567730 -37.401756 4.583545
-3.937030 -37.401756 5.834845
0.000070 -37.401756 6.889745
3.937070 -37.401756 5.834845
-6.318530 -39.370258 3.605045
-6.318530 -41.338757 3.605045
18.700769 41.338444 -14.566945
-18.700769 41.338444 -14.566945
-18.700769 39.369942 -14.566945
18.700769 39.369942 -14.566945
0.000070 35.432941 6.889745
-3.937030 35.432941 5.834845
-5.567730 35.432941 4.583545
-7.605730 35.432941 1.053645
-7.605730 35.432941 -3.022255
18.700769 35.432941 12.598445
7.605770 35.432941 1.053645
5.567770 35.432941 4.583545
3.937070 35.432941 5.834845
0.000070 -37.401756 -8.858285
3.937070 -37.401756 -7.803355
5.567770 -37.401756 -6.552055
7.605770 -37.401756 -3.022255
7.605770 -37.401756 1.053645
5.567770 -37.401756 4.583545
3.937070 -37.401756 5.834845
0.000070 -37.401756 6.889745
-3.937030 -37.401756 5.834845
-5.567730 -37.401756 4.583545
-7.605730 -37.401756 1.053645
18.700769 -37.401756 12.598445
7.605770 37.401443 -3.022255
7.605770 37.401443 1.053645
5.567770 37.401443 4.583545
3.937070 37.401443 5.834845
0.000070 37.401443 6.889745
-3.937030 37.401443 5.834845
-5.567730 37.401443 4.583545
-7.605730 37.401443 1.053645
-7.605730 37.401443 -3.022255
-5.567730 37.401443 -6.552055
-18.700769 37.401443 12.598445
18.700769 37.401443 12.598445
5.567770 37.401443 -6.552055
18.700769 39.369942 12.598445
-18.700769 39.369942 12.598445
-18.700769 37.401443 12.598445
18.700769 37.401443 12.598445
18.700769 51.180958 14.566945
18.700769 51.180958 12.598445
-18.700769 51.180958 12.598445
-18.700769 51.180958 14.566945
3.937070 -39.370258 -7.803355
-3.937030 -39.370258 -7.803355
0.000070 -39.370258 -8.858285
0.000070 -39.370258 -8.858285
-3.937030 -39.370258 -7.803355
-5.567730 -39.370258 -6.552055
-7.605730 -39.370258 -3.022255
-7.605730 -39.370258 1.053645
-5.567730 -39.370258 4.583545
-3.937030 -39.370258 5.834845
0.000070 -39.370258 6.889745
3.937070 -39.370258 5.834845
-18.700769 -39.370258 12.598445
-18.700769 -39.370258 -14.566945
3.937070 -39.370258 -7.803355
-6.318530 39.369942 3.605045
-6.318530 41.338444 3.605045
-6.318530 39.369942 3.605045
-6.318530 41.338444 3.605045
-5.567730 41.338444 -6.552055
-5.567730 39.369942 -6.552055
6.318570 41.338444 -5.573555
7.605770 41.338444 -3.022255
7.605770 39.369942 -3.022255
6.318570 39.369942 -5.573555
-6.318530 -37.401756 -5.573555
-6.318530 -35.433258 -5.573555
3.937070 35.432941 -7.803355
3.937070 37.401443 -7.803355
6.318570 41.338444 -5.573555
6.318570 39.369942 -5.573555
-6.318530 35.432941 3.605045
-6.318530 37.401443 3.605045
7.605770 -35.433258 -3.022255
-3.937030 -35.433258 -7.803355
0.000070 -35.433258 -8.858285
3.937070 -35.433258 -7.803355
5.567770 -35.433258 -6.552055
-5.567730 35.432941 -6.552055
-5.567730 37.401443 -6.552055
3.937070 37.401443 5.834845
3.937070 35.432941 5.834845
-6.318530 35.432941 3.605045
-6.318530 37.401443 3.605045
0.000070 -35.433258 6.889745
3.937070 -35.433258 5.834845
5.567770 -35.433258 4.583545
-18.700769 -35.433258 12.598445
-18.700769 -35.433258 -14.566945
0.000070 -35.433258 -8.858285
-3.937030 -35.433258 -7.803355
-5.567730 -35.433258 -6.552055
-7.605730 -35.433258 -3.022255
-7.605730 -35.433258 1.053645
-5.567730 -35.433258 4.583545
-3.937030 -35.433258 5.834845
6.318570 -37.401756 3.605045
6.318570 -35.433258 3.605045
3.937070 -35.433258 5.834845
3.937070 -37.401756 5.834845
-6.318530 35.432941 3.605045
-6.318530 37.401443 3.605045
6.318570 37.401443 -5.573555
6.318570 35.432941 -5.573555
-5.567730 37.401443 -6.552055
-5.567730 35.432941 -6.552055
6.318570 37.401443 -5.573555
6.318570 35.432941 -5.573555
-6.318530 -35.433258 -5.573555
-6.318530 -37.401756 -5.573555
-6.318530 -39.370258 3.605045
-6.318530 -41.338757 3.605045
7.605770 37.401443 -3.022255
7.605770 35.432941 -3.022255
6.318570 37.401443 -5.573555
0.000070 39.369942 -8.858285
0.000070 41.338444 -8.858285
-3.937030 41.338444 -7.803355
-3.937030 39.369942 -7.803355
6.318570 41.338444 -5.573555
6.318570 39.369942 -5.573555
7.605770 39.369942 -3.022255
7.605770 41.338444 -3.022255
-6.318530 -35.433258 -5.573555
-6.318530 -37.401756 -5.573555
-3.937030 -37.401756 -7.803355
-3.937030 -35.433258 -7.803355
7.605770 39.369942 -3.022255
5.567770 39.369942 -6.552055
3.937070 39.369942 -7.803355
0.000070 39.369942 -8.858285
-3.937030 39.369942 -7.803355
-5.567730 39.369942 -6.552055
-7.605730 39.369942 -3.022255
-7.605730 39.369942 1.053645
-18.700769 39.369942 -14.566945
18.700769 39.369942 -14.566945
5.567770 39.369942 4.583545
7.605770 39.369942 1.053645
3.937070 -39.370258 5.834845
3.937070 -41.338757 5.834845
-7.605730 41.338444 -3.022255
-18.700769 41.338444 12.598445
18.700769 41.338444 12.598445
7.605770 41.338444 1.053645
5.567770 41.338444 4.583545
3.937070 41.338444 5.834845
0.000070 41.338444 6.889745
-3.937030 41.338444 5.834845
-5.567730 41.338444 4.583545
-7.605730 41.338444 1.053645
-6.318530 -41.338757 3.605045
-6.318530 -39.370258 3.605045
-7.605730 39.369942 1.053645
-7.605730 39.369942 -3.022255
18.700769 39.369942 12.598445
7.605770 39.369942 1.053645
5.567770 39.369942 4.583545
3.937070 39.369942 5.834845
0.000070 39.369942 6.889745
-3.937030 39.369942 5.834845
-5.567730 39.369942 4.583545
-5.567730 -41.338757 -6.552055
-5.567730 -39.370258 -6.552055
0.000070 -37.401756 -8.858285
0.000070 -35.433258 -8.858285
0.000070 -39.370258 -8.858285
3.937070 -39.370258 -7.803355
3.937070 -41.338757 -7.803355
0.000070 -41.338757 -8.858285
6.318570 -39.370258 -5.573555
6.318570 -41.338757 -5.573555
7.605770 41.338444 1.053645
7.605770 39.369942 1.053645
5.567770 39.369942 4.583545
5.567770 41.338444 4.583545
-3.937030 -41.338757 -7.803355
-3.937030 -39.370258 -7.803355
6.318570 -39.370258 -5.573555
6.318570 -41.338757 -5.573555
-3.937030 -39.370258 -7.803355
-3.937030 -41.338757 -7.803355
18.700769 -39.370258 -14.566945
-18.700769 -39.370258 -14.566945
-18.700769 -41.338757 -14.566945
18.700769 -41.338757 -14.566945
0.000070 -41.338757 -8.858285
0.000070 -39.370258 -8.858285
7.605770 37.401443 -3.022255
5.567770 37.401443 -6.552055
3.937070 37.401443 -7.803355
0.000070 37.401443 -8.858285
-3.937030 37.401443 -7.803355
-5.567730 37.401443 -6.552055
-7.605730 37.401443 -3.022255
-7.605730 37.401443 1.053645
-5.567730 37.401443 4.583545
-18.700769 37.401443 -14.566945
18.700769 37.401443 -14.566945
0.000070 37.401443 6.889745
3.937070 37.401443 5.834845
5.567770 37.401443 4.583545
7.605770 37.401443 1.053645
18.700769 -41.338757 12.598445
-18.700769 -41.338757 12.598445
-18.700769 -51.180958 12.598445
18.700769 -51.180958 12.598445
3.937070 39.369942 5.834845
3.937070 41.338444 5.834845
3.937070 -41.338757 -7.803355
3.937070 -39.370258 -7.803355
6.318570 -41.338757 -5.573555
6.318570 -39.370258 -5.573555
6.318570 -35.433258 3.605045
6.318570 -37.401756 3.605045
6.318570 35.432941 -5.573555
6.318570 37.401443 -5.573555
4 0 1 2 3
4 4 5 6 7
4 8 9 10 11
4 12 13 14 15
20 16 17 18 19 20 21 22 23 24 25 26 27 28 29 30 31 32 33 34 35
4 36 37 38 39
6 40 41 42 43 44 45
4 46 47 48 49
20 50 51 52 53 54 55 56 57 58 59 60 61 62 63 64 65 66 67 68 69
4 70 71 72 73
4 74 75 76 77
4 78 79 80 81
20 82 83 84 85 86 87 88 89 90 91 92 93 94 95 96 97 98 99 100 101
4 102 103 104 105
4 106 107 108 109
4 110 111 112 113
4 114 115 116 117
4 118 119 120 121
19 122 123 124 125 126 127 128 129 130 131 132 133 134 135 136 137 138 139 140
15 141 142 143 144 145 146 147 148 149 150 151 152 153 154 155
4 156 157 119 118
6 158 159 160 161 162 163
19 164 165 166 167 168 169 170 171 172 173 174 175 176 177 178 179 180 181 182
4 183 184 185 186
4 187 188 189 190
4 191 192 193 194
9 195 196 197 198 199 200 201 202 203
4 204 191 194 205
4 206 207 208 209
4 173 172 169 168
4 210 211 212 213
4 214 215 216 217
4 218 219 220 221
4 102 222 223 103
4 224 225 226 227
4 228 229 230 231
4 232 233 234 235
9 236 237 238 239 240 241 242 243 244
4 245 246 247 248
4 249 250 251 252
4 253 254 215 214
4 255 256 257 258
4 259 260 261 262
4 263 264 265 266
4 267 268 269 270
6 271 272 273 274 275 276
16 277 278 279 280 281 275 274 282 283 273 272 284 285 286 287 288
4 289 290 291 292
4 293 294 295 296
4 297 298 299 300
4 301 302 303 304
4 305 306 307 308
4 309 310 311 312
4 313 314 315 316
4 317 318 319 320
13 321 322 323 324 325 326 327 328 329 330 331 332 333
9 329 334 335 336 337 333 332 338 330
4 300 299 111 110
4 339 340 208 207
20 341 342 343 344 345 346 347 348 349 350 351 352 353 354 355 356 357 358 359 360
4 361 187 190 362
4 6 363 364 7
14 365 366 367 368 369 370 371 372 373 374 375 376 377 378
6 379 380 381 382 383 384
4 385 386 387 388
4 389 390 391 392
4 393 394 395 396
4 397 398 399 400
4 391 401 402 392
4 403 404 71 70
4 405 406 407 408
4 409 410 411 412
4 413 414 231 230
4 415 416 229 228
4 388 387 417 418
9 419 420 421 422 423 424 425 426 427
4 428 429 430 431
4 432 433 434 435
4 436 400 399 437
4 438 439 440 441
4 442 409 412 443
4 295 444 445 296
4 446 447 448 449
4 450 451 452 453
4 454 455 294 293
4 456 457 458 459
4 460 76 75 461
6 462 463 464 465 466 467
4 468 469 470 471
4 441 440 74 77
4 472 473 474 475
4 476 477 478 479
6 480 481 482 483 484 485
16 486 487 488 489 490 491 467 466 492 464 463 493 494 495 496 497
4 385 498 499 386
4 500 501 502 503
13 504 505 506 507 508 196 195 509 202 201 510 511 512
16 483 482 513 514 515 516 517 518 519 520 521 522 523 480 485 524
17 525 526 527 528 529 530 531 532 533 534 450 453 535 536 452 451 537
4 538 539 540 541
4 542 543 544 545
7 546 147 146 143 142 547 548
16 549 550 551 552 553 554 555 556 557 162 161 558 559 160 159 560
4 186 185 561 562
4 477 563 564 478
4 565 121 120 566
4 567 568 569 570
4 104 571 572 105
4 1 573 574 2
4 565 566 184 183
4 129 128 125 124
4 156 575 576 157
4 363 206 209 364
4 569 568 5 4
4 396 395 577 578
9 579 378 377 374 373 580 581 582 583
4 584 0 3 585
4 12 15 586 587
4 588 78 81 589
16 590 591 592 383 382 593 594 381 380 595 596 597 598 599 600 601
4 602 603 604 605
4 606 607 14 13
4 79 584 585 80
4 189 188 608 609
4 610 611 394 393
4 610 204 205 611
4 362 587 586 361
4 192 612 613 193
4 217 216 614 615
4 616 617 447 446
4 618 619 613 620
4 621 622 623 624
4 619 618 390 389
4 625 626 627 628
4 629 630 631 632
16 633 634 635 636 637 638 639 640 45 44 641 642 43 42 643 644
4 109 108 645 646
14 647 240 239 648 649 238 237 650 651 652 653 654 655 656
4 106 657 658 107
13 659 660 420 419 661 426 425 662 663 664 665 666 667
4 448 668 669 449
4 670 671 632 631
4 672 673 674 675
4 673 676 677 674
4 460 461 671 670
4 222 256 255 223
4 678 679 680 681
4 668 682 683 669
4 72 684 685 73
4 413 686 687 414
4 604 456 459 605
4 688 689 690 691
4 682 692 693 683
4 410 455 454 411
4 435 434 39 38
19 694 695 696 697 698 699 700 701 702 268 267 703 704 270 269 705 706 707 708
4 709 710 711 712
4 628 627 679 678
4 432 418 417 433
4 403 646 645 404
4 297 624 623 298
4 436 437 402 401
4 713 476 479 714
4 457 254 253 458
4 692 715 716 693
4 218 221 622 621
4 717 718 716 715
4 680 713 714 681
4 719 720 442 443
4 262 261 258 257
4 686 672 675 687
4 721 722 574 573
