ply
format ascii 1.0
comment Created by Blender 2.82 (sub 7) - www.blender.org, source file: ''
element vertex 412
property float x
property float y
property float z
element face 180
property list uchar uint vertex_indices
end_header
-15.850000 14.100000 7.715159
-15.950000 14.100000 1.187240
-15.850000 14.100000 -0.158841
-15.950000 14.200000 2.527459
-16.950001 15.100000 -8.032860
-15.950000 14.200000 -2.845191
-15.850000 14.100000 -8.032860
-15.850000 14.100000 -8.032860
-15.950000 14.100000 -1.504931
-15.950000 14.200000 -2.845191
-16.950001 15.100000 7.715159
-15.850000 14.100000 7.715159
-15.950000 14.200000 2.527459
-16.950001 15.100000 -8.032860
-15.950000 14.100000 -1.504931
-15.850000 14.100000 -0.158841
14.350000 -16.000000 -8.032860
14.350000 -16.000000 7.715159
13.350000 -15.000000 1.187240
-15.950000 14.100000 1.187240
-14.850000 13.000000 -0.158841
-13.850000 14.100000 -0.158841
-14.850000 15.100000 7.715159
-15.850000 14.100000 7.715159
-13.850000 -14.600000 -0.158841
-14.850000 -13.600000 -0.158841
-15.950000 -14.600000 7.715159
-14.850000 -15.600000 7.715159
-14.850000 15.100000 7.715159
-14.850000 15.100000 1.187240
-14.850000 15.100000 -0.158841
-15.850000 16.100000 7.715159
-13.850000 14.100000 -1.504931
-14.850000 15.100000 -8.032860
-14.850000 15.100000 -1.504931
-15.850000 16.100000 -8.032860
-15.850000 16.100000 -8.032860
-14.850000 15.100000 -1.504931
-14.850000 15.100000 -8.032860
-14.850000 15.100000 -0.158841
-14.850000 15.100000 7.715159
14.350000 -16.000000 -8.032860
15.350000 -15.000000 -8.032860
16.450001 -16.000000 -8.032860
15.350000 -17.000000 -8.032860
-13.850000 14.100000 -1.504931
15.350000 16.500000 7.715159
14.250000 15.500000 7.715159
14.350000 15.600000 2.527459
-14.850000 15.100000 1.187240
-15.850000 16.100000 7.715159
13.250000 14.500000 -1.504931
14.250000 15.500000 -8.032860
15.350000 -15.000000 -8.032860
14.350000 -16.000000 -8.032860
13.250000 -15.000000 -0.158841
14.350000 -13.900000 -0.158841
16.350000 15.500000 -8.032860
15.350000 14.500000 -1.504931
15.350000 14.500000 -8.032860
16.350000 15.500000 7.715159
15.350000 14.500000 7.715159
14.250000 15.500000 7.715159
15.350000 16.500000 7.715159
-16.950001 15.100000 7.715159
-14.850000 15.100000 -1.504931
-15.950000 14.200000 -2.845191
-16.950001 15.100000 -8.032860
-15.850000 16.100000 -8.032860
-14.850000 -15.600000 7.715159
-14.950000 -15.700000 1.187240
-14.850000 -15.600000 -0.158841
-15.050000 -15.700000 2.527459
-15.050000 -15.700000 -2.845191
-15.950000 -16.700001 -8.032860
-14.850000 -15.600000 -8.032860
14.150000 14.400000 3.423859
-15.150000 14.400000 3.423859
-15.150000 -14.900000 3.423859
-14.250000 -14.000000 3.423859
-14.250000 13.500000 3.423859
13.250000 13.500000 3.423859
13.250000 -14.000000 3.423859
14.150000 -14.900000 3.423859
14.350000 13.600000 -2.845191
15.350000 14.500000 7.715159
15.350000 14.500000 -8.032860
-14.950000 -15.700000 -1.504931
-15.950000 -16.700001 -8.032860
-15.050000 -15.700000 -2.845191
-14.850000 -15.600000 -8.032860
-16.950001 15.100000 7.715159
-15.850000 16.100000 7.715159
-14.850000 15.100000 -1.504931
-15.950000 14.200000 -2.845191
-14.950000 -15.700000 -1.504931
-14.850000 -15.600000 -0.158841
-14.850000 -15.600000 7.715159
15.350000 16.500000 -8.032860
14.350000 15.600000 -2.845191
14.250000 15.500000 7.715159
15.350000 16.500000 7.715159
14.350000 15.600000 2.527459
-15.950000 -16.700001 7.715159
-15.050000 -15.700000 2.527459
-14.950000 -15.700000 1.187240
-15.850000 16.100000 7.715159
-16.950001 15.100000 7.715159
15.350000 -15.000000 -8.032860
14.350000 -13.900000 -0.158841
13.250000 -15.000000 -0.158841
14.350000 -16.000000 -8.032860
-15.950000 -14.600000 7.715159
-15.950000 -14.600000 1.187240
-15.950000 -14.600000 -0.158841
-16.950001 -15.600000 7.715159
14.350000 -16.000000 -1.504931
15.350000 -17.000000 -8.032860
16.450001 -16.000000 -8.032860
15.350000 -15.000000 -1.504931
-14.950000 -13.600000 1.187240
-15.950000 -14.600000 -8.032860
14.250000 15.500000 -8.032860
15.350000 14.500000 -8.032860
16.350000 15.500000 -8.032860
15.350000 16.500000 -8.032860
-13.850000 14.100000 -0.158841
-14.850000 13.000000 -0.158841
-15.850000 14.100000 -8.032860
-14.850000 15.100000 -8.032860
-15.950000 -14.600000 -1.504931
-16.950001 -15.600000 -8.032860
-16.950001 -15.600000 -8.032860
-15.950000 -14.600000 -1.504931
-15.950000 -14.600000 -8.032860
-15.950000 -14.600000 -0.158841
-15.950000 -14.600000 7.715159
-14.950000 -13.600000 1.187240
-15.950000 -14.600000 1.187240
-16.950001 -15.600000 7.715159
-14.850000 -15.600000 -8.032860
-15.950000 -14.600000 -8.032860
-14.850000 -13.600000 -0.158841
-13.850000 -14.600000 -0.158841
-13.850000 14.100000 -0.158841
-14.850000 13.000000 -0.158841
-15.850000 14.100000 7.715159
-14.850000 15.100000 7.715159
15.350000 -17.000000 -8.032860
16.450001 -16.000000 -8.032860
15.350000 -15.000000 -8.032860
14.350000 -16.000000 -8.032860
-15.050000 13.300000 3.856160
13.250000 14.500000 -0.158841
14.250000 13.400000 -0.158841
15.350000 14.500000 7.715159
14.250000 15.500000 7.715159
-14.850000 -15.600000 -0.158841
-15.950000 -14.600000 1.187240
-16.950001 -15.600000 -8.032860
-15.950000 -16.700001 -8.032860
-15.950000 -16.700001 7.715159
-14.250000 13.500000 3.423859
-14.250000 -14.000000 3.423859
-14.250000 -14.000000 2.833259
-14.250000 13.500000 2.833259
17.750000 -17.700001 8.032860
-17.750000 -17.700001 8.032860
-17.750000 17.700001 8.032860
17.750000 17.700001 8.032860
-13.850000 -14.600000 -1.504931
17.750000 -17.700001 7.836060
17.750000 17.700001 7.836060
17.750000 17.700001 8.032860
17.750000 -17.700001 8.032860
13.250000 -14.000000 3.423859
13.250000 -14.000000 2.833259
-14.250000 -14.000000 2.833259
-14.250000 -14.000000 3.423859
-17.750000 17.700001 7.836060
-17.750000 -17.700001 7.836060
-17.750000 -17.700001 8.032860
-17.750000 17.700001 8.032860
13.250000 13.500000 2.833259
13.250000 13.500000 3.423859
-14.250000 13.500000 3.423859
-14.250000 13.500000 2.833259
17.750000 -17.700001 8.032860
17.750000 -17.700001 7.836060
-17.750000 -17.700001 7.836060
-17.750000 -17.700001 8.032860
-15.150000 -14.900000 3.423859
-15.150000 14.400000 3.423859
-15.150000 14.400000 1.455360
-15.150000 -14.900000 1.455360
13.250000 14.500000 -0.158841
14.250000 15.500000 -8.032860
15.350000 14.500000 -8.032860
14.250000 13.400000 -0.158841
-14.850000 -13.600000 -0.158841
-15.950000 -14.600000 -8.032860
-14.850000 -15.600000 -8.032860
-13.850000 -14.600000 -0.158841
14.350000 15.500000 1.187240
14.250000 15.500000 -0.158841
13.250000 14.500000 -1.504931
14.250000 15.500000 -8.032860
-15.850000 14.100000 -8.032860
-14.850000 15.100000 -8.032860
-15.850000 16.100000 -8.032860
-16.950001 15.100000 -8.032860
-13.850000 14.100000 -0.158841
-14.850000 15.100000 -8.032860
-15.850000 14.100000 -8.032860
-14.850000 13.000000 -0.158841
14.350000 15.500000 -1.504931
14.350000 15.600000 -2.845191
14.350000 15.500000 -1.504931
14.250000 15.500000 -0.158841
15.350000 16.500000 -8.032860
15.350000 14.500000 7.715159
14.350000 13.600000 -2.845191
-16.950001 15.100000 -8.032860
-15.850000 16.100000 -8.032860
-14.850000 15.100000 -8.032860
-15.850000 14.100000 -8.032860
14.350000 15.500000 1.187240
15.350000 14.500000 1.187240
15.350000 14.500000 -0.158841
-13.850000 -14.600000 -1.504931
16.350000 15.500000 7.715159
16.350000 15.500000 7.715159
15.350000 16.500000 7.715159
14.350000 15.600000 -2.845191
15.450000 14.600000 -2.845191
15.350000 14.500000 1.187240
16.350000 15.500000 7.715159
15.350000 14.500000 -1.504931
16.350000 15.500000 -8.032860
15.350000 14.500000 -0.158841
15.350000 16.500000 7.715159
14.250000 15.500000 7.715159
15.350000 14.500000 7.715159
16.350000 15.500000 7.715159
-15.850000 16.100000 7.715159
-14.850000 15.100000 7.715159
-15.850000 14.100000 7.715159
-16.950001 15.100000 7.715159
-16.950001 15.100000 7.715159
-15.850000 14.100000 7.715159
-14.850000 15.100000 7.715159
-15.850000 16.100000 7.715159
-14.850000 -15.600000 -8.032860
-15.950000 -14.600000 -8.032860
-16.950001 -15.600000 -8.032860
-15.950000 -16.700001 -8.032860
15.350000 16.500000 -8.032860
16.350000 15.500000 -8.032860
15.350000 14.500000 -8.032860
14.250000 15.500000 -8.032860
-15.850000 16.100000 -8.032860
-16.950001 15.100000 -8.032860
14.250000 13.400000 -0.158841
13.250000 14.500000 -0.158841
14.250000 15.500000 7.715159
15.350000 14.500000 7.715159
-14.850000 -13.600000 -0.158841
-13.850000 -14.600000 -0.158841
-14.850000 -15.600000 7.715159
-15.950000 -14.600000 7.715159
15.350000 16.500000 -8.032860
16.350000 15.500000 -8.032860
14.350000 15.600000 -2.845191
15.450000 14.600000 -2.845191
16.350000 15.500000 -8.032860
15.350000 16.500000 -8.032860
14.350000 -16.000000 1.187240
15.350000 -15.000000 1.187240
16.450001 -16.000000 -8.032860
15.350000 -17.000000 -8.032860
14.350000 -13.900000 -0.158841
13.250000 -15.000000 -0.158841
14.350000 -16.000000 7.715159
15.350000 -15.000000 7.715159
15.350000 -17.000000 -8.032860
14.350000 -16.000000 -1.504931
14.350000 -16.000000 -0.158841
-15.950000 -16.700001 -8.032860
-16.950001 -15.600000 -8.032860
-15.950000 -14.600000 -8.032860
-14.850000 -15.600000 -8.032860
14.350000 -16.000000 1.187240
15.350000 -17.000000 7.715159
14.350000 -16.000000 7.715159
14.350000 -16.000000 1.187240
14.350000 -16.000000 -0.158841
15.350000 -17.000000 7.715159
13.350000 -15.000000 1.187240
14.350000 -16.000000 -8.032860
14.350000 -16.000000 -1.504931
15.350000 -17.000000 -8.032860
16.450001 -16.000000 -8.032860
15.350000 -15.000000 -1.504931
15.350000 -15.000000 -8.032860
15.350000 -15.000000 -0.158841
15.350000 -15.000000 7.715159
14.350000 -13.900000 1.187240
-15.950000 -16.700001 7.715159
-14.850000 -15.600000 7.715159
-15.950000 -14.600000 7.715159
-16.950001 -15.600000 7.715159
-16.950001 -15.600000 7.715159
-15.950000 -14.600000 7.715159
-14.850000 -15.600000 7.715159
-15.950000 -16.700001 7.715159
16.450001 -16.000000 7.715159
15.350000 -15.000000 1.187240
15.350000 -15.000000 7.715159
15.350000 -15.000000 1.187240
15.350000 -15.000000 -0.158841
16.450001 -16.000000 7.715159
14.350000 -13.900000 1.187240
15.350000 -15.000000 -8.032860
15.350000 -15.000000 -1.504931
15.350000 16.500000 7.715159
16.350000 15.500000 7.715159
16.450001 -16.000000 -8.032860
-15.050000 13.300000 3.856160
15.350000 14.500000 -8.032860
14.250000 15.500000 -8.032860
13.250000 14.500000 -0.158841
14.250000 13.400000 -0.158841
16.450001 -16.000000 7.715159
15.350000 -15.000000 7.715159
14.350000 -16.000000 7.715159
15.350000 -17.000000 7.715159
13.250000 -15.000000 -0.158841
14.350000 -13.900000 -0.158841
15.350000 -15.000000 7.715159
14.350000 -16.000000 7.715159
-15.950000 -14.600000 1.187240
-14.850000 -15.600000 -0.158841
-15.950000 -16.700001 -8.032860
-16.950001 -15.600000 -8.032860
15.350000 -17.000000 7.715159
14.350000 -16.000000 7.715159
15.350000 -15.000000 7.715159
16.450001 -16.000000 7.715159
-15.950000 -16.700001 7.715159
-16.950001 -15.600000 7.715159
-16.950001 -15.600000 7.715159
-15.950000 -16.700001 7.715159
-15.150000 -14.900000 1.455360
14.150000 -14.900000 1.455360
14.150000 14.400000 1.455360
-15.150000 14.400000 1.455360
15.350000 -17.000000 7.715159
16.450001 -16.000000 7.715159
15.350000 -17.000000 7.715159
16.450001 -16.000000 7.715159
17.750000 17.700001 7.836060
-17.750000 17.700001 7.836060
-17.750000 -17.700001 7.836060
17.750000 -17.700001 7.836060
14.150000 14.400000 3.423859
14.150000 -14.900000 3.423859
14.150000 -14.900000 1.455360
14.150000 14.400000 1.455360
14.150000 14.400000 3.423859
14.150000 14.400000 1.455360
-15.150000 14.400000 1.455360
-15.150000 14.400000 3.423859
13.250000 -14.000000 3.423859
13.250000 13.500000 3.423859
13.250000 13.500000 2.833259
13.250000 -14.000000 2.833259
14.150000 -14.900000 1.455360
14.150000 -14.900000 3.423859
-15.150000 -14.900000 3.423859
-15.150000 -14.900000 1.455360
17.750000 -17.700001 7.836060
-17.750000 -17.700001 7.836060
-17.750000 17.700001 7.836060
17.750000 17.700001 7.836060
17.750000 -17.700001 8.032860
17.750000 17.700001 8.032860
17.750000 17.700001 7.836060
17.750000 -17.700001 7.836060
17.750000 17.700001 8.032860
-17.750000 17.700001 8.032860
-17.750000 -17.700001 8.032860
17.750000 -17.700001 8.032860
-17.750000 17.700001 7.836060
-17.750000 17.700001 8.032860
17.750000 17.700001 8.032860
17.750000 17.700001 7.836060
-17.750000 17.700001 8.032860
-17.750000 -17.700001 8.032860
-17.750000 -17.700001 7.836060
-17.750000 17.700001 7.836060
-14.250000 -14.000000 2.833259
13.250000 -14.000000 2.833259
13.250000 13.500000 2.833259
-14.250000 13.500000 2.833259
17.750000 17.700001 7.836060
17.750000 17.700001 8.032860
-17.750000 17.700001 8.032860
-17.750000 17.700001 7.836060
-17.750000 -17.700001 8.032860
-17.750000 -17.700001 7.836060
17.750000 -17.700001 7.836060
17.750000 -17.700001 8.032860
3 0 1 2
3 1 0 3
3 4 5 6
3 7 0 2
3 7 2 8
3 7 8 9
3 10 11 12
3 9 13 7
3 5 14 6
3 14 15 6
3 15 11 6
3 16 17 18
3 12 11 19
3 15 19 11
4 20 21 22 23
4 24 25 26 27
3 28 29 30
3 29 28 31
3 32 28 33
3 33 28 30
3 33 30 34
3 34 35 33
3 36 37 38
3 37 39 38
3 39 40 38
4 41 42 43 44
3 38 40 45
3 46 47 48
3 40 49 50
3 39 49 40
3 47 51 52
4 53 54 55 56
3 57 58 59
4 60 61 62 63
3 3 0 64
4 65 66 67 68
3 69 70 71
3 70 69 72
3 73 74 75
8 76 77 78 79 80 81 82 83
3 84 85 86
3 75 69 71
3 75 71 87
3 75 87 73
3 88 89 90
4 91 92 93 94
3 89 95 90
3 95 96 90
3 96 97 90
3 98 99 52
3 100 101 102
3 72 69 103
3 104 97 105
3 96 105 97
4 106 107 66 65
4 108 109 110 111
3 112 113 114
3 113 112 115
4 116 117 118 119
3 120 112 121
4 122 123 124 125
4 126 127 128 129
3 121 112 114
3 121 114 130
3 130 131 121
3 132 133 134
3 133 135 134
3 135 136 134
3 134 136 137
3 136 138 139
3 135 138 136
4 140 141 142 143
4 144 145 146 147
4 148 149 150 151
3 0 7 152
4 153 154 155 156
4 157 158 159 160
3 161 97 104
4 162 163 164 165
4 166 167 168 169
3 170 69 75
4 171 172 173 174
4 175 176 177 178
4 179 180 181 182
4 183 184 185 186
4 187 188 189 190
4 191 192 193 194
4 195 196 197 198
4 199 200 201 202
3 100 203 204
3 203 100 102
3 205 100 206
4 207 208 209 210
4 211 212 213 214
3 206 100 204
3 206 204 215
3 206 215 216
3 99 217 52
3 217 218 52
3 218 47 52
3 216 219 206
3 220 221 59
4 222 223 224 225
3 48 47 226
3 218 226 47
3 85 227 228
3 97 229 90
3 227 85 230
4 231 232 233 234
3 220 235 236
3 86 85 228
3 86 228 237
3 237 238 86
3 58 239 59
3 239 220 59
4 240 241 242 243
4 244 245 246 247
4 248 249 250 251
3 239 235 220
4 252 253 254 255
4 256 257 258 259
4 94 93 260 261
4 262 263 264 265
4 266 267 268 269
4 234 233 270 271
4 272 273 274 275
4 276 277 278 279
4 280 281 282 283
3 284 285 16
3 285 286 16
3 286 17 16
4 287 288 289 290
3 17 291 292
3 286 291 17
3 293 294 295
3 294 293 296
3 297 293 298
3 298 293 295
3 298 295 299
3 299 300 298
3 301 302 303
3 302 304 303
3 304 305 303
3 305 306 303
4 307 308 309 310
4 311 312 313 314
3 315 305 316
3 304 316 305
3 317 318 319
3 318 317 320
3 321 317 322
3 322 317 319
3 322 319 323
4 272 324 325 273
3 323 326 322
3 11 327 6
4 328 329 330 331
4 332 333 334 335
4 336 337 338 339
4 340 341 342 343
4 344 345 346 347
4 348 349 158 157
4 350 351 341 340
4 83 82 79 78
4 352 353 354 355
4 356 357 277 276
4 358 116 119 359
4 360 361 362 363
4 364 365 366 367
4 368 369 370 371
4 372 373 374 375
4 376 377 378 379
4 380 381 382 383
4 384 385 386 387
4 388 389 390 391
4 392 393 394 395
4 396 397 398 399
4 400 401 402 403
4 404 405 406 407
4 408 409 410 411
