ply
format ascii 1.0
comment Created by Blender 2.82 (sub 7) - www.blender.org, source file: ''
element vertex 758
property float x
property float y
property float z
element face 164
property list uchar uint vertex_indices
end_header
-2.718655 -8.609485 11.210400
-1.174785 -8.609485 10.581700
0.000025 -8.609485 10.581700
0.000025 -8.609485 14.500000
-8.012385 -8.609485 14.500000
-8.012385 -8.609485 10.419100
-5.231995 -8.609485 11.206600
-4.402375 -8.609485 11.000900
8.012475 -8.109485 14.500000
8.012475 -8.609485 14.500000
8.012475 -8.609485 10.419100
8.012475 -8.109485 10.419100
4.402375 8.609413 11.000900
5.232075 8.609413 11.206600
5.232075 8.109413 11.206600
4.402375 8.109413 11.000900
-8.609405 4.401595 11.011000
-8.109405 4.401595 11.011000
-8.109405 2.718655 11.210400
-8.609405 2.718655 11.210400
-9.790374 -9.193385 0.882500
-9.193356 -9.790385 0.882500
-7.227245 -7.824285 -6.848590
-7.824265 -7.227285 -6.848590
-9.853638 -10.450685 1.571000
-7.633065 -8.230085 -10.888200
-8.682407 -9.279485 -15.250000
-8.021195 -8.618285 -15.250000
-7.227245 -7.824285 -6.848590
-9.193356 -9.790385 0.882500
-9.193356 -9.790385 6.203900
-8.012385 -8.609485 10.419100
-8.012385 -8.609485 14.500000
-8.614029 -9.211085 14.500000
0.000025 8.609413 10.581700
1.174875 8.609413 10.581700
1.174875 8.109413 10.581700
0.000025 8.109413 10.581700
-9.151033 8.554023 -14.640395
-8.554014 9.151041 -14.640395
-8.682407 9.279433 -15.250000
-9.279425 8.682415 -15.250000
8.569775 8.682415 -3.250000
0.000025 9.067713 -3.250000
0.000025 9.067713 -2.750000
8.569775 8.682415 -2.750000
6.606575 10.813105 14.500000
0.000025 11.518485 14.500000
0.000025 11.874735 15.250000
6.810975 11.147525 15.250000
9.853675 10.450665 1.571000
8.614075 9.211056 14.500000
9.211075 8.614038 14.500000
10.450675 9.853645 1.571000
9.720675 -11.999985 15.250000
9.429075 -11.639985 14.500000
11.639975 -9.429085 14.500000
11.999975 -9.720685 15.250000
-8.109405 -5.231985 11.206600
-8.609405 -5.231985 11.206600
-8.609405 -4.401585 11.011000
-8.109405 -4.401585 11.011000
-9.853638 10.450665 1.571000
-10.450655 9.853645 1.571000
-9.211047 8.614038 14.500000
-8.614029 9.211056 14.500000
9.279475 8.682415 -15.250000
8.682475 9.279433 -15.250000
8.554075 9.151041 -14.640395
9.151075 8.554023 -14.640395
8.682475 9.279433 -15.250000
9.279475 8.682415 -15.250000
8.618275 8.021199 -15.250000
8.021275 8.618218 -15.250000
11.147575 -6.810985 15.250000
11.999975 -9.720685 15.250000
11.639975 -9.429085 14.500000
10.813175 -6.606585 14.500000
-2.718655 8.109413 11.210400
-4.402375 8.109413 11.000900
-4.402375 8.609413 11.000900
-2.718655 8.609413 11.210400
-8.012385 -8.609485 14.500000
-8.609405 -8.012385 14.500000
-8.109405 -8.012385 14.500000
-8.109405 -0.000015 14.500000
0.000025 -0.000015 14.500000
0.000025 -8.109485 14.500000
-8.012385 -8.109485 14.500000
-9.720630 -11.999985 15.250000
-9.429010 -11.639985 14.500000
-6.606575 -10.813085 14.500000
-6.810905 -11.147585 15.250000
-8.109405 5.232005 11.206600
-8.609405 5.232005 11.206600
-8.609405 8.012395 10.419100
-8.109405 8.012395 10.419100
8.109475 -8.012385 14.500000
8.109475 -0.000015 14.500000
8.109475 -0.000015 10.581700
8.109475 -1.174815 10.581700
8.109475 -2.718685 11.210400
8.109475 -4.401585 11.011000
8.109475 -5.231985 11.206600
8.109475 -8.012385 10.419100
-8.230085 -7.633085 -10.888200
-10.450655 -9.853685 1.571000
-9.211047 -8.614085 14.500000
-8.609405 -8.012385 14.500000
-8.609405 -8.012385 10.419100
-9.790374 -9.193385 6.203900
-9.790374 -9.193385 0.882500
-7.824265 -7.227285 -6.848590
-8.618209 -8.021185 -15.250000
-9.279425 -8.682485 -15.250000
8.569775 -8.682485 -2.750000
8.569775 -8.682485 -3.250000
8.725775 -8.526485 -3.250000
8.725775 -8.526485 -2.750000
8.109475 -8.012385 10.419100
8.109475 -8.012385 14.500000
8.609475 -8.012385 14.500000
8.609475 -8.012385 10.419100
-11.147515 6.810915 15.250000
-11.999975 9.720635 15.250000
-11.639975 9.429019 14.500000
-10.813095 6.606585 14.500000
-5.231995 8.109413 11.206600
-8.012385 8.109413 10.419100
-8.012385 8.609413 10.419100
-5.231995 8.609413 11.206600
-8.012385 -8.109485 10.419100
-8.012385 -8.109485 14.500000
0.000025 -8.109485 14.500000
0.000025 -8.109485 10.581700
-1.174785 -8.109485 10.581700
-2.718655 -8.109485 11.210400
-4.402375 -8.109485 11.000900
-5.231995 -8.109485 11.206600
4.402375 -8.109485 11.000900
5.232075 -8.109485 11.206600
5.232075 -8.609485 11.206600
4.402375 -8.609485 11.000900
8.012475 8.109413 10.419100
8.012475 8.609413 10.419100
8.012475 8.609413 14.500000
8.012475 8.109413 14.500000
9.151075 8.554023 -14.640395
8.554075 9.151041 -14.640395
7.633075 8.230089 -10.888200
8.230175 7.633075 -10.888200
2.718675 -8.109485 11.210400
2.718675 -8.609485 11.210400
9.790375 9.193364 0.882500
9.193375 9.790385 0.882500
7.227275 7.824276 -6.848590
7.824275 7.227255 -6.848590
8.109475 -4.401585 11.011000
8.609475 -4.401585 11.011000
8.609475 -5.231985 11.206600
8.109475 -5.231985 11.206600
-9.853638 10.450665 1.571000
-8.614029 9.211056 14.500000
-8.012385 8.609413 14.500000
-8.012385 8.609413 10.419100
-9.193356 9.790385 6.203900
-9.193356 9.790385 0.882500
-7.227245 7.824276 -6.848590
-8.021195 8.618218 -15.250000
-8.682407 9.279433 -15.250000
-7.633065 8.230089 -10.888200
-9.211047 -8.614085 14.500000
-8.614029 -9.211085 14.500000
0.000025 -8.609485 14.500000
0.000025 -11.518485 14.500000
-6.606575 -10.813085 14.500000
-9.429010 -11.639985 14.500000
-11.639975 -9.429085 14.500000
-10.813095 -6.606585 14.500000
-11.518485 -0.000015 14.500000
-8.609405 -0.000015 14.500000
0.000025 -9.067785 -2.750000
0.000025 -9.067785 -3.250000
1.645375 -9.067785 -3.250000
4.423075 -8.362385 -3.250000
4.423075 -8.362385 -2.750000
1.645375 -9.067785 -2.750000
-5.231995 8.109413 11.206600
-5.231995 8.609413 11.206600
0.000025 8.109413 10.581700
-1.174785 8.109413 10.581700
-1.174785 8.609413 10.581700
0.000025 8.609413 10.581700
9.720675 11.999985 15.250000
6.810975 11.147525 15.250000
0.000025 11.874735 15.250000
0.000025 -0.000015 15.250000
11.874775 -0.000015 15.250000
11.147575 6.810915 15.250000
11.999975 9.720635 15.250000
-9.720630 11.999985 15.250000
-9.429010 11.639985 14.500000
-11.639975 9.429019 14.500000
-11.999975 9.720635 15.250000
0.000025 -8.609485 10.581700
-1.174785 -8.609485 10.581700
-1.174785 -8.109485 10.581700
0.000025 -8.109485 10.581700
-8.609405 -8.012385 10.419100
-8.609405 -8.012385 14.500000
-8.109405 -8.012385 14.500000
-8.109405 -8.012385 10.419100
5.232075 -8.109485 11.206600
8.012475 -8.109485 10.419100
8.012475 -8.609485 10.419100
5.232075 -8.609485 11.206600
0.000025 -0.000015 15.250000
0.000025 11.874735 15.250000
-6.810905 11.147525 15.250000
-9.720630 11.999985 15.250000
-11.999975 9.720635 15.250000
-11.147515 6.810915 15.250000
-11.874725 -0.000015 15.250000
0.000025 -11.518485 14.500000
0.000025 -11.874785 15.250000
2.718675 8.609413 11.210400
1.174875 8.609413 10.581700
0.000025 8.609413 10.581700
0.000025 8.609413 14.500000
8.012475 8.609413 14.500000
8.012475 8.609413 10.419100
5.232075 8.609413 11.206600
4.402375 8.609413 11.000900
-8.230085 -7.633085 -10.888200
-7.633065 -8.230085 -10.888200
-9.853638 -10.450685 1.571000
-10.450655 -9.853685 1.571000
8.725775 8.526454 -2.750000
8.725775 8.526454 -3.250000
-8.012385 -8.109485 10.419100
-8.012385 -8.609485 10.419100
-8.012385 -8.609485 14.500000
-8.012385 -8.109485 14.500000
0.000025 -8.109485 10.581700
1.174875 -8.109485 10.581700
1.174875 -8.609485 10.581700
0.000025 -8.609485 10.581700
8.021275 8.618218 -15.250000
8.618275 8.021199 -15.250000
2.718675 -8.109485 11.210400
2.718675 -8.609485 11.210400
9.193375 -9.790385 0.882500
9.193375 -9.790385 6.203900
9.790375 -9.193385 6.203900
9.790375 -9.193385 0.882500
8.012475 8.109413 10.419100
8.012475 8.109413 14.500000
0.000025 8.109413 14.500000
0.000025 8.109413 10.581700
1.174875 8.109413 10.581700
2.718675 8.109413 11.210400
4.402375 8.109413 11.000900
5.232075 8.109413 11.206600
8.021275 -8.618285 -15.250000
8.618275 -8.021185 -15.250000
9.279475 -8.682485 -15.250000
8.682475 -9.279485 -15.250000
8.109475 -0.000015 10.581700
8.609475 -0.000015 10.581700
8.609475 -1.174815 10.581700
8.109475 -1.174815 10.581700
-2.718655 -8.609485 11.210400
-4.402375 -8.609485 11.000900
-4.402375 -8.109485 11.000900
-2.718655 -8.109485 11.210400
8.609475 -0.000015 10.581700
8.609475 1.174795 10.581700
8.609475 2.718655 11.210400
8.609475 4.401595 11.011000
8.609475 5.232005 11.206600
8.609475 8.012395 10.419100
8.609475 8.012395 14.500000
8.609475 -0.000015 14.500000
-11.999975 -9.720685 15.250000
-11.639975 -9.429085 14.500000
-9.429010 -11.639985 14.500000
-9.720630 -11.999985 15.250000
6.606575 -10.813085 14.500000
6.810975 -11.147585 15.250000
0.000025 -11.874785 15.250000
0.000025 -11.518485 14.500000
9.790375 9.193364 6.203900
8.609475 8.012395 10.419100
8.012475 8.609413 10.419100
9.193375 9.790385 6.203900
8.012475 -8.609485 10.419100
8.609475 -8.012385 10.419100
7.227275 -7.824285 -6.848590
7.824275 -7.227285 -6.848590
8.618275 -8.021185 -15.250000
8.021275 -8.618285 -15.250000
0.000025 8.609413 14.500000
-8.012385 8.609413 14.500000
-8.614029 9.211056 14.500000
-9.211047 8.614038 14.500000
-8.609405 8.012395 14.500000
-8.609405 -0.000015 14.500000
-11.518485 -0.000015 14.500000
-10.813095 6.606585 14.500000
-11.639975 9.429019 14.500000
-9.429010 11.639985 14.500000
-6.606575 10.813105 14.500000
0.000025 11.518485 14.500000
0.000025 9.067713 -2.750000
0.000025 9.067713 -3.250000
-1.645345 9.067713 -3.250000
-4.423065 8.362325 -3.250000
-6.958185 8.362325 -3.250000
-8.569773 8.682415 -3.250000
-8.569773 8.682415 -2.750000
-6.958185 8.362325 -2.750000
-4.423065 8.362325 -2.750000
-1.645345 9.067713 -2.750000
-8.021195 -8.618285 -15.250000
-8.618209 -8.021185 -15.250000
-8.609405 -5.231985 11.206600
-8.609405 -8.012385 10.419100
-8.609405 -8.012385 14.500000
-8.609405 -0.000015 14.500000
-8.609405 -0.000015 10.581700
-8.609405 -1.174815 10.581700
-8.609405 -2.718685 11.210400
-8.609405 -4.401585 11.011000
0.000025 -11.874785 15.250000
0.000025 -0.000015 15.250000
-11.874725 -0.000015 15.250000
-11.147515 -6.810985 15.250000
-11.999975 -9.720685 15.250000
-9.720630 -11.999985 15.250000
-6.810905 -11.147585 15.250000
8.109475 1.174795 10.581700
8.109475 -0.000015 10.581700
8.109475 -0.000015 14.500000
8.109475 8.012395 14.500000
8.109475 8.012395 10.419100
8.109475 5.232005 11.206600
8.109475 4.401595 11.011000
8.109475 2.718655 11.210400
-8.109405 8.012395 10.419100
-8.109405 8.012395 14.500000
-8.609405 8.012395 14.500000
-8.609405 8.012395 10.419100
-5.231995 -8.609485 11.206600
-8.012385 -8.609485 10.419100
-8.012385 -8.109485 10.419100
-5.231995 -8.109485 11.206600
-8.021195 8.618218 -15.250000
-8.618209 8.021199 -15.250000
-9.279425 8.682415 -15.250000
-8.682407 9.279433 -15.250000
-6.810905 11.147525 15.250000
-6.606575 10.813105 14.500000
-9.429010 11.639985 14.500000
-9.720630 11.999985 15.250000
8.569775 8.682415 -2.750000
0.000025 9.067713 -2.750000
0.000025 -0.000015 -2.750000
9.067775 -0.000015 -2.750000
8.725775 8.526454 -2.750000
-8.109405 -0.000015 10.581700
-8.609405 -0.000015 10.581700
-8.609405 1.174795 10.581700
-8.109405 1.174795 10.581700
-8.554014 9.151041 -14.640395
-9.151033 8.554023 -14.640395
-8.230085 7.633075 -10.888200
-7.633065 8.230089 -10.888200
-8.554014 -9.151085 -14.640395
-9.151033 -8.554085 -14.640395
8.109475 4.401595 11.011000
8.609475 4.401595 11.011000
8.609475 2.718655 11.210400
8.109475 2.718655 11.210400
-7.824265 7.227255 -6.848590
-8.618209 8.021199 -15.250000
-8.021195 8.618218 -15.250000
-7.227245 7.824276 -6.848590
-4.423065 -8.362385 -3.250000
-1.645345 -9.067785 -3.250000
0.000025 -9.067785 -3.250000
0.000025 -9.067785 -2.750000
-1.645345 -9.067785 -2.750000
-4.423065 -8.362385 -2.750000
-8.569773 -8.682485 -2.750000
-8.569773 -8.682485 -3.250000
5.232075 8.609413 11.206600
8.012475 8.609413 10.419100
8.012475 8.109413 10.419100
5.232075 8.109413 11.206600
8.012475 -8.609485 14.500000
8.609475 -8.012385 14.500000
8.609475 -8.012385 10.419100
8.012475 -8.609485 10.419100
-9.790374 -9.193385 6.203900
-9.193356 -9.790385 6.203900
9.193375 -9.790385 6.203900
9.193375 -9.790385 0.882500
7.227275 -7.824285 -6.848590
8.021275 -8.618285 -15.250000
8.682475 -9.279485 -15.250000
7.633075 -8.230085 -10.888200
9.853675 -10.450685 1.571000
8.614075 -9.211085 14.500000
8.012475 -8.609485 14.500000
8.012475 -8.609485 10.419100
-8.609405 -8.012385 10.419100
-8.012385 -8.609485 10.419100
9.067775 1.645355 -2.750000
9.067775 -0.000015 -2.750000
9.067775 -0.000015 -3.250000
9.067775 1.645355 -3.250000
8.362375 4.423075 -3.250000
8.362375 6.958195 -3.250000
8.362375 6.958195 -2.750000
8.362375 4.423075 -2.750000
-5.231995 -8.609485 11.206600
-5.231995 -8.109485 11.206600
11.639975 -9.429085 14.500000
9.429075 -11.639985 14.500000
6.606575 -10.813085 14.500000
0.000025 -11.518485 14.500000
0.000025 -8.609485 14.500000
8.012475 -8.609485 14.500000
8.614075 -9.211085 14.500000
9.211075 -8.614085 14.500000
8.609475 -8.012385 14.500000
8.609475 -0.000015 14.500000
11.518575 -0.000015 14.500000
10.813175 -6.606585 14.500000
7.824275 -7.227285 -6.848590
9.790375 -9.193385 0.882500
9.790375 -9.193385 6.203900
8.609475 -8.012385 10.419100
8.609475 -8.012385 14.500000
9.211075 -8.614085 14.500000
10.450675 -9.853685 1.571000
8.230175 -7.633085 -10.888200
9.279475 -8.682485 -15.250000
8.618275 -8.021185 -15.250000
-9.067705 -1.645385 -2.750000
-9.067705 -0.000015 -2.750000
-9.067705 -0.000015 -3.250000
-9.067705 -1.645385 -3.250000
-8.362317 -4.423085 -3.250000
-8.362317 -6.958185 -3.250000
-8.725733 -8.526485 -3.250000
-8.725733 -8.526485 -2.750000
-8.362317 -6.958185 -2.750000
-8.362317 -4.423085 -2.750000
0.000025 -8.109485 14.500000
8.012475 -8.109485 14.500000
8.012475 -8.109485 10.419100
5.232075 -8.109485 11.206600
4.402375 -8.109485 11.000900
2.718675 -8.109485 11.210400
1.174875 -8.109485 10.581700
0.000025 -8.109485 10.581700
7.633075 8.230089 -10.888200
8.682475 9.279433 -15.250000
8.021275 8.618218 -15.250000
7.227275 7.824276 -6.848590
9.193375 9.790385 0.882500
9.193375 9.790385 6.203900
8.012475 8.609413 10.419100
8.012475 8.609413 14.500000
8.614075 9.211056 14.500000
9.853675 10.450665 1.571000
-9.790374 9.193364 0.882500
-9.193356 9.790385 0.882500
8.109475 -8.012385 14.500000
8.012475 -8.109485 14.500000
0.000025 -8.109485 14.500000
0.000025 -0.000015 14.500000
8.109475 -0.000015 14.500000
-8.614029 -9.211085 14.500000
-9.211047 -8.614085 14.500000
8.609475 -0.000015 14.500000
8.609475 -8.012385 14.500000
8.609475 -8.012385 10.419100
8.609475 -5.231985 11.206600
8.609475 -4.401585 11.011000
8.609475 -2.718685 11.210400
8.609475 -1.174815 10.581700
8.609475 -0.000015 10.581700
10.450675 -9.853685 1.571000
9.853675 -10.450685 1.571000
7.633075 -8.230085 -10.888200
8.230175 -7.633085 -10.888200
0.000025 8.109413 14.500000
-8.012385 8.109413 14.500000
-8.012385 8.109413 10.419100
-5.231995 8.109413 11.206600
-4.402375 8.109413 11.000900
-2.718655 8.109413 11.210400
-1.174785 8.109413 10.581700
0.000025 8.109413 10.581700
-11.518485 -0.000015 14.500000
-10.813095 -6.606585 14.500000
-11.147515 -6.810985 15.250000
-11.874725 -0.000015 15.250000
8.609475 -0.000015 14.500000
8.609475 8.012395 14.500000
9.211075 8.614038 14.500000
8.614075 9.211056 14.500000
8.012475 8.609413 14.500000
0.000025 8.609413 14.500000
0.000025 11.518485 14.500000
6.606575 10.813105 14.500000
9.429075 11.639985 14.500000
11.639975 9.429019 14.500000
10.813175 6.606585 14.500000
11.518575 -0.000015 14.500000
2.718675 8.609413 11.210400
2.718675 8.109413 11.210400
-11.639975 -9.429085 14.500000
-11.999975 -9.720685 15.250000
11.874775 -0.000015 15.250000
11.518575 -0.000015 14.500000
8.109475 8.012395 14.500000
8.109475 -0.000015 14.500000
0.000025 -0.000015 14.500000
0.000025 8.109413 14.500000
8.012475 8.109413 14.500000
9.720675 11.999985 15.250000
9.429075 11.639985 14.500000
11.999975 9.720635 15.250000
11.639975 9.429019 14.500000
9.429075 11.639985 14.500000
9.720675 11.999985 15.250000
8.109475 -5.231985 11.206600
8.609475 -5.231985 11.206600
8.609475 -8.012385 10.419100
8.109475 -8.012385 10.419100
8.609475 -2.718685 11.210400
8.109475 -2.718685 11.210400
9.151075 -8.554085 -14.640395
8.554075 -9.151085 -14.640395
8.682475 -9.279485 -15.250000
9.279475 -8.682485 -15.250000
2.718675 8.609413 11.210400
2.718675 8.109413 11.210400
9.790375 9.193364 0.882500
7.824275 7.227255 -6.848590
8.618275 8.021199 -15.250000
9.279475 8.682415 -15.250000
8.230175 7.633075 -10.888200
10.450675 9.853645 1.571000
9.211075 8.614038 14.500000
8.609475 8.012395 14.500000
8.609475 8.012395 10.419100
9.790375 9.193364 6.203900
-8.682407 -9.279485 -15.250000
-9.279425 -8.682485 -15.250000
-8.618209 -8.021185 -15.250000
-8.021195 -8.618285 -15.250000
8.609475 8.012395 10.419100
8.609475 8.012395 14.500000
8.109475 8.012395 14.500000
8.109475 8.012395 10.419100
8.569775 -8.682485 -2.750000
8.725775 -8.526485 -2.750000
9.067775 -0.000015 -2.750000
0.000025 -0.000015 -2.750000
0.000025 -9.067785 -2.750000
6.810975 -11.147585 15.250000
9.720675 -11.999985 15.250000
11.999975 -9.720685 15.250000
11.147575 -6.810985 15.250000
11.874775 -0.000015 15.250000
0.000025 -0.000015 15.250000
0.000025 -11.874785 15.250000
-8.109405 -1.174815 10.581700
-8.609405 -1.174815 10.581700
-8.609405 -0.000015 10.581700
-8.109405 -0.000015 10.581700
-8.109405 -4.401585 11.011000
-8.109405 -2.718685 11.210400
-8.109405 -1.174815 10.581700
-8.109405 -0.000015 10.581700
-8.109405 -0.000015 14.500000
-8.109405 -8.012385 14.500000
-8.109405 -8.012385 10.419100
-8.109405 -5.231985 11.206600
8.725775 -8.526485 -3.250000
8.569775 -8.682485 -3.250000
0.000025 -9.067785 -3.250000
0.000025 -0.000015 -3.250000
9.067775 -0.000015 -3.250000
9.067775 -1.645385 -2.750000
8.362375 -4.423085 -2.750000
8.362375 -6.958185 -2.750000
8.362375 -6.958185 -3.250000
8.362375 -4.423085 -3.250000
9.067775 -1.645385 -3.250000
9.067775 -0.000015 -3.250000
9.067775 -0.000015 -2.750000
-8.109405 -8.012385 10.419100
-8.609405 -8.012385 10.419100
-8.609405 -5.231985 11.206600
-8.109405 -5.231985 11.206600
-5.231995 8.609413 11.206600
-8.012385 8.609413 10.419100
-8.012385 8.609413 14.500000
0.000025 8.609413 14.500000
0.000025 8.609413 10.581700
-1.174785 8.609413 10.581700
-2.718655 8.609413 11.210400
-4.402375 8.609413 11.000900
-8.609405 -2.718685 11.210400
-8.109405 -2.718685 11.210400
11.518575 -0.000015 14.500000
10.813175 6.606585 14.500000
11.147575 6.810915 15.250000
11.874775 -0.000015 15.250000
-8.012385 -8.609485 10.419100
-8.609405 -8.012385 10.419100
-8.609405 -8.012385 14.500000
-8.012385 -8.609485 14.500000
-8.109405 -2.718685 11.210400
-8.609405 -2.718685 11.210400
-8.012385 8.109413 14.500000
-8.012385 8.609413 14.500000
-8.012385 8.609413 10.419100
-8.012385 8.109413 10.419100
-2.718655 8.109413 11.210400
-2.718655 8.609413 11.210400
-8.012385 8.609413 14.500000
-8.609405 8.012395 14.500000
-8.609405 8.012395 10.419100
-8.012385 8.609413 10.419100
11.639975 9.429019 14.500000
11.999975 9.720635 15.250000
0.000025 -0.000015 14.500000
-8.109405 -0.000015 14.500000
-8.109405 8.012395 14.500000
-8.012385 8.109413 14.500000
0.000025 8.109413 14.500000
-8.230085 7.633075 -10.888200
-9.279425 8.682415 -15.250000
-8.618209 8.021199 -15.250000
-7.824265 7.227255 -6.848590
-9.790374 9.193364 0.882500
-9.790374 9.193364 6.203900
-8.609405 8.012395 10.419100
-8.609405 8.012395 14.500000
-9.211047 8.614038 14.500000
-10.450655 9.853645 1.571000
9.429075 -11.639985 14.500000
9.720675 -11.999985 15.250000
-8.609405 5.232005 11.206600
-8.109405 5.232005 11.206600
-9.193356 9.790385 6.203900
-8.012385 8.609413 10.419100
-8.609405 8.012395 10.419100
-9.790374 9.193364 6.203900
-8.609405 2.718655 11.210400
-8.609405 1.174795 10.581700
-8.609405 -0.000015 10.581700
-8.609405 -0.000015 14.500000
-8.609405 8.012395 14.500000
-8.609405 8.012395 10.419100
-8.609405 5.232005 11.206600
-8.609405 4.401595 11.011000
8.109475 2.718655 11.210400
8.609475 2.718655 11.210400
8.609475 1.174795 10.581700
8.109475 1.174795 10.581700
-2.718655 -8.609485 11.210400
-2.718655 -8.109485 11.210400
9.211075 -8.614085 14.500000
8.614075 -9.211085 14.500000
8.609475 -0.000015 10.581700
8.109475 -0.000015 10.581700
8.554075 -9.151085 -14.640395
9.151075 -8.554085 -14.640395
8.012475 8.609413 10.419100
8.609475 8.012395 10.419100
8.609475 8.012395 14.500000
8.012475 8.609413 14.500000
-9.279425 -8.682485 -15.250000
-8.682407 -9.279485 -15.250000
-8.554014 -9.151085 -14.640395
-9.151033 -8.554085 -14.640395
-8.609405 2.718655 11.210400
-8.109405 2.718655 11.210400
8.109475 8.012395 10.419100
8.609475 8.012395 10.419100
8.609475 5.232005 11.206600
8.109475 5.232005 11.206600
-9.067705 -0.000015 -3.250000
0.000025 -0.000015 -3.250000
0.000025 -9.067785 -3.250000
-8.569773 -8.682485 -3.250000
-8.725733 -8.526485 -3.250000
-8.109405 5.232005 11.206600
-8.109405 8.012395 10.419100
-8.109405 8.012395 14.500000
-8.109405 -0.000015 14.500000
-8.109405 -0.000015 10.581700
-8.109405 1.174795 10.581700
-8.109405 2.718655 11.210400
-8.109405 4.401595 11.011000
8.109475 5.232005 11.206600
8.609475 5.232005 11.206600
0.000025 11.874735 15.250000
0.000025 11.518485 14.500000
-11.874725 -0.000015 15.250000
-11.518485 -0.000015 14.500000
8.725775 8.526454 -3.250000
9.067775 -0.000015 -3.250000
0.000025 -0.000015 -3.250000
0.000025 9.067713 -3.250000
8.569775 8.682415 -3.250000
-8.725733 8.526454 -2.750000
-9.067705 -0.000015 -2.750000
0.000025 -0.000015 -2.750000
0.000025 9.067713 -2.750000
-8.569773 8.682415 -2.750000
8.109475 -2.718685 11.210400
8.609475 -2.718685 11.210400
-8.569773 -8.682485 -2.750000
0.000025 -9.067785 -2.750000
0.000025 -0.000015 -2.750000
-9.067705 -0.000015 -2.750000
-8.725733 -8.526485 -2.750000
-8.725733 8.526454 -3.250000
-8.569773 8.682415 -3.250000
0.000025 9.067713 -3.250000
0.000025 -0.000015 -3.250000
-9.067705 -0.000015 -3.250000
-8.725733 8.526454 -3.250000
-8.725733 8.526454 -2.750000
5.232075 -8.609485 11.206600
8.012475 -8.609485 10.419100
8.012475 -8.609485 14.500000
0.000025 -8.609485 14.500000
0.000025 -8.609485 10.581700
1.174875 -8.609485 10.581700
2.718675 -8.609485 11.210400
4.402375 -8.609485 11.000900
-9.067705 -0.000015 -3.250000
-9.067705 -0.000015 -2.750000
-9.067705 1.645355 -2.750000
-8.362317 4.423075 -2.750000
-8.362317 6.958195 -2.750000
-8.362317 6.958195 -3.250000
-8.362317 4.423075 -3.250000
-9.067705 1.645355 -3.250000
8 0 1 2 3 4 5 6 7
4 8 9 10 11
4 12 13 14 15
4 16 17 18 19
4 20 21 22 23
10 24 25 26 27 28 29 30 31 32 33
4 34 35 36 37
4 38 39 40 41
4 42 43 44 45
4 46 47 48 49
4 50 51 52 53
4 54 55 56 57
4 58 59 60 61
4 62 63 64 65
4 66 67 68 69
4 70 71 72 73
4 74 75 76 77
4 78 79 80 81
7 82 83 84 85 86 87 88
4 89 90 91 92
4 93 94 95 96
8 97 98 99 100 101 102 103 104
10 105 106 107 108 109 110 111 112 113 114
4 115 116 117 118
4 119 120 121 122
4 123 124 125 126
4 127 128 129 130
8 131 132 133 134 135 136 137 138
4 139 140 141 142
4 143 144 145 146
4 147 148 149 150
4 151 139 142 152
4 153 154 155 156
4 157 158 159 160
10 161 162 163 164 165 166 167 168 169 170
12 83 171 172 82 173 174 175 176 177 178 179 180
8 181 182 183 184 116 115 185 186
4 79 187 188 80
4 189 190 191 192
7 193 194 195 196 197 198 199
4 200 201 202 203
4 204 205 206 207
4 208 209 210 211
4 212 213 214 215
7 216 217 218 219 220 221 222
4 91 223 224 92
8 225 226 227 228 229 230 231 232
4 233 234 235 236
4 237 238 42 45
4 239 240 241 242
4 243 244 245 246
4 247 248 156 155
4 245 244 249 250
4 251 252 253 254
8 255 256 257 258 259 260 261 262
4 263 264 265 266
4 267 268 269 270
4 271 272 273 274
8 275 276 277 278 279 280 281 282
4 283 284 285 286
4 287 288 289 290
4 291 292 293 294
4 252 295 296 253
4 297 298 299 300
12 301 302 303 304 305 306 307 308 309 310 311 312
10 313 314 315 316 317 318 319 320 321 322
4 153 291 294 154
4 254 298 297 251
4 23 22 323 324
8 325 326 327 328 329 330 331 332
7 333 334 335 336 337 338 339
8 340 341 342 343 344 345 346 347
4 348 349 350 351
4 352 353 354 355
4 356 357 358 359
4 360 361 362 363
5 364 365 366 367 368
4 369 370 371 372
4 373 374 375 376
4 377 234 233 378
4 379 380 381 382
4 383 384 385 386
8 387 388 389 390 391 392 393 394
4 395 396 397 398
4 399 400 401 402
4 20 403 404 21
10 405 406 407 408 409 410 411 412 413 414
4 403 415 416 404
10 417 418 419 420 421 422 238 237 423 424
4 272 425 426 273
12 427 428 429 430 431 432 433 434 435 436 437 438
10 439 440 441 442 443 444 445 446 447 448
10 449 450 451 452 453 454 455 456 457 458
8 459 460 461 462 463 464 465 466
10 467 468 469 470 471 472 473 474 475 476
4 477 383 386 478
7 479 435 432 480 481 482 483
4 235 484 485 236
8 486 487 488 489 490 491 492 493
4 494 495 496 497
8 498 499 500 501 502 503 504 505
4 506 507 508 509
12 510 511 512 513 514 515 516 517 518 519 520 521
4 522 523 36 35
4 507 524 525 508
4 526 74 77 527
7 514 511 528 529 530 531 532
4 533 534 46 49
4 535 536 537 538
4 539 540 541 542
4 270 269 543 544
4 545 546 547 548
4 549 12 15 550
10 551 552 553 554 555 556 557 558 559 560
4 561 562 563 564
4 565 566 567 568
5 569 570 571 572 573
7 574 575 576 577 578 579 580
4 581 582 583 584
8 585 586 587 588 589 590 591 592
5 593 594 595 596 597
10 598 599 600 118 117 601 602 603 604 605
4 149 50 53 150
4 606 607 608 609
8 610 611 612 613 614 615 616 617
4 61 60 618 619
4 620 621 622 623
4 624 625 626 627
4 628 629 582 581
4 630 631 632 633
4 191 190 634 635
4 636 637 638 639
4 621 640 641 622
7 642 643 644 305 302 645 646
10 647 648 649 650 651 652 653 654 655 656
4 288 287 657 658
4 17 16 659 660
4 661 662 663 664
8 665 666 667 668 669 670 671 672
4 673 674 675 676
4 677 678 206 205
4 376 375 63 62
4 478 661 664 477
4 495 494 679 680
4 676 675 681 682
4 497 496 683 684
4 685 686 687 688
4 689 690 691 692
4 372 371 693 694
4 695 696 697 698
5 699 700 701 702 703
8 704 705 706 707 708 709 710 711
4 712 713 380 379
4 714 715 361 360
4 716 123 126 717
5 718 719 720 721 722
4 456 455 394 393
5 723 724 725 726 727
4 158 157 728 729
5 730 731 732 733 734
5 735 736 737 738 739
4 319 318 740 741
8 742 743 744 745 746 747 748 749
10 750 751 752 753 754 741 740 755 756 757
