ply
format ascii 1.0
comment Created by Blender 2.82 (sub 7) - www.blender.org, source file: ''
element vertex 643
property float x
property float y
property float z
element face 158
property list uchar uint vertex_indices
end_header
-12.082050 32.772701 -10.996292
-10.450250 33.404598 -10.995429
-7.322350 26.712099 9.253453
-9.886650 25.719101 9.253453
-8.661650 22.555500 3.377453
-6.097250 23.548500 3.377453
-7.322350 26.712099 9.253453
-9.886650 25.719101 9.253453
-15.255950 30.990900 11.003453
-15.330050 31.089701 11.003453
-13.830050 31.089701 9.253453
-13.755950 30.990900 9.253453
6.691050 17.654699 4.253453
8.434550 21.470800 9.253453
10.935850 20.327999 9.253453
9.192350 16.511900 4.253453
-11.695150 -22.587900 9.253453
-9.193850 -23.730700 9.253453
10.935850 20.327999 9.253453
8.434550 21.470800 9.253453
-14.896550 27.645700 11.003453
-14.958550 27.730900 11.003453
-13.458550 27.730900 9.253453
-13.396550 27.645700 9.253453
14.894050 -32.039600 -10.996292
13.262250 -32.671600 -10.995429
10.134050 -25.979200 9.253453
12.698350 -24.986099 9.253453
0.795550 -1.866600 5.127153
-7.450350 -19.914600 4.253453
-9.951650 -18.771799 4.253453
-0.591450 1.715100 5.110253
16.416651 28.668800 11.003453
17.767550 26.260799 11.003453
16.267550 26.260799 9.253453
14.916650 28.668800 9.253453
15.999650 26.115601 9.253453
15.871850 -38.747601 9.253453
-13.600150 -41.451401 9.253453
-14.747550 -20.763300 9.253453
-16.038250 -18.687201 9.253453
-16.139950 -18.640900 9.253453
-16.352650 -18.326599 9.253453
-16.343349 -17.697800 9.253453
-16.269449 -17.577600 9.253453
-16.149250 -17.531401 9.253453
-11.913250 -8.548900 9.253453
-11.980050 17.799299 9.253453
-12.497050 18.755199 9.253453
-13.396550 27.645700 9.253453
-13.458550 27.730900 9.253453
-13.755950 30.990900 9.253453
-13.830050 31.089701 9.253453
-13.805350 36.388000 9.253453
-14.039950 36.783199 9.253453
-13.982750 38.954700 9.253453
-13.884150 39.184601 9.253453
-13.938950 41.680599 9.253453
7.949650 41.086899 9.253453
16.267550 26.260799 9.253453
16.096649 26.228701 9.253453
2.391650 1.626900 7.253453
0.795550 -1.866500 7.253453
-0.591450 1.715200 7.253553
1.004650 5.208700 7.253453
6.691050 17.654699 4.253453
6.687850 17.647699 4.254053
9.189150 16.504900 4.254053
9.192350 16.511900 4.253453
-17.843349 -17.697800 11.003453
-17.769449 -17.577600 11.003453
-16.269449 -17.577600 9.253453
-16.343349 -17.697800 9.253453
-9.679150 31.558500 -10.996506
-11.408750 30.888700 -10.996318
-12.082050 32.772701 -10.996292
-10.450250 33.404598 -10.995429
9.192350 16.511900 4.253453
10.935850 20.327999 9.253453
8.434550 21.470800 9.253453
6.691050 17.654699 4.253453
-13.431750 -41.573601 11.003453
15.509850 -38.918400 11.003453
14.009850 -38.918400 9.253453
-11.983850 -41.303101 9.253453
-13.798050 41.734001 11.003453
-12.316550 41.651001 9.253453
7.949650 41.086899 9.253453
9.449650 41.086899 11.003453
-9.951650 -18.771799 4.253453
-11.695150 -22.587900 9.253453
-9.193850 -23.730700 9.253453
-7.450350 -19.914600 4.253453
-0.591450 1.715200 7.253453
0.795550 -1.866500 7.253453
2.391650 1.626900 7.253453
1.004650 5.208700 7.253453
14.916650 28.668800 9.253453
16.267550 26.260799 9.253453
17.767550 26.260799 11.003453
16.416651 28.668800 11.003453
-7.450350 -19.914600 4.253453
-9.193850 -23.730700 9.253453
-11.695150 -22.587900 9.253453
-9.951650 -18.771799 4.253453
18.152550 -42.284599 11.003453
-18.152550 -42.284599 11.003453
-18.152550 42.284599 11.003453
18.152550 42.284599 11.003453
12.750150 25.403400 -10.996539
13.543950 27.239599 -10.996539
10.935850 20.327999 9.253453
9.192350 16.511900 4.253453
-0.591450 1.715200 7.253553
0.795550 -1.866500 7.253453
0.795550 -1.866600 5.127153
-0.591450 1.715100 5.110253
-17.639950 -18.640900 11.003453
-17.852650 -18.326599 11.003453
-16.352650 -18.326599 9.253453
-16.139950 -18.640900 9.253453
-9.886650 25.719101 9.253453
-7.322350 26.712099 9.253453
-6.097250 23.548500 3.377453
-8.661650 22.555500 3.377453
6.691050 17.654699 4.253453
9.192350 16.511900 4.253453
10.935850 20.327999 9.253453
8.434550 21.470800 9.253453
12.698350 -24.986099 9.253453
10.134050 -25.979200 9.253453
13.262250 -32.671600 -10.995429
14.894050 -32.039600 -10.996292
12.490950 -30.825500 -10.996506
12.451050 -30.738001 -10.791968
14.065350 -29.672600 -9.917007
14.220650 -30.155600 -10.996318
12.698350 -24.986099 9.253453
10.134050 -25.979200 9.253453
8.908850 -22.815599 3.377453
11.473150 -21.822500 3.377453
-13.509450 -27.663300 -10.996539
-11.842950 -28.424700 -10.996539
-7.450350 -19.914600 4.253453
-9.951650 -18.771799 4.253453
11.952150 27.966900 -10.996539
13.543950 27.239599 -10.996539
10.935850 20.327999 9.253453
8.434550 21.470800 9.253453
11.472350 -21.822800 3.377753
-6.097250 23.548500 3.377453
-7.322350 26.712099 9.253453
1.004650 5.208700 9.253453
1.004650 5.208700 7.253453
2.391650 1.626900 7.253453
2.391650 1.627000 9.250553
12.697450 -24.986401 9.253453
11.083650 26.164801 -10.996539
12.750150 25.403400 -10.996539
13.543950 27.239599 -10.996539
11.952150 27.966900 -10.996539
8.434550 21.470800 9.253453
10.935850 20.327999 9.253453
13.543950 27.239599 -10.996539
11.952150 27.966900 -10.996539
11.952150 27.966900 -10.996539
13.543950 27.239599 -10.996539
12.750150 25.403400 -10.996539
11.083650 26.164801 -10.996539
11.472350 -21.822800 3.377753
12.697450 -24.986401 9.253453
10.132250 -25.977600 9.249953
8.908850 -22.815500 3.377453
12.750150 25.403400 -10.996539
11.083650 26.164801 -10.996539
6.691050 17.654699 4.253453
9.192350 16.511900 4.253453
-9.886650 25.719101 9.253453
-0.591450 1.715200 9.253453
1.004650 5.208700 9.253453
-7.322350 26.712099 9.253453
-12.711350 -30.226801 -10.996539
-14.303250 -29.499500 -10.996539
-11.695150 -22.587900 9.253453
-9.193850 -23.730700 9.253453
8.908850 -22.815599 3.377453
11.473150 -21.822500 3.377453
14.065350 -29.672600 -9.917007
12.451150 -30.738100 -10.790865
9.449650 41.086899 11.003453
7.949650 41.086899 9.253453
-12.316550 41.651001 9.253453
-13.798050 41.734001 11.003453
-12.711350 -30.226801 -10.996539
-14.303250 -29.499500 -10.996539
-13.509450 -27.663300 -10.996539
-11.842950 -28.424700 -10.996539
14.916650 28.668800 9.253453
7.949650 41.086899 9.253453
9.449650 41.086899 11.003453
16.416651 28.668800 11.003453
14.916650 28.668800 9.253453
16.416651 28.668800 11.003453
9.449650 41.086899 11.003453
7.949650 41.086899 9.253453
-15.417050 41.779099 11.003453
-13.935450 41.696098 9.253453
-12.316550 41.651001 9.253453
-13.798050 41.734001 11.003453
-18.152550 -42.284599 11.003453
18.152550 -42.284599 11.003453
18.152550 42.284599 11.003453
-18.152550 42.284599 11.003453
6.691050 17.654699 4.253453
1.004650 5.208600 5.038653
1.004650 5.208700 7.253453
-0.591450 1.715200 7.253553
-0.591450 1.715100 5.110253
-9.951650 -18.771799 4.253453
-11.695150 -22.587900 9.253453
8.434550 21.470800 9.253453
-7.322350 26.712099 9.253453
-6.097250 23.548500 3.377453
-8.661650 22.555500 3.377453
-9.886650 25.719101 9.253453
-7.450350 -19.914600 4.253453
0.795550 -1.866600 5.127153
0.795550 -1.866500 7.253453
2.391650 1.626900 7.253453
2.391650 1.626900 5.097153
9.192350 16.511900 4.253453
10.935850 20.327999 9.253453
-9.191550 -23.725401 9.246553
-15.085950 -41.725601 11.003453
-16.247549 -20.763300 11.003453
-14.747550 -20.763300 9.253453
-13.600150 -41.451401 9.253453
9.192350 16.511900 4.253453
9.189150 16.504900 4.254053
6.687850 17.647699 4.254053
6.691050 17.654699 4.253453
-9.951650 -18.771799 4.253453
-7.450350 -19.914600 4.253453
-9.191550 -23.725401 9.246553
-11.695150 -22.587900 9.253453
-16.038250 -18.687201 9.253453
-17.538250 -18.687201 11.003453
8.908850 -22.815500 3.377453
11.472350 -21.822800 3.377753
-6.095950 23.545099 3.377753
-8.660350 22.552000 3.377453
-8.661650 22.555500 3.377453
-6.097250 23.548500 3.377453
-9.639250 31.471100 -10.790865
-11.253450 30.405600 -9.917007
-9.886650 25.719101 9.253453
-8.661650 22.555500 3.377453
-6.097250 23.548500 3.377453
-7.322350 26.712099 9.253453
10.935850 20.327999 9.253453
2.391650 1.626900 9.253453
2.391650 1.627000 9.250553
0.795550 -1.866500 9.249953
0.795550 -1.866500 9.253453
2.391650 1.626900 9.253453
2.391650 1.627000 9.250553
-9.191550 -23.725401 9.246553
-9.193850 -23.730700 9.253453
0.795550 -1.866500 9.253453
0.795550 -1.866500 9.249953
-9.191550 -23.725401 9.246553
-9.193850 -23.730700 9.253453
-11.695150 -22.587900 9.253453
-0.591450 1.715100 5.110253
-0.591450 1.715200 7.253553
1.004650 5.208700 7.253453
1.004650 5.208600 5.038653
6.691050 17.654699 4.253453
8.434550 21.470800 9.253453
-11.695150 -22.587900 9.253453
-9.951650 -18.771799 4.253453
-7.450350 -19.914600 4.253453
-9.191550 -23.725401 9.246553
10.935850 20.327999 9.253453
9.192350 16.511900 4.253453
2.391650 1.626900 5.097153
2.391650 1.626900 7.253453
0.795550 -1.866500 7.253453
0.795550 -1.866600 5.127153
-6.097250 23.548500 3.377453
-8.661650 22.555500 3.377453
-8.660350 22.552000 3.377453
-6.095950 23.545099 3.377753
-9.193850 -23.730700 9.253453
-11.695150 -22.587900 9.253453
8.434550 21.470800 9.253453
10.935850 20.327999 9.253453
11.473150 -21.822500 3.377453
8.908850 -22.815599 3.377453
10.134050 -25.979200 9.253453
12.698350 -24.986099 9.253453
1.004650 5.208600 5.038653
1.004650 5.208700 7.253453
2.391650 1.626900 7.253453
2.391650 1.626900 5.097153
17.596649 26.228701 11.003453
17.499649 26.115601 11.003453
15.999650 26.115601 9.253453
16.096649 26.228701 9.253453
-15.305350 36.388000 11.003453
-13.805350 36.388000 9.253453
-8.661650 22.555500 3.377453
8.908850 -22.815500 3.377453
10.132250 -25.977600 9.249953
0.795550 -1.866500 9.249953
0.795550 -1.866500 7.253453
-0.591450 1.715200 7.253453
-0.591450 1.715200 9.253453
-9.886650 25.719101 9.253453
2.391650 1.627000 9.250553
2.391650 1.626900 9.253453
10.935850 20.327999 9.253453
2.391650 1.626900 7.253453
2.391650 1.626900 9.253453
0.795550 -1.866500 9.249953
0.795550 -1.866500 7.253453
-11.695150 -22.587900 9.253453
-9.193850 -23.730700 9.253453
-9.191550 -23.725401 9.246553
12.750150 25.403400 -10.996539
9.192350 16.511900 4.253453
10.935850 20.327999 9.253453
13.543950 27.239599 -10.996539
16.544550 17.028601 11.003453
15.044550 17.028601 9.253453
8.434550 21.470800 9.253453
6.691050 17.654699 4.253453
11.083650 26.164801 -10.996539
11.952150 27.966900 -10.996539
2.391650 1.627000 9.250553
2.391650 1.626900 9.253453
0.795550 -1.866500 9.253453
0.795550 -1.866500 9.249953
-15.515550 38.462101 11.003453
-14.015550 38.462101 9.253453
-14.039950 36.783199 9.253453
-15.539950 36.783199 11.003453
11.083650 26.164801 -10.996539
6.691050 17.654699 4.253453
8.434550 21.470800 9.253453
11.952150 27.966900 -10.996539
-15.515550 38.462101 11.003453
-15.482750 38.954700 11.003453
-15.384150 39.184601 11.003453
-15.417050 41.779099 11.003453
-13.935450 41.696098 9.253453
-13.884150 39.184601 9.253453
-13.982750 38.954700 9.253453
-14.015550 38.462101 9.253453
6.687850 17.647699 4.254053
1.344650 5.952800 5.013853
3.845950 4.810000 5.013853
9.189150 16.504900 4.254053
-11.842950 -28.424700 -10.996539
-13.509450 -27.663300 -10.996539
-9.951650 -18.771799 4.253453
-7.450350 -19.914600 4.253453
-6.097250 23.548500 3.377453
-8.661650 22.555500 3.377453
-11.253450 30.405600 -9.917007
-9.639250 31.471100 -10.790865
-13.509450 -27.663300 -10.996539
-9.951650 -18.771799 4.253453
-11.695150 -22.587900 9.253453
-14.303250 -29.499500 -10.996539
-9.193850 -23.730700 9.253453
-7.450350 -19.914600 4.253453
-11.842950 -28.424700 -10.996539
-12.711350 -30.226801 -10.996539
16.544550 17.028601 11.003453
17.371849 -38.747601 11.003453
15.871850 -38.747601 9.253453
15.044550 17.028601 9.253453
-11.842950 -28.424700 -10.996539
-13.509450 -27.663300 -10.996539
-14.303250 -29.499500 -10.996539
-12.711350 -30.226801 -10.996539
14.009850 -38.918400 9.253453
15.509850 -38.918400 11.003453
-13.431750 -41.573601 11.003453
-11.983850 -41.303101 9.253453
-9.951650 -18.771799 4.253453
-13.509450 -27.663300 -10.996539
-14.303250 -29.499500 -10.996539
-11.695150 -22.587900 9.253453
-13.600150 -41.451401 9.253453
-11.983850 -41.303101 9.253453
-13.431750 -41.573601 11.003453
-15.085950 -41.725601 11.003453
15.871850 -38.747601 9.253453
17.371849 -38.747601 11.003453
15.509850 -38.918400 11.003453
14.009850 -38.918400 9.253453
-11.842950 -28.424700 -10.996539
-7.450350 -19.914600 4.253453
-9.193850 -23.730700 9.253453
-12.711350 -30.226801 -10.996539
-15.085950 -41.725601 11.003453
-13.431750 -41.573601 11.003453
-11.983850 -41.303101 9.253453
-13.600150 -41.451401 9.253453
-9.193850 -23.730700 9.253453
-11.695150 -22.587900 9.253453
-14.303250 -29.499500 -10.996539
-12.711350 -30.226801 -10.996539
14.009850 -38.918400 9.253453
15.509850 -38.918400 11.003453
17.371849 -38.747601 11.003453
15.871850 -38.747601 9.253453
-13.798050 41.734001 11.003453
-12.316550 41.651001 9.253453
-13.935450 41.696098 9.253453
-15.417050 41.779099 11.003453
11.472350 -21.822800 3.377753
12.697450 -24.986401 9.253453
2.391650 1.627000 9.250553
2.391650 1.626900 7.253453
1.004650 5.208700 7.253453
1.004650 5.208700 9.253453
-7.322350 26.712099 9.253453
-6.097250 23.548500 3.377453
1.004650 5.208700 9.253453
-0.591450 1.715200 9.253453
-0.591450 1.715200 7.253453
1.004650 5.208700 7.253453
10.090750 -25.870300 9.249953
0.795550 -1.866500 9.253453
-8.661650 22.555500 3.377453
-9.886650 25.719101 9.253453
-0.591450 1.715200 9.253453
-0.591450 1.715200 7.253453
0.795550 -1.866500 7.253453
0.795550 -1.866500 9.249953
10.132250 -25.977600 9.249953
8.908850 -22.815500 3.377453
3.845950 4.810000 5.013853
2.391650 1.626900 5.097153
1.004650 5.208600 5.038653
1.344650 5.952800 5.013853
12.697450 -24.986401 9.253453
2.391650 1.627000 9.250553
2.391650 1.626900 9.253453
11.472350 -21.822800 3.377753
8.908850 -22.815500 3.377453
10.132250 -25.977600 9.249953
12.697450 -24.986401 9.253453
0.795550 -1.866500 9.249953
10.132250 -25.977600 9.249953
12.697450 -24.986401 9.253453
2.391650 1.626900 9.253453
1.004650 5.208700 7.253453
-0.591450 1.715200 7.253453
-0.591450 1.715200 9.253453
1.004650 5.208700 9.253453
2.391650 1.626900 9.253453
2.391650 1.627000 9.250553
0.795550 -1.866500 9.253453
1.004650 5.208700 7.253453
2.391650 1.626900 7.253453
0.795550 -1.866500 7.253453
-0.591450 1.715200 7.253453
8.434550 21.470800 9.253453
10.935850 20.327999 9.253453
9.192350 16.511900 4.253453
6.691050 17.654699 4.253453
-7.322350 26.712099 9.253453
1.004650 5.208700 9.253453
-0.591450 1.715200 9.253453
-9.886650 25.719101 9.253453
0.795550 -1.866500 9.249953
0.795550 -1.866500 9.253453
-9.193850 -23.730700 9.253453
-9.191550 -23.725401 9.246553
0.795550 -1.866500 9.253453
10.090750 -25.870300 9.249953
0.795550 -1.866500 7.253453
0.795550 -1.866500 9.249953
2.391650 1.626900 9.253453
2.391650 1.626900 7.253453
2.391650 1.626900 9.253453
2.391650 1.627000 9.250553
12.697450 -24.986401 9.253453
-17.852650 -17.864201 11.003453
-16.352650 -17.864201 9.253453
8.908850 -22.815500 3.377453
-8.660350 22.552000 3.377453
-6.095950 23.545099 3.377753
11.472350 -21.822800 3.377753
1.344650 5.952800 5.013853
1.004650 5.208600 5.038653
2.391650 1.626900 5.097153
3.845950 4.810000 5.013853
-6.095950 23.545099 3.377753
-8.660350 22.552000 3.377453
-8.661650 22.555500 3.377453
-6.097250 23.548500 3.377453
-17.852650 -17.864201 11.003453
-16.352650 -17.864201 9.253453
0.795550 -1.866500 9.253453
2.391650 1.627000 9.250553
2.391650 1.626900 9.253453
0.795550 -1.866500 9.253453
0.795550 -1.866500 9.249953
10.090750 -25.870300 9.249953
10.090750 -25.870300 9.249953
0.795550 -1.866500 9.249953
0.795550 -1.866500 9.253453
-9.639250 31.471100 -10.790865
-9.639250 31.471001 -10.791968
-9.679150 31.558500 -10.996506
-10.450250 33.404598 -10.995429
-7.322350 26.712099 9.253453
-6.097250 23.548500 3.377453
-9.886650 25.719101 9.253453
-7.322350 26.712099 9.253453
-10.450250 33.404598 -10.995429
-12.082050 32.772701 -10.996292
-17.649250 -17.531401 11.003453
-16.149250 -17.531401 9.253453
-7.322350 26.712099 9.253453
-7.322350 26.712200 9.254853
-9.886650 25.719101 9.253453
-11.408750 30.888700 -10.996318
-8.661650 22.555500 3.377453
-9.886650 25.719101 9.253453
-12.082050 32.772701 -10.996292
-13.413250 -8.548900 11.003453
-11.913250 -8.548900 9.253453
2.391650 1.626900 9.253453
12.697450 -24.986401 9.253453
10.132250 -25.977600 9.249953
0.795550 -1.866500 9.249953
-10.450250 33.404598 -10.995429
-12.082050 32.772701 -10.996292
-11.408750 30.888700 -10.996318
-9.679150 31.558500 -10.996506
-9.679150 31.558500 -10.996506
-9.639250 31.471001 -10.791968
-11.253450 30.405600 -9.917007
-11.408750 30.888700 -10.996318
-7.322350 26.712099 9.253453
-10.450250 33.404598 -10.995429
-9.679150 31.558500 -10.996506
-9.639250 31.471001 -10.791968
-9.639250 31.471100 -10.790865
-6.097250 23.548500 3.377453
-9.886650 25.719101 9.253453
-7.322350 26.712200 9.254853
-7.322350 26.712099 9.253453
-8.661650 22.555500 3.377453
-11.408750 30.888700 -10.996318
-12.082050 32.772701 -10.996292
-9.886650 25.719101 9.253453
-11.408750 30.888700 -10.996318
-11.253450 30.405600 -9.917007
-9.639250 31.471001 -10.791968
-9.679150 31.558500 -10.996506
-11.695150 -22.587900 9.253453
-9.191550 -23.725401 9.246553
-7.450350 -19.914600 4.253453
-9.951650 -18.771799 4.253453
16.267550 26.260799 9.253453
17.767550 26.260799 11.003453
12.490950 -30.825500 -10.996506
14.220650 -30.155600 -10.996318
14.894050 -32.039600 -10.996292
13.262250 -32.671600 -10.995429
12.451150 -30.738100 -10.790865
12.451050 -30.738001 -10.791968
12.490950 -30.825500 -10.996506
13.262250 -32.671600 -10.995429
10.134050 -25.979200 9.253453
8.908850 -22.815599 3.377453
9.189150 16.504900 4.254053
3.845950 4.810000 5.013853
1.344650 5.952800 5.013853
6.687850 17.647699 4.254053
10.134050 -25.979200 9.253453
10.134050 -25.979300 9.254853
12.698350 -24.986099 9.253453
-0.591450 1.715100 5.110253
0.795550 -1.866600 5.127153
0.795550 -1.866500 7.253453
-0.591450 1.715200 7.253553
14.220650 -30.155600 -10.996318
11.473150 -21.822500 3.377453
12.698350 -24.986099 9.253453
14.894050 -32.039600 -10.996292
-13.997050 18.755199 11.003453
-12.497050 18.755199 9.253453
-11.980050 17.799299 9.253453
-13.480050 17.799299 11.003453
0.795550 -1.866600 5.127153
-0.591450 1.715100 5.110253
-9.951650 -18.771799 4.253453
-7.450350 -19.914600 4.253453
1.004650 5.208700 7.253453
-0.591450 1.715200 7.253553
0.795550 -1.866500 7.253453
2.391650 1.626900 7.253453
2.391650 1.626900 5.097153
2.391650 1.626900 7.253453
1.004650 5.208700 7.253453
1.004650 5.208600 5.038653
13.262250 -32.671600 -10.995429
14.894050 -32.039600 -10.996292
14.220650 -30.155600 -10.996318
12.490950 -30.825500 -10.996506
12.490950 -30.825500 -10.996506
12.451050 -30.738001 -10.791968
12.451150 -30.738100 -10.790865
8.908850 -22.815599 3.377453
10.134050 -25.979200 9.253453
13.262250 -32.671600 -10.995429
12.698350 -24.986099 9.253453
10.134050 -25.979300 9.254853
10.134050 -25.979200 9.253453
11.473150 -21.822500 3.377453
8.908850 -22.815599 3.377453
12.451150 -30.738100 -10.790865
14.065350 -29.672600 -9.917007
11.083650 26.164801 -10.996539
12.750150 25.403400 -10.996539
9.192350 16.511900 4.253453
6.691050 17.654699 4.253453
11.473150 -21.822500 3.377453
14.220650 -30.155600 -10.996318
14.894050 -32.039600 -10.996292
12.698350 -24.986099 9.253453
14.220650 -30.155600 -10.996318
14.065350 -29.672600 -9.917007
12.451050 -30.738001 -10.791968
12.490950 -30.825500 -10.996506
4 0 1 2 3
4 4 5 6 7
4 8 9 10 11
4 12 13 14 15
4 16 17 18 19
4 20 21 22 23
4 24 25 26 27
4 28 29 30 31
4 32 33 34 35
25 36 37 38 39 40 41 42 43 44 45 46 47 48 49 50 51 52 53 54 55 56 57 58 59 60
4 61 62 63 64
4 65 66 67 68
4 69 70 71 72
4 73 74 75 76
4 77 78 79 80
4 81 82 83 84
4 85 86 87 88
4 89 90 91 92
4 93 94 95 96
4 97 98 99 100
4 101 102 103 104
4 105 106 107 108
4 109 110 111 112
4 113 114 115 116
4 117 118 119 120
4 121 122 123 124
4 125 126 127 128
4 129 130 131 132
4 133 134 135 136
4 137 138 139 140
4 141 142 143 144
4 145 146 147 148
8 149 150 151 152 153 154 155 156
4 157 158 159 160
4 161 162 163 164
4 165 166 167 168
4 169 170 171 172
4 173 174 175 176
4 177 178 179 180
4 181 182 183 184
4 185 186 187 188
4 189 190 191 192
4 193 194 195 196
4 197 198 199 200
4 201 202 203 204
4 205 206 207 208
4 209 210 211 212
8 213 214 215 216 217 218 219 220
4 221 222 223 224
8 225 226 227 228 229 230 231 232
4 233 234 235 236
4 237 238 239 240
4 241 242 243 244
4 120 245 246 117
4 247 248 249 250
4 251 252 253 254
4 255 256 257 258
3 259 260 261
4 262 263 264 265
4 266 267 268 269
3 270 271 272
8 273 274 275 276 277 278 279 280
8 281 282 283 284 285 286 287 288
4 289 290 291 292
4 293 294 295 296
4 297 298 299 300
4 301 302 303 304
4 305 306 307 308
4 9 309 310 10
8 311 312 313 314 315 316 317 318
3 319 320 321
4 322 323 324 325
3 326 327 328
4 329 330 331 332
4 306 333 334 307
4 335 336 337 338
4 339 340 341 342
4 343 344 345 346
4 21 8 11 22
4 347 348 349 350
8 351 352 353 354 355 356 357 358
4 359 360 361 362
4 363 364 365 366
4 367 368 369 370
4 371 372 373 374
4 234 246 245 235
4 375 376 377 378
4 379 380 381 382
4 383 384 385 386
4 387 388 389 390
4 391 392 393 394
4 395 396 397 398
4 399 400 401 402
4 403 404 405 406
4 407 408 409 410
4 411 412 413 414
4 415 416 417 418
4 419 420 421 422
8 423 424 425 426 427 428 429 430
4 431 432 433 434
3 314 313 435
3 314 435 436
8 437 438 439 440 441 442 443 444
4 445 446 447 448
3 449 450 451
4 452 453 454 455
4 456 457 458 459
4 460 461 462 463
3 464 465 466
4 467 468 469 470
4 471 472 473 474
4 475 476 477 478
4 479 480 481 482
3 483 484 442
3 484 443 442
4 485 486 487 488
3 489 490 491
4 492 69 72 493
4 494 495 496 497
4 498 499 500 501
4 502 503 504 505
4 118 506 507 119
3 508 509 510
3 511 512 513
3 514 515 516
6 517 518 519 520 521 522
4 523 524 525 526
4 527 528 71 70
3 529 530 531
4 532 533 534 535
4 527 536 537 528
4 538 539 540 541
4 542 543 544 545
4 546 547 548 549
6 550 551 552 553 554 555
3 556 557 558
4 559 560 561 562
4 563 564 565 566
4 567 568 569 570
4 571 572 305 308
4 573 574 575 576
6 577 578 579 580 581 582
4 583 584 585 586
3 587 588 589
4 590 591 592 593
4 594 595 596 597
8 598 20 23 599 600 537 536 601
4 602 603 604 605
4 309 346 345 310
4 606 607 608 609
4 610 611 612 613
4 614 615 616 617
6 618 619 620 621 622 623
3 624 625 626
4 627 628 629 630
4 631 632 633 634
4 635 636 637 638
4 639 640 641 642
