ply
format ascii 1.0
comment Created by Blender 2.82 (sub 7) - www.blender.org, source file: ''
element vertex 240
property float x
property float y
property float z
element face 56
property list uchar uint vertex_indices
end_header
16.929150 -11.417350 4.429100
16.929150 -16.929150 4.429100
16.929150 -16.929150 -6.594500
16.929150 -11.417350 -6.594500
13.188950 15.944898 5.610200
13.188950 15.944898 4.429100
12.204750 15.944898 4.429100
12.204750 15.944898 5.610200
11.417350 15.944898 -2.263790
11.417350 15.944898 -3.248040
-11.417340 15.944898 -3.248040
-11.417340 15.944898 -2.263790
-15.944898 -11.417350 4.429100
-15.944898 -11.417350 -6.594500
-16.929150 -11.417350 -6.594500
-16.929150 -11.417350 4.429100
12.204750 15.944898 5.610200
-12.204740 15.944898 5.610200
13.188950 15.944898 5.610200
-11.417340 -15.944850 -6.594500
-11.417340 -15.944850 4.429100
-11.417340 -16.929150 4.429100
-11.417340 -16.929150 -6.594500
-15.944898 -15.944850 -2.263790
-15.944898 15.944898 -2.263790
-15.944898 15.944898 -3.248040
-15.944898 -15.944850 -3.248040
-12.204740 15.944898 5.610200
-12.204740 15.944898 4.429100
-13.188990 15.944898 4.429100
-13.188990 15.944898 5.610200
16.929150 -16.929150 -6.594500
11.417350 -16.929150 -6.594500
11.417350 -15.944850 -6.594500
15.944850 -15.944850 -6.594500
15.944850 -11.417350 -6.594500
16.929150 -11.417350 -6.594500
-15.944898 15.944898 4.429100
-11.417340 15.944898 4.429100
-11.417340 16.929150 4.429100
-16.929150 16.929150 4.429100
-16.929150 11.417340 4.429100
-15.944898 11.417340 4.429100
-15.944898 15.944898 4.429100
-15.944898 15.944898 -6.594500
-11.417340 15.944898 -6.594500
-11.417340 15.944898 4.429100
16.929150 16.929150 6.594500
16.929150 16.929150 5.610200
-16.929150 16.929150 5.610200
-16.929150 16.929150 6.594500
13.188950 15.944898 5.610200
13.188950 -15.944850 5.610200
13.188950 -15.944850 -2.263790
13.188950 15.944898 -2.263790
16.929150 -16.929150 5.610200
16.929150 -16.929150 6.594500
-16.929150 -16.929150 6.594500
-16.929150 -16.929150 5.610200
15.944850 -15.944850 4.429100
11.417350 -15.944850 4.429100
11.417350 -16.929150 4.429100
16.929150 -16.929150 4.429100
16.929150 -11.417350 4.429100
15.944850 -11.417350 4.429100
-15.944898 15.944898 -6.594500
-15.944898 11.417340 -6.594500
-16.929150 11.417340 -6.594500
-16.929150 16.929150 -6.594500
-11.417340 16.929150 -6.594500
-11.417340 15.944898 -6.594500
-12.204740 -15.944850 -2.263790
12.204750 -15.944850 -2.263790
12.204750 15.944898 -2.263790
-12.204740 15.944898 -2.263790
16.929150 16.929150 4.429100
16.929150 16.929150 -6.594500
11.417350 16.929150 -6.594500
11.417350 16.929150 4.429100
11.417350 15.944898 4.429100
11.417350 15.944898 -6.594500
15.944850 15.944898 -6.594500
15.944850 15.944898 4.429100
-11.417340 -16.929150 -6.594500
-16.929150 -16.929150 -6.594500
-16.929150 -11.417350 -6.594500
-15.944898 -11.417350 -6.594500
-15.944898 -15.944850 -6.594500
-11.417340 -15.944850 -6.594500
-12.204740 -15.944850 4.429100
-12.204740 -15.944850 5.610200
-13.188990 -15.944850 5.610200
-13.188990 -15.944850 4.429100
-16.929150 -16.929150 6.594500
-16.929150 16.929150 6.594500
-16.929150 16.929150 5.610200
-16.929150 -16.929150 5.610200
11.417350 -15.944850 -3.248040
11.417350 -15.944850 -2.263790
-11.417340 -15.944850 -2.263790
-11.417340 -15.944850 -3.248040
-16.929150 11.417340 4.429100
-16.929150 16.929150 4.429100
-16.929150 16.929150 -6.594500
-16.929150 11.417340 -6.594500
-11.417340 16.929150 4.429100
-11.417340 16.929150 -6.594500
-16.929150 16.929150 -6.594500
-16.929150 16.929150 4.429100
-15.944898 15.944898 -6.594500
-15.944898 15.944898 4.429100
-15.944898 11.417340 4.429100
-15.944898 11.417340 -6.594500
11.417350 -15.944850 -6.594500
11.417350 -16.929150 -6.594500
11.417350 -16.929150 4.429100
11.417350 -15.944850 4.429100
-15.944898 -15.944850 4.429100
-15.944898 -11.417350 4.429100
-16.929150 -11.417350 4.429100
-16.929150 -16.929150 4.429100
-11.417340 -16.929150 4.429100
-11.417340 -15.944850 4.429100
-11.417340 -15.944850 4.429100
-11.417340 -15.944850 -6.594500
-15.944898 -15.944850 -6.594500
-15.944898 -15.944850 4.429100
-15.944898 -15.944850 -2.263790
-13.188990 -15.944850 -2.263790
-13.188990 15.944898 -2.263790
-15.944898 15.944898 -2.263790
15.944850 -15.944850 4.429100
15.944850 -15.944850 -6.594500
11.417350 -15.944850 -6.594500
11.417350 -15.944850 4.429100
-16.929150 -16.929150 6.594500
16.929150 -16.929150 6.594500
16.929150 16.929150 6.594500
-16.929150 16.929150 6.594500
-13.188990 15.944898 -2.263790
-13.188990 -15.944850 -2.263790
-13.188990 -15.944850 5.610200
-13.188990 15.944898 5.610200
15.944850 15.944898 -3.248040
15.944850 -15.944850 -3.248040
-15.944898 -15.944850 -3.248040
-15.944898 15.944898 -3.248040
-12.204740 15.944898 5.610200
-12.204740 -15.944850 5.610200
-12.204740 -15.944850 -2.263790
-12.204740 15.944898 -2.263790
16.929150 16.929150 6.594500
16.929150 -16.929150 6.594500
16.929150 -16.929150 5.610200
16.929150 16.929150 5.610200
13.188950 -15.944850 4.429100
13.188950 -15.944850 5.610200
12.204750 -15.944850 5.610200
12.204750 -15.944850 4.429100
-11.417340 15.944898 -6.594500
-11.417340 16.929150 -6.594500
-11.417340 16.929150 4.429100
-11.417340 15.944898 4.429100
16.929150 11.417340 4.429100
16.929150 16.929150 4.429100
11.417350 16.929150 4.429100
11.417350 15.944898 4.429100
15.944850 15.944898 4.429100
15.944850 11.417340 4.429100
15.944850 11.417340 -2.263790
15.944850 -11.417350 -2.263790
15.944850 -11.417350 -3.248040
15.944850 11.417340 -3.248040
16.929150 -16.929150 -6.594500
16.929150 -16.929150 4.429100
11.417350 -16.929150 4.429100
11.417350 -16.929150 -6.594500
-11.417340 -16.929150 -6.594500
-11.417340 -16.929150 4.429100
-16.929150 -16.929150 4.429100
-16.929150 -16.929150 -6.594500
16.929150 -11.417350 4.429100
16.929150 -11.417350 -6.594500
15.944850 -11.417350 -6.594500
15.944850 -11.417350 4.429100
13.188950 -15.944850 -2.263790
15.944850 -15.944850 -2.263790
15.944850 15.944898 -2.263790
13.188950 15.944898 -2.263790
16.929150 11.417340 -6.594500
15.944850 11.417340 -6.594500
15.944850 15.944898 -6.594500
11.417350 15.944898 -6.594500
11.417350 16.929150 -6.594500
16.929150 16.929150 -6.594500
-16.929150 -16.929150 4.429100
-16.929150 -11.417350 4.429100
-16.929150 -11.417350 -6.594500
-16.929150 -16.929150 -6.594500
12.204750 15.944898 -2.263790
12.204750 -15.944850 -2.263790
12.204750 -15.944850 5.610200
12.204750 15.944898 5.610200
-15.944898 -15.944850 -6.594500
-15.944898 -11.417350 -6.594500
-15.944898 -11.417350 4.429100
-15.944898 -15.944850 4.429100
15.944850 -15.944850 -6.594500
15.944850 -15.944850 4.429100
15.944850 -11.417350 4.429100
15.944850 -11.417350 -6.594500
12.204750 -15.944850 5.610200
13.188950 -15.944850 5.610200
16.929150 16.929150 5.610200
16.929150 -16.929150 5.610200
-16.929150 -16.929150 5.610200
-13.188990 -15.944850 5.610200
-12.204740 -15.944850 5.610200
16.929150 16.929150 4.429100
16.929150 11.417340 4.429100
16.929150 11.417340 -6.594500
16.929150 16.929150 -6.594500
-15.944898 11.417340 -6.594500
-15.944898 11.417340 4.429100
-16.929150 11.417340 4.429100
-16.929150 11.417340 -6.594500
15.944850 15.944898 -6.594500
15.944850 11.417340 -6.594500
15.944850 11.417340 4.429100
15.944850 15.944898 4.429100
11.417350 15.944898 -6.594500
11.417350 15.944898 4.429100
11.417350 16.929150 4.429100
11.417350 16.929150 -6.594500
16.929150 11.417340 -6.594500
16.929150 11.417340 4.429100
15.944850 11.417340 4.429100
15.944850 11.417340 -6.594500
-13.188990 15.944898 5.610200
-16.929150 16.929150 5.610200
4 0 1 2 3
4 4 5 6 7
4 8 9 10 11
4 12 13 14 15
3 16 17 18
4 19 20 21 22
4 23 24 25 26
4 27 28 29 30
6 31 32 33 34 35 36
6 37 38 39 40 41 42
4 43 44 45 46
4 47 48 49 50
4 51 52 53 54
4 55 56 57 58
6 59 60 61 62 63 64
6 65 66 67 68 69 70
4 71 72 73 74
4 75 76 77 78
4 79 80 81 82
6 83 84 85 86 87 88
4 89 90 91 92
4 93 94 95 96
4 97 98 99 100
4 101 102 103 104
4 105 106 107 108
4 109 110 111 112
4 113 114 115 116
6 117 118 119 120 121 122
4 123 124 125 126
4 127 128 129 130
4 131 132 133 134
4 135 136 137 138
4 139 140 141 142
4 143 144 145 146
4 147 148 149 150
4 151 152 153 154
4 155 156 157 158
4 159 160 161 162
6 163 164 165 166 167 168
4 169 170 171 172
4 173 174 175 176
4 177 178 179 180
4 181 182 183 184
4 185 186 187 188
6 189 190 191 192 193 194
4 195 196 197 198
4 199 200 201 202
4 203 204 205 206
4 207 208 209 210
10 16 211 212 18 213 214 215 216 217 17
4 218 219 220 221
4 222 223 224 225
4 226 227 228 229
4 230 231 232 233
4 234 235 236 237
7 238 216 215 239 213 18 17
