ply
format ascii 1.0
comment Created by Blender 2.82 (sub 7) - www.blender.org, source file: ''
element vertex 393
property float x
property float y
property float z
element face 93
property list uchar uint vertex_indices
end_header
-14.647650 -28.972349 6.200750
14.647650 -28.972349 6.200750
14.647650 -28.972349 -1.358270
-14.647650 -28.972349 -1.358270
-9.688250 -49.391350 6.576250
-15.412650 -46.089352 6.576250
-21.924049 -38.663349 6.576250
-24.448700 -32.555950 6.576250
-24.168501 -32.481049 6.356750
-19.855249 -41.240349 6.356750
-19.594351 -41.040352 6.200750
-9.451850 -48.819351 6.200750
-0.000050 -48.716351 6.200750
9.451750 -48.819351 6.200750
-6.392250 -49.855350 6.200750
-17.464849 -43.469349 6.200750
-22.815050 -35.456348 6.200750
-22.815050 35.455650 6.200750
-12.349650 47.391850 6.200750
-3.223550 50.481651 6.200750
6.392250 49.854752 6.200750
17.464849 43.468651 6.200750
22.815050 35.455650 6.200750
22.815050 -35.456348 6.200750
12.349650 -47.392349 6.200750
11.364050 -45.683350 6.200750
19.679150 -37.368351 6.200750
22.521650 -28.972349 6.200750
21.944950 31.887251 6.200750
16.069950 42.073750 6.200750
5.883350 47.948750 6.200750
-2.968250 48.525452 6.200750
-13.835550 44.032848 6.200750
-21.944950 31.887251 6.200750
-22.521650 -28.972349 6.200750
-16.069950 -42.074348 6.200750
-8.698150 -46.996349 6.200750
-0.000050 -36.846352 -9.547250
-0.000050 -36.846352 6.200750
-8.314950 -34.753349 6.200750
-8.314950 -34.753349 -9.547250
-18.071550 44.075352 6.849950
-18.275551 44.279350 7.512750
-15.733750 46.507851 7.512750
-12.922450 48.384949 7.512750
-9.889850 49.878349 7.512750
-9.847750 49.776550 7.166550
-12.867450 48.289551 7.166550
-12.778350 48.135052 6.849950
-14.647650 -28.972349 -1.358270
14.647650 -28.972349 -1.358270
14.647650 -28.972349 -8.129930
-14.647650 -28.972349 -8.129930
-15.412650 -46.089352 9.171850
-9.688250 -49.391350 9.171850
-9.451850 -48.819351 9.547250
-19.594351 -41.040352 9.547250
-19.855249 -41.240349 9.391250
-24.168501 -32.481049 9.391250
-24.448700 -32.555950 9.171850
-21.924049 -38.663349 9.171850
-22.815050 -35.456348 9.547250
-22.815050 35.455650 9.547250
-23.118851 35.581150 9.391250
-24.803770 29.269850 9.391250
-25.091360 29.307350 9.171850
-14.647650 -28.972349 -0.964570
14.647650 -28.972349 -0.964570
14.647650 28.972050 -0.964570
-14.647650 28.972050 -0.964570
15.666750 -46.420349 8.581450
22.285749 -38.871349 8.581450
22.381149 -38.926350 8.235350
23.874451 -35.894348 8.235350
24.958549 -32.692051 8.235350
24.448650 -32.555950 9.171850
21.923950 -38.663349 9.171850
15.412550 -46.089352 9.171850
15.558150 -46.279350 8.898050
17.902349 -43.906349 6.576250
9.688150 -49.391350 6.576250
-3.303550 -51.095348 6.576250
6.392250 -49.855350 6.200750
19.594351 -41.040352 6.200750
19.855150 -41.240349 6.356750
17.697250 -43.701351 6.356750
14.647650 28.972050 -1.358270
14.647650 -28.972349 -1.358270
-14.647650 -28.972349 -1.358270
-14.647650 28.972050 -1.358270
3.334550 51.332352 6.849950
-3.357650 51.509251 7.166550
-3.371850 51.618450 7.512750
3.371850 51.618450 7.512750
6.687950 50.962349 7.512750
9.889750 49.878349 7.512750
12.922450 48.384949 7.512750
12.867450 48.289551 7.166550
-3.357650 51.509251 8.581450
-3.303550 51.095150 9.171850
9.688150 49.390652 9.171850
9.779550 49.611752 8.898050
12.778250 48.135052 8.898050
12.922450 48.384949 8.235350
9.889750 49.878349 8.235350
6.687950 50.962349 8.235350
3.371850 51.618450 8.235350
3.357550 51.509251 8.581450
-19.855249 41.239948 9.391250
-20.085350 41.416451 9.171850
-21.924049 38.662552 9.171850
-22.131250 38.782051 8.898050
-23.607910 35.783352 8.898050
-25.328550 29.338350 8.898050
-24.679819 -32.617649 8.898050
-24.958549 32.691750 7.512750
-23.874519 35.893650 7.512750
-23.607910 35.783352 6.849950
-24.679819 -32.617649 6.849950
-24.852171 -32.663651 7.166550
-25.505440 29.361450 7.166550
-25.614620 29.375650 7.512750
3.223450 50.481651 6.200750
3.303550 51.095150 6.576250
15.412550 46.089149 6.576250
20.085350 41.416451 6.576250
19.855150 41.239948 6.356750
23.118851 35.581150 6.356750
22.815050 35.455650 6.200750
12.349650 47.391850 6.200750
-17.464849 43.468651 6.200750
-22.815050 35.455650 6.200750
-23.118851 35.581150 6.356750
-19.855249 41.239948 6.356750
-20.085350 41.416451 6.576250
-9.688250 49.390652 6.576250
-6.392250 49.854752 6.200750
12.867450 -48.289349 7.166550
9.847750 -49.776348 7.166550
21.923950 -38.663349 6.576250
22.131250 -38.782349 6.849950
22.381149 -38.926350 7.512750
18.275551 -44.279350 7.512750
12.922450 -48.385349 7.512750
23.874451 -35.894348 7.512750
24.679750 -32.617649 6.849950
24.958549 -32.692051 7.512750
-14.647650 -28.972349 -8.129930
-14.647650 28.972050 -8.129930
-14.647650 28.972050 -9.547250
-14.647650 -28.972349 -9.547250
18.275551 44.279350 7.512750
22.381149 38.926250 7.512750
22.131250 38.782051 6.849950
20.275150 41.561951 6.849950
15.558150 46.278950 6.849950
12.778250 48.135052 6.849950
-14.647650 -28.972349 -8.129930
14.647650 -28.972349 -8.129930
14.647650 28.972050 -8.129930
-14.647650 28.972050 -8.129930
12.864550 31.238850 -9.547250
10.734550 33.183250 -9.547250
8.314950 34.752850 -9.547250
8.314950 34.752850 6.200750
10.734550 33.183250 6.200750
12.864550 31.238850 6.200750
14.647650 28.972050 6.200750
14.647650 28.972050 -9.547250
-23.772770 -35.851349 8.581450
-24.852171 -32.663651 8.581450
-25.505440 29.361450 8.581450
-25.614620 29.375650 8.235350
-25.614620 -29.375950 8.235350
-23.874519 -35.894348 8.235350
5.671150 35.905151 -9.547250
2.874350 36.609249 -9.547250
-2.874350 36.609249 -9.547250
-2.874350 36.609249 6.200750
2.874350 36.609249 6.200750
5.671150 35.905151 6.200750
-22.131250 38.782051 6.849950
-21.924049 38.662552 6.576250
-24.477840 -29.227551 6.200750
18.275551 44.279350 8.235350
22.381149 38.926250 8.235350
24.958549 32.691750 8.235350
24.958549 32.691750 7.512750
-23.908920 -35.908352 7.874050
-18.301849 -44.306351 7.874050
-18.275551 -44.279350 8.235350
-18.197651 -44.201351 8.581450
-20.504049 41.737549 7.512750
-20.504049 41.737549 8.235350
-18.275551 44.279350 8.235350
-15.733750 46.507851 8.235350
-12.922450 48.384949 8.235350
-9.889850 49.878349 8.235350
-9.904050 49.912750 7.874050
15.036050 45.598148 9.547250
22.815050 35.455650 9.547250
23.386850 35.691952 9.171850
20.085350 41.416451 9.171850
20.275150 41.561951 8.898050
9.577350 49.122650 9.391250
15.236050 45.859051 9.391250
12.922450 -48.385349 8.235350
6.687950 -50.962349 8.235350
3.371850 -51.618351 8.235350
3.371850 -51.618351 7.512750
6.687950 -50.962349 7.512750
6.659550 -50.856350 7.166550
18.275551 -44.279350 8.235350
-9.779550 49.611752 6.849950
-3.371850 -51.618351 8.235350
-9.889850 -49.878349 8.235350
-9.889850 -49.878349 7.512750
-3.371850 -51.618351 7.512750
25.328550 29.338350 6.849950
14.647650 28.972050 -0.964570
14.647650 -28.972349 -0.964570
14.647650 -28.972349 -1.358270
14.647650 28.972050 -1.358270
-3.371850 51.618450 8.235350
-3.376650 51.655350 7.874050
-9.847750 49.776550 8.581450
-12.864550 -31.239149 -9.547250
-10.734550 -33.183552 -9.547250
-10.734550 -33.183552 6.200750
-12.864550 -31.239149 6.200750
-14.647650 -28.972349 6.200750
-14.647650 -28.972349 -9.547250
-10.734550 33.183250 -9.547250
-12.864550 31.238850 -9.547250
-14.647650 28.972050 -9.547250
-14.647650 28.972050 6.200750
-12.864550 31.238850 6.200750
-10.734550 33.183250 6.200750
-8.314950 34.752850 6.200750
-8.314950 34.752850 -9.547250
-23.874519 -35.894348 7.512750
-23.772770 -35.851349 7.166550
-18.197651 -44.201351 7.166550
-18.275551 -44.279350 7.512750
-17.464849 43.468651 9.547250
-9.451850 48.818851 9.547250
-9.688250 49.390652 9.171850
-12.658750 47.927849 9.171850
-12.778350 48.135052 8.898050
-18.071550 44.075352 8.898050
22.131250 38.782051 8.898050
-15.666750 -46.420349 8.581450
-3.357650 -51.509350 8.581450
-6.659550 -50.856350 8.581450
-6.613550 -50.684349 8.898050
-9.779550 -49.612350 8.898050
-23.874519 35.893650 8.235350
-15.666750 -46.420349 7.166550
3.357550 -51.509350 8.581450
6.659550 -50.856350 8.581450
12.867450 -48.289349 8.581450
3.334550 -51.332352 8.898050
-25.651529 29.380449 7.874050
-24.958549 32.691750 8.235350
-25.651529 -29.380751 7.874050
-12.867450 48.289551 8.581450
3.266050 -50.807350 9.391250
9.577350 -49.123348 9.391250
9.451750 -48.819351 9.547250
-3.223550 -50.482349 9.547250
21.672750 -38.518349 9.391250
22.815050 -35.456348 9.547250
19.594351 -41.040352 9.547250
19.855150 -41.240349 9.391250
6.392250 49.854752 9.547250
-22.815050 35.455650 9.547250
-22.815050 -35.456348 9.547250
-19.679150 -37.368351 9.547250
-22.521650 -28.972349 9.547250
-21.944950 31.887251 9.547250
-13.835550 44.032848 9.547250
-2.968250 48.525452 9.547250
5.883350 47.948750 9.547250
16.069950 42.073750 9.547250
21.944950 31.887251 9.547250
22.521650 -28.972349 9.547250
16.069950 -42.074348 9.547250
8.698150 -46.996349 9.547250
-2.968250 -48.525349 9.547250
-16.069950 -42.074348 9.547250
-17.464849 -43.469349 9.547250
-3.223550 -50.482349 9.547250
6.392250 -49.855350 9.547250
17.464849 -43.469349 9.547250
22.815050 -35.456348 9.547250
22.815050 35.455650 9.547250
17.464849 43.468651 9.547250
6.392250 49.854752 9.547250
-3.223550 50.481651 9.547250
-12.349650 47.391850 9.547250
-14.647650 28.972050 -0.964570
14.647650 28.972050 -0.964570
14.647650 -28.972349 -0.964570
-14.647650 -28.972349 -0.964570
14.647650 28.972050 -1.358270
14.647650 -28.972349 -1.358270
14.647650 -28.972349 -0.964570
14.647650 28.972050 -0.964570
-6.659550 -50.856350 7.166550
-3.357650 -51.509350 7.166550
-3.334550 -51.332352 6.849950
-6.613550 -50.684349 6.849950
-14.647650 -28.972349 -1.358270
-14.647650 -28.972349 -0.964570
-14.647650 28.972050 -0.964570
-14.647650 28.972050 -1.358270
-14.647650 28.972050 -1.358270
-14.647650 28.972050 -0.964570
-14.647650 -28.972349 -0.964570
-14.647650 -28.972349 -1.358270
-14.647650 28.972050 -1.358270
-14.647650 28.972050 -8.129930
14.647650 28.972050 -8.129930
14.647650 28.972050 -1.358270
14.647650 28.972050 -8.129930
14.647650 -28.972349 -8.129930
14.647650 -28.972349 -9.547250
14.647650 28.972050 -9.547250
-14.647650 28.972050 -1.358270
-14.647650 -28.972349 -1.358270
14.647650 -28.972349 -1.358270
14.647650 28.972050 -1.358270
8.314950 -34.753349 -9.547250
-0.000050 -36.846352 -9.547250
-8.314950 -34.753349 -9.547250
-14.647650 -28.972349 -9.547250
-14.647650 28.972050 -9.547250
-8.314950 34.752850 -9.547250
-2.874350 36.609249 -9.547250
8.314950 34.752850 -9.547250
14.647650 28.972050 -9.547250
14.647650 -28.972349 -9.547250
-14.647650 28.972050 6.200750
-14.647650 28.972050 -1.358270
14.647650 28.972050 -1.358270
14.647650 28.972050 6.200750
8.314950 -34.753349 6.200750
8.314950 -34.753349 -9.547250
10.734550 -33.183552 6.200750
10.734550 -33.183552 -9.547250
12.864550 -31.239149 -9.547250
14.647650 -28.972349 -9.547250
14.647650 -28.972349 6.200750
12.864550 -31.239149 6.200750
-16.069950 -42.074348 9.547250
-2.968250 -48.525349 9.547250
8.698150 -46.996349 9.547250
16.069950 -42.074348 9.547250
22.521650 -28.972349 9.547250
21.944950 31.887251 9.547250
16.069950 42.073750 9.547250
5.883350 47.948750 9.547250
-2.968250 48.525452 9.547250
-13.835550 44.032848 9.547250
-21.944950 31.887251 9.547250
-22.521650 -28.972349 9.547250
21.944950 31.887251 6.200750
12.864550 31.238850 6.200750
10.734550 33.183250 6.200750
20.991949 34.701950 6.200750
-22.521650 -28.972349 6.200750
14.647650 -28.972349 6.200750
-14.647650 -28.972349 6.200750
-8.314950 -34.753349 6.200750
-2.874350 -36.609348 6.200750
-19.679150 -37.368351 6.200750
22.815050 -35.456348 6.200750
-8.314950 34.752850 6.200750
-14.647650 28.972050 6.200750
14.647650 28.972050 6.200750
22.521650 -28.972349 6.200750
16.069950 -42.074348 6.200750
8.698150 -46.996349 6.200750
-2.968250 -48.525349 6.200750
-8.698150 -46.996349 6.200750
-0.000050 -36.846352 6.200750
8.314950 -34.753349 6.200750
-21.944950 31.887251 6.200750
-13.835550 44.032848 6.200750
-2.968250 48.525452 6.200750
5.883350 47.948750 6.200750
16.069950 42.073750 6.200750
2.874350 36.609249 6.200750
4 0 1 2 3
8 4 5 6 7 8 9 10 11
25 12 13 14 15 16 17 18 19 20 21 22 23 24 25 26 27 28 29 30 31 32 33 34 35 36
4 37 38 39 40
8 41 42 43 44 45 46 47 48
4 49 50 51 52
8 53 54 55 56 57 58 59 60
9 58 57 56 61 62 63 64 65 59
4 66 67 68 69
9 70 71 72 73 74 75 76 77 78
9 79 80 81 4 11 82 83 84 85
4 86 87 88 89
8 90 91 92 93 94 95 96 97
10 98 99 100 101 102 103 104 105 106 107
11 64 63 108 109 110 111 112 113 114 59 65
7 115 116 117 118 119 120 121
8 122 123 124 125 126 127 128 129
9 130 131 132 133 134 135 123 122 136
9 137 138 80 79 139 140 141 142 143
5 144 141 140 145 146
4 147 148 149 150
10 151 152 153 154 125 124 155 156 97 96
4 157 158 159 160
8 161 162 163 164 165 166 167 168
6 169 170 171 172 173 174
8 164 163 175 176 177 178 179 180
13 8 7 118 117 181 182 134 133 132 131 183 10 9
6 152 151 184 185 186 187
6 174 188 189 190 191 169
11 43 42 192 193 194 195 196 197 198 45 44
10 199 200 201 202 203 102 101 100 204 205
11 206 207 208 209 210 211 138 137 143 142 212
8 135 213 48 47 46 91 90 123
6 214 215 216 217 209 208
6 152 187 146 145 218 153
6 186 74 73 144 146 187
4 219 220 221 222
8 223 224 198 197 225 98 107 106
8 226 227 40 39 228 229 230 231
8 232 233 234 235 236 237 238 239
6 189 188 240 241 242 243
6 224 92 91 46 45 198
12 244 245 246 247 248 249 111 110 109 108 63 62
4 239 238 178 177
8 186 185 250 203 202 201 75 74
11 251 191 190 215 214 252 253 254 255 54 53
6 194 193 256 112 111 249
7 134 182 181 41 48 213 135
8 6 5 257 242 241 119 118 7
5 215 190 189 243 216
8 258 259 207 206 260 70 78 261
9 192 116 115 121 262 172 263 256 193
6 185 184 103 102 203 250
7 174 173 264 262 121 240 188
9 95 94 93 92 224 223 106 105 104
8 265 225 197 196 195 194 249 248
6 155 124 123 90 97 156
9 54 255 254 261 266 267 268 269 55
5 240 121 120 119 241
4 24 13 12 25
8 270 76 75 201 200 271 272 273
6 116 192 42 41 181 117
8 245 274 199 205 204 100 99 246
25 275 276 277 278 279 280 281 282 283 284 285 286 287 288 289 290 291 292 293 294 295 296 297 298 299
4 276 290 289 277
4 300 301 302 303
4 304 305 306 307
12 308 309 217 216 243 242 257 5 4 81 310 311
9 252 214 208 207 259 258 261 254 253
6 184 151 96 95 104 103
4 312 313 314 315
4 316 317 318 319
8 256 263 172 171 170 114 113 112
10 78 77 76 270 273 272 268 267 266 261
4 320 321 322 323
4 324 325 326 327
4 328 329 330 331
10 332 333 334 335 336 337 338 339 340 341
4 342 343 344 345
11 209 217 309 308 311 310 81 80 138 211 210
4 173 172 262 264
7 98 225 265 248 247 246 99
4 346 38 37 347
8 348 346 347 349 350 351 352 353
8 251 53 60 59 114 170 169 191
12 354 355 356 357 358 359 360 361 362 363 364 365
6 142 141 144 73 72 212
4 366 367 368 369
6 212 72 71 70 260 206
3 370 371 372
5 370 372 373 374 375
15 218 145 140 139 79 85 84 83 376 128 127 126 125 154 153
24 377 378 379 367 366 380 381 382 383 384 375 374 385 386 371 370 387 388 389 390 391 369 368 392
