ply
format ascii 1.0
comment Created by Blender 2.82 (sub 7) - www.blender.org, source file: ''
element vertex 454
property float x
property float y
property float z
element face 99
property list uchar uint vertex_indices
end_header
-0.977170 -0.000010 11.318850
-0.977170 -0.000010 11.122050
-0.846270 -0.488610 11.122050
-0.846270 -0.488610 11.318850
-0.393670 -0.000010 -12.303150
-0.393670 -0.000010 -10.334650
-0.340970 -0.196910 -10.334650
-0.340970 -0.196910 -12.303150
-0.393670 -0.000010 -10.334650
-0.393670 -0.000010 11.318850
-0.340970 -0.196910 11.318850
-0.393670 -0.000010 -10.334650
-0.380270 0.101890 -10.334650
-0.278370 0.278390 -10.334650
-0.101870 0.380290 -10.334650
0.101930 0.380290 -10.334650
0.278430 0.278390 -10.334650
0.380330 0.101890 -10.334650
0.380330 -0.101910 -10.334650
0.278430 -0.278410 -10.334650
0.101930 -0.380310 -10.334650
0.000030 -0.393710 -10.334650
-0.196870 -0.341010 -10.334650
-0.340970 -0.196910 -10.334650
-5.905470 5.905490 11.318850
-5.905470 5.905490 11.122050
-5.905470 -5.905510 11.122050
-5.905470 -5.905510 11.318850
7.874030 13.638170 11.318850
13.638230 7.873990 11.318850
15.748030 -0.000010 11.318850
13.638230 -7.874010 11.318850
7.874030 -13.638210 11.318850
0.000030 -15.748010 11.318850
-4.075870 -15.211410 11.318850
-11.135540 -11.135610 11.318850
-15.211430 -4.075910 11.318850
-15.211430 4.075890 11.318850
-13.638200 7.873990 11.318850
-0.846270 0.488590 11.318850
-0.977170 -0.000010 11.318850
-0.846270 -0.488610 11.318850
-0.488570 -0.846310 11.318850
0.000030 -0.977210 11.318850
0.252930 -0.943910 11.318850
0.690930 -0.691010 11.318850
0.846230 -0.488610 11.318850
0.977130 -0.000010 11.318850
0.846230 0.488590 11.318850
0.488530 0.846190 11.318850
0.000030 0.977090 11.318850
-0.488570 0.846190 11.318850
-0.690970 0.690890 11.318850
-11.135540 11.135520 11.318850
-4.075870 15.211410 11.318850
4.075930 15.211410 11.318850
0.101930 0.380290 -10.334650
-0.101870 0.380290 -10.334650
-0.101870 0.380290 -12.303150
0.101930 0.380290 -12.303150
5.905530 -5.905510 11.318850
-5.905470 -5.905510 11.318850
-5.905470 -5.905510 11.122050
5.905530 -5.905510 11.122050
-0.488570 0.846190 -12.303150
-0.846270 0.488590 -12.303150
-0.846270 0.488590 11.122050
-0.846270 0.488590 11.318850
-0.488570 0.846190 11.318850
-0.846270 -0.488610 11.122050
-0.846270 -0.488610 -12.303150
-0.488570 -0.846310 -12.303150
-0.488570 -0.846310 11.122050
-0.690970 -0.691010 11.122050
2.547430 -9.507210 -12.303150
6.959730 -6.959710 -12.303150
8.523830 -4.921310 -12.303150
9.842530 -0.000010 -12.303150
9.507130 2.547390 -12.303150
6.959730 6.959690 -12.303150
0.278430 0.278390 -10.334650
0.380330 0.101890 -10.334650
0.380330 -0.101910 -10.334650
0.278430 -0.278410 -10.334650
0.101930 -0.380310 -10.334650
0.000030 -0.393710 -10.334650
-0.196870 -0.341010 -10.334650
-0.340970 -0.196910 -10.334650
-8.523870 -4.921310 -12.303150
-4.921270 -8.523910 -12.303150
-2.547470 -9.507210 -12.303150
0.488530 0.846190 11.122050
0.846230 0.488590 11.122050
0.846230 0.488590 -12.303150
0.488530 0.846190 -12.303150
-11.135540 -11.135610 12.303150
-11.135540 -11.135610 11.318850
-4.075870 -15.211410 11.318850
-4.075870 -15.211410 12.303150
-0.196870 -0.341010 11.318850
0.000030 -0.393710 11.318850
0.000030 -0.393710 -10.334650
-0.196870 -0.341010 -10.334650
-0.393670 -0.000010 -10.334650
-0.380270 0.101890 -10.334650
-0.278370 0.278390 -10.334650
-0.101870 0.380290 -10.334650
0.101930 0.380290 -10.334650
4.921230 8.523890 -12.303150
0.000030 9.842490 -12.303150
-4.921270 8.523890 -12.303150
-8.523870 4.921190 -12.303150
-9.842520 -0.000010 -12.303150
0.000030 -0.393710 -12.303150
0.101930 -0.380310 -12.303150
0.101930 -0.380310 -10.334650
0.000030 -0.393710 -10.334650
0.340930 0.196790 -10.334650
0.380330 0.101890 -10.334650
0.380330 0.101890 -12.303150
0.278430 0.278390 -12.303150
0.278430 0.278390 11.318850
0.380330 0.101890 11.318850
0.380330 0.101890 -10.334650
-0.488570 -0.846310 11.318850
0.000030 -0.977210 11.318850
0.252930 -0.943910 11.318850
0.690930 -0.691010 11.318850
0.846230 -0.488610 11.318850
0.977130 -0.000010 11.318850
0.846230 0.488590 11.318850
0.488530 0.846190 11.318850
0.000030 0.977090 11.318850
-0.488570 0.846190 11.318850
-0.846270 0.488590 11.318850
-0.977170 -0.000010 11.318850
-0.846270 -0.488610 11.318850
7.874030 13.638170 12.303150
7.874030 13.638170 11.318850
4.075930 15.211410 11.318850
4.075930 15.211410 12.303150
-0.196870 -0.341010 -10.334650
0.000030 -0.393710 -10.334650
0.101930 -0.380310 -10.334650
0.278430 -0.278410 -10.334650
0.380330 -0.101910 -10.334650
0.380330 0.101890 -10.334650
0.278430 0.278390 -10.334650
0.101930 0.380290 -10.334650
-0.101870 0.380290 -10.334650
-0.278370 0.278390 -10.334650
-0.380270 0.101890 -10.334650
-0.393670 -0.000010 -10.334650
-0.340970 -0.196910 -10.334650
0.977130 -0.000010 11.122050
0.977130 -0.000010 11.318850
0.846230 -0.488610 11.318850
0.846230 -0.488610 11.122050
0.000030 -0.977210 11.318850
-0.488570 -0.846310 11.318850
-0.488570 -0.846310 11.122050
0.000030 -0.977210 11.122050
0.278430 0.278390 11.318850
0.101930 0.380290 11.318850
0.101930 0.380290 -10.334650
0.196830 0.340890 -10.334650
0.278430 0.278390 -12.303150
0.380330 -0.101910 -10.334650
0.380330 -0.101910 11.318850
-0.252870 0.943790 -12.303150
0.000030 0.977090 -12.303150
-0.196870 0.340890 -12.303150
-0.340970 0.196790 -12.303150
-0.393670 -0.000010 11.318850
-0.393670 -0.000010 -10.334650
-0.340970 -0.196910 -10.334650
-0.340970 -0.196910 11.318850
0.380330 0.101890 -10.334650
0.380330 0.101890 -12.303150
0.380330 -0.101910 -12.303150
0.380330 -0.101910 -10.334650
-0.278370 0.278390 -12.303150
-0.196870 0.340890 -10.334650
-0.101870 0.380290 -10.334650
-0.101870 0.380290 11.318850
-0.278370 0.278390 11.318850
0.380330 0.101890 11.318850
0.380330 0.101890 -10.334650
0.380330 -0.101910 -10.334650
0.380330 -0.101910 11.318850
-0.101870 0.380290 -12.303150
-0.278370 0.278390 -12.303150
-0.278370 0.278390 11.318850
-0.101870 0.380290 11.318850
-0.101870 0.380290 -10.334650
-0.196870 0.340890 -10.334650
-0.101870 0.380290 -10.334650
-0.380270 0.101890 -12.303150
-0.380270 0.101890 -10.334650
-0.340970 0.196790 -10.334650
-0.380270 0.101890 -10.334650
-0.380270 0.101890 11.318850
7.874030 -13.638210 12.303150
0.000030 -15.748010 12.303150
0.000030 -15.748010 11.318850
7.874030 -13.638210 11.318850
-0.196870 -0.341010 -12.303150
-0.393670 -0.000010 -10.334650
-0.393670 -0.000010 -12.303150
-0.340970 -0.196910 -12.303150
0.340930 -0.196910 -10.334650
0.278430 -0.278410 -12.303150
0.278430 -0.278410 11.318850
13.638230 7.873990 11.318850
13.638230 7.873990 12.303150
0.000030 -0.977210 11.318850
-0.488570 -0.846310 11.318850
-0.846270 -0.488610 11.318850
-0.977170 -0.000010 11.318850
-0.846270 0.488590 11.318850
-0.488570 0.846190 11.318850
0.000030 0.977090 11.318850
0.488530 0.846190 11.318850
0.846230 0.488590 11.318850
0.977130 -0.000010 11.318850
0.846230 -0.488610 11.318850
0.690930 -0.691010 11.318850
0.252930 -0.943910 11.318850
-5.905470 5.905490 11.318850
5.905530 5.905490 11.318850
5.905530 5.905490 11.122050
-5.905470 5.905490 11.122050
0.690930 -0.691010 11.318850
0.846230 -0.488610 11.318850
0.380330 -0.101910 11.318850
0.393730 -0.000010 11.318850
-0.393670 -0.000010 11.318850
0.278430 -0.278410 -12.303150
0.278430 -0.278410 11.318850
0.101930 -0.380310 11.318850
0.101930 -0.380310 -10.334650
0.196830 -0.341010 -10.334650
0.380330 -0.101910 -12.303150
0.380330 -0.101910 -10.334650
0.000030 0.977090 -12.303150
0.000030 0.977090 11.318850
0.000030 0.977090 11.122050
-0.252870 0.943790 11.122050
0.000030 0.977090 11.122050
-0.977170 -0.000010 -12.303150
-0.977170 -0.000010 11.122050
0.000030 0.977090 11.318850
0.488530 0.846190 11.318850
0.488530 0.846190 11.122050
0.252930 0.943790 11.122050
0.000030 0.977090 11.122050
0.977130 -0.000010 -12.303150
0.977130 -0.000010 11.122050
0.846230 -0.488610 -12.303150
-0.380270 0.101890 11.318850
-0.380270 0.101890 -10.334650
-0.340970 0.196790 -10.334650
-0.380270 0.101890 -10.334650
-0.380270 0.101890 -12.303150
0.340930 0.196790 -10.334650
0.690930 -0.691010 11.318850
0.690930 -0.691010 11.122050
-0.977170 -0.000010 11.122050
-0.977170 -0.000010 11.318850
0.252930 -0.943910 11.122050
0.252930 -0.943910 -12.303150
0.690930 -0.691010 -12.303150
0.690930 -0.691010 11.122050
0.488530 -0.846310 11.122050
0.252930 -0.943910 11.318850
0.000030 -0.977210 11.318850
0.000030 -0.977210 11.122050
0.000030 -0.977210 11.122050
0.000030 -0.977210 -12.303150
-0.196870 -0.341010 -12.303150
-0.196870 -0.341010 -10.334650
-0.196870 -0.341010 11.318850
0.278430 0.278390 -12.303150
0.101930 0.380290 -12.303150
-0.101870 0.380290 -12.303150
0.488530 0.846190 -12.303150
0.846230 0.488590 -12.303150
0.977130 -0.000010 -12.303150
0.846230 -0.488610 -12.303150
0.690930 -0.691010 -12.303150
0.252930 -0.943910 -12.303150
0.000030 -0.977210 -12.303150
-0.488570 -0.846310 -12.303150
-0.846270 -0.488610 -12.303150
-0.977170 -0.000010 -12.303150
-0.846270 0.488590 -12.303150
-0.488570 0.846190 -12.303150
-0.393670 -0.000010 -12.303150
-0.340970 -0.196910 -12.303150
-0.196870 -0.341010 -12.303150
0.000030 -0.393710 -12.303150
0.101930 -0.380310 -12.303150
0.278430 -0.278410 -12.303150
0.380330 -0.101910 -12.303150
0.380330 0.101890 -12.303150
0.340930 -0.196910 -10.334650
0.278430 -0.278410 -12.303150
0.101930 -0.380310 -12.303150
0.000030 -0.393710 -12.303150
-0.196870 -0.341010 -12.303150
-0.340970 -0.196910 -12.303150
-0.380270 -0.101910 -12.303150
-0.252870 -0.943910 -12.303150
0.252930 -0.943910 -12.303150
0.690930 -0.691010 -12.303150
0.846230 -0.488610 -12.303150
0.977130 -0.000010 -12.303150
0.846230 0.488590 -12.303150
0.488530 0.846190 -12.303150
0.278430 0.278390 -12.303150
0.380330 0.101890 -12.303150
0.380330 -0.101910 -12.303150
0.101930 0.380290 -12.303150
0.101930 0.380290 -10.334650
0.196830 0.340890 -10.334650
0.101930 0.380290 -10.334650
0.101930 0.380290 11.318850
-0.977170 -0.000010 -12.303150
-0.846270 -0.488610 -12.303150
-0.488570 -0.846310 -12.303150
-0.380270 0.101890 -12.303150
-0.278370 0.278390 -12.303150
-0.101870 0.380290 -12.303150
0.101930 0.380290 -12.303150
0.000030 0.977090 -12.303150
-0.488570 0.846190 -12.303150
-0.846270 0.488590 -12.303150
0.977130 -0.000010 11.318850
0.846230 -0.488610 11.318850
0.690930 -0.691010 11.318850
5.905530 -5.905510 11.318850
5.905530 5.905490 11.318850
5.905530 5.905490 11.122050
5.905530 5.905490 11.318850
5.905530 -5.905510 11.318850
5.905530 -5.905510 11.122050
-0.846270 0.488590 11.318850
-0.488570 0.846190 11.318850
0.000030 0.977090 11.318850
0.488530 0.846190 11.318850
0.846230 0.488590 11.318850
-5.905470 5.905490 11.318850
-5.905470 -5.905510 11.318850
0.252930 -0.943910 11.318850
0.000030 -0.977210 11.318850
-0.488570 -0.846310 11.318850
-0.846270 -0.488610 11.318850
-0.977170 -0.000010 11.318850
0.000030 -0.393710 -10.334650
0.000030 -0.393710 11.318850
0.252930 -0.943910 11.122050
0.690930 -0.691010 11.122050
0.846230 -0.488610 11.122050
0.977130 -0.000010 11.122050
5.905530 -5.905510 11.122050
-5.905470 -5.905510 11.122050
-5.905470 5.905490 11.122050
5.905530 5.905490 11.122050
-0.690970 0.690890 11.122050
-0.846270 0.488590 11.122050
-0.977170 -0.000010 11.122050
-0.846270 -0.488610 11.122050
-0.488570 -0.846310 11.122050
0.000030 -0.977210 11.122050
0.000030 -0.393710 -10.334650
0.000030 -0.393710 -12.303150
0.846230 0.488590 11.122050
0.488530 0.846190 11.122050
0.000030 0.977090 11.122050
-0.488570 0.846190 11.122050
0.101930 -0.380310 -10.334650
0.101930 -0.380310 -12.303150
-15.211430 -4.075910 12.303150
-15.211430 -4.075910 11.318850
0.101930 -0.380310 11.318850
0.101930 -0.380310 -10.334650
-15.211430 -4.075910 12.303150
-11.135540 -11.135610 12.303150
-4.075870 -15.211410 12.303150
0.000030 -15.748010 12.303150
7.874030 -13.638210 12.303150
13.638230 -7.874010 12.303150
15.748030 -0.000010 12.303150
13.638230 7.873990 12.303150
7.874030 13.638170 12.303150
4.075930 15.211410 12.303150
-4.075870 15.211410 12.303150
-11.135540 11.135520 12.303150
-15.211430 4.075890 12.303150
0.846230 0.488590 11.122050
0.846230 0.488590 11.318850
0.977130 -0.000010 11.318850
0.977130 -0.000010 11.122050
15.748030 -0.000010 12.303150
13.638230 -7.874010 12.303150
13.638230 -7.874010 11.318850
15.748030 -0.000010 11.318850
-4.075870 15.211410 11.318850
-4.075870 15.211410 12.303150
-11.135540 11.135520 12.303150
-11.135540 11.135520 11.318850
-15.211430 4.075890 12.303150
-15.211430 4.075890 11.318850
-0.278370 0.278390 11.318850
-0.101870 0.380290 11.318850
0.101930 0.380290 11.318850
0.278430 0.278390 11.318850
0.380330 0.101890 11.318850
0.977130 -0.000010 11.318850
0.846230 0.488590 11.318850
0.488530 0.846190 11.318850
0.000030 0.977090 11.318850
-0.488570 0.846190 11.318850
-0.846270 0.488590 11.318850
-0.977170 -0.000010 11.318850
-0.846270 -0.488610 11.318850
-0.488570 -0.846310 11.318850
0.000030 -0.977210 11.318850
0.252930 -0.943910 11.318850
-0.380270 0.101890 11.318850
0.196830 -0.341010 -10.334650
0.000030 0.977090 11.318850
0.488530 0.846190 11.318850
0.846230 0.488590 11.318850
0.977130 -0.000010 11.318850
0.846230 -0.488610 11.318850
0.690930 -0.691010 11.318850
0.252930 -0.943910 11.318850
0.000030 -0.977210 11.318850
-0.488570 -0.846310 11.318850
-0.846270 -0.488610 11.318850
-0.977170 -0.000010 11.318850
-0.101870 -0.380310 11.318850
-0.393670 -0.000010 11.318850
0.393730 -0.000010 11.318850
0.380330 0.101890 11.318850
0.278430 0.278390 11.318850
0.101930 0.380290 11.318850
0.000030 0.393690 11.318850
-0.488570 0.846190 11.318850
-0.846270 0.488590 11.318850
-0.101870 0.380290 11.318850
-0.278370 0.278390 11.318850
-0.380270 0.101890 11.318850
4 0 1 2 3
4 4 5 6 7
4 8 9 10 6
13 11 12 13 14 15 16 17 18 19 20 21 22 23
4 24 25 26 27
28 28 29 30 31 32 33 34 35 36 37 38 39 40 41 42 43 44 45 46 47 48 49 50 51 52 53 54 55
4 56 57 58 59
4 60 61 62 63
5 64 65 66 67 68
5 69 70 71 72 73
17 74 75 76 77 78 79 80 81 82 83 84 85 86 87 88 89 90
4 91 92 93 94
4 95 96 97 98
4 99 100 101 102
14 103 104 105 106 107 80 79 108 109 110 111 112 88 87
4 113 114 115 116
7 117 118 119 120 121 122 123
13 124 125 126 127 128 129 130 131 132 133 134 135 136
4 137 138 139 140
13 141 142 143 144 145 146 147 148 149 150 151 152 153
4 154 155 156 157
4 158 159 160 161
7 162 163 164 165 56 59 166
4 167 123 122 168
4 169 170 171 172
4 173 174 175 176
4 177 178 179 180
7 181 58 57 182 183 184 185
4 186 187 188 189
7 190 191 192 193 194 195 196
7 192 191 197 198 199 200 201
4 202 203 204 205
6 102 206 7 6 10 99
4 38 53 52 39
4 207 208 209 175
7 189 188 210 180 179 211 212
4 213 138 137 214
13 215 216 217 218 219 220 221 222 223 224 225 226 227
4 228 229 230 231
5 232 233 234 235 236
7 114 237 238 239 240 241 115
4 242 119 118 243
7 244 64 68 245 246 247 248
4 249 70 69 250
5 251 252 253 254 255
4 256 257 157 258
4 92 257 256 93
4 65 249 250 66
7 181 185 259 260 261 262 263
7 162 166 178 177 264 187 186
4 157 156 265 266
4 67 66 267 268
8 269 270 271 272 273 266 265 274
4 163 184 183 164
4 274 275 276 269
4 269 277 278 270
6 209 279 280 281 176 175
5 3 2 73 160 159
27 282 283 284 171 170 285 286 287 288 289 290 291 292 293 294 295 296 169 172 297 298 299 300 301 302 303 304
7 305 167 168 238 237 242 243
16 306 307 308 309 310 311 312 313 314 315 316 317 318 319 320 321
4 260 259 9 8
4 263 262 5 4
7 121 120 322 323 324 325 326
14 327 328 329 312 311 330 331 332 333 319 318 334 335 336
4 325 194 193 326
5 337 338 339 340 341
4 342 343 344 345
16 346 347 348 349 350 337 341 351 352 340 339 353 354 355 356 357
4 174 173 201 200
4 208 207 198 197
4 280 358 359 281
14 360 361 362 363 364 365 366 367 368 369 370 371 372 373
4 279 113 116 280
4 102 374 375 206
8 363 376 377 378 379 368 367 364
4 322 190 196 323
4 374 380 381 375
4 382 383 96 95
4 358 240 239 359
4 100 384 385 101
5 248 254 91 94 244
13 386 387 388 389 390 391 392 393 394 395 396 397 398
4 399 400 401 402
4 403 404 405 406
4 140 139 407 408
4 409 408 407 410
4 411 412 383 382
4 404 202 205 405
4 409 410 412 411
4 204 203 98 97
4 277 72 71 278
4 400 399 253 252
22 413 414 415 416 417 235 234 233 418 419 420 421 422 423 424 425 426 427 428 232 236 429
7 380 430 385 384 212 211 381
19 431 432 433 434 435 436 437 438 439 440 441 442 443 444 445 446 447 448 449
9 443 442 441 450 449 448 451 452 453
4 258 157 272 271
4 406 213 214 403
