ply
format ascii 1.0
comment Created by Blender 2.82 (sub 7) - www.blender.org, source file: ''
element vertex 490
property float x
property float y
property float z
element face 95
property list uchar uint vertex_indices
end_header
-7.492400 23.431601 5.984095
-7.659200 22.545700 -13.351395
-7.659200 21.310101 -13.351395
-7.492400 21.176701 5.984095
8.203100 21.345400 5.242495
8.159100 21.310101 -13.351395
9.703600 21.310101 -13.351395
8.740300 20.775700 -7.976205
10.771400 21.345400 5.242495
-7.041100 20.815701 6.855495
-7.041100 23.446800 6.855495
10.830700 -20.384300 7.463695
10.830700 -20.963600 6.998595
7.413300 -20.963600 6.998595
6.689300 -20.384300 7.463695
-6.398400 20.301600 7.366295
-6.398400 23.447399 7.366295
10.742500 21.387699 4.867095
10.830000 20.815701 6.855495
10.830700 20.455000 7.255495
10.830700 19.765600 7.614095
10.830700 -20.015600 7.614095
10.830700 -20.705000 7.255495
10.830000 -21.065800 6.855495
10.771400 -21.595400 5.242495
8.740300 -21.025801 -7.976205
9.703600 -21.560200 -13.351395
9.703600 -22.795799 -13.351395
8.823100 -22.091400 -9.058005
10.830700 -23.697399 10.601395
10.830700 23.447399 10.601395
8.823100 21.841299 -9.058005
9.703600 22.545700 -13.351395
9.703600 21.310101 -13.351395
8.740300 20.775700 -7.976205
7.541100 23.446800 6.855495
7.541100 20.815701 6.855495
7.090200 20.455000 7.255495
6.898400 20.301600 7.366295
6.898400 23.447399 7.366295
10.830700 20.713499 6.998595
10.771400 21.345400 5.242495
8.203100 21.345400 5.242495
7.644400 20.898300 6.704595
7.413300 20.713499 6.998595
-6.398400 -20.551600 7.366295
-7.041100 -21.065800 6.855495
-7.041100 -23.696899 6.855495
-6.398400 -23.697399 7.366295
10.830700 8.240400 12.462495
10.830700 0.000000 12.351395
10.830700 -8.240500 12.462495
10.830700 -16.475000 12.795895
10.830700 -18.882401 12.942295
-11.080700 -18.882401 12.942295
-11.080700 -16.475000 12.795895
-11.080700 -8.240500 12.462495
-11.080700 0.000000 12.351395
-11.080700 8.240400 12.462495
-11.080700 16.474899 12.795895
-11.080700 18.882299 12.942295
-11.830700 18.882299 12.942295
-11.830700 16.474899 12.795895
-11.830700 8.240400 12.462495
-11.830700 0.000000 12.351395
-11.830700 -8.240500 12.462495
-11.830700 -16.475000 12.795895
-11.830700 -20.588100 13.045895
-11.830700 -24.697399 13.351395
11.830700 -24.697399 13.351395
11.830700 -20.588100 13.045895
11.830700 -16.475000 12.795895
11.830700 -8.240500 12.462495
11.830700 0.000000 12.351395
11.830700 8.240400 12.462495
11.830700 16.474899 12.795895
11.830700 18.882299 12.942295
10.830700 18.882299 12.942295
10.830700 16.474899 12.795895
-6.398400 20.301600 7.366295
-7.041100 20.815701 6.855495
-7.041100 23.446800 6.855495
-6.398400 23.447399 7.366295
10.830700 20.134300 7.463695
6.689300 20.134300 7.463695
7.413300 20.713499 6.998595
10.830700 20.713499 6.998595
7.541100 20.815701 6.855495
7.541100 23.446800 6.855495
6.898400 23.447399 7.366295
6.898400 20.301600 7.366295
7.090200 20.455000 7.255495
7.992400 23.431601 5.984095
7.992400 21.176701 5.984095
10.830700 0.000000 12.351395
10.830700 8.240400 12.462495
10.830700 16.474899 12.795895
10.830700 18.882299 12.942295
11.830700 18.882299 12.942295
11.830700 16.474899 12.795895
11.830700 8.240400 12.462495
11.830700 0.000000 12.351395
11.830700 -8.240500 12.462495
11.830700 -16.475000 12.795895
11.830700 -24.697399 13.351395
-11.830700 -24.697399 13.351395
-11.830700 -16.475000 12.795895
-11.830700 -8.240500 12.462495
-11.830700 0.000000 12.351395
-11.830700 8.240400 12.462495
-11.830700 16.474899 12.795895
-11.830700 18.882299 12.942295
-11.080700 18.882299 12.942295
-11.080700 16.474899 12.795895
-11.080700 8.240400 12.462495
-11.080700 0.000000 12.351395
-11.080700 -8.240500 12.462495
-11.080700 -18.882401 12.942295
10.830700 -18.882401 12.942295
10.830700 -8.240500 12.462495
-10.330700 23.447399 10.601395
-10.330700 -23.697399 10.601395
-8.323200 -22.091400 -9.058005
-9.203600 -22.795799 -13.351395
-9.203600 -21.560200 -13.351395
-8.240400 -21.025801 -7.976205
-10.271500 -21.595400 5.242495
-10.330000 -21.065800 6.855495
-10.330700 -20.705000 7.255495
-10.330700 -20.015600 7.614095
-10.330700 19.765600 7.614095
-10.330700 20.455000 7.255495
-10.330000 20.815701 6.855495
-10.271500 21.345400 5.242495
-8.240400 20.775700 -7.976205
-9.203600 21.310101 -13.351395
-9.203600 22.545700 -13.351395
-8.323200 21.841299 -9.058005
7.992400 21.176701 5.984095
7.992400 23.431601 5.984095
10.830700 -23.697399 10.601395
10.830700 23.447399 10.601395
11.830700 23.447399 10.601395
11.830700 -24.697399 10.601395
-10.330700 -24.697399 10.601395
-10.330700 -23.697399 10.601395
-10.330700 24.697399 10.601395
11.830700 24.697399 10.601395
-10.330700 23.447399 10.601395
-11.830700 -24.697399 10.601395
-11.830700 24.697399 10.601395
-11.830700 24.697399 13.351395
-11.830700 -24.697399 13.351395
10.830700 -2.454500 7.784595
5.047600 -2.454500 7.784595
5.728000 -2.172100 7.699895
6.703500 -0.919800 7.457095
10.830700 -0.919800 7.457095
8.823100 -22.091400 -9.058005
9.703600 -22.795799 -13.351395
9.703600 -21.560200 -13.351395
8.740300 -21.025801 -7.976205
10.771400 -21.595400 5.242495
10.830000 -21.065800 6.855495
10.830700 -20.705000 7.255495
10.830700 -20.015600 7.614095
10.830700 19.765600 7.614095
10.830700 20.455000 7.255495
10.830000 20.815701 6.855495
10.742500 21.387699 4.867095
8.740300 20.775700 -7.976205
9.703600 21.310101 -13.351395
9.703600 22.545700 -13.351395
8.823100 21.841299 -9.058005
10.830700 23.447399 10.601395
10.830700 -23.697399 10.601395
-6.398400 -23.697399 7.366295
-7.041100 -23.696899 6.855495
-7.041100 -21.065800 6.855495
-6.398400 -20.551600 7.366295
-7.041100 -23.696899 6.855495
-7.659200 -22.795799 -13.351395
-9.203600 -22.795799 -13.351395
-8.323200 -22.091400 -9.058005
-10.330700 -23.697399 10.601395
10.830700 -23.697399 10.601395
8.823100 -22.091400 -9.058005
9.703600 -22.795799 -13.351395
8.159100 -22.795799 -13.351395
7.541100 -23.696899 6.855495
6.898400 -23.697399 7.366295
5.981800 -23.697399 7.665395
-6.398400 -23.697399 7.366295
-7.659200 21.310101 -13.351395
-9.203600 21.310101 -13.351395
-9.203600 22.545700 -13.351395
-7.659200 22.545700 -13.351395
9.703600 21.310101 -13.351395
8.159100 21.310101 -13.351395
8.159100 22.545700 -13.351395
9.703600 22.545700 -13.351395
11.830700 23.447399 10.601395
-10.330700 23.447399 10.601395
10.830700 23.447399 10.601395
-11.830700 -24.697399 10.601395
11.830700 -24.697399 10.601395
11.830700 -24.697399 13.351395
-11.830700 -24.697399 13.351395
-11.830700 -24.697399 13.351395
-11.830700 24.697399 13.351395
-11.830700 24.697399 10.601395
-11.830700 -24.697399 10.601395
11.830700 24.697399 10.601395
-10.330700 24.697399 10.601395
-10.330700 -24.697399 10.601395
11.830700 -24.697399 10.601395
10.830700 -23.697399 10.601395
-10.330700 -23.697399 10.601395
11.830700 -24.697399 13.351395
11.830700 -24.697399 10.601395
11.830700 24.697399 10.601395
11.830700 24.697399 13.351395
7.992400 -23.681601 5.984095
8.159100 -22.795799 -13.351395
8.159100 -21.560200 -13.351395
7.992400 -21.426800 5.984095
-10.330700 -2.454500 7.784595
-4.547600 -2.454500 7.784595
-5.228100 -2.172100 7.699895
-6.203500 -0.919800 7.457095
-10.330700 -0.919800 7.457095
7.541100 -21.065800 6.855495
7.541100 -23.696899 6.855495
-11.830700 24.697399 10.601395
11.830700 24.697399 10.601395
11.830700 24.697399 13.351395
-11.830700 24.697399 13.351395
7.644400 -21.148399 6.704595
10.771400 -21.595400 5.242495
8.203100 -21.595400 5.242495
-6.913400 20.713499 6.998595
-10.330700 20.713499 6.998595
-10.271500 21.345400 5.242495
-7.703200 21.345400 5.242495
8.159100 -22.795799 -13.351395
7.992400 -23.681601 5.984095
7.992400 -21.426800 5.984095
8.159100 -21.560200 -13.351395
-10.271500 -21.595400 5.242495
-8.240400 -21.025801 -7.976205
-9.203600 -21.560200 -13.351395
-7.659200 -21.560200 -13.351395
-7.703200 -21.595400 5.242495
-5.228100 -2.172100 7.699895
-4.325800 -2.546600 7.812195
-4.547600 -2.454500 7.784595
4.825800 -2.546600 7.812195
5.728000 -2.172100 7.699895
5.047600 -2.454500 7.784595
10.830700 -2.454500 7.784595
10.830700 -0.919800 7.457095
6.703500 -0.919800 7.457095
-10.330700 -2.454500 7.784595
-10.330700 -0.919800 7.457095
-6.203500 -0.919800 7.457095
-10.271500 21.345400 5.242495
-10.330700 20.713499 6.998595
-6.913400 20.713499 6.998595
-7.703200 21.345400 5.242495
10.771400 -21.595400 5.242495
8.203100 -21.595400 5.242495
8.159100 -21.560200 -13.351395
9.703600 -21.560200 -13.351395
8.740300 -21.025801 -7.976205
-7.659200 21.310101 -13.351395
-9.203600 21.310101 -13.351395
-8.240400 20.775700 -7.976205
8.159100 22.545700 -13.351395
8.159100 21.310101 -13.351395
-7.492400 -21.426800 5.984095
-7.492400 -23.681601 5.984095
7.644400 -21.148399 6.704595
10.830700 -20.963600 6.998595
7.413300 -20.963600 6.998595
-7.492400 -21.426800 5.984095
-7.492400 -23.681601 5.984095
-7.659200 -22.795799 -13.351395
-7.659200 -21.560200 -13.351395
7.644400 20.898300 6.704595
7.541100 -21.065800 6.855495
7.541100 -23.696899 6.855495
7.541100 23.446800 6.855495
6.898400 23.447399 7.366295
-5.481800 23.447399 7.665395
-6.398400 23.447399 7.366295
-7.041100 23.446800 6.855495
-7.659200 22.545700 -13.351395
-9.203600 22.545700 -13.351395
-8.323200 21.841299 -9.058005
-10.330700 23.447399 10.601395
10.830700 23.447399 10.601395
8.823100 21.841299 -9.058005
9.703600 22.545700 -13.351395
8.159100 22.545700 -13.351395
-6.189300 20.134300 7.463695
-10.330700 20.134300 7.463695
-10.271500 21.345400 5.242495
-10.330000 20.815701 6.855495
-10.330700 20.455000 7.255495
-10.330700 19.765600 7.614095
-10.330700 -20.015600 7.614095
-10.330700 -20.705000 7.255495
-10.330000 -21.065800 6.855495
-10.271500 -21.595400 5.242495
-8.240400 -21.025801 -7.976205
-9.203600 -21.560200 -13.351395
-9.203600 -22.795799 -13.351395
-8.323200 -22.091400 -9.058005
-10.330700 -23.697399 10.601395
-10.330700 23.447399 10.601395
-8.323200 21.841299 -9.058005
-9.203600 22.545700 -13.351395
-9.203600 21.310101 -13.351395
-8.240400 20.775700 -7.976205
7.541100 23.446800 6.855495
8.159100 22.545700 -13.351395
9.703600 22.545700 -13.351395
8.823100 21.841299 -9.058005
10.830700 23.447399 10.601395
-10.330700 23.447399 10.601395
-8.323200 21.841299 -9.058005
-9.203600 22.545700 -13.351395
-7.659200 22.545700 -13.351395
-7.041100 23.446800 6.855495
-6.398400 23.447399 7.366295
-5.481800 23.447399 7.665395
6.898400 23.447399 7.366295
9.703600 -21.560200 -13.351395
9.703600 -22.795799 -13.351395
8.159100 -22.795799 -13.351395
8.159100 -21.560200 -13.351395
-10.330700 24.697399 10.601395
-10.330700 -24.697399 10.601395
-11.830700 -24.697399 10.601395
-11.830700 24.697399 10.601395
-11.830700 24.697399 10.601395
-11.830700 -24.697399 10.601395
-10.330700 -24.697399 10.601395
-10.330700 24.697399 10.601395
11.830700 -24.697399 13.351395
11.830700 -24.697399 10.601395
-11.830700 -24.697399 10.601395
-11.830700 -24.697399 13.351395
11.830700 24.697399 13.351395
11.830700 24.697399 10.601395
11.830700 -24.697399 10.601395
11.830700 -24.697399 13.351395
-11.830700 24.697399 13.351395
11.830700 24.697399 13.351395
-6.189300 -20.384300 7.463695
-6.913400 -20.963600 6.998595
-10.330700 -20.963600 6.998595
-10.330700 -20.384300 7.463695
-4.325800 -2.546600 7.812195
4.825800 -2.546600 7.812195
10.830700 1.831900 7.672895
10.830700 2.204500 7.784595
5.047600 2.204500 7.784595
10.830700 2.204500 7.784595
10.830700 2.577100 7.896395
10.830700 19.765600 7.614095
10.830700 20.134300 7.463695
6.689300 20.134300 7.463695
5.981800 23.447399 7.665395
-6.189300 20.134300 7.463695
-5.965100 19.954901 7.546595
-5.728400 19.765600 7.614095
-5.965100 19.954901 7.546595
-10.330700 19.765600 7.614095
-10.330700 2.577100 7.896395
-10.330700 2.204500 7.784595
-4.547600 2.204500 7.784595
-10.330700 2.204500 7.784595
-10.330700 1.831900 7.672895
-10.330700 -2.454500 7.784595
-10.330700 -20.015600 7.614095
-10.330700 -20.384300 7.463695
-6.189300 -20.384300 7.463695
-5.965100 -20.205000 7.546595
-5.728400 -20.015600 7.614095
-5.965100 -20.205000 7.546595
-6.189300 -20.384300 7.463695
5.981800 -23.697399 7.665395
6.898400 -23.697399 7.366295
6.898400 -20.551600 7.366295
6.689300 -20.384300 7.463695
6.465100 -20.205000 7.546595
6.228400 -20.015600 7.614095
6.465100 -20.205000 7.546595
6.689300 -20.384300 7.463695
10.830700 -20.384300 7.463695
10.830700 -20.015600 7.614095
10.830700 -2.454500 7.784595
11.830700 24.697399 13.351395
-11.830700 24.697399 13.351395
-7.659200 22.545700 -13.351395
-7.492400 23.431601 5.984095
-7.492400 21.176701 5.984095
-7.659200 21.310101 -13.351395
-11.830700 24.697399 13.351395
11.830700 24.697399 13.351395
11.830700 24.697399 10.601395
-11.830700 24.697399 10.601395
-11.080700 18.882299 12.942295
10.830700 18.882299 12.942295
10.830700 -18.882401 12.942295
-11.080700 -18.882401 12.942295
-11.080700 -18.882401 12.942295
10.830700 -18.882401 12.942295
10.830700 18.882299 12.942295
-11.080700 18.882299 12.942295
8.740300 -21.025801 -7.976205
9.703600 -21.560200 -13.351395
8.159100 -21.560200 -13.351395
-6.189300 20.134300 7.463695
-10.330700 20.134300 7.463695
8.159100 21.310101 -13.351395
8.159100 22.545700 -13.351395
-10.330700 1.831900 7.672895
-10.330700 2.204500 7.784595
-4.547600 2.204500 7.784595
-10.330700 2.204500 7.784595
-10.330700 2.577100 7.896395
-10.330700 19.765600 7.614095
-5.965100 19.954901 7.546595
-5.728400 19.765600 7.614095
-5.965100 19.954901 7.546595
-6.189300 20.134300 7.463695
5.981800 23.447399 7.665395
10.830700 19.765600 7.614095
10.830700 2.577100 7.896395
10.830700 2.204500 7.784595
5.047600 2.204500 7.784595
10.830700 2.204500 7.784595
10.830700 1.831900 7.672895
10.830700 -2.454500 7.784595
10.830700 -20.015600 7.614095
6.465100 -20.205000 7.546595
6.228400 -20.015600 7.614095
6.465100 -20.205000 7.546595
6.689300 -20.384300 7.463695
6.898400 -20.551600 7.366295
6.898400 -23.697399 7.366295
-5.481800 -23.697399 7.665395
-6.189300 -20.384300 7.463695
-5.965100 -20.205000 7.546595
-5.728400 -20.015600 7.614095
-5.965100 -20.205000 7.546595
-10.330700 -20.015600 7.614095
-10.330700 -2.454500 7.784595
-8.240400 20.775700 -7.976205
-9.203600 21.310101 -13.351395
-7.659200 21.310101 -13.351395
-10.330700 -20.963600 6.998595
-6.913400 -20.963600 6.998595
8.740300 20.775700 -7.976205
9.703600 21.310101 -13.351395
8.159100 21.310101 -13.351395
-7.144400 -21.148399 6.704595
-7.703200 -21.595400 5.242495
-10.271500 -21.595400 5.242495
-7.144400 -21.148399 6.704595
-7.659200 -21.560200 -13.351395
-7.659200 -22.795799 -13.351395
-8.240400 -21.025801 -7.976205
-7.659200 -21.560200 -13.351395
-9.203600 -21.560200 -13.351395
8.823100 -22.091400 -9.058005
10.830700 -23.697399 10.601395
-10.330700 -23.697399 10.601395
-8.323200 -22.091400 -9.058005
-9.203600 -22.795799 -13.351395
-7.659200 -22.795799 -13.351395
-7.041100 -23.696899 6.855495
-6.398400 -23.697399 7.366295
5.981800 -23.697399 7.665395
6.898400 -23.697399 7.366295
7.541100 -23.696899 6.855495
8.159100 -22.795799 -13.351395
9.703600 -22.795799 -13.351395
4 0 1 2 3
5 4 5 6 7 8
4 0 3 9 10
4 11 12 13 14
4 9 15 16 10
18 17 18 19 20 21 22 23 24 25 26 27 28 29 30 31 32 33 34
5 35 36 37 38 39
5 40 41 42 43 44
4 45 46 47 48
30 49 50 51 52 53 54 55 56 57 58 59 60 61 62 63 64 65 66 67 68 69 70 71 72 73 74 75 76 77 78
4 79 80 81 82
6 83 84 38 37 85 86
5 87 88 89 90 91
4 92 93 36 35
26 94 95 96 97 98 99 100 101 102 103 104 105 106 107 108 109 110 111 112 113 114 115 116 117 118 119
18 120 121 122 123 124 125 126 127 128 129 130 131 132 133 134 135 136 137
4 138 139 88 87
6 140 141 142 143 144 145
4 146 147 142 148
4 149 150 151 152
5 153 154 155 156 157
18 158 159 160 161 162 163 164 165 166 167 168 169 170 171 172 173 174 175
4 176 177 178 179
13 180 181 182 183 184 185 186 187 188 189 190 191 192
4 193 194 195 196
4 197 198 199 200
3 141 148 142
3 201 202 203
4 204 205 206 207
4 208 209 210 211
4 202 201 212 213
6 214 215 201 203 216 217
4 218 219 220 221
4 222 223 224 225
5 226 227 228 229 230
3 111 98 97
3 111 97 112
3 60 77 61
3 77 76 61
4 222 225 231 232
4 233 234 235 236
5 237 13 12 238 239
4 240 241 242 243
4 244 245 246 247
5 248 249 250 251 252
3 253 254 255
3 256 155 154
5 257 258 259 260 261
5 253 255 262 263 264
4 265 266 267 268
5 269 270 271 272 273
5 265 268 274 275 276
4 277 278 93 92
4 279 280 47 46
5 281 270 269 282 283
4 284 285 286 287
5 86 85 288 4 8
4 289 246 245 290
13 291 292 293 294 295 296 297 298 299 300 301 302 303
4 304 267 266 305
18 306 307 308 309 310 311 312 313 314 315 316 317 318 319 320 321 322 323
13 324 325 326 327 328 329 330 331 332 333 334 335 336
4 337 338 339 340
4 341 342 343 344
4 345 346 347 348
4 349 350 351 352
4 353 354 355 356
4 98 111 357 358
4 359 360 361 362
3 227 363 228
3 258 257 364
56 365 366 367 368 369 370 371 372 90 89 373 16 15 374 375 376 377 304 305 378 379 380 381 382 383 230 229 228 363 227 384 385 386 387 388 389 390 391 45 48 392 393 394 395 396 397 398 399 400 401 402 258 364 257 261 260
4 61 76 403 404
4 405 406 407 408
4 409 410 411 412
4 413 414 415 416
4 417 418 419 420
5 239 238 421 422 423
4 241 240 424 425
4 139 138 426 427
56 264 263 428 429 430 431 432 433 425 424 434 435 436 437 79 82 438 39 38 84 83 439 440 441 442 443 444 157 156 155 256 154 445 446 11 14 447 448 449 450 451 452 453 176 179 454 455 456 457 359 362 458 459 255 254 253
4 231 394 393 232
5 242 460 461 462 243
4 290 452 451 289
4 386 463 464 387
4 399 283 282 400
5 42 41 465 466 467
5 468 469 470 361 360
5 248 252 471 464 463
4 80 407 406 81
4 285 284 178 177
4 280 279 472 473
5 474 470 469 475 476
13 477 478 479 480 481 482 483 484 485 486 487 488 489
6 91 90 372 371 40 44
