ply
format ascii 1.0
comment Created by Blender 2.82 (sub 7) - www.blender.org, source file: ''
element vertex 727
property float x
property float y
property float z
element face 161
property list uchar uint vertex_indices
end_header
2.845287 -21.237841 9.208700
2.845287 -21.237841 6.147900
-0.000013 -21.987040 6.147900
-0.000013 -21.987040 9.208700
-7.773613 -15.547240 9.208700
-7.773613 -15.547240 6.147900
-10.618943 -5.690640 6.147900
-10.993543 -0.000040 6.147900
-10.993543 -0.000040 7.647900
-10.993543 -0.000040 6.147900
-10.618943 5.690660 6.147900
-10.618943 5.690660 9.208700
10.993487 -0.750040 7.647900
10.993487 0.749960 7.647900
10.993487 0.749960 -5.462770
10.993487 -0.750040 -5.462770
8.308487 -16.617041 6.147900
3.041087 -22.699240 6.147900
-0.000013 -23.500040 6.147900
-3.041113 -22.699240 6.147900
-8.308513 -16.617041 6.147900
-11.349643 6.082260 6.147900
-5.875013 20.351580 6.147900
-3.041113 22.699240 6.147900
-0.000013 23.499990 6.147900
3.041087 22.699240 6.147900
5.874987 20.351580 6.147900
10.175787 11.749960 6.147900
11.749987 -0.000040 6.147900
10.618887 5.690660 6.147900
5.496787 19.041340 6.147900
2.845287 21.237850 6.147900
-0.000013 21.987040 6.147900
-2.845313 21.237850 6.147900
-5.496773 19.041340 6.147900
-10.618943 5.690660 6.147900
-7.773613 -15.547240 6.147900
-2.845313 -21.237841 6.147900
-0.000013 -21.987040 6.147900
2.845287 -21.237841 6.147900
5.496787 -19.041340 6.147900
9.520687 -10.993540 6.147900
11.349587 -6.082240 6.147900
-10.067023 -19.775539 9.413000
-10.077103 -19.795340 9.520900
-10.067023 -19.775539 9.628700
-13.596568 7.548760 9.628700
-13.596568 7.548760 9.413000
9.887787 -20.134041 9.628700
13.596587 -7.548840 9.628700
13.489887 -7.489640 9.833000
9.810187 -19.976040 9.833000
9.858287 -20.074141 9.733700
6.945287 -24.566240 9.628700
-0.000013 -23.500040 6.147900
-0.000013 -23.500040 9.208700
-3.041113 -22.699240 9.208700
-3.041113 -22.699240 6.147900
5.496787 19.041340 6.147900
5.496787 19.041340 9.208700
2.845287 21.237850 9.208700
2.845287 21.237850 6.147900
-0.000013 -23.500040 -6.087090
-0.000013 -23.500040 -5.462770
-3.041113 -22.699240 -5.462770
-3.041113 -22.699240 -6.087090
-6.945313 24.566248 9.628700
-3.529513 27.324329 9.628700
-3.533113 27.351669 9.520900
-6.952263 24.590834 9.520900
-9.897663 20.154169 9.520900
-9.887773 20.134020 9.628700
0.749987 24.786463 5.882700
0.749987 24.972603 5.232400
0.749987 25.069454 4.574600
-0.750013 25.069454 4.574600
-0.750013 24.972603 5.232400
-0.750013 24.786463 5.882700
-0.750013 23.884661 7.641200
-0.750013 23.725740 8.158200
0.749987 23.725740 8.158200
0.749987 23.884661 7.641200
13.493487 -0.750040 -9.833000
13.493487 0.749960 -9.833000
12.396687 0.749960 -6.949520
12.396687 -0.750040 -6.949520
3.529487 -27.324341 9.413000
3.533087 -27.351740 9.520900
-0.126913 -28.248541 9.520900
-0.126813 -28.220341 9.413000
-3.778203 -27.220341 9.520900
-3.774423 -27.193140 9.413000
-10.993533 0.749960 7.647900
-10.993533 0.749960 -5.462770
-11.750013 0.749960 -5.462770
-11.750013 0.749960 7.647900
3.778187 27.220320 9.520900
0.126887 28.248541 9.520900
0.126787 28.220301 9.628700
3.774387 27.193100 9.628700
-5.875013 -20.351641 -6.087090
-5.875013 -20.351641 -5.462770
-8.308513 -16.617041 -5.462770
-10.175813 -11.750040 -5.462770
-11.349643 -6.082240 -5.462770
-11.750013 -0.000040 -5.462770
-11.750013 -0.000040 -6.087090
-11.349643 -6.082240 -6.087090
-10.175813 -11.750040 -6.087090
-8.308513 -16.617041 -6.087090
-5.875013 20.351580 9.208700
-5.875013 20.351580 6.147900
-11.750013 -0.000040 6.147900
-11.750013 -0.000040 9.208700
-11.750013 0.749960 9.208700
-11.750013 -0.000040 9.208700
-11.750013 -0.000040 7.647900
-11.750013 0.749960 7.647900
-10.993533 0.749960 7.647900
-10.993533 -0.750040 7.647900
-10.993533 -0.750040 -5.462770
-10.993533 0.749960 -5.462770
-9.988033 -19.620340 9.833000
-13.489877 7.489560 9.833000
3.041087 22.699240 -6.087090
5.874987 20.351580 -6.087090
11.349587 6.082260 -6.087090
8.308487 -16.617041 -6.087090
3.041087 -22.699240 -6.087090
-0.000013 -23.500040 -6.087090
-3.041113 -22.699240 -6.087090
-8.308513 -16.617041 -6.087090
-11.349643 6.082260 -6.087090
-5.875013 20.351580 -6.087090
-3.041113 22.699240 -6.087090
-0.000013 23.499990 -6.087090
3.501887 -27.109940 9.833000
3.529487 -27.324341 9.628700
-0.750013 -24.512440 6.520800
-0.750013 -24.786440 5.882700
-0.750013 -24.972639 5.232400
-0.750013 -25.069441 4.574600
0.749987 -25.069441 4.574600
0.749987 -24.972639 5.232400
0.749987 -24.786440 5.882700
0.749987 -24.512440 6.520800
0.749987 -23.884640 7.641200
0.749987 -23.725740 8.158200
-0.750013 -23.725740 8.158200
-0.750013 -23.884640 7.641200
-2.845313 -21.237841 6.147900
-2.845313 -21.237841 9.208700
-0.750013 -22.487040 7.647900
-0.750013 -22.487040 -5.462770
-0.750013 -23.243540 -5.462770
-0.750013 -23.243540 7.647900
3.041087 22.699240 -5.462770
3.041087 22.699240 -6.087090
-0.000013 23.499990 -6.087090
-0.000013 23.499990 -5.462770
-5.875013 -20.351641 9.208700
-5.875013 -20.351641 6.147900
-12.381363 0.749960 -6.577120
-12.396753 0.749960 -6.949520
-12.396753 -0.750040 -6.949520
-12.381363 -0.750040 -6.577120
-12.393473 -0.750040 -6.204660
-13.582806 -0.750040 3.914000
-13.590644 -0.750040 4.244300
-13.575948 -0.750040 4.574600
-13.575948 0.749960 4.574600
-13.590644 0.749960 4.244300
-13.582806 0.749960 3.914000
-12.393473 0.749960 -6.204660
-10.993543 -0.750040 -5.462770
-11.750013 -0.750040 -5.462770
-11.750013 0.749960 -5.462770
-10.993543 0.749960 -5.462770
11.749987 0.749960 -5.462770
11.749987 -0.750040 -5.462770
10.993487 -0.750040 -5.462770
10.993487 0.749960 -5.462770
-3.501813 27.109921 9.833000
0.125787 27.998859 9.833000
-11.750013 -0.750040 -5.462770
-10.993533 -0.750040 -5.462770
-10.993533 -0.750040 7.647900
-11.750013 -0.750040 7.647900
11.749987 0.749960 9.208700
11.749987 0.749960 7.647900
11.749987 -0.750040 7.647900
11.749987 -0.750040 9.208700
-11.750013 -0.000040 9.208700
-11.750013 0.749960 9.208700
-12.250013 0.749960 9.208700
-12.250013 -0.750040 9.208700
-11.750013 -0.750040 9.208700
13.493487 -0.750040 -9.833000
11.993487 -0.750040 -9.833000
11.993487 0.749960 -9.833000
13.493487 0.749960 -9.833000
12.249987 -0.750040 9.208700
12.249987 0.749960 9.208700
11.749987 0.749960 9.208700
11.749987 -0.000040 9.208700
11.749987 -0.750040 9.208700
-2.845313 -21.237841 9.208700
-7.773613 -15.547240 9.208700
-10.618943 5.690660 9.208700
-5.496773 19.041340 9.208700
-2.845313 21.237850 9.208700
-0.000013 21.987040 9.208700
2.845287 21.237850 9.208700
5.496787 19.041340 9.208700
10.618887 5.690660 9.208700
7.773587 -15.547240 9.208700
2.845287 -21.237841 9.208700
-0.000013 -21.987040 9.208700
-10.175813 -11.750040 9.208700
-5.875013 -20.351641 9.208700
-3.041113 -22.699240 9.208700
-0.000013 -23.500040 9.208700
3.041087 -22.699240 9.208700
5.874987 -20.351641 9.208700
10.175787 -11.750040 9.208700
10.175787 11.749960 9.208700
7.773587 15.547180 9.208700
10.618887 5.690660 9.208700
7.773587 -15.547240 9.208700
2.845287 -21.237841 9.208700
-0.000013 -21.987040 9.208700
-2.845313 -21.237841 9.208700
-7.773613 -15.547240 9.208700
-10.618943 5.690660 9.208700
-5.496773 19.041340 9.208700
-2.845313 21.237850 9.208700
-0.000013 21.987040 9.208700
-3.041113 22.699240 9.208700
-5.875013 20.351580 9.208700
-10.175813 11.749960 9.208700
-0.000013 21.987040 6.147900
-0.000013 21.987040 9.208700
-2.845313 21.237850 9.208700
-2.845313 21.237850 6.147900
-5.875013 20.351580 -5.462770
-11.349643 6.082260 -5.462770
-8.308513 -16.617041 -5.462770
-3.041113 -22.699240 -5.462770
-0.000013 -23.500040 -5.462770
3.041087 -22.699240 -5.462770
8.308487 -16.617041 -5.462770
11.349587 6.082260 -5.462770
5.874987 20.351580 -5.462770
3.041087 22.699240 -5.462770
-0.000013 23.499990 -5.462770
-3.041113 22.699240 -5.462770
-3.774423 -27.193140 9.628700
-7.172033 -24.337139 9.520900
-0.750013 23.487040 -9.833000
-0.750013 24.987043 -9.833000
0.749987 24.987043 -9.833000
0.749987 23.487040 -9.833000
9.897687 -20.154240 9.520900
9.887787 -20.134041 9.413000
13.596587 -7.548840 9.413000
0.749987 23.874870 -6.577120
0.749987 23.890261 -6.949520
-0.750013 23.890261 -6.949520
-0.750013 23.874870 -6.577120
-0.750013 23.886980 -6.204660
-0.750013 25.076311 3.914000
-0.750013 25.084150 4.244300
0.749987 25.084150 4.244300
0.749987 25.076311 3.914000
0.749987 23.886980 -6.204660
-0.750013 -22.487040 7.647900
0.749987 -22.487040 7.647900
0.749987 -22.487040 -5.462770
-0.750013 -22.487040 -5.462770
11.349587 6.082260 9.208700
11.749987 0.749960 9.208700
11.749987 -0.000040 9.208700
-10.993543 -0.750040 -6.087090
-10.993543 0.749960 -6.087090
-11.750013 0.749960 -6.087090
-11.750013 -0.750040 -6.087090
0.126787 28.220301 9.413000
3.774387 27.193100 9.413000
3.744787 26.979719 9.208700
0.125787 27.998859 9.208700
-3.501813 27.109921 9.208700
-3.529513 27.324329 9.413000
-13.493538 0.749960 -9.833000
-13.493538 -0.750040 -9.833000
-9.810183 19.976030 9.208700
-9.858343 20.074110 9.308000
-6.945313 24.566248 9.413000
-9.988033 -19.620340 9.208700
-3.744803 -26.979740 9.208700
-11.993533 -0.750040 -9.833000
-13.493538 -0.750040 -9.833000
-13.493538 0.749960 -9.833000
-11.993533 0.749960 -9.833000
5.874987 -20.351641 -6.087090
5.874987 -20.351641 -5.462770
3.041087 -22.699240 -5.462770
3.041087 -22.699240 -6.087090
-0.126813 -28.220341 9.628700
7.773587 -15.547240 9.208700
7.773587 -15.547240 6.147900
9.520687 -10.993540 9.208700
10.618887 -5.690640 9.208700
10.993487 -0.000040 9.208700
10.618887 5.690660 9.208700
10.618887 5.690660 6.147900
10.993487 -0.000040 6.147900
10.993487 -0.000040 7.647900
10.993487 -0.000040 6.147900
10.618887 -5.690640 6.147900
9.520687 -10.993540 6.147900
-9.887773 20.134020 9.413000
-13.489877 7.489560 9.208700
10.886187 -0.750040 -7.371360
10.886187 0.749960 -7.371360
10.929387 0.749960 -7.692330
11.000287 0.749960 -8.011360
11.098887 0.749960 -8.327520
11.224887 0.749960 -8.639870
11.557287 0.749960 -9.249482
11.993487 0.749960 -9.833000
11.993487 -0.750040 -9.833000
11.557287 -0.750040 -9.249482
11.224887 -0.750040 -8.639870
11.098887 -0.750040 -8.327520
11.000287 -0.750040 -8.011360
10.929387 -0.750040 -7.692330
-5.875013 20.351580 -5.462770
-5.875013 20.351580 -6.087090
-11.750013 -0.000040 -6.087090
-11.750013 -0.000040 -5.462770
10.066987 19.775511 9.628700
10.066987 19.775511 9.413000
10.077087 19.795300 9.520900
7.171987 24.337072 9.520900
6.952287 -24.590839 9.520900
6.945287 -24.566240 9.413000
8.308487 16.617001 6.147900
5.874987 20.351580 6.147900
5.874987 20.351580 9.208700
8.308487 16.617001 9.208700
10.175787 11.749960 9.208700
11.349587 6.082260 9.208700
11.749987 -0.000040 9.208700
11.749987 -0.000040 6.147900
11.349587 6.082260 6.147900
10.175787 11.749960 6.147900
13.489887 -7.489640 9.208700
9.987987 19.620331 9.208700
10.883987 0.749960 -6.727400
10.871087 0.749960 -7.049400
10.871087 -0.750040 -7.049400
10.883987 -0.750040 -6.727400
10.924787 -0.750040 -6.406320
10.993487 -0.750040 -6.087090
10.993487 0.749960 -6.087090
10.924787 0.749960 -6.406320
13.292987 -0.750040 5.882700
13.575887 -0.750040 4.574600
13.575887 0.749960 4.574600
13.292987 0.749960 5.882700
12.391087 0.749960 7.641200
12.232187 0.749960 8.158200
12.232187 -0.750040 8.158200
12.391087 -0.750040 7.641200
-0.000013 23.499990 9.208700
-0.000013 23.499990 6.147900
-3.041113 22.699240 6.147900
-3.041113 22.699240 9.208700
9.810187 -19.976040 9.208700
9.858287 -20.074141 9.308000
3.501887 -27.109940 9.208700
-11.349643 -6.082240 9.208700
-12.250013 -0.750040 9.208700
-11.750013 -0.750040 9.208700
-11.750013 -0.000040 9.208700
-5.875013 -20.351641 9.208700
-3.041113 -22.699240 9.208700
-0.000013 -23.500040 9.208700
3.041087 -22.699240 9.208700
5.874987 -20.351641 9.208700
11.749987 -0.750040 9.208700
12.249987 -0.750040 9.208700
12.249987 0.749960 9.208700
5.874987 20.351580 9.208700
3.041087 22.699240 9.208700
-0.000013 23.499990 9.208700
-3.041113 22.699240 9.208700
-5.875013 20.351580 9.208700
-11.750013 0.749960 9.208700
-12.250013 0.749960 9.208700
-8.308513 -16.617041 9.208700
-12.186753 -13.781640 9.208700
-13.489877 7.489560 9.208700
-6.890813 24.373480 9.208700
-3.501813 27.109921 9.208700
0.125787 27.998859 9.208700
3.744787 26.979719 9.208700
9.987987 19.620331 9.208700
13.489887 -7.489640 9.208700
6.890787 -24.373541 9.208700
3.501887 -27.109940 9.208700
-0.125813 -27.998840 9.208700
-3.744803 -26.979740 9.208700
-9.988033 -19.620340 9.208700
0.749987 -23.243540 -5.462770
0.749987 -22.487040 -5.462770
0.749987 -22.487040 7.647900
0.749987 -23.243540 7.647900
-3.041113 22.699240 -6.087090
-3.041113 22.699240 -5.462770
-3.744803 -26.979740 9.833000
3.041087 -22.699240 6.147900
3.041087 -22.699240 9.208700
11.749987 -0.000040 -5.462770
11.749987 0.749960 -5.462770
11.749987 0.749960 -6.087090
11.749987 -0.000040 -6.087090
-10.886253 0.749960 -7.371360
-10.886253 -0.750040 -7.371360
-10.929373 -0.750040 -7.692330
-11.000343 -0.750040 -8.011360
-11.224893 -0.750040 -8.639870
-11.557263 -0.750040 -9.249482
-11.993533 -0.750040 -9.833000
-11.993533 0.749960 -9.833000
-11.557263 0.749960 -9.249482
-11.224893 0.749960 -8.639870
-11.000343 0.749960 -8.011360
-10.929373 0.749960 -7.692330
-0.750013 -22.379740 -7.371360
0.749987 -22.379740 -7.371360
0.749987 -23.487040 -9.833000
-0.750013 -23.487040 -9.833000
-0.125813 -27.998840 9.833000
-11.750013 0.749960 -6.087090
-11.750013 0.749960 -5.462770
-11.750013 -0.000040 -5.462770
-11.750013 -0.000040 -6.087090
5.874987 20.351580 -5.462770
5.874987 20.351580 -6.087090
-0.750013 -23.887039 -6.204660
-0.750013 -23.874941 -6.577120
-0.750013 -23.890240 -6.949520
0.749987 -23.890240 -6.949520
0.749987 -23.874941 -6.577120
0.749987 -23.887039 -6.204660
0.749987 -23.926540 -5.832950
0.749987 -23.993540 -5.462770
0.749987 -24.993139 3.255400
0.749987 -25.045940 3.584100
0.749987 -25.076340 3.914000
0.749987 -25.084141 4.244300
-0.750013 -25.084141 4.244300
-0.750013 -25.076340 3.914000
-0.750013 -25.045940 3.584100
-0.750013 -24.993139 3.255400
-0.750013 -23.993540 -5.462770
-0.750013 -23.926540 -5.832950
3.744787 26.979719 9.833000
-0.750013 22.364611 -7.049400
-0.750013 22.379761 -7.371360
0.749987 22.379761 -7.371360
0.749987 22.364611 -7.049400
0.749987 22.377480 -6.727400
0.749987 22.487040 -6.087090
-0.750013 22.487040 -6.087090
-0.750013 22.377480 -6.727400
-3.744803 -26.979740 9.833000
-0.125813 -27.998840 9.833000
3.501887 -27.109940 9.833000
6.890787 -24.373541 9.833000
13.489887 -7.489640 9.833000
9.987987 19.620331 9.833000
3.744787 26.979719 9.833000
0.125787 27.998859 9.833000
-3.501813 27.109921 9.833000
-6.890813 24.373480 9.833000
-13.489877 7.489560 9.833000
-9.988033 -19.620340 9.833000
3.041087 22.699240 6.147900
3.041087 22.699240 9.208700
-0.750013 -23.678440 8.683800
-0.750013 -23.688040 8.420500
0.749987 -23.688040 8.420500
0.749987 -23.678440 8.683800
0.749987 -23.696939 8.946900
0.749987 -23.743540 9.208700
-0.750013 -23.743540 9.208700
-0.750013 -23.696939 8.946900
10.993487 -0.750040 -6.087090
11.749987 -0.750040 -6.087090
11.749987 0.749960 -6.087090
10.993487 0.749960 -6.087090
-11.750013 0.749960 -6.087090
-13.493538 0.749960 -9.833000
-12.396753 0.749960 -6.949520
-13.575948 0.749960 4.574600
-12.232233 0.749960 8.158200
-12.250013 0.749960 9.208700
-11.750013 0.749960 9.208700
-10.993533 0.749960 -6.087090
-10.886253 0.749960 -7.371360
-11.993533 0.749960 -9.833000
2.845287 21.237850 9.208700
5.874987 20.351580 9.208700
3.041087 22.699240 9.208700
-0.000013 23.499990 9.208700
-10.993533 -0.750040 -6.087090
-11.750013 -0.750040 -6.087090
-11.750013 -0.750040 9.208700
-12.250013 -0.750040 9.208700
-12.232233 -0.750040 8.158200
-13.575948 -0.750040 4.574600
-12.396753 -0.750040 -6.949520
-13.493538 -0.750040 -9.833000
-11.993533 -0.750040 -9.833000
-10.886253 -0.750040 -7.371360
0.749987 23.678410 8.683800
0.749987 23.688021 8.420500
-0.750013 23.688021 8.420500
-0.750013 23.678410 8.683800
-0.750013 23.696930 8.946900
-0.750013 23.743521 9.208700
0.749987 23.743521 9.208700
0.749987 23.696930 8.946900
5.874987 -20.351641 6.147900
5.874987 -20.351641 9.208700
-11.750013 -0.000040 9.208700
-11.750013 -0.750040 9.208700
-11.750013 -0.750040 7.647900
-11.750013 -0.000040 7.647900
0.749987 24.987043 -9.833000
-0.750013 24.987043 -9.833000
-0.125813 -27.998840 9.208700
10.886187 -0.750040 -7.371360
11.993487 -0.750040 -9.833000
13.493487 -0.750040 -9.833000
12.396687 -0.750040 -6.949520
13.575887 -0.750040 4.574600
12.232187 -0.750040 8.158200
12.249987 -0.750040 9.208700
11.749987 -0.750040 9.208700
11.749987 -0.750040 7.647900
10.993487 -0.750040 7.647900
10.993487 -0.750040 -5.462770
11.749987 -0.750040 -5.462770
11.749987 -0.750040 -6.087090
10.993487 -0.750040 -6.087090
10.993487 -0.750040 7.647900
11.749987 -0.750040 7.647900
11.749987 0.749960 7.647900
10.993487 0.749960 7.647900
-10.993543 0.749960 7.647900
-11.750013 0.749960 7.647900
-11.750013 -0.750040 7.647900
-10.993543 -0.750040 7.647900
-13.292956 0.749960 5.882700
-13.292956 -0.750040 5.882700
-12.391153 -0.750040 7.641200
-12.232233 -0.750040 8.158200
-12.232233 0.749960 8.158200
-12.391153 0.749960 7.641200
12.249987 0.749960 9.208700
12.249987 -0.750040 9.208700
-9.810183 19.976030 9.833000
-9.858343 20.074110 9.733700
-0.750013 22.422880 -7.692330
-0.750013 22.493851 -8.011360
-0.750013 22.592449 -8.327520
-0.750013 22.718399 -8.639870
-0.750013 22.871321 -8.947497
-0.750013 23.050770 -9.249482
-0.750013 23.256210 -9.544940
-0.750013 23.487040 -9.833000
0.749987 23.487040 -9.833000
0.749987 23.256210 -9.544940
0.749987 23.050770 -9.249482
0.749987 22.871321 -8.947497
0.749987 22.718399 -8.639870
0.749987 22.592449 -8.327520
0.749987 22.493851 -8.011360
0.749987 22.422880 -7.692330
12.393487 -0.750040 -6.204660
12.381387 -0.750040 -6.577120
12.381387 0.749960 -6.577120
12.393487 0.749960 -6.204660
13.582787 0.749960 3.914000
13.582787 -0.750040 3.914000
11.749987 0.749960 -5.462770
11.749987 0.749960 7.647900
11.749987 0.749960 -6.087090
10.993487 0.749960 -5.462770
10.993487 0.749960 7.647900
12.232187 0.749960 8.158200
13.575887 0.749960 4.574600
12.396687 0.749960 -6.949520
13.493487 0.749960 -9.833000
11.993487 0.749960 -9.833000
10.886187 0.749960 -7.371360
10.993487 0.749960 -6.087090
11.749987 0.749960 9.208700
12.249987 0.749960 9.208700
-11.750013 -0.000040 -5.462770
-11.750013 -0.750040 -5.462770
-11.750013 -0.750040 -6.087090
-11.750013 -0.000040 -6.087090
0.749987 22.487040 7.647900
0.749987 22.487040 -5.462770
0.749987 23.243521 -5.462770
0.749987 23.243521 7.647900
0.749987 23.243521 -6.087090
0.749987 22.487040 -6.087090
0.749987 22.379761 -7.371360
0.749987 23.487040 -9.833000
0.749987 24.987043 -9.833000
0.749987 23.890261 -6.949520
0.749987 25.069454 4.574600
0.749987 23.725740 8.158200
0.749987 23.743521 9.208700
0.749987 23.243521 9.208700
-9.520683 10.993560 9.208700
-9.520683 10.993560 6.147900
-7.773613 15.547180 6.147900
-5.496773 19.041340 6.147900
-5.496773 19.041340 9.208700
-7.773613 15.547180 9.208700
-0.750013 23.243521 -5.462770
-0.750013 22.487040 -5.462770
-0.750013 22.487040 7.647900
-0.750013 23.243521 7.647900
-0.750013 25.069454 4.574600
-0.750013 23.890261 -6.949520
-0.750013 24.987043 -9.833000
-0.750013 23.487040 -9.833000
-0.750013 22.379761 -7.371360
-0.750013 22.487040 -6.087090
-0.750013 23.243521 -6.087090
-0.750013 23.243521 9.208700
-0.750013 23.743521 9.208700
-0.750013 23.725740 8.158200
9.987987 19.620331 9.833000
-10.993533 -0.750040 -6.087090
-10.993533 0.749960 -6.087090
0.749987 22.487040 7.647900
-0.750013 22.487040 7.647900
-0.750013 22.487040 -5.462770
0.749987 22.487040 -5.462770
10.175787 -11.750040 9.208700
8.308487 -16.617041 9.208700
8.308487 -16.617041 6.147900
10.175787 -11.750040 6.147900
11.349587 -6.082240 6.147900
11.749987 -0.000040 6.147900
11.749987 -0.000040 9.208700
11.349587 -6.082240 9.208700
-12.194523 0.749960 8.420500
-12.194523 -0.750040 8.420500
-12.184903 -0.750040 8.683800
-12.250013 -0.750040 9.208700
-12.250013 0.749960 9.208700
-12.184903 0.749960 8.683800
-0.750013 -23.243540 -6.087090
-11.750013 -0.000040 9.208700
-11.750013 -0.000040 6.147900
-0.750013 -23.743540 9.208700
-0.750013 -23.243540 9.208700
-0.750013 -22.487040 -6.087090
-0.750013 -22.379740 -7.371360
-0.750013 -23.487040 -9.833000
-0.750013 -24.987040 -9.833000
-0.750013 -23.890240 -6.949520
-0.750013 -25.069441 4.574600
-0.750013 -23.725740 8.158200
11.749987 -0.750040 -6.087090
11.749987 -0.750040 -5.462770
11.749987 -0.000040 -5.462770
11.749987 -0.000040 -6.087090
0.749987 -25.069441 4.574600
0.749987 -23.890240 -6.949520
0.749987 -24.987040 -9.833000
0.749987 -23.487040 -9.833000
0.749987 -22.379740 -7.371360
0.749987 -22.487040 -6.087090
0.749987 -23.243540 -6.087090
0.749987 -23.243540 9.208700
0.749987 -23.743540 9.208700
0.749987 -23.725740 8.158200
-0.750013 -24.987040 -9.833000
0.749987 -24.987040 -9.833000
10.175787 -11.750040 -5.462770
8.308487 -16.617041 -5.462770
8.308487 -16.617041 -6.087090
10.175787 -11.750040 -6.087090
11.349587 -6.082240 -6.087090
11.749987 -0.000040 -6.087090
11.749987 -0.000040 -5.462770
11.349587 -6.082240 -5.462770
0.749987 -23.487040 -9.833000
0.749987 -24.987040 -9.833000
-0.750013 -24.987040 -9.833000
-0.750013 -23.487040 -9.833000
0.749987 -22.364639 -7.049400
-0.750013 -22.364639 -7.049400
-0.750013 -22.377541 -6.727400
-0.750013 -22.418341 -6.406320
-0.750013 -22.487040 -6.087090
0.749987 -22.487040 -6.087090
0.749987 -22.418341 -6.406320
0.749987 -22.377541 -6.727400
8.308487 16.617001 -6.087090
8.308487 16.617001 -5.462770
10.175787 11.749960 -5.462770
11.349587 6.082260 -5.462770
11.749987 -0.000040 -5.462770
11.749987 -0.000040 -6.087090
11.349587 6.082260 -6.087090
10.175787 11.749960 -6.087090
4 0 1 2 3
8 4 5 6 7 8 9 10 11
4 12 13 14 15
27 16 17 18 19 20 21 22 23 24 25 26 27 28 29 30 31 32 33 34 35 36 37 38 39 40 41 42
5 43 44 45 46 47
6 48 49 50 51 52 53
4 54 55 56 57
4 58 59 60 61
4 62 63 64 65
6 66 67 68 69 70 71
10 72 73 74 75 76 77 78 79 80 81
4 82 83 84 85
4 86 87 88 89
4 89 88 90 91
4 92 93 94 95
4 96 97 98 99
10 100 101 102 103 104 105 106 107 108 109
4 110 111 112 113
4 114 115 116 117
4 118 119 120 121
4 67 98 97 68
4 45 122 123 46
12 124 125 126 127 128 129 130 131 132 133 134 135
5 52 51 136 137 53
12 138 139 140 141 142 143 144 145 146 147 148 149
4 150 5 4 151
4 152 153 154 155
4 156 157 158 159
4 57 56 160 161
12 162 163 164 165 166 167 168 169 170 171 172 173
4 174 175 176 177
4 178 179 180 181
4 98 67 182 183
4 184 185 186 187
4 188 189 190 191
5 192 193 194 195 196
4 197 198 199 200
4 3 2 150 151
5 201 202 203 204 205
12 206 207 208 209 210 211 212 213 214 215 216 217
24 192 218 219 220 221 222 223 224 204 225 226 227 228 229 230 231 232 233 234 235 236 237 238 239
4 240 241 242 243
12 244 245 246 247 248 249 250 251 252 253 254 255
5 90 256 45 44 257
4 258 259 260 261
5 262 263 264 49 48
12 265 266 267 268 269 270 271 75 74 272 273 274
4 275 276 277 278
3 279 280 281
4 282 283 284 285
4 286 287 288 289
4 289 290 291 286
4 292 293 164 163
5 294 295 296 291 290
4 297 298 91 43
4 299 300 301 302
4 65 64 101 100
4 303 304 305 306
4 87 137 307 88
4 97 96 287 286
4 308 309 1 0
12 310 311 312 313 314 315 316 317 318 319 309 308
6 47 320 296 295 294 321
14 322 323 324 325 326 327 328 329 330 331 332 333 334 335
4 336 337 338 339
5 340 49 264 341 342
5 96 343 342 341 287
6 344 87 86 345 263 262
4 61 60 241 240
10 346 347 348 349 350 351 352 353 354 355
4 341 264 356 357
10 358 359 323 322 360 361 362 363 364 365
6 291 296 320 70 69 68
8 366 367 368 369 370 371 372 373
4 374 375 376 377
5 378 379 345 86 380
5 343 96 99 340 342
4 381 382 383 384
35 385 386 387 388 389 281 390 391 392 280 279 393 394 395 396 397 384 398 399 382 381 400 401 402 403 404 405 406 407 408 409 410 411 412 413
4 414 415 416 417
4 159 158 418 419
4 420 122 45 256
4 421 422 55 54
4 423 424 425 426
12 427 428 429 430 431 432 433 434 435 436 437 438
4 357 288 287 341
4 439 440 441 442
4 137 136 443 307
4 444 445 446 447
4 448 449 157 156
20 450 451 452 453 454 455 456 457 458 459 460 461 142 141 462 463 464 465 466 467
4 99 98 183 468
8 469 470 471 472 473 474 475 476
12 477 478 479 480 481 482 483 484 485 486 487 488
4 348 347 489 490
10 491 492 148 147 493 494 495 496 497 498
4 499 500 501 502
3 503 95 94
11 504 505 506 507 508 509 95 503 510 511 512
4 29 28 42 41
8 237 236 513 226 225 514 515 516
11 517 518 187 519 520 521 522 523 524 525 526
3 184 187 518
4 307 443 420 256
10 527 528 80 79 529 530 531 532 533 534
4 297 43 47 321
4 535 536 422 421
4 537 538 539 540
4 541 542 267 266
6 379 378 356 264 263 345
4 380 86 89 543
14 544 545 546 547 548 549 550 551 552 553 554 555 556 557
4 558 559 560 561
4 562 563 564 565
8 566 170 169 567 568 569 570 571
4 372 371 572 573
5 574 182 67 66 575
18 471 470 576 577 578 579 580 581 582 583 584 585 586 587 588 589 590 591
10 592 593 85 84 594 595 596 368 367 597
3 598 599 600
4 599 598 601 602
4 313 59 58 314
5 91 90 257 44 43
11 603 604 605 606 607 608 609 600 599 610 611
4 612 613 614 615
4 616 617 618 619
6 87 344 262 48 53 137
3 620 619 618
11 621 622 623 624 625 626 627 628 629 619 620
8 630 11 10 631 632 633 634 635
4 377 376 111 110
4 286 291 68 97
4 636 637 638 639
11 640 641 642 643 644 645 646 639 647 648 649
5 320 47 46 71 70
4 490 489 375 374
3 636 639 646
4 650 340 99 468
4 419 418 337 336
4 651 428 427 652
4 653 654 655 656
4 243 242 634 633
10 657 658 536 535 659 660 661 662 663 664
8 665 570 569 666 667 668 669 670
4 306 305 63 62
6 71 46 123 574 575 66
3 671 155 154
4 672 673 161 160
11 674 675 155 671 676 677 678 679 680 681 682
4 683 684 685 686
11 687 688 689 690 691 692 693 417 694 695 696
3 414 417 693
4 453 452 697 698
4 88 307 256 90
4 543 89 91 298
10 699 700 304 303 701 702 703 704 705 706
4 707 708 709 710
10 711 440 439 712 713 714 715 716 717 718
10 719 449 448 720 721 722 723 724 725 726
4 340 650 50 49
4 400 385 413 401
