ply
format ascii 1.0
comment Created by Blender 2.82 (sub 7) - www.blender.org, source file: ''
element vertex 500
property float x
property float y
property float z
element face 110
property list uchar uint vertex_indices
end_header
-2.974070 -39.002899 15.000000
-5.601780 -37.823601 15.000000
-18.029280 -15.287800 15.000000
-19.002899 0.000000 15.000000
-0.000030 0.000000 15.000000
-0.000030 -39.002899 15.000000
-19.010201 15.494600 14.500000
-20.000000 0.000000 14.500000
-19.002899 0.000000 15.000000
-18.029280 15.287800 15.000000
-5.601780 37.823601 15.000000
-6.204810 38.645901 14.500000
-8.453000 27.039000 14.000000
-8.453000 27.039000 -15.000000
-0.000030 20.000010 -15.000000
-0.000030 20.000010 14.000000
-20.000000 0.000000 14.500000
-20.000000 0.000000 14.000000
-16.083410 24.580919 14.000000
-16.083410 24.580919 14.500000
-19.010201 -15.494600 14.500000
-20.000000 0.000000 14.500000
-19.002899 0.000000 15.000000
-18.029280 -15.287800 15.000000
-5.601780 -37.823601 15.000000
-6.204810 -38.645901 14.500000
-0.000030 19.000010 14.000000
-0.000030 19.000010 8.000000
-0.904230 19.752960 8.000000
-0.904230 19.752960 14.000000
18.029200 15.287800 15.000000
5.601700 37.823601 15.000000
2.974000 39.002899 15.000000
-0.000030 39.002899 15.000000
-0.000030 0.000000 15.000000
19.002899 0.000000 15.000000
-8.453000 -27.039000 -15.000000
-8.453000 -26.039000 -15.000000
-8.453000 -26.039000 14.000000
-8.453000 -27.039000 14.000000
-6.204810 38.645901 14.000000
-6.204810 38.645901 14.500000
19.010201 -15.494600 14.500000
20.000000 0.000000 14.500000
19.002899 0.000000 15.000000
18.029200 -15.287800 15.000000
5.601700 -37.823601 15.000000
6.204700 -38.645901 14.500000
-18.029280 15.287800 15.000000
-19.002899 0.000000 15.000000
-20.000000 0.000000 14.500000
-19.010201 15.494600 14.500000
-6.204810 38.645901 14.500000
-5.601780 37.823601 15.000000
3.187500 -40.000000 14.500000
3.187500 -40.000000 14.000000
6.204700 -38.645901 14.000000
6.204700 -38.645901 14.500000
-0.000030 -39.002899 15.000000
-2.974070 -39.002899 15.000000
-5.601780 -37.823601 15.000000
-6.204810 -38.645901 14.500000
-3.187550 -40.000000 14.500000
-0.000030 -40.000000 14.500000
8.452900 26.039000 -15.000000
8.452900 26.039000 14.000000
-0.000030 19.000010 14.000000
-0.000030 19.000010 -15.000000
-0.000030 19.000010 -15.000000
-0.000030 19.000010 14.000000
8.452900 26.039000 14.000000
8.452900 26.039000 -15.000000
-0.000030 20.000010 14.000000
-0.000030 20.000010 -15.000000
8.452900 27.039000 -15.000000
8.452900 27.039000 14.000000
-6.204810 -38.645901 14.000000
-16.083410 -24.580900 14.000000
-16.083410 -24.580900 14.500000
-6.204810 -38.645901 14.500000
-6.204810 -38.645901 14.500000
-6.204810 -38.645901 14.000000
-3.187550 -40.000000 14.000000
-3.187550 -40.000000 14.500000
0.904160 19.752960 14.000000
0.904160 -19.752899 14.000000
0.904160 -19.752899 8.000000
0.904160 19.752960 8.000000
19.010201 -15.494600 14.000000
20.000000 0.000000 14.000000
20.000000 0.000000 14.500000
19.010201 -15.494600 14.500000
-0.000030 40.000000 14.500000
-0.000030 40.000000 14.000000
-3.187550 40.000000 14.000000
-3.187550 40.000000 14.500000
-8.453000 -26.039000 -15.000000
-0.000030 -19.000000 -15.000000
-0.000030 -20.000000 -15.000000
-8.453000 -27.039000 -15.000000
-8.453000 -27.039000 -15.000000
-0.000030 -20.000000 -15.000000
-0.000030 -19.000000 -15.000000
-8.453000 -26.039000 -15.000000
-0.000030 19.000010 -15.000000
-0.000030 19.000010 14.000000
-8.453000 26.039000 14.000000
-8.453000 26.039000 -15.000000
8.452900 -27.039000 -15.000000
8.452900 -26.039000 -15.000000
8.452900 -26.039000 14.000000
8.452900 -27.039000 14.000000
-0.000030 19.000010 14.000000
-0.000030 19.000010 8.000000
0.904160 19.752960 8.000000
0.904160 19.752960 14.000000
-16.083410 -24.580900 14.500000
-16.083410 -24.580900 14.000000
19.010201 15.494600 14.000000
20.000000 0.000000 14.000000
20.000000 0.000000 14.500000
19.010201 15.494600 14.500000
8.452900 -26.039000 -15.000000
-0.000030 -19.000000 -15.000000
-0.000030 -20.000000 -15.000000
8.452900 -27.039000 -15.000000
-3.187550 40.000000 14.500000
-3.187550 40.000000 14.000000
-0.000030 40.000000 14.000000
-0.000030 40.000000 14.500000
-0.000030 -19.000000 8.000000
0.904160 -19.752899 8.000000
0.904160 -19.752899 14.000000
-0.000030 -19.000000 14.000000
-0.904230 -19.752899 14.000000
-0.000030 -19.000000 14.000000
-0.000030 -19.000000 8.000000
-0.904230 -19.752899 8.000000
-8.453000 26.039000 -15.000000
-0.000030 19.000010 -15.000000
-0.000030 20.000010 -15.000000
-8.453000 27.039000 -15.000000
3.187500 40.000000 14.500000
3.187500 40.000000 14.000000
6.204700 38.645901 14.000000
6.204700 38.645901 14.500000
-2.974070 39.002899 15.000000
-3.187550 40.000000 14.500000
-0.000030 40.000000 14.500000
-0.000030 39.002899 15.000000
-0.000030 -40.000000 14.000000
-0.000030 -40.000000 14.500000
6.204700 38.645901 14.000000
19.010201 15.494600 14.000000
20.000000 0.000000 14.000000
-0.000030 0.000000 14.000000
-0.000030 19.000010 14.000000
8.452900 26.039000 14.000000
8.452900 27.039000 14.000000
-0.000030 20.000010 14.000000
-0.000030 40.000000 14.000000
3.187500 40.000000 14.000000
8.452900 27.039000 -15.000000
-0.000030 20.000010 -15.000000
-0.000030 19.000010 -15.000000
8.452900 26.039000 -15.000000
6.204700 38.645901 14.500000
6.204700 38.645901 14.000000
3.187500 40.000000 14.000000
3.187500 40.000000 14.500000
-18.029280 -15.287800 15.000000
-5.601780 -37.823601 15.000000
-2.974070 -39.002899 15.000000
-0.000030 -39.002899 15.000000
-0.000030 0.000000 15.000000
-19.002899 0.000000 15.000000
0.904160 19.752960 14.000000
0.904160 19.752960 8.000000
-0.000030 19.000010 8.000000
-0.000030 19.000010 14.000000
-19.002899 0.000000 15.000000
-20.000000 0.000000 14.500000
-19.010201 -15.494600 14.500000
-18.029280 -15.287800 15.000000
-0.000030 -40.000000 14.500000
-0.000030 -40.000000 14.000000
-3.187550 -40.000000 14.000000
-3.187550 -40.000000 14.500000
-0.000030 -19.000000 -15.000000
-0.000030 -19.000000 14.000000
-8.453000 -26.039000 14.000000
-8.453000 -26.039000 -15.000000
8.452900 27.039000 14.000000
8.452900 27.039000 -15.000000
-0.000030 20.000010 -15.000000
-0.000030 20.000010 14.000000
2.974000 -39.002899 15.000000
5.601700 -37.823601 15.000000
18.029200 -15.287800 15.000000
19.002899 0.000000 15.000000
-0.000030 0.000000 15.000000
-0.000030 -39.002899 15.000000
-0.000030 20.000010 14.000000
-0.000030 20.000010 -15.000000
-8.453000 27.039000 -15.000000
-8.453000 27.039000 14.000000
-0.000030 -20.000000 14.000000
-0.000030 -20.000000 -15.000000
8.452900 -27.039000 -15.000000
8.452900 -27.039000 14.000000
8.452900 -27.039000 -15.000000
-0.000030 -20.000000 -15.000000
-0.000030 -19.000000 -15.000000
8.452900 -26.039000 -15.000000
18.029200 15.287800 15.000000
19.002899 0.000000 15.000000
20.000000 0.000000 14.500000
19.010201 15.494600 14.500000
6.204700 38.645901 14.500000
5.601700 37.823601 15.000000
6.204700 -38.645901 14.500000
6.204700 -38.645901 14.000000
3.187500 -40.000000 14.000000
3.187500 -40.000000 14.500000
-0.904230 19.752960 14.000000
-0.904230 19.752960 8.000000
-0.000030 19.000010 8.000000
-0.000030 19.000010 14.000000
0.904160 -19.752899 8.000000
-0.000030 -19.000000 8.000000
-0.904230 -19.752899 8.000000
-0.904230 19.752960 8.000000
-0.000030 19.000010 8.000000
0.904160 19.752960 8.000000
-16.083410 24.580919 14.000000
-16.083410 24.580919 14.500000
-6.204810 38.645901 14.500000
-6.204810 38.645901 14.000000
-8.453000 -26.039000 -15.000000
-8.453000 -26.039000 14.000000
-0.000030 -19.000000 14.000000
-0.000030 -19.000000 -15.000000
-0.000030 -40.000000 14.000000
-0.000030 -40.000000 14.500000
-6.204810 38.645901 14.000000
-16.083410 24.580919 14.000000
-20.000000 0.000000 14.000000
-0.000030 0.000000 14.000000
-0.000030 19.000010 14.000000
-8.453000 26.039000 14.000000
-8.453000 27.039000 14.000000
-0.000030 20.000010 14.000000
-0.000030 40.000000 14.000000
-3.187550 40.000000 14.000000
-0.000030 40.000000 14.500000
-0.000030 40.000000 14.000000
11.345400 32.868179 14.000000
16.083300 24.580919 14.000000
16.083300 24.580919 14.500000
11.345400 32.868179 14.500000
-20.000000 0.000000 14.000000
-16.083410 24.580919 14.000000
-6.204810 38.645901 14.000000
-3.187550 40.000000 14.000000
-0.000030 40.000000 14.000000
-0.000030 20.000010 14.000000
-8.453000 27.039000 14.000000
-8.453000 26.039000 14.000000
-0.000030 19.000010 14.000000
-0.000030 0.000000 14.000000
-0.000030 40.000000 14.000000
-0.000030 20.000010 14.000000
8.452900 27.039000 14.000000
8.452900 26.039000 14.000000
-0.000030 19.000010 14.000000
-0.000030 0.000000 14.000000
20.000000 0.000000 14.000000
19.010201 15.494600 14.000000
6.204700 38.645901 14.000000
3.187500 40.000000 14.000000
-19.010201 -15.494600 14.000000
-20.000000 -6.000000 14.000000
-20.000000 0.000000 14.000000
-20.000000 0.000000 14.500000
-20.000000 -6.000000 14.500000
-19.010201 -15.494600 14.500000
-8.453000 27.039000 14.000000
-8.453000 26.039000 14.000000
-8.453000 26.039000 -15.000000
-8.453000 27.039000 -15.000000
-0.904230 -19.752899 8.000000
-0.904230 19.752960 8.000000
-0.904230 19.752960 14.000000
-0.904230 -19.752899 14.000000
-0.000030 40.000000 14.500000
-3.187550 40.000000 14.500000
-2.974070 39.002899 15.000000
-0.000030 39.002899 15.000000
-0.000030 40.000000 14.000000
-0.000030 40.000000 14.500000
-5.601780 37.823601 15.000000
-18.029280 15.287800 15.000000
-19.002899 0.000000 15.000000
-0.000030 0.000000 15.000000
-0.000030 39.002899 15.000000
-2.974070 39.002899 15.000000
8.452900 27.039000 -15.000000
8.452900 26.039000 -15.000000
8.452900 26.039000 14.000000
8.452900 27.039000 14.000000
-16.083410 -24.580900 14.000000
-20.000000 0.000000 14.000000
-0.000030 0.000000 14.000000
-0.000030 -19.000000 14.000000
-8.453000 -26.039000 14.000000
-8.453000 -27.039000 14.000000
-0.000030 -20.000000 14.000000
-0.000030 -40.000000 14.000000
-3.187550 -40.000000 14.000000
-6.204810 -38.645901 14.000000
-8.453000 -27.039000 14.000000
-8.453000 -27.039000 -15.000000
-0.000030 -20.000000 -15.000000
-0.000030 -20.000000 14.000000
8.452900 26.039000 -15.000000
-0.000030 19.000010 -15.000000
-0.000030 20.000010 -15.000000
8.452900 27.039000 -15.000000
-8.453000 -27.039000 14.000000
-8.453000 -26.039000 14.000000
-8.453000 -26.039000 -15.000000
-8.453000 -27.039000 -15.000000
-3.187550 -40.000000 14.500000
-2.974070 -39.002899 15.000000
-0.000030 -39.002899 15.000000
-0.000030 -40.000000 14.500000
16.083300 -24.580900 14.500000
19.010201 -15.494600 14.500000
19.010201 -15.494600 14.000000
16.083300 -24.580900 14.000000
11.345400 -32.868099 14.000000
11.345400 -32.868099 14.500000
8.452900 27.039000 14.000000
8.452900 26.039000 14.000000
8.452900 26.039000 -15.000000
8.452900 27.039000 -15.000000
0.904160 19.752960 8.000000
-0.000030 19.000010 8.000000
-0.904230 19.752960 8.000000
-0.904230 -19.752899 8.000000
-0.000030 -19.000000 8.000000
0.904160 -19.752899 8.000000
-20.000000 0.000000 14.000000
-20.000000 0.000000 14.500000
20.000000 0.000000 14.500000
20.000000 0.000000 14.000000
-20.000000 0.000000 14.000000
-16.083410 -24.580900 14.000000
-6.204810 -38.645901 14.000000
-3.187550 -40.000000 14.000000
-0.000030 -40.000000 14.000000
-0.000030 -20.000000 14.000000
-8.453000 -27.039000 14.000000
-8.453000 -26.039000 14.000000
-0.000030 -19.000000 14.000000
-0.000030 0.000000 14.000000
-0.000030 -20.000000 14.000000
-0.000030 -20.000000 -15.000000
-8.453000 -27.039000 -15.000000
-8.453000 -27.039000 14.000000
-8.453000 27.039000 -15.000000
-8.453000 26.039000 -15.000000
-8.453000 26.039000 14.000000
-8.453000 27.039000 14.000000
-0.000030 -39.002899 15.000000
2.974000 -39.002899 15.000000
5.601700 -37.823601 15.000000
6.204700 -38.645901 14.500000
3.187500 -40.000000 14.500000
-0.000030 -40.000000 14.500000
-0.904230 -19.752899 14.000000
-0.904230 19.752960 14.000000
-0.904230 19.752960 8.000000
-0.904230 -19.752899 8.000000
18.029200 -15.287800 15.000000
19.002899 0.000000 15.000000
20.000000 0.000000 14.500000
19.010201 -15.494600 14.500000
-0.000030 -40.000000 14.500000
-0.000030 -40.000000 14.000000
-18.029280 15.287800 15.000000
-5.601780 37.823601 15.000000
-2.974070 39.002899 15.000000
-0.000030 39.002899 15.000000
-0.000030 0.000000 15.000000
-19.002899 0.000000 15.000000
-8.453000 27.039000 -15.000000
-0.000030 20.000010 -15.000000
-0.000030 19.000010 -15.000000
-8.453000 26.039000 -15.000000
-0.000030 39.002899 15.000000
2.974000 39.002899 15.000000
5.601700 37.823601 15.000000
18.029200 15.287800 15.000000
19.002899 0.000000 15.000000
-0.000030 0.000000 15.000000
-0.000030 -19.000000 -15.000000
-0.000030 -19.000000 14.000000
8.452900 -26.039000 14.000000
8.452900 -26.039000 -15.000000
16.083300 24.580919 14.500000
19.010201 15.494600 14.500000
19.010201 15.494600 14.000000
16.083300 24.580919 14.000000
11.345400 32.868179 14.000000
11.345400 32.868179 14.500000
19.010201 -15.494600 14.000000
6.204700 -38.645901 14.000000
3.187500 -40.000000 14.000000
-0.000030 -40.000000 14.000000
-0.000030 -20.000000 14.000000
8.452900 -27.039000 14.000000
8.452900 -26.039000 14.000000
-0.000030 -19.000000 14.000000
-0.000030 0.000000 14.000000
20.000000 0.000000 14.000000
5.601700 -37.823601 15.000000
2.974000 -39.002899 15.000000
-0.000030 -39.002899 15.000000
-0.000030 0.000000 15.000000
19.002899 0.000000 15.000000
18.029200 -15.287800 15.000000
-0.904230 -19.752899 8.000000
-0.000030 -19.000000 8.000000
-0.000030 -19.000000 14.000000
-0.904230 -19.752899 14.000000
19.010201 15.494600 14.500000
20.000000 0.000000 14.500000
19.002899 0.000000 15.000000
18.029200 15.287800 15.000000
5.601700 37.823601 15.000000
6.204700 38.645901 14.500000
16.083300 -24.580900 14.000000
16.083300 -24.580900 14.500000
11.345400 -32.868099 14.500000
11.345400 -32.868099 14.000000
20.000000 0.000000 14.500000
20.000000 0.000000 14.000000
-0.000030 -19.000000 14.000000
0.904160 -19.752899 14.000000
0.904160 -19.752899 8.000000
-0.000030 -19.000000 8.000000
2.974000 39.002899 15.000000
3.187500 40.000000 14.500000
-0.000030 40.000000 14.500000
-0.000030 39.002899 15.000000
-0.000030 40.000000 14.500000
3.187500 40.000000 14.500000
2.974000 39.002899 15.000000
-0.000030 39.002899 15.000000
8.452900 -26.039000 -15.000000
8.452900 -26.039000 14.000000
-0.000030 -19.000000 14.000000
-0.000030 -19.000000 -15.000000
3.187500 -40.000000 14.500000
2.974000 -39.002899 15.000000
-0.000030 -39.002899 15.000000
-0.000030 -40.000000 14.500000
0.904160 19.752960 8.000000
0.904160 -19.752899 8.000000
0.904160 -19.752899 14.000000
0.904160 19.752960 14.000000
6.204700 -38.645901 14.000000
19.010201 -15.494600 14.000000
20.000000 0.000000 14.000000
-0.000030 0.000000 14.000000
-0.000030 -19.000000 14.000000
8.452900 -26.039000 14.000000
8.452900 -27.039000 14.000000
-0.000030 -20.000000 14.000000
-0.000030 -40.000000 14.000000
3.187500 -40.000000 14.000000
8.452900 -27.039000 14.000000
8.452900 -27.039000 -15.000000
-0.000030 -20.000000 -15.000000
-0.000030 -20.000000 14.000000
-8.453000 26.039000 -15.000000
-8.453000 26.039000 14.000000
-0.000030 19.000010 14.000000
-0.000030 19.000010 -15.000000
8.452900 -27.039000 14.000000
8.452900 -26.039000 14.000000
8.452900 -26.039000 -15.000000
8.452900 -27.039000 -15.000000
-19.010201 -15.494600 14.500000
-20.000000 -6.000000 14.500000
-20.000000 0.000000 14.500000
-20.000000 0.000000 14.000000
-20.000000 -6.000000 14.000000
-19.010201 -15.494600 14.000000
6 0 1 2 3 4 5
6 6 7 8 9 10 11
4 12 13 14 15
4 16 17 18 19
6 20 21 22 23 24 25
4 26 27 28 29
6 30 31 32 33 34 35
4 36 37 38 39
4 19 18 40 41
6 42 43 44 45 46 47
6 48 49 50 51 52 53
4 54 55 56 57
6 58 59 60 61 62 63
4 64 65 66 67
4 68 69 70 71
4 72 73 74 75
4 76 77 78 79
4 80 81 82 83
4 84 85 86 87
4 88 89 90 91
4 92 93 94 95
4 96 97 98 99
4 100 101 102 103
4 104 105 106 107
4 108 109 110 111
4 112 113 114 115
4 80 116 117 81
4 118 119 120 121
4 122 123 124 125
4 126 127 128 129
4 130 131 132 133
4 134 135 136 137
4 138 139 140 141
4 142 143 144 145
6 146 53 52 147 148 149
4 83 82 150 151
10 152 153 154 155 156 157 158 159 160 161
4 162 163 164 165
4 166 167 168 169
6 170 171 172 173 174 175
4 176 177 178 179
6 180 181 182 61 60 183
4 184 185 186 187
4 188 189 190 191
4 192 193 194 195
6 196 197 198 199 200 201
4 202 203 204 205
4 206 207 208 209
4 210 211 212 213
6 214 215 216 217 218 219
4 220 221 222 223
4 224 225 226 227
6 228 229 230 231 232 233
4 234 235 236 237
4 238 239 240 241
4 223 222 242 243
10 244 245 246 247 248 249 250 251 252 253
4 254 255 143 142
8 256 257 118 121 258 259 145 144
10 260 261 262 263 264 265 266 267 268 269
10 270 271 272 273 274 275 276 277 278 279
8 280 281 282 283 284 285 78 77
4 286 287 288 289
4 290 291 292 293
6 294 295 11 10 296 297
4 169 168 298 299
6 300 301 302 303 304 305
4 306 307 308 309
10 310 311 312 313 314 315 316 317 318 319
4 320 321 322 323
4 324 325 326 327
4 328 329 330 331
6 332 25 24 333 334 335
4 187 186 76 79
8 336 337 338 339 340 221 220 341
4 342 343 344 345
6 346 347 348 349 350 351
4 352 353 235 234
4 95 94 237 236
4 337 354 355 338
10 356 357 358 359 360 361 362 363 364 365
4 366 367 368 369
4 370 371 372 373
6 374 375 376 377 378 379
4 380 381 382 383
6 384 385 386 387 377 376
4 388 389 55 54
6 390 391 392 393 394 395
4 396 397 398 399
6 400 401 402 403 404 405
4 406 407 408 409
8 410 411 412 413 414 167 166 415
10 416 417 418 419 420 421 422 423 424 425
6 426 427 428 429 430 431
4 432 433 434 435
6 436 437 438 439 440 441
8 442 88 91 443 444 57 56 445
4 411 446 447 412
4 448 449 450 451
6 452 219 218 453 454 455
6 456 457 441 440 458 459
4 460 461 462 463
4 41 40 127 126
6 464 47 46 465 466 467
4 468 469 470 471
10 472 473 474 475 476 477 478 479 480 481
4 482 483 484 485
4 486 487 488 489
4 490 491 492 493
8 494 495 496 497 498 499 117 116
