ply
format ascii 1.0
comment Created by Blender 2.82 (sub 7) - www.blender.org, source file: ''
element vertex 280
property float x
property float y
property float z
element face 64
property list uchar uint vertex_indices
end_header
0.000000 -36.000000 12.500000
14.000000 -36.000000 12.500000
14.000000 0.000000 12.500000
20.000000 0.000000 12.500000
20.000000 -42.000000 12.500000
0.000000 -42.000000 12.500000
0.000000 -42.000000 15.000000
0.000000 0.000000 15.000000
-20.000000 0.000000 15.000000
-20.000000 -42.000000 15.000000
20.000000 -42.000000 15.000000
0.000000 -42.000000 15.000000
0.000000 -42.000000 12.500000
20.000000 -42.000000 12.500000
-11.639490 -34.000000 -5.626710
0.000000 -34.000000 -5.626710
0.000000 -34.000000 -8.643600
-11.755520 -34.000000 -8.643600
20.000000 0.000000 15.000000
0.000000 0.000000 15.000000
0.000000 -42.000000 15.000000
20.000000 -42.000000 15.000000
-12.000000 33.000000 -15.000000
-15.000000 33.000000 -15.000000
-15.000000 36.000000 -15.000000
-12.000000 36.000000 -15.000000
0.000000 42.000000 12.500000
0.000000 42.000000 15.000000
20.000000 42.000000 15.000000
20.000000 42.000000 12.500000
-11.755520 35.500000 -8.643600
-11.639490 35.500000 -5.626710
0.000000 35.500000 -5.626710
0.000000 35.500000 -8.643600
-15.000000 33.000000 -15.000000
-12.000000 33.000000 -15.000000
-11.000000 33.000000 11.000000
-14.000000 33.000000 11.000000
0.000000 0.000000 11.000000
14.000000 0.000000 11.000000
14.000000 -33.000000 11.000000
11.000000 -33.000000 11.000000
11.000000 -36.000000 11.000000
0.000000 -36.000000 11.000000
-11.000000 -36.000000 11.000000
0.000000 -36.000000 11.000000
0.000000 -36.000000 12.500000
-14.000000 -36.000000 12.500000
-15.000000 -36.000000 -15.000000
-12.000000 -36.000000 -15.000000
-11.639490 -35.500000 -5.626710
0.000000 -35.500000 -5.626710
0.000000 -34.000000 -5.626710
-11.639490 -34.000000 -5.626710
-14.000000 0.000000 11.000000
-14.000000 -36.000000 11.000000
-14.000000 -36.000000 12.500000
-14.000000 0.000000 12.500000
0.000000 36.000000 11.000000
11.000000 36.000000 11.000000
11.000000 33.000000 11.000000
14.000000 33.000000 11.000000
14.000000 0.000000 11.000000
0.000000 0.000000 11.000000
-11.639490 -35.500000 -5.626710
-11.639490 -34.000000 -5.626710
-11.755520 -34.000000 -8.643600
-12.000000 -33.000000 -15.000000
-11.000000 -33.000000 11.000000
-11.000000 -36.000000 11.000000
-12.000000 -36.000000 -15.000000
-11.755520 -35.500000 -8.643600
14.000000 33.000000 11.000000
11.000000 33.000000 11.000000
12.000000 33.000000 -15.000000
15.000000 33.000000 -15.000000
-20.000000 -42.000000 15.000000
-20.000000 0.000000 15.000000
-20.000000 0.000000 12.500000
-20.000000 -42.000000 12.500000
20.000000 -42.000000 12.500000
20.000000 0.000000 12.500000
20.000000 0.000000 15.000000
20.000000 -42.000000 15.000000
-11.755520 34.000000 -8.643600
0.000000 34.000000 -8.643600
0.000000 34.000000 -5.626710
-11.639490 34.000000 -5.626710
0.000000 -42.000000 12.500000
0.000000 -42.000000 15.000000
-20.000000 -42.000000 15.000000
-20.000000 -42.000000 12.500000
-20.000000 0.000000 15.000000
0.000000 0.000000 15.000000
0.000000 42.000000 15.000000
-20.000000 42.000000 15.000000
12.000000 -33.000000 -15.000000
15.000000 -33.000000 -15.000000
15.000000 -36.000000 -15.000000
12.000000 -36.000000 -15.000000
15.000000 -33.000000 -15.000000
12.000000 -33.000000 -15.000000
11.000000 -33.000000 11.000000
14.000000 -33.000000 11.000000
-14.000000 36.000000 12.500000
0.000000 36.000000 12.500000
0.000000 36.000000 11.000000
-11.000000 36.000000 11.000000
-12.000000 36.000000 -15.000000
-15.000000 36.000000 -15.000000
-12.000000 -36.000000 -15.000000
-15.000000 -36.000000 -15.000000
-15.000000 -33.000000 -15.000000
-12.000000 -33.000000 -15.000000
14.000000 36.000000 11.000000
14.000000 33.000000 11.000000
15.000000 33.000000 -15.000000
15.000000 36.000000 -15.000000
0.000000 -34.000000 -8.643600
11.755500 -34.000000 -8.643600
11.755500 -35.500000 -8.643600
0.000000 -35.500000 -8.643600
-11.755520 34.000000 -8.643600
-11.639490 34.000000 -5.626710
-11.639490 35.500000 -5.626710
-11.755520 35.500000 -8.643600
-12.000000 36.000000 -15.000000
-11.000000 36.000000 11.000000
-11.000000 33.000000 11.000000
-12.000000 33.000000 -15.000000
0.000000 34.000000 -8.643600
-11.755520 34.000000 -8.643600
-11.755520 35.500000 -8.643600
0.000000 35.500000 -8.643600
11.755500 -34.000000 -8.643600
0.000000 -34.000000 -8.643600
0.000000 -34.000000 -5.626710
11.639500 -34.000000 -5.626710
11.639500 -34.000000 -5.626710
0.000000 -34.000000 -5.626710
0.000000 -35.500000 -5.626710
11.639500 -35.500000 -5.626710
-14.000000 -33.000000 11.000000
-11.000000 -33.000000 11.000000
-12.000000 -33.000000 -15.000000
-15.000000 -33.000000 -15.000000
-20.000000 42.000000 12.500000
-20.000000 0.000000 12.500000
-20.000000 0.000000 15.000000
-20.000000 42.000000 15.000000
0.000000 -35.500000 -8.643600
0.000000 -35.500000 -5.626710
-11.639490 -35.500000 -5.626710
-11.755520 -35.500000 -8.643600
14.000000 -36.000000 12.500000
0.000000 -36.000000 12.500000
0.000000 -36.000000 11.000000
11.000000 -36.000000 11.000000
12.000000 -36.000000 -15.000000
15.000000 -36.000000 -15.000000
0.000000 42.000000 15.000000
0.000000 42.000000 12.500000
-20.000000 42.000000 12.500000
-20.000000 42.000000 15.000000
14.000000 -36.000000 11.000000
14.000000 0.000000 11.000000
14.000000 0.000000 12.500000
14.000000 -36.000000 12.500000
15.000000 -36.000000 -15.000000
15.000000 -33.000000 -15.000000
14.000000 -33.000000 11.000000
14.000000 -36.000000 11.000000
11.755500 -34.000000 -8.643600
11.639500 -34.000000 -5.626710
11.639500 -35.500000 -5.626710
11.755500 -35.500000 -8.643600
12.000000 -36.000000 -15.000000
11.000000 -36.000000 11.000000
11.000000 -33.000000 11.000000
12.000000 -33.000000 -15.000000
-14.000000 0.000000 12.500000
-20.000000 0.000000 12.500000
-20.000000 42.000000 12.500000
0.000000 42.000000 12.500000
0.000000 36.000000 12.500000
-14.000000 36.000000 12.500000
0.000000 35.500000 -8.643600
11.755500 35.500000 -8.643600
11.755500 34.000000 -8.643600
0.000000 34.000000 -8.643600
0.000000 42.000000 15.000000
0.000000 0.000000 15.000000
20.000000 0.000000 15.000000
20.000000 42.000000 15.000000
11.639500 34.000000 -5.626710
0.000000 34.000000 -5.626710
0.000000 34.000000 -8.643600
11.755500 34.000000 -8.643600
0.000000 35.500000 -8.643600
0.000000 35.500000 -5.626710
11.639500 35.500000 -5.626710
11.755500 35.500000 -8.643600
20.000000 42.000000 15.000000
20.000000 0.000000 15.000000
20.000000 0.000000 12.500000
20.000000 42.000000 12.500000
-14.000000 0.000000 11.000000
0.000000 0.000000 11.000000
0.000000 -36.000000 11.000000
-11.000000 -36.000000 11.000000
-11.000000 -33.000000 11.000000
-14.000000 -33.000000 11.000000
0.000000 -35.500000 -8.643600
-11.755520 -35.500000 -8.643600
-11.755520 -34.000000 -8.643600
0.000000 -34.000000 -8.643600
-14.000000 -36.000000 11.000000
-14.000000 -33.000000 11.000000
-15.000000 -33.000000 -15.000000
-15.000000 -36.000000 -15.000000
11.639500 35.500000 -5.626710
0.000000 35.500000 -5.626710
0.000000 34.000000 -5.626710
11.639500 34.000000 -5.626710
-14.000000 0.000000 11.000000
-14.000000 0.000000 12.500000
-14.000000 36.000000 12.500000
-14.000000 36.000000 11.000000
0.000000 0.000000 11.000000
-14.000000 0.000000 11.000000
-14.000000 33.000000 11.000000
-11.000000 33.000000 11.000000
-11.000000 36.000000 11.000000
0.000000 36.000000 11.000000
20.000000 42.000000 12.500000
20.000000 0.000000 12.500000
14.000000 0.000000 12.500000
14.000000 36.000000 12.500000
0.000000 36.000000 12.500000
0.000000 42.000000 12.500000
14.000000 36.000000 12.500000
15.000000 36.000000 -15.000000
12.000000 36.000000 -15.000000
11.000000 36.000000 11.000000
0.000000 36.000000 11.000000
0.000000 36.000000 12.500000
14.000000 36.000000 12.500000
14.000000 0.000000 12.500000
14.000000 0.000000 11.000000
14.000000 36.000000 11.000000
-15.000000 36.000000 -15.000000
-15.000000 33.000000 -15.000000
-14.000000 33.000000 11.000000
-14.000000 36.000000 11.000000
-11.639490 34.000000 -5.626710
0.000000 34.000000 -5.626710
0.000000 35.500000 -5.626710
-11.639490 35.500000 -5.626710
-14.000000 -36.000000 12.500000
0.000000 -36.000000 12.500000
0.000000 -42.000000 12.500000
-20.000000 -42.000000 12.500000
-20.000000 0.000000 12.500000
-14.000000 0.000000 12.500000
11.755500 34.000000 -8.643600
11.755500 35.500000 -8.643600
11.639500 35.500000 -5.626710
11.000000 36.000000 11.000000
12.000000 36.000000 -15.000000
12.000000 33.000000 -15.000000
11.755500 -35.500000 -8.643600
11.639500 -35.500000 -5.626710
0.000000 -35.500000 -5.626710
0.000000 -35.500000 -8.643600
11.639500 34.000000 -5.626710
11.000000 33.000000 11.000000
12.000000 36.000000 -15.000000
15.000000 36.000000 -15.000000
15.000000 33.000000 -15.000000
12.000000 33.000000 -15.000000
6 0 1 2 3 4 5
4 6 7 8 9
4 10 11 12 13
4 14 15 16 17
4 18 19 20 21
4 22 23 24 25
4 26 27 28 29
4 30 31 32 33
4 34 35 36 37
6 38 39 40 41 42 43
6 44 45 46 47 48 49
4 50 51 52 53
4 54 55 56 57
6 58 59 60 61 62 63
8 64 65 66 67 68 69 70 71
4 72 73 74 75
4 76 77 78 79
4 80 81 82 83
4 84 85 86 87
4 88 89 90 91
4 92 93 94 95
4 96 97 98 99
4 100 101 102 103
6 104 105 106 107 108 109
4 110 111 112 113
4 114 115 116 117
4 71 70 67 66
4 118 119 120 121
8 122 123 124 125 126 127 128 129
4 130 131 132 133
4 134 135 136 137
4 138 139 140 141
4 142 143 144 145
4 146 147 148 149
4 150 151 152 153
6 154 155 156 157 158 159
4 160 161 162 163
4 164 165 166 167
4 168 169 170 171
8 172 173 174 175 176 177 178 179
4 172 179 176 175
6 180 181 182 183 184 185
4 186 187 188 189
4 190 191 192 193
4 194 195 196 197
4 198 199 200 201
4 202 203 204 205
6 206 207 208 209 210 211
4 212 213 214 215
4 216 217 218 219
4 220 221 222 223
4 224 225 226 227
6 228 229 230 231 232 233
6 234 235 236 237 238 239
6 240 241 242 243 244 245
4 246 247 248 249
4 250 251 252 253
4 254 255 256 257
6 258 259 260 261 262 263
6 264 265 266 267 268 269
4 270 271 272 273
6 267 266 274 264 269 275
4 276 277 278 279
4 122 129 126 125
