ply
format ascii 1.0
comment Created by Blender 2.82 (sub 7) - www.blender.org, source file: ''
element vertex 488
property float x
property float y
property float z
element face 145
property list uchar uint vertex_indices
end_header
-11.916270 -19.687500 -7.416266
-11.916270 -19.687500 6.000000
-12.000000 -19.375000 6.000000
-12.000000 -19.375000 -7.500000
-10.833730 -19.062500 6.000000
-10.750000 -19.375000 6.000000
-10.750000 -19.375000 -6.250000
-10.833730 -19.062500 -6.333730
-10.833730 19.687500 -6.333730
10.833700 19.687500 -6.333730
11.062500 19.916269 -6.562500
-11.062500 19.916269 -6.562500
-10.750000 19.375000 -6.250000
-10.750000 19.375000 6.000000
-10.833730 19.062500 6.000000
-10.833730 19.062500 -6.333730
11.062500 -19.916300 6.000000
10.833700 -19.687500 6.000000
10.833700 -19.687500 -6.333730
11.062500 -19.916300 -6.562500
11.916300 -19.687500 -7.416266
-12.000000 -19.375000 -7.500000
12.000000 -19.375000 -7.500000
-1.000000 -16.250000 0.718750
-1.000000 16.250000 0.718750
-1.000000 16.250000 -2.375000
-1.000000 -16.250000 -2.375000
13.750000 -16.500000 0.718750
13.750000 -18.468800 0.718750
14.000000 -18.468800 0.718750
14.000000 18.468750 0.718750
13.750000 18.468750 0.718750
13.750000 16.500000 0.718750
13.750000 16.250000 0.718750
13.750000 -16.250000 0.718750
1.000000 -16.250000 0.718750
1.000000 16.250000 0.718750
0.750000 -16.500000 0.718750
-11.375000 18.750000 -6.875000
-11.375000 18.750000 6.000000
-11.687500 18.833731 6.000000
-11.687500 18.833731 -7.187500
11.916300 19.062500 -7.416266
11.916300 19.062500 6.000000
11.687500 18.833731 6.000000
11.687500 18.833731 -7.187500
11.916300 -19.687500 6.000000
11.687500 -19.916300 6.000000
11.687500 -19.916300 -7.187500
-0.750000 -16.500000 -2.625000
-0.750000 -16.500000 0.718750
-13.750000 -16.500000 0.718750
-13.750000 -16.500000 -2.625000
-11.375000 -20.000000 -3.250000
-11.062500 -19.916300 -3.250000
-10.833730 -19.687500 -3.250000
-10.750000 -19.375000 -3.250000
-10.833730 -19.062500 -3.250000
-11.062500 -18.833700 -3.250000
-11.375000 -18.750000 -3.250000
-14.000000 -18.500000 -3.250000
-13.750000 -18.500000 -3.250000
-13.750000 -2.000000 -3.250000
-13.500000 -2.000000 -3.250000
-13.500000 2.000000 -3.250000
13.500000 2.000000 -3.250000
13.500000 -2.000000 -3.250000
13.750000 -2.000000 -3.250000
13.750000 -18.500000 -3.250000
11.375000 -18.750000 -3.250000
11.062500 -18.833700 -3.250000
10.833700 -19.062500 -3.250000
10.750000 -19.375000 -3.250000
10.833700 -19.687500 -3.250000
11.062500 -19.916300 -3.250000
11.375000 -20.000000 -3.250000
11.687500 -19.916300 -3.250000
11.916300 -19.687500 -3.250000
12.000000 -19.375000 -3.250000
14.000000 -23.000000 -3.250000
-14.000000 -23.000000 -3.250000
-11.916270 -19.687500 -3.250000
-11.687500 -19.916300 -3.250000
-11.916270 -19.062500 6.000000
-11.687500 -18.833700 6.000000
-11.687500 -18.833700 -7.187500
-11.916270 -19.062500 -7.416266
12.000000 19.375000 6.000000
12.000000 19.375000 -7.500000
14.000000 18.468750 0.718750
14.000000 18.468750 -3.250000
13.750000 18.468750 -3.250000
13.750000 18.468750 0.718750
14.000000 -18.468800 -3.250000
14.000000 -18.468800 0.718750
13.750000 -18.468800 0.718750
13.750000 -18.468800 -3.250000
14.000000 23.000000 7.500000
14.000000 -23.000000 7.500000
14.000000 -23.000000 6.000000
14.000000 23.000000 6.000000
-10.833730 -19.687500 -6.333730
10.750000 -19.375000 -6.250000
-10.750000 -19.375000 -6.250000
11.687500 -18.833700 -7.187500
11.687500 -18.833700 6.000000
11.916300 -19.062500 6.000000
11.916300 -19.062500 -7.416266
11.916300 19.687500 -7.416266
-11.916270 19.687500 -7.416266
-11.687500 19.916269 -7.187500
11.687500 19.916269 -7.187500
11.375000 18.750000 6.000000
11.375000 18.750000 -6.875000
13.750000 18.500000 -2.750000
13.750000 2.000000 -2.750000
13.750000 2.000000 -3.250000
13.750000 18.500000 -3.250000
11.375000 -20.000000 6.000000
11.375000 -20.000000 -6.875000
-13.750000 16.250000 0.718750
-13.750000 -16.250000 0.718750
-13.750000 -16.250000 -2.375000
-13.750000 16.250000 -2.375000
-13.500000 -2.000000 -2.750000
-13.500000 -2.000000 -3.250000
-13.750000 -2.000000 -3.250000
-13.750000 -2.000000 -2.750000
-11.375000 20.000000 6.000000
-11.375000 20.000000 -6.875000
-11.687500 19.916269 6.000000
-13.500000 -2.000000 -2.750000
-13.500000 2.000000 -2.750000
-13.500000 2.000000 -3.250000
-13.500000 -2.000000 -3.250000
-11.916270 19.687500 6.000000
-10.833730 19.687500 6.000000
-11.062500 19.916269 6.000000
-11.062500 18.833731 1.500000
11.062500 18.833731 1.500000
10.833700 19.062500 1.500000
10.750000 19.375000 1.500000
10.833700 19.687500 1.500000
11.062500 19.916269 1.500000
11.375000 20.000000 1.500000
11.687500 19.916269 1.500000
11.916300 19.687500 1.500000
12.000000 19.375000 1.500000
14.000000 23.000000 1.500000
-14.000000 23.000000 1.500000
-14.000000 -23.000000 1.500000
-11.687500 -19.916300 1.500000
-11.916270 -19.687500 1.500000
-12.000000 -19.375000 1.500000
-11.916270 -19.062500 1.500000
-11.687500 -18.833700 1.500000
-11.375000 -18.750000 1.500000
-11.062500 -18.833700 1.500000
-10.833730 -19.062500 1.500000
-10.750000 -19.375000 1.500000
-10.833730 -19.687500 1.500000
10.750000 -19.375000 1.500000
10.833700 -19.062500 1.500000
11.062500 -18.833700 1.500000
11.375000 -18.750000 1.500000
11.687500 -18.833700 1.500000
11.916300 -19.062500 1.500000
12.000000 -19.375000 1.500000
11.916300 -19.687500 1.500000
11.687500 -19.916300 1.500000
11.375000 -20.000000 1.500000
14.000000 -23.000000 1.500000
11.916300 19.062500 1.500000
11.687500 18.833731 1.500000
11.375000 18.750000 1.500000
-11.375000 18.750000 1.500000
-11.687500 18.833731 1.500000
-11.916270 19.062500 1.500000
-12.000000 19.375000 1.500000
-11.916270 19.687500 1.500000
-11.687500 19.916269 1.500000
-11.375000 20.000000 1.500000
-11.062500 19.916269 1.500000
-10.833730 19.687500 1.500000
-10.750000 19.375000 1.500000
-10.833730 19.062500 1.500000
-10.750000 19.375000 -6.250000
10.750000 19.375000 -6.250000
-11.916270 19.062500 6.000000
-11.916270 19.062500 -7.416266
10.833700 19.062500 -6.333730
14.000000 -23.000000 -3.250000
14.000000 -23.000000 1.500000
-14.000000 -23.000000 1.500000
-14.000000 -23.000000 -3.250000
11.687500 19.916269 6.000000
11.916300 19.687500 6.000000
-11.687500 -19.916300 -7.187500
-11.687500 -19.916300 6.000000
-11.062500 18.833731 6.000000
-11.062500 18.833731 -6.562500
11.375000 20.000000 6.000000
11.375000 20.000000 -6.875000
11.062500 19.916269 6.000000
-0.750000 16.500000 0.718750
-0.750000 -16.500000 0.718750
-0.750000 -16.500000 -2.625000
-0.750000 16.500000 -2.625000
10.833700 19.062500 6.000000
10.750000 19.375000 6.000000
10.750000 19.375000 -6.250000
10.750000 -19.375000 6.000000
10.750000 -19.375000 -6.250000
-11.062500 -19.916300 -6.562500
-11.062500 -19.916300 6.000000
-11.375000 -20.000000 6.000000
-11.375000 -20.000000 -6.875000
11.062500 18.833731 -6.562500
14.000000 23.000000 1.500000
14.000000 23.000000 -3.250000
-14.000000 23.000000 -3.250000
-14.000000 23.000000 1.500000
-13.500000 2.000000 -3.250000
-13.500000 2.000000 -2.750000
-13.750000 2.000000 -2.750000
-13.750000 2.000000 -3.250000
11.062500 18.833731 6.000000
-12.000000 19.375000 6.000000
-12.000000 19.375000 -7.500000
11.375000 -18.750000 6.000000
11.375000 -18.750000 -6.875000
11.062500 -18.833700 -6.562500
11.062500 -18.833700 6.000000
13.750000 -2.000000 -2.750000
13.750000 -18.500000 -2.750000
13.750000 -18.500000 -3.250000
13.750000 -2.000000 -3.250000
-11.062500 -18.833700 6.000000
-11.062500 -18.833700 -6.562500
-11.375000 -18.750000 -6.875000
-11.375000 -18.750000 6.000000
10.833700 19.687500 6.000000
14.000000 23.000000 7.500000
14.000000 23.000000 6.000000
-14.000000 23.000000 6.000000
-14.000000 23.000000 7.500000
12.000000 19.375000 -7.500000
-12.000000 19.375000 -7.500000
13.750000 16.250000 -2.375000
13.750000 16.250000 0.718750
1.000000 16.250000 0.718750
1.000000 16.250000 -2.375000
12.000000 -19.375000 6.000000
12.000000 -19.375000 -7.500000
13.750000 16.250000 -2.375000
1.000000 16.250000 -2.375000
1.000000 -16.250000 -2.375000
13.750000 -16.250000 -2.375000
0.750000 16.500000 0.718750
-13.750000 2.000000 -3.250000
13.750000 2.000000 -3.250000
-14.000000 -23.000000 7.500000
-14.000000 23.000000 7.500000
-14.000000 23.000000 6.000000
-14.000000 -23.000000 6.000000
-1.000000 16.250000 -2.375000
-1.000000 16.250000 0.718750
-13.750000 16.250000 0.718750
-13.750000 16.250000 -2.375000
13.750000 -16.250000 0.718750
13.750000 -16.250000 -2.375000
1.000000 -16.250000 -2.375000
1.000000 -16.250000 0.718750
-14.000000 18.500000 -3.250000
14.000000 18.500000 -3.250000
13.750000 18.500000 -3.250000
-13.750000 18.500000 -3.250000
14.000000 -23.000000 6.000000
-14.000000 -23.000000 6.000000
-14.000000 23.000000 6.000000
14.000000 23.000000 6.000000
11.375000 18.750000 -3.250000
11.687500 18.833731 -3.250000
11.916300 19.062500 -3.250000
12.000000 19.375000 -3.250000
11.916300 19.687500 -3.250000
11.687500 19.916269 -3.250000
11.375000 20.000000 -3.250000
11.062500 19.916269 -3.250000
10.833700 19.687500 -3.250000
10.750000 19.375000 -3.250000
10.833700 19.062500 -3.250000
-10.833730 19.062500 -3.250000
-10.750000 19.375000 -3.250000
-10.833730 19.687500 -3.250000
-11.062500 19.916269 -3.250000
-11.375000 20.000000 -3.250000
-11.687500 19.916269 -3.250000
-11.916270 19.687500 -3.250000
-12.000000 19.375000 -3.250000
-11.916270 19.062500 -3.250000
-11.687500 18.833731 -3.250000
-11.375000 18.750000 -3.250000
-14.000000 23.000000 -3.250000
14.000000 23.000000 -3.250000
10.833700 -19.062500 -6.333730
10.833700 -19.062500 6.000000
14.000000 -23.000000 6.000000
14.000000 -23.000000 7.500000
-14.000000 -23.000000 7.500000
-14.000000 -23.000000 6.000000
-13.750000 -18.500000 -3.250000
-14.000000 -18.500000 -3.250000
-14.000000 -18.500000 0.750000
14.000000 -18.500000 0.750000
14.000000 -18.500000 -3.250000
13.750000 -18.500000 -3.250000
13.750000 -18.500000 -2.750000
-13.750000 -18.500000 -2.750000
-13.750000 18.500000 -3.250000
-13.750000 18.500000 -2.750000
13.750000 18.500000 -2.750000
13.750000 18.500000 -3.250000
14.000000 18.500000 -3.250000
14.000000 18.500000 0.750000
-14.000000 18.500000 0.750000
-14.000000 18.500000 -3.250000
14.000000 -18.500000 0.750000
-14.000000 -18.500000 0.750000
-14.000000 18.500000 0.750000
14.000000 18.500000 0.750000
-10.833730 -19.687500 6.000000
11.062500 -19.916300 1.500000
10.833700 -19.687500 1.500000
-11.062500 -19.916300 1.500000
-11.375000 -20.000000 1.500000
-14.000000 -23.000000 7.500000
14.000000 -23.000000 7.500000
14.000000 23.000000 7.500000
-14.000000 23.000000 7.500000
-13.750000 2.000000 -2.750000
-13.750000 18.500000 -2.750000
-13.750000 18.500000 -3.250000
-13.750000 2.000000 -3.250000
-14.000000 -23.000000 1.500000
-14.000000 23.000000 1.500000
-14.000000 23.000000 -3.250000
-14.000000 18.500000 -3.250000
-14.000000 18.500000 0.750000
-14.000000 -18.500000 0.750000
-14.000000 -18.500000 -3.250000
-14.000000 -23.000000 -3.250000
14.000000 23.000000 1.500000
14.000000 -23.000000 1.500000
14.000000 -23.000000 -3.250000
14.000000 -18.500000 -3.250000
14.000000 -18.500000 0.750000
14.000000 18.500000 0.750000
14.000000 18.500000 -3.250000
14.000000 23.000000 -3.250000
-13.750000 -18.500000 -2.750000
-13.750000 -2.000000 -2.750000
-13.750000 -2.000000 -3.250000
-13.750000 -18.500000 -3.250000
-1.000000 -16.250000 0.718750
-1.000000 -16.250000 -2.375000
-13.750000 -16.250000 -2.375000
-13.750000 -16.250000 0.718750
14.000000 -18.500000 -3.250000
11.916300 -19.062500 -3.250000
11.687500 -18.833700 -3.250000
13.750000 -2.000000 -2.750000
13.750000 -2.000000 -3.250000
13.500000 -2.000000 -3.250000
13.500000 -2.000000 -2.750000
-12.000000 -19.375000 -3.250000
-11.687500 -18.833700 -3.250000
-11.916270 -19.062500 -3.250000
13.500000 2.000000 -2.750000
13.500000 -2.000000 -2.750000
13.500000 -2.000000 -3.250000
13.500000 2.000000 -3.250000
13.750000 2.000000 -3.250000
13.750000 2.000000 -2.750000
13.500000 2.000000 -2.750000
13.500000 2.000000 -3.250000
-13.750000 -18.500000 -2.750000
13.750000 -18.500000 -2.750000
13.750000 -2.000000 -2.750000
13.500000 -2.000000 -2.750000
13.500000 2.000000 -2.750000
-13.500000 2.000000 -2.750000
-13.500000 -2.000000 -2.750000
-13.750000 -2.000000 -2.750000
13.750000 2.000000 -2.750000
-13.750000 2.000000 -2.750000
-14.000000 -18.468800 0.718750
-14.000000 18.468750 0.718750
-14.000000 18.468750 -3.250000
-14.000000 -18.468800 -3.250000
13.750000 18.500000 -2.750000
-13.750000 18.500000 -2.750000
-14.000000 -18.468800 0.718750
-13.750000 -18.468800 0.718750
-13.750000 -16.500000 0.718750
-0.750000 -16.500000 0.718750
-1.000000 -16.250000 0.718750
-13.750000 -16.250000 0.718750
-13.750000 16.250000 0.718750
-13.750000 18.468750 0.718750
-13.750000 16.500000 0.718750
-13.750000 16.500000 -2.625000
-13.750000 -16.500000 -2.625000
-13.750000 -16.500000 0.718750
-13.750000 -18.468800 0.718750
-13.750000 -18.468800 -3.250000
-13.750000 18.468750 -3.250000
-0.750000 16.500000 0.718750
-13.750000 16.500000 0.718750
-13.750000 18.468750 0.718750
-14.000000 18.468750 0.718750
-1.000000 16.250000 0.718750
-13.750000 18.468750 0.718750
-13.750000 18.468750 -3.250000
-14.000000 18.468750 -3.250000
-14.000000 18.468750 0.718750
-13.750000 -18.468800 -3.250000
-14.000000 -18.468800 -3.250000
-14.000000 18.468750 -3.250000
-13.750000 18.468750 -3.250000
-0.750000 -16.500000 -2.625000
-13.750000 -16.500000 -2.625000
-13.750000 16.500000 -2.625000
-0.750000 16.500000 -2.625000
11.062500 18.833731 -3.250000
-11.062500 18.833731 -3.250000
-13.750000 -18.468800 -3.250000
-13.750000 -18.468800 0.718750
-14.000000 -18.468800 0.718750
-14.000000 -18.468800 -3.250000
-0.750000 16.500000 0.718750
-0.750000 16.500000 -2.625000
-13.750000 16.500000 -2.625000
-13.750000 16.500000 0.718750
-13.750000 -16.250000 -2.375000
-1.000000 -16.250000 -2.375000
-1.000000 16.250000 -2.375000
-13.750000 16.250000 -2.375000
0.750000 16.500000 -2.625000
0.750000 -16.500000 -2.625000
0.750000 -16.500000 0.718750
0.750000 16.500000 0.718750
13.750000 -18.468800 -3.250000
13.750000 -18.468800 0.718750
13.750000 -16.500000 0.718750
13.750000 -16.500000 -2.625000
13.750000 16.500000 -2.625000
13.750000 16.500000 0.718750
13.750000 18.468750 0.718750
13.750000 18.468750 -3.250000
13.750000 -16.500000 -2.625000
13.750000 -16.500000 0.718750
0.750000 -16.500000 0.718750
0.750000 -16.500000 -2.625000
0.750000 16.500000 -2.625000
13.750000 16.500000 -2.625000
13.750000 -16.500000 -2.625000
0.750000 -16.500000 -2.625000
13.750000 16.250000 -2.375000
13.750000 -16.250000 -2.375000
13.750000 -16.250000 0.718750
13.750000 16.250000 0.718750
1.000000 -16.250000 -2.375000
1.000000 16.250000 -2.375000
1.000000 16.250000 0.718750
1.000000 -16.250000 0.718750
14.000000 -18.468800 -3.250000
14.000000 18.468750 -3.250000
14.000000 18.468750 0.718750
14.000000 -18.468800 0.718750
13.750000 18.468750 -3.250000
14.000000 18.468750 -3.250000
14.000000 -18.468800 -3.250000
13.750000 -18.468800 -3.250000
13.750000 16.500000 0.718750
13.750000 16.500000 -2.625000
0.750000 16.500000 -2.625000
0.750000 16.500000 0.718750
4 0 1 2 3
4 4 5 6 7
4 8 9 10 11
4 12 13 14 15
4 16 17 18 19
4 20 0 21 22
4 23 24 25 26
11 27 28 29 30 31 32 33 34 35 36 37
4 38 39 40 41
4 42 43 44 45
4 20 46 47 48
4 49 50 51 52
30 53 54 55 56 57 58 59 60 61 62 63 64 65 66 67 68 69 70 71 72 73 74 75 76 77 78 79 80 81 82
4 83 84 85 86
4 87 43 42 88
4 89 90 91 92
4 93 94 95 96
4 97 98 99 100
4 101 18 102 103
4 104 105 106 107
4 108 109 110 111
4 45 44 112 113
4 114 115 116 117
4 48 47 118 119
4 120 121 122 123
4 124 125 126 127
4 128 129 110 130
4 45 113 38 41
4 131 132 133 134
4 135 130 110 109
4 136 8 11 137
48 138 139 140 141 142 143 144 145 146 147 148 149 150 151 152 153 154 155 156 157 158 159 160 161 162 163 164 165 166 167 168 169 170 171 172 173 174 175 176 177 178 179 180 181 182 183 184 185
4 186 187 9 8
4 41 40 188 189
4 15 190 187 186
4 136 13 12 8
4 191 192 193 194
4 111 195 196 108
4 197 198 1 0
4 15 14 199 200
4 201 202 10 203
4 204 205 206 207
4 208 209 210 190
4 17 211 212 18
4 213 214 215 216
4 147 172 171 148
4 113 217 200 38
4 175 174 139 138
4 218 219 220 221
4 222 223 224 225
4 226 208 190 217
4 227 135 109 228
4 200 199 39 38
4 229 230 231 232
4 113 112 226 217
4 129 202 111 110
4 233 234 235 236
4 237 238 239 240
4 239 230 104 85
4 203 10 9 241
4 242 243 244 245
4 4 7 238 237
4 107 86 85 104
4 246 247 109 108
4 248 249 250 251
4 107 106 252 253
4 254 255 256 257
5 37 36 33 32 258
3 259 260 65
3 259 65 64
4 261 262 263 264
4 189 188 227 228
4 265 266 267 268
4 269 270 271 272
3 273 274 275
3 273 275 276
4 277 278 279 280
4 240 239 85 84
26 274 281 282 283 284 285 286 287 288 289 290 291 292 293 294 295 296 297 298 299 300 301 302 273 303 304
4 22 21 86 107
4 232 231 305 306
4 307 308 309 310
4 238 231 230 239
4 210 209 241 9
8 311 312 313 314 315 316 317 318
8 319 320 321 322 323 324 325 326
4 327 328 329 330
4 137 11 129 128
4 212 211 306 305
4 6 5 331 101
4 252 46 20 253
4 119 118 16 19
4 216 215 198 197
10 332 333 161 160 334 335 151 150 171 170
4 42 189 247 246
4 48 119 216 197
4 213 19 18 101
4 336 337 338 339
4 101 331 214 213
4 340 341 342 343
4 119 19 213 216
8 344 345 346 347 348 349 350 351
8 352 353 354 355 356 357 358 359
4 360 361 362 363
4 364 365 366 367
7 68 368 79 78 369 370 69
4 371 372 373 374
7 375 81 80 60 59 376 377
4 378 379 380 381
4 382 383 384 385
8 386 387 388 389 390 391 392 393
3 394 395 391
3 394 391 390
4 396 397 398 399
4 395 394 400 401
7 402 403 404 405 406 407 408
8 409 410 411 412 413 414 415 416
9 417 418 419 420 402 408 421 406 405
4 108 196 87 88
4 422 423 424 425
4 2 83 86 3
4 426 427 428 429
4 430 431 432 433
8 434 281 274 273 302 435 292 291
4 436 437 438 439
4 440 441 442 443
4 200 217 190 15
4 195 111 202 201
4 103 102 305 7
4 444 445 446 447
4 448 449 450 451
8 452 453 454 455 456 457 458 459
4 260 259 276 275
4 11 10 202 129
4 105 104 230 229
4 460 461 462 463
4 464 465 466 467
4 7 305 231 238
4 468 469 470 471
4 472 473 474 475
4 476 477 478 479
4 480 481 482 483
4 484 485 486 487
4 42 45 41 189
4 20 48 197 0
