ply
format ascii 1.0
comment Created by Blender 2.82 (sub 7) - www.blender.org, source file: ''
element vertex 541
property float x
property float y
property float z
element face 146
property list uchar uint vertex_indices
end_header
-17.716499 -19.684999 14.350410
-17.716499 19.684999 14.350410
-17.716499 19.684999 12.381910
-17.716499 -19.684999 12.381910
-16.213301 -17.749901 -20.570890
-16.264299 -17.559799 -19.114189
-15.979800 -17.559799 -19.114189
-16.030800 -17.749901 -20.570890
-15.374000 18.090500 12.381910
-15.474200 17.716499 12.381910
-15.474200 17.716499 -19.114189
-15.374000 18.090500 -19.114189
15.769700 -18.750401 -19.114189
15.769700 -18.750401 12.381910
15.610900 -18.636700 12.381910
15.610900 -18.636700 -19.114189
-16.769899 -18.464600 12.381910
-16.769899 -18.464600 -19.114189
-16.496099 -18.738400 -19.114189
-16.496099 -18.738400 12.381910
-17.635201 19.684999 14.590080
-17.473499 19.684999 14.714150
15.825800 19.684999 14.783070
16.035999 19.684999 14.944350
16.102800 19.684999 15.060060
16.141701 19.684999 19.074820
17.716499 19.684999 20.570890
17.716499 19.684999 12.381910
-17.716499 19.684999 12.381910
-17.686600 19.684999 14.501080
15.955900 -18.401600 -20.570890
15.881100 -18.348000 -20.570890
15.784600 -18.193100 -20.570890
15.778600 -18.010599 -20.570890
15.864600 -17.849600 -20.570890
16.019600 -17.753099 -20.570890
16.110399 -17.738100 -20.570890
16.288200 -17.779499 -20.570890
16.363001 -17.833099 -20.570890
16.459499 -17.988100 -20.570890
16.474501 -18.078899 -20.570890
16.433100 -18.256701 -20.570890
16.308399 -18.389900 -20.570890
16.133699 -18.443001 -20.570890
15.406300 -18.308001 12.381910
15.374400 -18.115299 12.381910
15.374400 -18.115299 -19.114189
15.406300 -18.308001 -19.114189
16.246599 -17.555401 -19.114189
16.202000 -17.747101 -20.570890
16.019600 -17.753099 -20.570890
15.962300 -17.564800 -19.114189
-15.474200 -17.716499 12.381910
-15.374000 -18.090599 12.381910
-15.374000 -18.090599 -19.114189
-15.474200 -17.716499 -19.114189
15.474200 18.464600 12.381910
15.474200 18.464600 -19.114189
15.374000 18.090500 -19.114189
15.374000 18.090500 12.381910
-15.591300 -18.232800 -19.114189
-15.733500 -18.479099 -19.114189
-15.872700 -18.339899 -20.570890
-15.781400 -18.181801 -20.570890
15.591300 18.232800 -19.114189
15.733500 18.479099 -19.114189
15.872700 18.339899 -20.570890
15.781400 18.181801 -20.570890
16.633200 -17.544399 12.381910
16.837799 -17.873100 12.381910
16.837799 -17.873100 -19.114189
16.633200 -17.544399 -19.114189
15.979800 18.621300 -19.114189
16.030800 18.431200 -20.570890
-16.122000 -18.838600 -19.114189
-16.122000 -18.838600 12.381910
17.047199 -19.015800 12.381910
13.622100 -19.015800 12.381910
14.881900 -19.015800 9.153560
17.047199 -19.015800 9.153560
-16.122000 -18.090599 -11.318890
-16.122000 18.090500 -11.318890
-16.122000 18.090500 -12.696790
-16.122000 -18.090599 -12.696790
-16.213301 -18.431200 -20.570890
-16.030800 -18.431200 -20.570890
-15.979800 -18.621300 -19.114189
-16.264299 -18.621300 -19.114189
-15.748000 18.738400 12.381910
-16.122000 18.838600 12.381910
-16.496099 18.738400 12.381910
-16.769899 18.464600 12.381910
-16.870100 18.090500 12.381910
-16.769899 17.716499 12.381910
-16.496099 17.442699 12.381910
-16.122000 17.342501 12.381910
-15.748000 17.442699 12.381910
-15.474200 17.716499 12.381910
-15.374000 18.090500 12.381910
-15.474200 18.464600 12.381910
15.462200 -17.738199 12.381910
15.575900 -17.579399 12.381910
15.575900 -17.579399 -19.114189
15.462200 -17.738199 -19.114189
16.339500 -18.806299 -19.114189
16.339500 -18.806299 12.381910
16.146799 -18.838200 12.381910
16.146799 -18.838200 -19.114189
16.668200 -18.601700 -19.114189
16.668200 -18.601700 12.381910
16.781900 -18.442900 12.381910
16.781900 -18.442900 -19.114189
-15.733500 -17.702000 -19.114189
-15.872700 -17.841200 -20.570890
-17.716499 19.684999 14.350410
-17.716499 -19.684999 14.350410
-17.635201 -19.684999 14.590080
-17.635201 19.684999 14.590080
15.474200 17.716499 -19.114189
15.474200 17.716499 12.381910
-15.474200 18.464600 -19.114189
-15.748000 18.738400 -19.114189
-15.748000 18.738400 12.381910
-15.474200 18.464600 12.381910
16.141701 -19.684999 19.074820
16.141701 19.684999 19.074820
16.141701 19.684999 15.255930
16.141701 -19.684999 15.255930
-16.769899 17.716499 12.381910
-16.870100 18.090500 12.381910
-16.870100 18.090500 -19.114189
-16.769899 17.716499 -19.114189
-16.769899 18.464600 12.381910
-16.769899 18.464600 -19.114189
16.769899 18.464600 -19.114189
16.496099 18.738400 -19.114189
16.496099 18.738400 12.381910
16.769899 18.464600 12.381910
-17.562500 -19.684999 14.662760
-17.519699 -19.684999 14.691370
-17.473499 -19.684999 14.714150
-17.473499 19.684999 14.714150
-17.519699 19.684999 14.691370
-17.562500 19.684999 14.662760
-17.601200 19.684999 14.628800
-17.601200 -19.684999 14.628800
16.769899 17.716499 12.381910
16.769899 17.716499 -19.114189
16.870100 18.090500 -19.114189
16.870100 18.090500 12.381910
15.629900 -19.684999 14.744110
15.825800 -19.684999 14.783070
15.825800 19.684999 14.783070
15.629900 19.684999 14.744110
-16.122000 -17.342501 12.381910
-16.122000 -17.342501 -19.114189
-16.496099 -17.442699 -19.114189
-16.496099 -17.442699 12.381910
16.510599 18.479099 -19.114189
16.652800 18.232800 -19.114189
16.462700 18.181801 -20.570890
16.371401 18.339899 -20.570890
-16.652800 -17.948299 -19.114189
-16.510599 -17.702000 -19.114189
-16.371401 -17.841200 -20.570890
-16.462700 -17.999300 -20.570890
-16.371401 17.841200 -20.570890
-16.213301 17.749901 -20.570890
-16.264299 17.559799 -19.114189
-16.510599 17.702000 -19.114189
16.869699 -18.065800 -19.114189
16.869699 -18.065800 12.381910
-16.122000 18.838600 -19.114189
-15.748000 18.738400 -19.114189
-15.474200 18.464600 -19.114189
-15.374000 18.090500 -19.114189
-15.474200 17.716499 -19.114189
-15.748000 17.442699 -19.114189
-16.122000 17.342501 -19.114189
-16.496099 17.442699 -19.114189
-16.650999 17.561600 -19.114189
-16.396799 17.614700 -19.114189
-16.264299 17.559799 -19.114189
-15.979800 17.559799 -19.114189
-15.733500 17.702000 -19.114189
-15.591300 17.948299 -19.114189
-15.591300 18.232800 -19.114189
-15.733500 18.479099 -19.114189
-15.979800 18.621300 -19.114189
-16.264299 18.621300 -19.114189
-16.510599 18.479099 -19.114189
-16.652800 18.232800 -19.114189
-16.652800 17.948299 -19.114189
-16.597900 17.815800 -19.114189
-16.844601 17.896900 -19.114189
-16.870100 18.090500 -19.114189
-16.769899 18.464600 -19.114189
-16.496099 18.738400 -19.114189
15.655500 -18.380899 -19.114189
15.822700 -18.276899 -20.570890
15.955900 -18.401600 -20.570890
15.863200 -18.575300 -19.114189
-14.881900 -19.015800 9.153560
-17.047199 -19.015800 9.153560
-17.047199 -19.015800 12.381910
-13.622000 -19.015800 12.381910
16.122101 -18.090599 -12.696790
16.122101 -18.090599 -11.318890
-16.122000 -18.090599 -11.318890
-16.122000 -18.090599 -12.696790
16.122101 18.090500 -11.318890
16.122101 -18.090599 -11.318890
16.122101 -18.090599 -12.696790
16.122101 18.090500 -12.696790
-15.591300 -17.948299 -19.114189
-15.781400 -17.999300 -20.570890
15.904600 -17.374800 12.381910
15.904600 -17.374800 -19.114189
-16.122000 18.838600 -19.114189
-16.122000 18.838600 12.381910
-16.510599 -18.479099 -19.114189
-16.652800 -18.232800 -19.114189
-16.462700 -18.181801 -20.570890
-16.371401 -18.339899 -20.570890
15.748000 17.442699 12.381910
16.122101 17.342501 12.381910
16.496099 17.442699 12.381910
16.769899 17.716499 12.381910
16.870100 18.090500 12.381910
16.769899 18.464600 12.381910
16.496099 18.738400 12.381910
16.122101 18.838600 12.381910
15.748000 18.738400 12.381910
15.474200 18.464600 12.381910
15.374000 18.090500 12.381910
15.474200 17.716499 12.381910
16.141701 -19.684999 19.074820
17.716499 -19.684999 20.570890
17.716499 19.684999 20.570890
16.141701 19.684999 19.074820
16.380899 -17.605900 -19.114189
16.588600 -17.800200 -19.114189
16.421400 -17.904200 -20.570890
16.288200 -17.779499 -20.570890
-16.496099 17.442699 12.381910
-16.496099 17.442699 -19.114189
-16.122000 17.342501 -19.114189
-16.122000 17.342501 12.381910
-16.122000 -18.090599 -11.318890
16.122101 -18.090599 -11.318890
16.122101 18.090500 -11.318890
-16.122000 18.090500 -11.318890
-16.769899 -17.716499 12.381910
-16.769899 -17.716499 -19.114189
-16.870100 -18.090599 -19.114189
-16.870100 -18.090599 12.381910
-17.047199 16.850401 9.153560
-17.047199 19.015699 9.153560
-17.047199 19.015699 12.381910
-17.047199 15.590500 12.381910
16.122101 18.838600 -19.114189
16.122101 18.838600 12.381910
-15.748000 -18.738400 -19.114189
-15.748000 -18.738400 12.381910
-15.748000 17.442699 12.381910
-15.748000 17.442699 -19.114189
-15.733500 18.479099 -19.114189
-15.591300 18.232800 -19.114189
-15.781400 18.181801 -20.570890
-15.872700 18.339899 -20.570890
17.047199 -16.850401 9.153560
17.047199 -19.015800 9.153560
17.047199 -19.015800 12.381910
17.047199 -15.590600 12.381910
16.122101 18.090500 -11.318890
16.122101 18.090500 -12.696790
-16.122000 18.090500 -12.696790
-16.122000 18.090500 -11.318890
16.510599 17.702000 -19.114189
16.264299 17.559799 -19.114189
16.213301 17.749901 -20.570890
16.371401 17.841200 -20.570890
15.474200 17.716499 -19.114189
15.374000 18.090500 -19.114189
15.474200 18.464600 -19.114189
15.748000 18.738400 -19.114189
16.122101 18.838600 -19.114189
16.496099 18.738400 -19.114189
16.769899 18.464600 -19.114189
16.396799 18.566401 -19.114189
16.264299 18.621300 -19.114189
15.979800 18.621300 -19.114189
15.733500 18.479099 -19.114189
15.591300 18.232800 -19.114189
15.591300 17.948299 -19.114189
15.733500 17.702000 -19.114189
15.979800 17.559799 -19.114189
16.122101 17.541100 -19.114189
15.748000 17.442699 -19.114189
15.629900 -19.684999 14.744110
15.629900 19.684999 14.744110
-17.322800 19.684999 14.744110
-17.322800 -19.684999 14.744110
-15.733500 17.702000 -19.114189
-15.979800 17.559799 -19.114189
-16.030800 17.749901 -20.570890
-15.872700 17.841200 -20.570890
-16.652800 18.232800 -19.114189
-16.510599 18.479099 -19.114189
-16.371401 18.339899 -20.570890
-16.462700 18.181801 -20.570890
16.371401 17.841200 -20.570890
16.213301 17.749901 -20.570890
16.030800 17.749901 -20.570890
15.872700 17.841200 -20.570890
15.781400 17.999300 -20.570890
15.781400 18.181801 -20.570890
15.872700 18.339899 -20.570890
16.030800 18.431200 -20.570890
16.213301 18.431200 -20.570890
16.371401 18.339899 -20.570890
16.462700 18.181801 -20.570890
16.462700 17.999300 -20.570890
-16.264299 18.621300 -19.114189
-16.213301 18.431200 -20.570890
-17.047199 19.015699 12.381910
-13.622000 19.015699 12.381910
-14.881900 19.015699 9.153560
-17.047199 19.015699 9.153560
-16.652800 17.948299 -19.114189
-16.462700 17.999300 -20.570890
-15.979800 18.621300 -19.114189
-16.030800 18.431200 -20.570890
-15.748000 -17.442699 12.381910
-15.748000 -17.442699 -19.114189
15.733500 17.702000 -19.114189
15.591300 17.948299 -19.114189
15.781400 17.999300 -20.570890
15.872700 17.841200 -20.570890
17.716499 19.684999 12.381910
17.716499 19.684999 20.570890
17.716499 -19.684999 20.570890
17.716499 -19.684999 12.381910
15.769700 -18.750401 12.381910
16.146799 -18.838200 12.381910
16.339500 -18.806299 12.381910
16.668200 -18.601700 12.381910
16.781900 -18.442900 12.381910
16.869699 -18.065800 12.381910
16.837799 -17.873100 12.381910
16.633200 -17.544399 12.381910
16.474400 -17.430700 12.381910
16.097300 -17.342899 12.381910
15.904600 -17.374800 12.381910
15.575900 -17.579399 12.381910
15.462200 -17.738199 12.381910
15.374400 -18.115299 12.381910
15.406300 -18.308001 12.381910
15.610900 -18.636700 12.381910
16.097300 -17.342899 -19.114189
16.474400 -17.430700 -19.114189
16.633200 -17.544399 -19.114189
16.837799 -17.873100 -19.114189
16.850599 -18.260099 -19.114189
16.657200 -18.215099 -19.114189
16.647800 -17.930799 -19.114189
16.588600 -17.800200 -19.114189
16.380899 -17.605900 -19.114189
16.246599 -17.555401 -19.114189
15.962300 -17.564800 -19.114189
15.831700 -17.624001 -19.114189
15.637400 -17.831699 -19.114189
15.586900 -17.966000 -19.114189
15.596300 -18.250299 -19.114189
15.374400 -18.115299 -19.114189
15.462200 -17.738199 -19.114189
15.575900 -17.579399 -19.114189
15.904600 -17.374800 -19.114189
16.474400 -17.430700 -19.114189
16.474400 -17.430700 12.381910
16.339500 -18.806299 -19.114189
16.146799 -18.838200 -19.114189
15.769700 -18.750401 -19.114189
15.610900 -18.636700 -19.114189
15.406300 -18.308001 -19.114189
15.655500 -18.380899 -19.114189
15.863200 -18.575300 -19.114189
16.140200 -18.639700 -19.114189
16.412399 -18.557100 -19.114189
16.606800 -18.349400 -19.114189
16.668200 -18.601700 -19.114189
16.652800 17.948299 -19.114189
16.462700 17.999300 -20.570890
15.885800 -19.684999 14.812680
15.941500 -19.684999 14.849880
15.991800 -19.684999 14.894020
16.035999 -19.684999 14.944350
16.035999 19.684999 14.944350
15.991800 19.684999 14.894020
15.941500 19.684999 14.849880
15.885800 19.684999 14.812680
-17.047199 -19.015800 12.381910
-17.047199 -15.590600 12.381910
-17.047199 -16.850401 9.153560
-17.047199 -19.015800 9.153560
-15.474200 -18.464600 -19.114189
-15.474200 -18.464600 12.381910
16.097300 -17.342899 12.381910
16.097300 -17.342899 -19.114189
16.308399 -18.389900 -20.570890
16.412399 -18.557100 -19.114189
16.140200 -18.639700 -19.114189
16.133699 -18.443001 -20.570890
14.881900 19.015699 9.153560
17.047199 19.015699 9.153560
17.047199 19.015699 12.381910
13.622100 19.015699 12.381910
17.716499 -19.684999 12.381910
4.521100 -19.684999 12.381910
4.521100 19.684999 12.381910
17.716499 19.684999 12.381910
16.671200 -18.072399 -19.114189
16.474501 -18.078899 -20.570890
15.586900 -17.966000 -19.114189
15.637400 -17.831699 -19.114189
15.811000 -17.924400 -20.570890
15.778600 -18.010599 -20.570890
15.831700 -17.624001 -19.114189
15.935700 -17.791201 -20.570890
15.596300 -18.250299 -19.114189
15.784600 -18.193100 -20.570890
16.606800 -18.349400 -19.114189
16.433100 -18.256701 -20.570890
4.521100 -19.684999 12.381910
-17.716499 -19.684999 12.381910
-17.716499 19.684999 12.381910
4.521100 19.684999 12.381910
-16.496099 18.738400 12.381910
-16.496099 18.738400 -19.114189
-16.496099 -18.738400 12.381910
-16.122000 -18.838600 12.381910
-15.748000 -18.738400 12.381910
-15.474200 -18.464600 12.381910
-15.374000 -18.090599 12.381910
-15.474200 -17.716499 12.381910
-15.748000 -17.442699 12.381910
-16.122000 -17.342501 12.381910
-16.496099 -17.442699 12.381910
-16.769899 -17.716499 12.381910
-16.870100 -18.090599 12.381910
-16.769899 -18.464600 12.381910
16.496099 17.442699 12.381910
16.496099 17.442699 -19.114189
16.141701 19.684999 15.255930
16.141701 -19.684999 15.255930
15.748000 17.442699 12.381910
15.748000 17.442699 -19.114189
16.122101 17.342501 -19.114189
16.122101 17.342501 12.381910
16.264299 18.621300 -19.114189
16.213301 18.431200 -20.570890
15.748000 18.738400 12.381910
15.748000 18.738400 -19.114189
17.047199 19.015699 12.381910
17.047199 15.590500 12.381910
17.047199 16.850401 9.153560
17.047199 19.015699 9.153560
-16.264299 -18.621300 -19.114189
-15.979800 -18.621300 -19.114189
-15.733500 -18.479099 -19.114189
-15.591300 -18.232800 -19.114189
-15.591300 -17.948299 -19.114189
-15.733500 -17.702000 -19.114189
-15.979800 -17.559799 -19.114189
-16.122000 -17.541100 -19.114189
-16.650999 -17.561600 -19.114189
-16.496099 -17.442699 -19.114189
-16.122000 -17.342501 -19.114189
-15.748000 -17.442699 -19.114189
-15.474200 -17.716499 -19.114189
-15.374000 -18.090599 -19.114189
-15.474200 -18.464600 -19.114189
-15.748000 -18.738400 -19.114189
-16.122000 -18.838600 -19.114189
-16.496099 -18.738400 -19.114189
-16.769899 -18.464600 -19.114189
-16.870100 -18.090599 -19.114189
-16.769899 -17.716499 -19.114189
-16.396799 -17.614700 -19.114189
-16.510599 -17.702000 -19.114189
-16.652800 -17.948299 -19.114189
-16.652800 -18.232800 -19.114189
-16.510599 -18.479099 -19.114189
16.264299 17.559799 -19.114189
16.510599 17.702000 -19.114189
16.652800 17.948299 -19.114189
16.652800 18.232800 -19.114189
16.510599 18.479099 -19.114189
16.870100 18.090500 -19.114189
16.769899 17.716499 -19.114189
16.496099 17.442699 -19.114189
16.122101 17.342501 -19.114189
-16.030800 -18.431200 -20.570890
-16.213301 -18.431200 -20.570890
-16.371401 -18.339899 -20.570890
-16.462700 -18.181801 -20.570890
-16.462700 -17.999300 -20.570890
-16.371401 -17.841200 -20.570890
-16.213301 -17.749901 -20.570890
-16.030800 -17.749901 -20.570890
-15.872700 -17.841200 -20.570890
-15.781400 -17.999300 -20.570890
-15.781400 -18.181801 -20.570890
-15.872700 -18.339899 -20.570890
-16.213301 18.431200 -20.570890
-16.030800 18.431200 -20.570890
-15.872700 18.339899 -20.570890
-15.781400 18.181801 -20.570890
-15.781400 17.999300 -20.570890
-15.872700 17.841200 -20.570890
-16.030800 17.749901 -20.570890
-16.213301 17.749901 -20.570890
-16.371401 17.841200 -20.570890
-16.462700 17.999300 -20.570890
-16.462700 18.181801 -20.570890
-16.371401 18.339899 -20.570890
15.979800 17.559799 -19.114189
16.030800 17.749901 -20.570890
16.122101 -18.090599 -12.696790
-16.122000 -18.090599 -12.696790
-16.122000 18.090500 -12.696790
16.122101 18.090500 -12.696790
-16.264299 -17.559799 -19.114189
-15.591300 17.948299 -19.114189
-15.781400 17.999300 -20.570890
-17.424700 -19.684999 14.730700
-17.374201 -19.684999 14.740750
-17.322800 -19.684999 14.744110
-17.322800 19.684999 14.744110
-17.374201 19.684999 14.740750
-17.424700 19.684999 14.730700
4 0 1 2 3
4 4 5 6 7
4 8 9 10 11
4 12 13 14 15
4 16 17 18 19
10 20 21 22 23 24 25 26 27 28 29
14 30 31 32 33 34 35 36 37 38 39 40 41 42 43
4 44 45 46 47
4 48 49 50 51
4 52 53 54 55
4 56 57 58 59
4 60 61 62 63
4 64 65 66 67
4 68 69 70 71
4 72 73 66 65
4 19 18 74 75
4 76 77 78 79
4 80 81 82 83
4 84 85 86 87
12 88 89 90 91 92 93 94 95 96 97 98 99
4 100 101 102 103
4 104 105 106 107
4 105 104 108 109
4 110 109 108 111
4 6 112 113 7
4 114 115 116 117
4 59 58 118 119
4 120 121 122 123
4 124 125 126 127
4 44 47 15 14
4 128 129 130 131
4 129 132 133 130
4 134 135 136 137
10 138 139 140 141 142 143 144 117 116 145
4 146 147 148 149
4 150 151 152 153
4 154 155 156 157
4 158 159 160 161
4 162 163 164 165
4 166 167 168 169
4 110 111 170 171
26 172 173 174 175 176 177 178 179 180 181 182 183 184 185 186 187 188 189 190 191 192 193 194 195 196 197
4 193 181 180 194
4 198 199 200 201
4 202 203 204 205
4 206 207 208 209
4 210 211 212 213
4 112 214 215 113
4 216 217 102 101
4 122 121 218 219
4 61 86 85 62
4 220 221 222 223
4 84 87 220 223
12 224 225 226 227 228 229 230 231 232 233 234 235
4 236 237 238 239
4 240 241 242 243
4 244 245 246 247
4 248 249 250 251
4 252 253 254 255
4 256 257 258 259
4 252 157 156 253
4 136 135 260 261
4 128 131 245 244
4 262 263 75 74
4 264 265 10 9
4 5 4 164 163
4 266 267 268 269
4 270 271 272 273
4 274 275 276 277
4 278 279 280 281
17 282 283 284 285 286 287 288 289 290 291 292 293 294 295 296 297 298
4 214 60 63 215
4 299 300 301 302
4 303 304 305 306
4 307 308 309 310
4 167 305 304 168
12 311 312 313 314 315 316 317 318 319 320 321 322
4 323 324 309 308
4 325 326 327 328
4 169 329 330 166
4 331 266 269 332
4 333 334 155 154
4 221 162 165 222
4 335 336 337 338
4 339 340 341 342
16 343 344 345 346 347 348 349 350 351 352 353 354 355 356 357 358
19 359 360 361 362 363 364 365 366 367 368 369 370 371 372 373 374 375 376 377
4 68 71 378 379
15 380 381 382 383 384 374 373 385 386 387 388 389 364 363 390
4 159 391 392 160
4 55 334 333 52
10 151 393 394 395 396 397 398 399 400 152
4 401 402 403 404
4 69 171 170 70
4 336 64 67 337
4 263 262 405 406
4 100 103 46 45
4 407 408 217 216
4 409 410 411 412
4 413 414 415 416
4 417 418 419 420
4 241 421 422 242
4 423 424 425 426
4 427 428 425 424
4 198 429 430 199
4 200 412 411 201
4 48 240 243 49
4 421 431 432 422
4 51 50 428 427
4 429 423 426 430
4 123 8 11 120
4 433 434 435 436
4 437 438 133 132
12 439 440 441 442 443 444 445 446 447 448 449 450
4 53 406 405 54
4 451 452 147 146
4 265 264 247 246
4 431 410 409 432
4 453 397 396 454
4 455 456 457 458
4 16 255 254 17
4 459 158 161 460
4 379 378 408 407
4 218 438 437 219
4 461 462 57 56
4 149 148 134 137
4 456 455 119 118
4 463 464 465 466
26 467 468 469 470 471 472 473 474 475 476 477 478 479 480 481 482 483 484 485 486 487 488 489 490 491 492
13 298 297 493 494 495 496 497 289 288 498 499 500 501
4 329 307 310 330
12 502 503 504 505 506 507 508 509 510 511 512 513
12 514 515 516 517 518 519 520 521 522 523 524 525
4 280 279 526 527
4 323 331 332 324
4 528 529 530 531
5 532 488 487 475 474
4 533 303 306 534
4 527 526 335 338
4 267 533 534 268
8 140 535 536 537 538 539 540 141
4 391 278 281 392
4 260 462 461 261
4 452 451 458 457
4 72 459 460 73
4 13 12 107 106
