ply
format ascii 1.0
comment Created by Blender 2.82 (sub 7) - www.blender.org, source file: ''
element vertex 136
property float x
property float y
property float z
element face 26
property list uchar uint vertex_indices
end_header
12.000000 12.000000 -15.000000
12.000000 15.000000 -15.000000
12.000000 15.000000 12.000000
12.000000 12.000000 12.000000
-15.000000 12.000000 -15.000000
-15.000000 15.000000 -15.000000
-15.000000 15.000000 15.000000
-15.000000 -15.000000 15.000000
-15.000000 -15.000000 -15.000000
-15.000000 -12.000000 -15.000000
-15.000000 -12.000000 12.000000
-15.000000 12.000000 12.000000
-12.000000 15.000000 -15.000000
-15.000000 15.000000 -15.000000
-15.000000 15.000000 15.000000
15.000000 15.000000 15.000000
15.000000 15.000000 -15.000000
12.000000 15.000000 -15.000000
12.000000 15.000000 12.000000
-12.000000 15.000000 12.000000
-15.000000 15.000000 15.000000
-15.000000 15.000000 -15.000000
-12.000000 15.000000 -15.000000
-12.000000 15.000000 12.000000
12.000000 15.000000 12.000000
12.000000 15.000000 -15.000000
15.000000 15.000000 -15.000000
15.000000 15.000000 15.000000
15.000000 -12.000000 12.000000
15.000000 -12.000000 -15.000000
12.000000 -12.000000 -15.000000
12.000000 -12.000000 12.000000
12.000000 12.000000 12.000000
12.000000 15.000000 12.000000
12.000000 15.000000 -15.000000
12.000000 12.000000 -15.000000
-12.000000 15.000000 12.000000
-12.000000 12.000000 12.000000
-12.000000 12.000000 -15.000000
-12.000000 15.000000 -15.000000
-12.000000 15.000000 -15.000000
-12.000000 12.000000 -15.000000
-12.000000 12.000000 12.000000
-12.000000 15.000000 12.000000
-15.000000 -12.000000 -15.000000
-12.000000 -12.000000 -15.000000
-12.000000 -12.000000 12.000000
-15.000000 -12.000000 12.000000
-15.000000 12.000000 12.000000
-15.000000 -12.000000 12.000000
-15.000000 -12.000000 -15.000000
-15.000000 -15.000000 -15.000000
-15.000000 -15.000000 15.000000
-15.000000 15.000000 15.000000
-15.000000 15.000000 -15.000000
-15.000000 12.000000 -15.000000
12.000000 -15.000000 -15.000000
12.000000 -15.000000 12.000000
12.000000 -12.000000 12.000000
12.000000 -12.000000 -15.000000
15.000000 12.000000 -15.000000
15.000000 12.000000 12.000000
12.000000 12.000000 12.000000
12.000000 12.000000 -15.000000
15.000000 -12.000000 12.000000
15.000000 12.000000 12.000000
15.000000 12.000000 -15.000000
15.000000 15.000000 -15.000000
15.000000 15.000000 15.000000
15.000000 -15.000000 15.000000
15.000000 -15.000000 -15.000000
15.000000 -12.000000 -15.000000
12.000000 -15.000000 12.000000
12.000000 -15.000000 -15.000000
15.000000 -15.000000 -15.000000
15.000000 -15.000000 15.000000
-15.000000 -15.000000 15.000000
-15.000000 -15.000000 -15.000000
-12.000000 -15.000000 -15.000000
-12.000000 -15.000000 12.000000
-15.000000 -15.000000 -15.000000
-15.000000 -15.000000 15.000000
15.000000 -15.000000 15.000000
15.000000 -15.000000 -15.000000
12.000000 -15.000000 -15.000000
12.000000 -15.000000 12.000000
-12.000000 -15.000000 12.000000
-12.000000 -15.000000 -15.000000
-12.000000 -12.000000 12.000000
-12.000000 -15.000000 12.000000
-12.000000 -15.000000 -15.000000
-12.000000 -12.000000 -15.000000
-12.000000 -12.000000 -15.000000
-12.000000 -15.000000 -15.000000
-12.000000 -15.000000 12.000000
-12.000000 -12.000000 12.000000
-12.000000 12.000000 -15.000000
-12.000000 12.000000 12.000000
-15.000000 12.000000 12.000000
-15.000000 12.000000 -15.000000
-15.000000 -12.000000 12.000000
-12.000000 -12.000000 12.000000
-12.000000 -12.000000 -15.000000
-15.000000 -12.000000 -15.000000
-15.000000 15.000000 15.000000
15.000000 15.000000 15.000000
15.000000 -15.000000 15.000000
-15.000000 -15.000000 15.000000
-15.000000 -15.000000 15.000000
15.000000 -15.000000 15.000000
15.000000 15.000000 15.000000
-15.000000 15.000000 15.000000
-15.000000 12.000000 -15.000000
-15.000000 12.000000 12.000000
-12.000000 12.000000 12.000000
-12.000000 12.000000 -15.000000
15.000000 -12.000000 -15.000000
15.000000 -15.000000 -15.000000
15.000000 -15.000000 15.000000
15.000000 15.000000 15.000000
15.000000 15.000000 -15.000000
15.000000 12.000000 -15.000000
15.000000 12.000000 12.000000
15.000000 -12.000000 12.000000
12.000000 12.000000 -15.000000
12.000000 12.000000 12.000000
15.000000 12.000000 12.000000
15.000000 12.000000 -15.000000
12.000000 -12.000000 12.000000
12.000000 -12.000000 -15.000000
15.000000 -12.000000 -15.000000
15.000000 -12.000000 12.000000
12.000000 -12.000000 -15.000000
12.000000 -12.000000 12.000000
12.000000 -15.000000 12.000000
12.000000 -15.000000 -15.000000
4 0 1 2 3
8 4 5 6 7 8 9 10 11
8 12 13 14 15 16 17 18 19
8 20 21 22 23 24 25 26 27
4 28 29 30 31
4 32 33 34 35
4 36 37 38 39
4 40 41 42 43
4 44 45 46 47
8 48 49 50 51 52 53 54 55
4 56 57 58 59
4 60 61 62 63
8 64 65 66 67 68 69 70 71
8 72 73 74 75 76 77 78 79
8 80 81 82 83 84 85 86 87
4 88 89 90 91
4 92 93 94 95
4 96 97 98 99
4 100 101 102 103
4 104 105 106 107
4 108 109 110 111
4 112 113 114 115
8 116 117 118 119 120 121 122 123
4 124 125 126 127
4 128 129 130 131
4 132 133 134 135
