ply
format ascii 1.0
comment Created by Blender 2.82 (sub 7) - www.blender.org, source file: ''
element vertex 192
property float x
property float y
property float z
element face 56
property list uchar uint vertex_indices
end_header
-13.500020 -13.500000 13.750000
-13.500020 13.500000 13.750000
-13.500020 13.500000 15.000000
-13.500020 -13.500000 15.000000
1.060620 0.250000 -12.000000
9.060620 0.250000 -15.000000
9.060620 -0.250000 -15.000000
1.060620 -0.250000 -12.000000
1.060620 0.250000 -15.000000
1.060620 -0.250000 -15.000000
9.060620 -0.250000 -15.000000
9.060620 0.250000 -15.000000
-1.060680 1.060660 13.750000
1.060620 1.060660 13.750000
-13.500020 13.500000 13.750000
-13.500020 -13.500000 13.750000
13.500020 -13.500000 13.750000
-1.060680 -1.060660 13.750000
0.249980 1.060660 -12.000000
0.249980 9.060660 -15.000000
-0.250020 9.060660 -15.000000
-0.250020 1.060660 -12.000000
13.500020 13.500000 15.000000
13.500020 -13.500000 15.000000
13.500020 -13.500000 13.750000
13.500020 13.500000 13.750000
-1.060680 -0.249999 -12.000000
-9.060680 -0.249999 -15.000000
-9.060680 0.250001 -15.000000
-1.060680 0.250001 -12.000000
1.060620 -1.060660 -15.000000
-1.060680 -1.060660 -15.000000
-1.060680 -1.060660 13.750000
1.060620 -1.060660 13.750000
-1.060680 0.250001 -12.000000
-1.060680 0.250001 -15.000000
-9.060680 0.250001 -15.000000
-0.250020 9.060660 -15.000000
0.249980 9.060660 -15.000000
0.249980 1.060660 -15.000000
-0.250020 1.060660 -15.000000
1.060620 1.060660 -15.000000
1.060620 1.060660 13.750000
-0.250020 1.060660 -15.000000
0.249980 1.060660 -15.000000
0.249980 9.060660 -15.000000
-0.250020 9.060660 -15.000000
-1.060680 -0.249999 -12.000000
-9.060680 -0.249999 -15.000000
-1.060680 -0.249999 -15.000000
-9.060680 0.250001 -15.000000
-1.060680 0.250001 -15.000000
-1.060680 0.250001 -12.000000
-0.250020 -1.060660 -12.000000
-0.250020 -9.060660 -15.000000
0.249980 -9.060660 -15.000000
0.249980 -1.060660 -12.000000
1.060620 1.060660 13.750000
1.060620 -1.060660 13.750000
1.060620 -1.060660 -15.000000
1.060620 1.060660 -15.000000
-1.060680 -0.249999 -15.000000
-9.060680 -0.249999 -15.000000
-1.060680 -0.249999 -12.000000
-0.250020 -1.060660 -12.000000
-0.250020 -1.060660 -15.000000
-0.250020 -9.060660 -15.000000
-1.060680 -1.060660 13.750000
-1.060680 1.060660 13.750000
-1.060680 1.060660 -15.000000
-1.060680 -1.060660 -15.000000
-1.060680 1.060660 -15.000000
-1.060680 1.060660 13.750000
13.500020 13.500000 13.750000
13.500020 -13.500000 13.750000
13.500020 -13.500000 15.000000
13.500020 13.500000 15.000000
0.249980 -1.060660 -12.000000
0.249980 -9.060660 -15.000000
0.249980 -1.060660 -15.000000
-0.250020 -9.060660 -15.000000
-0.250020 -1.060660 -15.000000
-0.250020 -1.060660 -12.000000
13.500020 13.500000 15.000000
13.500020 13.500000 13.750000
-13.500020 13.500000 13.750000
-13.500020 13.500000 15.000000
-13.500020 13.500000 15.000000
13.500020 13.500000 15.000000
13.500020 -13.500000 15.000000
-13.500020 -13.500000 15.000000
0.249980 -1.060660 -15.000000
0.249980 -9.060660 -15.000000
0.249980 -1.060660 -12.000000
0.249980 1.060660 -12.000000
0.249980 1.060660 -15.000000
0.249980 9.060660 -15.000000
-13.500020 -13.500000 13.750000
-13.500020 -13.500000 15.000000
13.500020 -13.500000 15.000000
13.500020 -13.500000 13.750000
0.249980 -1.060660 -12.000000
0.249980 -9.060660 -15.000000
-0.250020 -9.060660 -15.000000
-0.250020 -1.060660 -12.000000
-0.250020 1.060660 -12.000000
-0.250020 9.060660 -15.000000
-0.250020 1.060660 -15.000000
0.249980 9.060660 -15.000000
0.249980 1.060660 -15.000000
0.249980 1.060660 -12.000000
-0.250020 1.060660 -12.000000
-0.250020 9.060660 -15.000000
0.249980 9.060660 -15.000000
0.249980 1.060660 -12.000000
-0.250020 1.060660 -15.000000
-0.250020 9.060660 -15.000000
-0.250020 1.060660 -12.000000
1.060620 -0.250000 -12.000000
1.060620 -0.250000 -15.000000
9.060620 -0.250000 -15.000000
-1.060680 0.250001 -15.000000
-9.060680 0.250001 -15.000000
-9.060680 -0.249999 -15.000000
-1.060680 -0.249999 -15.000000
-13.500020 13.500000 15.000000
-13.500020 13.500000 13.750000
13.500020 13.500000 13.750000
13.500020 13.500000 15.000000
1.060620 0.250000 -12.000000
9.060620 0.250000 -15.000000
1.060620 0.250000 -15.000000
9.060620 -0.250000 -15.000000
1.060620 -0.250000 -15.000000
1.060620 -0.250000 -12.000000
1.060620 -0.250000 -15.000000
1.060620 0.250000 -15.000000
9.060620 0.250000 -15.000000
9.060620 -0.250000 -15.000000
1.060620 -0.250000 -12.000000
9.060620 -0.250000 -15.000000
9.060620 0.250000 -15.000000
1.060620 0.250000 -12.000000
1.060620 0.250000 -15.000000
9.060620 0.250000 -15.000000
1.060620 0.250000 -12.000000
-1.060680 0.250001 -12.000000
-9.060680 0.250001 -15.000000
-9.060680 -0.249999 -15.000000
-1.060680 -0.249999 -12.000000
-0.250020 -1.060660 -15.000000
0.249980 -1.060660 -15.000000
0.249980 -9.060660 -15.000000
-0.250020 -9.060660 -15.000000
13.500020 -13.500000 13.750000
13.500020 -13.500000 15.000000
-13.500020 -13.500000 15.000000
-13.500020 -13.500000 13.750000
-9.060680 -0.249999 -15.000000
-9.060680 0.250001 -15.000000
-1.060680 0.250001 -15.000000
-1.060680 -0.249999 -15.000000
-13.500020 -13.500000 15.000000
-13.500020 13.500000 15.000000
-13.500020 13.500000 13.750000
-13.500020 -13.500000 13.750000
-1.060680 -1.060660 13.750000
1.060620 -1.060660 13.750000
1.060620 1.060660 13.750000
-1.060680 1.060660 13.750000
-13.500020 13.500000 13.750000
13.500020 13.500000 13.750000
13.500020 -13.500000 13.750000
-13.500020 -13.500000 13.750000
0.249980 -1.060660 -15.000000
-0.250020 -1.060660 -15.000000
-0.250020 -9.060660 -15.000000
0.249980 -9.060660 -15.000000
-13.500020 -13.500000 15.000000
13.500020 -13.500000 15.000000
13.500020 13.500000 15.000000
-13.500020 13.500000 15.000000
1.060620 -1.060660 13.750000
13.500020 13.500000 13.750000
1.060620 -1.060660 13.750000
-1.060680 -1.060660 13.750000
-1.060680 1.060660 13.750000
1.060620 1.060660 13.750000
1.060620 1.060660 13.750000
-1.060680 1.060660 13.750000
-1.060680 -1.060660 13.750000
1.060620 -1.060660 13.750000
4 0 1 2 3
4 4 5 6 7
4 8 9 10 11
6 12 13 14 15 16 17
4 18 19 20 21
4 22 23 24 25
4 26 27 28 29
4 30 31 32 33
3 34 35 36
4 37 38 39 40
4 41 30 33 42
4 43 44 45 46
3 47 48 49
3 50 51 52
4 53 54 55 56
4 57 58 59 60
3 61 62 63
3 64 65 66
4 67 68 69 70
4 31 71 72 32
4 73 74 75 76
3 77 78 79
3 80 81 82
4 83 84 85 86
4 87 88 89 90
4 57 60 69 68
3 91 92 93
3 94 95 96
4 97 98 99 100
4 101 102 103 104
3 105 106 107
3 108 109 110
4 111 112 113 114
3 115 116 117
3 118 119 120
4 121 122 123 124
4 125 126 127 128
3 129 130 131
3 132 133 134
4 135 136 137 138
4 139 140 141 142
3 143 144 145
4 146 147 148 149
4 150 151 152 153
4 154 155 156 157
4 158 159 160 161
4 162 163 164 165
4 72 71 41 42
8 166 167 168 169 170 171 172 173
4 70 59 58 67
4 174 175 176 177
4 169 166 173 170
4 178 179 180 181
6 13 182 17 16 183 14
4 184 185 186 187
4 188 189 190 191
