ply
format ascii 1.0
comment Created by Blender 2.82 (sub 7) - www.blender.org, source file: ''
element vertex 750
property float x
property float y
property float z
element face 145
property list uchar uint vertex_indices
end_header
3.041166 11.349640 14.750000
3.041166 11.349640 12.250000
-0.000034 11.750010 12.250000
-0.000034 11.750010 14.750000
-11.749994 0.000010 14.750000
-10.175784 5.875010 14.750000
-10.175784 5.875010 12.250000
-11.749994 0.000010 12.250000
10.993566 0.000010 14.750000
10.993566 0.000010 12.250000
9.520666 -5.496790 12.250000
9.520666 -5.496790 14.750000
10.993566 -0.999990 12.250000
11.749966 -0.999990 12.250000
11.749966 1.000010 12.250000
10.993566 1.000010 12.250000
2.845366 10.618950 12.250000
2.845366 10.618950 14.750000
-2.845334 10.618950 14.750000
-2.845334 10.618950 12.250000
9.875466 -10.054490 15.507700
9.858366 -10.037090 15.590900
6.924666 -12.246590 15.590900
6.945366 -12.283090 15.422800
6.950566 -12.292290 15.163300
12.165466 -7.170190 15.163300
12.141266 -7.155890 15.507700
0.999966 10.993540 -8.750000
0.999966 10.993540 12.250000
-1.000034 10.993540 12.250000
-1.000034 10.993540 -8.750000
13.493566 -0.999990 -15.750000
11.993566 -0.999990 -15.750000
11.993566 1.000010 -15.750000
13.493566 1.000010 -15.750000
11.349666 3.041110 14.750000
11.749966 0.000010 14.750000
11.749966 0.000010 12.250000
11.349666 3.041110 12.250000
0.999966 -13.493490 -15.750000
0.999966 -11.993490 -15.750000
0.999966 -10.993490 -9.750000
0.999966 -11.749990 -9.750000
0.999966 -11.749990 -8.750000
0.999966 -10.993490 -8.750000
0.999966 -10.993490 12.250000
0.999966 -11.749990 12.250000
0.999966 -11.749990 14.750000
0.999966 -12.249990 14.750000
-0.000034 -11.749990 -9.750000
-0.000034 -11.749990 -8.750000
-5.874984 -10.175790 -8.750000
-5.874984 -10.175790 -9.750000
6.890866 -12.186690 14.750000
3.529566 -13.662190 15.422800
3.501866 -13.554990 14.750000
-10.175784 -5.874990 -8.750000
-10.175784 -5.874990 -9.750000
-1.000034 -13.493490 -15.750000
-1.000034 -12.249990 14.750000
-1.000034 -11.749990 14.750000
-1.000034 -11.749990 12.250000
-1.000034 -10.993490 12.250000
-1.000034 -10.993490 -8.750000
-1.000034 -11.749990 -8.750000
-1.000034 -11.749990 -9.750000
-1.000034 -10.993490 -9.750000
-1.000034 -11.993490 -15.750000
3.041166 -11.349590 12.250000
3.041166 -11.349590 14.750000
-0.000034 -11.749990 14.750000
-0.000034 -11.749990 12.250000
-0.000034 11.750010 14.750000
-0.000034 11.750010 12.250000
-3.041134 11.349640 12.250000
-3.041134 11.349640 14.750000
11.749966 0.000010 -8.750000
11.349666 -3.041090 -8.750000
11.349666 -3.041090 -9.750000
11.749966 0.000010 -9.750000
-11.749994 -0.999990 -8.750000
-11.749994 -0.999990 12.250000
-11.749994 -0.999990 -9.750000
-13.493517 1.000010 -15.750000
-12.249984 1.000010 14.750000
-11.749994 1.000010 14.750000
-11.749994 1.000010 12.250000
-11.749994 1.000010 -9.750000
-10.993514 1.000010 -9.750000
-11.993514 1.000010 -15.750000
-5.496754 -9.520690 14.750000
-5.496754 -9.520690 12.250000
-9.520664 -5.496790 12.250000
-9.520664 -5.496790 14.750000
-13.662160 -3.529490 15.077200
-13.645155 -3.525090 14.992300
-12.267834 -6.936690 14.992300
-12.283124 -6.945290 15.077200
-10.067004 -9.887790 15.077200
-10.074554 -9.895190 15.336700
-10.067004 -9.887790 15.422800
-12.283124 -6.945290 15.422800
-12.267834 -6.936690 15.507700
-13.645155 -3.525090 15.507700
-13.662160 -3.529490 15.422800
-11.749994 1.000010 -8.750000
3.501866 -13.554990 15.750000
-3.744784 -13.489890 15.750000
-3.774404 -13.596590 15.422800
13.999466 -0.125790 14.750000
14.120766 -0.126790 15.163300
13.606766 -3.777190 15.163300
13.579666 -3.769690 14.992300
12.141266 -7.155890 14.992300
12.060966 -7.108590 14.750000
-10.993514 1.000010 12.250000
-11.749994 1.000010 12.250000
-11.749994 -0.999990 12.250000
-10.993514 -0.999990 12.250000
-1.000034 13.493541 -15.750000
-1.000034 11.993540 -15.750000
-1.000034 10.993540 -9.750000
-1.000034 11.750010 -9.750000
-1.000034 11.750010 -8.750000
-1.000034 10.993540 -8.750000
-1.000034 10.993540 12.250000
-1.000034 11.750010 12.250000
-1.000034 11.750010 14.750000
-1.000034 12.250010 14.750000
-0.000034 11.750010 -8.750000
-0.000034 11.750010 -9.750000
-3.041134 11.349640 -9.750000
-3.041134 11.349640 -8.750000
-11.749994 0.000010 -8.750000
-11.749994 -0.999990 -8.750000
-11.749994 -0.999990 -9.750000
-11.749994 0.000010 -9.750000
5.496766 -9.520690 12.250000
5.496766 -9.520690 14.750000
-9.988014 -9.810190 14.750000
-13.554954 -3.501790 14.750000
0.999966 11.750010 -9.750000
0.999966 11.750010 -8.750000
-0.000034 11.750010 -8.750000
-0.000034 11.750010 -9.750000
0.999966 11.993540 -15.750000
0.999966 13.493541 -15.750000
0.999966 12.250010 14.750000
0.999966 11.750010 14.750000
0.999966 11.750010 12.250000
0.999966 10.993540 12.250000
0.999966 10.993540 -8.750000
0.999966 11.750010 -8.750000
0.999966 11.750010 -9.750000
0.999966 10.993540 -9.750000
10.993566 -0.999990 12.250000
10.993566 1.000010 12.250000
10.993566 1.000010 -8.750000
10.993566 -0.999990 -8.750000
0.999966 -11.749990 -8.750000
-1.000034 -11.749990 -8.750000
-1.000034 -10.993490 -8.750000
0.999966 -10.993490 -8.750000
11.749966 1.000010 -8.750000
11.749966 -0.999990 -8.750000
10.993566 -0.999990 -8.750000
10.993566 1.000010 -8.750000
11.749966 1.000010 -8.750000
11.749966 1.000010 12.250000
11.749966 1.000010 -9.750000
-11.749994 1.000010 -9.750000
-11.749994 -0.999990 -9.750000
-10.993514 -0.999990 -9.750000
-10.993514 1.000010 -9.750000
-10.993514 1.000010 -8.750000
-10.993514 -0.999990 -8.750000
-11.749994 -0.999990 -8.750000
-11.749994 1.000010 -8.750000
-1.000034 -11.749990 -9.750000
0.999966 -11.749990 -9.750000
0.999966 -10.993490 -9.750000
-1.000034 -10.993490 -9.750000
11.749966 -0.999990 -9.750000
11.749966 -0.999990 -8.750000
11.749966 0.000010 -8.750000
11.749966 0.000010 -9.750000
11.749966 0.000010 14.750000
11.749966 -0.999990 14.750000
12.249966 -0.999990 14.750000
12.249966 1.000010 14.750000
11.749966 1.000010 14.750000
11.349666 3.041110 -8.750000
11.749966 0.000010 -8.750000
11.749966 0.000010 -9.750000
11.349666 3.041110 -9.750000
11.993566 1.000010 -15.750000
10.993566 1.000010 -9.750000
11.749966 1.000010 14.750000
12.249966 1.000010 14.750000
13.493566 1.000010 -15.750000
5.496766 -9.520690 12.250000
7.773566 -7.773590 12.250000
10.175766 -5.874990 12.250000
8.308566 -8.308490 12.250000
3.041166 -11.349590 12.250000
-3.041134 -11.349590 12.250000
-0.000034 -10.993490 12.250000
11.749966 0.000010 14.750000
11.349666 -3.041090 14.750000
11.349666 -3.041090 12.250000
11.749966 0.000010 12.250000
-13.493517 -0.999990 -15.750000
-11.993514 -0.999990 -15.750000
-10.993514 -0.999990 -9.750000
-11.749994 -0.999990 14.750000
-12.249984 -0.999990 14.750000
-1.000034 -10.993490 12.250000
0.999966 -10.993490 12.250000
0.999966 -10.993490 -8.750000
-1.000034 -10.993490 -8.750000
8.308566 8.308520 14.750000
8.308566 8.308520 12.250000
-10.175784 5.875010 -8.750000
-8.308494 8.308520 -8.750000
-8.308494 8.308520 -9.750000
-10.175784 5.875010 -9.750000
8.308566 -8.308490 12.250000
8.308566 -8.308490 14.750000
12.186766 6.890820 14.750000
12.292366 6.950530 15.336700
14.120766 -0.126790 15.336700
-9.520664 5.496780 14.750000
-10.993514 0.000010 14.750000
-10.993514 0.000010 12.250000
-9.520664 5.496780 12.250000
5.496766 9.520690 12.250000
5.496766 9.520690 14.750000
9.520666 5.496780 14.750000
9.520666 5.496780 12.250000
11.224866 1.000010 -13.838910
11.557266 1.000010 -14.815352
11.993566 1.000010 -15.750000
11.993566 -0.999990 -15.750000
11.557266 -0.999990 -14.815352
11.224866 -0.999990 -13.838910
10.929366 -0.999990 -12.321190
10.871066 -0.999990 -11.291380
10.883966 -0.999990 -10.775620
10.993566 -0.999990 -9.750000
10.993566 1.000010 -9.750000
10.883966 1.000010 -10.775620
10.871066 1.000010 -11.291380
10.929366 1.000010 -12.321190
-14.092583 0.126610 15.507700
-14.110145 0.126810 15.422800
-13.554954 -3.501790 15.750000
-13.489856 3.744810 15.750000
-13.579624 3.769730 15.507700
-9.988014 -9.810190 15.750000
-13.479077 1.000010 8.381000
-13.538723 1.000010 7.855200
-13.575927 1.000010 7.327300
-13.590624 1.000010 6.798300
-13.582785 1.000010 6.269100
-13.552425 1.000010 5.740800
-13.499600 1.000010 5.214300
-12.499989 1.000010 -8.750000
-12.433029 1.000010 -9.342930
-12.393454 1.000010 -9.938320
-12.381344 1.000010 -10.534900
-12.396733 1.000010 -11.131400
-12.439581 1.000010 -11.726560
-12.509799 1.000010 -12.319110
-12.607238 1.000010 -12.907810
-12.731692 1.000010 -13.491380
-12.882895 1.000010 -14.068610
-13.060528 1.000010 -14.638260
-13.264213 1.000010 -15.199118
-13.493517 1.000010 -15.750000
-13.493517 -0.999990 -15.750000
-13.264213 -0.999990 -15.199118
-13.060528 -0.999990 -14.638260
-12.882895 -0.999990 -14.068610
-12.731692 -0.999990 -13.491380
-12.607238 -0.999990 -12.907810
-12.509799 -0.999990 -12.319110
-12.439581 -0.999990 -11.726560
-12.396733 -0.999990 -11.131400
-12.381344 -0.999990 -10.534900
-12.393454 -0.999990 -9.938320
-12.433029 -0.999990 -9.342930
-12.499989 -0.999990 -8.750000
-13.499600 -0.999990 5.214300
-13.552425 -0.999990 5.740800
-13.582785 -0.999990 6.269100
-13.590624 -0.999990 6.798300
-13.575927 -0.999990 7.327300
-13.538723 -0.999990 7.855200
-13.479077 -0.999990 8.381000
-13.397098 -0.999990 8.903800
-13.292935 -0.999990 9.422600
-13.166777 -0.999990 9.936600
-13.018853 -0.999990 10.444700
-12.849430 -0.999990 10.946000
-12.658816 -0.999990 11.439700
-12.511630 -0.999990 11.835000
-12.391130 -0.999990 12.239300
-12.297854 -0.999990 12.650700
-12.232214 -0.999990 13.067400
-12.194494 -0.999990 13.487600
-12.184884 -0.999990 13.909300
-12.203404 -0.999990 14.330700
-12.249984 -0.999990 14.750000
-12.249984 1.000010 14.750000
-12.203404 1.000010 14.330700
-12.184884 1.000010 13.909300
-12.194494 1.000010 13.487600
-12.232214 1.000010 13.067400
-12.297854 1.000010 12.650700
-12.391130 1.000010 12.239300
-12.511630 1.000010 11.835000
-12.658816 1.000010 11.439700
-12.849430 1.000010 10.946000
-13.018853 1.000010 10.444700
-13.166777 1.000010 9.936600
-13.292935 1.000010 9.422600
-13.397098 1.000010 8.903800
0.999966 -11.749990 14.750000
0.999966 -11.749990 12.250000
-1.000034 -11.749990 12.250000
-1.000034 -11.749990 14.750000
14.092566 -0.126590 15.507700
12.283166 6.945320 15.422800
12.186766 6.890820 15.750000
13.999466 -0.125790 15.750000
8.308566 -8.308490 -8.750000
3.041166 -11.349590 -8.750000
3.041166 -11.349590 -9.750000
8.308566 -8.308490 -9.750000
-11.749994 0.000010 14.750000
-11.749994 0.000010 12.250000
-10.175784 -5.874990 12.250000
-10.175784 -5.874990 14.750000
3.777266 13.606771 15.163300
3.777266 13.606771 15.336700
3.744766 13.489880 15.750000
7.108666 12.061000 15.750000
7.164866 12.156390 15.422800
10.067066 9.887770 15.422800
10.074566 9.895190 15.163300
-3.041134 11.349640 -8.750000
-8.308494 8.308520 -8.750000
-10.175784 5.875010 -8.750000
-11.749994 0.000010 -8.750000
-10.175784 -5.874990 -8.750000
-5.874984 -10.175790 -8.750000
-0.000034 -11.749990 -8.750000
3.041166 -11.349590 -8.750000
8.308566 -8.308490 -8.750000
11.349666 -3.041090 -8.750000
11.349666 3.041110 -8.750000
8.308566 8.308520 -8.750000
3.041166 11.349640 -8.750000
-0.000034 -11.749990 -8.750000
-0.000034 -11.749990 -9.750000
-11.749994 0.000010 -8.750000
-11.749994 0.000010 -9.750000
-3.777234 -13.606790 15.336700
9.810166 -9.987990 15.750000
0.999966 -11.749990 -8.750000
0.999966 -11.749990 -9.750000
-1.000034 -11.749990 -9.750000
-1.000034 -11.749990 -8.750000
-0.000034 11.750010 12.250000
-0.000034 11.750010 14.750000
-1.000034 11.750010 14.750000
-1.000034 11.750010 12.250000
0.999966 11.750010 12.250000
0.999966 11.750010 14.750000
-0.000034 11.750010 14.750000
-0.000034 11.750010 12.250000
-0.000034 11.750010 -9.750000
-0.000034 11.750010 -8.750000
-1.000034 11.750010 -8.750000
-1.000034 11.750010 -9.750000
3.744766 13.489880 14.750000
-3.501834 13.554978 14.750000
-3.532184 13.672432 15.336700
-3.529534 13.662184 15.422800
0.126766 14.110169 15.422800
0.126866 14.120754 15.336700
3.041166 11.349640 -8.750000
3.041166 11.349640 -9.750000
-0.000034 11.750010 -9.750000
-0.000034 11.750010 -8.750000
10.993566 1.000010 -8.750000
10.993566 1.000010 12.250000
-3.744784 -13.489890 14.750000
-5.874984 -10.175790 -9.750000
-10.175784 -5.874990 -9.750000
-11.749994 0.000010 -9.750000
-10.175784 5.875010 -9.750000
-8.308494 8.308520 -9.750000
-3.041134 11.349640 -9.750000
3.041166 11.349640 -9.750000
8.308566 8.308520 -9.750000
11.349666 3.041110 -9.750000
11.349666 -3.041090 -9.750000
8.308566 -8.308490 -9.750000
3.041166 -11.349590 -9.750000
-0.000034 -11.749990 -9.750000
-10.929354 -0.999990 -12.321190
-11.000324 -0.999990 -12.832200
-11.098924 -0.999990 -13.338610
-11.224874 -0.999990 -13.838910
-11.377794 -0.999990 -14.331650
-11.557244 -0.999990 -14.815352
-11.762684 -0.999990 -15.288601
-11.993514 -0.999990 -15.750000
-11.993514 1.000010 -15.750000
-11.762684 1.000010 -15.288601
-11.557244 1.000010 -14.815352
-11.377794 1.000010 -14.331650
-11.224874 1.000010 -13.838910
-11.098924 1.000010 -13.338610
-11.000324 1.000010 -12.832200
-10.929354 1.000010 -12.321190
-10.886234 1.000010 -11.807070
-10.871084 1.000010 -11.291380
-10.883954 1.000010 -10.775620
-10.924804 1.000010 -10.261320
-10.993514 1.000010 -9.750000
-10.993514 -0.999990 -9.750000
-10.924804 -0.999990 -10.261320
-10.883954 -0.999990 -10.775620
-10.871084 -0.999990 -11.291380
-10.886234 -0.999990 -11.807070
11.749966 -0.999990 14.750000
11.749966 1.000010 14.750000
11.749966 1.000010 12.250000
11.749966 -0.999990 12.250000
-10.175784 -5.874990 12.250000
-11.749994 0.000010 12.250000
-10.175784 5.875010 12.250000
-8.308494 8.308520 12.250000
-3.041134 11.349640 12.250000
3.041166 11.349640 12.250000
8.308566 8.308520 12.250000
11.349666 3.041110 12.250000
11.349666 -3.041090 12.250000
9.520666 -5.496790 12.250000
10.993566 0.000010 12.250000
9.520666 5.496780 12.250000
5.496766 9.520690 12.250000
2.845366 10.618950 12.250000
-2.845334 10.618950 12.250000
-5.496754 9.520690 12.250000
-9.520664 5.496780 12.250000
-10.993514 0.000010 12.250000
-9.520664 -5.496790 12.250000
-5.496754 -9.520690 12.250000
-5.874984 -10.175790 12.250000
10.993566 -0.999990 -9.750000
11.993566 -0.999990 -15.750000
13.493566 -0.999990 -15.750000
12.249966 -0.999990 14.750000
11.749966 -0.999990 14.750000
11.749966 -0.999990 12.250000
10.993566 -0.999990 12.250000
10.993566 -0.999990 -8.750000
11.749966 -0.999990 -8.750000
11.749966 -0.999990 -9.750000
-10.175784 -5.874990 14.750000
-5.874984 -10.175790 14.750000
-0.000034 -11.749990 14.750000
3.041166 -11.349590 14.750000
-0.000034 -10.993490 14.750000
-5.496754 -9.520690 14.750000
-9.520664 -5.496790 14.750000
-10.993514 0.000010 14.750000
-9.520664 5.496780 14.750000
-5.496754 9.520690 14.750000
-2.845334 10.618950 14.750000
2.845366 10.618950 14.750000
5.496766 9.520690 14.750000
9.520666 5.496780 14.750000
10.618966 2.845310 14.750000
11.349666 3.041110 14.750000
8.308566 8.308520 14.750000
3.041166 11.349640 14.750000
-3.041134 11.349640 14.750000
-8.308494 8.308520 14.750000
-10.175784 5.875010 14.750000
-11.749994 0.000010 14.750000
5.496766 -9.520690 14.750000
8.308566 -8.308490 14.750000
11.349666 -3.041090 14.750000
10.993566 0.000010 14.750000
9.520666 -5.496790 14.750000
0.999966 11.762710 -15.288601
0.999966 11.377820 -14.331650
0.999966 11.098950 -13.338610
0.999966 11.000340 -12.832200
0.999966 10.886260 -11.807070
0.999966 10.883980 -10.775620
0.999966 10.993540 -9.750000
-1.000034 10.993540 -9.750000
-1.000034 10.883980 -10.775620
-1.000034 10.886260 -11.807070
-1.000034 11.000340 -12.832200
-1.000034 11.098950 -13.338610
-1.000034 11.377820 -14.331650
-1.000034 11.762710 -15.288601
-1.000034 11.993540 -15.750000
0.999966 11.993540 -15.750000
-5.874984 -10.175790 14.750000
-5.874984 -10.175790 12.250000
-5.496754 9.520690 12.250000
-5.496754 9.520690 14.750000
-8.308494 8.308520 12.250000
-8.308494 8.308520 14.750000
7.108666 12.061000 14.750000
12.186766 6.890820 14.750000
13.999466 -0.125790 14.750000
13.489866 -3.744790 14.750000
9.810166 -9.987990 14.750000
3.501866 -13.554990 14.750000
-3.744784 -13.489890 14.750000
-7.108614 -12.060990 14.750000
-1.000034 -12.249990 14.750000
0.999966 -12.249990 14.750000
0.999966 -11.749990 14.750000
-0.000034 -11.749990 14.750000
3.041166 -11.349590 14.750000
8.308566 -8.308490 14.750000
11.349666 -3.041090 14.750000
11.749966 0.000010 14.750000
11.749966 -0.999990 14.750000
12.249966 -0.999990 14.750000
12.249966 1.000010 14.750000
11.349666 3.041110 14.750000
10.175766 5.875010 14.750000
8.308566 8.308520 14.750000
3.041166 11.349640 14.750000
-0.000034 11.750010 14.750000
0.999966 11.750010 14.750000
0.999966 12.250010 14.750000
-1.000034 12.250010 14.750000
-1.000034 11.750010 14.750000
-6.890794 12.186760 14.750000
0.125766 13.999448 14.750000
-10.993514 -0.999990 -8.750000
-10.993514 -0.999990 12.250000
9.520666 -5.496790 14.750000
5.496766 -9.520690 14.750000
-0.000034 -10.993490 14.750000
-5.496754 -9.520690 14.750000
-9.520664 -5.496790 14.750000
-10.993514 0.000010 14.750000
-9.520664 5.496780 14.750000
-5.496754 9.520690 14.750000
-2.845334 10.618950 14.750000
2.845366 10.618950 14.750000
5.496766 9.520690 14.750000
9.520666 5.496780 14.750000
10.993566 0.000010 14.750000
-10.993514 1.000010 12.250000
-10.993514 1.000010 -8.750000
-0.000034 -11.749990 12.250000
-0.000034 -11.749990 14.750000
0.999966 12.250010 14.750000
0.999966 13.493541 -15.750000
-1.000034 13.493541 -15.750000
-1.000034 12.250010 14.750000
-0.000034 -10.993490 12.250000
-0.000034 -10.993490 14.750000
-12.249984 1.000010 14.750000
-11.349614 3.041110 14.750000
-11.749994 0.000010 14.750000
-11.749994 1.000010 14.750000
0.999966 -13.493490 -15.750000
-1.000034 -13.493490 -15.750000
-1.000034 -11.993490 -15.750000
0.999966 -11.993490 -15.750000
0.999966 -12.297890 12.650700
0.999966 -12.232190 13.067400
0.999966 -12.194490 13.487600
0.999966 -12.184890 13.909300
0.999966 -12.203390 14.330700
0.999966 -12.249990 14.750000
-1.000034 -12.249990 14.750000
-1.000034 -12.203390 14.330700
-1.000034 -12.184890 13.909300
-1.000034 -12.194490 13.487600
-1.000034 -12.232190 13.067400
-1.000034 -12.297890 12.650700
-1.000034 -12.391090 12.239300
-1.000034 -13.166790 9.936600
-1.000034 -13.397090 8.903800
-1.000034 -13.479090 8.381000
-1.000034 -13.575890 7.327300
-1.000034 -13.582790 6.269100
-1.000034 -12.393490 -9.938320
-1.000034 -12.396690 -11.131400
-1.000034 -12.509790 -12.319110
-1.000034 -12.607190 -12.907810
-1.000034 -12.882890 -14.068610
-1.000034 -13.060490 -14.638260
-1.000034 -13.493490 -15.750000
0.999966 -13.493490 -15.750000
0.999966 -13.060490 -14.638260
0.999966 -12.882890 -14.068610
0.999966 -12.607190 -12.907810
0.999966 -12.509790 -12.319110
0.999966 -12.396690 -11.131400
0.999966 -12.393490 -9.938320
0.999966 -13.582790 6.269100
0.999966 -13.575890 7.327300
0.999966 -13.479090 8.381000
0.999966 -13.397090 8.903800
0.999966 -13.166790 9.936600
0.999966 -12.391090 12.239300
11.749966 1.000010 14.750000
0.999966 -10.993490 12.250000
-1.000034 -10.993490 12.250000
-1.000034 -11.749990 12.250000
0.999966 -11.749990 12.250000
-1.000034 -12.249990 14.750000
0.999966 -12.249990 14.750000
0.999966 -11.749990 14.750000
-1.000034 -11.749990 14.750000
-1.000034 -11.749990 14.750000
-12.186734 -6.890790 14.750000
-13.999424 0.125810 14.750000
-13.489856 3.744810 14.750000
-9.810164 9.988030 14.750000
-3.041134 11.349640 14.750000
-8.308494 8.308520 14.750000
-10.175784 5.875010 14.750000
-12.249984 -0.999990 14.750000
-11.749994 -0.999990 14.750000
-10.175784 -5.874990 14.750000
-5.874984 -10.175790 14.750000
-3.501834 13.554978 15.750000
13.579666 -3.769690 15.507700
13.489866 -3.744790 15.750000
-10.993514 1.000010 12.250000
-10.993514 -0.999990 12.250000
-10.993514 -0.999990 -8.750000
-10.993514 1.000010 -8.750000
-1.000034 10.993540 -9.750000
0.999966 10.993540 -9.750000
0.999966 11.750010 -9.750000
-1.000034 11.750010 -9.750000
0.999966 10.993540 -8.750000
-1.000034 10.993540 -8.750000
-1.000034 11.750010 -8.750000
0.999966 11.750010 -8.750000
0.999966 -10.886190 -11.807070
0.999966 -11.098890 -13.338610
0.999966 -11.377790 -14.331650
0.999966 -11.993490 -15.750000
-1.000034 -11.993490 -15.750000
-1.000034 -11.377790 -14.331650
-1.000034 -11.098890 -13.338610
-1.000034 -10.886190 -11.807070
-1.000034 -10.993490 -9.750000
0.999966 -10.993490 -9.750000
-13.489856 3.744810 14.750000
-14.120730 0.126910 15.163300
-13.606747 3.777260 15.163300
-11.993514 -0.999990 -15.750000
-13.493517 -0.999990 -15.750000
-13.493517 1.000010 -15.750000
-11.993514 1.000010 -15.750000
-11.749994 0.000010 14.750000
-11.749994 -0.999990 14.750000
-11.749994 -0.999990 12.250000
-11.749994 0.000010 12.250000
-9.810164 9.988030 14.750000
-9.895164 10.074580 15.163300
-9.895164 10.074580 15.336700
8.308566 8.308520 -8.750000
8.308566 8.308520 -9.750000
-11.749994 1.000010 14.750000
-12.249984 1.000010 14.750000
-12.249984 -0.999990 14.750000
-11.749994 -0.999990 14.750000
-11.749994 0.000010 -8.750000
-11.749994 0.000010 -9.750000
-11.749994 1.000010 -9.750000
-11.749994 1.000010 -8.750000
-11.749994 0.000010 -8.750000
-11.749994 0.000010 -9.750000
-12.141234 7.155940 15.507700
-12.165484 7.170240 15.163300
-11.749994 1.000010 14.750000
-11.749994 0.000010 14.750000
-11.749994 0.000010 12.250000
-11.749994 1.000010 12.250000
9.988066 9.810180 14.750000
-9.810164 9.988030 15.750000
0.999966 11.993540 -15.750000
-1.000034 11.993540 -15.750000
-1.000034 13.493541 -15.750000
0.999966 13.493541 -15.750000
11.749966 0.000010 -8.750000
11.749966 1.000010 -8.750000
11.749966 1.000010 -9.750000
11.749966 0.000010 -9.750000
-1.000034 10.993540 12.250000
0.999966 10.993540 12.250000
0.999966 11.750010 12.250000
-1.000034 11.750010 12.250000
12.249966 -0.999990 14.750000
12.232266 -0.999990 13.067400
13.397166 -0.999990 8.903800
13.590666 -0.999990 6.798300
12.381366 -0.999990 -10.534900
12.731666 -0.999990 -13.491380
13.493566 -0.999990 -15.750000
13.493566 1.000010 -15.750000
12.731666 1.000010 -13.491380
12.381366 1.000010 -10.534900
13.590666 1.000010 6.798300
13.397166 1.000010 8.903800
12.232266 1.000010 13.067400
12.249966 1.000010 14.750000
0.999966 11.750010 14.750000
0.999966 12.250010 14.750000
-1.000034 12.250010 14.750000
-1.000034 11.750010 14.750000
10.993566 -0.999990 -9.750000
11.749966 -0.999990 -9.750000
11.749966 1.000010 -9.750000
10.993566 1.000010 -9.750000
13.489866 -3.744790 15.750000
13.999466 -0.125790 15.750000
12.186766 6.890820 15.750000
7.108666 12.061000 15.750000
0.125766 13.999448 15.750000
-3.501834 13.554978 15.750000
-9.810164 9.988030 15.750000
-13.489856 3.744810 15.750000
-13.999424 0.125810 15.750000
-12.186734 -6.890790 15.750000
-9.988014 -9.810190 15.750000
-3.744784 -13.489890 15.750000
3.501866 -13.554990 15.750000
9.810166 -9.987990 15.750000
4 0 1 2 3
4 4 5 6 7
4 8 9 10 11
4 12 13 14 15
4 16 17 18 19
7 20 21 22 23 24 25 26
4 27 28 29 30
4 31 32 33 34
4 35 36 37 38
10 39 40 41 42 43 44 45 46 47 48
4 49 50 51 52
5 53 24 23 54 55
4 52 51 56 57
10 58 59 60 61 62 63 64 65 66 67
4 68 69 70 71
4 72 73 74 75
4 76 77 78 79
3 80 81 82
7 83 84 85 86 87 88 89
4 90 91 92 93
11 94 95 96 97 98 99 100 101 102 103 104
3 87 86 105
4 106 107 108 54
6 109 110 111 112 113 114
4 115 116 117 118
10 119 120 121 122 123 124 125 126 127 128
4 129 130 131 132
4 133 134 135 136
4 10 137 138 11
6 139 98 97 96 95 140
4 141 142 143 144
10 145 146 147 148 149 150 151 152 153 154
4 155 156 157 158
4 159 160 161 162
4 163 164 165 166
3 167 168 169
4 170 171 172 173
4 174 175 176 177
4 178 179 180 181
4 182 183 184 185
5 186 187 188 189 190
4 191 192 193 194
7 195 196 169 168 197 198 199
7 200 201 202 203 204 205 206
4 207 208 209 210
7 211 212 213 82 81 214 215
4 216 217 218 219
4 220 221 1 0
4 222 223 224 225
4 69 68 226 227
5 109 228 229 230 110
4 231 232 233 234
4 235 236 17 16
4 237 238 9 8
14 239 240 241 242 243 244 245 246 247 248 249 250 251 252
4 208 227 226 209
7 253 254 104 103 255 256 257
6 102 101 100 258 255 103
68 259 260 261 262 263 264 265 266 267 268 269 270 271 272 273 274 275 276 277 278 279 280 281 282 283 284 285 286 287 288 289 290 291 292 293 294 295 296 297 298 299 300 301 302 303 304 305 306 307 308 309 310 311 312 313 314 315 316 317 318 319 320 321 322 323 324 325 326
4 327 328 329 330
6 331 230 229 332 333 334
4 335 336 337 338
4 339 340 341 342
7 343 344 345 346 347 348 349
5 25 24 53 114 113
13 350 351 352 353 354 355 356 357 358 359 360 361 362
4 337 336 363 364
4 365 222 225 366
6 108 107 258 100 99 367
6 106 54 23 22 21 368
4 369 370 371 372
4 373 374 375 376
4 377 378 379 380
4 381 382 383 384
8 385 386 387 388 389 390 344 343
4 391 392 393 394
4 168 167 395 396
5 54 108 367 397 55
13 398 399 400 401 402 403 404 405 406 407 408 409 410
26 411 412 413 414 415 416 417 418 419 420 421 422 423 424 425 426 427 428 429 430 431 432 433 434 435 436
4 437 438 439 440
25 441 442 443 444 445 446 447 448 449 202 201 450 451 452 453 454 455 456 457 458 459 460 206 205 461
10 462 463 464 465 466 467 468 469 470 471
22 472 473 474 475 476 477 478 479 480 481 482 483 484 485 486 487 488 489 490 491 492 493
10 494 476 475 495 496 186 487 486 497 498
16 499 500 501 502 503 504 505 506 507 508 509 510 511 512 513 514
4 515 342 341 516
4 231 234 517 518
4 77 335 338 78
4 75 74 519 520
30 521 522 523 524 525 526 527 528 529 530 531 532 533 534 535 536 537 538 539 540 541 542 543 544 545 546 547 548 549 550
4 237 236 235 238
4 5 520 519 6
4 132 131 224 223
4 80 551 552 81
13 553 554 555 556 557 558 559 560 561 562 563 564 565
4 566 567 105 86
4 568 569 515 516
4 570 571 572 573
4 138 137 574 575
4 574 91 90 575
4 93 92 233 232
4 576 577 578 579
4 19 18 518 517
4 580 581 582 583
38 584 585 586 587 588 589 590 591 592 593 594 595 596 597 598 599 600 601 602 603 604 605 606 607 608 609 610 611 612 613 614 615 616 617 618 619 620 621
4 540 539 622 536
5 397 367 99 98 139
4 623 624 625 626
5 627 628 629 474 630
21 631 529 528 632 633 634 635 549 548 544 636 637 638 577 576 639 640 578 641 642 532
6 344 390 389 388 643 345
4 644 331 334 645
4 646 647 648 649
4 650 651 652 653
4 654 655 656 657
10 658 659 660 661 662 663 664 665 666 667
6 668 140 95 94 669 670
5 348 347 346 333 332
4 671 672 673 674
6 21 20 26 644 645 368
4 675 676 677 678
5 386 679 680 681 387
4 682 191 194 683
5 493 684 685 686 687
4 220 35 38 221
4 56 688 689 57
4 690 691 692 693
7 253 257 694 695 670 669 254
4 696 697 698 699
4 700 385 343 349
7 694 257 256 701 681 680 695
6 228 700 349 348 332 229
9 25 113 112 111 110 230 331 644 26
5 679 668 670 695 680
4 702 703 704 705
4 669 94 104 254
4 706 707 708 709
4 710 711 712 713
14 714 715 716 717 718 719 720 721 722 723 724 725 726 727
5 681 701 643 388 387
4 728 729 730 731
4 732 733 734 735
14 736 737 738 739 740 741 742 743 744 745 746 747 748 749
4 392 391 682 683
