ply
format ascii 1.0
comment Created by Blender 2.82 (sub 7) - www.blender.org, source file: ''
element vertex 1355
property float x
property float y
property float z
element face 219
property list uchar uint vertex_indices
end_header
7.962850 -46.358398 6.889750
7.962850 -47.441399 6.889750
-7.962850 -47.441399 6.889750
-7.962850 -46.358398 6.889750
-12.293550 49.199001 7.181550
-12.293550 49.097099 7.005050
12.293550 49.097099 7.005050
12.293550 49.199001 7.181550
12.293550 49.199001 7.385350
12.293550 49.199001 7.181550
-12.293550 49.199001 7.181550
-12.293550 49.199001 7.385350
1.990750 47.440701 6.889750
0.995350 47.440701 6.889750
0.995350 46.292999 2.653850
1.990750 46.292999 2.653850
7.962850 45.644501 -5.804830
7.962850 45.560398 -5.695180
-7.962850 45.560398 -5.695180
-7.962850 45.644501 -5.804830
-7.962850 44.811600 -6.443940
7.962850 44.811600 -6.443940
7.962850 45.049000 -6.580970
-7.962850 45.049000 -6.580970
-12.293550 -49.016399 7.624450
12.293550 -49.016399 7.624450
12.293550 -49.160400 7.480350
-12.293550 -49.160400 7.480350
12.293550 -46.072399 -4.218020
12.293550 -46.358398 6.889750
12.293550 -47.441399 6.889750
12.293550 -47.441399 -5.176580
12.293550 -46.206402 -7.040464
12.293550 -45.275398 -7.677150
12.293550 -0.000400 6.102350
12.293550 45.275398 -7.677150
12.293550 47.440701 -3.346440
12.293550 47.440701 6.889750
12.293550 46.358101 6.889750
12.293550 46.311199 -4.109750
12.293550 46.155602 -4.461970
12.293550 45.464401 -4.713550
12.293550 -0.000400 6.889750
12.293550 -45.427399 -4.830430
12.293550 -45.759399 -4.628750
-7.962850 0.101600 6.115750
7.962850 0.101600 6.115750
7.962850 -0.102400 6.115750
-7.962850 -0.102400 6.115750
-7.962850 44.811600 -5.695180
7.962850 44.811600 -5.695180
7.962850 45.049000 -5.558150
-7.962850 45.049000 -5.558150
7.962850 -46.358398 6.889750
-7.962850 -46.358398 6.889750
-7.962850 -47.441399 6.889750
7.962850 -47.441399 6.889750
7.962850 47.440701 6.889750
-7.962850 47.440701 6.889750
-7.962850 47.062500 6.087950
-7.962850 46.749599 5.258450
-7.962850 46.504101 4.406550
-7.962850 46.327702 3.537650
-7.962850 46.221298 2.657550
7.962850 46.221298 2.657550
7.962850 46.327702 3.537650
7.962850 46.504101 4.406550
7.962850 46.749599 5.258450
7.962850 47.062500 6.087950
-12.293550 -46.427399 -6.861485
-12.293550 -46.001400 -7.235028
-12.293550 -45.769402 -7.398936
-12.293550 -45.527401 -7.546543
-12.293550 -45.275398 -7.677150
-7.962850 -45.275398 -7.677150
-7.962850 -45.527401 -7.546543
-7.962850 -45.769402 -7.398936
-7.962850 -46.001400 -7.235028
-7.962850 -46.427399 -6.861485
-7.962850 -46.620399 -6.653620
-7.962850 -46.961399 -6.200610
-12.293550 -46.961399 -6.200610
-12.293550 -46.620399 -6.653620
-7.962850 45.560398 -6.443940
7.962850 45.560398 -6.443940
7.962850 45.323101 -6.580970
-7.962850 45.323101 -6.580970
-7.962850 -44.780399 -6.276330
7.962850 -44.780399 -6.276330
7.962850 -44.855400 -6.406050
-7.962850 -44.855400 -6.406050
12.293550 46.653301 1.771670
12.293550 46.851299 -0.817490
12.293550 47.440701 -3.346440
7.962850 47.440701 -3.346440
7.962850 46.851299 -0.817490
7.962850 46.653301 1.771670
7.962850 46.851299 4.360850
7.962850 47.440701 6.889750
12.293550 47.440701 6.889750
12.293550 46.851299 4.360850
7.962850 -45.204399 -5.950840
-7.962850 -45.204399 -5.950840
-7.962850 -45.264400 -5.996820
7.962850 -45.264400 -5.996820
-0.995350 -46.330399 1.885340
-0.995350 -46.586399 3.926850
-0.995350 -47.094398 5.920550
-0.995350 -47.441399 6.889750
-1.990650 -47.441399 6.889750
-1.990650 -47.094398 5.920550
-1.990650 -46.586399 3.926850
-1.990650 -46.330399 1.885340
-1.990650 -46.330399 -0.172140
-0.995350 -46.330399 -0.172140
12.293550 -46.072399 -4.218020
7.962850 -46.072399 -4.218020
7.962850 -46.156399 -3.972430
7.962850 -46.178398 -3.844320
7.962850 -46.186401 -3.714600
7.962850 -46.180401 -3.584750
12.293550 -46.180401 -3.584750
12.293550 -46.186401 -3.714600
12.293550 -46.178398 -3.844320
12.293550 -46.156399 -3.972430
12.293550 44.201599 -4.547280
12.293550 44.372299 -4.617990
12.293550 44.728901 -4.713550
7.962850 44.728901 -4.713550
7.962850 44.372299 -4.617990
7.962850 44.201599 -4.547280
7.962850 44.037800 -4.461970
12.293550 44.037800 -4.461970
-7.962850 -36.868401 -2.154110
-7.962850 -33.885399 -0.615930
-7.962850 -30.825399 0.763410
-7.962850 -24.510401 3.030750
-7.962850 -17.991400 4.622850
-7.962850 -11.342400 5.522150
-7.962850 -7.990400 5.708550
7.962850 -7.990400 5.708550
7.962850 -11.342400 5.522150
7.962850 -17.991400 4.622850
7.962850 -24.510401 3.030750
7.962850 -30.825399 0.763410
7.962850 -33.885399 -0.615930
7.962850 -36.868401 -2.154110
7.962850 -42.571400 -5.689610
7.962850 -45.275398 -7.677150
-7.962850 -45.275398 -7.677150
-7.962850 -42.571400 -5.689610
-7.962850 46.306999 -4.320970
-7.962850 46.370998 -4.132630
-7.962850 46.408600 -3.937290
-12.293550 46.408600 -3.937290
-12.293550 46.370998 -4.132630
-12.293550 46.306999 -4.320970
-12.293550 46.217701 -4.498730
-7.962850 46.217701 -4.498730
-7.962850 -46.358398 6.889750
-12.293550 -46.358398 6.889750
-12.293550 -47.441399 6.889750
-7.962850 -47.441399 6.889750
7.962850 47.440701 6.889750
7.962850 46.749599 5.258450
7.962850 46.504101 4.406550
7.962850 46.221298 2.657550
-7.962850 46.221298 2.657550
-7.962850 46.504101 4.406550
-7.962850 46.749599 5.258450
-7.962850 47.440701 6.889750
-7.962850 47.440701 6.889750
-12.293550 47.440701 6.889750
-12.293550 46.358101 6.889750
-7.962850 46.358101 6.889750
-0.995350 -47.094398 -4.207350
-0.995350 -46.809399 -3.218420
-0.995350 -46.586399 -2.213630
-0.995350 -46.426399 -1.196880
-1.990650 -46.426399 -1.196880
-1.990650 -46.586399 -2.213630
-1.990650 -46.809399 -3.218420
-1.990650 -47.094398 -4.207350
-1.990650 -47.441399 -5.176580
-0.995350 -47.441399 -5.176580
7.962850 -0.341400 6.692950
7.962850 -0.394400 6.496050
7.962850 -0.341400 6.299250
7.962850 -0.197400 6.155150
7.962850 -0.102400 6.115750
7.962850 0.101600 6.115750
7.962850 0.278600 6.217650
7.962850 0.340600 6.299250
7.962850 0.393600 6.496050
7.962850 0.340600 6.692950
7.962850 0.278600 6.774450
7.962850 0.101600 6.876350
7.962850 -0.102400 6.876350
7.962850 -0.197400 6.837050
-7.962850 45.323101 -5.558150
7.962850 45.323101 -5.558150
-7.962850 47.440701 -3.346440
-7.962850 46.292999 2.653850
-7.962850 47.440701 6.889750
-7.962850 46.221298 2.657550
1.990750 -46.330399 1.885340
1.990750 -46.586399 3.926850
1.990750 -47.094398 5.920550
1.990750 -47.441399 6.889750
0.995350 -47.441399 6.889750
0.995350 -47.094398 5.920550
0.995350 -46.586399 3.926850
0.995350 -46.330399 1.885340
0.995350 -46.330399 -0.172140
1.990750 -46.330399 -0.172140
12.293550 -46.358398 6.889750
-12.293550 -46.358398 6.889750
-12.293550 46.358101 6.889750
7.962850 46.358101 6.889750
12.293550 46.358101 6.889750
7.962850 44.811600 -5.695180
7.962850 44.674599 -5.932530
-7.962850 44.674599 -5.932530
-7.962850 44.811600 -5.695180
7.962850 46.292999 0.889520
7.962850 46.292999 2.653850
1.990750 46.292999 2.653850
1.990750 46.292999 0.889520
1.990750 46.558701 -0.854640
1.990750 47.440701 -3.346440
7.962850 47.440701 -3.346440
7.962850 46.558701 -0.854640
12.293550 46.356800 -3.922350
12.293550 46.379902 -3.730880
12.293550 46.380402 -3.538010
12.293550 46.358101 -3.346440
7.962850 46.358101 -3.346440
7.962850 46.380402 -3.538010
7.962850 46.379902 -3.730880
7.962850 46.356800 -3.922350
-12.293550 44.101398 -4.498730
-12.293550 42.044300 -3.310940
-12.293550 34.101700 0.316650
-12.293550 25.850201 3.172750
-12.293550 17.364599 5.231550
-7.962850 17.364599 5.231550
-7.962850 25.850201 3.172750
-7.962850 34.101700 0.316650
-7.962850 42.044300 -3.310940
-7.962850 44.101398 -4.498730
7.962850 -44.984402 -6.480940
-7.962850 -44.984402 -6.480940
12.293550 -47.225399 -5.698420
12.293550 -47.441399 -5.176580
7.962850 -47.441399 -5.176580
7.962850 -47.225399 -5.698420
7.962850 -46.944401 -6.188290
7.962850 -46.602402 -6.638110
7.962850 -46.206402 -7.040464
12.293550 -46.206402 -7.040464
12.293550 -46.602402 -6.638110
12.293550 -46.944401 -6.188290
7.962850 -23.663401 2.581250
7.962850 -15.904400 4.531050
7.962850 -0.000400 6.102350
12.293550 -0.000400 6.102350
12.293550 -15.904400 4.531050
12.293550 -23.663401 2.581250
12.293550 -31.193399 -0.122080
12.293550 -45.275398 -7.677150
7.962850 -45.275398 -7.677150
7.962850 -31.193399 -0.122080
7.962850 -46.788399 4.935150
7.962850 -46.558399 3.930450
7.962850 -46.392399 2.912950
7.962850 -46.293400 1.886910
-7.962850 -46.293400 1.886910
-7.962850 -46.392399 2.912950
-7.962850 -46.558399 3.930450
-7.962850 -46.788399 4.935150
-7.962850 -47.083401 5.923050
-7.962850 -47.441399 6.889750
7.962850 -47.441399 6.889750
7.962850 -47.083401 5.923050
7.962850 0.278600 6.774450
7.962850 0.340600 6.692950
-7.962850 0.340600 6.692950
-7.962850 0.278600 6.774450
7.962850 45.464401 -4.713550
12.293550 45.464401 -4.713550
12.293550 45.644798 -4.673550
12.293550 45.820999 -4.617990
12.293550 46.155602 -4.461970
7.962850 46.155602 -4.461970
7.962850 45.820999 -4.617990
7.962850 45.644798 -4.673550
-7.962850 -0.197400 6.837050
7.962850 -0.197400 6.837050
7.962850 -0.102400 6.876350
-7.962850 -0.102400 6.876350
7.962850 0.393600 6.496050
7.962850 0.340600 6.299250
-7.962850 0.340600 6.299250
-7.962850 0.393600 6.496050
-12.293550 45.527100 -4.750130
-12.293550 45.344002 -4.774230
-12.293550 45.159599 -4.782290
-7.962850 45.159599 -4.782290
-7.962850 45.344002 -4.774230
-7.962850 45.527100 -4.750130
-7.962850 45.707298 -4.710170
-7.962850 45.883400 -4.654650
-7.962850 46.054001 -4.583990
-7.962850 46.217701 -4.498730
-12.293550 46.217701 -4.498730
-12.293550 46.054001 -4.583990
-12.293550 45.883400 -4.654650
-12.293550 45.707298 -4.710170
7.962850 44.921299 -5.611040
7.962850 44.727501 -5.804830
7.962850 42.570999 -5.689610
7.962850 39.765800 -3.846900
-12.293550 -23.663401 2.581250
-12.293550 -15.904400 4.531050
-12.293550 -0.000400 6.102350
-7.962850 -0.000400 6.102350
-7.962850 -15.904400 4.531050
-7.962850 -23.663401 2.581250
-7.962850 -31.193399 -0.122080
-7.962850 -45.275398 -7.677150
-12.293550 -45.275398 -7.677150
-12.293550 -31.193399 -0.122080
12.293550 -44.208401 -4.560150
7.962850 -44.208401 -4.560150
7.962850 -45.427399 -4.830430
12.293550 -45.427399 -4.830430
-7.962850 -46.358398 6.889750
-7.962850 -47.441399 6.889750
-7.962850 -46.293400 1.886910
-7.962850 -47.441399 -5.176580
-7.962850 -46.961399 -6.200610
-7.962850 -45.339401 -6.126540
-7.962850 -45.264400 -5.996820
-7.962850 -45.204399 -5.950840
-7.962850 -45.059399 -5.912070
-7.962850 -44.984402 -5.921930
-7.962850 -44.855400 -5.996820
-7.962850 -44.780399 -6.126540
-7.962850 -44.780399 -6.276330
-7.962850 -42.571400 -5.689610
-7.962850 -0.000400 6.102350
-7.962850 -0.197400 6.155150
-7.962850 -0.341400 6.299250
-7.962850 -0.394400 6.496050
-7.962850 -0.341400 6.692950
-7.962850 -0.197400 6.837050
-7.962850 -0.000400 6.889750
-7.962850 -45.422401 -4.725720
-7.962850 -46.044399 -3.906090
-7.962850 0.101600 6.876350
7.962850 0.101600 6.876350
-7.962850 46.062901 -0.794950
-7.962850 45.975300 0.915380
-7.962850 45.975300 2.627950
-7.962850 46.062901 4.338250
-7.962850 46.139500 5.191250
-7.962850 46.237900 6.041850
-7.962850 46.358101 6.889750
-12.293550 46.358101 6.889750
-12.293550 46.237900 6.041850
-12.293550 46.139500 5.191250
-12.293550 46.062901 4.338250
-12.293550 45.975300 2.627950
-12.293550 45.975300 0.915380
-12.293550 46.062901 -0.794950
-12.293550 46.139500 -1.647870
-12.293550 46.237900 -2.498550
-12.293550 46.358101 -3.346440
-7.962850 46.358101 -3.346440
-7.962850 46.237900 -2.498550
-7.962850 46.139500 -1.647870
7.962850 46.358101 6.889750
-12.293550 46.358101 6.889750
-12.293550 -46.358398 6.889750
12.293550 -46.358398 6.889750
12.293550 46.358101 6.889750
12.293550 49.199001 7.385350
-12.293550 49.199001 7.385350
12.293550 48.920601 6.903150
-12.293550 48.920601 6.903150
-12.293550 49.097099 7.005050
12.293550 49.097099 7.005050
12.293550 49.097099 7.561850
-12.293550 49.097099 7.561850
7.962850 45.323101 -5.558150
-7.962850 45.323101 -5.558150
7.962850 44.674599 -6.206590
-7.962850 44.674599 -6.206590
12.293550 -49.016399 6.942550
-12.293550 -49.016399 6.942550
-12.293550 -48.819401 6.889750
12.293550 -48.819401 6.889750
-12.293550 48.920601 7.663750
12.293550 48.920601 7.663750
-7.962850 24.509600 3.030750
-7.962850 45.275398 -7.677150
-7.962850 46.333801 -6.418830
-7.962850 47.440701 -3.346440
-7.962850 47.440701 6.889750
-7.962850 46.358101 6.889750
-7.962850 46.217701 -4.498730
-7.962850 45.159599 -4.782290
-7.962850 34.101700 0.316650
-7.962850 17.364599 5.231550
-7.962850 -0.000400 6.889750
-7.962850 0.101600 6.876350
-7.962850 0.278600 6.774450
-7.962850 0.340600 6.692950
-7.962850 0.393600 6.496050
-7.962850 0.340600 6.299250
-7.962850 0.278600 6.217650
-7.962850 0.101600 6.115750
-7.962850 -0.000400 6.102350
7.962850 -44.984402 -5.921930
-7.962850 -44.984402 -5.921930
-7.962850 -45.059399 -5.912070
7.962850 -45.059399 -5.912070
12.293550 -34.102402 0.316650
12.293550 -25.850401 3.172750
12.293550 -17.365400 5.231550
7.962850 -17.365400 5.231550
7.962850 -25.850401 3.172750
7.962850 -34.102402 0.316650
7.962850 -42.044399 -3.310940
7.962850 -44.208401 -4.560150
12.293550 -44.208401 -4.560150
12.293550 -42.044399 -3.310940
7.962850 30.825100 0.763410
7.962850 36.867802 -2.154110
7.962850 42.570999 -5.689610
7.962850 45.275398 -7.677150
-7.962850 45.275398 -7.677150
-7.962850 42.570999 -5.689610
-7.962850 36.867802 -2.154110
-7.962850 30.825100 0.763410
-7.962850 24.509600 3.030750
-7.962850 17.991100 4.622850
-7.962850 11.341600 5.522150
-7.962850 7.990600 5.708550
7.962850 7.990600 5.708550
7.962850 11.341600 5.522150
7.962850 17.991100 4.622850
7.962850 24.509600 3.030750
12.293550 25.850201 3.172750
12.293550 34.101700 0.316650
12.293550 42.044300 -3.310940
12.293550 44.037800 -4.461970
7.962850 44.037800 -4.461970
7.962850 42.044300 -3.310940
7.962850 34.101700 0.316650
7.962850 25.850201 3.172750
7.962850 17.364599 5.231550
12.293550 17.364599 5.231550
-7.962850 -44.855400 -6.406050
-7.962850 -44.984402 -6.480940
-7.962850 -45.059399 -6.490800
-7.962850 -45.204399 -6.452030
-7.962850 -45.264400 -6.406050
-7.962850 -45.339401 -6.276330
-7.962850 -45.275398 -7.677150
7.962850 46.379902 -3.730880
7.962850 45.975300 2.627950
7.962850 46.358101 6.889750
7.962850 47.440701 6.889750
7.962850 46.221298 2.657550
7.962850 47.440701 -3.346440
7.962850 45.275398 -7.677150
7.962850 44.674599 -5.932530
7.962850 44.674599 -6.206590
7.962850 44.811600 -6.443940
7.962850 45.049000 -6.580970
7.962850 45.323101 -6.580970
7.962850 45.560398 -6.443940
7.962850 45.644501 -6.334280
7.962850 45.715500 -6.069560
7.962850 45.644501 -5.804830
7.962850 45.560398 -5.695180
7.962850 45.323101 -5.558150
7.962850 45.186001 -5.540100
7.962850 17.991100 4.622850
7.962850 -0.000400 6.102350
7.962850 0.101600 6.115750
7.962850 0.278600 6.217650
7.962850 0.340600 6.299250
7.962850 0.393600 6.496050
7.962850 0.340600 6.692950
7.962850 0.278600 6.774450
7.962850 0.101600 6.876350
7.962850 -0.000400 6.889750
7.962850 17.364599 5.231550
7.962850 44.728901 -4.713550
7.962850 45.464401 -4.713550
7.962850 46.155602 -4.461970
-7.962850 -47.441399 -5.176580
-7.962850 -46.788399 -3.221990
-7.962850 -46.392399 -1.199750
-7.962850 -46.293400 -0.173710
7.962850 -46.293400 -0.173710
7.962850 -46.392399 -1.199750
7.962850 -46.788399 -3.221990
7.962850 -47.441399 -5.176580
-7.962850 46.358101 -3.346440
-12.293550 46.358101 -3.346440
-7.962850 47.440701 6.889750
-7.962850 47.440701 -3.346440
-12.293550 47.440701 -3.346440
-12.293550 47.440701 6.889750
7.962850 0.393600 6.496050
7.962850 0.340600 6.299250
7.962850 0.278600 6.217650
7.962850 0.101600 6.115750
7.962850 -0.102400 6.115750
7.962850 -0.197400 6.155150
7.962850 -0.341400 6.299250
7.962850 -0.394400 6.496050
7.962850 -0.341400 6.692950
7.962850 -0.197400 6.837050
7.962850 -0.102400 6.876350
7.962850 0.101600 6.876350
7.962850 0.278600 6.774450
7.962850 0.340600 6.692950
-7.962850 47.440701 -3.346440
-7.962850 46.333801 -6.418830
-12.293550 46.333801 -6.418830
-12.293550 47.440701 -3.346440
7.962850 -33.745399 -0.936750
7.962850 -30.684401 0.407620
7.962850 -27.564400 1.609540
7.962850 -24.392401 2.666450
7.962850 -21.175400 3.576150
7.962850 -17.919399 4.336650
7.962850 -14.632400 4.946350
7.962850 -11.320400 5.404050
7.962850 -7.990400 5.708550
-7.962850 -7.990400 5.708550
-7.962850 -11.320400 5.404050
-7.962850 -14.632400 4.946350
-7.962850 -17.919399 4.336650
-7.962850 -21.175400 3.576150
-7.962850 -24.392401 2.666450
-7.962850 -27.564400 1.609540
-7.962850 -30.684401 0.407620
-7.962850 -33.745399 -0.936750
-7.962850 -39.666401 -4.041090
-7.962850 -45.275398 -7.677150
7.962850 -45.275398 -7.677150
7.962850 -39.666401 -4.041090
-1.990650 -47.094398 -4.207350
-1.990650 -46.809399 -3.218420
-1.990650 -46.586399 -2.213630
-1.990650 -46.426399 -1.196880
-1.990650 -46.330399 -0.172140
-7.962850 -46.330399 -0.172140
-7.962850 -46.426399 -1.196880
-7.962850 -46.586399 -2.213630
-7.962850 -46.809399 -3.218420
-7.962850 -47.094398 -4.207350
-7.962850 -47.441399 -5.176580
-1.990650 -47.441399 -5.176580
12.293550 46.062901 -0.794950
12.293550 46.008202 0.059660
12.293550 45.975300 0.915380
12.293550 45.975300 2.627950
12.293550 46.008202 3.483650
12.293550 46.062901 4.338250
12.293550 46.139500 5.191250
12.293550 46.237900 6.041850
12.293550 46.358101 6.889750
7.962850 46.358101 6.889750
7.962850 46.237900 6.041850
7.962850 46.139500 5.191250
7.962850 46.062901 4.338250
7.962850 46.008202 3.483650
7.962850 45.975300 2.627950
7.962850 45.975300 0.915380
7.962850 46.008202 0.059660
7.962850 46.062901 -0.794950
7.962850 46.139500 -1.647870
7.962850 46.237900 -2.498550
7.962850 46.358101 -3.346440
12.293550 46.358101 -3.346440
12.293550 46.237900 -2.498550
12.293550 46.139500 -1.647870
12.293550 47.440701 6.889750
7.962850 47.440701 6.889750
7.962850 46.358101 6.889750
12.293550 46.358101 6.889750
-7.962850 45.275398 -7.677150
-12.293550 45.275398 -7.677150
-7.962850 -24.510401 3.030750
-7.962850 -36.868401 -2.154110
-7.962850 -45.275398 -7.677150
7.962850 -45.275398 -7.677150
7.962850 -36.868401 -2.154110
7.962850 -24.510401 3.030750
7.962850 -17.991400 4.622850
7.962850 -7.990400 5.708550
-7.962850 -7.990400 5.708550
-7.962850 -17.991400 4.622850
-0.995350 46.292999 2.653850
-1.990650 46.292999 2.653850
-1.990650 47.440701 -3.346440
-0.995350 47.440701 -3.346440
12.293550 48.920601 6.903150
12.293550 -48.921398 6.903150
12.293550 -49.016399 6.942550
12.293550 -49.160400 7.086650
12.293550 -49.199402 7.181550
12.293550 -49.199402 7.385350
12.293550 -49.160400 7.480350
12.293550 -49.016399 7.624450
12.293550 -48.921398 7.663750
12.293550 48.920601 7.663750
12.293550 49.097099 7.561850
12.293550 49.199001 7.385350
12.293550 49.199001 7.181550
12.293550 49.097099 7.005050
-12.293550 48.818699 7.677150
12.293550 48.818699 7.677150
-12.293550 48.920601 6.903150
-12.293550 -48.921398 6.903150
-12.293550 -49.016399 6.942550
-12.293550 -49.160400 7.086650
-12.293550 -49.199402 7.181550
-12.293550 -49.199402 7.385350
-12.293550 -49.160400 7.480350
-12.293550 -49.016399 7.624450
-12.293550 -48.921398 7.663750
-12.293550 48.920601 7.663750
-12.293550 49.097099 7.561850
-12.293550 49.199001 7.385350
-12.293550 49.199001 7.181550
-12.293550 49.097099 7.005050
12.293550 46.155602 -4.461970
12.293550 46.243801 -4.290460
12.293550 46.311199 -4.109750
7.962850 46.311199 -4.109750
7.962850 46.243801 -4.290460
7.962850 46.155602 -4.461970
-12.293550 49.199001 7.181550
-12.293550 49.199001 7.385350
-12.293550 49.097099 7.561850
-12.293550 48.920601 7.663750
-12.293550 -48.921398 7.663750
-12.293550 -49.016399 7.624450
-12.293550 -49.160400 7.480350
-12.293550 -49.199402 7.385350
-12.293550 -49.199402 7.181550
-12.293550 -49.160400 7.086650
-12.293550 -49.016399 6.942550
-12.293550 -48.921398 6.903150
-12.293550 48.920601 6.903150
-12.293550 49.097099 7.005050
12.293550 47.440701 6.889750
-7.962850 47.440701 6.889750
-12.293550 47.440701 6.889750
-12.293550 48.818699 6.889750
12.293550 48.818699 6.889750
7.962850 47.440701 6.889750
-7.962850 46.358101 6.889750
-1.990650 -46.330399 1.885340
-1.990650 -46.586399 3.926850
-1.990650 -47.094398 5.920550
-1.990650 -47.441399 6.889750
-7.962850 -47.441399 6.889750
-7.962850 -47.094398 5.920550
-7.962850 -46.586399 3.926850
-7.962850 -46.330399 1.885340
-12.293550 -47.441399 6.889750
-12.293550 -47.441399 6.889750
12.293550 -47.441399 6.889750
12.293550 -48.819401 6.889750
-12.293550 -48.819401 6.889750
-7.962850 46.358101 6.889750
7.962850 47.440701 6.889750
12.293550 47.440701 6.889750
-7.962850 47.440701 6.889750
7.962850 47.440701 -3.346440
-7.962850 47.440701 -3.346440
12.293550 48.818699 6.889750
-12.293550 48.818699 6.889750
-12.293550 -49.160400 7.086650
-12.293550 -49.199402 7.181550
12.293550 -49.199402 7.181550
12.293550 -49.160400 7.086650
-7.962850 -44.780399 -6.126540
7.962850 -44.780399 -6.126540
0.995350 -47.094398 -4.207350
0.995350 -46.809399 -3.218420
0.995350 -46.586399 -2.213630
0.995350 -46.426399 -1.196880
0.995350 -46.330399 -0.172140
-0.995350 -46.330399 -0.172140
-0.995350 -46.426399 -1.196880
-0.995350 -46.586399 -2.213630
-0.995350 -46.809399 -3.218420
-0.995350 -47.094398 -4.207350
-0.995350 -47.441399 -5.176580
0.995350 -47.441399 -5.176580
7.962850 -0.197400 6.155150
7.962850 -0.341400 6.299250
-7.962850 -0.341400 6.299250
-7.962850 -0.197400 6.155150
-7.962850 -0.341400 6.692950
7.962850 -0.341400 6.692950
-7.962850 -45.264400 -6.406050
7.962850 -45.264400 -6.406050
7.962850 -45.339401 -6.276330
-7.962850 -45.339401 -6.276330
-1.990650 46.292999 2.653850
-0.995350 46.292999 2.653850
-0.995350 47.440701 -3.346440
-1.990650 47.440701 -3.346440
-0.995350 47.440701 6.889750
0.995350 47.440701 6.889750
0.995350 46.292999 2.653850
-0.995350 46.292999 2.653850
7.962850 -8.722400 6.474250
12.293550 -8.722400 6.474250
12.293550 -0.000400 6.889750
12.293550 8.721600 6.474250
7.962850 8.721600 6.474250
7.962850 -0.000400 6.889750
7.962850 45.560398 -5.695180
-7.962850 45.560398 -5.695180
-7.962850 45.715500 -6.069560
-7.962850 45.644501 -5.804830
7.962850 45.644501 -5.804830
7.962850 45.715500 -6.069560
0.995350 -46.330399 1.885340
0.995350 -46.586399 3.926850
0.995350 -47.094398 5.920550
0.995350 -47.441399 6.889750
-0.995350 -47.441399 6.889750
-0.995350 -47.094398 5.920550
-0.995350 -46.586399 3.926850
-0.995350 -46.330399 1.885340
0.995350 46.292999 2.653850
1.990750 46.292999 2.653850
1.990750 47.440701 -3.346440
0.995350 47.440701 -3.346440
7.962850 45.323101 -6.580970
7.962850 45.560398 -6.443940
-7.962850 45.560398 -6.443940
-7.962850 45.323101 -6.580970
-1.990650 47.440701 6.889750
-0.995350 47.440701 6.889750
7.962850 -45.059399 -6.490800
-7.962850 -45.059399 -6.490800
-7.962850 45.715500 -6.069560
7.962850 45.715500 -6.069560
-7.962850 -45.204399 -6.452030
7.962850 -45.204399 -6.452030
7.962850 0.278600 6.217650
7.962850 0.340600 6.299250
7.962850 0.393600 6.496050
7.962850 0.340600 6.692950
7.962850 0.278600 6.774450
7.962850 0.101600 6.876350
7.962850 -0.102400 6.876350
7.962850 -0.197400 6.837050
7.962850 -0.341400 6.692950
7.962850 -0.394400 6.496050
7.962850 -0.341400 6.299250
7.962850 -0.197400 6.155150
7.962850 -0.102400 6.115750
7.962850 0.101600 6.115750
-7.962850 -0.102400 6.115750
-7.962850 0.101600 6.115750
-7.962850 0.278600 6.217650
-7.962850 0.340600 6.299250
-7.962850 0.393600 6.496050
-7.962850 0.340600 6.692950
-7.962850 0.278600 6.774450
-7.962850 0.101600 6.876350
-7.962850 -0.102400 6.876350
-7.962850 -0.197400 6.837050
-7.962850 -0.341400 6.692950
-7.962850 -0.394400 6.496050
-7.962850 -0.341400 6.299250
-7.962850 -0.197400 6.155150
-7.962850 -34.102402 0.316650
-7.962850 -25.850401 3.172750
-7.962850 -17.365400 5.231550
-12.293550 -17.365400 5.231550
-12.293550 -25.850401 3.172750
-12.293550 -34.102402 0.316650
-12.293550 -42.044399 -3.310940
-12.293550 -44.208401 -4.560150
-7.962850 -44.208401 -4.560150
-7.962850 -42.044399 -3.310940
7.962850 -0.341400 6.692950
7.962850 -0.197400 6.837050
7.962850 -0.102400 6.876350
7.962850 0.101600 6.876350
7.962850 0.278600 6.774450
7.962850 0.340600 6.692950
7.962850 0.393600 6.496050
7.962850 0.340600 6.299250
7.962850 0.278600 6.217650
7.962850 0.101600 6.115750
7.962850 -0.102400 6.115750
7.962850 -0.197400 6.155150
7.962850 -0.341400 6.299250
7.962850 -0.394400 6.496050
7.962850 -27.564400 1.609540
7.962850 -33.745399 -0.936750
7.962850 -39.666401 -4.041090
7.962850 -45.275398 -7.677150
-7.962850 -45.275398 -7.677150
-7.962850 -39.666401 -4.041090
-7.962850 -33.745399 -0.936750
-7.962850 -27.564400 1.609540
-7.962850 -21.175400 3.576150
-7.962850 -14.632400 4.946350
-7.962850 -7.990400 5.708550
7.962850 -7.990400 5.708550
7.962850 -14.632400 4.946350
7.962850 -21.175400 3.576150
7.962850 -45.275398 -7.677150
12.293550 -45.275398 -7.677150
7.962850 0.278600 6.217650
-7.962850 0.278600 6.217650
-7.962850 -47.004398 -3.190770
-7.962850 -46.741402 -1.174680
-7.962850 -46.675400 -0.159990
-7.962850 -46.653400 0.856600
-7.962850 -46.675400 1.873190
-7.962850 -46.741402 2.887850
-7.962850 -46.851398 3.898750
-7.962850 -47.004398 4.903950
-7.962850 -47.201401 5.901550
-7.962850 -47.441399 6.889750
-12.293550 -47.441399 6.889750
-12.293550 -47.201401 5.901550
-12.293550 -47.004398 4.903950
-12.293550 -46.851398 3.898750
-12.293550 -46.741402 2.887850
-12.293550 -46.675400 1.873190
-12.293550 -46.653400 0.856600
-12.293550 -46.675400 -0.159990
-12.293550 -46.741402 -1.174680
-12.293550 -47.004398 -3.190770
-12.293550 -47.201401 -4.188390
-12.293550 -47.441399 -5.176580
-7.962850 -47.441399 -5.176580
-7.962850 -47.201401 -4.188390
7.962850 -0.394400 6.496050
-7.962850 -0.394400 6.496050
-7.962850 -0.341400 6.692950
-7.962850 -0.394400 6.496050
-7.962850 -0.341400 6.299250
-7.962850 -0.197400 6.155150
-7.962850 -0.102400 6.115750
-7.962850 0.101600 6.115750
-7.962850 0.278600 6.217650
-7.962850 0.340600 6.299250
-7.962850 0.393600 6.496050
-7.962850 0.340600 6.692950
-7.962850 0.278600 6.774450
-7.962850 0.101600 6.876350
-7.962850 -0.102400 6.876350
-7.962850 -0.197400 6.837050
12.293550 -49.016399 6.942550
-12.293550 -49.016399 6.942550
-12.293550 31.192600 -0.122080
-12.293550 38.420200 -3.552620
-12.293550 45.275398 -7.677150
-7.962850 45.275398 -7.677150
-7.962850 38.420200 -3.552620
-7.962850 31.192600 -0.122080
-7.962850 23.662800 2.581250
-7.962850 7.990600 5.708550
-12.293550 7.990600 5.708550
-12.293550 23.662800 2.581250
-12.293550 -49.199402 7.385350
12.293550 -49.199402 7.385350
-7.962850 0.340600 6.692950
-7.962850 0.393600 6.496050
-7.962850 0.340600 6.299250
-7.962850 0.278600 6.217650
-7.962850 0.101600 6.115750
-7.962850 -0.102400 6.115750
-7.962850 -0.197400 6.155150
-7.962850 -0.341400 6.299250
-7.962850 -0.394400 6.496050
-7.962850 -0.341400 6.692950
-7.962850 -0.197400 6.837050
-7.962850 -0.102400 6.876350
-7.962850 0.101600 6.876350
-7.962850 0.278600 6.774450
12.293550 45.275398 -7.677150
7.962850 45.275398 -7.677150
7.962850 47.440701 -3.346440
12.293550 47.440701 -3.346440
12.293550 44.912102 -4.737660
12.293550 45.096699 -4.745720
12.293550 45.281200 -4.737660
7.962850 45.281200 -4.737660
7.962850 45.096699 -4.745720
7.962850 44.912102 -4.737660
7.962850 46.060600 -6.732480
7.962850 45.323101 -6.580970
7.962850 45.049000 -6.580970
7.962850 45.815102 -7.060609
12.293550 -45.937401 -4.440160
12.293550 -45.853401 -4.539230
12.293550 -45.759399 -4.628750
7.962850 -45.759399 -4.628750
7.962850 -45.853401 -4.539230
7.962850 -45.937401 -4.440160
7.962850 0.101600 6.876350
7.962850 0.278600 6.774450
7.962850 0.340600 6.692950
7.962850 0.393600 6.496050
7.962850 0.340600 6.299250
7.962850 0.278600 6.217650
7.962850 0.101600 6.115750
7.962850 -0.000400 6.102350
7.962850 24.509600 3.030750
7.962850 45.275398 -7.677150
7.962850 44.811600 -6.443940
7.962850 44.674599 -6.206590
7.962850 44.674599 -5.932530
7.962850 44.811600 -5.695180
7.962850 45.049000 -5.558150
7.962850 45.323101 -5.558150
7.962850 45.560398 -5.695180
7.962850 45.644501 -5.804830
7.962850 45.715500 -6.069560
7.962850 45.644501 -6.334280
7.962850 45.560398 -6.443940
7.962850 47.440701 -3.346440
7.962850 46.221298 2.657550
7.962850 47.440701 6.889750
7.962850 46.358101 6.889750
7.962850 45.975300 2.627950
7.962850 46.379902 -3.730880
7.962850 46.155602 -4.461970
7.962850 45.464401 -4.713550
7.962850 44.728901 -4.713550
7.962850 34.101700 0.316650
7.962850 17.364599 5.231550
7.962850 -0.000400 6.889750
7.962850 -0.000400 6.889750
7.962850 -0.197400 6.837050
7.962850 -0.341400 6.692950
7.962850 -0.394400 6.496050
7.962850 -0.341400 6.299250
7.962850 -0.197400 6.155150
7.962850 -0.000400 6.102350
7.962850 -42.571400 -5.689610
7.962850 -44.855400 -5.996820
7.962850 -44.984402 -5.921930
7.962850 -45.059399 -5.912070
7.962850 -45.204399 -5.950840
7.962850 -45.264400 -5.996820
7.962850 -45.339401 -6.126540
7.962850 -46.944401 -6.188290
7.962850 -47.441399 -5.176580
7.962850 -47.441399 6.889750
7.962850 -46.358398 6.889750
7.962850 -46.072399 -4.218020
7.962850 -45.759399 -4.628750
7.962850 -45.427399 -4.830430
7.962850 -45.204399 -6.452030
7.962850 -45.264400 -6.406050
7.962850 -46.780399 -6.418690
7.962850 -46.602402 -6.638110
7.962850 -45.059399 -6.490800
-7.962850 -45.919399 -4.176750
-7.962850 -45.839401 -4.302970
-7.962850 -45.749401 -4.421830
-7.962850 -45.649399 -4.532460
-7.962850 -45.540401 -4.634000
-7.962850 -45.422401 -4.725720
-12.293550 -45.422401 -4.725720
-12.293550 -45.540401 -4.634000
-12.293550 -45.649399 -4.532460
-12.293550 -45.749401 -4.421830
-12.293550 -45.839401 -4.302970
-12.293550 -45.919399 -4.176750
-12.293550 -46.044399 -3.906090
-7.962850 -46.044399 -3.906090
12.293550 -46.741402 -1.174680
12.293550 -46.675400 -0.159990
12.293550 -46.675400 1.873190
12.293550 -47.004398 4.903950
12.293550 -47.441399 6.889750
7.962850 -47.441399 6.889750
7.962850 -47.004398 4.903950
7.962850 -46.675400 1.873190
7.962850 -46.675400 -0.159990
7.962850 -46.741402 -1.174680
7.962850 -47.004398 -3.190770
7.962850 -47.441399 -5.176580
12.293550 -47.441399 -5.176580
12.293550 -47.004398 -3.190770
-7.962850 -47.441399 -5.176580
-7.962850 -46.330399 -0.172140
-7.962850 -47.441399 6.889750
7.962850 -46.358398 6.889750
7.962850 -47.441399 6.889750
7.962850 -47.441399 -5.176580
7.962850 -45.339401 -6.276330
7.962850 -45.339401 -6.126540
7.962850 -45.264400 -5.996820
7.962850 -45.204399 -5.950840
7.962850 -45.059399 -5.912070
7.962850 -44.984402 -5.921930
7.962850 -44.855400 -5.996820
7.962850 -44.780399 -6.126540
7.962850 -44.780399 -6.276330
7.962850 -44.855400 -6.406050
7.962850 -44.984402 -6.480940
7.962850 -45.275398 -7.677150
7.962850 -24.510401 3.030750
7.962850 -0.000400 6.102350
7.962850 -0.197400 6.155150
7.962850 -0.341400 6.299250
7.962850 -0.394400 6.496050
7.962850 -0.341400 6.692950
7.962850 -0.197400 6.837050
7.962850 -0.000400 6.889750
7.962850 -17.365400 5.231550
7.962850 -34.102402 0.316650
7.962850 -44.885399 -4.806790
7.962850 -45.427399 -4.830430
7.962850 -45.759399 -4.628750
7.962850 -46.072399 -4.218020
-12.293550 -48.819401 7.677150
12.293550 -48.819401 7.677150
12.293550 48.818699 7.677150
-12.293550 48.818699 7.677150
7.962850 -45.275398 -7.677150
7.962850 -45.339401 -6.276330
7.962850 -45.264400 -6.406050
7.962850 -45.204399 -6.452030
7.962850 -45.059399 -6.490800
7.962850 -44.984402 -6.480940
7.962850 -44.855400 -6.406050
7.962850 -44.780399 -6.276330
7.962850 -44.780399 -6.126540
-12.293550 48.818699 7.677150
12.293550 48.818699 7.677150
12.293550 -48.819401 7.677150
-12.293550 -48.819401 7.677150
12.293550 -48.921398 6.903150
12.293550 48.920601 6.903150
12.293550 49.097099 7.005050
12.293550 49.199001 7.181550
12.293550 49.199001 7.385350
12.293550 49.097099 7.561850
12.293550 48.920601 7.663750
12.293550 -48.921398 7.663750
12.293550 -49.016399 7.624450
12.293550 -49.160400 7.480350
12.293550 -49.199402 7.385350
12.293550 -49.199402 7.181550
12.293550 -49.160400 7.086650
12.293550 -49.016399 6.942550
12.293550 -49.016399 7.624450
-12.293550 -49.016399 7.624450
-12.293550 -49.160400 7.480350
12.293550 -49.160400 7.480350
12.293550 -48.819401 7.677150
-12.293550 -48.819401 7.677150
12.293550 -49.199402 7.181550
12.293550 -49.199402 7.385350
-12.293550 -49.199402 7.385350
-12.293550 -49.199402 7.181550
12.293550 -45.656399 -4.707700
12.293550 -45.545399 -4.775190
12.293550 -45.427399 -4.830430
7.962850 -45.427399 -4.830430
7.962850 -45.545399 -4.775190
7.962850 -45.656399 -4.707700
-0.995350 47.440701 6.889750
-1.990650 47.440701 6.889750
-12.293550 48.920601 7.663750
12.293550 48.920601 7.663750
12.293550 48.818699 7.677150
-12.293550 48.818699 7.677150
7.962850 -46.330399 -0.172140
7.962850 -47.441399 -5.176580
7.962850 -46.293400 -0.173710
7.962850 -47.441399 6.889750
12.293550 48.818699 6.889750
-12.293550 48.818699 6.889750
-12.293550 47.440701 6.889750
-7.962850 -47.441399 -5.176580
-12.293550 -47.441399 -5.176580
7.962850 -47.094398 -4.207350
7.962850 -46.586399 -2.213630
7.962850 -46.426399 -1.196880
7.962850 -46.330399 -0.172140
1.990750 -46.330399 -0.172140
1.990750 -46.426399 -1.196880
1.990750 -46.586399 -2.213630
1.990750 -47.094398 -4.207350
1.990750 -47.441399 -5.176580
7.962850 -47.441399 -5.176580
12.293550 -48.819401 7.677150
-12.293550 -48.819401 7.677150
7.962850 24.392200 2.666450
7.962850 17.919201 4.336650
7.962850 7.990600 5.708550
-7.962850 7.990600 5.708550
-7.962850 17.919201 4.336650
-7.962850 24.392200 2.666450
-7.962850 30.684000 0.407620
-7.962850 39.665699 -4.041090
-7.962850 45.275398 -7.677150
7.962850 45.275398 -7.677150
7.962850 39.665699 -4.041090
7.962850 30.684000 0.407620
-12.293550 -46.139400 -3.171850
-7.962850 -46.139400 -3.171850
7.962850 47.440701 -3.346440
7.962850 47.440701 6.889750
7.962850 46.292999 2.653850
-12.293550 -48.819401 6.889750
12.293550 -48.819401 6.889750
12.293550 -47.441399 6.889750
7.962850 47.440701 -3.346440
7.962850 46.292999 2.653850
7.962850 47.440701 6.889750
7.962850 38.420200 -3.552620
7.962850 45.275398 -7.677150
12.293550 45.275398 -7.677150
12.293550 38.420200 -3.552620
12.293550 23.662800 2.581250
12.293550 7.990600 5.708550
7.962850 7.990600 5.708550
7.962850 23.662800 2.581250
7.962850 47.440701 6.889750
1.990750 47.440701 6.889750
-12.293550 -49.160400 7.086650
12.293550 -49.160400 7.086650
-7.962850 46.292999 2.653850
-7.962850 47.440701 -3.346440
-7.962850 46.221298 2.657550
-7.962850 47.440701 6.889750
12.293550 48.920601 6.903150
-12.293550 48.920601 6.903150
-12.293550 48.818699 6.889750
12.293550 48.818699 6.889750
-12.293550 47.440701 -3.346440
-12.293550 46.333801 -6.418830
-12.293550 45.275398 -7.677150
-12.293550 -0.000400 6.102350
-12.293550 -45.275398 -7.677150
-12.293550 -46.961399 -6.200610
-12.293550 -47.441399 -5.176580
-12.293550 -47.441399 6.889750
-12.293550 -46.358398 6.889750
-12.293550 -46.044399 -3.906090
-12.293550 -45.422401 -4.725720
-12.293550 -0.000400 6.889750
-12.293550 45.159599 -4.782290
-12.293550 46.217701 -4.498730
-12.293550 46.358101 6.889750
-12.293550 47.440701 6.889750
12.293550 49.097099 7.561850
-12.293550 49.097099 7.561850
-7.962850 44.674599 -6.206590
-7.962850 44.811600 -6.443940
7.962850 44.811600 -6.443940
7.962850 44.674599 -6.206590
-7.962850 44.674599 -5.932530
7.962850 44.674599 -5.932530
-12.293550 44.101398 -4.498730
-7.962850 44.101398 -4.498730
12.293550 -46.358398 6.889750
7.962850 -46.358398 6.889750
7.962850 -47.441399 6.889750
12.293550 -47.441399 6.889750
-7.962850 47.440701 6.889750
-1.990650 47.440701 6.889750
-1.990650 46.292999 2.653850
-7.962850 46.292999 2.653850
-7.962850 46.292999 0.889520
-7.962850 46.259602 1.771670
-1.990650 46.259602 1.771670
-1.990650 46.292999 0.889520
-1.990650 46.392899 0.012410
-1.990650 46.558701 -0.854640
-1.990650 46.789600 -1.706700
-1.990650 47.084202 -2.538880
-1.990650 47.440701 -3.346440
-7.962850 47.440701 -3.346440
-7.962850 47.084202 -2.538880
-7.962850 46.789600 -1.706700
-7.962850 46.558701 -0.854640
-7.962850 46.392899 0.012410
-1.990650 47.440701 6.889750
-7.962850 47.440701 6.889750
-7.962850 46.292999 2.653850
-1.990650 46.292999 2.653850
-7.962850 -44.855400 -5.996820
7.962850 -44.855400 -5.996820
0.995350 47.440701 -3.346440
1.990750 47.440701 -3.346440
12.293550 -48.819401 6.889750
-12.293550 -48.819401 6.889750
-12.293550 -44.208401 -4.560150
-12.293550 -45.422401 -4.725720
-7.962850 -45.422401 -4.725720
-7.962850 -44.208401 -4.560150
-0.995350 46.292999 0.889520
-0.995350 46.259602 1.771670
0.995350 46.259602 1.771670
0.995350 46.292999 0.889520
0.995350 46.392899 0.012410
0.995350 46.558701 -0.854640
0.995350 46.789600 -1.706700
0.995350 47.084202 -2.538880
0.995350 47.440701 -3.346440
-0.995350 47.440701 -3.346440
-0.995350 47.084202 -2.538880
-0.995350 46.789600 -1.706700
-0.995350 46.558701 -0.854640
-0.995350 46.392899 0.012410
-7.962850 45.049000 -5.558150
7.962850 45.049000 -5.558150
0.995350 46.292999 0.889520
0.995350 46.259602 1.771670
0.995350 46.292999 2.653850
-0.995350 46.292999 2.653850
-0.995350 46.259602 1.771670
-0.995350 46.292999 0.889520
-0.995350 46.392899 0.012410
-0.995350 46.558701 -0.854640
-0.995350 46.789600 -1.706700
-0.995350 47.084202 -2.538880
-0.995350 47.440701 -3.346440
0.995350 47.440701 -3.346440
0.995350 47.084202 -2.538880
0.995350 46.789600 -1.706700
0.995350 46.558701 -0.854640
0.995350 46.392899 0.012410
7.962850 -46.330399 1.885340
7.962850 -46.586399 3.926850
7.962850 -47.094398 5.920550
7.962850 -47.441399 6.889750
1.990750 -47.441399 6.889750
1.990750 -47.094398 5.920550
1.990750 -46.586399 3.926850
1.990750 -46.330399 1.885340
0.995350 47.440701 6.889750
-0.995350 47.440701 6.889750
7.962850 45.049000 -6.580970
-7.962850 45.049000 -6.580970
-7.962850 47.440701 -3.346440
7.962850 47.440701 -3.346440
-7.962850 45.644501 -6.334280
7.962850 45.644501 -6.334280
-7.962850 -45.339401 -6.126540
7.962850 -45.339401 -6.126540
-7.962850 -46.139400 4.885050
-7.962850 -46.063400 3.879650
-7.962850 -46.008400 2.872750
-7.962850 -45.975399 1.864900
-7.962850 -45.964401 0.856600
-7.962850 -45.975399 -0.151700
-7.962850 -46.008400 -1.159530
-7.962850 -46.063400 -2.166400
-7.962850 -46.139400 -3.171850
-12.293550 -46.139400 -3.171850
-12.293550 -46.063400 -2.166400
-12.293550 -46.008400 -1.159530
-12.293550 -45.975399 -0.151700
-12.293550 -45.964401 0.856600
-12.293550 -45.975399 1.864900
-12.293550 -46.008400 2.872750
-12.293550 -46.063400 3.879650
-12.293550 -46.139400 4.885050
-12.293550 -46.238400 5.888650
-12.293550 -46.358398 6.889750
-7.962850 -46.358398 6.889750
-7.962850 -46.238400 5.888650
7.962850 45.644501 -6.334280
-7.962850 45.644501 -6.334280
1.990750 46.292999 2.653850
1.990750 47.440701 6.889750
7.962850 47.440701 6.889750
7.962850 46.292999 2.653850
12.293550 -46.139400 4.885050
12.293550 -46.063400 3.879650
12.293550 -46.008400 2.872750
12.293550 -45.975399 1.864900
12.293550 -45.964401 0.856600
12.293550 -45.975399 -0.151700
12.293550 -46.008400 -1.159530
12.293550 -46.063400 -2.166400
12.293550 -46.139400 -3.171850
12.293550 -46.180401 -3.584750
7.962850 -46.180401 -3.584750
7.962850 -46.139400 -3.171850
7.962850 -46.063400 -2.166400
7.962850 -46.008400 -1.159530
7.962850 -45.975399 -0.151700
7.962850 -45.964401 0.856600
7.962850 -45.975399 1.864900
7.962850 -46.008400 2.872750
7.962850 -46.063400 3.879650
7.962850 -46.139400 4.885050
7.962850 -46.238400 5.888650
7.962850 -46.358398 6.889750
12.293550 -46.358398 6.889750
12.293550 -46.238400 5.888650
1.990750 -46.586399 -2.213630
0.995350 -46.586399 -2.213630
0.995350 -47.094398 -4.207350
0.995350 -47.441399 -5.176580
1.990750 -47.441399 -5.176580
1.990750 -47.094398 -4.207350
0.995350 47.440701 6.889750
1.990750 47.440701 6.889750
-7.962850 -8.722400 6.474250
-7.962850 -0.000400 6.889750
-7.962850 8.721600 6.474250
-12.293550 8.721600 6.474250
-12.293550 -0.000400 6.889750
-12.293550 -8.722400 6.474250
1.990750 46.292999 0.889520
7.962850 46.292999 0.889520
7.962850 46.558701 -0.854640
7.962850 47.440701 -3.346440
1.990750 47.440701 -3.346440
1.990750 46.558701 -0.854640
-1.990650 46.292999 0.889520
-1.990650 46.259602 1.771670
-7.962850 46.259602 1.771670
-7.962850 46.292999 0.889520
-7.962850 46.392899 0.012410
-7.962850 46.558701 -0.854640
-7.962850 46.789600 -1.706700
-7.962850 47.084202 -2.538880
-7.962850 47.440701 -3.346440
-1.990650 47.440701 -3.346440
-1.990650 47.084202 -2.538880
-1.990650 46.789600 -1.706700
-1.990650 46.558701 -0.854640
-1.990650 46.392899 0.012410
4 0 1 2 3
4 4 5 6 7
4 8 9 10 11
4 12 13 14 15
4 16 17 18 19
4 20 21 22 23
4 24 25 26 27
17 28 29 30 31 32 33 34 35 36 37 38 39 40 41 42 43 44
4 45 46 47 48
4 49 50 51 52
4 53 54 55 56
12 57 58 59 60 61 62 63 64 65 66 67 68
14 69 70 71 72 73 74 75 76 77 78 79 80 81 82
4 83 84 85 86
4 87 88 89 90
10 91 92 93 94 95 96 97 98 99 100
4 101 102 103 104
10 105 106 107 108 109 110 111 112 113 114
10 115 116 117 118 119 120 121 122 123 124
8 125 126 127 128 129 130 131 132
18 133 134 135 136 137 138 139 140 141 142 143 144 145 146 147 148 149 150
8 151 152 153 154 155 156 157 158
4 159 160 161 162
8 163 164 165 166 167 168 169 170
4 171 172 173 174
12 175 176 177 178 114 113 179 180 181 182 183 184
14 185 186 187 188 189 190 191 192 193 194 195 196 197 198
4 199 18 17 200
4 201 202 203 204
10 205 206 207 208 209 210 211 212 213 214
6 215 3 216 217 218 219
4 220 221 222 223
8 224 225 226 227 228 229 230 231
8 232 233 234 235 236 237 238 239
10 240 241 242 243 244 245 246 247 248 249
4 90 89 250 251
10 252 253 254 255 256 257 258 259 260 261
10 262 263 264 265 266 267 268 269 270 271
12 272 273 274 275 276 277 278 279 280 281 282 283
4 284 285 286 287
8 288 289 290 291 292 293 294 295
4 296 297 298 299
4 300 301 302 303
14 304 305 306 307 308 309 310 311 312 313 314 315 316 317
4 318 319 320 321
10 322 323 324 325 326 327 328 329 330 331
4 332 333 334 335
23 336 337 338 339 340 341 342 343 344 345 346 347 348 349 350 351 352 353 354 355 356 357 358
4 359 360 284 287
20 361 362 363 364 365 366 367 368 369 370 371 372 373 374 375 376 377 378 379 380
6 381 382 383 54 384 385
4 4 7 386 387
4 388 389 390 391
4 392 8 11 393
4 394 395 52 51
4 396 21 20 397
4 398 399 400 401
4 402 403 392 393
19 404 405 406 407 408 409 410 411 412 413 414 415 416 417 418 419 420 421 422
4 423 424 425 426
4 426 425 102 101
10 427 428 429 430 431 432 433 434 435 436
16 437 438 439 440 441 442 443 444 445 446 447 448 449 450 451 452
10 453 454 455 456 457 458 459 460 461 462
4 299 298 360 359
11 349 348 463 464 465 466 467 468 341 340 469
37 470 471 472 473 474 475 476 320 319 477 478 479 480 481 482 483 484 485 486 487 488 318 321 489 490 491 492 493 494 495 496 497 498 499 500 501 502
10 503 504 505 506 276 275 507 508 509 510
4 153 511 512 154
4 285 300 303 286
4 513 514 515 516
14 517 518 519 520 521 522 523 524 525 526 527 528 529 530
4 531 532 533 534
22 535 536 537 538 539 540 541 542 543 544 545 546 547 548 549 550 551 552 553 554 555 556
12 557 558 559 560 561 562 563 564 565 566 567 568
24 569 570 571 572 573 574 575 576 577 578 579 580 581 582 583 584 585 586 587 588 589 590 591 592
4 593 594 595 596
4 532 597 598 533
10 599 600 601 602 603 604 605 606 607 608
4 609 610 611 612
14 613 614 615 616 617 618 619 620 621 622 623 624 625 626
4 627 628 403 402
14 629 630 631 632 633 634 635 636 637 638 639 640 641 642
8 643 644 645 232 239 646 647 648
14 649 650 651 652 653 654 655 656 657 658 659 660 661 662
5 663 664 665 666 667
3 664 663 668
3 669 218 217
10 670 671 672 673 674 675 676 677 562 561
3 3 215 0
3 2 1 678
3 679 56 55
5 1 680 681 682 678
3 53 384 54
3 382 381 683
3 684 685 686
4 166 687 688 167
4 689 690 389 388
4 691 692 693 694
4 695 696 88 87
12 697 698 699 700 701 702 703 704 705 706 707 708
4 709 710 711 712
4 297 296 713 714
4 715 716 717 718
4 719 720 721 722
4 723 724 725 726
10 727 430 429 728 729 730 462 461 731 732
4 733 734 395 394
4 735 736 737 738
10 739 740 741 742 743 744 745 746 702 701
4 747 748 749 750
4 751 752 753 754
4 719 755 756 720
4 709 712 48 47
4 251 250 757 758
4 22 751 754 23
4 736 734 733 737
4 16 19 759 760
4 761 762 716 715
14 763 764 765 766 767 768 769 770 771 772 773 774 775 776
14 777 778 779 780 781 782 783 784 785 786 787 788 789 790
10 791 792 793 794 795 796 797 798 799 800
14 801 802 803 804 805 806 807 808 809 810 811 812 813 814
14 815 816 817 818 819 820 821 822 823 824 825 826 827 828
4 258 829 830 259
4 9 391 390 10
4 301 831 832 302
24 833 834 835 836 837 838 839 840 841 842 843 844 845 846 847 848 849 850 851 852 853 854 855 856
4 710 857 858 711
4 714 713 858 857
14 859 860 861 862 863 864 865 866 867 868 869 870 871 872
4 873 874 691 694
12 875 876 877 878 879 880 881 882 325 324 883 884
4 885 886 693 692
14 887 888 889 890 891 892 893 894 895 896 897 898 899 900
4 901 902 903 904
10 128 127 905 906 907 289 288 908 909 910
4 911 912 913 914
8 915 916 917 918 919 920 116 115
37 921 922 923 924 925 926 927 928 929 930 914 913 931 932 933 934 935 936 937 938 939 940 941 912 911 942 943 944 945 946 947 948 949 950 951 952 953
21 954 955 956 957 958 959 960 961 962 963 964 965 966 967 968 969 970 971 972 973 974
5 975 976 977 978 979
14 980 981 982 983 984 985 986 987 988 989 990 991 992 993
14 994 995 996 997 998 999 1000 1001 1002 1003 1004 1005 1006 1007
3 1008 1009 1010
33 1011 1012 1013 977 976 1014 1015 1016 1017 1018 1019 1020 1021 1022 1023 1024 979 978 1025 1026 1027 1028 1029 1030 1031 1032 1033 1034 1035 1036 1037 1038 1039
4 1040 1041 1042 1043
13 1044 968 967 1045 1046 1047 1048 1049 1050 1051 1052 962 961
4 1053 1054 1055 1056
14 1057 1058 1059 1060 1061 1062 1063 1064 1065 1066 1067 1068 1069 1070
4 1071 1072 1073 1074
4 1075 25 24 1076
4 1077 1078 1079 1080
8 1081 1082 1083 1084 1085 1086 918 917
4 609 1087 1088 610
4 1089 1090 1091 1092
4 1093 1094 1095 1096
5 1097 1098 1099 686 685
4 1100 1101 81 80
10 1102 1103 1104 1105 1106 1107 1108 1109 1110 1111
4 1072 1071 1112 1113
12 1114 1115 1116 1117 1118 1119 1120 1121 1122 1123 1124 1125
4 993 992 1126 1127
4 46 45 832 831
4 668 218 669 664
3 1128 1129 1130
4 684 686 683 381
5 56 679 1131 1132 1133
3 1134 1135 1136
10 1137 1138 1139 1140 1141 1142 265 264 1143 1144
4 225 1145 1146 226
4 1147 399 398 1148
4 1149 1150 1151 1152
4 1153 1154 1155 1156
16 1157 1158 1159 1160 1161 1162 1163 1164 1165 1166 1167 1168 1169 1170 1171 1172
4 1173 1090 1089 1174
4 1175 1176 1177 1178
4 1179 1175 1178 1180
4 387 386 1173 1174
4 1181 1182 307 306
4 1183 1184 1185 1186
4 1187 1188 1189 1190
16 1191 1192 1190 1189 1193 1194 1195 1196 1197 1198 1199 1200 1201 1202 1203 1204
4 1078 1074 1073 1079
4 885 27 26 886
4 1205 1206 1207 1208
4 1148 1077 1080 1147
4 1209 424 423 1210
4 15 14 1211 1212
4 874 873 1213 1214
4 1215 1216 1217 1218
16 1219 1220 726 725 1221 1222 1223 1224 1225 1226 1227 1228 1229 1230 1231 1232
4 1233 199 200 1234
4 49 1179 1180 50
4 1154 1153 6 5
16 1235 1236 1237 1238 1239 1240 1241 1242 1243 1244 1245 1246 1247 1248 1249 1250
10 1251 1252 1253 1254 1255 1256 1257 1258 1106 1105
4 1259 1260 1238 1237
4 86 85 1261 1262
4 1263 1264 64 63
4 1265 735 738 1266
4 103 1267 1268 104
22 1269 1270 1271 1272 1273 1274 1275 1276 1277 1278 1279 1280 1281 1282 1283 1284 1285 1286 1287 1288 1289 1290
4 221 396 397 222
4 752 1291 1292 753
4 1293 1294 1295 1296
4 220 223 1233 1234
24 1297 1298 1299 1300 1301 1302 1303 1304 1305 1306 1307 1308 1309 1310 1311 1312 1313 1314 1315 1316 1317 1318 1319 1320
4 1177 1176 1262 1261
8 1321 214 213 1322 1323 1324 1325 1326
4 1327 1328 748 747
4 695 1209 1210 696
4 1291 760 759 1292
10 1329 1330 1331 245 244 1332 1333 1334 794 793
4 83 1265 1266 84
8 1335 1293 1296 1336 1337 1338 1339 1340
4 758 757 762 761
4 1267 718 717 1268
16 1341 1342 1208 1207 1343 1344 1345 1346 1347 1348 1349 1350 1351 1352 1353 1354
