ply
format ascii 1.0
comment Created by Blender 2.82 (sub 7) - www.blender.org, source file: ''
element vertex 438
property float x
property float y
property float z
element face 91
property list uchar uint vertex_indices
end_header
290.163849 225.805054 -103.166000
290.163849 225.805054 -88.499001
254.163849 225.805054 -88.499001
254.163849 225.805054 -103.166000
254.163849 -257.802948 263.875000
-250.835846 -257.802948 263.875000
-250.835846 -265.694946 263.875000
-286.835846 -265.694946 263.875000
-286.835846 -229.694946 263.875000
-250.835846 -229.694946 263.875000
-250.835846 -239.064957 263.875000
254.163849 -239.064957 263.875000
254.163849 -229.694946 263.875000
290.163849 -229.694946 263.875000
290.163849 -265.694946 263.875000
254.163849 -265.694946 263.875000
254.163849 -257.802948 152.625000
254.163849 -257.802948 263.875000
-250.835846 -257.802948 263.875000
-250.835846 -257.802948 152.625000
264.120850 237.805054 263.875000
254.163849 237.805054 263.875000
254.163849 237.805054 -78.499001
290.163849 237.805054 -78.499001
290.163849 237.805054 263.875000
279.870850 237.805054 263.875000
279.870850 237.805054 152.625000
264.120850 237.805054 152.625000
254.163849 246.196747 152.625000
-250.835846 246.196747 152.625000
-250.835846 264.934540 152.625000
254.163849 264.934540 152.625000
254.163849 -239.064957 152.625000
254.163849 -239.064957 263.875000
254.163849 -229.694946 263.875000
254.163849 -229.694946 -276.125000
254.163849 -265.694946 -276.125000
254.163849 -265.694946 263.875000
254.163849 -257.802948 263.875000
254.163849 -257.802948 152.625000
290.163849 -229.694946 -103.380997
290.163849 -216.194946 -103.380997
290.163849 -216.194946 -88.121002
290.163849 -229.694946 -88.121002
-250.835846 -229.694946 -103.380997
-286.835846 -229.694946 -103.380997
-286.835846 -216.194946 -103.380997
-250.835846 -216.194946 -103.380997
-286.835846 -229.694946 -88.121002
-250.835846 -229.694946 -88.121002
-250.835846 -216.194946 -88.121002
-286.835846 -216.194946 -88.121002
254.163849 -239.064957 263.875000
254.163849 -239.064957 152.625000
-250.835846 -239.064957 152.625000
-250.835846 -239.064957 263.875000
-287.335846 237.805054 -78.499001
-287.335846 237.805054 -88.499001
-286.835846 237.805054 -88.499001
-286.835846 237.805054 -78.499001
-287.335846 -229.694946 -78.499001
-287.335846 237.805054 -78.499001
-287.335846 237.805054 -88.499001
-287.335846 -229.694946 -88.499001
-286.835846 237.805054 -78.499001
-286.835846 237.805054 -103.166000
-250.835846 237.805054 -103.166000
-250.835846 237.805054 -78.499001
290.163849 237.805054 -103.166000
290.163849 237.805054 -276.125000
290.163849 273.805054 -276.125000
290.163849 273.805054 263.875000
290.163849 237.805054 263.875000
290.163849 237.805054 -78.499001
290.163849 225.805054 -78.499001
290.163849 225.805054 -103.166000
-277.878937 -230.944946 263.875000
-277.878937 237.805054 263.875000
-277.878937 237.805054 152.625000
-277.878937 -230.944946 152.625000
290.163849 -229.694946 -276.125000
290.163849 -229.694946 263.875000
290.163849 -265.694946 263.875000
290.163849 -265.694946 -276.125000
254.163849 -257.802948 263.875000
254.163849 -239.064957 263.875000
254.163849 -239.064957 152.625000
254.163849 -257.802948 152.625000
-250.835846 237.805054 -276.125000
-286.835846 237.805054 -276.125000
-286.835846 273.805054 -276.125000
-250.835846 273.805054 -276.125000
264.120850 237.805054 263.875000
254.163849 237.805054 263.875000
254.163849 246.196747 263.875000
-250.835846 246.196747 263.875000
-250.835846 237.805054 263.875000
-286.835846 237.805054 263.875000
-286.835846 273.805054 263.875000
-250.835846 273.805054 263.875000
-250.835846 264.934540 263.875000
254.163849 264.934540 263.875000
254.163849 273.805054 263.875000
290.163849 273.805054 263.875000
290.163849 237.805054 263.875000
279.870850 237.805054 263.875000
279.870850 -230.944946 263.875000
264.120850 -230.944946 263.875000
-277.878937 237.805054 152.625000
-277.878937 237.805054 263.875000
-262.128937 237.805054 263.875000
-262.128937 237.805054 152.625000
254.163849 -239.064957 263.875000
-250.835846 -239.064957 263.875000
-250.835846 -229.694946 263.875000
-286.835846 -229.694946 263.875000
-286.835846 -265.694946 263.875000
-250.835846 -265.694946 263.875000
-250.835846 -257.802948 263.875000
254.163849 -257.802948 263.875000
254.163849 -265.694946 263.875000
290.163849 -265.694946 263.875000
290.163849 -229.694946 263.875000
254.163849 -229.694946 263.875000
-250.835846 -239.064957 263.875000
-250.835846 -257.802948 263.875000
-250.835846 -257.802948 152.625000
-250.835846 -239.064957 152.625000
-250.835846 -239.064957 152.625000
-250.835846 -257.802948 152.625000
-250.835846 -257.802948 263.875000
-250.835846 -239.064957 263.875000
254.163849 246.196747 152.625000
254.163849 246.196747 263.875000
-250.835846 246.196747 263.875000
-250.835846 246.196747 152.625000
-250.835846 264.934540 263.875000
-250.835846 246.196747 263.875000
-250.835846 246.196747 152.625000
-250.835846 264.934540 152.625000
-286.835846 237.805054 -88.499001
-286.835846 237.805054 263.875000
-286.835846 273.805054 263.875000
-286.835846 273.805054 -276.125000
-286.835846 237.805054 -276.125000
-286.835846 237.805054 -103.166000
-286.835846 225.805054 -103.166000
-286.835846 225.805054 -88.499001
-286.835846 237.805054 -78.499001
-250.835846 237.805054 -78.499001
-250.835846 237.805054 263.875000
-262.128937 237.805054 263.875000
-262.128937 237.805054 152.625000
-277.878937 237.805054 152.625000
-277.878937 237.805054 263.875000
-286.835846 237.805054 263.875000
293.999847 293.999939 276.125000
293.999847 -293.999939 276.125000
293.999847 -293.999939 265.375000
293.999847 293.999939 265.375000
-250.835846 237.805054 -88.499001
-250.835846 225.805054 -88.499001
-250.835846 225.805054 -103.166000
-250.835846 237.805054 -103.166000
-250.835846 237.805054 -276.125000
-250.835846 273.805054 -276.125000
-250.835846 273.805054 263.875000
-250.835846 264.934540 263.875000
-250.835846 264.934540 152.625000
-250.835846 246.196747 152.625000
-250.835846 246.196747 263.875000
-250.835846 237.805054 263.875000
254.163849 -229.694946 -103.380997
290.163849 -229.694946 -103.380997
290.163849 -229.694946 -276.125000
254.163849 -229.694946 -276.125000
-250.835846 -216.194946 -88.121002
-250.835846 -216.194946 -103.380997
-286.835846 -216.194946 -103.380997
-286.835846 -216.194946 -88.121002
290.163849 273.805054 263.875000
290.163849 273.805054 -276.125000
254.163849 273.805054 -276.125000
254.163849 273.805054 263.875000
-250.835846 -229.694946 -103.380997
-250.835846 -229.694946 -276.125000
-286.835846 -229.694946 -276.125000
-286.835846 -229.694946 -103.380997
290.163849 237.805054 -276.125000
254.163849 237.805054 -276.125000
254.163849 273.805054 -276.125000
290.163849 273.805054 -276.125000
293.999847 -293.999939 265.375000
-293.999847 -293.999939 265.375000
-293.999847 293.999939 265.375000
293.999847 293.999939 265.375000
-250.835846 -265.694946 -276.125000
-250.835846 -265.694946 263.875000
-286.835846 -265.694946 263.875000
-286.835846 -265.694946 -276.125000
-293.999847 -293.999939 276.125000
293.999847 -293.999939 276.125000
293.999847 293.999939 276.125000
-293.999847 293.999939 276.125000
254.163849 273.805054 263.875000
254.163849 273.805054 -276.125000
254.163849 237.805054 -276.125000
254.163849 237.805054 263.875000
254.163849 246.196747 263.875000
254.163849 246.196747 152.625000
254.163849 264.934540 152.625000
254.163849 264.934540 263.875000
254.163849 -229.694946 -88.121002
254.163849 -216.194946 -88.121002
254.163849 -216.194946 -103.380997
254.163849 -229.694946 -103.380997
290.163849 -229.694946 263.875000
290.163849 -229.694946 -88.121002
254.163849 -229.694946 -88.121002
254.163849 -229.694946 263.875000
254.163849 237.805054 -78.499001
254.163849 237.805054 -103.166000
290.163849 237.805054 -103.166000
290.163849 237.805054 -78.499001
290.163849 -229.694946 -88.121002
290.163849 -229.694946 -103.380997
254.163849 -229.694946 -103.380997
254.163849 -229.694946 -88.121002
-250.835846 -265.694946 263.875000
-250.835846 -265.694946 -276.125000
-250.835846 -229.694946 -276.125000
-250.835846 -229.694946 -103.380997
-250.835846 -216.194946 -103.380997
-250.835846 -216.194946 -88.121002
-250.835846 -229.694946 -88.121002
-250.835846 -229.694946 263.875000
-250.835846 -239.064957 263.875000
-250.835846 -239.064957 152.625000
-250.835846 -257.802948 152.625000
-250.835846 -257.802948 263.875000
254.163849 -229.694946 -88.121002
290.163849 -229.694946 -88.121002
290.163849 -216.194946 -88.121002
254.163849 -216.194946 -88.121002
-286.835846 237.805054 -103.166000
-286.835846 237.805054 -78.499001
-250.835846 237.805054 -78.499001
-250.835846 237.805054 -103.166000
-262.128937 -230.944946 152.625000
-277.878937 -230.944946 152.625000
-277.878937 237.805054 152.625000
-262.128937 237.805054 152.625000
-262.128937 -230.944946 152.625000
-262.128937 -230.944946 263.875000
-277.878937 -230.944946 263.875000
-277.878937 -230.944946 152.625000
279.870850 237.805054 152.625000
279.870850 237.805054 263.875000
264.120850 237.805054 263.875000
264.120850 237.805054 152.625000
290.163849 225.805054 -103.166000
254.163849 225.805054 -103.166000
254.163849 237.805054 -103.166000
290.163849 237.805054 -103.166000
-250.835846 237.805054 263.875000
-286.835846 237.805054 263.875000
-277.878937 237.805054 263.875000
-262.128937 237.805054 263.875000
-262.128937 237.805054 152.625000
-262.128937 237.805054 263.875000
-277.878937 237.805054 263.875000
-277.878937 237.805054 152.625000
-286.835846 -229.694946 -103.380997
-286.835846 -229.694946 -276.125000
-286.835846 -265.694946 -276.125000
-286.835846 -265.694946 263.875000
-286.835846 -229.694946 263.875000
-286.835846 -229.694946 -88.121002
-286.835846 -216.194946 -88.121002
-286.835846 -216.194946 -103.380997
-277.878937 -230.944946 263.875000
-262.128937 -230.944946 263.875000
-250.835846 237.805054 -276.125000
-250.835846 237.805054 -103.166000
-286.835846 237.805054 -103.166000
-286.835846 237.805054 -276.125000
-250.835846 246.196747 263.875000
254.163849 246.196747 263.875000
254.163849 237.805054 263.875000
264.120850 237.805054 263.875000
264.120850 -230.944946 263.875000
279.870850 -230.944946 263.875000
279.870850 237.805054 263.875000
290.163849 237.805054 263.875000
290.163849 273.805054 263.875000
254.163849 273.805054 263.875000
254.163849 264.934540 263.875000
-250.835846 264.934540 263.875000
-250.835846 273.805054 263.875000
-286.835846 273.805054 263.875000
-262.128937 237.805054 263.875000
-277.878937 237.805054 263.875000
254.163849 -257.802948 152.625000
254.163849 -239.064957 152.625000
254.163849 -239.064957 263.875000
254.163849 -257.802948 263.875000
-250.835846 273.805054 263.875000
-250.835846 273.805054 -276.125000
-286.835846 273.805054 -276.125000
-286.835846 273.805054 263.875000
-262.128937 -230.944946 263.875000
-277.878937 -230.944946 263.875000
-287.335846 -229.694946 -78.499001
290.163849 -229.694946 -78.499001
290.163849 237.805054 -78.499001
-287.335846 237.805054 -78.499001
-277.878937 -230.944946 152.625000
-277.878937 -230.944946 263.875000
-262.128937 -230.944946 263.875000
-262.128937 -230.944946 152.625000
-250.835846 264.934540 152.625000
-250.835846 246.196747 152.625000
-250.835846 246.196747 263.875000
-250.835846 264.934540 263.875000
264.120850 237.805054 152.625000
264.120850 237.805054 263.875000
279.870850 237.805054 263.875000
279.870850 237.805054 152.625000
-250.835846 -229.694946 263.875000
-250.835846 -229.694946 -88.121002
-286.835846 -229.694946 -88.121002
-286.835846 -229.694946 263.875000
290.163849 -229.694946 -88.499001
290.163849 -229.694946 -78.499001
-287.335846 -229.694946 -78.499001
-287.335846 -229.694946 -88.499001
290.163849 225.805054 -78.499001
290.163849 -229.694946 -78.499001
290.163849 -229.694946 -88.499001
290.163849 225.805054 -88.499001
-286.835846 225.805054 -88.499001
-250.835846 225.805054 -88.499001
-250.835846 237.805054 -88.499001
254.163849 237.805054 -88.499001
254.163849 225.805054 -88.499001
290.163849 225.805054 -88.499001
290.163849 -229.694946 -88.499001
-287.335846 -229.694946 -88.499001
-287.335846 237.805054 -88.499001
-286.835846 237.805054 -88.499001
-250.835846 -265.694946 -276.125000
-286.835846 -265.694946 -276.125000
-286.835846 -229.694946 -276.125000
-250.835846 -229.694946 -276.125000
-293.999847 -293.999939 276.125000
-293.999847 293.999939 276.125000
-293.999847 293.999939 265.375000
-293.999847 -293.999939 265.375000
254.163849 237.805054 -78.499001
254.163849 237.805054 -88.499001
-250.835846 237.805054 -88.499001
-250.835846 237.805054 -78.499001
-250.835846 225.805054 -103.166000
-286.835846 225.805054 -103.166000
-286.835846 237.805054 -103.166000
-250.835846 237.805054 -103.166000
290.163849 237.805054 -276.125000
290.163849 237.805054 -103.166000
254.163849 237.805054 -103.166000
254.163849 237.805054 -276.125000
293.999847 -293.999939 265.375000
293.999847 -293.999939 276.125000
-293.999847 -293.999939 276.125000
-293.999847 -293.999939 265.375000
279.870850 237.805054 263.875000
279.870850 -230.944946 263.875000
279.870850 -230.944946 152.625000
279.870850 237.805054 152.625000
279.870850 -230.944946 152.625000
264.120850 -230.944946 152.625000
264.120850 237.805054 152.625000
279.870850 237.805054 152.625000
264.120850 -230.944946 263.875000
264.120850 237.805054 263.875000
264.120850 237.805054 152.625000
264.120850 -230.944946 152.625000
-250.835846 225.805054 -103.166000
-250.835846 225.805054 -88.499001
-286.835846 225.805054 -88.499001
-286.835846 225.805054 -103.166000
290.163849 -265.694946 -276.125000
290.163849 -265.694946 263.875000
254.163849 -265.694946 263.875000
254.163849 -265.694946 -276.125000
290.163849 -265.694946 -276.125000
254.163849 -265.694946 -276.125000
254.163849 -229.694946 -276.125000
290.163849 -229.694946 -276.125000
254.163849 -257.802948 152.625000
-250.835846 -257.802948 152.625000
-250.835846 -239.064957 152.625000
254.163849 -239.064957 152.625000
254.163849 264.934540 263.875000
254.163849 264.934540 152.625000
-250.835846 264.934540 152.625000
-250.835846 264.934540 263.875000
-262.128937 237.805054 263.875000
-262.128937 -230.944946 263.875000
-262.128937 -230.944946 152.625000
-262.128937 237.805054 152.625000
290.163849 -216.194946 -88.121002
290.163849 -216.194946 -103.380997
254.163849 -216.194946 -103.380997
254.163849 -216.194946 -88.121002
290.163849 -229.694946 -103.380997
254.163849 -229.694946 -103.380997
254.163849 -216.194946 -103.380997
290.163849 -216.194946 -103.380997
254.163849 225.805054 -88.499001
254.163849 237.805054 -88.499001
254.163849 237.805054 -103.166000
254.163849 225.805054 -103.166000
-286.835846 237.805054 -78.499001
-286.835846 237.805054 -88.499001
-287.335846 237.805054 -88.499001
-287.335846 237.805054 -78.499001
293.999847 293.999939 276.125000
293.999847 293.999939 265.375000
-293.999847 293.999939 265.375000
-293.999847 293.999939 276.125000
-250.835846 -229.694946 -88.121002
-250.835846 -229.694946 -103.380997
-286.835846 -229.694946 -103.380997
-286.835846 -229.694946 -88.121002
-286.835846 -229.694946 -88.121002
-286.835846 -229.694946 -103.380997
-250.835846 -229.694946 -103.380997
-250.835846 -229.694946 -88.121002
4 0 1 2 3
12 4 5 6 7 8 9 10 11 12 13 14 15
4 16 17 18 19
8 20 21 22 23 24 25 26 27
4 28 29 30 31
8 32 33 34 35 36 37 38 39
4 40 41 42 43
4 44 45 46 47
4 48 49 50 51
4 52 53 54 55
4 56 57 58 59
4 60 61 62 63
4 64 65 66 67
8 68 69 70 71 72 73 74 75
4 76 77 78 79
4 80 81 82 83
4 84 85 86 87
4 88 89 90 91
16 92 93 94 95 96 97 98 99 100 101 102 103 104 105 106 107
4 108 109 110 111
12 112 113 114 115 116 117 118 119 120 121 122 123
4 124 125 126 127
4 128 129 130 131
4 132 133 134 135
4 136 137 138 139
8 140 141 142 143 144 145 146 147
8 148 149 150 151 152 153 154 155
4 156 157 158 159
12 160 161 162 163 164 165 166 167 168 169 170 171
4 172 173 174 175
4 176 177 178 179
4 180 181 182 183
4 184 185 186 187
4 188 189 190 191
4 192 193 194 195
4 196 197 198 199
4 200 201 202 203
8 204 205 206 207 208 209 210 211
4 212 213 214 215
4 216 217 218 219
4 220 221 222 223
4 224 225 226 227
12 228 229 230 231 232 233 234 235 236 237 238 239
4 240 241 242 243
4 244 245 246 247
4 248 249 250 251
4 252 253 254 255
4 256 257 258 259
4 260 261 262 263
3 264 265 266
3 264 266 267
4 268 269 270 271
8 272 273 274 275 276 277 278 279
4 280 281 267 266
4 282 283 284 285
16 265 264 286 287 288 289 290 291 292 293 294 295 296 297 298 299
3 300 301 96
3 301 97 96
4 302 303 304 305
4 306 307 308 309
4 301 300 310 311
4 312 313 314 315
4 316 317 318 319
4 320 321 322 323
4 324 325 326 327
4 328 329 330 331
4 332 333 334 335
4 336 337 338 339
10 340 341 342 343 344 345 346 347 348 349
4 350 351 352 353
4 354 355 356 357
4 358 359 360 361
4 362 363 364 365
4 366 367 368 369
4 370 371 372 373
4 374 375 376 377
4 378 379 380 381
4 382 383 384 385
4 386 387 388 389
4 390 391 392 393
4 394 395 396 397
4 398 399 400 401
4 402 403 404 405
4 406 407 408 409
4 410 411 412 413
4 414 415 416 417
4 418 419 420 421
4 422 423 424 425
4 426 427 428 429
4 430 431 432 433
4 434 435 436 437
