ply
format ascii 1.0
comment Created by Blender 2.82 (sub 7) - www.blender.org, source file: ''
element vertex 636
property float x
property float y
property float z
element face 256
property list uchar uint vertex_indices
end_header
9.520285 7.305140 -8.614750
11.897385 1.566310 -8.614750
11.897385 1.566310 -7.864750
9.520285 7.305140 -7.864750
-0.741015 -0.965765 -1.822950
-0.965715 -0.741058 -1.822950
-1.693415 -1.299430 -3.980470
-1.299415 -1.693440 -3.980470
-0.000015 1.040440 0.515430
0.136985 1.040440 0.515430
0.253885 1.928600 3.494750
-0.000015 1.928600 3.494750
-0.465815 -1.124660 -1.822950
-0.741015 -0.965765 -1.822950
-0.638815 -0.832561 0.515430
-0.401615 -0.969538 0.515430
-1.928575 -0.253906 3.494750
-1.040415 -0.136978 0.515430
-1.040415 0.000000 0.515430
-1.928575 0.000000 3.494750
-2.253555 -2.936920 -5.723900
-2.936905 -2.253580 -5.723900
-4.561755 -3.500380 -6.864750
-0.000015 -5.700810 -6.864750
-0.000015 -3.670240 -5.723900
-1.928575 0.000000 3.494750
-1.928575 0.253906 3.494750
-1.040415 0.136978 0.515430
-1.040415 0.000000 0.515430
-0.465815 1.124660 -1.822950
-0.158915 1.206910 -1.822950
-0.000015 1.206910 -1.822950
-0.000015 1.040440 0.515430
-0.401615 0.969538 0.515430
1.416685 -3.420120 -5.723900
-0.000015 -3.670240 -5.723900
-0.000015 -5.700810 -6.864750
4.561785 -3.500380 -6.864750
2.936985 -2.253580 -5.723900
4.561785 3.500380 -6.864750
-0.000015 5.700810 -6.864750
-0.000015 11.897300 -7.864750
4.592185 11.086600 -7.864750
9.520285 7.305140 -7.864750
11.897385 1.566310 -7.864750
11.897385 0.000000 -7.864750
5.700785 0.000000 -6.864750
-0.000015 -17.846001 8.614750
-0.000015 -17.846001 7.845650
2.349485 -17.846001 7.845650
2.349485 -17.846001 8.614750
-2.349445 17.846001 8.614750
-2.349445 17.846001 7.845650
-10.957683 14.280400 7.845650
-10.957683 14.280400 8.614750
-0.638815 0.832561 0.515430
-0.401615 0.969538 0.515430
-0.465815 1.124660 -1.822950
-0.741015 0.965765 -1.822950
-1.928575 -0.253906 3.494750
-1.543215 -1.184190 3.494750
-3.112985 -2.388700 5.895650
-3.890275 0.000000 5.895650
-1.928575 0.000000 3.494750
-0.965715 0.741058 -1.822950
-1.299415 1.693440 -3.980470
-1.693415 1.299430 -3.980470
-3.670215 0.000000 -5.723900
-3.420095 1.416660 -5.723900
-1.972035 0.816853 -3.980470
-2.116255 0.278614 -3.980470
-2.116255 0.000000 -3.980470
-1.501615 3.625180 5.895650
-3.112985 2.388700 5.895650
-5.297365 4.064830 7.344150
-0.000015 6.620090 7.344150
-0.000015 3.890300 5.895650
-9.520215 7.305140 -8.614750
-11.086532 4.592200 -8.614750
-11.897315 0.000000 -8.614750
-0.000015 0.000000 -8.614750
-0.000015 11.897300 -8.614750
-4.592175 11.086600 -8.614750
-3.420095 -1.416660 -5.723900
-3.670215 0.000000 -5.723900
-2.116255 0.000000 -3.980470
-2.116255 -0.278614 -3.980470
-1.972035 -0.816853 -3.980470
-1.040415 -0.136978 0.515430
-1.040415 0.000000 0.515430
-1.206915 0.000000 -1.822950
-1.206915 -0.158894 -1.822950
-1.124615 -0.465849 -1.822950
-0.969515 -0.401596 0.515430
0.969585 0.401596 0.515430
1.797185 0.744410 3.494750
1.928585 0.000000 3.494750
1.040485 0.000000 0.515430
0.253885 -1.928600 3.494750
-0.000015 -1.928600 3.494750
-0.000015 -3.890300 5.895650
1.501585 -3.625180 5.895650
0.744385 -1.797160 3.494750
-2.253555 2.936920 -5.723900
-0.278615 2.116280 -3.980470
-0.000015 2.116280 -3.980470
-0.000015 3.670240 -5.723900
0.278685 -2.116280 -3.980470
0.136985 -1.040440 0.515430
0.638885 -0.832561 0.515430
1.299485 -1.693440 -3.980470
0.816885 -1.972050 -3.980470
17.845985 0.000000 7.845650
17.845985 0.000000 8.614750
16.629885 6.888300 8.614750
16.629885 6.888300 7.845650
1.184185 -1.543260 3.494750
2.388685 -3.113010 5.895650
3.113085 -2.388700 5.895650
1.543285 -1.184190 3.494750
-0.000015 -11.897300 -7.864750
4.592185 -11.086600 -7.864750
9.520285 -7.305140 -7.864750
11.897385 -1.566310 -7.864750
11.897385 0.000000 -7.864750
5.700785 0.000000 -6.864750
-0.832515 -0.638847 0.515430
-0.638815 -0.832561 0.515430
0.969585 -0.401596 0.515430
0.638885 -0.832561 0.515430
1.299485 -1.693440 -3.980470
1.693485 -1.299430 -3.980470
1.972085 -0.816853 -3.980470
-4.561755 3.500380 -6.864750
-5.700785 0.000000 -6.864750
-11.897315 0.000000 -7.864750
-11.086532 4.592200 -7.864750
-9.520215 7.305140 -7.864750
-4.592175 11.086600 -7.864750
-0.000015 11.897300 -7.864750
-0.000015 5.700810 -6.864750
0.969585 -0.401596 0.515430
1.972085 -0.816853 -3.980470
1.693485 -1.299430 -3.980470
1.416685 3.420120 -5.723900
-0.000015 3.670240 -5.723900
2.936985 2.253580 -5.723900
-0.000015 0.000000 -8.614750
-0.000015 -11.897300 -8.614750
4.592185 -11.086600 -8.614750
9.520285 -7.305140 -8.614750
11.897385 -1.566310 -8.614750
11.897385 0.000000 -8.614750
11.897385 0.000000 -8.614750
11.897385 -1.566310 -8.614750
11.897385 -1.566310 -7.864750
11.897385 0.000000 -7.864750
-0.744415 1.797160 3.494750
-0.832515 0.638847 0.515430
-1.543215 1.184190 3.494750
-0.000015 6.620090 7.344150
-5.297365 4.064830 7.344150
-3.112985 2.388700 5.895650
-1.501615 3.625180 5.895650
-0.000015 3.890300 5.895650
-0.741015 0.965765 -1.822950
-0.638815 0.832561 0.515430
9.520285 7.305140 -7.864750
9.520285 7.305140 -8.614750
4.592185 11.086600 -8.614750
4.592185 11.086600 -7.864750
-0.000015 -6.620090 7.344150
-5.297365 -4.064830 7.344150
-6.620065 0.000000 7.344150
-17.845985 0.000000 7.845650
-16.629805 -6.888300 7.845650
-10.957683 -14.280400 7.845650
-2.349445 -17.846001 7.845650
-0.000015 -17.846001 7.845650
-0.000015 -17.846001 8.614750
-2.349445 -17.846001 8.614750
-2.349445 -17.846001 7.845650
-0.000015 -17.846001 7.845650
1.928585 0.000000 3.494750
1.797185 -0.744410 3.494750
3.890285 0.000000 5.895650
2.936985 -2.253580 -5.723900
2.116285 0.000000 -3.980470
5.700785 0.000000 -6.864750
4.561785 -3.500380 -6.864750
-1.299415 -1.693440 -3.980470
-1.693415 -1.299430 -3.980470
-0.965715 -0.741058 -1.822950
0.638885 0.832561 0.515430
1.184185 1.543260 3.494750
0.744385 1.797160 3.494750
-0.744415 -1.797160 3.494750
-1.501615 -3.625180 5.895650
0.638885 0.832561 0.515430
1.972085 0.816853 -3.980470
1.693485 1.299430 -3.980470
1.299485 1.693440 -3.980470
4.064885 5.297390 7.344150
-0.000015 6.620090 7.344150
-0.000015 17.846001 7.845650
2.349485 17.846001 7.845650
10.957685 14.280400 7.845650
16.629885 6.888300 7.845650
17.845985 0.000000 7.845650
6.620085 0.000000 7.344150
-1.543215 -1.184190 3.494750
-3.890275 0.000000 5.895650
-3.112985 -2.388700 5.895650
-0.158915 1.206910 -1.822950
-0.000015 1.040440 0.515430
-0.000015 1.206910 -1.822950
-0.000015 -3.890300 5.895650
-0.000015 -1.928600 3.494750
0.253885 -1.928600 3.494750
0.744385 -1.797160 3.494750
1.501585 -3.625180 5.895650
-0.000015 0.000000 8.614750
-0.000015 17.846001 8.614750
-2.349445 17.846001 8.614750
-10.957683 14.280400 8.614750
-16.629805 6.888300 8.614750
-17.845985 0.000000 8.614750
3.113085 -2.388700 5.895650
3.890285 0.000000 5.895650
6.620085 0.000000 7.344150
4.064885 -5.297390 7.344150
2.388685 -3.113010 5.895650
1.040485 0.000000 0.515430
17.845985 0.000000 8.614750
17.845985 0.000000 7.845650
16.629885 6.888300 7.845650
16.629885 6.888300 8.614750
-16.629805 6.888300 8.614750
-10.957683 14.280400 8.614750
-2.349445 17.846001 8.614750
-0.000015 17.846001 8.614750
-0.000015 0.000000 8.614750
-17.845985 0.000000 8.614750
-0.000015 3.890300 5.895650
1.501585 3.625180 5.895650
0.744385 1.797160 3.494750
0.253885 1.928600 3.494750
-0.000015 1.928600 3.494750
-5.700785 0.000000 -6.864750
-11.897315 0.000000 -7.864750
-11.086532 -4.592200 -7.864750
-9.520215 -7.305140 -7.864750
-4.592175 -11.086600 -7.864750
-0.000015 -11.897300 -7.864750
4.064885 -5.297390 7.344150
6.620085 0.000000 7.344150
-2.349445 17.846001 8.614750
-2.349445 17.846001 7.845650
-0.000015 17.846001 7.845650
-0.000015 17.846001 8.614750
-1.693415 1.299430 -3.980470
-2.936905 2.253580 -5.723900
-2.253555 2.936920 -5.723900
-1.299415 1.693440 -3.980470
1.416685 -3.420120 -5.723900
-0.000015 -3.670240 -5.723900
-0.000015 -2.116280 -3.980470
-9.520215 -7.305140 -8.614750
-9.520215 -7.305140 -7.864750
-4.592175 -11.086600 -7.864750
-4.592175 -11.086600 -8.614750
-9.520215 -7.305140 -8.614750
-11.086532 -4.592200 -8.614750
-11.897315 0.000000 -8.614750
-0.000015 0.000000 -8.614750
-0.000015 -11.897300 -8.614750
-4.592175 -11.086600 -8.614750
11.897385 0.000000 -7.864750
11.897385 -1.566310 -7.864750
11.897385 -1.566310 -8.614750
11.897385 0.000000 -8.614750
4.592185 -11.086600 -8.614750
-0.000015 -11.897300 -8.614750
-0.000015 -11.897300 -7.864750
4.592185 -11.086600 -7.864750
-0.000015 -1.040440 0.515430
1.501585 3.625180 5.895650
-0.000015 3.890300 5.895650
2.388685 3.113010 5.895650
3.113085 2.388700 5.895650
1.543285 1.184190 3.494750
1.184185 1.543260 3.494750
-2.936905 -2.253580 -5.723900
-4.561755 -3.500380 -6.864750
-5.700785 0.000000 -6.864750
-2.116255 0.278614 -3.980470
-1.972035 0.816853 -3.980470
-3.420095 1.416660 -5.723900
-3.670215 0.000000 -5.723900
-2.116255 0.000000 -3.980470
10.957685 -14.280400 7.845650
2.349485 -17.846001 7.845650
2.349485 -17.846001 8.614750
10.957685 -14.280400 8.614750
-11.086532 4.592200 -8.614750
-9.520215 7.305140 -8.614750
-9.520215 7.305140 -7.864750
-11.086532 4.592200 -7.864750
16.629885 -6.888300 7.845650
16.629885 -6.888300 8.614750
17.845985 0.000000 8.614750
17.845985 0.000000 7.845650
-0.000015 0.000000 8.614750
-0.000015 -17.846001 8.614750
2.349485 -17.846001 8.614750
10.957685 -14.280400 8.614750
16.629885 -6.888300 8.614750
17.845985 0.000000 8.614750
-0.278615 -2.116280 -3.980470
-0.158915 -1.206910 -1.822950
-0.000015 1.928600 3.494750
-0.744415 1.797160 3.494750
2.116285 0.000000 -3.980470
1.040485 0.000000 0.515430
0.969585 0.401596 0.515430
1.972085 0.816853 -3.980470
-1.206915 0.000000 -1.822950
-1.206915 0.158894 -1.822950
-1.124615 0.465849 -1.822950
-0.969515 0.401596 0.515430
-1.040415 0.136978 0.515430
-1.040415 0.000000 0.515430
-16.629805 6.888300 7.845650
-16.629805 6.888300 8.614750
-1.928575 0.253906 3.494750
-1.543215 1.184190 3.494750
-3.890275 0.000000 5.895650
-1.928575 0.000000 3.494750
-2.253555 -2.936920 -5.723900
-11.086532 4.592200 -8.614750
-9.520215 7.305140 -8.614750
-4.592175 11.086600 -8.614750
-0.000015 11.897300 -8.614750
-0.000015 0.000000 -8.614750
-11.897315 0.000000 -8.614750
2.349485 17.846001 7.845650
10.957685 14.280400 7.845650
10.957685 14.280400 8.614750
2.349485 17.846001 8.614750
-2.116255 -0.278614 -3.980470
-2.116255 0.000000 -3.980470
-3.670215 0.000000 -5.723900
-3.420095 -1.416660 -5.723900
-1.972035 -0.816853 -3.980470
10.957685 -14.280400 8.614750
2.349485 -17.846001 8.614750
-0.000015 -17.846001 8.614750
-0.000015 0.000000 8.614750
17.845985 0.000000 8.614750
16.629885 -6.888300 8.614750
-0.000015 -6.620090 7.344150
-0.000015 -17.846001 7.845650
2.349485 -17.846001 7.845650
10.957685 -14.280400 7.845650
16.629885 -6.888300 7.845650
17.845985 0.000000 7.845650
-0.000015 -6.620090 7.344150
-0.000015 -11.897300 -8.614750
-0.000015 -11.897300 -7.864750
1.299485 1.693440 -3.980470
0.816885 1.972050 -3.980470
1.693485 1.299430 -3.980470
-0.000015 -5.700810 -6.864750
-0.000015 -11.897300 -7.864750
-4.592175 -11.086600 -7.864750
-9.520215 -7.305140 -7.864750
-11.086532 -4.592200 -7.864750
-11.897315 0.000000 -7.864750
-0.000015 -11.897300 -7.864750
-4.592175 -11.086600 -7.864750
-4.592175 -11.086600 -8.614750
-0.000015 -11.897300 -8.614750
1.416685 3.420120 -5.723900
2.936985 2.253580 -5.723900
4.561785 3.500380 -6.864750
-0.000015 5.700810 -6.864750
-0.000015 3.670240 -5.723900
10.957685 -14.280400 7.845650
10.957685 -14.280400 8.614750
-0.969515 -0.401596 0.515430
-0.832515 -0.638847 0.515430
-11.086532 4.592200 -7.864750
-9.520215 7.305140 -7.864750
-9.520215 7.305140 -8.614750
-11.086532 4.592200 -8.614750
-0.000015 3.670240 -5.723900
-0.000015 2.116280 -3.980470
-0.278615 2.116280 -3.980470
4.064885 5.297390 7.344150
6.620085 0.000000 7.344150
17.845985 0.000000 7.845650
16.629885 6.888300 7.845650
10.957685 14.280400 7.845650
2.349485 17.846001 7.845650
-0.000015 17.846001 7.845650
-0.000015 6.620090 7.344150
-0.000015 -1.928600 3.494750
-0.000015 -3.890300 5.895650
1.184185 -1.543260 3.494750
0.136985 -1.040440 0.515430
1.543285 -1.184190 3.494750
1.797185 -0.744410 3.494750
1.928585 0.000000 3.494750
-1.206915 -0.158894 -1.822950
-1.206915 0.000000 -1.822950
-1.124615 -0.465849 -1.822950
16.629885 -6.888300 8.614750
16.629885 -6.888300 7.845650
17.845985 0.000000 7.845650
17.845985 0.000000 8.614750
-0.000015 -3.890300 5.895650
-1.501615 -3.625180 5.895650
-0.000015 17.846001 8.614750
-0.000015 17.846001 7.845650
16.629885 6.888300 8.614750
17.845985 0.000000 8.614750
-0.000015 0.000000 8.614750
-0.000015 17.846001 8.614750
2.349485 17.846001 8.614750
10.957685 14.280400 8.614750
-0.744415 -1.797160 3.494750
-0.000015 -1.928600 3.494750
1.040485 0.000000 0.515430
2.116285 0.000000 -3.980470
-0.000015 -1.040440 0.515430
-0.000015 11.897300 -7.864750
5.700785 0.000000 -6.864750
11.897385 0.000000 -7.864750
11.897385 1.566310 -7.864750
9.520285 7.305140 -7.864750
4.592185 11.086600 -7.864750
11.897385 -1.566310 -8.614750
9.520285 -7.305140 -8.614750
4.592185 -11.086600 -8.614750
-0.000015 -11.897300 -8.614750
-0.000015 0.000000 -8.614750
11.897385 0.000000 -8.614750
-4.592175 11.086600 -8.614750
-4.592175 11.086600 -7.864750
-0.965715 0.741058 -1.822950
-0.832515 0.638847 0.515430
0.278685 -2.116280 -3.980470
0.816885 -1.972050 -3.980470
11.897385 0.000000 -7.864750
11.897385 -1.566310 -7.864750
9.520285 -7.305140 -7.864750
4.592185 -11.086600 -7.864750
-0.000015 -11.897300 -7.864750
-0.000015 -5.700810 -6.864750
-11.086532 -4.592200 -7.864750
-11.086532 -4.592200 -8.614750
-9.520215 -7.305140 -8.614750
-9.520215 -7.305140 -7.864750
0.278685 2.116280 -3.980470
-0.000015 -1.040440 0.515430
-11.086532 -4.592200 -7.864750
-11.086532 -4.592200 -8.614750
-11.897315 0.000000 -8.614750
-11.897315 0.000000 -7.864750
-0.000015 -2.116280 -3.980470
-0.000015 -3.670240 -5.723900
-0.401615 -0.969538 0.515430
-0.465815 -1.124660 -1.822950
-0.000015 11.897300 -8.614750
-0.000015 11.897300 -7.864750
9.520285 -7.305140 -8.614750
9.520285 -7.305140 -7.864750
2.388685 3.113010 5.895650
3.113085 2.388700 5.895650
3.890285 0.000000 5.895650
-11.897315 0.000000 -8.614750
-11.897315 0.000000 -7.864750
10.957685 14.280400 7.845650
10.957685 14.280400 8.614750
-0.000015 -1.040440 0.515430
-0.158915 -1.206910 -1.822950
-0.000015 -1.206910 -1.822950
-1.124615 0.465849 -1.822950
-1.206915 0.158894 -1.822950
-4.592175 11.086600 -7.864750
-4.592175 11.086600 -8.614750
0.816885 1.972050 -3.980470
3.890285 0.000000 5.895650
-0.278615 -2.116280 -3.980470
-0.000015 -2.116280 -3.980470
-0.000015 2.116280 -3.980470
0.278685 2.116280 -3.980470
-0.000015 1.928600 3.494750
9.520285 -7.305140 -7.864750
9.520285 -7.305140 -8.614750
-0.969515 0.401596 0.515430
-0.000015 11.897300 -7.864750
-0.000015 11.897300 -8.614750
-0.000015 2.116280 -3.980470
11.897385 1.566310 -7.864750
11.897385 1.566310 -8.614750
-0.000015 1.040440 0.515430
0.136985 1.040440 0.515430
-11.897315 0.000000 -8.614750
-11.897315 0.000000 -7.864750
-10.957683 14.280400 7.845650
-10.957683 14.280400 8.614750
-2.349445 -17.846001 8.614750
-0.000015 -17.846001 8.614750
-0.000015 0.000000 8.614750
-17.845985 0.000000 8.614750
-16.629805 -6.888300 8.614750
-10.957683 -14.280400 8.614750
-0.000015 11.897300 -8.614750
4.592185 11.086600 -8.614750
4.592185 11.086600 -7.864750
-0.000015 11.897300 -7.864750
1.797185 0.744410 3.494750
1.543285 1.184190 3.494750
-0.000015 -17.846001 7.845650
-0.000015 -17.846001 8.614750
-0.000015 -1.206910 -1.822950
2.116285 0.000000 -3.980470
-0.000015 -6.620090 7.344150
-5.297365 -4.064830 7.344150
-6.620065 0.000000 7.344150
-17.845985 0.000000 7.845650
-16.629805 6.888300 7.845650
-10.957683 14.280400 7.845650
-2.349445 17.846001 7.845650
-0.000015 17.846001 7.845650
4.592185 11.086600 -8.614750
9.520285 7.305140 -8.614750
11.897385 1.566310 -8.614750
11.897385 0.000000 -8.614750
-0.000015 0.000000 -8.614750
-0.000015 11.897300 -8.614750
-0.000015 5.700810 -6.864750
-4.561755 3.500380 -6.864750
-2.936905 2.253580 -5.723900
-16.629805 6.888300 7.845650
-16.629805 6.888300 8.614750
-1.206915 0.000000 -1.822950
11.897385 0.000000 -7.864750
11.897385 0.000000 -8.614750
1.928585 0.000000 3.494750
-5.700785 0.000000 -6.864750
-11.897315 0.000000 -8.614750
-11.086532 -4.592200 -8.614750
-9.520215 -7.305140 -8.614750
-4.592175 -11.086600 -8.614750
-0.000015 -11.897300 -8.614750
-0.000015 0.000000 -8.614750
-11.897315 0.000000 -7.864750
-11.897315 0.000000 -8.614750
-0.000015 11.897300 -7.864750
-0.000015 11.897300 -8.614750
-0.000015 -17.846001 7.845650
-2.349445 -17.846001 7.845650
-10.957683 -14.280400 7.845650
-16.629805 -6.888300 7.845650
-17.845985 0.000000 7.845650
-6.620065 0.000000 7.344150
-3.890275 0.000000 5.895650
16.629885 6.888300 8.614750
10.957685 14.280400 8.614750
2.349485 17.846001 8.614750
-0.000015 17.846001 8.614750
-0.000015 0.000000 8.614750
17.845985 0.000000 8.614750
-2.349445 -17.846001 7.845650
-10.957683 -14.280400 7.845650
-10.957683 -14.280400 8.614750
-2.349445 -17.846001 8.614750
-0.000015 17.846001 8.614750
2.349485 17.846001 8.614750
2.349485 17.846001 7.845650
-0.000015 17.846001 7.845650
-0.000015 -2.116280 -3.980470
-16.629805 -6.888300 7.845650
-16.629805 -6.888300 8.614750
-0.000015 17.846001 7.845650
-2.349445 17.846001 7.845650
-10.957683 14.280400 7.845650
-16.629805 6.888300 7.845650
-17.845985 0.000000 7.845650
-6.620065 0.000000 7.344150
-17.845985 0.000000 8.614750
-17.845985 0.000000 7.845650
4.592185 -11.086600 -8.614750
4.592185 -11.086600 -7.864750
-0.000015 -11.897300 -7.864750
-0.000015 -11.897300 -8.614750
9.520285 7.305140 -8.614750
4.592185 11.086600 -8.614750
-0.000015 11.897300 -8.614750
-0.000015 0.000000 -8.614750
11.897385 0.000000 -8.614750
11.897385 1.566310 -8.614750
-17.845985 0.000000 8.614750
-17.845985 0.000000 7.845650
11.897385 0.000000 -8.614750
11.897385 0.000000 -7.864750
-11.897315 0.000000 -7.864750
-0.000015 11.897300 -7.864750
-4.592175 11.086600 -7.864750
-9.520215 7.305140 -7.864750
-11.086532 4.592200 -7.864750
-16.629805 -6.888300 8.614750
-16.629805 -6.888300 7.845650
-10.957683 -14.280400 7.845650
-10.957683 -14.280400 8.614750
-2.349445 -17.846001 8.614750
-10.957683 -14.280400 8.614750
-16.629805 -6.888300 8.614750
-17.845985 0.000000 8.614750
-0.000015 0.000000 8.614750
-0.000015 -17.846001 8.614750
-17.845985 0.000000 7.845650
-17.845985 0.000000 8.614750
-0.000015 -17.846001 7.845650
-0.000015 -17.846001 8.614750
17.845985 0.000000 7.845650
16.629885 -6.888300 7.845650
10.957685 -14.280400 7.845650
2.349485 -17.846001 7.845650
-0.000015 -17.846001 7.845650
-17.845985 0.000000 7.845650
-17.845985 0.000000 8.614750
-0.000015 17.846001 7.845650
-0.000015 17.846001 8.614750
4 0 1 2 3
4 4 5 6 7
4 8 9 10 11
4 12 13 14 15
4 16 17 18 19
5 20 21 22 23 24
4 25 26 27 28
5 29 30 31 32 33
5 34 35 36 37 38
8 39 40 41 42 43 44 45 46
4 47 48 49 50
4 51 52 53 54
4 55 56 57 58
5 59 60 61 62 63
4 64 58 65 66
5 67 68 69 70 71
5 72 73 74 75 76
6 77 78 79 80 81 82
5 83 84 85 86 87
6 88 89 90 91 92 93
4 94 95 96 97
5 98 99 100 101 102
5 103 65 104 105 106
5 107 108 109 110 111
4 112 113 114 115
6 116 102 101 117 118 119
8 37 36 120 121 122 123 124 125
6 126 93 92 5 4 127
5 128 129 130 131 132
8 133 134 135 136 137 138 139 140
5 110 109 141 142 143
5 144 145 40 39 146
6 147 148 149 150 151 152
4 153 154 155 156
5 157 56 55 158 159
5 160 161 162 163 164
4 165 29 33 166
4 167 168 169 170
8 171 172 173 174 175 176 177 178
4 179 180 181 182
5 183 184 119 118 185
6 186 143 142 187 188 189
4 190 191 192 13
5 9 193 194 195 10
4 60 196 197 61
5 198 94 199 200 201
8 202 203 204 205 206 207 208 209
5 210 16 19 211 212
5 57 213 104 65 58
5 56 214 215 213 57
5 216 217 218 219 220
6 221 222 223 224 225 226
5 227 228 229 230 231
4 142 141 232 187
4 233 234 235 236
6 237 238 239 240 241 242
5 243 244 245 246 247
8 22 248 249 250 251 252 253 23
5 254 255 185 118 117
5 141 109 116 119 184
4 256 257 258 259
6 260 69 68 261 262 263
5 264 265 266 107 111
4 267 268 269 270
6 271 272 273 274 275 276
4 277 278 279 280
4 281 282 283 284
4 266 285 108 107
5 11 10 195 286 287
5 116 109 108 98 102
6 244 288 289 290 291 245
5 83 292 293 294 84
5 295 296 297 298 299
4 300 301 302 303
4 304 305 306 307
4 308 309 310 311
6 312 313 314 315 316 317
5 318 190 13 12 319
4 33 32 320 321
4 322 323 324 325
6 326 327 328 329 330 331
4 54 53 332 333
5 334 335 162 336 337
4 172 212 211 173
6 83 87 191 190 338 292
6 339 340 341 342 343 344
4 98 108 285 99
4 345 346 347 348
5 349 350 351 352 353
6 354 355 356 357 358 359
8 255 254 360 361 362 363 364 365
5 220 231 230 366 216
4 367 270 269 368
5 369 370 144 146 371
8 293 372 373 374 375 376 377 294
6 46 322 325 371 146 39
6 92 91 349 353 6 5
4 378 379 380 381
5 382 383 384 385 386
4 50 49 387 388
4 308 300 303 309
5 325 324 193 369 371
4 159 73 72 157
5 389 17 16 210 390
4 391 392 393 394
5 262 395 396 397 263
8 398 399 400 401 402 403 404 405
4 197 196 406 407
5 129 408 219 218 409
6 220 219 408 410 227 231
5 228 227 410 411 412
6 413 414 18 17 389 415
4 416 417 418 419
5 352 351 248 22 21
5 172 171 420 421 212
4 422 423 52 51
6 424 425 426 427 428 429
4 430 421 420 431
5 263 397 30 29 165
4 213 215 105 104
4 432 128 132 433
5 264 111 110 143 186
4 434 15 430 431
8 435 385 384 436 437 438 439 440
6 441 442 443 444 445 446
5 262 261 133 140 395
4 306 305 447 448
4 260 263 165 449
6 70 69 260 449 328 327
6 328 449 165 166 450 329
5 68 67 134 133 261
5 129 409 451 452 130
8 189 188 453 454 455 456 457 458
4 459 460 461 462
5 369 193 9 463 370
4 217 464 409 218
4 465 466 467 468
5 338 190 318 469 470
4 471 127 4 472
4 447 473 474 448
4 154 475 476 155
5 166 33 321 335 450
5 398 477 478 479 399
4 480 304 307 481
4 236 235 482 483
5 484 471 472 485 486
6 487 64 66 296 295 488
5 254 117 101 100 360
4 91 90 350 349
5 330 329 450 335 334
4 393 392 489 490
6 87 86 413 415 192 191
5 201 200 383 382 491
5 492 96 95 290 289
6 433 132 131 38 37 125
4 486 485 493 494
5 495 496 491 382 386
4 157 72 76 497
5 338 470 372 293 292
4 278 498 499 279
4 63 89 88 59
4 406 196 471 484
4 162 335 321 163
6 500 158 55 58 64 487
4 501 170 169 502
4 463 9 8 503
5 95 94 198 291 290
4 504 505 168 167
4 506 507 496 495
5 493 7 20 24 494
4 141 184 183 232
5 246 245 291 198 507
4 391 394 508 509
4 510 257 256 511
6 512 513 514 515 516 517
4 518 519 520 521
5 398 405 287 286 477
4 71 70 327 326
5 193 324 522 523 194
5 145 144 370 463 503
4 302 301 524 525
4 212 421 430 210
4 462 461 380 379
5 526 319 12 15 434
5 15 14 390 210 430
4 163 321 320 164
4 476 475 281 284
6 199 527 436 384 383 200
6 192 415 389 390 14 13
5 507 198 201 491 496
4 397 396 31 30
5 197 407 528 529 61
8 74 530 531 532 533 534 535 75
6 536 537 538 539 540 541
5 103 106 542 543 544
4 545 510 511 546
4 331 330 334 337
6 28 27 500 487 488 547
4 548 549 505 504
4 346 115 114 347
5 522 550 479 478 523
6 195 194 523 478 477 286
4 268 267 466 465
5 297 544 543 551 298
4 247 246 507 506
6 552 553 554 555 556 557
4 558 559 460 459
4 490 489 560 561
8 529 528 562 563 564 565 566 567
4 73 568 530 74
5 196 60 126 127 471
6 569 570 571 572 573 574
6 6 353 352 21 20 7
5 289 288 202 209 492
4 575 576 577 578
4 469 318 319 526
4 94 97 527 199
5 130 452 34 38 131
4 579 580 581 582
4 61 529 567 62
5 189 458 265 264 186
5 451 583 35 34 452
4 86 85 414 413
5 26 159 158 500 27
4 576 584 585 577
8 161 160 586 587 588 589 590 591
4 0 3 520 519
4 522 324 323 550
4 161 591 336 162
4 545 546 592 593
4 594 595 596 597
6 598 599 600 601 602 603
4 604 333 332 605
4 497 214 56 157
4 2 1 606 607
8 608 551 543 542 609 610 611 612
5 73 159 26 25 568
4 409 464 583 451
5 485 472 4 7 493
4 613 614 615 616
5 59 88 93 126 60
4 180 616 615 181
5 288 244 243 203 202
6 297 296 66 65 103 544
6 617 618 619 620 621 622
4 623 624 585 584
4 580 483 482 581
4 547 488 295 299
4 411 128 432 412
4 416 388 387 417
4 625 575 578 626
8 230 229 627 628 629 630 631 366
5 411 410 408 129 128
4 632 614 613 633
4 634 345 348 635
4 499 498 595 594
