ply
format ascii 1.0
comment Created by Blender 2.82 (sub 7) - www.blender.org, source file: ''
element vertex 160
property float x
property float y
property float z
element face 32
property list uchar uint vertex_indices
end_header
-12.000000 30.000000 8.000000
-12.000000 27.000000 8.000000
-12.000000 27.000000 -11.000000
-12.000000 30.000000 -11.000000
15.000000 -30.000000 11.000000
-15.000000 -30.000000 11.000000
-15.000000 -30.000000 -11.000000
-12.000000 -30.000000 -11.000000
-12.000000 -30.000000 8.000000
12.000000 -30.000000 8.000000
12.000000 -30.000000 -11.000000
15.000000 -30.000000 -11.000000
-12.000000 -27.000000 8.000000
-12.000000 -30.000000 8.000000
-12.000000 -30.000000 -11.000000
-12.000000 -27.000000 -11.000000
15.000000 30.000000 11.000000
15.000000 -30.000000 11.000000
-15.000000 -30.000000 11.000000
-15.000000 30.000000 11.000000
15.000000 -27.000000 8.000000
15.000000 27.000000 8.000000
12.000000 27.000000 8.000000
12.000000 30.000000 8.000000
-12.000000 30.000000 8.000000
-12.000000 27.000000 8.000000
-15.000000 27.000000 8.000000
-15.000000 -27.000000 8.000000
-12.000000 -27.000000 8.000000
-12.000000 30.000000 8.000000
12.000000 30.000000 8.000000
12.000000 30.000000 -11.000000
15.000000 30.000000 -11.000000
15.000000 30.000000 11.000000
-15.000000 30.000000 11.000000
-15.000000 30.000000 -11.000000
-12.000000 30.000000 -11.000000
-12.000000 -27.000000 8.000000
15.000000 -27.000000 8.000000
12.000000 -27.000000 8.000000
12.000000 -30.000000 -11.000000
12.000000 -27.000000 -11.000000
12.000000 -27.000000 8.000000
12.000000 -30.000000 8.000000
12.000000 30.000000 8.000000
-12.000000 30.000000 8.000000
-12.000000 30.000000 -11.000000
-15.000000 30.000000 -11.000000
-15.000000 30.000000 11.000000
15.000000 30.000000 11.000000
15.000000 30.000000 -11.000000
12.000000 30.000000 -11.000000
12.000000 -30.000000 8.000000
-12.000000 -30.000000 8.000000
-15.000000 30.000000 11.000000
-15.000000 -30.000000 11.000000
15.000000 -30.000000 11.000000
15.000000 30.000000 11.000000
12.000000 27.000000 -11.000000
12.000000 27.000000 8.000000
15.000000 27.000000 8.000000
15.000000 27.000000 -11.000000
-12.000000 27.000000 -11.000000
-12.000000 27.000000 8.000000
-15.000000 27.000000 8.000000
-15.000000 27.000000 -11.000000
12.000000 -30.000000 8.000000
12.000000 -27.000000 8.000000
12.000000 -27.000000 -11.000000
12.000000 -30.000000 -11.000000
-12.000000 30.000000 -11.000000
-12.000000 27.000000 -11.000000
-12.000000 27.000000 8.000000
-12.000000 30.000000 8.000000
12.000000 27.000000 -11.000000
12.000000 27.000000 8.000000
12.000000 30.000000 8.000000
12.000000 30.000000 -11.000000
15.000000 27.000000 -11.000000
15.000000 27.000000 8.000000
12.000000 27.000000 8.000000
12.000000 27.000000 -11.000000
15.000000 -27.000000 8.000000
15.000000 -27.000000 -11.000000
12.000000 -27.000000 -11.000000
12.000000 -27.000000 8.000000
-15.000000 27.000000 8.000000
-15.000000 -27.000000 8.000000
-15.000000 -27.000000 -11.000000
-15.000000 -30.000000 -11.000000
-15.000000 -30.000000 11.000000
-15.000000 30.000000 11.000000
-15.000000 30.000000 -11.000000
-15.000000 27.000000 -11.000000
-12.000000 -27.000000 -11.000000
-12.000000 -30.000000 -11.000000
-12.000000 -30.000000 8.000000
-12.000000 -27.000000 8.000000
12.000000 -27.000000 8.000000
15.000000 -30.000000 -11.000000
15.000000 -30.000000 11.000000
15.000000 30.000000 11.000000
15.000000 30.000000 -11.000000
15.000000 27.000000 -11.000000
15.000000 27.000000 8.000000
15.000000 -27.000000 8.000000
15.000000 -27.000000 -11.000000
-12.000000 -27.000000 8.000000
-12.000000 -27.000000 -11.000000
-15.000000 -27.000000 -11.000000
-15.000000 -27.000000 8.000000
-12.000000 -30.000000 8.000000
12.000000 -30.000000 8.000000
-15.000000 -30.000000 11.000000
15.000000 -30.000000 11.000000
15.000000 -30.000000 -11.000000
12.000000 -30.000000 -11.000000
12.000000 -30.000000 8.000000
-12.000000 -30.000000 8.000000
-12.000000 -30.000000 -11.000000
-15.000000 -30.000000 -11.000000
12.000000 30.000000 -11.000000
12.000000 30.000000 8.000000
12.000000 27.000000 8.000000
12.000000 27.000000 -11.000000
-15.000000 27.000000 -11.000000
-15.000000 27.000000 8.000000
-12.000000 27.000000 8.000000
-12.000000 27.000000 -11.000000
-15.000000 -27.000000 8.000000
-15.000000 -27.000000 -11.000000
-12.000000 -27.000000 -11.000000
-12.000000 -27.000000 8.000000
15.000000 -27.000000 8.000000
15.000000 27.000000 8.000000
15.000000 27.000000 -11.000000
15.000000 30.000000 -11.000000
15.000000 30.000000 11.000000
15.000000 -30.000000 11.000000
15.000000 -30.000000 -11.000000
15.000000 -27.000000 -11.000000
-15.000000 -27.000000 8.000000
-15.000000 27.000000 8.000000
-12.000000 27.000000 8.000000
-12.000000 30.000000 8.000000
12.000000 30.000000 8.000000
12.000000 27.000000 8.000000
15.000000 27.000000 8.000000
-15.000000 30.000000 -11.000000
-15.000000 30.000000 11.000000
-15.000000 -30.000000 11.000000
-15.000000 -30.000000 -11.000000
-15.000000 -27.000000 -11.000000
-15.000000 -27.000000 8.000000
-15.000000 27.000000 8.000000
-15.000000 27.000000 -11.000000
12.000000 -27.000000 8.000000
12.000000 -27.000000 -11.000000
15.000000 -27.000000 -11.000000
15.000000 -27.000000 8.000000
4 0 1 2 3
8 4 5 6 7 8 9 10 11
4 12 13 14 15
4 16 17 18 19
9 20 21 22 23 24 25 26 27 28
8 29 30 31 32 33 34 35 36
3 37 38 39
4 40 41 42 43
8 44 45 46 47 48 49 50 51
4 39 52 53 37
4 54 55 56 57
4 58 59 60 61
4 62 63 64 65
4 66 67 68 69
4 70 71 72 73
4 74 75 76 77
4 78 79 80 81
4 82 83 84 85
8 86 87 88 89 90 91 92 93
4 94 95 96 97
3 98 20 28
8 99 100 101 102 103 104 105 106
4 107 108 109 110
4 98 28 111 112
8 113 114 115 116 117 118 119 120
4 121 122 123 124
4 125 126 127 128
4 129 130 131 132
8 133 134 135 136 137 138 139 140
9 37 141 142 143 144 145 146 147 38
8 148 149 150 151 152 153 154 155
4 156 157 158 159
