ply
format ascii 1.0
comment Created by Blender 2.82 (sub 7) - www.blender.org, source file: ''
element vertex 451
property float x
property float y
property float z
element face 120
property list uchar uint vertex_indices
end_header
-11.125000 18.374901 2.687500
-11.125000 -18.374901 2.687500
-11.875000 -18.374901 2.687500
-11.875000 18.374901 2.687500
11.125000 18.374901 3.437500
11.125000 18.374901 2.687500
11.125000 -18.374901 2.687500
11.125000 -18.374901 3.437500
-11.137000 18.846901 -5.312500
-11.137000 18.846901 -5.437500
-11.234000 19.014900 -5.437500
-11.234000 19.014900 -5.312500
11.875000 -18.374901 3.437500
11.875000 -18.374901 -5.312500
11.875000 -18.374901 2.687500
11.875000 18.374901 -5.312500
11.875000 18.374901 3.437500
11.875000 18.374901 2.687500
11.875000 -19.124901 3.437500
-11.125000 -19.124901 3.437500
-11.125000 -19.124901 2.687500
11.125000 -19.124901 2.687500
11.125000 -19.124901 -5.312500
11.875000 -19.124901 -5.312500
-11.500000 -18.374901 -5.437500
-11.500000 -18.374901 -5.312500
-11.402000 -18.387699 -5.312500
-11.402000 -18.387699 -5.437500
11.875000 -18.374901 2.687500
11.875000 -18.374901 -5.312500
11.875000 -18.374901 3.437500
11.863000 18.846901 -5.437500
11.766000 19.014900 -5.437500
11.766000 19.014900 -5.312500
11.863000 18.846901 -5.312500
11.138000 -18.847000 -5.312500
11.125000 -18.749901 -5.312500
11.125000 -18.749901 -5.437500
11.138000 -18.847000 -5.437500
11.875000 18.374901 2.687500
11.875000 18.374901 3.437500
11.875000 18.374901 -5.312500
11.125000 -19.124901 2.687500
-11.125000 -19.124901 2.687500
-11.125000 -19.124901 3.437500
11.875000 -19.124901 3.437500
11.875000 -19.124901 -5.312500
11.125000 -19.124901 -5.312500
11.875000 -19.124901 -5.312500
11.875000 -19.124901 3.437500
-11.687000 18.424900 -5.312500
-11.765000 18.484900 -5.312500
-11.765000 18.484900 -5.437500
-11.687000 18.424900 -5.437500
-11.125000 -18.374901 3.437500
11.125000 -18.374901 3.437500
11.125000 -18.374901 2.687500
-11.125000 -18.374901 2.687500
11.125000 -18.374901 2.687500
11.875000 -18.374901 2.687500
11.875000 -18.374901 -5.312500
11.125000 -18.374901 -5.312500
11.875000 -19.124901 5.437500
11.875000 19.124901 5.437500
-11.875000 19.124901 5.437500
-11.875000 -19.124901 5.437500
11.500000 -18.374901 -5.312500
11.598000 -18.387699 -5.312500
11.598000 -18.387699 -5.437500
11.500000 -18.374901 -5.437500
11.875000 19.124901 -5.312500
11.875000 19.124901 3.437500
11.875000 19.124901 3.437500
11.875000 19.124901 -5.312500
-11.500000 18.374901 -5.437500
-11.500000 18.374901 -5.312500
11.235000 19.014900 -5.312500
11.313000 19.074900 -5.312500
11.313000 19.074900 -5.437500
11.235000 19.014900 -5.437500
-11.875000 -18.374901 -5.312500
-11.875000 -18.374901 3.437500
-11.875000 -18.374901 2.687500
11.125000 -18.374901 3.437500
11.125000 -18.374901 2.687500
11.125000 18.374901 2.687500
11.125000 18.374901 3.437500
-11.875000 -18.374901 2.687500
-11.125000 -18.374901 2.687500
-11.125000 -18.374901 -5.312500
-11.875000 -18.374901 -5.312500
-11.312000 19.074900 -5.312500
-11.312000 19.074900 -5.437500
-11.500000 19.124901 -5.437500
-11.500000 19.124901 -5.312500
-11.875000 -19.124901 -5.312500
-11.875000 -18.374901 -5.312500
-11.125000 -18.374901 -5.312500
-11.125000 -19.124901 -5.312500
11.125000 19.124901 -5.312500
11.125000 19.124901 3.437500
11.875000 19.124901 3.437500
11.875000 19.124901 -5.312500
11.125000 19.124901 2.687500
11.125000 18.374901 2.687500
-11.125000 19.124901 2.687500
11.138000 18.846901 -5.437500
11.138000 18.846901 -5.312500
11.875000 19.124901 3.437500
11.875000 19.124901 5.437500
11.875000 -19.124901 5.437500
11.875000 -19.124901 3.437500
11.598000 -18.387699 -5.312500
11.403000 -18.387699 -5.312500
11.235000 -18.484699 -5.312500
11.138000 -18.652901 -5.312500
11.138000 -18.847000 -5.312500
11.235000 -19.015100 -5.312500
11.403000 -19.112101 -5.312500
11.598000 -19.112101 -5.312500
11.766000 -19.015100 -5.312500
11.863000 -18.847000 -5.312500
11.863000 -18.652901 -5.312500
11.766000 -18.484699 -5.312500
11.875000 -18.749901 -5.437500
11.875000 -18.749901 -5.312500
11.863000 -18.847000 -5.312500
11.863000 -18.847000 -5.437500
-11.875000 -19.124901 5.437500
-11.875000 19.124901 5.437500
11.875000 19.124901 5.437500
11.875000 -19.124901 5.437500
11.125000 -18.374901 2.687500
11.125000 -18.374901 -5.312500
11.125000 -19.124901 -5.312500
11.125000 -19.124901 2.687500
-11.765000 19.014900 -5.312500
-11.687000 19.074900 -5.312500
-11.687000 19.074900 -5.437500
-11.765000 19.014900 -5.437500
11.125000 19.124901 2.687500
-11.125000 19.124901 2.687500
-11.125000 19.124901 -5.312500
-11.875000 19.124901 -5.312500
-11.875000 19.124901 3.437500
11.125000 19.124901 3.437500
-11.597000 -18.387699 -5.437500
-11.402000 -18.387699 -5.437500
-11.234000 -18.484699 -5.437500
-11.137000 -18.652901 -5.437500
-11.137000 -18.847000 -5.437500
-11.234000 -19.015100 -5.437500
-11.402000 -19.112101 -5.437500
-11.597000 -19.112101 -5.437500
-11.765000 -19.015100 -5.437500
-11.862000 -18.847000 -5.437500
-11.862000 -18.652901 -5.437500
-11.765000 -18.484699 -5.437500
11.766000 18.484900 -5.437500
11.688000 18.424900 -5.437500
11.500000 18.374901 -5.437500
11.313000 18.424900 -5.437500
11.235000 18.484900 -5.437500
11.138000 18.652901 -5.437500
11.138000 18.846901 -5.437500
11.235000 19.014900 -5.437500
11.313000 19.074900 -5.437500
11.500000 19.124901 -5.437500
11.688000 19.074900 -5.437500
11.766000 19.014900 -5.437500
11.863000 18.846901 -5.437500
11.863000 18.652901 -5.437500
11.313000 18.424900 -5.312500
11.235000 18.484900 -5.312500
11.235000 18.484900 -5.437500
11.313000 18.424900 -5.437500
11.500000 18.374901 -5.312500
11.688000 18.424900 -5.312500
11.766000 18.484900 -5.312500
11.863000 18.652901 -5.312500
11.863000 18.846901 -5.312500
11.766000 19.014900 -5.312500
11.688000 19.074900 -5.312500
11.500000 19.124901 -5.312500
11.313000 19.074900 -5.312500
11.235000 19.014900 -5.312500
11.138000 18.846901 -5.312500
11.138000 18.652901 -5.312500
11.235000 18.484900 -5.312500
11.313000 18.424900 -5.312500
-11.137000 -18.847000 -5.312500
-11.234000 -19.015100 -5.312500
-11.234000 -19.015100 -5.437500
-11.137000 -18.847000 -5.437500
11.500000 -19.124901 -5.437500
11.500000 -19.124901 -5.312500
11.403000 -19.112101 -5.312500
11.403000 -19.112101 -5.437500
11.125000 18.749901 -5.437500
11.125000 18.749901 -5.312500
11.235000 -18.484699 -5.312500
11.235000 -18.484699 -5.437500
11.138000 -18.652901 -5.437500
11.138000 -18.652901 -5.312500
11.688000 19.074900 -5.437500
11.688000 19.074900 -5.312500
11.766000 19.014900 -5.312500
11.766000 19.014900 -5.437500
11.875000 18.749901 -5.437500
11.875000 18.749901 -5.312500
-11.125000 18.749901 -5.437500
-11.125000 18.749901 -5.312500
-11.137000 18.652901 -5.312500
-11.137000 18.652901 -5.437500
-11.765000 -19.015100 -5.312500
-11.862000 -18.847000 -5.312500
-11.862000 -18.847000 -5.437500
-11.765000 -19.015100 -5.437500
11.500000 18.374901 -5.437500
11.500000 18.374901 -5.312500
-11.500000 19.124901 -5.312500
-11.500000 19.124901 -5.437500
-11.402000 -19.112101 -5.312500
-11.500000 -19.124901 -5.312500
-11.500000 -19.124901 -5.437500
-11.402000 -19.112101 -5.437500
-11.234000 -18.484699 -5.312500
-11.234000 -18.484699 -5.437500
-11.862000 18.652901 -5.437500
-11.765000 18.484900 -5.437500
-11.765000 18.484900 -5.312500
-11.862000 18.652901 -5.312500
11.766000 -19.015100 -5.312500
11.766000 -19.015100 -5.437500
-11.597000 -19.112101 -5.312500
-11.597000 -19.112101 -5.437500
-11.862000 18.846901 -5.437500
-11.862000 18.846901 -5.312500
-11.875000 19.124901 5.437500
11.875000 19.124901 5.437500
11.875000 19.124901 3.437500
-11.875000 19.124901 3.437500
-11.234000 18.484900 -5.312500
-11.312000 18.424900 -5.312500
-11.312000 18.424900 -5.437500
-11.234000 18.484900 -5.437500
-11.125000 -19.124901 -5.312500
-11.125000 -19.124901 3.437500
-11.875000 -19.124901 3.437500
-11.875000 -19.124901 -5.312500
-11.765000 -18.484699 -5.312500
-11.862000 -18.652901 -5.312500
-11.862000 -18.847000 -5.312500
-11.765000 -19.015100 -5.312500
-11.597000 -19.112101 -5.312500
-11.402000 -19.112101 -5.312500
-11.234000 -19.015100 -5.312500
-11.137000 -18.847000 -5.312500
-11.137000 -18.652901 -5.312500
-11.234000 -18.484699 -5.312500
-11.402000 -18.387699 -5.312500
-11.597000 -18.387699 -5.312500
-11.234000 19.014900 -5.312500
-11.234000 19.014900 -5.437500
11.500000 19.124901 -5.312500
11.500000 19.124901 -5.437500
11.875000 -19.124901 5.437500
-11.875000 -19.124901 5.437500
-11.875000 -19.124901 3.437500
11.875000 -19.124901 3.437500
-11.234000 19.014900 -5.437500
-11.137000 18.846901 -5.437500
-11.137000 18.652901 -5.437500
-11.234000 18.484900 -5.437500
-11.312000 18.424900 -5.437500
-11.500000 18.374901 -5.437500
-11.687000 18.424900 -5.437500
-11.765000 18.484900 -5.437500
-11.862000 18.652901 -5.437500
-11.862000 18.846901 -5.437500
-11.765000 19.014900 -5.437500
-11.687000 19.074900 -5.437500
-11.500000 19.124901 -5.437500
-11.312000 19.074900 -5.437500
11.875000 -18.374901 -5.312500
11.875000 -19.124901 -5.312500
11.125000 -19.124901 -5.312500
11.125000 -18.374901 -5.312500
11.125000 18.374901 3.437500
-11.125000 18.374901 3.437500
-11.125000 18.374901 2.687500
11.125000 18.374901 2.687500
-11.125000 -18.374901 2.687500
-11.125000 -19.124901 2.687500
-11.125000 -19.124901 -5.312500
-11.125000 -18.374901 -5.312500
11.875000 19.124901 -5.312500
11.875000 18.374901 -5.312500
11.125000 18.374901 -5.312500
11.125000 19.124901 -5.312500
-11.137000 -18.652901 -5.312500
-11.137000 -18.652901 -5.437500
11.125000 18.374901 -5.312500
11.875000 18.374901 -5.312500
11.875000 18.374901 2.687500
11.125000 18.374901 2.687500
11.235000 -18.484699 -5.437500
11.403000 -18.387699 -5.437500
11.598000 -18.387699 -5.437500
11.766000 -18.484699 -5.437500
11.863000 -18.652901 -5.437500
11.863000 -18.847000 -5.437500
11.766000 -19.015100 -5.437500
11.598000 -19.112101 -5.437500
11.403000 -19.112101 -5.437500
11.235000 -19.015100 -5.437500
11.138000 -18.847000 -5.437500
11.138000 -18.652901 -5.437500
11.125000 -18.374901 2.687500
11.125000 -19.124901 2.687500
-11.125000 -19.124901 2.687500
11.766000 -18.484699 -5.312500
11.766000 -18.484699 -5.437500
11.235000 -19.015100 -5.312500
11.235000 -19.015100 -5.437500
11.863000 -18.652901 -5.437500
11.863000 -18.652901 -5.312500
11.875000 -18.749901 -5.312500
11.875000 -18.749901 -5.437500
-11.875000 -18.749901 -5.312500
-11.862000 -18.652901 -5.312500
-11.862000 -18.652901 -5.437500
-11.875000 -18.749901 -5.437500
-11.597000 -18.387699 -5.437500
-11.597000 -18.387699 -5.312500
-11.500000 -18.374901 -5.312500
-11.500000 -18.374901 -5.437500
11.403000 -18.387699 -5.312500
11.403000 -18.387699 -5.437500
11.235000 -18.484699 -5.437500
11.235000 -18.484699 -5.312500
11.875000 -19.124901 3.437500
11.875000 -19.124901 -5.312500
-11.125000 18.749901 -5.312500
-11.125000 18.749901 -5.437500
-11.765000 -18.484699 -5.312500
-11.765000 -18.484699 -5.437500
11.125000 -18.749901 -5.312500
11.125000 -18.749901 -5.437500
11.598000 -19.112101 -5.312500
11.500000 -19.124901 -5.312500
11.500000 -19.124901 -5.437500
11.598000 -19.112101 -5.437500
-11.765000 -18.484699 -5.312500
-11.765000 -18.484699 -5.437500
-11.125000 18.374901 2.687500
-11.875000 18.374901 2.687500
-11.875000 18.374901 -5.312500
-11.125000 18.374901 -5.312500
-11.125000 19.124901 -5.312500
-11.125000 18.374901 -5.312500
-11.875000 18.374901 -5.312500
-11.875000 19.124901 -5.312500
-11.875000 19.124901 5.437500
-11.875000 19.124901 3.437500
-11.875000 -19.124901 3.437500
-11.875000 -19.124901 5.437500
-11.125000 -18.749901 -5.312500
-11.125000 -18.749901 -5.437500
11.863000 18.652901 -5.437500
11.875000 18.749901 -5.437500
11.875000 18.749901 -5.312500
11.863000 18.652901 -5.312500
11.688000 18.424900 -5.437500
11.688000 18.424900 -5.312500
11.500000 18.374901 -5.312500
11.500000 18.374901 -5.437500
-11.125000 -18.749901 -5.437500
-11.125000 -18.749901 -5.312500
-11.125000 18.374901 2.687500
-11.125000 18.374901 3.437500
-11.125000 -18.374901 3.437500
-11.125000 -18.374901 2.687500
-11.125000 18.374901 -5.312500
-11.125000 19.124901 -5.312500
-11.125000 19.124901 2.687500
-11.125000 18.374901 2.687500
-11.875000 -19.124901 -5.312500
-11.875000 -19.124901 3.437500
-11.234000 -19.015100 -5.312500
-11.234000 -19.015100 -5.437500
-11.500000 18.374901 -5.312500
-11.500000 18.374901 -5.437500
11.766000 18.484900 -5.437500
11.766000 18.484900 -5.312500
11.125000 19.124901 -5.312500
11.875000 19.124901 -5.312500
11.875000 19.124901 3.437500
11.125000 19.124901 3.437500
11.125000 19.124901 2.687500
11.125000 19.124901 -5.312500
11.125000 18.374901 -5.312500
11.125000 18.374901 2.687500
-11.125000 -18.374901 2.687500
11.125000 -18.374901 2.687500
11.125000 -18.374901 3.437500
-11.125000 -18.374901 3.437500
11.875000 19.124901 3.437500
11.875000 -19.124901 3.437500
-11.875000 -19.124901 3.437500
-11.875000 19.124901 3.437500
-11.875000 -18.749901 -5.312500
-11.875000 -18.749901 -5.437500
-11.137000 18.846901 -5.312500
-11.234000 19.014900 -5.312500
-11.312000 19.074900 -5.312500
-11.500000 19.124901 -5.312500
-11.687000 19.074900 -5.312500
-11.765000 19.014900 -5.312500
-11.862000 18.846901 -5.312500
-11.862000 18.652901 -5.312500
-11.765000 18.484900 -5.312500
-11.687000 18.424900 -5.312500
-11.500000 18.374901 -5.312500
-11.312000 18.424900 -5.312500
-11.234000 18.484900 -5.312500
-11.137000 18.652901 -5.312500
-11.500000 -19.124901 -5.312500
-11.500000 -19.124901 -5.437500
-11.875000 18.749901 -5.312500
-11.875000 18.749901 -5.437500
11.500000 19.124901 -5.437500
11.500000 19.124901 -5.312500
-11.875000 18.749901 -5.437500
-11.875000 18.749901 -5.312500
11.125000 18.749901 -5.312500
11.125000 18.749901 -5.437500
11.138000 18.652901 -5.437500
11.138000 18.652901 -5.312500
11.235000 18.484900 -5.437500
11.235000 18.484900 -5.312500
11.766000 -19.015100 -5.312500
11.766000 -19.015100 -5.437500
11.875000 18.374901 2.687500
11.875000 -18.374901 2.687500
-11.875000 19.124901 3.437500
-11.875000 19.124901 -5.312500
-11.875000 18.374901 -5.312500
-11.875000 18.374901 2.687500
11.500000 -18.374901 -5.312500
11.500000 -18.374901 -5.437500
4 0 1 2 3
4 4 5 6 7
4 8 9 10 11
3 12 13 14
3 15 16 17
6 18 19 20 21 22 23
4 24 25 26 27
3 28 29 30
4 31 32 33 34
4 35 36 37 38
3 39 40 41
6 42 43 44 45 46 47
4 48 13 12 49
4 50 51 52 53
4 54 55 56 57
4 58 59 60 61
4 62 63 64 65
4 66 67 68 69
4 15 70 71 16
4 41 40 72 73
4 17 16 12 14
4 50 53 74 75
4 28 30 40 39
4 76 77 78 79
3 80 81 82
4 83 84 85 86
4 87 88 89 90
4 91 92 93 94
4 95 96 97 98
4 99 100 101 102
4 103 104 0 105
4 79 106 107 76
4 108 109 110 111
12 112 113 114 115 116 117 118 119 120 121 122 123
4 124 125 126 127
4 128 129 130 131
4 132 133 134 135
4 136 137 138 139
6 140 141 142 143 144 145
12 146 147 148 149 150 151 152 153 154 155 156 157
14 158 159 160 161 162 163 164 165 166 167 168 169 170 171
4 172 173 174 175
14 176 177 178 179 180 181 182 183 184 185 186 187 188 189
4 190 191 192 193
4 194 195 196 197
4 107 106 198 199
4 200 201 202 203
4 204 205 206 207
4 208 31 34 209
4 210 211 212 213
4 214 215 216 217
4 172 175 218 219
4 220 221 138 137
4 222 223 224 225
4 27 26 226 227
4 228 229 230 231
4 232 233 127 126
4 234 214 217 235
4 139 236 237 136
4 238 239 240 241
4 242 243 244 245
4 246 247 248 249
12 250 251 252 253 254 255 256 257 258 259 260 261
4 91 262 263 92
4 264 265 78 77
4 266 267 268 269
14 270 271 272 273 274 275 276 277 278 279 280 281 282 283
4 284 285 286 287
4 288 289 290 291
4 292 293 294 295
4 296 297 298 299
4 227 226 300 301
4 302 303 304 305
12 306 307 308 309 310 311 312 313 314 315 316 317
4 318 319 320 1
4 67 321 322 68
4 323 35 38 324
4 325 326 327 328
4 329 330 331 332
4 333 334 335 336
4 337 338 339 340
4 341 30 29 342
4 9 8 343 344
4 330 345 346 331
4 347 203 202 348
4 349 350 351 352
4 197 196 323 324
4 353 334 333 354
4 355 356 357 358
4 359 360 361 362
4 363 364 365 366
4 301 300 367 368
4 369 370 371 372
4 373 374 375 376
4 377 378 190 193
4 379 380 381 382
4 383 384 385 386
4 81 80 387 388
4 389 222 225 390
4 322 321 326 325
4 243 391 392 244
4 393 394 374 373
4 395 396 397 398
4 393 369 372 394
4 399 400 401 402
4 403 404 405 406
4 407 408 409 410
4 215 411 412 216
14 413 414 415 416 417 418 419 420 421 422 423 424 425 426
4 427 234 235 428
4 429 430 228 231
4 205 204 431 432
4 242 245 213 212
4 237 236 433 434
4 435 436 437 438
4 439 440 438 437
4 441 349 352 442
4 443 444 318 104
6 445 446 447 448 82 81
4 338 337 449 450
