ply
format ascii 1.0
comment Created by Blender 2.82 (sub 7) - www.blender.org, source file: ''
element vertex 152
property float x
property float y
property float z
element face 36
property list uchar uint vertex_indices
end_header
38.023212 -106.227501 -24.518431
38.023212 -96.119499 -24.518431
38.023212 -96.119499 18.406170
38.023212 -106.227501 18.406170
-38.247513 -96.119499 -24.518431
-38.247513 -96.119499 18.406170
38.023212 -96.119499 18.406170
38.023212 -96.119499 -24.518431
38.247513 96.118301 18.467070
-38.246574 96.118301 18.467070
-38.246574 -95.898499 18.467070
38.247513 -95.898499 18.467070
-38.591576 95.531303 -24.457529
-38.591576 106.814499 -24.457529
-38.591576 106.814499 -26.210680
-38.591576 95.531303 -26.210680
38.247513 106.227501 -24.457529
38.247513 106.227501 18.467070
38.247513 96.118301 18.467070
38.247513 96.118301 -24.457529
38.368214 -95.532501 -24.518431
-38.247513 -96.119499 -24.518431
38.023212 -96.119499 -24.518431
38.368214 -106.814499 -24.518431
-38.247513 -96.119499 -24.518431
-38.247513 -106.227501 -24.518431
-38.247513 -106.227501 26.271469
-38.246574 106.227501 26.271570
-38.246574 106.227501 -24.457529
-38.246574 96.118301 -24.457529
-38.246574 96.118301 18.467070
-38.247513 -96.119499 18.467070
38.368214 -95.532501 -24.518431
38.368214 -106.814499 -24.518431
38.368214 -106.814499 -26.271570
38.368214 -95.532501 -26.271570
-38.246574 106.227501 26.271570
-38.246574 106.227501 -24.457529
38.247513 106.227501 -24.457529
38.247513 106.227501 26.271570
-38.247513 -106.227501 -24.518431
38.023212 -106.227501 -24.518431
38.023212 -96.119499 -24.518431
-38.247513 -96.119499 -24.518431
38.247513 106.227501 18.406170
38.247513 106.227501 26.271570
38.023212 -106.227501 26.271469
38.023212 -106.227501 18.406170
38.023212 -96.119499 -24.518431
38.023212 -96.119499 18.406170
-38.247513 -96.119499 18.406170
-38.247513 -96.119499 -24.518431
38.247513 106.227501 -24.457529
38.247513 96.118301 -24.457529
38.247513 96.118301 18.467070
38.247513 106.227501 18.467070
-38.247513 -96.119499 -24.518431
-38.247513 -96.119499 18.467070
-38.246574 96.118301 18.467070
-38.246574 96.118301 -24.457529
-38.246574 106.227501 -24.457529
-38.246574 106.227501 26.271570
-38.247513 -106.227501 26.271469
-38.247513 -106.227501 -24.518431
38.247513 106.227501 18.406170
38.023212 -106.227501 18.406170
38.023212 -106.227501 26.271469
38.247513 106.227501 26.271570
38.247513 -95.898499 18.467070
-38.246574 -95.898499 18.467070
-38.246574 96.118301 18.467070
38.247513 96.118301 18.467070
38.592510 106.814499 -24.457529
-38.591576 106.814499 -24.457529
-38.591576 95.531303 -24.457529
38.247513 96.118301 -24.457529
-38.246574 96.118301 -24.457529
-38.246574 106.227501 -24.457529
38.247513 106.227501 -24.457529
38.592510 95.531303 -24.457529
38.023212 -106.227501 18.406170
38.023212 -96.119499 18.406170
38.023212 -96.119499 -24.518431
38.023212 -106.227501 -24.518431
38.247513 106.227501 26.271570
38.247513 106.227501 -24.457529
-38.246574 106.227501 -24.457529
-38.246574 106.227501 26.271570
-38.246574 96.118301 -24.457529
38.247513 96.118301 -24.457529
38.247513 106.227501 -24.457529
-38.246574 106.227501 -24.457529
38.023212 -106.227501 -24.518431
38.023212 -106.227501 26.271469
-38.247513 -106.227501 26.271469
-38.247513 -106.227501 -24.518431
-38.592510 -106.814499 -24.518431
38.023212 -106.227501 -24.518431
-38.247513 -106.227501 -24.518431
-38.592510 -95.532501 -24.518431
-38.247513 -106.227501 -24.518431
-38.247513 -106.227501 26.271469
38.023212 -106.227501 26.271469
38.023212 -106.227501 -24.518431
-38.592510 -106.814499 -26.271570
38.368214 -106.814499 -26.271570
38.368214 -106.814499 -24.518431
-38.592510 -106.814499 -24.518431
38.023212 -106.227501 26.271469
-38.247513 -106.227501 26.271469
-38.246574 106.227501 26.271570
38.247513 106.227501 26.271570
38.368214 -95.532501 -24.518431
38.368214 -95.532501 -26.271570
-38.592510 -95.532501 -26.271570
-38.592510 -95.532501 -24.518431
-38.592510 -106.814499 -26.271570
-38.592510 -106.814499 -24.518431
-38.592510 -95.532501 -24.518431
-38.592510 -95.532501 -26.271570
38.368214 -106.814499 -26.271570
-38.592510 -106.814499 -26.271570
-38.592510 -95.532501 -26.271570
38.368214 -95.532501 -26.271570
-38.246574 96.118301 -24.457529
-38.246574 96.118301 18.467070
38.247513 96.118301 18.467070
38.247513 96.118301 -24.457529
38.247513 96.118301 -24.457529
38.247513 96.118301 18.467070
-38.246574 96.118301 18.467070
-38.246574 96.118301 -24.457529
38.592510 95.531303 -26.210680
38.592510 95.531303 -24.457529
-38.591576 95.531303 -24.457529
-38.591576 95.531303 -26.210680
-38.246574 106.227501 26.271570
-38.247513 -106.227501 26.271469
38.023212 -106.227501 26.271469
38.247513 106.227501 26.271570
38.592510 95.531303 -26.210680
-38.591576 95.531303 -26.210680
-38.591576 106.814499 -26.210680
38.592510 106.814499 -26.210680
38.592510 106.814499 -24.457529
38.592510 106.814499 -26.210680
-38.591576 106.814499 -26.210680
-38.591576 106.814499 -24.457529
38.592510 106.814499 -24.457529
38.592510 95.531303 -24.457529
38.592510 95.531303 -26.210680
38.592510 106.814499 -26.210680
4 0 1 2 3
4 4 5 6 7
4 8 9 10 11
4 12 13 14 15
4 16 17 18 19
4 20 21 22 23
8 24 25 26 27 28 29 30 31
4 32 33 34 35
4 36 37 38 39
4 40 41 42 43
4 44 45 46 47
4 48 49 50 51
4 52 53 54 55
8 56 57 58 59 60 61 62 63
4 64 65 66 67
4 68 69 70 71
8 72 73 74 75 76 77 78 79
4 80 81 82 83
4 84 85 86 87
4 88 89 90 91
4 92 93 94 95
8 96 23 22 97 98 21 20 99
4 100 101 102 103
4 104 105 106 107
4 108 109 110 111
4 112 113 114 115
4 116 117 118 119
4 120 121 122 123
4 124 125 126 127
4 128 129 130 131
4 132 133 134 135
4 136 137 138 139
4 140 141 142 143
4 75 74 79 78
4 144 145 146 147
4 148 149 150 151
