ply
format ascii 1.0
comment Created by Blender 2.82 (sub 7) - www.blender.org, source file: ''
element vertex 612
property float x
property float y
property float z
element face 128
property list uchar uint vertex_indices
end_header
17.250000 -27.281200 11.874250
-17.250000 -27.281200 11.874250
-17.250000 -25.156200 11.874250
17.250000 -25.156200 11.874250
-11.750000 25.156200 11.874250
-11.750000 27.281200 11.874250
-13.875000 27.281200 11.874250
-13.875000 25.156200 11.874250
11.750000 27.250000 1.500750
11.750000 27.250000 0.250750
-11.750000 27.250000 0.250750
-11.750000 27.250000 1.500750
21.000000 -42.000000 14.624250
21.000000 -42.000000 14.999250
-21.000000 -42.000000 14.999250
-21.000000 -42.000000 14.624250
14.500000 -24.843800 -14.874250
13.875000 -25.156200 11.874250
13.875000 -27.281200 11.874250
14.500000 -27.593800 -14.874250
4.545200 25.187500 -1.807550
3.407900 25.187500 -1.614250
2.271500 25.187500 -1.476350
1.135600 25.187500 -1.393650
0.000000 25.187500 -1.366050
-1.135600 25.187500 -1.393650
-2.271500 25.187500 -1.476350
-2.271500 27.250000 -1.476350
-1.135600 27.250000 -1.393650
0.000000 27.250000 -1.366050
1.135600 27.250000 -1.393650
2.271500 27.250000 -1.476350
3.407900 27.250000 -1.614250
4.545200 27.250000 -1.807550
5.683400 27.250000 -2.056150
6.822800 27.250000 -2.360450
7.963600 27.250000 -2.720450
9.105900 27.250000 -3.136350
10.249800 27.250000 -3.608350
11.750000 27.250000 -4.300250
11.750000 25.187500 -4.300250
10.249800 25.187500 -3.608350
9.105900 25.187500 -3.136350
7.963600 25.187500 -2.720450
6.822800 25.187500 -2.360450
5.683400 25.187500 -2.056150
-11.750000 24.843800 -14.874250
-11.750000 27.593800 -14.874250
-11.750000 27.281200 11.874250
-11.750000 25.156200 11.874250
11.875000 -27.468800 -14.999250
11.875000 -24.968800 -14.999250
14.375000 -24.968800 -14.999250
14.375000 -27.468800 -14.999250
11.750000 -24.843800 -14.874250
11.750000 -27.593800 -14.874250
11.750000 -27.281200 11.874250
11.750000 -25.156200 11.874250
-13.875000 -25.156200 11.874250
-11.750000 -25.156200 11.874250
-11.750000 -24.843800 -14.874250
-14.500000 -24.843800 -14.874250
-0.353400 -25.166800 1.375750
-0.469600 25.185301 1.375750
-0.469600 25.185301 -1.311750
-0.353400 -25.166800 -1.311750
0.468700 25.183201 -0.560750
0.467000 25.187500 0.251750
-0.470500 25.187500 0.249750
-0.468700 25.183201 -0.562750
-0.469600 25.185301 1.375750
-0.353400 -25.166800 1.375750
0.583200 -25.164600 1.375750
0.467000 25.187500 1.375750
11.750000 -36.250000 12.874250
11.750000 36.250000 12.874250
11.750000 36.250000 12.499250
11.750000 35.625000 11.874250
11.750000 -35.625000 11.874250
11.750000 -36.250000 12.499250
-11.750000 36.250000 12.874250
-11.750000 36.250000 12.499250
-13.875000 36.250000 12.499250
-13.875000 36.250000 12.874250
17.250000 25.156200 11.874250
18.625000 25.156200 13.249250
18.625000 25.156200 14.124250
-18.625000 25.156200 14.124250
-18.625000 25.156200 13.249250
-17.250000 25.156200 11.874250
-11.750000 -25.187500 -4.300250
-11.750000 -27.250000 -4.300250
-11.750000 -27.250000 -3.405450
-11.750000 -25.187500 -3.405450
0.466900 -27.250000 0.240850
0.467000 -25.187500 0.251750
-0.470500 -25.187500 0.249750
-0.470600 -27.250000 0.238850
11.750000 25.156200 11.874250
11.750000 27.281200 11.874250
11.750000 27.593800 -14.874250
11.750000 24.843800 -14.874250
-2.271500 25.187500 -1.476350
11.750000 25.187500 -4.300250
11.750000 25.187500 -3.405450
-2.350000 25.187500 -0.667450
-11.750000 25.187500 -3.405450
-11.750000 25.187500 -4.300250
11.750000 27.250000 -3.405450
11.750000 27.250000 -4.300250
2.271500 27.250000 -1.476350
-11.750000 27.250000 -4.300250
-11.750000 27.250000 -3.405450
2.350000 27.250000 -0.667450
11.750000 -25.156200 11.874250
11.750000 -27.281200 11.874250
13.875000 -27.281200 11.874250
13.875000 -25.156200 11.874250
0.467000 25.187500 1.375750
0.467000 25.187500 -1.311750
-0.469600 25.185301 -1.311750
-0.469600 25.185301 1.375750
-14.375000 -27.468800 -14.999250
-14.375000 -24.968800 -14.999250
-11.875000 -24.968800 -14.999250
-11.875000 -27.468800 -14.999250
-14.500000 -27.593800 -14.874250
-13.875000 -27.281200 11.874250
-13.875000 -25.156200 11.874250
-14.500000 -24.843800 -14.874250
-11.875000 27.468800 -14.999250
-11.875000 24.968800 -14.999250
-14.375000 24.968800 -14.999250
-14.375000 27.468800 -14.999250
-11.750000 -35.625000 11.874250
-13.875000 -35.625000 11.874250
-13.875000 35.625000 11.874250
-11.750000 35.625000 11.874250
-11.750000 -27.593800 -14.874250
-11.875000 -27.468800 -14.999250
-11.875000 -24.968800 -14.999250
-11.750000 -24.843800 -14.874250
-17.250000 -27.281200 11.874250
17.250000 -27.281200 11.874250
18.625000 -27.281200 13.249250
18.625000 -27.281200 14.124250
-18.625000 -27.281200 14.124250
-18.625000 -27.281200 13.249250
18.625000 27.281200 13.249250
18.625000 25.156200 13.249250
17.250000 25.156200 11.874250
17.250000 27.281200 11.874250
-18.625000 -27.281200 13.249250
-18.625000 -25.156200 13.249250
-17.250000 -25.156200 11.874250
-17.250000 -27.281200 11.874250
0.583200 -25.164600 -1.311750
-0.353400 -25.166800 -1.311750
-0.469600 25.185301 -1.311750
0.467000 25.187500 -1.311750
-4.700000 -27.250000 -1.009650
-3.525000 -27.250000 -0.810050
-2.350000 -27.250000 -0.667450
-1.175000 -27.250000 -0.581850
0.000000 -27.250000 -0.553350
1.175000 -27.250000 -0.581850
2.350000 -27.250000 -0.667450
2.350000 -25.187500 -0.667450
1.175000 -25.187500 -0.581850
0.000000 -25.187500 -0.553350
-1.175000 -25.187500 -0.581850
-2.350000 -25.187500 -0.667450
-3.525000 -25.187500 -0.810050
-4.700000 -25.187500 -1.009650
-5.875000 -25.187500 -1.266350
-7.050000 -25.187500 -1.580150
-8.225000 -25.187500 -1.950850
-9.400000 -25.187500 -2.378750
-10.575000 -25.187500 -2.863550
-11.750000 -25.187500 -3.405450
-11.750000 -27.250000 -3.405450
-10.575000 -27.250000 -2.863550
-9.400000 -27.250000 -2.378750
-8.225000 -27.250000 -1.950850
-7.050000 -27.250000 -1.580150
-5.875000 -27.250000 -1.266350
-21.000000 -42.000000 14.624250
-21.000000 42.000000 14.624250
-20.500000 41.500000 14.124250
-20.500000 -41.500000 14.124250
21.000000 42.000000 14.624250
20.500000 41.500000 14.124250
-20.500000 41.500000 14.124250
-21.000000 42.000000 14.624250
-13.875000 -36.250000 12.874250
-11.750000 -36.250000 12.874250
-11.750000 36.250000 12.874250
-13.875000 36.250000 12.874250
-13.875000 -36.250000 12.874250
-13.875000 36.250000 12.874250
-13.875000 36.250000 12.499250
-13.875000 35.625000 11.874250
-13.875000 -35.625000 11.874250
-13.875000 -36.250000 12.499250
11.750000 -36.250000 12.874250
13.875000 -36.250000 12.874250
13.875000 36.250000 12.874250
11.750000 36.250000 12.874250
11.750000 27.250000 1.500750
11.750000 25.187500 1.500750
11.750000 25.187500 0.250750
11.750000 27.250000 0.250750
-0.468800 27.245701 -0.573650
0.468700 27.245701 -0.571550
0.468700 25.183201 -0.560750
-0.468700 25.183201 -0.562750
-11.750000 -27.281200 11.874250
-13.875000 -27.281200 11.874250
-14.500000 -27.593800 -14.874250
-11.750000 -27.593800 -14.874250
11.750000 -27.250000 -4.300250
11.750000 -27.250000 -3.405450
-2.350000 -27.250000 -0.667450
-11.750000 -27.250000 -3.405450
-11.750000 -27.250000 -4.300250
-2.271500 -27.250000 -1.476350
14.500000 -24.843800 -14.874250
11.750000 -24.843800 -14.874250
11.750000 -25.156200 11.874250
13.875000 -25.156200 11.874250
11.750000 25.187500 0.250750
11.750000 25.187500 1.500750
-11.750000 25.187500 1.500750
-11.750000 25.187500 0.250750
14.500000 27.593800 -14.874250
13.875000 27.281200 11.874250
13.875000 25.156200 11.874250
14.500000 24.843800 -14.874250
-11.750000 25.187500 -4.300250
-11.750000 27.250000 -4.300250
-14.500000 -24.843800 -14.874250
-11.750000 -24.843800 -14.874250
-11.875000 -24.968800 -14.999250
-14.375000 -24.968800 -14.999250
11.750000 27.281200 11.874250
13.875000 27.281200 11.874250
14.500000 27.593800 -14.874250
11.750000 27.593800 -14.874250
17.250000 25.156200 11.874250
-17.250000 25.156200 11.874250
-17.250000 27.281200 11.874250
17.250000 27.281200 11.874250
-0.470600 -27.250000 0.238850
-0.470500 -25.187500 0.249750
-0.468700 -25.183201 -0.562750
-0.468800 -27.245701 -0.573650
14.375000 27.468800 -14.999250
14.375000 24.968800 -14.999250
11.875000 24.968800 -14.999250
11.875000 27.468800 -14.999250
11.750000 -27.593800 -14.874250
14.500000 -27.593800 -14.874250
13.875000 -27.281200 11.874250
11.750000 -27.281200 11.874250
11.750000 27.593800 -14.874250
11.875000 27.468800 -14.999250
11.875000 24.968800 -14.999250
11.750000 24.843800 -14.874250
14.500000 27.593800 -14.874250
14.500000 24.843800 -14.874250
14.375000 24.968800 -14.999250
14.375000 27.468800 -14.999250
11.750000 -27.250000 0.250750
-11.750000 -27.250000 0.250750
-11.750000 -25.187500 0.250750
11.750000 -25.187500 0.250750
14.500000 24.843800 -14.874250
11.750000 24.843800 -14.874250
11.875000 24.968800 -14.999250
14.375000 24.968800 -14.999250
-18.625000 25.156200 14.124250
18.625000 25.156200 14.124250
18.625000 27.281200 14.124250
-18.625000 27.281200 14.124250
-11.750000 -27.250000 1.500750
-11.750000 -27.250000 0.250750
11.750000 -27.250000 0.250750
11.750000 -27.250000 1.500750
11.750000 -27.250000 0.250750
11.750000 -25.187500 0.250750
11.750000 -25.187500 1.500750
11.750000 -27.250000 1.500750
-11.750000 -25.187500 0.250750
-11.750000 -25.187500 1.500750
11.750000 -25.187500 1.500750
11.750000 -25.187500 0.250750
-18.625000 -27.281200 14.124250
18.625000 -27.281200 14.124250
18.625000 -25.156200 14.124250
-18.625000 -25.156200 14.124250
20.500000 -41.500000 14.124250
-20.500000 -41.500000 14.124250
-20.500000 41.500000 14.124250
20.500000 41.500000 14.124250
-0.470600 27.250000 0.238850
-0.470500 25.187500 0.249750
0.467000 25.187500 0.251750
0.466900 27.250000 0.240850
13.875000 -35.625000 11.874250
13.875000 -36.250000 12.499250
11.750000 -36.250000 12.499250
11.750000 -35.625000 11.874250
13.875000 -36.250000 12.499250
13.875000 -36.250000 12.874250
11.750000 -36.250000 12.874250
11.750000 -36.250000 12.499250
-6.822800 -27.250000 -2.360450
-11.750000 -27.250000 -4.300250
-11.750000 -25.187500 -4.300250
-6.822800 -25.187500 -2.360450
-2.271500 -25.187500 -1.476350
0.000000 -25.187500 -1.366050
2.271500 -25.187500 -1.476350
2.271500 -27.250000 -1.476350
0.000000 -27.250000 -1.366050
-2.271500 -27.250000 -1.476350
13.875000 36.250000 12.499250
13.875000 36.250000 12.874250
13.875000 -36.250000 12.874250
13.875000 -36.250000 12.499250
13.875000 -35.625000 11.874250
13.875000 35.625000 11.874250
-11.750000 -25.187500 -3.405450
-2.350000 -25.187500 -0.667450
11.750000 -25.187500 -3.405450
11.750000 -25.187500 -4.300250
-2.271500 -25.187500 -1.476350
-11.750000 -25.187500 -4.300250
11.750000 27.250000 -3.405450
11.750000 25.187500 -3.405450
11.750000 25.187500 -4.300250
11.750000 27.250000 -4.300250
-0.468700 -25.183201 -0.562750
0.468700 -25.183201 -0.560750
0.468700 -27.245701 -0.571550
-0.468800 -27.245701 -0.573650
11.750000 -27.250000 -3.405450
11.750000 -25.187500 -3.405450
11.750000 -27.250000 -4.300250
11.750000 -25.187500 -4.300250
11.750000 -25.187500 -3.405450
11.750000 -27.250000 -3.405450
-11.750000 24.843800 -14.874250
-11.875000 24.968800 -14.999250
-11.875000 27.468800 -14.999250
-11.750000 27.593800 -14.874250
13.875000 25.156200 11.874250
13.875000 27.281200 11.874250
11.750000 27.281200 11.874250
11.750000 25.156200 11.874250
-14.500000 -27.593800 -14.874250
-14.500000 -24.843800 -14.874250
-14.375000 -24.968800 -14.999250
-14.375000 -27.468800 -14.999250
-4.700000 25.187500 -1.009650
-3.525000 25.187500 -0.810050
-2.350000 25.187500 -0.667450
-2.350000 27.250000 -0.667450
-3.525000 27.250000 -0.810050
-4.700000 27.250000 -1.009650
-5.875000 27.250000 -1.266350
-7.050000 27.250000 -1.580150
-8.225000 27.250000 -1.950850
-9.400000 27.250000 -2.378750
-10.575000 27.250000 -2.863550
-11.750000 27.250000 -3.405450
-11.750000 25.187500 -3.405450
-10.575000 25.187500 -2.863550
-9.400000 25.187500 -2.378750
-8.225000 25.187500 -1.950850
-7.050000 25.187500 -1.580150
-5.875000 25.187500 -1.266350
13.875000 25.156200 11.874250
11.750000 25.156200 11.874250
11.750000 24.843800 -14.874250
14.500000 24.843800 -14.874250
-0.468800 27.245701 -0.573650
-0.468700 25.183201 -0.562750
-0.470500 25.187500 0.249750
-0.470600 27.250000 0.238850
-11.750000 25.187500 1.500750
11.750000 25.187500 1.500750
11.750000 27.250000 1.500750
-11.750000 27.250000 1.500750
-14.500000 24.843800 -14.874250
-11.750000 24.843800 -14.874250
-11.750000 25.156200 11.874250
-13.875000 25.156200 11.874250
-14.500000 24.843800 -14.874250
-13.875000 25.156200 11.874250
-13.875000 27.281200 11.874250
-14.500000 27.593800 -14.874250
0.468700 27.245701 -0.571550
-0.468800 27.245701 -0.573650
-0.470600 27.250000 0.238850
0.466900 27.250000 0.240850
-11.750000 27.593800 -14.874250
-14.500000 27.593800 -14.874250
-13.875000 27.281200 11.874250
-11.750000 27.281200 11.874250
11.875000 -27.468800 -14.999250
14.375000 -27.468800 -14.999250
14.500000 -27.593800 -14.874250
11.750000 -27.593800 -14.874250
14.375000 -27.468800 -14.999250
14.375000 -24.968800 -14.999250
14.500000 -24.843800 -14.874250
14.500000 -27.593800 -14.874250
-14.375000 24.968800 -14.999250
-11.875000 24.968800 -14.999250
-11.750000 24.843800 -14.874250
-14.500000 24.843800 -14.874250
-13.875000 -25.156200 11.874250
-13.875000 -27.281200 11.874250
-11.750000 -27.281200 11.874250
-11.750000 -25.156200 11.874250
11.750000 27.593800 -14.874250
14.500000 27.593800 -14.874250
14.375000 27.468800 -14.999250
11.875000 27.468800 -14.999250
-11.750000 -25.156200 11.874250
-11.750000 -27.281200 11.874250
-11.750000 -27.593800 -14.874250
-11.750000 -24.843800 -14.874250
-11.750000 25.187500 -3.405450
-11.750000 27.250000 -3.405450
-11.750000 27.250000 -4.300250
-11.750000 25.187500 -4.300250
11.750000 -24.843800 -14.874250
11.875000 -24.968800 -14.999250
11.875000 -27.468800 -14.999250
11.750000 -27.593800 -14.874250
-14.375000 27.468800 -14.999250
-14.375000 24.968800 -14.999250
-14.500000 24.843800 -14.874250
-14.500000 27.593800 -14.874250
14.375000 -24.968800 -14.999250
11.875000 -24.968800 -14.999250
11.750000 -24.843800 -14.874250
14.500000 -24.843800 -14.874250
-11.875000 27.468800 -14.999250
-14.375000 27.468800 -14.999250
-14.500000 27.593800 -14.874250
-11.750000 27.593800 -14.874250
0.467000 25.187500 1.375750
0.583200 -25.164600 1.375750
0.583200 -25.164600 -1.311750
0.467000 25.187500 -1.311750
-18.625000 25.156200 13.249250
-18.625000 27.281200 13.249250
-17.250000 27.281200 11.874250
-17.250000 25.156200 11.874250
0.466900 -27.250000 0.240850
-0.470600 -27.250000 0.238850
-0.468800 -27.245701 -0.573650
0.468700 -27.245701 -0.571550
-0.468700 -25.183201 -0.562750
-0.470500 -25.187500 0.249750
0.467000 -25.187500 0.251750
0.468700 -25.183201 -0.560750
-18.625000 25.156200 14.124250
-18.625000 27.281200 14.124250
-18.625000 27.281200 13.249250
-18.625000 25.156200 13.249250
7.050000 25.187500 -1.580150
11.750000 25.187500 -3.405450
11.750000 27.250000 -3.405450
7.050000 27.250000 -1.580150
2.350000 27.250000 -0.667450
0.000000 27.250000 -0.553350
0.000000 25.187500 -0.553350
2.350000 25.187500 -0.667450
0.468700 -25.183201 -0.560750
0.467000 -25.187500 0.251750
0.466900 -27.250000 0.240850
0.468700 -27.245701 -0.571550
-21.000000 -42.000000 14.999250
-21.000000 42.000000 14.999250
-21.000000 42.000000 14.624250
-21.000000 -42.000000 14.624250
17.250000 27.281200 11.874250
-17.250000 27.281200 11.874250
-18.625000 27.281200 13.249250
-18.625000 27.281200 14.124250
18.625000 27.281200 14.124250
18.625000 27.281200 13.249250
-11.750000 -25.187500 0.250750
-11.750000 -27.250000 0.250750
-11.750000 -27.250000 1.500750
-11.750000 -25.187500 1.500750
0.583200 -25.164600 -1.311750
0.583200 -25.164600 1.375750
-0.353400 -25.166800 1.375750
-0.353400 -25.166800 -1.311750
18.625000 -25.156200 14.124250
18.625000 -25.156200 13.249250
17.250000 -25.156200 11.874250
-17.250000 -25.156200 11.874250
-18.625000 -25.156200 13.249250
-18.625000 -25.156200 14.124250
18.625000 27.281200 14.124250
18.625000 25.156200 14.124250
18.625000 25.156200 13.249250
18.625000 27.281200 13.249250
18.625000 -25.156200 14.124250
18.625000 -27.281200 14.124250
18.625000 -27.281200 13.249250
18.625000 -25.156200 13.249250
-18.625000 -27.281200 14.124250
-18.625000 -25.156200 14.124250
-18.625000 -25.156200 13.249250
-18.625000 -27.281200 13.249250
18.625000 -25.156200 13.249250
18.625000 -27.281200 13.249250
17.250000 -27.281200 11.874250
17.250000 -25.156200 11.874250
21.000000 42.000000 14.624250
21.000000 42.000000 14.999250
21.000000 -42.000000 14.999250
21.000000 -42.000000 14.624250
4.545200 -27.250000 -1.807550
3.407900 -27.250000 -1.614250
3.407900 -25.187500 -1.614250
4.545200 -25.187500 -1.807550
5.683400 -25.187500 -2.056150
6.822800 -25.187500 -2.360450
7.963600 -25.187500 -2.720450
9.105900 -25.187500 -3.136350
10.249800 -25.187500 -3.608350
11.750000 -25.187500 -4.300250
11.750000 -27.250000 -4.300250
10.249800 -27.250000 -3.608350
9.105900 -27.250000 -3.136350
7.963600 -27.250000 -2.720450
6.822800 -27.250000 -2.360450
5.683400 -27.250000 -2.056150
-11.750000 -27.250000 1.500750
11.750000 -27.250000 1.500750
11.750000 -25.187500 1.500750
-11.750000 -25.187500 1.500750
-20.500000 -41.500000 14.124250
20.500000 -41.500000 14.124250
21.000000 -42.000000 14.624250
-21.000000 -42.000000 14.624250
20.500000 41.500000 14.124250
21.000000 42.000000 14.624250
21.000000 -42.000000 14.624250
20.500000 -41.500000 14.124250
-11.750000 25.187500 1.500750
-11.750000 27.250000 1.500750
-11.750000 27.250000 0.250750
-11.750000 25.187500 0.250750
13.875000 36.250000 12.874250
13.875000 36.250000 12.499250
11.750000 36.250000 12.499250
11.750000 36.250000 12.874250
21.000000 42.000000 14.999250
21.000000 42.000000 14.624250
-21.000000 42.000000 14.624250
-21.000000 42.000000 14.999250
-21.000000 -42.000000 14.999250
21.000000 -42.000000 14.999250
21.000000 42.000000 14.999250
-21.000000 42.000000 14.999250
13.875000 35.625000 11.874250
11.750000 35.625000 11.874250
11.750000 36.250000 12.499250
13.875000 36.250000 12.499250
-11.750000 35.625000 11.874250
-13.875000 35.625000 11.874250
-13.875000 36.250000 12.499250
-11.750000 36.250000 12.499250
11.750000 25.187500 0.250750
-11.750000 25.187500 0.250750
-11.750000 27.250000 0.250750
11.750000 27.250000 0.250750
-11.750000 -35.625000 11.874250
-11.750000 -36.250000 12.499250
-13.875000 -36.250000 12.499250
-13.875000 -35.625000 11.874250
0.468700 27.245701 -0.571550
0.466900 27.250000 0.240850
0.467000 25.187500 0.251750
0.468700 25.183201 -0.560750
-11.750000 -36.250000 12.499250
-11.750000 -36.250000 12.874250
-13.875000 -36.250000 12.874250
-13.875000 -36.250000 12.499250
13.875000 -35.625000 11.874250
11.750000 -35.625000 11.874250
11.750000 35.625000 11.874250
13.875000 35.625000 11.874250
-11.750000 -36.250000 12.499250
-11.750000 -35.625000 11.874250
-11.750000 35.625000 11.874250
-11.750000 36.250000 12.499250
-11.750000 36.250000 12.874250
-11.750000 -36.250000 12.874250
-11.750000 -27.593800 -14.874250
-14.500000 -27.593800 -14.874250
-14.375000 -27.468800 -14.999250
-11.875000 -27.468800 -14.999250
4 0 1 2 3
4 4 5 6 7
4 8 9 10 11
4 12 13 14 15
4 16 17 18 19
26 20 21 22 23 24 25 26 27 28 29 30 31 32 33 34 35 36 37 38 39 40 41 42 43 44 45
4 46 47 48 49
4 50 51 52 53
4 54 55 56 57
4 58 59 60 61
4 62 63 64 65
4 66 67 68 69
4 70 71 72 73
6 74 75 76 77 78 79
4 80 81 82 83
6 84 85 86 87 88 89
4 90 91 92 93
4 94 95 96 97
4 98 99 100 101
6 102 103 104 105 106 107
6 108 109 110 111 112 113
4 114 115 116 117
4 118 119 120 121
4 122 123 124 125
4 126 127 128 129
4 130 131 132 133
4 134 135 136 137
4 138 139 140 141
6 142 143 144 145 146 147
4 148 149 150 151
4 152 153 154 155
4 156 157 158 159
26 160 161 162 163 164 165 166 167 168 169 170 171 172 173 174 175 176 177 178 179 180 181 182 183 184 185
4 186 187 188 189
4 190 191 192 193
4 194 195 196 197
6 198 199 200 201 202 203
4 204 205 206 207
4 208 209 210 211
4 212 213 214 215
4 216 217 218 219
6 220 221 222 223 224 225
4 226 227 228 229
4 230 231 232 233
4 234 235 236 237
4 238 239 27 26
4 240 241 242 243
4 244 245 246 247
4 248 249 250 251
4 252 253 254 255
4 256 257 258 259
4 260 261 262 263
4 264 265 266 267
4 268 269 270 271
4 272 273 274 275
4 276 277 278 279
4 280 281 282 283
4 284 285 286 287
4 288 289 290 291
4 292 293 294 295
4 296 297 298 299
4 300 301 302 303
4 304 305 306 307
4 308 309 310 311
4 312 313 314 315
10 316 317 318 319 320 321 322 323 324 325
6 326 327 328 329 330 331
6 332 333 334 335 336 337
4 338 339 340 341
4 342 343 344 345
4 346 347 167 166
4 348 349 350 351
4 352 353 354 355
4 356 357 358 359
4 360 361 362 363
18 364 365 366 367 368 369 370 371 372 373 374 375 376 377 378 379 380 381
4 382 383 384 385
4 386 387 388 389
4 390 391 392 393
4 394 395 396 397
4 398 399 400 401
4 402 403 404 405
4 406 407 408 409
4 410 411 412 413
4 414 415 416 417
4 418 419 420 421
4 422 423 424 425
4 426 427 428 429
4 430 431 432 433
4 434 435 436 437
4 438 439 440 441
4 442 443 444 445
4 446 447 448 449
4 450 451 452 453
4 454 455 456 457
4 458 459 460 461
4 462 463 464 465
4 466 467 468 469
4 470 471 472 473
10 474 475 476 477 478 479 367 366 480 481
4 482 483 484 485
4 486 487 488 489
6 490 491 492 493 494 495
4 496 497 498 499
4 500 501 502 503
6 504 505 506 507 508 509
4 510 511 512 513
4 514 515 516 517
4 518 519 520 521
4 522 523 524 525
4 526 527 528 529
18 530 531 323 322 532 533 534 535 536 537 538 539 540 541 542 543 544 545
4 546 547 548 549
4 550 551 552 553
4 554 555 556 557
4 558 559 560 561
4 562 563 564 565
4 566 567 568 569
4 570 571 572 573
4 574 575 576 577
4 578 579 580 581
4 582 583 584 585
4 586 587 588 589
4 590 591 592 593
4 594 595 596 597
4 598 599 600 601
6 602 603 604 605 606 607
4 608 609 610 611
