ply
format ascii 1.0
comment Created by Blender 2.82 (sub 7) - www.blender.org, source file: ''
element vertex 616
property float x
property float y
property float z
element face 288
property list uchar uint vertex_indices
end_header
-0.393700 13.037850 3.742670
-0.393700 11.914250 4.591250
-0.681908 11.785750 4.333250
-0.681908 13.510450 2.441390
-0.393700 13.779150 2.545500
0.681908 13.510450 2.441390
0.681908 15.088650 -6.122050
0.393700 15.381250 -6.122050
0.393700 13.779150 2.545500
-0.393700 -13.925150 -6.122050
0.000000 -13.817950 -6.122050
0.000000 -12.143450 2.404940
-0.393700 -12.233150 2.460470
0.393700 -11.622150 3.130660
0.393700 -12.233150 2.460470
0.000000 -12.143450 2.404940
0.000000 -11.558650 3.046480
0.393700 12.507450 2.052830
0.000000 12.409050 2.014730
0.000000 13.889250 -6.122050
0.393700 13.996450 -6.122050
-0.393700 15.381250 -6.122050
0.000000 15.488350 -6.122050
0.000000 13.877550 2.583610
11.248100 0.035650 4.948150
12.543300 0.035650 4.303150
12.479700 -0.358050 4.219050
11.219300 -0.358050 4.846650
-0.393700 11.306350 3.370390
-0.681908 11.434750 3.628380
-0.681908 12.776150 2.156950
-0.393700 12.507450 2.052830
-0.393700 12.030050 2.823870
-15.053000 -0.646258 -6.122050
-13.474800 -0.646258 2.441390
-13.743500 -0.358050 2.545500
-15.345600 -0.358050 -6.122050
0.681908 14.289050 -6.122050
0.681908 12.776150 2.156950
-7.684610 15.992950 5.118050
-7.686900 15.997650 5.137750
-1.588090 17.680849 5.137750
-1.588090 17.680849 6.082650
1.588090 17.680849 6.082650
1.587620 17.675550 5.118050
17.693399 0.830261 5.118050
16.285999 6.996610 5.118050
16.285999 6.996610 6.102350
17.693399 0.830261 6.102350
-0.393700 -13.392650 3.178430
-0.393700 -12.444050 4.219050
-0.393700 -11.183650 4.846650
-0.681908 -11.104750 4.569450
-0.681908 -13.147650 3.026710
-0.681908 -14.217750 -6.122050
-0.681908 -12.478150 2.612190
-0.393700 -12.233150 2.460470
-0.393700 -13.925150 -6.122050
12.179100 0.035650 2.404940
12.268800 -0.358050 2.460470
13.960800 -0.358050 -6.122050
13.853600 0.035650 -6.122050
-3.162460 -17.390949 5.118050
3.162460 -17.390949 5.118050
3.162460 -17.390949 6.102350
-3.162460 -17.390949 6.102350
1.586330 17.661249 6.116750
12.791200 12.265250 6.116750
12.801600 12.275250 6.102350
7.684610 15.992950 6.102350
1.587620 17.675550 6.102350
0.393700 -15.309950 -6.122050
0.393700 -13.392650 3.178430
0.681908 -13.147650 3.026710
0.681908 -15.017350 -6.122050
-13.960800 0.429350 -6.122050
-13.853600 0.035650 -6.122050
-12.373400 0.035650 2.014730
-12.471800 0.429350 2.052830
0.681908 -14.217750 -6.122050
0.681908 -12.478150 2.612190
0.393700 -12.233150 2.460470
0.393700 -13.925150 -6.122050
10.924900 0.717558 3.812100
12.513800 0.717558 2.612190
14.253400 0.717558 -6.122050
14.653200 0.823050 -6.122050
12.848600 0.823050 2.819450
11.032700 0.823050 4.190750
0.787400 0.823050 4.311050
0.727463 0.763113 4.009650
0.393700 -15.309950 -6.122050
0.681908 -15.017350 -6.122050
0.681908 -13.147650 3.026710
0.393700 -13.392650 3.178430
12.513800 0.717558 2.612190
14.253400 0.717558 -6.122050
13.960800 0.429350 -6.122050
12.268800 0.429350 2.460470
-0.393700 -15.309950 -6.122050
-0.681908 -15.017350 -6.122050
-0.787400 -14.617550 -6.122050
-0.681908 -14.217750 -6.122050
-0.393700 -13.925150 -6.122050
0.000000 -13.817950 -6.122050
0.393700 -13.925150 -6.122050
0.681908 -14.217750 -6.122050
0.787400 -14.617550 -6.122050
0.681908 -15.017350 -6.122050
0.393700 -15.309950 -6.122050
0.000000 -15.417050 -6.122050
0.393700 12.030050 2.823870
0.000000 11.952050 2.752800
12.479700 0.429350 4.219050
12.543300 0.035650 4.303150
13.518000 0.035650 3.233960
13.428300 0.429350 3.178430
0.000000 -13.482350 3.233960
0.000000 -15.417050 -6.122050
13.183300 0.717558 3.026710
15.053000 0.717558 -6.122050
15.345600 0.429350 -6.122050
13.428300 0.429350 3.178430
-0.681908 15.088650 -6.122050
-0.393700 15.381250 -6.122050
0.000000 15.488350 -6.122050
0.393700 15.381250 -6.122050
0.681908 15.088650 -6.122050
0.787400 14.688850 -6.122050
0.681908 14.289050 -6.122050
0.393700 13.996450 -6.122050
0.000000 13.889250 -6.122050
-0.393700 13.996450 -6.122050
-0.681908 14.289050 -6.122050
-0.787400 14.688850 -6.122050
0.393700 -12.444050 4.219050
0.393700 -11.183650 4.846650
0.681908 -11.104750 4.569450
-13.743500 -0.358050 2.545500
-13.841900 0.035650 2.583610
-13.080200 0.035650 3.813740
-13.002200 -0.358050 3.742670
13.853600 0.035650 -6.122050
12.179100 0.035650 2.404940
-0.393700 12.030050 2.823870
-0.393700 11.306350 3.370390
0.000000 11.259250 3.275950
0.000000 11.952050 2.752800
0.393700 -10.810350 3.534890
0.000000 -10.781550 3.433420
0.787400 -14.617550 -6.122050
0.787400 -12.812950 2.819450
0.787400 -10.997050 4.190750
0.787400 -0.751750 4.311050
0.727463 -0.691813 4.612350
0.681908 -11.104750 4.569450
-0.393700 -11.622150 3.130660
-0.393700 -10.810350 3.534890
0.301325 -0.265675 3.583540
10.846000 -0.358050 3.534890
10.817200 0.035650 3.433420
0.000000 0.035650 3.523600
0.000000 13.115850 3.813740
0.393700 13.037850 3.742670
0.393700 11.914250 4.591250
0.000000 11.961250 4.685650
0.000000 -11.212450 4.948150
0.000000 -12.507650 4.303150
0.393700 -12.444050 4.219050
0.393700 -11.183650 4.846650
-12.740500 -0.646258 2.156950
-12.471800 -0.358050 2.052830
-13.960800 -0.358050 -6.122050
-14.253400 -0.646258 -6.122050
12.513800 -0.646258 2.612190
12.268800 -0.358050 2.460470
13.960800 -0.358050 -6.122050
14.253400 -0.646258 -6.122050
0.301325 -0.265675 3.583540
0.000000 0.035650 3.523600
10.817200 0.035650 3.433420
10.846000 -0.358050 3.534890
0.000000 13.115850 3.813740
0.000000 13.877550 2.583610
-0.393700 13.779150 2.545500
-0.393700 13.037850 3.742670
-0.393700 -11.183650 4.846650
0.000000 -11.212450 4.948150
0.000000 -12.507650 4.303150
-0.393700 -12.444050 4.219050
-12.791200 12.265250 5.103650
-12.801600 12.275250 5.118050
1.586330 17.661249 5.103650
0.681908 -14.217750 -6.122050
0.393700 -13.925150 -6.122050
0.681908 -12.478150 2.612190
-0.681908 11.434750 3.628380
-0.393700 12.507450 2.052830
-0.681908 12.776150 2.156950
-0.681908 -10.889250 3.812100
-0.727463 -0.691813 4.009650
-0.556776 -0.521126 3.754220
-0.301325 -0.265675 3.583540
-0.681908 -10.889250 3.812100
-0.393700 -10.810350 3.534890
-0.301325 -0.265675 3.583540
-0.556776 -0.521126 3.754220
-0.727463 -0.691813 4.009650
0.681908 -10.889250 3.812100
0.556776 -0.521126 3.754220
0.727463 -0.691813 4.009650
0.301325 -0.265675 5.038450
11.140400 -0.646258 4.569450
0.727463 -0.691813 4.612350
0.556776 -0.521126 4.867750
0.727463 -0.691813 4.612350
11.140400 -0.646258 4.569450
11.219300 -0.358050 4.846650
0.301325 -0.265675 5.038450
0.556776 -0.521126 4.867750
-0.681908 -11.104750 4.569450
-0.727463 -0.691813 4.612350
-0.556776 -0.521126 4.867750
-0.301325 -0.265675 5.038450
0.556776 -0.521126 4.867750
-0.301325 0.336975 3.583540
-11.270700 0.429350 3.370390
-11.399100 0.717558 3.628380
-0.727463 0.763113 4.009650
-0.556776 0.592426 3.754220
-0.727463 -0.691813 4.009650
-11.399100 -0.646258 3.628380
-11.270700 -0.358050 3.370390
-0.556776 -0.521126 3.754220
10.846000 0.429350 3.534890
0.301325 0.336975 3.583540
0.556776 0.592426 3.754220
0.727463 0.763113 4.009650
10.924900 0.717558 3.812100
0.556776 0.592426 3.754220
0.301325 0.336975 3.583540
10.846000 0.429350 3.534890
-0.301325 -0.265675 5.038450
-0.556776 -0.521126 4.867750
-0.727463 -0.691813 4.612350
0.301325 0.336975 5.038450
11.219300 0.429350 4.846650
11.140400 0.717558 4.569450
0.727463 0.763113 4.612350
0.556776 0.592426 4.867750
-11.750100 0.717558 4.333250
-0.727463 0.763113 4.612350
-0.556776 0.592426 4.867750
-0.301325 0.336975 5.038450
-11.878600 0.429350 4.591250
-10.413500 14.368650 5.137750
-10.413500 14.368650 6.082650
-7.686900 15.997650 6.082650
-7.684610 15.992950 6.102350
-1.587620 17.675550 6.102350
0.000000 -10.781550 3.433420
-0.393700 -11.622150 3.130660
0.000000 -11.558650 3.046480
0.393700 -11.622150 3.130660
0.393700 -10.810350 3.534890
16.844400 -5.437420 5.118050
15.596400 -8.357150 5.118050
13.847200 -11.007150 5.118050
13.835900 -10.998150 5.103650
17.679001 0.829615 5.103650
-16.285999 6.996610 5.118050
-17.693399 0.830261 5.118050
-17.693399 0.830261 6.102350
-16.285999 6.996610 6.102350
-0.393700 11.914250 4.591250
0.000000 11.961250 4.685650
-15.345600 -0.358050 -6.122050
-13.474800 -0.646258 2.441390
-15.053000 -0.646258 -6.122050
-13.743500 0.429350 2.545500
-13.002200 0.429350 3.742670
-11.878600 -0.358050 4.591250
-11.925600 0.035650 4.685650
0.301325 0.336975 5.038450
11.219300 0.429350 4.846650
-13.841900 0.035650 2.583610
-13.080200 0.035650 3.813740
-13.002200 0.429350 3.742670
-13.743500 0.429350 2.545500
-0.301325 0.336975 3.583540
-11.270700 0.429350 3.370390
-11.223600 0.035650 3.275950
-0.681908 -12.478150 2.612190
-0.681908 -14.217750 -6.122050
11.594300 0.035650 3.046480
11.657800 -0.358050 3.130660
-0.681908 11.785750 4.333250
-0.681908 13.510450 2.441390
12.268800 0.429350 2.460470
13.960800 0.429350 -6.122050
13.428300 -0.358050 3.178430
15.345600 -0.358050 -6.122050
15.053000 -0.646258 -6.122050
13.183300 -0.646258 3.026710
-0.556776 -0.521126 4.867750
-0.727463 -0.691813 4.612350
-11.750100 -0.646258 4.333250
-0.301325 0.336975 5.038450
-0.556776 0.592426 4.867750
-0.727463 0.763113 4.612350
-11.750100 0.717558 4.333250
-11.878600 0.429350 4.591250
-11.916400 0.035650 2.752800
-11.994400 -0.358050 2.823870
-11.270700 -0.358050 3.370390
0.000000 12.409050 2.014730
0.393700 12.507450 2.052830
0.393700 13.996450 -6.122050
0.000000 13.889250 -6.122050
-11.223600 0.035650 3.275950
-11.994400 -0.358050 2.823870
-11.916400 0.035650 2.752800
0.787400 11.610250 3.980850
0.787400 0.823050 4.311050
0.727463 0.763113 4.009650
0.681908 11.434750 3.628380
0.787400 14.688850 -6.122050
0.787400 13.143250 2.299170
12.479700 -0.358050 4.219050
13.183300 -0.646258 3.026710
13.428300 -0.358050 3.178430
-12.471800 -0.358050 2.052830
-12.740500 -0.646258 2.156950
-14.253400 -0.646258 -6.122050
-13.960800 -0.358050 -6.122050
13.518000 0.035650 3.233960
-12.740500 0.717558 2.156950
-12.471800 0.429350 2.052830
-13.960800 0.429350 -6.122050
-14.253400 0.717558 -6.122050
15.345600 -0.358050 -6.122050
15.452700 0.035650 -6.122050
-0.393700 -15.309950 -6.122050
-0.727463 -0.691813 4.612350
-0.556776 -0.521126 4.867750
-11.878600 -0.358050 4.591250
-11.750100 -0.646258 4.333250
0.681908 11.785750 4.333250
0.393700 11.914250 4.591250
0.556776 0.592426 4.867750
0.727463 0.763113 4.612350
-0.556776 0.592426 4.867750
-0.727463 0.763113 4.612350
0.681908 11.785750 4.333250
0.727463 0.763113 4.612350
0.556776 0.592426 4.867750
-0.787400 -12.812950 2.819450
-0.787400 -10.997050 4.190750
-0.787400 -0.751750 4.311050
-0.681908 -13.147650 3.026710
-0.681908 -15.017350 -6.122050
-0.787400 -14.617550 -6.122050
12.479700 0.429350 4.219050
-13.847200 -11.007150 6.102350
-11.652900 -13.302150 6.102350
-9.084070 -15.168550 6.102350
-3.159890 -17.376751 6.116750
-13.835900 -10.998150 6.116750
-11.994400 0.429350 2.823870
-11.994400 0.429350 2.823870
0.393700 11.306350 3.370390
0.556776 0.592426 3.754220
-11.399100 -0.646258 3.628380
-0.727463 -0.691813 4.009650
-0.556776 -0.521126 3.754220
0.393700 11.306350 3.370390
11.657800 0.429350 3.130660
11.657800 0.429350 3.130660
11.594300 0.035650 3.046480
13.183300 0.717558 3.026710
15.053000 0.717558 -6.122050
14.653200 0.823050 -6.122050
12.848600 0.823050 2.819450
11.032700 0.823050 4.190750
0.787400 0.823050 4.311050
0.681908 -10.889250 3.812100
0.727463 -0.691813 4.009650
0.556776 -0.521126 3.754220
10.924900 -0.646258 3.812100
0.727463 -0.691813 4.009650
0.556776 -0.521126 3.754220
-0.787400 11.610250 3.980850
-0.787400 13.143250 2.299170
-0.787400 14.688850 -6.122050
-0.681908 14.289050 -6.122050
-0.727463 0.763113 4.009650
-0.787400 0.823050 4.311050
-0.787400 -12.812950 2.819450
-0.787400 -10.997050 4.190750
-0.787400 -0.751750 4.311050
-0.787400 -14.617550 -6.122050
12.791200 12.265250 5.103650
3.159890 -17.376751 5.103650
-9.076680 -15.156150 5.103650
-16.830700 -5.432970 5.103650
-17.679001 0.829615 5.103650
15.053000 -0.646258 -6.122050
15.452700 0.035650 -6.122050
15.345600 0.429350 -6.122050
11.140400 0.717558 4.569450
0.556776 0.592426 4.867750
0.727463 0.763113 4.612350
0.556776 -0.521126 3.754220
0.727463 -0.691813 4.009650
10.924900 -0.646258 3.812100
11.652900 -13.302150 5.118050
9.084070 -15.168550 5.118050
-12.373400 0.035650 2.014730
-13.853600 0.035650 -6.122050
0.000000 11.259250 3.275950
0.556776 0.592426 3.754220
0.727463 0.763113 4.009650
0.681908 11.434750 3.628380
0.556776 -0.521126 4.867750
0.727463 -0.691813 4.612350
-0.556776 0.592426 3.754220
-0.727463 0.763113 4.009650
-0.556776 0.592426 3.754220
-0.787400 -0.751750 4.311050
-11.574600 -0.751750 3.980850
-13.107600 -0.751750 2.299170
-14.653200 -0.751750 -6.122050
0.000000 -13.817950 -6.122050
14.653200 -0.751750 -6.122050
12.848600 -0.751750 2.819450
11.032700 -0.751750 4.190750
0.787400 -0.751750 4.311050
11.656400 -13.306150 5.137750
11.656400 -13.306150 6.082650
9.086780 -15.173050 6.082650
9.084070 -15.168550 6.102350
9.086780 -15.173050 5.137750
0.000000 -15.417050 -6.122050
0.000000 -13.482350 3.233960
16.844400 -5.437420 6.102350
16.830700 -5.432970 6.116750
9.076680 -15.156150 6.116750
-13.474800 0.717558 2.441390
-13.002200 -0.358050 3.742670
-11.574600 0.823050 3.980850
-0.787400 0.823050 4.311050
-15.053000 0.717558 -6.122050
-14.653200 0.823050 -6.122050
-13.107600 0.823050 2.299170
-15.452700 0.035650 -6.122050
-0.393700 13.996450 -6.122050
-15.345600 0.429350 -6.122050
0.393700 -15.309950 -6.122050
0.681908 -15.017350 -6.122050
0.787400 -14.617550 -6.122050
0.681908 -14.217750 -6.122050
0.393700 -13.925150 -6.122050
0.000000 -13.817950 -6.122050
-0.393700 -13.925150 -6.122050
-0.681908 -14.217750 -6.122050
-0.787400 -14.617550 -6.122050
-0.681908 -15.017350 -6.122050
-0.393700 -15.309950 -6.122050
0.000000 -15.417050 -6.122050
0.787400 11.610250 3.980850
0.787400 0.823050 4.311050
0.681908 13.510450 2.441390
0.681908 15.088650 -6.122050
0.787400 14.688850 -6.122050
0.787400 13.143250 2.299170
-0.681908 15.088650 -6.122050
-0.727463 0.763113 4.612350
0.393700 12.030050 2.823870
0.681908 12.776150 2.156950
11.248100 0.035650 4.948150
12.513800 -0.646258 2.612190
11.657800 -0.358050 3.130660
0.393700 13.779150 2.545500
14.253400 -0.646258 -6.122050
-12.791200 12.265250 6.116750
-12.801600 12.275250 6.102350
-17.679001 0.829615 6.116750
-14.253400 -0.646258 -6.122050
-14.653200 -0.751750 -6.122050
-15.053000 -0.646258 -6.122050
-15.345600 -0.358050 -6.122050
-15.452700 0.035650 -6.122050
-15.345600 0.429350 -6.122050
-15.053000 0.717558 -6.122050
-14.653200 0.823050 -6.122050
-14.253400 0.717558 -6.122050
-13.960800 0.429350 -6.122050
-13.853600 0.035650 -6.122050
-13.960800 -0.358050 -6.122050
-14.653200 0.823050 -6.122050
-15.053000 0.717558 -6.122050
-15.345600 0.429350 -6.122050
-15.452700 0.035650 -6.122050
-15.345600 -0.358050 -6.122050
-15.053000 -0.646258 -6.122050
-14.653200 -0.751750 -6.122050
-14.253400 -0.646258 -6.122050
-13.960800 -0.358050 -6.122050
-13.853600 0.035650 -6.122050
-13.960800 0.429350 -6.122050
-14.253400 0.717558 -6.122050
-0.681908 -15.017350 -6.122050
-0.393700 13.996450 -6.122050
-11.399100 0.717558 3.628380
-0.556776 0.592426 3.754220
-0.727463 0.763113 4.009650
0.787400 -0.751750 4.311050
11.032700 -0.751750 4.190750
12.848600 -0.751750 2.819450
14.653200 -0.751750 -6.122050
12.805400 12.278850 5.137750
10.413500 14.368650 5.137750
10.413500 14.368650 6.082650
12.805400 12.278850 6.082650
12.801600 12.275250 5.118050
15.053000 0.717558 -6.122050
15.345600 0.429350 -6.122050
15.452700 0.035650 -6.122050
15.345600 -0.358050 -6.122050
15.053000 -0.646258 -6.122050
14.653200 -0.751750 -6.122050
14.253400 -0.646258 -6.122050
13.960800 -0.358050 -6.122050
13.853600 0.035650 -6.122050
13.960800 0.429350 -6.122050
14.253400 0.717558 -6.122050
14.653200 0.823050 -6.122050
-0.393700 -15.309950 -6.122050
-0.393700 -13.392650 3.178430
14.653200 0.823050 -6.122050
14.253400 0.717558 -6.122050
13.960800 0.429350 -6.122050
13.853600 0.035650 -6.122050
13.960800 -0.358050 -6.122050
14.253400 -0.646258 -6.122050
14.653200 -0.751750 -6.122050
15.053000 -0.646258 -6.122050
15.345600 -0.358050 -6.122050
15.452700 0.035650 -6.122050
15.345600 0.429350 -6.122050
15.053000 0.717558 -6.122050
0.787400 -12.812950 2.819450
0.787400 -10.997050 4.190750
0.787400 -0.751750 4.311050
0.787400 -14.617550 -6.122050
-15.452700 0.035650 -6.122050
0.393700 15.381250 -6.122050
-9.086780 -15.173050 6.082650
-11.656400 -13.306150 6.082650
-11.656400 -13.306150 5.137750
-9.086780 -15.173050 5.137750
-9.084070 -15.168550 5.118050
0.000000 15.488350 -6.122050
-0.393700 15.381250 -6.122050
-15.345600 0.429350 -6.122050
-14.653200 0.823050 -6.122050
-13.107600 0.823050 2.299170
-11.574600 0.823050 3.980850
-0.787400 0.823050 4.311050
-0.681908 14.289050 -6.122050
-12.740500 0.717558 2.156950
-14.253400 0.717558 -6.122050
0.681908 14.289050 -6.122050
-11.925600 0.035650 4.685650
-13.474800 0.717558 2.441390
-15.053000 0.717558 -6.122050
-0.787400 11.610250 3.980850
-0.787400 0.823050 4.311050
-0.787400 14.688850 -6.122050
-0.787400 13.143250 2.299170
-0.681908 15.088650 -6.122050
0.393700 13.037850 3.742670
0.787400 14.688850 -6.122050
0.681908 15.088650 -6.122050
0.393700 15.381250 -6.122050
0.000000 15.488350 -6.122050
-0.393700 15.381250 -6.122050
-0.681908 15.088650 -6.122050
-0.787400 14.688850 -6.122050
-0.681908 14.289050 -6.122050
-0.393700 13.996450 -6.122050
0.000000 13.889250 -6.122050
0.393700 13.996450 -6.122050
0.681908 14.289050 -6.122050
-0.787400 -0.751750 4.311050
-14.653200 -0.751750 -6.122050
-13.107600 -0.751750 2.299170
-11.574600 -0.751750 3.980850
16.849400 -5.439050 5.137750
15.601100 -8.359640 5.137750
15.601100 -8.359640 6.082650
16.849400 -5.439050 6.082650
-0.556776 0.592426 4.867750
17.679001 0.829615 6.116750
-16.844400 -5.437420 6.102350
-15.596400 -8.357150 6.102350
-16.844400 -5.437420 5.118050
-15.601100 -8.359640 6.082650
-15.601100 -8.359640 5.137750
-16.849400 -5.439050 5.137750
-16.849400 -5.439050 6.082650
-12.805400 12.278850 5.137750
-12.805400 12.278850 6.082650
7.686900 15.997650 5.137750
7.684610 15.992950 5.118050
7.686900 15.997650 6.082650
5 0 1 2 3 4
4 5 6 7 8
4 9 10 11 12
4 13 14 15 16
4 17 18 19 20
4 4 21 22 23
4 24 25 26 27
5 28 29 30 31 32
4 33 34 35 36
4 17 20 37 38
6 39 40 41 42 43 44
4 45 46 47 48
5 49 50 51 52 53
4 54 55 56 57
4 58 59 60 61
4 62 63 64 65
5 66 67 68 69 70
4 71 72 73 74
4 75 76 77 78
4 79 80 81 82
8 83 84 85 86 87 88 89 90
4 91 92 93 94
4 95 96 97 98
12 99 100 101 102 103 104 105 106 107 108 109 110
4 17 111 112 18
4 113 114 115 116
4 91 94 117 118
4 119 120 121 122
12 123 124 125 126 127 128 129 130 131 132 133 134
5 135 136 137 73 72
4 138 139 140 141
4 98 97 142 143
4 144 145 146 147
4 148 13 16 149
8 93 92 150 151 152 153 154 155
4 16 156 157 149
4 158 159 160 161
4 162 163 164 165
4 166 167 168 169
4 170 171 172 173
4 174 175 176 177
4 178 179 180 181
4 182 183 184 185
4 186 187 188 189
5 190 191 39 44 192
4 193 194 14 195
5 196 145 144 197 198
5 157 199 200 201 202
5 203 204 205 206 207
5 208 148 178 209 210
5 211 27 212 213 214
5 215 216 217 218 219
5 186 220 221 222 223
5 169 155 154 224 218
5 225 226 227 228 229
5 230 231 232 202 233
5 234 235 236 237 238
5 83 90 239 240 241
5 52 51 242 243 244
5 245 246 247 248 249
5 250 251 252 253 254
8 40 255 256 257 258 259 42 41
4 260 204 261 262
4 260 262 263 264
4 202 179 149 157
6 45 265 266 267 268 269
4 270 271 272 273
4 185 274 275 182
4 50 167 166 51
4 276 138 277 278
4 279 280 140 139
16 223 281 282 254 253 1 165 164 283 284 24 27 211 136 187 186
4 285 286 287 288
4 289 290 291 161
4 9 12 292 293
4 235 234 180 179
4 294 295 181 180
5 296 274 185 184 297
4 298 58 61 299
4 300 301 302 303
4 0 4 23 162
5 223 304 305 306 281
5 307 308 309 310 311
4 312 313 314 291
4 315 316 317 318
4 319 232 320 321
8 322 323 324 325 38 37 326 327
5 328 217 216 329 330
4 331 332 333 334
4 300 26 25 335
4 336 337 338 339
4 330 340 341 115
4 118 117 49 342
5 343 344 242 345 346
5 347 348 245 349 350
5 253 351 352 2 1
5 353 354 355 283 164
8 356 357 358 221 220 359 360 361
4 284 362 25 24
5 138 141 281 306 277
4 262 11 81 263
6 363 364 365 65 366 367
4 290 368 312 291
4 319 321 369 226
4 202 232 319 179
5 235 370 325 324 371
5 205 314 372 373 374
4 161 240 375 146
4 294 376 98 143
4 58 298 377 378
4 261 12 11 262
8 247 379 380 381 382 383 384 248
5 264 385 386 387 158
5 388 389 390 178 181
4 161 291 314 205
8 391 392 393 394 30 29 395 396
8 292 203 207 358 357 356 361 293
4 298 299 85 84
8 397 398 399 200 199 55 54 400
9 190 192 401 269 268 402 403 404 405
4 406 340 330 329
4 407 301 300 335
4 121 407 335 122
4 116 408 380 379
5 113 116 379 247 246
5 409 284 283 410 411
5 159 158 412 413 414
6 267 415 416 63 402 268
4 122 335 25 362
4 280 254 282 140
4 76 172 171 77
4 417 418 338 337
4 179 419 370 235
5 240 420 421 422 375
5 137 136 211 423 424
5 225 425 395 29 28
5 196 426 427 289 145
8 305 428 429 430 431 278 277 306
4 194 432 15 14
8 212 303 302 433 434 435 436 213
8 437 438 439 440 64 63 416 441
4 71 442 443 72
4 440 444 445 446
5 405 271 270 191 190
4 162 165 1 0
5 279 447 250 254 280
5 34 346 345 448 35
8 449 450 251 250 447 451 452 453
4 276 454 139 138
4 30 394 455 31
4 136 135 188 187
4 279 139 454 456
12 457 458 459 460 461 462 463 464 465 466 467 468
8 469 470 354 353 471 472 473 474
5 369 337 336 227 226
4 19 18 31 455
8 428 373 372 170 173 431 430 429
4 179 319 226 225
4 197 144 147 315
8 296 297 475 393 392 391 396 476
4 18 112 32 31
5 316 477 375 422 478
4 149 179 178 148
4 161 205 204 260
4 217 328 114 479
5 55 199 157 156 56
5 414 480 59 481 159
4 160 159 481 378
5 471 353 164 163 482
4 480 483 60 59
4 158 161 260 264
4 315 147 477 316
4 432 57 56 15
4 10 82 81 11
5 484 485 273 272 486
12 487 488 489 490 491 492 493 494 495 496 497 498
5 38 325 370 111 17
12 499 500 501 502 503 504 505 506 507 508 509 510
4 342 49 53 511
4 512 197 315 318
8 53 52 244 399 398 397 400 511
5 513 290 289 514 515
4 179 225 28 419
8 329 216 215 516 517 518 519 406
8 520 521 522 523 68 47 46 524
8 151 150 193 195 208 210 153 152
8 88 87 86 120 119 409 411 89
12 525 526 527 528 529 530 531 532 533 534 535 536
4 537 538 443 442
4 479 114 113 246
12 539 540 541 542 543 544 545 546 547 548 549 550
4 58 378 481 59
8 551 552 553 386 385 80 79 554
4 294 180 234 376
8 517 516 389 388 174 177 519 518
4 285 555 36 35
4 23 22 556 482
4 360 359 538 537
8 557 558 559 560 561 62 65 365
4 183 562 563 184
4 175 295 294 143
4 377 241 160 378
4 285 288 564 555
5 212 27 26 300 303
5 409 119 122 362 284
4 456 451 447 279
8 383 382 381 96 95 238 237 384
4 115 114 328 330
8 227 336 339 565 566 567 568 228
4 512 569 198 197
4 78 570 571 75
4 297 184 563 475
4 572 317 316 478
4 8 7 562 183
4 162 23 482 163
4 556 472 471 482
4 240 161 160 241
4 140 282 281 141
4 448 345 573 286
4 337 369 321 417
4 574 575 564 288
8 422 421 470 469 474 473 572 478
8 576 577 426 196 198 569 578 579
4 4 3 580 21
8 567 566 565 575 574 310 309 568
5 372 314 313 171 170
5 8 581 348 347 5
12 582 583 584 585 586 587 588 589 590 591 592 593
8 594 343 346 34 33 595 596 597
4 321 320 331 417
4 77 171 313 312
8 230 594 597 596 595 333 332 231
8 2 352 577 576 579 578 580 3
5 238 95 98 376 234
5 377 298 84 83 241
4 16 15 56 156
5 310 574 288 287 311
4 289 161 146 145
5 148 208 195 14 13
15 438 437 441 416 415 267 266 265 598 599 600 601 444 440 439
5 296 476 602 307 274
5 603 48 47 68 67
4 77 312 368 78
8 513 515 450 449 453 452 571 570
5 359 220 186 189 538
16 242 51 166 169 218 217 479 246 245 348 275 274 307 311 573 345
4 94 168 167 117
8 435 434 433 483 480 414 413 436
5 63 62 561 403 402
6 486 272 604 605 363 367
4 117 167 50 49
9 603 67 66 484 486 367 366 446 445
5 65 64 440 446 366
6 66 70 259 258 485 484
5 155 169 168 94 93
8 347 350 323 322 327 326 6 5
4 538 189 188 443
4 606 271 405 404
8 601 600 599 598 265 45 48 444
4 448 286 285 35
15 607 608 609 606 561 560 559 558 557 365 364 363 605 604 610
5 175 174 388 181 295
8 256 255 611 191 270 273 485 612
4 286 573 311 287
5 613 521 520 524 614
5 80 385 264 263 81
8 73 137 424 553 552 551 554 74
5 570 78 368 290 513
5 320 232 231 332 331
4 370 419 112 111
5 12 261 204 203 292
4 443 188 135 72
4 112 419 28 32
11 613 614 44 43 42 259 70 69 615 522 521
4 581 8 183 182
5 40 39 191 611 255
4 331 334 418 417
4 477 147 146 375
5 401 524 46 45 269
5 192 44 614 524 401
4 115 341 408 116
4 175 143 142 176
4 561 606 404 403
8 271 606 609 608 607 610 604 272
5 522 615 69 68 523
5 485 258 257 256 612
4 275 348 581 182
4 603 445 444 48
