ply
format ascii 1.0
comment Created by Blender 2.82 (sub 7) - www.blender.org, source file: ''
element vertex 698
property float x
property float y
property float z
element face 152
property list uchar uint vertex_indices
end_header
0.502590 -25.413300 6.000000
-0.090340 -25.497299 6.000000
-15.369500 -19.717501 6.000000
-22.872700 -10.091700 6.000000
-24.974001 -1.140770 6.000000
-25.342600 -0.668840 6.000000
-25.497299 -0.090300 6.000000
-25.413300 0.502636 6.000000
-25.104099 1.015461 6.000000
-24.618799 1.366434 6.000000
-24.035000 1.499616 6.000000
-23.445499 1.393776 6.000000
-22.944500 1.065787 6.000000
-22.611700 0.567925 6.000000
-22.500200 -0.020460 6.000000
-22.627701 -0.605570 6.000000
-22.974001 -1.094160 6.000000
-19.733700 -11.814500 6.000000
-14.145800 -18.135500 6.000000
-1.094205 -22.973900 6.000000
-0.605615 -22.627701 6.000000
-0.020500 -22.500099 6.000000
0.567880 -22.611601 6.000000
1.065740 -22.944401 6.000000
1.393730 -23.445499 6.000000
1.499570 -24.034901 6.000000
1.366390 -24.618799 6.000000
1.015420 -25.104000 6.000000
0.707090 23.292900 6.000000
0.258800 23.034100 6.000000
0.129390 23.517099 -8.000000
0.353530 23.646500 -8.000000
0.249980 23.566999 -8.000000
-0.000020 23.500000 -8.000000
-0.250020 23.566999 -8.000000
-0.433030 23.750000 -8.000000
-0.500022 24.000000 -8.000000
-0.482980 24.129400 -8.000000
-0.353580 24.353600 -8.000000
-0.129430 24.483000 -8.000000
0.129390 24.483000 -8.000000
0.353530 24.353600 -8.000000
0.482940 24.129400 -8.000000
0.499980 24.000000 -8.000000
0.432990 23.750000 -8.000000
-0.866047 24.500000 6.000000
-0.433030 24.250000 -8.000000
-0.500022 24.000000 -8.000000
-1.000022 24.000000 6.000000
23.750000 -0.432990 -8.000000
23.500000 -0.866000 6.000000
23.134001 -0.499980 6.000000
23.566999 -0.249980 -8.000000
11.814500 19.733700 7.500000
18.135500 14.145800 7.500000
22.973900 1.094205 7.500000
22.627701 0.605615 7.500000
22.500099 0.020500 7.500000
22.611601 -0.567880 7.500000
22.944401 -1.065740 7.500000
23.445499 -1.393730 7.500000
23.954800 -1.485190 7.500000
20.530100 -12.430400 7.500000
14.807800 -18.887199 7.500000
1.485190 -23.954800 7.500000
1.393730 -23.445499 7.500000
1.065740 -22.944401 7.500000
0.567880 -22.611601 7.500000
-0.020500 -22.500099 7.500000
-0.605615 -22.627701 7.500000
-1.094205 -22.973900 7.500000
-14.145800 -18.135500 7.500000
-19.733700 -11.814500 7.500000
-22.974001 -1.094160 7.500000
-22.627701 -0.605570 7.500000
-22.500200 -0.020460 7.500000
-22.611700 0.567924 7.500000
-22.944500 1.065785 7.500000
-23.445499 1.393775 7.500000
-23.954901 1.485234 7.500000
-21.875299 9.872850 7.500000
-14.807900 18.887300 7.500000
-1.485234 23.954901 7.500000
-1.393775 23.445499 7.500000
-1.065785 22.944500 7.500000
-0.567924 22.611700 7.500000
0.020460 22.500200 7.500000
0.605570 22.627701 7.500000
1.094160 22.974001 7.500000
19.717501 15.369500 6.000000
25.497299 0.090340 6.000000
25.413300 -0.502590 6.000000
25.104000 -1.015420 6.000000
24.618799 -1.366390 6.000000
24.034901 -1.499570 6.000000
23.445499 -1.393730 6.000000
22.944401 -1.065740 6.000000
22.611601 -0.567880 6.000000
22.500099 0.020500 6.000000
22.627701 0.605615 6.000000
22.973900 1.094205 6.000000
18.135500 14.145800 6.000000
11.814500 19.733700 6.000000
1.094160 22.974001 6.000000
0.605570 22.627701 6.000000
0.020460 22.500200 6.000000
-0.567925 22.611700 6.000000
-1.065787 22.944500 6.000000
-1.393776 23.445499 6.000000
-1.499616 24.035000 6.000000
-1.366434 24.618799 6.000000
-1.015461 25.104099 6.000000
-0.502636 25.413300 6.000000
0.090300 25.497299 6.000000
0.668840 25.342600 6.000000
1.140770 24.974001 6.000000
10.091700 22.872700 6.000000
-0.433030 23.750000 -8.000000
-0.353580 23.646500 -8.000000
-0.707129 23.292900 6.000000
-0.866047 23.500000 6.000000
16.263399 16.263500 8.000000
14.145800 18.135500 8.000000
11.814500 19.733700 8.000000
11.814500 19.733700 6.000000
14.145800 18.135500 6.000000
16.263399 16.263500 6.000000
18.135500 14.145800 6.000000
18.135500 14.145800 8.000000
0.707080 -24.707100 6.000000
0.353530 -24.353500 -8.000000
0.432990 -24.250000 -8.000000
0.866000 -24.500000 6.000000
-24.250000 0.433030 -8.000000
-24.433001 0.250020 -8.000000
-24.865999 0.500022 6.000000
-24.500000 0.866047 6.000000
24.618799 -1.366390 6.000000
24.618799 -1.366390 8.000000
24.034901 -1.499570 8.000000
24.034901 -1.499570 6.000000
23.870600 -0.482940 -8.000000
24.129400 -0.482940 -8.000000
24.258801 -0.965900 6.000000
23.741199 -0.965900 6.000000
-0.668883 -25.342600 6.000000
-0.668883 -25.342600 8.000000
-1.140813 -24.973900 8.000000
-1.140813 -24.973900 6.000000
1.499570 -24.034901 8.000000
1.366390 -24.618799 8.000000
1.366390 -24.618799 6.000000
1.499570 -24.034901 6.000000
1.015420 -25.104000 8.000000
1.366390 -24.618799 8.000000
1.499570 -24.034901 8.000000
1.393730 -23.445499 8.000000
1.065740 -22.944401 8.000000
0.567880 -22.611601 8.000000
-0.020500 -22.500099 8.000000
-0.605615 -22.627701 8.000000
-1.094205 -22.973900 8.000000
-14.145800 -18.135500 8.000000
-19.733700 -11.814500 8.000000
-22.974001 -1.094160 8.000000
-22.627701 -0.605570 8.000000
-22.500200 -0.020460 8.000000
-22.611700 0.567925 8.000000
-22.944500 1.065787 8.000000
-23.445499 1.393776 8.000000
-24.035000 1.499616 8.000000
-24.618799 1.366434 8.000000
-25.104099 1.015461 8.000000
-25.413300 0.502636 8.000000
-25.497299 -0.090300 8.000000
-25.342600 -0.668840 8.000000
-24.974001 -1.140770 8.000000
-22.872700 -10.091700 8.000000
-15.369500 -19.717501 8.000000
-0.090340 -25.497299 8.000000
0.502590 -25.413300 8.000000
0.605570 22.627701 6.000000
0.605570 22.627701 8.000000
0.020460 22.500200 8.000000
0.020460 22.500200 6.000000
-23.954901 1.485234 7.500000
-23.953100 1.499290 7.500000
-23.953100 1.499290 6.500000
-23.954901 1.485234 6.500000
1.140770 24.974001 8.000000
1.140770 24.974001 6.000000
0.668840 25.342600 6.000000
0.668840 25.342600 8.000000
23.954800 -1.485190 6.000000
23.954800 -1.485190 8.000000
23.445499 -1.393730 8.000000
23.445499 -1.393730 6.000000
24.482901 -0.129390 -8.000000
24.965900 -0.258800 6.000000
24.707100 -0.707090 6.000000
24.353500 -0.353530 -8.000000
25.104000 -1.015420 6.000000
25.104000 -1.015420 8.000000
23.954800 -1.485190 8.000000
23.954800 -1.485190 6.000000
22.944401 -1.065740 8.000000
22.611601 -0.567880 8.000000
22.611601 -0.567880 6.000000
22.944401 -1.065740 6.000000
-23.953100 1.499290 7.500000
-18.887300 14.807900 7.500000
-18.887300 14.807900 6.500000
-23.953100 1.499290 6.500000
-23.953100 1.499290 6.500000
-18.887300 14.807900 6.500000
-18.887300 14.807900 7.500000
-23.953100 1.499290 7.500000
-0.707129 -24.707100 6.000000
-0.353580 -24.353500 -8.000000
-0.129430 -24.482901 -8.000000
-0.258840 -24.965900 6.000000
15.369500 19.717501 6.000000
12.828000 21.458000 6.000000
10.091700 22.872700 6.000000
10.091700 22.872700 8.000000
12.828000 21.458000 8.000000
15.369500 19.717501 8.000000
19.717501 15.369500 8.000000
19.717501 15.369500 6.000000
24.353500 0.353580 -8.000000
24.707100 0.707129 6.000000
24.965900 0.258840 6.000000
24.482901 0.129430 -8.000000
-0.500022 24.865999 6.000000
-0.250020 24.433001 -8.000000
-1.485234 23.954901 7.500000
-1.485234 23.954901 6.500000
-1.499290 23.953100 6.500000
-1.499290 23.953100 7.500000
-24.618799 1.366434 8.000000
-24.618799 1.366434 6.000000
-25.104099 1.015461 6.000000
-25.104099 1.015461 8.000000
-22.500200 -0.020460 8.000000
-22.627701 -0.605570 8.000000
-22.627701 -0.605570 6.000000
-22.500200 -0.020460 6.000000
21.875200 -9.872800 6.500000
20.530100 -12.430400 6.500000
18.887199 -14.807800 6.500000
18.887199 -14.807800 7.500000
20.530100 -12.430400 7.500000
21.875200 -9.872800 7.500000
22.903299 -7.172050 7.500000
23.599300 -4.367300 7.500000
23.953100 -1.499250 7.500000
23.953100 -1.499250 6.500000
23.599300 -4.367300 6.500000
22.903299 -7.172050 6.500000
23.953100 -1.499250 7.500000
20.530100 -12.430400 7.500000
20.530100 -12.430400 6.500000
23.953100 -1.499250 6.500000
-12.430500 20.530100 6.500000
-9.872850 21.875299 6.500000
-9.872850 21.875299 7.500000
-12.430500 20.530100 7.500000
-14.807900 18.887300 7.500000
-14.807900 18.887300 6.500000
14.807800 -18.887199 7.500000
14.807800 -18.887199 6.500000
-22.872700 -10.091700 8.000000
-23.940100 -7.202210 8.000000
-24.644100 -4.203400 8.000000
-24.974001 -1.140770 8.000000
-24.974001 -1.140770 6.000000
-24.644100 -4.203400 6.000000
-23.940100 -7.202210 6.000000
-22.872700 -10.091700 6.000000
23.500000 0.866047 6.000000
23.750000 0.433030 -8.000000
23.566999 0.250020 -8.000000
23.134001 0.500022 6.000000
-1.065787 22.944500 8.000000
-1.393776 23.445499 8.000000
-1.393776 23.445499 6.000000
-1.065787 22.944500 6.000000
24.000000 1.000022 6.000000
24.000000 0.500022 -8.000000
-0.567925 22.611700 6.000000
-0.567925 22.611700 8.000000
0.499980 -24.000000 -8.000000
0.999980 -24.000000 6.000000
-1.499616 24.035000 8.000000
-1.366434 24.618799 8.000000
-1.366434 24.618799 6.000000
-1.499616 24.035000 6.000000
-23.954901 1.485234 6.500000
-23.953100 1.499290 6.500000
-23.953100 1.499290 7.500000
-23.954901 1.485234 7.500000
0.090300 25.497299 8.000000
0.090300 25.497299 6.000000
-0.502636 25.413300 6.000000
-0.502636 25.413300 8.000000
-1.485235 23.954901 8.000000
-1.485235 23.954901 6.000000
18.135500 14.145800 6.500000
22.973900 1.094205 6.500000
22.627701 0.605615 6.500000
22.500099 0.020500 6.500000
22.611601 -0.567880 6.500000
22.944401 -1.065740 6.500000
23.445499 -1.393730 6.500000
23.954800 -1.485190 6.500000
20.530100 -12.430400 6.500000
14.807800 -18.887199 6.500000
1.485190 -23.954800 6.500000
1.393730 -23.445499 6.500000
1.065740 -22.944401 6.500000
0.567880 -22.611601 6.500000
-0.020500 -22.500099 6.500000
-0.605615 -22.627701 6.500000
-1.094205 -22.973900 6.500000
-14.145800 -18.135500 6.500000
-19.733700 -11.814500 6.500000
-22.974001 -1.094160 6.500000
-22.627701 -0.605570 6.500000
-22.500200 -0.020460 6.500000
-22.611700 0.567924 6.500000
-22.944500 1.065785 6.500000
-23.445499 1.393775 6.500000
-23.954901 1.485234 6.500000
-18.887300 14.807900 6.500000
-9.872850 21.875299 6.500000
-1.485234 23.954901 6.500000
-1.393775 23.445499 6.500000
-1.065785 22.944500 6.500000
-0.567924 22.611700 6.500000
0.020460 22.500200 6.500000
0.605570 22.627701 6.500000
1.094160 22.974001 6.500000
11.814500 19.733700 6.500000
0.258800 -23.034100 6.000000
0.499980 -23.134001 6.000000
0.249980 -23.566999 -8.000000
0.129390 -23.517000 -8.000000
-0.433030 -24.250000 -8.000000
-0.866047 -24.500000 6.000000
22.500099 0.020500 8.000000
22.627701 0.605615 8.000000
22.627701 0.605615 6.000000
22.500099 0.020500 6.000000
23.034100 -0.258800 6.000000
23.034100 0.258840 6.000000
23.517000 0.129430 -8.000000
23.517000 -0.129390 -8.000000
0.129390 -24.482901 -8.000000
0.258800 -24.965900 6.000000
18.135500 14.145800 8.000000
22.973900 1.094205 8.000000
22.627701 0.605615 8.000000
22.500099 0.020500 8.000000
22.611601 -0.567880 8.000000
22.944401 -1.065740 8.000000
23.445499 -1.393730 8.000000
24.034901 -1.499570 8.000000
24.618799 -1.366390 8.000000
25.104000 -1.015420 8.000000
25.413300 -0.502590 8.000000
25.497299 0.090340 8.000000
19.717501 15.369500 8.000000
10.091700 22.872700 8.000000
1.140770 24.974001 8.000000
0.668840 25.342600 8.000000
0.090300 25.497299 8.000000
-0.502636 25.413300 8.000000
-1.015461 25.104099 8.000000
-1.366434 24.618799 8.000000
-1.499616 24.035000 8.000000
-1.393776 23.445499 8.000000
-1.065787 22.944500 8.000000
-0.567925 22.611700 8.000000
0.020460 22.500200 8.000000
0.605570 22.627701 8.000000
1.094160 22.974001 8.000000
11.814500 19.733700 8.000000
-0.129430 24.483000 -8.000000
-0.258840 24.965900 6.000000
0.258800 24.965900 6.000000
0.129390 24.483000 -8.000000
1.393730 -23.445499 8.000000
1.485190 -23.954800 8.000000
1.485190 -23.954800 6.000000
1.393730 -23.445499 6.000000
23.870600 -0.482940 -8.000000
23.646400 -0.353530 -8.000000
23.517000 -0.129390 -8.000000
23.517000 0.129430 -8.000000
23.646400 0.353580 -8.000000
23.870600 0.482980 -8.000000
24.000000 0.500022 -8.000000
24.250000 0.433030 -8.000000
24.433001 0.250020 -8.000000
24.500000 0.000020 -8.000000
24.433001 -0.249980 -8.000000
24.250000 -0.432990 -8.000000
24.000000 -0.499980 -8.000000
-14.145800 -18.135500 7.500000
-1.094205 -22.973900 7.500000
-0.605615 -22.627701 7.500000
-0.020500 -22.500099 7.500000
0.567880 -22.611601 7.500000
1.065740 -22.944401 7.500000
1.393730 -23.445499 7.500000
1.485190 -23.954800 7.500000
12.430400 -20.530100 7.500000
18.887199 -14.807800 7.500000
23.954800 -1.485190 7.500000
23.445499 -1.393730 7.500000
22.944401 -1.065740 7.500000
22.611601 -0.567880 7.500000
22.500099 0.020500 7.500000
22.627701 0.605615 7.500000
22.973900 1.094205 7.500000
18.135500 14.145800 7.500000
11.814500 19.733700 7.500000
1.094160 22.974001 7.500000
0.605570 22.627701 7.500000
0.020460 22.500200 7.500000
-0.567924 22.611700 7.500000
-1.065785 22.944500 7.500000
-1.393775 23.445499 7.500000
-1.485234 23.954901 7.500000
-14.807900 18.887300 7.500000
-21.875299 9.872850 7.500000
-23.954901 1.485234 7.500000
-23.445499 1.393775 7.500000
-22.944500 1.065785 7.500000
-22.611700 0.567924 7.500000
-22.500200 -0.020460 7.500000
-22.627701 -0.605570 7.500000
-22.974001 -1.094160 7.500000
-19.733700 -11.814500 7.500000
-14.145800 -18.135500 6.000000
-14.145800 -18.135500 8.000000
-1.094205 -22.973900 8.000000
-1.094205 -22.973900 6.000000
-23.566999 -0.249980 -8.000000
-23.134001 -0.499980 6.000000
-23.292900 -0.707080 6.000000
-23.646500 -0.353530 -8.000000
0.129390 -23.517000 -8.000000
0.353530 -23.646400 -8.000000
0.482940 -23.870600 -8.000000
0.499980 -24.000000 -8.000000
0.432990 -24.250000 -8.000000
0.249980 -24.433001 -8.000000
-0.000020 -24.500000 -8.000000
-0.250020 -24.433001 -8.000000
-0.433030 -24.250000 -8.000000
-0.500022 -24.000000 -8.000000
-0.482980 -23.870600 -8.000000
-0.353580 -23.646400 -8.000000
-0.129430 -23.517000 -8.000000
-24.500000 -0.866000 6.000000
-24.250000 -0.432990 -8.000000
-24.129400 -0.482940 -8.000000
-24.258801 -0.965900 6.000000
0.567880 -22.611601 8.000000
0.567880 -22.611601 6.000000
-0.020500 -22.500099 6.000000
-0.020500 -22.500099 8.000000
-24.965900 -0.258800 6.000000
-24.483000 -0.129390 -8.000000
-24.433001 -0.249980 -8.000000
-24.865999 -0.499980 6.000000
-0.605615 -22.627701 6.000000
-0.605615 -22.627701 8.000000
1.485190 -23.954800 8.000000
1.485190 -23.954800 6.000000
1.065740 -22.944401 8.000000
1.065740 -22.944401 6.000000
0.249980 24.433001 -8.000000
0.499980 24.865999 6.000000
12.430400 -20.530100 6.500000
12.430400 -20.530100 7.500000
-24.974001 -1.140770 8.000000
-25.342600 -0.668840 8.000000
-25.342600 -0.668840 6.000000
-24.974001 -1.140770 6.000000
1.499250 -23.953100 6.500000
1.499250 -23.953100 7.500000
4.367300 -23.599300 7.500000
7.172050 -22.903299 7.500000
7.172050 -22.903299 6.500000
4.367300 -23.599300 6.500000
-1.499290 23.953100 6.500000
-1.499290 23.953100 7.500000
-22.944500 1.065787 8.000000
-22.944500 1.065787 6.000000
-23.445499 1.393776 6.000000
-23.445499 1.393776 8.000000
-24.035000 1.499616 8.000000
-24.035000 1.499616 6.000000
-23.954901 1.485235 6.000000
-23.954901 1.485235 8.000000
-0.258840 -23.034100 6.000000
-0.129430 -23.517000 -8.000000
1.499250 -23.953100 7.500000
1.499250 -23.953100 6.500000
0.432990 23.750000 -8.000000
0.499980 24.000000 -8.000000
0.999980 24.000000 6.000000
0.866000 23.500000 6.000000
-0.258840 23.034100 6.000000
-0.129430 23.517099 -8.000000
22.872601 10.091730 8.000000
23.940100 7.202260 8.000000
24.644100 4.203440 8.000000
24.973900 1.140813 8.000000
24.973900 1.140813 6.000000
24.644100 4.203440 6.000000
23.940100 7.202260 6.000000
22.872601 10.091730 6.000000
21.457899 12.828000 6.000000
21.457899 12.828000 8.000000
-7.172090 22.903299 6.500000
-9.872850 21.875299 6.500000
-9.872850 21.875299 7.500000
-7.172090 22.903299 7.500000
-4.367350 23.599300 7.500000
-1.499290 23.953100 7.500000
-1.499290 23.953100 6.500000
-4.367350 23.599300 6.500000
0.866000 -23.500000 6.000000
0.432990 -23.750000 -8.000000
-15.369500 -19.717501 8.000000
-15.369500 -19.717501 6.000000
-12.430500 20.530100 6.500000
-14.807900 18.887300 6.500000
-16.970600 16.970600 6.500000
-16.970600 16.970600 7.500000
-14.807900 18.887300 7.500000
-12.430500 20.530100 7.500000
-0.866047 -23.500000 6.000000
-0.433030 -23.750000 -8.000000
-0.500022 -24.000000 -8.000000
-1.000022 -24.000000 6.000000
1.094160 22.974001 8.000000
1.094160 22.974001 6.000000
-23.566999 0.250020 -8.000000
-23.134001 0.500022 6.000000
-23.000000 0.000020 6.000000
-23.500000 0.000020 -8.000000
1.499250 -23.953100 6.500000
1.499250 -23.953100 7.500000
1.485190 -23.954800 7.500000
1.485190 -23.954800 6.500000
-18.135500 -14.145800 8.000000
-16.263500 -16.263399 8.000000
-16.263500 -16.263399 6.000000
-18.135500 -14.145800 6.000000
-19.733700 -11.814500 6.000000
-19.733700 -11.814500 8.000000
-1.485235 23.954901 8.000000
-1.485235 23.954901 6.000000
1.094160 22.974001 6.000000
1.094160 22.974001 8.000000
-24.483000 0.129430 -8.000000
-24.353600 0.353580 -8.000000
-24.129400 0.482980 -8.000000
-24.000000 0.500022 -8.000000
-23.750000 0.433030 -8.000000
-23.566999 0.250020 -8.000000
-23.500000 0.000020 -8.000000
-23.566999 -0.249980 -8.000000
-23.750000 -0.432990 -8.000000
-24.000000 -0.499980 -8.000000
-24.129400 -0.482940 -8.000000
-24.353600 -0.353530 -8.000000
-24.483000 -0.129390 -8.000000
-14.807900 18.887300 6.500000
-21.875299 9.872850 6.500000
-23.954901 1.485234 6.500000
-23.445499 1.393775 6.500000
-22.944500 1.065785 6.500000
-22.611700 0.567924 6.500000
-22.500200 -0.020460 6.500000
-22.627701 -0.605570 6.500000
-22.974001 -1.094160 6.500000
-19.733700 -11.814500 6.500000
-14.145800 -18.135500 6.500000
-1.094205 -22.973900 6.500000
-0.605615 -22.627701 6.500000
-0.020500 -22.500099 6.500000
0.567880 -22.611601 6.500000
1.065740 -22.944401 6.500000
1.393730 -23.445499 6.500000
1.485190 -23.954800 6.500000
14.807800 -18.887199 6.500000
20.530100 -12.430400 6.500000
23.954800 -1.485190 6.500000
23.445499 -1.393730 6.500000
22.944401 -1.065740 6.500000
22.611601 -0.567880 6.500000
22.500099 0.020500 6.500000
22.627701 0.605615 6.500000
22.973900 1.094205 6.500000
18.135500 14.145800 6.500000
11.814500 19.733700 6.500000
1.094160 22.974001 6.500000
0.605570 22.627701 6.500000
0.020460 22.500200 6.500000
-0.567924 22.611700 6.500000
-1.065785 22.944500 6.500000
-1.393775 23.445499 6.500000
-1.485234 23.954901 6.500000
-1.015461 25.104099 8.000000
-1.015461 25.104099 6.000000
-0.500022 -23.134001 6.000000
-0.250020 -23.566999 -8.000000
1.485190 -23.954800 6.500000
1.485190 -23.954800 7.500000
1.499250 -23.953100 7.500000
1.499250 -23.953100 6.500000
-23.870600 -0.482940 -8.000000
-23.741199 -0.965900 6.000000
24.973900 1.140813 8.000000
25.342600 0.668883 8.000000
25.342600 0.668883 6.000000
24.973900 1.140813 6.000000
25.497299 0.090340 8.000000
25.413300 -0.502590 8.000000
25.413300 -0.502590 6.000000
25.497299 0.090340 6.000000
-24.000000 0.500022 -8.000000
-24.000000 1.000022 6.000000
-7.202260 -23.940100 8.000000
-10.091730 -22.872601 8.000000
-12.828000 -21.457899 8.000000
-12.828000 -21.457899 6.000000
-10.091730 -22.872601 6.000000
-7.202260 -23.940100 6.000000
-4.203440 -24.644100 6.000000
-1.140813 -24.973900 6.000000
-1.140813 -24.973900 8.000000
-4.203440 -24.644100 8.000000
22.973900 1.094205 8.000000
22.973900 1.094205 6.000000
24.250000 0.433030 -8.000000
24.500000 0.866047 6.000000
0.866000 24.500000 6.000000
0.432990 24.250000 -8.000000
-22.974001 -1.094160 8.000000
-22.974001 -1.094160 6.000000
-24.483000 0.129430 -8.000000
-24.965900 0.258840 6.000000
-23.500000 0.866047 6.000000
-23.750000 0.433030 -8.000000
1.140770 24.974001 6.000000
1.140770 24.974001 8.000000
-1.094205 -22.973900 6.000000
-1.094205 -22.973900 8.000000
-0.090340 -25.497299 6.000000
-0.090340 -25.497299 8.000000
1.015420 -25.104000 8.000000
1.015420 -25.104000 6.000000
0.502590 -25.413300 8.000000
0.502590 -25.413300 6.000000
21.033800 9.304840 8.000000
21.033800 9.304840 6.000000
22.016300 6.654610 6.000000
22.973900 1.094205 6.000000
22.973900 1.094205 8.000000
22.016300 6.654610 8.000000
-25.497299 -0.090300 8.000000
-25.497299 -0.090300 6.000000
23.954800 -1.485190 6.500000
23.953100 -1.499250 6.500000
23.953100 -1.499250 7.500000
23.954800 -1.485190 7.500000
-25.413300 0.502636 8.000000
-25.413300 0.502636 6.000000
-23.954901 1.485235 8.000000
-23.954901 1.485235 6.000000
-1.499290 23.953100 7.500000
-1.499290 23.953100 6.500000
-1.485234 23.954901 6.500000
-1.485234 23.954901 7.500000
-22.611700 0.567925 8.000000
-22.611700 0.567925 6.000000
23.954800 -1.485190 7.500000
23.953100 -1.499250 7.500000
23.953100 -1.499250 6.500000
23.954800 -1.485190 6.500000
-22.974001 -1.094160 8.000000
-22.974001 -1.094160 6.000000
28 0 1 2 3 4 5 6 7 8 9 10 11 12 13 14 15 16 17 18 19 20 21 22 23 24 25 26 27
4 28 29 30 31
13 32 33 34 35 36 37 38 39 40 41 42 43 44
4 45 46 47 48
4 49 50 51 52
36 53 54 55 56 57 58 59 60 61 62 63 64 65 66 67 68 69 70 71 72 73 74 75 76 77 78 79 80 81 82 83 84 85 86 87 88
28 89 90 91 92 93 94 95 96 97 98 99 100 101 102 103 104 105 106 107 108 109 110 111 112 113 114 115 116
4 117 118 119 120
8 121 122 123 124 125 126 127 128
4 129 130 131 132
4 133 134 135 136
4 137 138 139 140
4 141 142 143 144
4 145 146 147 148
4 149 150 151 152
28 153 154 155 156 157 158 159 160 161 162 163 164 165 166 167 168 169 170 171 172 173 174 175 176 177 178 179 180
4 181 182 183 184
4 185 186 187 188
4 189 190 191 192
4 193 194 195 196
4 197 198 199 200
4 201 202 138 137
4 140 139 203 204
4 205 206 207 208
4 209 210 211 212
4 213 214 215 216
4 217 218 219 220
8 221 222 223 224 225 226 227 228
4 229 230 231 232
4 46 45 233 234
4 235 236 237 238
4 239 240 241 242
4 243 244 245 246
12 247 248 249 250 251 252 253 254 255 256 257 258
4 259 260 261 262
8 263 264 265 266 267 215 214 268
4 260 269 270 261
8 271 272 273 274 275 276 277 278
4 279 280 281 282
4 283 284 285 286
4 280 279 287 288
4 289 290 283 286
4 48 47 117 120
4 131 291 292 132
4 293 294 295 296
4 297 298 299 300
4 301 302 303 304
4 305 293 296 306
36 307 308 309 310 311 312 313 314 315 316 317 318 319 320 321 322 323 324 325 326 327 328 329 330 331 332 333 334 335 336 337 338 339 340 341 342
4 343 344 345 346
4 347 218 217 348
4 349 350 351 352
4 206 349 352 207
4 353 354 355 356
4 220 219 357 358
28 359 360 361 362 363 364 365 366 367 368 369 370 371 372 373 374 375 376 377 378 379 380 381 382 383 384 385 386
4 387 388 389 390
4 391 392 393 394
13 395 396 397 398 399 400 401 402 403 404 405 406 407
36 408 409 410 411 412 413 414 415 416 417 418 419 420 421 422 423 424 425 426 427 428 429 430 431 432 433 434 435 436 437 438 439 440 441 442 443
4 444 445 446 447
4 50 49 141 144
4 448 449 450 451
13 452 453 454 455 456 457 458 459 460 461 462 463 464
4 465 466 467 468
4 469 470 471 472
4 51 353 356 52
4 473 474 475 476
4 472 471 477 478
4 479 149 152 480
4 481 391 394 482
4 483 390 389 484
4 250 249 485 486
4 487 488 489 490
8 491 492 493 494 486 485 495 496
4 265 264 497 498
4 499 500 501 502
4 503 504 240 239
4 502 501 505 506
4 507 343 346 508
4 269 509 510 270
4 511 512 513 514
4 515 119 118 516
12 517 518 519 520 521 522 523 524 525 228 227 526
8 527 528 529 530 531 532 533 534
4 535 536 345 344
4 537 271 278 538
10 529 528 539 540 541 211 210 542 543 544
4 466 465 476 475
4 545 546 547 548
4 354 282 281 355
4 123 549 550 124
4 551 552 553 554
4 184 183 290 289
4 555 556 557 558
8 559 560 445 444 561 562 563 564
4 284 565 566 285
4 567 568 182 181
13 569 570 571 572 573 574 575 576 577 578 579 580 581
4 553 449 448 554
36 582 583 584 585 586 587 588 589 590 591 592 593 594 595 596 597 598 599 600 601 602 603 604 605 606 607 608 609 610 611 612 613 614 615 616 617
4 294 618 619 295
4 546 545 620 621
4 192 191 302 301
4 130 129 358 357
4 304 303 619 618
4 622 623 624 625
4 536 535 292 291
4 626 627 468 467
4 28 31 511 514
4 628 629 630 631
4 632 633 634 635
4 633 202 201 634
4 629 632 635 630
4 196 195 205 208
4 636 133 136 637
12 638 639 640 537 538 641 642 643 644 645 646 647
4 350 648 649 351
4 548 547 347 348
4 230 229 650 651
4 652 653 483 484
4 654 564 563 655
4 29 515 516 30
4 288 287 651 650
4 135 134 656 657
4 658 552 551 659
4 636 637 658 659
4 200 199 143 142
4 660 661 224 223
4 451 450 627 626
4 512 653 652 513
4 478 477 662 663
4 474 473 657 656
4 481 482 470 469
4 664 665 146 145
4 150 666 667 151
4 667 666 668 669
4 669 668 665 664
4 621 620 507 508
8 670 128 127 671 672 673 674 675
4 388 387 234 233
4 488 676 677 489
4 678 679 680 681
4 676 682 683 677
4 684 685 504 503
4 686 687 688 689
4 682 242 241 683
4 690 243 246 691
4 499 690 691 500
4 692 693 694 695
4 244 696 697 245
4 232 231 198 197
