ply
format ascii 1.0
comment Created by Blender 2.82 (sub 7) - www.blender.org, source file: ''
element vertex 501
property float x
property float y
property float z
element face 104
property list uchar uint vertex_indices
end_header
29.133850 -26.181150 11.849600
29.133850 -26.425751 11.661900
26.425751 -29.133850 11.661900
26.181150 -29.133850 11.849600
-26.613411 -29.133850 11.417300
-29.133850 -26.613449 11.417300
-29.133850 -26.731449 11.132400
-26.731400 -29.133850 11.132400
-29.133850 26.731400 11.132400
-26.731400 29.133850 11.132400
-26.771650 29.133850 10.826800
-29.133850 26.771650 10.826800
25.590549 29.133850 12.007900
-25.590540 29.133850 12.007900
-29.133850 25.590540 12.007900
-29.133850 -25.590549 12.007900
-25.590540 -29.133850 12.007900
25.590549 -29.133850 12.007900
29.133850 -25.590549 12.007900
29.133850 25.590540 12.007900
27.952749 28.817375 14.370100
27.952749 28.817375 -14.370100
28.817350 27.952749 -14.370100
28.817350 27.952749 14.370100
-28.817375 27.952749 -14.370100
-29.133850 26.771650 -14.370100
-29.133850 26.771650 14.370100
-28.817375 27.952749 14.370100
-26.731400 -29.133850 11.132400
-29.133850 -26.731449 11.132400
-29.133850 -26.613449 11.417300
-26.613411 -29.133850 11.417300
26.771650 -29.133850 -14.370100
26.771650 -29.133850 10.826800
29.133850 -26.771650 10.826800
29.133850 -26.771650 -14.370100
26.771650 -29.133850 10.826800
26.613449 -29.133850 11.417300
26.181150 -29.133850 11.849600
25.896250 -29.133850 11.967600
-25.896231 -29.133850 11.967600
-26.425711 -29.133850 11.661900
-26.613411 -29.133850 11.417300
-26.771650 -29.133850 10.826800
-26.771650 -29.133850 14.370100
26.771650 -29.133850 14.370100
-29.053360 -27.383051 14.370100
-28.817375 -27.952749 14.370100
-28.129580 -27.555651 14.370100
-28.286224 -27.177450 14.370100
-27.177481 -28.286249 14.370100
27.177450 -28.286249 14.370100
27.880449 -27.880449 14.370100
28.286249 -27.177450 14.370100
28.286249 27.177481 14.370100
27.880449 27.880390 14.370100
27.177450 28.286224 14.370100
-27.177481 28.286224 14.370100
-27.555651 28.129580 14.370100
-28.129580 27.555651 14.370100
-28.286224 27.177481 14.370100
-28.286224 -27.177450 14.370100
-27.880390 -27.880449 14.370100
-28.817375 27.952749 -14.370100
-27.952749 28.817375 -14.370100
-27.952749 28.817375 14.370100
-28.817375 27.952749 14.370100
-27.952749 28.817375 14.370100
-27.952749 28.817375 -14.370100
-26.771650 29.133850 -14.370100
-26.771650 29.133850 14.370100
-29.133850 26.181089 11.849600
-29.133850 25.896231 11.967600
-25.896231 29.133850 11.967600
-26.181089 29.133850 11.849600
-26.613411 -29.133850 11.417300
-29.133850 -26.613449 11.417300
-29.133850 -26.425751 11.661900
-26.425711 -29.133850 11.661900
29.133850 -25.590549 12.007900
25.590549 -29.133850 12.007900
25.896250 -29.133850 11.967600
29.133850 -25.896250 11.967600
26.181150 -29.133850 11.849600
26.425751 -29.133850 11.661900
29.133850 -26.425751 11.661900
29.133850 -26.181150 11.849600
29.133850 -25.896250 11.967600
25.896250 -29.133850 11.967600
25.590549 -29.133850 12.007900
29.133850 -25.590549 12.007900
29.133850 25.896231 11.967600
29.133850 25.590540 12.007900
25.590549 29.133850 12.007900
25.896250 29.133850 11.967600
27.952749 -28.817350 -14.370100
27.952749 -28.817350 14.370100
28.817350 -27.952749 14.370100
28.817350 -27.952749 -14.370100
26.771650 29.133850 -14.370100
26.771650 29.133850 14.370100
27.952749 28.817375 14.370100
27.952749 28.817375 -14.370100
29.133850 -26.771650 -14.370100
29.133850 -26.771650 14.370100
28.817350 -27.952749 14.370100
28.817350 -27.952749 -14.370100
26.771650 29.133850 14.370100
26.771650 29.133850 -14.370100
29.133850 26.771650 -14.370100
29.133850 26.771650 14.370100
29.133850 -26.771650 10.826800
26.771650 -29.133850 10.826800
26.731449 -29.133850 11.132400
29.133850 -26.731449 11.132400
26.613449 -29.133850 11.417300
26.771650 -29.133850 10.826800
26.771650 -29.133850 14.370100
-26.771650 -29.133850 14.370100
-26.771650 -29.133850 10.826800
-26.613411 -29.133850 11.417300
-26.425711 -29.133850 11.661900
-25.896231 -29.133850 11.967600
25.896250 -29.133850 11.967600
26.181150 -29.133850 11.849600
-29.133850 26.613411 11.417300
-29.133850 26.771650 10.826800
-29.133850 26.771650 14.370100
-29.133850 -26.771650 14.370100
-29.133850 -26.771650 10.826800
-29.133850 -26.613449 11.417300
-29.133850 -26.181150 11.849600
-29.133850 -25.896250 11.967600
-29.133850 25.896231 11.967600
-29.133850 26.425711 11.661900
25.896250 -29.133850 11.967600
26.181150 -29.133850 11.849600
29.133850 -26.181150 11.849600
29.133850 -25.896250 11.967600
-29.133850 -26.425751 11.661900
-26.425711 -29.133850 11.661900
-26.181089 -29.133850 11.849600
-29.133850 -26.181150 11.849600
-26.771650 -29.133850 -14.370100
-29.133850 -26.771650 -14.370100
-29.133850 -26.771650 10.826800
-26.771650 -29.133850 10.826800
-29.133850 26.425711 11.661900
-29.133850 26.613411 11.417300
-26.613411 29.133850 11.417300
-26.425711 29.133850 11.661900
28.817350 27.952749 -14.370100
28.817350 27.952749 14.370100
29.133850 -25.896250 11.967600
29.133850 -26.181150 11.849600
26.181150 -29.133850 11.849600
25.896250 -29.133850 11.967600
29.133850 -26.613449 11.417300
26.613449 -29.133850 11.417300
26.425751 -29.133850 11.661900
29.133850 -26.425751 11.661900
29.133850 26.181089 11.849600
29.133850 26.425711 11.661900
26.425751 29.133850 11.661900
26.181150 29.133850 11.849600
26.731449 -29.133850 11.132400
29.133850 -26.731449 11.132400
29.133850 -26.613449 11.417300
26.613449 -29.133850 11.417300
-29.133850 26.771650 10.826800
-26.771650 29.133850 10.826800
-26.731400 29.133850 11.132400
-29.133850 26.731400 11.132400
25.896250 29.133850 11.967600
26.181150 29.133850 11.849600
29.133850 26.181089 11.849600
29.133850 25.896231 11.967600
-29.133850 26.771650 10.826800
-29.133850 26.613411 11.417300
-29.133850 26.425711 11.661900
-29.133850 25.896231 11.967600
-29.133850 -25.896250 11.967600
-29.133850 -26.181150 11.849600
-29.133850 -26.613449 11.417300
-29.133850 -26.771650 10.826800
-29.133850 -26.771650 14.370100
-29.133850 26.771650 14.370100
26.613449 29.133850 11.417300
26.731449 29.133850 11.132400
29.133850 26.731400 11.132400
29.133850 26.613411 11.417300
26.425751 29.133850 11.661900
26.613449 29.133850 11.417300
29.133850 26.613411 11.417300
29.133850 26.425711 11.661900
29.133850 -26.771650 10.826800
29.133850 -26.771650 14.370100
29.133850 26.771650 14.370100
29.133850 26.771650 10.826800
29.133850 26.613411 11.417300
29.133850 26.425711 11.661900
29.133850 25.896231 11.967600
29.133850 -25.896250 11.967600
29.133850 -26.181150 11.849600
29.133850 -26.613449 11.417300
29.133850 26.425711 11.661900
29.133850 26.613411 11.417300
26.613449 29.133850 11.417300
26.425751 29.133850 11.661900
-26.425711 29.133850 11.661900
-26.613411 29.133850 11.417300
-29.133850 26.613411 11.417300
-29.133850 26.425711 11.661900
-25.590540 29.133850 12.007900
-25.896231 29.133850 11.967600
-29.133850 25.896231 11.967600
-29.133850 25.590540 12.007900
-26.771650 -29.133850 14.370100
-27.952749 -28.817350 14.370100
-27.952749 -28.817350 -14.370100
-26.771650 -29.133850 -14.370100
-29.133850 -26.771650 -14.370100
-29.133850 -26.771650 14.370100
-28.817375 -27.952749 14.370100
-28.817375 -27.952749 -14.370100
26.771650 29.133850 14.370100
26.771650 29.133850 10.826800
26.613449 29.133850 11.417300
26.181150 29.133850 11.849600
25.896250 29.133850 11.967600
-25.896231 29.133850 11.967600
-26.425711 29.133850 11.661900
-26.613411 29.133850 11.417300
-26.771650 29.133850 10.826800
-26.771650 29.133850 14.370100
-27.952749 -28.817350 14.370100
-27.952749 -28.817350 -14.370100
25.590549 -29.133850 12.007900
-25.590540 -29.133850 12.007900
-29.133850 -25.590549 12.007900
-29.133850 25.590540 12.007900
-25.590540 29.133850 12.007900
25.590549 29.133850 12.007900
29.133850 25.590540 12.007900
29.133850 -25.590549 12.007900
-29.133850 26.771650 -14.370100
-29.133850 26.771650 14.370100
-26.425711 29.133850 11.661900
-26.181089 29.133850 11.849600
-29.133850 26.181089 11.849600
-29.133850 26.425711 11.661900
-26.771650 29.133850 14.370100
-26.771650 29.133850 -14.370100
29.133850 26.771650 14.370100
29.133850 26.771650 -14.370100
29.133850 26.771650 14.370100
29.133850 -26.771650 14.370100
29.133850 -26.771650 10.826800
29.133850 -26.613449 11.417300
29.133850 -26.181150 11.849600
29.133850 -25.896250 11.967600
29.133850 25.896231 11.967600
29.133850 26.425711 11.661900
29.133850 26.613411 11.417300
29.133850 26.771650 10.826800
-26.613411 29.133850 11.417300
-26.731400 29.133850 11.132400
-29.133850 26.731400 11.132400
-29.133850 26.613411 11.417300
-26.771650 29.133850 10.826800
-26.613411 29.133850 11.417300
-26.425711 29.133850 11.661900
-25.896231 29.133850 11.967600
25.896250 29.133850 11.967600
26.181150 29.133850 11.849600
26.613449 29.133850 11.417300
26.771650 29.133850 10.826800
26.771650 29.133850 14.370100
-26.771650 29.133850 14.370100
27.952749 -28.817350 14.370100
27.383051 -29.053350 14.370100
-27.383030 -29.053350 14.370100
-27.952749 -28.817350 14.370100
-28.817375 -27.952749 14.370100
-29.053360 -27.383051 14.370100
-29.133850 26.771650 14.370100
-28.346449 26.720039 14.370100
-28.286224 -27.177450 14.370100
-27.880390 -27.880449 14.370100
-27.177481 -28.286249 14.370100
27.177450 -28.286249 14.370100
27.880449 -27.880449 14.370100
28.286249 -27.177450 14.370100
28.286249 27.177481 14.370100
27.880449 27.880390 14.370100
27.177450 28.286224 14.370100
-26.720039 28.346449 14.370100
-28.441977 28.441977 14.370100
-27.383030 29.053360 14.370100
27.383051 29.053360 14.370100
27.952749 28.817375 14.370100
28.817350 27.952749 14.370100
29.053350 27.383030 14.370100
29.053350 -27.383051 14.370100
28.817350 -27.952749 14.370100
-26.771650 -29.133850 14.370100
-26.771650 -29.133850 -14.370100
-29.133850 -26.771650 14.370100
-29.133850 -26.771650 -14.370100
-28.817375 -27.952749 -14.370100
-28.817375 -27.952749 14.370100
-29.133850 26.425711 11.661900
-29.133850 26.181089 11.849600
-26.181089 29.133850 11.849600
-26.425711 29.133850 11.661900
-29.133850 -26.181150 11.849600
-26.181089 -29.133850 11.849600
-25.896231 -29.133850 11.967600
-29.133850 -25.896250 11.967600
-29.133850 25.590540 12.007900
-29.133850 25.896231 11.967600
-25.896231 29.133850 11.967600
-25.590540 29.133850 12.007900
-26.731400 -29.133850 11.132400
-29.133850 -26.731449 11.132400
-29.133850 -26.771650 10.826800
-26.771650 -29.133850 10.826800
-26.181089 29.133850 11.849600
-25.896231 29.133850 11.967600
-29.133850 25.896231 11.967600
-29.133850 26.181089 11.849600
25.896250 29.133850 11.967600
25.590549 29.133850 12.007900
29.133850 25.590540 12.007900
29.133850 25.896231 11.967600
-29.133850 -26.181150 11.849600
-26.181089 -29.133850 11.849600
-26.425711 -29.133850 11.661900
-29.133850 -26.425751 11.661900
-29.133850 -25.896250 11.967600
-25.896231 -29.133850 11.967600
-26.181089 -29.133850 11.849600
-29.133850 -26.181150 11.849600
-26.425711 -29.133850 11.661900
-29.133850 -26.425751 11.661900
-29.133850 -26.613449 11.417300
-26.613411 -29.133850 11.417300
-29.133850 -25.590549 12.007900
-29.133850 -25.896250 11.967600
-25.896231 -29.133850 11.967600
-25.590540 -29.133850 12.007900
-25.590540 -29.133850 12.007900
-25.896231 -29.133850 11.967600
-29.133850 -25.896250 11.967600
-29.133850 -25.590549 12.007900
26.771650 -29.133850 14.370100
26.771650 -29.133850 -14.370100
27.952749 -28.817350 -14.370100
27.952749 -28.817350 14.370100
-26.771650 -29.133850 10.826800
-29.133850 -26.771650 10.826800
-29.133850 -26.731449 11.132400
-26.731400 -29.133850 11.132400
-28.817375 -27.952749 -14.370100
-29.133850 -26.771650 -14.370100
-26.771650 -29.133850 -14.370100
-27.952749 -28.817350 -14.370100
-29.133850 -26.771650 -14.370100
-28.817375 -27.952749 -14.370100
-27.952749 -28.817350 -14.370100
-26.771650 -29.133850 -14.370100
-26.771650 -29.133850 10.826800
-29.133850 -26.771650 10.826800
-29.133850 -26.771650 -14.370100
-26.771650 -29.133850 -14.370100
29.133850 -26.771650 14.370100
29.133850 -26.771650 -14.370100
26.613449 -29.133850 11.417300
29.133850 -26.613449 11.417300
29.133850 -26.731449 11.132400
26.731449 -29.133850 11.132400
-27.555651 28.129580 14.370100
-28.129580 27.555651 14.370100
-28.817375 27.952749 14.370100
26.771650 -29.133850 14.370100
26.771650 -29.133850 -14.370100
29.133850 -26.425751 11.661900
26.425751 -29.133850 11.661900
26.613449 -29.133850 11.417300
29.133850 -26.613449 11.417300
29.133850 -26.731449 11.132400
26.731449 -29.133850 11.132400
26.771650 -29.133850 10.826800
29.133850 -26.771650 10.826800
27.952749 -28.817350 -14.370100
26.771650 -29.133850 -14.370100
29.133850 -26.771650 -14.370100
28.817350 -27.952749 -14.370100
27.952749 -28.817350 -14.370100
28.817350 -27.952749 -14.370100
29.133850 -26.771650 -14.370100
26.771650 -29.133850 -14.370100
-27.383030 -29.053350 14.370100
27.383051 -29.053350 14.370100
27.952749 -28.817350 14.370100
28.817350 -27.952749 14.370100
29.053350 -27.383051 14.370100
29.053350 27.383030 14.370100
28.817350 27.952749 14.370100
27.952749 28.817375 14.370100
27.383051 29.053360 14.370100
-27.383030 29.053360 14.370100
-27.952749 28.817375 14.370100
-28.817375 27.952749 14.370100
-29.053360 27.383030 14.370100
-28.286224 27.177481 14.370100
-28.129580 27.555651 14.370100
-27.555651 28.129580 14.370100
-27.177481 28.286224 14.370100
27.177450 28.286224 14.370100
27.880449 27.880390 14.370100
28.286249 27.177481 14.370100
28.286249 -27.177450 14.370100
27.880449 -27.880449 14.370100
27.177450 -28.286249 14.370100
-27.177481 -28.286249 14.370100
-27.555651 -28.129650 14.370100
-27.952749 -28.817350 14.370100
29.133850 -26.771650 -14.370100
29.133850 -26.771650 10.826800
26.771650 -29.133850 10.826800
26.771650 -29.133850 -14.370100
26.731449 29.133850 11.132400
26.771650 29.133850 10.826800
29.133850 26.771650 10.826800
29.133850 26.731400 11.132400
29.133850 26.731400 11.132400
29.133850 26.771650 10.826800
26.771650 29.133850 10.826800
26.731449 29.133850 11.132400
29.133850 26.613411 11.417300
29.133850 26.731400 11.132400
26.731449 29.133850 11.132400
26.613449 29.133850 11.417300
26.181150 29.133850 11.849600
26.425751 29.133850 11.661900
29.133850 26.425711 11.661900
29.133850 26.181089 11.849600
29.133850 26.771650 10.826800
29.133850 26.771650 -14.370100
26.771650 29.133850 -14.370100
26.771650 29.133850 10.826800
29.133850 25.896231 11.967600
29.133850 26.181089 11.849600
26.181150 29.133850 11.849600
25.896250 29.133850 11.967600
27.952749 28.817375 -14.370100
26.771650 29.133850 -14.370100
29.133850 26.771650 -14.370100
28.817350 27.952749 -14.370100
-29.133850 26.613411 11.417300
-29.133850 26.731400 11.132400
-26.731400 29.133850 11.132400
-26.613411 29.133850 11.417300
26.771650 29.133850 10.826800
26.771650 29.133850 -14.370100
29.133850 26.771650 -14.370100
29.133850 26.771650 10.826800
27.952749 28.817375 -14.370100
28.817350 27.952749 -14.370100
29.133850 26.771650 -14.370100
26.771650 29.133850 -14.370100
-27.952749 28.817375 -14.370100
-26.771650 29.133850 -14.370100
-29.133850 26.771650 -14.370100
-28.817375 27.952749 -14.370100
-29.133850 26.771650 10.826800
-26.771650 29.133850 10.826800
-26.771650 29.133850 -14.370100
-29.133850 26.771650 -14.370100
-29.133850 26.771650 -14.370100
-26.771650 29.133850 -14.370100
-26.771650 29.133850 10.826800
-29.133850 26.771650 10.826800
-28.817375 27.952749 -14.370100
-29.133850 26.771650 -14.370100
-26.771650 29.133850 -14.370100
-27.952749 28.817375 -14.370100
-27.177481 28.286224 14.370100
27.177450 28.286224 14.370100
27.880449 27.880390 14.370100
28.286249 27.177481 14.370100
28.286249 -27.177450 14.370100
27.880449 -27.880449 14.370100
27.177450 -28.286249 14.370100
-27.177481 -28.286249 14.370100
-27.880390 -27.880449 14.370100
-28.286224 -27.177450 14.370100
-28.286224 27.177481 14.370100
-28.129580 27.555651 14.370100
-27.555651 28.129580 14.370100
4 0 1 2 3
4 4 5 6 7
4 8 9 10 11
8 12 13 14 15 16 17 18 19
4 20 21 22 23
4 24 25 26 27
4 28 29 30 31
4 32 33 34 35
10 36 37 38 39 40 41 42 43 44 45
4 46 47 48 49
13 50 51 52 53 54 55 56 57 58 59 60 61 62
4 63 64 65 66
4 27 67 68 24
4 69 70 65 64
4 71 72 73 74
4 75 76 77 78
4 79 80 81 82
4 83 84 85 86
4 87 88 89 90
4 91 92 93 94
4 95 96 97 98
4 99 100 101 102
4 103 104 105 106
4 107 108 21 20
4 109 110 23 22
4 111 112 113 114
10 115 116 117 118 119 120 121 122 123 124
10 125 126 127 128 129 130 131 132 133 134
4 135 136 137 138
4 139 140 141 142
4 143 144 145 146
4 147 148 149 150
4 151 102 101 152
4 153 154 155 156
4 157 158 159 160
4 161 162 163 164
4 165 166 167 168
4 169 170 171 172
4 173 174 175 176
10 177 178 179 180 181 182 183 184 185 186
4 187 188 189 190
4 191 192 193 194
10 195 196 197 198 199 200 201 202 203 204
4 205 206 207 208
4 209 210 211 212
4 213 214 215 216
4 217 218 219 220
4 221 222 223 224
10 225 226 227 228 229 230 231 232 233 234
4 224 223 235 236
8 237 238 239 240 241 242 243 244
4 245 63 66 246
4 247 248 249 250
4 251 252 68 67
4 253 254 151 152
10 255 256 257 258 259 260 261 262 263 264
4 265 266 267 268
10 269 270 271 272 273 274 275 276 277 278
26 279 280 281 282 283 284 285 286 287 288 289 290 291 292 293 294 295 296 297 298 299 300 301 302 303 304
4 305 306 236 235
4 307 308 309 310
4 311 312 313 314
4 315 316 317 318
4 319 320 321 322
4 323 324 325 326
4 327 328 329 330
4 331 332 333 334
4 335 336 337 338
4 339 340 341 342
4 343 344 345 346
4 347 348 349 350
4 351 352 353 354
4 355 356 357 358
4 359 360 361 362
4 363 364 365 366
4 367 368 369 370
4 371 372 373 374
4 97 375 376 98
4 377 378 379 380
7 297 296 381 382 286 285 383
4 384 96 95 385
4 386 387 388 389
4 390 391 392 393
4 394 395 396 397
4 398 399 400 401
30 402 403 404 405 406 407 408 409 410 411 412 413 414 46 49 415 416 417 418 419 420 421 422 423 424 425 426 48 47 427
4 428 429 430 431
4 432 433 434 435
4 436 437 438 439
4 440 441 442 443
4 444 445 446 447
4 448 449 450 451
4 452 453 454 455
4 456 457 458 459
4 460 461 462 463
4 464 465 466 467
4 468 469 470 471
4 472 473 474 475
4 476 477 478 479
4 480 481 482 483
4 484 485 486 487
4 310 309 219 218
13 488 489 490 491 492 493 494 495 496 497 498 499 500
4 358 357 106 105
