ply
format ascii 1.0
comment Created by Blender 2.82 (sub 7) - www.blender.org, source file: ''
element vertex 651
property float x
property float y
property float z
element face 162
property list uchar uint vertex_indices
end_header
-21.241249 8.798430 15.125000
-22.794670 0.000050 15.125000
-0.000030 0.000050 15.125000
-0.000030 22.794689 15.125000
-8.798410 21.241270 15.125000
-13.996247 18.240299 15.125000
-18.240271 -13.996250 15.125000
-8.798410 -21.241249 15.125000
-0.000030 -22.794649 15.125000
-0.000030 0.000050 15.125000
-22.794661 0.000050 15.125000
-21.241240 -8.798450 15.125000
-8.021870 -6.814750 -15.125000
-14.385830 -13.178750 -15.125000
-13.178720 -14.385850 -15.125000
-6.814760 -8.021850 -15.125000
-3.132630 -23.794649 14.625000
-0.000030 -23.794649 14.625000
-0.000030 -22.794649 15.125000
-8.798410 -21.241249 15.125000
-18.240271 -13.996250 15.125000
-19.040470 -14.610250 14.625000
-14.610262 -19.040449 14.625000
6.814770 8.021900 -15.125000
13.178770 14.385860 -15.125000
14.385870 13.178750 -15.125000
8.021870 6.814790 -15.125000
-3.132630 -23.794649 13.875000
-3.132630 -23.794649 14.625000
-0.000030 -23.794649 14.625000
-0.000030 -23.794649 13.875000
-6.814760 8.021900 13.875000
-6.814760 8.021900 8.203400
-0.035930 1.243150 8.203400
-0.035930 1.243150 13.875000
8.021870 6.814790 -15.125000
6.814770 8.021900 -15.125000
6.814770 8.021900 8.203400
8.021870 6.814790 8.203400
-6.814760 8.021900 13.875000
-6.814760 8.021900 8.203400
-8.021870 6.814790 8.203400
-8.021870 6.814790 13.875000
-1.243130 0.035950 8.203400
-8.021870 6.814790 8.203400
-6.814760 8.021900 8.203400
-0.035930 1.243150 8.203400
14.610270 -19.040449 14.625000
3.132670 -23.794649 14.625000
3.132670 -23.794649 13.875000
14.610270 -19.040449 13.875000
22.173170 9.184420 13.875000
23.794670 0.000050 13.875000
23.794670 0.000050 14.625000
22.173170 9.184420 14.625000
-13.178720 14.385860 13.875000
-14.385830 13.178750 13.875000
-14.610262 19.040489 13.875000
-9.184390 22.173120 13.875000
-0.000030 23.794649 13.875000
-0.000030 0.000050 13.875000
-23.794670 0.000050 13.875000
-8.021870 6.814790 13.875000
-6.814760 8.021900 13.875000
-6.814760 -8.021850 -15.125000
-13.178720 -14.385850 -15.125000
-14.385830 -13.178750 -15.125000
-8.021870 -6.814750 -15.125000
-22.794661 0.000050 15.125000
-0.000030 0.000050 15.125000
-0.000030 -22.794649 15.125000
-8.798410 -21.241249 15.125000
-18.240271 -13.996250 15.125000
-21.241240 -8.798450 15.125000
-14.385830 13.178750 -15.125000
-14.385830 13.178750 13.875000
-13.178720 14.385860 13.875000
-13.178720 14.385860 -15.125000
-6.814760 8.021900 -15.125000
-8.021870 6.814790 -15.125000
-8.021870 6.814790 8.203400
-6.814760 8.021900 8.203400
8.021870 6.814790 8.203400
6.814770 8.021900 8.203400
6.814770 8.021900 -15.125000
8.021870 6.814790 -15.125000
6.814770 -8.021850 -15.125000
13.178770 -14.385850 -15.125000
14.385870 -13.178750 -15.125000
8.021870 -6.814750 -15.125000
8.021870 -6.814750 -15.125000
14.385870 -13.178750 -15.125000
13.178770 -14.385850 -15.125000
6.814770 -8.021850 -15.125000
0.035970 -1.243050 13.875000
1.243070 -0.035950 13.875000
1.243070 -0.035950 8.203400
0.035970 -1.243050 8.203400
14.385870 -13.178750 -15.125000
14.385870 -13.178750 13.875000
8.021870 -6.814750 13.875000
8.021870 -6.814750 -15.125000
14.610270 -19.040449 14.625000
22.173170 -9.184350 14.625000
23.794670 0.000050 14.625000
22.794670 0.000050 15.125000
21.241270 -8.798450 15.125000
13.996270 -18.240250 15.125000
-21.241249 8.798430 15.125000
-22.794670 0.000050 15.125000
-23.794670 0.000050 14.625000
-23.794670 3.132650 14.625000
-19.040470 14.610290 14.625000
-18.240271 13.996274 15.125000
-0.000030 22.794689 15.125000
-0.000030 0.000050 15.125000
-22.794670 0.000050 15.125000
-21.241249 8.798430 15.125000
-13.996247 18.240299 15.125000
-8.798410 21.241270 15.125000
-0.000030 -23.794649 13.875000
-0.000030 0.000050 13.875000
-8.021870 -6.814750 13.875000
-6.814760 -8.021850 13.875000
-13.178720 -14.385850 13.875000
-14.385830 -13.178750 13.875000
-19.040470 -14.610250 13.875000
-14.610262 -19.040449 13.875000
-3.132630 -23.794649 13.875000
-0.000030 23.794649 13.875000
-0.000030 23.794649 14.625000
9.184370 22.173120 14.625000
9.184370 22.173120 13.875000
-8.021870 6.814790 13.875000
-8.021870 6.814790 8.203400
-6.814760 8.021900 8.203400
-6.814760 8.021900 13.875000
-9.184390 22.173120 13.875000
-14.610262 19.040489 13.875000
-14.385830 13.178750 13.875000
-13.178720 14.385860 13.875000
-6.814760 8.021900 13.875000
-8.021870 6.814790 13.875000
-0.000030 0.000050 13.875000
-0.000030 23.794649 13.875000
-13.178720 -14.385850 13.875000
-13.178720 -14.385850 -15.125000
-6.814760 -8.021850 -15.125000
-6.814760 -8.021850 13.875000
14.610270 19.040489 13.875000
14.610270 19.040489 14.625000
9.184370 22.173120 14.625000
9.184370 22.173120 13.875000
-0.000030 23.794649 13.875000
-0.000030 0.000050 13.875000
23.794670 0.000050 13.875000
22.173170 9.184420 13.875000
8.021870 6.814790 13.875000
6.814770 8.021900 13.875000
13.178770 14.385860 13.875000
14.385870 13.178750 13.875000
19.040470 14.610290 13.875000
9.184370 22.173120 13.875000
14.610270 -19.040449 13.875000
14.610270 -19.040449 14.625000
22.173170 -9.184350 14.625000
22.173170 -9.184350 13.875000
-19.040470 14.610290 13.875000
-23.794670 3.132650 13.875000
-23.794670 0.000050 13.875000
3.132670 -23.794649 13.875000
-0.000030 -23.794649 13.875000
-0.000030 -23.794649 14.625000
3.132670 -23.794649 14.625000
-14.385830 -13.178750 -15.125000
-8.021870 -6.814750 -15.125000
-8.021870 -6.814750 13.875000
-14.385830 -13.178750 13.875000
-6.814760 -8.021850 -15.125000
-13.178720 -14.385850 -15.125000
-13.178720 -14.385850 13.875000
-6.814760 -8.021850 13.875000
-23.794661 -3.132650 13.875000
-23.794661 0.000050 13.875000
-23.794661 0.000050 14.625000
-23.794661 -3.132650 14.625000
6.814770 -8.021850 13.875000
6.814770 -8.021850 8.203400
0.035970 -1.243050 8.203400
0.035970 -1.243050 13.875000
1.243070 0.036050 8.203400
8.021870 6.814790 8.203400
6.814770 8.021900 8.203400
0.035970 1.243150 8.203400
23.794670 0.000050 14.625000
23.794670 0.000050 13.875000
-8.021870 -6.814750 -15.125000
-6.814760 -8.021850 -15.125000
-6.814760 -8.021850 8.203400
-8.021870 -6.814750 8.203400
13.178770 -14.385850 13.875000
14.385870 -13.178750 13.875000
23.794670 0.000050 13.875000
22.173170 -9.184350 13.875000
14.610270 -19.040449 13.875000
9.184370 -22.173050 13.875000
-19.040470 14.610290 13.875000
-9.184390 22.173120 13.875000
-9.184390 22.173120 14.625000
-19.040470 14.610290 14.625000
-9.184390 22.173120 14.625000
-19.040470 14.610290 14.625000
-18.240271 13.996274 15.125000
-8.798410 21.241270 15.125000
-0.000030 22.794689 15.125000
-0.000030 23.794649 14.625000
1.243070 0.036050 13.875000
1.243070 0.036050 8.203400
8.021870 6.814790 8.203400
8.021870 6.814790 13.875000
-8.021870 -6.814750 13.875000
-6.814760 -8.021850 13.875000
-0.035930 -1.243050 13.875000
-1.243130 -0.035950 13.875000
9.184370 22.173120 14.625000
-0.000030 23.794649 14.625000
-0.000030 22.794689 15.125000
8.798470 21.241270 15.125000
13.996270 18.240299 15.125000
14.610270 19.040489 14.625000
-0.035930 1.243150 13.875000
-1.243130 0.035950 13.875000
-1.243130 0.035950 8.203400
-0.035930 1.243150 8.203400
-13.178720 -14.385850 -15.125000
-13.178720 -14.385850 13.875000
-14.385830 -13.178750 13.875000
-14.385830 -13.178750 -15.125000
22.794670 0.000050 15.125000
-0.000030 0.000050 15.125000
-0.000030 22.794689 15.125000
8.798470 21.241270 15.125000
13.996270 18.240299 15.125000
21.241270 8.798430 15.125000
13.996270 -18.240250 15.125000
21.241270 -8.798450 15.125000
22.794670 0.000050 15.125000
23.794670 0.000050 14.625000
22.173170 -9.184350 14.625000
14.610270 -19.040449 14.625000
-6.814760 8.021900 13.875000
-8.021870 6.814790 13.875000
-1.243130 0.035950 13.875000
-0.035930 1.243150 13.875000
-14.610262 -19.040449 14.625000
-19.040470 -14.610250 14.625000
-19.040470 -14.610250 13.875000
-14.610262 -19.040449 13.875000
-0.000030 23.794649 14.625000
-0.000030 23.794649 13.875000
-6.814760 -8.021850 13.875000
-6.814760 -8.021850 8.203400
-8.021870 -6.814750 8.203400
-8.021870 -6.814750 13.875000
-8.021870 6.814790 13.875000
-1.243130 0.035950 13.875000
-1.243130 0.035950 8.203400
-8.021870 6.814790 8.203400
-0.035930 1.243150 13.875000
-0.035930 1.243150 8.203400
-6.814760 8.021900 8.203400
-6.814760 8.021900 13.875000
-0.000030 -22.794649 15.125000
8.798470 -21.241249 15.125000
3.132670 -23.794649 14.625000
-0.000030 -23.794649 14.625000
-1.243130 -0.035950 13.875000
-0.035930 -1.243050 13.875000
-0.035930 -1.243050 8.203400
-1.243130 -0.035950 8.203400
-0.000030 23.794649 14.625000
-0.000030 23.794649 13.875000
-9.184390 22.173120 13.875000
-9.184390 22.173120 14.625000
-6.814760 -8.021850 8.203400
-0.035930 -1.243050 8.203400
-0.035930 -1.243050 13.875000
-6.814760 -8.021850 13.875000
-0.000030 -23.794649 14.625000
-0.000030 -23.794649 13.875000
-8.021870 -6.814750 8.203400
-6.814760 -8.021850 8.203400
-6.814760 -8.021850 -15.125000
-8.021870 -6.814750 -15.125000
-0.000030 22.794689 15.125000
-8.798410 21.241270 15.125000
-9.184390 22.173120 14.625000
-0.000030 23.794649 14.625000
13.178770 14.385860 13.875000
13.178770 14.385860 -15.125000
6.814770 8.021900 -15.125000
6.814770 8.021900 13.875000
-8.798410 -21.241249 15.125000
-0.000030 -22.794649 15.125000
-0.000030 -23.794649 14.625000
-3.132630 -23.794649 14.625000
-14.610262 -19.040449 14.625000
-19.040470 -14.610250 14.625000
-18.240271 -13.996250 15.125000
8.021870 6.814790 13.875000
6.814770 8.021900 13.875000
0.035970 1.243150 13.875000
1.243070 0.036050 13.875000
13.178770 -14.385850 13.875000
6.814770 -8.021850 13.875000
6.814770 -8.021850 -15.125000
13.178770 -14.385850 -15.125000
-14.385830 -13.178750 -15.125000
-14.385830 -13.178750 13.875000
-13.178720 -14.385850 13.875000
-13.178720 -14.385850 -15.125000
14.385870 -13.178750 -15.125000
14.385870 -13.178750 13.875000
13.178770 -14.385850 13.875000
13.178770 -14.385850 -15.125000
-8.021870 -6.814750 13.875000
-8.021870 -6.814750 8.203400
-6.814760 -8.021850 8.203400
-6.814760 -8.021850 13.875000
6.814770 -8.021850 -15.125000
6.814770 -8.021850 13.875000
13.178770 -14.385850 13.875000
13.178770 -14.385850 -15.125000
8.021870 -6.814750 13.875000
1.243070 -0.035950 13.875000
1.243070 -0.035950 8.203400
8.021870 -6.814750 8.203400
6.814770 -8.021850 13.875000
8.021870 -6.814750 13.875000
1.243070 -0.035950 13.875000
0.035970 -1.243050 13.875000
6.814770 8.021900 -15.125000
13.178770 14.385860 -15.125000
13.178770 14.385860 13.875000
6.814770 8.021900 13.875000
-1.243130 -0.035950 13.875000
-0.035930 -1.243050 13.875000
-6.814760 -8.021850 13.875000
-8.021870 -6.814750 13.875000
14.385870 13.178750 13.875000
8.021870 6.814790 13.875000
8.021870 6.814790 -15.125000
14.385870 13.178750 -15.125000
0.035970 -1.243050 8.203400
1.243070 -0.035950 8.203400
1.243070 -0.035950 13.875000
0.035970 -1.243050 13.875000
-23.794661 -3.132650 14.625000
-23.794661 0.000050 14.625000
-23.794661 0.000050 13.875000
-23.794661 -3.132650 13.875000
-6.814760 -8.021850 13.875000
-0.035930 -1.243050 13.875000
-0.035930 -1.243050 8.203400
-6.814760 -8.021850 8.203400
-1.243130 -0.035950 8.203400
-0.035930 -1.243050 8.203400
-0.035930 -1.243050 13.875000
-1.243130 -0.035950 13.875000
0.035970 -1.243050 13.875000
1.243070 -0.035950 13.875000
8.021870 -6.814750 13.875000
6.814770 -8.021850 13.875000
-0.000030 -23.794649 14.625000
3.132670 -23.794649 14.625000
8.798470 -21.241249 15.125000
-0.000030 -22.794649 15.125000
8.021870 6.814790 13.875000
8.021870 6.814790 8.203400
1.243070 0.036050 8.203400
1.243070 0.036050 13.875000
-23.794670 0.000050 13.875000
-23.794670 0.000050 14.625000
-23.794670 3.132650 14.625000
-23.794670 3.132650 13.875000
-23.794661 -3.132650 13.875000
-23.794661 0.000050 13.875000
-0.000030 0.000050 13.875000
-8.021870 -6.814750 13.875000
-14.385830 -13.178750 13.875000
-19.040470 -14.610250 13.875000
21.241270 8.798430 15.125000
13.996270 18.240299 15.125000
8.798470 21.241270 15.125000
-0.000030 22.794689 15.125000
-0.000030 0.000050 15.125000
22.794670 0.000050 15.125000
-0.000030 23.794649 13.875000
-0.000030 23.794649 14.625000
-23.794661 0.000050 14.625000
-23.794661 -3.132650 14.625000
-21.241240 -8.798450 15.125000
-22.794661 0.000050 15.125000
-23.794670 3.132650 13.875000
-19.040470 14.610290 13.875000
-23.794670 3.132650 14.625000
-23.794670 3.132650 13.875000
14.610270 19.040489 14.625000
14.610270 19.040489 13.875000
-23.794670 0.000050 14.625000
-23.794670 0.000050 13.875000
-23.794661 0.000050 13.875000
-23.794661 -3.132650 13.875000
-8.021870 6.814790 -15.125000
-14.385830 13.178750 -15.125000
-13.178720 14.385860 -15.125000
-6.814760 8.021900 -15.125000
-19.040470 14.610290 14.625000
-19.040470 14.610290 13.875000
-13.178720 14.385860 -15.125000
-13.178720 14.385860 13.875000
-14.385830 13.178750 13.875000
-14.385830 13.178750 -15.125000
19.040470 14.610290 13.875000
22.173170 9.184420 13.875000
23.794670 0.000050 13.875000
-0.000030 0.000050 13.875000
6.814770 8.021900 13.875000
8.021870 6.814790 13.875000
14.385870 13.178750 13.875000
13.178770 14.385860 13.875000
-19.040470 -14.610250 13.875000
-19.040470 -14.610250 14.625000
-0.000030 23.794649 13.875000
9.184370 22.173120 13.875000
-6.814760 8.021900 -15.125000
-6.814760 8.021900 13.875000
-13.178720 14.385860 13.875000
-13.178720 14.385860 -15.125000
-14.385830 -13.178750 13.875000
-8.021870 -6.814750 13.875000
-8.021870 -6.814750 -15.125000
-14.385830 -13.178750 -15.125000
-14.385830 13.178750 13.875000
-14.385830 13.178750 -15.125000
-8.021870 6.814790 -15.125000
-8.021870 6.814790 13.875000
-23.794670 3.132650 14.625000
-23.794670 0.000050 14.625000
-22.794670 0.000050 15.125000
-21.241249 8.798430 15.125000
-14.610262 -19.040449 14.625000
-14.610262 -19.040449 13.875000
-8.021870 6.814790 8.203400
-1.243130 0.035950 8.203400
-1.243130 0.035950 13.875000
-8.021870 6.814790 13.875000
-6.814760 8.021900 8.203400
-8.021870 6.814790 8.203400
-8.021870 6.814790 -15.125000
-6.814760 8.021900 -15.125000
21.241270 8.798430 15.125000
13.996270 18.240299 15.125000
14.610270 19.040489 14.625000
22.173170 9.184420 14.625000
23.794670 0.000050 14.625000
22.794670 0.000050 15.125000
-6.814760 8.021900 -15.125000
-13.178720 14.385860 -15.125000
-14.385830 13.178750 -15.125000
-8.021870 6.814790 -15.125000
-8.021870 6.814790 -15.125000
-14.385830 13.178750 -15.125000
-14.385830 13.178750 13.875000
-8.021870 6.814790 13.875000
-3.132630 -23.794649 13.875000
-3.132630 -23.794649 14.625000
-0.035930 -1.243050 8.203400
-6.814760 -8.021850 8.203400
-8.021870 -6.814750 8.203400
-1.243130 -0.035950 8.203400
22.173170 9.184420 14.625000
21.241270 8.798430 15.125000
22.794670 0.000050 15.125000
23.794670 0.000050 14.625000
-1.243130 -0.035950 13.875000
-1.243130 -0.035950 8.203400
-8.021870 -6.814750 8.203400
-8.021870 -6.814750 13.875000
22.173170 9.184420 14.625000
22.173170 9.184420 13.875000
-0.035930 1.243150 13.875000
-1.243130 0.035950 13.875000
-8.021870 6.814790 13.875000
-6.814760 8.021900 13.875000
18.240271 -13.996250 15.125000
21.241270 -8.798450 15.125000
22.794670 0.000050 15.125000
-0.000030 0.000050 15.125000
-0.000030 -22.794649 15.125000
8.798470 -21.241249 15.125000
-0.035930 1.243150 8.203400
-6.814760 8.021900 8.203400
-8.021870 6.814790 8.203400
-1.243130 0.035950 8.203400
-0.035930 1.243150 8.203400
-1.243130 0.035950 8.203400
-1.243130 0.035950 13.875000
-0.035930 1.243150 13.875000
-22.794661 0.000050 15.125000
-21.241240 -8.798450 15.125000
-23.794661 -3.132650 14.625000
-23.794661 0.000050 14.625000
-0.000030 -23.794649 13.875000
-0.000030 0.000050 13.875000
8.021870 -6.814750 13.875000
6.814770 -8.021850 13.875000
-13.178720 14.385860 13.875000
-6.814760 8.021900 13.875000
-6.814760 8.021900 -15.125000
-13.178720 14.385860 -15.125000
6.814770 8.021900 8.203400
0.035970 1.243150 8.203400
0.035970 1.243150 13.875000
6.814770 8.021900 13.875000
23.794670 0.000050 14.625000
23.794670 0.000050 13.875000
0.035970 1.243150 8.203400
6.814770 8.021900 8.203400
8.021870 6.814790 8.203400
1.243070 0.036050 8.203400
-0.000030 -22.794649 15.125000
-0.000030 0.000050 15.125000
22.794670 0.000050 15.125000
21.241270 -8.798450 15.125000
13.996270 -18.240250 15.125000
8.798470 -21.241249 15.125000
13.178770 14.385860 -15.125000
13.178770 14.385860 13.875000
14.385870 13.178750 13.875000
14.385870 13.178750 -15.125000
22.173170 -9.184350 13.875000
22.173170 -9.184350 14.625000
3.132670 -23.794649 13.875000
9.184370 -22.173050 13.875000
13.178770 -14.385850 13.875000
6.814770 -8.021850 13.875000
0.035970 -1.243050 13.875000
0.035970 -1.243050 8.203400
6.814770 -8.021850 8.203400
6.814770 -8.021850 13.875000
23.794670 0.000050 13.875000
23.794670 0.000050 14.625000
1.243070 0.036050 13.875000
0.035970 1.243150 13.875000
0.035970 1.243150 8.203400
1.243070 0.036050 8.203400
6.814770 8.021900 13.875000
6.814770 8.021900 8.203400
8.021870 6.814790 8.203400
8.021870 6.814790 13.875000
22.173170 -9.184350 13.875000
23.794670 0.000050 13.875000
-0.000030 0.000050 13.875000
-0.000030 -23.794649 13.875000
8.021870 -6.814750 13.875000
14.385870 -13.178750 13.875000
14.610270 -19.040449 13.875000
-0.000030 -23.794649 13.875000
-3.132630 -23.794649 13.875000
-14.610262 -19.040449 13.875000
-13.178720 -14.385850 13.875000
-6.814760 -8.021850 13.875000
8.021870 -6.814750 -15.125000
8.021870 -6.814750 13.875000
14.385870 -13.178750 13.875000
14.385870 -13.178750 -15.125000
14.385870 13.178750 -15.125000
14.385870 13.178750 13.875000
13.178770 14.385860 13.875000
13.178770 14.385860 -15.125000
8.021870 6.814790 -15.125000
8.021870 6.814790 13.875000
14.385870 13.178750 13.875000
14.385870 13.178750 -15.125000
8.021870 -6.814750 13.875000
8.021870 -6.814750 8.203400
6.814770 -8.021850 8.203400
6.814770 -8.021850 13.875000
8.021870 6.814790 13.875000
8.021870 6.814790 8.203400
6.814770 8.021900 8.203400
6.814770 8.021900 13.875000
8.798470 21.241270 15.125000
-0.000030 22.794689 15.125000
-0.000030 23.794649 14.625000
9.184370 22.173120 14.625000
-8.021870 -6.814750 13.875000
-8.021870 -6.814750 8.203400
-1.243130 -0.035950 8.203400
-1.243130 -0.035950 13.875000
13.178770 -14.385850 -15.125000
13.178770 -14.385850 13.875000
14.385870 -13.178750 13.875000
14.385870 -13.178750 -15.125000
8.021870 6.814790 -15.125000
14.385870 13.178750 -15.125000
13.178770 14.385860 -15.125000
6.814770 8.021900 -15.125000
1.243070 -0.035950 8.203400
8.021870 -6.814750 8.203400
6.814770 -8.021850 8.203400
0.035970 -1.243050 8.203400
8.021870 -6.814750 8.203400
1.243070 -0.035950 8.203400
1.243070 -0.035950 13.875000
8.021870 -6.814750 13.875000
6.814770 -8.021850 13.875000
6.814770 -8.021850 8.203400
8.021870 -6.814750 8.203400
8.021870 -6.814750 13.875000
6.814770 8.021900 13.875000
0.035970 1.243150 13.875000
0.035970 1.243150 8.203400
6.814770 8.021900 8.203400
1.243070 0.036050 8.203400
0.035970 1.243150 8.203400
0.035970 1.243150 13.875000
1.243070 0.036050 13.875000
6.814770 -8.021850 8.203400
8.021870 -6.814750 8.203400
8.021870 -6.814750 -15.125000
6.814770 -8.021850 -15.125000
-1.243130 -0.035950 8.203400
-8.021870 -6.814750 8.203400
-6.814760 -8.021850 8.203400
-0.035930 -1.243050 8.203400
1.243070 0.036050 13.875000
0.035970 1.243150 13.875000
6.814770 8.021900 13.875000
8.021870 6.814790 13.875000
-0.000030 -23.794649 13.875000
-0.000030 -23.794649 14.625000
0.035970 -1.243050 8.203400
6.814770 -8.021850 8.203400
8.021870 -6.814750 8.203400
1.243070 -0.035950 8.203400
6.814770 -8.021850 -15.125000
8.021870 -6.814750 -15.125000
8.021870 -6.814750 8.203400
6.814770 -8.021850 8.203400
6 0 1 2 3 4 5
6 6 7 8 9 10 11
4 12 13 14 15
7 16 17 18 19 20 21 22
4 23 24 25 26
4 27 28 29 30
4 31 32 33 34
4 35 36 37 38
4 39 40 41 42
4 43 44 45 46
4 47 48 49 50
4 51 52 53 54
9 55 56 57 58 59 60 61 62 63
4 64 65 66 67
6 68 69 70 71 72 73
4 74 75 76 77
4 78 79 80 81
4 82 83 84 85
4 86 87 88 89
4 90 91 92 93
4 94 95 96 97
4 98 99 100 101
6 102 103 104 105 106 107
6 108 109 110 111 112 113
6 114 115 116 117 118 119
9 120 121 122 123 124 125 126 127 128
4 129 130 131 132
4 133 134 135 136
8 137 138 139 140 141 142 143 144
4 145 146 147 148
4 149 150 151 152
10 153 154 155 156 157 158 159 160 161 162
4 163 164 165 166
7 167 168 169 143 142 139 138
4 170 171 172 173
4 174 175 176 177
4 178 179 180 181
4 182 183 184 185
4 186 187 188 189
4 190 191 192 193
4 166 165 194 195
4 196 197 198 199
6 200 201 202 203 204 205
4 206 207 208 209
6 210 211 212 213 214 215
4 216 217 218 219
4 220 221 222 223
6 224 225 226 227 228 229
4 230 231 232 233
4 234 235 236 237
6 238 239 240 241 242 243
6 244 245 246 247 248 249
4 250 251 252 253
4 254 255 256 257
4 151 258 259 152
4 260 261 262 263
4 264 265 266 267
4 268 269 270 271
6 272 273 244 249 274 275
4 276 277 278 279
4 280 281 282 283
4 284 285 286 287
4 48 288 289 49
4 290 291 292 293
6 294 295 113 112 296 297
4 298 299 300 301
7 302 303 304 305 306 307 308
4 309 310 311 312
4 313 314 315 316
4 317 318 319 320
4 321 322 323 324
4 325 326 327 328
4 329 330 331 332
4 333 334 335 336
4 337 338 339 340
4 341 342 343 344
4 345 346 347 348
4 349 350 351 352
4 353 354 355 356
4 357 358 359 360
4 361 362 363 364
4 365 366 367 368
4 369 370 371 372
6 373 374 102 107 375 376
4 377 378 379 380
4 381 382 383 384
6 385 386 387 388 389 390
6 391 392 393 394 395 396
4 397 398 208 207
6 399 400 21 20 401 402
6 61 403 404 57 56 62
4 209 405 406 206
4 132 131 407 408
4 170 173 164 163
4 406 405 409 410
6 125 122 121 411 412 126
4 413 414 415 416
4 384 383 417 418
4 419 420 421 422
8 423 424 425 426 427 428 429 430
4 431 182 185 432
6 433 434 423 430 427 426
4 435 436 437 438
4 439 440 441 442
4 443 444 445 446
6 447 448 449 450 212 211
4 451 28 27 452
4 453 454 455 456
4 457 458 459 460
6 461 462 463 464 465 466
4 467 468 469 470
4 471 472 473 474
4 475 476 254 257
4 477 478 479 480
6 481 229 228 482 483 484
4 485 486 487 488
4 489 490 408 407
4 491 492 493 494
6 495 496 497 498 499 500
4 501 502 503 504
4 505 506 507 508
4 51 54 150 149
6 509 510 308 307 511 512
8 205 513 514 202 201 515 516 200
4 160 157 156 161
4 517 518 519 520
4 521 522 523 524
4 525 526 490 489
4 527 528 529 530
4 452 431 432 451
6 531 532 533 534 535 536
4 283 282 418 417
4 537 538 539 540
4 47 50 541 542
4 543 544 545 546
4 547 548 549 550
4 542 541 551 552
4 553 554 555 556
4 557 558 559 560
11 561 562 563 564 543 546 565 566 545 544 567
9 568 569 570 390 389 571 572 388 387
4 573 574 575 576
4 577 578 579 580
4 581 582 583 584
4 585 586 587 588
4 589 590 591 592
4 255 357 360 256
6 593 594 595 596 463 462
4 597 598 599 600
4 601 602 603 604
4 605 606 607 608
4 609 610 611 612
4 613 614 615 616
4 617 618 619 620
4 621 622 623 624
4 625 626 627 628
4 629 630 631 632
4 633 634 635 636
4 637 638 639 640
4 641 642 476 475
4 643 644 645 646
4 647 648 649 650
