ply
format ascii 1.0
comment Created by Blender 2.82 (sub 7) - www.blender.org, source file: ''
element vertex 779
property float x
property float y
property float z
element face 290
property list uchar uint vertex_indices
end_header
-0.923903 -14.871000 -5.894650
-1.000003 -14.945900 -5.519385
-1.000003 -0.577300 -2.648260
-0.923903 -0.533400 -3.029720
-13.177133 6.791300 -6.212785
-0.707103 -0.408200 -3.335550
-0.382703 -0.220900 -3.519180
-12.978133 7.051000 -6.425355
-0.000003 -1.000000 -1.712940
-0.000003 -15.141900 -4.538770
-0.382703 -15.127000 -4.613420
-0.382703 -0.923900 -1.775360
-0.707103 -0.707100 -1.953100
-0.707103 -0.707100 1.375000
-0.923903 -0.382700 1.375000
-0.923903 -0.382700 -2.065080
-0.851203 -0.491400 -2.129930
0.382697 -0.923900 -1.775360
0.382697 -0.923900 1.375000
0.707097 -0.707100 1.375000
0.707097 -0.707100 -1.953100
-0.343703 -0.198400 -3.418620
-0.635003 -0.366600 -3.253710
-0.635003 -14.821500 -6.142086
-0.343703 -14.783400 -6.332983
-0.923903 -0.382700 5.375000
-0.707103 -0.707100 5.375000
-0.707103 -0.707100 1.375000
-0.923903 -0.382700 1.375000
-0.000003 0.958000 -2.979070
12.470397 8.157830 -5.856389
12.494497 8.250700 -5.519385
-0.000003 1.037000 -2.636490
-1.000003 0.000000 -1.843730
-0.975803 0.121500 -1.771750
-13.291693 7.232100 -4.613420
-13.417113 6.929900 -4.825990
-0.946303 -0.270200 -1.948560
-13.392593 6.695200 -5.519385
-0.898003 -0.518500 -2.636490
-0.829703 -0.479000 -2.979070
-13.300093 6.720800 -5.856389
0.707097 -0.707100 -1.953100
0.707097 -0.707100 1.375000
0.382697 -0.923900 1.375000
0.382697 -0.923900 -1.775360
0.967797 0.161900 -1.870460
0.999997 0.000000 -1.966380
0.964997 -0.176100 -2.034720
13.368797 6.985300 -4.896680
13.256197 7.256600 -4.705790
0.829697 -0.523700 -2.287070
0.829697 -15.013300 -5.182380
0.897997 -14.945900 -5.519385
0.897997 -0.518500 -2.636490
0.829697 -0.479000 -2.278150
-0.923903 0.382700 5.375000
-1.000003 0.000000 5.375000
-0.923903 -0.382700 5.375000
-0.707103 -0.707100 5.375000
-0.382703 -0.923900 5.375000
-0.000003 -1.000000 5.375000
0.382697 -0.923900 5.375000
0.707097 -0.707100 5.375000
0.923897 -0.382700 5.375000
0.999997 0.000000 5.375000
0.923897 0.382700 5.375000
0.707097 0.707100 5.375000
0.382697 0.923900 5.375000
-0.000003 1.000000 5.375000
-0.382703 0.923900 5.375000
-0.707103 0.707100 5.375000
-0.707103 -0.707100 5.375000
-0.707103 -0.707100 1.375000
-0.382703 -0.923900 1.375000
-0.382703 -0.923900 5.375000
-0.382703 -0.923900 1.375000
-0.000003 -1.000000 1.375000
0.923897 -15.020900 -5.144120
0.923897 -0.533400 -2.249230
0.999997 -0.577300 -2.648260
0.999997 -14.945900 -5.519385
0.923897 0.382700 -1.737710
0.851197 0.491400 -1.709520
13.113297 7.570900 -4.538770
13.291697 7.232100 -4.613420
0.975797 0.121500 -1.771750
12.469997 8.016070 -6.212785
12.595397 7.713900 -6.425355
-0.000003 0.441900 -3.519180
-0.000003 0.816500 -3.335550
-12.470023 8.016070 -6.212785
-12.595453 7.713900 -6.425355
-13.300093 6.720800 -5.856389
-0.829703 -0.479000 -2.979070
-0.898003 -0.518500 -2.636490
-13.392593 6.695200 -5.519385
0.343697 -0.931600 -1.872970
0.343697 -15.108500 -4.705790
0.634997 -15.070400 -4.896680
0.634997 -0.755300 -2.036250
0.382697 -0.923900 -1.898000
-0.000003 -14.770000 -6.400017
-0.343703 -14.783400 -6.332983
-0.343703 -0.198400 -3.418620
-0.000003 0.000000 -3.448680
-0.635003 -14.821500 -6.142086
-0.635003 -0.366600 -3.253710
-0.000003 0.958000 -2.979070
12.470397 8.157830 -5.856389
12.518297 7.960700 -6.142086
-0.000003 0.733200 -3.253710
-12.773873 7.375000 -6.500000
-0.000003 0.000000 -3.552660
-0.000003 0.441900 -3.519180
-12.595453 7.713900 -6.425355
0.382697 -0.220900 -3.519180
0.707097 -0.408200 -3.335550
0.707097 -14.807400 -6.212785
0.382697 -14.764900 -6.425355
12.978097 7.051000 -6.425355
13.177097 6.791300 -6.212785
-1.000003 0.000000 -1.843730
-0.946303 -0.270200 -1.948560
-13.417113 6.929900 -4.825990
-13.291693 7.232100 -4.613420
-0.975803 0.121500 -1.771750
-0.054103 0.989200 -2.290620
-0.000003 0.958000 -2.278150
-0.000003 1.037000 -2.636490
-12.494553 8.250700 -5.519385
-12.587053 8.225170 -5.182380
-13.256193 7.256600 -4.705790
-0.967803 0.161900 -1.870460
-1.027803 -0.139800 -2.049220
-13.368833 6.985300 -4.896680
-0.382703 -0.923900 -1.775360
-0.382703 -15.127000 -4.613420
-0.000003 -15.141900 -4.538770
-0.000003 -1.000000 -1.712940
-0.923903 -0.382700 1.375000
-0.923903 -0.382700 5.375000
-0.000003 0.000000 -3.552660
-0.000003 -14.750000 -6.500000
-0.382703 -14.764900 -6.425355
-0.382703 -0.220900 -3.519180
-0.923903 -15.020900 -5.144120
-0.707103 -15.084500 -4.825990
-0.923903 -0.533400 -2.249230
-0.382703 -14.764900 -6.425355
-0.000003 -14.750000 -6.500000
-0.707103 -14.807400 -6.212785
13.443597 6.606900 -5.519385
13.340597 6.635400 -5.894650
0.923897 -0.533400 -3.029720
-0.000003 1.154700 -2.648260
-0.000003 1.066800 -2.249230
12.546597 8.310570 -5.144120
12.443597 8.339000 -5.519385
12.469997 8.016070 -6.212785
12.416697 8.235580 -5.894650
-0.000003 1.066800 -3.029720
-0.000003 0.816500 -3.335550
-12.773873 7.375000 -6.500000
-13.443573 6.606900 -5.519385
-13.470453 6.710400 -5.144120
-13.417113 6.929900 -4.825990
-13.291693 7.232100 -4.613420
-13.113263 7.570900 -4.538770
-12.909003 7.894900 -4.613420
-12.710013 8.154620 -4.825990
-12.546573 8.310570 -5.144120
-12.443573 8.339000 -5.519385
-12.416693 8.235580 -5.894650
-12.470023 8.016070 -6.212785
-12.595453 7.713900 -6.425355
-12.791183 7.385000 -6.400017
-12.630943 7.689300 -6.332983
-12.518313 7.960700 -6.142086
-12.470413 8.157830 -5.856389
-12.494553 8.250700 -5.519385
-12.587053 8.225170 -5.182380
-12.733823 8.085120 -4.896680
-12.912533 7.851900 -4.705790
-13.095963 7.561000 -4.638750
-13.256193 7.256600 -4.705790
-13.368833 6.985300 -4.896680
-13.416733 6.788100 -5.182380
-13.392593 6.695200 -5.519385
-13.300093 6.720800 -5.856389
-13.153323 6.860800 -6.142086
-12.974613 7.094100 -6.332983
-12.978133 7.051000 -6.425355
-13.177133 6.791300 -6.212785
-13.340573 6.635400 -5.894650
0.634997 -0.366600 -3.253710
0.829697 -0.479000 -2.979070
0.829697 -14.878600 -5.856389
0.634997 -14.821500 -6.142086
0.707097 0.707100 1.375000
0.707097 0.707100 -1.758630
0.592297 0.783800 -1.771550
0.382697 0.923900 -1.903320
0.382697 0.923900 1.375000
0.382697 0.923900 -1.903320
0.592297 0.783800 -1.771550
0.707097 0.707100 -1.758630
0.707097 0.707100 1.375000
0.382697 0.923900 1.375000
-15.588463 9.000000 6.500000
-7.321303 16.443821 6.500000
-7.321303 16.443821 6.125000
-15.588463 9.000000 6.125000
-0.343703 -0.931600 -1.872970
-0.000003 -1.000000 -1.816920
-0.000003 -15.121900 -4.638750
-0.343703 -15.108500 -4.705790
-0.000003 0.733200 -3.253710
12.518297 7.960700 -6.142086
-0.343703 -15.108500 -4.705790
-0.000003 -15.121900 -4.638750
-0.000003 -1.000000 -1.816920
-0.343703 -0.931600 -1.872970
0.923897 0.382700 -1.841680
13.095997 7.561000 -4.638750
0.851197 0.491400 -1.813500
-0.829703 -0.523700 -2.287070
-0.707103 -0.707100 -2.136650
-0.635003 -0.755300 -2.036250
-0.635003 -15.070400 -4.896680
-0.829703 -15.013300 -5.182380
-12.470413 8.157830 -5.856389
-12.518313 7.960700 -6.142086
-3.742403 -17.606701 6.500000
-3.742403 -17.606701 6.125000
3.742397 -17.606701 6.125000
3.742397 -17.606701 6.500000
-0.628403 0.759700 -1.871460
-0.707103 0.707100 -1.862610
-0.851203 0.491400 -1.813500
-13.095963 7.561000 -4.638750
-12.912533 7.851900 -4.705790
-0.000003 -14.750000 -6.500000
-0.382703 -14.764900 -6.425355
-0.707103 -14.807400 -6.212785
-0.923903 -14.871000 -5.894650
-1.000003 -14.945900 -5.519385
-0.923903 -15.020900 -5.144120
-0.898003 -14.945900 -5.519385
-0.829703 -14.878600 -5.856389
-0.635003 -14.821500 -6.142086
-0.343703 -14.783400 -6.332983
-0.000003 -14.770000 -6.400017
0.343697 -14.783400 -6.332983
0.634997 -14.821500 -6.142086
0.829697 -14.878600 -5.856389
0.897997 -14.945900 -5.519385
0.923897 -15.020900 -5.144120
0.999997 -14.945900 -5.519385
0.923897 -14.871000 -5.894650
0.707097 -14.807400 -6.212785
0.382697 -14.764900 -6.425355
0.236397 0.953000 -1.947920
-0.000003 1.000000 -2.154260
-0.000003 1.066800 -2.249230
12.546597 8.310570 -5.144120
12.709997 8.154620 -4.825990
13.291697 7.232100 -4.613420
13.113297 7.570900 -4.538770
12.908997 7.894900 -4.613420
13.095997 7.561000 -4.638750
13.256197 7.256600 -4.705790
13.368797 6.985300 -4.896680
13.416697 6.788100 -5.182380
13.392597 6.695200 -5.519385
13.300097 6.720800 -5.856389
13.153297 6.860800 -6.142086
12.974597 7.094100 -6.332983
12.791197 7.385000 -6.400017
12.595397 7.713900 -6.425355
12.773897 7.375000 -6.500000
12.978097 7.051000 -6.425355
13.177097 6.791300 -6.212785
13.340597 6.635400 -5.894650
13.443597 6.606900 -5.519385
13.470397 6.710400 -5.144120
13.417097 6.929900 -4.825990
-0.707103 0.707100 1.375000
-0.707103 0.707100 5.375000
-0.923903 0.382700 5.375000
-0.923903 0.382700 1.375000
0.923897 -14.871000 -5.894650
0.923897 -0.533400 -3.029720
0.999997 -0.577300 -2.648260
0.999997 -14.945900 -5.519385
0.382697 -15.127000 -4.613420
0.707097 -15.084500 -4.825990
-0.707103 -14.807400 -6.212785
-0.707103 -0.408200 -3.335550
0.923897 -0.382700 -2.065080
0.946297 -0.270200 -1.948560
13.417097 6.929900 -4.825990
13.470397 6.710400 -5.144120
0.851197 -0.491400 -2.129930
-0.000003 18.000000 6.125000
-0.000003 18.000000 6.500000
7.321297 16.443821 6.500000
7.321297 16.443821 6.125000
-0.000003 1.000000 -2.154260
0.236397 0.953000 -1.947920
12.709997 8.154620 -4.825990
12.908997 7.894900 -4.613420
0.707097 -15.084500 -4.825990
0.923897 -0.533400 -2.249230
13.443597 6.606900 -5.519385
13.470397 6.710400 -5.144120
0.975797 0.121500 -1.771750
0.999997 0.000000 -1.843730
0.946297 -0.270200 -1.948560
13.417097 6.929900 -4.825990
13.291697 7.232100 -4.613420
-12.978133 7.051000 -6.425355
-13.177133 6.791300 -6.212785
-13.340573 6.635400 -5.894650
-17.119022 -5.562300 6.125000
-17.119022 -5.562300 6.500000
-17.901398 1.881500 6.500000
-17.901398 1.881500 6.125000
0.707097 -0.707100 -2.136650
-0.829703 -14.878600 -5.856389
-0.898003 -14.945900 -5.519385
-1.000003 0.000000 1.375000
-0.923903 0.382700 1.375000
-0.923903 0.382700 -1.737710
-12.443573 8.339000 -5.519385
-0.000003 1.066800 -3.029720
-12.416693 8.235580 -5.894650
13.177097 6.791300 -6.212785
0.707097 -0.408200 -3.335550
12.908997 7.894900 -4.613420
12.595397 7.713900 -6.425355
0.923897 -0.382700 -2.065080
0.851197 -0.491400 -2.129930
-0.898003 -14.945900 -5.519385
-0.829703 -14.878600 -5.856389
0.923897 -0.382700 1.375000
0.634997 -0.366600 -3.253710
0.829697 -0.479000 -2.979070
13.300097 6.720800 -5.856389
13.153297 6.860800 -6.142086
-1.000003 -0.577300 -2.648260
-0.923903 -0.533400 -3.029720
-13.340573 6.635400 -5.894650
-13.443573 6.606900 -5.519385
2.999997 3.000000 5.500000
-3.000003 3.000000 5.500000
-3.000003 -3.000000 5.500000
2.999997 -3.000000 5.500000
-0.851203 -0.491400 -2.129930
-0.923903 -0.382700 -2.065080
-0.923903 -0.382700 1.375000
-0.707103 -0.707100 1.375000
-0.707103 -0.707100 -1.953100
0.829697 -15.013300 -5.182380
0.829697 -0.523700 -2.287070
0.829697 -0.479000 -2.278150
0.897997 -0.518500 -2.636490
0.897997 -14.945900 -5.519385
-0.000003 0.000000 -3.448680
-0.000003 -14.770000 -6.400017
0.343697 -14.783400 -6.332983
0.343697 -0.198400 -3.418620
-0.923903 -0.533400 -2.249230
-13.470453 6.710400 -5.144120
0.999997 0.000000 -1.843730
0.999997 0.000000 1.375000
0.923897 0.382700 1.375000
0.343697 -14.783400 -6.332983
0.343697 -0.198400 -3.418620
-0.000003 1.000000 1.375000
12.974597 7.094100 -6.332983
12.791197 7.385000 -6.400017
0.634997 -0.755300 -2.036250
0.634997 -15.070400 -4.896680
0.343697 -15.108500 -4.705790
0.343697 -0.931600 -1.872970
0.382697 -0.923900 -1.898000
-12.416693 8.235580 -5.894650
-12.470023 8.016070 -6.212785
-1.000003 0.000000 1.375000
2.999997 3.000000 5.500000
2.999997 3.000000 5.375000
-3.000003 3.000000 5.375000
-3.000003 3.000000 5.500000
-12.470023 8.016070 -6.212785
-12.416693 8.235580 -5.894650
-12.470413 8.157830 -5.856389
-12.518313 7.960700 -6.142086
-12.630943 7.689300 -6.332983
-12.791183 7.385000 -6.400017
-12.595453 7.713900 -6.425355
-0.000003 0.396800 -3.418620
-12.791183 7.385000 -6.400017
-12.630943 7.689300 -6.332983
12.630897 7.689300 -6.332983
-13.256193 7.256600 -4.705790
-13.095963 7.561000 -4.638750
-12.912533 7.851900 -4.705790
-12.733823 8.085120 -4.896680
-12.587053 8.225170 -5.182380
-12.494553 8.250700 -5.519385
-12.443573 8.339000 -5.519385
-12.546573 8.310570 -5.144120
-12.710013 8.154620 -4.825990
-12.909003 7.894900 -4.613420
-13.113263 7.570900 -4.538770
-13.291693 7.232100 -4.613420
-13.417113 6.929900 -4.825990
-13.470453 6.710400 -5.144120
-13.443573 6.606900 -5.519385
-13.340573 6.635400 -5.894650
-13.177133 6.791300 -6.212785
-12.978133 7.051000 -6.425355
-12.773873 7.375000 -6.500000
-12.974613 7.094100 -6.332983
-13.153323 6.860800 -6.142086
-13.300093 6.720800 -5.856389
-13.392593 6.695200 -5.519385
-13.416733 6.788100 -5.182380
-13.368833 6.985300 -4.896680
-12.630943 7.689300 -6.332983
-12.791183 7.385000 -6.400017
-0.000003 0.396800 -3.418620
-0.000003 -1.000000 1.375000
-0.382703 -0.923900 1.375000
-0.382703 0.923900 -1.903320
-0.236403 0.953000 -1.947920
-0.382703 0.923900 1.375000
-0.592303 0.783800 -1.771550
-12.909003 7.894900 -4.613420
-12.710013 8.154620 -4.825990
-0.707103 0.707100 -1.758630
-0.851203 0.491400 -1.709520
-13.113263 7.570900 -4.538770
-0.635003 -15.070400 -4.896680
-0.635003 -0.755300 -2.036250
-0.707103 -0.707100 -2.136650
-0.829703 -0.523700 -2.287070
-0.829703 -15.013300 -5.182380
17.901398 1.881500 6.500000
15.588497 9.000000 6.500000
7.321297 16.443821 6.500000
-0.000003 18.000000 6.500000
-7.321303 16.443821 6.500000
-15.588463 9.000000 6.500000
-17.901398 1.881500 6.500000
-17.119022 -5.562300 6.500000
-13.376613 -12.044400 6.500000
-3.742403 -17.606701 6.500000
3.742397 -17.606701 6.500000
13.376597 -12.044400 6.500000
15.588497 -9.000000 6.500000
0.343597 0.931600 -2.037870
12.733797 8.085120 -4.896680
12.586997 8.225170 -5.182380
0.054097 0.989200 -2.290620
-0.707103 0.707100 1.375000
0.054097 0.989200 -2.290620
12.586997 8.225170 -5.182380
12.733797 8.085120 -4.896680
0.343597 0.931600 -2.037870
-12.733823 8.085120 -4.896680
-12.587053 8.225170 -5.182380
-0.054103 0.989200 -2.290620
-0.343603 0.931600 -2.037870
-0.000003 -14.770000 -6.400017
-0.343703 -14.783400 -6.332983
-0.635003 -14.821500 -6.142086
-0.829703 -14.878600 -5.856389
-0.898003 -14.945900 -5.519385
-0.923903 -14.871000 -5.894650
-0.707103 -14.807400 -6.212785
-0.382703 -14.764900 -6.425355
-0.000003 -14.750000 -6.500000
0.382697 -14.764900 -6.425355
0.707097 -14.807400 -6.212785
0.923897 -14.871000 -5.894650
0.897997 -14.945900 -5.519385
0.829697 -14.878600 -5.856389
0.634997 -14.821500 -6.142086
0.343697 -14.783400 -6.332983
-0.707103 0.707100 5.375000
-0.382703 0.923900 5.375000
-0.000003 1.000000 5.375000
0.382697 0.923900 5.375000
0.707097 0.707100 5.375000
0.923897 0.382700 5.375000
0.999997 0.000000 5.375000
0.923897 -0.382700 5.375000
0.707097 -0.707100 5.375000
0.382697 -0.923900 5.375000
-0.000003 -1.000000 5.375000
-0.382703 -0.923900 5.375000
-0.707103 -0.707100 5.375000
-0.923903 -0.382700 5.375000
-1.000003 0.000000 5.375000
-0.923903 0.382700 5.375000
-0.635003 -15.070400 -4.896680
-0.343703 -15.108500 -4.705790
-0.000003 -15.121900 -4.638750
0.343697 -15.108500 -4.705790
0.634997 -15.070400 -4.896680
0.829697 -15.013300 -5.182380
0.999997 -14.945900 -5.519385
0.923897 -15.020900 -5.144120
0.707097 -15.084500 -4.825990
0.382697 -15.127000 -4.613420
-0.000003 -15.141900 -4.538770
-0.382703 -15.127000 -4.613420
-0.707103 -15.084500 -4.825990
-0.923903 -15.020900 -5.144120
-1.000003 -14.945900 -5.519385
-0.829703 -15.013300 -5.182380
-0.382703 -0.923900 5.375000
-0.382703 -0.923900 1.375000
-0.382703 0.923900 1.375000
-0.382703 0.923900 5.375000
-0.923903 0.382700 1.375000
-0.923903 0.382700 5.375000
-0.707103 0.707100 5.375000
-0.707103 0.707100 1.375000
13.376597 -12.044400 6.125000
13.376597 -12.044400 6.500000
13.095997 7.561000 -4.638750
12.908997 7.894900 -4.613420
13.113297 7.570900 -4.538770
13.291697 7.232100 -4.613420
13.417097 6.929900 -4.825990
13.470397 6.710400 -5.144120
13.443597 6.606900 -5.519385
13.340597 6.635400 -5.894650
13.177097 6.791300 -6.212785
12.978097 7.051000 -6.425355
12.773897 7.375000 -6.500000
12.595397 7.713900 -6.425355
12.791197 7.385000 -6.400017
12.974597 7.094100 -6.332983
13.153297 6.860800 -6.142086
13.300097 6.720800 -5.856389
13.392597 6.695200 -5.519385
13.416697 6.788100 -5.182380
13.368797 6.985300 -4.896680
13.256197 7.256600 -4.705790
12.546597 8.310570 -5.144120
12.443597 8.339000 -5.519385
12.416697 8.235580 -5.894650
12.469997 8.016070 -6.212785
12.630897 7.689300 -6.332983
12.518297 7.960700 -6.142086
12.470397 8.157830 -5.856389
12.494497 8.250700 -5.519385
12.586997 8.225170 -5.182380
12.733797 8.085120 -4.896680
12.912497 7.851900 -4.705790
12.709997 8.154620 -4.825990
0.923897 -15.020900 -5.144120
-12.773873 7.375000 -6.500000
-13.376613 -12.044400 6.125000
-13.376613 -12.044400 6.500000
0.999997 0.000000 1.375000
0.923897 -0.382700 1.375000
15.588497 9.000000 6.125000
17.901398 -1.881500 6.125000
13.376597 -12.044400 6.125000
3.742397 -17.606701 6.125000
-3.742403 -17.606701 6.125000
-13.376613 -12.044400 6.125000
-17.901398 -1.881500 6.125000
-17.119022 5.562300 6.125000
-13.376613 12.044350 6.125000
-7.321303 16.443821 6.125000
-0.000003 18.000000 6.125000
7.321297 16.443821 6.125000
0.382697 -15.127000 -4.613420
12.773897 7.375000 -6.500000
-13.470453 6.710400 -5.144120
-0.851203 0.491400 -1.709520
-13.113263 7.570900 -4.538770
0.634997 -14.821500 -6.142086
12.416697 8.235580 -5.894650
0.923897 -14.871000 -5.894650
-1.000003 -14.945900 -5.519385
-0.923903 -14.871000 -5.894650
17.901398 -1.881500 6.500000
17.901398 -1.881500 6.125000
0.851197 0.491400 -1.709520
0.923897 0.382700 1.375000
0.923897 0.382700 -1.737710
-13.443573 6.606900 -5.519385
0.382697 -0.220900 -3.519180
12.978097 7.051000 -6.425355
12.773897 7.375000 -6.500000
-0.707103 -15.084500 -4.825990
-0.923903 -15.020900 -5.144120
13.340597 6.635400 -5.894650
-0.000003 1.000000 1.375000
12.443597 8.339000 -5.519385
-0.000003 1.154700 -2.648260
-12.546573 8.310570 -5.144120
-12.710013 8.154620 -4.825990
-0.236403 0.953000 -1.947920
13.113297 7.570900 -4.538770
13.392597 6.695200 -5.519385
-0.000003 -15.141900 -4.538770
0.382697 -15.127000 -4.613420
0.707097 -15.084500 -4.825990
0.829697 -15.013300 -5.182380
0.634997 -15.070400 -4.896680
0.343697 -15.108500 -4.705790
-0.000003 -15.121900 -4.638750
-0.343703 -15.108500 -4.705790
-0.635003 -15.070400 -4.896680
-0.829703 -15.013300 -5.182380
-0.707103 -15.084500 -4.825990
-0.382703 -15.127000 -4.613420
-0.382703 0.923900 -1.903320
-0.382703 0.923900 1.375000
-12.909003 7.894900 -4.613420
-0.592303 0.783800 -1.771550
-0.707103 0.707100 -1.758630
-12.974613 7.094100 -6.332983
-0.707103 0.707100 1.375000
15.588497 9.000000 6.125000
15.588497 9.000000 6.500000
17.118998 5.562300 6.500000
17.901398 1.881500 6.500000
17.901398 1.881500 6.125000
17.118998 5.562300 6.125000
0.829697 -14.878600 -5.856389
2.999997 -3.000000 5.375000
2.999997 -3.000000 5.500000
-3.000003 -3.000000 5.500000
-3.000003 -3.000000 5.375000
13.153297 6.860800 -6.142086
13.300097 6.720800 -5.856389
13.392597 6.695200 -5.519385
10.580097 14.562310 6.500000
13.376597 12.044350 6.500000
13.376597 12.044350 6.125000
10.580097 14.562310 6.125000
0.382697 -14.764900 -6.425355
-12.443573 8.339000 -5.519385
-12.546573 8.310570 -5.144120
13.416697 6.788100 -5.182380
0.878197 -0.451000 -2.289350
0.878197 -0.451000 -2.289350
13.416697 6.788100 -5.182380
0.707097 -0.707100 -2.136650
-3.000003 3.000000 5.375000
2.999997 3.000000 5.375000
2.999997 -3.000000 5.375000
-3.000003 -3.000000 5.375000
-3.000003 3.000000 5.375000
-3.000003 -3.000000 5.375000
-3.000003 -3.000000 5.500000
-3.000003 3.000000 5.500000
12.791197 7.385000 -6.400017
12.974597 7.094100 -6.332983
-0.851203 -0.491400 -2.390990
-0.878203 -0.451000 -2.289350
-13.416733 6.788100 -5.182380
0.923897 -0.382700 -2.248630
0.964997 -0.176100 -2.034720
13.368797 6.985300 -4.896680
0.923897 -0.382700 -2.248630
2.999997 -3.000000 5.375000
2.999997 3.000000 5.375000
2.999997 3.000000 5.500000
2.999997 -3.000000 5.500000
0.382697 0.923900 1.375000
0.382697 0.923900 5.375000
0.707097 0.707100 5.375000
0.707097 0.707100 1.375000
-12.974613 7.094100 -6.332983
12.630897 7.689300 -6.332983
-13.153323 6.860800 -6.142086
0.999997 0.000000 -1.966380
0.967797 0.161900 -1.870460
13.256197 7.256600 -4.705790
13.095997 7.561000 -4.638750
0.923897 0.382700 -1.841680
0.851197 0.491400 -1.813500
0.707097 -14.807400 -6.212785
-12.518313 7.960700 -6.142086
0.707097 0.707100 -1.862610
12.912497 7.851900 -4.705790
0.628397 0.759700 -1.871460
0.707097 0.707100 -1.862610
0.628397 0.759700 -1.871460
12.912497 7.851900 -4.705790
-0.382703 -0.923900 -1.898000
-0.382703 -0.923900 -1.898000
-0.923903 0.382700 -1.737710
-0.923903 0.382700 1.375000
-0.851203 -0.491400 -2.390990
12.494497 8.250700 -5.519385
-12.470413 8.157830 -5.856389
0.382697 0.923900 -2.025970
0.382697 0.923900 -2.025970
-13.416733 6.788100 -5.182380
-0.878203 -0.451000 -2.289350
-12.494553 8.250700 -5.519385
-0.000003 0.958000 -2.278150
12.518297 7.960700 -6.142086
12.630897 7.689300 -6.332983
12.469997 8.016070 -6.212785
12.416697 8.235580 -5.894650
12.443597 8.339000 -5.519385
12.546597 8.310570 -5.144120
12.709997 8.154620 -4.825990
12.912497 7.851900 -4.705790
12.733797 8.085120 -4.896680
12.586997 8.225170 -5.182380
12.494497 8.250700 -5.519385
12.470397 8.157830 -5.856389
-1.027803 -0.139800 -2.049220
-13.368833 6.985300 -4.896680
-0.967803 0.161900 -1.870460
-13.256193 7.256600 -4.705790
-0.923903 0.382700 -1.841680
-0.851203 0.491400 -1.813500
-13.095963 7.561000 -4.638750
-0.923903 0.382700 -1.841680
-0.343603 0.931600 -2.037870
-12.733823 8.085120 -4.896680
-12.912533 7.851900 -4.705790
-0.628403 0.759700 -1.871460
-0.382703 0.923900 -2.025970
-0.382703 0.923900 -2.025970
-0.707103 0.707100 -1.862610
-1.000003 0.000000 1.375000
-1.000003 0.000000 5.375000
0.382697 -0.923900 5.375000
0.382697 -0.923900 1.375000
-0.000003 -1.000000 1.375000
-0.000003 -1.000000 5.375000
0.999997 0.000000 1.375000
0.999997 0.000000 5.375000
0.923897 0.382700 5.375000
0.923897 0.382700 1.375000
0.999997 0.000000 1.375000
0.999997 0.000000 5.375000
0.923897 -0.382700 5.375000
0.923897 -0.382700 1.375000
0.707097 0.707100 1.375000
0.707097 0.707100 5.375000
0.382697 0.923900 5.375000
0.382697 0.923900 1.375000
0.707097 -0.707100 5.375000
0.707097 -0.707100 1.375000
0.382697 -0.923900 5.375000
0.382697 -0.923900 1.375000
0.707097 -0.707100 1.375000
0.707097 -0.707100 5.375000
-0.000003 -1.000000 1.375000
-0.000003 -1.000000 5.375000
0.923897 -0.382700 5.375000
0.923897 -0.382700 1.375000
-0.382703 0.923900 1.375000
-0.382703 0.923900 5.375000
-0.000003 1.000000 5.375000
-0.000003 1.000000 1.375000
-0.000003 1.000000 1.375000
-0.000003 1.000000 5.375000
-13.153323 6.860800 -6.142086
0.923897 0.382700 5.375000
0.923897 0.382700 1.375000
-1.000003 0.000000 5.375000
-1.000003 0.000000 1.375000
4 0 1 2 3
4 4 5 6 7
4 8 9 10 11
5 12 13 14 15 16
4 17 18 19 20
4 21 22 23 24
4 25 26 27 28
4 29 30 31 32
5 33 34 35 36 37
4 38 39 40 41
4 42 43 44 45
5 46 47 48 49 50
5 51 52 53 54 55
16 56 57 58 59 60 61 62 63 64 65 66 67 68 69 70 71
4 72 73 74 75
4 76 77 8 11
4 78 79 80 81
5 82 83 84 85 86
4 87 88 89 90
4 77 18 17 8
4 91 90 89 92
4 93 94 95 96
5 97 98 99 100 101
4 102 103 104 105
4 103 106 107 104
4 108 109 110 111
4 112 113 114 115
4 116 117 118 119
4 120 121 117 116
5 122 123 124 125 126
5 127 128 129 130 131
4 132 133 134 135
4 136 137 138 139
4 140 73 72 141
4 142 143 144 145
5 146 147 12 16 148
4 6 149 150 113
4 5 151 149 6
4 80 152 153 154
4 155 156 157 158
4 159 160 161 162
4 92 89 142 163
31 164 165 166 167 168 169 170 171 172 173 174 175 176 177 178 179 180 181 182 183 184 185 186 187 188 189 190 191 192 193 194
4 195 196 197 198
5 199 200 201 202 203
5 204 205 206 207 208
4 209 210 211 212
4 213 214 215 216
4 217 218 30 29
4 219 220 221 222
5 223 46 50 224 225
5 226 227 228 229 230
4 231 108 111 232
4 233 234 235 236
5 237 238 239 240 241
20 242 243 244 245 246 247 248 249 250 251 252 253 254 255 256 257 258 259 260 261
5 262 263 264 265 266
20 267 268 269 270 271 272 273 274 275 276 277 278 279 280 281 282 283 284 285 286
4 287 288 289 290
4 291 292 293 294
4 42 45 295 296
4 45 139 138 295
4 297 0 3 298
6 299 300 301 302 79 303
4 304 305 306 307
5 156 308 309 310 157
5 309 202 201 311 310
5 20 303 79 78 312
4 313 293 314 315
5 316 317 318 319 320
4 321 145 298 322
4 323 322 298 3
4 324 325 326 327
5 328 100 99 52 51
4 329 40 39 330
5 331 332 333 34 33
4 334 155 335 336
4 154 153 337 338
5 339 205 204 262 266
4 162 114 340 159
5 14 331 33 37 15
6 313 315 319 318 341 342
4 343 95 94 344
5 345 299 303 20 19
4 346 347 348 349
4 350 351 352 353
4 354 355 356 357
5 358 359 360 361 362
5 363 364 365 366 367
4 368 369 370 371
4 372 350 353 373
4 196 54 53 197
5 82 86 374 375 376
4 195 198 377 378
5 263 262 204 208 379
4 380 378 105 381
4 368 21 24 369
4 23 22 40 329
5 382 383 384 385 386
4 162 161 387 388
4 221 220 98 97
5 123 122 389 360 359
4 390 391 392 393
7 394 395 396 397 398 399 400
4 401 105 402 403
4 381 105 401 404
29 405 406 407 408 409 410 396 395 411 412 413 414 415 416 417 418 419 420 421 422 423 400 399 424 425 426 427 428 429
4 430 431 368 432
4 111 401 403 232
4 136 139 433 434
5 435 436 263 379 437
5 436 435 438 439 440
5 438 441 442 443 439
4 142 116 119 143
5 444 445 446 447 448
13 449 450 451 452 453 454 455 456 457 458 459 460 461
4 462 463 464 465
5 441 438 435 437 466
4 467 468 469 470
4 471 472 473 474
16 475 476 477 478 479 480 481 482 483 484 485 486 487 488 489 490
16 491 492 493 494 495 496 497 498 499 500 501 502 503 504 505 506
20 507 508 509 510 511 512 487 486 513 514 515 516 517 518 519 520 521 480 479 522
4 523 524 27 26
4 525 526 288 287
4 527 528 529 530
4 531 532 236 235
20 533 534 535 536 537 538 539 540 541 542 543 544 545 546 547 548 549 550 551 552
16 553 554 555 556 279 278 557 558 559 560 561 562 563 270 269 564
4 210 305 304 211
4 1 146 148 2
5 565 313 342 42 296
4 145 144 297 298
4 294 293 313 565
5 176 175 566 192 191
4 567 568 325 324
5 317 569 570 341 318
12 571 572 573 574 575 576 577 578 579 580 581 582
4 583 9 8 17
4 88 584 142 89
6 585 148 16 15 37 36
5 333 586 587 35 34
4 371 370 588 346
4 326 209 212 327
4 90 335 589 87
4 81 80 154 590
4 351 350 591 592
4 155 158 589 335
4 593 532 531 594
4 12 147 137 136
5 595 200 199 596 597
4 163 142 145 321
5 570 43 42 342 341
4 585 598 2 148
4 598 323 3 2
4 5 351 592 151
4 113 599 600 601
5 597 596 569 317 316
5 362 602 603 372 358
4 12 136 434 13
4 292 604 314 293
5 203 202 309 308 605
5 84 83 206 205 339
4 161 160 606 607
5 156 608 609 610 308
4 91 336 335 90
4 11 10 602 362
4 608 156 155 334
4 139 45 44 433
5 611 595 597 316 320
4 347 366 612 348
5 201 200 595 611 311
4 606 265 264 607
4 302 152 80 79
16 613 614 615 257 256 616 617 618 619 620 621 622 248 247 623 624
4 114 113 601 340
5 610 625 626 605 308
5 301 300 374 86 85
5 609 627 628 625 610
5 629 628 627 587 586
4 431 630 21 368
5 332 631 629 586 333
8 632 633 634 635 593 594 636 637
4 588 638 347 346
5 626 625 628 629 631
4 350 372 603 591
4 7 6 113 112
4 639 640 641 642
4 361 76 11 362
4 312 583 17 20
5 206 83 82 376 207
4 643 644 196 195
4 644 645 54 196
8 646 647 633 632 648 649 307 306
4 378 377 102 105
5 374 300 299 345 375
4 150 650 599 113
4 351 5 4 352
4 638 367 366 347
4 651 607 264 652
5 653 654 55 54 645
5 365 655 656 612 366
4 584 120 116 142
5 363 383 382 657 364
4 234 233 568 567
4 658 659 660 661
4 662 663 664 665
4 666 368 371 667
5 96 95 668 669 670
5 653 49 48 671 654
5 652 264 263 436 440
5 672 673 656 655 674
4 387 161 607 651
4 675 676 677 678
4 115 114 162 388
4 679 680 681 682
4 105 104 683 402
4 684 432 368 666
4 385 384 215 214
4 344 94 107 106
4 630 685 22 21
6 124 123 359 358 372 373
5 686 687 688 673 672
4 599 338 337 600
5 689 688 687 690 691
4 218 217 432 684
4 404 401 111 110
4 667 371 346 349
4 643 195 378 380
4 650 692 338 599
4 693 430 432 217
5 694 225 224 695 696
5 697 698 699 689 691
5 222 700 445 444 219
5 701 213 216 229 228
5 448 447 668 95 343
4 41 40 22 685
5 126 702 703 389 122
5 330 39 704 226 230
4 129 705 109 108
4 693 217 29 706
5 707 696 695 463 462
5 708 470 469 699 698
4 129 108 231 130
5 709 710 704 39 38
4 711 706 29 32
5 128 465 464 705 129
5 32 31 468 467 712
5 441 466 703 702 442
5 702 126 125 443 442
16 713 714 545 544 715 716 717 718 719 534 533 720 721 722 723 724
4 669 725 726 670
4 709 135 134 710
5 711 32 712 473 472
4 726 725 727 728
5 728 727 729 730 731
5 239 732 133 132 240
4 733 127 131 734
5 735 736 737 733 734
5 471 474 738 237 241
5 739 736 735 731 730
4 527 740 741 528
4 742 743 744 745
4 746 747 748 749
4 750 751 752 753
4 590 154 338 692
4 118 117 292 291
4 117 121 604 292
4 754 755 756 757
4 758 759 743 742
4 760 761 762 763
4 75 74 764 765
4 758 766 767 759
4 768 769 770 771
4 767 766 747 746
4 762 753 752 763
4 745 744 524 523
4 772 773 526 525
4 749 748 755 754
4 104 107 774 683
4 682 681 775 776
4 774 107 94 93
4 771 770 680 679
4 757 756 773 772
4 530 529 769 768
4 776 775 751 750
4 289 777 778 290
4 765 764 761 760
4 777 25 28 778
4 740 140 141 741
