ply
format ascii 1.0
comment Created by Blender 2.82 (sub 7) - www.blender.org, source file: ''
element vertex 626
property float x
property float y
property float z
element face 134
property list uchar uint vertex_indices
end_header
-0.196800 -23.622049 5.787400
0.000000 -23.622049 5.787400
0.000000 -0.196850 5.787400
-0.196800 -0.196850 5.787400
15.157490 -19.685049 5.118100
15.157490 19.685040 5.118100
15.157490 19.685040 1.968520
15.157490 -19.685049 1.968520
-0.196800 23.622049 5.905500
-0.196800 0.000050 5.905500
-0.196800 0.000050 5.787400
-0.196800 23.622049 5.787400
-17.519699 0.000050 5.905500
-0.196800 0.000050 5.905500
-0.196800 23.622049 5.905500
-17.519699 23.622049 5.905500
17.519699 23.622049 4.330700
17.519699 -23.622049 4.330700
17.519699 -23.622049 5.905500
17.519699 -0.196850 5.905500
17.519699 -0.196850 5.787400
17.519699 0.000050 5.787400
17.519699 0.000050 5.905500
17.519699 23.622049 5.905500
17.519699 -21.259850 -5.905500
15.944890 -21.259850 -5.905500
15.944890 -19.685049 -5.905500
17.519699 -19.685049 -5.905500
15.944890 21.259850 1.968520
15.944890 21.259850 -5.905500
17.519699 21.259850 -5.905500
17.519699 21.259850 1.968520
-17.519699 0.000050 5.787400
-17.519699 -0.196850 5.787400
-17.519699 -0.196850 5.905500
-17.519699 -23.622049 5.905500
-17.519699 -23.622049 4.330700
-17.519699 23.622049 4.330700
-17.519699 23.622049 5.905500
-17.519699 0.000050 5.905500
15.944890 22.047251 4.330700
15.944890 22.047251 3.543320
-15.944900 22.047251 3.543320
-15.944900 22.047251 4.330700
-15.944900 22.047251 3.543320
-15.944900 19.685040 3.543320
-17.519699 19.685040 3.543320
-17.519699 23.622049 3.543320
17.519699 23.622049 3.543320
17.519699 19.685040 3.543320
15.944890 19.685040 3.543320
15.944890 22.047251 3.543320
15.157490 21.259850 5.118100
-15.157500 21.259850 5.118100
-15.157500 -21.259850 5.118100
15.157490 -21.259850 5.118100
15.944890 19.685040 -5.905500
15.944890 21.259850 -5.905500
15.944890 21.259850 1.968520
15.944890 19.685040 1.968520
15.157490 -19.685049 1.968520
15.157490 19.685040 1.968520
15.157490 19.685040 5.118100
15.157490 -19.685049 5.118100
-17.519699 -23.622049 1.968520
-17.519699 -23.622049 3.543320
17.519699 -23.622049 3.543320
17.519699 -23.622049 1.968520
15.157490 19.685040 5.118100
15.157490 21.259850 5.118100
15.157490 21.259850 1.968520
15.157490 19.685040 1.968520
17.519699 -19.685049 -5.905500
15.944890 -19.685049 -5.905500
15.944890 -21.259850 -5.905500
17.519699 -21.259850 -5.905500
17.519699 -21.259850 -5.905500
17.519699 -21.259850 1.968520
17.519699 -23.622049 1.968520
17.519699 -23.622049 3.543320
17.519699 -19.685049 3.543320
17.519699 -19.685049 -5.905500
15.944890 -22.047251 3.543320
15.944890 -22.047251 4.330700
-15.944900 -22.047251 4.330700
-15.944900 -22.047251 3.543320
15.944890 -19.685049 3.543320
15.944890 -22.047251 3.543320
15.944890 -22.047251 1.968520
15.944890 -19.685049 1.968520
-17.519699 23.622049 1.968520
17.519699 23.622049 1.968520
17.519699 21.259850 1.968520
15.944890 21.259850 1.968520
15.944890 22.047251 1.968520
-15.944900 22.047251 1.968520
-15.944900 21.259850 1.968520
-17.519699 21.259850 1.968520
-15.944900 22.047251 1.968520
15.944890 22.047251 1.968520
15.944890 21.259850 1.968520
17.519699 21.259850 1.968520
17.519699 23.622049 1.968520
-17.519699 23.622049 1.968520
-17.519699 21.259850 1.968520
-15.944900 21.259850 1.968520
-15.944900 -19.685049 3.543320
-15.944900 -19.685049 -5.905500
-17.519699 -19.685049 -5.905500
-17.519699 -19.685049 3.543320
-15.944900 -22.047251 4.330700
-15.944900 22.047251 4.330700
-17.519699 -23.622049 4.330700
17.519699 -23.622049 4.330700
17.519699 23.622049 4.330700
15.944890 22.047251 4.330700
15.944890 -22.047251 4.330700
0.000000 0.000050 5.787400
0.000000 23.622049 5.787400
0.000000 23.622049 5.905500
0.000000 0.000050 5.905500
0.000000 0.000050 5.787400
0.000000 0.000050 5.905500
17.519699 0.000050 5.905500
17.519699 0.000050 5.787400
15.157490 -21.259850 5.118100
15.157490 -19.685049 5.118100
15.157490 -19.685049 1.968520
15.157490 -21.259850 1.968520
-15.157500 21.259850 1.968520
-15.157500 -21.259850 1.968520
-15.157500 -21.259850 5.118100
-15.157500 21.259850 5.118100
17.519699 19.685040 -5.905500
17.519699 19.685040 3.543320
17.519699 23.622049 3.543320
17.519699 23.622049 1.968520
17.519699 21.259850 1.968520
17.519699 21.259850 -5.905500
-15.944900 21.259850 1.968520
-15.944900 21.259850 -5.905500
-17.519699 21.259850 -5.905500
-17.519699 21.259850 1.968520
-15.944900 22.047251 4.330700
-15.944900 22.047251 3.543320
15.944890 22.047251 3.543320
15.944890 22.047251 4.330700
17.519699 19.685040 -5.905500
15.944890 19.685040 -5.905500
15.944890 21.259850 -5.905500
17.519699 21.259850 -5.905500
-17.519699 -19.685049 3.543320
-17.519699 -19.685049 -5.905500
-17.519699 -21.259850 -5.905500
-17.519699 -21.259850 1.968520
-17.519699 -23.622049 1.968520
-17.519699 -23.622049 3.543320
-17.519699 -21.259850 -5.905500
-17.519699 -19.685049 -5.905500
-17.519699 -19.685049 3.543320
-17.519699 -23.622049 3.543320
-17.519699 -23.622049 1.968520
-17.519699 -21.259850 1.968520
15.944890 -19.685049 -5.905500
15.944890 -19.685049 3.543320
17.519699 -19.685049 3.543320
17.519699 -19.685049 -5.905500
-17.519699 21.259850 1.968520
-17.519699 21.259850 -5.905500
-15.944900 21.259850 -5.905500
-15.944900 21.259850 1.968520
-17.519699 19.685040 -5.905500
-17.519699 21.259850 -5.905500
-17.519699 21.259850 1.968520
-17.519699 23.622049 1.968520
-17.519699 23.622049 3.543320
-17.519699 19.685040 3.543320
-17.519699 19.685040 3.543320
-17.519699 23.622049 3.543320
-17.519699 23.622049 1.968520
-17.519699 21.259850 1.968520
-17.519699 21.259850 -5.905500
-17.519699 19.685040 -5.905500
0.000000 -0.196850 5.905500
17.519699 -0.196850 5.905500
17.519699 -23.622049 5.905500
0.000000 -23.622049 5.905500
17.519699 -0.196850 5.787400
17.519699 -0.196850 5.905500
17.519699 -23.622049 5.905500
17.519699 -23.622049 4.330700
17.519699 23.622049 4.330700
17.519699 23.622049 5.905500
17.519699 0.000050 5.905500
17.519699 0.000050 5.787400
15.944890 -19.685049 3.543320
15.944890 -19.685049 -5.905500
17.519699 -19.685049 -5.905500
17.519699 -19.685049 3.543320
15.944890 19.685040 3.543320
15.944890 19.685040 -5.905500
17.519699 19.685040 -5.905500
17.519699 19.685040 3.543320
15.944890 19.685040 3.543320
15.944890 22.047251 3.543320
15.944890 22.047251 1.968520
15.944890 19.685040 1.968520
-15.944900 19.685040 3.543320
-15.944900 22.047251 3.543320
-15.944900 22.047251 1.968520
-15.944900 21.259850 1.968520
-15.944900 21.259850 -5.905500
-15.944900 19.685040 -5.905500
-0.196800 -0.196850 5.787400
0.000000 -0.196850 5.787400
0.000000 -23.622049 5.787400
-0.196800 -23.622049 5.787400
-17.519699 23.622049 3.543320
-17.519699 23.622049 1.968520
17.519699 23.622049 1.968520
17.519699 23.622049 3.543320
-15.944900 22.047251 3.543320
15.944890 22.047251 3.543320
15.944890 19.685040 3.543320
17.519699 19.685040 3.543320
17.519699 23.622049 3.543320
-17.519699 23.622049 3.543320
-17.519699 19.685040 3.543320
-15.944900 19.685040 3.543320
-17.519699 19.685040 -5.905500
-17.519699 19.685040 3.543320
-15.944900 19.685040 3.543320
-15.944900 19.685040 -5.905500
15.944890 -22.047251 3.543320
-15.944900 -22.047251 3.543320
-15.944900 -19.685049 3.543320
-17.519699 -19.685049 3.543320
-17.519699 -23.622049 3.543320
17.519699 -23.622049 3.543320
17.519699 -19.685049 3.543320
15.944890 -19.685049 3.543320
17.519699 23.622049 3.543320
17.519699 19.685040 3.543320
17.519699 19.685040 -5.905500
17.519699 21.259850 -5.905500
17.519699 21.259850 1.968520
17.519699 23.622049 1.968520
0.000000 23.622049 5.905500
17.519699 23.622049 5.905500
17.519699 0.000050 5.905500
0.000000 0.000050 5.905500
17.519699 0.000050 5.787400
17.519699 0.000050 5.905500
0.000000 0.000050 5.905500
0.000000 0.000050 5.787400
15.944890 -21.259850 -5.905500
15.944890 -21.259850 1.968520
17.519699 -21.259850 1.968520
17.519699 -21.259850 -5.905500
15.157490 -21.259850 5.118100
-15.157500 -21.259850 5.118100
-15.157500 21.259850 5.118100
15.157490 21.259850 5.118100
-17.519699 -0.196850 5.905500
-17.519699 -0.196850 5.787400
-0.196800 -0.196850 5.787400
-0.196800 -0.196850 5.905500
17.519699 -21.259850 -5.905500
17.519699 -21.259850 1.968520
15.944890 -21.259850 1.968520
15.944890 -21.259850 -5.905500
-15.944900 -21.259850 1.968520
-17.519699 -21.259850 1.968520
-17.519699 -23.622049 1.968520
17.519699 -23.622049 1.968520
17.519699 -21.259850 1.968520
15.944890 -21.259850 1.968520
15.944890 -22.047251 1.968520
-15.944900 -22.047251 1.968520
15.157490 -21.259850 5.118100
15.157490 -21.259850 1.968520
-15.157500 -21.259850 1.968520
-15.157500 -21.259850 5.118100
-15.157500 -21.259850 5.118100
-15.157500 -21.259850 1.968520
-15.157500 21.259850 1.968520
-15.157500 21.259850 5.118100
-15.944900 -22.047251 1.968520
15.944890 -22.047251 1.968520
15.944890 -21.259850 1.968520
17.519699 -21.259850 1.968520
17.519699 -23.622049 1.968520
-17.519699 -23.622049 1.968520
-17.519699 -21.259850 1.968520
-15.944900 -21.259850 1.968520
-15.157500 -21.259850 5.118100
-15.157500 -21.259850 1.968520
15.157490 -21.259850 1.968520
15.157490 -21.259850 5.118100
-15.944900 -19.685049 1.968520
-15.944900 -21.259850 1.968520
-15.944900 -21.259850 -5.905500
-15.944900 -19.685049 -5.905500
15.944890 22.047251 3.543320
15.944890 22.047251 1.968520
-15.944900 22.047251 1.968520
-15.944900 22.047251 3.543320
17.519699 23.622049 3.543320
17.519699 23.622049 1.968520
-17.519699 23.622049 1.968520
-17.519699 23.622049 3.543320
15.944890 -21.259850 1.968520
15.944890 -19.685049 1.968520
15.944890 -19.685049 -5.905500
15.944890 -21.259850 -5.905500
17.519699 21.259850 1.968520
17.519699 21.259850 -5.905500
15.944890 21.259850 -5.905500
15.944890 21.259850 1.968520
-15.157500 21.259850 1.968520
-15.157500 21.259850 5.118100
15.157490 21.259850 5.118100
15.157490 21.259850 1.968520
17.519699 21.259850 -5.905500
15.944890 21.259850 -5.905500
15.944890 19.685040 -5.905500
17.519699 19.685040 -5.905500
17.519699 -23.622049 1.968520
17.519699 -21.259850 1.968520
17.519699 -21.259850 -5.905500
17.519699 -19.685049 -5.905500
17.519699 -19.685049 3.543320
17.519699 -23.622049 3.543320
-17.519699 -21.259850 -5.905500
-17.519699 -21.259850 1.968520
-15.944900 -21.259850 1.968520
-15.944900 -21.259850 -5.905500
15.944890 22.047251 1.968520
15.944890 22.047251 3.543320
15.944890 19.685040 3.543320
15.944890 19.685040 1.968520
15.944890 -21.259850 -5.905500
15.944890 -19.685049 -5.905500
15.944890 -19.685049 1.968520
15.944890 -21.259850 1.968520
15.157490 21.259850 1.968520
15.157490 21.259850 5.118100
-15.157500 21.259850 5.118100
-15.157500 21.259850 1.968520
15.157490 19.685040 1.968520
15.157490 21.259850 1.968520
15.157490 21.259850 5.118100
15.157490 19.685040 5.118100
15.944890 22.047251 4.330700
15.944890 -22.047251 4.330700
15.944890 -22.047251 3.543320
15.944890 -19.685049 3.543320
15.944890 -19.685049 1.968520
15.944890 19.685040 1.968520
15.944890 19.685040 3.543320
15.944890 22.047251 3.543320
17.519699 -23.622049 1.968520
17.519699 -23.622049 3.543320
-17.519699 -23.622049 3.543320
-17.519699 -23.622049 1.968520
15.944890 19.685040 1.968520
15.944890 -19.685049 1.968520
15.944890 -19.685049 3.543320
15.944890 -22.047251 3.543320
15.944890 -22.047251 4.330700
15.944890 22.047251 4.330700
15.944890 22.047251 3.543320
15.944890 19.685040 3.543320
-15.944900 -19.685049 1.968520
-15.944900 19.685040 1.968520
-15.944900 19.685040 3.543320
-15.944900 22.047251 3.543320
-15.944900 22.047251 4.330700
-15.944900 -22.047251 4.330700
-15.944900 -22.047251 3.543320
-15.944900 -19.685049 3.543320
-15.944900 22.047251 3.543320
-15.944900 22.047251 1.968520
15.944890 22.047251 1.968520
15.944890 22.047251 3.543320
-15.944900 -22.047251 4.330700
-15.944900 22.047251 4.330700
-15.944900 22.047251 3.543320
-15.944900 19.685040 3.543320
-15.944900 19.685040 1.968520
-15.944900 -19.685049 1.968520
-15.944900 -19.685049 3.543320
-15.944900 -22.047251 3.543320
-15.944900 21.259850 1.968520
15.157490 21.259850 1.968520
-15.157500 21.259850 1.968520
-15.157500 19.685040 1.968520
-15.944900 19.685040 1.968520
-15.944900 -22.047251 3.543320
-15.944900 -19.685049 3.543320
-15.944900 -19.685049 1.968520
-15.944900 -22.047251 1.968520
15.944890 -19.685049 1.968520
15.944890 -22.047251 1.968520
15.944890 -22.047251 3.543320
15.944890 -19.685049 3.543320
15.157490 21.259850 1.968520
15.157490 -21.259850 1.968520
-15.157500 -21.259850 1.968520
-15.157500 -19.685049 1.968520
-15.944900 19.685040 1.968520
-15.944900 -22.047251 1.968520
15.944890 -22.047251 1.968520
15.944890 22.047251 1.968520
-15.944900 22.047251 1.968520
-15.944900 21.259850 1.968520
0.000000 -23.622049 5.905500
17.519699 -23.622049 5.905500
17.519699 -0.196850 5.905500
0.000000 -0.196850 5.905500
-15.157500 21.259850 1.968520
-15.157500 -21.259850 1.968520
15.157490 -21.259850 1.968520
-15.944900 22.047251 1.968520
15.944890 22.047251 1.968520
15.944890 -22.047251 1.968520
-15.944900 -22.047251 1.968520
-15.944900 -22.047251 1.968520
-15.944900 -19.685049 1.968520
-15.944900 -19.685049 3.543320
-15.944900 -22.047251 3.543320
-15.944900 -22.047251 3.543320
-15.944900 -22.047251 4.330700
15.944890 -22.047251 4.330700
15.944890 -22.047251 3.543320
-15.944900 -21.259850 -5.905500
-15.944900 -21.259850 1.968520
-17.519699 -21.259850 1.968520
-17.519699 -21.259850 -5.905500
0.000000 -0.196850 5.905500
0.000000 -0.196850 5.787400
17.519699 -0.196850 5.787400
17.519699 -0.196850 5.905500
17.519699 -0.196850 5.905500
17.519699 -0.196850 5.787400
0.000000 -0.196850 5.787400
0.000000 -0.196850 5.905500
-15.944900 -22.047251 1.968520
-15.944900 -22.047251 3.543320
15.944890 -22.047251 3.543320
15.944890 -22.047251 1.968520
15.944890 -22.047251 1.968520
15.944890 -22.047251 3.543320
-15.944900 -22.047251 3.543320
-15.944900 -22.047251 1.968520
15.944890 19.685040 1.968520
15.944890 21.259850 1.968520
15.944890 21.259850 -5.905500
15.944890 19.685040 -5.905500
-17.519699 -23.622049 5.905500
-0.196800 -23.622049 5.905500
-0.196800 -0.196850 5.905500
-17.519699 -0.196850 5.905500
-0.196800 0.000050 5.787400
-17.519699 0.000050 5.787400
-17.519699 -0.196850 5.787400
17.519699 -0.196850 5.787400
17.519699 0.000050 5.787400
0.000000 0.000050 5.787400
0.000000 23.622049 5.787400
-0.196800 23.622049 5.787400
-17.519699 -19.685049 3.543320
-17.519699 -19.685049 -5.905500
-15.944900 -19.685049 -5.905500
-15.944900 -19.685049 3.543320
17.519699 -0.196850 5.787400
-17.519699 -0.196850 5.787400
-0.196800 23.622049 5.787400
0.000000 23.622049 5.787400
0.000000 0.000050 5.787400
17.519699 0.000050 5.787400
-17.519699 0.000050 5.787400
-0.196800 0.000050 5.787400
0.000000 -23.622049 5.905500
0.000000 -23.622049 5.787400
-0.196800 -23.622049 5.787400
-0.196800 -23.622049 5.905500
-17.519699 -23.622049 5.905500
-17.519699 -23.622049 4.330700
17.519699 -23.622049 4.330700
17.519699 -23.622049 5.905500
-17.519699 -23.622049 5.905500
-0.196800 -23.622049 5.905500
-0.196800 -23.622049 5.787400
0.000000 -23.622049 5.787400
0.000000 -23.622049 5.905500
17.519699 -23.622049 5.905500
17.519699 -23.622049 4.330700
-17.519699 -23.622049 4.330700
0.000000 -23.622049 5.787400
0.000000 -0.196850 5.787400
0.000000 -0.196850 5.905500
0.000000 -23.622049 5.905500
0.000000 -23.622049 5.905500
0.000000 -0.196850 5.905500
0.000000 -0.196850 5.787400
0.000000 -23.622049 5.787400
15.944890 19.685040 -5.905500
15.944890 19.685040 3.543320
17.519699 19.685040 3.543320
17.519699 19.685040 -5.905500
-17.519699 -23.622049 4.330700
-15.944900 -22.047251 4.330700
15.944890 -22.047251 4.330700
17.519699 -23.622049 4.330700
-15.944900 19.685040 -5.905500
-15.944900 19.685040 3.543320
-17.519699 19.685040 3.543320
-17.519699 19.685040 -5.905500
-15.944900 22.047251 3.543320
-15.944900 19.685040 3.543320
-15.944900 19.685040 -5.905500
-15.944900 21.259850 -5.905500
-15.944900 21.259850 1.968520
-15.944900 22.047251 1.968520
17.519699 23.622049 4.330700
15.944890 22.047251 4.330700
-15.944900 22.047251 4.330700
-17.519699 23.622049 4.330700
-15.944900 -19.685049 -5.905500
-17.519699 -19.685049 -5.905500
-17.519699 -21.259850 -5.905500
-15.944900 -21.259850 -5.905500
0.000000 23.622049 5.787400
0.000000 23.622049 5.905500
17.519699 23.622049 5.905500
17.519699 23.622049 4.330700
-17.519699 23.622049 4.330700
-17.519699 23.622049 5.905500
-0.196800 23.622049 5.905500
-0.196800 23.622049 5.787400
17.519699 -19.685049 3.543320
17.519699 -23.622049 3.543320
-17.519699 -23.622049 3.543320
-17.519699 -19.685049 3.543320
-15.944900 -19.685049 3.543320
-15.944900 -22.047251 3.543320
15.944890 -22.047251 3.543320
15.944890 -19.685049 3.543320
0.000000 23.622049 5.905500
0.000000 23.622049 5.787400
-0.196800 23.622049 5.787400
-0.196800 23.622049 5.905500
-17.519699 23.622049 5.905500
-17.519699 23.622049 4.330700
17.519699 23.622049 4.330700
17.519699 23.622049 5.905500
-15.944900 -21.259850 -5.905500
-17.519699 -21.259850 -5.905500
-17.519699 -19.685049 -5.905500
-15.944900 -19.685049 -5.905500
-17.519699 23.622049 4.330700
-0.196800 0.000050 5.787400
-0.196800 0.000050 5.905500
-17.519699 0.000050 5.905500
-17.519699 0.000050 5.787400
-15.944900 -19.685049 -5.905500
-15.944900 -21.259850 -5.905500
-15.944900 -21.259850 1.968520
-15.944900 -19.685049 1.968520
-0.196800 23.622049 5.787400
-0.196800 0.000050 5.787400
-0.196800 0.000050 5.905500
-0.196800 23.622049 5.905500
-15.944900 21.259850 -5.905500
-17.519699 21.259850 -5.905500
-17.519699 19.685040 -5.905500
-15.944900 19.685040 -5.905500
0.000000 0.000050 5.905500
0.000000 23.622049 5.905500
0.000000 23.622049 5.787400
0.000000 0.000050 5.787400
-15.944900 19.685040 -5.905500
-17.519699 19.685040 -5.905500
-17.519699 21.259850 -5.905500
-15.944900 21.259850 -5.905500
-0.196800 -0.196850 5.787400
-0.196800 -23.622049 5.787400
-0.196800 -23.622049 5.905500
-0.196800 -0.196850 5.905500
-0.196800 -0.196850 5.905500
-0.196800 -23.622049 5.905500
-0.196800 -23.622049 5.787400
-0.196800 -0.196850 5.787400
-0.196800 -0.196850 5.905500
-0.196800 -0.196850 5.787400
-17.519699 -0.196850 5.787400
-17.519699 -0.196850 5.905500
15.157490 -21.259850 1.968520
15.157490 -19.685049 1.968520
15.157490 -19.685049 5.118100
15.157490 -21.259850 5.118100
-17.519699 -23.622049 5.905500
-17.519699 -0.196850 5.905500
-17.519699 -0.196850 5.787400
-17.519699 0.000050 5.787400
-17.519699 0.000050 5.905500
-17.519699 23.622049 5.905500
-17.519699 23.622049 4.330700
-17.519699 -23.622049 4.330700
-17.519699 0.000050 5.787400
-17.519699 0.000050 5.905500
-0.196800 0.000050 5.905500
-0.196800 0.000050 5.787400
0.000000 0.000050 5.905500
17.519699 0.000050 5.905500
17.519699 23.622049 5.905500
0.000000 23.622049 5.905500
-17.519699 23.622049 5.905500
-0.196800 23.622049 5.905500
-0.196800 0.000050 5.905500
-17.519699 0.000050 5.905500
-17.519699 -0.196850 5.905500
-0.196800 -0.196850 5.905500
-0.196800 -23.622049 5.905500
-17.519699 -23.622049 5.905500
4 0 1 2 3
4 4 5 6 7
4 8 9 10 11
4 12 13 14 15
8 16 17 18 19 20 21 22 23
4 24 25 26 27
4 28 29 30 31
8 32 33 34 35 36 37 38 39
4 40 41 42 43
8 44 45 46 47 48 49 50 51
4 52 53 54 55
4 56 57 58 59
4 60 61 62 63
4 64 65 66 67
4 68 69 70 71
4 72 73 74 75
6 76 77 78 79 80 81
4 82 83 84 85
4 86 87 88 89
8 90 91 92 93 94 95 96 97
8 98 99 100 101 102 103 104 105
4 106 107 108 109
7 110 111 112 113 114 115 116
4 117 118 119 120
4 121 122 123 124
4 125 126 127 128
4 129 130 131 132
6 133 134 135 136 137 138
4 139 140 141 142
4 143 144 145 146
4 147 148 149 150
6 151 152 153 154 155 156
6 157 158 159 160 161 162
4 163 164 165 166
4 167 168 169 170
6 171 172 173 174 175 176
6 177 178 179 180 181 182
4 183 184 185 186
8 187 188 189 190 191 192 193 194
4 195 196 197 198
4 199 200 201 202
4 203 204 205 206
6 207 208 209 210 211 212
4 213 214 215 216
4 217 218 219 220
8 221 222 223 224 225 226 227 228
4 229 230 231 232
8 233 234 235 236 237 238 239 240
6 241 242 243 244 245 246
4 247 248 249 250
4 251 252 253 254
4 255 256 257 258
4 259 260 261 262
4 263 264 265 266
4 267 268 269 270
8 271 272 273 274 275 276 277 278
4 279 280 281 282
4 283 284 285 286
8 287 288 289 290 291 292 293 294
4 295 296 297 298
4 299 300 301 302
4 303 304 305 306
4 307 308 309 310
4 311 312 313 314
4 315 316 317 318
4 319 320 321 322
4 323 324 325 326
6 327 328 329 330 331 332
4 333 334 335 336
4 337 338 339 340
4 341 342 343 344
4 345 346 347 348
4 349 350 351 352
8 353 354 355 356 357 358 359 360
4 361 362 363 364
8 365 366 367 368 369 370 371 372
8 373 374 375 376 377 378 379 380
4 381 382 383 384
8 385 386 387 388 389 390 391 392
3 393 394 395
4 396 397 393 395
4 398 399 400 401
4 402 403 404 405
10 406 407 408 409 410 411 412 413 414 415
4 416 417 418 419
3 420 406 415
4 415 410 409 420
10 421 422 394 393 423 424 425 426 397 396
4 427 428 429 430
4 431 432 433 434
4 435 436 437 438
4 439 440 441 442
4 443 444 445 446
4 447 448 449 450
4 451 452 453 454
4 455 456 457 458
4 459 460 461 462
8 463 464 465 466 467 468 469 470
3 466 465 3
3 466 3 2
4 471 472 473 474
3 214 213 475
3 213 476 475
8 477 478 479 480 475 476 481 482
8 483 484 485 486 487 488 489 490
8 491 492 493 494 495 496 497 498
4 499 500 501 502
4 503 504 505 506
4 507 508 509 510
4 511 512 513 514
4 515 516 517 518
6 519 520 521 522 523 524
8 525 514 513 526 527 512 511 528
4 529 530 531 532
8 533 534 535 536 537 538 539 540
8 541 542 543 544 545 546 547 548
8 549 550 551 552 553 554 555 556
4 557 558 559 560
5 112 111 115 114 561
4 562 563 564 565
4 566 567 568 569
4 570 571 572 573
4 574 575 576 577
4 578 579 580 581
4 582 583 584 585
4 586 587 588 589
4 590 591 592 593
4 594 595 596 597
4 598 599 600 601
8 602 603 604 605 606 607 608 609
4 610 611 612 613
4 614 615 616 617
4 618 619 620 621
4 622 623 624 625
