ply
format ascii 1.0
comment Created by Blender 2.82 (sub 7) - www.blender.org, source file: ''
element vertex 181
property float x
property float y
property float z
element face 42
property list uchar uint vertex_indices
end_header
13.444900 26.889750 11.863000
13.444900 -26.889750 11.863000
13.444900 -26.889750 8.824000
13.444900 26.889750 8.824000
12.482300 24.999990 8.824000
12.482300 -24.941351 8.824000
-12.500018 -24.941351 8.824000
-12.500018 24.999990 8.824000
13.444900 24.999990 -11.863000
12.496000 24.999990 -11.863000
12.496000 26.889750 -11.863000
13.444900 26.889750 -11.863000
-12.500018 26.889750 7.717400
-12.500018 24.999990 7.717400
-12.500018 24.999990 -11.863000
-12.500018 26.889750 -11.863000
13.444900 -26.889750 8.824000
13.444900 -26.889750 11.863000
13.444900 26.889750 11.863000
13.444900 26.889750 8.824000
13.444900 -26.889750 8.824000
-13.444900 -26.889750 8.824000
-13.444900 -26.869551 8.824000
13.444900 -26.869551 8.824000
12.496000 26.889750 7.717400
12.496000 24.999990 7.717400
-12.500018 24.999990 7.717400
-12.500018 26.889750 7.717400
-12.500018 -26.869551 -11.863000
-13.444900 -26.869551 -11.863000
-13.444900 -24.941351 -11.863000
-12.500018 -24.941351 -11.863000
12.482300 -24.941351 7.717400
12.482300 -26.869551 7.717400
-12.500018 -26.869551 7.717400
-12.500018 -24.941351 7.717400
-13.444900 24.999990 7.717400
-12.500018 26.889750 7.717400
-12.500018 24.999990 7.717400
13.444900 -24.979750 7.717400
13.444900 -24.979750 -11.863000
12.482300 -24.979750 -11.863000
12.482300 -24.979750 7.717400
-13.444900 -26.889750 8.824000
13.444900 -26.889750 8.824000
13.444900 -26.889750 11.863000
-13.444900 -26.889750 11.863000
-12.500018 24.999990 7.717400
12.482300 24.999990 7.717400
12.482300 24.999990 8.824000
-12.500018 24.999990 8.824000
-13.444900 24.999990 -11.863000
-12.500018 26.889750 -11.863000
-12.500018 24.999990 -11.863000
-13.444900 26.889750 8.824000
-13.444900 26.889750 11.863000
13.444900 26.889750 11.863000
13.444900 26.889750 8.824000
-12.500018 -24.941351 7.717400
-12.500018 -26.869551 7.717400
-12.500018 -26.869551 -11.863000
-12.500018 -24.941351 -11.863000
-13.444900 26.889750 11.863000
-13.444900 26.889750 8.824000
13.444900 26.889750 8.824000
13.444900 26.889750 11.863000
-13.444900 -26.889750 8.824000
-13.444900 26.889750 8.824000
-13.444900 26.889750 11.863000
-13.444900 -26.889750 11.863000
-13.444900 26.889750 11.863000
13.444900 26.889750 11.863000
13.444900 -26.889750 11.863000
-13.444900 -26.889750 11.863000
-12.500018 -24.941351 7.717400
-12.500018 -24.941351 -11.863000
-13.444900 -24.941351 -11.863000
-13.444900 -24.941351 7.717400
-12.500018 24.999990 8.824000
-12.500018 -24.941351 8.824000
-12.500018 -24.941351 7.717400
-12.500018 24.999990 7.717400
12.482300 -26.869551 8.824000
-13.444900 -26.869551 8.824000
-13.444900 26.889750 8.824000
-12.500018 26.889750 8.824000
-12.500018 -24.941351 8.824000
12.482300 -24.941351 8.824000
-13.444900 -24.941351 7.717400
-13.444900 24.999990 7.717400
-12.500018 24.999990 7.717400
-12.500018 24.999990 -11.863000
-12.500018 24.999990 7.717400
-13.444900 24.999990 7.717400
-13.444900 24.999990 -11.863000
-13.444900 -26.889750 11.863000
-13.444900 26.889750 11.863000
-13.444900 26.889750 8.824000
-13.444900 -26.889750 8.824000
-13.444900 24.999990 -11.863000
-13.444900 26.889750 -11.863000
-12.500018 26.889750 -11.863000
13.444900 -24.979750 7.717400
13.444900 24.999990 7.717400
13.444900 24.999990 -11.863000
13.444900 26.889750 -11.863000
13.444900 26.889750 8.824000
13.444900 -26.869551 8.824000
13.444900 -26.869551 -11.863000
13.444900 -24.979750 -11.863000
-13.444900 -26.889750 11.863000
13.444900 -26.889750 11.863000
13.444900 26.889750 11.863000
-13.444900 26.889750 11.863000
-13.444900 24.999990 7.717400
-13.444900 -24.941351 7.717400
-13.444900 -24.941351 -11.863000
-13.444900 -26.869551 -11.863000
-13.444900 -26.869551 8.824000
-13.444900 26.889750 8.824000
-13.444900 26.889750 -11.863000
-13.444900 24.999990 -11.863000
13.444900 -24.979750 7.717400
12.482300 -24.979750 7.717400
12.482300 24.999990 7.717400
13.444900 24.999990 7.717400
12.496000 24.999990 7.717400
12.496000 26.889750 7.717400
12.496000 26.889750 -11.863000
12.496000 24.999990 -11.863000
-12.500018 26.889750 7.717400
-13.444900 24.999990 7.717400
-13.444900 24.999990 -11.863000
-12.500018 26.889750 -11.863000
-12.500018 26.889750 -11.863000
-13.444900 26.889750 -11.863000
-13.444900 26.889750 8.824000
13.444900 26.889750 8.824000
13.444900 26.889750 -11.863000
12.496000 26.889750 -11.863000
12.496000 26.889750 7.717400
-12.500018 26.889750 7.717400
-13.444900 -26.889750 11.863000
13.444900 -26.889750 11.863000
13.444900 -26.889750 8.824000
-13.444900 -26.889750 8.824000
13.444900 24.999990 8.824000
13.444900 -26.869551 8.824000
12.482300 -26.869551 8.824000
12.482300 -24.941351 8.824000
12.482300 -24.941351 7.717400
-12.500018 -24.941351 7.717400
-12.500018 -24.941351 8.824000
12.496000 24.999990 -11.863000
12.496000 24.999990 7.717400
12.482300 24.999990 7.717400
12.482300 24.999990 -11.863000
12.482300 -26.869551 7.717400
12.482300 -24.979750 7.717400
12.482300 -24.979750 -11.863000
12.482300 -26.869551 -11.863000
13.444900 -26.869551 -11.863000
13.444900 -26.869551 8.824000
-13.444900 -26.869551 8.824000
-13.444900 -26.869551 -11.863000
-12.500018 -26.869551 -11.863000
-12.500018 -26.869551 7.717400
12.482300 -26.869551 7.717400
12.482300 -26.869551 -11.863000
13.444900 -26.869551 -11.863000
12.482300 -26.869551 -11.863000
12.482300 -24.979750 -11.863000
13.444900 -24.979750 -11.863000
13.444900 24.999990 -11.863000
13.444900 24.999990 7.717400
12.496000 24.999990 7.717400
12.496000 24.999990 -11.863000
12.482300 -24.941351 7.717400
12.482300 -24.941351 8.824000
12.482300 24.999990 8.824000
12.482300 24.999990 7.717400
4 0 1 2 3
4 4 5 6 7
4 8 9 10 11
4 12 13 14 15
4 16 17 18 19
4 20 21 22 23
4 24 25 26 27
4 28 29 30 31
4 32 33 34 35
3 36 37 38
4 39 40 41 42
4 43 44 45 46
4 47 48 49 50
3 51 52 53
4 54 55 56 57
4 58 59 60 61
4 62 63 64 65
4 66 67 68 69
4 70 71 72 73
4 74 75 76 77
4 78 79 80 81
6 82 83 84 85 86 87
4 35 88 89 90
4 91 92 93 94
4 95 96 97 98
3 99 100 101
8 102 103 104 105 106 107 108 109
4 110 111 112 113
8 114 115 116 117 118 119 120 121
4 122 123 124 125
4 126 127 128 129
4 130 131 132 133
8 134 135 136 137 138 139 140 141
4 142 143 144 145
4 4 146 147 148
4 149 150 151 152
4 153 154 155 156
4 157 158 159 160
8 161 162 163 164 165 166 167 168
4 169 170 171 172
4 173 174 175 176
4 177 178 179 180
