ply
format ascii 1.0
comment Created by Blender 2.82 (sub 7) - www.blender.org, source file: ''
element vertex 1173
property float x
property float y
property float z
element face 302
property list uchar uint vertex_indices
end_header
-11.000000 7.500000 8.625000
-11.000000 0.500000 8.625000
-11.000000 0.500000 7.250000
-11.000000 7.500000 7.250000
-8.750000 16.625000 -1.375000
8.750000 16.625000 -1.375000
8.750000 17.500000 -1.375000
-8.750000 17.500000 -1.375000
-11.000000 8.000000 7.250000
-11.000000 7.500000 7.250000
-11.000000 7.500000 8.625000
-11.000000 8.000000 8.625000
-8.750000 -17.500000 -1.375000
8.750000 -17.500000 -1.375000
8.750000 -16.625000 -1.375000
-8.750000 -16.625000 -1.375000
-11.000000 -8.000000 8.625000
-11.000000 -14.750000 8.625000
-11.000000 -14.750000 7.250000
-11.000000 -8.000000 7.250000
-3.875000 -8.000000 7.250000
-11.000000 -8.000000 7.250000
-11.000000 -14.750000 7.250000
-3.875000 -14.750000 7.250000
9.375000 -16.000000 -1.375000
10.250000 -16.000000 -1.375000
10.250000 16.000000 -1.375000
9.375000 16.000000 -1.375000
-11.000000 -14.750000 8.625000
-11.000000 -15.250000 8.625000
-11.000000 -15.250000 7.250000
-11.000000 -14.750000 7.250000
-3.875000 14.750000 7.250000
-11.000000 14.750000 7.250000
-11.000000 8.000000 7.250000
-3.875000 8.000000 7.250000
-9.375000 16.000000 -2.625000
-9.375000 -16.000000 -2.625000
-9.375000 -16.000000 -2.875000
-9.375000 16.000000 -2.875000
-11.000000 0.500000 7.250000
-11.000000 0.500000 8.625000
-3.875000 0.500000 8.625000
-3.875000 0.500000 7.250000
-10.250000 17.500000 -8.875000
-10.250000 16.000000 -8.875000
-10.250000 16.000000 -2.875000
-10.250000 -16.000000 -2.875000
-10.250000 -16.000000 -8.875000
-10.250000 -17.500000 -8.875000
-10.250000 -17.500000 7.000000
-10.250000 -16.000000 7.000000
-10.250000 -16.000000 -1.375000
-10.250000 16.000000 -1.375000
-10.250000 16.000000 7.000000
-10.250000 17.500000 7.000000
3.375000 -7.500000 8.625000
3.375000 -0.500000 8.625000
3.375000 -0.500000 7.250000
3.375000 -7.500000 7.250000
-3.375000 -14.750000 7.250000
-3.375000 -8.000000 7.250000
-3.375000 -8.000000 8.625000
-3.375000 -14.750000 8.625000
-11.000000 0.500000 8.625000
-11.000000 -0.500000 8.625000
-11.000000 -0.500000 7.250000
-11.000000 0.500000 7.250000
-3.875000 14.750000 7.250000
-3.875000 8.000000 7.250000
-3.875000 8.000000 8.625000
-3.875000 14.750000 8.625000
11.000000 8.000000 8.625000
11.000000 8.000000 7.250000
3.875000 8.000000 7.250000
3.875000 8.000000 8.625000
-11.000000 0.500000 8.625000
-11.000000 -0.500000 8.625000
11.000000 -0.500000 8.625000
11.000000 0.500000 8.625000
-11.500000 -22.750000 8.750000
11.500000 -22.750000 8.750000
11.500000 22.750000 8.750000
-11.500000 22.750000 8.750000
-11.500000 22.750000 8.750000
11.500000 22.750000 8.750000
11.500000 -22.750000 8.750000
-11.500000 -22.750000 8.750000
9.375000 -16.000000 -1.625000
-9.375000 -16.000000 -1.625000
-8.750000 -16.000000 -1.625000
8.750000 -16.000000 -1.625000
-8.750000 17.500000 -1.375000
-8.750000 17.500000 -2.875000
-8.750000 17.500000 7.000000
-8.750000 17.500000 -8.875000
3.375000 -0.500000 7.250000
-3.375000 -0.500000 7.250000
-3.375000 -7.500000 7.250000
3.375000 -7.500000 7.250000
11.000000 -22.250000 7.000000
11.000000 22.250000 7.000000
12.000000 -23.250000 7.000000
-12.000000 -23.250000 7.000000
-11.000000 22.250000 7.000000
-11.000000 -22.250000 7.000000
11.000000 -15.250000 8.625000
11.000000 -14.750000 8.625000
11.000000 -14.750000 7.250000
11.000000 -15.250000 7.250000
-3.875000 -15.250000 8.625000
-3.875000 -22.250000 8.625000
-3.375000 -22.250000 8.625000
-3.375000 -15.250000 8.625000
3.375000 -14.750000 8.625000
-3.375000 -14.750000 8.625000
-3.375000 -8.000000 8.625000
3.375000 -7.500000 8.625000
-3.375000 -7.500000 8.625000
-3.375000 -0.500000 8.625000
-3.875000 -0.500000 8.625000
-3.875000 -7.500000 8.625000
-11.000000 -7.500000 8.625000
-11.000000 -8.000000 8.625000
-3.875000 -8.000000 8.625000
-3.875000 -14.750000 8.625000
-11.000000 -14.750000 8.625000
-11.000000 -15.250000 8.625000
3.875000 -7.500000 8.625000
3.875000 -8.000000 8.625000
3.875000 -8.000000 7.250000
3.875000 -7.500000 7.250000
11.000000 -0.500000 8.625000
11.000000 0.500000 8.625000
11.000000 0.500000 7.250000
11.000000 -0.500000 7.250000
-11.000000 15.250000 7.250000
-11.000000 14.750000 7.250000
-11.000000 14.750000 8.625000
-11.000000 15.250000 8.625000
11.000000 7.500000 7.250000
3.875000 7.500000 7.250000
3.875000 0.500000 7.250000
11.000000 0.500000 7.250000
-3.875000 22.250000 7.250000
-3.875000 15.250000 7.250000
-3.875000 15.250000 8.625000
-3.875000 22.250000 8.625000
-9.375000 -16.000000 -2.625000
9.375000 -16.000000 -2.625000
8.750000 -16.000000 -2.625000
-8.750000 -16.000000 -2.625000
3.875000 -14.750000 8.625000
3.875000 -15.250000 8.625000
3.875000 -15.250000 7.250000
3.875000 -14.750000 7.250000
12.000000 23.250000 8.875000
12.000000 23.250000 7.000000
-12.000000 23.250000 7.000000
-12.000000 23.250000 8.875000
11.000000 -22.250000 8.625000
11.000000 -22.250000 7.250000
3.875000 -22.250000 7.250000
3.875000 -22.250000 8.625000
8.750000 -16.000000 -8.875000
10.250000 -16.000000 -8.875000
10.250000 -17.500000 -8.875000
8.750000 -17.500000 -8.875000
-3.875000 -7.500000 7.250000
-3.875000 -8.000000 7.250000
-3.875000 -8.000000 8.625000
-3.875000 -7.500000 8.625000
8.750000 17.500000 7.000000
10.250000 17.500000 7.000000
10.250000 16.000000 7.000000
8.750000 16.000000 7.000000
-11.000000 -8.000000 8.625000
-11.000000 -8.000000 7.250000
-3.875000 -8.000000 7.250000
-3.875000 -8.000000 8.625000
3.875000 7.500000 8.625000
3.875000 7.500000 7.250000
11.000000 7.500000 7.250000
11.000000 7.500000 8.625000
-10.250000 16.000000 7.000000
-8.750000 16.000000 7.000000
-8.750000 17.500000 7.000000
-10.250000 17.500000 7.000000
3.375000 8.000000 8.625000
3.375000 8.000000 7.250000
-3.375000 8.000000 7.250000
-3.375000 8.000000 8.625000
8.750000 -16.000000 7.000000
10.250000 -16.000000 7.000000
10.250000 -16.000000 -8.875000
8.750000 -16.000000 -8.875000
3.375000 22.250000 7.250000
3.375000 22.250000 8.625000
-3.375000 22.250000 8.625000
-3.375000 22.250000 7.250000
8.750000 -17.500000 -2.875000
-8.750000 -17.500000 -2.875000
-8.750000 -16.625000 -2.875000
8.750000 -16.625000 -2.875000
-11.000000 14.750000 8.625000
-11.000000 14.750000 7.250000
-3.875000 14.750000 7.250000
-3.875000 14.750000 8.625000
11.000000 -7.500000 8.625000
11.000000 -0.500000 8.625000
11.000000 -0.500000 7.250000
11.000000 -7.500000 7.250000
-10.250000 17.500000 -8.875000
-8.750000 17.500000 -8.875000
-8.750000 16.000000 -8.875000
-10.250000 16.000000 -8.875000
-11.000000 8.000000 8.625000
-11.000000 7.500000 8.625000
-11.000000 7.500000 7.250000
-11.000000 8.000000 7.250000
-3.875000 -7.500000 8.625000
-3.875000 -8.000000 8.625000
-3.875000 -8.000000 7.250000
-3.875000 -7.500000 7.250000
-11.000000 -0.500000 8.625000
-11.000000 -0.500000 7.250000
-3.875000 -0.500000 7.250000
-3.875000 -0.500000 8.625000
-3.875000 22.250000 7.250000
-3.875000 22.250000 8.625000
-11.000000 22.250000 8.625000
-11.000000 22.250000 7.250000
8.750000 16.000000 7.000000
8.750000 16.000000 -8.875000
10.250000 16.000000 -8.875000
10.250000 16.000000 7.000000
-3.375000 0.500000 7.250000
-3.375000 0.500000 8.625000
-3.875000 0.500000 8.625000
-3.875000 0.500000 7.250000
8.750000 -16.000000 -8.875000
8.750000 -17.500000 -8.875000
8.750000 -17.500000 7.000000
8.750000 -16.000000 7.000000
-3.375000 7.500000 8.625000
-3.375000 8.000000 8.625000
-3.375000 8.000000 7.250000
-3.375000 7.500000 7.250000
11.000000 7.500000 8.625000
11.000000 8.000000 8.625000
11.000000 8.000000 7.250000
11.000000 7.500000 7.250000
-11.000000 -22.250000 7.000000
11.000000 -22.250000 7.000000
11.000000 -22.250000 7.250000
3.875000 -22.250000 7.250000
3.875000 -22.250000 8.625000
3.375000 -22.250000 8.625000
3.375000 -22.250000 7.250000
-3.375000 -22.250000 7.250000
-3.375000 -22.250000 8.625000
-3.875000 -22.250000 8.625000
-3.875000 -22.250000 7.250000
-11.000000 -22.250000 7.250000
-11.000000 0.500000 7.250000
-11.000000 -0.500000 7.250000
-11.000000 -0.500000 8.625000
-11.000000 0.500000 8.625000
3.375000 -15.250000 7.250000
3.375000 -15.250000 8.625000
-3.375000 -15.250000 8.625000
-3.375000 -15.250000 7.250000
-9.375000 -16.000000 -2.875000
-9.375000 -16.000000 -1.375000
-9.375000 -16.000000 -1.625000
-9.375000 -16.000000 -2.625000
-12.000000 -23.250000 8.875000
12.000000 -23.250000 8.875000
11.500000 22.750000 8.875000
11.500000 -22.750000 8.875000
-11.500000 -22.750000 8.875000
-11.500000 22.750000 8.875000
-12.000000 23.250000 8.875000
3.875000 8.000000 7.250000
3.875000 14.750000 7.250000
3.875000 14.750000 8.625000
3.875000 8.000000 8.625000
-8.750000 -17.500000 -2.875000
-8.750000 -17.500000 -1.375000
-8.750000 -17.500000 -8.875000
-8.750000 -17.500000 7.000000
3.875000 7.500000 7.250000
3.875000 8.000000 7.250000
3.875000 8.000000 8.625000
3.875000 7.500000 8.625000
3.375000 22.250000 7.250000
-3.375000 22.250000 7.250000
-3.375000 15.250000 7.250000
3.375000 15.250000 7.250000
-3.875000 15.250000 7.250000
-3.875000 14.750000 7.250000
-3.875000 14.750000 8.625000
-3.875000 15.250000 8.625000
3.875000 -8.000000 8.625000
3.875000 -14.750000 8.625000
3.875000 -14.750000 7.250000
3.875000 -8.000000 7.250000
3.375000 -22.250000 8.625000
3.375000 -22.250000 7.250000
-3.375000 -22.250000 7.250000
-3.375000 -22.250000 8.625000
3.375000 -8.000000 7.250000
3.375000 -7.500000 7.250000
3.375000 -7.500000 8.625000
3.375000 -8.000000 8.625000
-11.500000 22.750000 8.875000
-11.500000 22.750000 8.750000
11.500000 22.750000 8.750000
11.500000 22.750000 8.875000
3.375000 -14.750000 8.625000
3.375000 -14.750000 7.250000
-3.375000 -14.750000 7.250000
-3.375000 -14.750000 8.625000
-12.000000 23.250000 7.000000
12.000000 23.250000 7.000000
-3.875000 0.500000 7.250000
-3.875000 0.500000 8.625000
-3.375000 0.500000 8.625000
-3.375000 0.500000 7.250000
-10.250000 -17.500000 7.000000
-10.250000 -17.500000 -8.875000
8.750000 -17.500000 -1.375000
8.750000 -17.500000 -2.875000
8.750000 -17.500000 -8.875000
10.250000 -17.500000 -8.875000
10.250000 -17.500000 7.000000
8.750000 -17.500000 7.000000
12.000000 23.250000 8.875000
12.000000 -23.250000 8.875000
12.000000 -23.250000 7.000000
12.000000 23.250000 7.000000
9.375000 16.000000 -1.625000
8.750000 16.000000 -1.625000
8.750000 16.625000 -1.625000
-8.750000 16.625000 -1.625000
-8.750000 16.000000 -1.625000
-9.375000 16.000000 -1.625000
11.500000 22.750000 8.750000
11.500000 -22.750000 8.750000
11.500000 -22.750000 8.875000
11.500000 22.750000 8.875000
8.750000 16.625000 -1.625000
8.750000 16.625000 -1.375000
-8.750000 16.625000 -1.375000
-8.750000 16.625000 -1.625000
-8.750000 -16.625000 -1.625000
8.750000 -16.625000 -1.625000
11.000000 14.750000 7.250000
3.875000 14.750000 7.250000
3.875000 8.000000 7.250000
11.000000 8.000000 7.250000
11.000000 -0.500000 7.250000
3.875000 -0.500000 7.250000
3.875000 -7.500000 7.250000
11.000000 -7.500000 7.250000
11.000000 22.250000 8.625000
11.000000 -22.250000 8.625000
11.500000 -22.750000 8.625000
11.500000 22.750000 8.625000
-11.500000 22.750000 8.625000
-11.500000 -22.750000 8.625000
-11.000000 14.750000 8.625000
-11.000000 22.250000 8.625000
11.000000 15.250000 8.625000
11.000000 22.250000 8.625000
11.000000 22.250000 7.250000
11.000000 15.250000 7.250000
-3.375000 -15.250000 7.250000
-3.375000 -14.750000 7.250000
-3.375000 -14.750000 8.625000
-3.375000 -15.250000 8.625000
9.375000 -16.000000 -1.375000
9.375000 16.000000 -1.375000
9.375000 16.000000 -1.625000
9.375000 -16.000000 -1.625000
-11.000000 22.250000 8.625000
-11.000000 15.250000 8.625000
-11.000000 15.250000 7.250000
-11.000000 22.250000 7.250000
-3.375000 -8.000000 7.250000
-3.375000 -22.250000 7.250000
-3.875000 -22.250000 7.250000
-3.875000 -15.250000 7.250000
-11.000000 -15.250000 7.250000
-11.000000 -14.750000 7.250000
-3.875000 -14.750000 7.250000
-3.875000 -8.000000 7.250000
-11.000000 -8.000000 7.250000
-11.000000 -7.500000 7.250000
-3.875000 -7.500000 7.250000
-3.875000 -0.500000 7.250000
-11.000000 -0.500000 7.250000
-11.000000 0.500000 7.250000
-3.875000 0.500000 7.250000
-3.875000 7.500000 7.250000
-11.000000 7.500000 7.250000
-11.000000 8.000000 7.250000
-3.875000 8.000000 7.250000
-3.875000 14.750000 7.250000
-11.000000 14.750000 7.250000
-11.000000 15.250000 7.250000
-3.875000 15.250000 7.250000
-3.875000 22.250000 7.250000
-3.375000 22.250000 7.250000
-3.375000 15.250000 7.250000
3.375000 15.250000 7.250000
3.375000 22.250000 7.250000
3.875000 22.250000 7.250000
3.875000 15.250000 7.250000
11.000000 15.250000 7.250000
11.000000 14.750000 7.250000
-3.375000 14.750000 7.250000
-3.375000 8.000000 7.250000
3.375000 7.500000 7.250000
-3.375000 7.500000 7.250000
-3.375000 0.500000 7.250000
-3.375000 -0.500000 7.250000
-3.375000 -7.500000 7.250000
3.375000 -7.500000 7.250000
3.375000 -0.500000 7.250000
3.875000 -0.500000 7.250000
3.875000 -7.500000 7.250000
11.000000 -7.500000 7.250000
11.000000 -8.000000 7.250000
3.875000 -8.000000 7.250000
3.875000 -14.750000 7.250000
11.000000 -14.750000 7.250000
11.000000 -15.250000 7.250000
3.875000 -15.250000 7.250000
3.875000 -22.250000 7.250000
3.375000 -22.250000 7.250000
3.375000 -8.000000 7.250000
9.375000 -16.000000 -2.625000
9.375000 16.000000 -2.625000
9.375000 16.000000 -2.875000
9.375000 -16.000000 -2.875000
-3.375000 0.500000 7.250000
-3.375000 0.500000 8.625000
3.375000 0.500000 8.625000
3.375000 0.500000 7.250000
3.375000 -14.750000 8.625000
3.375000 -8.000000 8.625000
3.375000 -8.000000 7.250000
3.375000 -14.750000 7.250000
-8.750000 -16.000000 -8.875000
-10.250000 -16.000000 -8.875000
-8.750000 -16.000000 -1.625000
10.250000 -16.000000 -2.875000
9.375000 -16.000000 -2.875000
9.375000 16.000000 -2.875000
10.250000 16.000000 -2.875000
-11.000000 -15.250000 8.625000
-11.000000 -22.250000 8.625000
-11.000000 -22.250000 7.250000
-11.000000 -15.250000 7.250000
-8.750000 17.500000 -8.875000
-8.750000 17.500000 7.000000
-8.750000 16.000000 7.000000
-8.750000 16.000000 -8.875000
11.000000 -22.250000 7.000000
-11.000000 -22.250000 7.000000
-11.000000 -22.250000 7.250000
-3.875000 -22.250000 7.250000
-3.875000 -22.250000 8.625000
-3.375000 -22.250000 8.625000
-3.375000 -22.250000 7.250000
3.375000 -22.250000 7.250000
3.375000 -22.250000 8.625000
3.875000 -22.250000 8.625000
3.875000 -22.250000 7.250000
11.000000 -22.250000 7.250000
-11.000000 14.750000 8.625000
-11.000000 8.000000 8.625000
-11.000000 8.000000 7.250000
-11.000000 14.750000 7.250000
3.375000 7.500000 7.250000
-3.375000 7.500000 7.250000
-3.375000 0.500000 7.250000
3.375000 0.500000 7.250000
-3.875000 -15.250000 7.250000
-3.875000 -22.250000 7.250000
-3.875000 -22.250000 8.625000
-3.875000 -15.250000 8.625000
-3.875000 -14.750000 7.250000
-3.875000 -15.250000 7.250000
-3.875000 -15.250000 8.625000
-3.875000 -14.750000 8.625000
-11.000000 22.250000 7.000000
-11.000000 -22.250000 7.000000
-11.000000 -22.250000 7.250000
-11.000000 22.250000 7.250000
3.875000 15.250000 7.250000
3.875000 22.250000 7.250000
3.875000 22.250000 8.625000
3.875000 15.250000 8.625000
3.375000 -22.250000 8.625000
3.375000 -15.250000 8.625000
3.375000 -15.250000 7.250000
3.375000 -22.250000 7.250000
8.750000 17.500000 -8.875000
10.250000 17.500000 -8.875000
10.250000 16.000000 -8.875000
8.750000 16.000000 -8.875000
-12.000000 -23.250000 8.875000
-12.000000 23.250000 8.875000
-12.000000 23.250000 7.000000
-12.000000 -23.250000 7.000000
12.000000 23.250000 8.875000
11.000000 -22.250000 7.000000
11.000000 22.250000 7.000000
11.000000 22.250000 7.250000
11.000000 -22.250000 7.250000
-9.375000 16.000000 -2.625000
-8.750000 16.000000 -2.625000
-8.750000 16.625000 -2.625000
8.750000 16.625000 -2.625000
8.750000 16.000000 -2.625000
9.375000 16.000000 -2.625000
-3.375000 15.250000 7.250000
-3.375000 22.250000 7.250000
-3.375000 22.250000 8.625000
-3.375000 15.250000 8.625000
-3.375000 0.500000 7.250000
-3.375000 7.500000 7.250000
-3.375000 7.500000 8.625000
-3.375000 0.500000 8.625000
-8.750000 -16.000000 7.000000
-8.750000 -17.500000 7.000000
-8.750000 -17.500000 -8.875000
-8.750000 -16.000000 -8.875000
11.000000 14.750000 7.250000
11.000000 15.250000 7.250000
11.000000 15.250000 8.625000
11.000000 14.750000 8.625000
-8.750000 16.000000 -1.625000
-8.750000 16.000000 7.000000
-10.250000 16.000000 7.000000
-10.250000 16.000000 -1.375000
-8.750000 16.000000 -8.875000
-10.250000 16.000000 -8.875000
10.250000 16.000000 -8.875000
10.250000 17.500000 -8.875000
10.250000 17.500000 7.000000
10.250000 16.000000 7.000000
10.250000 16.000000 -1.375000
10.250000 -16.000000 -1.375000
10.250000 -16.000000 7.000000
10.250000 -17.500000 7.000000
10.250000 -17.500000 -8.875000
10.250000 -16.000000 -8.875000
10.250000 -16.000000 -2.875000
10.250000 16.000000 -2.875000
-3.375000 -8.000000 7.250000
-3.375000 -22.250000 7.250000
3.375000 -22.250000 7.250000
3.375000 -8.000000 7.250000
-3.375000 7.500000 7.250000
-3.375000 8.000000 7.250000
-3.375000 8.000000 8.625000
-3.375000 7.500000 8.625000
-11.500000 -22.750000 8.625000
-11.500000 22.750000 8.625000
-11.500000 22.750000 8.750000
-11.500000 -22.750000 8.750000
8.750000 16.000000 7.000000
8.750000 17.500000 7.000000
8.750000 17.500000 -8.875000
8.750000 16.000000 -8.875000
3.875000 -7.500000 7.250000
3.875000 -8.000000 7.250000
3.875000 -8.000000 8.625000
3.875000 -7.500000 8.625000
-11.000000 -15.250000 8.625000
-11.000000 -15.250000 7.250000
-3.875000 -15.250000 7.250000
-3.875000 -15.250000 8.625000
12.000000 -23.250000 7.000000
12.000000 -23.250000 8.875000
-12.000000 -23.250000 8.875000
-12.000000 -23.250000 7.000000
8.750000 16.625000 -2.875000
-8.750000 16.625000 -2.875000
-8.750000 17.500000 -2.875000
8.750000 17.500000 -2.875000
8.750000 17.500000 -8.875000
8.750000 17.500000 -2.875000
8.750000 17.500000 -1.375000
8.750000 17.500000 7.000000
10.250000 17.500000 7.000000
10.250000 17.500000 -8.875000
11.000000 -7.500000 8.625000
11.000000 -7.500000 7.250000
3.875000 -7.500000 7.250000
3.875000 -7.500000 8.625000
11.500000 -22.750000 8.750000
11.500000 -22.750000 8.875000
-11.500000 -22.750000 8.875000
-11.500000 -22.750000 8.750000
-3.375000 7.500000 8.625000
-3.375000 7.500000 7.250000
3.375000 7.500000 7.250000
3.375000 7.500000 8.625000
8.750000 -16.625000 -1.375000
8.750000 -16.625000 -1.625000
-8.750000 -16.625000 -1.625000
-8.750000 -16.625000 -1.375000
11.000000 -8.000000 7.250000
11.000000 -8.000000 8.625000
3.875000 -8.000000 8.625000
3.875000 -8.000000 7.250000
3.875000 0.500000 7.250000
3.875000 0.500000 8.625000
11.000000 0.500000 8.625000
11.000000 0.500000 7.250000
11.000000 -22.250000 8.625000
11.000000 -15.250000 8.625000
11.000000 -15.250000 7.250000
11.000000 -22.250000 7.250000
-11.000000 8.000000 7.250000
-11.000000 8.000000 8.625000
-3.875000 8.000000 8.625000
-3.875000 8.000000 7.250000
-11.000000 -7.500000 8.625000
-11.000000 -8.000000 8.625000
-11.000000 -8.000000 7.250000
-11.000000 -7.500000 7.250000
-3.375000 -0.500000 8.625000
-3.375000 -0.500000 7.250000
3.375000 -0.500000 7.250000
3.375000 -0.500000 8.625000
-11.000000 -22.250000 7.250000
-11.000000 22.250000 7.250000
-11.000000 15.250000 7.250000
-11.000000 14.750000 7.250000
-11.000000 -22.250000 7.000000
-11.000000 22.250000 7.000000
11.000000 8.000000 8.625000
11.000000 14.750000 8.625000
11.000000 14.750000 7.250000
11.000000 8.000000 7.250000
-11.000000 15.250000 8.625000
-11.000000 14.750000 8.625000
-3.875000 -14.750000 8.625000
-3.875000 -15.250000 8.625000
-3.875000 -15.250000 7.250000
-3.875000 -14.750000 7.250000
3.375000 8.000000 7.250000
3.375000 14.750000 7.250000
3.875000 14.750000 7.250000
3.875000 8.000000 7.250000
11.000000 8.000000 7.250000
11.000000 7.500000 7.250000
3.875000 7.500000 7.250000
3.875000 0.500000 7.250000
11.000000 0.500000 7.250000
11.000000 -0.500000 7.250000
3.375000 0.500000 7.250000
11.000000 22.250000 7.000000
11.000000 -22.250000 7.000000
11.000000 -22.250000 7.250000
11.000000 22.250000 7.250000
-3.875000 8.000000 8.625000
-3.875000 7.500000 8.625000
-3.875000 7.500000 7.250000
-3.875000 8.000000 7.250000
11.000000 -8.000000 7.250000
11.000000 -7.500000 7.250000
11.000000 14.750000 7.250000
11.000000 15.250000 7.250000
-3.875000 0.500000 8.625000
-3.375000 0.500000 8.625000
-3.375000 22.250000 8.625000
-3.875000 22.250000 8.625000
11.000000 -14.750000 8.625000
11.000000 -14.750000 7.250000
3.875000 -14.750000 7.250000
3.875000 -14.750000 8.625000
8.750000 -16.625000 -2.625000
8.750000 -16.625000 -2.875000
-8.750000 -16.625000 -2.875000
-8.750000 -16.625000 -2.625000
-3.375000 -15.250000 8.625000
-3.375000 -14.750000 8.625000
-3.375000 -14.750000 7.250000
-3.375000 -15.250000 7.250000
11.000000 8.000000 8.625000
3.875000 8.000000 8.625000
3.875000 7.500000 8.625000
11.000000 7.500000 8.625000
3.375000 0.500000 8.625000
3.875000 0.500000 8.625000
3.875000 22.250000 8.625000
3.375000 22.250000 8.625000
-10.250000 17.500000 -8.875000
-10.250000 17.500000 7.000000
-3.375000 -8.000000 8.625000
-3.375000 -7.500000 8.625000
-3.375000 -7.500000 7.250000
-3.375000 -8.000000 7.250000
-3.375000 -0.500000 8.625000
-3.375000 -0.500000 7.250000
-3.875000 -0.500000 7.250000
-3.875000 -0.500000 8.625000
-3.375000 -22.250000 7.250000
-3.375000 -15.250000 7.250000
-3.375000 -15.250000 8.625000
-3.375000 -22.250000 8.625000
3.875000 -15.250000 8.625000
3.875000 -22.250000 8.625000
3.875000 -22.250000 7.250000
3.875000 -15.250000 7.250000
11.000000 14.750000 8.625000
11.000000 15.250000 8.625000
-3.875000 -8.000000 7.250000
-3.875000 -14.750000 7.250000
-3.875000 -14.750000 8.625000
-3.875000 -8.000000 8.625000
3.875000 -0.500000 8.625000
3.875000 -0.500000 7.250000
3.375000 -0.500000 7.250000
3.375000 -0.500000 8.625000
11.000000 -8.000000 8.625000
11.000000 -7.500000 8.625000
-3.875000 15.250000 8.625000
-3.875000 14.750000 8.625000
-3.875000 14.750000 7.250000
-3.875000 15.250000 7.250000
-3.375000 -7.500000 7.250000
-3.375000 -0.500000 7.250000
-3.375000 -0.500000 8.625000
-3.375000 -7.500000 8.625000
8.750000 -17.500000 7.000000
10.250000 -17.500000 7.000000
10.250000 -16.000000 7.000000
8.750000 -16.000000 7.000000
-3.875000 -0.500000 7.250000
-3.875000 -7.500000 7.250000
-3.875000 -7.500000 8.625000
-3.875000 -0.500000 8.625000
-3.375000 14.750000 8.625000
-3.375000 15.250000 8.625000
-3.375000 15.250000 7.250000
-3.375000 14.750000 7.250000
3.375000 0.500000 8.625000
3.375000 7.500000 8.625000
3.375000 7.500000 7.250000
3.375000 0.500000 7.250000
3.375000 -8.000000 8.625000
3.375000 -7.500000 8.625000
3.375000 -7.500000 7.250000
3.375000 -8.000000 7.250000
3.375000 -15.250000 8.625000
3.375000 -22.250000 8.625000
3.875000 -22.250000 8.625000
3.875000 -15.250000 8.625000
11.000000 -15.250000 8.625000
11.000000 -14.750000 8.625000
3.875000 -14.750000 8.625000
3.875000 -8.000000 8.625000
11.000000 -8.000000 8.625000
11.000000 -7.500000 8.625000
3.875000 -7.500000 8.625000
3.875000 -0.500000 8.625000
3.375000 -0.500000 8.625000
3.375000 -8.000000 8.625000
11.000000 -14.750000 8.625000
11.000000 -8.000000 8.625000
11.000000 -8.000000 7.250000
11.000000 -14.750000 7.250000
3.875000 0.500000 7.250000
3.875000 7.500000 7.250000
3.875000 7.500000 8.625000
3.875000 0.500000 8.625000
3.875000 7.500000 8.625000
3.875000 8.000000 8.625000
3.875000 8.000000 7.250000
3.875000 7.500000 7.250000
-11.000000 -15.250000 7.250000
-11.000000 -14.750000 7.250000
-11.000000 -8.000000 7.250000
-11.000000 -7.500000 7.250000
-11.000000 -15.250000 8.625000
-11.000000 -14.750000 8.625000
-3.375000 7.500000 8.625000
3.375000 7.500000 8.625000
3.375000 8.000000 8.625000
-3.375000 8.000000 8.625000
11.000000 0.500000 8.625000
11.000000 7.500000 8.625000
11.000000 7.500000 7.250000
11.000000 0.500000 7.250000
-11.500000 22.750000 8.750000
-11.500000 22.750000 8.625000
11.500000 22.750000 8.625000
11.500000 22.750000 8.750000
-11.000000 -8.000000 8.625000
-11.000000 -7.500000 8.625000
3.375000 8.000000 8.625000
3.375000 14.750000 8.625000
3.375000 14.750000 7.250000
3.375000 8.000000 7.250000
3.375000 15.250000 8.625000
3.375000 22.250000 8.625000
3.375000 22.250000 7.250000
3.375000 15.250000 7.250000
-10.250000 -16.000000 -1.375000
-9.375000 -16.000000 -1.375000
-9.375000 16.000000 -1.375000
-10.250000 16.000000 -1.375000
-3.375000 14.750000 8.625000
3.375000 14.750000 8.625000
3.375000 15.250000 8.625000
-3.375000 15.250000 8.625000
3.375000 7.500000 8.625000
3.375000 8.000000 8.625000
3.375000 8.000000 7.250000
3.375000 7.500000 7.250000
3.875000 0.500000 7.250000
3.875000 0.500000 8.625000
3.375000 0.500000 8.625000
3.375000 0.500000 7.250000
-3.875000 22.250000 8.625000
-3.875000 22.250000 7.250000
-11.000000 22.250000 7.250000
-11.000000 22.250000 7.000000
11.000000 22.250000 7.000000
11.000000 22.250000 7.250000
3.875000 22.250000 7.250000
3.875000 22.250000 8.625000
3.375000 22.250000 8.625000
3.375000 22.250000 7.250000
-3.375000 22.250000 7.250000
-3.375000 22.250000 8.625000
8.750000 -16.625000 -2.625000
-8.750000 -16.625000 -2.625000
-9.375000 16.000000 -1.375000
-9.375000 -16.000000 -1.375000
-9.375000 -16.000000 -1.625000
-9.375000 16.000000 -1.625000
-3.375000 22.250000 7.250000
3.375000 22.250000 7.250000
3.375000 22.250000 8.625000
3.875000 22.250000 8.625000
3.875000 22.250000 7.250000
11.000000 22.250000 7.250000
11.000000 22.250000 7.000000
-11.000000 22.250000 7.000000
-11.000000 22.250000 7.250000
-3.875000 22.250000 7.250000
-3.875000 22.250000 8.625000
-3.375000 22.250000 8.625000
11.000000 8.000000 7.250000
11.000000 7.500000 7.250000
11.000000 0.500000 7.250000
11.000000 -0.500000 7.250000
11.000000 -7.500000 7.250000
11.000000 -8.000000 7.250000
11.000000 -14.750000 7.250000
11.000000 -15.250000 7.250000
-3.875000 8.000000 8.625000
-11.000000 8.000000 8.625000
-11.000000 7.500000 8.625000
-3.875000 7.500000 8.625000
8.750000 16.625000 -2.875000
8.750000 16.625000 -2.625000
-8.750000 16.625000 -2.625000
-8.750000 16.625000 -2.875000
-3.875000 7.500000 7.250000
-3.875000 0.500000 7.250000
-3.875000 0.500000 8.625000
-3.875000 7.500000 8.625000
-11.500000 -22.750000 8.875000
-11.500000 22.750000 8.875000
-11.500000 22.750000 8.750000
-11.500000 -22.750000 8.750000
-3.375000 8.000000 7.250000
-3.375000 14.750000 7.250000
-3.375000 14.750000 8.625000
-3.375000 8.000000 8.625000
-3.875000 22.250000 7.250000
-11.000000 22.250000 7.250000
-11.000000 15.250000 7.250000
-3.875000 15.250000 7.250000
-3.875000 15.250000 8.625000
-11.000000 15.250000 8.625000
-11.000000 14.750000 8.625000
-3.875000 14.750000 8.625000
-3.375000 15.250000 7.250000
-3.375000 22.250000 7.250000
-3.875000 22.250000 7.250000
-3.875000 15.250000 7.250000
-11.000000 15.250000 7.250000
-11.000000 14.750000 7.250000
-3.875000 14.750000 7.250000
-3.875000 8.000000 7.250000
-11.000000 8.000000 7.250000
-11.000000 7.500000 7.250000
-3.875000 7.500000 7.250000
-3.375000 7.500000 7.250000
3.375000 7.500000 7.250000
3.375000 0.500000 7.250000
-3.375000 0.500000 7.250000
-3.375000 -0.500000 7.250000
11.000000 -0.500000 7.250000
11.000000 0.500000 7.250000
3.875000 0.500000 7.250000
3.875000 7.500000 7.250000
11.000000 7.500000 7.250000
11.000000 8.000000 7.250000
3.875000 8.000000 7.250000
3.875000 14.750000 7.250000
3.375000 14.750000 7.250000
3.375000 8.000000 7.250000
-3.375000 8.000000 7.250000
-3.375000 14.750000 7.250000
11.000000 14.750000 7.250000
11.000000 15.250000 7.250000
3.875000 15.250000 7.250000
3.875000 22.250000 7.250000
3.375000 22.250000 7.250000
3.375000 15.250000 7.250000
-3.875000 8.000000 7.250000
-3.875000 7.500000 7.250000
-3.875000 7.500000 8.625000
-3.875000 8.000000 8.625000
3.375000 -0.500000 7.250000
3.875000 -0.500000 7.250000
3.375000 -7.500000 8.625000
3.375000 -7.500000 7.250000
-3.375000 -7.500000 7.250000
-3.375000 -7.500000 8.625000
-3.875000 7.500000 7.250000
-11.000000 7.500000 7.250000
-11.000000 0.500000 7.250000
-3.875000 0.500000 7.250000
3.875000 14.750000 8.625000
11.000000 14.750000 8.625000
11.000000 15.250000 8.625000
3.875000 15.250000 8.625000
11.000000 -15.250000 7.250000
3.875000 -15.250000 7.250000
3.875000 -22.250000 7.250000
11.000000 -22.250000 7.250000
-3.375000 -8.000000 7.250000
-3.375000 -7.500000 7.250000
-3.375000 -7.500000 8.625000
-3.375000 -8.000000 8.625000
-3.875000 -0.500000 8.625000
-3.875000 -0.500000 7.250000
-3.375000 -0.500000 7.250000
-3.375000 -0.500000 8.625000
-3.875000 -0.500000 7.250000
-11.000000 -0.500000 7.250000
-11.000000 -7.500000 7.250000
-3.875000 -7.500000 7.250000
11.000000 -8.000000 7.250000
3.875000 -8.000000 7.250000
3.875000 -14.750000 7.250000
11.000000 -14.750000 7.250000
-11.000000 -0.500000 8.625000
-11.000000 -7.500000 8.625000
-11.000000 -7.500000 7.250000
-11.000000 -0.500000 7.250000
11.000000 8.000000 8.625000
11.000000 7.500000 8.625000
11.000000 0.500000 8.625000
11.000000 -0.500000 8.625000
-3.375000 -8.000000 8.625000
-3.375000 -8.000000 7.250000
3.375000 -8.000000 7.250000
3.375000 -8.000000 8.625000
3.375000 -7.500000 7.250000
-3.375000 -7.500000 7.250000
-3.875000 0.500000 7.250000
-11.000000 0.500000 7.250000
-11.000000 -0.500000 7.250000
-3.875000 -0.500000 7.250000
-3.875000 -7.500000 7.250000
-11.000000 -7.500000 7.250000
-11.000000 -8.000000 7.250000
-3.875000 -8.000000 7.250000
-3.875000 -14.750000 7.250000
-11.000000 -14.750000 7.250000
-11.000000 -15.250000 7.250000
-3.875000 -15.250000 7.250000
-3.875000 -22.250000 7.250000
-3.375000 -22.250000 7.250000
-3.375000 -8.000000 7.250000
3.375000 -8.000000 7.250000
3.375000 -22.250000 7.250000
3.875000 -22.250000 7.250000
3.875000 -15.250000 7.250000
11.000000 -15.250000 7.250000
11.000000 -14.750000 7.250000
3.875000 -14.750000 7.250000
3.875000 -8.000000 7.250000
11.000000 -8.000000 7.250000
11.000000 -7.500000 7.250000
3.875000 -7.500000 7.250000
3.875000 -14.750000 7.250000
3.875000 -15.250000 7.250000
3.875000 -15.250000 8.625000
3.875000 -14.750000 8.625000
-3.375000 14.750000 7.250000
-3.375000 15.250000 7.250000
-3.375000 15.250000 8.625000
-3.375000 14.750000 8.625000
11.000000 -7.500000 8.625000
11.000000 -8.000000 8.625000
-10.250000 -16.000000 -8.875000
-8.750000 -16.000000 -8.875000
-8.750000 -17.500000 -8.875000
-10.250000 -17.500000 -8.875000
3.375000 -0.500000 8.625000
3.375000 -0.500000 7.250000
3.875000 -0.500000 7.250000
3.875000 -0.500000 8.625000
-9.375000 -16.000000 -2.875000
-10.250000 -16.000000 -2.875000
-10.250000 16.000000 -2.875000
-9.375000 16.000000 -2.875000
3.375000 0.500000 7.250000
3.375000 0.500000 8.625000
3.875000 0.500000 8.625000
3.875000 0.500000 7.250000
11.000000 -14.750000 8.625000
11.000000 -15.250000 8.625000
-11.000000 15.250000 7.250000
-11.000000 15.250000 8.625000
-3.875000 15.250000 8.625000
-3.875000 15.250000 7.250000
8.750000 -16.000000 7.000000
10.250000 -16.000000 7.000000
10.250000 -17.500000 7.000000
8.750000 -17.500000 7.000000
11.000000 22.250000 7.250000
11.000000 22.250000 8.625000
3.875000 22.250000 8.625000
3.875000 22.250000 7.250000
-3.875000 -7.500000 8.625000
-3.875000 -7.500000 7.250000
-11.000000 -7.500000 7.250000
-11.000000 -7.500000 8.625000
-11.500000 -22.750000 8.625000
-11.500000 -22.750000 8.750000
11.500000 -22.750000 8.750000
11.500000 -22.750000 8.625000
8.750000 16.000000 7.000000
10.250000 16.000000 7.000000
10.250000 17.500000 7.000000
8.750000 17.500000 7.000000
-10.250000 -16.000000 7.000000
-8.750000 -16.000000 7.000000
-8.750000 -17.500000 7.000000
-10.250000 -17.500000 7.000000
3.875000 -15.250000 8.625000
3.875000 -15.250000 7.250000
11.000000 -15.250000 7.250000
11.000000 -15.250000 8.625000
-10.250000 -17.500000 7.000000
-8.750000 -17.500000 7.000000
-8.750000 -16.000000 7.000000
-10.250000 -16.000000 7.000000
3.375000 7.500000 7.250000
3.375000 8.000000 7.250000
3.375000 8.000000 8.625000
3.375000 7.500000 8.625000
-10.250000 17.500000 7.000000
-8.750000 17.500000 7.000000
-8.750000 16.000000 7.000000
-10.250000 16.000000 7.000000
-3.875000 -14.750000 8.625000
-3.875000 -14.750000 7.250000
-11.000000 -14.750000 7.250000
-11.000000 -14.750000 8.625000
-10.250000 -16.000000 7.000000
-8.750000 -16.000000 7.000000
-11.000000 -22.250000 8.625000
-3.875000 -15.250000 7.250000
-11.000000 -15.250000 7.250000
-11.000000 -22.250000 7.250000
-3.875000 -22.250000 7.250000
11.500000 22.750000 8.875000
11.500000 22.750000 8.750000
-11.500000 22.750000 8.750000
-11.500000 22.750000 8.875000
-3.875000 -22.250000 8.625000
-3.875000 -22.250000 7.250000
-11.000000 -22.250000 7.250000
-11.000000 -22.250000 8.625000
-3.875000 7.500000 7.250000
-3.875000 7.500000 8.625000
-11.000000 7.500000 8.625000
-11.000000 7.500000 7.250000
3.875000 -0.500000 8.625000
3.875000 -0.500000 7.250000
11.000000 -0.500000 7.250000
11.000000 -0.500000 8.625000
3.375000 14.750000 7.250000
3.375000 14.750000 8.625000
-3.375000 14.750000 8.625000
-3.375000 14.750000 7.250000
-3.375000 15.250000 8.625000
3.375000 15.250000 8.625000
3.375000 15.250000 7.250000
-3.375000 15.250000 7.250000
10.250000 16.000000 7.000000
10.250000 17.500000 7.000000
11.000000 -16.481300 7.000000
11.000000 -22.250000 7.000000
-11.000000 -22.250000 7.000000
10.250000 -17.500000 7.000000
10.250000 -16.000000 7.000000
-10.250000 -16.000000 7.000000
11.000000 22.250000 7.250000
3.875000 22.250000 7.250000
3.875000 15.250000 7.250000
11.000000 15.250000 7.250000
8.750000 -16.000000 7.000000
-8.750000 -16.000000 7.000000
8.750000 17.500000 7.000000
-8.750000 17.500000 7.000000
-10.250000 17.500000 7.000000
-11.000000 22.250000 7.000000
11.000000 22.250000 7.000000
-10.250000 16.000000 7.000000
-8.750000 16.000000 7.000000
8.750000 16.000000 7.000000
-10.250000 -17.500000 7.000000
-8.750000 -17.500000 7.000000
8.750000 -17.500000 7.000000
3.875000 15.250000 7.250000
3.875000 15.250000 8.625000
11.000000 15.250000 8.625000
11.000000 15.250000 7.250000
11.500000 22.750000 8.625000
11.500000 -22.750000 8.625000
11.500000 -22.750000 8.750000
11.500000 22.750000 8.750000
11.500000 22.750000 8.875000
11.500000 -22.750000 8.875000
11.500000 -22.750000 8.750000
11.500000 22.750000 8.750000
3.375000 14.750000 7.250000
-3.375000 14.750000 7.250000
-3.375000 8.000000 7.250000
3.375000 8.000000 7.250000
3.875000 -0.500000 8.625000
3.875000 -7.500000 8.625000
3.875000 -7.500000 7.250000
3.875000 -0.500000 7.250000
3.875000 14.750000 8.625000
3.875000 14.750000 7.250000
11.000000 14.750000 7.250000
11.000000 14.750000 8.625000
-11.500000 -22.750000 8.750000
-11.500000 -22.750000 8.875000
11.500000 -22.750000 8.875000
11.500000 -22.750000 8.750000
-11.500000 -22.750000 8.750000
-11.500000 22.750000 8.750000
-11.500000 22.750000 8.875000
-11.500000 -22.750000 8.875000
4 0 1 2 3
4 4 5 6 7
4 8 9 10 11
4 12 13 14 15
4 16 17 18 19
4 20 21 22 23
4 24 25 26 27
4 28 29 30 31
4 32 33 34 35
4 36 37 38 39
4 40 41 42 43
12 44 45 46 47 48 49 50 51 52 53 54 55
4 56 57 58 59
4 60 61 62 63
4 64 65 66 67
4 68 69 70 71
4 72 73 74 75
4 76 77 78 79
4 80 81 82 83
4 84 85 86 87
3 88 89 90
3 88 90 91
3 92 93 94
3 93 95 94
4 96 97 98 99
6 100 101 102 103 104 105
4 106 107 108 109
18 110 111 112 113 114 115 116 117 118 119 120 121 122 123 124 125 126 127
4 128 129 130 131
4 132 133 134 135
4 136 137 138 139
4 140 141 142 143
4 144 145 146 147
3 148 149 150
3 148 150 151
4 152 153 154 155
4 156 157 158 159
4 160 161 162 163
4 164 165 166 167
4 168 169 170 171
4 172 173 174 175
4 176 177 178 179
4 180 181 182 183
4 184 185 186 187
4 188 189 190 191
4 192 193 194 195
4 196 197 198 199
4 200 201 202 203
4 204 205 206 207
4 208 209 210 211
4 212 213 214 215
4 216 217 218 219
4 220 221 222 223
4 224 225 226 227
4 228 229 230 231
4 232 233 234 235
4 236 237 238 239
4 240 241 242 243
4 244 245 246 247
4 248 249 250 251
12 252 253 254 255 256 257 258 259 260 261 262 263
4 264 265 266 267
4 268 269 270 271
3 272 273 274
3 272 274 275
7 276 277 278 279 280 281 282
4 283 284 285 286
3 287 288 289
3 288 290 289
4 291 292 293 294
4 295 296 297 298
4 299 300 301 302
4 303 304 305 306
4 307 308 309 310
4 311 312 313 314
4 315 316 317 318
4 319 320 321 322
6 104 103 323 324 102 101
4 325 326 327 328
4 329 330 289 290
8 331 288 287 332 333 334 335 336
4 337 338 339 340
8 89 88 341 342 343 344 345 346
4 347 348 349 350
4 351 352 353 354
4 355 356 91 90
4 357 358 359 360
4 361 362 363 364
8 365 366 367 368 369 370 371 372
4 373 374 375 376
4 377 378 379 380
4 381 382 383 384
4 385 386 387 388
53 389 390 391 392 393 394 395 396 397 398 399 400 401 402 403 404 405 406 407 408 409 410 411 412 413 414 415 416 417 418 419 420 421 422 423 424 425 426 427 428 429 430 431 432 433 434 435 436 437 438 439 440 441
4 442 443 444 445
4 446 447 448 449
4 450 451 452 453
5 454 455 272 275 456
4 457 458 459 460
4 461 462 463 464
4 465 466 467 468
12 469 470 471 472 473 474 475 476 477 478 479 480
4 481 482 483 484
4 485 486 487 488
4 489 490 491 492
4 493 494 495 496
4 497 498 499 500
4 501 502 503 504
4 505 506 507 508
4 509 510 511 512
4 513 514 515 516
5 281 278 277 517 282
4 518 519 520 521
8 522 523 524 525 526 527 149 148
4 528 529 530 531
4 532 533 534 535
4 536 537 538 539
4 540 541 542 543
4 544 545 546 547
4 548 544 547 549
12 550 551 552 553 554 555 556 557 558 559 560 561
4 562 563 564 565
4 566 567 568 569
4 570 571 572 573
4 574 575 576 577
4 578 579 580 581
4 582 583 584 585
4 586 587 588 589
4 590 591 592 593
8 594 595 93 92 596 597 598 599
4 600 601 602 603
4 604 605 606 607
4 608 609 610 611
4 612 613 614 615
4 616 617 618 619
4 620 621 622 623
4 624 625 626 627
4 628 629 630 631
4 632 633 634 635
4 636 637 638 639
3 640 641 642
3 640 642 643
3 640 643 219
3 640 219 218
3 640 218 67
3 640 67 66
3 640 66 635
3 640 635 634
3 640 634 31
3 640 31 30
4 641 640 644 645
4 646 647 648 649
4 650 651 643 642
4 652 653 654 655
15 656 657 658 659 660 661 662 663 664 665 426 425 666 423 422
4 667 668 669 670
4 671 672 673 674
3 670 669 109
3 670 109 108
3 670 108 675
3 670 675 676
3 670 676 135
3 670 135 134
3 670 134 251
3 670 251 250
3 670 250 677
3 670 677 678
4 679 680 681 682
4 683 684 685 686
4 687 688 689 690
4 691 692 693 694
3 426 665 430
3 426 430 429
4 695 696 697 698
4 699 700 701 702
4 703 704 94 95
4 705 706 707 708
4 709 710 711 712
4 713 714 715 716
4 717 718 719 720
3 421 420 658
3 421 658 657
4 721 722 678 677
4 723 724 725 726
4 727 728 729 730
4 731 732 676 675
4 733 734 735 736
4 737 738 739 740
4 741 742 743 744
4 745 746 747 748
4 749 750 751 752
4 753 754 755 756
4 757 758 759 760
18 114 113 761 762 763 764 765 766 767 768 769 770 771 772 773 117 116 774
4 775 776 777 778
4 779 780 781 782
4 783 784 785 786
3 787 788 499
3 788 789 499
3 789 790 499
3 790 265 499
3 265 264 499
3 264 9 499
3 9 8 499
3 8 137 499
3 137 136 499
3 136 500 499
4 788 787 791 792
4 793 794 795 796
4 797 798 799 800
4 801 802 803 804
4 790 789 805 806
4 807 808 809 810
4 811 812 813 814
4 815 816 817 818
4 819 820 821 822
4 823 824 825 826
4 827 828 829 830
12 831 832 833 834 835 836 837 838 839 840 841 842
4 843 844 151 150
4 845 846 847 848
12 849 850 851 852 853 854 855 856 857 858 859 860
3 541 540 520
3 540 861 520
3 861 862 520
3 862 863 520
3 863 864 520
3 864 865 520
3 865 866 520
3 866 867 520
3 867 868 520
3 868 521 520
4 869 870 871 872
4 873 874 875 876
4 877 878 879 880
4 881 882 883 884
4 885 886 887 888
4 889 890 891 892
4 893 894 895 896
34 897 898 899 900 901 902 903 904 905 906 907 908 909 910 911 912 913 914 915 916 917 918 919 920 921 922 923 924 925 926 927 928 929 930
4 931 932 933 934
3 935 936 912
3 936 913 912
4 937 938 939 940
4 941 942 943 944
4 945 946 947 948
4 949 950 951 952
4 953 954 955 956
4 957 958 959 960
4 961 962 963 964
4 965 966 967 968
4 969 970 971 972
3 921 920 924
3 920 925 924
4 862 861 973 974
4 864 863 975 976
4 977 978 979 980
34 936 935 981 982 912 911 908 907 983 984 985 986 987 988 989 990 991 992 993 994 995 996 997 998 999 1000 1001 1002 1003 1004 1005 1006 1007 1008
4 1009 1010 1011 1012
4 1013 1014 1015 1016
4 866 865 1017 1018
4 1019 1020 1021 1022
4 1023 1024 1025 1026
4 1027 1028 1029 1030
4 1031 1032 1033 1034
4 868 867 1035 1036
4 1037 1038 1039 1040
4 1041 1042 1043 1044
4 1045 1046 1047 1048
4 1049 1050 1051 1052
4 1053 1054 1055 1056
4 1057 1058 1059 1060
4 1061 1062 1063 1064
4 1065 1066 1067 1068
4 1069 1070 1071 1072
4 1073 1074 1075 1076
4 1077 1078 1079 1080
4 1081 1082 1083 1084
8 456 275 274 273 272 455 1085 1086
5 1087 371 370 367 366
4 1088 1089 1090 1091
4 1092 1093 1094 1095
4 1096 1097 1098 1099
4 1100 1101 1102 1103
4 1104 1105 1106 1107
4 1108 1109 1110 1111
4 1112 1113 1114 1115
8 1116 1117 1118 1119 1120 1121 1122 1123
4 1124 1125 1126 1127
3 1128 1129 1122
3 1129 1123 1122
3 1130 1131 1117
3 1131 1132 1117
19 1120 1133 1134 1118 1117 1132 1135 1136 1131 1130 1137 1116 1123 1138 1139 1129 1128 1140 1121
4 1141 1142 1143 1144
4 1145 1146 1147 1148
4 1149 1150 1151 1152
4 1153 1154 1155 1156
4 1157 1158 1159 1160
4 1161 1162 1163 1164
4 1165 1166 1167 1168
4 1169 1170 1171 1172
