ply
format ascii 1.0
comment Created by Blender 2.82 (sub 7) - www.blender.org, source file: ''
element vertex 1194
property float x
property float y
property float z
element face 288
property list uchar uint vertex_indices
end_header
-17.826660 -30.244564 15.602200
-17.629780 -30.130865 15.602200
-18.690859 -27.569265 15.602200
-18.910450 -27.628065 15.602200
10.442650 -32.764866 0.147800
7.874950 -33.102863 0.147800
7.874950 -33.102863 1.098700
10.442650 -32.764866 1.098700
11.239250 -35.299267 13.871500
8.431350 -35.668964 13.871500
8.431350 -35.441566 13.871500
11.180350 -35.079666 13.871500
14.889850 30.197266 0.147800
12.835250 31.773815 0.147800
12.941450 31.957705 0.147800
15.039950 30.347404 0.147800
17.662550 0.000035 1.098700
17.457451 0.000035 1.098700
17.457451 -25.749966 1.098700
17.662550 -25.804964 1.098700
16.102551 -32.491364 15.602200
15.941850 -32.330666 15.602200
13.742050 -34.018566 15.602200
13.855750 -34.215466 15.602200
-15.040010 -30.347364 1.098700
-14.889870 -30.197266 1.098700
-16.466419 -28.142666 1.098700
-16.650311 -28.248766 1.098700
11.239250 -35.299267 15.602200
11.180350 -35.079666 15.602200
8.431350 -35.441566 15.602200
8.431350 -35.668964 15.602200
17.457451 25.750034 0.147800
17.662550 25.804935 0.147800
17.662550 0.000035 0.147800
17.457451 0.000035 0.147800
-10.497580 32.969986 0.147800
-12.941430 31.957705 0.147800
-12.941430 31.957705 1.098700
-10.497580 32.969986 1.098700
-16.466419 -28.142666 1.098700
-14.889870 -30.197266 1.098700
-14.889870 -30.197266 0.147800
-16.466419 -28.142666 0.147800
-15.516660 32.220627 15.093300
-15.372740 32.076694 15.093300
-14.388230 33.061195 15.093300
-14.532160 33.205124 15.093300
8.431350 35.441631 13.871500
-8.431350 35.441631 13.871500
-8.431350 35.668964 13.871500
8.431350 35.668964 13.871500
18.690849 0.000035 13.871500
18.910450 0.000035 13.871500
18.910450 -27.628065 13.871500
18.690849 -27.569265 13.871500
16.102551 32.491444 15.602200
15.941850 32.330696 15.602200
17.629749 30.130924 15.602200
17.826651 30.244595 15.602200
17.629749 30.130924 13.871500
15.941850 32.330696 13.871500
16.102551 32.491444 13.871500
17.826651 30.244595 13.871500
17.662550 -25.804964 1.098700
17.457451 -25.749966 1.098700
16.466450 -28.142666 1.098700
16.650249 -28.248766 1.098700
-17.629780 30.130924 13.871500
-15.941840 32.330696 13.871500
-15.941840 32.330696 15.602200
-17.629780 30.130924 15.602200
-14.332750 -30.935265 -12.827900
-15.071060 -31.673565 15.093300
-14.086560 -32.658066 15.093300
-13.348250 -31.919765 -12.827900
16.466450 28.142654 1.098700
14.889850 30.197266 1.098700
14.889850 30.197266 0.147800
16.466450 28.142654 0.147800
14.107150 -31.307665 -12.827900
14.845450 -32.045963 15.093300
15.829950 -31.061464 15.093300
15.091650 -30.323166 -12.827900
-18.910450 27.628096 13.871500
-18.910450 0.000035 13.871500
-18.910450 0.000035 15.602200
-18.910450 27.628096 15.602200
-13.855740 34.215515 15.602200
-13.742070 34.018623 15.602200
-11.180390 35.079712 15.602200
-11.239230 35.299301 15.602200
18.910450 -27.628065 13.871500
17.826651 -30.244564 13.871500
17.629749 -30.130865 13.871500
18.690849 -27.569265 13.871500
-16.102591 32.491444 15.602200
-15.941840 32.330696 15.602200
-13.742080 34.018623 15.602200
-13.855750 34.215504 15.602200
-8.431350 35.441631 15.602200
-8.431350 35.441631 13.871500
8.431350 35.441631 13.871500
8.431350 35.441631 15.602200
-11.239240 35.299301 15.602200
-11.180400 35.079712 15.602200
-8.431350 35.441624 15.602200
-8.431350 35.668964 15.602200
-13.855740 34.215515 13.871500
-11.239230 35.299301 13.871500
-11.180390 35.079712 13.871500
-13.742070 34.018623 13.871500
13.855750 34.215504 15.602200
16.102551 32.491444 15.602200
16.102551 32.491444 13.871500
13.855750 34.215504 13.871500
10.442650 -32.764866 0.848700
-10.442630 -32.764866 0.848700
-14.889870 -30.197266 0.848700
-17.457491 -25.749966 0.848700
-17.457491 25.750034 0.848700
-14.889870 30.197266 0.848700
-10.442630 32.764874 0.848700
10.442650 32.764874 0.848700
12.835250 31.773815 0.848700
16.466450 28.142654 0.848700
17.457451 25.750034 0.848700
17.457451 -25.749966 0.848700
14.889850 -30.197266 0.848700
11.239250 35.299301 15.602200
11.180350 35.079712 15.602200
13.742050 34.018623 15.602200
13.855750 34.215515 15.602200
18.690849 27.569256 15.602200
17.629749 30.130936 15.602200
17.629749 30.130936 13.871500
18.690849 27.569256 13.871500
-13.855750 -34.215466 15.602200
-16.102591 -32.491364 15.602200
-16.102591 -32.491364 13.871500
-13.855750 -34.215466 13.871500
-17.662590 25.804935 1.098700
-17.457491 25.750034 1.098700
-16.466419 28.142666 1.098700
-16.650311 28.248835 1.098700
12.835250 31.773815 0.147800
10.442650 32.764874 0.147800
10.497550 32.969986 0.147800
12.941450 31.957705 0.147800
-16.650311 28.248825 0.147800
-15.040010 30.347416 0.147800
-14.889870 30.197266 0.147800
-16.466419 28.142654 0.147800
-7.875050 -33.315266 0.147800
7.874950 -33.315266 0.147800
7.874950 -33.315266 1.098700
-7.875050 -33.315266 1.098700
-12.835260 -31.773766 1.098700
-10.442620 -32.764866 1.098700
-10.442620 -32.764866 0.147800
-12.835260 -31.773766 0.147800
16.650249 28.248835 1.098700
17.662550 25.804935 1.098700
17.662550 25.804935 0.147800
16.650249 28.248835 0.147800
-17.457491 -25.749966 0.147800
-16.466419 -28.142666 0.147800
-16.650311 -28.248766 0.147800
-17.662590 -25.804964 0.147800
-15.941840 -32.330666 15.602200
-13.742080 -34.018566 15.602200
-13.742080 -34.018566 13.871500
-15.941840 -32.330666 13.871500
-18.690859 -27.569265 13.871500
-18.910450 -27.628065 13.871500
-18.910450 0.000035 13.871500
-18.690859 0.000035 13.871500
-15.941840 -32.330666 13.871500
-13.742080 -34.018566 13.871500
-13.855750 -34.215466 13.871500
-16.102591 -32.491364 13.871500
16.102551 -32.491364 13.871500
13.855750 -34.215466 13.871500
13.742050 -34.018566 13.871500
15.941850 -32.330666 13.871500
-14.086560 32.759525 15.093300
-13.348250 32.021214 -12.827900
-13.981190 32.654156 -14.678315
-14.537950 33.210915 -15.406199
-14.992890 33.665855 -15.406199
-14.236890 32.909855 -14.477290
-13.654510 32.327477 -12.774700
-14.388230 33.061195 15.093300
13.855750 -34.215466 13.871500
11.239250 -35.299267 13.871500
11.180350 -35.079666 13.871500
13.742050 -34.018566 13.871500
17.826651 -30.244564 13.871500
16.102551 -32.491467 13.871500
15.941850 -32.330666 13.871500
17.629749 -30.130865 13.871500
-18.690859 27.569256 13.871500
-17.629780 30.130936 13.871500
-17.629780 30.130936 15.602200
-18.690859 27.569256 15.602200
-18.910450 0.000035 15.602200
-18.690859 0.000035 15.602200
-18.690859 27.569244 15.602200
-18.910450 27.628096 15.602200
12.941450 -31.957664 1.098700
12.835250 -31.773766 1.098700
10.442650 -32.764866 1.098700
10.497550 -32.969967 1.098700
18.910450 -27.628065 13.871500
18.910450 0.000035 13.871500
18.910450 0.000035 15.602200
18.910450 -27.628065 15.602200
16.650249 -28.248766 0.147800
17.662550 -25.804964 0.147800
17.662550 -25.804964 1.098700
16.650249 -28.248766 1.098700
-15.977400 32.681355 -15.406199
-15.221390 31.925356 -14.477290
-14.236890 32.909855 -14.477290
-14.992890 33.665855 -15.406199
-7.875050 33.102917 1.098700
-7.875050 33.102917 0.147800
7.874950 33.102917 0.147800
7.874950 33.102917 1.098700
12.941450 -31.957664 0.147800
15.039950 -30.347364 0.147800
15.039950 -30.347364 1.098700
12.941450 -31.957664 1.098700
7.874950 33.102917 1.098700
7.874950 33.315254 1.098700
-7.875050 33.315254 1.098700
-7.875050 33.102917 1.098700
13.742050 34.018623 13.871500
11.180350 35.079712 13.871500
11.239250 35.299301 13.871500
13.855750 34.215515 13.871500
13.742050 34.018623 15.602200
11.180350 35.079712 15.602200
11.180350 35.079712 13.871500
13.742050 34.018623 13.871500
-14.889870 30.197266 0.147800
-12.835270 31.773815 0.147800
-12.835270 31.773815 1.098700
-14.889870 30.197266 1.098700
-16.650311 28.248835 0.147800
-17.662590 25.804935 0.147800
-17.662590 25.804935 1.098700
-16.650311 28.248835 1.098700
-17.457491 25.750034 0.147800
-16.466419 28.142666 0.147800
-16.466419 28.142666 1.098700
-17.457491 25.750034 1.098700
-15.221390 -31.823866 -14.477290
-14.236890 -32.808365 -14.477290
-13.654510 -32.225964 -12.774700
-14.639010 -31.241465 -12.774700
-10.442620 32.764885 0.147800
-7.875050 33.102917 0.147800
-7.875050 33.102917 1.098700
-10.442620 32.764885 1.098700
-10.497580 32.969986 1.098700
-10.442620 32.764885 1.098700
-7.875050 33.102917 1.098700
-7.874950 33.315247 1.098700
16.281349 31.506775 -15.602200
15.189250 32.598873 -15.602200
15.751750 33.161427 -15.602200
16.843849 32.069324 -15.602200
16.843849 32.069324 -15.406199
16.281349 31.506775 -15.406199
16.281349 31.506775 -15.602200
16.843849 32.069324 -15.602200
16.466450 28.142654 0.147800
14.889850 30.197266 0.147800
15.039950 30.347416 0.147800
16.650249 28.248825 0.147800
15.724550 31.057625 -14.678315
15.091650 30.424675 -12.827900
14.107150 31.409176 -12.827900
14.740050 32.042126 -14.678315
-18.910450 -27.628065 15.602200
-18.690859 -27.569265 15.602200
-18.690859 0.000035 15.602200
-18.910450 0.000035 15.602200
-7.874950 33.315247 0.147800
-10.497580 32.969986 0.147800
-10.497580 32.969986 1.098700
-7.874950 33.315247 1.098700
-18.910450 -27.628065 15.602200
-18.910450 0.000035 15.602200
-18.910450 0.000035 13.871500
-18.910450 -27.628065 13.871500
-13.348250 32.021214 -12.827900
-14.086560 32.759525 15.093300
-15.071060 31.775024 15.093300
-14.332750 31.036715 -12.827900
15.277850 -32.478367 14.930000
15.137250 -32.337765 14.965500
16.121750 -31.353266 14.965500
16.262350 -31.493864 14.930000
15.189250 -32.497364 -15.406199
15.751750 -33.059963 -15.406199
15.751750 -32.952366 -15.406199
15.296850 -32.497364 -15.406199
16.281349 -31.512865 -15.406199
-11.180400 -35.079666 15.602200
-8.431350 -35.441566 15.602200
-8.431350 -35.441566 13.871500
-11.180400 -35.079666 13.871500
13.855750 -34.215466 15.602200
13.742050 -34.018566 15.602200
11.180350 -35.079666 15.602200
11.239250 -35.299267 15.602200
11.180350 -35.079666 13.871500
8.431350 -35.441566 13.871500
8.431350 -35.441566 15.602200
11.180350 -35.079666 15.602200
17.629749 -30.130865 13.871500
15.941850 -32.330666 13.871500
15.941850 -32.330666 15.602200
17.629749 -30.130865 15.602200
-7.874950 -33.315166 1.098700
-10.497580 -32.969967 1.098700
-10.497580 -32.969967 0.147800
-7.874950 -33.315166 0.147800
13.855750 -34.215466 13.871500
16.102551 -32.491364 13.871500
16.102551 -32.491364 15.602200
13.855750 -34.215466 15.602200
17.826651 -30.244564 13.871500
18.910450 -27.628065 13.871500
18.910450 -27.628065 15.602200
17.826651 -30.244564 15.602200
-18.910450 27.628096 13.871500
-17.826660 30.244604 13.871500
-17.629780 30.130936 13.871500
-18.690859 27.569256 13.871500
-15.941840 32.330696 13.871500
-13.742080 34.018623 13.871500
-13.742080 34.018623 15.602200
-15.941840 32.330696 15.602200
-16.102591 32.491444 13.871500
-13.855750 34.215504 13.871500
-13.742080 34.018623 13.871500
-15.941840 32.330696 13.871500
-8.431350 35.668964 15.602200
8.431350 35.668964 15.602200
8.431350 35.668964 13.871500
-8.431350 35.668964 13.871500
-11.239230 35.299301 13.871500
-13.855740 34.215515 13.871500
-13.855740 34.215515 15.602200
-11.239230 35.299301 15.602200
11.180350 35.079712 13.871500
8.431350 35.441624 13.871500
8.431350 35.668964 13.871500
11.239250 35.299301 13.871500
17.457451 0.000035 0.147800
17.662550 0.000035 0.147800
17.662550 -25.804964 0.147800
17.457451 -25.749966 0.147800
-15.503460 -32.105965 14.930000
-15.362880 -31.965364 14.965500
-14.378380 -32.949863 14.965500
-14.518960 -33.090466 14.930000
11.239250 35.299301 15.602200
13.855750 34.215515 15.602200
13.855750 34.215515 13.871500
11.239250 35.299301 13.871500
-11.239240 35.299301 13.871500
-8.431350 35.668964 13.871500
-8.431350 35.441624 13.871500
-11.180400 35.079712 13.871500
15.397850 30.730934 -12.774700
15.980250 31.313314 -14.477290
14.995750 32.297813 -14.477290
14.413350 31.715435 -12.774700
15.039950 -30.347364 1.098700
14.889850 -30.197266 1.098700
12.835250 -31.773766 1.098700
12.941450 -31.957664 1.098700
7.874950 33.102917 0.147800
-7.875050 33.102917 0.147800
-7.875050 33.315254 0.147800
7.874950 33.315254 0.147800
18.690849 0.000035 15.602200
18.690849 27.569244 15.602200
18.690849 27.569244 13.871500
18.690849 0.000035 13.871500
17.826651 30.244604 15.602200
17.629749 30.130936 15.602200
18.690849 27.569256 15.602200
18.910450 27.628096 15.602200
14.845450 32.147495 15.093300
15.829950 31.162994 15.093300
16.131651 31.464664 15.093300
15.147150 32.449165 15.093300
-15.040010 30.347416 0.147800
-16.650311 28.248825 0.147800
-16.650311 28.248825 1.098700
-15.040010 30.347416 1.098700
-14.992890 -33.564365 -15.406199
-15.977400 -32.579865 -15.406199
-15.362880 -31.965364 14.965500
-15.503460 -32.105965 14.930000
-15.516660 -32.119164 15.093300
-15.071060 -31.673565 15.093300
-14.332750 -30.935265 -12.827900
-14.965700 -31.568165 -14.678315
-15.522450 -32.124966 -15.406199
-15.977400 -32.579865 -15.406199
-15.221390 -31.823866 -14.477290
-14.639010 -31.241465 -12.774700
-14.378380 33.051346 14.965500
-14.518960 33.191925 14.930000
-14.532160 33.205124 15.093300
-14.388230 33.061195 15.093300
16.281349 31.506775 -15.406199
16.281349 31.614374 -15.406199
15.296850 32.598873 -15.406199
15.189250 32.598873 -15.406199
15.189250 32.598873 -15.406199
15.751750 33.161427 -15.406199
15.751750 33.161427 -15.602200
15.189250 32.598873 -15.602200
10.442650 32.764885 1.098700
7.874950 33.102917 1.098700
7.874950 33.102917 0.147800
10.442650 32.764885 0.147800
-7.875050 -33.102863 1.098700
-7.875050 -33.315266 1.098700
7.874950 -33.315266 1.098700
7.874950 -33.102863 1.098700
10.497550 32.969986 1.098700
10.442650 32.764874 1.098700
12.835250 31.773815 1.098700
12.941450 31.957705 1.098700
12.835250 31.773815 1.098700
10.442650 32.764874 1.098700
10.442650 32.764874 0.147800
12.835250 31.773815 0.147800
17.457451 -25.749966 0.147800
16.466450 -28.142666 0.147800
16.466450 -28.142666 1.098700
17.457451 -25.749966 1.098700
10.442650 32.764885 0.147800
7.874950 33.102917 0.147800
7.874950 33.315247 0.147800
10.497550 32.969986 0.147800
-17.457491 -25.749966 0.147800
-17.662590 -25.804964 0.147800
-17.662590 0.000035 0.147800
-17.457491 0.000035 0.147800
-17.662590 -25.804964 1.098700
-17.457491 -25.749966 1.098700
-17.457491 0.000035 1.098700
-17.662590 0.000035 1.098700
-17.662590 -25.804964 1.098700
-17.662590 0.000035 1.098700
-17.662590 0.000035 0.147800
-17.662590 -25.804964 0.147800
-17.457491 0.000035 1.098700
-17.457491 -25.749966 1.098700
-17.457491 -25.749966 0.147800
-17.457491 0.000035 0.147800
8.431350 -35.668964 13.871500
11.239250 -35.299267 13.871500
11.239250 -35.299267 15.602200
8.431350 -35.668964 15.602200
-8.431350 -35.441566 15.602200
-8.431350 -35.668964 15.602200
8.431350 -35.668964 15.602200
8.431350 -35.441566 15.602200
-14.992890 -33.564365 -15.406199
-15.977400 -32.579865 -15.406199
-15.522450 -32.124966 -15.406199
-14.537950 -33.109467 -15.406199
-14.430340 -33.109467 -15.406199
-15.522450 -32.017365 -15.406199
-16.084999 -32.579865 -15.406199
-14.992890 -33.671967 -15.406199
-15.221390 31.925356 -14.477290
-15.977400 32.681355 -15.406199
-15.522450 32.226414 -15.406199
-14.965700 31.669655 -14.678315
-14.332750 31.036715 -12.827900
-15.071060 31.775024 15.093300
-15.516660 32.220627 15.093300
-15.503460 32.207424 14.930000
-15.362880 32.066845 14.965500
-14.639010 31.342964 -12.774700
15.296850 -32.497364 -15.406199
14.740050 -31.940664 -14.678315
15.724550 -30.956165 -14.678315
16.281349 -31.512865 -15.406199
-11.180400 35.079712 13.871500
-8.431350 35.441624 13.871500
-8.431350 35.441624 15.602200
-11.180400 35.079712 15.602200
-14.378380 -32.949863 14.965500
-15.362880 -31.965364 14.965500
15.941850 -32.330666 13.871500
13.742050 -34.018566 13.871500
13.742050 -34.018566 15.602200
15.941850 -32.330666 15.602200
-16.650311 -28.248766 1.098700
-17.662590 -25.804964 1.098700
-17.662590 -25.804964 0.147800
-16.650311 -28.248766 0.147800
-12.941440 31.957705 0.147800
-15.040010 30.347404 0.147800
-15.040010 30.347404 1.098700
-12.941440 31.957705 1.098700
-17.826660 -30.244564 15.602200
-18.910450 -27.628065 15.602200
-18.910450 -27.628065 13.871500
-17.826660 -30.244564 13.871500
-18.910450 27.628096 15.602200
-18.690859 27.569256 15.602200
-17.629780 30.130936 15.602200
-17.826660 30.244604 15.602200
-11.239230 -35.299267 15.602200
-13.855740 -34.215466 15.602200
-13.855740 -34.215466 13.871500
-11.239230 -35.299267 13.871500
11.180350 35.079716 15.471900
15.941850 32.330696 15.471900
18.690849 27.569256 15.471900
18.690849 -27.569265 15.471900
15.941850 -32.330666 15.471900
11.180350 -35.079666 15.471900
-11.180400 -35.079666 15.471900
-15.941840 -32.330666 15.471900
-18.690859 -27.569265 15.471900
-18.690859 27.569256 15.471900
-15.941840 32.330696 15.471900
-11.180400 35.079716 15.471900
-8.431350 -35.668964 15.602200
-11.239240 -35.299267 15.602200
-11.239240 -35.299267 13.871500
-8.431350 -35.668964 13.871500
-12.835260 -31.773766 0.147800
-10.442620 -32.764866 0.147800
-10.497580 -32.969967 0.147800
-12.941430 -31.957664 0.147800
-7.874950 -33.315166 1.098700
-7.875050 -33.102863 1.098700
-10.442620 -32.764866 1.098700
-10.497580 -32.969967 1.098700
12.835250 -31.773766 0.147800
10.442650 -32.764866 0.147800
10.442650 -32.764866 1.098700
12.835250 -31.773766 1.098700
16.102551 -32.491467 13.871500
17.826651 -30.244564 13.871500
17.826651 -30.244564 15.602200
16.102551 -32.491467 15.602200
-10.442620 -32.764866 0.147800
-7.875050 -33.102863 0.147800
-7.874950 -33.315166 0.147800
-10.497580 -32.969967 0.147800
18.690849 -27.569265 13.871500
17.629749 -30.130865 13.871500
17.629749 -30.130865 15.602200
18.690849 -27.569265 15.602200
11.239250 -35.299267 13.871500
13.855750 -34.215466 13.871500
13.855750 -34.215466 15.602200
11.239250 -35.299267 15.602200
17.629749 30.130924 15.602200
15.941850 32.330696 15.602200
15.941850 32.330696 13.871500
17.629749 30.130924 13.871500
-10.497580 -32.969967 1.098700
-10.442620 -32.764866 1.098700
-12.835260 -31.773766 1.098700
-12.941430 -31.957664 1.098700
13.742050 -34.018566 13.871500
11.180350 -35.079666 13.871500
11.180350 -35.079666 15.602200
13.742050 -34.018566 15.602200
18.910450 -27.628065 15.602200
18.690849 -27.569265 15.602200
17.629749 -30.130865 15.602200
17.826651 -30.244564 15.602200
10.497550 -32.969967 0.147800
7.874950 -33.315166 0.147800
7.874950 -33.102863 0.147800
10.442650 -32.764866 0.147800
18.910450 0.000035 15.602200
18.690849 0.000035 15.602200
18.690849 -27.569265 15.602200
18.910450 -27.628065 15.602200
7.874950 -33.315166 0.147800
10.497550 -32.969967 0.147800
10.497550 -32.969967 1.098700
7.874950 -33.315166 1.098700
12.941450 -31.957664 0.147800
10.497550 -32.969967 0.147800
10.442650 -32.764866 0.147800
12.835250 -31.773766 0.147800
-15.071060 31.775024 15.093300
-14.086560 32.759525 15.093300
-14.388230 33.061195 15.093300
-15.372740 32.076694 15.093300
18.690849 0.000035 13.871500
18.690849 -27.569265 13.871500
18.690849 -27.569265 15.602200
18.690849 0.000035 15.602200
10.497550 -32.969967 1.098700
10.442650 -32.764866 1.098700
7.874950 -33.102863 1.098700
7.874950 -33.315166 1.098700
16.650249 -28.248766 0.147800
15.039950 -30.347364 0.147800
14.889850 -30.197266 0.147800
16.466450 -28.142666 0.147800
-14.518960 33.191925 14.930000
-14.378380 33.051346 14.965500
-15.362880 32.066845 14.965500
-15.503460 32.207424 14.930000
15.039950 -30.347364 0.147800
16.650249 -28.248766 0.147800
16.650249 -28.248766 1.098700
15.039950 -30.347364 1.098700
8.431350 35.441631 15.602200
8.431350 35.668964 15.602200
-8.431350 35.668964 15.602200
-8.431350 35.441631 15.602200
16.466450 -28.142666 0.147800
14.889850 -30.197266 0.147800
14.889850 -30.197266 1.098700
16.466450 -28.142666 1.098700
-13.981190 32.654156 -14.678315
-14.965700 31.669655 -14.678315
-18.690859 0.000035 13.871500
-18.910450 0.000035 13.871500
-18.910450 27.628096 13.871500
-18.690859 27.569244 13.871500
-14.537950 33.210915 -15.406199
-15.522450 32.226414 -15.406199
-18.690859 0.000035 13.871500
-18.690859 27.569244 13.871500
-18.690859 27.569244 15.602200
-18.690859 0.000035 15.602200
16.650249 -28.248766 1.098700
16.466450 -28.142666 1.098700
14.889850 -30.197266 1.098700
15.039950 -30.347364 1.098700
17.457451 0.000035 0.147800
17.457451 -25.749966 0.147800
17.457451 -25.749966 1.098700
17.457451 0.000035 1.098700
-13.654510 32.327477 -12.774700
-14.639010 31.342964 -12.774700
17.662550 -25.804964 0.147800
17.662550 0.000035 0.147800
17.662550 0.000035 1.098700
17.662550 -25.804964 1.098700
-17.826660 30.244595 13.871500
-16.102591 32.491444 13.871500
-15.941840 32.330696 13.871500
-17.629780 30.130924 13.871500
-16.102591 32.491444 13.871500
-17.826660 30.244595 13.871500
-17.826660 30.244595 15.602200
-16.102591 32.491444 15.602200
8.431350 35.668964 15.602200
11.239250 35.299301 15.602200
11.239250 35.299301 13.871500
8.431350 35.668964 13.871500
17.662550 -25.804964 0.147800
16.650249 -28.248766 0.147800
16.466450 -28.142666 0.147800
17.457451 -25.749966 0.147800
-11.180400 -35.079666 13.871500
-8.431350 -35.441566 13.871500
-8.431350 -35.668964 13.871500
-11.239240 -35.299267 13.871500
15.189250 -32.497364 -15.602200
15.751750 -33.059963 -15.602200
15.751750 -33.059963 -15.406199
15.189250 -32.497364 -15.406199
15.039950 -30.347364 0.147800
12.941450 -31.957664 0.147800
12.835250 -31.773766 0.147800
14.889850 -30.197266 0.147800
8.431350 35.668964 15.602200
8.431350 35.441624 15.602200
11.180350 35.079712 15.602200
11.239250 35.299301 15.602200
-8.431350 35.668964 13.871500
-11.239240 35.299301 13.871500
-11.239240 35.299301 15.602200
-8.431350 35.668964 15.602200
-13.742070 34.018623 13.871500
-11.180390 35.079712 13.871500
-11.180390 35.079712 15.602200
-13.742070 34.018623 15.602200
-17.826660 30.244604 13.871500
-18.910450 27.628096 13.871500
-18.910450 27.628096 15.602200
-17.826660 30.244604 15.602200
-13.742070 -34.018566 13.871500
-11.180390 -35.079666 13.871500
-11.239230 -35.299267 13.871500
-13.855740 -34.215466 13.871500
18.690849 27.569256 13.871500
17.629749 30.130936 13.871500
17.826651 30.244604 13.871500
18.910450 27.628096 13.871500
14.889850 -30.197266 0.147800
12.835250 -31.773766 0.147800
12.835250 -31.773766 1.098700
14.889850 -30.197266 1.098700
15.751750 33.053825 -15.406199
16.736250 32.069324 -15.406199
18.690849 27.569244 13.871500
18.910450 27.628096 13.871500
18.910450 0.000035 13.871500
18.690849 0.000035 13.871500
-17.662590 0.000035 1.098700
-17.457491 0.000035 1.098700
-17.457491 25.750034 1.098700
-17.662590 25.804935 1.098700
-7.875050 33.315254 1.098700
7.874950 33.315254 1.098700
7.874950 33.315254 0.147800
-7.875050 33.315254 0.147800
15.941850 32.330696 13.871500
13.742050 34.018623 13.871500
13.855750 34.215504 13.871500
16.102551 32.491444 13.871500
18.910450 27.628096 15.602200
18.910450 0.000035 15.602200
18.910450 0.000035 13.871500
18.910450 27.628096 13.871500
18.910450 27.628096 15.602200
18.690849 27.569244 15.602200
18.690849 0.000035 15.602200
18.910450 0.000035 15.602200
-17.662590 25.804935 0.147800
-17.662590 0.000035 0.147800
-17.662590 0.000035 1.098700
-17.662590 25.804935 1.098700
13.855750 34.215504 15.602200
13.742050 34.018623 15.602200
15.941850 32.330696 15.602200
16.102551 32.491444 15.602200
17.826651 30.244604 15.602200
18.910450 27.628096 15.602200
18.910450 27.628096 13.871500
17.826651 30.244604 13.871500
-17.457491 0.000035 0.147800
-17.457491 25.750034 0.147800
-17.457491 25.750034 1.098700
-17.457491 0.000035 1.098700
15.941850 32.330696 15.602200
13.742050 34.018623 15.602200
13.742050 34.018623 13.871500
15.941850 32.330696 13.871500
-17.457491 0.000035 0.147800
-17.662590 0.000035 0.147800
-17.662590 25.804935 0.147800
-17.457491 25.750034 0.147800
-15.040010 30.347404 0.147800
-12.941440 31.957705 0.147800
-12.835270 31.773815 0.147800
-14.889870 30.197266 0.147800
15.751750 33.053825 -15.406199
15.296850 32.598873 -15.406199
14.740050 32.042126 -14.678315
14.107150 31.409176 -12.827900
14.845450 32.147495 15.093300
15.291050 32.593094 15.093300
15.277850 32.579884 14.930000
15.137250 32.439316 14.965500
14.413350 31.715435 -12.774700
14.995750 32.297813 -14.477290
-17.662590 25.804935 0.147800
-16.650311 28.248835 0.147800
-16.466419 28.142666 0.147800
-17.457491 25.750034 0.147800
-17.826660 30.244595 15.602200
-17.629780 30.130924 15.602200
-15.941840 32.330696 15.602200
-16.102591 32.491444 15.602200
-15.040010 30.347404 1.098700
-14.889870 30.197266 1.098700
-12.835270 31.773815 1.098700
-12.941440 31.957705 1.098700
-15.522450 32.118805 -15.406199
-16.084999 32.681355 -15.406199
-16.084999 32.681355 -15.602200
-15.522450 32.118805 -15.602200
15.137250 -32.337765 14.965500
15.277850 -32.478367 14.930000
15.291050 -32.491566 15.093300
14.845450 -32.045963 15.093300
14.107150 -31.307665 -12.827900
14.740050 -31.940664 -14.678315
15.296850 -32.497364 -15.406199
15.751750 -32.952366 -15.406199
14.995750 -32.196365 -14.477290
14.413350 -31.613964 -12.774700
-14.889870 -30.197266 1.098700
-12.835270 -31.773766 1.098700
-12.835270 -31.773766 0.147800
-14.889870 -30.197266 0.147800
16.262350 31.595385 14.930000
16.121750 31.454805 14.965500
15.137250 32.439316 14.965500
15.277850 32.579884 14.930000
15.291050 32.593094 15.093300
15.147150 32.449165 15.093300
16.131651 31.464664 15.093300
16.275551 31.608595 15.093300
-15.522450 -32.124966 -15.406199
-14.965700 -31.568165 -14.678315
-13.981190 -32.552666 -14.678315
-14.537950 -33.109467 -15.406199
-12.941430 31.957705 0.147800
-10.497580 32.969986 0.147800
-10.442620 32.764874 0.147800
-12.835260 31.773815 0.147800
-16.466419 28.142654 0.147800
-14.889870 30.197266 0.147800
-14.889870 30.197266 1.098700
-16.466419 28.142654 1.098700
-16.650311 28.248825 1.098700
-16.466419 28.142654 1.098700
-14.889870 30.197266 1.098700
-15.040010 30.347416 1.098700
-16.084999 32.681355 -15.406199
-15.522450 32.118805 -15.406199
-15.522450 32.226414 -15.406199
-15.977400 32.681355 -15.406199
-14.992890 33.665855 -15.406199
-14.992890 33.773464 -15.406199
-12.941430 31.957705 1.098700
-12.835260 31.773815 1.098700
-10.442620 32.764874 1.098700
-10.497580 32.969986 1.098700
-14.430340 33.210915 -15.406199
-14.537950 33.210915 -15.406199
-10.497580 32.969986 0.147800
-7.874950 33.315247 0.147800
-7.875050 33.102917 0.147800
-10.442620 32.764885 0.147800
-14.992890 33.773464 -15.406199
-14.430340 33.210915 -15.406199
-14.430340 33.210915 -15.602200
-14.992890 33.773464 -15.602200
7.874950 -33.315266 0.147800
-7.875050 -33.315266 0.147800
-7.875050 -33.102863 0.147800
7.874950 -33.102863 0.147800
15.137250 32.439316 14.965500
16.121750 31.454805 14.965500
15.397850 30.730934 -12.774700
16.131651 31.464664 15.093300
15.829950 31.162994 15.093300
15.091650 30.424675 -12.827900
15.724550 31.057625 -14.678315
16.281349 31.614374 -15.406199
16.736250 32.069324 -15.406199
15.980250 31.313314 -14.477290
16.275551 31.608595 15.093300
16.131651 31.464664 15.093300
16.121750 31.454805 14.965500
16.262350 31.595385 14.930000
17.662550 25.804935 1.098700
17.457451 25.750034 1.098700
17.457451 0.000035 1.098700
17.662550 0.000035 1.098700
7.874950 33.315247 1.098700
7.874950 33.102917 1.098700
10.442650 32.764885 1.098700
10.497550 32.969986 1.098700
-14.430340 33.210915 -15.602200
-15.522450 32.118805 -15.602200
-16.084999 32.681355 -15.602200
-14.992890 33.773464 -15.602200
15.751750 33.053825 -15.406199
16.736250 32.069324 -15.406199
16.843849 32.069324 -15.406199
15.751750 33.161427 -15.406199
11.180350 35.079712 15.602200
8.431350 35.441624 15.602200
8.431350 35.441624 13.871500
11.180350 35.079712 13.871500
7.874950 33.315247 1.098700
10.497550 32.969986 1.098700
10.497550 32.969986 0.147800
7.874950 33.315247 0.147800
16.843849 32.069324 -15.406199
16.843849 32.069324 -15.602200
15.751750 33.161427 -15.602200
15.751750 33.161427 -15.406199
15.039950 30.347416 1.098700
14.889850 30.197266 1.098700
16.466450 28.142654 1.098700
16.650249 28.248825 1.098700
15.039950 30.347416 1.098700
16.650249 28.248825 1.098700
16.650249 28.248825 0.147800
15.039950 30.347416 0.147800
10.497550 32.969986 1.098700
12.941450 31.957705 1.098700
12.941450 31.957705 0.147800
10.497550 32.969986 0.147800
7.874950 -33.102863 1.098700
7.874950 -33.102863 0.147800
-7.875050 -33.102863 0.147800
-7.875050 -33.102863 1.098700
16.281349 31.506775 -15.602200
16.281349 31.506775 -15.406199
15.189250 32.598873 -15.406199
15.189250 32.598873 -15.602200
-14.992890 33.773464 -15.406199
-14.992890 33.773464 -15.602200
-16.084999 32.681355 -15.602200
-16.084999 32.681355 -15.406199
17.457451 25.750034 1.098700
16.466450 28.142666 1.098700
16.466450 28.142666 0.147800
17.457451 25.750034 0.147800
17.457451 25.750034 0.147800
16.466450 28.142666 0.147800
16.650249 28.248835 0.147800
17.662550 25.804935 0.147800
-14.388230 -32.959663 15.093300
-13.654510 -32.225964 -12.774700
-14.236890 -32.808365 -14.477290
-14.992890 -33.564365 -15.406199
-14.537950 -33.109467 -15.406199
-13.981190 -32.552666 -14.678315
-13.348250 -31.919765 -12.827900
-14.086560 -32.658066 15.093300
-14.430340 33.210915 -15.602200
-14.430340 33.210915 -15.406199
-15.522450 32.118805 -15.406199
-15.522450 32.118805 -15.602200
-15.372740 -31.975164 15.093300
-14.388230 -32.959663 15.093300
-14.086560 -32.658066 15.093300
-15.071060 -31.673565 15.093300
8.431350 -35.441566 15.602200
8.431350 -35.441566 13.871500
-8.431350 -35.441566 13.871500
-8.431350 -35.441566 15.602200
17.457451 0.000035 1.098700
17.457451 25.750034 1.098700
17.457451 25.750034 0.147800
17.457451 0.000035 0.147800
14.413350 -31.613964 -12.774700
14.995750 -32.196365 -14.477290
15.980250 -31.211864 -14.477290
15.397850 -30.629465 -12.774700
16.650249 28.248835 1.098700
16.466450 28.142666 1.098700
17.457451 25.750034 1.098700
17.662550 25.804935 1.098700
12.835250 31.773815 0.848700
10.442650 32.764874 0.848700
-10.442630 32.764874 0.848700
-14.889870 30.197266 0.848700
-17.457491 25.750034 0.848700
-17.457491 -25.749966 0.848700
-14.889870 -30.197266 0.848700
-10.442630 -32.764866 0.848700
10.442650 -32.764866 0.848700
14.889850 -30.197266 0.848700
17.457451 -25.749966 0.848700
17.457451 25.750034 0.848700
16.466450 28.142654 0.848700
-12.835260 31.773815 0.147800
-10.442620 32.764874 0.147800
-10.442620 32.764874 1.098700
-12.835260 31.773815 1.098700
-14.532160 -33.103664 15.093300
-14.388230 -32.959663 15.093300
-15.372740 -31.975164 15.093300
-15.516660 -32.119164 15.093300
12.941450 31.957705 1.098700
12.835250 31.773815 1.098700
14.889850 30.197266 1.098700
15.039950 30.347404 1.098700
14.889850 30.197266 1.098700
12.835250 31.773815 1.098700
12.835250 31.773815 0.147800
14.889850 30.197266 0.147800
-18.690859 0.000035 15.602200
-18.690859 -27.569265 15.602200
-18.690859 -27.569265 13.871500
-18.690859 0.000035 13.871500
15.751750 -32.952366 -15.406199
16.736250 -31.967865 -15.406199
8.431350 -35.668964 13.871500
-8.431350 -35.668964 13.871500
-8.431350 -35.441566 13.871500
8.431350 -35.441566 13.871500
-14.992890 -33.671967 -15.602200
-16.084999 -32.579865 -15.602200
-15.522450 -32.017365 -15.602200
-14.430340 -33.109467 -15.602200
-12.941440 -31.957664 1.098700
-12.835270 -31.773766 1.098700
-14.889870 -30.197266 1.098700
-15.040010 -30.347364 1.098700
-16.650311 -28.248766 1.098700
-16.466419 -28.142666 1.098700
-17.457491 -25.749966 1.098700
-17.662590 -25.804964 1.098700
-14.532160 -33.103664 15.093300
-14.518960 -33.090466 14.930000
-14.378380 -32.949863 14.965500
-14.388230 -32.959663 15.093300
16.131651 -31.363165 15.093300
15.397850 -30.629465 -12.774700
15.980250 -31.211864 -14.477290
16.736250 -31.967865 -15.406199
16.281349 -31.512865 -15.406199
15.724550 -30.956165 -14.678315
15.091650 -30.323166 -12.827900
15.829950 -31.061464 15.093300
-14.889870 -30.197266 0.147800
-12.835270 -31.773766 0.147800
-12.941440 -31.957664 0.147800
-15.040010 -30.347364 0.147800
-15.522450 -32.017365 -15.602200
-16.084999 -32.579865 -15.602200
-16.084999 -32.579865 -15.406199
-15.522450 -32.017365 -15.406199
-8.431350 -35.668964 13.871500
8.431350 -35.668964 13.871500
8.431350 -35.668964 15.602200
-8.431350 -35.668964 15.602200
-11.180400 35.079716 15.471900
-15.941840 32.330696 15.471900
-18.690859 27.569256 15.471900
-18.690859 -27.569265 15.471900
-15.941840 -32.330666 15.471900
-11.180400 -35.079666 15.471900
11.180350 -35.079666 15.471900
15.941850 -32.330666 15.471900
18.690849 -27.569265 15.471900
18.690849 27.569256 15.471900
15.941850 32.330696 15.471900
11.180350 35.079716 15.471900
-15.522450 -32.017365 -15.602200
-15.522450 -32.017365 -15.406199
-14.430340 -33.109467 -15.406199
-14.430340 -33.109467 -15.602200
-18.690859 -27.569265 13.871500
-17.629780 -30.130865 13.871500
-17.826660 -30.244564 13.871500
-18.910450 -27.628065 13.871500
-14.992890 -33.671967 -15.602200
-14.430340 -33.109467 -15.602200
-14.430340 -33.109467 -15.406199
-14.992890 -33.671967 -15.406199
16.281349 31.614374 -15.406199
15.296850 32.598873 -15.406199
-18.690859 -27.569265 15.602200
-17.629780 -30.130865 15.602200
-17.629780 -30.130865 13.871500
-18.690859 -27.569265 13.871500
17.662550 25.804935 1.098700
17.662550 0.000035 1.098700
17.662550 0.000035 0.147800
17.662550 25.804935 0.147800
12.941450 31.957705 1.098700
15.039950 30.347404 1.098700
15.039950 30.347404 0.147800
12.941450 31.957705 0.147800
-17.457491 -25.749966 1.098700
-16.466419 -28.142666 1.098700
-16.466419 -28.142666 0.147800
-17.457491 -25.749966 0.147800
16.121750 -31.353266 14.965500
15.137250 -32.337765 14.965500
-13.855750 -34.215466 15.602200
-13.742080 -34.018566 15.602200
-15.941840 -32.330666 15.602200
-16.102591 -32.491364 15.602200
-15.040010 -30.347364 1.098700
-16.650311 -28.248766 1.098700
-16.650311 -28.248766 0.147800
-15.040010 -30.347364 0.147800
-16.084999 -32.579865 -15.406199
-16.084999 -32.579865 -15.602200
-14.992890 -33.671967 -15.602200
-14.992890 -33.671967 -15.406199
-10.442620 -32.764866 1.098700
-7.875050 -33.102863 1.098700
-7.875050 -33.102863 0.147800
-10.442620 -32.764866 0.147800
-13.855750 34.215504 13.871500
-16.102591 32.491444 13.871500
-16.102591 32.491444 15.602200
-13.855750 34.215504 15.602200
-16.102591 -32.491467 15.602200
-15.941840 -32.330666 15.602200
-17.629780 -30.130865 15.602200
-17.826660 -30.244564 15.602200
15.147150 -32.347664 15.093300
16.131651 -31.363165 15.093300
15.829950 -31.061464 15.093300
14.845450 -32.045963 15.093300
-16.102591 -32.491467 15.602200
-17.826660 -30.244564 15.602200
-17.826660 -30.244564 13.871500
-16.102591 -32.491467 13.871500
-17.629780 -30.130865 13.871500
-15.941840 -32.330666 13.871500
-16.102591 -32.491467 13.871500
-17.826660 -30.244564 13.871500
15.829950 31.162994 15.093300
14.845450 32.147495 15.093300
-16.466419 -28.142666 0.147800
-14.889870 -30.197266 0.147800
-15.040010 -30.347364 0.147800
-16.650311 -28.248766 0.147800
-13.742070 -34.018566 15.602200
-11.180390 -35.079666 15.602200
-11.180390 -35.079666 13.871500
-13.742070 -34.018566 13.871500
16.275551 -31.507065 15.093300
16.131651 -31.363165 15.093300
15.147150 -32.347664 15.093300
15.291050 -32.491566 15.093300
-11.239230 -35.299267 15.602200
-11.180390 -35.079666 15.602200
-13.742070 -34.018566 15.602200
-13.855740 -34.215466 15.602200
-17.629780 -30.130865 15.602200
-15.941840 -32.330666 15.602200
-15.941840 -32.330666 13.871500
-17.629780 -30.130865 13.871500
-12.941440 -31.957664 1.098700
-15.040010 -30.347364 1.098700
-15.040010 -30.347364 0.147800
-12.941440 -31.957664 0.147800
10.497550 -32.969967 0.147800
12.941450 -31.957664 0.147800
12.941450 -31.957664 1.098700
10.497550 -32.969967 1.098700
15.189250 -32.497364 -15.602200
15.189250 -32.497364 -15.406199
16.281349 -31.405266 -15.406199
16.281349 -31.405266 -15.602200
-10.497580 -32.969967 1.098700
-12.941430 -31.957664 1.098700
-12.941430 -31.957664 0.147800
-10.497580 -32.969967 0.147800
16.843849 -31.967865 -15.602200
15.751750 -33.059963 -15.602200
15.189250 -32.497364 -15.602200
16.281349 -31.405266 -15.602200
16.121750 -31.353266 14.965500
16.131651 -31.363165 15.093300
16.275551 -31.507065 15.093300
16.262350 -31.493864 14.930000
-15.362880 32.066845 14.965500
-14.378380 33.051346 14.965500
15.751750 -33.059963 -15.406199
15.751750 -33.059963 -15.602200
16.843849 -31.967865 -15.602200
16.843849 -31.967865 -15.406199
16.736250 -31.967865 -15.406199
16.843849 -31.967865 -15.406199
16.281349 -31.405266 -15.406199
-8.431350 -35.668964 15.602200
-8.431350 -35.441566 15.602200
-11.180400 -35.079666 15.602200
-11.239240 -35.299267 15.602200
16.843849 -31.967865 -15.602200
16.281349 -31.405266 -15.602200
16.281349 -31.405266 -15.406199
16.843849 -31.967865 -15.406199
17.826651 -30.244564 15.602200
17.629749 -30.130865 15.602200
15.941850 -32.330666 15.602200
16.102551 -32.491467 15.602200
16.102551 32.491444 15.602200
17.826651 30.244595 15.602200
17.826651 30.244595 13.871500
16.102551 32.491444 13.871500
4 0 1 2 3
4 4 5 6 7
4 8 9 10 11
4 12 13 14 15
4 16 17 18 19
4 20 21 22 23
4 24 25 26 27
4 28 29 30 31
4 32 33 34 35
4 36 37 38 39
4 40 41 42 43
4 44 45 46 47
4 48 49 50 51
4 52 53 54 55
4 56 57 58 59
4 60 61 62 63
4 64 65 66 67
4 68 69 70 71
4 72 73 74 75
4 76 77 78 79
4 80 81 82 83
4 84 85 86 87
4 88 89 90 91
4 92 93 94 95
4 96 97 98 99
4 100 101 102 103
4 104 105 106 107
4 108 109 110 111
4 112 113 114 115
13 116 117 118 119 120 121 122 123 124 125 126 127 128
4 129 130 131 132
4 133 134 135 136
4 137 138 139 140
4 141 142 143 144
4 145 146 147 148
4 149 150 151 152
4 153 154 155 156
4 157 158 159 160
4 161 162 163 164
4 165 166 167 168
4 169 170 171 172
4 173 174 175 176
4 177 178 179 180
4 181 182 183 184
8 185 186 187 188 189 190 191 192
4 193 194 195 196
4 197 198 199 200
4 201 202 203 204
4 205 206 207 208
4 209 210 211 212
4 213 214 215 216
4 217 218 219 220
4 221 222 223 224
4 225 226 227 228
4 229 230 231 232
4 233 234 235 236
4 237 238 239 240
4 241 242 243 244
4 245 246 247 248
4 249 250 251 252
4 253 254 255 256
4 257 258 259 260
4 261 262 263 264
4 265 266 267 268
4 269 270 271 272
4 273 274 275 276
4 277 278 279 280
4 281 282 283 284
4 285 286 287 288
4 289 290 291 292
4 293 294 295 296
4 297 298 299 300
4 301 302 303 304
5 305 306 307 308 309
4 310 311 312 313
4 314 315 316 317
4 318 319 320 321
4 322 323 324 325
4 326 327 328 329
4 330 331 332 333
4 334 335 336 337
4 338 339 340 341
4 342 343 344 345
4 346 347 348 349
4 350 351 352 353
4 354 355 356 357
4 358 359 360 361
4 362 363 364 365
4 366 367 368 369
4 370 371 372 373
4 374 375 376 377
4 378 379 380 381
4 382 383 384 385
4 386 387 388 389
4 390 391 392 393
4 394 395 396 397
4 398 399 400 401
4 402 403 404 405
4 406 258 257 407
10 408 409 410 411 412 413 414 415 416 417
4 418 419 420 421
4 422 423 424 425
4 426 427 428 429
4 430 431 432 433
4 434 435 436 437
4 438 439 440 441
4 442 443 444 445
4 446 447 448 449
4 450 451 452 453
4 454 455 456 457
4 458 459 460 461
4 462 463 464 465
4 466 467 468 469
4 470 471 472 473
4 474 475 476 477
8 478 479 480 481 482 483 484 485
10 486 487 488 489 490 491 492 493 494 495
4 496 497 498 499
4 500 501 502 503
4 260 259 504 505
4 506 507 508 509
4 510 511 512 513
4 514 515 516 517
4 518 519 520 521
4 522 523 524 525
4 526 527 528 529
12 530 531 532 533 534 535 536 537 538 539 540 541
4 542 543 544 545
4 546 547 548 549
4 550 551 552 553
4 554 555 556 557
4 558 559 560 561
4 562 563 564 565
4 566 567 568 569
4 570 571 572 573
4 574 575 576 577
4 578 579 580 581
4 582 583 584 585
4 586 587 588 589
4 590 591 592 593
4 594 595 596 597
4 598 599 600 601
4 602 603 604 605
4 606 607 608 609
4 610 611 612 613
4 614 615 616 617
4 618 619 620 621
4 622 623 624 625
4 626 627 628 629
4 630 631 632 633
4 634 635 636 637
4 638 297 300 639
4 640 641 642 643
4 497 80 83 498
4 644 638 639 645
4 646 647 648 649
4 650 651 652 653
4 654 655 656 657
4 658 223 222 659
4 660 661 662 663
4 664 665 666 667
4 668 669 670 671
4 672 673 674 675
4 676 677 678 679
4 680 681 682 683
4 684 685 686 687
4 688 689 690 691
4 692 693 694 695
4 696 697 698 699
4 700 701 702 703
4 704 705 706 707
4 708 709 710 711
4 712 713 714 715
4 716 717 718 719
4 720 380 379 721
4 722 723 724 725
4 726 727 728 729
4 730 731 732 733
4 734 735 736 737
4 738 739 740 741
4 742 743 744 745
4 746 747 748 749
4 750 751 752 753
4 754 755 756 757
4 758 759 760 761
4 762 763 764 765
4 766 767 768 769
4 770 771 772 773
10 774 775 776 777 778 779 780 781 782 783
4 784 785 786 787
4 788 789 790 791
4 792 793 794 795
4 796 797 798 799
10 800 801 802 803 804 805 806 807 808 809
4 810 811 812 813
4 814 815 816 817
4 818 819 820 821
4 822 823 824 825
4 826 827 828 829
4 830 831 832 833
4 834 835 836 837
6 838 839 840 841 842 843
4 844 845 846 847
6 839 848 843 842 849 840
4 850 851 852 853
4 854 855 856 857
4 858 859 860 861
4 378 381 862 863
8 864 865 866 867 868 869 870 871
4 872 873 874 875
4 876 877 878 879
4 880 881 882 883
4 884 885 886 887
8 425 424 888 889 423 422 890 891
4 892 893 894 895
4 896 897 898 899
4 900 901 902 903
4 904 905 906 907
4 908 909 910 911
4 912 913 914 915
4 916 917 918 919
4 920 921 922 923
4 924 925 926 927
4 928 929 930 931
4 932 933 934 935
8 936 937 938 939 940 941 942 943
4 944 945 946 947
4 948 949 950 951
4 952 953 954 955
4 956 957 958 959
4 960 961 962 963
4 964 965 966 967
13 968 969 970 971 972 973 974 975 976 977 978 979 980
4 981 982 983 984
4 985 986 987 988
4 989 990 991 992
4 993 994 995 996
4 997 998 999 1000
4 961 1001 1002 962
4 1003 1004 1005 1006
4 1007 1008 1009 1010
4 1011 1012 1013 1014
4 1015 1016 1017 1018
4 1019 1020 1021 1022
8 1023 1024 1025 1026 1027 1028 1029 1030
4 1031 1032 1033 1034
4 1035 1036 1037 1038
4 478 485 482 481
4 1039 1040 1041 1042
12 1043 1044 1045 1046 1047 1048 1049 1050 1051 1052 1053 1054
4 1055 1056 1057 1058
4 1059 1060 1061 1062
4 1063 1064 1065 1066
4 1067 281 284 1068
4 1069 1070 1071 1072
4 1073 1074 1075 1076
4 1077 1078 1079 1080
4 1081 1082 1083 1084
4 960 963 1085 1086
4 1087 1088 1089 1090
4 1091 1092 1093 1094
4 1095 1096 1097 1098
4 1099 1100 1101 1102
4 1103 1104 1105 1106
4 1107 1108 1109 1110
4 1111 1112 1113 1114
4 1115 1116 1117 1118
4 1119 1120 1121 1122
4 282 1123 1124 283
4 1125 1126 1127 1128
4 1129 1130 1131 1132
4 1133 1134 1135 1136
4 1137 1138 1139 1140
4 1141 1142 1143 1144
4 1145 1146 1147 1148
4 1149 1150 1151 1152
4 1153 1154 1155 1156
4 823 72 75 824
4 1157 1158 1159 1160
4 1161 1162 1163 1164
4 1165 1166 1167 1168
4 658 659 1169 1170
4 1171 1172 1173 1174
7 1175 307 306 1176 1177 305 309
4 1178 1179 1180 1181
4 1182 1183 1184 1185
4 1186 1187 1188 1189
4 1190 1191 1192 1193
