ply
format ascii 1.0
comment Created by Blender 2.82 (sub 7) - www.blender.org, source file: ''
element vertex 520
property float x
property float y
property float z
element face 148
property list uchar uint vertex_indices
end_header
13.222223 -0.000024 13.909992
13.222223 -31.496124 13.909992
12.434823 -31.496124 13.909992
12.434823 -0.000024 13.909992
-14.050423 32.973022 -14.697392
-10.068517 28.991125 0.971592
-10.568517 28.491125 0.971592
-14.550423 32.473022 -14.697392
12.434823 -0.000024 14.697392
12.434823 -31.496124 14.697392
0.000023 -31.496124 14.697392
0.000023 -0.000024 14.697392
-10.568517 -28.491123 13.909992
-10.068517 -28.991123 13.909992
0.000023 -31.496124 13.909992
-12.434817 -31.496124 13.909992
-12.434817 -0.000024 13.909992
9.568523 28.491125 12.764392
9.568523 28.491125 13.909992
-9.568517 28.491125 13.909992
-9.568517 28.491125 12.764392
-12.434817 -31.496124 13.909992
-12.434817 -0.000024 13.909992
-12.434817 -0.000024 14.697392
-12.434817 -31.496124 14.697392
-9.568517 -28.491123 13.909992
-9.568517 -28.491123 0.848392
-10.068517 -27.991123 0.848392
-10.068517 -27.991123 13.909992
13.222223 -31.496124 13.909992
12.434823 -31.496124 13.909992
12.434823 -31.051325 9.111092
13.222223 -31.051325 9.111092
14.019123 -31.941725 -14.697392
13.519123 -32.441723 -14.697392
9.568523 -28.491123 0.848392
10.068523 -27.991123 0.848392
13.519123 -32.441723 -14.697392
14.050423 -32.973022 -14.697392
14.550423 -32.473022 -14.697392
14.019123 -31.941725 -14.697392
13.222223 31.051315 9.111092
13.222223 31.496046 13.909992
13.222223 -0.000024 13.909992
13.222223 -0.000024 4.703092
13.222223 29.904606 8.361492
-14.019113 -31.941725 -14.697392
-14.550423 -32.473022 -14.697392
-10.568517 -28.491123 0.971592
-10.568517 -28.491123 13.909992
-12.434817 -0.000024 14.697392
-12.434817 31.496046 14.697392
0.000023 31.496046 14.697392
0.000023 -0.000024 14.697392
-10.068517 -28.991123 13.909992
-10.068517 -28.991123 0.971592
-14.050423 -32.973022 -14.697392
-13.519113 -32.441723 -14.697392
12.434823 -31.496124 13.909992
13.222223 -31.496124 13.909992
13.222223 -31.051325 9.111092
12.434823 -31.051325 9.111092
-14.550423 32.473022 -14.697392
-10.568517 28.491125 0.971592
-10.068517 28.991125 0.971592
-14.050423 32.973022 -14.697392
-14.550423 -32.473022 -14.697392
-14.019113 -31.941725 -14.697392
-10.068517 -27.991123 0.848392
-10.068517 -27.991123 13.909992
-10.568517 -28.491123 13.909992
-10.568517 -28.491123 0.971592
-9.568517 -28.491123 0.848392
-13.519113 -32.441723 -14.697392
-14.050423 -32.973022 -14.697392
-10.068517 -28.991123 0.971592
-10.068517 -28.991123 13.909992
-9.568517 -28.491123 13.909992
10.068523 27.991125 0.848392
9.568523 28.491125 0.848392
13.519123 32.441715 -14.697392
14.019123 31.941717 -14.697392
13.222223 -0.000024 13.909992
13.222223 -31.496124 13.909992
13.222223 -31.051325 9.111092
13.222223 -29.904625 8.361492
13.222223 -0.000024 4.703092
-13.519113 -32.441723 -14.697392
-14.050423 -32.973022 -14.697392
-14.550423 -32.473022 -14.697392
-14.019113 -31.941725 -14.697392
-12.434817 31.496046 14.697392
-12.434817 -0.000024 14.697392
-12.434817 -0.000024 13.909992
-12.434817 31.496046 13.909992
13.222223 31.051315 9.111092
13.222223 29.904606 8.361492
12.434823 29.904606 8.361492
12.434823 31.051315 9.111092
13.222223 31.496046 13.909992
12.434823 31.496046 13.909992
12.434823 31.051315 9.111092
13.222223 31.051315 9.111092
-12.434817 -29.904625 8.361492
-13.222214 -29.904625 8.361492
-13.222214 -0.000024 4.703092
-12.434817 -0.000024 4.703092
-13.222214 -31.496124 13.909992
-13.222214 -31.051325 9.111092
-12.434817 -31.051325 9.111092
-12.434817 -31.496124 13.909992
-14.019113 31.941717 -14.697392
-10.068517 27.991125 0.848392
-10.068517 27.991125 13.909992
-10.568517 28.491125 13.909992
-10.068517 28.991125 13.909992
10.568523 -28.491123 0.971592
10.568523 -28.491123 13.909992
10.068523 -28.991123 13.909992
10.068523 -28.991123 0.971592
-9.568517 28.491125 0.848392
-9.568517 28.491125 13.909992
-10.068517 28.991125 13.909992
-13.519113 32.441715 -14.697392
0.000023 31.496046 13.909992
0.000023 31.496046 14.697392
12.434823 31.496046 14.697392
12.434823 31.496046 13.909992
-13.222214 31.051315 9.111092
-13.222214 31.496046 13.909992
-13.222214 -0.000024 13.909992
-13.222214 -0.000024 4.703092
-13.222214 29.904606 8.361492
-10.068517 27.991125 0.848392
-14.019113 31.941717 -14.697392
-10.568517 28.491125 13.909992
-10.068517 27.991125 13.909992
-12.434817 31.051315 9.111092
-13.222214 31.051315 9.111092
-13.222214 31.496046 13.909992
-12.434817 31.496046 13.909992
14.019123 31.941717 -14.697392
14.550423 32.473022 -14.697392
14.050423 32.973022 -14.697392
13.519123 32.441715 -14.697392
13.519123 32.441715 -14.697392
14.050423 32.973022 -14.697392
14.550423 32.473022 -14.697392
14.019123 31.941717 -14.697392
0.000023 -0.000024 14.697392
0.000023 31.496046 14.697392
12.434823 31.496046 14.697392
12.434823 -0.000024 14.697392
-12.434817 -0.000024 4.703092
-12.434817 -0.000024 13.909992
-12.434817 -31.496124 13.909992
-12.434817 -31.051325 9.111092
-12.434817 -29.904625 8.361492
-12.434817 -31.496124 13.909992
-12.434817 -31.496124 14.697392
0.000023 -31.496124 14.697392
0.000023 -31.496124 13.909992
-13.222214 -31.496124 13.909992
-12.434817 -31.496124 13.909992
-12.434817 -31.051325 9.111092
-13.222214 -31.051325 9.111092
0.000023 -31.496124 13.909992
-9.568517 -28.491123 13.909992
-10.068517 -28.991123 13.909992
-10.568517 -28.491123 13.909992
-12.434817 -31.496124 13.909992
13.222223 -0.000024 13.909992
13.222223 31.496046 13.909992
12.434823 31.496046 13.909992
12.434823 -0.000024 13.909992
12.434823 -0.000024 13.909992
12.434823 31.496046 13.909992
13.222223 31.496046 13.909992
13.222223 -0.000024 13.909992
10.068523 -27.991123 0.848392
14.019123 -31.941725 -14.697392
14.550423 -32.473022 -14.697392
10.568523 -28.491123 0.971592
10.568523 -28.491123 13.909992
10.068523 -27.991123 13.909992
0.000023 -31.496124 13.909992
9.568523 -28.491123 13.909992
10.068523 -28.991123 13.909992
10.568523 -28.491123 13.909992
12.434823 -0.000024 13.909992
12.434823 -31.496124 13.909992
12.434823 -0.000024 13.909992
10.068523 -27.991123 13.909992
10.568523 -28.491123 13.909992
12.434823 -31.496124 13.909992
0.000023 -31.496124 13.909992
0.000023 -31.496124 14.697392
12.434823 -31.496124 14.697392
12.434823 -31.496124 13.909992
0.000023 -31.496124 13.909992
0.000023 -31.496124 14.697392
-12.434817 -31.496124 14.697392
-12.434817 -31.496124 13.909992
12.434823 31.496046 13.909992
12.434823 -0.000024 13.909992
12.434823 -0.000024 14.697392
12.434823 31.496046 14.697392
-12.434817 -0.000024 13.909992
-12.434817 -0.000024 4.703092
-12.434817 29.904606 8.361492
-12.434817 31.051315 9.111092
-12.434817 31.496046 13.909992
9.568523 -28.491123 0.848392
9.568523 -28.491123 13.909992
10.068523 -28.991123 13.909992
10.068523 -28.991123 0.971592
14.050423 -32.973022 -14.697392
13.519123 -32.441723 -14.697392
-12.434817 29.904606 8.361492
-13.222214 29.904606 8.361492
-13.519113 32.441715 -14.697392
-14.050423 32.973022 -14.697392
-14.550423 32.473022 -14.697392
-14.019113 31.941717 -14.697392
-10.068517 -27.991123 13.909992
0.000023 -0.000024 13.909992
-12.434817 -0.000024 13.909992
-12.434817 -0.000024 4.703092
-12.434817 -0.000024 13.909992
-12.434817 31.496046 13.909992
-12.434817 31.051315 9.111092
-12.434817 29.904606 8.361492
14.050423 32.973022 -14.697392
10.068523 28.991125 0.971592
10.568523 28.491125 0.971592
14.550423 32.473022 -14.697392
-13.222214 -31.051325 9.111092
-13.222214 -31.496124 13.909992
-13.222214 -0.000024 13.909992
-13.222214 -0.000024 4.703092
-13.222214 -29.904625 8.361492
10.568523 28.491125 0.971592
10.568523 28.491125 13.909992
10.068523 28.991125 13.909992
10.068523 28.991125 0.971592
10.068523 28.991125 13.909992
10.568523 28.491125 13.909992
0.000023 -0.000024 14.697392
0.000023 31.496046 14.697392
-12.434817 31.496046 14.697392
-12.434817 -0.000024 14.697392
12.434823 -0.000024 13.909992
12.434823 -31.496124 13.909992
13.222223 -31.496124 13.909992
13.222223 -0.000024 13.909992
-12.434817 31.496046 13.909992
-12.434817 31.496046 14.697392
0.000023 31.496046 14.697392
0.000023 31.496046 13.909992
12.434823 -29.904625 8.361492
12.434823 -31.051325 9.111092
12.434823 -31.496124 13.909992
12.434823 -0.000024 13.909992
12.434823 -0.000024 4.703092
-10.568517 28.491125 13.909992
-12.434817 -0.000024 13.909992
-12.434817 31.496046 13.909992
0.000023 31.496046 13.909992
-10.068517 28.991125 13.909992
-13.222214 31.051315 9.111092
-13.222214 29.904606 8.361492
-12.434817 29.904606 8.361492
-12.434817 31.051315 9.111092
-13.222214 31.496046 13.909992
-12.434817 31.496046 13.909992
-10.068517 27.991125 13.909992
-10.568517 28.491125 13.909992
-12.434817 -0.000024 13.909992
0.000023 -0.000024 13.909992
0.000023 31.496046 13.909992
-10.068517 28.991125 13.909992
-9.568517 28.491125 13.909992
12.434823 -17.113924 5.118792
12.434823 -15.218324 4.777092
12.434823 -13.293524 4.703092
12.434823 -0.000024 4.703092
13.222223 -0.000024 4.703092
13.222223 -13.293524 4.703092
13.222223 -15.218324 4.777092
13.222223 -17.113924 5.118792
13.222223 -29.904625 8.361492
12.434823 -29.904625 8.361492
-13.222214 -0.000024 13.909992
-13.222214 -31.496124 13.909992
-12.434817 -31.496124 13.909992
-12.434817 -0.000024 13.909992
-12.434817 -31.496124 14.697392
-12.434817 -0.000024 14.697392
-12.434817 -0.000024 13.909992
-12.434817 -31.496124 13.909992
0.000023 31.496046 13.909992
0.000023 31.496046 14.697392
-12.434817 31.496046 14.697392
-12.434817 31.496046 13.909992
-13.222214 -17.113924 5.118792
-13.222214 -29.904625 8.361492
-12.434817 -29.904625 8.361492
-12.434817 -17.113924 5.118792
-12.434817 -15.218324 4.777092
-12.434817 -0.000024 4.703092
-13.222214 -0.000024 4.703092
-13.222214 -15.218324 4.777092
12.434823 -31.496124 13.909992
12.434823 -31.051325 9.111092
12.434823 -29.904625 8.361492
12.434823 -0.000024 4.703092
12.434823 -0.000024 13.909992
13.222223 -31.051325 9.111092
13.222223 -31.496124 13.909992
13.222223 -0.000024 13.909992
13.222223 -0.000024 4.703092
13.222223 -29.904625 8.361492
-12.434817 31.496046 13.909992
-12.434817 -0.000024 13.909992
-12.434817 -0.000024 14.697392
-12.434817 31.496046 14.697392
-12.434817 -0.000024 13.909992
-12.434817 -31.496124 13.909992
-13.222214 -31.496124 13.909992
-13.222214 -0.000024 13.909992
-10.068517 27.991125 13.909992
-9.568517 28.491125 13.909992
0.000023 -0.000024 13.909992
12.434823 31.051315 9.111092
12.434823 29.904606 8.361492
12.434823 -0.000024 4.703092
12.434823 -0.000024 13.909992
12.434823 31.496046 13.909992
-13.222214 -0.000024 4.703092
-13.222214 -0.000024 13.909992
-13.222214 -31.496124 13.909992
-13.222214 -31.051325 9.111092
-13.222214 -29.904625 8.361492
13.222223 -29.904625 8.361492
12.434823 -29.904625 8.361492
12.434823 17.113876 5.118792
12.434823 15.218276 4.777092
12.434823 13.293476 4.703092
12.434823 -0.000024 4.703092
13.222223 -0.000024 4.703092
13.222223 13.293476 4.703092
13.222223 15.218276 4.777092
13.222223 17.113876 5.118792
13.222223 29.904606 8.361492
12.434823 29.904606 8.361492
-12.434817 31.496046 13.909992
13.222223 -0.000024 4.703092
13.222223 -0.000024 13.909992
13.222223 31.496046 13.909992
13.222223 31.051315 9.111092
13.222223 29.904606 8.361492
-13.222214 17.113876 5.118792
-13.222214 15.218276 4.777092
-13.222214 13.293476 4.703092
-13.222214 -0.000024 4.703092
-12.434817 -0.000024 4.703092
-12.434817 13.293476 4.703092
-12.434817 15.218276 4.777092
-12.434817 17.113876 5.118792
12.434823 -0.000024 13.909992
12.434823 -0.000024 4.703092
12.434823 29.904606 8.361492
12.434823 31.051315 9.111092
12.434823 31.496046 13.909992
12.434823 -31.496124 14.697392
12.434823 -0.000024 14.697392
12.434823 -0.000024 13.909992
12.434823 -31.496124 13.909992
-12.434817 -0.000024 13.909992
-12.434817 -0.000024 4.703092
-12.434817 -29.904625 8.361492
-12.434817 -31.051325 9.111092
-12.434817 -31.496124 13.909992
-12.434817 -0.000024 14.697392
-12.434817 -31.496124 14.697392
0.000023 -31.496124 14.697392
0.000023 -0.000024 14.697392
0.000023 -0.000024 13.909992
10.068523 -27.991123 13.909992
-14.019113 31.941717 -14.697392
-14.550423 32.473022 -14.697392
-14.050423 32.973022 -14.697392
-13.519113 32.441715 -14.697392
12.434823 -31.496124 13.909992
12.434823 -31.496124 14.697392
0.000023 -31.496124 14.697392
0.000023 -31.496124 13.909992
14.019123 -31.941725 -14.697392
14.550423 -32.473022 -14.697392
14.050423 -32.973022 -14.697392
13.519123 -32.441723 -14.697392
12.434823 -31.496124 13.909992
12.434823 -0.000024 13.909992
12.434823 -0.000024 14.697392
12.434823 -31.496124 14.697392
12.434823 31.496046 13.909992
13.222223 31.496046 13.909992
10.068523 -28.991123 13.909992
9.568523 -28.491123 13.909992
0.000023 -0.000024 13.909992
0.000023 -31.496124 13.909992
-13.222214 -0.000024 4.703092
-13.222214 -0.000024 13.909992
-13.222214 31.496046 13.909992
-13.222214 31.051315 9.111092
-13.222214 29.904606 8.361492
14.050423 -32.973022 -14.697392
9.568523 -28.491123 13.909992
0.000023 -0.000024 14.697392
0.000023 -31.496124 14.697392
12.434823 -31.496124 14.697392
12.434823 -0.000024 14.697392
0.000023 -0.000024 14.697392
0.000023 -31.496124 14.697392
-12.434817 -31.496124 14.697392
-12.434817 -0.000024 14.697392
-9.568517 28.491125 0.848392
-9.568517 28.491125 13.909992
14.550423 -32.473022 -14.697392
10.068523 -27.991123 13.909992
-13.519113 32.441715 -14.697392
-12.434817 -0.000024 13.909992
-12.434817 31.496046 13.909992
-13.222214 31.496046 13.909992
-13.222214 -0.000024 13.909992
-13.222214 -0.000024 13.909992
-13.222214 31.496046 13.909992
-12.434817 31.496046 13.909992
-12.434817 -0.000024 13.909992
10.568523 28.491125 13.909992
10.068523 28.991125 13.909992
0.000023 31.496046 13.909992
12.434823 31.496046 13.909992
12.434823 -0.000024 13.909992
9.568523 28.491125 13.909992
10.068523 27.991125 13.909992
0.000023 -0.000024 13.909992
10.568523 28.491125 13.909992
10.068523 27.991125 13.909992
0.000023 31.496046 13.909992
0.000023 -0.000024 13.909992
12.434823 -0.000024 13.909992
12.434823 31.496046 13.909992
10.068523 28.991125 13.909992
12.434823 31.496046 14.697392
12.434823 -0.000024 14.697392
12.434823 -0.000024 13.909992
12.434823 31.496046 13.909992
-14.019113 -31.941725 -14.697392
-14.550423 -32.473022 -14.697392
-14.050423 -32.973022 -14.697392
-13.519113 -32.441723 -14.697392
9.568523 28.491125 13.909992
12.434823 31.496046 13.909992
12.434823 31.496046 14.697392
0.000023 31.496046 14.697392
0.000023 31.496046 13.909992
12.434823 -0.000024 14.697392
12.434823 31.496046 14.697392
0.000023 31.496046 14.697392
0.000023 -0.000024 14.697392
10.068523 27.991125 13.909992
-9.568517 -28.491123 13.909992
-10.068517 -27.991123 13.909992
0.000023 -0.000024 13.909992
14.550423 32.473022 -14.697392
14.050423 32.973022 -14.697392
9.568523 28.491125 13.909992
14.019123 31.941717 -14.697392
10.068523 27.991125 0.848392
10.068523 27.991125 13.909992
13.519123 32.441715 -14.697392
9.568523 28.491125 0.848392
13.222223 -17.113924 5.118792
13.222223 -15.218324 4.777092
13.222223 -13.293524 4.703092
13.222223 -0.000024 4.703092
12.434823 -0.000024 4.703092
12.434823 -13.293524 4.703092
12.434823 -15.218324 4.777092
12.434823 -17.113924 5.118792
9.568523 28.491125 13.909992
-12.434817 17.113876 5.118792
-12.434817 15.218276 4.777092
-12.434817 13.293476 4.703092
-12.434817 -0.000024 4.703092
-13.222214 -0.000024 4.703092
-13.222214 13.293476 4.703092
-13.222214 15.218276 4.777092
-13.222214 17.113876 5.118792
-9.568517 28.491125 12.764392
-9.568517 28.491125 13.909992
9.568523 28.491125 13.909992
9.568523 28.491125 12.764392
13.222223 17.113876 5.118792
13.222223 15.218276 4.777092
13.222223 13.293476 4.703092
13.222223 -0.000024 4.703092
12.434823 -0.000024 4.703092
12.434823 13.293476 4.703092
12.434823 15.218276 4.777092
12.434823 17.113876 5.118792
9.568523 -28.491123 12.764392
9.568523 -28.491123 13.909992
-9.568517 -28.491123 13.909992
-9.568517 -28.491123 12.764392
-9.568517 -28.491123 12.764392
-9.568517 -28.491123 13.909992
9.568523 -28.491123 13.909992
9.568523 -28.491123 12.764392
4 0 1 2 3
4 4 5 6 7
4 8 9 10 11
5 12 13 14 15 16
4 17 18 19 20
4 21 22 23 24
4 25 26 27 28
4 29 30 31 32
4 33 34 35 36
4 37 38 39 40
5 41 42 43 44 45
6 27 46 47 48 49 28
4 50 51 52 53
6 54 55 56 57 26 25
4 58 59 60 61
4 62 63 64 65
6 66 67 68 69 70 71
6 72 73 74 75 76 77
4 78 79 80 81
5 82 83 84 85 86
4 87 88 89 90
4 91 92 93 94
4 95 96 97 98
4 99 100 101 102
4 103 104 105 106
4 107 108 109 110
6 111 112 113 114 63 62
4 63 114 115 64
4 71 70 76 75
4 116 117 118 119
6 120 121 122 5 4 123
4 124 125 126 127
5 128 129 130 131 132
6 133 134 7 6 135 136
4 5 122 135 6
4 137 138 139 140
4 141 142 143 144
4 145 146 147 148
4 149 150 151 152
4 108 104 103 109
5 153 154 155 156 157
4 158 159 160 161
4 162 163 164 165
4 56 55 48 47
4 27 26 57 46
5 166 167 168 169 170
4 171 172 173 174
4 175 176 177 178
6 179 180 181 182 183 184
6 185 186 187 188 189 190
4 191 192 193 194
4 195 196 197 198
4 199 200 201 202
4 203 204 205 206
5 207 208 209 210 211
6 212 213 214 215 216 217
4 215 214 183 182
4 137 218 219 138
4 220 221 222 223
7 170 169 224 167 166 225 226
4 133 120 123 134
5 227 228 229 230 231
4 232 233 234 235
5 236 237 238 239 240
4 67 73 72 68
4 241 242 243 244
4 233 245 246 234
4 247 248 249 250
4 251 252 253 254
4 255 256 257 258
5 259 260 261 262 263
5 264 265 266 267 268
4 269 270 271 272
4 273 269 272 274
7 275 276 277 278 279 280 281
10 282 283 284 285 286 287 288 289 290 291
4 292 293 294 295
4 296 297 298 299
4 300 301 302 303
8 304 305 306 307 308 309 310 311
5 312 313 314 315 316
5 317 318 319 320 321
4 55 54 49 48
4 164 306 305 165
4 322 323 324 325
4 326 327 328 329
7 330 331 268 267 332 265 264
5 333 334 335 336 337
5 338 339 340 341 342
4 60 343 344 61
10 345 346 347 348 349 350 351 352 353 354
5 276 280 279 355 277
5 356 357 358 359 360
10 361 362 363 364 365 366 367 368 271 270
5 369 370 371 372 373
4 374 375 376 377
4 31 291 290 32
5 378 379 380 381 382
4 101 354 353 102
4 383 384 385 386
6 387 189 188 388 186 185
4 389 390 391 392
4 393 394 395 396
4 397 398 399 400
4 401 402 403 404
4 405 406 95 98
8 194 193 407 408 192 191 409 410
5 411 412 413 414 415
6 416 119 118 417 35 34
4 418 419 420 421
4 216 215 182 181
4 422 423 424 425
4 113 112 426 427
6 428 33 36 429 117 116
4 111 430 426 112
4 431 432 433 434
4 213 212 179 184
6 65 64 115 427 426 430
4 429 36 35 417
4 435 436 437 438
4 179 212 217 180
5 439 440 441 442 443
7 441 440 444 445 439 443 446
4 66 71 75 74
7 447 448 449 450 451 452 453
4 454 455 456 457
4 458 459 460 461
5 449 448 462 453 452
4 463 464 465 466
4 467 468 469 470
4 69 68 72 77
6 78 81 235 234 246 471
7 14 13 472 473 12 16 474
4 475 241 244 476
4 477 79 78 471
6 475 478 479 480 242 241
4 478 481 482 479
6 245 233 232 80 79 477
4 121 120 133 136
10 483 484 485 486 487 488 489 490 344 343
6 482 481 476 244 243 491
10 492 493 494 495 496 497 498 499 219 218
4 480 479 482 491
4 500 501 502 503
4 428 116 119 416
10 504 505 506 507 508 509 510 511 97 96
4 512 513 514 515
4 516 517 518 519
