ply
format ascii 1.0
comment Created by Blender 2.82 (sub 7) - www.blender.org, source file: ''
element vertex 1029
property float x
property float y
property float z
element face 202
property list uchar uint vertex_indices
end_header
10.999995 33.500000 7.625000
10.999995 35.250000 7.625000
10.999995 35.250000 -9.125000
10.999995 33.500000 -9.125000
-10.999995 33.500000 -0.750000
-12.749995 33.500000 -0.750000
-12.749995 -33.500000 -0.750000
-10.999995 -33.500000 -0.750000
10.999995 -33.500000 -0.750000
10.999995 -33.500000 -2.528330
-10.999995 -33.500000 -2.528330
-10.999995 -33.500000 -0.750000
-10.999995 33.500000 -0.750000
10.999995 33.500000 -0.750000
10.999995 35.250000 -0.750000
-10.999995 35.250000 -0.750000
-4.099405 21.315001 -2.349070
-6.312895 17.294001 -2.349070
-6.312895 17.294001 -1.250000
-4.099405 21.315001 -1.250000
-3.732405 19.552999 -2.349070
-3.099105 20.858999 -2.349070
-3.099105 20.858999 -1.250000
-3.732405 19.552999 -1.250000
-2.274205 26.596001 -1.250000
-2.635805 25.245001 -1.250000
-2.635805 25.245001 -2.349070
-2.274205 26.596001 -2.349070
-10.999995 33.500000 -0.750000
-10.999995 35.250000 -0.750000
-10.999995 35.250000 -2.524110
-10.999995 33.500000 -2.524110
-0.471005 -1.099000 -2.230610
0.087495 -8.600000 -2.230610
0.087495 -8.600000 -1.131540
-0.471005 -1.099000 -1.131540
-2.274205 26.596001 -2.349070
-1.977205 27.964001 -2.349070
-1.977205 27.964001 -1.250000
-2.274205 26.596001 -1.250000
1.455695 -26.570000 -2.230610
1.158695 -27.937000 -2.230610
1.158695 -27.937000 -1.131540
1.455695 -26.570000 -1.131540
0.883895 3.907000 -1.250000
1.281395 6.676000 -1.250000
1.281395 6.676000 -2.349070
0.883895 3.907000 -2.349070
10.999995 -35.250000 -2.528330
10.999995 -35.250000 -0.750000
-10.999995 -35.250000 -0.750000
-10.999995 -35.250000 -2.528330
-2.274205 26.596001 -1.250000
-1.977205 27.964001 -1.250000
-1.977205 27.964001 -2.349070
-2.274205 26.596001 -2.349070
-10.999995 -35.250000 -9.125000
-10.999995 -35.250000 7.625000
-12.749995 -35.250000 7.625000
-12.749995 -35.250000 -9.125000
-0.033605 27.249001 -2.349070
4.293095 17.284000 -2.349070
4.293095 17.284000 -1.250000
-0.033605 27.249001 -1.250000
12.749995 33.500000 -9.125000
12.749995 33.500000 7.625000
10.999995 33.500000 7.625000
10.999995 33.500000 -9.125000
10.999995 -35.250000 7.625000
12.749995 -35.250000 7.625000
12.749995 -33.500000 7.625000
10.999995 -33.500000 7.625000
-0.471005 -1.099000 -2.230610
-3.221805 -13.754000 -2.230610
-3.221805 -13.754000 -1.131540
-0.471005 -1.099000 -1.131540
-2.274205 26.596001 -2.349070
-2.635805 25.245001 -2.349070
-2.635805 25.245001 -1.250000
-2.274205 26.596001 -1.250000
-3.251105 -20.108999 -1.131540
-4.581605 -17.969000 -1.131540
-5.111585 -17.257000 -1.131540
-5.111585 -17.257000 -2.230610
-4.581605 -17.969000 -2.230610
-3.251105 -20.108999 -2.230610
-2.166405 -22.384001 -2.230610
-1.720505 -23.563000 -2.230610
-1.720505 -23.563000 -1.131540
-2.166405 -22.384001 -1.131540
-1.218205 9.848000 -2.349070
-2.043605 12.229000 -2.349070
-2.043605 12.229000 -1.250000
-1.218205 9.848000 -1.250000
-0.662105 7.390000 -1.250000
-0.382305 4.885000 -1.250000
-0.347505 1.125000 -1.250000
-0.347505 1.125000 -2.349070
-0.382305 4.885000 -2.349070
-0.662105 7.390000 -2.349070
-0.348305 33.514000 -1.250000
-0.657305 29.187000 -1.250000
-0.657305 29.187000 -2.349070
-0.348305 33.514000 -2.349070
-3.183605 -22.801001 -2.230610
-1.569305 -33.487000 -2.230610
-1.569305 -33.487000 -1.131540
-3.183605 -22.801001 -1.131540
12.749995 33.500000 -0.750000
12.749995 -33.500000 -0.750000
12.749995 -33.500000 -2.528330
12.749995 33.500000 -2.528330
-6.312895 17.294001 -2.349070
-3.546805 12.908000 -2.349070
-3.546805 12.908000 -1.250000
-6.312895 17.294001 -1.250000
-10.999995 -33.500000 -9.125000
-10.999995 -35.250000 -9.125000
-10.999995 -35.250000 7.625000
-10.999995 -33.500000 7.625000
12.749995 -33.500000 7.625000
12.749995 -33.500000 -9.125000
10.999995 -33.500000 -9.125000
10.999995 -33.500000 7.625000
1.578395 8.043000 -1.250000
1.939995 9.394000 -1.250000
1.939995 9.394000 -2.349070
1.578395 8.043000 -2.349070
4.293095 17.284000 -2.349070
3.036595 15.086000 -2.349070
3.036595 15.086000 -1.250000
4.293095 17.284000 -1.250000
12.749995 -35.250000 -9.125000
10.999995 -35.250000 -9.125000
10.999995 -33.500000 -9.125000
12.749995 -33.500000 -9.125000
2.242295 -11.785000 -1.131540
0.628095 -1.099000 -1.131540
-0.471005 -1.099000 -1.131540
0.087495 -8.600000 -1.131540
4.170295 -17.329000 -1.131540
-0.470205 -33.487000 -1.131540
0.627595 -33.500000 -1.131540
5.494395 -17.267000 -1.131540
1.282595 26.254999 -1.250000
1.050595 27.431999 -1.250000
0.884295 28.620001 -1.250000
0.784395 29.815001 -1.250000
0.750795 31.021999 -1.250000
0.750795 33.514000 -1.250000
0.750795 33.514000 -2.349070
0.750795 31.021999 -2.349070
0.784395 29.815001 -2.349070
0.884295 28.620001 -2.349070
1.050595 27.431999 -2.349070
1.282595 26.254999 -2.349070
1.579695 25.093000 -2.349070
1.940895 23.950001 -2.349070
2.365095 22.827999 -2.349070
2.850995 21.731001 -2.349070
2.850995 21.731001 -1.250000
2.365095 22.827999 -1.250000
1.940895 23.950001 -1.250000
1.579695 25.093000 -1.250000
-1.579605 30.732000 -2.349070
-1.977205 27.964001 -2.349070
-1.977205 27.964001 -1.250000
-1.579605 30.732000 -1.250000
-12.749995 33.500000 7.625000
-10.999995 33.500000 7.625000
-10.999995 35.250000 7.625000
-12.749995 35.250000 7.625000
1.832795 12.446000 -2.349070
1.326295 11.086000 -2.349070
0.509895 8.302000 -2.349070
0.509895 8.302000 -1.250000
1.326295 11.086000 -1.250000
1.832795 12.446000 -1.250000
2.403295 13.780000 -1.250000
2.403295 13.780000 -2.349070
-0.897605 27.756001 -2.349070
-1.205705 26.337999 -2.349070
-1.205705 26.337999 -1.250000
-0.897605 27.756001 -1.250000
0.762295 -24.909000 -1.131540
0.387195 -26.311001 -1.131540
0.387195 -26.311001 -2.230610
0.762295 -24.909000 -2.230610
1.203595 -23.527000 -2.230610
2.280595 -20.832001 -2.230610
2.280595 -20.832001 -1.131540
1.203595 -23.527000 -1.131540
-0.347505 1.125000 -2.349070
-0.038505 5.452000 -2.349070
-0.038505 5.452000 -1.250000
-0.347505 1.125000 -1.250000
2.913895 -19.525999 -2.230610
2.280595 -20.832001 -2.230610
2.280595 -20.832001 -1.131540
2.913895 -19.525999 -1.131540
-3.060805 11.811000 -1.250000
-2.275405 9.546000 -1.250000
-1.746305 7.207000 -1.250000
-1.480105 4.824000 -1.250000
-1.446605 1.125000 -1.250000
-1.446605 1.125000 -2.349070
-1.480105 4.824000 -2.349070
-1.746305 7.207000 -2.349070
-2.275405 9.546000 -2.349070
-3.060805 11.811000 -2.349070
-3.546805 12.908000 -2.349070
-3.546805 12.908000 -1.250000
0.883895 3.907000 -2.349070
1.281395 6.676000 -2.349070
1.281395 6.676000 -1.250000
0.883895 3.907000 -1.250000
0.761095 -30.705999 -2.230610
1.158695 -27.937000 -2.230610
1.158695 -27.937000 -1.131540
0.761095 -30.705999 -1.131540
-0.470205 -33.487000 -2.230610
4.170295 -17.329000 -2.230610
0.087495 -8.600000 -2.230610
-0.471005 -1.099000 -2.230610
0.628095 -1.099000 -2.230610
2.242295 -11.785000 -2.230610
5.494395 -17.267000 -2.230610
0.627595 -33.500000 -2.230610
-3.061205 23.912001 -2.349070
-2.635805 25.245001 -2.349070
-2.635805 25.245001 -1.250000
-3.061205 23.912001 -1.250000
-3.549405 22.601000 -1.250000
-4.099405 21.315001 -1.250000
-4.099405 21.315001 -2.349070
-3.549405 22.601000 -2.349070
12.749995 -35.250000 7.625000
12.749995 -35.250000 9.125000
-12.749995 -35.250000 9.125000
-12.749995 -35.250000 7.625000
-0.033605 27.249001 -1.250000
4.293095 17.284000 -1.250000
4.293095 17.284000 -2.349070
-0.033605 27.249001 -2.349070
-0.897605 27.756001 -1.250000
-0.657305 29.187000 -1.250000
-0.657305 29.187000 -2.349070
-0.897605 27.756001 -2.349070
-3.099105 20.858999 -2.349070
-3.732405 19.552999 -2.349070
-3.732405 19.552999 -1.250000
-3.099105 20.858999 -1.250000
10.999995 -1.099000 -0.750000
-10.999995 -1.099000 -0.750000
-10.999995 -1.099000 -2.528330
-0.471005 -1.099000 -2.528330
-2.554405 13.381000 -2.349070
-3.763805 15.592000 -2.349070
-4.988805 17.356001 -2.349070
-4.988805 17.356001 -1.250000
-3.763805 15.592000 -1.250000
-2.554405 13.381000 -1.250000
0.627295 -33.513000 -2.230610
0.627295 -33.513000 -1.131540
0.761095 -30.705999 -1.131540
0.761095 -30.705999 -2.230610
-0.348305 33.514000 -2.349070
-0.348305 33.514000 -1.250000
2.280595 -20.832001 -2.230610
2.913895 -19.525999 -2.230610
2.913895 -19.525999 -1.131540
2.280595 -20.832001 -1.131540
2.280595 -20.832001 -1.131540
2.913895 -19.525999 -1.131540
2.913895 -19.525999 -2.230610
2.280595 -20.832001 -2.230610
0.087495 -8.600000 -1.131540
4.170295 -17.329000 -1.131540
4.170295 -17.329000 -2.230610
0.087495 -8.600000 -2.230610
0.761095 -30.705999 -1.131540
1.158695 -27.937000 -1.131540
1.158695 -27.937000 -2.230610
0.761095 -30.705999 -2.230610
-0.470205 -33.487000 -1.131540
-0.161205 -29.160000 -1.131540
-0.161205 -29.160000 -2.230610
-0.470205 -33.487000 -2.230610
0.079095 -27.729000 -1.131540
0.387195 -26.311001 -1.131540
0.387195 -26.311001 -2.230610
0.079095 -27.729000 -2.230610
4.293095 17.284000 -2.349070
-0.033605 27.249001 -2.349070
-0.348305 33.514000 -2.349070
0.750795 33.514000 -2.349070
2.850995 21.731001 -2.349070
5.617095 17.344999 -2.349070
0.750295 1.113000 -2.349070
-0.347505 1.125000 -2.349070
-12.749995 -35.250000 -9.125000
-12.749995 -33.500000 -9.125000
-12.749995 -33.500000 7.625000
-12.749995 -35.250000 7.625000
-12.749995 -35.250000 -9.125000
-12.749995 -35.250000 7.625000
-10.999995 -35.250000 7.625000
-10.999995 -35.250000 -9.125000
3.036595 15.086000 -2.349070
2.403295 13.780000 -2.349070
2.403295 13.780000 -1.250000
3.036595 15.086000 -1.250000
-5.111585 -17.257000 -2.230610
-0.471005 -1.099000 -2.230610
-1.568805 -1.086000 -2.230610
-6.435635 -17.319000 -2.230610
-3.183605 -22.801001 -2.230610
-1.569305 -33.487000 -2.230610
-0.470205 -33.487000 -2.230610
-1.720505 -23.563000 -2.230610
3.036595 15.086000 -1.250000
2.403295 13.780000 -1.250000
2.403295 13.780000 -2.349070
3.036595 15.086000 -2.349070
1.832795 12.446000 -1.250000
1.326295 11.086000 -1.250000
0.509895 8.302000 -1.250000
0.509895 8.302000 -2.349070
1.326295 11.086000 -2.349070
1.832795 12.446000 -2.349070
2.403295 13.780000 -2.349070
2.403295 13.780000 -1.250000
1.578395 8.043000 -2.349070
1.939995 9.394000 -2.349070
1.939995 9.394000 -1.250000
1.578395 8.043000 -1.250000
-12.749995 33.500000 7.625000
-12.749995 35.250000 7.625000
-12.749995 35.250000 -9.125000
-12.749995 33.500000 -9.125000
-6.435635 -17.319000 -2.230610
-1.568805 -1.086000 -2.230610
-0.471005 -1.099000 -2.230610
-5.111585 -17.257000 -2.230610
-1.720505 -23.563000 -2.230610
-0.470205 -33.487000 -2.230610
-1.569305 -33.487000 -2.230610
-3.183605 -22.801001 -2.230610
12.749995 35.250000 9.125000
12.749995 -35.250000 9.125000
12.749995 -35.250000 7.625000
12.749995 35.250000 7.625000
10.999995 33.500000 7.625000
12.749995 33.500000 7.625000
12.749995 35.250000 7.625000
10.999995 35.250000 7.625000
12.749995 35.250000 9.125000
12.749995 35.250000 7.625000
-12.749995 35.250000 7.625000
-12.749995 35.250000 9.125000
0.079095 -27.729000 -1.131540
-0.161205 -29.160000 -1.131540
-0.161205 -29.160000 -2.230610
0.079095 -27.729000 -2.230610
2.403295 13.780000 -2.349070
3.036595 15.086000 -2.349070
3.036595 15.086000 -1.250000
2.403295 13.780000 -1.250000
1.578395 8.043000 -1.250000
1.281395 6.676000 -1.250000
1.281395 6.676000 -2.349070
1.578395 8.043000 -2.349070
1.578395 8.043000 -2.349070
1.281395 6.676000 -2.349070
1.281395 6.676000 -1.250000
1.578395 8.043000 -1.250000
0.079095 -27.729000 -2.230610
-0.161205 -29.160000 -2.230610
-0.161205 -29.160000 -1.131540
0.079095 -27.729000 -1.131540
1.455695 -26.570000 -1.131540
1.817295 -25.218000 -1.131540
1.817295 -25.218000 -2.230610
1.455695 -26.570000 -2.230610
-10.999995 33.500000 -9.125000
-10.999995 33.500000 7.625000
-12.749995 33.500000 7.625000
-12.749995 33.500000 -9.125000
1.455695 -26.570000 -2.230610
1.817295 -25.218000 -2.230610
1.817295 -25.218000 -1.131540
1.455695 -26.570000 -1.131540
-3.251105 -20.108999 -2.230610
-4.581605 -17.969000 -2.230610
-5.111585 -17.257000 -2.230610
-5.111585 -17.257000 -1.131540
-4.581605 -17.969000 -1.131540
-3.251105 -20.108999 -1.131540
-2.166405 -22.384001 -1.131540
-1.720505 -23.563000 -1.131540
-1.720505 -23.563000 -2.230610
-2.166405 -22.384001 -2.230610
12.749995 35.250000 7.625000
12.749995 33.500000 7.625000
12.749995 33.500000 -9.125000
12.749995 35.250000 -9.125000
-1.720505 -23.563000 -1.131540
-5.111585 -17.257000 -1.131540
-0.471005 -1.099000 -1.131540
-1.568805 -1.086000 -1.131540
-6.435635 -17.319000 -1.131540
-3.183605 -22.801001 -1.131540
-1.569305 -33.487000 -1.131540
-0.470205 -33.487000 -1.131540
12.749995 33.500000 -9.125000
10.999995 33.500000 -9.125000
10.999995 35.250000 -9.125000
12.749995 35.250000 -9.125000
2.242295 -11.785000 -2.230610
0.628095 -1.099000 -2.230610
0.628095 -1.099000 -1.131540
2.242295 -11.785000 -1.131540
-3.221805 -13.754000 -2.230610
-3.855105 -15.059000 -2.230610
-3.855105 -15.059000 -1.131540
-3.221805 -13.754000 -1.131540
-3.221805 -13.754000 -1.131540
-3.855105 -15.059000 -1.131540
-3.855105 -15.059000 -2.230610
-3.221805 -13.754000 -2.230610
-3.855105 -15.059000 -2.230610
-3.221805 -13.754000 -2.230610
-3.221805 -13.754000 -1.131540
-3.855105 -15.059000 -1.131540
4.170295 -17.329000 -2.230610
-0.470205 -33.487000 -2.230610
0.627595 -33.500000 -2.230610
5.494395 -17.267000 -2.230610
2.242295 -11.785000 -2.230610
0.628095 -1.099000 -2.230610
-0.471005 -1.099000 -2.230610
0.087495 -8.600000 -2.230610
4.170295 -17.329000 -2.230610
4.170295 -17.329000 -1.131540
-3.672105 -12.011000 -1.131540
-3.183905 -10.700000 -1.131540
-2.758505 -9.368000 -1.131540
-2.396905 -8.016000 -1.131540
-2.099905 -6.649000 -1.131540
-1.868205 -5.269000 -1.131540
-1.702405 -3.880000 -1.131540
-1.602105 -2.485000 -1.131540
-1.568505 -1.073000 -1.131540
-1.568505 -1.073000 -2.230610
-1.602105 -2.485000 -2.230610
-1.702405 -3.880000 -2.230610
-1.868205 -5.269000 -2.230610
-2.099905 -6.649000 -2.230610
-2.396905 -8.016000 -2.230610
-2.758505 -9.368000 -2.230610
-3.183905 -10.700000 -2.230610
-3.672105 -12.011000 -2.230610
-4.222105 -13.298000 -2.230610
-4.832605 -14.556000 -2.230610
-5.502255 -15.785000 -2.230610
-6.435635 -17.319000 -2.230610
-6.435635 -17.319000 -1.131540
-5.502255 -15.785000 -1.131540
-4.832605 -14.556000 -1.131540
-4.222105 -13.298000 -1.131540
-3.099105 20.858999 -2.349070
-1.205705 26.337999 -2.349070
-1.205705 26.337999 -1.250000
-3.099105 20.858999 -1.250000
0.883895 3.907000 -2.349070
0.883895 3.907000 -1.250000
0.749995 1.099000 -1.250000
0.749995 1.099000 -2.349070
2.242695 -23.886000 -1.131540
1.817295 -25.218000 -1.131540
1.817295 -25.218000 -2.230610
2.242695 -23.886000 -2.230610
2.730895 -22.575001 -2.230610
3.280895 -21.288000 -2.230610
3.280895 -21.288000 -1.131540
2.730895 -22.575001 -1.131540
-0.897605 27.756001 -1.250000
-1.205705 26.337999 -1.250000
-1.205705 26.337999 -2.349070
-0.897605 27.756001 -2.349070
-12.749995 -35.250000 9.125000
12.749995 -35.250000 9.125000
12.749995 35.250000 9.125000
-12.749995 35.250000 9.125000
-1.445805 33.540001 -2.349070
-1.445805 33.540001 -1.250000
-1.579605 30.732000 -1.250000
-1.579605 30.732000 -2.349070
0.627295 -33.513000 -2.230610
0.761095 -30.705999 -2.230610
0.761095 -30.705999 -1.131540
0.627295 -33.513000 -1.131540
-0.470205 -33.487000 -2.230610
-0.161205 -29.160000 -2.230610
-0.161205 -29.160000 -1.131540
-0.470205 -33.487000 -1.131540
-10.999995 -33.500000 7.625000
-10.999995 -35.250000 7.625000
-10.999995 -35.250000 -9.125000
-10.999995 -33.500000 -9.125000
2.242295 -11.785000 -1.131540
0.628095 -1.099000 -1.131540
0.628095 -1.099000 -2.230610
2.242295 -11.785000 -2.230610
10.999995 -1.099000 -2.528330
-10.999995 -1.099000 -2.528330
-10.999995 1.099000 -2.528330
10.999995 1.099000 -2.528330
10.999995 33.500000 -2.528330
12.749995 33.500000 -2.528330
12.749995 -33.500000 -2.528330
10.999995 -33.500000 -2.528330
-10.999995 -1.099000 -0.750000
-10.999995 1.099000 -0.750000
-10.999995 1.099000 -2.528330
-10.999995 -1.099000 -2.528330
-12.749995 -33.500000 -0.750000
-12.749995 33.500000 -0.750000
-12.749995 33.500000 -2.557150
-12.749995 -33.500000 -2.557150
5.617095 17.344999 -2.349070
2.850995 21.731001 -2.349070
2.850995 21.731001 -1.250000
5.617095 17.344999 -1.250000
5.617095 17.344999 -1.250000
0.750295 1.113000 -1.250000
-0.347505 1.125000 -1.250000
4.293095 17.284000 -1.250000
-0.033605 27.249001 -1.250000
-0.348305 33.514000 -1.250000
0.750795 33.514000 -1.250000
2.850995 21.731001 -1.250000
-10.999995 -33.500000 -2.557150
-10.999995 -33.500000 -0.750000
-12.749995 -33.500000 -0.750000
-12.749995 -33.500000 -2.557150
-10.999995 -33.500000 7.625000
-10.999995 -33.500000 -9.125000
-12.749995 -33.500000 -9.125000
-12.749995 -33.500000 7.625000
-10.999995 33.500000 -9.125000
-12.749995 33.500000 -9.125000
-12.749995 35.250000 -9.125000
-10.999995 35.250000 -9.125000
1.455695 -26.570000 -1.131540
1.158695 -27.937000 -1.131540
1.158695 -27.937000 -2.230610
1.455695 -26.570000 -2.230610
2.242695 -23.886000 -2.230610
1.817295 -25.218000 -2.230610
1.817295 -25.218000 -1.131540
2.242695 -23.886000 -1.131540
2.730895 -22.575001 -1.131540
3.280895 -21.288000 -1.131540
3.280895 -21.288000 -2.230610
2.730895 -22.575001 -2.230610
-0.471005 -1.099000 -1.131540
0.628095 -1.099000 -1.131540
2.242295 -11.785000 -1.131540
5.494395 -17.267000 -1.131540
0.627595 -33.500000 -1.131540
-0.470205 -33.487000 -1.131540
4.170295 -17.329000 -1.131540
0.087495 -8.600000 -1.131540
5.617095 17.344999 -2.349070
2.850995 21.731001 -2.349070
0.750795 33.514000 -2.349070
-0.348305 33.514000 -2.349070
-0.033605 27.249001 -2.349070
4.293095 17.284000 -2.349070
-0.347505 1.125000 -2.349070
0.750295 1.113000 -2.349070
12.749995 -35.250000 7.625000
-12.749995 -35.250000 7.625000
-12.749995 35.250000 7.625000
12.749995 35.250000 7.625000
-0.470205 -33.487000 -1.131540
-0.470205 -33.487000 -2.230610
-0.348305 33.514000 -1.250000
-0.033605 27.249001 -1.250000
4.293095 17.284000 -1.250000
-0.347505 1.125000 -1.250000
0.750295 1.113000 -1.250000
5.617095 17.344999 -1.250000
2.850995 21.731001 -1.250000
0.750795 33.514000 -1.250000
12.749995 -33.500000 7.625000
12.749995 -35.250000 7.625000
12.749995 -35.250000 -9.125000
12.749995 -33.500000 -9.125000
0.201895 6.883000 -1.250000
-0.038505 5.452000 -1.250000
-0.038505 5.452000 -2.349070
0.201895 6.883000 -2.349070
0.201895 6.883000 -2.349070
-0.038505 5.452000 -2.349070
-0.038505 5.452000 -1.250000
0.201895 6.883000 -1.250000
-4.988805 17.356001 -1.250000
-3.732405 19.552999 -1.250000
-3.732405 19.552999 -2.349070
-4.988805 17.356001 -2.349070
-3.128305 14.503000 -1.250000
-3.763805 15.592000 -1.250000
-4.458905 16.643000 -1.250000
-4.988805 17.356001 -1.250000
-4.988805 17.356001 -2.349070
-4.458905 16.643000 -2.349070
-3.763805 15.592000 -2.349070
-3.128305 14.503000 -2.349070
-2.554405 13.381000 -2.349070
-2.043605 12.229000 -2.349070
-2.043605 12.229000 -1.250000
-2.554405 13.381000 -1.250000
4.170295 -17.329000 -2.230610
2.913895 -19.525999 -2.230610
2.913895 -19.525999 -1.131540
4.170295 -17.329000 -1.131540
10.999995 -35.250000 7.625000
10.999995 -33.500000 7.625000
10.999995 -33.500000 -9.125000
10.999995 -35.250000 -9.125000
3.403595 13.324000 -2.349070
5.617095 17.344999 -2.349070
5.617095 17.344999 -1.250000
3.403595 13.324000 -1.250000
-5.111585 -17.257000 -1.131540
-3.855105 -15.059000 -1.131540
-3.855105 -15.059000 -2.230610
-5.111585 -17.257000 -2.230610
-3.061205 23.912001 -1.250000
-2.635805 25.245001 -1.250000
-2.635805 25.245001 -2.349070
-3.061205 23.912001 -2.349070
-3.549405 22.601000 -2.349070
-4.099405 21.315001 -2.349070
-4.099405 21.315001 -1.250000
-3.549405 22.601000 -1.250000
-12.749995 -35.250000 7.625000
-12.749995 -33.500000 7.625000
-12.749995 -33.500000 -9.125000
-12.749995 -35.250000 -9.125000
1.282595 26.254999 -2.349070
1.050595 27.431999 -2.349070
0.884295 28.620001 -2.349070
0.784395 29.815001 -2.349070
0.750795 31.021999 -2.349070
0.750795 33.514000 -2.349070
0.750795 33.514000 -1.250000
0.750795 31.021999 -1.250000
0.784395 29.815001 -1.250000
0.884295 28.620001 -1.250000
1.050595 27.431999 -1.250000
1.282595 26.254999 -1.250000
1.579695 25.093000 -1.250000
1.940895 23.950001 -1.250000
2.365095 22.827999 -1.250000
2.365095 22.827999 -2.349070
1.940895 23.950001 -2.349070
1.579695 25.093000 -2.349070
-0.348305 33.514000 -1.250000
-0.348305 33.514000 -2.349070
3.274395 -13.949000 -1.131540
2.728295 -12.881000 -1.131540
2.728295 -12.881000 -2.230610
3.274395 -13.949000 -2.230610
3.879095 -14.985000 -2.230610
4.540395 -15.985000 -2.230610
5.494395 -17.267000 -2.230610
5.494395 -17.267000 -1.131540
4.540395 -15.985000 -1.131540
3.879095 -14.985000 -1.131540
-3.855105 -15.059000 -1.131540
-3.221805 -13.754000 -1.131540
-3.221805 -13.754000 -2.230610
-3.855105 -15.059000 -2.230610
-5.111585 -17.257000 -1.131540
-1.720505 -23.563000 -1.131540
-0.470205 -33.487000 -1.131540
-1.569305 -33.487000 -1.131540
-3.183605 -22.801001 -1.131540
-6.435635 -17.319000 -1.131540
-1.568805 -1.086000 -1.131540
-0.471005 -1.099000 -1.131540
2.913895 -19.525999 -1.131540
2.280595 -20.832001 -1.131540
2.280595 -20.832001 -2.230610
2.913895 -19.525999 -2.230610
4.170295 -17.329000 -1.131540
2.913895 -19.525999 -1.131540
2.913895 -19.525999 -2.230610
4.170295 -17.329000 -2.230610
-3.672105 -12.011000 -2.230610
-3.183905 -10.700000 -2.230610
-2.758505 -9.368000 -2.230610
-2.396905 -8.016000 -2.230610
-2.099905 -6.649000 -2.230610
-1.868205 -5.269000 -2.230610
-1.702405 -3.880000 -2.230610
-1.602105 -2.485000 -2.230610
-1.568505 -1.073000 -2.230610
-1.568505 -1.073000 -1.131540
-1.602105 -2.485000 -1.131540
-1.702405 -3.880000 -1.131540
-1.868205 -5.269000 -1.131540
-2.099905 -6.649000 -1.131540
-2.396905 -8.016000 -1.131540
-2.758505 -9.368000 -1.131540
-3.183905 -10.700000 -1.131540
-3.672105 -12.011000 -1.131540
-4.222105 -13.298000 -1.131540
-4.832605 -14.556000 -1.131540
-5.502255 -15.785000 -1.131540
-6.435635 -17.319000 -1.131540
-6.435635 -17.319000 -2.230610
-5.502255 -15.785000 -2.230610
-4.832605 -14.556000 -2.230610
-4.222105 -13.298000 -2.230610
-1.579605 30.732000 -1.250000
-1.445805 33.540001 -1.250000
-1.445805 33.540001 -2.349070
-1.579605 30.732000 -2.349070
0.749995 1.099000 -2.349070
0.749995 1.099000 -1.250000
0.883895 3.907000 -1.250000
0.883895 3.907000 -2.349070
2.403295 13.780000 -1.250000
3.036595 15.086000 -1.250000
3.036595 15.086000 -2.349070
2.403295 13.780000 -2.349070
2.365395 10.727000 -2.349070
1.939995 9.394000 -2.349070
1.939995 9.394000 -1.250000
2.365395 10.727000 -1.250000
2.853595 12.038000 -1.250000
3.403595 13.324000 -1.250000
3.403595 13.324000 -2.349070
2.853595 12.038000 -2.349070
-6.435635 -17.319000 -2.230610
-6.435635 -17.319000 -1.131540
0.201895 6.883000 -1.250000
0.509895 8.302000 -1.250000
0.509895 8.302000 -2.349070
0.201895 6.883000 -2.349070
0.201895 6.883000 -2.349070
0.509895 8.302000 -2.349070
0.509895 8.302000 -1.250000
0.201895 6.883000 -1.250000
12.749995 35.250000 7.625000
12.749995 35.250000 -9.125000
10.999995 35.250000 -9.125000
10.999995 35.250000 7.625000
-12.749995 -33.500000 7.625000
-10.999995 -33.500000 7.625000
-10.999995 -35.250000 7.625000
-12.749995 -35.250000 7.625000
3.280895 -21.288000 -2.230610
5.494395 -17.267000 -2.230610
5.494395 -17.267000 -1.131540
3.280895 -21.288000 -1.131540
-0.348305 33.514000 -2.349070
-1.446105 33.526001 -2.349070
-6.312895 17.294001 -2.349070
-3.546805 12.908000 -2.349070
-1.446605 1.125000 -2.349070
-0.347505 1.125000 -2.349070
-2.043605 12.229000 -2.349070
-4.988805 17.356001 -2.349070
-0.347505 1.125000 -1.250000
-0.038505 5.452000 -1.250000
-0.038505 5.452000 -2.349070
-0.347505 1.125000 -2.349070
-0.347505 1.125000 -2.349070
-1.446605 1.125000 -2.349070
-3.546805 12.908000 -2.349070
-6.312895 17.294001 -2.349070
-1.446105 33.526001 -2.349070
-0.348305 33.514000 -2.349070
-4.988805 17.356001 -2.349070
-2.043605 12.229000 -2.349070
0.762295 -24.909000 -2.230610
0.387195 -26.311001 -2.230610
0.387195 -26.311001 -1.131540
0.762295 -24.909000 -1.131540
1.203595 -23.527000 -1.131540
2.280595 -20.832001 -1.131540
2.280595 -20.832001 -2.230610
1.203595 -23.527000 -2.230610
-12.749995 -35.250000 7.625000
-10.999995 -35.250000 7.625000
-10.999995 -33.500000 7.625000
-12.749995 -33.500000 7.625000
-10.999995 35.250000 7.625000
-10.999995 35.250000 -9.125000
-12.749995 35.250000 -9.125000
-12.749995 35.250000 7.625000
0.079095 -27.729000 -2.230610
0.387195 -26.311001 -2.230610
0.387195 -26.311001 -1.131540
0.079095 -27.729000 -1.131540
-6.312895 17.294001 -1.250000
-1.446105 33.526001 -1.250000
-0.348305 33.514000 -1.250000
-4.988805 17.356001 -1.250000
-2.043605 12.229000 -1.250000
-0.347505 1.125000 -1.250000
-1.446605 1.125000 -1.250000
-3.546805 12.908000 -1.250000
-0.471005 -1.099000 -1.131540
-0.471005 -1.099000 -2.230610
-4.988805 17.356001 -2.349070
-3.732405 19.552999 -2.349070
-3.732405 19.552999 -1.250000
-4.988805 17.356001 -1.250000
-12.749995 -35.250000 9.125000
-12.749995 35.250000 9.125000
-12.749995 35.250000 7.625000
-12.749995 -35.250000 7.625000
5.617095 17.344999 -1.250000
5.617095 17.344999 -2.349070
-1.446605 1.125000 -1.250000
-0.347505 1.125000 -1.250000
-2.043605 12.229000 -1.250000
-4.988805 17.356001 -1.250000
-0.348305 33.514000 -1.250000
-1.446105 33.526001 -1.250000
-6.312895 17.294001 -1.250000
-3.546805 12.908000 -1.250000
12.749995 -35.250000 -9.125000
12.749995 -35.250000 7.625000
10.999995 -35.250000 7.625000
10.999995 -35.250000 -9.125000
-3.732405 19.552999 -1.250000
-3.099105 20.858999 -1.250000
-3.099105 20.858999 -2.349070
-3.732405 19.552999 -2.349070
-10.999995 -33.500000 -9.125000
-12.749995 -33.500000 -9.125000
-12.749995 -35.250000 -9.125000
-10.999995 -35.250000 -9.125000
3.403595 13.324000 -1.250000
5.617095 17.344999 -1.250000
5.617095 17.344999 -2.349070
3.403595 13.324000 -2.349070
-5.111585 -17.257000 -2.230610
-3.855105 -15.059000 -2.230610
-3.855105 -15.059000 -1.131540
-5.111585 -17.257000 -1.131540
-0.470205 -33.487000 -2.230610
-0.470205 -33.487000 -1.131540
-10.999995 -35.250000 -9.125000
-12.749995 -35.250000 -9.125000
-12.749995 -33.500000 -9.125000
-10.999995 -33.500000 -9.125000
-4.099405 21.315001 -1.250000
-6.312895 17.294001 -1.250000
-6.312895 17.294001 -2.349070
-4.099405 21.315001 -2.349070
3.280895 -21.288000 -1.131540
5.494395 -17.267000 -1.131540
5.494395 -17.267000 -2.230610
3.280895 -21.288000 -2.230610
-6.312895 17.294001 -1.250000
-6.312895 17.294001 -2.349070
-0.897605 27.756001 -2.349070
-0.657305 29.187000 -2.349070
-0.657305 29.187000 -1.250000
-0.897605 27.756001 -1.250000
-6.435635 -17.319000 -1.131540
-3.183605 -22.801001 -1.131540
-3.183605 -22.801001 -2.230610
-6.435635 -17.319000 -2.230610
-3.060805 11.811000 -2.349070
-2.275405 9.546000 -2.349070
-1.746305 7.207000 -2.349070
-1.480105 4.824000 -2.349070
-1.446605 1.125000 -2.349070
-1.446605 1.125000 -1.250000
-1.480105 4.824000 -1.250000
-1.746305 7.207000 -1.250000
-2.275405 9.546000 -1.250000
-3.060805 11.811000 -1.250000
-1.569305 -33.487000 -1.131540
-1.569305 -33.487000 -2.230610
3.274395 -13.949000 -2.230610
2.728295 -12.881000 -2.230610
2.728295 -12.881000 -1.131540
3.274395 -13.949000 -1.131540
3.879095 -14.985000 -1.131540
4.540395 -15.985000 -1.131540
5.494395 -17.267000 -1.131540
5.494395 -17.267000 -2.230610
4.540395 -15.985000 -2.230610
3.879095 -14.985000 -2.230610
-3.099105 20.858999 -1.250000
-1.205705 26.337999 -1.250000
-1.205705 26.337999 -2.349070
-3.099105 20.858999 -2.349070
-0.471005 -1.099000 -1.131540
-3.221805 -13.754000 -1.131540
-3.221805 -13.754000 -2.230610
-0.471005 -1.099000 -2.230610
10.999995 33.500000 -2.528330
10.999995 1.099000 -2.528330
10.999995 1.099000 -0.750000
10.999995 33.500000 -0.750000
-0.348305 33.514000 -2.349070
-0.657305 29.187000 -2.349070
-0.657305 29.187000 -1.250000
-0.348305 33.514000 -1.250000
2.365395 10.727000 -1.250000
1.939995 9.394000 -1.250000
1.939995 9.394000 -2.349070
2.365395 10.727000 -2.349070
2.853595 12.038000 -2.349070
3.403595 13.324000 -2.349070
3.403595 13.324000 -1.250000
2.853595 12.038000 -1.250000
-1.579605 30.732000 -1.250000
-1.977205 27.964001 -1.250000
-1.977205 27.964001 -2.349070
-1.579605 30.732000 -2.349070
-3.099105 20.858999 -1.250000
-3.732405 19.552999 -1.250000
-3.732405 19.552999 -2.349070
-3.099105 20.858999 -2.349070
12.749995 -33.500000 -2.528330
12.749995 -33.500000 -0.750000
10.999995 -33.500000 -0.750000
10.999995 -33.500000 -2.528330
-10.999995 35.250000 7.625000
-10.999995 33.500000 7.625000
-10.999995 33.500000 -9.125000
-10.999995 35.250000 -9.125000
10.999995 33.500000 -0.750000
12.749995 33.500000 -0.750000
12.749995 33.500000 -2.528330
10.999995 33.500000 -2.528330
10.999995 -33.500000 -0.750000
10.999995 -1.099000 -0.750000
10.999995 -1.099000 -2.528330
10.999995 -33.500000 -2.528330
10.999995 -1.099000 -2.528330
10.999995 -1.099000 -0.750000
10.999995 -33.500000 -0.750000
12.749995 -33.500000 -0.750000
12.749995 33.500000 -0.750000
10.999995 33.500000 -0.750000
10.999995 1.099000 -0.750000
-10.999995 1.099000 -0.750000
-10.999995 -1.099000 -0.750000
-10.999995 -33.500000 -2.557150
-10.999995 33.500000 -2.557150
-10.999995 33.500000 -2.528330
-10.999995 -33.500000 -2.528330
-1.218205 9.848000 -1.250000
-1.218205 9.848000 -2.349070
-0.662105 7.390000 -2.349070
-0.382305 4.885000 -2.349070
-0.347505 1.125000 -2.349070
-0.347505 1.125000 -1.250000
-0.382305 4.885000 -1.250000
-0.662105 7.390000 -1.250000
10.999995 35.250000 -0.750000
10.999995 33.500000 -0.750000
10.999995 33.500000 -2.524110
10.999995 35.250000 -2.524110
10.999995 -33.500000 -0.750000
10.999995 -35.250000 -0.750000
10.999995 -35.250000 -2.528330
10.999995 -33.500000 -2.528330
10.999995 1.099000 -0.750000
10.999995 1.099000 -2.528330
-10.999995 1.099000 -2.528330
-10.999995 1.099000 -0.750000
-10.999995 33.500000 -0.750000
-10.999995 33.500000 -2.557150
-12.749995 33.500000 -2.557150
-12.749995 33.500000 -0.750000
-12.749995 -33.500000 7.625000
-12.749995 -33.500000 -9.125000
-10.999995 -33.500000 -9.125000
-10.999995 -33.500000 7.625000
-10.999995 -33.500000 -2.557150
-12.749995 -33.500000 -2.557150
-12.749995 33.500000 -2.557150
-10.999995 33.500000 -2.557150
-10.999995 33.500000 -0.750000
-10.999995 -33.500000 -0.750000
-10.999995 -33.500000 -2.528330
-10.999995 33.500000 -2.528330
10.999995 35.250000 -0.750000
10.999995 35.250000 -2.524110
-10.999995 35.250000 -2.524110
-10.999995 35.250000 -0.750000
-10.999995 -35.250000 -0.750000
-10.999995 -33.500000 -0.750000
-10.999995 -33.500000 -2.528330
-10.999995 -35.250000 -2.528330
10.999995 33.500000 -2.524110
-10.999995 33.500000 -2.524110
-10.999995 35.250000 -2.524110
10.999995 35.250000 -2.524110
10.999995 33.500000 -2.524110
10.999995 33.500000 -0.750000
-10.999995 33.500000 -0.750000
-10.999995 33.500000 -2.524110
10.999995 -35.250000 -2.528330
-10.999995 -35.250000 -2.528330
-10.999995 -33.500000 -2.528330
10.999995 -33.500000 -2.528330
-10.999995 -35.250000 -0.750000
10.999995 -35.250000 -0.750000
10.999995 -33.500000 -0.750000
-10.999995 -33.500000 -0.750000
4.293095 17.284000 -1.250000
3.036595 15.086000 -1.250000
3.036595 15.086000 -2.349070
4.293095 17.284000 -2.349070
4 0 1 2 3
4 4 5 6 7
4 8 9 10 11
4 12 13 14 15
4 16 17 18 19
4 20 21 22 23
4 24 25 26 27
4 28 29 30 31
4 32 33 34 35
4 36 37 38 39
4 40 41 42 43
4 44 45 46 47
4 48 49 50 51
4 52 53 54 55
4 56 57 58 59
4 60 61 62 63
4 64 65 66 67
4 68 69 70 71
4 72 73 74 75
4 76 77 78 79
10 80 81 82 83 84 85 86 87 88 89
10 90 91 92 93 94 95 96 97 98 99
4 100 101 102 103
4 104 105 106 107
4 108 109 110 111
4 112 113 114 115
4 116 117 118 119
4 120 121 122 123
4 124 125 126 127
4 128 129 130 131
4 132 133 134 135
8 136 137 138 139 140 141 142 143
20 144 145 146 147 148 149 150 151 152 153 154 155 156 157 158 159 160 161 162 163
4 164 165 166 167
4 168 169 170 171
8 172 173 174 175 176 177 178 179
4 180 181 182 183
8 184 185 186 187 188 189 190 191
4 192 193 194 195
4 196 197 198 199
12 200 201 202 203 204 205 206 207 208 209 210 211
4 212 213 214 215
4 216 217 218 219
8 220 221 222 223 224 225 226 227
8 228 229 230 231 232 233 234 235
4 236 237 238 239
4 240 241 242 243
4 244 245 246 247
4 248 249 250 251
4 252 253 254 255
8 256 257 258 259 260 261 92 91
4 262 263 264 265
4 266 60 63 267
4 268 269 270 271
4 272 273 274 275
4 276 277 278 279
4 280 281 282 283
4 284 285 286 287
4 288 289 290 291
8 292 293 294 295 296 297 298 299
4 300 301 302 303
4 304 305 306 307
4 308 309 310 311
8 312 313 314 315 316 317 318 319
4 320 321 322 323
8 324 325 326 327 328 329 330 331
4 332 333 334 335
4 336 337 338 339
8 340 341 342 343 344 345 346 347
4 348 349 350 351
4 352 353 354 355
4 356 357 358 359
4 360 361 362 363
4 364 365 366 367
4 368 369 370 371
4 372 373 374 375
4 376 377 378 379
4 380 381 382 383
4 384 385 386 387
4 388 389 390 391
10 392 393 394 395 396 397 398 399 400 401
4 402 403 404 405
8 406 407 408 409 410 411 412 413
4 414 415 416 417
4 418 419 420 421
4 422 423 424 425
4 426 427 428 429
4 430 431 432 433
8 434 435 436 437 438 439 440 441
4 33 442 443 34
26 444 445 446 447 448 449 450 451 452 453 454 455 456 457 458 459 460 461 462 463 464 465 466 467 468 469
4 470 471 472 473
4 474 475 476 477
8 478 479 480 481 482 483 484 485
4 486 487 488 489
4 490 491 492 493
4 494 495 496 497
4 498 499 500 501
4 502 503 504 505
4 506 507 508 509
4 510 511 512 513
8 514 515 516 517 518 519 520 521
4 522 523 524 525
4 526 527 528 529
4 530 531 532 533
8 534 535 536 537 538 539 540 541
4 542 543 544 545
4 546 547 548 549
4 550 551 552 553
4 554 555 556 557
8 558 559 560 561 562 563 564 565
8 566 567 568 569 570 571 572 573
8 574 575 576 577 578 579 580 581
4 582 583 584 585
4 586 88 87 587
8 588 589 590 591 592 593 594 595
4 596 597 598 599
4 600 601 602 603
4 604 605 606 607
4 608 609 610 611
12 612 613 614 615 616 617 618 619 620 621 622 623
4 624 625 626 627
4 628 629 630 631
4 632 633 634 635
4 636 637 638 639
8 640 641 642 643 644 645 646 647
4 648 649 650 651
20 652 653 654 655 656 657 658 659 660 661 662 663 664 665 666 532 531 667 668 669
4 670 240 243 671
12 672 673 510 513 674 675 676 677 678 679 680 681
4 682 683 684 685
8 686 687 688 689 690 691 692 693
4 694 695 696 697
4 698 699 700 701
26 702 703 704 705 706 707 708 709 710 711 712 713 714 715 716 717 718 719 720 721 722 723 724 725 726 727
4 728 729 730 731
4 732 733 734 735
4 736 737 738 739
8 740 741 742 743 744 745 746 747
4 748 104 107 749
4 750 751 752 753
4 754 755 756 757
4 758 759 760 761
4 762 763 764 765
4 766 767 768 769
8 770 771 772 773 774 775 776 777
4 778 779 780 781
8 782 783 784 785 786 787 788 789
8 790 791 792 793 794 795 796 797
4 798 799 800 801
4 802 803 804 805
4 806 807 808 809
8 810 811 812 813 814 815 816 817
4 818 276 279 819
4 820 821 822 823
4 824 825 826 827
4 828 160 159 829
8 830 831 832 833 834 835 836 837
4 838 839 840 841
4 842 843 844 845
4 846 847 848 849
4 850 851 852 853
4 854 855 856 857
4 858 400 399 859
4 860 861 862 863
4 864 865 866 867
4 868 869 870 871
4 872 211 210 873
4 874 875 876 877
4 878 879 880 881
12 882 883 884 885 886 887 888 889 890 891 114 113
4 879 892 893 880
12 894 895 418 421 896 897 898 899 900 901 902 903
4 904 905 906 907
4 908 909 910 911
4 912 913 914 915
4 916 917 918 919
8 920 921 922 923 924 925 926 927
4 928 929 930 931
4 932 933 934 935
4 936 937 938 939
4 940 941 942 943
4 944 945 946 947
4 948 949 950 951
3 952 252 255
8 953 954 955 956 957 958 959 960
4 961 962 963 964
10 965 622 621 966 967 968 969 970 971 972
4 973 974 975 976
4 977 978 979 980
4 981 982 983 984
4 985 986 987 988
4 989 990 991 992
4 993 994 995 996
4 997 998 999 1000
4 1001 1002 1003 1004
4 1005 1006 1007 1008
4 1009 1010 1011 1012
4 1013 1014 1015 1016
4 1017 1018 1019 1020
4 1021 1022 1023 1024
4 1025 1026 1027 1028
