ply
format ascii 1.0
comment Created by Blender 2.82 (sub 7) - www.blender.org, source file: ''
element vertex 530
property float x
property float y
property float z
element face 126
property list uchar uint vertex_indices
end_header
-2.328100 -21.500000 3.520900
-2.482400 -21.500000 3.403200
-2.482400 20.277399 3.403200
-2.328100 20.277399 3.520900
-2.923100 20.277399 3.522500
-2.769400 20.277399 3.403900
-2.769400 -21.500000 3.403900
-2.923100 -21.500000 3.522500
3.000000 20.250099 -0.750000
3.000000 -21.500000 -0.750000
2.949800 -21.500000 -0.937500
2.949800 20.250099 -0.937500
0.000000 20.250000 -15.250000
0.000000 21.500000 -15.250000
-15.000000 21.500000 -15.187500
-15.000000 20.250000 -15.187500
15.000000 25.000000 14.250000
15.000000 25.000000 15.250000
15.000000 -25.000000 15.250000
15.000000 -25.000000 14.250000
2.625000 20.250099 -0.375000
2.625000 -21.500000 -0.375000
2.812500 -21.500000 -0.425200
2.812500 20.250099 -0.425200
-2.812500 20.250299 -1.074800
-2.812500 -21.500000 -1.074800
-2.890100 -21.500000 -1.015200
-2.890100 20.250299 -1.015200
-2.987200 20.250299 -0.652900
-2.987200 20.250299 -0.847100
-2.987200 -21.500000 -0.847100
-2.987200 -21.500000 -0.652900
2.625000 -21.500000 3.375000
2.437500 -21.500000 3.425200
2.437500 21.125000 3.425200
2.625000 21.125000 3.375000
-2.971100 20.277399 3.894400
-2.996900 20.277399 3.702000
-2.996900 -21.500000 3.702000
-2.971100 -21.500000 3.894400
-3.702100 -21.500000 0.591600
-3.979900 -21.500000 6.367100
-3.979900 -22.744400 6.367100
-3.702100 -22.750000 0.591600
2.437500 20.250099 -0.425200
2.437500 -21.500000 -0.425200
-2.812500 -21.500000 -0.425200
-2.812500 20.250299 -0.425200
-2.890100 20.250299 -0.484800
-2.890100 -21.500000 -0.484800
2.262800 21.125000 3.652900
2.359900 21.125000 3.484800
2.359900 -21.500000 3.484800
2.262800 -21.500000 3.652900
2.949800 21.125000 3.937500
2.812500 21.125000 4.074800
2.812500 -21.500000 4.074800
2.949800 -21.500000 3.937500
2.625000 21.125000 4.125000
2.625000 -21.500000 4.125000
2.812500 -21.500000 3.425200
2.812500 21.125000 3.425200
2.949800 21.125000 3.562500
2.949800 -21.500000 3.562500
7.500000 -22.750000 14.250000
-7.500000 -22.750000 14.250000
-7.500000 -21.500000 14.250000
7.500000 -21.500000 14.250000
-3.702100 21.500000 0.591600
-3.979900 21.500000 6.367100
-3.979900 20.255600 6.367100
-3.702100 20.250000 0.591600
2.437500 -21.500000 4.074800
2.625000 -21.500000 4.125000
2.812500 -21.500000 4.074800
2.949800 -21.500000 3.937500
3.000000 -21.500000 3.750000
2.949800 -21.500000 3.562500
2.812500 -21.500000 3.425200
2.625000 -21.500000 3.375000
2.437500 -21.500000 3.425200
2.359900 -21.500000 3.484800
2.262800 -21.500000 3.652900
2.262800 -21.500000 3.847100
2.359900 -21.500000 4.015200
7.500000 20.250000 14.250000
-7.500000 20.250000 14.250000
-7.500000 21.500000 14.250000
7.500000 21.500000 14.250000
-15.000000 25.000000 14.250000
-15.000000 25.000000 15.250000
15.000000 25.000000 15.250000
15.000000 25.000000 14.250000
15.000000 -25.000000 15.250000
-15.000000 -25.000000 15.250000
-15.000000 -25.000000 14.250000
15.000000 -25.000000 14.250000
-2.625000 -21.500000 -1.125000
-2.437500 -21.500000 -1.074800
-2.300200 -21.500000 -0.937500
-2.250000 -21.500000 -0.750000
-2.300200 -21.500000 -0.562500
-2.437500 -21.500000 -0.425200
-2.625000 -21.500000 -0.375000
-2.812500 -21.500000 -0.425200
-2.890100 -21.500000 -0.484800
-2.987200 -21.500000 -0.652900
-2.987200 -21.500000 -0.847100
-2.890100 -21.500000 -1.015200
-2.812500 -21.500000 -1.074800
-2.253300 20.277399 3.700100
-2.278200 20.277399 3.892600
-2.278200 -21.500000 3.892600
-2.253300 -21.500000 3.700100
2.262800 20.250099 -0.847100
2.359900 20.250099 -1.015200
2.359900 -21.500000 -1.015200
2.262800 -21.500000 -0.847100
-2.921900 -21.500000 3.979100
-2.971100 -21.500000 3.894400
-2.996900 -21.500000 3.702000
-2.923100 -21.500000 3.522500
-2.769400 -21.500000 3.403900
-2.674900 -21.500000 3.378300
-2.482400 -21.500000 3.403200
-2.328100 -21.500000 3.520900
-2.253300 -21.500000 3.700100
-2.278200 -21.500000 3.892600
-2.395900 -21.500000 4.046900
-2.575100 -21.500000 4.121700
-2.767600 -21.500000 4.096800
-2.987200 20.250299 -0.847100
-2.987200 20.250299 -0.652900
-2.890100 20.250299 -0.484800
-2.812500 20.250299 -0.425200
-2.625000 20.250299 -0.375000
-2.437500 20.250299 -0.425200
-2.300200 20.250299 -0.562500
-2.250000 20.250299 -0.750000
-2.300200 20.250299 -0.937500
-2.437500 20.250299 -1.074800
-2.625000 20.250299 -1.125000
-2.812500 20.250299 -1.074800
-2.890100 20.250299 -1.015200
-2.300200 20.250299 -0.562500
-2.437500 20.250299 -0.425200
-2.625000 20.250299 -0.375000
-2.812500 20.250299 -0.425200
-2.890100 20.250299 -0.484800
-2.987200 20.250299 -0.652900
-2.987200 20.250299 -0.847100
-2.890100 20.250299 -1.015200
-2.812500 20.250299 -1.074800
-2.625000 20.250299 -1.125000
-2.437500 20.250299 -1.074800
-2.300200 20.250299 -0.937500
-2.250000 20.250299 -0.750000
2.437500 21.125000 4.074800
2.625000 21.125000 4.125000
2.812500 21.125000 4.074800
2.949800 21.125000 3.937500
3.000000 21.125000 3.750000
2.949800 21.125000 3.562500
2.812500 21.125000 3.425200
2.625000 21.125000 3.375000
2.437500 21.125000 3.425200
2.359900 21.125000 3.484800
2.262800 21.125000 3.652900
2.262800 21.125000 3.847100
2.359900 21.125000 4.015200
2.625000 21.125000 4.125000
2.437500 21.125000 4.074800
2.359900 21.125000 4.015200
2.262800 21.125000 3.847100
2.262800 21.125000 3.652900
2.359900 21.125000 3.484800
2.437500 21.125000 3.425200
2.625000 21.125000 3.375000
2.812500 21.125000 3.425200
2.949800 21.125000 3.562500
3.000000 21.125000 3.750000
2.949800 21.125000 3.937500
2.812500 21.125000 4.074800
2.812500 -21.500000 4.074800
2.625000 -21.500000 4.125000
2.437500 -21.500000 4.074800
2.359900 -21.500000 4.015200
2.262800 -21.500000 3.847100
2.262800 -21.500000 3.652900
2.359900 -21.500000 3.484800
2.437500 -21.500000 3.425200
2.625000 -21.500000 3.375000
2.812500 -21.500000 3.425200
2.949800 -21.500000 3.562500
3.000000 -21.500000 3.750000
2.949800 -21.500000 3.937500
-0.187500 -21.500000 -5.250000
-0.187500 -21.500000 6.750000
-0.187500 20.250299 6.750000
-0.187500 20.250299 -5.250000
-2.575100 20.277399 4.121700
-2.767600 20.277399 4.096800
-2.767600 -21.500000 4.096800
-2.575100 -21.500000 4.121700
0.000000 -22.750000 -15.250000
0.000000 -21.500000 -15.250000
-15.000000 -21.500000 -15.187500
-15.000000 -22.750000 -15.187500
-2.395900 20.277399 4.046900
-2.395900 -21.500000 4.046900
2.437500 -21.500000 4.074800
2.437500 21.125000 4.074800
2.359900 21.125000 4.015200
2.359900 -21.500000 4.015200
-2.625000 -21.500000 -0.375000
-2.625000 20.250299 -0.375000
-2.300200 20.250299 -0.562500
-2.437500 20.250299 -0.425200
-2.437500 -21.500000 -0.425200
-2.300200 -21.500000 -0.562500
4.768500 -22.567699 9.146900
4.755900 -21.500000 9.150400
3.700700 -21.500000 0.568300
3.700700 -22.750000 0.568300
-7.500000 -21.500000 14.250000
-7.500000 -22.750000 14.250000
7.500000 -22.750000 14.250000
7.500000 -21.500000 14.250000
-2.674900 -21.500000 3.378300
-2.674900 20.277399 3.378300
0.000000 20.250000 -15.250000
15.000000 20.250000 -15.250000
15.000000 21.500000 -15.250000
0.000000 21.500000 -15.250000
2.625000 -21.500000 -1.125000
2.625000 20.250099 -1.125000
2.812500 20.250099 -1.074800
2.812500 -21.500000 -1.074800
6.447100 -22.750099 -7.630590
4.205400 -22.750000 -2.291000
3.700700 -21.500000 0.568300
6.447100 -21.500000 -7.630590
2.625000 -21.500000 -1.125000
2.812500 -21.500000 -1.074800
2.949800 -21.500000 -0.937500
3.000000 -21.500000 -0.750000
2.949800 -21.500000 -0.562500
2.812500 -21.500000 -0.425200
2.625000 -21.500000 -0.375000
2.437500 -21.500000 -0.425200
2.359900 -21.500000 -0.484800
2.262800 -21.500000 -0.652900
2.262800 -21.500000 -0.847100
2.359900 -21.500000 -1.015200
2.437500 -21.500000 -1.074800
-8.137100 20.251200 -9.949900
-8.137100 21.500000 -9.949900
-4.207100 21.500000 -2.263100
-3.702100 20.250000 0.591600
6.447100 20.249901 -7.630590
6.447100 21.500000 -7.630590
12.458900 21.500000 -13.845370
15.000000 20.250000 -15.250000
2.359900 -21.500000 -0.484800
2.437500 -21.500000 -0.425200
2.625000 -21.500000 -0.375000
2.812500 -21.500000 -0.425200
2.949800 -21.500000 -0.562500
3.000000 -21.500000 -0.750000
2.949800 -21.500000 -0.937500
2.812500 -21.500000 -1.074800
2.625000 -21.500000 -1.125000
2.437500 -21.500000 -1.074800
2.359900 -21.500000 -1.015200
2.262800 -21.500000 -0.847100
2.262800 -21.500000 -0.652900
-2.625000 20.250299 -1.125000
-2.625000 -21.500000 -1.125000
5.000000 20.250299 -5.500000
-5.000000 20.250299 -5.500000
-5.000000 20.250299 -5.250000
5.000000 20.250299 -5.250000
15.000000 25.000000 14.250000
15.000000 -25.000000 14.250000
-15.000000 -25.000000 14.250000
-15.000000 25.000000 14.250000
0.187500 20.250299 -5.250000
-0.187500 20.250299 -5.250000
-0.187500 20.250299 6.750000
0.187500 20.250299 6.750000
2.625000 20.250099 -1.125000
2.812500 20.250099 -1.074800
2.949800 20.250099 -0.937500
3.000000 20.250099 -0.750000
2.949800 20.250099 -0.562500
2.812500 20.250099 -0.425200
2.625000 20.250099 -0.375000
2.437500 20.250099 -0.425200
2.359900 20.250099 -0.484800
2.262800 20.250099 -0.652900
2.262800 20.250099 -0.847100
2.359900 20.250099 -1.015200
2.437500 20.250099 -1.074800
-2.300200 20.250299 -0.937500
-2.300200 -21.500000 -0.937500
-2.437500 -21.500000 -1.074800
-2.437500 20.250299 -1.074800
2.437500 -21.500000 -1.074800
2.437500 20.250099 -1.074800
2.949800 20.250099 -0.562500
2.949800 -21.500000 -0.562500
-2.250000 20.250299 -0.750000
-2.250000 -21.500000 -0.750000
-2.625000 -21.500000 -1.125000
-2.812500 -21.500000 -1.074800
-2.890100 -21.500000 -1.015200
-2.987200 -21.500000 -0.847100
-2.987200 -21.500000 -0.652900
-2.890100 -21.500000 -0.484800
-2.812500 -21.500000 -0.425200
-2.625000 -21.500000 -0.375000
-2.437500 -21.500000 -0.425200
-2.300200 -21.500000 -0.562500
-2.250000 -21.500000 -0.750000
-2.300200 -21.500000 -0.937500
-2.437500 -21.500000 -1.074800
2.262800 20.250099 -0.652900
2.262800 -21.500000 -0.652900
2.359900 20.250099 -0.484800
2.359900 -21.500000 -0.484800
-2.767600 -21.500000 4.096800
-2.575100 -21.500000 4.121700
-2.395900 -21.500000 4.046900
-2.278200 -21.500000 3.892600
-2.253300 -21.500000 3.700100
-2.328100 -21.500000 3.520900
-2.482400 -21.500000 3.403200
-2.674900 -21.500000 3.378300
-2.769400 -21.500000 3.403900
-2.923100 -21.500000 3.522500
-2.996900 -21.500000 3.702000
-2.971100 -21.500000 3.894400
-2.921900 -21.500000 3.979100
-2.674900 20.277399 3.378300
-2.482400 20.277399 3.403200
-2.328100 20.277399 3.520900
-2.253300 20.277399 3.700100
-2.278200 20.277399 3.892600
-2.395900 20.277399 4.046900
-2.575100 20.277399 4.121700
-2.767600 20.277399 4.096800
-2.921900 20.277399 3.979100
-2.971100 20.277399 3.894400
-2.996900 20.277399 3.702000
-2.923100 20.277399 3.522500
-2.769400 20.277399 3.403900
4.205400 20.250000 -2.291000
3.700700 21.500000 0.568300
0.000000 -22.750000 -15.250000
15.000000 -22.750000 -15.250000
15.000000 -21.500000 -15.250000
0.000000 -21.500000 -15.250000
-2.328100 20.277399 3.520900
-2.482400 20.277399 3.403200
-2.674900 20.277399 3.378300
-2.769400 20.277399 3.403900
-2.923100 20.277399 3.522500
-2.996900 20.277399 3.702000
-2.971100 20.277399 3.894400
-2.921900 20.277399 3.979100
-2.767600 20.277399 4.096800
-2.575100 20.277399 4.121700
-2.395900 20.277399 4.046900
-2.278200 20.277399 3.892600
-2.253300 20.277399 3.700100
0.187500 20.250299 -5.250000
0.187500 -21.500000 -5.250000
5.000000 -21.500000 -5.250000
5.000000 20.250299 -5.250000
-0.187500 20.250299 6.750000
-0.187500 -21.500000 6.750000
0.187500 -21.500000 6.750000
0.187500 20.250299 6.750000
-5.000000 20.250299 -5.250000
-5.000000 -21.500000 -5.250000
-0.187500 -21.500000 -5.250000
-0.187500 20.250299 -5.250000
5.127600 -21.500000 -5.044200
10.153500 -21.500000 -12.080160
15.000000 -21.500000 -15.250000
0.000000 -21.500000 -15.250000
0.000000 -21.500000 14.250000
7.500000 -21.500000 14.250000
4.755900 -21.500000 9.150400
3.700700 -21.500000 0.568300
0.187500 -21.500000 6.750000
0.187500 -21.500000 -5.250000
0.187500 20.250299 -5.250000
0.187500 20.250299 6.750000
-3.625800 -21.500000 3.489700
-7.500000 -21.500000 14.250000
0.000000 -21.500000 14.250000
0.000000 -21.500000 -15.250000
-15.000000 -21.500000 -15.187500
-8.137100 -21.500000 -9.949900
-4.207100 -21.500000 -2.263100
-5.000000 -21.500000 -5.500000
-5.000000 -21.500000 -5.250000
-5.000000 20.250299 -5.250000
-5.000000 20.250299 -5.500000
-5.000000 -21.500000 -5.500000
-5.000000 20.250299 -5.500000
5.000000 20.250299 -5.500000
5.000000 -21.500000 -5.500000
5.000000 -21.500000 -5.250000
5.000000 -21.500000 -5.500000
5.000000 20.250299 -5.500000
5.000000 20.250299 -5.250000
-12.460200 -22.749399 -13.789690
-15.000000 -21.500000 -15.187500
-8.137100 -21.500000 -9.949900
-8.137100 -22.748800 -9.949900
-2.921900 20.277399 3.979100
-2.921900 -21.500000 3.979100
15.000000 -22.750000 -15.250000
12.458900 -21.500000 -13.845370
15.000000 -21.500000 -15.250000
-12.460200 20.250601 -13.789690
-15.000000 21.500000 -15.187500
3.000000 21.125000 3.750000
3.000000 -21.500000 3.750000
-3.702100 -21.500000 0.591600
-3.702100 -22.750000 0.591600
-4.207100 -21.500000 -2.263100
4.768500 -22.567699 9.146900
3.700700 -22.750000 0.568300
-3.702100 -22.750000 0.591600
-3.979900 -22.744400 6.367100
-7.500000 -22.750000 14.250000
-7.500000 -21.500000 14.250000
-7.513700 -22.750000 14.250000
3.700700 -21.500000 0.568300
3.700700 -22.750000 0.568300
15.000000 -22.750000 -15.250000
-15.000000 -22.750000 -15.187500
-15.000000 -21.500000 -15.187500
-15.000000 -22.750000 -15.187500
-8.137100 -22.748800 -9.949900
-3.702100 -22.750000 0.591600
3.700700 -22.750000 0.568300
5.127600 -22.750099 -5.044200
10.153500 -22.750099 -12.080160
15.000000 -22.750000 -15.250000
2.262800 -21.500000 3.847100
2.262800 21.125000 3.847100
10.153500 21.500000 -12.080160
15.000000 21.500000 -15.250000
0.000000 21.500000 -15.250000
0.000000 21.500000 14.250000
7.500000 21.500000 14.250000
4.755900 21.500000 9.150400
3.700700 21.500000 0.568300
5.127600 21.500000 -5.044200
0.187500 20.250299 6.750000
-0.187500 20.250299 6.750000
-0.187500 20.250299 -5.250000
0.187500 20.250299 -5.250000
0.000000 21.500000 -15.250000
-15.000000 21.500000 -15.187500
-8.137100 21.500000 -9.949900
-4.207100 21.500000 -2.263100
-3.625800 21.500000 3.489700
-7.500000 21.500000 14.250000
0.000000 21.500000 14.250000
5.000000 20.250299 -5.250000
-5.000000 20.250299 -5.250000
-5.000000 20.250299 -5.500000
5.000000 20.250299 -5.500000
4.768500 20.432301 9.146900
4.755900 21.500000 9.150400
3.700700 21.500000 0.568300
3.700700 20.250000 0.568300
-3.702100 -22.750000 0.591600
7.500000 20.250000 14.250000
7.500000 21.500000 14.250000
15.000000 20.250000 -15.250000
15.000000 21.500000 -15.250000
-7.500000 21.500000 14.250000
-7.500000 20.250000 14.250000
2.359900 20.250099 -1.015200
2.262800 20.250099 -0.847100
2.262800 20.250099 -0.652900
2.359900 20.250099 -0.484800
2.437500 20.250099 -0.425200
2.625000 20.250099 -0.375000
2.812500 20.250099 -0.425200
2.949800 20.250099 -0.562500
3.000000 20.250099 -0.750000
2.949800 20.250099 -0.937500
2.812500 20.250099 -1.074800
2.625000 20.250099 -1.125000
2.437500 20.250099 -1.074800
-3.702100 21.500000 0.591600
-3.702100 20.250000 0.591600
4.768500 20.432301 9.146900
3.700700 20.250000 0.568300
-3.702100 20.250000 0.591600
-3.979900 20.255600 6.367100
-7.500000 20.250000 14.250000
-7.500000 21.500000 14.250000
-7.513700 20.250000 14.250000
3.700700 21.500000 0.568300
3.700700 20.250000 0.568300
-15.000000 20.250000 -15.187500
-15.000000 21.500000 -15.187500
-15.000000 20.250000 -15.187500
-8.137100 20.251200 -9.949900
-3.702100 20.250000 0.591600
3.700700 20.250000 0.568300
5.127600 20.249901 -5.044200
10.153500 20.249901 -12.080160
15.000000 20.250000 -15.250000
15.000000 -25.000000 15.250000
15.000000 25.000000 15.250000
-15.000000 25.000000 15.250000
-15.000000 -25.000000 15.250000
-15.000000 25.000000 15.250000
-15.000000 25.000000 14.250000
-15.000000 -25.000000 14.250000
-15.000000 -25.000000 15.250000
4 0 1 2 3
4 4 5 6 7
4 8 9 10 11
4 12 13 14 15
4 16 17 18 19
4 20 21 22 23
4 24 25 26 27
4 28 29 30 31
4 32 33 34 35
4 36 37 38 39
4 40 41 42 43
4 21 20 44 45
4 46 47 48 49
4 50 51 52 53
4 54 55 56 57
4 56 55 58 59
4 60 61 62 63
4 64 65 66 67
4 68 69 70 71
13 72 73 74 75 76 77 78 79 80 81 82 83 84
4 85 86 87 88
4 89 90 91 92
4 93 94 95 96
13 97 98 99 100 101 102 103 104 105 106 107 108 109
4 110 111 112 113
4 114 115 116 117
4 48 28 31 49
13 118 119 120 121 122 123 124 125 126 127 128 129 130
13 131 132 133 134 135 136 137 138 139 140 141 142 143
13 144 145 146 147 148 149 150 151 152 153 154 155 156
13 157 158 159 160 161 162 163 164 165 166 167 168 169
13 170 171 172 173 174 175 176 177 178 179 180 181 182
13 183 184 185 186 187 188 189 190 191 192 193 194 195
4 196 197 198 199
4 200 201 202 203
4 204 205 206 207
4 208 200 203 209
4 210 211 212 213
4 214 215 47 46
4 216 217 218 219
4 220 221 222 223
4 111 208 209 112
4 42 41 224 225
4 226 227 221 220
4 1 228 229 2
4 211 210 59 58
4 230 231 232 233
4 234 235 236 237
4 238 239 240 241
13 242 243 244 245 246 247 248 249 250 251 252 253 254
4 255 256 257 258
4 259 260 261 262
13 263 264 265 266 267 268 269 270 271 272 273 274 275
4 276 277 25 24
4 278 279 280 281
4 282 283 284 285
4 286 287 288 289
4 34 33 52 51
13 290 291 292 293 294 295 296 297 298 299 300 301 302
4 303 304 305 306
4 306 305 277 276
4 235 234 307 308
4 8 309 310 9
4 303 311 312 304
13 313 314 315 316 317 318 319 320 321 322 323 324 325
4 326 114 117 327
4 45 44 328 329
4 216 219 312 311
13 330 331 332 333 334 335 336 337 338 339 340 341 342
4 236 11 10 237
13 343 344 345 346 347 348 349 350 351 352 353 354 355
4 259 356 357 260
4 358 359 360 361
4 29 27 26 30
13 362 363 364 365 366 367 368 369 370 371 372 373 374
4 375 376 377 378
4 379 380 381 382
4 383 384 385 386
8 387 388 389 390 391 392 393 394
4 395 396 397 398
7 399 400 401 402 403 404 405
4 406 407 408 409
4 410 411 412 413
4 414 415 416 417
4 418 419 420 421
4 201 422 423 202
3 424 425 426
4 422 36 39 423
4 427 428 256 255
4 429 54 57 430
3 431 432 433
4 4 7 38 37
4 110 113 0 3
6 64 434 435 436 437 65
3 438 439 440
3 441 239 442
4 238 241 425 443
3 418 444 445
7 446 447 448 449 450 451 452
4 50 53 453 454
4 229 228 6 5
4 212 454 453 213
4 328 326 327 329
8 455 456 457 458 459 460 461 462
4 218 217 215 214
4 463 464 465 466
7 467 468 469 470 471 472 473
4 474 475 476 477
4 478 479 480 481
4 421 420 433 482
4 483 484 479 478
3 485 261 486
4 61 60 32 35
4 70 69 487 488
13 489 490 491 492 493 494 495 496 497 498 499 500 501
3 502 503 257
4 62 429 430 63
6 85 504 505 506 507 86
3 508 509 510
3 511 356 512
3 427 513 514
7 515 516 517 518 519 520 521
4 308 307 116 115
4 522 523 524 525
4 526 527 528 529
4 309 23 22 310
