ply
format ascii 1.0
comment Created by Blender 2.82 (sub 7) - www.blender.org, source file: ''
element vertex 481
property float x
property float y
property float z
element face 112
property list uchar uint vertex_indices
end_header
77.106201 130.196701 51.041634
77.106201 -130.196701 51.041634
77.106201 -130.196701 47.774235
77.106201 130.196701 47.774235
49.720200 99.566803 47.774235
49.720200 101.828903 47.774235
49.720200 101.828903 42.974133
49.720200 99.566803 42.974133
-46.207901 -102.043701 -51.041634
-46.207901 -102.043701 30.738132
46.449200 -102.043701 30.738132
46.449200 -102.043701 42.974133
-61.650799 -102.043701 42.974133
-61.650799 -102.043701 -51.041634
58.627201 -94.674698 47.774235
57.999199 -97.017700 47.774235
57.999199 -97.017700 42.974133
58.627201 -94.674698 42.974133
77.106201 130.196701 47.774235
77.106201 -130.196701 47.774235
77.106201 -130.196701 51.041634
77.106201 130.196701 51.041634
-58.381222 100.697800 47.774235
-58.232311 101.828903 47.774235
-57.101250 103.787933 47.774235
-77.106201 130.196701 47.774235
-77.106201 -130.196701 47.774235
-58.381222 -95.297699 47.774235
-57.795738 -93.112701 47.774235
-56.196178 -91.512703 47.774235
-55.142200 -91.075699 47.774235
-52.880081 -91.075699 47.774235
-51.826099 -91.512703 47.774235
-50.226501 -93.112701 47.774235
-49.641102 -95.297699 47.774235
-50.226501 -97.482697 47.774235
49.884201 -97.017700 47.774235
49.416199 -95.887703 47.774235
49.416199 -93.462700 47.774235
49.884201 -92.332703 47.774235
51.599201 -90.617699 47.774235
53.942200 -89.989700 47.774235
56.284199 -90.617699 47.774235
57.999199 -92.332703 47.774235
53.942200 96.327698 47.774235
52.810200 96.476601 47.774235
-52.880081 96.476601 47.774235
-54.011139 96.327698 47.774235
-55.142200 96.476601 47.774235
-57.101250 97.607697 47.774235
-57.795738 98.512802 47.774235
-57.795738 -97.482697 47.774235
-58.381222 -95.297699 47.774235
-58.381222 -95.297699 42.974133
-57.795738 -97.482697 42.974133
46.449200 94.351303 30.738132
46.449200 94.351303 42.974133
61.892200 94.351303 42.974133
61.892200 94.351303 30.738132
-50.226501 -93.112701 47.774235
-51.826099 -91.512703 47.774235
50.629200 -91.362701 47.774235
49.416199 -93.462700 47.774235
49.416199 -95.887703 47.774235
49.884201 -97.017700 47.774235
-50.226501 -97.482697 47.774235
-49.641102 -95.297699 47.774235
-52.880081 96.476601 42.974133
-52.880081 96.476601 47.774235
-55.142200 96.476601 47.774235
-55.142200 96.476601 42.974133
-49.790001 99.566803 47.774235
49.720200 99.566803 47.774235
50.851200 97.607697 47.774235
51.757198 96.913200 47.774235
-50.921001 97.607697 47.774235
-57.101250 -98.387703 47.774235
-55.142200 -99.518700 47.774235
-52.880081 -99.518700 47.774235
77.106201 -130.196701 47.774235
-77.106201 -130.196701 47.774235
46.449200 -102.043701 30.738132
46.449200 -88.950699 30.738132
46.449200 -88.950699 -51.041634
46.449200 -102.043701 -51.041634
-50.226501 -97.482697 47.774235
-50.921001 -98.387703 47.774235
-50.921001 -98.387703 42.974133
-50.226501 -97.482697 42.974133
58.163200 99.566803 42.974133
57.032200 97.607697 42.974133
61.892200 94.351303 42.974133
61.892200 107.444344 42.974133
57.726200 102.882858 42.974133
58.163200 101.828903 42.974133
52.810200 104.918991 47.774235
52.810200 104.918991 42.974133
50.851200 103.787933 42.974133
50.851200 103.787933 47.774235
-46.207901 94.351303 -51.041634
-61.650799 94.351303 -51.041634
-61.650799 107.444344 -51.041634
-46.207901 107.444344 -51.041634
56.284199 -90.617699 42.974133
53.942200 -89.989700 42.974133
53.942200 -89.989700 47.774235
56.284199 -90.617699 47.774235
51.599201 -90.617699 42.974133
51.599201 -90.617699 47.774235
52.729198 -99.200699 42.974133
52.729198 -99.200699 47.774235
51.599201 -98.732697 47.774235
51.599201 -98.732697 42.974133
-46.207901 -88.950699 30.738132
-46.207901 -88.950699 -51.041634
-61.650799 -88.950699 -51.041634
-61.650799 -88.950699 30.738132
50.851200 97.607697 47.774235
50.851200 97.607697 42.974133
51.599201 -98.732697 47.774235
-50.921001 -98.387703 47.774235
-52.880081 -99.518700 47.774235
-55.142200 -99.518700 47.774235
-57.101250 -98.387703 47.774235
-57.795738 -97.482697 47.774235
77.106201 -130.196701 47.774235
77.106201 130.196701 47.774235
-56.196178 104.482422 47.774235
-54.011139 105.067902 47.774235
-52.880081 104.918991 47.774235
-50.921001 103.787933 47.774235
-50.226501 102.882858 47.774235
-49.641102 100.697800 47.774235
-50.226501 98.512802 47.774235
-50.921001 97.607697 47.774235
50.851200 97.607697 47.774235
49.720200 99.566803 47.774235
49.720200 101.828903 47.774235
50.851200 103.787933 47.774235
52.810200 104.918991 47.774235
55.073200 104.918991 47.774235
57.032200 103.787933 47.774235
58.163200 101.828903 47.774235
58.163200 99.566803 47.774235
57.032200 97.607697 47.774235
56.127201 96.913200 47.774235
58.627201 -94.674698 47.774235
57.999199 -97.017700 47.774235
56.284199 -98.732697 47.774235
55.154202 -99.200699 47.774235
52.729198 -99.200699 47.774235
61.892200 94.351303 30.738132
61.892200 94.351303 42.974133
46.449200 94.351303 42.974133
46.449200 94.351303 30.738132
46.449200 -102.043701 30.738132
-46.207901 -102.043701 30.738132
-46.207901 -88.950699 30.738132
46.449200 -88.950699 30.738132
49.884201 -97.017700 47.774235
49.884201 -97.017700 42.974133
-61.650799 -102.043701 42.974133
-61.650799 -88.950699 42.974133
-61.650799 -88.950699 -51.041634
-61.650799 -102.043701 -51.041634
-46.207901 107.444344 42.974133
-46.207901 107.444344 -51.041634
-61.650799 107.444344 -51.041634
-61.650799 107.444344 42.974133
-57.101250 -98.387703 47.774235
-57.101250 -98.387703 42.974133
-61.650799 107.444344 42.974133
-61.650799 107.444344 -51.041634
-61.650799 94.351303 -51.041634
-61.650799 94.351303 30.738132
-61.650799 -88.950699 30.738132
-61.650799 -88.950699 42.974133
56.284199 -98.732697 42.974133
56.284199 -98.732697 47.774235
55.154202 -99.200699 47.774235
55.154202 -99.200699 42.974133
-51.826099 -91.512703 47.774235
-51.826099 -91.512703 42.974133
-52.880081 -91.075699 42.974133
-52.880081 -91.075699 47.774235
46.449200 94.351303 30.738132
46.449200 94.351303 42.974133
-46.207901 94.351303 42.974133
-46.207901 94.351303 30.738132
52.810200 96.476601 42.974133
52.810200 96.476601 47.774235
61.892200 107.444344 42.974133
61.892200 107.444344 -51.041634
46.449200 107.444344 -51.041634
46.449200 107.444344 30.738132
-46.207901 107.444344 30.738132
-46.207901 107.444344 42.974133
-56.196178 104.482422 42.974133
-54.011139 105.067902 42.974133
-52.880081 104.918991 42.974133
-50.921001 103.787933 42.974133
-50.226501 102.882858 42.974133
-49.641102 100.697800 42.974133
-50.226501 98.512802 42.974133
-51.826099 96.913200 42.974133
-46.207901 94.351303 42.974133
-46.207901 107.444344 42.974133
-61.650799 107.444344 42.974133
-61.650799 -88.950699 42.974133
-58.232311 99.566803 42.974133
-58.232311 101.828903 42.974133
-57.101250 103.787933 42.974133
57.032200 97.607697 42.974133
57.032200 97.607697 47.774235
55.073200 96.476601 47.774235
55.073200 96.476601 42.974133
-50.226501 -93.112701 42.974133
-50.226501 -93.112701 47.774235
-58.232311 101.828903 47.774235
-57.101250 103.787933 47.774235
-57.101250 103.787933 42.974133
-58.232311 101.828903 42.974133
46.449200 94.351303 -51.041634
46.449200 94.351303 30.738132
46.449200 107.444344 30.738132
46.449200 107.444344 -51.041634
-52.880081 -91.075699 42.974133
-50.921001 -92.207703 42.974133
46.449200 -102.043701 42.974133
46.449200 -88.950699 42.974133
-46.207901 -88.950699 42.974133
-54.011139 -90.927696 42.974133
-46.207901 -88.950699 30.738132
-61.650799 -88.950699 30.738132
-61.650799 94.351303 30.738132
-46.207901 94.351303 30.738132
-50.921001 103.787933 47.774235
-50.226501 102.882858 47.774235
-50.226501 102.882858 42.974133
-50.921001 103.787933 42.974133
61.892200 94.351303 42.974133
61.892200 94.351303 -51.041634
61.892200 107.444344 -51.041634
61.892200 107.444344 42.974133
-58.232311 101.828903 47.774235
-58.232311 99.566803 47.774235
-77.106201 130.196701 47.774235
-56.196178 104.482422 47.774235
-57.101250 103.787933 47.774235
-50.226501 98.512802 47.774235
-50.921001 97.607697 47.774235
-50.921001 97.607697 42.974133
-50.226501 98.512802 42.974133
-61.650799 -88.950699 42.974133
-61.650799 -88.950699 30.738132
-46.207901 -88.950699 30.738132
-46.207901 -88.950699 42.974133
-57.101250 97.607697 47.774235
-57.795738 98.512802 47.774235
-57.795738 98.512802 42.974133
-57.101250 97.607697 42.974133
-57.101250 97.607697 42.974133
-46.207901 -88.950699 42.974133
-52.880081 96.476601 42.974133
-55.142200 96.476601 42.974133
-56.196178 104.482422 42.974133
-56.196178 104.482422 47.774235
-54.011139 105.067902 47.774235
-54.011139 105.067902 42.974133
-49.641102 -95.297699 42.974133
-49.641102 -95.297699 47.774235
61.892200 -102.043701 -51.041634
61.892200 -102.043701 42.974133
46.449200 -102.043701 42.974133
46.449200 -102.043701 -51.041634
-55.142200 -91.075699 42.974133
-55.142200 -91.075699 47.774235
-58.381222 100.697800 47.774235
-58.381222 100.697800 42.974133
-52.880081 -99.518700 47.774235
-52.880081 -99.518700 42.974133
58.627201 -94.674698 42.974133
58.467201 -95.887703 42.974133
61.892200 -102.043701 42.974133
61.892200 94.351303 42.974133
57.254200 -91.362701 42.974133
57.999199 -92.332703 42.974133
-52.880081 104.918991 47.774235
-52.880081 104.918991 42.974133
-57.795738 -93.112701 47.774235
-57.795738 -93.112701 42.974133
49.884201 -92.332703 47.774235
49.884201 -92.332703 42.974133
46.449200 -88.950699 42.974133
46.449200 94.351303 42.974133
46.449200 94.351303 30.738132
46.449200 -88.950699 30.738132
49.884201 -97.017700 42.974133
49.416199 -95.887703 42.974133
49.416199 -93.462700 42.974133
49.884201 -92.332703 42.974133
51.599201 -90.617699 42.974133
53.942200 -89.989700 42.974133
56.284199 -90.617699 42.974133
46.449200 94.351303 42.974133
46.449200 -102.043701 42.974133
57.999199 -97.017700 42.974133
56.284199 -98.732697 42.974133
55.154202 -99.200699 42.974133
52.729198 -99.200699 42.974133
51.599201 -98.732697 42.974133
57.032200 103.787933 42.974133
55.073200 104.918991 42.974133
55.073200 104.918991 47.774235
57.032200 103.787933 47.774235
-77.106201 -130.196701 47.774235
-77.106201 130.196701 47.774235
-77.106201 130.196701 51.041634
-77.106201 -130.196701 51.041634
-49.641102 100.697800 47.774235
-49.641102 100.697800 42.974133
46.449200 94.351303 30.738132
-46.207901 94.351303 30.738132
-46.207901 107.444344 30.738132
46.449200 107.444344 30.738132
-55.142200 -99.518700 42.974133
-55.142200 -99.518700 47.774235
61.892200 -102.043701 -51.041634
46.449200 -102.043701 -51.041634
46.449200 -88.950699 -51.041634
61.892200 -88.950699 -51.041634
-46.207901 -102.043701 -51.041634
-61.650799 -102.043701 -51.041634
-61.650799 -88.950699 -51.041634
-46.207901 -88.950699 -51.041634
-46.207901 107.444344 30.738132
-46.207901 94.351303 30.738132
-46.207901 94.351303 -51.041634
-46.207901 107.444344 -51.041634
49.416199 -95.887703 47.774235
49.416199 -93.462700 47.774235
49.416199 -93.462700 42.974133
49.416199 -95.887703 42.974133
57.999199 -92.332703 42.974133
57.999199 -92.332703 47.774235
-56.196178 -91.512703 42.974133
-56.196178 -91.512703 47.774235
-46.207901 -88.950699 42.974133
-46.207901 -88.950699 30.738132
-61.650799 -88.950699 30.738132
-61.650799 -88.950699 42.974133
58.163200 99.566803 47.774235
58.163200 99.566803 42.974133
61.892200 94.351303 -51.041634
46.449200 94.351303 -51.041634
46.449200 107.444344 -51.041634
61.892200 107.444344 -51.041634
-55.142200 -99.518700 42.974133
-57.101250 -98.387703 42.974133
-57.795738 -97.482697 42.974133
-58.381222 -95.297699 42.974133
-57.795738 -93.112701 42.974133
-56.196178 -91.512703 42.974133
-55.142200 -91.075699 42.974133
-61.650799 -88.950699 42.974133
-61.650799 -102.043701 42.974133
-50.226501 -93.112701 42.974133
-49.641102 -95.297699 42.974133
-50.226501 -97.482697 42.974133
-50.921001 -98.387703 42.974133
-52.880081 -99.518700 42.974133
-46.207901 94.351303 -51.041634
-46.207901 94.351303 30.738132
-61.650799 94.351303 30.738132
-61.650799 94.351303 -51.041634
57.032200 103.787933 42.974133
-46.207901 107.444344 42.974133
-46.207901 94.351303 42.974133
55.073200 96.476601 42.974133
52.810200 96.476601 42.974133
50.851200 97.607697 42.974133
49.720200 99.566803 42.974133
49.720200 101.828903 42.974133
50.851200 103.787933 42.974133
52.810200 104.918991 42.974133
55.073200 104.918991 42.974133
-46.207901 -88.950699 42.974133
46.449200 -88.950699 42.974133
46.449200 -88.950699 30.738132
-46.207901 94.351303 42.974133
-46.207901 -88.950699 42.974133
-46.207901 -88.950699 30.738132
-46.207901 94.351303 30.738132
61.892200 94.351303 42.974133
61.892200 -102.043701 42.974133
61.892200 -102.043701 -51.041634
61.892200 -88.950699 -51.041634
61.892200 -88.950699 30.738132
61.892200 94.351303 30.738132
50.851200 103.787933 47.774235
49.720200 101.828903 47.774235
-49.641102 100.697800 47.774235
-50.226501 102.882858 47.774235
-50.921001 103.787933 47.774235
-52.880081 104.918991 47.774235
-54.011139 105.067902 47.774235
77.106201 130.196701 47.774235
-50.921001 -98.387703 47.774235
51.599201 -98.732697 47.774235
52.729198 -99.200699 47.774235
55.154202 -99.200699 47.774235
56.284199 -98.732697 47.774235
57.999199 -97.017700 47.774235
58.627201 -94.674698 47.774235
57.999199 -92.332703 47.774235
56.284199 -90.617699 47.774235
53.942200 -89.989700 47.774235
51.599201 -90.617699 47.774235
-52.880081 -91.075699 47.774235
-55.142200 -91.075699 47.774235
-56.196178 -91.512703 47.774235
-57.795738 -93.112701 47.774235
-58.381222 -95.297699 47.774235
-57.795738 -97.482697 47.774235
-57.101250 97.607697 47.774235
-55.142200 96.476601 47.774235
-52.880081 96.476601 47.774235
52.810200 96.476601 47.774235
55.073200 96.476601 47.774235
57.032200 97.607697 47.774235
58.163200 99.566803 47.774235
58.163200 101.828903 47.774235
57.032200 103.787933 47.774235
55.073200 104.918991 47.774235
52.810200 104.918991 47.774235
61.892200 94.351303 -51.041634
61.892200 94.351303 30.738132
46.449200 94.351303 30.738132
46.449200 94.351303 -51.041634
58.163200 101.828903 47.774235
58.163200 101.828903 42.974133
-46.207901 -88.950699 -51.041634
-46.207901 -88.950699 30.738132
-46.207901 -102.043701 30.738132
-46.207901 -102.043701 -51.041634
77.106201 130.196701 51.041634
77.106201 130.196701 47.774235
-77.106201 130.196701 47.774235
-77.106201 130.196701 51.041634
61.892200 94.351303 30.738132
61.892200 -88.950699 30.738132
46.449200 -88.950699 30.738132
46.449200 94.351303 30.738132
-77.106201 -130.196701 51.041634
77.106201 -130.196701 51.041634
77.106201 130.196701 51.041634
-77.106201 130.196701 51.041634
-77.106201 -130.196701 51.041634
-77.106201 130.196701 51.041634
-77.106201 130.196701 47.774235
-77.106201 -130.196701 47.774235
46.449200 -88.950699 30.738132
61.892200 -88.950699 30.738132
61.892200 -88.950699 -51.041634
46.449200 -88.950699 -51.041634
-77.106201 130.196701 51.041634
-77.106201 130.196701 47.774235
77.106201 130.196701 47.774235
77.106201 130.196701 51.041634
77.106201 -130.196701 47.774235
77.106201 -130.196701 51.041634
-77.106201 -130.196701 51.041634
-77.106201 -130.196701 47.774235
-77.106201 -130.196701 47.774235
-77.106201 -130.196701 51.041634
77.106201 -130.196701 51.041634
77.106201 -130.196701 47.774235
-77.106201 130.196701 51.041634
77.106201 130.196701 51.041634
77.106201 -130.196701 51.041634
-77.106201 -130.196701 51.041634
4 0 1 2 3
4 4 5 6 7
6 8 9 10 11 12 13
4 14 15 16 17
4 18 19 20 21
29 22 23 24 25 26 27 28 29 30 31 32 33 34 35 36 37 38 39 40 41 42 43 44 45 46 47 48 49 50
4 51 52 53 54
4 55 56 57 58
8 59 60 61 62 63 64 65 66
4 67 68 69 70
5 71 72 73 74 75
5 76 77 78 79 80
4 81 82 83 84
4 85 86 87 88
6 89 90 91 92 93 94
4 95 96 97 98
4 99 100 101 102
4 103 104 105 106
4 107 108 105 104
4 109 110 111 112
4 113 114 115 116
4 117 4 7 118
42 119 36 35 120 121 122 123 124 27 26 125 126 25 24 127 128 129 130 131 132 133 134 46 45 135 136 137 138 139 140 141 142 143 144 145 44 43 146 147 148 149 150
4 151 152 153 154
4 155 156 157 158
4 112 111 159 160
4 161 162 163 164
4 165 166 167 168
4 169 51 54 170
6 171 172 173 174 175 176
4 177 178 179 180
4 181 182 183 184
4 185 186 187 188
4 189 190 117 118
6 191 192 193 194 195 196
15 197 198 199 200 201 202 203 204 205 206 207 208 209 210 211
4 212 213 214 215
4 216 182 181 217
4 218 219 220 221
4 222 223 224 225
6 226 227 228 229 230 231
4 232 233 234 235
4 236 237 238 239
4 240 241 242 243
6 244 245 80 246 247 248
4 249 250 251 252
4 253 254 255 256
4 257 258 259 260
8 261 209 208 262 205 204 263 264
4 265 266 267 268
4 85 88 269 270
4 271 272 273 274
4 184 183 275 276
4 277 218 221 278
4 87 86 279 280
6 281 282 283 284 285 286
4 287 288 268 267
4 5 98 97 6
4 52 289 290 53
4 291 108 107 292
4 293 294 295 296
18 297 298 299 300 301 302 303 285 284 304 305 283 282 306 307 308 309 310
4 311 312 313 314
4 313 312 96 95
4 315 316 317 318
4 237 319 320 238
4 217 270 269 216
4 321 322 323 324
4 325 326 169 170
4 327 328 329 330
4 331 332 333 334
4 335 336 337 338
4 339 340 341 342
4 14 17 343 344
4 344 343 103 106
4 276 275 345 346
4 258 277 278 259
4 249 252 320 319
4 347 348 349 350
4 159 339 342 160
4 351 213 212 352
4 70 69 257 260
4 353 354 355 356
4 340 291 292 341
4 178 177 16 15
4 179 110 109 180
18 357 358 359 360 361 362 363 231 230 364 365 228 227 366 367 368 369 370
4 371 372 373 374
15 375 93 92 376 377 91 90 378 379 380 381 382 383 384 385
4 386 387 388 113
4 389 390 391 392
6 393 394 395 396 397 398
4 251 250 68 67
4 239 288 287 236
4 266 265 220 219
51 399 400 72 71 401 402 403 404 405 247 246 406 79 78 407 65 64 408 409 410 411 412 413 414 415 416 417 61 60 418 419 420 421 422 423 76 80 245 424 425 426 75 74 427 428 429 430 431 432 433 434
4 435 436 437 438
4 314 439 440 311
4 441 442 443 444
4 445 446 447 448
4 279 326 325 280
4 449 450 451 452
4 439 351 352 440
4 453 454 455 456
4 457 458 459 460
4 461 462 463 464
4 465 466 467 468
4 469 470 471 472
4 473 474 475 476
4 477 478 479 480
4 289 346 345 290
4 214 190 189 215
