ply
format ascii 1.0
comment Created by Blender 2.82 (sub 7) - www.blender.org, source file: ''
element vertex 256
property float x
property float y
property float z
element face 94
property list uchar uint vertex_indices
end_header
13.000010 -28.000015 12.000000
13.000010 -28.000015 14.000000
-13.000010 -28.000015 14.000000
-13.000010 -28.000015 12.000000
-10.726452 26.222086 -8.260700
-10.726452 25.571547 -8.260700
-10.726452 25.571547 -14.500000
-10.726452 26.222086 -14.500000
8.158810 -14.769915 12.110900
7.904810 -14.978915 12.399500
7.904810 -25.639515 4.678900
8.158810 -25.430614 4.390400
7.650810 -25.430614 4.390400
7.650810 -14.769915 12.110900
7.904810 -14.978915 12.399500
7.904810 -25.639515 4.678900
-11.376990 25.571547 -7.610160
11.353510 25.571547 -7.610160
11.353510 26.222086 -7.610160
-11.376990 26.222086 -7.610160
-7.650810 15.144985 12.110900
-8.158780 15.144985 12.110900
-8.158780 25.805605 4.390400
-7.650810 25.805605 4.390400
10.726410 -25.847015 -14.500000
11.377010 -25.847015 -14.500000
11.377010 -25.196514 -14.500000
10.726410 -25.196514 -14.500000
-15.000010 30.000015 14.000000
13.000010 28.000015 14.000000
-13.000010 28.000015 14.000000
-15.000010 -30.000015 14.000000
-7.607160 25.606018 -7.610160
-7.607160 25.606018 12.159100
-8.245320 25.606018 12.159100
-8.245320 25.606018 -7.610160
11.353510 25.571547 -14.500000
11.353510 26.222086 -14.500000
8.099210 25.805605 4.390400
8.099210 15.144985 12.110900
7.845210 15.353985 12.399500
7.845210 26.014585 4.678900
8.142810 25.606018 -7.610160
8.142810 25.606018 12.159100
7.504710 25.606018 12.159100
7.504710 25.606018 -7.610160
-7.904790 15.353985 12.399500
-7.904790 26.014585 4.678900
-7.845220 -25.639515 4.678900
-7.845220 -14.978915 12.399500
-8.099200 -14.769915 12.110900
-8.099200 -25.430614 4.390400
-13.000010 -28.000015 12.000000
-13.000010 28.000015 12.000000
-13.000010 28.000015 14.000000
-13.000010 -28.000015 14.000000
-7.591230 -14.769915 12.110900
-7.591230 -25.430614 4.390400
-7.504690 -25.231014 12.159100
-7.504690 -25.869116 12.159100
-7.504690 -25.869116 -7.610160
-7.504690 -25.231014 -7.610160
-15.000010 -30.000015 14.500000
-15.000010 30.000015 14.500000
-15.000010 30.000015 14.000000
-15.000010 -30.000015 14.000000
-7.591230 -25.430614 4.390400
-7.845220 -25.639515 4.678900
-7.845220 -14.978915 12.399500
-7.591230 -14.769915 12.110900
7.650810 -14.769915 12.110900
7.650810 -25.430614 4.390400
13.000010 28.000015 12.000000
13.000010 -28.000015 12.000000
13.000010 -28.000015 14.000000
13.000010 28.000015 14.000000
-10.703021 -25.196514 -8.260700
-10.703021 -25.847015 -8.260700
-10.703021 -25.847015 -14.500000
-10.703021 -25.196514 -14.500000
10.726410 -25.196514 -8.260700
10.726410 -25.847015 -8.260700
8.158810 -25.430614 4.390400
8.158810 -14.769915 12.110900
-7.607160 26.244183 12.159100
-7.607160 26.244183 -7.610160
-7.650810 15.144985 12.110900
-7.904790 15.353985 12.399500
-8.158780 15.144985 12.110900
-8.158780 15.144985 12.110900
-7.904790 15.353985 12.399500
-7.650810 15.144985 12.110900
15.000010 30.000015 14.500000
15.000010 -30.000015 14.500000
15.000010 -30.000015 14.000000
15.000010 30.000015 14.000000
10.703010 25.571547 -8.260700
10.703010 26.222086 -8.260700
10.703010 26.222086 -14.500000
10.703010 25.571547 -14.500000
-11.353558 -25.847015 -14.500000
-10.703021 -25.847015 -14.500000
-10.703021 -25.196514 -14.500000
-11.353558 -25.196514 -14.500000
-11.353558 -25.196514 -14.500000
-10.703021 -25.196514 -14.500000
-10.703021 -25.847015 -14.500000
-11.353558 -25.847015 -14.500000
-11.376990 25.571547 -14.500000
-11.353558 -25.847015 -7.610160
-11.353558 -25.196514 -7.610160
-11.353558 -25.196514 -14.500000
-11.353558 -25.847015 -14.500000
7.591210 25.805605 4.390400
7.591210 15.144985 12.110900
10.726410 -25.196514 -14.500000
11.377010 -25.196514 -14.500000
11.377010 -25.847015 -14.500000
10.726410 -25.847015 -14.500000
-15.000010 30.000015 14.500000
-15.000010 30.000015 14.000000
15.000010 30.000015 14.000000
15.000010 30.000015 14.500000
-15.000010 -30.000015 14.500000
15.000010 -30.000015 14.500000
15.000010 30.000015 14.500000
-15.000010 30.000015 14.500000
-8.158780 25.805605 4.390400
-7.904790 26.014585 4.678900
-7.904790 15.353985 12.399500
-8.158780 15.144985 12.110900
-8.142850 -25.231014 -7.610160
-8.142850 -25.231014 12.159100
15.000010 -30.000015 14.000000
15.000010 -30.000015 14.500000
-15.000010 -30.000015 14.500000
-15.000010 -30.000015 14.000000
13.000010 28.000015 14.000000
13.000010 28.000015 12.000000
-13.000010 28.000015 12.000000
-13.000010 28.000015 14.000000
-13.000010 28.000015 14.000000
-13.000010 28.000015 12.000000
13.000010 28.000015 12.000000
13.000010 28.000015 14.000000
13.000010 28.000015 14.000000
13.000010 -28.000015 14.000000
13.000010 -28.000015 12.000000
13.000010 28.000015 12.000000
11.353510 25.571547 -14.500000
10.703010 25.571547 -14.500000
10.703010 26.222086 -14.500000
11.353510 26.222086 -14.500000
-15.000010 -30.000015 14.000000
-15.000010 30.000015 14.000000
-15.000010 30.000015 14.500000
-15.000010 -30.000015 14.500000
-7.650810 25.805605 4.390400
-7.650810 15.144985 12.110900
7.845210 26.014585 4.678900
7.845210 15.353985 12.399500
8.099210 15.144985 12.110900
8.099210 25.805605 4.390400
15.000010 30.000015 14.000000
15.000010 -30.000015 14.000000
-13.000010 -28.000015 14.000000
13.000010 -28.000015 14.000000
-15.000010 -30.000015 14.000000
-13.000010 28.000015 14.000000
13.000010 28.000015 14.000000
13.000010 -28.000015 14.000000
15.000010 -30.000015 14.000000
15.000010 30.000015 14.000000
-15.000010 30.000015 14.000000
8.099210 15.144985 12.110900
7.845210 15.353985 12.399500
7.591210 15.144985 12.110900
7.591210 15.144985 12.110900
7.845210 15.353985 12.399500
8.099210 15.144985 12.110900
7.591210 15.144985 12.110900
7.591210 25.805605 4.390400
15.000010 30.000015 14.500000
15.000010 30.000015 14.000000
-15.000010 30.000015 14.000000
-15.000010 30.000015 14.500000
-15.000010 30.000015 14.500000
15.000010 30.000015 14.500000
15.000010 -30.000015 14.500000
-15.000010 -30.000015 14.500000
8.142810 26.244183 12.159100
8.142810 26.244183 -7.610160
7.504710 26.244183 -7.610160
7.504710 26.244183 12.159100
-15.000010 -30.000015 14.000000
-15.000010 -30.000015 14.500000
15.000010 -30.000015 14.500000
15.000010 -30.000015 14.000000
15.000010 30.000015 14.000000
15.000010 -30.000015 14.000000
15.000010 -30.000015 14.500000
15.000010 30.000015 14.500000
-13.000010 -28.000015 12.000000
-13.000010 -28.000015 14.000000
13.000010 -28.000015 14.000000
13.000010 -28.000015 12.000000
-13.000010 -28.000015 14.000000
-8.245320 26.244183 -7.610160
-8.245320 26.244183 12.159100
7.650810 -14.769915 12.110900
7.904810 -14.978915 12.399500
8.158810 -14.769915 12.110900
8.158810 -14.769915 12.110900
7.904810 -14.978915 12.399500
7.650810 -14.769915 12.110900
11.377010 -25.196514 -7.610160
11.377010 -25.196514 -14.500000
10.726410 -25.196514 -14.500000
10.726410 -25.847015 -14.500000
11.377010 -25.847015 -14.500000
11.377010 -25.847015 -7.610160
-11.376990 26.222086 -14.500000
-13.000010 -28.000015 14.000000
-13.000010 28.000015 14.000000
-13.000010 28.000015 12.000000
-13.000010 -28.000015 12.000000
8.245310 -25.231014 12.159100
8.245310 -25.869116 12.159100
8.245310 -25.869116 -7.610160
8.245310 -25.231014 -7.610160
-8.099200 -25.430614 4.390400
-8.099200 -14.769915 12.110900
11.353510 26.222086 -14.500000
10.703010 26.222086 -14.500000
10.703010 25.571547 -14.500000
11.353510 25.571547 -14.500000
7.607110 -25.231014 -7.610160
7.607110 -25.231014 12.159100
-8.099200 -14.769915 12.110900
-7.845220 -14.978915 12.399500
-7.591230 -14.769915 12.110900
-7.591230 -14.769915 12.110900
-7.845220 -14.978915 12.399500
-8.099200 -14.769915 12.110900
-10.726452 26.222086 -14.500000
-11.376990 26.222086 -14.500000
-11.376990 25.571547 -14.500000
-10.726452 25.571547 -14.500000
-10.726452 25.571547 -14.500000
-11.376990 25.571547 -14.500000
-11.376990 26.222086 -14.500000
-10.726452 26.222086 -14.500000
-8.142850 -25.869116 12.159100
-8.142850 -25.869116 -7.610160
7.607110 -25.869116 12.159100
7.607110 -25.869116 -7.610160
4 0 1 2 3
4 4 5 6 7
4 8 9 10 11
4 12 13 14 15
4 16 17 18 19
4 20 21 22 23
4 24 25 26 27
4 28 29 30 31
4 32 33 34 35
4 18 17 36 37
4 38 39 40 41
4 42 43 44 45
4 21 46 47 22
4 48 49 50 51
4 52 53 54 55
4 50 56 57 51
4 58 59 60 61
4 62 63 64 65
4 66 67 68 69
4 70 8 11 71
4 72 73 74 75
4 76 77 78 79
4 10 9 70 71
4 76 80 81 77
4 47 46 20 23
4 12 82 83 13
4 84 33 32 85
3 86 87 88
3 89 90 91
4 92 93 94 95
4 96 97 98 99
4 100 101 102 103
4 104 105 106 107
8 5 96 99 36 17 16 108 6
4 109 110 111 112
4 113 41 40 114
4 115 116 117 118
4 119 120 121 122
4 123 124 125 126
4 127 128 129 130
4 131 132 58 61
4 133 134 135 136
4 137 138 139 140
4 141 142 143 144
4 145 146 147 148
4 149 150 151 152
4 153 154 155 156
4 157 127 130 158
4 38 113 114 39
4 159 160 161 162
8 163 164 31 30 165 166 29 28
7 167 168 169 170 171 172 173
3 174 175 176
3 177 178 179
4 161 180 181 162
4 182 183 184 185
4 186 187 188 189
4 190 191 192 193
4 44 193 192 45
4 194 195 196 197
4 198 199 200 201
4 202 203 204 205
5 171 170 206 168 167
4 84 85 207 208
4 34 208 207 35
3 209 210 211
3 212 213 214
4 157 158 129 128
8 76 79 111 110 215 216 217 80
4 81 80 217 218
4 180 160 159 181
8 109 112 78 77 81 218 219 220
4 16 19 221 108
4 222 223 224 225
4 96 5 4 97
4 226 227 228 229
8 4 7 221 19 18 37 98 97
4 215 110 109 220
4 230 66 69 231
4 232 233 234 235
4 215 220 219 216
4 82 15 14 83
4 236 237 226 229
4 56 49 48 57
3 238 239 240
3 241 242 243
4 190 43 42 191
4 244 245 246 247
4 248 249 250 251
4 252 253 60 59
4 252 132 131 253
4 254 237 236 255
4 230 231 68 67
4 254 255 228 227
