ply
format ascii 1.0
comment Created by Blender 2.82 (sub 7) - www.blender.org, source file: ''
element vertex 144
property float x
property float y
property float z
element face 33
property list uchar uint vertex_indices
end_header
-15.748000 29.527550 -15.059050
-17.716499 29.527550 -15.059050
-17.716499 31.496050 -15.059050
-15.748000 31.496050 -15.059050
17.716499 -29.527550 12.893750
17.716499 29.527550 12.893750
17.716499 29.527550 -15.059050
17.716499 31.496050 -15.059050
17.716499 31.496050 14.862250
17.716499 -31.496050 14.862250
17.716499 -31.496050 -15.059050
17.716499 -29.527550 -15.059050
15.748040 -31.496050 12.893750
-15.748000 -31.496050 12.893750
-15.748000 -29.527550 12.893750
15.748040 -29.527550 12.893750
17.716499 29.527550 -15.059050
15.748040 29.527550 -15.059050
15.748040 31.496050 -15.059050
17.716499 31.496050 -15.059050
17.716499 -31.496050 14.862250
-17.716499 -31.496050 14.862250
-17.716499 31.496050 14.862250
17.716499 31.496050 14.862250
-17.716499 -31.496050 14.862250
17.716499 -31.496050 14.862250
17.716499 31.496050 14.862250
-17.716499 31.496050 14.862250
17.716499 -31.496050 14.862250
-17.716499 -31.496050 14.862250
-17.716499 -31.496050 -15.059050
-15.748000 -31.496050 -15.059050
-15.748000 -31.496050 12.893750
15.748040 -31.496050 12.893750
15.748040 -31.496050 -15.059050
17.716499 -31.496050 -15.059050
-15.748000 31.496050 12.893750
-15.748000 29.527550 12.893750
-15.748000 29.527550 -15.059050
-15.748000 31.496050 -15.059050
-17.716499 -31.496050 14.862250
-17.716499 31.496050 14.862250
-17.716499 31.496050 15.059050
-17.716499 -31.496050 15.059050
-17.716499 -29.527550 12.893750
17.716499 -29.527550 12.893750
17.716499 -31.496050 -15.059050
15.748040 -31.496050 -15.059050
15.748040 -29.527550 -15.059050
17.716499 -29.527550 -15.059050
-15.748000 29.527550 -15.059050
-15.748000 29.527550 12.893750
-17.716499 29.527550 12.893750
-17.716499 29.527550 -15.059050
-17.716499 31.496050 15.059050
-17.716499 31.496050 14.862250
17.716499 31.496050 14.862250
17.716499 31.496050 15.059050
17.716499 -31.496050 14.862250
17.716499 -31.496050 15.059050
-17.716499 -31.496050 15.059050
-17.716499 -31.496050 14.862250
17.716499 31.496050 15.059050
17.716499 -31.496050 15.059050
17.716499 -31.496050 14.862250
17.716499 31.496050 14.862250
17.716499 29.527550 -15.059050
17.716499 29.527550 12.893750
15.748040 29.527550 12.893750
15.748040 29.527550 -15.059050
-15.748000 29.527550 12.893750
-15.748000 31.496050 12.893750
15.748040 31.496050 12.893750
15.748040 29.527550 12.893750
17.716499 29.527550 12.893750
-17.716499 29.527550 12.893750
-17.716499 29.527550 12.893750
-17.716499 -29.527550 12.893750
-17.716499 -29.527550 -15.059050
-17.716499 -31.496050 -15.059050
-17.716499 -31.496050 14.862250
-17.716499 31.496050 14.862250
-17.716499 31.496050 -15.059050
-17.716499 29.527550 -15.059050
15.748040 -29.527550 12.893750
17.716499 -29.527550 12.893750
17.716499 -29.527550 -15.059050
15.748040 -29.527550 -15.059050
-15.748000 -31.496050 -15.059050
-17.716499 -31.496050 -15.059050
-17.716499 -29.527550 -15.059050
-15.748000 -29.527550 -15.059050
-15.748000 -29.527550 12.893750
-15.748000 -29.527550 -15.059050
-17.716499 -29.527550 -15.059050
-17.716499 -29.527550 12.893750
-15.748000 -29.527550 12.893750
-15.748000 -31.496050 12.893750
-15.748000 -31.496050 -15.059050
-15.748000 -29.527550 -15.059050
15.748040 -31.496050 12.893750
15.748040 -29.527550 12.893750
15.748040 -29.527550 -15.059050
15.748040 -31.496050 -15.059050
17.716499 31.496050 15.059050
17.716499 31.496050 14.862250
-17.716499 31.496050 14.862250
-17.716499 31.496050 15.059050
-17.716499 -31.496050 15.059050
17.716499 -31.496050 15.059050
17.716499 31.496050 15.059050
-17.716499 31.496050 15.059050
17.716499 31.496050 14.862250
17.716499 31.496050 -15.059050
15.748040 31.496050 -15.059050
15.748040 31.496050 12.893750
-15.748000 31.496050 12.893750
-15.748000 31.496050 -15.059050
-17.716499 31.496050 -15.059050
-17.716499 31.496050 14.862250
-17.716499 -31.496050 15.059050
-17.716499 31.496050 15.059050
-17.716499 31.496050 14.862250
-17.716499 -31.496050 14.862250
-17.716499 -31.496050 14.862250
-17.716499 -31.496050 15.059050
17.716499 -31.496050 15.059050
17.716499 -31.496050 14.862250
17.716499 31.496050 14.862250
-17.716499 31.496050 14.862250
-17.716499 -31.496050 14.862250
17.716499 -31.496050 14.862250
15.748040 29.527550 12.893750
15.748040 31.496050 12.893750
15.748040 31.496050 -15.059050
15.748040 29.527550 -15.059050
17.716499 31.496050 14.862250
17.716499 -31.496050 14.862250
17.716499 -31.496050 15.059050
17.716499 31.496050 15.059050
-17.716499 31.496050 15.059050
17.716499 31.496050 15.059050
17.716499 -31.496050 15.059050
-17.716499 -31.496050 15.059050
4 0 1 2 3
8 4 5 6 7 8 9 10 11
4 12 13 14 15
4 16 17 18 19
4 20 21 22 23
4 24 25 26 27
8 28 29 30 31 32 33 34 35
4 36 37 38 39
4 40 41 42 43
3 44 45 15
3 44 15 14
4 46 47 48 49
4 50 51 52 53
4 54 55 56 57
4 58 59 60 61
4 62 63 64 65
4 66 67 68 69
8 70 71 72 73 74 45 44 75
8 76 77 78 79 80 81 82 83
4 84 85 86 87
4 88 89 90 91
4 92 93 94 95
4 96 97 98 99
4 100 101 102 103
4 104 105 106 107
4 108 109 110 111
8 112 113 114 115 116 117 118 119
4 120 121 122 123
4 124 125 126 127
4 128 129 130 131
4 132 133 134 135
4 136 137 138 139
4 140 141 142 143
