ply
format ascii 1.0
comment Created by Blender 2.82 (sub 7) - www.blender.org, source file: ''
element vertex 452
property float x
property float y
property float z
element face 108
property list uchar uint vertex_indices
end_header
11.810950 -19.685049 3.937010
11.810950 -17.716551 3.937010
11.810950 -17.716551 2.358210
11.810950 -16.929140 3.937010
11.810950 -15.748040 3.937010
11.810950 -17.716551 0.000000
11.810950 -17.716551 -7.874020
11.810950 -19.685049 -7.874020
-11.811050 19.685049 -7.874020
-11.811050 17.716551 -7.874020
-13.779550 17.716551 -7.874020
-13.779550 19.685049 -7.874020
-13.779550 19.685049 7.874020
13.779550 19.685049 7.874020
13.779550 19.685049 7.480320
-13.779550 19.685049 7.480320
-13.779550 -19.685049 7.480320
-13.779550 19.685049 7.480320
-13.779550 19.685049 7.874020
-13.779550 -19.685049 7.874020
-13.779550 -17.716551 3.937010
-13.779550 -17.716551 -7.874020
-13.779550 -19.685049 -7.874020
-13.779550 -19.685049 3.937010
-12.795298 15.748050 3.937010
-12.795298 16.929150 3.937010
-11.811050 16.929150 3.937010
-11.811050 15.748050 3.937010
11.810950 17.716551 3.937010
11.810950 16.929150 3.937010
11.810950 19.685049 3.937010
11.810950 15.748050 3.937010
11.810950 -15.748040 3.937010
11.810950 -16.929140 3.937010
11.810950 -17.716551 3.937010
11.810950 -19.685049 3.937010
-11.811050 -19.685049 3.937010
-11.811050 -19.685049 -7.874020
-11.811050 -17.716551 -7.874020
-11.811050 -17.716551 0.000000
-11.811050 -15.748040 3.937010
-11.811050 -16.929140 3.937010
-11.811050 -17.716551 2.362200
-11.811050 -17.716551 3.937010
9.842450 17.716551 3.937010
9.842450 -17.716551 3.937010
9.842450 18.700750 3.937010
9.842450 -18.700798 3.937010
-11.811050 17.716551 3.937010
-11.811050 19.685049 3.937010
-13.779550 19.685049 3.937010
-13.779550 17.716551 3.937010
-11.023640 17.716551 3.937010
-11.023640 -17.716551 3.937010
-11.023640 18.700750 3.937010
-11.023640 -18.700798 3.937010
-11.811050 -19.685049 3.937010
-13.779550 -19.685049 3.937010
-13.779550 -19.685049 -7.874020
-11.811050 -19.685049 -7.874020
12.795250 -17.716551 2.358210
12.795250 -17.716551 0.000000
12.795250 -15.748040 3.937010
12.795250 -16.929140 3.937010
-12.795298 -17.716551 2.362200
-11.811050 -17.716551 2.362200
-11.811050 -16.929140 3.937010
-12.795298 -16.929140 3.937010
-13.779550 -19.685049 4.724410
-13.779550 -17.716551 4.724410
13.779550 -17.716551 4.724410
13.779550 -19.685049 4.724410
-11.811050 18.700750 0.000000
-11.811050 18.700750 2.362200
-11.811050 17.716551 2.362200
-11.811050 16.929150 3.937010
-11.811050 15.748050 3.937010
-11.811050 17.716551 0.000000
-9.842540 -18.700798 3.937010
-11.023640 -18.700798 3.937010
-11.811050 -18.700798 2.362200
-11.811050 -18.700798 0.000000
-13.779550 19.685049 7.480320
13.779550 19.685049 7.480320
13.779550 19.685049 4.724410
-13.779550 19.685049 4.724410
13.779550 -19.685049 4.724410
13.779550 -17.716551 4.724410
-13.779550 -17.716551 4.724410
-13.779550 -19.685049 4.724410
-11.811050 17.716551 3.937010
-11.811050 19.685049 3.937010
-9.842540 17.716551 3.937010
-9.842540 18.700750 3.937010
-11.811050 16.929150 3.937010
-12.795298 16.929150 3.937010
13.779550 -19.685049 7.480320
-13.779550 -19.685049 7.480320
-13.779550 -19.685049 4.724410
13.779550 -19.685049 4.724410
13.779550 -17.716551 4.724410
13.779550 17.716551 4.724410
-13.779550 17.716551 4.724410
-13.779550 -17.716551 4.724410
12.795250 17.716551 0.000000
12.795250 17.716551 2.376170
12.795250 16.929150 3.937010
12.795250 15.748050 3.937010
13.779550 -17.716551 4.724410
13.779550 -17.716551 7.480320
13.779550 -19.685049 7.480320
13.779550 -19.685049 4.724410
11.810950 -16.929140 3.937010
11.810950 -15.748040 3.937010
12.795250 -15.748040 3.937010
12.795250 -16.929140 3.937010
-12.795298 15.748050 3.937010
-12.795298 -15.748040 3.937010
-12.795298 -16.929140 3.937010
13.779550 -19.685049 7.874020
-13.779550 -19.685049 7.874020
-13.779550 -19.685049 7.480320
13.779550 -19.685049 7.480320
-13.779550 -19.685049 7.480320
-13.779550 -19.685049 7.874020
-13.779550 19.685049 7.874020
-13.779550 19.685049 7.480320
-13.779550 -19.685049 3.937010
-13.779550 -17.716551 3.937010
-11.811050 -17.716551 3.937010
-11.811050 -19.685049 3.937010
13.779550 17.716551 3.937010
11.810950 17.716551 3.937010
11.810950 17.716551 2.376170
11.023550 17.716551 3.937010
9.842450 17.716551 3.937010
11.810950 17.716551 0.000000
11.810950 17.716551 -7.874020
13.779550 17.716551 -7.874020
-11.811050 -19.685049 3.937010
-11.811050 -17.716551 3.937010
-13.779550 -17.716551 3.937010
-13.779550 -19.685049 3.937010
11.810950 17.716551 0.000000
11.810950 15.748050 3.937010
11.810950 16.929150 3.937010
11.810950 17.716551 2.376170
11.810950 17.716551 3.937010
11.810950 19.685049 3.937010
11.810950 19.685049 -7.874020
11.810950 17.716551 -7.874020
-11.811050 -18.700798 2.362200
-11.023640 -18.700798 3.937010
-11.023640 -17.716551 3.937010
-11.811050 -17.716551 2.362200
-11.811050 17.716551 2.362200
-11.811050 17.716551 3.937010
-13.779550 17.716551 3.937010
-13.779550 17.716551 -7.874020
-11.811050 17.716551 -7.874020
-11.811050 17.716551 0.000000
-9.842540 17.716551 3.937010
-11.023640 17.716551 3.937010
13.779550 -19.685049 4.724410
13.779550 -19.685049 3.937010
13.779550 19.685049 3.937010
13.779550 19.685049 4.724410
-13.779550 -19.685049 3.937010
-13.779550 -19.685049 4.724410
-13.779550 19.685049 4.724410
-13.779550 19.685049 3.937010
-11.811050 -17.716551 0.000000
-11.811050 -17.716551 -7.874020
-13.779550 -17.716551 -7.874020
-13.779550 -17.716551 3.937010
-11.811050 -17.716551 3.937010
-11.811050 -17.716551 2.362200
-11.023640 -17.716551 3.937010
-9.842540 -17.716551 3.937010
-13.779550 -17.716551 7.480320
-13.779550 -17.716551 4.724410
-13.779550 -19.685049 4.724410
-13.779550 -19.685049 7.480320
9.842450 -18.700798 3.937010
9.842450 -17.716551 3.937010
11.023550 -17.716551 3.937010
11.023550 -18.700798 3.937010
-9.842540 -18.700798 3.937010
-9.842540 -17.716551 3.937010
11.023550 -18.700798 3.937010
11.023550 -17.716551 3.937010
11.023550 17.716551 3.937010
11.023550 18.700750 3.937010
-11.811050 -19.685049 3.937010
-11.811050 -17.716551 3.937010
-13.779550 -17.716551 3.937010
-13.779550 17.716551 3.937010
-11.811050 -16.929140 3.937010
-11.811050 -15.748040 3.937010
-11.811050 15.748050 3.937010
13.779550 -17.716551 4.724410
-13.779550 -17.716551 4.724410
-13.779550 -17.716551 7.480320
13.779550 -17.716551 7.480320
13.779550 17.716551 7.480320
13.779550 19.685049 7.480320
-13.779550 19.685049 7.480320
-13.779550 17.716551 7.480320
13.779550 19.685049 4.724410
13.779550 19.685049 7.480320
13.779550 17.716551 7.480320
13.779550 17.716551 4.724410
11.810950 -17.716551 2.358210
11.023550 -17.716551 3.937010
11.023550 -18.700798 3.937010
11.810950 -18.700798 2.358210
13.779550 17.716551 3.937010
13.779550 19.685049 3.937010
11.810950 19.685049 3.937010
11.810950 17.716551 3.937010
-13.779550 19.685049 3.937010
-13.779550 19.685049 -7.874020
-13.779550 17.716551 -7.874020
-13.779550 17.716551 3.937010
9.842450 17.716551 3.937010
9.842450 18.700750 3.937010
11.023550 18.700750 3.937010
11.023550 17.716551 3.937010
-12.795298 -15.748040 3.937010
-11.811050 -15.748040 3.937010
-11.811050 -17.716551 0.000000
-12.795298 -17.716551 0.000000
13.779550 -17.716551 7.480320
13.779550 17.716551 7.480320
-13.779550 17.716551 7.480320
-13.779550 -17.716551 7.480320
-11.023640 18.700750 3.937010
-11.811050 18.700750 2.362200
-11.811050 17.716551 2.362200
-11.023640 17.716551 3.937010
11.810950 -17.716551 2.358210
12.795250 -17.716551 2.358210
12.795250 -17.716551 0.000000
11.810950 -17.716551 0.000000
9.842450 -17.716551 3.937010
11.023550 -17.716551 3.937010
12.795250 15.748050 3.937010
12.795250 16.929150 3.937010
13.779550 17.716551 3.937010
13.779550 -17.716551 3.937010
12.795250 -16.929140 3.937010
12.795250 -15.748040 3.937010
-11.811050 -17.716551 -7.874020
-11.811050 -19.685049 -7.874020
-13.779550 -19.685049 -7.874020
-13.779550 -17.716551 -7.874020
-12.795298 -16.929140 3.937010
-12.795298 -15.748040 3.937010
-12.795298 -17.716551 0.000000
-12.795298 -17.716551 2.362200
-12.795298 16.929150 3.937010
-12.795298 17.716551 2.362200
-12.795298 17.716551 0.000000
-12.795298 15.748050 3.937010
-11.811050 15.748050 3.937010
-12.795298 15.748050 3.937010
-12.795298 17.716551 0.000000
-11.811050 17.716551 0.000000
11.810950 -17.716551 3.937010
13.779550 -17.716551 3.937010
13.779550 -17.716551 -7.874020
11.810950 -17.716551 -7.874020
11.810950 -17.716551 0.000000
12.795250 -17.716551 0.000000
12.795250 -17.716551 2.358210
11.810950 -17.716551 2.358210
9.842450 18.700750 3.937010
11.023550 18.700750 3.937010
11.810950 18.700750 2.376170
11.810950 18.700750 0.000000
13.779550 -19.685049 7.480320
-13.779550 -19.685049 7.480320
-13.779550 -19.685049 7.874020
13.779550 -19.685049 7.874020
13.779550 -19.685049 3.937010
11.810950 -19.685049 3.937010
11.810950 -19.685049 -7.874020
13.779550 -19.685049 -7.874020
9.842450 -17.716551 3.937010
11.810950 -17.716551 0.000000
11.810950 -18.700798 0.000000
9.842450 -18.700798 3.937010
13.779550 19.685049 3.937010
-13.779550 19.685049 3.937010
-13.779550 19.685049 4.724410
13.779550 19.685049 4.724410
-11.811050 18.700750 2.362200
-11.811050 18.700750 0.000000
-11.811050 17.716551 0.000000
-11.811050 17.716551 -7.874020
-11.811050 19.685049 -7.874020
-11.811050 19.685049 3.937010
-11.811050 17.716551 3.937010
-11.811050 17.716551 2.362200
13.779550 -19.685049 4.724410
-13.779550 -19.685049 4.724410
-13.779550 -19.685049 3.937010
13.779550 -19.685049 3.937010
11.810950 15.748050 3.937010
11.810950 16.929150 3.937010
12.795250 16.929150 3.937010
12.795250 15.748050 3.937010
11.810950 -18.700798 2.358210
11.023550 -18.700798 3.937010
9.842450 -18.700798 3.937010
11.810950 -18.700798 0.000000
-11.023640 -18.700798 3.937010
-11.023640 -17.716551 3.937010
-9.842540 -17.716551 3.937010
-9.842540 -18.700798 3.937010
-12.795298 -16.929140 3.937010
-12.795298 -15.748040 3.937010
-11.811050 -15.748040 3.937010
-11.811050 -16.929140 3.937010
13.779550 -19.685049 3.937010
13.779550 -17.716551 3.937010
11.810950 -17.716551 3.937010
11.810950 -19.685049 3.937010
9.842450 18.700750 3.937010
11.810950 18.700750 0.000000
11.810950 17.716551 0.000000
9.842450 17.716551 3.937010
11.810950 18.700750 2.376170
11.023550 18.700750 3.937010
11.023550 17.716551 3.937010
11.810950 17.716551 2.376170
11.810950 -17.716551 2.358210
12.795250 -17.716551 2.358210
12.795250 -16.929140 3.937010
11.810950 -16.929140 3.937010
12.795250 15.748050 3.937010
11.810950 15.748050 3.937010
11.810950 17.716551 0.000000
12.795250 17.716551 0.000000
11.810950 17.716551 3.937010
11.810950 19.685049 3.937010
13.779550 19.685049 3.937010
13.779550 17.716551 3.937010
13.779550 -19.685049 7.480320
13.779550 -17.716551 7.480320
-13.779550 -17.716551 7.480320
-13.779550 -19.685049 7.480320
-13.779550 17.716551 3.937010
-13.779550 19.685049 3.937010
-11.811050 19.685049 3.937010
-11.811050 17.716551 3.937010
-13.779550 19.685049 7.480320
-13.779550 19.685049 4.724410
-13.779550 17.716551 4.724410
-13.779550 17.716551 7.480320
13.779550 19.685049 -7.874020
13.779550 17.716551 -7.874020
11.810950 17.716551 -7.874020
11.810950 19.685049 -7.874020
11.810950 19.685049 3.937010
13.779550 19.685049 3.937010
13.779550 19.685049 -7.874020
11.810950 19.685049 -7.874020
13.779550 -17.716551 -7.874020
13.779550 -19.685049 -7.874020
11.810950 -19.685049 -7.874020
11.810950 -17.716551 -7.874020
11.810950 -19.685049 3.937010
11.810950 -17.716551 3.937010
13.779550 -17.716551 3.937010
13.779550 -19.685049 3.937010
13.779550 19.685049 -7.874020
13.779550 19.685049 3.937010
13.779550 17.716551 3.937010
13.779550 17.716551 -7.874020
11.810950 16.929150 3.937010
12.795250 16.929150 3.937010
12.795250 17.716551 2.376170
11.810950 17.716551 2.376170
-13.779550 17.716551 4.724410
-13.779550 19.685049 4.724410
13.779550 19.685049 4.724410
13.779550 17.716551 4.724410
13.779550 17.716551 4.724410
13.779550 19.685049 4.724410
-13.779550 19.685049 4.724410
-13.779550 17.716551 4.724410
13.779550 17.716551 7.480320
-13.779550 17.716551 7.480320
-13.779550 17.716551 4.724410
13.779550 17.716551 4.724410
13.779550 19.685049 7.874020
13.779550 -19.685049 7.874020
13.779550 -19.685049 7.480320
13.779550 19.685049 7.480320
-11.811050 18.700750 2.362200
-11.023640 18.700750 3.937010
-9.842540 18.700750 3.937010
-11.811050 18.700750 0.000000
13.779550 19.685049 7.480320
13.779550 -19.685049 7.480320
13.779550 -19.685049 7.874020
13.779550 19.685049 7.874020
13.779550 -17.716551 -7.874020
13.779550 -17.716551 3.937010
13.779550 -19.685049 3.937010
13.779550 -19.685049 -7.874020
-13.779550 -19.685049 7.874020
-13.779550 19.685049 7.874020
13.779550 19.685049 7.874020
13.779550 -19.685049 7.874020
13.779550 -19.685049 7.874020
13.779550 19.685049 7.874020
-13.779550 19.685049 7.874020
-13.779550 -19.685049 7.874020
-11.811050 18.700750 0.000000
-9.842540 18.700750 3.937010
-9.842540 17.716551 3.937010
-11.811050 17.716551 0.000000
-13.779550 19.685049 3.937010
-11.811050 19.685049 3.937010
-11.811050 19.685049 -7.874020
-13.779550 19.685049 -7.874020
-13.779550 19.685049 7.480320
13.779550 19.685049 7.480320
13.779550 19.685049 7.874020
-13.779550 19.685049 7.874020
-13.779550 -17.716551 7.480320
-13.779550 17.716551 7.480320
13.779550 17.716551 7.480320
13.779550 -17.716551 7.480320
12.795250 -17.716551 0.000000
11.810950 -17.716551 0.000000
11.810950 -15.748040 3.937010
12.795250 -15.748040 3.937010
-12.795298 16.929150 3.937010
-11.811050 16.929150 3.937010
-11.811050 17.716551 2.362200
-12.795298 17.716551 2.362200
-11.023640 17.716551 3.937010
-11.023640 18.700750 3.937010
-9.842540 18.700750 3.937010
-9.842540 17.716551 3.937010
-11.811050 -17.716551 0.000000
-9.842540 -17.716551 3.937010
-9.842540 -18.700798 3.937010
-11.811050 -18.700798 0.000000
8 0 1 2 3 4 5 6 7
4 8 9 10 11
4 12 13 14 15
4 16 17 18 19
4 20 21 22 23
4 24 25 26 27
3 28 29 30
3 29 31 30
3 31 32 30
3 32 33 30
3 33 34 30
3 34 35 30
8 36 37 38 39 40 41 42 43
3 44 45 46
3 45 47 46
4 48 49 50 51
3 52 53 54
3 53 55 54
4 56 57 58 59
4 60 61 62 63
4 64 65 66 67
4 68 69 70 71
6 72 73 74 75 76 77
4 78 79 80 81
4 82 83 84 85
4 86 87 88 89
11 90 91 30 46 47 92 93 54 55 94 95
4 96 97 98 99
4 100 101 102 103
4 104 105 106 107
4 108 109 110 111
4 112 113 114 115
3 116 117 95
3 117 118 95
4 119 120 121 122
4 123 124 125 126
4 127 128 129 130
8 131 132 133 134 135 136 137 138
4 139 140 141 142
8 143 144 145 146 147 148 149 150
4 151 152 153 154
8 155 156 157 158 159 160 161 162
4 163 164 165 166
4 167 168 169 170
8 171 172 173 174 175 176 177 178
4 179 180 181 182
4 183 184 185 186
29 55 187 188 53 52 92 47 189 190 45 44 191 192 46 30 35 193 194 195 196 90 95 118 197 198 117 116 199 94
4 200 201 202 203
4 204 205 206 207
4 208 209 210 211
4 212 213 214 215
4 216 217 218 219
4 220 221 222 223
4 224 225 226 227
4 228 229 230 231
4 232 233 234 235
4 236 237 238 239
6 240 241 242 243 244 245
12 32 31 246 247 29 28 248 249 34 33 250 251
4 252 253 254 255
4 256 257 258 259
4 260 261 262 263
4 264 265 266 267
8 268 269 270 271 272 273 274 275
4 276 277 278 279
4 280 281 282 283
4 284 285 286 287
4 288 289 290 291
4 292 293 294 295
8 296 297 298 299 300 301 302 303
4 304 305 306 307
4 308 309 310 311
4 312 313 314 315
4 316 317 318 319
4 320 321 322 323
4 324 325 326 327
4 328 329 330 331
4 332 333 334 335
4 336 337 338 339
4 340 341 342 343
4 344 345 346 347
4 348 349 350 351
4 352 353 354 355
4 356 357 358 359
4 360 361 362 363
4 364 365 366 367
4 368 369 370 371
4 372 373 374 375
4 376 377 378 379
4 380 381 382 383
4 384 385 386 387
4 388 389 390 391
4 392 393 394 395
4 396 397 398 399
4 400 401 402 403
4 404 405 406 407
4 408 409 410 411
4 412 413 414 415
4 416 417 418 419
4 420 421 422 423
4 424 425 426 427
4 428 429 430 431
4 432 433 434 435
4 436 437 438 439
4 440 441 442 443
4 444 445 446 447
4 448 449 450 451
