ply
format ascii 1.0
comment Created by Blender 2.82 (sub 7) - www.blender.org, source file: ''
element vertex 400
property float x
property float y
property float z
element face 104
property list uchar uint vertex_indices
end_header
-13.500000 22.500000 10.950000
-13.500000 22.500000 14.250000
-13.500000 -22.500000 14.250000
-13.500000 -22.500000 10.950000
0.000000 -48.000000 15.250000
0.000000 -48.000000 14.250000
-19.861830 -48.000000 14.250000
-19.861830 -48.000000 15.250000
-19.861830 -48.000000 14.250000
-21.014709 -46.945499 14.250000
-24.000000 0.000000 14.250000
0.000000 0.000000 14.250000
0.000000 -48.000000 14.250000
13.500000 22.500000 10.950000
15.000000 22.500000 10.950000
15.000000 -22.500000 10.950000
13.500000 -22.500000 10.950000
-19.861830 48.000000 15.250000
0.000000 48.000000 15.250000
0.000000 47.000000 15.750000
-19.473471 47.000000 15.750000
-20.053221 46.469700 15.750000
-21.014709 46.945499 15.250000
-15.000000 22.500000 14.250000
-15.000000 22.500000 10.950000
-15.000000 -22.500000 10.950000
-15.000000 -22.500000 14.250000
0.000000 47.000000 15.750000
0.000000 0.000000 15.750000
23.000000 0.000000 15.750000
20.053200 46.469700 15.750000
19.473499 47.000000 15.750000
19.861799 -48.000000 15.250000
19.861799 -48.000000 14.250000
0.000000 -48.000000 14.250000
0.000000 -48.000000 15.250000
-21.014709 -46.945499 14.250000
-19.861830 -48.000000 14.250000
0.000000 -48.000000 14.250000
0.000000 0.000000 14.250000
-24.000000 0.000000 14.250000
-15.000000 -24.000000 -15.750000
-15.000000 -24.000000 14.250000
15.000000 -24.000000 14.250000
15.000000 -24.000000 -15.750000
-15.000000 -22.500000 14.250000
15.000000 -22.500000 14.250000
15.000000 -24.000000 14.250000
-15.000000 -24.000000 14.250000
-13.500000 -22.500000 10.950000
-13.500000 -22.500000 14.250000
-13.500000 22.500000 14.250000
-13.500000 22.500000 10.950000
-24.000000 0.000000 14.250000
-21.014709 46.945499 14.250000
-21.014709 46.945499 15.250000
-24.000000 0.000000 15.250000
-19.861830 -48.000000 15.250000
-19.861830 -48.000000 14.250000
0.000000 -48.000000 14.250000
0.000000 -48.000000 15.250000
20.053200 46.469700 15.750000
23.000000 0.000000 15.750000
0.000000 0.000000 15.750000
0.000000 47.000000 15.750000
19.473499 47.000000 15.750000
15.000000 24.000000 14.250000
15.000000 22.500000 14.250000
15.000000 22.500000 -15.750000
15.000000 24.000000 -15.750000
15.000000 -24.000000 -15.750000
15.000000 -24.000000 14.250000
-15.000000 -24.000000 14.250000
-15.000000 -24.000000 -15.750000
19.861799 -48.000000 15.250000
0.000000 -48.000000 15.250000
0.000000 -47.000000 15.750000
19.473499 -47.000000 15.750000
20.053200 -46.469700 15.750000
21.014700 -46.945499 15.250000
-13.500000 -22.500000 14.250000
-15.000000 -22.500000 14.250000
-15.000000 -22.500000 10.950000
-13.500000 -22.500000 10.950000
24.000000 0.000000 15.250000
21.014700 -46.945499 15.250000
21.014700 -46.945499 14.250000
24.000000 0.000000 14.250000
0.000000 -48.000000 14.250000
19.861799 -48.000000 14.250000
21.014700 -46.945499 14.250000
24.000000 0.000000 14.250000
0.000000 0.000000 14.250000
-23.000000 0.000000 15.750000
-24.000000 0.000000 15.250000
21.014700 46.945499 14.250000
19.861799 48.000000 14.250000
0.000000 48.000000 14.250000
0.000000 0.000000 14.250000
24.000000 0.000000 14.250000
-15.000000 -22.500000 14.250000
-15.000000 22.500000 14.250000
-13.500000 22.500000 14.250000
-13.500000 -22.500000 14.250000
-15.000000 -22.500000 14.250000
-15.000000 -22.500000 10.950000
-15.000000 22.500000 10.950000
-15.000000 22.500000 14.250000
-23.000000 0.000000 15.750000
-20.053221 -46.469700 15.750000
-19.473471 -47.000000 15.750000
0.000000 -47.000000 15.750000
0.000000 0.000000 15.750000
-20.053221 -46.469700 15.750000
-23.000000 0.000000 15.750000
-24.000000 0.000000 15.250000
-21.014709 -46.945499 15.250000
-24.000000 0.000000 15.250000
-21.014709 46.945499 15.250000
-21.014709 46.945499 14.250000
-24.000000 0.000000 14.250000
19.473499 -47.000000 15.750000
0.000000 -47.000000 15.750000
0.000000 -48.000000 15.250000
19.861799 -48.000000 15.250000
21.014700 -46.945499 15.250000
20.053200 -46.469700 15.750000
15.000000 22.500000 -15.750000
15.000000 22.500000 14.250000
-15.000000 22.500000 14.250000
-15.000000 22.500000 -15.750000
-20.053221 -46.469700 15.750000
-23.000000 0.000000 15.750000
0.000000 0.000000 15.750000
0.000000 -47.000000 15.750000
-19.473471 -47.000000 15.750000
15.000000 24.000000 -15.750000
15.000000 22.500000 -15.750000
-15.000000 22.500000 -15.750000
-15.000000 24.000000 -15.750000
-19.861830 48.000000 15.250000
-19.861830 48.000000 14.250000
-15.000000 22.500000 -15.750000
-15.000000 24.000000 -15.750000
-15.000000 24.000000 14.250000
-15.000000 22.500000 14.250000
-15.000000 24.000000 -15.750000
-15.000000 22.500000 -15.750000
15.000000 22.500000 -15.750000
15.000000 24.000000 -15.750000
19.861799 48.000000 15.250000
19.861799 48.000000 14.250000
21.014700 46.945499 14.250000
21.014700 46.945499 15.250000
-24.000000 0.000000 14.250000
-21.014709 -46.945499 14.250000
-21.014709 -46.945499 15.250000
-24.000000 0.000000 15.250000
15.000000 -22.500000 -15.750000
15.000000 -24.000000 -15.750000
-15.000000 -24.000000 -15.750000
-15.000000 -22.500000 -15.750000
-21.014709 46.945499 14.250000
-19.861830 48.000000 14.250000
0.000000 48.000000 14.250000
0.000000 0.000000 14.250000
-24.000000 0.000000 14.250000
20.053200 -46.469700 15.750000
23.000000 0.000000 15.750000
0.000000 0.000000 15.750000
0.000000 -47.000000 15.750000
19.473499 -47.000000 15.750000
15.000000 -22.500000 14.250000
15.000000 -24.000000 14.250000
15.000000 -24.000000 -15.750000
15.000000 -22.500000 -15.750000
15.000000 24.000000 -15.750000
15.000000 22.500000 -15.750000
15.000000 22.500000 14.250000
15.000000 24.000000 14.250000
-15.000000 -22.500000 14.250000
-15.000000 -22.500000 -15.750000
15.000000 -22.500000 -15.750000
15.000000 -22.500000 14.250000
0.000000 48.000000 15.250000
0.000000 48.000000 14.250000
-20.053221 46.469700 15.750000
-23.000000 0.000000 15.750000
0.000000 0.000000 15.750000
0.000000 47.000000 15.750000
-19.473471 47.000000 15.750000
23.000000 0.000000 15.750000
24.000000 0.000000 15.250000
24.000000 0.000000 14.250000
21.014700 -46.945499 14.250000
21.014700 -46.945499 15.250000
24.000000 0.000000 15.250000
-15.000000 -22.500000 10.950000
-13.500000 -22.500000 10.950000
-13.500000 22.500000 10.950000
-15.000000 22.500000 10.950000
-19.861830 48.000000 14.250000
-19.861830 48.000000 15.250000
0.000000 -47.000000 15.750000
0.000000 0.000000 15.750000
23.000000 0.000000 15.750000
20.053200 -46.469700 15.750000
19.473499 -47.000000 15.750000
13.500000 22.500000 14.250000
13.500000 22.500000 10.950000
13.500000 -22.500000 10.950000
13.500000 -22.500000 14.250000
19.861799 48.000000 14.250000
21.014700 46.945499 14.250000
24.000000 0.000000 14.250000
0.000000 0.000000 14.250000
0.000000 48.000000 14.250000
-19.861830 -48.000000 15.250000
0.000000 -48.000000 15.250000
0.000000 -47.000000 15.750000
-19.473471 -47.000000 15.750000
-19.473471 -47.000000 15.750000
0.000000 -47.000000 15.750000
0.000000 -48.000000 15.250000
-19.861830 -48.000000 15.250000
-21.014709 -46.945499 15.250000
-20.053221 -46.469700 15.750000
-21.014709 -46.945499 14.250000
-21.014709 -46.945499 15.250000
-24.000000 0.000000 15.250000
-24.000000 0.000000 14.250000
-19.861830 48.000000 14.250000
-21.014709 46.945499 14.250000
-24.000000 0.000000 14.250000
0.000000 0.000000 14.250000
0.000000 48.000000 14.250000
-24.000000 0.000000 15.250000
-23.000000 0.000000 15.750000
24.000000 0.000000 15.250000
23.000000 0.000000 15.750000
21.014700 46.945499 15.250000
20.053200 46.469700 15.750000
19.473499 47.000000 15.750000
0.000000 47.000000 15.750000
0.000000 48.000000 15.250000
19.861799 48.000000 15.250000
-19.473471 47.000000 15.750000
0.000000 47.000000 15.750000
0.000000 48.000000 15.250000
-19.861830 48.000000 15.250000
-21.014709 46.945499 15.250000
-20.053221 46.469700 15.750000
19.861799 48.000000 15.250000
19.861799 48.000000 14.250000
0.000000 48.000000 14.250000
0.000000 48.000000 15.250000
24.000000 0.000000 15.250000
24.000000 0.000000 14.250000
-23.000000 0.000000 15.750000
-20.053221 46.469700 15.750000
-19.473471 47.000000 15.750000
0.000000 47.000000 15.750000
0.000000 0.000000 15.750000
-13.500000 -22.500000 14.250000
-13.500000 22.500000 14.250000
-15.000000 22.500000 14.250000
-15.000000 -22.500000 14.250000
15.000000 24.000000 14.250000
15.000000 24.000000 -15.750000
-15.000000 24.000000 -15.750000
-15.000000 24.000000 14.250000
21.014700 -46.945499 14.250000
19.861799 -48.000000 14.250000
0.000000 -48.000000 14.250000
0.000000 0.000000 14.250000
24.000000 0.000000 14.250000
19.861799 -48.000000 15.250000
19.861799 -48.000000 14.250000
-15.000000 22.500000 14.250000
-15.000000 24.000000 14.250000
-15.000000 24.000000 -15.750000
-15.000000 22.500000 -15.750000
-15.000000 22.500000 14.250000
15.000000 22.500000 14.250000
15.000000 24.000000 14.250000
-15.000000 24.000000 14.250000
15.000000 -22.500000 14.250000
15.000000 -22.500000 -15.750000
-15.000000 -22.500000 -15.750000
-15.000000 -22.500000 14.250000
0.000000 -48.000000 15.250000
0.000000 -48.000000 14.250000
-15.000000 24.000000 14.250000
15.000000 24.000000 14.250000
15.000000 22.500000 14.250000
-15.000000 22.500000 14.250000
-15.000000 22.500000 -15.750000
-15.000000 22.500000 14.250000
15.000000 22.500000 14.250000
15.000000 22.500000 -15.750000
0.000000 48.000000 15.250000
0.000000 48.000000 14.250000
-24.000000 0.000000 15.250000
-23.000000 0.000000 15.750000
-15.000000 -24.000000 14.250000
-15.000000 -22.500000 14.250000
-15.000000 -22.500000 -15.750000
-15.000000 -24.000000 -15.750000
-15.000000 -24.000000 14.250000
15.000000 -24.000000 14.250000
15.000000 -22.500000 14.250000
-15.000000 -22.500000 14.250000
-15.000000 24.000000 14.250000
-15.000000 24.000000 -15.750000
15.000000 24.000000 -15.750000
15.000000 24.000000 14.250000
21.014700 46.945499 15.250000
21.014700 46.945499 14.250000
19.473499 47.000000 15.750000
20.053200 46.469700 15.750000
21.014700 46.945499 15.250000
19.861799 48.000000 15.250000
0.000000 48.000000 15.250000
0.000000 47.000000 15.750000
-15.000000 22.500000 10.950000
-13.500000 22.500000 10.950000
-13.500000 -22.500000 10.950000
-15.000000 -22.500000 10.950000
15.000000 -22.500000 -15.750000
15.000000 -24.000000 -15.750000
15.000000 -24.000000 14.250000
15.000000 -22.500000 14.250000
-15.000000 -22.500000 -15.750000
-15.000000 -24.000000 -15.750000
15.000000 -24.000000 -15.750000
15.000000 -22.500000 -15.750000
-15.000000 -24.000000 -15.750000
-15.000000 -22.500000 -15.750000
-15.000000 -22.500000 14.250000
-15.000000 -24.000000 14.250000
-15.000000 22.500000 14.250000
-13.500000 22.500000 14.250000
-13.500000 22.500000 10.950000
-15.000000 22.500000 10.950000
-13.500000 -22.500000 10.950000
-15.000000 -22.500000 10.950000
-15.000000 -22.500000 14.250000
-13.500000 -22.500000 14.250000
13.500000 -22.500000 14.250000
13.500000 22.500000 14.250000
15.000000 22.500000 14.250000
15.000000 -22.500000 14.250000
-15.000000 22.500000 10.950000
-13.500000 22.500000 10.950000
-13.500000 22.500000 14.250000
-15.000000 22.500000 14.250000
15.000000 -22.500000 10.950000
15.000000 -22.500000 14.250000
15.000000 22.500000 14.250000
15.000000 22.500000 10.950000
15.000000 -22.500000 14.250000
13.500000 -22.500000 14.250000
13.500000 -22.500000 10.950000
15.000000 -22.500000 10.950000
24.000000 0.000000 15.250000
23.000000 0.000000 15.750000
13.500000 22.500000 14.250000
15.000000 22.500000 14.250000
15.000000 22.500000 10.950000
13.500000 22.500000 10.950000
13.500000 -22.500000 14.250000
13.500000 -22.500000 10.950000
13.500000 22.500000 10.950000
13.500000 22.500000 14.250000
15.000000 -22.500000 10.950000
13.500000 -22.500000 10.950000
13.500000 -22.500000 14.250000
15.000000 -22.500000 14.250000
15.000000 -22.500000 14.250000
15.000000 22.500000 14.250000
13.500000 22.500000 14.250000
13.500000 -22.500000 14.250000
15.000000 22.500000 10.950000
15.000000 22.500000 14.250000
15.000000 -22.500000 14.250000
15.000000 -22.500000 10.950000
13.500000 22.500000 10.950000
15.000000 22.500000 10.950000
15.000000 22.500000 14.250000
13.500000 22.500000 14.250000
0.000000 48.000000 14.250000
0.000000 48.000000 15.250000
23.000000 0.000000 15.750000
24.000000 0.000000 15.250000
13.500000 -22.500000 10.950000
15.000000 -22.500000 10.950000
15.000000 22.500000 10.950000
13.500000 22.500000 10.950000
24.000000 0.000000 14.250000
24.000000 0.000000 15.250000
4 0 1 2 3
4 4 5 6 7
5 8 9 10 11 12
4 13 14 15 16
6 17 18 19 20 21 22
4 23 24 25 26
5 27 28 29 30 31
4 32 33 34 35
5 36 37 38 39 40
4 41 42 43 44
4 45 46 47 48
4 49 50 51 52
4 53 54 55 56
4 57 58 59 60
5 61 62 63 64 65
4 66 67 68 69
4 70 71 72 73
6 74 75 76 77 78 79
4 80 81 82 83
4 84 85 86 87
5 88 89 90 91 92
4 21 93 94 22
5 95 96 97 98 99
4 100 101 102 103
4 104 105 106 107
5 108 109 110 111 112
4 113 114 115 116
4 117 118 119 120
6 121 122 123 124 125 126
4 127 128 129 130
5 131 132 133 134 135
4 136 137 138 139
4 140 141 119 118
4 142 143 144 145
4 146 147 148 149
4 150 151 152 153
4 154 155 156 157
4 158 159 160 161
5 162 163 164 165 166
5 167 168 169 170 171
4 172 173 174 175
4 176 177 178 179
4 180 181 182 183
4 184 185 151 150
5 186 187 188 189 190
4 78 191 192 79
4 193 194 195 196
4 197 198 199 200
4 55 54 201 202
5 203 204 205 206 207
4 208 209 210 211
5 212 213 214 215 216
6 217 218 219 220 113 116
6 221 222 223 224 225 226
4 7 6 227 228
4 229 228 227 230
5 231 232 233 234 235
4 236 237 226 225
4 238 239 126 125
6 240 241 242 243 244 245
6 246 247 248 249 250 251
4 252 253 254 255
4 256 153 152 257
5 258 259 260 261 262
4 263 264 265 266
4 267 268 269 270
5 271 272 273 274 275
4 276 277 86 85
4 278 279 280 281
4 282 283 284 285
4 286 287 288 289
4 290 291 277 276
4 292 293 294 295
4 296 297 298 299
4 300 301 141 140
4 302 303 251 250
4 304 305 306 307
4 308 309 310 311
4 312 313 314 315
4 316 317 253 252
6 318 319 320 321 322 323
4 195 194 33 32
4 324 325 326 327
4 328 329 330 331
4 332 333 334 335
4 336 337 338 339
4 340 341 342 343
4 344 345 346 347
4 348 349 350 351
4 352 353 354 355
4 356 357 358 359
4 360 361 362 363
4 156 155 58 57
4 364 365 241 240
4 366 367 368 369
4 370 371 372 373
4 374 375 376 377
4 378 379 380 381
4 382 383 384 385
4 386 387 388 389
4 202 201 390 391
4 319 392 393 320
4 394 395 396 397
4 398 317 316 399
