ply
format ascii 1.0
comment Created by Blender 2.82 (sub 7) - www.blender.org, source file: ''
element vertex 320
property float x
property float y
property float z
element face 84
property list uchar uint vertex_indices
end_header
11.226380 -22.068150 11.410850
11.226380 -22.068150 13.885850
11.226380 0.495450 13.885850
11.226380 0.495450 11.410850
9.800580 19.559050 -14.566950
9.800580 22.059050 -14.566950
-11.199460 22.059050 11.410850
-11.199460 19.559050 11.410850
-11.199460 -20.568150 11.410850
-11.199460 -23.068150 11.410850
9.800580 -23.068150 -14.566950
9.800580 -20.568150 -14.566950
12.300580 22.059050 -14.566950
9.800580 22.059050 -14.566950
9.800580 19.559050 -14.566950
12.300580 19.559050 -14.566950
13.976380 27.559050 14.566950
13.976380 -27.559050 14.566950
13.976380 -27.559050 14.173250
13.976380 27.559050 14.173250
-13.976380 27.559050 14.173250
-13.976380 27.559050 14.566950
11.226380 -19.568150 11.410850
8.726380 -19.568150 11.410850
-12.273620 -19.568150 -14.566950
-9.773620 -19.568150 -14.566950
-12.273620 23.059050 -14.566950
-9.773620 23.059050 -14.566950
-9.773620 20.559050 -14.566950
-12.273620 20.559050 -14.566950
-11.199460 -20.568150 11.410850
-8.699460 -20.568150 11.410850
12.300580 -20.568150 -14.566950
9.800580 -20.568150 -14.566950
-11.199460 -0.504550 11.410850
-11.199460 -23.068150 11.410850
-11.199460 -23.068150 13.885850
-11.199460 -0.504550 13.885850
-9.773620 20.559050 -14.566950
-9.773620 23.059050 -14.566950
11.226380 23.059050 11.410850
11.226380 20.559050 11.410850
-8.699460 22.059050 11.410850
12.300580 22.059050 -14.566950
9.800580 22.059050 -14.566950
-11.199460 22.059050 11.410850
-11.199460 22.059050 13.885850
-8.699460 22.059050 13.885850
-13.976380 -27.559050 14.566950
-13.976380 -27.559050 14.173250
-8.699460 -20.568150 11.410850
-11.199460 -20.568150 11.410850
-11.199460 -0.504550 11.410850
-8.699460 -0.504550 11.410850
-13.976380 -27.559050 14.173250
-13.976380 -27.559050 14.566950
13.976380 -27.559050 14.566950
13.976380 -27.559050 14.173250
11.226380 0.495450 13.885850
11.226380 -22.068150 13.885850
11.226380 -22.068150 11.410850
11.226380 0.495450 11.410850
-11.199460 -0.504550 13.885850
-11.199460 22.059050 13.885850
-11.199460 22.059050 11.410850
-11.199460 -0.504550 11.410850
-12.273620 -19.568150 -14.566950
-9.773620 -19.568150 -14.566950
-9.773620 -22.068150 -14.566950
-12.273620 -22.068150 -14.566950
12.300580 -23.068150 -14.566950
9.800580 -23.068150 -14.566950
9.800580 -20.568150 -14.566950
12.300580 -20.568150 -14.566950
-13.976380 27.559050 14.173250
-13.976380 27.559050 14.566950
-11.199460 -0.504550 13.885850
-8.699460 -0.504550 13.885850
-8.699460 -23.068150 13.885850
-11.199460 -23.068150 13.885850
-8.699460 -23.068150 11.410850
-8.699460 -20.568150 11.410850
12.300580 -20.568150 -14.566950
12.300580 -23.068150 -14.566950
-11.199460 22.059050 11.410850
9.800580 22.059050 -14.566950
12.300580 22.059050 -14.566950
-8.699460 22.059050 11.410850
-8.699460 22.059050 13.885850
-11.199460 22.059050 13.885850
-12.273620 -22.068150 -14.566950
-12.273620 -19.568150 -14.566950
8.726380 -19.568150 11.410850
8.726380 -22.068150 11.410850
-11.199460 -0.504550 13.885850
-8.699460 -0.504550 13.885850
-8.699460 22.059050 13.885850
-11.199460 22.059050 13.885850
8.726380 0.495450 11.410850
11.226380 0.495450 11.410850
11.226380 -19.568150 11.410850
8.726380 -19.568150 11.410850
12.300580 22.059050 -14.566950
12.300580 19.559050 -14.566950
-8.699460 19.559050 11.410850
-8.699460 22.059050 11.410850
11.226380 23.059050 13.885850
8.726380 23.059050 13.885850
8.726380 0.495450 13.885850
11.226380 0.495450 13.885850
13.976380 27.559050 14.173250
9.800580 19.559050 -14.566950
12.300580 19.559050 -14.566950
-8.699460 19.559050 11.410850
-11.199460 19.559050 11.410850
-11.199460 -23.068150 11.410850
9.800580 -23.068150 -14.566950
12.300580 -23.068150 -14.566950
-8.699460 -23.068150 11.410850
-8.699460 -23.068150 13.885850
-11.199460 -23.068150 13.885850
8.726380 23.059050 11.410850
8.726380 20.559050 11.410850
-12.273620 20.559050 -14.566950
-12.273620 23.059050 -14.566950
-11.199460 19.559050 11.410850
-11.199460 22.059050 11.410850
9.800580 22.059050 -14.566950
9.800580 19.559050 -14.566950
11.226380 0.495450 13.885850
8.726380 0.495450 13.885850
8.726380 -22.068150 13.885850
11.226380 -22.068150 13.885850
13.976380 27.559050 14.566950
-11.199460 22.059050 11.410850
-11.199460 22.059050 13.885850
-11.199460 -0.504550 13.885850
-11.199460 -0.504550 11.410850
-8.699460 19.559050 11.410850
-11.199460 19.559050 11.410850
-11.199460 -0.504550 11.410850
-8.699460 -0.504550 11.410850
8.726380 0.495450 11.410850
8.726380 0.495450 13.885850
8.726380 -22.068150 13.885850
8.726380 -22.068150 11.410850
-8.699460 -0.504550 11.410850
-11.199460 -0.504550 11.410850
-11.199460 19.559050 11.410850
-8.699460 19.559050 11.410850
-8.699460 22.059050 13.885850
-8.699460 -0.504550 13.885850
-8.699460 -0.504550 11.410850
-8.699460 22.059050 11.410850
-8.699460 -23.068150 11.410850
12.300580 -23.068150 -14.566950
9.800580 -23.068150 -14.566950
-11.199460 -23.068150 11.410850
-11.199460 -23.068150 13.885850
-8.699460 -23.068150 13.885850
-11.199460 22.059050 13.885850
-8.699460 22.059050 13.885850
-8.699460 -0.504550 13.885850
-11.199460 -0.504550 13.885850
8.726380 -19.568150 11.410850
11.226380 -19.568150 11.410850
11.226380 0.495450 11.410850
8.726380 0.495450 11.410850
11.226380 23.059050 11.410850
11.226380 23.059050 13.885850
11.226380 0.495450 13.885850
11.226380 0.495450 11.410850
8.726380 20.559050 11.410850
11.226380 20.559050 11.410850
11.226380 0.495450 11.410850
8.726380 0.495450 11.410850
8.726380 0.495450 11.410850
11.226380 0.495450 11.410850
11.226380 20.559050 11.410850
8.726380 20.559050 11.410850
-11.199460 19.559050 11.410850
-8.699460 19.559050 11.410850
12.300580 19.559050 -14.566950
9.800580 19.559050 -14.566950
11.226380 23.059050 11.410850
-9.773620 23.059050 -14.566950
-12.273620 23.059050 -14.566950
8.726380 23.059050 11.410850
8.726380 23.059050 13.885850
11.226380 23.059050 13.885850
11.226380 -19.568150 11.410850
11.226380 -22.068150 11.410850
-9.773620 -22.068150 -14.566950
-9.773620 -19.568150 -14.566950
-12.273620 23.059050 -14.566950
-12.273620 20.559050 -14.566950
8.726380 20.559050 11.410850
8.726380 23.059050 11.410850
12.300580 -20.568150 -14.566950
9.800580 -20.568150 -14.566950
9.800580 -23.068150 -14.566950
12.300580 -23.068150 -14.566950
11.226380 23.059050 11.410850
11.226380 0.495450 11.410850
11.226380 0.495450 13.885850
11.226380 23.059050 13.885850
-8.699460 -0.504550 11.410850
-8.699460 -0.504550 13.885850
-8.699460 -23.068150 13.885850
-8.699460 -23.068150 11.410850
8.726380 23.059050 13.885850
8.726380 0.495450 13.885850
8.726380 0.495450 11.410850
8.726380 23.059050 11.410850
8.726380 0.495450 11.410850
8.726380 0.495450 13.885850
8.726380 23.059050 13.885850
8.726380 23.059050 11.410850
12.300580 19.559050 -14.566950
9.800580 19.559050 -14.566950
9.800580 22.059050 -14.566950
12.300580 22.059050 -14.566950
9.800580 -20.568150 -14.566950
9.800580 -23.068150 -14.566950
-11.199460 -23.068150 11.410850
-11.199460 -20.568150 11.410850
11.226380 20.559050 11.410850
11.226380 23.059050 11.410850
-9.773620 23.059050 -14.566950
-9.773620 20.559050 -14.566950
8.726380 23.059050 11.410850
-12.273620 23.059050 -14.566950
-9.773620 23.059050 -14.566950
11.226380 23.059050 11.410850
11.226380 23.059050 13.885850
8.726380 23.059050 13.885850
-8.699460 22.059050 11.410850
-8.699460 19.559050 11.410850
12.300580 19.559050 -14.566950
12.300580 22.059050 -14.566950
8.726380 -22.068150 13.885850
8.726380 0.495450 13.885850
8.726380 0.495450 11.410850
8.726380 -22.068150 11.410850
-11.199460 -23.068150 13.885850
-8.699460 -23.068150 13.885850
-8.699460 -0.504550 13.885850
-11.199460 -0.504550 13.885850
-12.273620 20.559050 -14.566950
-9.773620 20.559050 -14.566950
-9.773620 23.059050 -14.566950
-12.273620 23.059050 -14.566950
-9.773620 20.559050 -14.566950
-12.273620 20.559050 -14.566950
8.726380 20.559050 11.410850
11.226380 20.559050 11.410850
11.226380 0.495450 13.885850
8.726380 0.495450 13.885850
8.726380 23.059050 13.885850
11.226380 23.059050 13.885850
11.226380 20.559050 11.410850
8.726380 20.559050 11.410850
-12.273620 20.559050 -14.566950
-9.773620 20.559050 -14.566950
8.726380 -22.068150 11.410850
-12.273620 -22.068150 -14.566950
-9.773620 -22.068150 -14.566950
11.226380 -22.068150 11.410850
11.226380 -22.068150 13.885850
8.726380 -22.068150 13.885850
12.300580 -23.068150 -14.566950
12.300580 -20.568150 -14.566950
-8.699460 -20.568150 11.410850
-8.699460 -23.068150 11.410850
8.726380 -22.068150 11.410850
8.726380 -19.568150 11.410850
-12.273620 -19.568150 -14.566950
-12.273620 -22.068150 -14.566950
-8.699460 -0.504550 11.410850
-11.199460 -0.504550 11.410850
-11.199460 -20.568150 11.410850
-8.699460 -20.568150 11.410850
-8.699460 -23.068150 13.885850
-8.699460 -0.504550 13.885850
-8.699460 -0.504550 11.410850
-8.699460 -23.068150 11.410850
-11.199460 -0.504550 13.885850
-11.199460 -23.068150 13.885850
-11.199460 -23.068150 11.410850
-11.199460 -0.504550 11.410850
-9.773620 -19.568150 -14.566950
-12.273620 -19.568150 -14.566950
8.726380 -19.568150 11.410850
11.226380 -19.568150 11.410850
-8.699460 -0.504550 11.410850
-8.699460 -0.504550 13.885850
-8.699460 22.059050 13.885850
-8.699460 22.059050 11.410850
9.800580 -20.568150 -14.566950
12.300580 -20.568150 -14.566950
-8.699460 -20.568150 11.410850
-11.199460 -20.568150 11.410850
11.226380 -22.068150 13.885850
8.726380 -22.068150 13.885850
8.726380 0.495450 13.885850
11.226380 0.495450 13.885850
11.226380 -22.068150 11.410850
-9.773620 -22.068150 -14.566950
-12.273620 -22.068150 -14.566950
8.726380 -22.068150 11.410850
8.726380 -22.068150 13.885850
11.226380 -22.068150 13.885850
-9.773620 -19.568150 -14.566950
-9.773620 -22.068150 -14.566950
11.226380 -22.068150 11.410850
11.226380 -19.568150 11.410850
-12.273620 -22.068150 -14.566950
-9.773620 -22.068150 -14.566950
-9.773620 -19.568150 -14.566950
-12.273620 -19.568150 -14.566950
4 0 1 2 3
4 4 5 6 7
4 8 9 10 11
4 12 13 14 15
4 16 17 18 19
4 16 19 20 21
4 22 23 24 25
4 26 27 28 29
4 30 31 32 33
4 34 35 36 37
4 38 39 40 41
6 42 43 44 45 46 47
4 48 21 20 49
4 50 51 52 53
4 54 55 56 57
4 58 59 60 61
4 62 63 64 65
4 18 17 48 49
4 66 67 68 69
4 70 71 72 73
4 54 74 75 55
4 76 77 78 79
4 80 81 82 83
6 84 85 86 87 88 89
4 90 91 92 93
4 94 95 96 97
4 98 99 100 101
4 102 103 104 105
4 106 107 108 109
4 110 74 54 57
4 18 49 20 19
4 111 112 113 114
6 115 116 117 118 119 120
4 121 122 123 124
4 125 126 127 128
4 129 130 131 132
4 75 133 56 55
4 134 135 136 137
4 138 139 140 141
4 142 143 144 145
4 48 17 16 21
4 146 147 148 149
4 150 151 152 153
6 154 155 156 157 158 159
4 160 161 162 163
4 164 165 166 167
4 168 169 170 171
4 172 173 174 175
4 176 177 178 179
4 180 181 182 183
4 110 57 56 133
6 184 185 186 187 188 189
4 190 191 192 193
4 194 195 196 197
4 198 199 200 201
4 202 203 204 205
4 206 207 208 209
4 210 211 212 213
4 214 215 216 217
4 218 219 220 221
4 222 223 224 225
4 226 227 228 229
6 230 231 232 233 234 235
4 236 237 238 239
4 240 241 242 243
4 244 245 246 247
4 248 249 250 251
4 252 253 254 255
4 256 257 258 259
4 260 261 262 263
6 264 265 266 267 268 269
4 270 271 272 273
4 274 275 276 277
4 278 279 280 281
4 282 283 284 285
4 75 74 110 133
4 286 287 288 289
4 290 291 292 293
4 294 295 296 297
4 298 299 300 301
4 302 303 304 305
6 306 307 308 309 310 311
4 312 313 314 315
4 316 317 318 319
