ply
format ascii 1.0
comment Created by Blender 2.82 (sub 7) - www.blender.org, source file: ''
element vertex 704
property float x
property float y
property float z
element face 219
property list uchar uint vertex_indices
end_header
-12.827350 33.598583 -14.332050
-12.923743 33.713139 -14.332050
-12.923743 33.713139 -14.017089
-12.827350 33.598583 -14.017089
-12.041770 -33.390900 -14.017089
-12.404687 -33.298302 -14.017089
-2.978870 -31.083300 12.360850
-2.615970 -31.175900 12.360850
2.615930 31.175911 12.360850
2.355830 31.428980 12.360850
11.781630 33.644001 -14.017089
12.041730 33.390930 -14.017089
3.622530 -31.429001 12.360850
3.347330 -31.175900 12.360850
12.773130 -33.390900 -14.017089
13.048330 -33.644001 -14.017089
13.048330 -33.644001 -14.017089
12.773130 -33.390900 -14.017089
3.347330 -31.175900 12.360850
3.622530 -31.429001 12.360850
-12.957000 34.478596 -14.017089
-13.068960 34.335400 -14.017089
-3.643140 32.120380 12.360850
-3.531180 32.263580 12.360850
13.137030 34.168648 -14.017089
3.711230 31.953630 12.360850
3.531230 32.263580 12.360850
12.957030 34.478596 -14.017089
2.978830 31.083281 12.360850
3.347330 31.175911 12.360850
12.773130 33.390930 -14.017089
12.404730 33.298298 -14.017089
12.994730 34.132858 -14.017089
12.940230 34.266262 -14.017089
12.940230 34.266262 -14.332050
12.994730 34.132858 -14.332050
13.126430 33.810753 -14.017089
13.048330 33.644001 -14.017089
3.622530 31.428980 12.360850
3.700530 31.595730 12.360850
11.693930 -33.989700 -14.017089
2.268130 -31.774700 12.360850
2.376430 -32.120399 12.360850
11.802230 -34.335400 -14.017089
-12.255900 34.657543 -14.017089
-12.634475 34.657543 -14.017089
-3.208650 32.442520 12.360850
-2.830070 32.442520 12.360850
12.923730 -33.713200 -14.332050
12.986130 -33.846600 -14.332050
12.986130 -33.846600 -14.017089
12.923730 -33.713200 -14.017089
12.703530 33.510685 -14.017089
12.703530 33.510685 -14.332050
12.560830 33.455425 -14.332050
12.560830 33.455425 -14.017089
2.615930 -31.175900 12.360850
2.355830 -31.429001 12.360850
11.781630 -33.644001 -14.017089
12.041730 -33.390900 -14.017089
-3.382980 -32.373501 12.360850
-12.808806 -34.588501 -14.017089
-13.068959 -34.335400 -14.017089
-3.643140 -32.120399 12.360850
-12.592637 34.523975 -14.332050
-12.592637 34.523975 -14.017089
-12.732102 34.468716 -14.017089
-12.732102 34.468716 -14.332050
12.732130 34.468716 -14.332050
12.732130 34.468716 -14.017089
12.592630 34.523975 -14.017089
12.592630 34.523975 -14.332050
-11.926830 -34.266300 -14.332050
-11.926830 -34.266300 -14.017089
-11.864410 -34.132900 -14.017089
-11.864410 -34.132900 -14.332050
-12.703556 33.510685 -14.017089
-12.703556 33.510685 -14.332050
-12.827350 33.598583 -14.332050
-12.827350 33.598583 -14.017089
-12.703556 -33.510700 -14.332050
-12.923743 -33.713200 -14.332050
-13.010370 -33.989700 -14.332050
-12.940224 -34.266300 -14.332050
-12.732102 -34.468700 -14.332050
-12.441769 -34.542801 -14.332050
-12.147019 -34.468700 -14.332050
-11.926830 -34.266300 -14.332050
-11.840210 -33.989700 -14.332050
-11.910350 -33.713200 -14.332050
-12.118474 -33.510700 -14.332050
-12.408807 -33.436600 -14.332050
-12.408807 33.436581 -14.017089
-12.408807 33.436581 -14.332050
-12.560799 33.455425 -14.332050
-12.560799 33.455425 -14.017089
-12.023226 34.380817 -14.332050
-11.926830 34.266262 -14.332050
-11.926830 34.266262 -14.017089
-12.023226 34.380817 -14.017089
-12.404687 33.298298 -14.017089
-12.773123 33.390930 -14.017089
-3.347300 31.175911 12.360850
-2.978870 31.083281 12.360850
12.077430 -34.588501 -14.017089
12.445930 -34.681099 -14.017089
3.020030 -32.466099 12.360850
2.651630 -32.373501 12.360850
11.864430 -34.132900 -14.332050
11.864430 -34.132900 -14.017089
11.926830 -34.266300 -14.017089
11.926830 -34.266300 -14.332050
3.711230 31.953630 12.360850
13.137030 34.168648 -14.017089
12.957030 34.478596 -14.017089
3.531230 32.263580 12.360850
11.999930 -33.598598 -14.332050
11.999930 -33.598598 -14.017089
11.910330 -33.713200 -14.017089
11.910330 -33.713200 -14.332050
11.855930 33.846542 -14.017089
11.910330 33.713139 -14.017089
11.910330 33.713139 -14.332050
11.855930 33.846542 -14.332050
12.827330 -33.598598 -14.332050
12.923730 -33.713200 -14.332050
12.923730 -33.713200 -14.017089
12.827330 -33.598598 -14.017089
12.289830 -34.523998 -14.332050
12.289830 -34.523998 -14.017089
12.441730 -34.542801 -14.017089
12.441730 -34.542801 -14.332050
5.118130 -33.961601 12.087950
1.040830 -33.961601 11.339950
-1.040870 -33.961601 11.339950
-5.118110 -33.961601 12.087950
-5.118110 33.961575 12.087950
-1.040870 33.961575 11.339950
1.040830 33.961575 11.339950
5.118130 33.961575 12.087950
12.289830 34.523975 -14.332050
12.289830 34.523975 -14.017089
12.147030 34.468716 -14.017089
12.147030 34.468716 -14.332050
-12.560799 33.455425 -14.017089
-12.560799 33.455425 -14.332050
-12.703556 33.510685 -14.332050
-12.703556 33.510685 -14.017089
-3.730820 -31.774700 12.360850
-13.156641 -33.989700 -14.017089
-11.693940 -33.989700 -14.017089
-11.802220 -34.335400 -14.017089
-2.376370 -32.120399 12.360850
-2.268070 -31.774700 12.360850
12.940230 34.266262 -14.017089
12.850630 34.380817 -14.017089
12.850630 34.380817 -14.332050
12.940230 34.266262 -14.332050
12.808830 -34.588501 -14.017089
3.383030 -32.373501 12.360850
-2.830070 -32.442501 12.360850
-12.255900 -34.657600 -14.017089
-12.634475 -34.657600 -14.017089
-3.208650 -32.442501 12.360850
12.441730 34.542820 -14.332050
12.441730 34.542820 -14.017089
12.289830 34.523975 -14.017089
12.289830 34.523975 -14.332050
-11.922710 34.478596 -14.017089
-2.496870 32.263580 12.360850
12.957030 -34.478600 -14.017089
13.137030 -34.168701 -14.017089
3.711230 -31.953600 12.360850
3.531230 -32.263599 12.360850
3.700530 31.595730 12.360850
3.622530 31.428980 12.360850
13.048330 33.644001 -14.017089
13.126430 33.810753 -14.017089
-11.840210 -33.989700 -14.017089
-11.855880 -33.846600 -14.017089
-11.855880 -33.846600 -14.332050
-11.840210 -33.989700 -14.332050
12.023230 -34.380798 -14.332050
12.023230 -34.380798 -14.017089
12.147030 -34.468700 -14.017089
12.147030 -34.468700 -14.332050
-12.257938 -33.455399 -14.017089
-12.257938 -33.455399 -14.332050
-12.118474 -33.510700 -14.332050
-12.118474 -33.510700 -14.017089
-3.531180 32.263580 12.360850
-3.643140 32.120380 12.360850
-13.068960 34.335400 -14.017089
-12.957000 34.478596 -14.017089
-12.940224 -34.266300 -14.017089
-12.850657 -34.380798 -14.017089
-12.850657 -34.380798 -14.332050
-12.940224 -34.266300 -14.332050
-11.910350 -33.713200 -14.332050
-11.910350 -33.713200 -14.017089
-11.999920 -33.598598 -14.017089
-11.999920 -33.598598 -14.332050
-12.560799 -33.455399 -14.017089
-12.560799 -33.455399 -14.332050
-12.408807 -33.436600 -14.332050
-12.408807 -33.436600 -14.017089
-12.773123 -33.390900 -14.017089
-3.347300 -31.175900 12.360850
3.531230 -32.263599 12.360850
3.711230 -31.953600 12.360850
13.137030 -34.168701 -14.017089
12.957030 -34.478600 -14.017089
3.700530 -31.595699 12.360850
13.126430 -33.810799 -14.017089
-3.622530 -31.429001 12.360850
-13.048358 -33.644001 -14.017089
-13.156641 -33.989700 -14.017089
-3.730820 -31.774700 12.360850
11.802230 -34.335400 -14.017089
2.376430 -32.120399 12.360850
2.268130 31.774679 12.360850
11.693930 33.989700 -14.017089
11.802230 34.335400 -14.017089
2.376430 32.120380 12.360850
17.716530 47.512501 14.332050
17.716530 47.512501 13.958050
-17.716530 47.512501 13.958050
-17.716530 47.512501 14.332050
2.615930 -31.175900 12.360850
2.978830 -31.083300 12.360850
12.404730 -33.298302 -14.017089
12.041730 -33.390900 -14.017089
11.864430 34.132858 -14.017089
11.840230 33.989700 -14.017089
11.840230 33.989700 -14.332050
11.864430 34.132858 -14.332050
-2.355770 31.428980 12.360850
-2.268070 31.774679 12.360850
-11.693940 33.989700 -14.017089
-11.781620 33.644001 -14.017089
12.827330 33.598583 -14.017089
12.923730 33.713139 -14.017089
12.923730 33.713139 -14.332050
12.827330 33.598583 -14.332050
-17.716530 -47.512501 14.332050
-17.716530 47.512501 14.332050
-17.716530 47.512501 13.958050
-17.716530 -47.512501 13.958050
12.703530 -33.510700 -14.017089
12.703530 -33.510700 -14.332050
12.827330 -33.598598 -14.332050
12.827330 -33.598598 -14.017089
12.986130 33.846542 -14.017089
13.010330 33.989700 -14.017089
13.010330 33.989700 -14.332050
12.986130 33.846542 -14.332050
-5.118110 -33.961601 12.087950
5.118130 -33.961601 12.087950
5.118130 -33.961601 12.835950
-5.118110 -33.961601 12.835950
11.926830 34.266262 -14.332050
11.926830 34.266262 -14.017089
11.864430 34.132858 -14.017089
11.864430 34.132858 -14.332050
-12.703556 -33.510700 -14.017089
-12.703556 -33.510700 -14.332050
-12.560799 -33.455399 -14.332050
-12.560799 -33.455399 -14.017089
-12.041770 33.390930 -14.017089
-2.615970 31.175911 12.360850
-11.781620 -33.644001 -14.017089
-2.355770 -31.429001 12.360850
-3.730820 31.774679 12.360850
-13.156641 33.989700 -14.017089
-12.986168 33.846542 -14.332050
-13.010370 33.989700 -14.332050
-13.010370 33.989700 -14.017089
-12.986168 33.846542 -14.017089
-12.732102 34.468716 -14.332050
-12.732102 34.468716 -14.017089
-12.850657 34.380817 -14.017089
-12.850657 34.380817 -14.332050
-12.289777 34.523975 -14.332050
-12.289777 34.523975 -14.017089
-12.441769 34.542820 -14.017089
-12.441769 34.542820 -14.332050
-3.347300 -31.175900 12.360850
-3.622530 -31.429001 12.360850
-13.048358 -33.644001 -14.017089
-12.773123 -33.390900 -14.017089
-2.615970 31.175911 12.360850
-2.978870 31.083281 12.360850
-12.404687 33.298298 -14.017089
-12.041770 33.390930 -14.017089
-2.651670 -32.373501 12.360850
-12.077453 -34.588501 -14.017089
-3.347300 31.175911 12.360850
-12.773123 33.390930 -14.017089
-13.048358 33.644001 -14.017089
-3.622530 31.428980 12.360850
-2.376370 32.120380 12.360850
-2.496870 32.263580 12.360850
-11.922710 34.478596 -14.017089
-11.802220 34.335400 -14.017089
12.041730 33.390930 -14.017089
11.781630 33.644001 -14.017089
2.355830 31.428980 12.360850
2.615930 31.175911 12.360850
-12.634475 34.657543 -14.017089
-3.208650 32.442520 12.360850
-17.716530 -47.512501 14.332050
17.716530 -47.512501 14.332050
17.716530 47.512501 14.332050
-17.716530 47.512501 14.332050
-12.118474 -33.510700 -14.017089
-12.118474 -33.510700 -14.332050
-11.999920 -33.598598 -14.332050
-11.999920 -33.598598 -14.017089
-12.923743 33.713139 -14.332050
-12.986168 33.846542 -14.332050
-12.986168 33.846542 -14.017089
-12.923743 33.713139 -14.017089
17.716530 -47.512501 13.958050
-17.716530 -47.512501 13.958050
-13.779523 -43.575500 12.835950
13.779530 -43.575500 12.835950
-3.730820 31.774679 12.360850
-13.156641 33.989700 -14.017089
-12.441769 -34.542801 -14.332050
-12.441769 -34.542801 -14.017089
-12.289777 -34.523998 -14.017089
-12.289777 -34.523998 -14.332050
13.779530 43.575508 12.835950
-13.779523 43.575508 12.835950
-17.716530 47.512501 13.958050
17.716530 47.512501 13.958050
-3.382980 -32.373501 12.360850
-12.808806 -34.588501 -14.017089
-12.634475 -34.657600 -14.017089
-3.208650 -32.442501 12.360850
-12.827350 -33.598598 -14.017089
-12.827350 -33.598598 -14.332050
-12.703556 -33.510700 -14.332050
-12.703556 -33.510700 -14.017089
-12.732102 -34.468700 -14.332050
-12.732102 -34.468700 -14.017089
-12.592637 -34.523998 -14.017089
-12.592637 -34.523998 -14.332050
12.994730 -34.132900 -14.332050
12.940230 -34.266300 -14.332050
12.940230 -34.266300 -14.017089
12.994730 -34.132900 -14.017089
-3.622530 31.428980 12.360850
-13.048358 33.644001 -14.017089
12.147030 34.468716 -14.332050
12.147030 34.468716 -14.017089
12.023230 34.380817 -14.017089
12.023230 34.380817 -14.332050
-12.257938 33.455425 -14.017089
-12.257938 33.455425 -14.332050
-12.408807 33.436581 -14.332050
-12.408807 33.436581 -14.017089
12.940230 -34.266300 -14.332050
12.850630 -34.380798 -14.332050
12.850630 -34.380798 -14.017089
12.940230 -34.266300 -14.017089
12.441730 -34.542801 -14.332050
12.441730 -34.542801 -14.017089
12.592630 -34.523998 -14.017089
12.592630 -34.523998 -14.332050
-11.864410 34.132858 -14.332050
-11.840210 33.989700 -14.332050
-11.840210 33.989700 -14.017089
-11.864410 34.132858 -14.017089
-11.781620 33.644001 -14.017089
-2.355770 31.428980 12.360850
-12.023226 34.380817 -14.332050
-12.023226 34.380817 -14.017089
-12.147019 34.468716 -14.017089
-12.147019 34.468716 -14.332050
12.940230 34.266262 -14.332050
12.732130 34.468716 -14.332050
12.441730 34.542820 -14.332050
12.147030 34.468716 -14.332050
11.926830 34.266262 -14.332050
11.840230 33.989700 -14.332050
11.910330 33.713139 -14.332050
12.118530 33.510685 -14.332050
12.408830 33.436581 -14.332050
12.703530 33.510685 -14.332050
12.923730 33.713139 -14.332050
13.010330 33.989700 -14.332050
11.999930 -33.598598 -14.017089
11.999930 -33.598598 -14.332050
12.118530 -33.510700 -14.332050
12.118530 -33.510700 -14.017089
11.840230 33.989700 -14.017089
11.855930 33.846542 -14.017089
11.855930 33.846542 -14.332050
11.840230 33.989700 -14.332050
12.408830 -33.436600 -14.017089
12.408830 -33.436600 -14.332050
12.560830 -33.455399 -14.332050
12.560830 -33.455399 -14.017089
-11.999920 33.598583 -14.332050
-11.999920 33.598583 -14.017089
-11.910350 33.713139 -14.017089
-11.910350 33.713139 -14.332050
11.781630 -33.644001 -14.017089
11.693930 -33.989700 -14.017089
2.268130 -31.774700 12.360850
2.355830 -31.429001 12.360850
13.010330 33.989700 -14.017089
12.994730 34.132858 -14.017089
12.994730 34.132858 -14.332050
13.010330 33.989700 -14.332050
12.827330 33.598583 -14.017089
12.827330 33.598583 -14.332050
12.703530 33.510685 -14.332050
12.703530 33.510685 -14.017089
-13.010370 33.989700 -14.332050
-12.994699 34.132858 -14.332050
-12.994699 34.132858 -14.017089
-13.010370 33.989700 -14.017089
-12.408807 -33.436600 -14.017089
-12.408807 -33.436600 -14.332050
-12.257938 -33.455399 -14.332050
-12.257938 -33.455399 -14.017089
-11.840210 33.989700 -14.332050
-11.855880 33.846542 -14.332050
-11.855880 33.846542 -14.017089
-11.840210 33.989700 -14.017089
-11.999920 33.598583 -14.017089
-11.999920 33.598583 -14.332050
-12.118474 33.510685 -14.332050
-12.118474 33.510685 -14.017089
-2.615970 -31.175900 12.360850
-2.978870 -31.083300 12.360850
-12.404687 -33.298302 -14.017089
-12.041770 -33.390900 -14.017089
-11.693940 33.989700 -14.017089
-2.268070 31.774679 12.360850
-12.441769 34.542820 -14.332050
-12.441769 34.542820 -14.017089
-12.592637 34.523975 -14.017089
-12.592637 34.523975 -14.332050
-12.940224 34.266262 -14.332050
-12.850657 34.380817 -14.332050
-12.850657 34.380817 -14.017089
-12.940224 34.266262 -14.017089
-13.779523 -43.575500 12.835950
13.779530 -43.575500 12.835950
13.779530 43.575508 12.835950
-13.779523 43.575508 12.835950
13.126430 -33.810799 -14.017089
3.700530 -31.595699 12.360850
-13.068959 -34.335400 -14.017089
-3.643140 -32.120399 12.360850
-12.255900 34.657543 -14.017089
-2.830070 32.442520 12.360850
17.716530 -47.512501 13.958050
13.779530 -43.575500 12.835950
13.779530 43.575508 12.835950
17.716530 47.512501 13.958050
-12.994699 34.132858 -14.332050
-12.940224 34.266262 -14.332050
-12.940224 34.266262 -14.017089
-12.994699 34.132858 -14.017089
-5.118110 -33.961601 12.835950
-5.118110 33.961575 12.835950
-5.118110 33.961575 12.087950
-5.118110 -33.961601 12.087950
12.592630 34.523975 -14.332050
12.592630 34.523975 -14.017089
12.441730 34.542820 -14.017089
12.441730 34.542820 -14.332050
-2.830070 -32.442501 12.360850
-12.255900 -34.657600 -14.017089
-12.077453 -34.588501 -14.017089
-2.651670 -32.373501 12.360850
12.850630 34.380817 -14.332050
12.850630 34.380817 -14.017089
12.732130 34.468716 -14.017089
12.732130 34.468716 -14.332050
-12.147019 34.468716 -14.332050
-12.147019 34.468716 -14.017089
-12.289777 34.523975 -14.017089
-12.289777 34.523975 -14.332050
-2.355770 -31.429001 12.360850
-2.268070 -31.774700 12.360850
-11.693940 -33.989700 -14.017089
-11.781620 -33.644001 -14.017089
-5.118110 33.961575 12.087950
-5.118110 33.961575 12.835950
5.118130 33.961575 12.835950
5.118130 33.961575 12.087950
-2.376370 -32.120399 12.360850
-11.802220 -34.335400 -14.017089
17.716530 -47.512501 13.958050
17.716530 -47.512501 14.332050
-17.716530 -47.512501 14.332050
-17.716530 -47.512501 13.958050
-11.855880 -33.846600 -14.017089
-11.910350 -33.713200 -14.017089
-11.910350 -33.713200 -14.332050
-11.855880 -33.846600 -14.332050
12.923730 33.713139 -14.017089
12.986130 33.846542 -14.017089
12.986130 33.846542 -14.332050
12.923730 33.713139 -14.332050
-11.864410 34.132858 -14.332050
-11.864410 34.132858 -14.017089
-11.926830 34.266262 -14.017089
-11.926830 34.266262 -14.332050
2.268130 31.774679 12.360850
11.693930 33.989700 -14.017089
2.651630 32.373451 12.360850
12.077430 34.588470 -14.017089
12.445930 34.681103 -14.017089
3.020030 32.466080 12.360850
12.404730 -33.298302 -14.017089
2.978830 -31.083300 12.360850
-13.010370 -33.989700 -14.017089
-12.994699 -34.132900 -14.017089
-12.994699 -34.132900 -14.332050
-13.010370 -33.989700 -14.332050
-12.147019 -34.468700 -14.332050
-12.147019 -34.468700 -14.017089
-12.023226 -34.380798 -14.017089
-12.023226 -34.380798 -14.332050
-12.986168 -33.846600 -14.017089
-13.010370 -33.989700 -14.017089
-13.010370 -33.989700 -14.332050
-12.986168 -33.846600 -14.332050
-12.994699 -34.132900 -14.017089
-12.940224 -34.266300 -14.017089
-12.940224 -34.266300 -14.332050
-12.994699 -34.132900 -14.332050
-12.827350 -33.598598 -14.017089
-12.923743 -33.713200 -14.017089
-12.923743 -33.713200 -14.332050
-12.827350 -33.598598 -14.332050
-12.850657 -34.380798 -14.332050
-12.850657 -34.380798 -14.017089
-12.732102 -34.468700 -14.017089
-12.732102 -34.468700 -14.332050
12.404730 33.298298 -14.017089
2.978830 31.083281 12.360850
12.773130 33.390930 -14.017089
3.347330 31.175911 12.360850
12.808830 34.588470 -14.017089
3.383030 32.373451 12.360850
-12.592637 -34.523998 -14.332050
-12.592637 -34.523998 -14.017089
-12.441769 -34.542801 -14.017089
-12.441769 -34.542801 -14.332050
2.376430 32.120380 12.360850
11.802230 34.335400 -14.017089
12.808830 34.588470 -14.017089
3.383030 32.373451 12.360850
-11.802220 34.335400 -14.017089
-2.376370 32.120380 12.360850
2.651630 -32.373501 12.360850
12.077430 -34.588501 -14.017089
-12.289777 -34.523998 -14.332050
-12.289777 -34.523998 -14.017089
-12.147019 -34.468700 -14.017089
-12.147019 -34.468700 -14.332050
17.716530 47.512501 14.332050
17.716530 -47.512501 14.332050
17.716530 -47.512501 13.958050
17.716530 47.512501 13.958050
2.651630 32.373451 12.360850
12.077430 34.588470 -14.017089
3.020030 -32.466099 12.360850
12.445930 -34.681099 -14.017089
3.383030 -32.373501 12.360850
12.808830 -34.588501 -14.017089
-12.923743 -33.713200 -14.017089
-12.986168 -33.846600 -14.017089
-12.986168 -33.846600 -14.332050
-12.923743 -33.713200 -14.332050
-13.779523 43.575508 12.835950
-13.779523 -43.575500 12.835950
-17.716530 -47.512501 13.958050
-17.716530 47.512501 13.958050
-12.118474 33.510685 -14.332050
-11.910350 33.713139 -14.332050
-11.840210 33.989700 -14.332050
-11.926830 34.266262 -14.332050
-12.147019 34.468716 -14.332050
-12.441769 34.542820 -14.332050
-12.732102 34.468716 -14.332050
-12.940224 34.266262 -14.332050
-13.010370 33.989700 -14.332050
-12.923743 33.713139 -14.332050
-12.703556 33.510685 -14.332050
-12.408807 33.436581 -14.332050
12.445930 34.681103 -14.017089
3.020030 32.466080 12.360850
5.118130 33.961575 12.835950
5.118130 -33.961601 12.835950
5.118130 -33.961601 12.087950
5.118130 33.961575 12.087950
-11.855880 33.846542 -14.332050
-11.910350 33.713139 -14.332050
-11.910350 33.713139 -14.017089
-11.855880 33.846542 -14.017089
12.023230 34.380817 -14.017089
11.926830 34.266262 -14.017089
11.926830 34.266262 -14.332050
12.023230 34.380817 -14.332050
11.840230 -33.989700 -14.332050
11.855930 -33.846600 -14.332050
11.855930 -33.846600 -14.017089
11.840230 -33.989700 -14.017089
12.408830 -33.436600 -14.332050
12.118530 -33.510700 -14.332050
11.910330 -33.713200 -14.332050
11.840230 -33.989700 -14.332050
11.926830 -34.266300 -14.332050
12.147030 -34.468700 -14.332050
12.441730 -34.542801 -14.332050
12.732130 -34.468700 -14.332050
12.940230 -34.266300 -14.332050
13.010330 -33.989700 -14.332050
12.923730 -33.713200 -14.332050
12.703530 -33.510700 -14.332050
13.010330 -33.989700 -14.332050
12.994730 -34.132900 -14.332050
12.994730 -34.132900 -14.017089
13.010330 -33.989700 -14.017089
-11.864410 -34.132900 -14.017089
-11.840210 -33.989700 -14.017089
-11.840210 -33.989700 -14.332050
-11.864410 -34.132900 -14.332050
12.408830 33.436581 -14.017089
12.408830 33.436581 -14.332050
12.257930 33.455425 -14.332050
12.257930 33.455425 -14.017089
12.560830 -33.455399 -14.017089
12.560830 -33.455399 -14.332050
12.703530 -33.510700 -14.332050
12.703530 -33.510700 -14.017089
11.855930 -33.846600 -14.332050
11.910330 -33.713200 -14.332050
11.910330 -33.713200 -14.017089
11.855930 -33.846600 -14.017089
12.257930 -33.455399 -14.017089
12.257930 -33.455399 -14.332050
12.408830 -33.436600 -14.332050
12.408830 -33.436600 -14.017089
11.910330 33.713139 -14.332050
11.910330 33.713139 -14.017089
11.999930 33.598583 -14.017089
11.999930 33.598583 -14.332050
12.118530 33.510685 -14.017089
12.118530 33.510685 -14.332050
11.999930 33.598583 -14.332050
11.999930 33.598583 -14.017089
-12.118474 33.510685 -14.017089
-12.118474 33.510685 -14.332050
-12.257938 33.455425 -14.332050
-12.257938 33.455425 -14.017089
12.118530 -33.510700 -14.017089
12.118530 -33.510700 -14.332050
12.257930 -33.455399 -14.332050
12.257930 -33.455399 -14.017089
12.257930 33.455425 -14.017089
12.257930 33.455425 -14.332050
12.118530 33.510685 -14.332050
12.118530 33.510685 -14.017089
12.592630 -34.523998 -14.332050
12.592630 -34.523998 -14.017089
12.732130 -34.468700 -14.017089
12.732130 -34.468700 -14.332050
-12.023226 -34.380798 -14.017089
-11.926830 -34.266300 -14.017089
-11.926830 -34.266300 -14.332050
-12.023226 -34.380798 -14.332050
12.986130 -33.846600 -14.332050
13.010330 -33.989700 -14.332050
13.010330 -33.989700 -14.017089
12.986130 -33.846600 -14.017089
12.147030 -34.468700 -14.332050
12.147030 -34.468700 -14.017089
12.289830 -34.523998 -14.017089
12.289830 -34.523998 -14.332050
12.732130 -34.468700 -14.332050
12.732130 -34.468700 -14.017089
12.850630 -34.380798 -14.017089
12.850630 -34.380798 -14.332050
12.023230 -34.380798 -14.332050
11.926830 -34.266300 -14.332050
11.926830 -34.266300 -14.017089
12.023230 -34.380798 -14.017089
12.560830 33.455425 -14.017089
12.560830 33.455425 -14.332050
12.408830 33.436581 -14.332050
12.408830 33.436581 -14.017089
11.864430 -34.132900 -14.332050
11.840230 -33.989700 -14.332050
11.840230 -33.989700 -14.017089
11.864430 -34.132900 -14.017089
4 0 1 2 3
4 4 5 6 7
4 8 9 10 11
4 12 13 14 15
4 16 17 18 19
4 20 21 22 23
4 24 25 26 27
4 28 29 30 31
4 32 33 34 35
4 36 37 38 39
4 40 41 42 43
4 44 45 46 47
4 48 49 50 51
4 52 53 54 55
4 56 57 58 59
4 60 61 62 63
4 64 65 66 67
4 68 69 70 71
4 72 73 74 75
4 37 30 29 38
4 76 77 78 79
12 80 81 82 83 84 85 86 87 88 89 90 91
4 92 93 94 95
4 96 97 98 99
4 100 101 102 103
4 104 105 106 107
4 108 109 110 111
4 112 113 114 115
4 116 117 118 119
4 120 121 122 123
4 124 125 126 127
4 128 129 130 131
8 132 133 134 135 136 137 138 139
4 140 141 142 143
4 144 145 146 147
4 148 63 62 149
4 150 151 152 153
4 154 155 156 157
4 105 158 159 106
4 160 161 162 163
4 164 165 166 167
4 168 44 47 169
4 170 171 172 173
4 174 175 176 177
4 178 179 180 181
4 182 183 184 185
4 186 187 188 189
4 190 191 192 193
4 194 195 196 197
4 198 199 200 201
4 202 203 204 205
4 5 206 207 6
4 208 209 210 211
4 212 213 210 209
4 214 215 216 217
4 218 104 107 219
4 220 221 222 223
4 224 225 226 227
4 228 229 230 231
4 232 233 234 235
4 236 237 238 239
4 240 241 242 243
4 244 245 246 247
4 248 249 250 251
4 252 253 254 255
4 256 257 258 259
4 260 261 262 263
4 264 265 266 267
4 268 100 103 269
4 270 150 153 271
4 192 191 272 273
4 274 275 276 277
4 278 279 280 281
4 282 283 284 285
4 286 287 288 289
4 290 291 292 293
4 294 295 161 160
4 163 162 61 60
4 291 296 297 292
4 298 297 296 299
4 300 301 302 303
4 304 305 306 307
4 190 193 308 309
4 310 311 312 313
4 314 315 316 317
4 318 319 320 321
4 322 323 324 325
4 326 22 21 327
4 45 20 23 46
4 328 329 330 331
4 332 333 334 335
4 336 337 338 339
4 238 237 300 303
4 340 341 342 343
4 344 345 346 347
4 57 41 40 58
4 348 349 350 351
4 352 353 273 272
4 159 158 170 173
4 352 102 101 353
4 354 355 356 357
4 358 359 360 361
4 362 363 364 365
4 366 367 368 369
4 370 371 372 373
4 293 374 375 290
4 376 377 378 379
12 380 381 382 383 384 385 386 387 388 389 390 391
4 212 12 15 213
4 392 393 394 395
4 396 397 398 399
4 400 401 402 403
4 404 405 406 407
4 408 409 410 411
4 412 413 414 415
4 416 417 418 419
4 420 421 422 423
4 424 425 426 427
4 428 429 430 431
4 432 433 434 435
4 436 437 438 439
4 269 236 239 268
4 374 440 441 375
4 442 443 444 445
4 446 447 448 449
4 450 451 452 453
4 454 455 172 171
4 456 457 217 216
4 436 439 270 271
4 309 308 458 459
4 460 461 462 463
4 464 465 466 467
4 468 469 470 471
4 437 286 289 438
4 472 473 474 475
4 476 477 478 479
4 459 458 302 301
4 480 481 482 483
4 484 485 486 487
4 488 489 490 491
4 492 493 494 495
4 4 7 488 491
4 298 299 326 327
4 288 287 148 149
4 489 496 497 490
4 456 337 336 457
4 307 28 31 304
4 229 18 17 230
4 410 409 218 219
4 477 476 339 338
4 498 499 500 501
4 151 295 294 152
4 502 503 504 505
4 506 507 508 509
4 510 511 512 513
4 36 39 25 24
4 9 514 515 10
4 516 517 518 519
4 520 14 13 521
4 522 523 524 525
4 526 527 528 529
4 530 531 532 533
4 534 535 536 537
4 305 221 220 306
4 538 539 540 541
4 542 543 544 545
4 11 546 547 8
4 206 215 214 207
4 546 548 549 547
4 115 114 550 551
4 59 520 521 56
4 552 553 554 555
4 175 549 548 176
4 515 514 556 557
4 518 558 559 519
4 560 168 169 561
4 562 563 43 42
4 564 565 566 567
4 568 569 570 571
4 556 572 573 557
4 454 16 19 455
4 574 575 563 562
4 576 577 575 574
4 222 517 516 223
4 578 579 580 581
4 231 408 411 228
4 559 558 27 26
4 582 583 584 585
4 174 177 113 112
12 586 587 588 589 590 591 592 593 594 595 596 597
4 441 440 560 561
4 551 550 598 599
4 600 601 602 603
4 604 605 606 607
4 608 609 610 611
4 479 478 497 496
4 208 211 577 576
4 612 613 614 615
12 616 617 618 619 620 621 622 623 624 625 626 627
4 628 629 630 631
4 632 633 634 635
4 636 637 638 639
4 640 641 642 643
4 644 645 646 647
4 648 649 650 651
4 652 653 654 655
4 656 657 658 659
4 660 661 662 663
4 664 665 666 667
4 668 669 670 671
4 672 673 674 675
4 573 572 599 598
4 676 677 678 679
4 680 681 682 683
4 684 685 686 687
4 688 689 690 691
4 692 693 694 695
4 696 697 698 699
4 700 701 702 703
