ply
format ascii 1.0
comment Created by Blender 2.82 (sub 7) - www.blender.org, source file: ''
element vertex 271
property float x
property float y
property float z
element face 60
property list uchar uint vertex_indices
end_header
-7.125000 14.250150 13.375000
-7.125000 14.250150 -14.125000
-8.125000 14.250150 -14.125000
-8.125000 14.250150 13.375000
-8.125000 13.250150 -14.125000
-8.125000 14.250150 -14.125000
-8.125000 14.250150 13.375000
-8.125000 -14.250150 13.375000
-8.125000 -14.250150 -14.125000
-8.125000 -13.250150 -14.125000
-8.125000 -13.250150 11.375000
-8.125000 13.250150 11.375000
-8.125000 -14.250150 13.375000
-8.125000 14.250150 13.375000
-8.125000 14.250150 -14.125000
-8.125000 13.250150 -14.125000
-8.125000 13.250150 11.375000
-8.125000 -13.250150 11.375000
-8.125000 -13.250150 -14.125000
-8.125000 -14.250150 -14.125000
-7.125000 13.250150 -14.125000
-8.125000 13.250150 -14.125000
-8.125000 14.250150 -14.125000
-7.125000 14.250150 -14.125000
-8.125000 -14.250150 -14.125000
-8.125000 -14.250150 13.375000
-7.125000 -14.250150 13.375000
-7.125000 -14.250150 -14.125000
-7.125000 14.250150 11.375000
-7.125000 14.250150 11.375000
-7.125000 14.250150 13.375000
-7.125000 14.250150 -14.125000
7.625000 -13.250150 13.375000
7.625000 13.250150 13.375000
7.625000 13.250150 11.375000
7.625000 -13.250150 11.375000
-7.625000 -13.250150 11.375000
-7.625000 -13.250150 13.375000
-7.125000 -13.250150 13.375000
-7.125000 -13.250150 -14.125000
-8.125000 -13.250150 -14.125000
-8.125000 -13.250150 11.375000
-8.125000 -13.250150 11.375000
-8.125000 -13.250150 -14.125000
-7.125000 -13.250150 -14.125000
-7.125000 -13.250150 13.375000
-7.625000 -13.250150 13.375000
-7.625000 -13.250150 11.375000
8.750000 14.875150 14.125000
8.750000 -14.875150 14.125000
8.750000 -14.875150 13.375000
8.750000 14.875150 13.375000
-7.125000 -14.250150 13.375000
-7.125000 -14.250150 -14.125000
-7.125000 -14.250150 11.375000
-7.125000 -14.250150 11.375000
8.125000 -14.250150 -14.125000
7.125000 -14.250150 -14.125000
7.125000 -13.250150 -14.125000
8.125000 -13.250150 -14.125000
-8.750000 14.875150 14.125000
-8.750000 14.875150 13.375000
8.750000 14.875150 13.375000
8.750000 14.875150 14.125000
-8.750000 14.875150 14.125000
8.750000 14.875150 14.125000
8.750000 -14.875150 14.125000
-8.750000 -14.875150 14.125000
7.125000 14.250150 11.375000
8.125000 14.250150 13.375000
8.125000 14.250150 -14.125000
7.125000 14.250150 -14.125000
7.125000 -14.250150 11.375000
7.125000 -14.250150 -14.125000
8.125000 -14.250150 -14.125000
8.125000 -14.250150 13.375000
7.125000 14.250150 11.375000
7.125000 14.250150 -14.125000
8.125000 14.250150 -14.125000
8.125000 14.250150 13.375000
8.125000 -14.250150 -14.125000
7.125000 -14.250150 -14.125000
7.125000 -14.250150 11.375000
8.125000 -14.250150 13.375000
-8.125000 14.250150 13.375000
-8.125000 14.250150 -14.125000
-7.125000 -14.250150 -14.125000
-8.125000 -14.250150 -14.125000
-8.125000 -13.250150 -14.125000
-7.125000 -13.250150 -14.125000
-8.750000 -14.875150 13.375000
-8.750000 14.875150 13.375000
-8.750000 14.875150 14.125000
-8.750000 -14.875150 14.125000
8.125000 13.250150 -14.125000
8.125000 13.250150 11.375000
8.125000 -13.250150 11.375000
8.125000 -13.250150 -14.125000
8.125000 -14.250150 -14.125000
8.125000 -14.250150 13.375000
8.125000 14.250150 13.375000
8.125000 14.250150 -14.125000
8.125000 -14.250150 13.375000
8.125000 -14.250150 -14.125000
8.125000 -13.250150 -14.125000
8.125000 -13.250150 11.375000
8.125000 13.250150 11.375000
8.125000 13.250150 -14.125000
8.125000 14.250150 -14.125000
8.125000 14.250150 13.375000
7.125000 14.250150 11.375000
7.125000 14.250150 -14.125000
7.125000 13.250150 -14.125000
7.125000 13.250150 13.375000
7.125000 13.750150 13.375000
7.125000 13.750150 11.375000
7.625000 13.250150 13.375000
7.125000 13.250150 13.375000
7.125000 13.250150 -14.125000
8.125000 13.250150 -14.125000
8.125000 13.250150 11.375000
7.625000 13.250150 11.375000
-7.125000 14.250150 11.375000
-7.125000 13.750150 11.375000
-7.125000 13.750150 13.375000
-7.125000 13.250150 13.375000
-7.125000 13.250150 -14.125000
-7.125000 14.250150 -14.125000
-7.625000 13.250150 13.375000
-7.625000 13.250150 11.375000
-8.125000 13.250150 11.375000
-8.125000 13.250150 -14.125000
-7.125000 13.250150 -14.125000
-7.125000 13.250150 13.375000
8.125000 -13.250150 11.375000
7.625000 -13.250150 11.375000
7.625000 13.250150 11.375000
8.125000 13.250150 11.375000
8.750000 14.875150 14.125000
8.750000 14.875150 13.375000
-8.750000 14.875150 13.375000
-8.750000 14.875150 14.125000
-7.625000 -13.250150 11.375000
-8.125000 -13.250150 11.375000
-8.125000 13.250150 11.375000
-7.625000 13.250150 11.375000
8.750000 14.875150 13.375000
8.750000 -14.875150 13.375000
8.750000 -14.875150 14.125000
8.750000 14.875150 14.125000
-8.125000 -14.250150 13.375000
-8.125000 -14.250150 -14.125000
-8.750000 -14.875150 13.375000
-8.750000 -14.875150 14.125000
8.750000 -14.875150 14.125000
8.750000 -14.875150 13.375000
8.125000 -13.250150 -14.125000
7.125000 -13.250150 -14.125000
7.125000 -13.250150 13.375000
7.625000 -13.250150 13.375000
7.625000 -13.250150 11.375000
8.125000 -13.250150 11.375000
-7.125000 -13.250150 13.375000
-7.125000 -13.750150 13.375000
-7.125000 -13.750150 11.375000
-7.125000 -14.250150 11.375000
-7.125000 -14.250150 -14.125000
-7.125000 -13.250150 -14.125000
8.750000 -14.875150 13.375000
8.750000 -14.875150 14.125000
-8.750000 -14.875150 14.125000
-8.750000 -14.875150 13.375000
7.125000 -14.250150 11.375000
-7.125000 -14.250150 11.375000
-7.125000 -13.750150 11.375000
7.125000 -13.750150 11.375000
7.125000 -13.750150 11.375000
7.125000 -13.750150 13.375000
7.125000 -13.250150 13.375000
7.125000 -13.250150 -14.125000
7.125000 -14.250150 -14.125000
7.125000 -14.250150 11.375000
-8.750000 14.875150 13.375000
-8.750000 -14.875150 13.375000
8.750000 -14.875150 13.375000
8.125000 13.250150 13.375000
8.125000 -14.250150 13.375000
-8.125000 -14.250150 13.375000
-8.125000 14.250150 13.375000
8.125000 14.250150 13.375000
8.750000 14.875150 13.375000
7.625000 -13.250150 11.375000
7.625000 -13.250150 13.375000
7.125000 -13.250150 13.375000
7.125000 -13.250150 -14.125000
8.125000 -13.250150 -14.125000
8.125000 -13.250150 11.375000
8.125000 14.250150 13.375000
-8.125000 14.250150 13.375000
-8.125000 -13.250150 13.375000
-8.750000 -14.875150 13.375000
-8.750000 14.875150 13.375000
8.750000 14.875150 13.375000
8.750000 -14.875150 13.375000
8.125000 -13.250150 13.375000
-8.125000 -14.250150 13.375000
8.125000 -14.250150 13.375000
7.125000 -13.750150 13.375000
7.125000 -13.750150 11.375000
-7.125000 -13.750150 11.375000
-7.125000 -13.750150 13.375000
7.125000 13.750150 11.375000
7.125000 13.750150 13.375000
-7.125000 13.750150 13.375000
-7.125000 13.750150 11.375000
-8.750000 -14.875150 14.125000
8.750000 -14.875150 14.125000
8.750000 14.875150 14.125000
-8.750000 14.875150 14.125000
7.125000 -13.750150 13.375000
-7.125000 -13.750150 13.375000
-7.125000 -13.250150 13.375000
-7.625000 -13.250150 13.375000
-7.625000 13.250150 13.375000
-8.125000 13.250150 13.375000
-8.125000 -14.250150 13.375000
8.125000 -14.250150 13.375000
8.125000 13.250150 13.375000
7.625000 13.250150 13.375000
7.625000 -13.250150 13.375000
7.125000 -13.250150 13.375000
8.125000 13.250150 -14.125000
7.125000 13.250150 -14.125000
7.125000 14.250150 -14.125000
8.125000 14.250150 -14.125000
7.125000 13.250150 13.375000
-7.625000 13.250150 13.375000
-7.625000 -13.250150 13.375000
-7.625000 -13.250150 11.375000
-7.625000 13.250150 11.375000
7.125000 13.750150 13.375000
8.125000 14.250150 13.375000
-8.125000 14.250150 13.375000
-7.125000 13.250150 13.375000
-7.125000 13.750150 13.375000
-7.625000 13.250150 13.375000
-8.125000 13.250150 13.375000
-7.125000 13.250150 13.375000
7.125000 13.750150 11.375000
-7.125000 13.750150 11.375000
-7.125000 14.250150 11.375000
7.125000 14.250150 11.375000
7.625000 13.250150 13.375000
7.125000 13.250150 13.375000
8.125000 13.250150 13.375000
-8.125000 14.250150 13.375000
8.125000 14.250150 13.375000
7.125000 13.750150 13.375000
-7.125000 13.750150 13.375000
7.125000 -13.250150 13.375000
7.625000 -13.250150 13.375000
8.125000 -14.250150 13.375000
-8.125000 -14.250150 13.375000
-7.625000 -13.250150 13.375000
-7.125000 -13.250150 13.375000
-7.125000 -13.750150 13.375000
7.125000 -13.750150 13.375000
-8.750000 -14.875150 14.125000
-8.750000 14.875150 14.125000
-8.750000 14.875150 13.375000
-8.750000 -14.875150 13.375000
4 0 1 2 3
8 4 5 6 7 8 9 10 11
8 12 13 14 15 16 17 18 19
4 20 21 22 23
4 24 25 26 27
3 1 0 28
3 29 30 31
4 32 33 34 35
6 36 37 38 39 40 41
6 42 43 44 45 46 47
4 48 49 50 51
3 52 53 54
3 55 27 26
4 56 57 58 59
4 60 61 62 63
4 64 65 66 67
6 68 28 0 69 70 71
6 52 54 72 73 74 75
6 30 29 76 77 78 79
6 80 81 82 55 26 83
4 84 85 31 30
4 86 87 88 89
4 90 91 92 93
8 94 95 96 97 98 99 100 101
8 102 103 104 105 106 107 108 109
6 110 111 112 113 114 115
6 116 117 118 119 120 121
6 122 123 124 125 126 127
6 128 129 130 131 132 133
4 134 135 136 137
4 138 139 140 141
4 142 143 144 145
4 146 147 148 149
4 53 52 150 151
4 152 153 154 155
6 156 157 158 159 160 161
6 162 163 164 165 166 167
4 168 169 170 171
4 172 173 174 175
6 176 177 178 179 180 181
9 182 183 184 185 186 187 188 189 190
6 191 192 193 194 195 196
4 189 185 184 190
8 197 198 199 200 201 202 203 204
6 200 199 205 206 204 203
4 207 208 209 210
4 211 212 213 214
4 215 216 217 218
12 219 220 221 222 223 224 225 226 227 228 229 230
4 231 232 233 234
3 227 235 228
4 236 237 238 239
8 240 235 227 241 242 224 243 244
3 243 224 223
3 245 246 247
4 248 249 250 251
3 252 253 254
8 255 256 254 253 257 258 247 246
12 259 260 252 254 261 262 246 245 263 264 265 266
4 267 268 269 270
