ply
format ascii 1.0
comment Created by Blender 2.82 (sub 7) - www.blender.org, source file: ''
element vertex 792
property float x
property float y
property float z
element face 192
property list uchar uint vertex_indices
end_header
-5.000025 14.250025 7.875000
-5.000025 14.250025 12.875000
5.000025 14.250025 12.875000
6.250025 14.250025 13.875000
-8.000025 14.250025 13.875000
-8.000025 14.250025 5.875000
-6.250025 14.250025 5.875000
7.693725 -12.806225 -14.875000
6.556225 -12.806225 -14.875000
6.556225 -13.943725 -14.875000
7.693725 -13.943725 -14.875000
4.750025 -14.250025 8.125000
4.750025 -14.250025 12.625000
-4.750025 -14.250025 12.625000
-4.750025 -14.250025 8.125000
8.000025 -12.500025 -13.375000
8.000025 -14.250025 -13.375000
7.693725 -13.943725 -14.875000
7.693725 -12.806225 -14.875000
5.786525 -8.000025 14.875000
6.770225 -7.016325 14.875000
6.770225 -0.000025 14.875000
8.500025 -0.000025 14.875000
8.500025 -15.000025 14.875000
-8.500025 -15.000025 14.875000
-8.500025 -0.000025 14.875000
-4.729785 -0.000025 14.875000
-4.729785 -7.016325 14.875000
-3.746095 -8.000025 14.875000
6.770225 -0.000025 14.875000
6.770225 -7.016325 14.875000
5.786525 -8.000025 14.875000
2.936925 -8.000025 14.875000
2.936925 -0.000025 14.875000
8.500025 -0.000025 14.875000
8.500025 15.000025 14.875000
9.000025 15.500025 14.375000
9.000025 -0.000025 14.375000
6.556225 -13.943725 -14.875000
6.556225 -12.806225 -14.875000
6.250025 -12.500025 -13.375000
6.250025 -14.250025 -13.375000
8.500025 -0.000025 14.875000
8.500025 -15.000025 14.875000
9.000025 -15.500025 14.375000
9.000025 -0.000025 14.375000
8.000025 -12.500025 -13.375000
8.000025 -14.250025 -13.375000
7.781225 -14.031225 -12.875000
7.781225 -12.718725 -12.875000
9.000025 -0.000025 13.875000
9.000025 15.500025 13.875000
9.000025 15.500025 14.375000
9.000025 -0.000025 14.375000
2.936925 -0.000025 14.875000
2.936925 8.000025 14.875000
5.786525 8.000025 14.875000
6.770225 7.016335 14.875000
6.770225 -0.000025 14.875000
6.250025 -12.500025 5.875000
6.468725 -12.718725 -12.875000
7.781225 -12.718725 -12.875000
8.000025 -12.500025 5.875000
8.000025 14.250025 13.875000
-8.000025 14.250025 13.875000
-8.000025 -0.000025 13.875000
-9.000025 -0.000025 13.875000
-9.000025 15.500025 13.875000
9.000025 15.500025 13.875000
9.000025 -0.000025 13.875000
8.000025 -0.000025 13.875000
-6.250025 12.500025 5.875000
-6.250025 14.250025 5.875000
-6.468775 14.031275 -12.875000
-6.468775 12.718775 -12.875000
-6.556275 13.943775 -14.875000
-7.693775 13.943775 -14.875000
-7.693775 12.806275 -14.875000
-6.556275 12.806275 -14.875000
8.000025 14.250025 5.875000
8.000025 14.250025 13.875000
5.000025 14.250025 7.875000
6.468725 14.031275 -12.875000
6.468725 12.718775 -12.875000
6.250025 12.500025 5.875000
6.250025 14.250025 5.875000
9.000025 -0.000025 14.375000
9.000025 15.500025 14.375000
9.000025 15.500025 13.875000
9.000025 -0.000025 13.875000
-7.781275 -14.031225 -12.875000
-7.781275 -12.718725 -12.875000
-8.000025 -12.500025 5.875000
-8.000025 -14.250025 5.875000
8.000025 -0.000025 13.875000
8.000025 14.250025 13.875000
8.000025 14.250025 5.875000
8.000025 -0.000025 5.875000
4.750025 14.250025 8.125000
4.750025 14.250025 12.625000
-4.750025 14.250025 12.625000
-4.750025 14.250025 8.125000
8.000025 -0.000025 5.875000
8.000025 -14.250025 5.875000
8.000025 -14.250025 13.875000
8.000025 -0.000025 13.875000
-8.000025 14.250025 5.875000
-8.000025 12.500025 5.875000
-7.781275 12.718775 -12.875000
-7.781275 14.031275 -12.875000
-7.781275 12.718775 -12.875000
-6.468775 12.718775 -12.875000
-6.250025 12.500025 -13.375000
-8.000025 12.500025 -13.375000
9.000025 -15.500025 13.875000
9.000025 -15.500025 14.375000
-9.000025 -15.500025 14.375000
-9.000025 -15.500025 13.875000
-6.250025 -14.250025 -13.375000
-6.468775 -14.031225 -12.875000
-7.781275 -14.031225 -12.875000
-8.000025 -14.250025 -13.375000
-6.556275 12.806275 -14.875000
-7.693775 12.806275 -14.875000
-7.693775 13.943775 -14.875000
-6.556275 13.943775 -14.875000
8.000025 -0.000025 13.875000
9.000025 -0.000025 13.875000
9.000025 -15.500025 13.875000
-9.000025 -15.500025 13.875000
-9.000025 -0.000025 13.875000
-8.000025 -0.000025 13.875000
-8.000025 -14.250025 13.875000
8.000025 -14.250025 13.875000
-8.000025 -12.500025 5.875000
-7.781275 -12.718725 -12.875000
-6.468775 -12.718725 -12.875000
-6.250025 -12.500025 5.875000
-8.000025 -12.500025 5.875000
8.000025 -12.500025 5.875000
6.250025 -12.500025 5.875000
-6.250025 -12.500025 5.875000
-6.250025 -12.500025 5.875000
6.250025 -12.500025 5.875000
-8.000025 -12.500025 5.875000
8.000025 -12.500025 5.875000
5.000025 -14.250025 12.875000
6.250025 -14.250025 5.875000
8.000025 -14.250025 5.875000
8.000025 -14.250025 13.875000
-6.250025 -14.250025 13.875000
-5.000025 -14.250025 12.875000
-6.250025 -14.250025 5.875000
6.250025 -14.250025 5.875000
-8.000025 -14.250025 -13.375000
-8.000025 -12.500025 -13.375000
-7.781275 -12.718725 -12.875000
-7.781275 -14.031225 -12.875000
-7.781275 -14.031225 -12.875000
-7.781275 -12.718725 -12.875000
-8.000025 -12.500025 -13.375000
-8.000025 -14.250025 -13.375000
8.000025 12.500025 5.875000
7.781225 12.718775 -12.875000
6.468725 12.718775 -12.875000
6.250025 12.500025 5.875000
-8.000025 -12.500025 -13.375000
-7.693775 -12.806225 -14.875000
-6.556275 -12.806225 -14.875000
-6.250025 -12.500025 -13.375000
-9.000025 15.500025 14.375000
-9.000025 15.500025 13.875000
9.000025 15.500025 13.875000
9.000025 15.500025 14.375000
8.000025 12.500025 5.875000
8.000025 14.250025 5.875000
7.781225 14.031275 -12.875000
7.781225 12.718775 -12.875000
-8.000025 -14.250025 5.875000
-6.250025 -14.250025 5.875000
-6.468775 -14.031225 -12.875000
-7.781275 -14.031225 -12.875000
-8.000025 -14.250025 -13.375000
-7.781275 -14.031225 -12.875000
-6.468775 -14.031225 -12.875000
-6.250025 -14.250025 -13.375000
-8.000025 -0.000025 13.875000
-8.000025 -14.250025 13.875000
-8.000025 -14.250025 5.875000
-8.000025 -0.000025 5.875000
-4.750025 14.250025 12.625000
4.750025 14.250025 12.625000
5.000025 14.250025 12.875000
-5.000025 14.250025 12.875000
-5.000025 14.250025 7.875000
5.000025 14.250025 7.875000
4.750025 14.250025 8.125000
-4.750025 14.250025 8.125000
6.250025 14.250025 -13.375000
6.468725 14.031275 -12.875000
7.781225 14.031275 -12.875000
8.000025 14.250025 -13.375000
-9.000025 -15.500025 14.375000
-9.000025 -0.000025 14.375000
-9.000025 -0.000025 13.875000
-9.000025 -15.500025 13.875000
7.693725 13.943775 -14.875000
6.556225 13.943775 -14.875000
6.556225 12.806275 -14.875000
7.693725 12.806275 -14.875000
-0.896455 -0.000025 14.875000
-0.896455 8.000025 14.875000
2.936925 8.000025 14.875000
2.936925 -0.000025 14.875000
4.750025 -14.250025 12.625000
-4.750025 -14.250025 12.625000
5.000025 -14.250025 12.875000
5.000025 -14.250025 7.875000
-8.000025 14.250025 -13.375000
-8.000025 12.500025 -13.375000
-7.781275 12.718775 -12.875000
-7.781275 14.031275 -12.875000
-6.250025 -12.500025 5.875000
-6.250025 -14.250025 5.875000
-6.468775 -14.031225 -12.875000
-6.468775 -12.718725 -12.875000
-7.781275 14.031275 -12.875000
-7.781275 12.718775 -12.875000
-8.000025 12.500025 5.875000
-8.000025 14.250025 5.875000
6.250025 14.250025 -13.375000
8.000025 14.250025 -13.375000
7.693725 13.943775 -14.875000
6.556225 13.943775 -14.875000
-6.556275 12.806275 -14.875000
-6.556275 13.943775 -14.875000
-6.250025 14.250025 -13.375000
-6.250025 12.500025 -13.375000
6.250025 -14.250025 5.875000
6.250025 -12.500025 5.875000
6.468725 -12.718725 -12.875000
6.468725 -14.031225 -12.875000
8.000025 -12.500025 5.875000
7.781225 -12.718725 -12.875000
6.468725 -12.718725 -12.875000
6.250025 -12.500025 5.875000
7.781225 -12.718725 -12.875000
7.781225 -14.031225 -12.875000
8.000025 -14.250025 -13.375000
8.000025 -12.500025 -13.375000
-8.000025 12.500025 -13.375000
-7.693775 12.806275 -14.875000
-6.556275 12.806275 -14.875000
-6.250025 12.500025 -13.375000
-7.693775 -13.943725 -14.875000
-6.556275 -13.943725 -14.875000
-6.250025 -14.250025 -13.375000
-8.000025 -14.250025 -13.375000
-6.250025 12.500025 5.875000
-6.468775 12.718775 -12.875000
-7.781275 12.718775 -12.875000
-8.000025 12.500025 5.875000
-8.000025 -14.250025 5.875000
-8.000025 -12.500025 5.875000
-7.781275 -12.718725 -12.875000
-7.781275 -14.031225 -12.875000
7.693725 12.806275 -14.875000
6.556225 12.806275 -14.875000
6.556225 13.943775 -14.875000
7.693725 13.943775 -14.875000
9.000025 -0.000025 14.375000
9.000025 -15.500025 14.375000
8.500025 -15.000025 14.875000
8.500025 -0.000025 14.875000
-8.000025 -14.250025 -13.375000
-6.250025 -14.250025 -13.375000
-6.556275 -13.943725 -14.875000
-7.693775 -13.943725 -14.875000
8.500025 -15.000025 14.875000
-8.500025 -15.000025 14.875000
-9.000025 -15.500025 14.375000
9.000025 -15.500025 14.375000
6.468725 -12.718725 -12.875000
7.781225 -12.718725 -12.875000
8.000025 -12.500025 -13.375000
6.250025 -12.500025 -13.375000
-8.500025 -15.000025 14.875000
8.500025 -15.000025 14.875000
9.000025 -15.500025 14.375000
-9.000025 -15.500025 14.375000
6.250025 -12.500025 -13.375000
8.000025 -12.500025 -13.375000
7.781225 -12.718725 -12.875000
6.468725 -12.718725 -12.875000
6.468725 -14.031225 -12.875000
6.468725 -12.718725 -12.875000
6.250025 -12.500025 -13.375000
6.250025 -14.250025 -13.375000
-6.250025 -12.500025 -13.375000
-6.250025 -14.250025 -13.375000
-6.556275 -13.943725 -14.875000
-6.556275 -12.806225 -14.875000
6.468725 -14.031225 -12.875000
6.468725 -12.718725 -12.875000
6.250025 -12.500025 5.875000
6.250025 -14.250025 5.875000
6.556225 -13.943725 -14.875000
7.693725 -13.943725 -14.875000
8.000025 -14.250025 -13.375000
6.250025 -14.250025 -13.375000
-6.556275 -12.806225 -14.875000
-7.693775 -12.806225 -14.875000
-7.693775 -13.943725 -14.875000
-6.556275 -13.943725 -14.875000
-9.000025 15.500025 14.375000
9.000025 15.500025 14.375000
9.000025 15.500025 13.875000
-9.000025 15.500025 13.875000
6.250025 12.500025 5.875000
6.468725 12.718775 -12.875000
7.781225 12.718775 -12.875000
8.000025 12.500025 5.875000
6.250025 12.500025 -13.375000
8.000025 12.500025 -13.375000
7.781225 12.718775 -12.875000
6.468725 12.718775 -12.875000
-8.000025 -14.250025 -13.375000
-8.000025 -12.500025 -13.375000
-7.693775 -12.806225 -14.875000
-7.693775 -13.943725 -14.875000
6.250025 -14.250025 -13.375000
6.250025 -12.500025 -13.375000
6.556225 -12.806225 -14.875000
6.556225 -13.943725 -14.875000
8.000025 12.500025 -13.375000
8.000025 14.250025 -13.375000
7.781225 14.031275 -12.875000
7.781225 12.718775 -12.875000
6.468725 14.031275 -12.875000
6.468725 12.718775 -12.875000
6.250025 12.500025 -13.375000
6.250025 14.250025 -13.375000
-6.468775 -12.718725 -12.875000
-6.468775 -14.031225 -12.875000
-6.250025 -14.250025 5.875000
-6.250025 -12.500025 5.875000
6.250025 -12.500025 -13.375000
6.556225 -12.806225 -14.875000
7.693725 -12.806225 -14.875000
8.000025 -12.500025 -13.375000
-6.250025 -12.500025 -13.375000
-6.250025 -14.250025 -13.375000
-6.468775 -14.031225 -12.875000
-6.468775 -12.718725 -12.875000
6.770225 -0.000025 14.875000
6.770225 7.016335 14.875000
5.786525 8.000025 14.875000
2.936925 8.000025 14.875000
2.936925 -0.000025 14.875000
-4.729785 -0.000025 14.875000
-0.896455 -0.000025 14.875000
-0.896455 -8.000025 14.875000
-3.746095 -8.000025 14.875000
-4.729785 -7.016325 14.875000
6.250025 12.500025 -13.375000
6.556225 12.806275 -14.875000
7.693725 12.806275 -14.875000
8.000025 12.500025 -13.375000
8.000025 12.500025 -13.375000
7.693725 12.806275 -14.875000
6.556225 12.806275 -14.875000
6.250025 12.500025 -13.375000
9.000025 -0.000025 14.375000
9.000025 -15.500025 14.375000
9.000025 -15.500025 13.875000
9.000025 -0.000025 13.875000
2.936925 -0.000025 14.875000
2.936925 -8.000025 14.875000
-0.896455 -8.000025 14.875000
-0.896455 -0.000025 14.875000
-9.000025 -15.500025 13.875000
-9.000025 -15.500025 14.375000
9.000025 -15.500025 14.375000
9.000025 -15.500025 13.875000
7.693725 -13.943725 -14.875000
6.556225 -13.943725 -14.875000
6.556225 -12.806225 -14.875000
7.693725 -12.806225 -14.875000
8.000025 -0.000025 13.875000
8.000025 -14.250025 13.875000
8.000025 -14.250025 5.875000
8.000025 -0.000025 5.875000
7.781225 -12.718725 -12.875000
7.781225 -14.031225 -12.875000
8.000025 -14.250025 5.875000
8.000025 -12.500025 5.875000
4.750025 -14.250025 12.625000
4.750025 -14.250025 8.125000
-4.750025 -14.250025 8.125000
-5.000025 -14.250025 12.875000
-5.000025 -14.250025 7.875000
5.000025 -14.250025 7.875000
5.000025 -14.250025 12.875000
-4.750025 -14.250025 12.625000
-4.750025 -14.250025 8.125000
4.750025 -14.250025 8.125000
-5.000025 -14.250025 7.875000
-5.000025 -14.250025 12.875000
9.000025 -0.000025 13.875000
9.000025 -15.500025 13.875000
9.000025 -15.500025 14.375000
9.000025 -0.000025 14.375000
-6.250025 14.250025 -13.375000
-6.468775 14.031275 -12.875000
-7.781275 14.031275 -12.875000
-8.000025 14.250025 -13.375000
-8.000025 14.250025 -13.375000
-7.781275 14.031275 -12.875000
-6.468775 14.031275 -12.875000
-6.250025 14.250025 -13.375000
-8.000025 14.250025 5.875000
-6.250025 14.250025 5.875000
-6.468775 14.031275 -12.875000
-7.781275 14.031275 -12.875000
-7.693775 -13.943725 -14.875000
-7.693775 -12.806225 -14.875000
-8.000025 -12.500025 -13.375000
-8.000025 -14.250025 -13.375000
-7.693775 13.943775 -14.875000
-7.693775 12.806275 -14.875000
-8.000025 12.500025 -13.375000
-8.000025 14.250025 -13.375000
-6.468775 12.718775 -12.875000
-6.468775 14.031275 -12.875000
-6.250025 14.250025 -13.375000
-6.250025 12.500025 -13.375000
-6.250025 12.500025 -13.375000
-6.250025 14.250025 -13.375000
-6.468775 14.031275 -12.875000
-6.468775 12.718775 -12.875000
-7.693775 13.943775 -14.875000
-6.556275 13.943775 -14.875000
-6.250025 14.250025 -13.375000
-8.000025 14.250025 -13.375000
-8.000025 14.250025 -13.375000
-6.250025 14.250025 -13.375000
-6.556275 13.943775 -14.875000
-7.693775 13.943775 -14.875000
-8.000025 -0.000025 5.875000
8.000025 -0.000025 5.875000
6.468725 -14.031225 -12.875000
7.781225 -14.031225 -12.875000
8.000025 -14.250025 5.875000
6.250025 -14.250025 5.875000
-6.250025 12.500025 -13.375000
-6.556275 12.806275 -14.875000
-7.693775 12.806275 -14.875000
-8.000025 12.500025 -13.375000
-9.000025 -15.500025 14.375000
-9.000025 -0.000025 14.375000
-8.500025 -0.000025 14.875000
-8.500025 -15.000025 14.875000
-8.000025 -0.000025 13.875000
-8.000025 14.250025 13.875000
-8.000025 14.250025 5.875000
-8.000025 -0.000025 5.875000
-8.000025 12.500025 5.875000
-7.781275 12.718775 -12.875000
-6.468775 12.718775 -12.875000
-6.250025 12.500025 5.875000
-6.250025 12.500025 -13.375000
-6.250025 14.250025 -13.375000
-6.556275 13.943775 -14.875000
-6.556275 12.806275 -14.875000
6.250025 14.250025 -13.375000
6.250025 12.500025 -13.375000
6.468725 12.718775 -12.875000
6.468725 14.031275 -12.875000
-6.250025 -12.500025 -13.375000
-6.556275 -12.806225 -14.875000
-7.693775 -12.806225 -14.875000
-8.000025 -12.500025 -13.375000
8.000025 -12.500025 5.875000
8.000025 -14.250025 5.875000
7.781225 -14.031225 -12.875000
7.781225 -12.718725 -12.875000
6.250025 -14.250025 5.875000
8.000025 -14.250025 5.875000
7.781225 -14.031225 -12.875000
6.468725 -14.031225 -12.875000
6.250025 -14.250025 5.875000
-6.250025 -14.250025 5.875000
-6.250025 -12.500025 5.875000
-6.468775 -12.718725 -12.875000
-7.781275 -12.718725 -12.875000
-8.000025 -12.500025 5.875000
8.000025 -0.000025 5.875000
-8.000025 -0.000025 5.875000
-8.000025 12.500025 5.875000
8.000025 12.500025 5.875000
-6.468775 12.718775 -12.875000
-6.468775 14.031275 -12.875000
-6.250025 14.250025 5.875000
-6.250025 12.500025 5.875000
-8.000025 14.250025 13.875000
8.000025 14.250025 13.875000
8.000025 -0.000025 13.875000
9.000025 -0.000025 13.875000
9.000025 15.500025 13.875000
-9.000025 15.500025 13.875000
-9.000025 -0.000025 13.875000
-8.000025 -0.000025 13.875000
-6.250025 12.500025 5.875000
6.250025 12.500025 5.875000
-6.556275 -13.943725 -14.875000
-7.693775 -13.943725 -14.875000
-7.693775 -12.806225 -14.875000
-6.556275 -12.806225 -14.875000
-8.000025 12.500025 5.875000
8.000025 12.500025 5.875000
6.250025 12.500025 5.875000
-6.250025 12.500025 5.875000
-8.000025 -0.000025 5.875000
8.000025 -0.000025 5.875000
6.250025 14.250025 5.875000
-6.250025 14.250025 5.875000
6.250025 -14.250025 -13.375000
6.250025 -12.500025 -13.375000
6.468725 -12.718725 -12.875000
6.468725 -14.031225 -12.875000
-5.000025 14.250025 7.875000
-6.250025 14.250025 5.875000
-8.000025 14.250025 5.875000
-8.000025 14.250025 13.875000
-6.250025 14.250025 13.875000
-5.000025 14.250025 12.875000
-6.468775 -12.718725 -12.875000
-6.468775 -14.031225 -12.875000
-6.250025 -14.250025 -13.375000
-6.250025 -12.500025 -13.375000
-6.250025 14.250025 5.875000
6.250025 14.250025 5.875000
-8.000025 -0.000025 13.875000
-8.000025 -0.000025 5.875000
-8.000025 14.250025 5.875000
-8.000025 14.250025 13.875000
-9.000025 15.500025 13.875000
-9.000025 -0.000025 13.875000
-9.000025 -0.000025 14.375000
-9.000025 15.500025 14.375000
-9.000025 15.500025 14.375000
-9.000025 -0.000025 14.375000
-9.000025 -0.000025 13.875000
-9.000025 15.500025 13.875000
5.000025 14.250025 7.875000
5.000025 14.250025 12.875000
8.000025 14.250025 13.875000
8.000025 14.250025 5.875000
-3.746095 -8.000025 14.875000
-4.729785 -7.016325 14.875000
-4.729785 -0.000025 14.875000
-8.500025 -0.000025 14.875000
-8.500025 -15.000025 14.875000
8.500025 -15.000025 14.875000
8.500025 -0.000025 14.875000
6.770225 -0.000025 14.875000
6.770225 -7.016325 14.875000
5.786525 -8.000025 14.875000
-8.000025 -14.250025 13.875000
-8.000025 -14.250025 5.875000
5.000025 -14.250025 7.875000
-5.000025 -14.250025 7.875000
8.000025 -12.500025 -13.375000
7.693725 -12.806225 -14.875000
6.556225 -12.806225 -14.875000
6.250025 -12.500025 -13.375000
9.000025 -0.000025 14.375000
9.000025 15.500025 14.375000
8.500025 15.000025 14.875000
8.500025 -0.000025 14.875000
6.250025 14.250025 5.875000
6.250025 12.500025 5.875000
6.468725 12.718775 -12.875000
6.468725 14.031275 -12.875000
-7.781275 -12.718725 -12.875000
-6.468775 -12.718725 -12.875000
-6.250025 -12.500025 -13.375000
-8.000025 -12.500025 -13.375000
6.250025 -14.250025 -13.375000
6.468725 -14.031225 -12.875000
7.781225 -14.031225 -12.875000
8.000025 -14.250025 -13.375000
8.000025 -14.250025 -13.375000
7.781225 -14.031225 -12.875000
6.468725 -14.031225 -12.875000
6.250025 -14.250025 -13.375000
6.250025 14.250025 5.875000
8.000025 14.250025 5.875000
7.781225 14.031275 -12.875000
6.468725 14.031275 -12.875000
-6.556275 -12.806225 -14.875000
-6.556275 -13.943725 -14.875000
-6.250025 -14.250025 -13.375000
-6.250025 -12.500025 -13.375000
7.781225 12.718775 -12.875000
7.781225 14.031275 -12.875000
8.000025 14.250025 5.875000
8.000025 12.500025 5.875000
-8.500025 15.000025 14.875000
-8.500025 -0.000025 14.875000
-9.000025 -0.000025 14.375000
-9.000025 15.500025 14.375000
-9.000025 15.500025 14.375000
-9.000025 -0.000025 14.375000
-8.500025 -0.000025 14.875000
-8.500025 15.000025 14.875000
-8.000025 -14.250025 13.875000
-8.000025 -0.000025 13.875000
-8.000025 -0.000025 5.875000
-8.000025 -14.250025 5.875000
-7.781275 -14.031225 -12.875000
-6.468775 -14.031225 -12.875000
-6.250025 -14.250025 5.875000
-8.000025 -14.250025 5.875000
8.000025 -0.000025 5.875000
-8.000025 -0.000025 5.875000
8.500025 15.000025 14.875000
9.000025 15.500025 14.375000
-9.000025 15.500025 14.375000
-8.500025 15.000025 14.875000
-8.000025 -12.500025 -13.375000
-6.250025 -12.500025 -13.375000
-6.468775 -12.718725 -12.875000
-7.781275 -12.718725 -12.875000
-9.000025 15.500025 14.375000
9.000025 15.500025 14.375000
8.500025 15.000025 14.875000
-8.500025 15.000025 14.875000
-0.896455 -0.000025 14.875000
-0.896455 -8.000025 14.875000
2.936925 -8.000025 14.875000
2.936925 -0.000025 14.875000
9.000025 -0.000025 13.875000
8.000025 -0.000025 13.875000
8.000025 -14.250025 13.875000
-8.000025 -14.250025 13.875000
-8.000025 -0.000025 13.875000
-9.000025 -0.000025 13.875000
-9.000025 -15.500025 13.875000
9.000025 -15.500025 13.875000
2.936925 -0.000025 14.875000
2.936925 -8.000025 14.875000
5.786525 -8.000025 14.875000
6.770225 -7.016325 14.875000
6.770225 -0.000025 14.875000
7.693725 -12.806225 -14.875000
7.693725 -13.943725 -14.875000
8.000025 -14.250025 -13.375000
8.000025 -12.500025 -13.375000
6.468725 12.718775 -12.875000
7.781225 12.718775 -12.875000
8.000025 12.500025 -13.375000
6.250025 12.500025 -13.375000
-3.746095 8.000025 14.875000
5.786525 8.000025 14.875000
6.770225 7.016335 14.875000
6.770225 -0.000025 14.875000
8.500025 -0.000025 14.875000
8.500025 15.000025 14.875000
-8.500025 15.000025 14.875000
-8.500025 -0.000025 14.875000
-4.729785 -0.000025 14.875000
-4.729785 7.016335 14.875000
-0.896455 -8.000025 14.875000
-0.896455 -0.000025 14.875000
-4.729785 -0.000025 14.875000
-4.729785 -7.016325 14.875000
-3.746095 -8.000025 14.875000
8.500025 15.000025 14.875000
8.500025 -0.000025 14.875000
6.770225 -0.000025 14.875000
6.770225 7.016335 14.875000
5.786525 8.000025 14.875000
-3.746095 8.000025 14.875000
-4.729785 7.016335 14.875000
-4.729785 -0.000025 14.875000
-8.500025 -0.000025 14.875000
-8.500025 15.000025 14.875000
8.000025 14.250025 -13.375000
7.781225 14.031275 -12.875000
6.468725 14.031275 -12.875000
6.250025 14.250025 -13.375000
-8.000025 -14.250025 5.875000
-8.000025 -14.250025 13.875000
-6.250025 -14.250025 13.875000
-5.000025 -14.250025 12.875000
-5.000025 -14.250025 7.875000
-6.250025 -14.250025 5.875000
8.000025 -14.250025 13.875000
8.000025 -14.250025 5.875000
5.000025 -14.250025 7.875000
5.000025 -14.250025 12.875000
6.468725 14.031275 -12.875000
7.781225 14.031275 -12.875000
8.000025 14.250025 5.875000
6.250025 14.250025 5.875000
8.000025 -0.000025 5.875000
8.000025 14.250025 5.875000
8.000025 14.250025 13.875000
8.000025 -0.000025 13.875000
6.250025 -14.250025 -13.375000
8.000025 -14.250025 -13.375000
7.693725 -13.943725 -14.875000
6.556225 -13.943725 -14.875000
-8.500025 -15.000025 14.875000
-8.500025 -0.000025 14.875000
-9.000025 -0.000025 14.375000
-9.000025 -15.500025 14.375000
-8.000025 14.250025 -13.375000
-8.000025 12.500025 -13.375000
-7.693775 12.806275 -14.875000
-7.693775 13.943775 -14.875000
6.556225 13.943775 -14.875000
6.556225 12.806275 -14.875000
6.250025 12.500025 -13.375000
6.250025 14.250025 -13.375000
-9.000025 -15.500025 13.875000
-9.000025 -0.000025 13.875000
-9.000025 -0.000025 14.375000
-9.000025 -15.500025 14.375000
7.781225 12.718775 -12.875000
7.781225 14.031275 -12.875000
8.000025 14.250025 -13.375000
8.000025 12.500025 -13.375000
-7.781275 14.031275 -12.875000
-7.781275 12.718775 -12.875000
-8.000025 12.500025 -13.375000
-8.000025 14.250025 -13.375000
-4.729785 -0.000025 14.875000
-0.896455 -0.000025 14.875000
-0.896455 8.000025 14.875000
-3.746095 8.000025 14.875000
-4.729785 7.016335 14.875000
-0.896455 8.000025 14.875000
-0.896455 -0.000025 14.875000
-4.729785 -0.000025 14.875000
-4.729785 7.016335 14.875000
-3.746095 8.000025 14.875000
-4.750025 14.250025 8.125000
-4.750025 14.250025 12.625000
4.750025 14.250025 12.625000
4.750025 14.250025 8.125000
7.693725 12.806275 -14.875000
7.693725 13.943775 -14.875000
8.000025 14.250025 -13.375000
8.000025 12.500025 -13.375000
8.000025 12.500025 -13.375000
8.000025 14.250025 -13.375000
7.693725 13.943775 -14.875000
7.693725 12.806275 -14.875000
6.556225 13.943775 -14.875000
7.693725 13.943775 -14.875000
8.000025 14.250025 -13.375000
6.250025 14.250025 -13.375000
2.936925 -0.000025 14.875000
2.936925 8.000025 14.875000
-0.896455 8.000025 14.875000
-0.896455 -0.000025 14.875000
-4.750025 14.250025 8.125000
4.750025 14.250025 8.125000
4.750025 14.250025 12.625000
5.000025 14.250025 7.875000
-5.000025 14.250025 7.875000
-5.000025 14.250025 12.875000
5.000025 14.250025 12.875000
-4.750025 14.250025 12.625000
-7.781275 14.031275 -12.875000
-6.468775 14.031275 -12.875000
-6.250025 14.250025 5.875000
-8.000025 14.250025 5.875000
-8.000025 12.500025 -13.375000
-6.250025 12.500025 -13.375000
-6.468775 12.718775 -12.875000
-7.781275 12.718775 -12.875000
-4.750025 -14.250025 8.125000
-4.750025 -14.250025 12.625000
4.750025 -14.250025 12.625000
4.750025 -14.250025 8.125000
6.250025 14.250025 -13.375000
6.250025 12.500025 -13.375000
6.556225 12.806275 -14.875000
6.556225 13.943775 -14.875000
7 0 1 2 3 4 5 6
4 7 8 9 10
4 11 12 13 14
4 15 16 17 18
10 19 20 21 22 23 24 25 26 27 28
5 29 30 31 32 33
4 34 35 36 37
4 38 39 40 41
4 42 43 44 45
4 46 47 48 49
4 50 51 52 53
5 54 55 56 57 58
4 59 60 61 62
8 63 64 65 66 67 68 69 70
4 71 72 73 74
4 75 76 77 78
7 79 80 3 2 81 0 6
4 82 83 84 85
4 86 87 88 89
4 90 91 92 93
4 94 95 96 97
4 98 99 100 101
4 102 103 104 105
4 106 107 108 109
4 110 111 112 113
4 114 115 116 117
4 118 119 120 121
4 122 123 124 125
8 126 127 128 129 130 131 132 133
4 134 135 136 137
3 138 139 140
3 138 140 141
3 142 143 144
3 143 145 144
6 146 147 148 149 150 151
4 143 142 152 153
4 154 155 156 157
4 158 159 160 161
4 162 163 164 165
4 166 167 168 169
4 170 171 172 173
4 174 175 176 177
4 178 179 180 181
4 182 183 184 185
4 186 187 188 189
8 190 191 192 193 194 195 196 197
4 198 199 200 201
4 202 203 204 205
4 206 207 208 209
4 210 211 212 213
4 214 215 216 217
4 218 219 220 221
4 222 223 224 225
4 226 227 228 229
4 230 231 232 233
4 234 235 236 237
4 238 239 240 241
4 242 243 244 245
4 246 247 248 249
4 250 251 252 253
4 254 255 256 257
4 258 259 260 261
4 262 263 264 265
4 266 267 268 269
4 270 271 272 273
4 274 275 276 277
4 278 279 280 281
4 282 283 284 285
4 286 287 288 289
4 290 291 292 293
4 294 295 296 297
4 298 299 300 301
4 302 303 304 305
4 306 307 308 309
4 310 311 312 313
4 314 315 316 317
4 318 319 320 321
4 322 323 324 325
4 326 327 328 329
4 330 331 332 333
4 334 335 336 337
4 338 339 340 341
4 342 343 344 345
4 346 347 348 349
4 350 351 352 353
5 354 355 356 357 358
5 359 360 361 362 363
4 364 365 366 367
4 368 369 370 371
4 372 373 374 375
4 376 377 378 379
4 380 381 382 383
4 384 385 386 387
4 388 389 390 391
4 392 393 394 395
8 396 397 398 399 400 401 402 403
8 404 405 214 217 406 407 216 215
4 408 409 410 411
4 412 413 414 415
4 416 417 418 419
4 420 421 422 423
4 424 425 426 427
4 428 429 430 431
4 432 433 434 435
4 436 437 438 439
4 440 441 442 443
4 444 445 446 447
4 139 138 448 449
4 450 451 452 453
4 454 455 456 457
4 458 459 460 461
4 462 463 464 465
4 466 467 468 469
4 470 471 472 473
4 474 475 476 477
4 478 479 480 481
4 482 483 484 485
4 486 487 488 489
4 490 491 141 140
4 492 493 494 495
4 496 497 498 499
4 500 501 502 503
8 504 505 506 507 508 509 510 511
3 512 513 498
3 513 499 498
4 514 515 516 517
3 518 519 520
3 518 520 521
4 519 518 522 523
4 524 525 521 520
4 526 527 528 529
6 530 531 532 533 534 535
4 536 537 538 539
4 513 512 540 541
4 542 543 544 545
4 546 547 548 549
4 550 551 552 553
8 531 530 554 555 535 534 556 557
10 558 559 560 561 562 563 564 565 566 567
8 150 568 569 147 146 570 571 151
4 572 573 574 575
4 399 398 403 402
4 576 577 578 579
4 580 581 582 583
4 584 585 586 587
4 588 589 590 591
4 592 593 594 595
4 596 597 598 599
4 600 601 602 603
4 604 605 606 607
4 608 609 610 611
4 612 613 614 615
4 616 617 618 619
4 620 621 622 623
4 624 625 144 145
4 626 627 628 629
4 630 631 632 633
4 634 635 636 637
4 638 639 640 641
8 642 643 644 645 646 647 648 649
5 650 651 652 653 654
4 655 656 657 658
4 659 660 661 662
10 663 664 665 666 667 668 669 670 671 672
5 673 674 675 676 677
10 678 679 680 681 682 683 684 685 686 687
4 688 689 690 691
6 692 693 694 695 696 697
8 695 694 698 699 697 696 700 701
4 702 703 704 705
4 706 707 708 709
4 710 711 712 713
4 714 715 716 717
4 718 719 720 721
4 722 723 724 725
4 726 727 728 729
4 730 731 732 733
4 734 735 736 737
5 738 739 740 741 742
5 743 744 745 746 747
4 748 749 750 751
4 752 753 754 755
4 756 757 758 759
4 760 761 762 763
4 764 765 766 767
8 768 769 770 771 772 773 774 775
4 776 777 778 779
4 780 781 782 783
4 784 785 786 787
4 192 191 196 195
4 770 775 774 771
4 788 789 790 791
