ply
format ascii 1.0
comment Created by Blender 2.82 (sub 7) - www.blender.org, source file: ''
element vertex 804
property float x
property float y
property float z
element face 256
property list uchar uint vertex_indices
end_header
-0.666915 13.626795 -14.727400
0.833085 13.626795 -14.727400
0.833085 12.501895 -7.757586
-0.666915 12.501895 -7.757586
-0.416915 -0.627305 -4.736206
-0.416915 -12.627305 -4.736206
0.583085 -12.627305 -4.736206
0.583085 -0.627305 -4.736206
12.583085 -0.627305 -4.736206
12.583085 0.372695 -4.736206
-12.416965 0.372695 -4.736206
-12.416965 -0.627305 -4.736206
-14.545695 -0.877305 -7.736176
-14.545695 0.622695 -7.736176
-15.445695 0.622695 -14.736175
-15.445695 -0.877305 -14.736175
0.833085 12.501895 -7.757586
0.833085 12.201595 -0.736206
-0.666915 12.201595 -0.736206
-0.666915 12.501895 -7.757586
-4.298015 -10.125605 14.263794
-4.298015 -10.125605 13.263794
-8.784915 -6.620005 13.263794
-8.784915 -6.620005 14.263794
-13.045695 -0.877305 -7.736176
-12.546155 -0.877305 -7.757586
-12.546155 0.622695 -7.757586
-13.045695 0.622695 -7.736176
-0.666915 12.201595 -0.736206
0.833085 12.201595 -0.736206
0.833085 12.701395 -0.736206
-0.666915 12.701395 -0.736206
-7.953015 9.643695 13.263794
-7.953015 9.643695 11.263794
-2.065715 12.328195 11.263794
-2.065715 12.328195 13.263794
-13.500075 -6.538205 14.263794
-14.960495 1.087795 14.263794
-14.960495 1.087795 13.263794
-13.500075 -6.538205 13.263794
12.411985 0.622695 -0.736206
12.411985 -0.877305 -0.736206
12.911785 -0.877305 -0.736206
12.911785 0.622695 -0.736206
12.712185 -0.877305 -7.757586
13.211785 -0.877305 -7.736176
13.211785 0.622695 -7.736176
12.712185 0.622695 -7.757586
-0.666915 13.001395 -7.736176
-0.666915 12.501895 -7.757586
0.833085 12.501895 -7.757586
0.833085 13.001395 -7.736176
-6.772215 -8.668105 13.263794
-1.530815 -10.892905 13.263794
-4.375115 -11.709305 13.263794
-7.256615 -10.178005 13.263794
11.347885 9.809495 14.263794
14.732285 2.821295 14.263794
14.732285 2.821295 13.263794
11.347885 9.809495 13.263794
9.809485 -11.347905 14.263794
2.821285 -14.732305 14.263794
2.821285 -14.732305 13.263794
9.809485 -11.347905 13.263794
-0.666915 -13.919305 13.263794
0.833085 -13.857705 13.263794
0.833085 -12.456105 13.263794
-0.666915 -12.456105 13.263794
-12.245695 0.622695 13.263794
-12.245695 -0.877305 13.263794
-12.245925 -0.877305 -0.736206
-12.245925 0.622695 -0.736206
-1.340615 10.917995 13.263794
-1.340615 10.917995 14.263794
-6.620015 8.784995 14.263794
-6.620015 8.784995 13.263794
0.833085 -13.256105 -7.736176
-0.666915 -13.256105 -7.736176
-0.666915 -14.756105 -7.736176
0.833085 -14.756105 -7.736176
12.411985 -0.877305 -0.736206
14.411785 -0.877305 -0.736206
14.411785 -0.877305 13.263794
12.411785 -0.877305 13.263794
14.411785 0.622695 13.263794
14.411785 -0.877305 13.263794
14.411785 -0.877305 -0.736206
14.411785 0.622695 -0.736206
1.530885 10.892995 13.263794
1.530885 10.892995 14.263794
1.256385 13.943495 11.263794
-2.395315 13.793595 11.263794
-2.395315 13.793595 13.263794
1.256385 13.943495 13.263794
14.411785 0.622695 -0.736206
14.411785 -0.877305 -0.736206
14.711785 -0.877305 -7.736176
14.711785 0.622695 -7.736176
-8.668115 6.772295 14.263794
-8.668115 6.772295 13.263794
0.833085 14.501395 -7.736176
0.833085 15.401395 -14.736175
-0.666915 15.401395 -14.736175
-0.666915 14.501395 -7.736176
4.120685 -10.199005 14.263794
4.120685 -10.199005 13.263794
1.340585 -10.918005 13.263794
1.340585 -10.918005 14.263794
-2.395315 13.793595 11.263794
1.256385 13.943495 11.263794
8.059785 11.447295 11.263794
10.747985 8.971195 11.263794
13.793585 2.395295 11.263794
11.373385 5.186095 11.263794
7.256685 10.177995 11.263794
4.375185 11.709295 11.263794
-2.065715 12.328195 11.263794
-7.953015 9.643695 11.263794
-11.709315 4.375095 11.263794
-12.328125 -2.065705 11.263794
-9.643615 -7.953005 11.263794
-7.256615 -10.178005 11.263794
-1.195415 -12.442705 11.263794
5.186085 -11.373405 11.263794
10.177985 -7.256605 11.263794
12.442685 -1.195405 11.263794
13.943485 -1.256305 11.263794
11.447285 -8.059805 11.263794
5.883685 -12.703605 11.263794
-1.256315 -13.943505 11.263794
-4.822415 -13.143205 11.263794
-10.747915 -8.971205 11.263794
-13.793565 -2.395305 11.263794
-13.143225 4.822395 11.263794
-8.971115 10.747995 11.263794
0.833085 -15.656105 -14.736175
0.833085 -14.756105 -7.736176
-0.666915 -14.756105 -7.736176
-0.666915 -15.656105 -14.736175
0.833085 -14.456105 -0.736206
0.833085 -15.656105 -14.736175
0.833085 -13.862105 -14.813795
0.833085 -12.456305 -0.736206
-13.143225 4.822395 13.263794
-8.971115 10.747995 13.263794
-8.971115 10.747995 11.263794
-13.143225 4.822395 11.263794
10.917985 1.340595 14.263794
8.784985 6.619995 14.263794
8.784985 6.619995 13.263794
10.917985 1.340595 13.263794
-4.922815 -14.169205 13.263794
-4.922815 -14.169205 14.263794
-8.422315 -12.412305 14.263794
-8.422315 -12.412305 13.263794
0.833085 14.201395 13.263794
0.833085 12.201395 13.263794
-0.666915 12.201395 13.263794
-0.666915 14.201395 13.263794
10.177985 -7.256605 13.263794
11.709285 -4.375105 13.263794
11.709285 -4.375105 11.263794
10.177985 -7.256605 11.263794
-10.747915 -8.971205 13.263794
-13.793565 -2.395305 13.263794
-13.793565 -2.395305 11.263794
-10.747915 -8.971205 11.263794
12.411785 0.622695 13.263794
14.411785 0.622695 13.263794
14.411785 -0.877305 13.263794
12.411785 -0.877305 13.263794
0.833085 -14.756105 -7.736176
-0.666915 -14.756105 -7.736176
-0.666915 -13.256105 -7.736176
0.833085 -13.256105 -7.736176
-14.245695 0.622695 -0.736206
-14.245695 -0.877305 -0.736206
-12.745695 -0.877305 -0.736206
-12.745695 0.622695 -0.736206
0.833085 14.201395 -0.736206
0.833085 12.701395 -0.736206
-0.666915 12.701395 -0.736206
-0.666915 14.201395 -0.736206
0.833085 -15.656105 -14.736175
-0.666915 -15.656105 -14.736175
-0.666915 -13.862105 -14.813795
0.833085 -13.862105 -14.813795
14.169185 -4.922805 14.263794
14.169185 -4.922805 13.263794
0.833085 -14.456105 13.263794
-0.666915 -14.456105 13.263794
-0.666915 -13.919305 13.263794
0.833085 -13.857705 13.263794
-0.666915 14.201395 -0.736206
-0.666915 12.701395 -0.736206
0.833085 12.701395 -0.736206
0.833085 14.201395 -0.736206
0.833085 -12.456305 -0.736206
0.833085 -12.756505 -7.757586
-0.666915 -12.756505 -7.757586
-0.666915 -12.456305 -0.736206
12.411985 0.622695 -0.736206
14.411785 0.622695 -0.736206
14.711785 0.622695 -7.736176
12.712185 0.622695 -7.757586
0.833085 14.201395 13.263794
0.833085 14.201395 -0.736206
-0.666915 14.201395 -0.736206
-0.666915 14.201395 13.263794
0.833085 14.201395 -0.736206
0.833085 12.201595 -0.736206
0.833085 12.501895 -7.757586
0.833085 14.501395 -7.736176
0.833085 14.201395 -0.736206
0.833085 14.501395 -7.736176
-0.666915 14.501395 -7.736176
-0.666915 14.201395 -0.736206
15.611785 -0.877305 -14.736175
13.817785 -0.877305 -14.737718
13.817785 0.622695 -14.737718
15.611785 0.622695 -14.736175
14.711785 0.622695 -7.736176
15.611785 0.622695 -14.736175
13.817785 0.622695 -14.737718
12.712185 0.622695 -7.757586
-10.892945 1.530895 14.263794
-10.892945 1.530895 13.263794
-13.500075 -6.538205 13.263794
-12.703605 -5.883705 13.263794
-8.059815 -11.447205 13.263794
-11.347855 -9.809505 13.263794
0.833085 13.626795 -14.727400
-0.666915 13.626795 -14.727400
-0.666915 15.401395 -14.736175
0.833085 15.401395 -14.736175
-12.422575 0.622695 13.263794
-11.709315 4.375095 13.263794
-7.953015 9.643695 13.263794
-2.065715 12.328195 13.263794
-0.666915 12.377295 13.263794
-0.666915 12.201395 13.263794
0.833085 12.201395 13.263794
0.833085 12.429995 13.263794
4.375185 11.709295 13.263794
9.643685 7.952995 13.263794
12.328185 2.065695 13.263794
12.411785 -0.877305 13.263794
12.431585 -0.877305 13.263794
10.177985 -7.256605 13.263794
5.186085 -11.373405 13.263794
-1.195415 -12.442705 13.263794
4.120685 -10.199005 13.263794
8.668185 -6.772205 13.263794
10.892985 -1.530805 13.263794
10.917985 1.340595 13.263794
8.784985 6.619995 13.263794
6.772285 8.668195 13.263794
1.530885 10.892995 13.263794
-1.340615 10.917995 13.263794
-6.620015 8.784995 13.263794
-8.668115 6.772295 13.263794
-10.892945 1.530895 13.263794
-10.199015 -4.120705 13.263794
-9.643615 -7.953005 13.263794
-12.328125 -2.065705 13.263794
-12.369875 -0.877305 13.263794
-12.245695 -0.877305 13.263794
-12.245695 0.622695 13.263794
-10.199015 -4.120705 14.263794
-10.199015 -4.120705 13.263794
10.747985 8.971195 13.263794
13.793585 2.395295 13.263794
13.793585 2.395295 11.263794
10.747985 8.971195 11.263794
12.411785 -0.877305 13.263794
12.411785 0.622695 13.263794
12.411985 0.622695 -0.736206
12.411985 -0.877305 -0.736206
-2.821315 14.732295 13.263794
-9.809515 11.347895 13.263794
-9.809515 11.347895 14.263794
-2.821315 14.732295 14.263794
-11.709315 4.375095 13.263794
-12.328125 -2.065705 13.263794
-12.328125 -2.065705 11.263794
-11.709315 4.375095 11.263794
4.375185 11.709295 11.263794
4.375185 11.709295 13.263794
0.833085 -12.756505 -7.757586
0.833085 -13.862105 -14.813795
-0.666915 -13.862105 -14.813795
-0.666915 -12.756505 -7.757586
0.583085 12.372695 -4.736206
0.583085 -12.627305 -4.736206
0.583085 -12.627305 -5.736175
0.583085 12.372695 -5.736175
-14.245695 0.622695 -0.736206
-14.245695 0.622695 13.263794
-12.245695 0.622695 13.263794
-12.245925 0.622695 -0.736206
9.643685 7.952995 11.263794
9.643685 7.952995 13.263794
12.328185 2.065695 13.263794
12.328185 2.065695 11.263794
0.583085 12.372695 -4.736206
0.583085 12.372695 -5.736175
-0.416915 12.372695 -5.736175
-0.416915 12.372695 -4.736206
0.833085 -12.956105 -0.736206
-0.666915 -12.956105 -0.736206
-0.666915 -14.456105 -0.736206
0.833085 -14.456105 -0.736206
14.711785 0.622695 -7.736176
14.711785 -0.877305 -7.736176
13.211785 -0.877305 -7.736176
13.211785 0.622695 -7.736176
14.411785 -0.877305 -0.736206
12.411985 -0.877305 -0.736206
12.712185 -0.877305 -7.757586
14.711785 -0.877305 -7.736176
8.668185 -6.772205 14.263794
10.892985 -1.530805 14.263794
10.892985 -1.530805 13.263794
8.668185 -6.772205 13.263794
-12.546155 -0.877305 -7.757586
-12.245925 -0.877305 -0.736206
-14.245695 -0.877305 -0.736206
-14.545695 -0.877305 -7.736176
-13.917485 0.622695 13.263794
-13.143225 4.822395 13.263794
-8.971115 10.747995 13.263794
-9.809515 11.347895 13.263794
-14.169185 4.922795 13.263794
-14.960495 1.087795 13.263794
-13.500075 -6.538205 13.263794
-8.422315 -12.412305 13.263794
-4.922815 -14.169205 13.263794
2.821285 -14.732305 13.263794
9.809485 -11.347905 13.263794
14.169185 -4.922805 13.263794
14.732285 2.821295 13.263794
11.347885 9.809495 13.263794
4.922785 14.169195 13.263794
-2.821315 14.732295 13.263794
-6.538215 13.500095 13.263794
-0.666915 14.201395 13.263794
0.833085 14.201395 13.263794
0.833085 13.926095 13.263794
1.256385 13.943495 13.263794
8.059785 11.447295 13.263794
10.747985 8.971195 13.263794
13.793585 2.395295 13.263794
13.866385 0.622695 13.263794
14.411785 0.622695 13.263794
14.411785 -0.877305 13.263794
13.927985 -0.877305 13.263794
11.447285 -8.059805 13.263794
5.883685 -12.703605 13.263794
0.833085 -13.857705 13.263794
0.833085 -14.456105 13.263794
-0.666915 -14.456105 13.263794
-0.666915 -13.919305 13.263794
-4.822415 -13.143205 13.263794
-10.747915 -8.971205 13.263794
-13.793565 -2.395305 13.263794
-13.855895 -0.877305 13.263794
-14.245695 -0.877305 13.263794
-14.245695 0.622695 13.263794
-0.666915 12.201595 -0.736206
-0.666915 14.201395 -0.736206
-0.666915 14.501395 -7.736176
-0.666915 12.501895 -7.757586
-12.745695 0.622695 -0.736206
-12.745695 -0.877305 -0.736206
-12.245925 -0.877305 -0.736206
-12.245925 0.622695 -0.736206
11.447285 -8.059805 13.263794
13.927985 -0.877305 13.263794
14.411785 -0.877305 13.263794
14.411785 0.622695 13.263794
13.866385 0.622695 13.263794
13.793585 2.395295 13.263794
10.747985 8.971195 13.263794
8.059785 11.447295 13.263794
1.256385 13.943495 13.263794
0.833085 13.926095 13.263794
0.833085 14.201395 13.263794
-0.666915 14.201395 13.263794
-0.666915 13.864595 13.263794
-2.395315 13.793595 13.263794
-8.971115 10.747995 13.263794
-13.143225 4.822395 13.263794
-13.917485 0.622695 13.263794
-14.245695 0.622695 13.263794
-14.245695 -0.877305 13.263794
-13.855895 -0.877305 13.263794
-14.960495 1.087795 13.263794
-14.169185 4.922795 13.263794
-9.809515 11.347895 13.263794
-2.821315 14.732295 13.263794
4.922785 14.169195 13.263794
11.347885 9.809495 13.263794
14.732285 2.821295 13.263794
14.169185 -4.922805 13.263794
9.809485 -11.347905 13.263794
2.821285 -14.732305 13.263794
-4.922815 -14.169205 13.263794
-4.822415 -13.143205 13.263794
-0.666915 -13.919305 13.263794
-0.666915 -14.456105 13.263794
0.833085 -14.456105 13.263794
0.833085 -13.857705 13.263794
5.883685 -12.703605 13.263794
-14.245695 -0.877305 -0.736206
-14.245695 0.622695 -0.736206
-14.545695 0.622695 -7.736176
-14.545695 -0.877305 -7.736176
-0.666915 12.501895 -7.757586
-0.666915 14.501395 -7.736176
-0.666915 15.401395 -14.736175
-0.666915 13.626795 -14.727400
8.059785 11.447295 13.263794
8.059785 11.447295 11.263794
21.888784 -8.551705 14.313795
14.680385 -18.350405 14.313795
3.538385 -23.232105 14.313795
-8.551715 -21.888805 14.313795
-18.350365 -14.680405 14.313795
-23.232075 -3.538405 14.313795
-23.356264 2.595095 14.313795
-18.929585 13.925595 14.313795
-9.430715 21.524685 14.313795
2.595085 23.356285 14.313795
13.925585 18.929605 14.313795
21.524685 9.430795 14.313795
23.356285 -2.595105 14.313795
0.833085 12.501895 -7.757586
0.833085 13.626795 -14.727400
0.833085 15.401395 -14.736175
0.833085 14.501395 -7.736176
-13.636065 -0.877305 -14.727611
-15.445695 -0.877305 -14.736175
-15.445695 0.622695 -14.736175
-13.636065 0.622695 -14.727611
14.711785 0.622695 -7.736176
14.711785 -0.877305 -7.736176
15.611785 -0.877305 -14.736175
15.611785 0.622695 -14.736175
6.772285 8.668195 13.263794
6.772285 8.668195 14.263794
13.143285 -4.822405 13.263794
11.447285 -8.059805 13.263794
11.447285 -8.059805 11.263794
13.143285 -4.822405 11.263794
-23.964384 -1.306905 14.813795
-20.100300 -13.114005 14.813795
-16.021235 -17.869505 14.813795
-4.940015 -23.486105 14.813795
1.306885 -23.964405 14.813795
13.113985 -20.100306 14.813795
21.407286 -10.850305 14.813795
23.486086 -4.940005 14.813795
22.809586 7.464895 14.813795
16.021284 17.869535 14.813795
4.940085 23.486095 14.813795
-1.306915 23.964405 14.813795
-13.114015 20.100325 14.813795
-17.869505 16.021296 14.813795
-23.486074 4.940095 14.813795
-0.666915 -12.956105 -0.736206
0.833085 -12.956105 -0.736206
0.833085 -12.456305 -0.736206
-0.666915 -12.456305 -0.736206
4.922785 14.169195 13.263794
4.922785 14.169195 14.263794
0.833085 -14.756105 -7.736176
0.833085 -14.456105 -0.736206
-0.666915 -14.456105 -0.736206
-0.666915 -14.756105 -7.736176
-1.256315 -13.943505 11.263794
-1.256315 -13.943505 13.263794
-4.822415 -13.143205 13.263794
-4.822415 -13.143205 11.263794
-1.195415 -12.442705 13.263794
-1.195415 -12.442705 11.263794
-7.256615 -10.178005 11.263794
-7.256615 -10.178005 13.263794
14.732285 2.821295 14.263794
11.347885 9.809495 14.263794
4.922785 14.169195 14.263794
-2.821315 14.732295 14.263794
-9.809515 11.347895 14.263794
-14.169185 4.922795 14.263794
-14.960495 1.087795 14.263794
-13.500075 -6.538205 14.263794
-8.422315 -12.412305 14.263794
-4.922815 -14.169205 14.263794
2.821285 -14.732305 14.263794
9.809485 -11.347905 14.263794
12.412285 -8.422305 14.263794
8.668185 -6.772205 14.263794
4.120685 -10.199005 14.263794
1.340585 -10.918005 14.263794
-4.298015 -10.125605 14.263794
-8.784915 -6.620005 14.263794
-10.199015 -4.120705 14.263794
-10.892945 1.530895 14.263794
-8.668115 6.772295 14.263794
-6.620015 8.784995 14.263794
-1.340615 10.917995 14.263794
1.530885 10.892995 14.263794
6.772285 8.668195 14.263794
8.784985 6.619995 14.263794
10.917985 1.340595 14.263794
10.125585 -4.298005 14.263794
14.169185 -4.922805 14.263794
-14.169185 4.922795 14.263794
-14.169185 4.922795 13.263794
5.883685 -12.703605 13.263794
5.883685 -12.703605 11.263794
5.186085 -11.373405 11.263794
5.186085 -11.373405 13.263794
-9.643615 -7.953005 13.263794
-9.643615 -7.953005 11.263794
4.940085 23.486095 14.813795
16.021284 17.869535 14.813795
22.809586 7.464895 14.813795
23.486086 -4.940005 14.813795
21.407286 -10.850305 14.813795
13.113985 -20.100306 14.813795
1.306885 -23.964405 14.813795
-4.940015 -23.486105 14.813795
-16.021235 -17.869505 14.813795
-20.100300 -13.114005 14.813795
-23.964384 -1.306905 14.813795
-23.486074 4.940095 14.813795
-17.869505 16.021296 14.813795
-13.114015 20.100325 14.813795
-1.306915 23.964405 14.813795
12.583085 0.372695 -4.736206
12.583085 -0.627305 -4.736206
12.583085 -0.627305 -5.736175
12.583085 0.372695 -5.736175
-12.416965 0.372695 -4.736206
12.583085 0.372695 -4.736206
12.583085 0.372695 -5.736175
-12.416965 0.372695 -5.736175
0.583085 0.372695 -5.736175
-0.416915 0.372695 -5.736175
-0.416915 12.372695 -5.736175
0.583085 12.372695 -5.736175
-12.416965 -0.627305 -4.736206
-12.416965 -0.627305 -5.736175
12.583085 -0.627305 -5.736175
12.583085 -0.627305 -4.736206
0.583085 -12.627305 -5.736175
-0.416915 -12.627305 -5.736175
-0.416915 -0.627305 -5.736175
-12.416965 -0.627305 -5.736175
-12.416965 0.372695 -5.736175
12.583085 0.372695 -5.736175
12.583085 -0.627305 -5.736175
0.583085 -0.627305 -5.736175
0.833085 13.001395 -7.736176
-0.666915 13.001395 -7.736176
-0.666915 14.501395 -7.736176
0.833085 14.501395 -7.736176
-12.416965 -0.627305 -4.736206
-12.416965 0.372695 -4.736206
-12.416965 0.372695 -5.736175
-12.416965 -0.627305 -5.736175
-0.416915 -12.627305 -5.736175
-0.416915 -12.627305 -4.736206
-0.416915 12.372695 -4.736206
-0.416915 12.372695 -5.736175
-12.245925 -0.877305 -0.736206
-12.245695 -0.877305 13.263794
-14.245695 -0.877305 13.263794
-14.245695 -0.877305 -0.736206
-0.666915 -14.456105 13.263794
-0.666915 -12.456105 13.263794
-0.666915 -12.456305 -0.736206
-0.666915 -14.456105 -0.736206
-0.666915 12.201395 13.263794
-0.666915 14.201395 13.263794
-0.666915 14.201395 -0.736206
-0.666915 12.201595 -0.736206
0.833085 -14.456105 -0.736206
-0.666915 -14.456105 -0.736206
-0.666915 -12.956105 -0.736206
0.833085 -12.956105 -0.736206
0.583085 -12.627305 -5.736175
0.583085 -12.627305 -4.736206
-0.416915 -12.627305 -4.736206
-0.416915 -12.627305 -5.736175
-0.416915 0.372695 -4.736206
0.583085 0.372695 -4.736206
0.583085 12.372695 -4.736206
-0.416915 12.372695 -4.736206
0.833085 12.201595 -0.736206
0.833085 12.201395 13.263794
-0.666915 12.201395 13.263794
-0.666915 12.201595 -0.736206
0.833085 -12.456105 13.263794
0.833085 -12.456305 -0.736206
-0.666915 -12.456305 -0.736206
-0.666915 -12.456105 13.263794
0.833085 -14.456105 -0.736206
0.833085 -14.456105 13.263794
-0.666915 -14.456105 13.263794
-0.666915 -14.456105 -0.736206
0.833085 14.501395 -7.736176
-0.666915 14.501395 -7.736176
-0.666915 13.001395 -7.736176
0.833085 13.001395 -7.736176
0.833085 14.201395 13.263794
0.833085 12.201395 13.263794
14.411785 0.622695 -0.736206
14.411785 -0.877305 -0.736206
12.911785 -0.877305 -0.736206
12.911785 0.622695 -0.736206
0.833085 -12.456105 13.263794
0.833085 -14.456105 13.263794
-13.045695 -0.877305 -7.736176
-14.545695 -0.877305 -7.736176
-14.545695 0.622695 -7.736176
-13.045695 0.622695 -7.736176
-12.745695 0.622695 -0.736206
-12.745695 -0.877305 -0.736206
-14.245695 -0.877305 -0.736206
-14.245695 0.622695 -0.736206
12.911785 0.622695 -0.736206
12.911785 -0.877305 -0.736206
14.411785 -0.877305 -0.736206
14.411785 0.622695 -0.736206
13.211785 0.622695 -7.736176
13.211785 -0.877305 -7.736176
14.711785 -0.877305 -7.736176
14.711785 0.622695 -7.736176
12.411985 -0.877305 -0.736206
12.411985 0.622695 -0.736206
12.712185 0.622695 -7.757586
12.712185 -0.877305 -7.757586
-0.666915 -13.256105 -7.736176
0.833085 -13.256105 -7.736176
0.833085 -12.756505 -7.757586
-0.666915 -12.756505 -7.757586
14.411785 0.622695 -0.736206
12.411985 0.622695 -0.736206
12.411785 0.622695 13.263794
14.411785 0.622695 13.263794
-0.666915 -13.862105 -14.813795
-0.666915 -15.656105 -14.736175
-13.045695 0.622695 -7.736176
-14.545695 0.622695 -7.736176
-14.545695 -0.877305 -7.736176
-13.045695 -0.877305 -7.736176
-14.245695 -0.877305 13.263794
-14.245695 0.622695 13.263794
-14.245695 0.622695 -0.736206
-14.245695 -0.877305 -0.736206
-2.395315 13.793595 13.263794
-0.666915 13.864595 13.263794
-14.245695 0.622695 -0.736206
-12.245925 0.622695 -0.736206
-12.546155 0.622695 -7.757586
-14.545695 0.622695 -7.736176
-14.545695 -0.877305 -7.736176
-15.445695 -0.877305 -14.736175
-13.636065 -0.877305 -14.727611
-12.546155 -0.877305 -7.757586
-14.245695 -0.877305 13.263794
-14.245695 0.622695 13.263794
-12.245695 0.622695 13.263794
-12.245695 -0.877305 13.263794
-12.245925 0.622695 -0.736206
-12.245925 -0.877305 -0.736206
-12.546155 -0.877305 -7.757586
-12.546155 0.622695 -7.757586
12.712185 -0.877305 -7.757586
12.712185 0.622695 -7.757586
13.817785 0.622695 -14.737718
13.817785 -0.877305 -14.737718
13.817785 -0.877305 -14.737718
15.611785 -0.877305 -14.736175
14.711785 -0.877305 -7.736176
12.712185 -0.877305 -7.757586
-12.546155 0.622695 -7.757586
-12.546155 -0.877305 -7.757586
-13.636065 -0.877305 -14.727611
-13.636065 0.622695 -14.727611
-14.545695 0.622695 -7.736176
-12.546155 0.622695 -7.757586
-13.636065 0.622695 -14.727611
-15.445695 0.622695 -14.736175
-23.356264 2.595095 14.313795
-23.232075 -3.538405 14.313795
-18.350365 -14.680405 14.313795
-8.551715 -21.888805 14.313795
3.538385 -23.232105 14.313795
14.680385 -18.350405 14.313795
21.888784 -8.551705 14.313795
23.356285 -2.595105 14.313795
21.524685 9.430795 14.313795
13.925585 18.929605 14.313795
2.595085 23.356285 14.313795
-9.430715 21.524685 14.313795
-18.929585 13.925595 14.313795
-23.486074 4.940095 14.813795
-23.356264 2.595095 14.313795
-23.964384 -1.306905 14.813795
-23.232075 -3.538405 14.313795
-21.888765 8.551695 14.313795
-22.809555 -7.464805 14.813795
-21.407225 10.850395 14.813795
-21.524658 -9.430705 14.313795
-18.929585 13.925595 14.313795
-20.100300 -13.114005 14.813795
-17.869505 16.021296 14.813795
-18.350365 -14.680405 14.313795
-14.680375 18.350395 14.313795
-16.021235 -17.869505 14.813795
-13.114015 20.100325 14.813795
-13.925535 -18.929605 14.313795
-9.430715 21.524685 14.313795
-10.850355 -21.407206 14.813795
-7.464815 22.809574 14.813795
-8.551715 -21.888805 14.313795
-3.538415 23.232096 14.313795
-4.940015 -23.486105 14.813795
-1.306915 23.964405 14.813795
-2.595115 -23.356304 14.313795
2.595085 23.356285 14.313795
1.306885 -23.964405 14.813795
4.940085 23.486095 14.813795
3.538385 -23.232105 14.313795
8.551685 21.888784 14.313795
7.464885 -22.809505 14.813795
10.850385 21.407246 14.813795
9.430785 -21.524605 14.313795
13.925585 18.929605 14.313795
13.113985 -20.100306 14.813795
16.021284 17.869535 14.813795
14.680385 -18.350405 14.313795
18.350386 14.680395 14.313795
17.869486 -16.021206 14.813795
20.100285 13.113995 14.813795
18.929585 -13.925505 14.313795
21.524685 9.430795 14.313795
21.407286 -10.850305 14.813795
22.809586 7.464895 14.813795
21.888784 -8.551705 14.313795
23.232084 3.538395 14.313795
23.486086 -4.940005 14.813795
23.964384 1.306895 14.813795
23.356285 -2.595105 14.313795
-23.964384 -1.306905 14.813795
-23.356264 2.595095 14.313795
-23.486074 4.940095 14.813795
-23.232075 -3.538405 14.313795
-21.888765 8.551695 14.313795
-22.809555 -7.464805 14.813795
-21.407225 10.850395 14.813795
-21.524658 -9.430705 14.313795
-18.929585 13.925595 14.313795
-20.100300 -13.114005 14.813795
-17.869505 16.021296 14.813795
-18.350365 -14.680405 14.313795
-14.680375 18.350395 14.313795
-16.021235 -17.869505 14.813795
-13.114015 20.100325 14.813795
-13.925535 -18.929605 14.313795
-9.430715 21.524685 14.313795
-10.850355 -21.407206 14.813795
-7.464815 22.809574 14.813795
-8.551715 -21.888805 14.313795
-3.538415 23.232096 14.313795
-4.940015 -23.486105 14.813795
-1.306915 23.964405 14.813795
-2.595115 -23.356304 14.313795
2.595085 23.356285 14.313795
1.306885 -23.964405 14.813795
4.940085 23.486095 14.813795
3.538385 -23.232105 14.313795
8.551685 21.888784 14.313795
7.464885 -22.809505 14.813795
10.850385 21.407246 14.813795
9.430785 -21.524605 14.313795
13.925585 18.929605 14.313795
13.113985 -20.100306 14.813795
16.021284 17.869535 14.813795
14.680385 -18.350405 14.313795
18.350386 14.680395 14.313795
17.869486 -16.021206 14.813795
20.100285 13.113995 14.813795
18.929585 -13.925505 14.313795
21.524685 9.430795 14.313795
21.407286 -10.850305 14.813795
22.809586 7.464895 14.813795
21.888784 -8.551705 14.313795
23.232084 3.538395 14.313795
23.486086 -4.940005 14.813795
23.964384 1.306895 14.813795
23.356285 -2.595105 14.313795
4 0 1 2 3
8 4 5 6 7 8 9 10 11
4 12 13 14 15
4 16 17 18 19
4 20 21 22 23
4 24 25 26 27
4 28 29 30 31
4 32 33 34 35
4 36 37 38 39
4 40 41 42 43
4 44 45 46 47
4 48 49 50 51
4 52 53 54 55
4 56 57 58 59
4 60 61 62 63
4 64 65 66 67
4 68 69 70 71
4 72 73 74 75
4 76 77 78 79
4 80 81 82 83
4 84 85 86 87
4 88 89 73 72
4 90 91 92 93
4 94 95 96 97
4 75 74 98 99
4 100 101 102 103
4 104 105 106 107
27 108 109 110 111 112 113 114 115 116 117 118 119 120 121 122 123 124 125 126 127 128 129 130 131 132 133 134
4 135 136 137 138
4 139 140 141 142
4 143 144 145 146
4 147 148 149 150
4 151 152 153 154
4 155 156 157 158
4 159 160 161 162
4 163 164 165 166
4 167 168 169 170
4 106 21 20 107
4 171 172 173 174
4 175 176 177 178
4 179 180 181 182
4 183 184 185 186
4 57 187 188 58
4 189 190 191 192
4 193 194 195 196
4 197 198 199 200
4 201 202 203 204
4 205 206 207 208
4 209 210 211 212
4 213 214 215 216
4 217 218 219 220
4 221 222 223 224
4 225 226 99 98
4 227 228 229 230
4 126 125 113 112
4 231 232 233 234
4 60 63 188 187
37 235 236 237 238 239 240 241 242 243 244 245 246 247 248 249 250 54 53 251 252 253 254 255 256 257 258 259 260 261 262 52 55 263 264 265 266 267
4 268 23 22 269
4 62 61 152 151
4 270 271 272 273
4 274 275 276 277
4 278 279 280 281
4 143 146 165 164
4 282 283 284 285
4 35 34 286 287
4 288 289 290 291
4 292 293 294 295
4 296 297 298 299
4 300 301 287 286
4 160 302 303 161
4 304 305 306 307
4 308 309 310 311
4 312 313 314 315
4 316 317 318 319
4 320 321 322 323
4 324 325 326 327
40 328 329 330 331 332 333 334 335 336 337 338 339 340 341 342 343 344 345 346 347 348 349 350 351 352 353 354 355 356 357 358 359 360 361 362 363 364 365 366 367
4 368 369 370 371
4 372 373 374 375
41 376 377 378 379 380 381 382 383 384 385 386 387 388 389 390 391 392 393 394 395 228 227 396 397 398 399 400 401 402 403 404 405 406 230 229 407 408 409 410 411 412
4 413 414 415 416
4 417 418 419 420
4 421 422 90 93
13 423 424 425 426 427 428 429 430 431 432 433 434 435
4 436 437 438 439
4 440 441 442 443
4 444 445 446 447
4 448 449 89 88
4 450 451 452 453
15 454 455 456 457 458 459 460 461 462 463 464 465 466 467 468
4 469 470 471 472
4 59 473 474 56
4 475 476 477 478
4 148 449 448 149
4 479 480 481 482
4 483 484 485 486
29 487 488 489 490 491 492 493 494 495 496 497 498 499 500 501 502 503 504 505 506 507 508 509 510 511 512 513 514 515
4 321 147 150 322
4 500 499 515 514
4 271 450 453 272
4 32 282 285 33
4 37 516 517 38
4 451 518 519 452
4 520 484 483 521
4 473 278 281 474
4 159 162 520 521
4 283 522 523 284
4 486 485 523 522
15 524 525 526 527 528 529 530 531 532 533 534 535 536 537 538
4 301 300 303 302
4 36 39 154 153
4 539 540 541 542
4 543 544 545 546
4 91 145 144 92
4 547 548 549 550
4 551 552 553 554
8 555 556 557 558 559 560 561 562
4 563 564 565 566
4 567 568 569 570
4 571 572 573 574
4 575 576 577 578
4 579 580 581 582
4 583 584 585 586
4 587 588 589 590
4 591 592 593 594
4 595 596 597 598
4 599 600 601 602
4 603 604 605 606
4 607 608 609 610
4 611 612 613 614
4 615 616 210 209
4 617 618 619 620
4 139 142 621 622
4 623 624 625 626
4 627 628 629 630
4 631 632 633 634
4 635 636 637 638
4 480 479 519 518
4 639 640 641 642
4 643 644 645 646
4 647 648 649 650
4 582 581 651 652
4 653 654 655 656
4 482 481 163 166
4 657 658 659 660
6 344 331 330 661 662 345
4 663 664 665 666
4 667 668 669 670
4 105 104 320 323
4 671 672 673 674
4 675 676 677 678
4 679 680 681 682
4 280 279 517 516
4 683 684 685 686
4 270 273 422 421
4 687 688 689 690
4 691 692 693 694
13 695 696 697 698 699 700 701 702 703 704 705 706 707
3 708 709 710
3 711 710 709
3 709 708 712
3 710 711 713
3 714 712 708
3 715 713 711
3 712 714 716
3 713 715 717
3 718 716 714
3 719 717 715
3 716 718 720
3 717 719 721
3 722 720 718
3 723 721 719
3 720 722 724
3 725 721 723
3 726 724 722
3 727 725 723
3 724 726 728
3 729 725 727
3 730 728 726
3 729 727 731
3 728 730 732
3 733 729 731
3 734 732 730
3 733 731 735
3 736 732 734
3 737 733 735
3 738 736 734
3 735 739 737
3 740 736 738
3 741 737 739
3 742 740 738
3 739 743 741
3 744 740 742
3 745 741 743
3 746 744 742
3 743 747 745
3 748 744 746
3 745 747 749
3 750 748 746
3 747 751 749
3 752 748 750
3 749 751 753
3 754 752 750
3 751 755 753
3 755 752 754
3 753 755 754
3 756 757 758
3 757 756 759
3 760 758 757
3 761 759 756
3 758 760 762
3 759 761 763
3 764 762 760
3 765 763 761
3 762 764 766
3 763 765 767
3 768 766 764
3 769 767 765
3 766 768 770
3 767 769 771
3 772 770 768
3 771 769 773
3 770 772 774
3 771 773 775
3 776 774 772
3 775 773 777
3 774 776 778
3 779 775 777
3 780 778 776
3 779 777 781
3 778 780 782
3 783 779 781
3 782 780 784
3 783 781 785
3 782 784 786
3 785 787 783
3 786 784 788
3 787 785 789
3 786 788 790
3 789 791 787
3 790 788 792
3 791 789 793
3 790 792 794
3 793 795 791
3 794 792 796
3 797 795 793
3 794 796 798
3 797 799 795
3 798 796 800
3 801 799 797
3 798 800 802
3 801 803 799
3 802 800 803
3 802 803 801
4 225 268 269 226
