ply
format ascii 1.0
comment Created by Blender 2.82 (sub 7) - www.blender.org, source file: ''
element vertex 303
property float x
property float y
property float z
element face 74
property list uchar uint vertex_indices
end_header
-10.625000 -22.750000 6.570000
-10.625000 -3.062500 6.570000
-10.625000 -3.062500 0.750000
-10.625000 -22.750000 0.750000
9.737500 -22.500000 6.570000
9.737500 -22.500000 1.570000
-10.375000 -22.500000 1.570000
-10.375000 -22.500000 6.570000
7.500000 -17.750000 -0.125000
7.500000 17.750000 -0.125000
7.500000 17.750000 -2.125000
7.500000 -17.750000 -2.125000
10.625000 22.750000 6.750000
-10.625000 22.750000 6.750000
-10.625000 22.750000 7.625000
10.625000 22.750000 7.625000
10.625000 22.750000 7.875000
11.500000 22.750000 7.875000
11.500000 22.750000 -0.125000
-11.500000 22.750000 -0.125000
-11.500000 22.750000 7.875000
-10.625000 22.750000 7.875000
-10.625000 22.750000 0.750000
10.625000 22.750000 0.750000
9.737500 -3.312500 1.570000
9.737500 -3.312500 6.570000
-10.375000 -3.312500 6.570000
-10.375000 -3.312500 1.570000
8.500000 18.750000 -0.125000
8.500000 18.750000 -7.875000
-8.500000 18.750000 -7.875000
-8.500000 18.750000 -0.125000
7.500000 -17.750000 -2.125000
8.500000 -17.750000 -2.125000
8.500000 -17.750000 -6.875000
-8.500000 -17.750000 -6.875000
-8.500000 -17.750000 -2.125000
-7.500000 -17.750000 -2.125000
-7.500000 -17.750000 -0.125000
7.500000 -17.750000 -0.125000
9.737500 3.312500 6.570000
-10.375000 3.312500 6.570000
-10.375000 22.500000 6.570000
-10.625000 22.750000 6.570000
-10.625000 3.062500 6.570000
9.987500 3.062500 6.570000
9.987500 22.750000 6.570000
9.737500 22.500000 6.570000
10.625000 -22.750000 7.625000
10.625000 -22.750000 7.875000
-10.625000 -22.750000 7.875000
-10.625000 -22.750000 7.625000
-11.500000 -22.750000 -0.125000
-8.500000 -18.750000 -0.125000
8.500000 -18.750000 -0.125000
8.500000 17.750000 -0.125000
11.500000 -22.750000 -0.125000
9.987500 -22.750000 6.570000
9.737500 -22.500000 6.570000
-10.375000 -22.500000 6.570000
-10.625000 -22.750000 6.570000
11.500000 -23.750000 -0.125000
11.500000 -23.750000 7.875000
-11.500000 -23.750000 7.875000
-11.500000 -23.750000 -0.125000
-7.500000 17.750000 -0.125000
-7.500000 -17.750000 -0.125000
-7.500000 -17.750000 -2.125000
-7.500000 17.750000 -2.125000
-10.625000 22.750000 0.750000
-10.625000 22.750000 6.570000
-11.500000 22.750000 7.875000
-11.500000 22.750000 -0.125000
11.500000 22.750000 -0.125000
11.500000 22.750000 7.875000
9.987500 22.750000 6.570000
9.987500 22.750000 0.750000
8.500000 17.750000 -6.875000
8.500000 17.750000 -2.125000
7.500000 17.750000 -2.125000
7.500000 17.750000 -0.125000
-7.500000 17.750000 -0.125000
-7.500000 17.750000 -2.125000
-8.500000 17.750000 -2.125000
-8.500000 17.750000 -6.875000
-11.500000 23.750000 -0.125000
-11.500000 23.750000 7.875000
11.500000 23.750000 7.875000
11.500000 23.750000 -0.125000
11.500000 22.750000 -0.125000
11.500000 23.750000 -0.125000
11.500000 23.750000 7.875000
11.500000 22.750000 7.875000
-7.500000 -17.750000 -2.125000
-8.500000 -17.750000 -2.125000
-8.500000 17.750000 -2.125000
-7.500000 17.750000 -2.125000
11.500000 22.750000 -0.125000
-11.500000 22.750000 -0.125000
-11.500000 23.750000 -0.125000
11.500000 23.750000 -0.125000
-10.625000 -22.750000 0.750000
10.625000 -22.750000 0.750000
10.625000 22.750000 0.750000
-10.625000 22.750000 0.750000
-8.500000 18.750000 -0.125000
-11.500000 22.750000 -0.125000
11.500000 22.750000 -0.125000
8.500000 18.750000 -0.125000
-10.625000 22.750000 0.750000
-10.625000 3.062500 0.750000
-10.625000 3.062500 6.570000
-10.625000 22.750000 6.570000
10.625000 -22.750000 6.750000
-10.625000 -22.750000 6.750000
-10.625000 22.750000 6.750000
10.625000 22.750000 6.750000
-10.625000 -22.750000 7.875000
10.625000 -22.750000 7.875000
10.625000 22.750000 7.875000
-10.625000 22.750000 7.875000
-11.500000 -22.750000 7.875000
-10.625000 -22.750000 7.875000
-10.625000 22.750000 7.875000
-11.500000 22.750000 7.875000
-10.375000 3.312500 1.570000
9.737500 3.312500 1.570000
9.737500 22.500000 1.570000
-10.375000 22.500000 1.570000
-10.625000 22.750000 7.875000
-10.625000 -22.750000 7.875000
-10.625000 -22.750000 7.625000
-10.625000 22.750000 7.625000
-10.375000 22.500000 6.570000
-10.375000 22.500000 1.570000
9.737500 22.500000 1.570000
9.737500 22.500000 6.570000
11.500000 -23.750000 -0.125000
-11.500000 -23.750000 -0.125000
-11.500000 -22.750000 -0.125000
11.500000 -22.750000 -0.125000
-11.500000 23.750000 -0.125000
-11.500000 22.750000 -0.125000
-11.500000 22.750000 7.875000
-11.500000 23.750000 7.875000
-10.375000 3.312500 1.570000
-10.375000 3.312500 6.570000
9.737500 3.312500 6.570000
9.737500 3.312500 1.570000
8.500000 17.750000 -0.125000
-8.500000 17.750000 -0.125000
-8.500000 18.750000 -0.125000
8.500000 18.750000 -0.125000
9.737500 22.500000 1.570000
9.737500 3.312500 1.570000
9.737500 3.312500 6.570000
9.737500 22.500000 6.570000
8.500000 -18.750000 -0.125000
-8.500000 -18.750000 -0.125000
11.500000 -22.750000 7.875000
9.987500 -22.750000 6.570000
-10.625000 -22.750000 6.570000
-11.500000 -22.750000 7.875000
9.737500 -22.500000 6.570000
9.737500 -3.312500 6.570000
9.737500 -3.312500 1.570000
9.737500 -22.500000 1.570000
9.987500 3.062500 0.750000
-10.625000 3.062500 0.750000
-10.625000 22.750000 0.750000
9.987500 22.750000 0.750000
-10.625000 3.062500 6.570000
-10.625000 3.062500 0.750000
9.987500 3.062500 0.750000
9.987500 3.062500 6.570000
11.500000 -22.750000 7.875000
11.500000 -23.750000 7.875000
11.500000 -23.750000 -0.125000
11.500000 -22.750000 -0.125000
-8.500000 18.750000 -0.125000
-8.500000 17.750000 -2.125000
-8.500000 -17.750000 -2.125000
-8.500000 -17.750000 -6.875000
-8.500000 -18.750000 -7.875000
-8.500000 -18.750000 -0.125000
-8.500000 -17.750000 -6.875000
8.500000 -17.750000 -6.875000
8.500000 17.750000 -6.875000
-8.500000 17.750000 -6.875000
9.987500 3.062500 0.750000
9.987500 22.750000 0.750000
9.987500 22.750000 6.570000
9.987500 3.062500 6.570000
8.500000 -18.750000 -7.875000
-8.500000 -18.750000 -7.875000
-8.500000 18.750000 -7.875000
8.500000 18.750000 -7.875000
8.500000 -17.750000 -2.125000
7.500000 -17.750000 -2.125000
7.500000 17.750000 -2.125000
8.500000 17.750000 -2.125000
9.987500 -3.062500 6.570000
9.987500 -22.750000 6.570000
9.987500 -22.750000 0.750000
9.987500 -3.062500 0.750000
8.500000 18.750000 -0.125000
8.500000 -17.750000 -2.125000
8.500000 17.750000 -2.125000
8.500000 17.750000 -6.875000
8.500000 -18.750000 -7.875000
8.500000 18.750000 -7.875000
-8.500000 17.750000 -6.875000
-8.500000 18.750000 -7.875000
8.500000 -18.750000 -0.125000
8.500000 -17.750000 -6.875000
-11.500000 -23.750000 7.875000
-11.500000 -22.750000 7.875000
-11.500000 -22.750000 -0.125000
-11.500000 -23.750000 -0.125000
-11.500000 -23.750000 7.875000
11.500000 -23.750000 7.875000
11.500000 -22.750000 7.875000
-11.500000 -22.750000 7.875000
9.987500 -22.750000 0.750000
-10.625000 -22.750000 0.750000
-10.625000 -3.062500 0.750000
9.987500 -3.062500 0.750000
-11.500000 -22.750000 7.875000
-11.500000 22.750000 7.875000
-11.500000 22.750000 -0.125000
-11.500000 -22.750000 -0.125000
-10.375000 -3.312500 6.570000
9.737500 -3.312500 6.570000
9.987500 -3.062500 6.570000
-10.625000 -3.062500 6.570000
9.987500 -3.062500 6.570000
9.987500 -3.062500 0.750000
-10.625000 -3.062500 0.750000
-10.625000 -3.062500 6.570000
8.500000 -18.750000 -7.875000
8.500000 -18.750000 -0.125000
-8.500000 -18.750000 -0.125000
-8.500000 -18.750000 -7.875000
10.625000 22.750000 7.875000
10.625000 22.750000 7.625000
-10.625000 22.750000 7.625000
-10.625000 22.750000 7.875000
-10.375000 3.312500 1.570000
-10.375000 22.500000 1.570000
-10.375000 22.500000 6.570000
-10.375000 3.312500 6.570000
11.500000 22.750000 7.875000
11.500000 -22.750000 7.875000
11.500000 -22.750000 -0.125000
11.500000 22.750000 -0.125000
-10.625000 -22.750000 7.625000
10.625000 -22.750000 7.625000
10.625000 22.750000 7.625000
-10.625000 22.750000 7.625000
-10.625000 -22.750000 0.750000
9.987500 -22.750000 0.750000
11.500000 -22.750000 -0.125000
-11.500000 -22.750000 -0.125000
-10.625000 -22.750000 0.750000
-10.625000 -22.750000 7.875000
-11.500000 -22.750000 7.875000
-11.500000 -22.750000 -0.125000
11.500000 -22.750000 -0.125000
11.500000 -22.750000 7.875000
10.625000 -22.750000 7.875000
10.625000 -22.750000 7.625000
-10.625000 -22.750000 7.625000
-10.625000 -22.750000 6.750000
10.625000 -22.750000 6.750000
10.625000 -22.750000 0.750000
-10.375000 -3.312500 6.570000
-10.375000 -22.500000 6.570000
-10.375000 -22.500000 1.570000
-10.375000 -3.312500 1.570000
-10.375000 -22.500000 1.570000
9.737500 -22.500000 1.570000
9.737500 -3.312500 1.570000
-10.375000 -3.312500 1.570000
-11.500000 22.750000 7.875000
11.500000 22.750000 7.875000
11.500000 23.750000 7.875000
-11.500000 23.750000 7.875000
10.625000 -22.750000 7.875000
11.500000 -22.750000 7.875000
11.500000 22.750000 7.875000
10.625000 22.750000 7.875000
-10.625000 22.750000 6.750000
-10.625000 -22.750000 6.750000
-10.625000 -22.750000 0.750000
-10.625000 22.750000 0.750000
10.625000 -22.750000 7.875000
10.625000 22.750000 7.875000
10.625000 22.750000 7.625000
10.625000 -22.750000 7.625000
10.625000 -22.750000 6.750000
10.625000 22.750000 6.750000
10.625000 22.750000 0.750000
10.625000 -22.750000 0.750000
4 0 1 2 3
4 4 5 6 7
4 8 9 10 11
12 12 13 14 15 16 17 18 19 20 21 22 23
4 24 25 26 27
4 28 29 30 31
8 32 33 34 35 36 37 38 39
8 40 41 42 43 44 45 46 47
4 48 49 50 51
5 52 53 54 55 56
4 57 58 59 60
4 61 62 63 64
4 65 66 67 68
8 69 70 71 72 73 74 75 76
8 77 78 79 80 81 82 83 84
4 85 86 87 88
4 89 90 91 92
4 74 71 70 75
4 93 94 95 96
4 43 42 47 46
4 97 98 99 100
4 101 102 103 104
8 105 53 52 106 107 56 55 108
4 109 110 111 112
4 113 114 115 116
4 117 118 119 120
4 121 122 123 124
4 125 126 127 128
4 129 130 131 132
4 133 134 135 136
4 137 138 139 140
4 141 142 143 144
4 145 146 147 148
4 149 150 151 152
4 153 154 155 156
4 149 157 158 150
4 159 160 161 162
4 163 164 165 166
4 167 168 169 170
4 171 172 173 174
4 175 176 177 178
6 179 180 181 182 183 184
4 185 186 187 188
4 189 190 191 192
4 193 194 195 196
4 197 198 199 200
4 201 202 203 204
6 205 206 207 208 209 210
6 182 211 180 179 212 183
6 206 205 213 209 208 214
4 215 216 217 218
4 219 220 221 222
4 223 224 225 226
4 227 228 229 230
8 231 232 58 57 233 234 60 59
4 235 236 237 238
4 239 240 241 242
3 22 21 14
3 22 14 13
4 243 244 245 246
4 247 248 249 250
4 251 252 253 254
4 255 256 257 258
8 161 259 260 160 159 261 262 162
12 263 264 265 266 267 268 269 270 271 272 273 274
3 264 263 272
3 264 272 271
4 275 276 277 278
4 279 280 281 282
4 283 284 285 286
4 287 288 289 290
4 291 292 293 294
4 295 296 297 298
4 299 300 301 302
