ply
format ascii 1.0
comment Created by Blender 2.82 (sub 7) - www.blender.org, source file: ''
element vertex 384
property float x
property float y
property float z
element face 124
property list uchar uint vertex_indices
end_header
-16.732300 8.464579 -6.889750
-17.519701 8.464579 -6.889750
-17.519701 8.070879 -6.889750
-16.732300 8.070879 -6.889750
8.464501 -8.070801 4.921248
8.464501 16.732300 4.921248
8.070801 16.732300 4.921248
8.070801 -8.070801 4.921248
-8.464579 -16.732302 5.708650
-8.464579 -16.732302 4.921248
-8.464579 8.070879 4.921248
-8.464579 8.070879 5.708650
-17.519701 8.464579 6.889750
-16.732300 8.464579 6.889750
-16.732300 8.070879 6.889750
-17.519701 8.070879 6.889750
-8.464579 -17.519701 6.889750
-8.464579 -17.519701 -6.889750
-8.464579 -16.732302 -6.889750
-8.464579 -16.732302 6.889750
-8.070879 -8.464501 5.708650
-8.070879 -8.464501 4.921248
16.732302 -8.464501 4.921248
16.732302 -8.464501 5.708650
8.070801 8.464579 4.921248
8.070801 8.070879 4.921248
8.070801 8.070879 5.708650
8.070801 8.464579 5.708650
-17.519701 8.070879 -6.889750
-17.519701 8.464579 -6.889750
-17.519701 8.464579 6.889750
-17.519701 8.070879 6.889750
-8.070879 -16.732302 5.708650
-8.070879 8.070879 5.708650
-8.464579 8.070879 5.708650
-8.464579 -16.732302 5.708650
8.464501 16.732300 4.921248
8.070801 16.732300 4.921248
8.070801 16.732300 -6.889750
8.464501 16.732300 -6.889750
-8.070879 -8.070801 4.921248
-8.070879 -8.070801 5.708650
16.732302 -8.070801 5.708650
16.732302 -8.070801 4.921248
16.732302 16.732300 6.496052
16.732302 16.732300 5.708650
-16.732300 16.732300 5.708650
-16.732300 16.732300 6.496052
-17.519701 8.464579 6.889750
-17.519701 8.464579 -6.889750
-16.732300 8.464579 -6.889750
-16.732300 8.464579 6.889750
-8.070879 8.070879 4.921248
-8.070879 8.070879 5.708650
-8.070879 -16.732302 5.708650
-8.070879 -16.732302 4.921248
-8.070879 -8.464501 5.708650
-8.070879 -8.070801 5.708650
-8.070879 -8.070801 4.921248
-8.070879 -8.464501 4.921248
16.732302 -8.464501 6.889750
16.732302 -8.464501 -6.889750
17.519701 -8.464501 -6.889750
17.519701 -8.464501 6.889750
-16.732300 8.464579 -6.889750
-16.732300 8.464579 6.889750
-16.732300 8.464579 5.708650
-16.732300 8.464579 4.921248
16.732302 -16.732302 5.708650
-16.732300 -16.732302 5.708650
-16.732300 16.732300 5.708650
16.732302 16.732300 5.708650
8.464501 -8.070801 5.708650
8.464501 -8.070801 4.921248
8.464501 16.732300 4.921248
8.464501 16.732300 5.708650
-17.519701 8.070879 -6.889750
-17.519701 8.070879 6.889750
-16.732300 8.070879 6.889750
-16.732300 8.070879 -6.889750
8.070801 17.519701 6.889750
8.464501 17.519701 6.889750
8.464501 17.519701 -6.889750
8.070801 17.519701 -6.889750
8.070801 16.732300 -6.889750
8.070801 16.732300 6.889750
8.070801 17.519701 6.889750
8.070801 17.519701 -6.889750
16.732302 -16.732302 5.708650
16.732302 -16.732302 6.496052
-16.732300 -16.732302 6.496052
-16.732300 -16.732302 5.708650
8.464501 -8.070801 5.708650
8.070801 -8.070801 5.708650
8.070801 -8.070801 4.921248
8.464501 -8.070801 4.921248
-16.732300 -16.732302 6.496052
-16.732300 16.732300 6.496052
-16.732300 16.732300 5.708650
-16.732300 -16.732302 5.708650
-8.464579 8.070879 4.921248
-8.070879 8.070879 4.921248
-8.070879 8.070879 5.708650
-8.464579 8.070879 5.708650
-16.732300 8.070879 6.889750
-16.732300 8.070879 -6.889750
-16.732300 8.070879 4.921248
-16.732300 8.070879 5.708650
-16.732300 8.464579 4.921248
-16.732300 8.464579 5.708650
-8.464579 8.070879 4.921248
-8.464579 -16.732302 4.921248
-8.070879 -16.732302 4.921248
-8.070879 8.070879 4.921248
16.732302 -8.464501 4.921248
16.732302 -8.070801 4.921248
16.732302 -8.070801 -6.889750
16.732302 -8.464501 -6.889750
-8.464579 -17.519701 6.889750
-8.464579 -16.732302 6.889750
-8.070879 -16.732302 6.889750
-8.070879 -17.519701 6.889750
-8.070879 -17.519701 -6.889750
-8.070879 -17.519701 6.889750
-8.070879 -16.732302 6.889750
-8.070879 -16.732302 -6.889750
8.070801 8.464579 5.708650
8.070801 8.464579 4.921248
-17.519701 8.464579 -6.889750
-17.519701 8.464579 6.889750
16.732302 16.732300 6.496052
16.732302 -16.732302 6.496052
16.732302 -16.732302 5.708650
16.732302 16.732300 5.708650
-8.464579 -16.732302 -6.889750
-8.070879 -16.732302 -6.889750
-8.070879 -16.732302 4.921248
-8.464579 -16.732302 4.921248
17.519701 -8.070801 6.889750
16.732302 -8.070801 6.889750
16.732302 -8.464501 6.889750
17.519701 -8.464501 6.889750
-16.732300 8.070879 5.708650
-16.732300 8.070879 4.921248
-16.732300 16.732300 6.496052
-16.732300 -16.732302 6.496052
16.732302 -16.732302 6.496052
16.732302 16.732300 6.496052
8.464501 16.732300 6.889750
8.070801 16.732300 6.889750
8.070801 16.732300 5.708650
8.464501 16.732300 5.708650
8.070801 8.464579 5.708650
8.070801 8.070879 5.708650
8.070801 8.070879 4.921248
8.070801 8.464579 4.921248
8.070801 8.070879 4.921248
-16.732300 8.070879 4.921248
-16.732300 8.464579 4.921248
8.070801 8.464579 4.921248
-8.464579 -16.732302 -6.889750
-8.464579 -16.732302 6.889750
-8.464579 -16.732302 5.708650
-8.464579 -16.732302 4.921248
-16.732300 -16.732302 5.708650
-16.732300 -16.732302 6.496052
16.732302 -16.732302 6.496052
16.732302 -16.732302 5.708650
-16.732300 8.464579 4.921248
-16.732300 8.070879 4.921248
-16.732300 8.070879 -6.889750
-16.732300 8.464579 -6.889750
8.464501 17.519701 6.889750
8.464501 17.519701 -6.889750
8.464501 16.732300 -6.889750
8.464501 16.732300 6.889750
8.464501 17.519701 6.889750
8.464501 16.732300 6.889750
8.070801 16.732300 6.889750
8.070801 17.519701 6.889750
8.464501 16.732300 5.708650
8.070801 16.732300 5.708650
8.070801 16.732300 6.889750
8.464501 16.732300 6.889750
-8.464579 8.070879 5.708650
-8.070879 8.070879 5.708650
-8.070879 8.070879 4.921248
-8.464579 8.070879 4.921248
-17.519701 8.070879 6.889750
-17.519701 8.464579 6.889750
-17.519701 8.464579 -6.889750
-17.519701 8.070879 -6.889750
-16.732300 -16.732302 5.708650
-16.732300 16.732300 5.708650
-16.732300 16.732300 6.496052
-16.732300 -16.732302 6.496052
16.732302 16.732300 5.708650
16.732302 -16.732302 5.708650
16.732302 -16.732302 6.496052
16.732302 16.732300 6.496052
8.070801 8.464579 4.921248
8.070801 8.464579 5.708650
-8.070879 -16.732302 6.889750
-8.070879 -16.732302 -6.889750
-8.070879 -17.519701 6.889750
-8.070879 -17.519701 -6.889750
-16.732300 16.732300 6.496052
16.732302 16.732300 6.496052
16.732302 -16.732302 6.496052
-16.732300 -16.732302 6.496052
8.070801 8.070879 4.921248
8.070801 8.070879 5.708650
16.732302 -8.070801 -6.889750
17.519701 -8.070801 -6.889750
17.519701 -8.464501 -6.889750
16.732302 -8.464501 -6.889750
-8.464579 -16.732302 5.708650
-8.464579 8.070879 5.708650
-8.070879 8.070879 5.708650
-8.070879 -16.732302 5.708650
-17.519701 8.070879 6.889750
-17.519701 8.070879 -6.889750
-8.464579 -16.732302 5.708650
-8.070879 -16.732302 5.708650
-8.070879 -16.732302 6.889750
-8.464579 -16.732302 6.889750
-16.732300 8.070879 5.708650
8.070801 8.070879 5.708650
8.070801 8.464579 5.708650
-16.732300 8.464579 5.708650
-16.732300 8.464579 6.889750
-16.732300 8.070879 6.889750
-16.732300 8.070879 5.708650
-16.732300 8.464579 5.708650
-16.732300 8.464579 5.708650
-16.732300 8.070879 5.708650
-16.732300 8.070879 6.889750
-16.732300 8.464579 6.889750
-8.070879 -16.732302 5.708650
-8.070879 -16.732302 4.921248
-16.732300 8.464579 5.708650
8.070801 8.464579 5.708650
8.070801 8.070879 5.708650
-16.732300 8.070879 5.708650
-8.070879 -17.519701 -6.889750
-8.464579 -17.519701 -6.889750
-8.464579 -17.519701 6.889750
-8.070879 -17.519701 6.889750
-8.070879 -8.070801 4.921248
16.732302 -8.070801 4.921248
16.732302 -8.464501 4.921248
-8.070879 -8.464501 4.921248
-16.732300 16.732300 6.496052
-16.732300 16.732300 5.708650
16.732302 16.732300 5.708650
16.732302 16.732300 6.496052
-16.732300 8.464579 -6.889750
-16.732300 8.070879 -6.889750
-16.732300 8.070879 4.921248
-16.732300 8.464579 4.921248
8.464501 16.732300 -6.889750
8.070801 16.732300 -6.889750
8.070801 16.732300 4.921248
8.464501 16.732300 4.921248
16.732302 -8.070801 5.708650
-8.070879 -8.070801 5.708650
-8.070879 -8.464501 5.708650
16.732302 -8.464501 5.708650
8.070801 8.464579 4.921248
-16.732300 8.464579 4.921248
-16.732300 8.070879 4.921248
8.070801 8.070879 4.921248
16.732302 -8.464501 6.889750
16.732302 -8.070801 6.889750
16.732302 -8.070801 5.708650
16.732302 -8.464501 5.708650
-8.070879 8.070879 5.708650
-8.070879 8.070879 4.921248
-8.464579 -16.732302 -6.889750
-8.464579 -17.519701 -6.889750
-8.070879 -17.519701 -6.889750
-8.070879 -16.732302 -6.889750
-17.519701 8.070879 6.889750
-16.732300 8.070879 6.889750
-16.732300 8.464579 6.889750
-17.519701 8.464579 6.889750
-8.070879 -17.519701 6.889750
-8.070879 -16.732302 6.889750
-8.464579 -16.732302 6.889750
-8.464579 -17.519701 6.889750
-8.464579 -17.519701 -6.889750
-8.464579 -17.519701 6.889750
16.732302 -8.070801 6.889750
16.732302 -8.070801 -6.889750
8.070801 16.732300 5.708650
8.070801 -8.070801 5.708650
8.464501 -8.070801 5.708650
8.464501 16.732300 5.708650
-8.464579 8.070879 5.708650
-8.464579 8.070879 4.921248
8.464501 16.732300 -6.889750
8.464501 16.732300 6.889750
16.732302 16.732300 5.708650
-16.732300 16.732300 5.708650
-16.732300 -16.732302 5.708650
16.732302 -16.732302 5.708650
8.070801 8.070879 5.708650
8.070801 8.070879 4.921248
8.464501 17.519701 -6.889750
8.464501 17.519701 6.889750
17.519701 -8.070801 6.889750
17.519701 -8.070801 -6.889750
8.464501 -8.070801 4.921248
8.070801 -8.070801 4.921248
8.070801 -8.070801 5.708650
8.464501 -8.070801 5.708650
8.070801 17.519701 6.889750
8.070801 16.732300 6.889750
8.464501 16.732300 6.889750
8.464501 17.519701 6.889750
-8.464579 -16.732302 6.889750
-8.070879 -16.732302 6.889750
-8.070879 -16.732302 5.708650
-8.464579 -16.732302 5.708650
8.464501 16.732300 -6.889750
8.464501 17.519701 -6.889750
8.070801 17.519701 -6.889750
8.070801 16.732300 -6.889750
-8.070879 -17.519701 6.889750
-8.464579 -17.519701 6.889750
-8.464579 -17.519701 -6.889750
-8.070879 -17.519701 -6.889750
8.464501 16.732300 5.708650
8.464501 -8.070801 5.708650
8.070801 -8.070801 5.708650
8.070801 16.732300 5.708650
8.070801 16.732300 4.921248
8.070801 16.732300 5.708650
8.464501 16.732300 4.921248
8.464501 16.732300 5.708650
-16.732300 8.070879 -6.889750
-17.519701 8.070879 -6.889750
-17.519701 8.464579 -6.889750
-16.732300 8.464579 -6.889750
-8.070879 -16.732302 -6.889750
-8.070879 -17.519701 -6.889750
-8.464579 -17.519701 -6.889750
-8.464579 -16.732302 -6.889750
-8.070879 8.070879 4.921248
-8.070879 -16.732302 4.921248
-8.464579 -16.732302 4.921248
-8.464579 8.070879 4.921248
-8.464579 -16.732302 4.921248
-8.070879 -16.732302 4.921248
-8.070879 -16.732302 -6.889750
-8.464579 -16.732302 -6.889750
8.464501 -8.070801 4.921248
8.464501 -8.070801 5.708650
8.070801 -8.070801 4.921248
8.070801 -8.070801 5.708650
8.070801 -8.070801 4.921248
8.070801 16.732300 4.921248
8.464501 16.732300 4.921248
8.464501 -8.070801 4.921248
17.519701 -8.070801 6.889750
17.519701 -8.464501 6.889750
17.519701 -8.464501 -6.889750
17.519701 -8.070801 -6.889750
8.070801 16.732300 -6.889750
8.070801 17.519701 -6.889750
8.464501 17.519701 -6.889750
8.464501 16.732300 -6.889750
8.070801 16.732300 5.708650
8.070801 16.732300 4.921248
8.070801 16.732300 6.889750
8.070801 16.732300 -6.889750
8.070801 17.519701 -6.889750
8.464501 17.519701 -6.889750
8.464501 17.519701 6.889750
8.070801 17.519701 6.889750
8.070801 17.519701 -6.889750
8.070801 17.519701 6.889750
8.070801 -8.070801 5.708650
8.070801 -8.070801 4.921248
4 0 1 2 3
4 4 5 6 7
4 8 9 10 11
4 12 13 14 15
4 16 17 18 19
4 20 21 22 23
4 24 25 26 27
4 28 29 30 31
4 32 33 34 35
4 36 37 38 39
4 40 41 42 43
4 44 45 46 47
4 48 49 50 51
4 52 53 54 55
4 56 57 58 59
4 60 61 62 63
3 64 65 66
3 64 66 67
4 68 69 70 71
4 72 73 74 75
4 76 77 78 79
4 80 81 82 83
4 84 85 86 87
4 88 89 90 91
4 92 93 94 95
4 96 97 98 99
4 100 101 102 103
3 104 105 106
3 104 106 107
3 108 109 50
3 109 51 50
4 110 111 112 113
4 114 115 116 117
4 118 119 120 121
4 122 123 124 125
4 126 127 67 66
4 65 64 128 129
4 130 131 132 133
4 134 135 136 137
4 138 139 140 141
3 142 143 78
3 143 79 78
4 144 145 146 147
4 148 149 150 151
4 152 153 154 155
4 156 157 158 159
3 160 161 162
3 160 162 163
4 164 165 166 167
4 168 169 170 171
4 172 173 174 175
4 176 177 178 179
4 180 181 182 183
4 184 185 186 187
4 188 189 190 191
4 192 193 194 195
4 196 197 198 199
4 109 108 200 201
3 202 203 55
3 202 55 54
3 9 8 18
3 8 19 18
4 203 202 204 205
4 206 207 208 209
4 210 211 107 106
4 212 213 214 215
4 216 217 218 219
4 105 104 220 221
4 222 223 224 225
4 226 227 228 229
4 230 231 232 233
4 234 235 236 237
3 238 239 124
3 239 125 124
4 240 241 242 243
4 244 245 246 247
4 248 249 250 251
4 252 253 254 255
3 61 60 23
3 61 23 22
4 256 257 258 259
4 260 261 262 263
4 264 265 266 267
4 268 269 270 271
4 272 273 274 275
4 239 238 276 277
4 278 279 280 281
4 282 283 284 285
4 286 287 288 289
4 161 160 290 291
3 292 293 43
3 292 43 42
4 294 295 296 297
4 298 299 163 162
3 300 301 75
3 300 75 74
4 302 303 304 305
4 143 142 306 307
4 301 300 308 309
4 293 292 310 311
4 312 313 314 315
4 316 317 318 319
4 320 321 322 323
4 324 325 326 327
4 328 329 330 331
4 332 333 334 335
3 85 84 336
3 85 336 337
3 338 339 174
3 339 175 174
4 340 341 342 343
4 344 345 346 347
4 348 349 350 351
4 352 353 354 355
4 339 338 356 357
4 358 359 337 336
4 360 361 362 363
4 364 365 366 367
4 368 369 370 371
3 372 373 374
3 373 375 374
4 376 377 378 379
4 380 381 374 375
4 373 372 382 383
