ply
format ascii 1.0
comment Created by Blender 2.82 (sub 7) - www.blender.org, source file: ''
element vertex 440
property float x
property float y
property float z
element face 110
property list uchar uint vertex_indices
end_header
-8.960190 21.470100 -0.590530
-8.960190 21.470100 -8.858250
-8.756390 21.470100 -8.858250
-8.756390 21.470100 -0.590530
14.763800 25.393700 0.590570
14.763800 25.393700 7.677150
-14.763800 25.393700 7.677150
-14.763800 25.393700 0.590570
-14.763800 -26.574800 8.858250
14.763800 -26.574800 8.858250
14.763800 26.574800 8.858250
-14.763800 26.574800 8.858250
-8.960190 -21.470100 -0.590530
-8.960190 -21.470100 -8.858250
-9.055140 -21.509399 -8.858250
-9.055140 -21.509399 -0.590530
9.055100 -22.191401 -0.590530
9.055100 -22.191401 -8.858250
9.199200 -22.047300 -8.858250
9.199200 -22.047300 -0.590530
9.199200 21.653540 -8.858250
9.238500 21.748489 -8.858250
9.238500 21.748489 -0.590530
9.199200 21.653540 -0.590530
9.251900 -21.850401 -8.858250
9.199200 -21.653500 -8.858250
9.199200 -21.653500 -0.590530
9.251900 -21.850401 -0.590530
-8.661440 -22.191401 -8.858250
-8.517330 -22.047300 -8.858250
-8.517330 -22.047300 -0.590530
-8.661440 -22.191401 -0.590530
-8.858290 21.456690 -0.590530
-8.661440 21.509439 -0.590530
8.756400 21.470100 -0.590530
8.858200 21.456690 -0.590530
9.055100 21.509439 -0.590530
9.136600 21.572001 -0.590530
14.763800 -26.574800 -0.590530
9.238500 -21.952299 -0.590530
9.251900 -21.850401 -0.590530
9.199200 -21.653500 -0.590530
9.055100 -21.509399 -0.590530
8.858200 -21.456699 -0.590530
8.661400 -21.509399 -0.590530
8.517300 -21.653500 -0.590530
8.464500 -21.850401 -0.590530
8.478000 -21.952299 -0.590530
-8.478000 -21.952299 -0.590530
-8.464590 -21.850401 -0.590530
-8.517330 -21.653500 -0.590530
-8.661440 -21.509399 -0.590530
-8.858290 -21.456699 -0.590530
8.858200 -22.244101 -0.590530
8.858200 -22.244101 -8.858250
14.763800 -25.393700 0.590570
14.763800 0.590500 0.590570
14.763800 -0.590600 0.590570
-14.763800 -25.393700 0.590570
-14.763800 -0.590600 0.590570
-14.763800 0.590500 0.590570
9.055100 -21.509399 -0.590530
9.055100 -21.509399 -8.858250
8.858200 -21.456699 -8.858250
8.858200 -21.456699 -0.590530
14.763800 -25.393700 7.677150
-14.763800 -25.393700 7.677150
-8.756390 -21.470100 -0.590530
-8.756390 -21.470100 -8.858250
-8.661440 22.191351 -0.590530
-8.661440 22.191351 -8.858250
-8.756390 22.230680 -8.858250
-8.756390 22.230680 -0.590530
-8.756390 -22.230700 -0.590530
-8.756390 -22.230700 -8.858250
8.661400 21.509439 -8.858250
8.517300 21.653540 -8.858250
8.464500 21.850389 -8.858250
8.517300 22.047239 -8.858250
8.661400 22.191351 -8.858250
8.858200 22.244089 -8.858250
9.055100 22.191351 -8.858250
9.199200 22.047239 -8.858250
9.238500 21.952290 -8.858250
9.238500 21.748489 -8.858250
9.199200 21.653540 -8.858250
9.055100 21.509439 -8.858250
8.858200 21.456690 -8.858250
-8.960190 -21.470100 -8.858250
-8.756390 -21.470100 -8.858250
-8.661440 -21.509399 -8.858250
-8.517330 -21.653500 -8.858250
-8.464590 -21.850401 -8.858250
-8.517330 -22.047300 -8.858250
-8.661440 -22.191401 -8.858250
-8.756390 -22.230700 -8.858250
-8.960190 -22.230700 -8.858250
-9.055140 -22.191401 -8.858250
-9.199240 -22.047300 -8.858250
-9.251990 -21.850401 -8.858250
-9.199240 -21.653500 -8.858250
-9.055140 -21.509399 -8.858250
8.464500 21.850389 -8.858250
8.464500 21.850389 -0.590530
8.517300 22.047239 -0.590530
8.517300 22.047239 -8.858250
14.763800 -26.574800 7.677150
-14.763800 -26.574800 7.677150
-14.763800 26.574800 7.677150
14.763800 26.574800 7.677150
14.763800 26.574800 8.858250
14.763800 26.574800 7.677150
-14.763800 26.574800 7.677150
-14.763800 26.574800 8.858250
-8.960190 21.470100 -8.858250
-8.960190 21.470100 -0.590530
-8.756390 21.470100 -0.590530
-8.756390 21.470100 -8.858250
-9.136680 21.572001 -8.858250
-9.136680 21.572001 -0.590530
-8.579900 21.572001 -0.590530
-8.579900 21.572001 -8.858250
-8.960190 22.230680 -8.858250
-8.960190 22.230680 -0.590530
8.661400 -21.509399 -8.858250
8.661400 -21.509399 -0.590530
8.858200 21.456690 -0.590530
8.858200 21.456690 -8.858250
9.055100 21.509439 -8.858250
9.055100 21.509439 -0.590530
-9.238570 21.748489 -8.858250
-9.238570 21.748489 -0.590530
-8.579900 21.572001 -8.858250
-8.579900 21.572001 -0.590530
-8.517330 22.047239 -8.858250
-8.517330 22.047239 -0.590530
8.661400 21.509439 -8.858250
8.661400 21.509439 -0.590530
8.517300 21.653540 -0.590530
8.517300 21.653540 -8.858250
-9.238570 21.952290 -8.858250
-9.238570 21.952290 -0.590530
-9.136680 22.128780 -0.590530
-9.136680 22.128780 -8.858250
-9.136680 21.572001 -8.858250
-9.136680 21.572001 -0.590530
-9.238570 21.748489 -0.590530
-9.238570 21.748489 -8.858250
-8.478000 21.748489 -0.590530
-8.478000 21.748489 -8.858250
14.763800 -26.574800 7.677150
14.763800 -26.574800 8.858250
-14.763800 -26.574800 8.858250
-14.763800 -26.574800 7.677150
14.763800 -0.590600 7.677150
-14.763800 -0.590600 7.677150
14.763800 -26.574800 7.677150
-14.763800 -26.574800 7.677150
-14.763800 -26.574800 -0.590530
-9.199240 21.653540 -0.590530
-9.136680 21.572001 -0.590530
-8.960190 21.470100 -0.590530
-9.055140 -21.509399 -0.590530
-9.199240 -21.653500 -0.590530
-9.251990 -21.850401 -0.590530
-9.238570 -21.952299 -0.590530
-9.136680 -22.128799 -0.590530
-8.960190 -22.230700 -0.590530
-8.756390 -22.230700 -0.590530
-8.579900 -22.128799 -0.590530
8.517300 -22.047199 -0.590530
8.661400 -22.191401 -0.590530
8.858200 -22.244101 -0.590530
9.055100 -22.191401 -0.590530
9.199200 -22.047199 -0.590530
-14.763800 25.393700 7.677150
14.763800 25.393700 7.677150
14.763800 26.574800 7.677150
-14.763800 26.574800 7.677150
-8.464590 -21.850401 -8.858250
-8.464590 -21.850401 -0.590530
-14.763800 -25.393700 7.677150
14.763800 -25.393700 7.677150
14.763800 -26.574800 7.677150
-14.763800 -26.574800 7.677150
-14.763800 -0.590600 7.677150
14.763800 -0.590600 7.677150
14.763800 0.590500 7.677150
-14.763800 0.590500 7.677150
-8.960190 -22.230700 -8.858250
-8.960190 -22.230700 -0.590530
-9.055140 -22.191401 -0.590530
-9.055140 -22.191401 -8.858250
-14.763800 0.590500 7.677150
14.763800 0.590500 7.677150
14.763800 -0.590600 7.677150
-14.763800 -0.590600 7.677150
9.055100 22.191351 -8.858250
8.858200 22.244089 -8.858250
8.858200 22.244089 -0.590530
9.055100 22.191351 -0.590530
-8.517330 22.047239 -0.590530
-8.661440 22.191351 -0.590530
-8.756390 22.230680 -0.590530
-8.960190 22.230680 -0.590530
-9.136680 22.128780 -0.590530
-9.238570 21.952290 -0.590530
-9.238570 21.748489 -0.590530
-9.136680 21.572001 -0.590530
-8.960190 21.470100 -0.590530
-8.756390 21.470100 -0.590530
-8.579900 21.572001 -0.590530
-8.478000 21.748489 -0.590530
-8.478000 21.952290 -0.590530
-8.478000 21.952290 -0.590530
-8.517330 22.047239 -0.590530
-8.517330 22.047239 -8.858250
-8.478000 21.952290 -8.858250
9.238500 21.952290 -8.858250
9.199200 22.047239 -8.858250
9.199200 22.047239 -0.590530
9.238500 21.952290 -0.590530
-9.199240 -22.047300 -8.858250
-9.199240 -22.047300 -0.590530
8.661400 -22.191401 -0.590530
8.661400 -22.191401 -8.858250
8.517300 -22.047300 -8.858250
8.517300 -22.047300 -0.590530
8.464500 -21.850401 -0.590530
8.464500 -21.850401 -8.858250
8.661400 22.191351 -0.590530
8.661400 22.191351 -8.858250
-9.136680 22.128780 -8.858250
-9.238570 21.952290 -8.858250
-9.238570 21.952290 -0.590530
-9.136680 22.128780 -0.590530
14.763800 26.574800 8.858250
14.763800 -26.574800 8.858250
14.763800 -26.574800 7.677150
14.763800 26.574800 7.677150
-9.136680 22.128780 -8.858250
-8.960190 22.230680 -8.858250
-8.756390 22.230680 -8.858250
-8.661440 22.191351 -8.858250
-8.517330 22.047239 -8.858250
-8.478000 21.952290 -8.858250
-8.478000 21.748489 -8.858250
-8.579900 21.572001 -8.858250
-8.756390 21.470100 -8.858250
-8.960190 21.470100 -8.858250
-9.136680 21.572001 -8.858250
-9.238570 21.748489 -8.858250
-9.238570 21.952290 -8.858250
8.661400 -21.509399 -0.590530
8.517300 -21.653500 -0.590530
8.464500 -21.850401 -0.590530
8.517300 -22.047300 -0.590530
8.661400 -22.191401 -0.590530
8.858200 -22.244101 -0.590530
9.055100 -22.191401 -0.590530
9.199200 -22.047300 -0.590530
9.251900 -21.850401 -0.590530
9.199200 -21.653500 -0.590530
9.055100 -21.509399 -0.590530
8.858200 -21.456699 -0.590530
14.763800 0.590500 7.677150
-9.238570 21.952290 -0.590530
-9.251990 21.850389 -0.590530
-14.763800 26.574800 -0.590530
14.763800 26.574800 -0.590530
9.238500 21.748489 -0.590530
9.238500 21.952290 -0.590530
9.199200 22.047239 -0.590530
9.055100 22.191351 -0.590530
8.858200 22.244089 -0.590530
8.661400 22.191351 -0.590530
8.517300 22.047239 -0.590530
8.464500 21.850389 -0.590530
8.517300 21.653540 -0.590530
8.661400 21.509439 -0.590530
-8.579900 21.572001 -0.590530
-8.478000 21.748489 -0.590530
-8.478000 21.952290 -0.590530
-8.517330 22.047239 -0.590530
-8.661440 22.191351 -0.590530
-8.756390 22.230680 -0.590530
-8.960190 22.230680 -0.590530
-9.136680 22.128780 -0.590530
9.199200 -22.047300 -0.590530
9.055100 -22.191401 -0.590530
8.858200 -22.244101 -0.590530
8.661400 -22.191401 -0.590530
8.517300 -22.047300 -0.590530
8.464500 -21.850401 -0.590530
8.517300 -21.653500 -0.590530
8.661400 -21.509399 -0.590530
8.858200 -21.456699 -0.590530
9.055100 -21.509399 -0.590530
9.199200 -21.653500 -0.590530
9.251900 -21.850401 -0.590530
8.517300 21.653540 -8.858250
8.661400 21.509439 -8.858250
8.858200 21.456690 -8.858250
9.055100 21.509439 -8.858250
9.199200 21.653540 -8.858250
9.238500 21.748489 -8.858250
9.238500 21.952290 -8.858250
9.199200 22.047239 -8.858250
9.055100 22.191351 -8.858250
8.858200 22.244089 -8.858250
8.661400 22.191351 -8.858250
8.517300 22.047239 -8.858250
8.464500 21.850389 -8.858250
14.763800 26.574800 7.677150
-14.763800 26.574800 7.677150
9.055100 -21.509399 -8.858250
9.199200 -21.653500 -8.858250
9.251900 -21.850401 -8.858250
9.199200 -22.047300 -8.858250
9.055100 -22.191401 -8.858250
8.858200 -22.244101 -8.858250
8.661400 -22.191401 -8.858250
8.517300 -22.047300 -8.858250
8.464500 -21.850401 -8.858250
8.517300 -21.653500 -8.858250
8.661400 -21.509399 -8.858250
8.858200 -21.456699 -8.858250
-14.763800 -26.574800 7.677150
14.763800 -26.574800 7.677150
14.763800 -25.393700 7.677150
-14.763800 -25.393700 7.677150
-14.763800 0.590500 7.677150
8.661400 -22.191401 -8.858250
8.858200 -22.244101 -8.858250
9.055100 -22.191401 -8.858250
9.199200 -22.047300 -8.858250
9.251900 -21.850401 -8.858250
9.199200 -21.653500 -8.858250
9.055100 -21.509399 -8.858250
8.858200 -21.456699 -8.858250
8.661400 -21.509399 -8.858250
8.517300 -21.653500 -8.858250
8.464500 -21.850401 -8.858250
8.517300 -22.047300 -8.858250
-8.517330 -22.047300 -0.590530
-8.661440 -22.191401 -0.590530
-8.756390 -22.230700 -0.590530
-8.960190 -22.230700 -0.590530
-9.055140 -22.191401 -0.590530
-9.199240 -22.047300 -0.590530
-9.251990 -21.850401 -0.590530
-9.199240 -21.653500 -0.590530
-9.055140 -21.509399 -0.590530
-8.960190 -21.470100 -0.590530
-8.756390 -21.470100 -0.590530
-8.661440 -21.509399 -0.590530
-8.517330 -21.653500 -0.590530
-8.464590 -21.850401 -0.590530
-14.763800 -26.574800 8.858250
-14.763800 26.574800 8.858250
-14.763800 26.574800 7.677150
-14.763800 -26.574800 7.677150
8.517300 -21.653500 -8.858250
8.517300 -21.653500 -0.590530
-8.661440 22.191351 -0.590530
-8.661440 22.191351 -8.858250
-8.478000 21.748489 -8.858250
-8.478000 21.748489 -0.590530
-8.756390 22.230680 -0.590530
-8.756390 22.230680 -8.858250
-9.251990 -21.850401 -0.590530
-9.199240 -22.047300 -0.590530
-9.055140 -22.191401 -0.590530
-8.960190 -22.230700 -0.590530
-8.756390 -22.230700 -0.590530
-8.661440 -22.191401 -0.590530
-8.517330 -22.047300 -0.590530
-8.464590 -21.850401 -0.590530
-8.517330 -21.653500 -0.590530
-8.661440 -21.509399 -0.590530
-8.756390 -21.470100 -0.590530
-8.960190 -21.470100 -0.590530
-9.055140 -21.509399 -0.590530
-9.199240 -21.653500 -0.590530
-8.960190 22.230680 -8.858250
-8.960190 22.230680 -0.590530
-14.763800 26.574800 7.677150
14.763800 26.574800 7.677150
14.763800 25.393700 7.677150
-14.763800 25.393700 7.677150
8.517300 21.653540 -0.590530
8.464500 21.850389 -0.590530
8.517300 22.047239 -0.590530
8.661400 22.191351 -0.590530
8.858200 22.244089 -0.590530
9.055100 22.191351 -0.590530
9.199200 22.047239 -0.590530
9.238500 21.952290 -0.590530
9.238500 21.748489 -0.590530
9.199200 21.653540 -0.590530
9.055100 21.509439 -0.590530
8.858200 21.456690 -0.590530
8.661400 21.509439 -0.590530
-9.199240 -21.653500 -8.858250
-9.199240 -21.653500 -0.590530
-9.199240 -21.653500 -8.858250
-9.251990 -21.850401 -8.858250
-9.199240 -22.047300 -8.858250
-9.055140 -22.191401 -8.858250
-8.960190 -22.230700 -8.858250
-8.756390 -22.230700 -8.858250
-8.661440 -22.191401 -8.858250
-8.517330 -22.047300 -8.858250
-8.464590 -21.850401 -8.858250
-8.517330 -21.653500 -8.858250
-8.661440 -21.509399 -8.858250
-8.756390 -21.470100 -8.858250
-8.960190 -21.470100 -8.858250
-9.055140 -21.509399 -8.858250
-8.517330 -21.653500 -8.858250
-8.661440 -21.509399 -8.858250
-8.661440 -21.509399 -0.590530
-8.517330 -21.653500 -0.590530
-9.251990 -21.850401 -8.858250
-9.251990 -21.850401 -0.590530
-8.478000 21.952290 -8.858250
-8.478000 21.952290 -0.590530
8.661400 21.509439 -0.590530
8.858200 21.456690 -0.590530
9.055100 21.509439 -0.590530
9.199200 21.653540 -0.590530
9.238500 21.748489 -0.590530
9.238500 21.952290 -0.590530
9.199200 22.047239 -0.590530
9.055100 22.191351 -0.590530
8.858200 22.244089 -0.590530
8.661400 22.191351 -0.590530
8.517300 22.047239 -0.590530
8.464500 21.850389 -0.590530
8.517300 21.653540 -0.590530
4 0 1 2 3
4 4 5 6 7
4 8 9 10 11
4 12 13 14 15
4 16 17 18 19
4 20 21 22 23
4 24 25 26 27
4 28 29 30 31
21 32 33 34 35 36 37 38 39 40 41 42 43 44 45 46 47 48 49 50 51 52
4 17 16 53 54
3 55 4 56
3 55 56 57
3 7 58 59
3 7 59 60
4 61 62 63 64
4 65 55 58 66
4 67 68 13 12
4 69 70 71 72
4 28 31 73 74
13 75 76 77 78 79 80 81 82 83 84 85 86 87
14 88 89 90 91 92 93 94 95 96 97 98 99 100 101
4 102 103 104 105
4 106 107 108 109
4 110 111 112 113
4 114 115 116 117
4 118 119 115 114
4 116 120 121 117
4 72 71 122 123
4 124 125 64 63
4 126 127 128 129
4 119 118 130 131
4 132 133 3 2
4 134 70 69 135
4 136 137 138 139
4 131 130 140 141
4 25 62 61 26
4 142 141 140 143
4 139 138 103 102
4 144 145 146 147
4 120 148 149 121
4 150 151 152 153
4 57 154 155 59
4 38 156 157 158
23 38 158 159 160 161 32 52 162 163 164 165 166 167 168 169 48 47 170 171 172 173 174 39
4 175 176 177 178
4 60 56 4 7
4 58 55 57 59
4 29 179 180 30
4 181 182 183 184
4 185 186 187 188
4 189 190 191 192
4 193 194 195 196
4 197 198 199 200
13 201 202 203 204 205 206 207 208 209 210 211 212 213
4 214 215 216 217
4 0 145 144 1
4 218 219 220 221
4 222 192 191 223
4 53 224 225 54
4 226 227 228 229
4 105 104 230 231
4 232 233 234 235
4 236 237 238 239
4 123 122 232 235
13 240 241 242 243 244 245 246 247 248 249 250 251 252
4 219 197 200 220
12 253 254 255 256 257 258 259 260 261 262 263 264
4 265 154 57 56
28 266 267 159 158 268 269 38 37 270 271 272 273 274 275 276 277 278 279 34 33 280 281 282 283 284 285 286 287
12 288 289 290 291 292 293 294 295 296 297 298 299
13 300 301 302 303 304 305 306 307 308 309 310 311 312
4 313 269 268 314
12 315 316 317 318 319 320 321 322 323 324 325 326
8 55 65 156 38 269 313 5 4
4 327 328 329 330
4 155 331 60 59
12 332 333 334 335 336 337 338 339 340 341 342 343
4 148 214 217 149
14 344 345 346 347 348 349 350 351 352 353 354 355 356 357
4 18 24 27 19
4 358 359 360 361
4 125 124 362 363
4 225 224 227 226
4 21 218 221 22
4 74 73 190 189
8 58 7 6 314 268 158 157 66
4 364 365 216 215
4 132 366 367 133
4 368 369 365 364
4 147 146 234 233
14 370 371 372 373 374 375 376 377 378 379 380 381 382 383
4 128 20 23 129
4 384 369 368 385
4 386 387 388 389
4 265 56 60 331
4 231 230 199 198
4 362 229 228 363
13 390 391 392 393 394 395 396 397 398 399 400 401 402
4 403 404 15 14
14 405 406 407 408 409 410 411 412 413 414 415 416 417 418
4 419 420 421 422
4 403 423 424 404
4 366 425 426 367
4 421 420 68 67
4 179 419 422 180
4 127 126 137 136
4 425 134 135 426
4 142 143 384 385
13 427 428 429 430 431 432 433 434 435 436 437 438 439
4 222 223 424 423
