ply
format ascii 1.0
comment Created by Blender 2.82 (sub 7) - www.blender.org, source file: ''
element vertex 204
property float x
property float y
property float z
element face 62
property list uchar uint vertex_indices
end_header
4.658720 -17.386700 8.250000
4.658720 -17.386700 9.750000
9.000020 -15.588500 9.750000
9.000020 -15.588500 8.250000
-0.749980 0.000000 9.250000
0.000020 -0.750000 9.250000
0.750020 0.000000 9.250000
0.000020 0.750000 9.250000
-9.000020 -15.588500 8.250000
-15.588470 -9.000000 8.250000
-15.588470 -9.000000 9.750000
-9.000020 -15.588500 9.750000
4.658720 17.386700 9.750000
4.658720 17.386700 8.250000
9.000020 15.588500 8.250000
9.000020 15.588500 9.750000
-0.249980 0.000000 -0.750000
-0.249980 0.000000 -2.272380
0.250020 0.000000 -2.272380
0.250020 0.000000 -0.750000
-18.000019 0.000000 8.250000
-18.000019 0.000000 9.750000
-9.823580 0.250000 -9.750000
-9.823580 -0.250000 -9.750000
-11.823580 -0.250000 -9.750000
-11.823580 0.250000 -9.750000
-0.749980 0.000000 9.250000
0.000020 0.750000 9.250000
0.000020 0.750000 -2.272380
-0.749980 0.000000 -2.272380
0.000020 0.250000 -0.750000
0.000020 -0.250000 -0.750000
11.823520 -0.250000 -9.750000
11.823520 0.250000 -9.750000
15.588420 9.000000 9.750000
18.000019 0.000000 9.750000
18.000019 0.000000 8.250000
15.588420 9.000000 8.250000
-9.000020 -15.588500 9.750000
-15.588470 -9.000000 9.750000
-15.588470 -9.000000 8.250000
-9.000020 -15.588500 8.250000
9.000020 -15.588500 8.250000
9.000020 -15.588500 9.750000
4.658720 -17.386700 9.750000
4.658720 -17.386700 8.250000
0.000020 0.750000 -2.272380
-0.749980 0.000000 -2.272380
0.000020 -0.750000 -2.272380
0.750020 0.000000 -2.272380
-15.588470 9.000000 9.750000
-9.000020 15.588500 9.750000
-9.000020 15.588500 8.250000
-15.588470 9.000000 8.250000
0.750020 0.000000 -2.272380
0.000020 -0.750000 -2.272380
-0.749980 0.000000 -2.272380
0.000020 0.750000 -2.272380
0.250020 9.823560 -9.750000
0.250020 11.823600 -9.750000
0.250020 0.000000 -0.750000
0.250020 0.000000 -2.272380
4.658720 17.386700 9.750000
4.658720 17.386700 8.250000
-4.658760 17.386700 8.250000
-4.658760 17.386700 9.750000
-4.658760 17.386700 8.250000
-4.658760 17.386700 9.750000
15.588420 -9.000000 9.750000
15.588420 -9.000000 8.250000
0.000020 -0.250000 -0.750000
0.000020 -0.250000 -2.272380
0.000020 0.250000 -2.272380
0.000020 0.250000 -0.750000
0.000020 0.250000 -2.272380
0.000020 -0.250000 -2.272380
-9.823580 -0.250000 -9.750000
-9.823580 0.250000 -9.750000
0.000020 -0.250000 -0.750000
0.000020 0.250000 -0.750000
-11.823580 0.250000 -9.750000
-11.823580 -0.250000 -9.750000
-0.249980 -9.823560 -9.750000
0.250020 -9.823560 -9.750000
0.250020 -11.823600 -9.750000
-0.249980 -11.823600 -9.750000
0.000020 0.250000 -0.750000
0.000020 0.250000 -2.272380
0.000020 -0.250000 -2.272380
0.000020 -0.250000 -0.750000
0.250020 0.000000 -2.272380
-0.249980 0.000000 -2.272380
-0.249980 9.823560 -9.750000
0.250020 9.823560 -9.750000
15.588420 -9.000000 8.250000
15.588420 -9.000000 9.750000
18.000019 0.000000 9.750000
18.000019 0.000000 8.250000
0.000020 -0.250000 -2.272380
0.000020 0.250000 -2.272380
9.823520 0.250000 -9.750000
9.823520 -0.250000 -9.750000
-0.249980 9.823560 -9.750000
-0.249980 0.000000 -2.272380
-0.249980 0.000000 -0.750000
-0.249980 11.823600 -9.750000
-4.658760 17.386700 9.750000
4.658720 17.386700 9.750000
9.000020 15.588500 9.750000
15.588420 9.000000 9.750000
18.000019 0.000000 9.750000
15.588420 -9.000000 9.750000
9.000020 -15.588500 9.750000
4.658720 -17.386700 9.750000
-4.658760 -17.386700 9.750000
-9.000020 -15.588500 9.750000
-15.588470 -9.000000 9.750000
-18.000019 0.000000 9.750000
-15.588470 9.000000 9.750000
-9.000020 15.588500 9.750000
-4.658760 -17.386700 9.750000
-4.658760 -17.386700 8.250000
-0.249980 0.000000 -0.750000
0.250020 0.000000 -0.750000
0.250020 11.823600 -9.750000
-0.249980 11.823600 -9.750000
-15.588470 9.000000 8.250000
-9.000020 15.588500 8.250000
-9.000020 15.588500 9.750000
-15.588470 9.000000 9.750000
0.000020 -0.750000 -2.272380
0.000020 -0.750000 9.250000
-18.000019 0.000000 9.750000
-18.000019 0.000000 8.250000
-4.658760 -17.386700 8.250000
-4.658760 -17.386700 9.750000
15.588420 9.000000 8.250000
15.588420 9.000000 9.750000
0.000020 0.750000 9.250000
0.750020 0.000000 9.250000
0.000020 -0.750000 9.250000
-0.749980 0.000000 9.250000
0.750020 0.000000 -2.272380
0.750020 0.000000 9.250000
9.000020 15.588500 8.250000
9.000020 15.588500 9.750000
0.250020 0.000000 -0.750000
-0.249980 0.000000 -0.750000
-0.249980 -11.823600 -9.750000
0.250020 -11.823600 -9.750000
-9.823580 -0.250000 -9.750000
0.000020 -0.250000 -2.272380
0.000020 -0.250000 -0.750000
-11.823580 -0.250000 -9.750000
-0.249980 0.000000 -2.272380
0.250020 0.000000 -2.272380
0.250020 -9.823560 -9.750000
-0.249980 -9.823560 -9.750000
0.250020 0.000000 -0.750000
0.250020 0.000000 -2.272380
-0.249980 0.000000 -2.272380
-0.249980 0.000000 -0.750000
-0.249980 -9.823560 -9.750000
-0.249980 -11.823600 -9.750000
-0.249980 0.000000 -0.750000
-0.249980 0.000000 -2.272380
9.823520 0.250000 -9.750000
0.000020 0.250000 -2.272380
0.000020 0.250000 -0.750000
11.823520 0.250000 -9.750000
-9.823580 0.250000 -9.750000
-11.823580 0.250000 -9.750000
0.000020 0.250000 -0.750000
0.000020 0.250000 -2.272380
0.250020 -9.823560 -9.750000
0.250020 0.000000 -2.272380
0.250020 0.000000 -0.750000
0.250020 -11.823600 -9.750000
-4.658760 17.386700 9.750000
-9.000020 15.588500 9.750000
-15.588470 9.000000 9.750000
-18.000019 0.000000 9.750000
-15.588470 -9.000000 9.750000
-9.000020 -15.588500 9.750000
-4.658760 -17.386700 9.750000
4.658720 -17.386700 9.750000
9.000020 -15.588500 9.750000
15.588420 -9.000000 9.750000
18.000019 0.000000 9.750000
15.588420 9.000000 9.750000
9.000020 15.588500 9.750000
4.658720 17.386700 9.750000
9.823520 -0.250000 -9.750000
11.823520 -0.250000 -9.750000
0.000020 -0.250000 -0.750000
0.000020 -0.250000 -2.272380
0.250020 9.823560 -9.750000
-0.249980 9.823560 -9.750000
-0.249980 11.823600 -9.750000
0.250020 11.823600 -9.750000
9.823520 -0.250000 -9.750000
9.823520 0.250000 -9.750000
11.823520 0.250000 -9.750000
11.823520 -0.250000 -9.750000
4 0 1 2 3
4 4 5 6 7
4 8 9 10 11
4 12 13 14 15
4 16 17 18 19
4 9 20 21 10
4 22 23 24 25
4 26 27 28 29
4 30 31 32 33
4 34 35 36 37
4 38 39 40 41
4 42 43 44 45
4 46 47 48 49
4 50 51 52 53
4 54 55 56 57
4 58 59 60 61
4 62 63 64 65
4 66 13 12 67
4 68 69 36 35
4 70 71 72 73
4 74 75 76 77
4 78 79 80 81
4 82 83 84 85
4 86 87 88 89
4 90 91 92 93
4 94 95 96 97
4 98 99 100 101
4 102 103 104 105
14 106 107 108 109 110 111 112 113 114 115 116 117 118 119
4 43 42 69 68
4 8 11 120 121
4 122 123 124 125
4 126 127 128 129
4 130 131 26 29
4 128 127 66 67
4 39 132 133 40
4 134 135 38 41
4 65 64 52 51
4 120 1 0 121
4 136 97 96 137
4 20 126 129 21
4 138 139 140 141
4 130 142 143 131
4 37 144 145 34
4 143 142 28 27
4 146 147 148 149
4 150 151 152 153
4 154 155 156 157
4 15 14 136 137
4 158 159 160 161
4 162 163 164 165
4 166 167 168 169
4 132 50 53 133
4 170 171 172 173
4 3 2 95 94
4 145 144 63 62
4 174 175 176 177
14 178 179 180 181 182 183 184 185 186 187 188 189 190 191
4 192 193 194 195
4 196 197 198 199
4 200 201 202 203
4 45 44 135 134
