ply
format ascii 1.0
comment Created by Blender 2.82 (sub 7) - www.blender.org, source file: ''
element vertex 600
property float x
property float y
property float z
element face 124
property list uchar uint vertex_indices
end_header
-7.284330 28.691250 -5.899031
-6.963090 -16.074949 -5.899031
7.750260 -15.969350 -5.899031
7.428960 28.796850 -5.899031
7.750260 -15.969350 -5.899031
7.750260 -15.969350 -3.152101
7.428960 28.796850 -3.152101
7.428960 28.796850 -5.899031
7.404860 -28.204849 9.196699
7.404860 -28.204849 12.730899
-6.933590 -28.265850 12.730899
-6.933590 -28.265850 9.196699
1.631660 -39.807549 12.432999
-0.688640 -39.807549 12.432999
-0.688640 -39.807549 9.816498
1.631660 -39.807549 9.816498
11.501560 -15.956450 4.336999
10.435860 -15.956450 4.319899
10.344160 -15.956450 10.057098
9.334460 -15.956450 10.040900
9.630360 -15.956450 -8.469501
10.640060 -15.956450 -8.453361
10.708460 -15.956450 -12.732100
11.774160 -15.956450 -12.715064
-13.389360 35.640652 12.730899
-12.631950 -25.117350 12.730899
-11.585120 -26.461950 12.730899
-9.444310 -27.840851 12.730899
8.253960 -28.142851 12.730899
10.652760 -27.309151 12.730899
13.018160 -24.909849 12.730899
13.817760 -22.499451 12.730899
12.977960 35.834351 12.730899
11.552660 37.935551 12.730899
8.623960 39.598549 12.730899
-8.253960 39.639549 12.730899
-11.357270 38.328548 12.730899
9.334460 30.919451 10.040900
9.334460 28.843750 10.040900
9.630360 28.843750 -8.469501
9.630360 30.919451 -8.469501
13.867560 -21.649549 9.196699
13.867560 -21.649549 12.730899
13.490460 33.347950 12.730899
13.490460 33.347950 9.196699
-4.486190 -36.104950 9.816498
-4.080740 -37.473148 9.816498
-4.080740 -37.473148 12.432999
-4.486190 -36.104950 12.432999
7.750260 -15.969350 -3.152101
-6.963090 -16.074949 -3.152101
-6.963090 -16.074949 -5.899031
7.750260 -15.969350 -5.899031
9.334460 -15.956450 10.040900
9.334460 -18.032150 10.040900
9.630360 -18.032150 -8.469501
9.630360 -15.956450 -8.469501
9.087760 -27.970751 12.730899
7.404860 -28.204849 12.730899
7.404860 -28.204849 9.196699
9.087760 -27.970751 9.196699
10.652760 -27.309151 9.196699
11.357260 -26.831051 9.196699
11.357260 -26.831051 12.730899
10.652760 -27.309151 12.730899
11.501560 -18.032150 4.336999
11.774160 -18.032150 -12.715064
11.774160 -15.956450 -12.715064
11.501560 -15.956450 4.336999
10.708460 -18.032150 -12.732100
10.640060 -18.032150 -8.453361
10.640060 -15.956450 -8.453361
10.708460 -15.956450 -12.732100
-9.087750 39.467548 9.196699
-8.253960 39.639549 9.196699
-7.404830 39.701550 9.196699
-7.404830 39.701550 12.730899
-8.253960 39.639549 12.730899
-9.087750 39.467548 12.730899
-9.891940 39.188549 12.730899
-10.652780 38.806549 12.730899
-11.357270 38.328548 12.730899
-11.357270 38.328548 9.196699
-10.652780 38.806549 9.196699
-9.891940 39.188549 9.196699
11.501560 30.919451 4.336999
10.435860 30.919451 4.319899
10.435860 28.843750 4.319899
11.501560 28.843750 4.336999
9.334460 28.843750 10.040900
9.630360 28.843750 -8.469501
10.640060 28.843750 -8.453361
10.708460 28.843750 -12.732100
11.774160 28.843750 -12.715064
11.501560 28.843750 4.336999
10.435860 28.843750 4.319899
10.344160 28.843750 10.057098
10.708460 28.843750 -12.732100
10.640060 28.843750 -8.453361
10.640060 30.919451 -8.453361
10.708460 30.919451 -12.732100
10.344160 28.843750 10.057098
10.435860 28.843750 4.319899
10.435860 30.919451 4.319899
10.344160 30.919451 10.057098
11.774160 28.843750 -12.715064
10.708460 28.843750 -12.732100
10.708460 30.919451 -12.732100
11.774160 30.919451 -12.715064
-13.867560 33.146450 12.730899
-13.867560 33.146450 9.196699
-13.490422 -21.851049 9.196699
-13.490422 -21.851049 12.730899
8.623960 39.598549 9.196699
11.552660 37.935551 9.196699
11.552660 37.935551 12.730899
8.623960 39.598549 12.730899
-0.688640 -36.104950 12.432999
1.631660 -36.104950 12.432999
1.631660 -36.104950 9.816498
-0.688640 -36.104950 9.816498
6.938460 39.807549 12.730899
6.938460 39.807549 9.196699
-11.394880 30.919451 -12.715064
-10.329000 30.919451 -12.715064
-10.329000 28.843750 -12.715064
-11.394880 28.843750 -12.715064
-11.394880 -16.091850 4.339198
-11.394880 -16.091850 -12.715064
-11.394880 -18.167450 -12.715064
-11.394880 -18.167450 4.339198
-10.329000 -16.091850 -12.715064
-10.329000 -16.091850 -8.435780
-10.329000 -18.167450 -8.435780
-10.329000 -18.167450 -12.715064
10.344160 -15.956450 10.057098
10.435860 -15.956450 4.319899
10.435860 -18.032150 4.319899
10.344160 -18.032150 10.057098
-11.394880 -18.167450 4.339198
-11.394880 -18.167450 -12.715064
-11.394880 -16.091850 -12.715064
-11.394880 -16.091850 4.339198
13.657360 -23.335550 12.730899
13.817760 -22.499451 12.730899
13.867560 -21.649549 12.730899
13.867560 -21.649549 9.196699
13.817760 -22.499451 9.196699
13.657360 -23.335550 9.196699
13.389360 -24.143650 9.196699
13.018160 -24.909849 9.196699
13.018160 -24.909849 12.730899
13.389360 -24.143650 12.730899
9.630360 -18.032150 -8.469501
9.334460 -18.032150 10.040900
10.344160 -18.032150 10.057098
10.435860 -18.032150 4.319899
11.501560 -18.032150 4.336999
11.774160 -18.032150 -12.715064
10.708460 -18.032150 -12.732100
10.640060 -18.032150 -8.453361
10.344160 -15.956450 10.057098
9.334460 -15.956450 10.040900
9.334460 -18.032150 10.040900
10.344160 -18.032150 10.057098
12.977960 35.834351 12.730899
12.977960 35.834351 9.196699
13.490460 33.347950 9.196699
13.490460 33.347950 12.730899
9.630360 30.919451 -8.469501
10.640060 30.919451 -8.453361
10.708460 30.919451 -12.732100
11.774160 30.919451 -12.715064
11.501560 30.919451 4.336999
10.435860 30.919451 4.319899
10.344160 30.919451 10.057098
9.334460 30.919451 10.040900
-7.404830 39.701550 12.730899
6.938460 39.807549 12.730899
6.938460 39.807549 9.196699
-7.404830 39.701550 9.196699
-7.786870 -28.238050 12.729699
-6.933590 -28.265850 12.730899
-7.027110 -28.262751 12.730899
-7.026870 -28.262850 12.732100
11.501560 28.843750 4.336999
11.774160 28.843750 -12.715064
11.774160 30.919451 -12.715064
11.501560 30.919451 4.336999
5.332860 -37.042950 9.816498
5.332860 -37.042950 12.432999
4.249460 -38.640850 12.432999
4.249460 -38.640850 9.816498
-7.787110 -28.237749 12.730899
-9.444310 -27.840851 12.730899
-9.444310 -27.840851 9.196699
-6.933590 -28.265850 9.196699
10.344160 30.919451 10.057098
10.435860 30.919451 4.319899
10.435860 28.843750 4.319899
10.344160 28.843750 10.057098
3.038760 -39.444450 12.432999
3.038760 -39.444450 9.816498
-0.688640 -39.807549 12.432999
3.038760 -39.444450 12.432999
4.249460 -38.640850 12.432999
5.332860 -37.042950 12.432999
5.584760 -29.242849 12.432999
1.631660 -29.242849 12.432999
1.631660 -36.104950 12.432999
-0.688640 -36.104950 12.432999
-11.993360 37.762150 9.196699
-12.550160 37.118050 9.196699
-13.018160 36.406849 9.196699
-13.018160 36.406849 12.730899
-12.550160 37.118050 12.730899
-11.993360 37.762150 12.730899
-11.357270 38.328548 12.730899
-11.357270 38.328548 9.196699
12.977960 35.834351 9.196699
12.977960 35.834351 12.730899
13.257060 35.030350 12.730899
13.428960 34.196850 12.730899
13.490460 33.347950 12.730899
13.490460 33.347950 9.196699
13.428960 34.196850 9.196699
13.257060 35.030350 9.196699
11.552660 37.935551 9.196699
11.552660 37.935551 12.730899
12.118360 37.299351 12.730899
12.596160 36.595051 12.730899
12.596160 36.595051 9.196699
12.118360 37.299351 9.196699
1.631660 -29.242849 12.432999
1.631660 -29.242849 9.816498
1.631660 -36.104950 9.816498
1.631660 -36.104950 12.432999
1.631660 -29.242849 12.432999
5.584760 -29.242849 12.432999
5.584760 -29.242849 9.816498
1.631660 -29.242849 9.816498
-0.688640 -29.242849 9.816498
-0.688640 -29.242849 12.432999
-0.688640 -36.104950 12.432999
-0.688640 -36.104950 9.816498
-4.486190 -29.242849 12.432999
-4.486190 -29.242849 9.816498
-4.486190 -36.104950 9.816498
-4.486190 -36.104950 12.432999
13.867560 -21.649549 12.730899
13.018160 -24.909849 12.730899
13.018160 -24.909849 9.196699
13.867560 -21.649549 9.196699
-13.389360 35.640652 9.196699
-12.631950 -25.117350 9.196699
-11.585120 -26.461950 9.196699
-9.444310 -27.840851 9.196699
8.253960 -28.142851 9.196699
10.652760 -27.309151 9.196699
13.018160 -24.909849 9.196699
13.817760 -22.499451 9.196699
12.977960 35.834351 9.196699
11.552660 37.935551 9.196699
8.623960 39.598549 9.196699
-8.253960 39.639549 9.196699
-11.357270 38.328548 9.196699
-11.394880 28.843750 4.339198
-10.329000 28.843750 4.339198
-10.329000 30.919451 4.339198
-11.394880 30.919451 4.339198
-10.329000 28.843750 -12.715064
-11.394880 28.843750 -12.715064
-11.394880 28.843750 4.339198
-10.329000 28.843750 4.339198
-10.329000 28.843750 10.076999
-9.319210 28.843750 10.076999
-9.319210 28.843750 -8.435780
-10.329000 28.843750 -8.435780
12.118360 37.299351 12.730899
12.118360 37.299351 9.196699
12.596160 36.595051 9.196699
12.596160 36.595051 12.730899
-9.319210 30.919451 -8.435780
-9.319210 30.919451 10.076999
-10.329000 30.919451 10.076999
-10.329000 30.919451 4.339198
-11.394880 30.919451 4.339198
-11.394880 30.919451 -12.715064
-10.329000 30.919451 -12.715064
-10.329000 30.919451 -8.435780
-10.329000 -16.091850 4.339198
-10.329000 -16.091850 10.076999
-9.319210 -16.091850 10.076999
-9.319210 -16.091850 -8.435780
-10.329000 -16.091850 -8.435780
-10.329000 -16.091850 -12.715064
-11.394880 -16.091850 -12.715064
-11.394880 -16.091850 4.339198
9.630360 -15.956450 -8.469501
10.640060 -15.956450 -8.453361
10.640060 -18.032150 -8.453361
9.630360 -18.032150 -8.469501
-11.394880 30.919451 4.339198
-11.394880 30.919451 -12.715064
-11.394880 28.843750 -12.715064
-11.394880 28.843750 4.339198
11.501560 -15.956450 4.336999
10.435860 -15.956450 4.319899
10.435860 -18.032150 4.319899
11.501560 -18.032150 4.336999
-9.319210 -18.167450 -8.435780
-9.319210 -16.091850 -8.435780
-9.319210 -16.091850 10.076999
-9.319210 -18.167450 10.076999
-9.319210 -18.167450 10.076999
-9.319210 -16.091850 10.076999
-9.319210 -16.091850 -8.435780
-9.319210 -18.167450 -8.435780
11.501560 -15.956450 4.336999
11.774160 -15.956450 -12.715064
11.774160 -18.032150 -12.715064
11.501560 -18.032150 4.336999
10.708460 -15.956450 -12.732100
10.640060 -15.956450 -8.453361
10.640060 -18.032150 -8.453361
10.708460 -18.032150 -12.732100
-13.817722 33.996449 9.196699
-13.867560 33.146450 9.196699
-13.867560 33.146450 12.730899
-13.817722 33.996449 12.730899
-13.389360 35.640652 12.730899
-13.018160 36.406849 12.730899
-13.018160 36.406849 9.196699
-13.389360 35.640652 9.196699
9.630360 28.843750 -8.469501
9.630360 30.919451 -8.469501
10.640060 30.919451 -8.453361
10.640060 28.843750 -8.453361
9.630360 30.919451 -8.469501
9.630360 28.843750 -8.469501
9.334460 28.843750 10.040900
9.334460 30.919451 10.040900
11.357260 -26.831051 9.196699
11.357260 -26.831051 12.730899
9.630360 30.919451 -8.469501
9.334460 30.919451 10.040900
10.344160 30.919451 10.057098
10.435860 30.919451 4.319899
11.501560 30.919451 4.336999
11.774160 30.919451 -12.715064
10.708460 30.919451 -12.732100
10.640060 30.919451 -8.453361
-10.217900 -27.479050 12.730899
-10.935850 -27.016649 12.730899
-11.585120 -26.461950 12.730899
-11.585120 -26.461950 9.196699
-10.935850 -27.016649 9.196699
-10.217900 -27.479050 9.196699
11.501560 30.919451 4.336999
11.774160 30.919451 -12.715064
11.774160 28.843750 -12.715064
11.501560 28.843750 4.336999
10.708460 30.919451 -12.732100
10.640060 30.919451 -8.453361
10.640060 28.843750 -8.453361
10.708460 28.843750 -12.732100
-12.631950 -25.117350 12.730899
-12.631950 -25.117350 9.196699
10.640060 28.843750 -8.453361
9.630360 28.843750 -8.469501
9.334460 28.843750 10.040900
10.344160 28.843750 10.057098
10.435860 28.843750 4.319899
11.501560 28.843750 4.336999
11.774160 28.843750 -12.715064
10.708460 28.843750 -12.732100
8.623960 39.598549 12.730899
8.623960 39.598549 9.196699
10.344160 30.919451 10.057098
9.334460 30.919451 10.040900
9.334460 28.843750 10.040900
10.344160 28.843750 10.057098
-12.550160 37.118050 9.196699
-11.993360 37.762150 9.196699
-11.993360 37.762150 12.730899
-12.550160 37.118050 12.730899
-13.018160 36.406849 12.730899
-13.018160 36.406849 9.196699
-0.688640 -39.807549 12.432999
-1.622340 -39.612251 12.432999
-2.066640 -39.436852 12.432999
-2.881840 -38.941448 12.432999
-2.881840 -38.941448 9.816498
-2.066640 -39.436852 9.816498
-1.622340 -39.612251 9.816498
-0.688640 -39.807549 9.816498
-0.688640 -29.242849 12.432999
-4.486190 -29.242849 12.432999
-4.080740 -37.473148 12.432999
-2.881840 -38.941448 12.432999
-13.490422 -21.851049 12.730899
-13.490422 -21.851049 9.196699
2.584160 -39.617451 12.432999
2.113160 -39.738949 12.432999
1.631660 -39.807549 12.432999
1.631660 -39.807549 9.816498
2.113160 -39.738949 9.816498
2.584160 -39.617451 9.816498
-6.963090 -16.074949 -3.152101
7.750260 -15.969350 -3.152101
7.428960 28.796850 -3.152101
-7.284330 28.691250 -3.152101
11.774160 -18.032150 -12.715064
10.708460 -18.032150 -12.732100
10.708460 -15.956450 -12.732100
11.774160 -15.956450 -12.715064
11.357260 -26.831051 12.730899
11.357260 -26.831051 9.196699
-7.284330 28.691250 -5.899031
-7.284330 28.691250 -3.152101
7.428960 28.796850 -3.152101
7.428960 28.796850 -5.899031
5.584760 -29.242849 9.816498
5.584760 -29.242849 12.432999
5.584760 -36.104950 12.432999
5.584760 -36.104950 9.816498
13.490460 33.347950 9.196699
13.490460 33.347950 12.730899
13.867560 -21.649549 12.730899
13.867560 -21.649549 9.196699
7.428960 28.796850 -5.899031
7.428960 28.796850 -3.152101
-7.284330 28.691250 -3.152101
-7.284330 28.691250 -5.899031
-4.486190 -29.242849 12.432999
-0.688640 -29.242849 12.432999
-0.688640 -29.242849 9.816498
-4.486190 -29.242849 9.816498
5.584760 -36.104950 9.816498
5.584760 -36.104950 12.432999
-7.284330 28.691250 -3.152101
-7.284330 28.691250 -5.899031
-6.963090 -16.074949 -5.899031
-6.963090 -16.074949 -3.152101
-10.329000 28.843750 10.076999
-10.329000 28.843750 4.339198
-10.329000 30.919451 4.339198
-10.329000 30.919451 10.076999
6.938460 39.807549 9.196699
6.938460 39.807549 12.730899
3.038760 -39.444450 9.816498
-0.688640 -39.807549 9.816498
-0.688640 -36.104950 9.816498
1.631660 -36.104950 9.816498
1.631660 -29.242849 9.816498
5.584760 -29.242849 9.816498
5.332860 -37.042950 9.816498
4.249460 -38.640850 9.816498
-4.080740 -37.473148 9.816498
-4.486190 -29.242849 9.816498
-0.688640 -29.242849 9.816498
-2.881840 -38.941448 9.816498
-9.319210 30.919451 -8.435780
-9.319210 28.843750 -8.435780
-10.329000 28.843750 -8.435780
-10.329000 30.919451 -8.435780
-7.404830 39.701550 9.196699
6.938460 39.807549 9.196699
6.938460 39.807549 12.730899
-7.404830 39.701550 12.730899
-10.329000 28.843750 4.339198
-11.394880 28.843750 4.339198
-11.394880 28.843750 -12.715064
-10.329000 28.843750 -12.715064
-10.329000 28.843750 -8.435780
-9.319210 28.843750 -8.435780
-9.319210 28.843750 10.076999
-10.329000 28.843750 10.076999
-9.319210 28.843750 10.076999
-9.319210 30.919451 10.076999
-9.319210 30.919451 -8.435780
-9.319210 28.843750 -8.435780
-9.319210 28.843750 -8.435780
-9.319210 30.919451 -8.435780
-9.319210 30.919451 10.076999
-9.319210 28.843750 10.076999
-10.329000 30.919451 4.339198
-10.329000 30.919451 10.076999
-9.319210 30.919451 10.076999
-9.319210 30.919451 -8.435780
-10.329000 30.919451 -8.435780
-10.329000 30.919451 -12.715064
-11.394880 30.919451 -12.715064
-11.394880 30.919451 4.339198
-10.329000 28.843750 10.076999
-9.319210 28.843750 10.076999
-9.319210 30.919451 10.076999
-10.329000 30.919451 10.076999
-10.329000 28.843750 -12.715064
-10.329000 28.843750 -8.435780
-10.329000 30.919451 -8.435780
-10.329000 30.919451 -12.715064
9.630360 -15.956450 -8.469501
9.630360 -18.032150 -8.469501
9.334460 -18.032150 10.040900
9.334460 -15.956450 10.040900
-9.087750 39.467548 12.730899
-8.253960 39.639549 12.730899
-7.404830 39.701550 12.730899
-7.404830 39.701550 9.196699
-8.253960 39.639549 9.196699
-9.087750 39.467548 9.196699
-9.891940 39.188549 9.196699
-10.652780 38.806549 9.196699
-10.652780 38.806549 12.730899
-9.891940 39.188549 12.730899
-10.329000 30.919451 -12.715064
-10.329000 30.919451 -8.435780
-10.329000 28.843750 -8.435780
-10.329000 28.843750 -12.715064
-10.329000 30.919451 10.076999
-10.329000 30.919451 4.339198
-10.329000 28.843750 4.339198
-10.329000 28.843750 10.076999
-11.394880 28.843750 4.339198
-11.394880 28.843750 -12.715064
-11.394880 30.919451 -12.715064
-11.394880 30.919451 4.339198
-9.319210 -18.167450 -8.435780
-10.329000 -18.167450 -8.435780
-10.329000 -16.091850 -8.435780
-9.319210 -16.091850 -8.435780
-9.319210 -18.167450 -8.435780
-9.319210 -18.167450 10.076999
-10.329000 -18.167450 10.076999
-10.329000 -18.167450 4.339198
-11.394880 -18.167450 4.339198
-11.394880 -18.167450 -12.715064
-10.329000 -18.167450 -12.715064
-10.329000 -18.167450 -8.435780
10.435860 -15.956450 4.319899
11.501560 -15.956450 4.336999
11.774160 -15.956450 -12.715064
10.708460 -15.956450 -12.732100
10.640060 -15.956450 -8.453361
9.630360 -15.956450 -8.469501
9.334460 -15.956450 10.040900
10.344160 -15.956450 10.057098
-11.394880 -18.167450 4.339198
-10.329000 -18.167450 4.339198
-10.329000 -16.091850 4.339198
-11.394880 -16.091850 4.339198
10.435860 -18.032150 4.319899
10.344160 -18.032150 10.057098
9.334460 -18.032150 10.040900
9.630360 -18.032150 -8.469501
10.640060 -18.032150 -8.453361
10.708460 -18.032150 -12.732100
11.774160 -18.032150 -12.715064
11.501560 -18.032150 4.336999
-10.329000 -16.091850 10.076999
-10.329000 -16.091850 4.339198
-10.329000 -18.167450 4.339198
-10.329000 -18.167450 10.076999
-11.394880 -16.091850 -12.715064
-10.329000 -16.091850 -12.715064
-10.329000 -18.167450 -12.715064
-11.394880 -18.167450 -12.715064
-10.329000 -18.167450 -12.715064
-10.329000 -18.167450 -8.435780
-10.329000 -16.091850 -8.435780
-10.329000 -16.091850 -12.715064
-10.329000 -18.167450 10.076999
-10.329000 -18.167450 4.339198
-10.329000 -16.091850 4.339198
-10.329000 -16.091850 10.076999
-9.319210 -18.167450 10.076999
-9.319210 -18.167450 -8.435780
-10.329000 -18.167450 -8.435780
-10.329000 -18.167450 -12.715064
-11.394880 -18.167450 -12.715064
-11.394880 -18.167450 4.339198
-10.329000 -18.167450 4.339198
-10.329000 -18.167450 10.076999
10.344160 -18.032150 10.057098
10.435860 -18.032150 4.319899
10.435860 -15.956450 4.319899
10.344160 -15.956450 10.057098
-11.394880 -16.091850 4.339198
-11.394880 -16.091850 -12.715064
-10.329000 -16.091850 -12.715064
-10.329000 -16.091850 -8.435780
-9.319210 -16.091850 -8.435780
-9.319210 -16.091850 10.076999
-10.329000 -16.091850 10.076999
-10.329000 -16.091850 4.339198
-10.329000 -18.167450 10.076999
-9.319210 -18.167450 10.076999
-9.319210 -16.091850 10.076999
-10.329000 -16.091850 10.076999
4 0 1 2 3
4 4 5 6 7
4 8 9 10 11
4 12 13 14 15
8 16 17 18 19 20 21 22 23
13 24 25 26 27 28 29 30 31 32 33 34 35 36
4 37 38 39 40
4 41 42 43 44
4 45 46 47 48
4 49 50 51 52
4 53 54 55 56
8 57 58 59 60 61 62 63 64
4 65 66 67 68
4 69 70 71 72
12 73 74 75 76 77 78 79 80 81 82 83 84
4 85 86 87 88
8 89 90 91 92 93 94 95 96
4 97 98 99 100
4 101 102 103 104
4 105 106 107 108
4 109 110 111 112
4 113 114 115 116
4 117 118 119 120
4 113 116 121 122
4 123 124 125 126
4 127 128 129 130
4 131 132 133 134
4 135 136 137 138
4 139 140 141 142
10 143 144 145 146 147 148 149 150 151 152
8 153 154 155 156 157 158 159 160
4 161 162 163 164
4 165 166 167 168
8 169 170 171 172 173 174 175 176
4 177 178 179 180
3 181 182 183
3 181 183 184
4 185 186 187 188
4 189 190 191 192
6 193 194 195 196 182 181
4 197 198 199 200
4 201 202 192 191
8 203 204 205 206 207 208 209 210
8 211 212 213 214 215 216 217 218
8 219 220 221 222 223 224 225 226
8 227 228 229 230 220 219 231 232
4 233 234 235 236
4 237 238 239 240
4 241 242 243 244
4 245 246 247 248
4 249 250 251 252
13 253 254 255 256 257 258 259 260 261 262 263 264 265
4 266 267 268 269
8 270 271 272 273 274 275 276 277
8 278 115 114 279 280 166 165 281
8 282 283 284 285 286 287 288 289
8 290 291 292 293 294 295 296 297
4 298 299 300 301
4 302 303 304 305
4 306 307 308 309
4 310 311 312 313
4 314 315 316 317
4 318 319 320 321
4 322 323 324 325
8 326 327 328 329 330 331 332 333
4 334 335 336 337
4 338 339 340 341
4 151 150 342 343
8 344 345 346 347 348 349 350 351
8 352 353 354 355 356 357 195 194
4 358 359 360 361
4 362 363 364 365
4 366 367 355 354
8 368 369 370 371 372 373 374 375
4 376 228 227 377
4 378 379 380 381
8 382 383 82 81 384 385 386 387
8 388 389 390 391 392 393 394 395
5 396 397 398 399 203
4 367 366 400 401
3 396 203 210
8 402 403 404 405 406 407 202 201
4 408 409 410 411
4 412 413 414 415
4 250 416 417 251
4 46 392 391 47
4 418 419 420 421
4 422 423 424 425
4 426 427 428 429
4 430 431 432 433
4 434 435 436 437
4 190 189 438 439
4 440 441 442 443
4 444 445 446 447
4 448 449 376 377
8 450 451 452 453 454 455 456 457
5 458 459 460 451 461
3 451 460 452
4 462 463 464 465
4 466 467 468 469
8 470 471 472 473 474 475 476 477
4 478 479 480 481
4 482 483 484 485
8 486 487 488 489 490 491 492 493
4 494 495 496 497
4 498 499 500 501
4 502 503 504 505
12 506 507 508 509 510 511 512 513 218 217 514 515
4 516 517 518 519
4 520 521 522 523
4 524 525 526 527
4 528 529 530 531
8 532 533 534 535 536 537 538 539
8 540 541 542 543 544 545 546 547
4 548 549 550 551
8 552 553 554 555 556 557 558 559
4 560 561 562 563
4 564 565 566 567
4 568 569 570 571
4 572 573 574 575
8 576 577 578 579 580 581 582 583
4 584 585 586 587
8 588 589 590 591 592 593 594 595
4 596 597 598 599
