ply
format ascii 1.0
comment Created by Blender 2.82 (sub 7) - www.blender.org, source file: ''
element vertex 475
property float x
property float y
property float z
element face 162
property list uchar uint vertex_indices
end_header
-5.058550 1.853900 6.261350
-5.058550 4.963300 4.767550
-4.759560 4.888400 4.649850
-4.759560 6.275400 3.647450
-4.428760 6.214700 3.573150
-4.428760 4.106200 5.003750
-4.428760 1.777700 6.038550
-4.597390 1.791400 6.078550
-4.597390 -1.538700 6.790350
-4.759560 -1.534600 6.843850
-4.759560 -1.649800 6.847550
-5.058550 -1.653700 6.987150
-5.058550 -1.523900 6.983050
-5.192610 -1.517500 7.067350
-5.192610 1.881200 6.341350
3.724000 3.119700 -4.796010
4.353800 3.054100 -5.024130
4.353800 4.241200 -5.202620
4.353800 5.434000 -5.067790
3.724000 5.376800 -4.837410
3.724000 4.245500 -4.965290
4.054800 0.943800 -9.508939
3.724000 0.896100 -9.634568
3.724000 10.563100 -10.183587
3.724000 11.527100 -9.945151
3.892600 11.508300 -9.888930
3.892600 12.412500 -9.502215
4.353800 12.286200 -9.262540
4.353800 1.013200 -9.326330
-4.597390 -4.999200 -2.886030
-4.597390 -5.206900 -1.741010
-4.597390 -5.363400 3.032650
-4.428760 -5.422400 3.035850
-4.428760 -4.279400 9.577350
-4.759560 -4.178100 9.443250
-5.314690 -3.843100 8.999650
-5.058550 -4.736500 -2.821750
-4.255230 7.620000 7.349150
3.373600 7.633300 7.371150
3.373600 6.290600 8.112650
3.550400 6.279100 8.089550
3.550400 8.895600 6.501350
3.550400 13.182700 2.160450
-4.255230 13.182700 2.160450
-5.598340 -3.232800 1.894050
-5.598340 -3.148800 6.408050
-5.314690 -2.842700 6.300550
-5.314690 -2.915100 1.959450
-5.314690 -2.276400 -0.048750
-5.518500 -2.468600 -0.132950
-5.518500 -3.120700 1.917150
4.353800 -3.359000 -5.894780
4.054800 -3.519900 -6.005540
4.487800 1.055200 -9.215680
-0.276100 -24.404100 10.031550
11.963000 -21.272600 10.031550
11.953800 -21.256300 10.111650
-0.275800 -24.385300 10.111650
-4.428760 10.563100 -10.183587
-4.597390 10.553600 -10.125068
-4.597390 12.412500 -9.502215
-4.255230 12.460100 -9.592490
3.373600 12.472100 -9.615322
3.373600 13.319700 -9.077050
3.724000 13.278400 -9.022330
3.892600 13.242700 -8.975010
-4.759560 -2.288200 6.585150
-4.759560 -2.439100 6.405650
-4.428760 -2.358700 6.353050
-4.428760 -2.411100 6.261050
-4.428760 -2.452200 6.163450
-4.759560 -2.542900 6.195250
-5.314690 -2.505100 6.817450
-4.913750 15.271000 -5.737550
-4.913750 13.857300 -8.206470
-5.058550 13.781300 -8.133920
-5.058550 13.079500 -8.758790
-5.423660 12.843600 -8.446310
-5.423660 13.498200 -7.863480
-5.058550 15.170000 -5.708770
4.353800 8.788300 0.503550
4.353800 8.349300 1.620750
3.724000 8.141600 1.505850
3.724000 8.557900 0.446250
-5.423660 14.631300 -2.140880
-5.598340 14.338200 -2.247570
-5.598340 11.424800 2.684450
-5.518500 11.547400 2.787150
-5.518500 10.567200 3.864750
-5.423660 10.675000 3.971250
-5.423660 9.600700 4.973350
-5.192610 9.778100 5.179950
-5.058550 9.855100 5.269650
-5.058550 12.878900 1.945750
-5.192610 15.268300 -3.853480
-5.423660 14.995600 -3.865960
4.487800 1.881200 6.341350
4.353800 1.853900 6.261350
4.353800 4.963300 4.767550
4.487800 5.008600 4.838850
4.487800 7.708900 2.630050
4.893600 8.024500 2.904950
4.893600 2.853200 6.422250
4.893600 -1.668100 7.489450
4.609900 -1.658800 7.165150
4.609900 -1.510300 7.160450
4.487800 -1.517500 7.067350
4.813700 14.736200 -3.027770
4.893600 14.579300 -3.060800
4.893600 14.493100 -5.515910
4.353800 15.170000 -5.708770
4.353800 15.386700 -3.848060
4.353800 15.268000 -2.915870
4.609900 15.024000 -2.967230
4.609900 14.764600 -2.092350
4.813700 14.488700 -2.192780
4.353800 -2.740800 1.995350
4.353800 -2.478900 0.992550
4.054800 -2.345900 1.034850
4.054800 -2.604000 2.023450
3.724000 -2.509900 2.042750
3.724000 -2.452200 6.163450
4.353800 -2.674700 6.241550
4.609900 -2.842700 6.300550
4.609900 -2.915100 1.959450
-4.428760 0.896100 -9.634568
-4.428760 -0.168600 -9.154650
-4.255230 -0.188500 -9.192430
-4.255230 -1.192000 -8.584840
-4.428760 -1.167700 -8.549730
-4.428760 -2.086400 -7.828650
-4.759560 -1.997200 -7.728150
-4.759560 -1.091300 -8.439190
-5.192610 -0.912900 -8.181170
-5.192610 1.055200 -9.215680
-5.058550 1.013200 -9.326330
4.353800 1.966100 -4.549920
4.609900 1.881300 -4.706870
4.893600 1.726700 -4.992780
4.893600 4.231900 -5.708490
-17.047951 17.438101 10.111650
-11.953742 21.256220 10.111650
-11.962954 21.272600 10.031550
-17.061081 17.451500 10.031550
-5.314690 8.917000 -1.925980
-5.314690 8.962300 0.546750
-5.598340 9.279400 0.625450
-5.598340 9.230900 -2.016300
-5.598340 8.698500 -3.237820
-5.314690 8.418600 -3.069330
-12.403457 -20.933001 9.876850
-0.275200 -24.330200 9.876850
-0.275800 -24.385300 9.951450
-12.431547 -20.980400 9.951450
-21.256220 -11.953800 10.111650
-23.625799 -6.044900 10.111650
-23.643999 -6.049600 10.031550
-21.272600 -11.963000 10.031550
-20.980360 12.431500 9.951450
-20.996531 12.441100 10.031550
-11.953742 21.256220 9.951450
-17.047951 17.438101 9.951450
12.431600 20.980360 9.951450
12.358800 20.857540 9.812850
0.274300 24.242559 9.812850
0.275900 24.385309 9.951450
-4.428760 -2.222600 6.514950
-4.428760 -2.051800 6.639650
-4.759560 -2.098700 6.723550
-4.759560 -1.992900 6.774650
-4.428760 -1.956400 6.685750
-4.428760 -1.856200 6.720050
-4.078410 -1.843100 6.672850
-4.078410 -1.745300 6.693650
3.373600 -1.745300 6.693650
3.373600 -1.843100 6.672850
3.724000 -1.856200 6.720050
3.724000 -2.051800 6.639650
3.724000 -2.222600 6.514950
4.353800 8.744700 -1.876410
3.724000 8.516500 -1.810770
3.724000 -2.358700 6.353050
4.353800 -2.166900 6.845450
4.353800 -2.046000 6.903850
4.609900 -2.113700 7.068550
4.609900 -2.253900 7.000850
4.609900 -2.505100 6.817450
4.353800 -2.383500 6.687250
4.353800 -2.556100 6.482050
-4.428760 14.645800 -7.590920
-4.428760 14.020100 -8.362000
-4.428760 15.487600 -5.799250
-4.078410 15.553500 -5.818030
-4.078410 14.702300 -7.629680
-5.598340 13.272400 -7.647750
-5.058550 15.386700 -3.848060
-4.759560 -2.345900 1.034850
-5.058550 -2.478900 0.992550
-5.058550 -2.740800 1.995350
4.487800 1.896900 9.130050
4.609900 1.879900 8.999650
4.893600 1.821100 8.546750
4.893600 11.424800 2.684450
4.609900 11.772300 2.975450
4.353800 11.963100 3.135250
4.353800 9.855100 5.269650
3.724000 -4.279400 9.577350
3.724000 -5.422400 3.035850
3.892600 -5.363400 3.032650
3.892600 -5.206900 -1.741010
4.054800 -5.132500 -1.730490
4.353800 -4.939300 -1.703150
4.353800 -4.736500 -2.821750
4.609900 -4.494500 -2.762570
4.609900 -4.693000 -1.668290
4.609900 -3.843100 8.999650
-17.009430 17.398701 9.876850
-24.330200 0.275200 9.876850
-24.385300 0.275800 9.951450
-12.441127 -20.996599 10.031550
-12.431547 -20.980400 10.111650
-11.926731 21.208191 9.876850
-11.883764 21.131790 9.812850
21.272600 11.963000 10.031550
21.256300 11.953700 10.111650
24.385300 -0.275900 10.111650
24.404100 -0.276100 10.031550
20.980400 -12.431600 10.111650
20.996599 -12.441200 10.031550
-4.759560 8.651800 0.469650
-4.759560 8.609500 -1.837520
3.892600 1.791400 6.078550
4.353800 -1.523900 6.983050
4.353800 -1.653700 6.987150
4.054800 -1.649800 6.847550
4.054800 -1.534600 6.843850
3.892600 -1.538700 6.790350
-5.314690 7.641300 -4.044740
-4.759560 7.419300 -3.814390
-4.759560 8.144500 -2.904310
-4.428760 15.716500 -3.832960
-5.314690 6.638100 -4.785730
-5.598340 6.796200 -5.071560
-4.759560 8.226300 1.552750
-5.314690 8.506300 1.707550
4.353800 7.645000 2.574450
4.893600 9.279400 0.625450
3.724000 6.436400 -4.421110
-4.759560 6.483200 -4.505770
-4.759560 5.400100 -4.931310
-4.759560 4.243700 -5.062010
3.724000 7.352100 -3.744740
3.724000 8.061600 -2.854410
3.724000 1.955000 9.577350
3.724000 15.716500 -3.832960
3.724000 15.591200 -2.847880
3.724000 15.308500 -1.894340
4.054800 15.182200 -1.940310
4.054800 13.862200 0.784450
4.209000 13.784400 0.738450
4.209000 12.964400 2.006250
4.353800 12.878900 1.945750
-4.759560 3.093000 -4.888980
-4.759560 2.032700 -4.426830
-4.428760 2.078500 -4.342150
3.724000 2.078500 -4.342150
-4.255230 14.051000 -8.391530
3.724000 14.645800 -7.590920
-5.598340 8.024500 2.904950
-5.314690 7.779500 2.691550
-5.192610 7.708900 2.630050
-5.192610 5.008600 4.838850
-5.314690 -1.510300 7.160450
-5.314690 -1.658800 7.165150
-5.598340 -1.668100 7.489450
-5.598340 2.853200 6.422250
4.054800 -4.926200 -2.868170
3.892600 -4.999200 -2.886030
3.892600 -4.181000 -5.054010
3.724000 -4.233400 -5.081450
3.724000 -3.630600 -6.081740
4.718900 1.152000 -8.960850
4.718900 0.166700 -8.516740
4.813700 0.237300 -8.382450
4.813700 1.205900 -8.819020
4.893600 1.262700 -8.669310
4.893600 -4.244200 -1.604790
4.353800 6.551300 -4.628820
4.893600 6.796200 -5.071560
4.893600 -2.976800 6.756850
4.893600 -2.860600 6.913250
4.893600 -3.752100 7.548150
4.893600 -3.943100 6.644650
4.893600 -3.501100 8.546750
4.893600 -2.412400 7.283950
4.353800 7.516900 -3.915640
4.893600 9.230900 -2.016300
4.209000 15.271000 -5.737550
4.209000 14.460100 -7.463620
3.892600 14.596900 -7.557400
3.892600 15.430500 -5.783000
3.724000 15.487600 -5.799250
-5.058550 10.510000 -9.857692
4.893600 8.698500 -3.237820
-4.078410 -5.333200 -1.758870
-4.078410 -4.775200 -4.039880
3.373600 -4.775200 -4.039880
3.373600 -4.294100 -5.113180
-5.192610 10.490900 -9.740715
-5.192610 11.384500 -9.519676
-5.058550 11.422200 -9.632058
0.276100 24.404100 10.031550
20.980400 -12.431600 9.951450
20.857599 -12.358800 9.812850
24.242599 -0.274300 9.812850
24.385300 -0.275900 9.951450
21.131800 11.883800 10.250350
12.431600 20.980360 10.111650
12.358800 20.857540 10.250350
3.724000 -0.264400 -2.427640
4.609900 -0.573200 -2.702920
-5.598340 2.258400 -8.980020
-5.598340 -2.137800 -6.318130
-5.598340 -3.752100 7.548150
-5.598340 -2.726500 7.054550
-5.598340 -3.148800 6.408050
-5.598340 -2.573500 -0.178850
-5.598340 -0.048900 -3.692560
-5.598340 2.914200 -5.510360
-5.598340 5.556000 -5.558830
-5.598340 6.796200 -5.071560
-5.598340 8.698500 -3.237820
-5.598340 9.230900 -2.016300
-5.598340 9.279400 0.625450
-5.598340 8.792100 1.865650
-5.598340 6.681200 4.144050
-5.598340 9.397700 4.736950
12.441200 20.996531 10.031550
0.275900 24.385309 10.111650
-4.759560 -1.881700 6.812750
-5.058550 -1.918900 6.947350
-4.428760 -1.542000 6.748150
11.953800 -21.256300 9.951450
11.883800 -21.131800 9.812850
11.883800 -21.131800 10.250350
-0.274200 -24.242599 10.250350
20.857599 -12.358800 10.250350
24.242599 -0.274300 10.250350
21.131800 11.883800 9.812850
21.256300 11.953700 9.951450
-5.314690 5.477200 -5.241810
-5.598340 4.231900 -5.708490
-5.314690 4.237900 -5.381900
-24.330200 0.275200 10.186250
-20.932961 12.403500 10.186250
-17.009430 17.398701 10.186250
-20.980360 12.431500 10.111650
-23.483000 6.577800 10.111650
-24.385300 0.275800 10.111650
3.892600 10.031200 5.474650
3.892600 8.835800 6.418950
3.550400 4.882200 8.717650
3.724000 4.866300 8.678150
4.209000 13.857300 -8.206470
4.353800 13.781300 -8.133920
4.353800 13.079500 -8.758790
-5.518500 -2.912000 -5.587080
-5.314690 -3.153800 -5.753550
-5.314690 -3.720500 -4.813200
-5.058550 -3.941300 -4.928640
-5.598340 -3.501100 8.546750
-5.518500 -2.257800 -6.424190
3.373600 -1.852700 0.136950
3.724000 -1.897500 0.117250
3.724000 -0.897000 -1.638170
-4.428760 -0.897000 -1.638170
-4.428760 -0.264400 -2.427640
-4.759560 -0.336100 -2.491550
-4.759560 -1.985500 0.078750
-4.078410 -1.852700 0.136950
-4.078410 -2.207700 1.078750
3.373600 -2.207700 1.078750
0.274300 24.242559 10.250350
-11.883764 21.131790 10.250350
-24.242599 0.274200 10.250350
-21.131790 -11.883800 10.250350
-12.358773 -20.857599 10.250350
4.718900 12.843600 -8.446310
4.718900 13.498200 -7.863480
4.893600 13.272400 -7.647750
3.550400 4.820500 4.543150
-4.255230 4.820500 4.543150
-4.255230 4.091400 4.977050
-4.428760 7.466900 2.419350
-4.078410 7.430000 2.387150
-4.078410 8.098500 1.482050
3.724000 4.106200 5.003750
3.550400 4.091400 4.977050
3.724000 -2.411100 6.261050
-4.255230 1.960500 9.619950
-4.759560 1.937600 9.443250
-5.058550 -2.046000 6.903850
-5.314690 -2.113700 7.068550
-5.314690 -2.253900 7.000850
-5.598340 -2.412400 7.283950
-5.314690 1.881300 -4.706870
-5.598340 1.726700 -4.992780
-5.598340 -2.573500 -0.178850
-5.314690 -0.573200 -2.702920
-5.192610 -0.503500 -2.640750
-5.192610 1.925800 -4.624500
-4.078410 -2.367200 6.239450
-4.078410 -2.406000 6.147150
3.373600 -2.406000 6.147150
3.373600 -2.367200 6.239450
4.054800 -1.985500 0.078750
4.893600 -2.976800 6.756850
4.893600 -3.148800 6.408050
3.724000 1.777700 6.038550
4.609900 -2.276400 -0.048750
3.892600 13.926900 0.822550
3.892600 13.099600 2.101650
4.893600 -2.576400 7.178750
4.893600 -1.668100 7.489450
4.893600 2.853200 6.422250
4.893600 8.024500 2.904950
4.893600 9.279400 0.625450
4.893600 9.230900 -2.016300
4.893600 8.698500 -3.237820
4.893600 6.796200 -5.071560
4.893600 5.556000 -5.558830
4.893600 2.914200 -5.510360
4.893600 -0.048900 -3.692560
4.893600 -2.573500 -0.178850
4.893600 -3.148800 6.408050
-5.314690 3.004500 -5.196450
-5.058550 -3.359000 -5.894780
-4.759560 -3.519900 -6.005540
-4.078410 -3.687000 -6.120560
-5.192610 7.365600 6.930050
-4.913750 12.964400 2.006250
-4.913750 12.043400 3.202450
-4.597390 12.170300 3.308750
-4.597390 13.099600 2.101650
-4.428760 13.147900 2.135850
-4.428760 15.591200 -2.847880
3.724000 -1.542000 6.748150
-5.058550 7.426900 7.031050
-5.058550 6.112800 7.756750
-4.913750 6.159600 7.850550
-4.913750 1.925800 9.352950
4.893600 -3.232800 1.894050
4.813700 -3.120700 1.917150
4.813700 -2.468600 -0.132950
-5.598340 -2.976800 6.756850
-5.518500 2.220000 -9.135500
-5.518500 0.237300 -8.382450
-5.423660 0.166700 -8.516740
-5.423660 1.152000 -8.960850
-5.598340 -1.668100 7.489450
-5.598340 -2.052700 7.431750
4.893600 -2.573500 -0.178850
3.373600 0.871800 -9.698566
3.373600 -0.200500 -9.215250
3.724000 -2.911400 -7.001960
3.373600 -2.962700 -7.047300
3.373600 -2.131900 -7.879850
-23.501101 6.582900 10.031550
-21.208191 -11.926800 9.876850
-21.256220 -11.953800 9.951450
-11.926731 21.208191 10.186250
-24.404100 0.276100 10.031550
-21.131790 -11.883800 9.812850
-0.274200 -24.242599 9.812850
-24.242599 0.274200 9.812850
15 0 1 2 3 4 5 6 7 8 9 10 11 12 13 14
6 15 16 17 18 19 20
8 21 22 23 24 25 26 27 28
8 29 30 31 32 33 34 35 36
7 37 38 39 40 41 42 43
7 44 45 46 47 48 49 50
5 51 52 21 28 53
4 54 55 56 57
12 24 23 58 59 60 61 62 63 64 65 26 25
8 66 67 68 69 70 71 46 72
7 73 74 75 76 77 78 79
4 80 81 82 83
12 84 85 86 87 88 89 90 91 92 93 94 95
11 96 97 98 99 100 101 102 103 104 105 106
9 107 108 109 110 111 112 113 114 115
9 116 117 118 119 120 121 122 123 124
11 125 126 127 128 129 130 131 132 133 134 135
6 17 16 136 137 138 139
4 140 141 142 143
6 144 145 146 147 148 149
4 150 151 152 153
4 154 155 156 157
6 158 159 143 142 160 161
4 162 163 164 165
13 166 167 168 169 170 171 172 173 174 175 176 177 178
4 179 80 83 180
10 181 178 177 182 183 184 185 186 187 188
7 189 190 74 73 191 192 193
8 194 85 84 95 94 195 79 78
6 196 197 198 47 46 71
11 199 200 201 202 108 107 115 114 203 204 205
10 206 207 208 209 210 211 212 213 214 215
5 216 217 218 158 161
4 219 220 154 157
7 221 216 161 160 165 164 222
4 223 224 225 226
4 227 56 55 228
4 229 230 180 83
9 231 97 96 106 232 233 234 235 236
6 149 237 238 239 230 144
5 195 240 191 73 79
5 241 237 149 148 242
4 243 244 145 229
6 100 245 81 80 246 101
6 19 247 248 249 250 20
6 248 247 251 252 239 238
5 206 215 200 199 253
14 254 255 256 257 258 259 260 261 204 203 114 113 112 111
7 250 262 263 264 265 15 20
9 266 190 189 193 267 64 63 62 61
12 268 269 270 271 1 0 14 13 272 273 274 275
10 276 277 278 279 280 52 51 212 211 210
11 213 212 51 53 281 282 283 284 285 286 214
5 287 18 17 139 288
4 289 290 291 292
4 215 293 201 200
10 184 183 233 232 106 105 104 103 294 185
6 19 18 287 295 251 247
4 179 296 246 80
8 254 111 110 297 298 299 300 301
5 58 125 135 302 59
6 287 288 303 296 179 295
17 277 276 210 209 208 207 206 33 32 31 30 304 305 306 307 279 278
12 61 60 59 302 308 309 310 76 75 74 190 266
6 215 214 286 292 291 293
4 160 142 311 165
4 312 313 314 315
4 316 224 317 318
7 265 319 320 137 136 16 15
4 229 145 144 230
19 194 321 322 323 324 325 326 327 328 329 330 331 332 333 334 335 336 86 85
4 227 228 226 225
4 317 337 311 338
10 339 340 11 10 9 8 341 171 170 169
4 342 343 313 312
4 57 56 344 345
4 346 227 225 347
4 315 314 348 349
5 350 241 242 351 352
7 353 354 355 140 356 357 358
9 359 360 41 40 361 362 253 199 205
10 27 26 65 64 267 299 298 363 364 365
10 366 367 368 369 36 35 370 323 322 371
5 180 252 251 295 179
10 372 373 374 375 376 377 378 379 380 381
11 344 346 347 316 318 382 383 384 385 386 345
12 365 387 388 389 285 284 283 282 281 53 28 27
11 390 391 392 5 4 393 394 395 82 396 397
6 193 192 301 300 299 267
5 121 398 181 188 122
6 33 206 253 399 400 34
11 273 272 13 12 11 340 401 402 403 404 274
10 405 406 407 44 50 49 48 408 409 410
5 243 229 83 82 395
11 403 402 401 340 339 169 168 167 166 66 72
20 380 379 378 196 71 70 69 411 412 413 414 398 121 120 119 118 415 373 372 381
5 269 268 146 145 244
9 416 417 123 122 188 187 186 185 294
10 82 81 245 100 99 98 97 231 418 396
10 415 118 117 116 124 419 320 319 374 373
12 42 41 360 359 205 204 261 260 259 258 420 421
25 292 286 285 389 109 108 202 201 293 291 290 422 423 424 425 426 427 428 429 430 431 432 433 434 289
6 350 249 248 238 237 241
9 377 376 264 263 262 435 405 410 409
9 305 304 30 29 36 369 436 437 438
10 35 439 91 90 89 88 87 86 336 370
8 39 38 37 399 253 362 361 40
10 195 94 93 440 441 442 443 444 445 240
20 396 418 231 236 446 176 175 174 173 172 171 341 8 7 6 5 392 391 390 397
9 446 236 235 234 233 183 182 177 176
17 37 43 444 443 442 441 440 93 92 91 439 447 448 449 450 400 399
6 264 376 375 374 319 265
4 230 239 252 180
5 405 435 352 351 406
7 255 254 301 192 191 240 445
12 68 67 66 166 178 181 398 414 413 412 411 69
7 451 452 453 419 124 123 417
6 72 46 45 454 404 403
6 352 435 262 250 249 350
12 270 269 244 243 395 394 393 4 3 2 1 271
17 133 132 131 437 436 369 368 367 366 371 322 321 455 456 457 458 134
8 34 400 450 449 448 447 439 35
7 323 370 336 335 459 460 324
4 56 227 346 344
10 445 444 43 42 421 420 258 257 256 255
15 302 135 134 458 457 456 455 321 194 78 77 76 310 309 308
4 220 386 385 154
4 57 345 386 220
8 453 452 451 461 138 137 320 419
8 23 22 462 463 127 126 125 58
13 52 280 464 465 466 130 129 128 127 463 462 22 21
10 364 363 298 297 110 109 389 388 387 365
6 356 140 143 159 467 357
4 228 312 315 226
3 384 354 353
9 408 48 47 198 197 196 378 377 409
4 317 338 382 318
4 468 150 153 469
4 141 338 311 142
4 228 55 342 312
7 382 338 141 140 355 470 383
12 307 306 305 438 437 131 130 466 465 464 280 279
4 469 153 219 157
4 349 223 226 315
4 220 219 54 57
6 358 357 467 471 156 155
4 223 337 317 224
4 342 55 54 152
4 153 152 54 219
4 224 316 347 225
4 337 162 165 311
5 150 468 472 473 151
5 157 156 471 218 469
4 349 348 163 162
5 221 222 474 217 216
5 342 152 151 473 343
10 222 164 163 348 314 313 343 473 472 474
6 218 217 474 472 468 469
5 383 470 355 354 384
4 223 349 162 337
6 353 358 155 154 385 384
5 158 218 471 467 159
