ply
format ascii 1.0
comment Created by Blender 2.82 (sub 7) - www.blender.org, source file: ''
element vertex 360
property float x
property float y
property float z
element face 86
property list uchar uint vertex_indices
end_header
-12.299650 -33.464600 14.803150
-12.299650 -33.464600 13.661450
-7.575270 -33.464600 13.661450
-7.575270 -33.464600 14.803150
-12.299650 33.464600 13.661450
-7.575270 33.464600 13.661450
-7.575270 -33.464600 13.661450
-12.299650 -33.464600 13.661450
12.306650 -33.464600 14.803150
12.306650 -33.464600 13.661450
17.031050 -33.464600 13.661450
17.031050 -33.464600 14.803150
-7.378420 33.464600 13.661450
-2.654010 33.464600 13.661450
-2.654010 -33.464600 13.661450
-7.378420 -33.464600 13.661450
2.267250 33.464600 14.803150
-2.457160 33.464600 14.803150
-2.457160 -33.464600 14.803150
2.267250 -33.464600 14.803150
17.224051 22.637800 -14.130487
17.224051 20.748039 -14.130487
17.227850 20.748039 -14.803150
17.227850 22.637800 -14.803150
7.188510 33.464600 14.803150
2.464100 33.464600 14.803150
2.464100 -33.464600 14.803150
7.188510 -33.464600 14.803150
-2.127890 18.858271 13.661450
-2.127890 20.748039 13.661450
-2.127890 20.748039 -14.803150
-2.127890 18.858271 -14.803150
7.188510 33.464600 14.803150
7.188510 -33.464600 14.803150
7.188510 -33.464600 13.661450
7.188510 33.464600 13.661450
17.031050 33.464600 14.803150
17.031050 -33.464600 14.803150
17.031050 -33.464600 13.661450
17.031050 33.464600 13.661450
1.966600 20.748039 13.661450
1.966600 18.858271 13.661450
1.966600 18.858271 -14.803150
1.966600 20.748039 -14.803150
-17.212851 -22.559000 -13.788820
-17.212851 -24.448799 -13.788820
-15.925150 -24.448799 -11.005540
-15.925150 -22.559000 -11.005540
-7.378420 -33.464600 14.803150
-7.378420 -33.464600 13.661450
-2.654010 -33.464600 13.661450
-2.654010 -33.464600 14.803150
17.227850 22.637800 13.661450
17.227850 20.748039 13.661450
17.224051 20.748039 12.988750
17.224051 22.637800 12.988750
-2.457160 -33.464600 14.803150
-2.457160 -33.464600 13.661450
2.267250 -33.464600 13.661450
2.267250 -33.464600 14.803150
17.227850 -22.559000 13.661450
17.224051 -22.559000 12.988750
15.352450 -22.559000 9.566950
-15.925150 -22.559000 9.863850
-17.212851 -22.559000 12.647050
-17.227850 -22.559000 13.661450
17.224051 22.637800 12.988750
17.224051 20.748039 12.988750
15.352450 20.748039 9.566950
15.352450 22.637800 9.566950
2.464100 -33.464600 14.803150
2.464100 -33.464600 13.661450
7.188510 -33.464600 13.661450
7.188510 -33.464600 14.803150
12.306650 33.464600 13.661450
12.306650 33.464600 14.803150
17.031050 33.464600 14.803150
17.031050 33.464600 13.661450
17.224051 -24.448799 12.988750
17.224051 -22.559000 12.988750
17.227850 -22.559000 13.661450
17.227850 -24.448799 13.661450
-12.496550 33.464600 14.803150
-12.496550 -33.464600 14.803150
-12.496550 -33.464600 13.661450
-12.496550 33.464600 13.661450
1.966600 20.748039 13.661450
-2.127890 20.748039 13.661450
-2.127890 18.858271 13.661450
1.966600 18.858271 13.661450
-7.575270 33.464600 14.803150
-12.299650 33.464600 14.803150
-12.299650 -33.464600 14.803150
-7.575270 -33.464600 14.803150
17.224051 -24.448799 -14.130487
17.224051 -22.559000 -14.130487
15.352450 -22.559000 -10.708660
15.352450 -24.448799 -10.708660
-17.227850 -22.559000 -14.803150
-17.227850 -24.448799 -14.803150
-17.212851 -24.448799 -13.788820
-17.212851 -22.559000 -13.788820
12.109750 33.464600 14.803150
12.109750 -33.464600 14.803150
12.109750 -33.464600 13.661450
12.109750 33.464600 13.661450
-2.654010 33.464600 14.803150
-7.378420 33.464600 14.803150
-7.378420 -33.464600 14.803150
-2.654010 -33.464600 14.803150
7.385360 33.464600 13.661450
12.109750 33.464600 13.661450
12.109750 -33.464600 13.661450
7.385360 -33.464600 13.661450
1.966600 -22.559000 -14.803150
1.966600 -20.669300 -14.803150
1.966600 -20.669300 13.661450
1.966600 -22.559000 13.661450
7.385360 -33.464600 14.803150
7.385360 33.464600 14.803150
7.385360 33.464600 13.661450
7.385360 -33.464600 13.661450
2.464100 33.464600 13.661450
7.188510 33.464600 13.661450
7.188510 -33.464600 13.661450
2.464100 -33.464600 13.661450
15.352450 22.637800 9.566950
15.352450 20.748039 9.566950
-15.925150 20.748039 9.863850
-15.925150 22.637800 9.863850
-2.127890 20.748039 -14.803150
-2.127890 20.748039 13.661450
1.966600 20.748039 13.661450
1.966600 20.748039 -14.803150
-2.127890 20.748039 -14.803150
1.966600 20.748039 -14.803150
1.966600 18.858271 -14.803150
-2.127890 18.858271 -14.803150
17.227850 22.637800 13.661450
-17.227850 22.637800 13.661450
-17.227850 20.748039 13.661450
17.227850 20.748039 13.661450
-17.212851 -22.559000 12.647050
-17.212851 -24.448799 12.647050
-17.227850 -24.448799 13.661450
-17.227850 -22.559000 13.661450
15.352450 22.637800 -10.708660
15.352450 20.748039 -10.708660
17.224051 20.748039 -14.130487
17.224051 22.637800 -14.130487
-2.457160 -33.464600 14.803150
-2.457160 33.464600 14.803150
-2.457160 33.464600 13.661450
-2.457160 -33.464600 13.661450
2.464100 -33.464600 14.803150
2.464100 33.464600 14.803150
2.464100 33.464600 13.661450
2.464100 -33.464600 13.661450
-15.925150 22.637800 -11.005540
-15.925150 20.748039 -11.005540
15.352450 20.748039 -10.708660
15.352450 22.637800 -10.708660
15.352450 -24.448799 -10.708660
15.352450 -22.559000 -10.708660
-15.925150 -22.559000 -11.005540
-15.925150 -24.448799 -11.005540
-15.925150 -22.559000 9.863850
-15.925150 -24.448799 9.863850
-17.212851 -24.448799 12.647050
-17.212851 -22.559000 12.647050
-15.925150 20.748039 -11.005540
-15.925150 22.637800 -11.005540
-17.212851 22.637800 -13.788820
-17.212851 20.748039 -13.788820
17.227850 20.748039 -14.803150
17.224051 20.748039 -14.130487
15.352450 20.748039 -10.708660
-15.925150 20.748039 -11.005540
-17.212851 20.748039 -13.788820
-17.227850 20.748039 -14.803150
-17.212851 20.748039 12.647050
-15.925150 20.748039 9.863850
15.352450 20.748039 9.566950
17.224051 20.748039 12.988750
17.227850 20.748039 13.661450
-17.227850 20.748039 13.661450
-17.227850 -22.559000 -14.803150
-17.212851 -22.559000 -13.788820
-15.925150 -22.559000 -11.005540
15.352450 -22.559000 -10.708660
17.224051 -22.559000 -14.130487
17.227850 -22.559000 -14.803150
-15.925150 22.637800 9.863850
-17.212851 22.637800 12.647050
-17.227850 22.637800 13.661450
17.227850 22.637800 13.661450
17.224051 22.637800 12.988750
15.352450 22.637800 9.566950
-17.227850 20.748039 13.661450
-17.227850 22.637800 13.661450
-17.212851 22.637800 12.647050
-17.212851 20.748039 12.647050
17.031050 33.464600 14.803150
12.306650 33.464600 14.803150
12.306650 -33.464600 14.803150
17.031050 -33.464600 14.803150
17.227850 -24.448799 -14.803150
-17.227850 -24.448799 -14.803150
-17.227850 -22.559000 -14.803150
17.227850 -22.559000 -14.803150
-17.212851 20.748039 -13.788820
-17.212851 22.637800 -13.788820
-17.227850 22.637800 -14.803150
-17.227850 20.748039 -14.803150
12.306650 33.464600 13.661450
17.031050 33.464600 13.661450
17.031050 -33.464600 13.661450
12.306650 -33.464600 13.661450
-2.127890 -20.669300 -14.803150
1.966600 -20.669300 -14.803150
1.966600 -22.559000 -14.803150
-2.127890 -22.559000 -14.803150
-12.496550 33.464600 14.803150
-17.220949 33.464600 14.803150
-17.220949 -33.464600 14.803150
-12.496550 -33.464600 14.803150
1.966600 -20.669300 13.661450
-2.127890 -20.669300 13.661450
-2.127890 -22.559000 13.661450
1.966600 -22.559000 13.661450
7.385360 -33.464600 14.803150
7.385360 -33.464600 13.661450
12.109750 -33.464600 13.661450
12.109750 -33.464600 14.803150
1.966600 -20.669300 -14.803150
-2.127890 -20.669300 -14.803150
-2.127890 -20.669300 13.661450
1.966600 -20.669300 13.661450
-2.127890 -20.669300 -14.803150
-2.127890 -22.559000 -14.803150
-2.127890 -22.559000 13.661450
-2.127890 -20.669300 13.661450
1.966600 -22.559000 -14.803150
1.966600 -22.559000 13.661450
-2.127890 -22.559000 13.661450
-2.127890 -22.559000 -14.803150
7.385360 33.464600 13.661450
7.385360 33.464600 14.803150
12.109750 33.464600 14.803150
12.109750 33.464600 13.661450
12.109750 33.464600 14.803150
7.385360 33.464600 14.803150
7.385360 -33.464600 14.803150
12.109750 -33.464600 14.803150
12.306650 -33.464600 14.803150
12.306650 33.464600 14.803150
12.306650 33.464600 13.661450
12.306650 -33.464600 13.661450
17.227850 -22.559000 13.661450
-17.227850 -22.559000 13.661450
-17.227850 -24.448799 13.661450
17.227850 -24.448799 13.661450
-2.654010 33.464600 14.803150
-2.654010 -33.464600 14.803150
-2.654010 -33.464600 13.661450
-2.654010 33.464600 13.661450
15.352450 -24.448799 9.566950
15.352450 -22.559000 9.566950
17.224051 -22.559000 12.988750
17.224051 -24.448799 12.988750
2.464100 33.464600 13.661450
2.464100 33.464600 14.803150
7.188510 33.464600 14.803150
7.188510 33.464600 13.661450
15.352450 22.637800 -10.708660
17.224051 22.637800 -14.130487
17.227850 22.637800 -14.803150
-17.227850 22.637800 -14.803150
-17.212851 22.637800 -13.788820
-15.925150 22.637800 -11.005540
-15.925150 -24.448799 9.863850
15.352450 -24.448799 9.566950
17.224051 -24.448799 12.988750
17.227850 -24.448799 13.661450
-17.227850 -24.448799 13.661450
-17.212851 -24.448799 12.647050
-15.925150 -24.448799 9.863850
-15.925150 -22.559000 9.863850
15.352450 -22.559000 9.566950
15.352450 -24.448799 9.566950
-2.457160 33.464600 13.661450
2.267250 33.464600 13.661450
2.267250 -33.464600 13.661450
-2.457160 -33.464600 13.661450
-2.457160 33.464600 13.661450
-2.457160 33.464600 14.803150
2.267250 33.464600 14.803150
2.267250 33.464600 13.661450
2.267250 33.464600 14.803150
2.267250 -33.464600 14.803150
2.267250 -33.464600 13.661450
2.267250 33.464600 13.661450
1.966600 18.858271 13.661450
-2.127890 18.858271 13.661450
-2.127890 18.858271 -14.803150
1.966600 18.858271 -14.803150
-12.299650 33.464600 13.661450
-12.299650 33.464600 14.803150
-7.575270 33.464600 14.803150
-7.575270 33.464600 13.661450
-7.378420 33.464600 13.661450
-7.378420 33.464600 14.803150
-2.654010 33.464600 14.803150
-2.654010 33.464600 13.661450
-12.299650 -33.464600 14.803150
-12.299650 33.464600 14.803150
-12.299650 33.464600 13.661450
-12.299650 -33.464600 13.661450
-7.575270 33.464600 14.803150
-7.575270 -33.464600 14.803150
-7.575270 -33.464600 13.661450
-7.575270 33.464600 13.661450
-7.378420 -33.464600 14.803150
-7.378420 33.464600 14.803150
-7.378420 33.464600 13.661450
-7.378420 -33.464600 13.661450
-17.220949 33.464600 13.661450
-17.220949 33.464600 14.803150
-12.496550 33.464600 14.803150
-12.496550 33.464600 13.661450
15.352450 -24.448799 -10.708660
-15.925150 -24.448799 -11.005540
-17.212851 -24.448799 -13.788820
-17.227850 -24.448799 -14.803150
17.227850 -24.448799 -14.803150
17.224051 -24.448799 -14.130487
-17.220949 33.464600 13.661450
-12.496550 33.464600 13.661450
-12.496550 -33.464600 13.661450
-17.220949 -33.464600 13.661450
-17.220949 -33.464600 14.803150
-17.220949 33.464600 14.803150
-17.220949 33.464600 13.661450
-17.220949 -33.464600 13.661450
-17.212851 20.748039 12.647050
-17.212851 22.637800 12.647050
-15.925150 22.637800 9.863850
-15.925150 20.748039 9.863850
17.227850 20.748039 -14.803150
-17.227850 20.748039 -14.803150
-17.227850 22.637800 -14.803150
17.227850 22.637800 -14.803150
-17.220949 -33.464600 14.803150
-17.220949 -33.464600 13.661450
-12.496550 -33.464600 13.661450
-12.496550 -33.464600 14.803150
17.227850 -24.448799 -14.803150
17.227850 -22.559000 -14.803150
17.224051 -22.559000 -14.130487
17.224051 -24.448799 -14.130487
4 0 1 2 3
4 4 5 6 7
4 8 9 10 11
4 12 13 14 15
4 16 17 18 19
4 20 21 22 23
4 24 25 26 27
4 28 29 30 31
4 32 33 34 35
4 36 37 38 39
4 40 41 42 43
4 44 45 46 47
4 48 49 50 51
4 52 53 54 55
4 56 57 58 59
6 60 61 62 63 64 65
4 66 67 68 69
4 70 71 72 73
4 74 75 76 77
4 78 79 80 81
4 82 83 84 85
4 86 87 88 89
4 90 91 92 93
4 94 95 96 97
4 98 99 100 101
4 102 103 104 105
4 106 107 108 109
4 110 111 112 113
4 114 115 116 117
4 118 119 120 121
4 122 123 124 125
4 126 127 128 129
4 130 131 132 133
4 134 135 136 137
4 138 139 140 141
4 142 143 144 145
4 146 147 148 149
4 150 151 152 153
4 154 155 156 157
4 158 159 160 161
4 162 163 164 165
4 166 167 168 169
4 170 171 172 173
6 174 175 176 177 178 179
6 180 181 182 183 184 185
6 186 187 188 189 190 191
6 192 193 194 195 196 197
4 198 199 200 201
4 202 203 204 205
4 206 207 208 209
4 210 211 212 213
4 214 215 216 217
4 218 219 220 221
4 222 223 224 225
4 226 227 228 229
4 230 231 232 233
4 234 235 236 237
4 238 239 240 241
4 242 243 244 245
4 246 247 248 249
4 250 251 252 253
4 254 255 256 257
4 258 259 260 261
4 262 263 264 265
4 266 267 268 269
4 270 271 272 273
6 274 275 276 277 278 279
6 280 281 282 283 284 285
4 286 287 288 289
4 290 291 292 293
4 294 295 296 297
4 298 299 300 301
4 302 303 304 305
4 306 307 308 309
4 310 311 312 313
4 314 315 316 317
4 318 319 320 321
4 322 323 324 325
4 326 327 328 329
6 330 331 332 333 334 335
4 336 337 338 339
4 340 341 342 343
4 344 345 346 347
4 348 349 350 351
4 352 353 354 355
4 356 357 358 359
