ply
format ascii 1.0
comment Created by Blender 2.82 (sub 7) - www.blender.org, source file: ''
element vertex 1209
property float x
property float y
property float z
element face 332
property list uchar uint vertex_indices
end_header
-13.976000 33.661449 14.099000
-13.976000 36.811050 14.099000
-13.976000 36.811050 8.602200
-13.976000 33.661449 8.602200
-14.140000 33.824551 7.601200
-13.976000 33.661449 7.685200
-13.976000 36.811050 7.685200
-14.140000 36.647850 7.601200
-16.820000 -33.967850 7.355200
-14.283000 -33.967850 7.355200
-14.204000 -33.889050 7.531700
-16.898001 -33.889050 7.531700
7.394000 35.236252 14.099000
-13.976000 35.236252 14.099000
-13.976000 33.661449 14.099000
13.598000 33.661449 14.099000
13.598000 35.236252 14.099000
8.119000 35.236252 14.099000
8.119000 35.433048 14.099000
7.394000 35.433048 14.099000
-13.976000 -33.661449 6.176100
-17.125999 -33.661449 6.176100
-17.125999 -34.448849 -15.280100
-14.764000 -34.448849 -15.280100
-17.040001 33.747349 6.860800
-17.125999 33.661449 6.828900
-17.125999 36.811050 6.828900
-17.040001 36.725052 6.860800
13.976000 36.811050 7.685200
13.976000 33.661449 7.685200
14.062000 33.747349 7.653300
14.062000 36.725052 7.653300
14.204000 33.889050 7.531700
14.283000 33.967850 7.355200
14.283000 36.504650 7.355200
14.204000 36.583351 7.531700
14.764000 36.811050 -15.280100
17.125999 36.811050 -15.280100
17.125999 36.811050 6.176100
13.976000 36.811050 6.176100
13.976000 33.661449 8.602200
17.125999 33.661449 8.602200
16.809000 33.978050 8.259300
14.293000 33.978050 8.259300
-17.125999 36.811050 7.831100
-17.125999 33.661449 7.831100
-17.125999 33.661449 7.685200
-17.125999 36.811050 7.685200
-16.809000 36.494350 7.257000
-14.293000 36.494350 7.257000
-14.253000 36.534752 7.448300
-16.850000 36.534752 7.448300
17.040001 -36.725052 6.860800
16.898001 -36.583351 6.982300
16.898001 -33.889050 6.982300
17.040001 -33.747349 6.860800
16.819000 33.967850 7.158900
14.283000 33.967850 7.158900
14.283000 33.967850 7.355200
16.819000 33.967850 7.355200
14.283000 36.504650 7.158900
14.283000 33.967850 7.158900
14.204000 33.889050 6.982300
14.204000 36.583351 6.982300
-13.976000 33.661449 14.099000
-13.976000 33.661449 8.602200
-17.125999 33.661449 8.602200
-17.125999 33.661449 14.099000
-13.976000 -33.661449 6.828900
-13.976000 -33.661449 6.390200
-13.976000 -36.811050 6.390200
-13.976000 -36.811050 6.828900
-14.253000 36.534752 7.065800
-14.140000 36.647850 6.912800
-14.140000 33.824551 6.912800
-14.253000 33.937649 7.065800
-14.283000 33.967850 7.158900
-14.283000 36.504650 7.158900
16.819000 36.504650 7.355200
16.819000 33.967850 7.355200
16.898001 33.889050 7.531700
16.898001 36.583351 7.531700
-14.204000 -33.889050 6.982300
-16.898001 -33.889050 6.982300
-17.040001 -33.747349 6.860800
-14.062000 -33.747349 6.860800
-16.850000 33.937649 7.065800
-16.850000 36.534752 7.065800
-16.820000 36.504650 7.158900
-16.820000 33.967850 7.158900
15.551000 -20.284750 14.099000
15.748000 -20.284750 14.099000
15.748000 -18.513149 14.099000
15.551000 -18.513149 14.099000
15.551000 33.661449 14.099000
13.976000 33.661449 14.099000
13.976000 -33.661449 14.099000
15.551000 -33.661449 14.099000
16.809000 -36.494350 7.831100
16.809000 -35.236252 7.831100
17.125999 -35.236252 7.831100
17.125999 -36.811050 7.831100
14.173000 -36.614151 6.390200
14.173000 -33.858250 6.390200
16.929001 -33.858250 6.390200
16.929001 -35.236252 6.390200
17.125999 -33.661449 6.390200
13.976000 -33.661449 6.390200
13.976000 -36.811050 6.390200
16.819000 -36.504551 7.355200
16.819000 -33.967850 7.355200
16.809000 -33.978050 7.257000
16.809000 -36.494350 7.257000
13.598000 33.661449 10.358800
13.598000 33.661449 14.099000
-13.976000 33.661449 14.099000
-13.976000 33.661449 10.358800
17.040001 -36.725052 7.653300
14.062000 -36.725052 7.653300
13.976000 -36.811050 7.685200
17.125999 -36.811050 7.685200
17.125999 -33.661449 7.831100
16.809000 -33.978050 7.831100
14.293000 -33.978050 7.831100
14.293000 -36.494350 7.831100
13.976000 -36.811050 7.831100
13.976000 -33.661449 7.831100
-13.976000 33.661449 14.099000
-17.125999 33.661449 14.099000
-17.125999 36.811050 14.099000
-13.976000 36.811050 14.099000
14.764000 -34.448849 -15.280100
14.764000 -36.811050 -15.280100
17.125999 -36.811050 -15.280100
17.125999 -34.448849 -15.280100
-16.850000 36.534752 7.448300
-16.850000 33.937649 7.448300
-16.820000 33.967850 7.355200
-16.820000 36.504650 7.355200
-13.976000 -35.236252 10.752500
-13.976000 -35.236252 14.099000
-13.976000 -33.661449 14.099000
-13.976000 -33.661449 10.358800
-13.976000 -35.433048 10.358800
-13.976000 -35.433048 10.752500
-13.976000 -33.661449 10.358800
13.976000 -33.661449 10.358800
13.976000 -35.433048 10.358800
-13.976000 -35.433048 10.358800
-16.820000 -33.967850 7.355200
-16.898001 -33.889050 7.531700
-16.898001 -36.583351 7.531700
-16.820000 -36.504551 7.355200
-16.809000 -36.494350 7.257000
-16.809000 -33.978050 7.257000
17.125999 -36.811050 14.099000
17.125999 -33.661449 14.099000
17.125999 -33.661449 8.602200
17.125999 -36.811050 8.602200
-16.898001 36.583351 7.531700
-16.898001 33.889050 7.531700
16.929001 33.858250 6.390200
14.173000 33.858250 6.390200
14.173000 36.614151 6.390200
16.929001 36.614151 6.390200
17.125999 36.811050 6.390200
13.976000 36.811050 6.390200
13.976000 33.661449 6.390200
17.125999 33.661449 6.390200
-16.820000 -36.504551 7.355200
-14.283000 -36.504551 7.355200
-14.293000 -36.494350 7.257000
-16.809000 -36.494350 7.257000
13.976000 33.661449 6.828900
14.062000 33.747349 6.860800
17.040001 33.747349 6.860800
17.125999 33.661449 6.828900
-16.962999 36.647850 7.601200
-16.962999 33.824551 7.601200
-13.976000 33.661449 6.176100
-14.764000 34.448849 -15.280100
-17.125999 34.448849 -15.280100
-17.125999 33.661449 6.176100
-17.040001 -33.747349 7.653300
-17.040001 -36.725052 7.653300
-14.173000 -33.858250 6.390200
-16.929001 -33.858250 6.390200
-16.929001 -33.858250 6.176100
-14.173000 -33.858250 6.176100
14.204000 -33.889050 6.982300
14.204000 -36.583351 6.982300
14.062000 -36.725052 6.860800
14.062000 -33.747349 6.860800
-16.809000 36.494350 7.831100
-16.809000 35.236252 7.831100
-17.125999 35.236252 7.831100
-17.125999 36.811050 7.831100
-14.293000 -33.978050 8.259300
-14.293000 -33.978050 7.831100
-14.293000 -36.494350 7.831100
-14.293000 -36.494350 8.259300
-17.125999 -36.811050 -15.280100
-17.125999 -34.448849 -15.280100
-17.125999 -33.661449 6.176100
-17.125999 -36.811050 6.176100
-13.976000 -33.661449 6.176100
-14.764000 -34.448849 -15.280100
-14.764000 -36.811050 -15.280100
-13.976000 -36.811050 6.176100
17.040001 -36.725052 6.860800
14.062000 -36.725052 6.860800
14.204000 -36.583351 6.982300
16.898001 -36.583351 6.982300
15.551000 18.691650 12.824900
15.551000 20.463249 12.824900
15.748000 20.463249 12.824900
15.748000 18.691650 12.824900
17.125999 -36.811050 6.828900
17.125999 -33.661449 6.828900
17.125999 -33.661449 6.390200
17.125999 -36.811050 6.390200
-15.551000 -20.463249 14.099000
-15.748000 -20.463249 14.099000
-15.748000 -20.463249 12.824900
-15.551000 -20.463249 12.824900
14.204000 33.889050 7.531700
14.062000 33.747349 7.653300
17.040001 33.747349 7.653300
16.898001 33.889050 7.531700
-17.125999 33.661449 6.390200
-17.125999 36.811050 6.390200
-17.125999 36.811050 6.828900
-17.125999 33.661449 6.828900
17.125999 -33.661449 7.685200
13.976000 -33.661449 7.685200
14.062000 -33.747349 7.653300
17.040001 -33.747349 7.653300
13.976000 -33.661449 7.831100
13.976000 -33.661449 7.685200
17.125999 -33.661449 7.685200
17.125999 -33.661449 7.831100
13.976000 -33.661449 8.602200
13.976000 -36.811050 8.602200
14.293000 -36.494350 8.259300
14.293000 -33.978050 8.259300
13.976000 -33.661449 14.099000
17.125999 -33.661449 14.099000
17.125999 -36.811050 14.099000
13.976000 -36.811050 14.099000
13.976000 -33.661449 14.099000
13.976000 -33.661449 8.602200
17.125999 -33.661449 8.602200
17.125999 -33.661449 14.099000
14.204000 -33.889050 7.531700
14.062000 -33.747349 7.653300
14.062000 -36.725052 7.653300
14.204000 -36.583351 7.531700
-14.140000 36.647850 6.912800
-14.253000 36.534752 7.065800
-16.850000 36.534752 7.065800
-16.962999 36.647850 6.912800
-14.293000 33.978050 8.259300
-14.293000 36.494350 8.259300
-14.293000 36.494350 7.831100
-14.293000 33.978050 7.831100
-8.422000 -35.433048 14.099000
-8.422000 -35.236252 14.099000
-8.422000 -35.236252 12.824900
-8.422000 -35.433048 12.824900
-7.687000 -35.236252 14.099000
-7.687000 -35.433048 14.099000
-7.687000 -35.433048 12.824900
-7.687000 -35.236252 12.824900
-14.253000 36.534752 7.448300
-14.253000 33.937649 7.448300
17.125999 33.661449 6.390200
17.125999 33.661449 6.828900
17.125999 36.811050 6.828900
17.125999 36.811050 6.390200
-13.976000 -36.811050 7.685200
-13.976000 -33.661449 7.685200
-14.140000 -33.824551 7.601200
-14.140000 -36.647850 7.601200
16.819000 36.504650 7.158900
14.283000 36.504650 7.158900
14.253000 36.534752 7.065800
16.850000 36.534752 7.065800
13.976000 33.661449 7.831100
17.125999 33.661449 7.831100
17.125999 33.661449 7.685200
13.976000 33.661449 7.685200
13.976000 33.661449 8.602200
14.293000 33.978050 8.259300
14.293000 36.494350 8.259300
13.976000 36.811050 8.602200
14.173000 36.614151 6.176100
16.929001 36.614151 6.176100
16.929001 36.614151 6.390200
14.173000 36.614151 6.390200
-17.125999 33.661449 7.685200
-13.976000 33.661449 7.685200
-14.062000 33.747349 7.653300
-17.040001 33.747349 7.653300
13.976000 33.661449 14.099000
17.125999 33.661449 14.099000
17.125999 33.661449 8.602200
13.976000 33.661449 8.602200
16.809000 33.978050 7.831100
16.809000 33.978050 8.259300
16.809000 36.494350 8.259300
16.809000 36.494350 7.831100
-16.809000 -33.978050 7.831100
-16.809000 -33.978050 8.259300
-16.809000 -36.494350 8.259300
-16.809000 -36.494350 7.831100
-14.293000 -36.494350 7.831100
-14.293000 -33.978050 7.831100
-16.809000 -33.978050 7.831100
-13.976000 -33.661449 7.831100
-13.976000 -36.811050 7.831100
-15.551000 -36.811050 7.831100
-15.551000 -36.494350 7.831100
13.976000 -33.661449 6.828900
13.976000 -36.811050 6.828900
13.598000 33.661449 10.358800
-13.976000 33.661449 10.358800
-13.976000 35.433048 10.358800
13.598000 35.433048 10.358800
-15.551000 33.661449 10.752500
-15.551000 33.661449 14.099000
-13.976000 33.661449 14.099000
-13.976000 33.661449 10.358800
-15.748000 33.661449 10.358800
-15.748000 33.661449 10.752500
15.748000 33.661449 10.752500
15.748000 33.661449 10.358800
13.976000 33.661449 10.358800
13.976000 33.661449 14.099000
15.551000 33.661449 14.099000
15.551000 33.661449 10.752500
13.976000 -33.661449 6.828900
13.976000 -33.661449 6.390200
17.125999 -33.661449 6.390200
17.125999 -33.661449 6.828900
13.976000 -33.661449 6.828900
17.125999 -33.661449 6.828900
17.040001 -33.747349 6.860800
14.062000 -33.747349 6.860800
-7.845000 35.236252 12.824900
-8.571000 35.236252 12.824900
-8.571000 35.433048 12.824900
-7.845000 35.433048 12.824900
-14.173000 36.614151 6.176100
-14.173000 36.614151 6.390200
-16.929001 36.614151 6.390200
-16.929001 36.614151 6.176100
-15.748000 33.661449 10.752500
-15.748000 33.661449 10.358800
-15.748000 -33.661449 10.358800
-15.748000 -33.661449 10.752500
16.898001 -33.889050 6.982300
14.204000 -33.889050 6.982300
-16.929001 36.614151 6.390200
-16.929001 33.858250 6.390200
-16.929001 33.858250 6.176100
-16.929001 36.614151 6.176100
-16.809000 36.494350 7.257000
-16.809000 33.978050 7.257000
-14.173000 33.858250 6.390200
-14.173000 36.614151 6.390200
-14.173000 36.614151 6.176100
-14.173000 33.858250 6.176100
-13.976000 33.661449 6.828900
-13.976000 33.661449 6.390200
-17.125999 33.661449 6.390200
-17.125999 33.661449 6.828900
-17.125999 36.811050 8.602200
-17.125999 33.661449 8.602200
-16.809000 33.978050 8.259300
-16.809000 36.494350 8.259300
-13.976000 33.661449 10.358800
-13.976000 33.661449 14.099000
-13.976000 -33.661449 14.099000
-13.976000 -33.661449 10.358800
-15.551000 18.513149 14.099000
-15.748000 18.513149 14.099000
-15.748000 18.513149 12.824900
-15.551000 18.513149 12.824900
-14.204000 33.889050 7.531700
-14.283000 33.967850 7.355200
-16.820000 33.967850 7.355200
-16.898001 33.889050 7.531700
13.976000 -33.661449 7.831100
13.976000 -36.811050 7.831100
13.976000 -36.811050 7.685200
13.976000 -33.661449 7.685200
-13.976000 33.661449 10.358800
-13.976000 -33.661449 10.358800
-15.748000 -33.661449 10.358800
-15.748000 33.661449 10.358800
-16.962999 36.647850 7.601200
-14.140000 36.647850 7.601200
-13.976000 36.811050 7.685200
-17.125999 36.811050 7.685200
-13.976000 33.661449 8.602200
-14.293000 33.978050 8.259300
-16.809000 33.978050 8.259300
-17.125999 33.661449 8.602200
-16.809000 36.494350 8.259300
-16.809000 33.978050 8.259300
-16.809000 33.978050 7.831100
-16.809000 36.494350 7.831100
-16.809000 36.494350 8.259300
-14.293000 36.494350 8.259300
-13.976000 36.811050 8.602200
-17.125999 36.811050 8.602200
17.125999 -36.811050 7.831100
17.125999 -33.661449 7.831100
17.125999 -33.661449 7.685200
17.125999 -36.811050 7.685200
16.929001 -36.614151 6.390200
16.929001 -33.858250 6.390200
16.929001 -33.858250 6.176100
16.929001 -36.614151 6.176100
-13.976000 -33.661449 6.828900
-17.125999 -33.661449 6.828900
-17.125999 -33.661449 6.390200
-13.976000 -33.661449 6.390200
-17.040001 -33.747349 6.860800
-17.040001 -36.725052 6.860800
-17.125999 -36.811050 6.828900
-17.125999 -33.661449 6.828900
14.173000 -33.858250 6.390200
14.173000 -33.858250 6.176100
16.929001 -33.858250 6.176100
16.929001 -33.858250 6.390200
-16.929001 -33.858250 6.390200
-17.125999 -33.661449 6.390200
-17.125999 -36.811050 6.390200
-16.929001 -36.614151 6.390200
14.293000 -33.978050 8.259300
14.293000 -33.978050 7.831100
16.809000 -33.978050 7.831100
16.809000 -33.978050 8.259300
14.283000 -33.967850 7.355200
16.819000 -33.967850 7.355200
16.898001 -33.889050 7.531700
14.204000 -33.889050 7.531700
-13.976000 36.811050 6.390200
-13.976000 36.811050 6.828900
-17.125999 36.811050 6.828900
-17.125999 36.811050 6.390200
-13.976000 36.811050 8.602200
-13.976000 36.811050 14.099000
-17.125999 36.811050 14.099000
-17.125999 36.811050 8.602200
16.929001 -36.614151 6.176100
17.125999 -36.811050 6.176100
13.976000 -36.811050 6.176100
13.976000 -33.661449 6.176100
17.125999 -33.661449 6.176100
16.929001 -33.858250 6.176100
14.173000 -33.858250 6.176100
14.173000 -36.614151 6.176100
-14.293000 36.494350 7.831100
-14.293000 36.494350 8.259300
-16.809000 36.494350 8.259300
-16.809000 36.494350 7.831100
13.976000 -33.661449 6.176100
14.764000 -34.448849 -15.280100
17.125999 -34.448849 -15.280100
17.125999 -33.661449 6.176100
-14.293000 33.978050 8.259300
-14.293000 33.978050 7.831100
-16.809000 33.978050 7.831100
-16.809000 33.978050 8.259300
-14.204000 -36.583351 6.982300
-16.898001 -36.583351 6.982300
-16.850000 -36.534752 7.065800
-14.253000 -36.534752 7.065800
13.976000 -35.236252 10.752500
-13.976000 -35.236252 10.752500
-13.976000 -35.433048 10.752500
13.976000 -35.433048 10.752500
-16.820000 -36.504551 7.158900
-14.283000 -36.504551 7.158900
-13.976000 -33.661449 10.358800
-13.976000 -33.661449 14.099000
13.976000 -33.661449 14.099000
13.976000 -33.661449 10.358800
16.898001 33.889050 6.982300
16.819000 33.967850 7.158900
16.819000 36.504650 7.158900
16.898001 36.583351 6.982300
13.976000 33.661449 6.828900
17.125999 33.661449 6.828900
17.125999 33.661449 6.390200
13.976000 33.661449 6.390200
14.062000 36.725052 6.860800
17.040001 36.725052 6.860800
16.898001 36.583351 6.982300
14.204000 36.583351 6.982300
-17.125999 36.811050 6.390200
-17.125999 33.661449 6.390200
-14.173000 33.858250 6.390200
-16.929001 33.858250 6.390200
-16.929001 36.614151 6.390200
-14.173000 36.614151 6.390200
-13.976000 33.661449 6.390200
-13.976000 36.811050 6.390200
-16.929001 33.858250 6.176100
-17.125999 33.661449 6.176100
-17.125999 35.236252 6.176100
-16.929001 35.236252 6.176100
-16.898001 -33.889050 6.982300
-16.898001 -36.583351 6.982300
14.283000 -33.967850 7.158900
14.283000 -36.504551 7.158900
-14.062000 -36.725052 6.860800
-17.040001 -36.725052 6.860800
-16.850000 -36.534752 7.448300
-14.253000 -36.534752 7.448300
18.701000 38.385849 15.280100
18.701000 38.385849 14.099000
-18.701000 38.385849 14.099000
-18.701000 38.385849 15.280100
-16.898001 33.889050 6.982300
-16.898001 36.583351 6.982300
-16.898001 -36.583351 7.531700
-14.204000 -36.583351 7.531700
-14.293000 36.494350 7.257000
-14.293000 33.978050 7.257000
18.701000 38.385849 15.280100
18.701000 -38.385849 15.280100
18.701000 -38.385849 14.099000
18.701000 38.385849 14.099000
-16.962999 -36.647850 7.601200
-14.140000 -36.647850 7.601200
-18.701000 -38.385849 15.280100
18.701000 -38.385849 15.280100
18.701000 38.385849 15.280100
-18.701000 38.385849 15.280100
14.283000 36.504650 7.355200
16.819000 36.504650 7.355200
16.850000 36.534752 7.448300
14.253000 36.534752 7.448300
-17.125999 36.811050 7.685200
-17.125999 33.661449 7.685200
-13.976000 -33.661449 6.828900
-13.976000 -36.811050 6.828900
-14.140000 -36.647850 6.912800
-14.140000 -33.824551 6.912800
-13.976000 -33.661449 7.831100
-17.125999 -33.661449 7.831100
-17.125999 -33.661449 7.685200
-13.976000 -33.661449 7.685200
-13.976000 33.661449 7.831100
-13.976000 36.811050 7.831100
-13.976000 36.811050 7.685200
-13.976000 33.661449 7.685200
13.598000 35.433048 10.752500
13.598000 35.433048 10.358800
-13.976000 35.433048 10.358800
-13.976000 35.433048 10.752500
14.293000 36.494350 7.831100
13.976000 36.811050 7.831100
17.125999 36.811050 7.831100
17.125999 33.661449 7.831100
13.976000 33.661449 7.831100
14.293000 33.978050 7.831100
16.809000 33.978050 7.831100
16.809000 36.494350 7.831100
7.394000 35.236252 12.824900
8.119000 35.236252 12.824900
8.119000 35.236252 14.099000
13.598000 35.236252 14.099000
13.598000 35.236252 10.752500
-13.976000 35.236252 10.752500
-13.976000 35.236252 14.099000
-8.571000 35.236252 14.099000
-8.571000 35.236252 12.824900
-7.845000 35.236252 12.824900
-7.845000 35.236252 14.099000
7.394000 35.236252 14.099000
-16.929001 -36.614151 6.390200
-14.173000 -36.614151 6.390200
-14.173000 -36.614151 6.176100
-16.929001 -36.614151 6.176100
15.551000 -18.513149 14.099000
15.748000 -18.513149 14.099000
15.748000 -18.513149 12.824900
15.551000 -18.513149 12.824900
-16.809000 -36.494350 7.831100
-17.125999 -36.811050 7.831100
-17.125999 -33.661449 7.831100
16.929001 33.858250 6.176100
16.929001 33.858250 6.390200
16.929001 36.614151 6.390200
16.929001 36.614151 6.176100
17.125999 33.661449 7.685200
17.125999 33.661449 7.831100
17.125999 36.811050 7.831100
17.125999 36.811050 7.685200
14.173000 33.858250 6.390200
14.173000 33.858250 6.176100
14.173000 36.614151 6.176100
14.173000 36.614151 6.390200
-13.976000 33.661449 14.099000
-13.976000 35.236252 14.099000
-13.976000 35.236252 10.752500
-13.976000 35.433048 10.752500
-13.976000 35.433048 10.358800
-13.976000 33.661449 10.358800
16.809000 36.494350 8.259300
16.809000 33.978050 8.259300
17.125999 33.661449 8.602200
17.125999 36.811050 8.602200
16.962999 -36.647850 7.601200
17.125999 -36.811050 7.685200
17.125999 -33.661449 7.685200
16.962999 -33.824551 7.601200
14.173000 33.858250 6.390200
16.929001 33.858250 6.390200
16.929001 33.858250 6.176100
14.173000 33.858250 6.176100
17.125999 36.811050 -15.280100
17.125999 34.448849 -15.280100
17.125999 33.661449 6.176100
17.125999 36.811050 6.176100
-13.976000 -33.661449 8.602200
-14.293000 -33.978050 8.259300
-14.293000 -36.494350 8.259300
-13.976000 -36.811050 8.602200
16.898001 33.889050 6.982300
14.204000 33.889050 6.982300
-17.125999 -36.811050 14.099000
-17.125999 -33.661449 14.099000
-13.976000 -33.661449 14.099000
-13.976000 -36.811050 14.099000
-13.976000 33.661449 6.828900
-13.976000 36.811050 6.828900
-13.976000 36.811050 6.390200
-13.976000 33.661449 6.390200
-13.976000 -33.661449 14.099000
-17.125999 -33.661449 14.099000
-17.125999 -33.661449 8.602200
-13.976000 -33.661449 8.602200
8.119000 35.433048 14.099000
8.119000 35.433048 12.824900
7.394000 35.433048 12.824900
7.394000 35.433048 14.099000
15.748000 -20.284750 14.099000
15.748000 -20.284750 12.824900
15.748000 -18.513149 12.824900
15.748000 -18.513149 14.099000
15.551000 20.463249 14.099000
15.748000 20.463249 14.099000
15.748000 20.463249 12.824900
15.551000 20.463249 12.824900
-14.293000 -33.978050 8.259300
-16.809000 -33.978050 8.259300
-16.809000 -33.978050 7.831100
-14.293000 -33.978050 7.831100
-13.976000 33.661449 6.828900
-17.125999 33.661449 6.828900
-17.040001 33.747349 6.860800
-14.062000 33.747349 6.860800
-7.845000 35.433048 14.099000
-7.845000 35.236252 14.099000
-7.845000 35.236252 12.824900
-7.845000 35.433048 12.824900
13.976000 -33.661449 10.358800
13.976000 -33.661449 14.099000
13.976000 33.661449 14.099000
13.976000 33.661449 10.358800
15.748000 18.691650 14.099000
15.748000 18.691650 12.824900
15.748000 20.463249 12.824900
15.748000 20.463249 14.099000
-17.125999 -36.811050 -15.280100
-14.764000 -36.811050 -15.280100
-14.764000 -34.448849 -15.280100
-17.125999 -34.448849 -15.280100
7.394000 35.236252 14.099000
7.394000 35.433048 14.099000
7.394000 35.433048 12.824900
7.394000 35.236252 12.824900
8.119000 35.236252 12.824900
7.394000 35.236252 12.824900
7.394000 35.433048 12.824900
8.119000 35.433048 12.824900
17.125999 -36.811050 6.828900
13.976000 -36.811050 6.828900
14.204000 -36.583351 7.531700
16.898001 -36.583351 7.531700
17.125999 -33.661449 6.828900
17.125999 -36.811050 6.828900
-13.976000 36.811050 7.685200
-13.976000 36.811050 7.831100
-17.125999 36.811050 7.831100
-17.125999 36.811050 7.685200
13.976000 -33.661449 6.828900
13.976000 -36.811050 6.828900
13.976000 -36.811050 6.390200
13.976000 -33.661449 6.390200
-7.845000 35.433048 14.099000
-7.845000 35.433048 12.824900
-8.571000 35.433048 12.824900
-8.571000 35.433048 14.099000
-15.551000 -33.661449 10.752500
-15.551000 33.661449 10.752500
-15.748000 33.661449 10.752500
-15.748000 -33.661449 10.752500
13.976000 -36.811050 6.390200
13.976000 -36.811050 6.828900
17.125999 -36.811050 6.828900
17.125999 -36.811050 6.390200
17.125999 -36.811050 6.390200
16.929001 -36.614151 6.390200
-15.748000 -18.691650 14.099000
-15.551000 -18.691650 14.099000
-15.551000 -18.691650 12.824900
-15.748000 -18.691650 12.824900
-15.551000 -18.691650 12.824900
-15.551000 -18.691650 14.099000
-15.551000 18.513149 14.099000
-15.551000 18.513149 12.824900
-15.551000 20.284750 12.824900
-15.551000 20.284750 14.099000
-15.551000 33.661449 14.099000
-15.551000 33.661449 10.752500
-15.551000 -33.661449 10.752500
-15.551000 -33.661449 14.099000
-15.551000 -20.463249 14.099000
-15.551000 -20.463249 12.824900
16.819000 -33.967850 7.158900
14.283000 -33.967850 7.158900
13.976000 -33.661449 7.685200
13.976000 -36.811050 7.685200
16.850000 -36.534752 7.065800
16.850000 -33.937649 7.065800
16.819000 -33.967850 7.158900
16.819000 -36.504551 7.158900
-15.551000 -18.691650 12.824900
-15.551000 -20.463249 12.824900
-15.748000 -20.463249 12.824900
-15.748000 -18.691650 12.824900
-15.551000 18.513149 14.099000
-15.551000 -33.661449 14.099000
-13.976000 -33.661449 14.099000
-13.976000 33.661449 14.099000
-15.551000 33.661449 14.099000
-15.551000 20.284750 14.099000
-15.748000 20.284750 14.099000
-15.748000 18.513149 14.099000
-14.253000 -33.937649 7.065800
-14.253000 -36.534752 7.065800
-14.283000 -36.504551 7.158900
-14.283000 -33.967850 7.158900
14.139000 36.647850 7.601200
16.962999 36.647850 7.601200
17.125999 36.811050 7.685200
13.976000 36.811050 7.685200
-16.820000 -33.967850 7.158900
-14.283000 -33.967850 7.158900
-14.173000 33.858250 6.390200
-14.173000 33.858250 6.176100
-16.929001 33.858250 6.176100
-16.929001 33.858250 6.390200
16.819000 -36.504551 7.355200
14.283000 -36.504551 7.355200
16.850000 -36.534752 7.448300
16.850000 -33.937649 7.448300
-15.551000 20.284750 12.824900
-15.551000 18.513149 12.824900
-15.748000 18.513149 12.824900
-15.748000 20.284750 12.824900
14.283000 -36.504551 7.158900
16.819000 -36.504551 7.158900
-15.748000 20.284750 14.099000
-15.551000 20.284750 14.099000
-15.551000 20.284750 12.824900
-15.748000 20.284750 12.824900
16.898001 -36.583351 7.531700
16.898001 -33.889050 7.531700
-15.748000 -18.691650 14.099000
-15.748000 -18.691650 12.824900
-15.748000 -20.463249 12.824900
-15.748000 -20.463249 14.099000
-15.748000 20.284750 14.099000
-15.748000 20.284750 12.824900
-15.748000 18.513149 12.824900
-15.748000 18.513149 14.099000
-15.748000 -33.661449 10.752500
-15.748000 -33.661449 10.358800
-13.976000 -33.661449 10.358800
-13.976000 -33.661449 14.099000
-15.551000 -33.661449 14.099000
-15.551000 -33.661449 10.752500
-17.125999 36.811050 14.099000
-17.125999 33.661449 14.099000
-17.125999 33.661449 8.602200
-17.125999 36.811050 8.602200
-13.976000 -33.661449 6.828900
-17.125999 -33.661449 6.828900
-16.820000 -33.967850 7.158900
-16.820000 -36.504551 7.158900
-17.125999 -33.661449 7.685200
-17.125999 -36.811050 7.685200
14.173000 -36.614151 6.176100
14.173000 -36.614151 6.390200
16.929001 -36.614151 6.390200
16.929001 -36.614151 6.176100
-13.976000 -36.811050 6.828900
-17.125999 -36.811050 6.828900
13.976000 -36.811050 7.685200
13.976000 -36.811050 7.831100
17.125999 -36.811050 7.831100
17.125999 -36.811050 7.685200
-13.976000 33.661449 8.602200
-13.976000 36.811050 8.602200
-14.293000 36.494350 8.259300
-14.293000 33.978050 8.259300
14.173000 -33.858250 6.390200
14.173000 -36.614151 6.390200
14.173000 -36.614151 6.176100
14.173000 -33.858250 6.176100
13.976000 -33.661449 8.602200
14.293000 -33.978050 8.259300
16.809000 -33.978050 8.259300
17.125999 -33.661449 8.602200
14.283000 -33.967850 7.355200
14.283000 -36.504551 7.355200
16.809000 -33.978050 8.259300
16.809000 -36.494350 8.259300
17.125999 -36.811050 8.602200
17.125999 -33.661449 8.602200
-17.125999 -33.661449 6.390200
-17.125999 -33.661449 6.828900
-17.125999 -36.811050 6.828900
-17.125999 -36.811050 6.390200
13.976000 -33.661449 6.176100
13.976000 -36.811050 6.176100
14.764000 -36.811050 -15.280100
14.764000 -34.448849 -15.280100
-13.976000 33.661449 6.828900
-13.976000 36.811050 6.828900
-14.173000 -33.858250 6.390200
-14.173000 -36.614151 6.390200
-13.976000 -36.811050 6.390200
-13.976000 -33.661449 6.390200
14.293000 -36.494350 7.831100
14.293000 -36.494350 8.259300
16.809000 -36.494350 8.259300
16.809000 -36.494350 7.831100
13.976000 -36.811050 8.602200
13.976000 -36.811050 14.099000
17.125999 -36.811050 14.099000
17.125999 -36.811050 8.602200
-17.125999 -36.811050 6.828900
-13.976000 -36.811050 6.828900
-13.976000 -36.811050 6.390200
-17.125999 -36.811050 6.390200
-13.976000 33.661449 6.176100
-13.976000 36.811050 6.176100
-14.764000 36.811050 -15.280100
-14.764000 34.448849 -15.280100
16.809000 -36.494350 8.259300
14.293000 -36.494350 8.259300
13.976000 -36.811050 8.602200
17.125999 -36.811050 8.602200
14.293000 -33.978050 8.259300
14.293000 -36.494350 8.259300
14.293000 -36.494350 7.831100
14.293000 -33.978050 7.831100
13.976000 -33.661449 14.099000
13.976000 -36.811050 14.099000
13.976000 -36.811050 8.602200
13.976000 -33.661449 8.602200
16.809000 -33.978050 7.831100
16.809000 -36.494350 7.831100
16.809000 -36.494350 8.259300
16.809000 -33.978050 8.259300
17.040001 36.725052 6.860800
17.040001 33.747349 6.860800
-14.204000 33.889050 6.982300
-16.898001 33.889050 6.982300
-16.820000 33.967850 7.158900
-14.283000 33.967850 7.158900
17.125999 -36.811050 -15.280100
14.764000 -36.811050 -15.280100
13.976000 -36.811050 6.176100
17.125999 -36.811050 6.176100
7.761000 -35.236252 12.824900
8.496000 -35.236252 12.824900
8.496000 -35.433048 12.824900
7.761000 -35.433048 12.824900
-13.976000 -35.433048 10.752500
-13.976000 -35.433048 10.358800
13.976000 -35.433048 10.358800
13.976000 -35.433048 10.752500
7.761000 -35.236252 12.824900
7.761000 -35.236252 14.099000
-7.687000 -35.236252 14.099000
-7.687000 -35.236252 12.824900
-8.422000 -35.236252 12.824900
-8.422000 -35.236252 14.099000
-13.976000 -35.236252 14.099000
-13.976000 -35.236252 10.752500
13.976000 -35.236252 10.752500
13.976000 -35.236252 14.099000
8.496000 -35.236252 14.099000
8.496000 -35.236252 12.824900
17.125999 -36.811050 6.176100
17.125999 -33.661449 6.176100
17.125999 -34.448849 -15.280100
17.125999 -36.811050 -15.280100
8.496000 -35.236252 14.099000
8.496000 -35.433048 14.099000
8.496000 -35.433048 12.824900
8.496000 -35.236252 12.824900
7.761000 -35.433048 14.099000
7.761000 -35.236252 14.099000
7.761000 -35.236252 12.824900
7.761000 -35.433048 12.824900
13.976000 -33.661449 10.358800
13.976000 -33.661449 14.099000
13.976000 -35.236252 14.099000
13.976000 -35.236252 10.752500
13.976000 -35.433048 10.752500
13.976000 -35.433048 10.358800
-14.253000 -33.937649 7.448300
-14.253000 -36.534752 7.448300
-7.687000 -35.236252 14.099000
13.976000 -35.236252 14.099000
13.976000 -33.661449 14.099000
-13.976000 -33.661449 14.099000
-13.976000 -35.236252 14.099000
-8.422000 -35.236252 14.099000
-8.422000 -35.433048 14.099000
-7.687000 -35.433048 14.099000
-8.422000 -35.236252 12.824900
-7.687000 -35.236252 12.824900
-7.687000 -35.433048 12.824900
-8.422000 -35.433048 12.824900
13.976000 33.661449 6.828900
13.976000 36.811050 6.828900
14.062000 36.725052 6.860800
14.062000 33.747349 6.860800
-8.422000 -35.433048 14.099000
-8.422000 -35.433048 12.824900
-7.687000 -35.433048 12.824900
-7.687000 -35.433048 14.099000
-14.173000 33.858250 6.176100
-14.173000 36.614151 6.176100
-16.929001 36.614151 6.176100
-17.125999 36.811050 6.176100
-13.976000 36.811050 6.176100
-13.976000 33.661449 6.176100
7.761000 -35.433048 14.099000
7.761000 -35.433048 12.824900
8.496000 -35.433048 12.824900
8.496000 -35.433048 14.099000
-13.976000 35.236252 10.752500
13.598000 35.236252 10.752500
13.598000 35.433048 10.752500
-13.976000 35.433048 10.752500
13.976000 36.811050 6.828900
17.125999 36.811050 6.828900
-14.293000 -33.978050 7.257000
-14.293000 -36.494350 7.257000
13.976000 33.661449 6.828900
13.976000 33.661449 6.390200
13.976000 36.811050 6.390200
13.976000 36.811050 6.828900
-17.125999 36.811050 -15.280100
-17.125999 34.448849 -15.280100
-14.764000 34.448849 -15.280100
-14.764000 36.811050 -15.280100
-17.125999 36.811050 -15.280100
-14.764000 36.811050 -15.280100
-13.976000 36.811050 6.176100
-17.125999 36.811050 6.176100
-14.062000 -33.747349 7.653300
-17.040001 -33.747349 7.653300
17.125999 36.811050 6.828900
13.976000 36.811050 6.828900
13.976000 36.811050 6.390200
17.125999 36.811050 6.390200
13.976000 33.661449 6.176100
17.125999 33.661449 6.176100
17.125999 34.448849 -15.280100
14.764000 34.448849 -15.280100
-13.976000 -33.661449 7.685200
-17.125999 -33.661449 7.685200
18.701000 -38.385849 14.099000
-18.701000 -38.385849 14.099000
-18.701000 38.385849 14.099000
18.701000 38.385849 14.099000
-18.701000 -38.385849 15.280100
-18.701000 38.385849 15.280100
-18.701000 38.385849 14.099000
-18.701000 -38.385849 14.099000
-17.125999 36.811050 6.828900
-13.976000 36.811050 6.828900
16.809000 36.494350 7.257000
14.293000 36.494350 7.257000
-17.125999 34.448849 -15.280100
-17.125999 36.811050 -15.280100
-17.125999 36.811050 6.176100
-17.125999 33.661449 6.176100
17.125999 36.811050 6.828900
17.125999 33.661449 6.828900
18.701000 -38.385849 14.099000
18.701000 -38.385849 15.280100
-18.701000 -38.385849 15.280100
-18.701000 -38.385849 14.099000
17.040001 33.747349 7.653300
17.040001 36.725052 7.653300
16.898001 36.583351 7.531700
14.204000 36.583351 7.531700
-13.976000 -33.661449 7.831100
-13.976000 -33.661449 7.685200
-13.976000 -36.811050 7.685200
-13.976000 -36.811050 7.831100
13.976000 33.661449 7.685200
17.125999 33.661449 7.685200
13.976000 33.661449 14.099000
13.976000 36.811050 14.099000
17.125999 36.811050 14.099000
17.125999 33.661449 14.099000
13.976000 33.661449 7.831100
13.976000 33.661449 7.685200
13.976000 36.811050 7.685200
13.976000 36.811050 7.831100
-17.125999 -33.661449 7.685200
-17.125999 -33.661449 7.831100
-17.125999 -36.811050 7.831100
-17.125999 -36.811050 7.685200
17.125999 33.661449 7.685200
17.125999 36.811050 7.685200
-17.125999 -36.811050 7.685200
-13.976000 -36.811050 7.685200
13.598000 35.236252 10.752500
13.598000 35.236252 14.099000
13.598000 33.661449 14.099000
13.598000 33.661449 10.358800
13.598000 35.433048 10.358800
13.598000 35.433048 10.752500
-17.125999 -36.811050 8.602200
-13.976000 -36.811050 8.602200
-14.293000 -36.494350 8.259300
-16.809000 -36.494350 8.259300
-16.929001 -33.858250 6.176100
-16.929001 -33.858250 6.390200
-16.929001 -36.614151 6.390200
-16.929001 -36.614151 6.176100
13.976000 36.811050 7.685200
17.125999 36.811050 7.685200
17.125999 36.811050 7.831100
13.976000 36.811050 7.831100
-13.976000 -36.811050 7.685200
-17.125999 -36.811050 7.685200
-17.125999 -36.811050 7.831100
-13.976000 -36.811050 7.831100
17.125999 36.811050 14.099000
13.976000 36.811050 14.099000
13.976000 36.811050 8.602200
17.125999 36.811050 8.602200
14.293000 36.494350 8.259300
16.809000 36.494350 8.259300
17.125999 36.811050 8.602200
13.976000 36.811050 8.602200
-14.173000 -33.858250 6.390200
-14.173000 -33.858250 6.176100
-14.173000 -36.614151 6.176100
-14.173000 -36.614151 6.390200
17.125999 33.661449 8.602200
17.125999 33.661449 14.099000
17.125999 36.811050 14.099000
17.125999 36.811050 8.602200
-16.809000 -36.494350 8.259300
-16.809000 -33.978050 8.259300
-17.125999 -33.661449 8.602200
-17.125999 -36.811050 8.602200
14.293000 36.494350 7.831100
16.809000 36.494350 7.831100
16.809000 36.494350 8.259300
14.293000 36.494350 8.259300
14.293000 33.978050 8.259300
16.809000 33.978050 8.259300
16.809000 33.978050 7.831100
14.293000 33.978050 7.831100
13.976000 33.661449 6.176100
14.764000 34.448849 -15.280100
14.764000 36.811050 -15.280100
13.976000 36.811050 6.176100
-16.809000 -36.494350 8.259300
-14.293000 -36.494350 8.259300
-14.293000 -36.494350 7.831100
-16.809000 -36.494350 7.831100
-13.976000 -36.811050 8.602200
-17.125999 -36.811050 8.602200
-17.125999 -36.811050 14.099000
-13.976000 -36.811050 14.099000
14.293000 33.978050 8.259300
14.293000 33.978050 7.831100
14.293000 36.494350 7.831100
14.293000 36.494350 8.259300
13.976000 33.661449 14.099000
13.976000 33.661449 8.602200
13.976000 36.811050 8.602200
13.976000 36.811050 14.099000
-13.976000 -33.661449 8.602200
-17.125999 -33.661449 8.602200
-16.809000 -33.978050 8.259300
-14.293000 -33.978050 8.259300
17.125999 36.811050 -15.280100
14.764000 36.811050 -15.280100
14.764000 34.448849 -15.280100
17.125999 34.448849 -15.280100
17.125999 33.661449 6.176100
13.976000 33.661449 6.176100
14.173000 33.858250 6.176100
16.929001 33.858250 6.176100
17.125999 36.811050 6.176100
16.929001 36.614151 6.176100
14.173000 36.614151 6.176100
13.976000 36.811050 6.176100
-17.125999 -33.661449 8.602200
-17.125999 -33.661449 14.099000
-17.125999 -36.811050 14.099000
-17.125999 -36.811050 8.602200
-13.976000 33.661449 7.831100
-13.976000 33.661449 7.685200
-17.125999 33.661449 7.685200
-17.125999 33.661449 7.831100
-8.571000 35.236252 14.099000
-8.571000 35.433048 14.099000
-8.571000 35.433048 12.824900
-8.571000 35.236252 12.824900
-13.976000 -33.661449 14.099000
-13.976000 -33.661449 8.602200
-13.976000 -36.811050 8.602200
-13.976000 -36.811050 14.099000
15.551000 -33.661449 14.099000
15.551000 -33.661449 10.752500
15.551000 33.661449 10.752500
15.551000 33.661449 14.099000
15.551000 20.463249 14.099000
15.551000 20.463249 12.824900
15.551000 18.691650 12.824900
15.551000 18.691650 14.099000
15.551000 -18.513149 14.099000
15.551000 -18.513149 12.824900
15.551000 -20.284750 12.824900
15.551000 -20.284750 14.099000
15.551000 33.661449 10.752500
15.551000 -33.661449 10.752500
15.748000 -33.661449 10.752500
15.748000 33.661449 10.752500
15.748000 18.691650 14.099000
15.551000 18.691650 14.099000
15.551000 18.691650 12.824900
15.748000 18.691650 12.824900
13.976000 -33.661449 14.099000
13.976000 -33.661449 10.358800
15.748000 -33.661449 10.358800
15.748000 -33.661449 10.752500
15.551000 -33.661449 10.752500
15.551000 -33.661449 14.099000
15.748000 -33.661449 10.752500
15.748000 -33.661449 10.358800
15.748000 33.661449 10.358800
15.748000 33.661449 10.752500
8.119000 35.433048 14.099000
8.119000 35.236252 14.099000
8.119000 35.236252 12.824900
8.119000 35.433048 12.824900
-17.125999 33.661449 7.831100
-16.809000 33.978050 7.831100
-14.293000 33.978050 7.831100
-14.293000 36.494350 7.831100
-13.976000 36.811050 7.831100
-13.976000 33.661449 7.831100
-13.976000 -36.811050 6.176100
-14.173000 -36.614151 6.176100
-14.173000 -33.858250 6.176100
-16.929001 -33.858250 6.176100
-17.125999 -33.661449 6.176100
-13.976000 -33.661449 6.176100
-17.125999 -36.811050 6.176100
-13.976000 -36.811050 6.176100
-14.764000 -36.811050 -15.280100
-17.125999 -36.811050 -15.280100
-17.125999 -36.811050 6.176100
-16.929001 -36.614151 6.176100
15.748000 -20.284750 14.099000
15.551000 -20.284750 14.099000
15.551000 -20.284750 12.824900
15.748000 -20.284750 12.824900
15.551000 -20.284750 12.824900
15.551000 -18.513149 12.824900
15.748000 -18.513149 12.824900
15.748000 -20.284750 12.824900
13.976000 -33.661449 10.358800
13.976000 33.661449 10.358800
15.748000 33.661449 10.358800
15.748000 -33.661449 10.358800
4 0 1 2 3
4 4 5 6 7
4 8 9 10 11
8 12 13 14 15 16 17 18 19
4 20 21 22 23
4 24 25 26 27
4 28 29 30 31
4 32 33 34 35
4 36 37 38 39
4 40 41 42 43
4 44 45 46 47
4 48 49 50 51
4 52 53 54 55
4 56 57 58 59
4 60 61 62 63
4 64 65 66 67
4 68 69 70 71
6 72 73 74 75 76 77
4 78 79 80 81
4 82 83 84 85
4 86 87 88 89
8 90 91 92 93 94 95 96 97
4 98 99 100 101
7 102 103 104 105 106 107 108
4 109 110 111 112
4 113 114 115 116
4 117 118 119 120
10 121 100 99 122 123 124 98 101 125 126
4 127 128 129 130
4 131 132 133 134
4 135 136 137 138
6 139 140 141 142 143 144
4 145 146 147 148
6 149 150 151 152 153 154
4 155 156 157 158
4 159 160 136 135
8 161 162 163 164 165 166 167 168
4 169 170 171 172
4 173 174 175 176
4 177 178 160 159
4 179 180 181 182
4 151 150 183 184
4 185 186 187 188
4 189 190 191 192
4 193 194 195 196
4 197 198 199 200
4 201 202 203 204
4 205 206 207 208
4 209 210 211 212
4 213 214 215 216
4 217 218 219 220
4 221 222 223 224
4 225 226 227 228
4 229 230 231 232
4 233 234 235 236
4 237 238 239 240
4 241 242 243 244
4 245 246 247 248
4 249 250 251 252
4 253 254 255 256
4 257 258 259 260
4 261 262 263 264
4 265 266 267 268
4 269 270 271 272
4 273 274 4 7
4 275 276 277 278
4 279 280 281 282
4 283 284 285 286
4 287 288 289 290
4 291 292 293 294
4 295 296 297 298
4 299 300 301 302
4 303 304 305 306
4 307 308 309 310
4 311 312 313 314
7 315 316 317 318 319 320 321
4 322 192 191 323
4 324 325 326 327
6 328 329 330 331 332 333
6 334 335 336 337 338 339
4 340 341 342 343
4 344 345 346 347
4 348 349 350 351
4 352 353 354 355
4 356 357 358 359
4 360 361 347 346
4 362 363 364 365
4 366 367 89 88
4 368 369 370 371
4 372 373 374 375
4 376 377 378 379
4 380 381 382 383
4 384 385 386 387
4 388 389 390 391
4 392 393 394 395
4 396 397 398 399
4 400 401 402 403
4 404 405 406 407
4 408 409 410 411
4 412 413 414 415
4 416 417 418 419
4 420 421 422 423
4 424 425 426 427
4 428 429 430 431
4 432 433 434 435
4 436 437 438 439
4 440 441 442 443
4 444 445 446 447
4 448 449 450 451
4 452 453 454 455
8 456 457 458 459 460 461 462 463
4 464 465 466 467
4 468 469 470 471
4 472 473 474 475
4 476 477 478 479
4 480 481 482 483
4 479 478 484 485
4 486 487 488 489
4 490 491 492 493
4 494 495 496 497
4 498 499 500 501
8 502 503 504 505 506 507 508 509
4 510 511 512 513
4 429 428 514 515
4 516 517 190 189
4 477 476 518 519
4 170 169 520 521
4 522 523 524 525
4 87 86 526 527
4 521 520 528 529
6 530 77 76 531 274 273
4 532 533 534 535
4 529 528 536 537
4 538 539 540 541
4 491 79 78 492
4 50 401 400 51
4 542 543 544 545
4 177 546 547 178
4 548 549 550 551
4 552 553 554 555
4 556 557 558 559
4 560 561 562 563
8 564 565 566 567 568 569 570 571
12 572 573 574 575 576 577 578 579 580 581 582 583
4 584 585 586 587
4 588 589 590 591
7 317 592 321 320 593 594 318
4 595 596 597 598
4 599 600 601 602
4 603 604 605 606
6 607 608 609 610 611 612
4 613 614 615 616
4 617 618 619 620
4 621 622 623 624
4 33 61 60 34
4 625 626 627 628
4 629 630 631 632
4 57 56 633 634
4 635 636 637 638
4 639 640 641 642
4 643 644 645 646
4 647 648 649 650
4 651 652 653 654
4 655 656 657 658
4 659 660 661 662
4 663 664 665 666
4 667 668 669 670
4 671 672 673 674
4 675 676 677 678
4 679 680 681 682
4 683 684 685 686
4 687 688 689 690
4 210 209 691 692
4 693 118 117 694
4 55 695 696 52
4 697 698 699 700
4 701 702 703 704
4 705 706 707 708
4 709 710 711 712
4 713 714 715 716
6 102 108 717 106 105 718
4 719 720 721 722
12 723 724 725 726 727 728 729 730 731 732 733 734
4 302 301 388 391
4 32 35 31 30
4 361 360 735 736
4 255 254 737 738
4 739 740 54 53
4 741 742 112 111
4 743 744 745 746
4 740 739 742 741
8 747 748 749 750 751 752 753 754
6 755 551 550 756 757 758
4 759 760 761 762
4 763 764 9 8
4 765 766 767 768
4 769 770 693 694
4 110 109 771 772
4 773 774 775 776
4 777 770 769 778
4 779 780 781 782
4 783 784 772 771
4 785 786 787 788
4 789 790 791 792
4 617 620 784 783
6 793 794 795 796 797 798
4 764 763 83 82
4 799 800 801 802
4 803 85 84 804
6 805 154 153 806 515 514
4 184 183 807 808
4 809 810 811 812
4 518 813 814 519
4 815 816 817 818
4 174 634 633 175
4 819 820 821 822
4 823 824 825 826
4 827 828 829 830
4 517 516 831 832
4 833 834 835 836
4 837 838 839 840
4 841 842 843 844
4 845 74 73 846
8 847 848 439 438 849 850 437 436
4 851 852 853 854
4 855 856 857 858
4 859 860 861 862
4 863 864 865 866
4 867 868 869 870
4 871 872 873 874
4 461 460 457 456
4 875 876 877 878
4 879 880 881 882
4 883 884 490 493
4 885 886 887 888
4 889 890 891 892
4 893 894 895 896
4 897 898 899 900
12 901 902 903 904 905 906 907 908 909 910 911 912
4 913 914 915 916
4 917 918 919 920
4 921 922 923 924
6 925 926 927 928 929 930
4 931 932 282 281
8 933 934 935 936 937 938 939 940
4 941 942 943 944
4 945 946 947 948
4 949 950 951 952
10 511 510 953 954 955 513 512 956 957 958
4 959 960 961 962
4 963 964 965 966
4 498 967 968 499
6 969 758 757 970 932 931
4 172 171 485 484
4 736 735 445 444
4 971 972 973 974
4 161 168 165 164
4 975 976 977 978
4 979 980 981 982
4 10 983 984 11
4 985 986 987 988
4 258 49 48 259
4 27 527 526 24
4 236 235 447 446
4 989 990 991 992
4 59 58 225 228
4 253 256 832 831
4 984 983 993 994
4 501 500 286 285
4 995 996 997 998
4 999 1000 1001 1002
4 257 260 1003 1004
4 211 777 778 212
4 284 283 1005 1006
4 888 887 390 389
4 1007 1008 1009 1010
4 1006 1005 543 542
4 884 883 1011 1012
4 666 665 886 885
4 1013 1014 1015 1016
4 81 80 1017 1018
4 545 544 1019 1020
4 1021 1022 1023 1024
4 760 759 1020 1019
4 504 503 508 507
4 227 226 1025 1026
4 1027 1028 1029 1030
4 1031 1032 1033 1034
4 948 947 63 62
4 1035 1036 1037 1038
4 1018 1017 1039 1040
4 537 536 1041 1042
4 565 564 569 568
6 1043 1044 1045 1046 1047 1048
4 1049 1050 1051 1052
4 1053 1054 1055 1056
4 1057 1058 1059 1060
4 1061 1062 1063 1064
4 1065 1066 1067 1068
4 1069 1070 1071 1072
4 1073 1074 1075 1076
4 1077 1078 1079 1080
4 1081 1082 1083 1084
4 1085 1086 1087 1088
4 1089 1090 1091 1092
4 1093 1094 1095 1096
4 1097 1098 1099 1100
4 1101 1102 1103 1104
4 1105 1106 1107 1108
4 1109 1110 1111 1112
4 1113 1114 1115 1116
4 1117 1118 1119 1120
5 1121 1122 1123 1124 1125
7 1126 1127 1123 1122 1128 1125 1124
4 1129 1130 1131 1132
4 1133 1134 1135 1136
4 1137 1138 1139 1140
4 1141 1142 1143 1144
12 1145 1146 1147 1148 1149 1150 1151 1152 1153 1154 1155 1156
4 1157 1158 1159 1160
4 1161 1162 1163 1164
6 1165 1166 1167 1168 1169 1170
4 1171 1172 1173 1174
4 1175 1176 1177 1178
10 1179 195 194 1180 1181 1182 193 196 1183 1184
6 1185 1186 1187 1188 1189 1190
4 1191 1192 1193 1194
6 1186 1185 1195 1189 1188 1196
4 1197 1198 1199 1200
4 1201 1202 1203 1204
4 1205 1206 1207 1208
4 138 137 367 366
