ply
format ascii 1.0
comment Created by Blender 2.82 (sub 7) - www.blender.org, source file: ''
element vertex 460
property float x
property float y
property float z
element face 112
property list uchar uint vertex_indices
end_header
82.721741 -3.000136 45.639950
82.721741 -3.000136 45.139950
82.721786 -0.000202 45.139950
82.721786 -0.000202 45.639950
76.471832 -0.000172 -42.360050
76.471664 6.250123 -42.360050
76.471664 6.250123 -48.610050
76.471832 -0.000172 -48.610050
-6.249566 -79.721504 45.639950
-6.249604 -82.721443 45.639950
-3.249670 -82.721481 45.639950
-3.249632 -79.721542 45.639950
-79.721695 -3.000044 45.139950
-82.721626 -3.000005 45.139950
-82.721626 -3.000005 45.639950
-79.721695 -3.000044 45.639950
-2.999978 82.721642 45.639950
0.000042 82.721657 45.639950
0.000042 82.721657 45.139950
-2.999978 82.721642 45.139950
-82.721642 0.000015 45.639950
-79.721710 -0.000023 45.639950
-79.721710 -0.000023 45.139950
-82.721642 0.000015 45.139950
-6.250023 76.471687 -42.360050
-6.249775 -76.471146 -42.360050
-0.000345 -76.471474 -42.360050
0.000013 76.471703 -42.360050
-3.249632 -79.721542 45.639950
-3.249632 -79.721542 45.139950
-3.249670 -82.721481 45.139950
-3.249670 -82.721481 45.639950
-82.721642 0.000015 45.139950
-82.721642 0.000015 45.639950
-82.721626 -3.000005 45.639950
-82.721626 -3.000005 45.139950
-6.249775 -76.471146 -48.610050
-0.000345 -76.471474 -48.610050
-0.000345 -76.471474 -42.360050
-6.249775 -76.471146 -42.360050
-2.999978 82.721642 45.139950
0.000042 82.721657 45.139950
0.000042 82.721657 45.639950
-2.999978 82.721642 45.639950
-82.721642 0.000015 45.639950
-82.721626 -3.000005 45.639950
-79.721695 -3.000044 45.639950
-79.721710 -0.000023 45.639950
76.471832 -0.000172 42.139950
76.471664 6.250123 42.139950
76.471664 6.250123 -42.360050
76.471832 -0.000172 -42.360050
-82.721512 82.721794 45.139950
82.721725 82.721703 45.139950
82.721725 82.721703 42.139950
-82.721512 82.721794 42.139950
82.721779 -82.721794 42.139950
82.721779 -82.721794 45.139950
-82.721870 -82.721596 45.139950
-82.721870 -82.721596 42.139950
0.000042 82.721657 -48.610050
-6.249994 82.721634 -48.610050
-6.249604 -82.721443 -48.610050
-0.000175 -82.721771 -48.610050
-6.249566 -79.721504 45.139950
-3.249632 -79.721542 45.139950
-3.249632 -79.721542 45.639950
-6.249566 -79.721504 45.639950
82.721779 -82.721794 48.610050
82.721779 -82.721794 46.110050
82.721725 82.721703 46.110050
82.721725 82.721703 48.610050
77.250038 71.528336 42.139950
77.250038 71.528336 45.139950
-73.249855 71.528397 45.139950
-73.249855 71.528397 42.139950
-82.721512 82.721794 46.110050
-82.721512 82.721794 48.610050
-82.721870 -82.721596 48.610050
-82.721870 -82.721596 46.110050
82.721611 6.250094 42.139950
82.721611 6.250094 -48.610050
76.471664 6.250123 -48.610050
76.471664 6.250123 42.139950
-6.249775 -76.471146 42.139950
-0.000345 -76.471474 42.139950
-0.000345 -76.471474 -42.360050
-6.249775 -76.471146 -42.360050
76.471832 -0.000172 42.139950
82.721870 -0.000152 42.139950
82.721611 6.250094 42.139950
76.471664 6.250123 42.139950
-73.249855 71.528397 42.139950
-73.250053 -77.971260 42.139950
-82.721870 -82.721596 42.139950
-82.721512 82.721794 42.139950
82.721725 82.721703 42.139950
77.250038 71.528336 42.139950
82.721779 -82.721794 46.110050
82.721779 -82.721794 48.610050
-82.721870 -82.721596 48.610050
-82.721870 -82.721596 46.110050
76.471832 -0.000172 42.139950
76.471832 -0.000172 -48.610050
82.721870 -0.000152 -48.610050
82.721870 -0.000152 42.139950
-79.721695 -3.000044 45.639950
-79.721695 -3.000044 45.139950
-79.721710 -0.000023 45.139950
-79.721710 -0.000023 45.639950
0.000042 82.721657 45.639950
0.000042 82.721657 45.139950
0.000004 79.721725 45.139950
0.000004 79.721725 45.639950
82.721611 6.250094 42.139950
82.721870 -0.000152 42.139950
82.721870 -0.000152 -48.610050
82.721611 6.250094 -48.610050
0.000013 76.471703 42.139950
-6.250023 76.471687 42.139950
-6.250023 76.471687 -42.360050
0.000013 76.471703 -42.360050
-73.250053 -77.971260 45.139950
-73.249855 71.528397 45.139950
77.250038 71.528336 45.139950
-82.721512 82.721794 45.139950
-82.721870 -82.721596 45.139950
-79.721710 -0.000023 45.639950
-79.721710 -0.000023 45.139950
-79.721695 -3.000044 45.139950
-79.721695 -3.000044 45.639950
77.249863 -76.471352 42.139950
82.721779 -82.721794 42.139950
-79.721710 -0.000023 45.639950
-79.721695 -3.000044 45.639950
-82.721626 -3.000005 45.639950
-82.721642 0.000015 45.639950
82.721786 -0.000202 45.139950
79.721848 -0.000164 45.139950
79.721809 -3.000098 45.139950
82.721741 -3.000136 45.139950
-3.249670 -82.721481 45.639950
-6.249604 -82.721443 45.639950
-6.249604 -82.721443 45.139950
-3.249670 -82.721481 45.139950
-3.249670 -82.721481 45.639950
-3.249670 -82.721481 45.139950
-3.249632 -79.721542 45.139950
-3.249632 -79.721542 45.639950
-82.721870 -82.721596 46.110050
-82.721870 -82.721596 48.610050
-82.721512 82.721794 48.610050
-82.721512 82.721794 46.110050
-6.249604 -82.721443 45.139950
-6.249604 -82.721443 45.639950
-6.249566 -79.721504 45.639950
-6.249566 -79.721504 45.139950
82.721725 82.721703 48.610050
82.721779 -82.721794 48.610050
-82.721870 -82.721596 48.610050
-82.721512 82.721794 48.610050
-82.721512 82.721794 48.610050
-82.721870 -82.721596 48.610050
82.721779 -82.721794 48.610050
82.721725 82.721703 48.610050
-73.250053 -77.971260 45.139950
-0.000345 -76.471474 45.139950
-0.000345 -76.471474 42.139950
-73.250053 -77.971260 42.139950
82.721786 -0.000202 45.639950
82.721786 -0.000202 45.139950
82.721741 -3.000136 45.139950
82.721741 -3.000136 45.639950
0.000004 79.721725 45.639950
-3.000017 79.721710 45.639950
-3.000017 79.721710 45.139950
0.000004 79.721725 45.139950
82.721725 82.721703 46.110050
-82.721512 82.721794 46.110050
-82.721870 -82.721596 46.110050
82.721779 -82.721794 46.110050
0.000004 79.721725 45.139950
-3.000017 79.721710 45.139950
-3.000017 79.721710 45.639950
0.000004 79.721725 45.639950
-6.249775 -76.471146 42.139950
-6.249604 -82.721443 42.139950
-0.000175 -82.721771 42.139950
-0.000345 -76.471474 42.139950
82.721741 -3.000136 45.139950
79.721809 -3.000098 45.139950
79.721848 -0.000164 45.139950
82.721786 -0.000202 45.139950
-76.471367 6.250221 42.139950
-76.471367 6.250221 -42.360050
76.471664 6.250123 -42.360050
76.471664 6.250123 -48.610050
-82.721664 6.250051 -48.610050
-82.721664 6.250051 42.139950
-0.000175 -82.721771 42.139950
-0.000175 -82.721771 -48.610050
-0.000345 -76.471474 -48.610050
-0.000345 -76.471474 42.139950
79.721848 -0.000164 45.639950
82.721786 -0.000202 45.639950
82.721786 -0.000202 45.139950
79.721848 -0.000164 45.139950
0.000004 79.721725 45.139950
-3.000017 79.721710 45.139950
-2.999978 82.721642 45.139950
0.000042 82.721657 45.139950
-82.721870 -82.721596 46.110050
-82.721870 -82.721596 48.610050
82.721779 -82.721794 48.610050
82.721779 -82.721794 46.110050
0.000004 79.721725 45.639950
0.000004 79.721725 45.139950
0.000042 82.721657 45.139950
0.000042 82.721657 45.639950
-82.721512 82.721794 46.110050
82.721725 82.721703 46.110050
82.721725 82.721703 48.610050
-82.721512 82.721794 48.610050
-76.471367 6.250221 42.139950
-76.471344 0.000186 42.139950
-76.471344 0.000186 -42.360050
-76.471367 6.250221 -42.360050
-82.721642 0.000015 42.139950
-76.471344 0.000186 42.139950
-76.471367 6.250221 42.139950
-82.721664 6.250051 42.139950
-6.249775 -76.471146 -42.360050
-0.000345 -76.471474 -42.360050
-0.000345 -76.471474 42.139950
-6.249775 -76.471146 42.139950
82.721786 -0.000202 45.639950
82.721741 -3.000136 45.639950
79.721809 -3.000098 45.639950
79.721848 -0.000164 45.639950
0.000042 82.721657 45.139950
-2.999978 82.721642 45.139950
-3.000017 79.721710 45.139950
0.000004 79.721725 45.139950
-82.721512 82.721794 48.610050
82.721725 82.721703 48.610050
82.721725 82.721703 46.110050
-82.721512 82.721794 46.110050
82.721779 -82.721794 45.139950
82.721725 82.721703 45.139950
77.249863 -76.471352 45.139950
-82.721626 -3.000005 45.139950
-82.721626 -3.000005 45.639950
-82.721642 0.000015 45.639950
-82.721642 0.000015 45.139950
79.721809 -3.000098 45.139950
79.721809 -3.000098 45.639950
79.721848 -0.000164 45.639950
79.721848 -0.000164 45.139950
79.721848 -0.000164 45.639950
79.721809 -3.000098 45.639950
82.721741 -3.000136 45.639950
82.721786 -0.000202 45.639950
-2.999978 82.721642 45.139950
-2.999978 82.721642 45.639950
-3.000017 79.721710 45.639950
-3.000017 79.721710 45.139950
0.000042 82.721657 45.639950
0.000004 79.721725 45.639950
-3.000017 79.721710 45.639950
-2.999978 82.721642 45.639950
-6.249994 82.721634 42.139950
-6.250023 76.471687 42.139950
0.000013 76.471703 42.139950
0.000042 82.721657 42.139950
-79.721695 -3.000044 45.139950
-82.721626 -3.000005 45.139950
-82.721642 0.000015 45.139950
-79.721710 -0.000023 45.139950
-79.721695 -3.000044 45.639950
-82.721626 -3.000005 45.639950
-82.721626 -3.000005 45.139950
-79.721695 -3.000044 45.139950
82.721779 -82.721794 46.110050
-82.721870 -82.721596 46.110050
-82.721512 82.721794 46.110050
82.721725 82.721703 46.110050
79.721848 -0.000164 45.139950
82.721786 -0.000202 45.139950
82.721786 -0.000202 45.639950
79.721848 -0.000164 45.639950
-6.249566 -79.721504 45.639950
-3.249632 -79.721542 45.639950
-3.249632 -79.721542 45.139950
-6.249566 -79.721504 45.139950
-79.721710 -0.000023 45.139950
-82.721642 0.000015 45.139950
-82.721626 -3.000005 45.139950
-79.721695 -3.000044 45.139950
-73.250053 -77.971260 45.139950
-73.250053 -77.971260 42.139950
-73.249855 71.528397 42.139950
-73.249855 71.528397 45.139950
82.721741 -3.000136 45.139950
79.721809 -3.000098 45.139950
79.721809 -3.000098 45.639950
82.721741 -3.000136 45.639950
-6.249994 82.721634 -48.610050
0.000042 82.721657 -48.610050
0.000042 82.721657 42.139950
-6.249994 82.721634 42.139950
82.721779 -82.721794 45.139950
82.721779 -82.721794 42.139950
82.721725 82.721703 42.139950
82.721725 82.721703 45.139950
-3.249670 -82.721481 45.139950
-6.249604 -82.721443 45.139950
-6.249566 -79.721504 45.139950
-3.249632 -79.721542 45.139950
-82.721642 0.000015 45.139950
-79.721710 -0.000023 45.139950
-79.721710 -0.000023 45.639950
-82.721642 0.000015 45.639950
0.000013 76.471703 -42.360050
-0.000345 -76.471474 -42.360050
-0.000345 -76.471474 -48.610050
0.000042 82.721657 -48.610050
0.000042 82.721657 42.139950
0.000013 76.471703 42.139950
-6.249994 82.721634 42.139950
0.000042 82.721657 42.139950
0.000042 82.721657 -48.610050
-6.249994 82.721634 -48.610050
-6.249566 -79.721504 45.139950
-6.249566 -79.721504 45.639950
-6.249604 -82.721443 45.639950
-6.249604 -82.721443 45.139950
79.721848 -0.000164 45.139950
79.721848 -0.000164 45.639950
79.721809 -3.000098 45.639950
79.721809 -3.000098 45.139950
-3.249632 -79.721542 45.639950
-3.249670 -82.721481 45.639950
-6.249604 -82.721443 45.639950
-6.249566 -79.721504 45.639950
-3.249632 -79.721542 45.139950
-6.249566 -79.721504 45.139950
-6.249604 -82.721443 45.139950
-3.249670 -82.721481 45.139950
-82.721870 -82.721596 42.139950
-82.721870 -82.721596 45.139950
-82.721512 82.721794 45.139950
-82.721512 82.721794 42.139950
0.000042 82.721657 42.139950
0.000042 82.721657 -48.610050
-0.000345 -76.471474 -48.610050
-0.000345 -76.471474 -42.360050
0.000013 76.471703 -42.360050
0.000013 76.471703 42.139950
-6.249994 82.721634 -48.610050
0.000042 82.721657 -48.610050
-0.000175 -82.721771 -48.610050
-6.249604 -82.721443 -48.610050
-3.249670 -82.721481 45.139950
-6.249604 -82.721443 45.139950
-6.249604 -82.721443 45.639950
-3.249670 -82.721481 45.639950
-3.000017 79.721710 45.139950
-3.000017 79.721710 45.639950
-2.999978 82.721642 45.639950
-2.999978 82.721642 45.139950
-82.721642 0.000015 -48.610050
-82.721664 6.250051 -48.610050
82.721611 6.250094 -48.610050
82.721870 -0.000152 -48.610050
-0.000345 -76.471474 -48.610050
-0.000175 -82.721771 -48.610050
-0.000175 -82.721771 42.139950
-0.000345 -76.471474 42.139950
0.000013 76.471703 -42.360050
-0.000345 -76.471474 -42.360050
-6.249775 -76.471146 -42.360050
-6.250023 76.471687 -42.360050
77.249863 -76.471352 42.139950
77.249863 -76.471352 45.139950
77.250038 71.528336 45.139950
77.250038 71.528336 42.139950
-0.000345 -76.471474 45.139950
77.249863 -76.471352 45.139950
77.249863 -76.471352 42.139950
-0.000345 -76.471474 42.139950
0.000013 76.471703 -42.360050
-6.250023 76.471687 -42.360050
-6.250023 76.471687 42.139950
0.000013 76.471703 42.139950
0.000042 82.721657 42.139950
0.000013 76.471703 42.139950
-6.250023 76.471687 42.139950
-6.249994 82.721634 42.139950
-82.721642 0.000015 42.139950
-82.721664 6.250051 42.139950
-82.721664 6.250051 -48.610050
-82.721642 0.000015 -48.610050
-6.250023 76.471687 42.139950
-6.249994 82.721634 42.139950
-6.249994 82.721634 -48.610050
-6.249775 -76.471146 -48.610050
-6.249775 -76.471146 -42.360050
-6.250023 76.471687 -42.360050
-2.999978 82.721642 45.639950
-3.000017 79.721710 45.639950
0.000004 79.721725 45.639950
0.000042 82.721657 45.639950
-6.249775 -76.471146 -48.610050
-6.249994 82.721634 -48.610050
-6.249994 82.721634 42.139950
-6.250023 76.471687 42.139950
-6.250023 76.471687 -42.360050
-6.249775 -76.471146 -42.360050
82.721741 -3.000136 45.639950
79.721809 -3.000098 45.639950
79.721809 -3.000098 45.139950
82.721741 -3.000136 45.139950
-76.471344 0.000186 -42.360050
76.471832 -0.000172 -42.360050
76.471664 6.250123 -42.360050
-76.471367 6.250221 -42.360050
-6.249775 -76.471146 -42.360050
-0.000345 -76.471474 -42.360050
-0.000345 -76.471474 -48.610050
-6.249775 -76.471146 -48.610050
82.721725 82.721703 48.610050
82.721725 82.721703 46.110050
82.721779 -82.721794 46.110050
82.721779 -82.721794 48.610050
-0.000345 -76.471474 42.139950
-0.000175 -82.721771 42.139950
-6.249604 -82.721443 42.139950
-6.249775 -76.471146 42.139950
-0.000175 -82.721771 42.139950
-6.249604 -82.721443 42.139950
-6.249604 -82.721443 -48.610050
-0.000175 -82.721771 -48.610050
-6.249604 -82.721443 -48.610050
-6.249604 -82.721443 42.139950
-6.249775 -76.471146 42.139950
-6.249775 -76.471146 -48.610050
-82.721642 0.000015 -48.610050
76.471832 -0.000172 -48.610050
76.471832 -0.000172 -42.360050
-76.471344 0.000186 -42.360050
-76.471344 0.000186 42.139950
-82.721642 0.000015 42.139950
-6.249775 -76.471146 -48.610050
-6.249775 -76.471146 42.139950
-6.249604 -82.721443 42.139950
-6.249604 -82.721443 -48.610050
-0.000175 -82.721771 -48.610050
-6.249604 -82.721443 -48.610050
-6.249604 -82.721443 42.139950
-0.000175 -82.721771 42.139950
4 0 1 2 3
4 4 5 6 7
4 8 9 10 11
4 12 13 14 15
4 16 17 18 19
4 20 21 22 23
4 24 25 26 27
4 28 29 30 31
4 32 33 34 35
4 36 37 38 39
4 40 41 42 43
4 44 45 46 47
4 48 49 50 51
4 52 53 54 55
4 56 57 58 59
4 60 61 62 63
4 64 65 66 67
4 68 69 70 71
4 72 73 74 75
4 76 77 78 79
4 80 81 82 83
4 84 85 86 87
4 88 89 90 91
6 92 93 94 95 96 97
4 98 99 100 101
4 102 103 104 105
4 106 107 108 109
4 110 111 112 113
4 114 115 116 117
4 118 119 120 121
5 122 123 124 125 126
4 127 128 129 130
6 131 97 96 132 94 93
4 133 134 135 136
4 137 138 139 140
4 141 142 143 144
4 145 146 147 148
4 149 150 151 152
4 153 154 155 156
4 157 158 159 160
4 161 162 163 164
4 165 166 167 168
4 169 170 171 172
4 173 174 175 176
4 177 178 179 180
4 181 182 183 184
4 185 186 187 188
4 189 190 191 192
6 193 194 195 196 197 198
4 199 200 201 202
4 203 204 205 206
4 207 208 209 210
4 211 212 213 214
4 215 216 217 218
4 219 220 221 222
4 223 224 225 226
4 227 228 229 230
4 231 232 233 234
4 235 236 237 238
4 239 240 241 242
4 243 244 245 246
7 126 247 248 125 124 249 122
4 250 251 252 253
4 254 255 256 257
4 258 259 260 261
4 262 263 264 265
4 266 267 268 269
4 270 271 272 273
4 274 275 276 277
4 278 279 280 281
4 282 283 284 285
4 286 287 288 289
4 290 291 292 293
4 294 295 296 297
4 298 299 300 301
4 302 303 304 305
4 306 307 308 309
4 310 311 312 313
4 314 315 316 317
4 318 319 320 321
6 322 323 324 325 326 327
4 328 329 330 331
4 332 333 334 335
4 336 337 338 339
4 340 341 342 343
4 344 345 346 347
4 348 349 350 351
6 352 353 354 355 356 357
4 358 359 360 361
4 362 363 364 365
4 366 367 368 369
4 370 371 372 373
4 374 375 376 377
4 378 379 380 381
4 382 383 384 385
4 386 387 388 389
4 390 391 392 393
4 394 395 396 397
4 398 399 400 401
6 402 403 404 405 406 407
4 408 409 410 411
6 412 413 414 415 416 417
4 418 419 420 421
4 422 423 424 425
4 426 427 428 429
4 430 431 432 433
4 434 435 436 437
4 438 439 440 441
4 442 443 444 445
6 446 447 448 449 450 451
4 452 453 454 455
4 456 457 458 459
