ply
format ascii 1.0
comment Created by Blender 2.82 (sub 7) - www.blender.org, source file: ''
element vertex 224
property float x
property float y
property float z
element face 56
property list uchar uint vertex_indices
end_header
18.000000 17.000000 -15.000000
18.000000 17.000000 13.000000
16.000000 17.000000 13.000000
16.000000 17.000000 -15.000000
18.000000 -17.000000 -15.000000
18.000000 -18.000000 -15.000000
18.000000 -18.000000 13.000000
18.000000 -17.000000 13.000000
18.000000 -18.000000 13.000000
18.000000 -18.000000 15.000000
18.000000 18.000000 15.000000
18.000000 18.000000 13.000000
18.000000 17.000000 -15.000000
16.000000 17.000000 -15.000000
16.000000 18.000000 -15.000000
18.000000 18.000000 -15.000000
-18.000000 -17.000000 13.000000
16.000000 -17.000000 13.000000
-16.000000 -17.000000 13.000000
18.000000 -17.000000 -15.000000
16.000000 -17.000000 -15.000000
16.000000 -18.000000 -15.000000
18.000000 -18.000000 -15.000000
18.000000 -18.000000 -15.000000
16.000000 -18.000000 -15.000000
16.000000 -17.000000 -15.000000
18.000000 -17.000000 -15.000000
-16.000000 17.000000 -15.000000
-18.000000 17.000000 -15.000000
-18.000000 18.000000 -15.000000
-16.000000 18.000000 -15.000000
18.000000 -17.000000 13.000000
18.000000 17.000000 13.000000
16.000000 17.000000 13.000000
16.000000 18.000000 13.000000
-16.000000 18.000000 13.000000
-16.000000 17.000000 13.000000
-18.000000 17.000000 13.000000
-18.000000 -17.000000 13.000000
16.000000 -17.000000 13.000000
16.000000 -18.000000 13.000000
-16.000000 -18.000000 13.000000
16.000000 17.000000 13.000000
16.000000 18.000000 13.000000
16.000000 18.000000 -15.000000
16.000000 17.000000 -15.000000
-18.000000 -17.000000 13.000000
-18.000000 -17.000000 -15.000000
-16.000000 -17.000000 -15.000000
-16.000000 -17.000000 13.000000
-16.000000 18.000000 13.000000
-16.000000 18.000000 -15.000000
-18.000000 18.000000 -15.000000
-18.000000 18.000000 13.000000
-16.000000 -17.000000 13.000000
-16.000000 -18.000000 13.000000
16.000000 -18.000000 13.000000
16.000000 -18.000000 13.000000
16.000000 -17.000000 13.000000
16.000000 -17.000000 -15.000000
16.000000 -18.000000 -15.000000
-16.000000 18.000000 13.000000
-16.000000 17.000000 13.000000
-16.000000 17.000000 -15.000000
-16.000000 18.000000 -15.000000
18.000000 18.000000 15.000000
18.000000 -18.000000 15.000000
-18.000000 -18.000000 15.000000
-18.000000 18.000000 15.000000
-18.000000 -18.000000 13.000000
-18.000000 -18.000000 15.000000
18.000000 -18.000000 15.000000
18.000000 -18.000000 13.000000
18.000000 18.000000 15.000000
18.000000 -18.000000 15.000000
18.000000 -18.000000 13.000000
18.000000 18.000000 13.000000
-16.000000 18.000000 -15.000000
-16.000000 17.000000 -15.000000
-16.000000 17.000000 13.000000
-16.000000 18.000000 13.000000
-18.000000 18.000000 15.000000
-18.000000 -18.000000 15.000000
18.000000 -18.000000 15.000000
18.000000 18.000000 15.000000
-18.000000 -18.000000 -15.000000
-18.000000 -18.000000 13.000000
-16.000000 -18.000000 13.000000
-16.000000 -18.000000 -15.000000
-16.000000 -17.000000 -15.000000
-18.000000 -17.000000 -15.000000
-18.000000 -18.000000 -15.000000
-16.000000 -18.000000 -15.000000
-18.000000 -18.000000 -15.000000
-18.000000 -17.000000 -15.000000
-18.000000 -17.000000 13.000000
-18.000000 -18.000000 13.000000
-16.000000 17.000000 -15.000000
-16.000000 17.000000 13.000000
-18.000000 17.000000 13.000000
-18.000000 17.000000 -15.000000
18.000000 18.000000 13.000000
18.000000 18.000000 -15.000000
16.000000 18.000000 -15.000000
16.000000 18.000000 13.000000
18.000000 -17.000000 13.000000
18.000000 -17.000000 -15.000000
16.000000 -17.000000 -15.000000
16.000000 -17.000000 13.000000
18.000000 18.000000 15.000000
18.000000 18.000000 13.000000
-18.000000 18.000000 13.000000
-18.000000 18.000000 15.000000
-16.000000 -18.000000 -15.000000
-16.000000 -18.000000 13.000000
-18.000000 -18.000000 13.000000
-18.000000 -18.000000 -15.000000
18.000000 -18.000000 -15.000000
18.000000 -18.000000 13.000000
16.000000 -18.000000 13.000000
16.000000 -18.000000 -15.000000
-18.000000 17.000000 13.000000
-16.000000 17.000000 13.000000
-16.000000 18.000000 13.000000
16.000000 18.000000 13.000000
16.000000 17.000000 13.000000
18.000000 17.000000 13.000000
18.000000 -17.000000 13.000000
-16.000000 -17.000000 13.000000
-16.000000 -17.000000 -15.000000
-18.000000 -17.000000 -15.000000
-18.000000 -17.000000 13.000000
16.000000 -18.000000 -15.000000
16.000000 -17.000000 -15.000000
16.000000 -17.000000 13.000000
16.000000 -18.000000 13.000000
16.000000 -17.000000 13.000000
16.000000 -17.000000 -15.000000
18.000000 -17.000000 -15.000000
18.000000 -17.000000 13.000000
18.000000 -17.000000 13.000000
18.000000 -18.000000 13.000000
18.000000 -18.000000 -15.000000
18.000000 -17.000000 -15.000000
-18.000000 18.000000 15.000000
-18.000000 18.000000 13.000000
18.000000 18.000000 13.000000
18.000000 18.000000 15.000000
-16.000000 -17.000000 13.000000
-16.000000 -18.000000 13.000000
-16.000000 -18.000000 -15.000000
-16.000000 -17.000000 -15.000000
-16.000000 -17.000000 -15.000000
-16.000000 -18.000000 -15.000000
-16.000000 -18.000000 13.000000
-16.000000 -17.000000 13.000000
18.000000 18.000000 13.000000
18.000000 17.000000 13.000000
18.000000 17.000000 -15.000000
18.000000 18.000000 -15.000000
-18.000000 18.000000 13.000000
-18.000000 18.000000 15.000000
-18.000000 -18.000000 15.000000
-18.000000 -18.000000 13.000000
-18.000000 -18.000000 13.000000
18.000000 -18.000000 13.000000
18.000000 -18.000000 15.000000
-18.000000 -18.000000 15.000000
-18.000000 17.000000 -15.000000
-18.000000 17.000000 13.000000
-16.000000 17.000000 13.000000
-16.000000 17.000000 -15.000000
-18.000000 17.000000 -15.000000
-18.000000 18.000000 -15.000000
-18.000000 18.000000 13.000000
-18.000000 17.000000 13.000000
16.000000 17.000000 -15.000000
16.000000 17.000000 13.000000
18.000000 17.000000 13.000000
18.000000 17.000000 -15.000000
16.000000 17.000000 -15.000000
16.000000 18.000000 -15.000000
16.000000 18.000000 13.000000
16.000000 17.000000 13.000000
-18.000000 -18.000000 13.000000
-18.000000 -18.000000 15.000000
-18.000000 18.000000 15.000000
-18.000000 18.000000 13.000000
-16.000000 -18.000000 -15.000000
-18.000000 -18.000000 -15.000000
-18.000000 -17.000000 -15.000000
-16.000000 -17.000000 -15.000000
-18.000000 18.000000 13.000000
-18.000000 18.000000 -15.000000
-16.000000 18.000000 -15.000000
-16.000000 18.000000 13.000000
-18.000000 -18.000000 13.000000
-18.000000 -17.000000 13.000000
-18.000000 -17.000000 -15.000000
-18.000000 -18.000000 -15.000000
-18.000000 17.000000 13.000000
-18.000000 18.000000 13.000000
-18.000000 18.000000 -15.000000
-18.000000 17.000000 -15.000000
16.000000 -18.000000 -15.000000
16.000000 -18.000000 13.000000
18.000000 -18.000000 13.000000
18.000000 -18.000000 -15.000000
18.000000 18.000000 -15.000000
18.000000 17.000000 -15.000000
18.000000 17.000000 13.000000
18.000000 18.000000 13.000000
-16.000000 18.000000 -15.000000
-18.000000 18.000000 -15.000000
-18.000000 17.000000 -15.000000
-16.000000 17.000000 -15.000000
16.000000 18.000000 13.000000
16.000000 18.000000 -15.000000
18.000000 18.000000 -15.000000
18.000000 18.000000 13.000000
18.000000 18.000000 -15.000000
16.000000 18.000000 -15.000000
16.000000 17.000000 -15.000000
18.000000 17.000000 -15.000000
4 0 1 2 3
4 4 5 6 7
4 8 9 10 11
4 12 13 14 15
3 16 17 18
4 19 20 21 22
4 23 24 25 26
4 27 28 29 30
9 31 32 33 34 35 36 37 38 39
4 40 41 18 17
4 42 43 44 45
4 46 47 48 49
4 50 51 52 53
4 39 54 55 56
4 57 58 59 60
4 61 62 63 64
4 65 66 67 68
4 69 70 71 72
4 73 74 75 76
4 77 78 79 80
4 81 82 83 84
4 85 86 87 88
4 89 90 91 92
4 93 94 95 96
4 97 98 99 100
4 101 102 103 104
3 54 39 38
4 105 106 107 108
4 109 110 111 112
4 113 114 115 116
4 117 118 119 120
9 17 16 121 122 123 124 125 126 127
4 128 129 130 131
4 132 133 134 135
4 136 137 138 139
4 140 141 142 143
4 144 145 146 147
4 148 149 150 151
4 152 153 154 155
4 156 157 158 159
4 160 161 162 163
4 164 165 166 167
4 168 169 170 171
4 172 173 174 175
4 176 177 178 179
4 180 181 182 183
4 184 185 186 187
4 188 189 190 191
4 192 193 194 195
4 196 197 198 199
4 200 201 202 203
4 204 205 206 207
4 208 209 210 211
4 212 213 214 215
4 216 217 218 219
4 220 221 222 223
