ply
format ascii 1.0
comment Created by Blender 2.82 (sub 7) - www.blender.org, source file: ''
element vertex 1178
property float x
property float y
property float z
element face 537
property list uchar uint vertex_indices
end_header
11.131640 -0.077940 14.412505
11.189840 -0.062440 14.349905
11.252140 -0.170440 14.349905
11.209640 -0.213040 14.412505
11.157640 -0.264940 14.566905
11.060640 -0.096940 14.566905
11.713640 -0.077940 14.412505
11.713640 0.077960 14.412505
11.784540 0.096960 14.566905
11.784540 -0.096940 14.566905
-13.529860 0.299760 -14.538115
-13.392560 -0.862940 -14.382975
-13.505860 -0.907840 -14.380515
-13.651160 -0.313340 -14.544765
-13.651160 0.313360 -14.544765
11.466240 -0.162740 14.300905
11.379040 -0.162740 14.300905
11.379040 -0.162740 13.937005
11.466240 -0.162740 13.937005
6.715740 11.719160 -14.694575
6.791240 11.675550 -14.694575
6.791240 11.675550 -14.330685
6.715740 11.719160 -14.330685
-13.832460 -0.043640 -14.330685
-13.832460 -0.043640 -14.694575
-13.788860 -0.119140 -14.694575
-13.788860 -0.119140 -14.330685
8.188440 -0.875940 -3.015165
9.048140 3.874160 -8.150965
7.399240 11.192470 -14.382975
7.492440 11.269440 -14.380515
9.152740 3.914060 -8.118645
8.290340 -0.851340 -2.966325
5.917540 -4.961140 2.397805
5.823140 -4.972740 2.332105
-5.754960 9.729490 14.300905
-5.830460 9.773100 14.300905
-5.830460 9.773100 13.937005
-5.754960 9.729490 13.937005
-13.378760 -0.077940 -14.806155
-13.456660 -0.213040 -14.806155
-13.404760 -0.264940 -14.960605
-13.307760 -0.096940 -14.960605
-5.648960 -9.659440 14.349905
-5.773660 -9.659440 14.349905
-5.789260 -9.601340 14.412505
-5.808260 -9.530340 14.566905
-5.614360 -9.530340 14.566905
-5.725060 -9.916140 13.697905
-6.412060 -9.238240 13.422605
-6.316360 -9.166440 13.428605
-6.035960 -9.527740 13.623905
-5.664060 -9.810340 13.690405
-5.830460 10.011420 14.300905
-5.924360 10.105280 14.412505
-5.789260 10.183250 14.412505
-5.754960 10.055030 14.300905
11.259840 -0.043640 14.300905
11.303440 -0.119140 14.300905
6.664440 11.667890 -14.743535
6.715740 11.719160 -14.694575
6.672140 11.794710 -14.694575
6.543840 11.760350 -14.806155
6.621840 11.625300 -14.806155
5.902240 -12.056740 -14.382975
7.040740 -11.557940 -14.538115
7.113940 -11.655740 -14.544765
6.537240 -11.988740 -14.544765
5.917540 -12.178740 -14.380515
-6.346660 9.027580 13.488105
-6.415960 9.108860 13.428605
-5.664060 9.810370 13.690405
-5.609260 9.715570 13.744905
-4.570560 10.422010 13.671105
2.892240 8.477790 7.550105
6.771740 5.454260 2.397805
6.668840 5.461060 2.332105
2.801840 8.474850 7.467905
-4.626160 10.412330 13.562605
-13.572760 -0.361940 -14.960605
-13.591760 -0.291040 -14.806155
-13.747660 -0.291040 -14.806155
-13.766660 -0.361940 -14.960605
11.096440 -0.942940 13.428605
5.791340 -5.991140 7.432005
5.694840 -5.963640 7.501105
10.991440 -0.924640 13.488105
-5.233260 -9.991140 13.623905
-4.780160 -10.053340 13.428605
-4.794560 -10.172140 13.422605
-5.592160 10.011410 14.300905
-5.548560 9.935870 14.300905
-5.548560 9.935870 13.937005
-5.592160 10.011410 13.937005
6.672140 11.794710 -14.330685
6.672140 11.881940 -14.330685
6.672140 11.881940 -14.694575
6.672140 11.794710 -14.694575
6.931840 11.476390 -14.960605
6.737940 11.476390 -14.960605
6.569940 11.573370 -14.960605
6.472940 11.741340 -14.960605
6.472940 11.935300 -14.960605
6.569940 12.103270 -14.960605
6.737940 12.200250 -14.960605
6.931840 12.200250 -14.960605
7.099840 12.103270 -14.960605
7.196840 11.935300 -14.960605
7.196840 11.741340 -14.960605
7.099840 11.573370 -14.960605
5.815440 6.373860 7.637505
1.251940 8.115060 2.479205
1.160740 8.085530 2.554305
5.718940 6.346460 7.706705
11.134040 1.178960 13.827605
11.239140 1.197260 13.768105
-5.667660 -10.055040 13.937005
-5.592160 -10.011440 13.937005
-5.592160 -10.011440 14.300905
-5.667660 -10.055040 14.300905
-5.924360 -9.679240 14.412505
-5.830460 -9.773140 14.300905
-5.874060 -9.848640 14.300905
-5.944160 -9.829940 14.349905
-6.002260 -9.814340 14.412505
-13.436860 -0.062440 -14.743535
-13.436860 0.062360 -14.743535
-13.506960 0.043560 -14.694575
-13.506960 -0.043640 -14.694575
-5.789260 9.601270 14.412505
-5.633360 9.601270 14.412505
-5.614360 9.530330 14.566905
-5.808260 9.530330 14.566905
11.360240 0.232760 14.349905
11.344640 0.290960 14.412505
11.500540 0.290960 14.412505
11.485040 0.232760 14.349905
11.466240 0.162760 14.300905
11.379040 0.162760 14.300905
7.558940 11.353690 -14.322325
9.223440 3.984760 -8.049515
8.359940 -0.786240 -2.891165
8.525240 9.111910 -12.495715
9.241240 4.067260 -7.962125
7.580940 11.422660 -14.223995
2.980740 8.324570 7.706705
-4.482060 10.268790 13.827605
-4.472960 10.146940 13.833705
2.955040 8.209470 7.739005
6.822040 5.195660 2.603205
9.187340 1.098760 -2.744055
9.232940 1.191260 -2.809805
6.860240 5.301060 2.554305
-5.789260 -10.183240 14.412505
-5.773660 -10.125140 14.349905
-5.648960 -10.125140 14.349905
-5.633360 -10.183240 14.412505
-5.614360 -10.254240 14.566905
-5.808260 -10.254240 14.566905
6.878440 11.675550 -14.694575
6.878440 11.675550 -14.330685
6.878440 -12.001140 -14.330685
6.878440 -12.001140 -14.694575
6.954040 -11.957540 -14.694575
6.954040 -11.957540 -14.330685
6.672140 11.881940 -14.330685
6.672140 11.794710 -14.330685
6.715740 11.719160 -14.330685
6.791240 11.675550 -14.330685
6.878440 11.675550 -14.330685
6.954040 11.719160 -14.330685
6.997640 11.794710 -14.330685
6.997640 11.881940 -14.330685
6.954040 11.957480 -14.330685
6.878440 12.001090 -14.330685
6.791240 12.001090 -14.330685
6.715740 11.957480 -14.330685
-5.540860 -9.721840 14.349905
-5.446360 -9.627340 14.566905
5.993340 12.004120 -14.382975
6.013440 12.123350 -14.380515
6.570340 11.969600 -14.544765
6.520740 11.858140 -14.538115
6.897240 11.605500 -14.743535
6.772440 11.605500 -14.743535
6.737940 11.476390 -14.960605
6.931840 11.476390 -14.960605
11.060640 0.096960 14.566905
11.131640 0.077960 14.412505
-5.498260 9.679240 14.412505
-5.446360 9.627310 14.566905
6.472940 -11.741340 -14.960605
6.472940 -11.935340 -14.960605
6.543840 -11.916340 -14.806155
6.543840 -11.760340 -14.806155
-5.614360 -10.254240 14.566905
-5.446360 -10.157240 14.566905
-5.349360 -9.989240 14.566905
-5.349360 -9.795340 14.566905
-5.446360 -9.627340 14.566905
-5.614360 -9.530340 14.566905
-5.808260 -9.530340 14.566905
-5.976260 -9.627340 14.566905
-6.073260 -9.795340 14.566905
-6.073260 -9.989240 14.566905
-5.976260 -10.157240 14.566905
-5.808260 -10.254240 14.566905
11.541740 -0.119140 14.300905
11.541740 -0.119140 13.937005
11.303440 -0.119140 14.300905
11.303440 -0.119140 13.937005
7.005340 -11.667940 -14.743535
7.067640 -11.775940 -14.743535
7.125840 -11.760340 -14.806155
7.196840 -11.741340 -14.960605
7.099840 -11.573440 -14.960605
11.252140 0.170460 14.349905
11.157640 0.264960 14.566905
11.325640 0.361960 14.566905
10.900140 0.992760 13.693705
11.143740 -0.000040 13.969005
10.900140 -0.992840 13.693705
10.938340 -1.060940 13.784705
11.198440 -0.000040 14.078605
10.938340 1.060960 13.784705
1.302340 7.703770 2.357805
5.791340 5.991060 7.432005
5.694840 5.963560 7.501105
-3.458160 7.674250 -2.844955
-3.372460 7.703770 -2.926315
-4.680560 10.110800 13.428605
-4.644760 10.010120 13.488105
-23.622040 -0.000040 14.566905
-20.457291 11.811010 14.566905
-20.457291 11.811010 14.960605
-23.622040 -0.000040 14.960605
7.162340 11.841570 -14.267015
7.169340 11.828080 -14.388235
6.658740 12.122820 -14.388235
6.101840 12.276570 -14.223995
6.146640 12.269510 -14.111865
11.218540 -0.000040 13.744905
11.151140 -0.000040 13.846905
11.092340 0.492760 13.780405
11.160940 0.482960 13.679705
1.125340 -7.703840 2.514305
5.614440 -5.991140 7.588505
-3.458160 -7.674240 -2.844955
-3.549360 -7.703840 -2.769795
-8.185660 -6.271340 -7.879865
-3.642060 -8.004840 -2.744055
1.088540 -8.004840 2.603205
5.632140 -6.271340 7.739005
11.024040 -1.129140 13.833705
5.578240 -6.168740 7.725905
1.054640 -7.894640 2.612605
-3.655560 -7.894640 -2.711535
-8.179160 -6.168740 -7.824795
-13.656460 -0.801540 -14.015995
-13.698960 -0.862940 -14.111865
6.071840 11.824540 -14.121025
6.027140 11.831610 -14.233155
6.473740 11.706830 -14.363435
6.488940 11.707530 -14.242205
6.621840 -11.625340 -14.806155
6.569940 -11.573440 -14.960605
1.160740 -8.085540 2.554305
5.718940 -6.346440 7.706705
11.134040 -1.179040 13.827605
-3.584760 -8.085540 -2.809805
-8.125360 6.066160 -7.811675
-3.621660 7.784450 -2.720955
1.068140 7.784450 2.580105
5.571740 6.066160 7.670805
5.578240 6.168760 7.725905
1.054640 7.894650 2.612605
-3.655560 7.894650 -2.711535
-8.179160 6.168760 -7.824795
-13.656460 0.801560 -14.015995
-13.566460 0.740160 -13.962055
11.599540 -0.000040 13.997305
11.532040 -0.000040 14.099205
11.457040 -0.628940 14.014405
11.525640 -0.619140 13.913705
-13.378760 0.077960 -14.806155
-13.456660 0.212960 -14.806155
-13.550560 0.119160 -14.694575
-5.614360 10.254190 14.566905
-5.633360 10.183250 14.412505
-5.808260 10.254190 14.566905
-13.626060 -0.162740 -14.694575
-13.550560 -0.119140 -14.694575
-5.754960 10.055030 14.300905
-5.667660 10.055030 14.300905
-5.667660 10.055030 13.937005
-5.754960 10.055030 13.937005
11.687540 -0.264940 14.566905
11.635640 -0.213040 14.412505
-5.667660 9.729490 14.300905
-5.592160 9.773100 14.300905
6.756940 -12.129340 -14.806155
6.737940 -12.200240 -14.960605
6.931840 -12.200240 -14.960605
6.912840 -12.129340 -14.806155
6.954040 11.957480 -14.694575
6.997640 11.881940 -14.694575
7.067640 11.900700 -14.743535
7.005340 12.008750 -14.743535
-1.516960 -10.046340 -7.913125
6.048840 -11.919440 -14.022695
5.998340 -11.866940 -14.121025
-1.582460 -9.991340 -8.000515
7.139440 11.767060 -14.489905
5.571740 -6.066240 7.670805
10.919540 -0.942940 13.585205
1.068140 -7.784440 2.580105
-4.644260 -10.296440 13.768105
-5.216160 -10.217840 14.014405
-5.258460 -10.272740 13.913705
-4.695060 -10.350140 13.671105
11.189840 0.062360 14.349905
-6.594860 -9.170340 13.768105
-8.099860 -2.038740 7.637505
-8.117660 -2.121240 7.550105
-6.615860 -9.241140 13.671105
-4.683460 6.532060 -2.992055
-1.031960 9.624280 -8.082775
-0.949460 9.625920 -8.000515
-4.589160 6.543760 -2.926315
-6.926560 2.495260 2.357805
-7.028360 2.470660 2.309005
11.330440 1.129060 13.562605
11.311040 1.178960 13.671105
11.525640 0.619160 13.913705
11.606940 -0.000040 13.875105
-5.711260 -9.892240 14.153805
-6.178760 -9.537140 14.070305
-6.240860 -9.626240 14.014405
-5.766060 -9.987040 14.099205
-13.550560 0.119160 -14.694575
-13.550560 0.119160 -14.330685
-13.506960 0.043560 -14.330685
-13.506960 0.043560 -14.694575
-13.506960 -0.043640 -14.330685
-13.550560 -0.119140 -14.330685
-13.550560 -0.119140 -14.694575
-13.506960 -0.043640 -14.694575
-13.832460 0.043560 -14.694575
-13.832460 0.043560 -14.330685
-13.788860 0.119160 -14.330685
-13.788860 0.119160 -14.694575
-13.713360 0.162760 -14.330685
-13.626060 0.162760 -14.330685
-13.626060 0.162760 -14.694575
-13.713360 0.162760 -14.694575
-13.626060 -0.162740 -14.330685
-13.713360 -0.162740 -14.330685
-13.713360 -0.162740 -14.694575
-13.626060 -0.162740 -14.694575
11.259840 -0.043640 14.300905
11.259840 -0.043640 13.937005
-5.754960 -9.729540 13.937005
-5.754960 -9.729540 14.300905
-5.667660 -9.729540 14.300905
-5.667660 -9.729540 13.937005
6.543840 11.916290 -14.806155
6.472940 11.935300 -14.960605
6.472940 11.741340 -14.960605
11.585340 -0.043640 13.937005
11.585340 0.043560 13.937005
11.585340 0.043560 14.300905
11.585340 -0.043640 14.300905
11.519540 0.361960 14.566905
11.687540 0.264960 14.566905
11.635640 0.212960 14.412505
11.593040 0.170460 14.349905
6.894540 11.473320 -14.242205
7.232940 11.135420 -14.233155
7.204440 11.170630 -14.121025
11.541740 0.119160 13.937005
11.466240 0.162760 13.937005
11.466240 0.162760 14.300905
11.541740 0.119160 14.300905
11.519540 -0.361940 14.566905
11.500540 -0.291040 14.412505
6.897240 12.071140 -14.743535
6.931840 12.200250 -14.960605
6.737940 12.200250 -14.960605
6.772440 12.071140 -14.743535
0.000040 23.622040 14.960605
0.000040 23.622040 14.566905
-11.811060 20.457279 14.566905
-11.811060 20.457279 14.960605
-13.404760 0.264960 -14.960605
-13.572760 0.361960 -14.960605
-13.591760 0.290960 -14.806155
-23.622040 -0.000040 14.960605
-20.457291 11.811010 14.960605
-20.457291 11.811010 14.566905
-23.622040 -0.000040 14.566905
-7.792260 -3.281140 2.612605
-8.465760 1.553460 7.725905
-6.445460 8.909200 13.784705
-6.551060 8.947150 13.833705
-8.587160 1.545560 7.739005
-7.910560 -3.310240 2.603205
-5.545260 -7.407140 -2.744055
-1.678260 -10.420940 -7.879865
6.055440 -12.322140 -14.111865
6.090640 -12.252640 -14.015995
-1.587060 -10.360840 -7.824795
-5.437160 -7.360240 -2.711535
5.878240 6.066160 7.399705
1.374540 7.784450 2.309005
-3.315160 7.784450 -2.992055
-7.818860 6.066160 -8.082775
-13.260060 0.740160 -14.233155
-13.302560 0.801560 -14.329035
-7.825360 6.168760 -8.137845
-3.301760 7.894650 -3.024575
1.408440 7.894650 2.299605
5.932040 6.168760 7.412805
11.292240 1.060960 13.471605
11.206540 0.992760 13.422605
0.000040 -23.622040 14.960605
-11.811060 -20.457340 14.960605
-11.811060 -20.457340 14.566905
0.000040 -23.622040 14.566905
-11.811060 20.457279 14.566905
0.000040 23.622040 14.566905
0.000040 23.622040 14.960605
-11.811060 20.457279 14.960605
5.815440 -6.373940 7.637505
11.239140 -1.197240 13.768105
1.251940 -8.115040 2.479205
-5.803460 -10.051940 13.875105
-5.799760 -10.045540 13.997305
-6.267160 -9.690340 13.913705
-6.584960 -9.281440 13.562605
5.632140 6.271360 7.739005
11.024040 1.129060 13.833705
1.088540 8.004850 2.603205
-0.935360 9.984550 -7.824795
-4.603060 6.878670 -2.711535
-6.958160 2.799560 2.612605
-7.814060 -1.929740 7.725905
-6.333460 -8.973940 13.784705
-6.258760 -8.972840 13.693705
-7.727260 -1.972340 7.670805
-6.875160 2.736060 2.580105
-4.530260 6.797470 -2.720955
-0.878760 9.889660 -7.811675
6.180340 12.096990 -13.962055
6.175340 12.203780 -14.015995
5.895840 -6.346440 7.550105
11.311040 -1.179040 13.671105
-13.346960 -0.678740 -14.022695
-13.453160 -0.695240 -13.964505
-8.038460 -5.991140 -7.843995
-5.650260 9.786490 14.146205
-5.599160 9.698090 14.078605
-4.492860 10.036580 13.784705
-7.879260 6.271360 -8.150965
-13.392560 0.862860 -14.382975
-13.505860 0.907860 -14.380515
-7.966060 6.346460 -8.118645
-3.407860 8.085530 -2.966325
-3.335660 8.004850 -3.015165
-6.516860 9.177690 13.422605
-5.725060 9.916130 13.697905
-6.327460 8.955640 13.585205
-5.575560 9.657150 13.846905
-5.571860 9.650750 13.969005
-6.363660 8.912310 13.693705
-6.248960 -9.084040 13.488105
-5.973860 -9.438540 13.679705
-5.609260 -9.715640 13.744905
-7.775960 -2.197840 7.432005
-4.522260 6.604060 -2.844955
-6.856860 2.560360 2.433005
-7.705260 -2.127140 7.501105
-8.320460 1.679160 7.588505
-8.335260 1.763360 7.501105
-5.332960 -7.072240 -2.844955
-5.314560 -7.166840 -2.769795
-1.493960 -10.144540 -7.843995
6.086840 -12.020140 -13.964505
-6.651960 9.015990 13.827605
-5.711260 9.892260 14.153805
-5.766060 9.987050 14.099205
-6.721360 9.097270 13.768105
-13.760260 -0.318340 -14.489905
-13.760260 0.318360 -14.489905
6.053140 12.223070 -14.322325
6.620840 12.066490 -14.489905
5.895840 6.346460 7.550105
7.226440 11.239590 -14.022695
6.924440 11.534340 -14.140545
-3.315160 -7.784440 -2.992055
-7.818860 -6.066240 -8.082775
-13.260060 -0.740140 -14.233155
-13.276260 -0.695240 -14.121025
-7.861560 -5.991140 -8.000515
-3.372460 -7.703840 -2.926315
1.302340 -7.703840 2.357805
1.374540 -7.784440 2.309005
-8.381560 4.183560 10.074705
-8.699660 1.580860 7.706705
-8.020960 -3.290540 2.554305
-5.648160 -7.400340 -2.809805
-3.642060 8.004850 -2.744055
-8.185660 6.271360 -7.879865
-13.698960 0.862860 -14.111865
-7.651960 -3.118440 2.514305
-7.697560 -3.210840 2.580105
-5.352660 -7.272340 -2.720955
-1.519660 -10.259640 -7.811675
6.102140 -12.142140 -13.962055
-13.451260 0.244060 -14.140545
-13.451260 -0.244040 -14.140545
-13.383460 -0.249040 -14.242205
-13.383460 0.248960 -14.242205
-5.403060 -7.013640 -2.926315
-7.740460 -2.965140 2.357805
-7.667660 -3.028440 2.433005
-13.836260 0.299760 -14.267015
-13.828060 0.313360 -14.388235
-13.828060 -0.313340 -14.388235
-13.682760 -0.907840 -14.223995
-5.614060 -7.053840 -3.024575
-1.764060 -10.054440 -8.137845
5.913740 -11.946240 -14.329035
-1.831460 -10.155540 -8.150965
-5.698460 -7.141740 -3.015165
-8.063860 -3.044940 2.332105
-8.740360 1.810960 7.467905
-6.704260 9.212540 13.562605
-6.622460 9.215640 13.471605
-8.642760 1.859860 7.412805
-7.969160 -2.974640 2.299605
6.672140 -11.794740 -14.694575
6.672140 -11.794740 -14.330685
6.715740 -11.719140 -14.330685
6.715740 -11.719140 -14.694575
6.791240 -11.675540 -14.330685
6.878440 -11.675540 -14.330685
6.878440 -11.675540 -14.694575
6.791240 -11.675540 -14.694575
-7.966060 -6.346440 -8.118645
-7.879260 -6.271340 -8.150965
-3.335660 -8.004840 -3.015165
1.394940 -8.004840 2.332105
1.337740 -8.085540 2.397805
-3.407860 -8.085540 -2.966325
6.672140 -11.881940 -14.694575
6.672140 -11.881940 -14.330685
6.954040 -11.719140 -14.330685
6.997640 -11.794740 -14.330685
6.997640 -11.794740 -14.694575
6.954040 -11.719140 -14.694575
6.997640 -11.881940 -14.694575
6.997640 -11.881940 -14.330685
-13.307760 0.096960 -14.960605
-13.782660 -0.281240 -14.158705
6.912840 -11.547340 -14.806155
6.756940 -11.547340 -14.806155
6.772440 -11.605540 -14.743535
6.791240 -11.675540 -14.694575
6.878440 -11.675540 -14.694575
6.897240 -11.605540 -14.743535
-7.255160 2.644160 2.397805
-4.882460 6.753960 -2.966325
-4.852860 6.653460 -3.015165
-7.218160 2.556660 2.332105
-8.077760 -2.193540 7.467905
-5.830460 10.011420 14.300905
-5.830460 10.011420 13.937005
-5.874060 9.935870 13.937005
-5.874060 9.935870 14.300905
6.626940 11.972220 -14.092335
6.160340 11.977760 -13.964505
6.577340 11.860750 -14.085685
11.092340 -0.492740 13.780405
11.160940 -0.482940 13.679705
7.552440 11.457860 -14.111865
6.715740 11.957480 -14.330685
6.715740 11.957480 -14.694575
6.791240 12.001090 -14.330685
6.791240 12.001090 -14.694575
-5.924360 9.679240 14.412505
-5.976260 9.627310 14.566905
6.120540 11.878040 -14.022695
6.526840 11.763870 -14.140545
-3.499060 -8.115040 -2.891165
-5.571860 -9.650740 13.969005
-5.575560 -9.657140 13.846905
-5.947560 -9.374440 13.780405
-6.227860 -9.013140 13.585205
-5.776160 10.004530 13.765605
-4.669760 10.343010 13.471605
-4.689660 10.232650 13.422605
-4.606660 -10.196940 13.827605
-5.169960 -10.119540 14.070305
-5.754960 9.729490 14.300905
-5.874060 9.935870 14.300905
-5.944160 9.954640 14.349905
-6.002260 9.970230 14.412505
6.569940 11.573370 -14.960605
8.828840 4.073260 -7.913125
8.899540 4.143860 -7.843995
7.292940 11.323840 -13.964505
-13.713360 -0.162740 -14.694575
-5.874060 -9.848640 13.937005
-5.830460 -9.773140 13.937005
-5.754960 -9.729540 13.937005
-5.667660 -9.729540 13.937005
-5.592160 -9.773140 13.937005
-5.548560 -9.848640 13.937005
-5.548560 -9.935940 13.937005
-5.592160 -10.011440 13.937005
-5.667660 -10.055040 13.937005
-5.754960 -10.055040 13.937005
-5.830460 -10.011440 13.937005
-5.874060 -9.935940 13.937005
6.672140 11.881940 -14.694575
6.715740 11.957480 -14.694575
6.664440 12.008750 -14.743535
6.621840 12.051340 -14.806155
-13.832460 -0.043640 -14.694575
-13.960760 -0.077940 -14.806155
-13.882760 -0.213040 -14.806155
-13.788860 -0.119140 -14.694575
6.772440 -12.071140 -14.743535
6.897240 -12.071140 -14.743535
6.878440 -12.001140 -14.694575
6.791240 -12.001140 -14.694575
-5.944160 -9.954640 14.349905
-6.002260 -9.970240 14.412505
-6.073260 -9.989240 14.566905
-6.073260 -9.795340 14.566905
-5.924360 -10.105340 14.412505
-5.976260 -10.157240 14.566905
7.125840 -11.916340 -14.806155
7.196840 -11.935340 -14.960605
-5.548560 -9.935940 14.300905
-5.478460 -9.954640 14.349905
-5.540860 -10.062740 14.349905
-5.592160 -10.011440 14.300905
7.005340 -12.008740 -14.743535
7.099840 -12.103240 -14.960605
11.259840 0.043560 14.300905
11.259840 0.043560 13.937005
8.811040 3.990660 -8.000515
7.961640 -0.702440 -2.926315
7.980440 -0.614340 -2.844955
-5.420260 9.970230 14.412505
-5.349360 9.989240 14.566905
-5.349360 9.795280 14.566905
-5.420260 9.814290 14.412505
-5.976260 -9.627340 14.566905
-7.687460 -2.044640 7.588505
-6.838060 2.648460 2.514305
-3.621660 -7.784440 -2.720955
-8.125360 -6.066240 -7.811675
-13.566460 -0.740140 -13.962055
-5.830460 -10.011440 14.300905
-5.754960 -10.055040 14.300905
11.206540 -0.992840 13.422605
5.878240 -6.066240 7.399705
11.466240 -0.162740 14.300905
11.541740 -0.119140 14.300905
-5.478460 -9.829940 14.349905
-5.349360 -9.795340 14.566905
-5.349360 -9.989240 14.566905
11.585340 -0.043640 14.300905
6.983040 11.626540 -14.085685
-1.768660 -10.423840 -7.962125
3.310940 -12.122440 -12.495715
6.005940 -12.331940 -14.223995
-5.650260 -9.786540 14.146205
-4.592260 -10.078140 13.833705
-4.604960 -9.971840 13.784705
-5.599160 -9.698140 14.078605
-6.431760 -9.016040 13.833705
11.811040 -20.457340 14.960605
11.811040 -20.457340 14.566905
0.000040 -23.622040 14.566905
0.000040 -23.622040 14.960605
2.957740 8.422780 7.637505
9.217340 1.281160 -2.891165
6.841740 5.395760 2.479205
9.766340 -3.805940 -7.824795
9.092740 1.028560 -2.711535
6.737640 5.107760 2.612605
2.887540 8.108320 7.725905
-4.536460 9.967270 13.693705
2.796440 8.048220 7.670805
6.629440 5.060860 2.580105
8.974340 0.999360 -2.720955
9.644940 -3.813840 -7.811675
7.464340 -11.355640 -13.962055
7.565840 -11.400940 -14.015995
20.457340 -11.811040 14.960605
11.811040 -20.457340 14.960605
11.811040 -20.457340 14.566905
20.457340 -11.811040 14.566905
-12.153760 -3.005640 -12.495715
-8.142960 -6.346440 -7.962125
-8.062560 -6.373940 -8.049515
-13.612060 -0.924340 -14.322325
23.622040 -0.000040 14.566905
20.457340 -11.811040 14.566905
20.457340 -11.811040 14.960605
23.622040 -0.000040 14.960605
-8.368160 1.602360 7.670805
7.080840 11.674860 -14.544765
2.643240 8.313610 7.399705
6.476240 5.326260 2.309005
8.821140 1.264760 -2.992055
8.775540 1.172360 -2.926315
6.438140 5.220760 2.357805
2.617540 8.198500 7.432005
-5.799760 10.045480 13.997305
-6.740460 9.169210 13.671105
8.050140 -0.549240 -2.769795
5.712740 -4.597740 2.514305
5.807040 -4.586040 2.580105
8.151940 -0.524640 -2.720955
9.004040 4.183760 -7.811675
7.386140 11.400810 -13.962055
-8.408860 1.832460 7.432005
-7.850760 -2.945440 2.309005
-8.521360 1.867760 7.399705
5.938540 6.271360 7.467905
1.394940 8.004850 2.332105
1.337740 8.085530 2.397805
10.919540 0.942960 13.585205
10.991440 0.924660 13.488105
11.450140 -0.000040 13.697905
11.328040 -0.000040 13.690405
11.269240 0.492760 13.623905
11.096440 0.942960 13.428605
-5.144760 -9.837940 13.780405
-5.187060 -9.892740 13.679705
6.632640 -12.085540 -14.158705
6.642240 -12.141840 -14.267015
7.643540 -11.405240 -14.111865
9.458840 -3.709440 -7.913125
8.791240 1.082360 -2.844955
6.456540 5.126160 2.433005
9.443940 -3.625240 -8.000515
-13.560360 0.248960 -14.085685
-13.560360 -0.249040 -14.085685
-5.498260 -10.105340 14.412505
-5.667660 -10.055040 14.300905
9.201340 4.139560 -7.879865
8.341740 -0.610540 -2.744055
8.378740 -0.698140 -2.809805
-8.454760 4.255760 10.008405
-8.093760 -3.227240 2.479205
-1.834160 -10.368840 -8.049515
5.955440 -12.279440 -14.322325
-1.168960 9.773010 -8.150965
5.998440 11.897340 -14.329035
-1.112260 9.678110 -8.137845
-4.779960 6.572260 -3.024575
-7.135060 2.493060 2.299605
-7.990960 -2.236140 7.412805
-6.510360 -9.280340 13.471605
-0.886860 9.682600 -7.913125
-0.860960 9.779140 -7.843995
-4.500660 6.696960 -2.769795
11.422640 -0.000040 14.153805
11.348740 -0.619140 14.070305
6.526640 5.067560 2.514305
2.705940 8.045280 7.588505
2.640540 8.100290 7.501105
8.863940 1.019060 -2.769795
-4.517760 10.369470 13.768105
7.490340 -11.139840 -14.382975
7.588340 -11.214040 -14.380515
11.269240 -0.492740 13.623905
-13.681760 -0.262640 -14.092335
-13.453160 0.695160 -13.964505
-4.641360 -9.906740 13.693705
-8.109460 -3.137340 2.397805
-8.788160 1.734160 7.550105
-8.470060 4.336760 9.918105
5.614440 5.991060 7.588505
2.073040 -7.679840 7.588505
5.645840 -4.658040 2.433005
2.010440 -7.736540 7.501105
-4.742460 -9.953740 13.488105
-4.691660 -9.900040 13.585205
-5.803460 10.051870 13.875105
1.125340 7.703770 2.514305
9.911640 -3.680240 -7.962125
9.593640 -6.282840 -10.330132
7.676840 -11.367340 -14.223995
7.656640 -11.297340 -14.322325
9.578340 -6.201840 -10.420392
-13.375260 -0.262640 -14.363435
-13.276260 0.695160 -14.121025
-20.457291 -11.811040 14.960605
-20.457291 -11.811040 14.566905
-5.548560 -9.848640 14.300905
-5.592160 -9.773140 14.300905
-13.682760 0.907860 -14.223995
-14.031660 -0.096940 -14.960605
-13.934660 -0.264940 -14.960605
11.303440 0.119160 14.300905
11.259840 0.043560 14.300905
6.672140 -11.881940 -14.330685
6.715740 -11.957540 -14.330685
6.791240 -12.001140 -14.330685
6.878440 -12.001140 -14.330685
6.954040 -11.957540 -14.330685
6.997640 -11.881940 -14.330685
6.997640 -11.794740 -14.330685
6.954040 -11.719140 -14.330685
6.878440 -11.675540 -14.330685
6.791240 -11.675540 -14.330685
6.715740 -11.719140 -14.330685
6.672140 -11.794740 -14.330685
6.664440 -12.008740 -14.743535
6.621840 -12.051340 -14.806155
6.569940 -12.103240 -14.960605
2.284340 -8.034040 7.637505
2.221740 -8.090740 7.550105
-1.098160 10.036750 -7.962125
-1.160760 9.980070 -8.049515
-4.860860 6.846810 -2.891165
-7.236360 2.732260 2.479205
-7.166760 2.797360 2.554305
-4.793960 6.907160 -2.809805
6.737940 -11.476440 -14.960605
6.931840 -11.476440 -14.960605
-13.612060 0.924260 -14.322325
-7.861560 5.991060 -8.000515
-5.667660 9.729490 13.937005
-5.667660 9.729490 14.300905
-5.874060 9.848640 13.937005
-5.874060 9.848640 14.300905
-5.548560 9.848640 14.300905
-5.548560 9.848640 13.937005
5.624240 -4.750940 2.357805
1.984540 -7.833140 7.432005
-13.840160 0.170460 -14.743535
-13.882760 0.212960 -14.806155
-13.960760 0.077960 -14.806155
-13.832460 0.043560 -14.694575
-13.788860 0.119160 -14.694575
6.997640 11.794710 -14.330685
6.954040 11.719160 -14.330685
6.954040 11.719160 -14.694575
6.997640 11.794710 -14.694575
6.954040 11.957480 -14.330685
6.954040 11.957480 -14.694575
6.878440 12.001090 -14.694575
6.878440 12.001090 -14.330685
6.997640 11.881940 -14.330685
6.997640 11.881940 -14.694575
-3.549360 7.703770 -2.769795
-8.038460 5.991060 -7.843995
-13.346960 0.678760 -14.022695
6.672140 -11.794740 -14.694575
6.672140 -11.881940 -14.694575
7.125840 11.760350 -14.806155
7.196840 11.741340 -14.960605
7.196840 11.935300 -14.960605
7.125840 11.916290 -14.806155
6.954040 11.719160 -14.694575
7.005340 11.667890 -14.743535
7.067640 11.775940 -14.743535
6.997640 11.794710 -14.694575
-8.142960 6.346460 -7.962125
-3.584760 8.085530 -2.809805
-3.499060 8.115060 -2.891165
-8.062560 6.373860 -8.049515
6.569940 12.103270 -14.960605
6.791240 12.001090 -14.694575
11.344640 -0.291040 14.412505
11.325640 -0.361940 14.566905
7.998740 -0.790040 -2.992055
8.850840 3.918460 -8.082775
7.304240 11.143420 -14.329035
8.937640 3.875760 -8.137845
8.081740 -0.853540 -3.024575
5.726640 -4.932640 2.299605
2.058940 -8.038540 7.412805
-4.781860 -10.278340 13.471605
2.002340 -7.943640 7.399705
5.653840 -4.851440 2.309005
-4.592060 9.957580 13.585205
11.379040 -0.162740 14.300905
5.932040 -6.168740 7.412805
1.408440 -7.894640 2.299605
-3.301760 -7.894640 -3.024575
-7.825360 -6.168740 -8.137845
-13.302560 -0.801540 -14.329035
11.292240 -1.060940 13.471605
-5.446360 -10.157240 14.566905
-14.031660 0.096960 -14.960605
-5.548560 9.935870 14.300905
-5.592160 10.011410 14.300905
-5.498260 10.105280 14.412505
7.099840 11.573370 -14.960605
6.997640 -11.794740 -14.694575
6.997640 -11.881940 -14.694575
7.067640 -11.900740 -14.743535
7.120440 11.803920 -14.158705
7.481140 11.449860 -14.015995
-5.830460 -10.011440 13.937005
-5.754960 -10.055040 13.937005
-5.754960 -10.055040 14.300905
-5.830460 -10.011440 14.300905
7.099840 12.103270 -14.960605
11.552240 -0.000040 13.765605
11.330440 -1.129140 13.562605
-5.874060 -9.935940 14.300905
6.715740 -11.719140 -14.694575
6.664440 -11.667940 -14.743535
-13.506960 -0.043640 -14.330685
-13.506960 0.043560 -14.330685
-13.550560 0.119160 -14.330685
-13.626060 0.162760 -14.330685
-13.713360 0.162760 -14.330685
-13.788860 0.119160 -14.330685
-13.832460 0.043560 -14.330685
-13.832460 -0.043640 -14.330685
-13.788860 -0.119140 -14.330685
-13.713360 -0.162740 -14.330685
-13.626060 -0.162740 -14.330685
-13.550560 -0.119140 -14.330685
-5.874060 -9.935940 14.300905
-5.874060 -9.935940 13.937005
-13.713360 0.162760 -14.694575
-13.732060 0.232760 -14.743535
-5.548560 -9.935940 14.300905
-5.548560 -9.935940 13.937005
-13.626060 0.162760 -14.694575
-5.592160 -9.773140 14.300905
-5.592160 -9.773140 13.937005
-5.548560 -9.848640 14.300905
-5.548560 -9.848640 13.937005
6.878440 11.675550 -14.694575
6.791240 11.675550 -14.694575
-5.830460 -9.773140 13.937005
-5.830460 -9.773140 14.300905
-5.874060 -9.848640 14.300905
-5.874060 -9.848640 13.937005
-13.404760 0.264960 -14.960605
-13.307760 0.096960 -14.960605
-13.307760 -0.096940 -14.960605
-13.404760 -0.264940 -14.960605
-13.572760 -0.361940 -14.960605
-13.766660 -0.361940 -14.960605
-13.934660 -0.264940 -14.960605
-14.031660 -0.096940 -14.960605
-14.031660 0.096960 -14.960605
-13.934660 0.264960 -14.960605
-13.766660 0.361960 -14.960605
-13.572760 0.361960 -14.960605
-5.667660 10.055030 14.300905
6.954040 -11.957540 -14.694575
-5.754960 -9.729540 14.300905
-5.667660 -9.729540 14.300905
11.259840 0.043560 13.937005
11.303440 0.119160 13.937005
11.379040 0.162760 13.937005
11.466240 0.162760 13.937005
11.541740 0.119160 13.937005
11.585340 0.043560 13.937005
11.585340 -0.043640 13.937005
11.541740 -0.119140 13.937005
11.466240 -0.162740 13.937005
11.379040 -0.162740 13.937005
11.303440 -0.119140 13.937005
11.259840 -0.043640 13.937005
11.585340 0.043560 14.300905
11.541740 0.119160 14.300905
11.303440 0.119160 14.300905
11.379040 0.162760 14.300905
11.379040 0.162760 13.937005
11.303440 0.119160 13.937005
-5.548560 9.848640 14.300905
-6.002260 9.814290 14.412505
-6.073260 9.795280 14.566905
11.687540 0.264960 14.566905
11.519540 0.361960 14.566905
11.325640 0.361960 14.566905
11.157640 0.264960 14.566905
11.060640 0.096960 14.566905
11.060640 -0.096940 14.566905
11.157640 -0.264940 14.566905
11.325640 -0.361940 14.566905
11.519540 -0.361940 14.566905
11.687540 -0.264940 14.566905
11.784540 -0.096940 14.566905
11.784540 0.096960 14.566905
5.984440 -4.900740 2.479205
-6.073260 9.989240 14.566905
-5.944160 9.829870 14.349905
3.222540 -11.969140 -12.652235
-1.857160 -10.270640 -8.118645
-5.736660 -7.247140 -2.966325
-11.811060 20.457279 14.566905
0.000040 23.622040 14.566905
11.811040 20.457279 14.566905
20.457340 11.811010 14.566905
23.622040 -0.000040 14.566905
20.457340 -11.811040 14.566905
11.811040 -20.457340 14.566905
0.000040 -23.622040 14.566905
-11.811060 -20.457340 14.566905
-20.457291 -11.811040 14.566905
-22.817141 -6.113840 14.566905
-22.817141 6.113860 14.566905
-20.457291 11.811010 14.566905
11.811040 20.457279 14.960605
11.811040 20.457279 14.566905
20.457340 11.811010 14.566905
20.457340 11.811010 14.960605
0.000040 23.622040 14.566905
-11.811060 20.457279 14.566905
-20.457291 11.811010 14.566905
-23.622040 -0.000040 14.566905
-20.457291 -11.811040 14.566905
-11.811060 -20.457340 14.566905
0.000040 -23.622040 14.566905
11.811040 -20.457340 14.566905
20.457340 -11.811040 14.566905
23.622040 -0.000040 14.566905
20.457340 11.811010 14.566905
11.811040 20.457279 14.566905
11.811040 -20.457340 14.960605
20.457340 -11.811040 14.960605
23.622040 -0.000040 14.960605
20.457340 11.811010 14.960605
11.811040 20.457279 14.960605
0.000040 23.622040 14.960605
-11.811060 20.457279 14.960605
-20.457291 11.811010 14.960605
-22.817141 6.113860 14.960605
-22.817141 -6.113840 14.960605
-20.457291 -11.811040 14.960605
-11.811060 -20.457340 14.960605
0.000040 -23.622040 14.960605
9.491740 -3.548440 -8.082775
7.311140 -11.090340 -14.233155
7.277940 -11.128240 -14.121025
11.811040 20.457279 14.960605
11.811040 20.457279 14.566905
11.811040 20.457279 14.960605
20.457340 11.811010 14.960605
23.622040 -0.000040 14.960605
20.457340 -11.811040 14.960605
11.811040 -20.457340 14.960605
0.000040 -23.622040 14.960605
-11.811060 -20.457340 14.960605
-20.457291 -11.811040 14.960605
-23.622040 -0.000040 14.960605
-20.457291 11.811010 14.960605
-11.811060 20.457279 14.960605
0.000040 23.622040 14.960605
-11.811060 -20.457340 14.566905
-11.811060 -20.457340 14.960605
20.457340 11.811010 14.960605
23.622040 -0.000040 14.960605
23.622040 -0.000040 14.566905
20.457340 11.811010 14.566905
-20.457291 -11.811040 14.566905
-20.457291 -11.811040 14.960605
9.863940 -3.757040 -7.879865
-5.776160 -10.004540 13.765605
-4.745460 -10.343440 13.562605
6.446040 -11.722840 -14.363435
6.462640 -11.722740 -14.242205
5.903540 -4.626240 2.612605
2.235840 -7.732040 7.725905
2.292540 -7.826940 7.739005
5.976340 -4.707440 2.603205
9.114540 4.182160 -7.824795
8.258640 -0.547040 -2.711535
-6.527460 -9.087940 13.827605
-13.428860 -0.281240 -14.471745
2.139240 -8.092340 7.467905
8.915840 1.335060 -3.024575
9.589340 -3.499540 -8.137845
7.388940 -11.094540 -14.329035
2.710640 8.414760 7.412805
6.560740 5.414160 2.299605
5.938540 -6.271340 7.467905
7.298140 -11.198240 -14.022695
7.366340 -11.281440 -13.964505
9.532440 -3.778540 -7.843995
6.551040 -11.875940 -14.085685
6.501040 -11.778740 -14.140545
-5.718160 -7.341840 -2.891165
-8.029160 -1.968040 7.706705
-7.924560 -1.928140 7.739005
-7.064860 2.821960 2.603205
-4.699560 6.918830 -2.744055
3.628540 11.939050 -12.495715
-1.186660 9.883530 -8.118645
6.625640 -12.141940 -14.388235
2.310240 -7.937440 7.706705
6.005940 -4.807940 2.554305
2.155540 -7.678240 7.670805
6.455640 -11.779140 -14.471745
5.948940 -11.876740 -14.233155
-7.880560 -2.237740 7.399705
6.587240 -12.085940 -14.489905
6.599240 -11.988240 -14.092335
11.300440 -0.000040 14.146205
-1.672860 -9.994340 -8.082775
-5.505860 -7.006940 -2.992055
11.348740 0.619160 14.070305
6.485340 11.761960 -14.471745
11.457040 0.628960 14.014405
9.034140 1.364160 -3.015165
9.710740 -3.491640 -8.150965
9.505140 -6.129640 -10.486653
9.823240 -3.526940 -8.118645
9.144540 1.344460 -2.966325
-1.015660 10.038390 -7.879865
-13.747660 0.290960 -14.806155
6.791240 -12.001140 -14.330685
6.791240 -12.001140 -14.694575
6.715740 -11.957540 -14.330685
6.715740 -11.957540 -14.694575
6.715740 -11.957540 -14.694575
6.954040 -11.719140 -14.694575
-13.934660 0.264960 -14.960605
-13.766660 0.361960 -14.960605
6.472940 -11.741340 -14.960605
6.569940 -11.573440 -14.960605
6.737940 -11.476440 -14.960605
6.931840 -11.476440 -14.960605
7.099840 -11.573440 -14.960605
7.196840 -11.741340 -14.960605
7.196840 -11.935340 -14.960605
7.099840 -12.103240 -14.960605
6.931840 -12.200240 -14.960605
6.737940 -12.200240 -14.960605
6.569940 -12.103240 -14.960605
6.472940 -11.935340 -14.960605
-5.754960 10.055030 13.937005
-5.667660 10.055030 13.937005
-5.592160 10.011410 13.937005
-5.548560 9.935870 13.937005
-5.548560 9.848640 13.937005
-5.592160 9.773100 13.937005
-5.667660 9.729490 13.937005
-5.754960 9.729490 13.937005
-5.830460 9.773100 13.937005
-5.874060 9.848640 13.937005
-5.874060 9.935870 13.937005
-5.830460 10.011420 13.937005
-5.976260 10.157210 14.566905
-5.592160 9.773100 13.937005
-5.592160 9.773100 14.300905
-5.830460 9.773100 14.300905
-5.874060 9.848640 14.300905
6.878440 12.001090 -14.694575
-5.446360 9.627310 14.566905
-5.349360 9.795280 14.566905
-5.349360 9.989240 14.566905
-5.446360 10.157210 14.566905
-5.614360 10.254190 14.566905
-5.808260 10.254190 14.566905
-5.976260 10.157210 14.566905
-6.073260 9.989240 14.566905
-6.073260 9.795280 14.566905
-5.976260 9.627310 14.566905
-5.808260 9.530330 14.566905
-5.614360 9.530330 14.566905
-5.446360 10.157210 14.566905
6 0 1 2 3 4 5
4 6 7 8 9
5 10 11 12 13 14
4 15 16 17 18
4 19 20 21 22
4 23 24 25 26
8 27 28 29 30 31 32 33 34
4 35 36 37 38
4 39 40 41 42
5 43 44 45 46 47
5 48 49 50 51 52
4 53 54 55 56
4 1 57 58 2
5 59 60 61 62 63
5 64 65 66 67 68
4 69 70 71 72
6 73 74 75 76 77 78
4 79 80 81 82
4 83 84 85 86
5 48 52 87 88 89
4 90 91 92 93
4 94 95 96 97
12 98 99 100 101 102 103 104 105 106 107 108 109
6 110 111 112 113 114 115
4 116 117 118 119
5 120 121 122 123 124
4 125 126 127 128
4 129 130 131 132
6 133 134 135 136 137 138
6 31 30 139 140 141 32
5 142 143 140 139 144
8 145 146 147 148 149 150 151 152
6 153 154 155 156 157 158
4 159 160 21 20
4 161 162 163 164
12 165 166 167 168 169 170 171 172 173 174 175 176
4 177 43 47 178
4 179 180 181 182
4 183 184 185 186
4 0 5 187 188
4 189 190 131 130
4 191 192 193 194
12 195 196 197 198 199 200 201 202 203 204 205 206
4 80 79 41 40
4 207 15 18 208
4 17 16 209 210
5 211 212 213 214 215
5 134 133 216 217 218
6 219 220 221 222 223 224
5 225 226 227 228 229
4 72 71 230 231
4 232 233 234 235
5 236 237 238 239 240
4 241 242 243 244
5 245 246 85 247 248
12 249 250 251 252 253 222 254 255 256 257 258 259
4 260 261 262 263
4 191 194 264 265
8 266 267 268 253 252 251 250 269
12 270 271 272 273 219 224 274 275 276 277 278 279
4 280 281 282 283
5 127 126 284 285 286
4 287 288 55 289
4 290 80 40 291
4 292 293 294 295
4 296 297 6 9
4 189 130 298 299
4 300 301 302 303
4 304 305 306 307
4 308 309 310 311
4 144 139 312 237
6 313 221 314 246 245 315
4 316 317 318 319
5 216 320 188 187 217
4 321 322 323 324
8 325 326 261 260 327 328 329 330
5 331 332 333 280 334
4 335 336 337 338
4 339 340 341 342
4 343 344 345 346
4 347 348 349 350
4 351 352 353 354
4 355 356 357 358
4 210 209 359 360
4 361 362 363 364
4 365 366 367 62
4 368 369 370 371
6 136 135 372 373 374 375
5 376 263 262 377 378
4 379 380 381 382
4 296 383 384 297
4 385 386 387 388
4 389 390 391 392
4 393 394 395 285
4 396 397 398 399
12 400 401 402 403 404 405 406 407 408 409 410 411
12 412 413 414 415 416 417 418 419 420 421 422 423
4 424 425 426 427
4 428 429 430 431
6 432 433 268 267 266 434
5 435 436 437 324 438
6 439 440 114 113 112 441
12 442 443 444 445 446 447 448 449 450 451 452 453
4 433 432 454 455
5 456 457 458 248 247
6 459 403 402 460 461 147
6 462 463 464 465 466 467
4 70 468 469 71
4 470 471 472 473
4 474 475 51 50
4 51 475 476 52
6 477 329 328 478 479 480
4 481 482 69 470
6 308 483 484 485 486 309
4 487 488 489 490
4 13 491 492 14
4 493 494 181 180
4 110 115 332 495
4 496 497 376 378
8 498 499 500 501 502 503 504 505
9 405 404 403 487 506 507 508 509 406
12 277 276 275 274 224 440 439 441 510 511 512 278
8 484 513 514 515 516 517 486 485
4 403 459 488 487
4 518 519 520 521
6 483 308 311 522 523 524
5 525 526 527 528 259
12 529 530 531 64 532 533 534 535 536 537 538 539
4 540 541 542 543
4 544 545 546 547
8 548 12 11 549 550 551 552 553
4 540 554 555 541
4 556 557 558 559
4 164 163 560 561
6 284 126 125 39 42 562
6 563 278 512 525 259 258
6 564 565 566 567 568 569
8 323 570 571 572 573 574 438 324
4 575 576 577 578
4 579 452 580 581
4 314 582 583 86
4 237 236 584 144
4 95 585 586 96
4 587 588 586 585
4 589 129 132 590
4 581 580 591 592
6 432 434 593 553 552 454
5 594 595 596 597 447
6 469 468 537 598 599 600
4 601 602 317 316
4 130 129 603 298
5 54 53 604 605 606
5 184 59 63 607 185
4 344 355 358 345
4 26 25 357 356
4 608 609 610 496
4 349 351 354 350
4 80 290 611 81
12 612 613 614 615 616 617 618 619 620 621 622 623
5 365 624 625 626 627
5 40 39 125 128 291
4 628 629 630 631
6 632 300 303 633 634 635
6 124 123 636 637 638 639
4 637 640 641 638
4 213 642 643 214
4 644 645 646 647
4 371 207 208 368
4 370 369 379 382
5 648 633 303 302 649
4 360 359 650 651
6 608 496 378 652 653 654
4 655 656 657 658
4 120 659 46 45
6 660 597 474 480 479 661
12 257 256 255 254 222 221 313 315 662 663 664 258
5 154 153 640 665 666
6 667 668 505 504 84 83
4 297 384 669 670
4 645 671 672 673
4 674 6 297 670
4 392 391 398 397
4 317 338 436 318
4 675 581 592 497
7 407 406 509 676 677 678 408
6 679 680 681 682 446 683
4 684 685 686 687
6 688 145 152 151 689 690
12 691 692 693 694 461 695 696 697 698 699 700 701
4 610 675 497 496
4 702 703 704 705
7 706 707 269 250 249 259 528
6 12 548 553 593 708 709
4 710 711 712 713
4 519 456 501 520
12 514 714 473 402 401 400 411 410 409 517 516 515
4 312 715 181 494
6 473 472 695 461 460 402
8 716 717 718 719 720 721 230 600
4 490 489 722 723
8 609 724 725 726 727 728 729 610
6 730 523 731 732 468 70
8 733 734 467 466 735 495 332 331
4 736 737 244 243
4 314 86 85 246
5 738 739 740 741 423
4 742 743 476 595
6 744 409 408 745 746 701
6 747 748 749 720 719 750
4 751 752 519 518
6 646 753 156 155 754 647
7 755 756 757 143 142 144 584
7 758 759 508 507 506 487 490
5 677 676 760 761 678
12 574 573 572 762 179 763 764 765 766 767 768 438
6 769 770 771 661 479 478
8 663 662 315 245 248 458 457 664
4 772 773 282 281
4 282 433 455 283
6 774 775 776 749 748 777
4 244 740 739 241
4 469 600 230 71
4 688 74 73 778
4 66 65 779 780
5 729 579 581 675 610
4 770 769 591 580
4 583 781 83 86
5 279 782 752 751 783
6 784 594 447 446 682 681
7 535 534 785 786 787 723 536
4 239 238 494 493
4 688 778 146 145
5 84 504 503 247 85
4 337 321 324 437
4 788 227 737 736
6 789 725 790 791 792 793
6 537 536 794 78 599 598
6 788 736 219 273 272 795
7 796 797 798 799 800 689 151
5 520 801 416 802 521
4 426 425 803 804
4 295 576 575 292
6 177 671 645 644 805 806
4 512 807 526 525
4 629 808 809 630
4 561 560 558 557
6 216 133 138 810 811 320
12 812 813 814 815 816 817 818 819 820 821 822 823
6 632 824 825 826 301 300
5 742 595 594 784 793
4 241 739 781 583
4 827 316 319 828
6 829 830 831 832 833 834
4 835 565 564 836
4 14 492 837 464
8 229 838 802 416 415 414 413 225
4 35 38 839 840
4 577 841 842 578
4 36 842 841 37
4 92 91 843 844
6 845 846 791 790 654 653
5 738 667 83 781 739
5 847 848 849 850 851
4 285 284 562 393
4 852 853 854 855
4 856 857 858 859
4 857 856 860 861
5 228 862 863 783 864
4 865 194 193 866
4 867 868 869 870
4 871 872 873 874
6 875 876 112 111 877 878
4 366 365 627 879
4 626 625 880 388
4 3 881 882 4
12 883 884 377 885 886 887 888 889 890 89 891 892
6 696 695 893 775 774 697
4 894 669 384 881
12 895 896 897 898 899 500 499 498 505 668 667 900
5 753 646 645 673 901
4 849 902 808 629
4 903 904 905 655
5 872 906 868 867 873
6 212 907 908 909 642 213
8 511 510 441 112 876 875 807 512
6 910 911 584 236 240 453
4 912 913 914 915
5 627 626 388 387 879
5 307 306 870 869 916
6 917 422 331 334 918 900
5 665 640 637 636 919
6 111 110 495 735 466 877
4 307 916 386 385
5 920 921 264 194 865
4 346 342 341 343
12 922 923 924 925 926 927 928 929 930 931 932 933
4 914 913 116 119
4 915 934 935 912
4 348 347 24 23
4 339 353 352 340
4 851 936 937 847
4 754 155 154 666
4 938 118 117 939
4 338 337 437 436
4 286 285 395 940
4 364 363 941 942
4 943 938 939 944
6 183 872 871 945 946 184
4 943 944 942 941
4 826 825 193 192
4 624 365 62 61
4 809 82 81 630
4 947 948 362 361
4 949 948 947 950
4 743 742 793 792
4 123 122 919 636
4 934 949 950 935
12 951 952 953 954 955 956 957 958 959 960 961 962
4 56 55 288 963
4 850 849 629 628
6 964 634 633 648 909 908
5 121 120 45 44 965
4 372 135 134 218
6 966 965 44 43 177 806
12 967 968 969 970 971 972 973 974 975 976 977 978
5 7 979 980 375 374
4 981 982 983 984
4 655 658 985 903
4 981 984 651 650
4 982 381 380 983
4 640 153 158 641
4 137 136 375 980
4 7 374 373 8
4 120 124 639 659
4 986 589 590 987
4 782 664 457 752
4 671 177 178 672
4 317 602 335 338
12 988 989 990 991 992 993 994 995 996 997 998 999
4 237 312 494 238
4 183 186 906 872
4 156 753 901 157
6 1000 827 828 33 32 141
6 986 987 1001 606 605 1002
4 607 63 62 367
9 533 532 64 68 1003 1004 1005 785 534
6 729 911 910 453 452 579
13 1006 1007 1008 1009 1010 1011 1012 1013 1014 1015 1016 1017 1018
4 139 30 715 312
5 29 182 181 715 30
4 1019 1020 1021 1022
12 1023 1024 1025 1026 1027 1028 1029 1030 1031 1032 1033 1034
4 596 595 476 475
4 801 520 501 500
13 1035 1036 1037 1038 1039 1040 1041 1042 1043 1044 1045 1046 1047
6 1048 1049 1050 750 719 718
4 1021 710 713 1022
4 390 389 1051 1052
12 1053 1054 1055 1056 1057 1058 1059 1060 1061 1062 1063 1064
4 1065 1066 687 686
4 803 396 399 804
4 1067 1068 1069 1070
4 233 428 431 234
4 1068 702 705 1069
4 1066 1065 1071 1072
6 465 464 837 878 877 466
4 704 703 424 427
12 149 148 147 461 694 693 692 691 701 746 1073 150
4 1071 232 235 1072
4 1070 1052 1051 1067
4 685 684 712 711
4 430 429 1020 1019
4 592 591 260 263
6 230 721 720 749 776 231
12 419 418 417 463 462 467 734 733 331 422 421 420
6 1074 890 1075 435 438 768
4 737 741 740 244
5 680 679 335 602 601
5 227 788 795 862 228
4 497 592 263 376
4 1076 1077 1050 1049
12 1078 1079 681 680 1080 1081 756 755 584 911 1082 1083
5 336 335 679 683 1084
4 50 477 480 474
6 416 801 500 899 1085 417
12 887 886 885 29 28 27 34 1086 1075 890 889 888
12 1087 1088 1089 1049 1048 718 717 716 600 599 1090 1091
6 455 454 552 551 1092 918
4 596 475 474 597
6 747 1093 1094 1095 777 748
4 1096 1094 1093 1097
5 456 247 503 502 501
8 862 795 272 271 270 279 783 863
6 676 509 508 759 1098 760
5 228 864 802 838 229
8 1099 1084 683 1100 1101 1102 834 833
5 830 829 1103 239 493
4 875 878 837 807
6 180 1104 571 831 830 493
5 243 242 220 219 736
7 798 797 796 151 150 1073 746
4 752 457 456 519
4 408 678 1105 745
8 1081 1080 680 601 1106 1107 757 756
12 1092 551 550 549 11 899 898 897 896 895 900 918
6 789 793 784 1108 726 725
4 242 241 583 582
6 1086 34 33 828 319 1075
6 1076 1049 1089 1109 531 1110
4 783 751 518 864
4 792 88 87 743
4 472 471 893 695
4 336 1084 321 337
6 143 757 1107 1000 141 140
6 269 707 708 593 434 266
4 309 1097 1077 310
4 463 10 14 464
12 765 764 763 261 326 325 330 1111 49 768 767 766
4 1112 1105 678 761
5 436 435 1075 319 318
4 471 72 231 893
4 1096 1113 700 1094
4 310 1077 1076 1110
5 1112 67 66 780 799
4 488 459 147 146
6 448 447 597 660 661 449
4 488 146 778 489
4 486 1096 1097 309
6 224 223 222 253 1114 440
4 1093 747 750 1050
4 1113 1096 486 517
8 522 311 310 1110 1115 1116 731 523
5 440 1114 772 1117 114
4 775 893 231 776
8 653 652 378 377 884 883 892 845
4 773 268 433 282
6 608 654 790 725 724 609
6 782 279 278 563 258 664
4 226 741 737 227
6 182 29 885 1118 763 179
5 706 528 709 708 707
6 226 225 413 412 423 741
4 1105 1112 799 798
6 827 1000 1107 1106 601 316
6 65 64 531 1109 1089 779
4 722 794 536 723
4 1117 772 281 1119
4 709 491 13 12
4 67 1112 761 68
6 89 890 1074 768 49 48
12 1120 1121 779 1089 1088 1087 1091 1090 599 78 77 76
4 114 1117 1119 115
5 242 582 314 221 220
5 280 283 455 918 334
6 1113 517 409 744 701 700
4 489 778 73 722
4 743 87 52 476
4 722 73 78 794
4 1097 1093 1050 1077
7 1122 1123 1124 689 800 799 780
9 1124 1123 1122 780 779 1121 1120 76 75
6 730 70 69 482 524 523
4 470 69 72 471
4 864 518 521 802
4 807 837 492 526
12 1116 1115 1110 531 530 529 539 538 537 468 732 731
6 688 690 689 1124 75 74
12 727 726 1108 784 681 1079 1078 1083 1082 911 729 728
5 1004 1003 68 761 760
12 1125 1102 1101 1100 683 446 445 444 443 442 453 240
6 482 481 513 484 483 524
6 10 463 417 1085 899 11
8 451 450 449 661 771 770 580 452
4 115 1119 333 332
6 481 470 473 714 514 513
7 758 490 723 787 786 785 759
6 49 1111 330 329 477 50
6 1005 1004 760 1098 759 785
5 909 648 649 643 642
6 321 1084 1099 833 832 322
4 566 921 920 567
6 377 262 261 763 1118 885
4 547 543 542 544
6 1104 180 179 762 572 571
7 1103 829 834 1102 1125 240 239
4 846 88 792 791
5 940 395 1126 937 936
6 322 832 831 571 570 323
4 162 161 1127 1128
4 1127 1129 1130 1128
4 1129 555 554 1130
5 866 193 825 824 1131
4 635 1131 824 632
4 545 556 559 546
6 569 568 1132 907 212 211
4 849 848 1133 902
8 699 698 697 774 777 1095 1094 700
4 1134 1126 395 394
6 591 769 478 328 327 260
6 423 422 917 900 667 738
12 1135 1136 1137 1138 1139 1140 1141 1142 1143 1144 1145 1146
6 846 845 892 891 89 88
4 674 979 7 6
4 881 384 383 882
4 288 905 904 963
4 658 189 299 985
6 264 921 566 565 835 265
4 59 184 946 60
5 894 881 3 2 58
5 569 211 215 836 564
12 1147 1148 1149 1150 1151 1152 1153 1154 1155 1156 1157 1158
4 54 606 1001 1159
4 22 94 97 19
4 1160 1161 840 839
4 657 190 189 658
4 528 527 491 709
4 844 843 1161 1160
4 745 1105 798 746
4 1119 281 280 333
4 293 90 93 294
4 526 492 491 527
4 129 589 1162 603
5 772 1114 253 268 773
4 630 81 611 631
5 1162 589 986 1002 1163
6 388 880 1164 304 307 385
4 159 854 853 160
4 1163 1002 605 604
4 859 858 588 587
12 1165 1166 1167 1168 1169 1170 1171 1172 1173 1174 1175 1176
6 847 937 1126 1134 1133 848
4 860 852 855 861
6 320 811 57 1 0 188
6 873 867 870 306 305 874
4 287 1177 905 288
4 655 905 1177 656
4 55 54 1159 289
