ply
format ascii 1.0
comment Created by Blender 2.82 (sub 7) - www.blender.org, source file: ''
element vertex 240
property float x
property float y
property float z
element face 64
property list uchar uint vertex_indices
end_header
-1.973450 8.111250 14.296800
-1.973450 -3.888750 14.296800
4.026550 -3.888750 -0.453200
4.026550 2.527790 -0.453200
-1.358930 1.527790 -0.453200
-1.358930 2.527790 -0.453200
4.641050 2.527790 -15.203200
4.641050 1.527790 -15.203200
4.641050 1.527790 -15.203200
4.641050 2.527790 -15.203200
-1.358930 2.527790 -0.453200
-1.358930 1.527790 -0.453200
3.739650 -27.103251 15.203200
-10.313000 -25.341850 15.203200
-10.313000 -25.341850 14.828200
3.739650 -27.103251 14.828200
-21.809151 16.520550 14.828200
-10.627020 25.211849 14.828200
-10.627020 25.211849 15.203200
-21.809151 16.520550 15.203200
-27.103251 -3.739650 14.828200
-25.341850 10.313000 14.828200
-25.341850 10.313000 15.203200
-27.103251 -3.739650 15.203200
-3.739610 27.103251 15.203200
-3.739610 27.103251 14.828200
-10.627020 25.211849 14.828200
-10.627020 25.211849 15.203200
-1.973450 -2.888750 -15.203200
-1.973450 -3.888750 -15.203200
4.026550 -3.888750 -0.453200
4.026550 -2.888750 -0.453200
4.026550 -1.897750 -0.453200
4.026550 -2.888750 -0.453200
-1.973450 -2.888750 -15.203200
-1.973450 -1.897750 -15.203200
-1.358930 2.527790 -0.453200
-1.358930 -3.888750 -0.453200
4.026550 -3.888750 -0.453200
4.641050 -3.888750 -0.453200
4.641050 2.527790 -0.453200
4.026550 2.527790 -0.453200
-10.313000 -25.341850 14.828200
-10.313000 -25.341850 15.203200
3.739650 -27.103251 15.203200
3.739650 -27.103251 14.828200
-1.358930 -3.888750 -0.453200
-1.973450 -3.888750 -0.453200
-1.973450 2.527790 -0.453200
-1.358930 2.527790 -0.453200
4.026550 2.527790 -0.453200
4.026550 -3.888750 -0.453200
10.641050 2.527790 14.296800
10.641050 -9.472250 14.296800
4.641050 -3.888750 -0.453200
4.641050 2.527790 -0.453200
4.641050 2.527790 -0.453200
4.641050 -3.888750 -0.453200
-7.973450 -3.888750 -15.203200
-7.973450 8.111250 -15.203200
-1.973450 8.111250 -15.203200
-1.973450 -3.888750 -15.203200
27.103251 3.739610 14.828200
25.341949 -10.313050 14.828200
25.341949 -10.313050 15.203200
27.103251 3.739610 15.203200
4.641050 2.527790 -15.203200
4.641050 -9.472250 -15.203200
10.641050 -9.472250 -15.203200
10.641050 2.527790 -15.203200
-1.358930 0.536840 -0.453200
-1.358930 1.527790 -0.453200
4.641050 1.527790 -15.203200
4.641050 0.536840 -15.203200
-1.973450 -1.897750 -15.203200
-1.973450 -2.888750 -15.203200
4.026550 -2.888750 -0.453200
4.026550 -1.897750 -0.453200
-21.602249 -16.790251 14.828200
-21.602249 -16.790251 15.203200
-7.973450 -3.888750 14.296800
-1.973450 -3.888750 14.296800
-1.973450 8.111250 14.296800
-7.973450 8.111250 14.296800
16.790251 -21.602249 15.203200
16.790251 -21.602249 14.828200
-21.602249 -16.790251 15.203200
-27.103251 -3.739650 15.203200
-27.103251 -3.739650 14.828200
-21.602249 -16.790251 14.828200
-1.973450 -3.888750 -0.453200
-1.973450 2.527790 -0.453200
-7.973450 8.111250 -15.203200
-7.973450 -3.888750 -15.203200
-1.973450 -3.888750 -0.453200
4.026550 -3.888750 -0.453200
-1.973450 -3.888750 14.296800
-7.973450 -3.888750 14.296800
4.641050 0.536840 -15.203200
4.641050 1.527790 -15.203200
-1.358930 1.527790 -0.453200
-1.358930 0.536840 -0.453200
4.641050 -9.472250 -15.203200
10.641050 -9.472250 -15.203200
4.641050 -3.888750 -0.453200
-1.358930 -3.888750 -0.453200
-25.341850 10.313000 15.203200
-21.809151 16.520550 15.203200
-21.809151 16.520550 14.828200
-25.341850 10.313000 14.828200
16.790251 -21.602249 15.203200
16.790251 -21.602249 14.828200
4.641050 -3.888750 -0.453200
10.641050 -9.472250 14.296800
4.641050 -9.472250 14.296800
-1.358930 -3.888750 -0.453200
-3.739610 27.103251 15.203200
-3.739610 27.103251 14.828200
10.313050 25.341850 14.828200
10.313050 25.341850 15.203200
21.602249 16.790211 14.828200
27.103251 3.739610 14.828200
25.341949 -10.313050 14.828200
16.790251 -21.602249 14.828200
3.739650 -27.103251 14.828200
-10.313000 -25.341850 14.828200
-21.602249 -16.790251 14.828200
-27.103251 -3.739650 14.828200
-25.341850 10.313000 14.828200
-21.809151 16.520550 14.828200
-10.627020 25.211849 14.828200
-3.739610 27.103251 14.828200
10.313050 25.341850 14.828200
4.026550 2.527790 -0.453200
4.026550 -1.897750 -0.453200
-1.973450 -1.897750 -15.203200
-1.973450 8.111250 -15.203200
-1.973450 8.111250 -15.203200
-7.973450 8.111250 -15.203200
-7.973450 -3.888750 -15.203200
-1.973450 -3.888750 -15.203200
21.602249 16.790211 15.203200
27.103251 3.739610 15.203200
27.103251 3.739610 14.828200
21.602249 16.790211 14.828200
-7.973450 -3.888750 14.296800
-7.973450 8.111250 14.296800
-1.973450 2.527790 -0.453200
-1.973450 -3.888750 -0.453200
-1.358930 2.527790 -0.453200
4.641050 2.527790 -0.453200
10.641050 2.527790 -15.203200
4.641050 2.527790 -15.203200
21.602249 16.790211 14.828200
10.313050 25.341850 14.828200
-3.739610 27.103251 14.828200
-10.627020 25.211849 14.828200
-21.809151 16.520550 14.828200
-25.341850 10.313000 14.828200
-27.103251 -3.739650 14.828200
-21.602249 -16.790251 14.828200
-10.313000 -25.341850 14.828200
3.739650 -27.103251 14.828200
16.790251 -21.602249 14.828200
25.341949 -10.313050 14.828200
27.103251 3.739610 14.828200
4.641050 2.527790 -0.453200
4.641050 -3.888750 -0.453200
10.641050 -9.472250 -15.203200
10.641050 2.527790 -15.203200
25.341949 -10.313050 15.203200
25.341949 -10.313050 14.828200
4.641050 2.527790 14.296800
10.641050 2.527790 14.296800
4.641050 2.527790 -0.453200
-1.358930 2.527790 -0.453200
10.313050 25.341850 15.203200
10.313050 25.341850 14.828200
-1.973450 -3.888750 -15.203200
4.026550 -3.888750 -0.453200
-1.973450 -3.888750 -0.453200
-7.973450 -3.888750 -15.203200
-1.973450 8.111250 14.296800
4.026550 2.527790 -0.453200
-1.973450 2.527790 -0.453200
-7.973450 8.111250 14.296800
4.641050 2.527790 14.296800
4.641050 -9.472250 14.296800
10.641050 -9.472250 14.296800
10.641050 2.527790 14.296800
-1.358930 2.527790 -0.453200
-1.358930 -3.888750 -0.453200
4.641050 -9.472250 14.296800
4.641050 2.527790 14.296800
-1.973450 2.527790 -0.453200
-1.973450 -3.888750 -0.453200
21.602249 16.790211 14.828200
21.602249 16.790211 15.203200
-1.358930 -3.888750 -0.453200
-1.358930 0.536840 -0.453200
4.641050 0.536840 -15.203200
4.641050 -9.472250 -15.203200
4.641050 2.527790 -15.203200
10.641050 2.527790 -15.203200
10.641050 -9.472250 -15.203200
4.641050 -9.472250 -15.203200
4.026550 -2.888750 -0.453200
4.026550 -3.888750 -0.453200
-1.973450 -3.888750 -15.203200
-1.973450 -2.888750 -15.203200
27.103251 3.739610 15.203200
25.341949 -10.313050 15.203200
16.790251 -21.602249 15.203200
3.739650 -27.103251 15.203200
-10.313000 -25.341850 15.203200
-21.602249 -16.790251 15.203200
-27.103251 -3.739650 15.203200
-25.341850 10.313000 15.203200
-21.809151 16.520550 15.203200
-10.627020 25.211849 15.203200
-3.739610 27.103251 15.203200
10.313050 25.341850 15.203200
21.602249 16.790211 15.203200
-1.973450 2.527790 -0.453200
4.026550 2.527790 -0.453200
-1.973450 8.111250 -15.203200
-7.973450 8.111250 -15.203200
-25.341850 10.313000 15.203200
-27.103251 -3.739650 15.203200
-21.602249 -16.790251 15.203200
-10.313000 -25.341850 15.203200
3.739650 -27.103251 15.203200
16.790251 -21.602249 15.203200
25.341949 -10.313050 15.203200
27.103251 3.739610 15.203200
21.602249 16.790211 15.203200
10.313050 25.341850 15.203200
-3.739610 27.103251 15.203200
-10.627020 25.211849 15.203200
-21.809151 16.520550 15.203200
4 0 1 2 3
4 4 5 6 7
4 8 9 10 11
4 12 13 14 15
4 16 17 18 19
4 20 21 22 23
4 24 25 26 27
4 28 29 30 31
4 32 33 34 35
6 36 37 38 39 40 41
4 42 43 44 45
6 46 47 48 49 50 51
4 52 53 54 55
6 49 50 56 57 51 46
4 58 59 60 61
4 62 63 64 65
4 66 67 68 69
4 70 71 72 73
4 74 75 76 77
4 78 20 23 79
4 80 81 82 83
4 84 85 45 44
4 86 87 88 89
4 90 91 92 93
4 94 95 96 97
4 98 99 100 101
4 102 103 104 105
4 106 107 108 109
4 110 12 15 111
4 21 16 19 22
4 112 113 114 115
4 116 117 118 119
13 120 121 122 123 124 125 126 127 128 129 130 131 132
4 63 85 84 64
4 133 134 135 136
4 137 138 139 140
4 141 142 143 144
4 145 146 147 148
4 149 150 151 152
4 78 79 43 42
13 153 154 155 156 157 158 159 160 161 162 163 164 165
4 166 167 168 169
4 170 110 111 171
4 172 173 174 175
4 87 106 109 88
4 25 24 176 177
4 178 179 180 181
4 177 176 141 144
4 182 183 184 185
4 186 187 188 189
4 190 191 192 193
6 41 36 194 195 37 38
4 18 17 117 116
4 119 118 196 197
4 196 62 65 197
4 198 199 200 201
4 142 170 171 143
4 107 27 26 108
4 202 203 204 205
4 206 207 208 209
13 210 211 212 213 214 215 216 217 218 219 220 221 222
4 223 224 225 226
13 227 228 229 230 231 232 233 234 235 236 237 238 239
4 13 86 89 14
