ply
format ascii 1.0
comment Created by Blender 2.82 (sub 7) - www.blender.org, source file: ''
element vertex 636
property float x
property float y
property float z
element face 210
property list uchar uint vertex_indices
end_header
7.232050 -6.918050 7.421650
6.830850 -6.565650 7.429450
6.297950 -6.600050 7.432650
5.945550 -7.001250 7.429450
5.979950 -7.534150 7.421650
6.381150 -7.886550 7.413950
6.914050 -7.852050 7.410750
7.266450 -7.450850 7.413950
3.470050 5.610250 0.514020
5.291050 6.508350 7.422950
5.749450 6.614150 7.416150
3.898150 5.646650 0.390530
1.611550 0.859150 2.397850
1.148850 0.502650 2.509750
2.559350 2.250050 7.396150
2.950950 2.534150 7.378750
1.950250 -0.271150 -2.958560
3.515250 0.699150 -2.218850
3.422650 1.207950 -1.991170
1.693850 0.264550 -2.638800
1.425950 -1.074150 -7.650329
10.493550 0.314050 0.108400
10.344150 -0.143050 0.062620
1.275850 -1.769850 -7.676543
1.383250 -3.584850 -5.248770
0.937150 -3.462750 -4.174340
0.572150 -3.582950 -3.060420
0.640250 -3.218150 -3.989350
1.123250 -3.195450 -5.433450
1.449150 -3.488450 -4.168920
1.627350 -3.745750 -2.793970
1.076750 -3.811750 -3.099500
3.418950 4.782350 0.814020
5.147650 5.650850 7.432650
5.041750 6.109350 7.429750
3.271550 5.252250 0.689440
3.329050 3.511850 -1.472140
3.524950 3.059750 -1.282000
1.738450 -3.034150 -1.962030
1.876250 -3.280350 -3.976280
2.279450 -3.426850 -5.248770
2.128050 -4.912850 -7.824851
2.257050 -4.335550 -7.771302
2.390550 -2.972050 -5.433450
1.968250 -2.960250 -3.709250
-0.608650 -3.098150 3.012350
-0.371050 -3.073650 -0.324430
-0.782250 -1.997450 7.429450
-1.069150 -1.547150 7.421650
-4.570050 10.169550 7.379250
-4.093750 10.088050 7.396750
-2.525350 9.038350 2.647550
-3.001550 9.104750 2.452550
3.454550 3.814350 -1.799670
1.901450 -3.423750 -2.322820
10.517050 0.943150 2.202050
10.602350 0.465550 7.421250
11.237050 0.415150 7.415650
11.147750 0.905750 2.008520
0.718650 -0.516950 -7.676543
-0.169650 -0.445550 -7.725410
-0.169650 -0.420750 -7.482957
-1.119150 0.622350 -6.768810
-0.738050 -3.684450 0.524210
-0.272050 -3.952350 0.576240
-0.743450 -0.914550 -5.163850
-0.409350 0.320250 -6.769350
0.409250 -3.193350 -2.699640
0.683350 -2.871350 -2.228480
0.732250 -2.898150 -3.722320
-0.503150 -0.738950 7.410750
0.018150 -0.854450 7.413950
0.796350 -2.465550 -0.322430
1.233950 -2.805350 -1.922960
2.130550 -2.582650 -5.618130
1.651650 -2.486750 -5.694630
1.050650 -2.822150 -0.134730
1.475350 0.425350 -5.163850
3.927550 2.723150 -1.340620
3.826050 4.475850 0.814800
0.023450 0.708250 -6.616540
0.441250 0.350450 -6.840710
2.021050 0.539050 -5.383700
0.868250 0.407850 -7.249600
1.054250 0.846950 -7.603696
4.426450 3.001650 -1.941200
4.300950 2.699050 -1.613670
-7.203750 3.543550 7.196850
-6.572650 3.103050 7.224850
-2.991650 2.228950 1.150850
-1.562550 2.074450 -7.855460
-2.191350 2.519850 -7.871460
-3.539650 2.564750 0.914110
1.938450 -3.837150 -7.717752
3.081850 0.923350 -7.771302
7.232050 -6.918050 7.421650
7.266450 -7.450850 7.413950
7.034550 -6.960350 4.916450
3.119050 0.332950 -7.717752
1.131350 1.786250 -5.383700
0.045650 1.710750 -7.062515
-0.140350 1.271650 -6.708420
-0.026650 -3.523550 3.280750
0.189550 -1.826150 7.429450
-0.260850 -2.113050 7.432650
-12.493750 -9.586850 7.878050
-15.211450 -4.075950 7.878050
-15.211450 -4.075950 7.484350
-12.493750 -9.586850 7.484350
1.997650 -0.749750 3.103750
-2.987150 -0.982650 -4.591600
-2.427050 -0.597850 -4.689110
2.460350 -0.393250 2.991850
-4.056950 -3.512350 -0.577400
-3.910950 -2.527050 -2.312560
-4.436550 -2.497050 -2.508250
-4.566650 -3.503050 -0.751360
-8.402750 2.775150 7.196150
-7.961850 3.407750 7.184950
-3.633050 2.352350 -1.071310
-3.996750 1.957950 -1.012400
6.914050 -7.852050 7.410750
6.631450 -7.363850 4.789550
0.890450 1.410450 -7.695571
0.472650 1.768250 -7.471406
1.677050 1.899950 -5.603560
3.827950 3.790250 -2.072720
6.148550 6.364750 7.413350
4.305250 5.340050 0.391300
4.230550 3.453650 -2.131340
-3.498550 8.395950 2.189750
-3.228150 8.035950 2.275950
-4.766450 9.017450 7.396150
-5.045750 9.412550 7.378750
-2.751950 7.969550 2.471050
-1.881850 1.751350 -7.837423
-1.433250 2.064650 -7.832744
-2.348750 8.235650 2.660650
-3.895850 9.215650 7.421250
-4.290150 8.935950 7.413750
-3.888450 1.461050 -0.814180
-3.396350 1.759850 -7.871370
-3.266650 0.999750 -7.855334
3.246350 1.306450 7.414250
2.768150 1.381950 7.421250
-4.788550 -1.704350 -7.832744
-4.027550 -1.829950 -7.839423
-0.519150 -1.424750 -5.383700
-0.093950 -0.331050 -7.036361
4.254150 4.512250 0.691300
4.452650 4.870150 0.515890
6.254350 5.906350 7.416150
6.005050 5.507250 7.422950
3.312750 1.819950 -3.013490
3.405350 1.311250 -3.241170
2.339050 0.726150 -3.790930
2.082650 1.261950 -3.471170
11.515850 0.556750 1.928350
-0.453650 0.474450 -7.717752
-1.044050 0.437350 -7.771302
1.787450 1.348650 -3.001270
3.279450 2.000450 -2.553070
3.852750 2.282650 -1.618410
3.940350 3.712550 0.703270
4.356450 4.587550 7.421650
4.889250 4.621950 7.413950
4.402750 3.713550 0.513490
4.311150 2.247050 -1.750550
-3.723550 0.005350 -7.878050
-4.484550 0.130950 -7.871370
3.429150 2.458650 7.371750
2.187350 0.744350 2.492750
2.726550 -0.112250 -7.695571
5.546650 5.401450 7.429750
-3.404750 8.838650 2.262850
-4.964350 9.889750 7.371750
-2.189150 3.148950 -7.860233
-2.637750 2.835550 -7.864912
2.950950 2.534150 7.378750
2.559350 2.250050 7.396150
2.483550 1.772850 7.413750
2.768150 1.381950 7.421250
3.246350 1.306450 7.414250
3.638050 1.590550 7.396750
3.713750 2.067750 7.379250
3.429150 2.458650 7.371750
-2.733550 2.296450 -7.860168
-2.637750 2.835550 -7.864912
-2.189150 3.148950 -7.860233
-1.650550 3.052950 -7.848873
-1.337450 2.603850 -7.837487
-1.433250 2.064650 -7.832744
-1.881850 1.751350 -7.837423
-2.420450 1.847350 -7.848783
-0.949150 -0.992550 -7.824851
-1.394350 -0.600050 -7.847032
-1.807550 0.398150 -7.035051
-1.201750 -3.899250 0.331710
1.234450 -2.740650 -5.618130
0.857550 -4.027750 -7.717752
0.728550 -4.605050 -7.771302
-5.111650 -0.317750 -7.855334
1.659850 -0.530250 -5.163850
1.652050 0.828450 -7.824851
1.689250 0.238050 -7.771302
5.400650 -6.133750 3.012350
5.979950 -7.534150 7.421650
5.945550 -7.001250 7.429450
4.612650 -4.919250 1.021030
3.713750 2.067750 7.379250
2.538950 0.225550 2.738850
-3.274550 -0.621050 -7.871460
-0.008350 0.081950 -7.695571
-2.055550 15.613250 7.484350
0.000050 15.748050 7.484350
4.075950 15.211450 7.484350
4.075950 15.211450 7.878050
0.000050 15.748050 7.878050
-2.055550 15.613250 7.878050
-4.075850 15.211450 7.878050
-4.075850 15.211450 7.484350
2.483550 1.772850 7.413750
-5.237550 -1.077950 -7.839334
-4.857150 -3.921850 -0.925320
-4.719650 -2.940950 -2.703950
-2.653450 -2.042650 -7.704501
-2.610050 -2.810950 -7.650329
-4.758350 -4.523650 -0.997380
-7.261850 -5.147850 7.413350
-7.299650 -4.678850 7.416150
-0.208950 -2.643350 -0.456560
-2.254950 8.678350 2.733850
-3.814550 9.692950 7.414250
-1.337450 2.603850 -7.837487
-1.463550 -1.396450 -7.259278
-2.178550 -1.456750 -7.542522
2.245450 -0.357850 -3.428460
3.548550 0.518650 -2.679270
-4.788550 -1.704350 -7.832744
-5.237550 -1.077950 -7.839334
-5.111650 -0.317750 -7.855334
-4.484550 0.130950 -7.871370
-3.723550 0.005350 -7.878050
-3.274550 -0.621050 -7.871460
-3.400450 -1.381250 -7.855460
-4.027550 -1.829950 -7.839423
0.030950 -0.510250 -7.717752
-0.358750 -0.955350 -7.771302
-0.949150 -0.992550 -7.824851
-1.394350 -0.600050 -7.847032
-1.433650 -0.007750 -7.824851
-1.044050 0.437350 -7.771302
-0.453650 0.474450 -7.717752
-0.008350 0.081950 -7.695571
-3.527850 -4.546250 -0.577400
-3.818450 -4.965150 -0.751360
-3.608450 -4.115250 -2.508250
-3.325450 -3.671350 -2.312560
2.110450 -1.445950 -5.603560
2.134250 -0.151550 -7.717752
6.065750 -7.437050 4.916450
4.054650 2.755150 0.893050
4.032450 1.023250 -1.296580
4.490850 0.987650 -1.428710
4.517050 2.756150 0.703270
5.006750 -4.542450 1.020200
6.297950 -6.600050 7.432650
2.406550 0.055250 -3.773240
0.030950 -0.510250 -7.717752
-1.650550 3.052950 -7.848873
6.026550 -14.549350 7.878050
-2.055550 -15.613350 7.878050
-2.055550 -15.613350 7.484350
6.026550 -14.549350 7.484350
1.626450 0.935550 -2.656490
-1.433650 -0.007750 -7.824851
3.655650 1.417350 -1.297400
-6.438150 2.344150 7.252550
-2.857650 1.680350 1.255600
10.010950 -0.151650 7.429150
9.882950 0.190750 2.475750
10.250950 -0.158250 2.395650
10.400650 -0.457650 7.426850
-0.169650 -2.026550 -7.162304
8.774850 -0.067950 0.530450
-0.169650 -1.438950 -6.538740
13.638250 -7.874050 7.878050
13.638250 -7.874050 7.484350
6.026550 -14.549350 7.484350
6.026550 -14.549350 7.878050
6.381150 -7.886550 7.413950
1.047250 -5.103450 -7.824851
-0.480550 -2.653850 2.822650
-0.953550 -1.025850 7.413950
15.613350 2.055550 7.878050
13.638250 -7.874050 7.878050
13.638250 -7.874050 7.484350
15.613350 2.055550 7.484350
4.439650 3.300950 7.429450
4.972550 3.335350 7.421650
5.324950 3.736550 7.413950
5.290450 4.269450 7.410750
4.889250 4.621950 7.413950
4.356450 4.587550 7.421650
4.003950 4.186350 7.429450
4.038450 3.653450 7.432650
-0.169650 -2.154050 -7.768768
0.356350 -2.196350 -7.739829
10.881750 -0.195650 2.202050
11.035350 -0.507950 7.421250
-0.358750 -0.955350 -7.771302
3.503050 0.772150 -3.102730
4.762350 1.331350 -1.616410
11.626750 0.109150 7.413350
-2.073850 -3.311550 -7.411741
-1.358950 -3.251250 -7.128497
-6.434550 -5.415150 7.422950
-6.903550 -5.452850 7.416150
-2.071350 -0.220950 -7.412123
-1.755950 -0.872250 -7.679136
-1.299350 -4.592450 -1.665720
-1.401650 -6.076550 7.417950
-1.696850 -5.363950 7.429150
-1.391550 -4.470850 0.111510
-1.401650 -4.651350 7.440350
-0.688950 -4.356250 7.444950
-2.733550 2.296450 -7.860168
-1.046150 -1.174350 -7.679678
-0.357750 -0.950150 -7.413432
-0.285750 -4.592450 -1.665720
-0.792550 -4.844250 -1.763200
5.290450 4.269450 7.410750
4.763150 3.433750 0.434880
-2.950950 2.389450 -7.878050
-2.191350 2.519850 -7.871460
-1.562550 2.074450 -7.855460
-1.432750 1.314350 -7.839423
-1.878150 0.684750 -7.832744
-2.637750 0.554350 -7.839334
-3.266650 0.999750 -7.855334
-3.396350 1.759850 -7.871370
15.613350 2.055550 7.484350
15.613350 2.055550 7.878050
13.638250 7.873950 7.878050
13.638250 7.873950 7.484350
5.546650 5.401450 7.429750
6.005050 5.507250 7.422950
6.254350 5.906350 7.416150
6.148550 6.364750 7.413350
5.749450 6.614150 7.416150
5.291050 6.508350 7.422950
5.041750 6.109350 7.429750
5.147650 5.650850 7.432650
-6.994650 -4.320450 7.422950
-7.299650 -4.678850 7.416150
-7.261850 -5.147850 7.413350
-6.903550 -5.452850 7.416150
-6.434550 -5.415150 7.422950
-6.129650 -5.056750 7.429750
-6.167350 -4.587750 7.432650
-6.525650 -4.282750 7.429750
-2.055550 -15.613350 7.484350
-2.055550 -15.613350 7.878050
0.000050 -15.748050 7.878050
2.055550 -15.613350 7.878050
4.075950 -15.211450 7.878050
4.075950 -15.211450 7.484350
2.055550 -15.613350 7.484350
0.000050 -15.748050 7.484350
-12.493750 9.586750 7.878050
-12.493750 9.586750 7.484350
-15.211450 4.075850 7.484350
-15.211450 4.075850 7.878050
12.493750 9.586750 7.484350
12.493750 9.586750 7.878050
11.135550 11.135550 7.878050
9.586850 12.493750 7.878050
9.586850 12.493750 7.484350
11.135550 11.135550 7.484350
0.000050 15.748050 7.484350
-2.055550 15.613250 7.484350
-4.075850 15.211450 7.484350
-4.075850 15.211450 7.878050
-2.055550 15.613250 7.878050
0.000050 15.748050 7.878050
2.055550 15.613250 7.878050
4.075950 15.211450 7.878050
4.075950 15.211450 7.484350
2.055550 15.613250 7.484350
12.493750 9.586750 7.878050
13.638250 7.873950 7.878050
13.638250 7.873950 7.484350
12.493750 9.586750 7.484350
11.135550 11.135550 7.484350
9.586850 12.493750 7.484350
9.586850 12.493750 7.878050
11.135550 11.135550 7.878050
-7.874050 -13.638250 7.878050
-7.874050 -13.638250 7.484350
-7.874050 13.638150 7.484350
-9.586750 12.493750 7.484350
-11.135550 11.135550 7.484350
-11.135550 11.135550 7.878050
-9.586750 12.493750 7.878050
-7.874050 13.638150 7.878050
-6.026450 14.549250 7.878050
-6.026450 14.549250 7.484350
-15.748050 -0.000050 7.878050
-15.613250 2.055550 7.878050
-15.613250 2.055550 7.484350
-15.748050 -0.000050 7.484350
-15.613250 -2.055550 7.484350
-15.613250 -2.055550 7.878050
-15.748050 -0.000050 7.484350
-15.613250 2.055550 7.484350
-15.211450 4.075850 7.484350
-15.211450 4.075850 7.878050
-15.613250 2.055550 7.878050
-15.748050 -0.000050 7.878050
-15.613250 -2.055550 7.878050
-15.211450 -4.075950 7.878050
-15.211450 -4.075950 7.484350
-15.613250 -2.055550 7.484350
-2.950950 2.389450 -7.878050
-7.874050 -13.638250 7.484350
-7.874050 -13.638250 7.878050
11.237050 0.415150 7.415650
10.602350 0.465550 7.421250
10.094450 0.230750 7.426850
10.010950 -0.151650 7.429150
10.400650 -0.457650 7.426850
11.035350 -0.507950 7.421250
11.543250 -0.273250 7.415650
11.626750 0.109150 7.413350
-9.586750 12.493750 7.484350
-7.874050 13.638150 7.484350
-6.026450 14.549250 7.484350
-6.026450 14.549250 7.878050
-7.874050 13.638150 7.878050
-9.586750 12.493750 7.878050
-11.135550 11.135550 7.878050
-12.493750 9.586750 7.878050
-12.493750 9.586750 7.484350
-11.135550 11.135550 7.484350
-12.493750 -9.586850 7.484350
-12.493750 -9.586850 7.878050
-12.493750 -9.586850 7.484350
-15.211450 -4.075950 7.484350
-15.211450 4.075850 7.484350
-12.493750 9.586750 7.484350
-4.075850 15.211450 7.484350
4.075950 15.211450 7.484350
9.586850 12.493750 7.484350
13.638250 7.873950 7.484350
15.613350 2.055550 7.484350
13.638250 -7.874050 7.484350
6.026550 -14.549350 7.484350
-2.055550 -15.613350 7.484350
-7.874050 -13.638250 7.484350
-12.493750 9.586750 7.484350
-15.211450 4.075850 7.484350
-15.211450 -4.075950 7.484350
-12.493750 -9.586850 7.484350
-7.874050 -13.638250 7.484350
-2.055550 -15.613350 7.484350
6.026550 -14.549350 7.484350
13.638250 -7.874050 7.484350
15.613350 2.055550 7.484350
13.638250 7.873950 7.484350
9.586850 12.493750 7.484350
4.075950 15.211450 7.484350
-4.075850 15.211450 7.484350
1.047250 -5.103450 -7.824851
0.728550 -4.605050 -7.771302
0.857550 -4.027750 -7.717752
1.358650 -3.709750 -7.695571
1.938450 -3.837150 -7.717752
2.257050 -4.335550 -7.771302
2.128050 -4.912850 -7.824851
1.626950 -5.230950 -7.847032
-8.402750 2.775150 7.196150
-8.268150 2.016250 7.223850
-7.637050 1.575750 7.251850
-6.879050 1.711550 7.263750
-6.438150 2.344150 7.252550
-6.572650 3.103050 7.224850
-7.203750 3.543550 7.196850
-7.961850 3.407750 7.184950
-12.493750 -9.586850 7.878050
-7.874050 -13.638250 7.878050
-2.055550 -15.613350 7.878050
6.026550 -14.549350 7.878050
13.638250 -7.874050 7.878050
15.613350 2.055550 7.878050
13.638250 7.873950 7.878050
9.586850 12.493750 7.878050
4.075950 15.211450 7.878050
-4.075850 15.211450 7.878050
-12.493750 9.586750 7.878050
-15.211450 4.075850 7.878050
-15.211450 -4.075950 7.878050
0.018150 -0.854450 7.413950
-0.503150 -0.738950 7.410750
-0.953550 -1.025850 7.413950
-1.069150 -1.547150 7.421650
-0.782250 -1.997450 7.429450
-0.260850 -2.113050 7.432650
0.189550 -1.826150 7.429450
0.305150 -1.304850 7.421650
-4.075850 15.211450 7.878050
4.075950 15.211450 7.878050
9.586850 12.493750 7.878050
13.638250 7.873950 7.878050
15.613350 2.055550 7.878050
13.638250 -7.874050 7.878050
6.026550 -14.549350 7.878050
-2.055550 -15.613350 7.878050
-7.874050 -13.638250 7.878050
-12.493750 -9.586850 7.878050
-15.211450 -4.075950 7.878050
-15.211450 4.075850 7.878050
-12.493750 9.586750 7.878050
0.318950 -5.363950 7.429150
0.023750 -4.651350 7.440350
-0.688950 -4.356250 7.444950
-1.401650 -4.651350 7.440350
-1.696850 -5.363950 7.429150
-1.401650 -6.076550 7.417950
-0.688950 -6.371750 7.413350
0.023750 -6.076550 7.417950
-1.755950 -0.872250 -7.679136
-2.071350 -0.220950 -7.412123
-1.807550 0.398150 -7.035051
-1.119150 0.622350 -6.768810
-0.409350 0.320250 -6.769350
-0.093950 -0.331050 -7.036361
-0.357750 -0.950150 -7.413432
-1.046150 -1.174350 -7.679678
2.052550 -0.101450 -5.072780
2.044550 1.273750 -7.847032
-6.525650 -4.282750 7.429750
-6.167350 -4.587750 7.432650
-0.927350 -1.897050 -7.020690
-0.075850 -3.984350 -1.430390
0.023750 -4.651350 7.440350
0.318950 -5.363950 7.429150
-8.268150 2.016250 7.223850
6.830850 -6.565650 7.429450
2.636750 1.313050 -7.824851
-0.140350 1.271650 -6.708420
0.045650 1.710750 -7.062515
0.472650 1.768250 -7.471406
0.890450 1.410450 -7.695571
1.054250 0.846950 -7.603696
0.868250 0.407850 -7.249600
0.441250 0.350450 -6.840710
0.023450 0.708250 -6.616540
-9.586750 -12.493750 7.878050
-11.135550 -11.135550 7.878050
-11.135550 -11.135550 7.484350
-9.586750 -12.493750 7.484350
1.358650 -3.709750 -7.695571
4.972550 3.335350 7.421650
4.439650 3.300950 7.429450
1.626950 -5.230950 -7.847032
1.862150 -3.680750 -5.172270
9.993150 0.646950 2.395650
10.094450 0.230750 7.426850
-0.169650 -0.803250 -6.679270
8.924250 0.389250 0.576240
-0.688950 -6.371750 7.413350
7.874050 13.638150 7.484350
7.874050 13.638150 7.878050
6.026550 14.549250 7.878050
6.026550 14.549250 7.484350
4.810550 3.037150 0.513490
4.687950 1.853050 -1.749720
5.324950 3.736550 7.413950
-0.883950 -2.665350 -6.966519
0.305150 -1.304850 7.421650
0.023750 -6.076550 7.417950
-6.129650 -5.056750 7.429750
-1.432750 1.314350 -7.839423
3.694250 3.034950 0.971650
3.119050 0.332950 -7.717752
2.726550 -0.112250 -7.695571
2.134250 -0.151550 -7.717752
1.689250 0.238050 -7.771302
1.652050 0.828450 -7.824851
2.044550 1.273750 -7.847032
2.636750 1.313050 -7.824851
3.081850 0.923350 -7.771302
-3.400450 -1.381250 -7.855460
3.638050 1.590550 7.396750
11.405650 0.100550 2.008520
11.543250 -0.273250 7.415650
-6.994650 -4.320450 7.422950
-4.570050 10.169550 7.379250
-4.964350 9.889750 7.371750
-5.045750 9.412550 7.378750
-4.766450 9.017450 7.396150
-4.290150 8.935950 7.413750
-3.895850 9.215650 7.421250
-3.814550 9.692950 7.414250
-4.093750 10.088050 7.396750
-0.169650 -2.026550 -7.162304
-0.169650 -1.438950 -6.538740
-0.169650 -0.803250 -6.679270
-0.169650 -0.420750 -7.482957
-0.169650 -0.445550 -7.725410
-0.169650 -2.154050 -7.768768
-6.879050 1.711550 7.263750
-3.216150 1.240550 1.167000
-1.878150 0.684750 -7.832744
-7.637050 1.575750 7.251850
-3.371550 1.152550 -0.592770
-2.637750 0.554350 -7.839334
3.325050 1.746950 -2.129610
-2.420450 1.847350 -7.848783
3.646850 3.431550 0.893050
4.003950 4.186350 7.429450
4.038450 3.653450 7.432650
-0.883950 -2.665350 -6.966519
-1.358950 -3.251250 -7.128497
-2.073850 -3.311550 -7.411741
-2.610050 -2.810950 -7.650329
-2.653450 -2.042650 -7.704501
-2.178550 -1.456750 -7.542522
-1.463550 -1.396450 -7.259278
-0.927350 -1.897050 -7.020690
-0.169650 -0.445550 -7.725410
0.718650 -0.516950 -7.676543
1.425950 -1.074150 -7.650329
1.275850 -1.769850 -7.676543
0.356350 -2.196350 -7.739829
-0.169650 -2.154050 -7.768768
8 0 1 2 3 4 5 6 7
4 8 9 10 11
4 12 13 14 15
4 16 17 18 19
4 20 21 22 23
5 24 25 26 27 28
4 29 30 31 25
6 32 33 34 35 36 37
7 38 39 40 41 42 43 44
5 45 46 31 47 48
4 49 50 51 52
4 35 8 53 36
3 29 39 30
3 38 54 39
3 54 30 39
7 55 56 57 58 59 60 61
5 62 63 64 65 66
3 67 68 69
9 70 71 72 38 44 73 74 75 68
3 76 54 38
7 77 78 79 32 37 80 81
5 82 83 84 85 86
6 87 88 89 90 91 92
4 43 42 93 74
5 94 95 96 97 98
5 53 99 100 101 36
5 102 30 54 103 104
4 73 44 43 74
4 105 106 107 108
4 109 110 111 112
4 113 114 115 116
4 117 118 119 120
4 97 96 121 122
9 123 124 125 126 11 10 127 128 129
4 130 131 132 133
6 134 135 136 137 138 139
4 140 120 141 142
4 77 81 83 82
4 132 131 134 139
6 109 143 144 145 146 110
4 65 147 148 66
4 149 150 151 152
4 153 154 155 156
5 59 58 157 21 20
12 153 156 158 159 160 161 162 163 164 165 166 167
6 168 169 12 15 170 171
4 122 172 98 97
4 32 79 173 33
6 174 175 49 52 176 177
8 178 179 180 181 182 183 184 185
8 186 187 188 189 190 191 192 193
4 194 16 19 195
4 62 196 197 63
7 198 199 200 28 27 67 69
4 8 35 34 9
4 13 12 169 201
7 202 203 204 205 206 207 208
6 168 171 170 209 210 211
6 125 99 53 8 11 126
4 156 155 212 158
8 213 214 215 216 217 218 219 220
4 144 221 222 145
7 223 224 225 226 227 228 229
4 230 67 27 26
6 231 232 138 137 136 233
4 234 235 115 114
4 17 16 236 237
8 238 239 240 241 242 243 244 245
8 246 247 248 249 250 251 252 253
4 254 255 256 257
5 258 259 172 122 260
4 261 262 263 264
4 265 208 207 266
4 267 268 212 155
4 51 231 233 269
4 270 271 272 273
4 195 19 274 275
3 276 18 17
6 77 82 86 149 79 78
4 88 277 278 89
4 279 280 281 282
5 283 281 280 284 285
4 286 287 288 289
7 204 259 258 260 290 206 205
4 24 28 200 291
6 68 67 230 292 293 70
4 294 295 296 297
8 298 299 300 301 302 303 304 305
7 283 306 307 308 309 282 281
8 310 268 267 311 312 263 237 236
4 263 262 17 237
4 313 157 58 57
6 314 315 256 255 316 317
6 318 319 320 321 322 323
4 197 324 325 63
6 130 133 175 174 177 326
4 327 328 329 330
4 235 225 224 115
4 166 165 331 332
8 333 334 335 336 337 338 339 340
4 341 342 343 344
8 345 346 347 348 349 350 351 352
8 353 354 355 356 357 358 359 360
10 361 362 363 364 365 289 288 366 367 368
4 369 370 371 372
8 373 344 343 374 375 376 377 378
10 379 380 381 382 383 384 385 386 387 388
8 389 390 391 392 393 394 395 396
4 271 397 398 272
12 399 400 401 370 369 402 403 404 405 382 381 406
10 407 408 372 371 409 410 411 107 106 412
4 395 394 387 386
10 413 414 415 416 417 418 419 420 421 422
4 119 423 141 120
4 295 270 273 296
8 150 85 84 123 129 128 127 151
4 341 287 286 342
4 362 361 424 425
4 294 297 391 390
8 426 427 428 429 430 431 432 433
12 434 435 436 220 219 437 438 439 440 441 442 443
4 425 424 444 445
4 444 421 420 445
13 446 447 448 449 450 451 452 453 454 455 456 457 458
13 459 460 461 462 463 464 465 466 467 468 469 470 471
8 472 473 474 475 476 477 478 479
8 480 481 482 483 484 485 486 487
13 488 489 490 491 492 493 494 495 496 497 498 499 500
8 501 502 503 504 505 506 507 508
13 509 510 511 512 513 514 515 516 517 518 519 520 521
8 522 523 524 525 526 527 528 529
8 530 531 532 533 534 535 536 537
4 116 115 224 223
4 203 202 538 539
6 113 540 541 542 234 114
4 121 290 260 122
6 543 147 65 64 544 545
4 546 117 120 140
6 538 265 266 547 548 539
8 549 550 551 552 553 554 555 556
8 398 397 557 558 105 108 559 560
4 199 198 75 561
4 562 563 261 264
4 64 63 325 544
4 564 565 24 291
4 194 310 236 16
7 566 567 56 55 61 568 569
4 80 37 36 101
4 79 149 152 173
6 320 319 327 330 570 321
8 571 377 376 572 573 216 215 574
6 575 312 576 332 331 577
6 29 565 564 41 40 39
4 257 256 315 578
4 54 76 579 103
4 330 329 580 570
6 166 332 576 154 153 167
6 542 541 581 254 257 578
4 89 278 582 90
4 99 125 124 100
5 276 17 262 261 583
8 584 585 586 587 588 589 590 591
5 31 30 102 104 47
7 292 230 26 46 45 48 293
4 265 538 202 208
5 221 14 13 201 222
7 112 111 592 211 210 209 593
4 280 566 569 284
7 328 148 147 543 545 580 329
4 231 51 50 232
7 307 23 22 594 595 309 308
4 149 86 85 150
4 113 116 596 540
4 561 75 74 93
4 577 562 264 575
4 264 263 312 575
4 94 548 547 95
4 146 592 111 110
8 597 598 599 600 601 602 603 604
6 605 606 607 608 609 610
4 285 284 569 568
6 278 277 611 612 613 582
6 611 614 615 616 613 612
4 19 18 617 274
4 154 311 267 155
4 131 618 135 134
6 119 118 87 92 91 423
4 21 157 594 22
4 154 576 312 311
6 196 318 323 322 324 197
6 163 162 617 619 620 164
5 76 38 72 71 579
4 567 566 280 279
7 159 275 274 617 162 161 160
7 619 617 18 276 583 621 620
4 68 75 198 69
4 109 112 593 143
4 595 594 157 313
8 622 623 624 625 626 627 628 629
4 261 563 621 583
4 51 269 176 52
4 131 130 326 618
4 254 581 316 255
4 565 29 25 24
4 116 223 229 596
4 46 26 25 31
5 227 226 314 317 228
6 546 140 142 616 615 614
6 630 631 632 633 634 635
4 442 441 416 415
