ply
format ascii 1.0
comment Created by Blender 2.82 (sub 7) - www.blender.org, source file: ''
element vertex 372
property float x
property float y
property float z
element face 86
property list uchar uint vertex_indices
end_header
-9.000000 -11.750000 10.125000
-9.000000 -11.750000 7.875000
-9.000000 11.750000 7.875000
-9.000000 11.750000 10.125000
8.250000 11.750000 10.125000
8.250000 11.750000 7.875000
8.250000 -11.750000 7.875000
8.250000 -11.750000 10.125000
-8.250000 11.750000 -10.875000
-8.250000 12.750000 -10.875000
-8.250000 12.750000 10.125000
-8.250000 12.500000 10.125000
-8.250000 12.500000 7.875000
-8.250000 11.750000 7.875000
8.250000 -12.500000 10.125000
-8.250000 -12.500000 10.125000
-8.250000 -12.500000 7.875000
8.250000 -12.500000 7.875000
-9.250000 12.750000 10.125000
-8.250000 12.750000 10.125000
-8.250000 12.750000 -10.875000
-9.250000 12.750000 -10.875000
8.250000 12.750000 -10.875000
9.250000 12.750000 -10.875000
9.250000 12.750000 10.125000
8.250000 12.750000 10.125000
-9.250000 11.750000 -10.875000
-8.250000 11.750000 -10.875000
-8.250000 11.750000 7.875000
-9.000000 11.750000 7.875000
-9.000000 11.750000 10.125000
-9.250000 11.750000 10.125000
9.000000 11.750000 7.875000
9.000000 11.750000 10.125000
9.000000 -11.750000 10.125000
9.000000 -11.750000 7.875000
8.250000 11.750000 7.875000
8.250000 12.500000 7.875000
-8.250000 12.500000 7.875000
-8.250000 11.750000 7.875000
-9.250000 12.750000 -10.875000
-8.250000 12.750000 -10.875000
-8.250000 12.750000 10.125000
-9.250000 12.750000 10.125000
-9.250000 -12.750000 10.125000
-8.250000 -12.750000 10.125000
-8.250000 -12.750000 -10.875000
-9.250000 -12.750000 -10.875000
-8.250000 -11.750000 -10.875000
-9.250000 -11.750000 -10.875000
-9.250000 -11.750000 10.125000
-9.000000 -11.750000 10.125000
-9.000000 -11.750000 7.875000
-8.250000 -11.750000 7.875000
-9.000000 -11.750000 7.875000
-9.000000 11.750000 7.875000
-8.250000 11.750000 7.875000
-8.250000 -11.750000 7.875000
9.000000 -11.750000 7.875000
9.000000 11.750000 7.875000
8.250000 -11.750000 7.875000
10.000000 -15.000000 10.125000
10.000000 -15.000000 10.875000
10.000000 15.000000 10.875000
10.000000 15.000000 10.125000
-10.000000 15.000000 10.125000
10.000000 15.000000 10.125000
10.000000 15.000000 10.875000
-10.000000 15.000000 10.875000
9.250000 -11.750000 10.125000
9.250000 -11.750000 -10.875000
8.250000 -11.750000 -10.875000
8.250000 -11.750000 7.875000
9.000000 -11.750000 7.875000
9.000000 -11.750000 10.125000
-9.250000 11.750000 -10.875000
-9.250000 12.750000 -10.875000
-8.250000 12.750000 -10.875000
-8.250000 11.750000 -10.875000
8.250000 -11.750000 10.125000
8.250000 -11.750000 7.875000
8.250000 11.750000 7.875000
8.250000 11.750000 10.125000
-8.250000 -12.750000 -10.875000
-8.250000 -11.750000 -10.875000
-9.250000 -11.750000 -10.875000
-9.250000 -12.750000 -10.875000
10.000000 15.000000 10.125000
10.000000 15.000000 10.875000
10.000000 -15.000000 10.875000
10.000000 -15.000000 10.125000
8.250000 12.750000 -10.875000
8.250000 11.750000 -10.875000
9.250000 11.750000 -10.875000
9.250000 12.750000 -10.875000
8.250000 11.750000 -10.875000
8.250000 11.750000 7.875000
9.000000 11.750000 7.875000
9.000000 11.750000 10.125000
9.250000 11.750000 10.125000
9.250000 11.750000 -10.875000
9.000000 -11.750000 7.875000
9.000000 -11.750000 10.125000
9.000000 11.750000 10.125000
9.000000 11.750000 7.875000
8.250000 -12.500000 7.875000
-8.250000 -12.500000 7.875000
-8.250000 -12.500000 10.125000
8.250000 -12.500000 10.125000
8.250000 11.750000 -10.875000
8.250000 12.750000 -10.875000
8.250000 12.750000 10.125000
8.250000 12.500000 10.125000
8.250000 12.500000 7.875000
9.250000 -12.750000 10.125000
8.250000 -12.750000 10.125000
8.250000 -12.750000 -10.875000
9.250000 -12.750000 -10.875000
-8.250000 -12.750000 10.125000
-8.250000 -12.750000 -10.875000
-8.250000 -11.750000 -10.875000
-8.250000 -11.750000 7.875000
-8.250000 -12.500000 7.875000
-8.250000 -12.500000 10.125000
-8.250000 -12.500000 7.875000
8.250000 -11.750000 7.875000
8.250000 -12.500000 7.875000
-9.000000 11.750000 10.125000
-9.000000 11.750000 7.875000
-9.000000 -11.750000 7.875000
-9.000000 -11.750000 10.125000
-9.250000 -12.750000 -10.875000
-8.250000 -12.750000 -10.875000
-8.250000 -12.750000 10.125000
-9.250000 -12.750000 10.125000
-9.000000 11.750000 10.125000
-9.000000 -11.750000 10.125000
-9.250000 -11.750000 10.125000
-9.250000 11.750000 10.125000
-9.250000 -11.750000 10.125000
-9.250000 -11.750000 -10.875000
-8.250000 -11.750000 -10.875000
-8.250000 -11.750000 7.875000
-9.000000 -11.750000 7.875000
-9.000000 -11.750000 10.125000
8.250000 -12.750000 -10.875000
8.250000 -12.750000 10.125000
8.250000 -12.500000 10.125000
8.250000 -12.500000 7.875000
8.250000 -11.750000 7.875000
8.250000 -11.750000 -10.875000
8.250000 11.750000 10.125000
-8.250000 11.750000 10.125000
-8.250000 11.750000 7.875000
8.250000 11.750000 7.875000
-8.250000 -11.750000 10.125000
8.250000 -11.750000 10.125000
8.250000 -11.750000 7.875000
-8.250000 -11.750000 7.875000
-8.250000 -11.750000 7.875000
8.250000 -11.750000 7.875000
8.250000 -11.750000 10.125000
-8.250000 -11.750000 10.125000
8.250000 -12.500000 7.875000
-8.250000 -11.750000 7.875000
-8.250000 -12.500000 7.875000
-8.250000 11.750000 7.875000
-8.250000 11.750000 10.125000
-8.250000 -11.750000 10.125000
-8.250000 -11.750000 7.875000
-8.250000 11.750000 7.875000
-8.250000 11.750000 10.125000
8.250000 11.750000 10.125000
8.250000 11.750000 7.875000
9.000000 11.750000 7.875000
9.000000 -11.750000 7.875000
8.250000 11.750000 10.125000
8.250000 -11.750000 10.125000
-8.250000 -11.750000 10.125000
-8.250000 11.750000 10.125000
-8.250000 -11.750000 7.875000
-8.250000 -11.750000 10.125000
-8.250000 11.750000 10.125000
-8.250000 11.750000 7.875000
9.250000 -12.750000 -10.875000
9.250000 -12.750000 10.125000
9.250000 -11.750000 10.125000
9.250000 -11.750000 -10.875000
9.250000 -11.750000 -10.875000
9.250000 -11.750000 10.125000
9.250000 -12.750000 10.125000
9.250000 -12.750000 -10.875000
-9.250000 -11.750000 -10.875000
-9.250000 -11.750000 10.125000
-9.250000 -12.750000 10.125000
-9.250000 -12.750000 -10.875000
9.250000 12.750000 -10.875000
9.250000 11.750000 -10.875000
8.250000 11.750000 -10.875000
8.250000 12.750000 -10.875000
-8.250000 12.500000 7.875000
8.250000 12.500000 7.875000
8.250000 12.500000 10.125000
-8.250000 12.500000 10.125000
-8.250000 12.500000 10.125000
8.250000 12.500000 10.125000
8.250000 12.500000 7.875000
-8.250000 12.500000 7.875000
9.250000 11.750000 10.125000
9.000000 11.750000 10.125000
9.000000 11.750000 7.875000
8.250000 11.750000 -10.875000
9.250000 11.750000 -10.875000
8.250000 12.750000 10.125000
8.250000 12.750000 -10.875000
8.250000 11.750000 -10.875000
8.250000 12.500000 7.875000
8.250000 12.500000 10.125000
8.250000 -12.750000 -10.875000
8.250000 -11.750000 -10.875000
9.250000 -11.750000 -10.875000
9.250000 -12.750000 -10.875000
9.250000 -12.750000 -10.875000
8.250000 -12.750000 -10.875000
8.250000 -12.750000 10.125000
9.250000 -12.750000 10.125000
9.250000 -12.750000 -10.875000
9.250000 -11.750000 -10.875000
8.250000 -11.750000 -10.875000
8.250000 -12.750000 -10.875000
-9.250000 -12.750000 -10.875000
-9.250000 -12.750000 10.125000
-9.250000 -11.750000 10.125000
-9.250000 -11.750000 -10.875000
8.250000 12.750000 10.125000
9.250000 12.750000 10.125000
9.250000 12.750000 -10.875000
8.250000 12.750000 -10.875000
9.250000 11.750000 -10.875000
9.250000 11.750000 10.125000
9.250000 12.750000 10.125000
9.250000 12.750000 -10.875000
-8.250000 12.750000 10.125000
-8.250000 12.750000 -10.875000
-8.250000 11.750000 -10.875000
-8.250000 11.750000 7.875000
-8.250000 12.500000 7.875000
-8.250000 12.500000 10.125000
-9.250000 -12.750000 -10.875000
-9.250000 -11.750000 -10.875000
-8.250000 -11.750000 -10.875000
-8.250000 -12.750000 -10.875000
-10.000000 -15.000000 10.875000
-10.000000 15.000000 10.875000
10.000000 15.000000 10.875000
10.000000 -15.000000 10.875000
-8.250000 -12.500000 10.125000
-8.250000 -12.500000 7.875000
-8.250000 -11.750000 7.875000
-8.250000 -11.750000 -10.875000
-8.250000 -12.750000 -10.875000
-8.250000 -12.750000 10.125000
-9.250000 11.750000 10.125000
-9.250000 -11.750000 10.125000
-9.000000 -11.750000 10.125000
-9.000000 11.750000 10.125000
10.000000 -15.000000 10.875000
10.000000 15.000000 10.875000
-10.000000 15.000000 10.875000
-10.000000 -15.000000 10.875000
-10.000000 15.000000 10.875000
10.000000 15.000000 10.875000
10.000000 15.000000 10.125000
-10.000000 15.000000 10.125000
8.250000 -11.750000 -10.875000
9.250000 -11.750000 -10.875000
9.250000 -11.750000 10.125000
9.000000 -11.750000 10.125000
9.000000 -11.750000 7.875000
8.250000 -11.750000 7.875000
-9.250000 -12.750000 10.125000
-9.250000 12.750000 10.125000
-9.250000 11.750000 10.125000
-9.250000 11.750000 -10.875000
-9.250000 12.750000 -10.875000
-9.250000 12.750000 10.125000
10.000000 -15.000000 10.125000
9.250000 -12.750000 10.125000
9.250000 -11.750000 10.125000
9.000000 -11.750000 10.125000
9.000000 11.750000 10.125000
9.250000 11.750000 10.125000
10.000000 15.000000 10.125000
-8.250000 11.750000 -10.875000
-8.250000 12.750000 -10.875000
-9.250000 12.750000 -10.875000
-9.250000 11.750000 -10.875000
-9.250000 -12.750000 10.125000
-9.250000 12.750000 10.125000
-8.250000 12.750000 10.125000
-8.250000 12.500000 10.125000
8.250000 12.500000 10.125000
8.250000 12.750000 10.125000
9.250000 12.750000 10.125000
9.250000 11.750000 10.125000
9.000000 11.750000 10.125000
9.000000 -11.750000 10.125000
9.250000 -11.750000 10.125000
10.000000 15.000000 10.125000
-10.000000 15.000000 10.125000
-10.000000 -15.000000 10.125000
10.000000 -15.000000 10.125000
-8.250000 -12.750000 10.125000
-9.000000 11.750000 7.875000
-9.000000 -11.750000 7.875000
-9.250000 12.750000 10.125000
-9.250000 12.750000 -10.875000
-9.250000 11.750000 -10.875000
-9.250000 11.750000 10.125000
8.250000 -12.500000 7.875000
8.250000 -12.500000 10.125000
8.250000 -12.750000 10.125000
8.250000 -12.750000 -10.875000
8.250000 -11.750000 -10.875000
8.250000 -11.750000 7.875000
9.250000 -12.750000 10.125000
8.250000 -12.750000 10.125000
8.250000 -12.500000 10.125000
-8.250000 -12.500000 10.125000
-9.250000 11.750000 10.125000
-9.000000 11.750000 10.125000
-9.000000 11.750000 7.875000
-8.250000 11.750000 7.875000
-8.250000 11.750000 -10.875000
-9.250000 11.750000 -10.875000
9.250000 12.750000 10.125000
8.250000 12.750000 10.125000
8.250000 12.500000 10.125000
-8.250000 12.500000 10.125000
-8.250000 12.750000 10.125000
-8.250000 -12.750000 10.125000
-8.250000 -12.500000 10.125000
8.250000 -12.500000 10.125000
8.250000 -12.750000 10.125000
-10.000000 -15.000000 10.125000
-10.000000 15.000000 10.125000
9.250000 12.750000 -10.875000
9.250000 12.750000 10.125000
9.250000 11.750000 10.125000
9.250000 11.750000 -10.875000
-8.250000 12.500000 7.875000
8.250000 12.500000 7.875000
-8.250000 11.750000 10.125000
-8.250000 -11.750000 10.125000
8.250000 -11.750000 10.125000
8.250000 11.750000 10.125000
-10.000000 15.000000 10.875000
-10.000000 15.000000 10.125000
-10.000000 -15.000000 10.125000
-10.000000 -15.000000 10.875000
-10.000000 -15.000000 10.875000
-10.000000 -15.000000 10.125000
-10.000000 15.000000 10.125000
-10.000000 15.000000 10.875000
10.000000 -15.000000 10.875000
-10.000000 -15.000000 10.875000
-10.000000 -15.000000 10.125000
10.000000 -15.000000 10.125000
10.000000 -15.000000 10.125000
-10.000000 -15.000000 10.125000
-10.000000 -15.000000 10.875000
10.000000 -15.000000 10.875000
4 0 1 2 3
4 4 5 6 7
6 8 9 10 11 12 13
4 14 15 16 17
4 18 19 20 21
4 22 23 24 25
6 26 27 28 29 30 31
4 32 33 34 35
4 36 37 38 39
4 40 41 42 43
4 44 45 46 47
6 48 49 50 51 52 53
4 54 55 56 57
4 58 59 36 60
4 61 62 63 64
4 65 66 67 68
6 69 70 71 72 73 74
4 75 76 77 78
4 79 80 81 82
4 83 84 85 86
4 87 88 89 90
4 91 92 93 94
6 95 96 97 98 99 100
4 101 102 103 104
4 105 106 107 108
6 81 109 110 111 112 113
4 114 115 116 117
6 118 119 120 121 122 123
4 124 57 125 126
4 127 128 129 130
4 131 132 133 134
4 135 136 137 138
6 139 140 141 142 143 144
6 145 146 147 148 149 150
4 151 152 153 154
4 155 156 157 158
4 159 160 161 162
4 163 60 164 165
4 166 167 168 169
4 96 170 171 172
4 125 173 174 175
4 176 177 178 179
4 180 181 182 183
4 184 185 186 187
4 188 189 190 191
4 192 193 194 195
4 196 197 198 199
4 200 201 202 203
4 204 205 206 207
6 208 209 210 154 211 212
6 213 214 215 5 216 217
4 218 219 220 221
4 222 223 224 225
4 226 227 228 229
4 230 231 232 233
4 234 235 236 237
4 238 239 240 241
6 242 243 244 245 246 247
4 248 249 250 251
4 252 253 254 255
6 256 257 258 259 260 261
4 262 263 264 265
4 266 267 268 269
4 270 271 272 273
6 274 275 276 277 278 279
3 280 281 138
3 280 138 137
4 282 283 284 285
7 286 287 288 289 290 291 292
4 293 294 295 296
16 297 298 299 300 301 302 303 304 305 306 307 308 309 310 311 312
4 164 39 313 314
4 315 316 317 318
6 319 320 321 322 323 324
8 325 326 327 328 312 311 308 307
3 263 262 297
3 262 298 297
6 329 330 331 332 333 334
17 292 291 335 336 337 338 339 281 280 340 341 342 343 287 286 344 345
4 346 347 348 349
4 56 350 351 173
4 352 353 354 355
4 356 357 358 359
4 360 361 362 363
4 364 365 366 367
4 368 369 370 371
