ply
format ascii 1.0
comment Created by Blender 2.82 (sub 7) - www.blender.org, source file: ''
element vertex 663
property float x
property float y
property float z
element face 210
property list uchar uint vertex_indices
end_header
0.000000 2.859170 9.115100
0.000000 2.163530 8.822000
-1.156250 2.002730 8.919300
-2.002680 1.156300 8.919300
-2.312500 0.000000 8.919300
-2.002680 -1.156200 8.919300
-5.258091 -4.840400 9.905200
-6.544870 -2.870800 9.905200
-4.389671 5.639890 9.905200
0.000000 7.618780 10.065000
2.320570 6.759640 9.905200
1.429560 2.476120 9.115100
-3.581879 -2.068000 -12.034463
-4.135998 0.000000 -12.034463
-3.581879 2.068040 -12.034463
-2.068000 3.581920 -12.034463
-2.277800 4.729950 -12.296283
-5.118174 1.168200 -12.296283
-2.277800 -4.729900 -12.296283
-2.068000 -3.581800 -12.034463
-23.825050 2.892920 13.090000
-22.440350 8.510560 13.090000
-19.751650 13.633600 13.090000
-19.751650 13.633600 13.465000
-23.825050 2.892920 13.465000
1.705300 -1.287700 -10.155340
1.487580 -0.858800 8.324500
0.858860 -1.487500 8.324500
1.124940 -1.816800 -10.155340
3.997700 10.983633 -13.050000
3.986250 10.952160 -13.465000
0.000000 11.655042 -13.465000
0.000000 11.688536 -13.050000
0.000000 -10.727100 11.977800
0.000000 -10.451900 11.784200
3.574780 -9.821600 11.784200
6.718350 -8.006600 11.784200
6.869750 -8.187000 11.955800
3.655330 -10.042900 11.955800
-19.751650 13.633600 13.465000
-11.153350 21.250990 13.465000
-11.153350 21.250990 13.090000
-19.751650 13.633600 13.090000
11.103750 8.067390 12.215000
13.725050 0.000000 12.215000
13.725050 0.000000 12.140000
11.103750 8.067390 12.140000
0.771940 1.992660 -10.155340
2.068000 3.581920 -12.034463
-0.771940 1.992660 -10.155340
0.000000 2.741320 -10.981660
-1.912890 0.952500 -10.155340
1.156250 2.002730 8.919300
0.858860 1.487600 8.324500
0.000000 1.675400 8.246200
0.000000 -6.300000 -12.685000
0.000000 -6.300000 -12.388000
-2.733470 -5.676100 -12.388000
-2.733470 -5.676100 -12.685000
0.000000 1.821210 -9.496040
-5.743570 -23.302601 13.090000
-15.914950 -17.964199 13.090000
-19.751650 -13.633500 13.090000
-23.825050 -2.892800 13.090000
-23.825050 2.892920 13.090000
-22.440350 8.510560 13.090000
-11.103760 8.067390 12.215000
-13.725000 0.000000 12.215000
-11.103760 -8.067300 12.215000
-8.067350 -11.103700 12.215000
0.000000 -13.725000 12.215000
8.067350 -11.103700 12.215000
11.103750 -8.067300 12.215000
13.725050 0.000000 12.215000
11.103750 8.067390 12.215000
8.067350 11.103800 12.215000
0.000000 13.725040 12.215000
-4.241256 13.053290 12.215000
-18.725050 10.810953 12.215000
-5.596140 20.885120 12.215000
15.288950 15.288980 12.215000
22.440350 -8.510500 13.090000
19.751650 -13.633500 13.090000
11.153350 -21.250900 13.090000
5.743550 -23.302601 13.090000
-2.127800 0.197200 -10.155340
0.000000 6.300040 -12.388000
0.000000 6.300040 -12.685000
-2.733470 5.676150 -12.685000
-2.733470 5.676150 -12.388000
1.487580 0.858900 8.324500
1.912890 0.952500 -10.155340
0.750000 1.299100 -7.778340
20.885050 -5.596100 12.215000
22.440350 -8.510500 13.090000
23.825050 -2.892800 13.090000
23.825050 2.892920 13.090000
19.751650 13.633600 13.090000
15.914950 17.964300 13.090000
-0.750000 1.299100 -7.778340
3.581880 2.068040 -12.034463
1.717710 0.000000 8.324500
2.127800 0.197200 -10.155340
-3.997698 -10.983500 -13.050000
0.000000 -11.688500 -13.050000
0.000000 -11.780000 -12.958494
-4.028996 -11.069500 -12.958494
-7.572040 -9.024000 -12.958494
-7.513220 -8.953900 -13.050000
4.136000 0.000000 -12.034463
0.000000 -6.300000 -12.388000
0.000000 -6.300000 -12.065000
-2.733470 -5.676100 -12.065000
-2.733470 -5.676100 -12.388000
-12.310090 -2.170600 -12.633000
-12.310090 2.170640 -12.633000
-12.310090 2.170640 -12.925000
-12.310090 -2.170600 -12.925000
-4.925537 -3.927900 -12.065000
-4.925537 -3.927900 -12.388000
-1.705290 -1.287700 -10.155340
2.068000 -3.581800 -12.034463
3.581880 -2.068000 -12.034463
0.392660 -2.100500 -10.155340
0.712400 -3.810900 -11.895420
0.000000 -6.300000 -12.065000
-4.099451 -11.263100 -12.633000
0.000000 -11.986000 -12.633000
4.099450 -11.263100 -12.633000
7.704450 -9.181800 -12.633000
10.380150 -5.993000 -12.633000
11.803950 -2.081300 -12.633000
11.803950 2.081390 -12.633000
10.380150 5.993040 -12.633000
7.704450 9.181850 -12.633000
4.099450 11.263195 -12.633000
0.000000 6.300040 -12.065000
2.733470 5.676150 -12.065000
4.925540 3.928030 -12.065000
6.142050 1.401900 -12.065000
6.142050 -1.401800 -12.065000
4.925540 -3.927900 -12.065000
2.733470 -5.676100 -12.065000
8.067350 11.103800 12.140000
8.067350 11.103800 12.215000
11.103750 -8.067300 12.140000
11.103750 -8.067300 12.215000
8.067350 -11.103700 12.215000
8.067350 -11.103700 12.140000
-13.725000 0.000000 12.215000
-13.053250 4.241300 12.215000
-13.053250 4.241300 12.140000
-13.725000 0.000000 12.140000
7.572050 9.024050 -12.958494
7.513250 8.953950 -13.050000
0.000000 11.780042 -12.958494
4.029000 11.069621 -12.958494
-1.487580 -0.858800 8.324500
-1.717710 0.000000 8.324500
-0.858850 1.487600 8.324500
-8.034840 -9.575500 -12.633000
-10.825320 -6.250000 -12.633000
-10.825320 -6.250000 -12.925000
-8.034840 -9.575500 -12.925000
0.000000 -1.675300 8.246200
-0.858850 -1.487500 8.324500
-1.124940 -1.816800 -10.155340
-0.392660 -2.100500 -10.155340
0.000000 -1.500000 -7.778340
7.491650 8.928290 -13.465000
-11.510920 -2.029600 -13.050000
-11.510920 2.029730 -13.050000
-11.477930 2.023910 -13.465000
-11.477930 -2.023800 -13.465000
0.000000 -2.163400 8.822000
1.156250 -2.002600 8.919300
10.122550 -5.844200 -13.050000
7.513250 -8.953900 -13.050000
7.491650 -8.928200 -13.465000
10.093550 -5.827500 -13.465000
10.201750 -5.890000 -12.958494
7.572050 -9.024000 -12.958494
11.510950 -2.029600 -13.050000
11.601050 -2.045500 -12.958494
-23.825050 2.892920 13.465000
3.574780 -9.821600 11.784200
-1.705610 -10.221200 11.704300
0.000000 -7.618700 10.065000
6.544850 -2.870800 9.905200
9.489750 -4.162500 11.704300
6.718350 -8.006600 11.784200
-11.153350 -21.250900 13.090000
-5.743570 -23.302601 13.090000
5.743550 -23.302601 13.090000
11.153350 -21.250900 13.090000
19.751650 -13.633500 13.090000
11.103750 -8.067300 12.215000
8.067350 -11.103700 12.215000
18.725050 -10.810900 12.215000
-10.810910 -18.725000 12.215000
3.997700 -10.983500 -13.050000
0.000000 -11.655000 -13.465000
3.986250 -10.952100 -13.465000
-6.718390 -8.006600 11.784200
-9.489720 -4.162500 11.704300
9.051650 5.226020 11.784200
10.045450 2.543890 11.704300
6.928150 1.754490 9.905200
0.000000 9.117520 10.789200
3.364710 9.801100 11.704300
3.574780 9.821670 11.784200
6.718350 8.006710 11.784200
10.825350 -6.250000 -12.633000
8.034850 -9.575500 -12.633000
8.034850 -9.575500 -12.925000
10.825350 -6.250000 -12.925000
0.000000 -1.821100 -9.496040
0.000000 -2.741200 -10.981660
4.275250 -11.746100 -12.633000
4.275250 -11.746100 -12.925000
-10.825320 6.250040 -12.633000
-10.825320 6.250040 -12.925000
0.000000 13.725040 12.140000
0.000000 13.725040 12.215000
-1.156250 -2.002600 8.919300
6.142050 1.401900 -12.388000
6.142050 -1.401800 -12.388000
6.142050 -1.401800 -12.685000
6.142050 1.401900 -12.685000
-1.487580 0.858900 8.324500
0.000000 10.727140 11.977800
-3.655324 10.042970 11.955800
-6.869760 8.187110 11.955800
-9.255610 5.343770 11.955800
-9.851000 5.687520 12.140000
-7.311680 8.713770 12.140000
-3.890463 10.689010 12.140000
0.000000 11.375000 12.140000
3.890470 10.689010 12.140000
3.655330 10.042970 11.955800
23.825050 2.892920 13.465000
23.825050 2.892920 13.090000
19.751650 13.633600 13.090000
19.751650 13.633600 13.465000
10.293150 1.815010 11.784200
-3.574778 9.821670 11.784200
-6.364790 8.177530 11.704300
-6.718390 8.006710 11.784200
0.000000 10.452000 11.784200
-10.122530 5.844290 -13.050000
-10.093520 5.827540 -13.465000
0.000000 -6.300000 -12.065000
2.733470 -5.676100 -12.065000
4.925540 -3.927900 -12.065000
6.142050 -1.401800 -12.065000
6.142050 1.401900 -12.065000
4.925540 3.928030 -12.065000
2.733470 5.676150 -12.065000
0.000000 6.300040 -12.065000
0.000000 -4.136000 -12.034463
-10.201780 5.890040 -12.958494
-11.601030 2.045620 -12.958494
-11.601030 -2.045500 -12.958494
-10.201780 -5.890000 -12.958494
0.000000 -11.905000 -12.925000
-4.071748 -11.187000 -12.925000
-7.652380 -9.119700 -12.925000
-10.310030 -5.952500 -12.925000
-11.724130 -2.067200 -12.925000
-11.724130 2.067320 -12.925000
-10.310030 5.952540 -12.925000
-7.652380 9.119800 -12.925000
-7.572040 9.024050 -12.958494
-7.513220 8.953950 -13.050000
-3.986243 -10.952100 -13.465000
-3.655324 -10.042900 11.955800
9.255650 -5.343700 11.955800
9.851050 -5.687400 12.140000
7.311650 -8.713700 12.140000
3.890470 -10.688900 12.140000
0.000000 -11.374900 12.140000
-3.890463 -10.688900 12.140000
-2.733470 5.676150 -12.065000
-4.925537 3.928030 -12.065000
-6.142040 1.401900 -12.065000
-6.142040 -1.401800 -12.065000
-4.925537 -3.927900 -12.065000
-2.733470 -5.676100 -12.065000
10.525050 1.855900 11.955800
6.869750 8.187110 11.955800
9.255650 5.343770 11.955800
10.825350 6.250040 -12.633000
12.310050 2.170640 -12.633000
12.310050 2.170640 -12.925000
10.825350 6.250040 -12.925000
2.002690 -1.156200 8.919300
0.000000 12.500042 -12.633000
0.000000 12.500042 -12.925000
-4.275250 11.746200 -12.925000
-4.275250 11.746200 -12.633000
4.275250 11.746200 -12.633000
4.275250 11.746200 -12.925000
6.142050 -1.401800 -12.685000
4.925540 -3.927900 -12.685000
2.733470 -5.676100 -12.685000
0.000000 -6.300000 -12.685000
-2.733470 -5.676100 -12.685000
-4.925537 -3.927900 -12.685000
-6.142040 -1.401800 -12.685000
-6.142040 1.401900 -12.685000
-4.925537 3.928030 -12.685000
-2.733470 5.676150 -12.685000
0.000000 6.300040 -12.685000
2.733470 5.676150 -12.685000
4.925540 3.928030 -12.685000
6.142050 1.401900 -12.685000
12.310050 -2.170600 -12.633000
12.310050 -2.170600 -12.925000
7.704450 -9.181800 -12.633000
4.099450 -11.263100 -12.633000
0.000000 -11.986000 -12.633000
-4.099451 -11.263100 -12.633000
-7.704450 -9.181800 -12.633000
-10.380180 -5.993000 -12.633000
-11.803900 -2.081300 -12.633000
-11.803900 2.081390 -12.633000
-10.380180 5.993040 -12.633000
-7.704450 9.181850 -12.633000
-4.099451 11.263195 -12.633000
0.000000 11.986040 -12.633000
4.099450 11.263195 -12.633000
7.704450 9.181850 -12.633000
10.380150 5.993040 -12.633000
11.803950 2.081390 -12.633000
12.310050 2.170640 -12.633000
10.825350 6.250040 -12.633000
8.034850 9.575600 -12.633000
4.275250 11.746200 -12.633000
0.000000 12.500042 -12.633000
-4.275250 11.746200 -12.633000
-8.034840 9.575600 -12.633000
-10.825320 6.250040 -12.633000
-12.310090 2.170640 -12.633000
-12.310090 -2.170600 -12.633000
-10.825320 -6.250000 -12.633000
-8.034840 -9.575500 -12.633000
-4.275250 -11.746100 -12.633000
0.000000 -12.500000 -12.633000
4.275250 -11.746100 -12.633000
8.034850 -9.575500 -12.633000
10.825350 -6.250000 -12.633000
11.724150 2.067320 -12.925000
11.601050 2.045620 -12.958494
10.201750 5.890040 -12.958494
-4.028996 11.069621 -12.958494
-4.071748 11.187083 -12.925000
0.000000 11.905042 -12.925000
4.071750 11.187083 -12.925000
7.652350 9.119800 -12.925000
10.310050 5.952540 -12.925000
-8.067350 -11.103700 12.215000
-8.067350 -11.103700 12.140000
0.000000 -13.725000 12.140000
0.000000 -13.725000 12.215000
2.733470 5.676150 -12.388000
2.733470 5.676150 -12.685000
2.476080 1.429600 9.115100
2.002690 1.156300 8.919300
4.925540 -3.927900 -12.388000
4.925540 -3.927900 -12.685000
2.733470 -5.676100 -12.685000
2.733470 -5.676100 -12.388000
0.000000 6.300040 -12.065000
0.000000 6.300040 -12.388000
-2.733470 5.676150 -12.388000
-2.733470 5.676150 -12.065000
-6.142040 1.401900 -12.388000
-4.925537 3.928030 -12.388000
-4.925537 3.928030 -12.685000
-6.142040 1.401900 -12.685000
-6.142040 -1.401800 -12.065000
-6.142040 -1.401800 -12.388000
11.153350 21.250990 13.465000
11.153350 21.250990 13.090000
0.000000 24.000000 13.090000
0.000000 24.000000 13.465000
2.733470 5.676150 -12.065000
2.733470 5.676150 -12.388000
-4.925537 3.928030 -12.388000
-4.925537 3.928030 -12.065000
-8.067350 -11.103700 12.215000
0.000000 -13.725000 12.215000
8.067350 -11.103700 12.215000
11.103750 -8.067300 12.215000
13.725050 0.000000 12.215000
11.103750 8.067390 12.215000
8.067350 11.103800 12.215000
0.000000 13.725040 12.215000
-8.067350 11.103800 12.215000
-13.053250 4.241300 12.215000
-13.725000 0.000000 12.215000
-11.103760 -8.067300 12.215000
2.733470 -5.676100 -12.388000
2.733470 -5.676100 -12.065000
-15.914950 -17.964199 13.090000
-15.914950 -17.964199 13.465000
-5.743570 -23.302601 13.465000
-11.103760 -8.067300 12.140000
-11.103760 -8.067300 12.215000
4.925540 3.928030 -12.065000
6.142050 1.401900 -12.065000
6.142050 1.401900 -12.388000
4.925540 3.928030 -12.388000
-10.293170 1.815010 11.784200
11.153350 21.250990 13.465000
11.153350 21.250990 13.090000
19.751650 13.633600 13.465000
-23.825050 -2.892800 13.090000
-23.825050 -2.892800 13.465000
0.000000 -12.500000 -12.633000
0.000000 -12.500000 -12.925000
11.153350 -21.250900 13.465000
19.751650 -13.633500 13.465000
23.825050 -2.892800 13.090000
23.825050 -2.892800 13.465000
5.743550 -23.302601 13.465000
19.751650 -13.633500 13.465000
23.825050 -2.892800 13.465000
2.312500 0.000000 8.919300
-10.525090 1.855900 11.955800
-5.743570 -23.302601 13.465000
-15.914950 -17.964199 13.465000
-19.751650 -13.633500 13.465000
-3.997698 10.983633 -13.050000
-3.986243 10.952160 -13.465000
-7.491690 8.928290 -13.465000
11.477950 -2.023800 -13.465000
-6.869760 -8.187000 11.955800
-6.718390 -8.006600 11.784200
-3.574778 -9.821600 11.784200
-10.093520 -5.827500 -13.465000
-10.122530 -5.844200 -13.050000
3.986250 -10.952100 -13.465000
0.000000 -11.655000 -13.465000
-3.986243 -10.952100 -13.465000
-7.491690 -8.928200 -13.465000
-10.093520 -5.827500 -13.465000
-11.477930 -2.023800 -13.465000
-11.477930 2.023910 -13.465000
-10.093520 5.827540 -13.465000
-7.491690 8.928290 -13.465000
-3.986243 10.952160 -13.465000
0.000000 11.655042 -13.465000
3.986250 10.952160 -13.465000
7.491650 8.928290 -13.465000
10.093550 5.827540 -13.465000
11.477950 2.023910 -13.465000
11.477950 -2.023800 -13.465000
10.093550 -5.827500 -13.465000
7.491650 -8.928200 -13.465000
-7.311680 -8.713700 12.140000
-9.851000 -5.687400 12.140000
-11.202140 -1.975200 12.140000
-11.202140 1.975280 12.140000
-10.525090 -1.855800 11.955800
-9.255610 -5.343700 11.955800
-7.491690 -8.928200 -13.465000
11.510950 2.029730 -13.050000
11.477950 2.023910 -13.465000
10.122550 5.844290 -13.050000
10.093550 5.827540 -13.465000
-0.712400 -3.810900 -11.895420
11.153350 -21.250900 13.465000
-10.293170 -1.814900 11.784200
-9.051660 -5.225900 11.784200
-23.825050 -2.892800 13.465000
8.034850 9.575600 -12.633000
8.034850 9.575600 -12.925000
11.724150 -2.067200 -12.925000
10.310050 -5.952500 -12.925000
7.652350 -9.119700 -12.925000
4.071750 -11.187000 -12.925000
4.029000 -11.069500 -12.958494
-11.724130 2.067320 -12.925000
-11.724130 -2.067200 -12.925000
-10.310030 -5.952500 -12.925000
-12.310090 -2.170600 -12.925000
-12.310090 2.170640 -12.925000
-10.825320 6.250040 -12.925000
-8.034840 9.575600 -12.925000
-4.275250 11.746200 -12.925000
0.000000 12.500042 -12.925000
4.275250 11.746200 -12.925000
8.034850 9.575600 -12.925000
10.825350 6.250040 -12.925000
12.310050 2.170640 -12.925000
12.310050 -2.170600 -12.925000
10.825350 -6.250000 -12.925000
8.034850 -9.575500 -12.925000
4.275250 -11.746100 -12.925000
0.000000 -12.500000 -12.925000
-4.275250 -11.746100 -12.925000
-8.034840 -9.575500 -12.925000
-10.825320 -6.250000 -12.925000
-7.652380 -9.119700 -12.925000
-4.071748 -11.187000 -12.925000
0.000000 -11.905000 -12.925000
4.071750 -11.187000 -12.925000
7.652350 -9.119700 -12.925000
10.310050 -5.952500 -12.925000
11.724150 -2.067200 -12.925000
11.724150 2.067320 -12.925000
10.310050 5.952540 -12.925000
7.652350 9.119800 -12.925000
4.071750 11.187083 -12.925000
0.000000 11.905042 -12.925000
-4.071748 11.187083 -12.925000
-7.652380 9.119800 -12.925000
-10.310030 5.952540 -12.925000
-4.925537 -3.927900 -12.388000
-4.925537 -3.927900 -12.685000
-8.034840 9.575600 -12.925000
-8.034840 9.575600 -12.633000
-4.275250 -11.746100 -12.633000
-4.275250 -11.746100 -12.925000
-6.142040 -1.401800 -12.388000
-6.142040 -1.401800 -12.685000
-6.142040 1.401900 -12.388000
-6.142040 -1.401800 -12.388000
-4.925537 -3.927900 -12.388000
-2.733470 -5.676100 -12.388000
0.000000 -6.300000 -12.388000
2.733470 -5.676100 -12.388000
4.925540 -3.927900 -12.388000
6.142050 -1.401800 -12.388000
6.142050 1.401900 -12.388000
4.925540 3.928030 -12.388000
2.733470 5.676150 -12.388000
0.000000 6.300040 -12.388000
-2.733470 5.676150 -12.388000
-4.925537 3.928030 -12.388000
4.925540 3.928030 -12.388000
4.925540 3.928030 -12.685000
10.380150 -5.993000 -12.633000
12.310050 -2.170600 -12.633000
11.803950 -2.081300 -12.633000
10.525050 -1.855800 11.955800
7.311650 8.713770 12.140000
9.851050 5.687520 12.140000
11.202150 1.975280 12.140000
11.202150 -1.975200 12.140000
0.000000 11.986040 -12.633000
-4.099451 11.263195 -12.633000
-7.704450 9.181850 -12.633000
-10.380180 5.993040 -12.633000
-11.803900 2.081390 -12.633000
-11.803900 -2.081300 -12.633000
-10.380180 -5.993000 -12.633000
-7.704450 -9.181800 -12.633000
-2.733470 -5.676100 -12.065000
-4.925537 -3.927900 -12.065000
-6.142040 -1.401800 -12.065000
-6.142040 1.401900 -12.065000
-4.925537 3.928030 -12.065000
-2.733470 5.676150 -12.065000
15.914950 17.964300 13.090000
-8.067350 11.103800 12.215000
-8.067350 11.103800 12.140000
6.142050 -1.401800 -12.065000
6.142050 -1.401800 -12.388000
4.925540 -3.927900 -12.388000
4.925540 -3.927900 -12.065000
-6.142040 1.401900 -12.065000
-6.142040 1.401900 -12.388000
-11.153350 21.250990 13.465000
-11.153350 21.250990 13.090000
0.000000 24.000000 13.090000
0.000000 24.000000 13.465000
-19.751650 -13.633500 13.090000
0.000000 -13.725000 12.215000
-8.067350 -11.103700 12.215000
-11.103760 -8.067300 12.215000
-13.725000 0.000000 12.215000
-13.053250 4.241300 12.215000
-8.067350 11.103800 12.215000
0.000000 13.725040 12.215000
8.067350 11.103800 12.215000
11.103750 8.067390 12.215000
13.725050 0.000000 12.215000
9.851050 -5.687400 12.140000
11.202150 -1.975200 12.140000
11.202150 1.975280 12.140000
9.851050 5.687520 12.140000
7.311650 8.713770 12.140000
3.890470 10.689010 12.140000
0.000000 11.375000 12.140000
-3.890463 10.689010 12.140000
-7.311680 8.713770 12.140000
-9.851000 5.687520 12.140000
-11.202140 1.975280 12.140000
-11.202140 -1.975200 12.140000
-9.851000 -5.687400 12.140000
-11.103760 -8.067300 12.140000
-13.725000 0.000000 12.140000
-13.053250 4.241300 12.140000
-8.067350 11.103800 12.140000
0.000000 13.725040 12.140000
8.067350 11.103800 12.140000
11.103750 8.067390 12.140000
13.725050 0.000000 12.140000
11.103750 -8.067300 12.140000
8.067350 -11.103700 12.140000
0.000000 -13.725000 12.140000
-8.067350 -11.103700 12.140000
-3.890463 -10.688900 12.140000
0.000000 -11.374900 12.140000
3.890470 -10.688900 12.140000
7.311650 -8.713700 12.140000
-19.751650 -13.633500 13.465000
5.743550 -23.302601 13.465000
9.051650 -5.225900 11.784200
10.293150 -1.814900 11.784200
-7.311680 -8.713700 12.140000
23.825050 2.892920 13.465000
-5.743570 -23.302601 13.465000
5.743550 -23.302601 13.465000
11.153350 -21.250900 13.465000
19.751650 -13.633500 13.465000
23.825050 -2.892800 13.465000
23.825050 2.892920 13.465000
19.751650 13.633600 13.465000
11.153350 21.250990 13.465000
0.000000 24.000000 13.465000
-11.153350 21.250990 13.465000
-19.751650 13.633600 13.465000
-23.825050 2.892920 13.465000
-23.825050 -2.892800 13.465000
-19.751650 -13.633500 13.465000
-15.914950 -17.964199 13.465000
-3.031090 -1.750000 12.465000
-1.750000 -3.031000 12.465000
0.000000 -3.500000 12.465000
1.750000 -3.031000 12.465000
0.000000 -3.063000 12.465000
-1.531500 -2.652600 12.465000
-2.652630 -1.531500 12.465000
-3.063000 0.000000 12.465000
-2.652630 1.531500 12.465000
-1.531500 2.652680 12.465000
0.000000 3.063040 12.465000
1.531500 2.652680 12.465000
2.652640 1.531500 12.465000
3.063000 0.000000 12.465000
2.652640 -1.531500 12.465000
3.031090 -1.750000 12.465000
3.500000 0.000000 12.465000
3.031090 1.750040 12.465000
1.750000 3.031130 12.465000
0.000000 3.500040 12.465000
-1.750000 3.031130 12.465000
-3.031090 1.750040 12.465000
-3.499998 0.000000 12.465000
1.531500 -2.652600 12.465000
12 0 1 2 3 4 5 6 7 8 9 10 11
8 12 13 14 15 16 17 18 19
5 20 21 22 23 24
4 25 26 27 28
4 29 30 31 32
6 33 34 35 36 37 38
4 39 40 41 42
4 43 44 45 46
5 47 48 15 49 50
4 15 14 51 49
4 52 53 54 1
4 55 56 57 58
3 47 50 59
25 60 61 62 63 64 65 66 67 68 69 70 71 72 73 74 75 76 77 78 79 80 81 82 83 84
4 14 13 85 51
4 86 87 88 89
5 53 90 91 47 92
3 59 50 49
6 93 94 95 96 97 98
3 47 59 92
3 59 49 99
4 91 100 48 47
4 90 101 102 91
6 103 104 105 106 107 108
4 91 102 109 100
4 110 111 112 113
4 114 115 116 117
4 113 112 118 119
4 85 13 12 120
6 121 122 25 28 123 124
18 125 126 127 128 129 130 131 132 133 134 135 136 137 138 139 140 141 142
4 43 46 143 144
4 145 146 147 148
4 149 150 151 152
6 153 154 29 32 155 156
4 122 109 102 25
4 85 120 157 158
4 159 2 1 54
4 160 161 162 163
5 164 165 166 167 168
4 29 154 169 30
4 170 171 172 173
4 174 164 27 175
4 176 177 178 179
6 180 181 177 176 182 183
5 184 39 42 65 64
5 164 168 123 28 27
6 185 186 187 188 189 190
11 191 192 193 194 195 94 93 196 197 198 199
4 200 104 201 202
6 203 204 7 6 187 186
9 205 206 207 10 9 208 209 210 211
4 212 213 214 215
3 123 216 217
3 216 167 217
4 214 213 218 219
4 115 220 221 116
4 144 143 222 223
4 174 224 165 164
3 123 168 216
3 168 167 216
4 225 226 227 228
4 158 229 51 85
10 230 231 232 233 234 235 236 237 238 239
4 240 241 242 243
3 244 206 205
5 189 188 207 206 244
4 92 59 54 53
3 245 246 247
3 210 209 248
4 166 165 157 120
4 171 249 250 172
18 251 252 253 254 255 256 257 258 16 15 48 100 109 122 121 259 19 18
16 260 261 262 263 107 106 105 264 265 266 267 268 269 270 271 272
6 249 171 261 260 272 273
4 104 103 274 201
4 4 3 229 158
10 275 33 38 37 276 277 278 279 280 281
11 17 16 258 282 283 284 285 286 287 251 18
4 102 101 26 25
7 245 248 209 208 9 8 246
6 288 244 205 211 289 290
4 291 292 293 294
4 295 175 27 26
4 296 297 298 299
4 165 224 5 157
4 300 301 297 296
14 302 303 304 305 306 307 308 309 310 311 312 313 314 315
4 292 316 317 293
33 318 319 320 321 322 323 324 325 326 327 328 329 330 331 332 333 334 335 336 337 338 339 340 341 342 343 344 345 346 347 348 349 350
14 351 352 353 153 156 155 354 272 271 355 356 357 358 359
4 360 361 362 363
4 364 365 87 86
6 0 11 366 367 52 1
4 226 368 369 227
4 370 371 56 55
4 372 373 374 375
4 376 377 378 379
4 118 380 381 119
4 369 368 371 370
4 382 383 384 385
4 386 387 373 372
4 375 374 388 389
12 390 391 392 393 394 395 396 397 398 399 400 401
4 402 403 111 110
5 404 405 406 192 191
5 159 99 49 51 229
4 363 362 148 147
4 149 152 407 408
4 361 360 408 407
4 409 410 411 412
6 247 246 8 7 204 413
5 414 415 98 97 416
4 417 20 24 418
4 219 218 419 420
4 159 229 3 2
6 231 230 248 245 247 232
4 421 83 82 422
5 422 82 81 423 424
4 240 424 423 241
4 83 421 425 84
5 94 195 426 427 95
4 367 428 101 90
5 247 413 429 233 232
4 60 84 425 430
4 262 261 171 170
4 431 432 62 61
4 433 434 435 273
4 182 176 179 436
6 33 275 437 438 439 34
4 170 173 440 441
14 174 175 295 428 367 366 11 10 207 188 187 6 5 224
18 442 443 444 445 446 447 448 449 450 451 452 453 454 455 456 457 458 459
12 460 461 462 463 234 233 429 464 465 437 275 281
4 108 441 440 466
4 467 182 436 468
4 154 469 470 169
6 108 107 263 262 170 441
6 248 230 239 289 211 210
4 178 177 200 202
8 471 19 259 121 124 123 217 167
4 32 31 434 433
4 103 108 466 274
4 435 250 249 273
4 194 472 426 195
8 465 464 429 413 473 474 438 437
4 59 99 159 54
4 428 295 26 101
4 352 183 182 467
4 5 4 158 157
4 432 475 63 62
4 476 477 301 300
12 478 479 480 481 264 105 482 181 180 183 352 351
36 483 484 485 486 487 488 489 490 491 492 493 494 495 496 497 498 499 500 501 502 503 504 505 506 507 508 509 510 511 512 513 514 515 516 517 518
4 476 291 294 477
4 485 504 503 486
4 58 57 519 520
4 161 114 117 162
4 299 298 521 522
4 220 522 521 221
4 316 212 215 317
4 420 419 523 524
4 519 525 526 520
14 527 528 529 530 531 532 533 534 535 536 537 538 539 540
4 541 542 365 364
7 543 318 350 544 334 333 545
4 89 88 378 377
12 546 288 290 289 239 238 547 548 549 550 277 276
18 135 551 552 553 554 555 556 557 558 126 125 559 560 561 562 563 564 136
4 525 376 379 526
5 382 243 242 565 383
4 541 225 228 542
4 566 567 151 150
4 409 412 387 386
4 41 40 385 384
4 410 568 569 411
4 570 571 403 402
4 380 572 573 381
4 572 389 388 573
4 568 571 570 569
4 222 567 566 223
4 367 90 53 52
4 44 146 145 45
4 431 61 60 430
4 574 575 576 577
11 65 42 41 384 383 565 80 79 78 77 66
6 81 80 565 242 241 423
7 578 404 191 199 21 20 417
21 22 21 199 198 197 579 580 581 582 583 584 585 586 587 588 196 93 98 415 576 575
6 471 167 166 120 12 19
4 475 184 64 63
29 589 590 591 592 593 594 595 596 597 598 599 600 601 602 603 604 605 606 607 608 609 610 611 612 613 614 615 616 617
4 469 467 468 470
4 417 418 618 578
4 404 578 618 405
4 193 619 472 194
4 576 415 414 577
8 546 276 37 36 620 621 244 288
4 406 619 193 192
5 622 614 613 602 601
4 22 575 574 23
4 96 623 416 97
4 96 95 427 623
6 469 154 153 353 352 467
15 624 625 626 627 628 629 630 631 632 633 634 635 636 637 638
6 181 482 105 104 200 177
23 639 640 641 642 643 644 645 646 647 648 649 650 651 652 653 654 655 656 657 658 659 660 661
6 155 32 433 273 272 354
5 662 643 642 654 653
4 524 523 160 163
