ply
format ascii 1.0
comment Created by Blender 2.82 (sub 7) - www.blender.org, source file: ''
element vertex 606
property float x
property float y
property float z
element face 164
property list uchar uint vertex_indices
end_header
14.250000 -46.113949 6.906250
14.250000 46.113949 6.906250
14.250000 34.585449 6.906250
14.250000 -34.585449 6.906250
21.375000 46.113949 -11.968750
21.375000 46.113949 -12.906250
18.492901 45.341751 -12.906250
18.492901 45.341751 -11.968750
14.250000 -34.585449 6.906250
14.250000 34.585449 6.906250
14.250000 -46.113949 6.906250
14.250000 46.113949 6.906250
28.500000 46.113949 12.906250
28.500000 34.585449 12.906250
14.250000 34.585449 12.906250
14.250000 46.113949 12.906250
14.250000 46.113949 11.343750
14.250000 -46.113949 11.343750
14.250000 -34.585449 11.343750
14.250000 34.585449 11.343750
-14.250000 -46.113949 -11.968750
-14.250000 -34.585449 -11.968750
-14.250000 -34.585449 11.343750
-14.250000 -46.113949 11.343750
14.250000 34.585449 11.343750
14.250000 -34.585449 11.343750
14.250000 46.113949 11.343750
14.250000 -46.113949 11.343750
28.500000 34.585449 6.906250
28.500000 -34.585449 6.906250
14.250000 46.113949 12.906250
14.250000 34.585449 12.906250
28.500000 34.585449 12.906250
28.500000 46.113949 12.906250
-25.450939 -36.273769 -11.968750
-22.866899 -34.781849 -11.968750
-22.866899 -34.781849 -12.906250
-25.450939 -36.273769 -12.906250
14.250000 -46.113949 11.718750
14.250000 46.113949 11.718750
14.250000 34.585449 11.718750
14.250000 -34.585449 11.718750
28.500000 46.113949 -11.968750
28.500000 34.585449 -11.968750
14.250000 34.585449 -11.968750
14.250000 46.113949 -11.968750
26.942801 41.841648 -12.906250
26.942801 41.841648 -11.968750
26.942801 38.857849 -11.968750
26.942801 38.857849 -12.906250
14.250000 46.113949 12.295650
14.250000 -46.113949 12.295650
14.250000 -34.585449 12.295650
14.250000 34.585449 12.295650
24.257099 -45.341686 -11.968750
24.257099 -45.341686 -12.906250
26.367001 -43.231831 -12.906250
26.367001 -43.231831 -11.968750
18.492901 35.357750 -11.968750
16.382999 37.467651 -11.968750
16.382999 37.467651 -12.906250
18.492901 35.357750 -12.906250
-14.250000 46.113949 -11.968750
-14.250000 34.585449 -11.968750
-28.500000 34.585449 -11.968750
-28.500000 46.113949 -11.968750
28.500000 34.585449 11.718750
28.500000 34.585449 12.295650
28.500000 -34.585449 12.295650
28.500000 -34.585449 11.718750
-14.250000 -46.113949 6.906250
-14.250000 -34.585449 6.906250
-28.500000 -34.585449 6.906250
-28.500000 34.585449 6.906250
-14.250000 34.585449 6.906250
-14.250000 46.113949 6.906250
15.610800 -40.349701 -11.968750
16.382999 -43.231831 -11.968750
18.492901 -45.341686 -11.968750
19.883101 -45.917538 -11.968750
22.866899 -45.917538 -11.968750
24.257099 -45.341686 -11.968750
26.367001 -43.231831 -11.968750
27.139200 -40.349701 -11.968750
26.367001 -37.467579 -11.968750
25.450899 -36.273769 -11.968750
22.866899 -34.781849 -11.968750
19.883101 -34.781849 -11.968750
17.299101 -36.273769 -11.968750
16.382999 -37.467579 -11.968750
24.257099 45.341751 -11.968750
26.367001 43.231850 -11.968750
26.367001 43.231850 -12.906250
24.257099 45.341751 -12.906250
-14.250000 34.585449 6.906250
-28.500000 34.585449 6.906250
-28.500000 -34.585449 6.906250
-14.250000 -34.585449 6.906250
-14.250000 -46.113949 6.906250
-14.250000 46.113949 6.906250
-14.250000 46.113949 11.343750
-14.250000 34.585449 11.343750
-28.500000 34.585449 11.343750
-28.500000 -34.585449 11.343750
-14.250000 -34.585449 11.343750
-14.250000 -46.113949 11.343750
14.250000 -46.113949 -11.968750
14.250000 -46.113949 11.343750
14.250000 -34.585449 11.343750
14.250000 -34.585449 -11.968750
28.500000 34.585449 11.718750
28.500000 -34.585449 11.718750
14.250000 34.585449 11.343750
14.250000 46.113949 11.343750
14.250000 46.113949 -11.968750
14.250000 34.585449 -11.968750
27.139200 -40.349701 -12.906250
27.139200 -40.349701 -11.968750
-26.942829 38.857849 -11.968750
-25.450939 36.273750 -11.968750
-24.257120 35.357750 -11.968750
-21.375000 34.585449 -11.968750
-18.492901 35.357750 -11.968750
-16.382999 37.467651 -11.968750
-15.610800 40.349751 -11.968750
-16.382999 43.231850 -11.968750
-18.492901 45.341751 -11.968750
-21.375000 46.113949 -11.968750
-24.257120 45.341751 -11.968750
-26.366980 43.231850 -11.968750
-27.139250 40.349751 -11.968750
28.500000 -34.585449 11.343750
28.500000 34.585449 11.343750
-26.366980 -43.231831 -11.968750
-26.366980 -43.231831 -12.906250
-25.450939 -44.425640 -12.906250
-25.450939 -44.425640 -11.968750
-18.492901 -45.341686 -11.968750
-19.883101 -45.917538 -11.968750
-19.883101 -45.917538 -12.906250
-18.492901 -45.341686 -12.906250
-24.257120 35.357750 -11.968750
-25.450939 36.273750 -11.968750
-25.450939 36.273750 -12.906250
-24.257120 35.357750 -12.906250
14.250000 -46.113949 12.295650
-14.250000 -46.113949 12.295650
-14.250000 -46.113949 11.718750
14.250000 -46.113949 11.718750
-14.250000 46.113949 12.295650
-14.250000 46.113949 11.718750
-14.250000 34.585449 11.718750
-14.250000 34.585449 12.295650
-21.375000 34.585449 -11.968750
-21.375000 34.585449 -12.906250
-18.492901 35.357750 -12.906250
-18.492901 35.357750 -11.968750
14.250000 -34.585449 11.718750
14.250000 -34.585449 12.295650
14.250000 -46.113949 12.295650
14.250000 -46.113949 11.718750
15.610800 -40.349701 -12.906250
16.382999 -37.467579 -12.906250
17.299101 -36.273769 -12.906250
19.883101 -34.781849 -12.906250
22.866899 -34.781849 -12.906250
25.450899 -36.273769 -12.906250
26.367001 -37.467579 -12.906250
27.139200 -40.349701 -12.906250
26.367001 -43.231831 -12.906250
24.257099 -45.341686 -12.906250
22.866899 -45.917538 -12.906250
19.883101 -45.917538 -12.906250
18.492901 -45.341686 -12.906250
16.382999 -43.231831 -12.906250
-14.250000 34.585449 11.343750
-14.250000 34.585449 12.906250
-14.250000 46.113949 12.906250
-14.250000 46.113949 11.343750
14.250000 46.113949 11.718750
14.250000 46.113949 12.295650
14.250000 34.585449 12.295650
14.250000 34.585449 11.718750
14.250000 46.113949 -11.968750
14.250000 34.585449 -11.968750
28.500000 34.585449 -11.968750
28.500000 46.113949 -11.968750
-14.250000 46.113949 11.343750
-14.250000 -46.113949 11.343750
-14.250000 -34.585449 11.343750
-28.500000 -34.585449 11.343750
-28.500000 34.585449 11.343750
-14.250000 34.585449 11.343750
28.500000 -34.585449 6.906250
28.500000 34.585449 6.906250
14.250000 -46.113949 -11.968750
14.250000 -46.113949 12.906250
28.500000 -46.113949 12.906250
28.500000 -46.113949 -11.968750
-28.500000 34.585449 12.295650
-28.500000 34.585449 11.718750
-28.500000 -34.585449 11.718750
-28.500000 -34.585449 12.295650
14.250000 34.585449 12.906250
14.250000 34.585449 11.343750
14.250000 46.113949 11.343750
14.250000 46.113949 12.906250
-28.500000 34.585449 12.295650
-14.250000 34.585449 12.295650
-14.250000 34.585449 11.718750
-28.500000 34.585449 11.718750
24.257099 35.357750 -11.968750
21.375000 34.585449 -11.968750
21.375000 34.585449 -12.906250
24.257099 35.357750 -12.906250
-16.382999 37.467651 -12.906250
-16.382999 37.467651 -11.968750
28.500000 -34.585449 6.906250
28.500000 -34.585449 11.343750
28.500000 34.585449 11.343750
28.500000 34.585449 6.906250
-14.250000 -34.585449 11.718750
-28.500000 -34.585449 11.718750
-28.500000 34.585449 11.718750
-14.250000 34.585449 11.718750
-14.250000 46.113949 11.718750
-14.250000 -46.113949 11.718750
-24.257120 45.341751 -11.968750
-21.375000 46.113949 -11.968750
-21.375000 46.113949 -12.906250
-24.257120 45.341751 -12.906250
-14.250000 -46.113949 -11.968750
-14.250000 -46.113949 12.906250
-28.500000 -46.113949 12.906250
-28.500000 -46.113949 -11.968750
-14.250000 -34.585449 12.295650
-28.500000 -34.585449 12.295650
-28.500000 -34.585449 11.718750
-14.250000 -34.585449 11.718750
28.500000 34.585449 6.906250
28.500000 34.585449 11.343750
28.500000 -34.585449 11.343750
28.500000 -34.585449 6.906250
-28.500000 -34.585449 -11.968750
-28.500000 -34.585449 11.343750
-14.250000 -34.585449 11.343750
-14.250000 -34.585449 -11.968750
28.500000 -34.585449 12.295650
14.250000 -34.585449 12.295650
14.250000 -34.585449 11.718750
28.500000 -34.585449 11.718750
19.883101 -45.917538 -11.968750
18.492901 -45.341686 -11.968750
18.492901 -45.341686 -12.906250
19.883101 -45.917538 -12.906250
-14.250000 -34.585449 -11.968750
-14.250000 -46.113949 -11.968750
-28.500000 -46.113949 -11.968750
-28.500000 -34.585449 -11.968750
17.299101 -36.273769 -11.968750
17.299101 -36.273769 -12.906250
16.382999 -37.467579 -12.906250
16.382999 -37.467579 -11.968750
28.500000 -34.585449 12.295650
28.500000 34.585449 12.295650
-28.500000 -34.585449 -11.968750
-28.500000 -34.585449 12.906250
-28.500000 -34.585449 11.343750
-28.500000 -34.585449 6.906250
-28.500000 -34.585449 6.906250
-28.500000 -34.585449 11.343750
-28.500000 -34.585449 -11.968750
-28.500000 -34.585449 12.906250
-28.500000 -46.113949 -11.968750
-28.500000 -46.113949 12.906250
-28.500000 -46.113949 12.906250
-28.500000 -46.113949 -11.968750
28.500000 34.585449 11.343750
28.500000 -34.585449 11.343750
-28.500000 34.585449 6.906250
-28.500000 34.585449 11.343750
-28.500000 34.585449 12.906250
-28.500000 46.113949 12.906250
-28.500000 46.113949 -11.968750
-28.500000 34.585449 -11.968750
19.883101 -34.781849 -11.968750
19.883101 -34.781849 -12.906250
25.450899 36.273750 -11.968750
25.450899 36.273750 -12.906250
-26.366980 43.231850 -12.906250
-26.366980 43.231850 -11.968750
-14.250000 -34.585449 12.295650
-14.250000 -34.585449 11.718750
-14.250000 -46.113949 11.718750
-14.250000 -46.113949 12.295650
-28.500000 34.585449 -11.968750
-28.500000 34.585449 12.906250
-14.250000 34.585449 12.906250
-14.250000 34.585449 -11.968750
-14.250000 46.113949 12.295650
14.250000 46.113949 12.295650
14.250000 46.113949 11.718750
-14.250000 46.113949 11.718750
-15.610800 40.349751 -12.906250
-15.610800 40.349751 -11.968750
-14.250000 46.113949 12.906250
-14.250000 34.585449 12.906250
-28.500000 34.585449 12.906250
-28.500000 46.113949 12.906250
14.250000 46.113949 -11.968750
14.250000 46.113949 11.343750
14.250000 34.585449 11.343750
14.250000 34.585449 -11.968750
-14.250000 34.585449 -11.968750
-14.250000 46.113949 -11.968750
-14.250000 46.113949 11.343750
-14.250000 34.585449 11.343750
-14.250000 46.113949 11.343750
-14.250000 46.113949 12.906250
-14.250000 34.585449 12.906250
-14.250000 34.585449 11.343750
-14.250000 46.113949 -11.968750
-14.250000 46.113949 6.906250
14.250000 46.113949 6.906250
14.250000 46.113949 -11.968750
28.500000 46.113949 -11.968750
28.500000 46.113949 12.906250
14.250000 46.113949 12.906250
14.250000 46.113949 11.343750
-14.250000 46.113949 11.343750
-14.250000 46.113949 12.906250
-28.500000 46.113949 12.906250
-28.500000 46.113949 -11.968750
-14.250000 46.113949 11.343750
-14.250000 46.113949 -11.968750
-14.250000 34.585449 -11.968750
-14.250000 34.585449 11.343750
-14.250000 46.113949 6.906250
-14.250000 46.113949 -11.968750
-28.500000 46.113949 -11.968750
-28.500000 46.113949 12.906250
-14.250000 46.113949 12.906250
-14.250000 46.113949 11.343750
14.250000 46.113949 11.343750
14.250000 46.113949 12.906250
28.500000 46.113949 12.906250
28.500000 46.113949 -11.968750
14.250000 46.113949 -11.968750
14.250000 46.113949 6.906250
28.500000 -46.113949 12.906250
14.250000 -46.113949 12.906250
14.250000 -46.113949 -11.968750
28.500000 -46.113949 -11.968750
14.250000 34.585449 -11.968750
28.500000 34.585449 -11.968750
28.500000 34.585449 12.906250
14.250000 34.585449 12.906250
14.250000 34.585449 12.295650
28.500000 34.585449 12.295650
28.500000 34.585449 11.718750
14.250000 34.585449 11.718750
14.250000 34.585449 -11.968750
14.250000 34.585449 12.906250
28.500000 34.585449 12.906250
28.500000 34.585449 -11.968750
28.500000 -34.585449 -11.968750
28.500000 -46.113949 -11.968750
14.250000 -46.113949 -11.968750
14.250000 -34.585449 -11.968750
14.250000 -46.113949 -11.968750
28.500000 -46.113949 -11.968750
28.500000 -34.585449 -11.968750
14.250000 -34.585449 -11.968750
28.500000 34.585449 -11.968750
28.500000 46.113949 -11.968750
28.500000 46.113949 12.906250
28.500000 34.585449 12.906250
28.500000 34.585449 -11.968750
28.500000 34.585449 12.906250
28.500000 46.113949 12.906250
28.500000 46.113949 -11.968750
28.500000 -34.585449 -11.968750
14.250000 -34.585449 -11.968750
14.250000 -34.585449 11.343750
28.500000 -34.585449 11.343750
14.250000 -34.585449 -11.968750
28.500000 -34.585449 -11.968750
28.500000 -34.585449 11.343750
14.250000 -34.585449 11.343750
14.250000 46.113949 12.906250
14.250000 46.113949 11.343750
14.250000 34.585449 11.343750
14.250000 34.585449 12.906250
28.500000 -34.585449 12.906250
28.500000 -46.113949 12.906250
14.250000 -46.113949 12.906250
14.250000 -34.585449 12.906250
15.610800 40.349751 -11.968750
16.382999 37.467651 -11.968750
18.492901 35.357750 -11.968750
21.375000 34.585449 -11.968750
24.257099 35.357750 -11.968750
26.367001 37.467651 -11.968750
27.139200 40.349751 -11.968750
26.367001 43.231850 -11.968750
24.257099 45.341751 -11.968750
21.375000 46.113949 -11.968750
18.492901 45.341751 -11.968750
16.382999 43.231850 -11.968750
28.500000 -46.113949 -11.968750
28.500000 -46.113949 12.906250
28.500000 -34.585449 12.906250
28.500000 -34.585449 -11.968750
-18.492901 45.341751 -11.968750
-18.492901 45.341751 -12.906250
28.500000 -34.585449 -11.968750
28.500000 -34.585449 12.906250
28.500000 -46.113949 12.906250
28.500000 -46.113949 -11.968750
14.250000 -46.113949 12.906250
14.250000 -46.113949 11.343750
14.250000 -34.585449 11.343750
14.250000 -34.585449 12.906250
14.250000 -34.585449 12.906250
14.250000 -34.585449 11.343750
14.250000 -46.113949 11.343750
14.250000 -46.113949 12.906250
14.250000 -34.585449 12.906250
14.250000 -46.113949 12.906250
28.500000 -46.113949 12.906250
28.500000 -34.585449 12.906250
-27.139250 40.349751 -12.906250
-27.139250 40.349751 -11.968750
-16.382999 43.231850 -11.968750
-16.382999 43.231850 -12.906250
14.250000 -34.585449 -11.968750
14.250000 -34.585449 11.343750
14.250000 -46.113949 11.343750
14.250000 -46.113949 -11.968750
14.250000 -46.113949 6.906250
-14.250000 -46.113949 6.906250
-14.250000 -46.113949 11.343750
14.250000 -46.113949 11.343750
15.610800 40.349751 -12.906250
16.382999 43.231850 -12.906250
18.492901 45.341751 -12.906250
21.375000 46.113949 -12.906250
24.257099 45.341751 -12.906250
26.367001 43.231850 -12.906250
27.139200 40.349751 -12.906250
26.367001 37.467651 -12.906250
24.257099 35.357750 -12.906250
21.375000 34.585449 -12.906250
18.492901 35.357750 -12.906250
16.382999 37.467651 -12.906250
14.250000 -46.113949 11.343750
-14.250000 -46.113949 11.343750
-14.250000 -46.113949 6.906250
14.250000 -46.113949 6.906250
-19.883101 -34.781849 -11.968750
-19.883101 -34.781849 -12.906250
-26.942829 38.857849 -12.906250
-26.942829 38.857849 -11.968750
-17.299101 -36.273769 -11.968750
-17.299101 -36.273769 -12.906250
14.250000 -34.585449 12.906250
28.500000 -34.585449 12.906250
28.500000 -34.585449 11.343750
14.250000 -34.585449 11.343750
14.250000 -34.585449 11.343750
28.500000 -34.585449 11.343750
28.500000 -34.585449 12.906250
14.250000 -34.585449 12.906250
-16.382999 -43.231831 -11.968750
-15.610800 -40.349701 -11.968750
-16.382999 -37.467579 -11.968750
-17.299101 -36.273769 -11.968750
-19.883101 -34.781849 -11.968750
-22.866899 -34.781849 -11.968750
-25.450939 -36.273769 -11.968750
-26.366980 -37.467579 -11.968750
-27.139250 -40.349701 -11.968750
-26.366980 -43.231831 -11.968750
-25.450939 -44.425640 -11.968750
-22.866899 -45.917538 -11.968750
-19.883101 -45.917538 -11.968750
-18.492901 -45.341686 -11.968750
22.866899 -34.781849 -11.968750
22.866899 -34.781849 -12.906250
-14.250000 -46.113949 12.906250
-14.250000 -46.113949 -11.968750
-28.500000 -46.113949 -11.968750
-28.500000 -46.113949 12.906250
-27.139250 -40.349701 -11.968750
-27.139250 -40.349701 -12.906250
-26.366980 -37.467579 -12.906250
-26.366980 -37.467579 -11.968750
-22.866899 -45.917538 -11.968750
-22.866899 -45.917538 -12.906250
-14.250000 -34.585449 11.343750
-28.500000 -34.585449 11.343750
-28.500000 -34.585449 -11.968750
-14.250000 -34.585449 -11.968750
15.610800 -40.349701 -12.906250
16.382999 -43.231831 -12.906250
16.382999 -43.231831 -11.968750
15.610800 -40.349701 -11.968750
-14.250000 -34.585449 12.906250
-14.250000 -46.113949 12.906250
-28.500000 -46.113949 12.906250
-28.500000 -34.585449 12.906250
22.866899 -45.917538 -11.968750
22.866899 -45.917538 -12.906250
-16.382999 -37.467579 -11.968750
-16.382999 -37.467579 -12.906250
-14.250000 -46.113949 11.343750
-14.250000 -46.113949 12.906250
-14.250000 -34.585449 12.906250
-14.250000 -34.585449 11.343750
-14.250000 -34.585449 11.343750
-14.250000 -34.585449 12.906250
-14.250000 -46.113949 12.906250
-14.250000 -46.113949 11.343750
-28.500000 -34.585449 -11.968750
-28.500000 -46.113949 -11.968750
-14.250000 -46.113949 -11.968750
-14.250000 -34.585449 -11.968750
25.450899 -36.273769 -11.968750
25.450899 -36.273769 -12.906250
26.367001 -37.467579 -12.906250
26.367001 -37.467579 -11.968750
-16.382999 -43.231831 -12.906250
-16.382999 -43.231831 -11.968750
-16.382999 -37.467579 -12.906250
-15.610800 -40.349701 -12.906250
-16.382999 -43.231831 -12.906250
-18.492901 -45.341686 -12.906250
-19.883101 -45.917538 -12.906250
-22.866899 -45.917538 -12.906250
-25.450939 -44.425640 -12.906250
-26.366980 -43.231831 -12.906250
-27.139250 -40.349701 -12.906250
-26.366980 -37.467579 -12.906250
-25.450939 -36.273769 -12.906250
-22.866899 -34.781849 -12.906250
-19.883101 -34.781849 -12.906250
-17.299101 -36.273769 -12.906250
-14.250000 -34.585449 12.295650
-14.250000 -46.113949 12.295650
-14.250000 46.113949 12.295650
-14.250000 34.585449 12.295650
-28.500000 34.585449 12.295650
-28.500000 -34.585449 12.295650
-28.500000 -34.585449 12.906250
-28.500000 -46.113949 12.906250
-14.250000 -46.113949 12.906250
-14.250000 -34.585449 12.906250
-15.610800 -40.349701 -12.906250
-15.610800 -40.349701 -11.968750
-28.500000 -34.585449 11.343750
-14.250000 -34.585449 11.343750
-14.250000 -34.585449 12.906250
-28.500000 -34.585449 12.906250
-28.500000 -34.585449 12.906250
-14.250000 -34.585449 12.906250
-14.250000 -34.585449 11.343750
-28.500000 -34.585449 11.343750
-28.500000 34.585449 6.906250
-28.500000 34.585449 -11.968750
-28.500000 46.113949 -11.968750
-28.500000 46.113949 12.906250
-28.500000 34.585449 12.906250
-28.500000 34.585449 11.343750
15.610800 40.349751 -11.968750
15.610800 40.349751 -12.906250
16.382999 43.231850 -12.906250
16.382999 43.231850 -11.968750
-27.139250 40.349751 -12.906250
-26.366980 43.231850 -12.906250
-24.257120 45.341751 -12.906250
-21.375000 46.113949 -12.906250
-18.492901 45.341751 -12.906250
-16.382999 43.231850 -12.906250
-15.610800 40.349751 -12.906250
-16.382999 37.467651 -12.906250
-18.492901 35.357750 -12.906250
-21.375000 34.585449 -12.906250
-24.257120 35.357750 -12.906250
-25.450939 36.273750 -12.906250
-26.942829 38.857849 -12.906250
-28.500000 34.585449 -11.968750
-14.250000 34.585449 -11.968750
-14.250000 34.585449 12.906250
-28.500000 34.585449 12.906250
-28.500000 46.113949 12.906250
-28.500000 34.585449 12.906250
-14.250000 34.585449 12.906250
-14.250000 46.113949 12.906250
-28.500000 46.113949 -11.968750
-28.500000 34.585449 -11.968750
-14.250000 34.585449 -11.968750
-14.250000 46.113949 -11.968750
-14.250000 -34.585449 11.343750
-14.250000 -34.585449 -11.968750
-14.250000 -46.113949 -11.968750
-14.250000 -46.113949 11.343750
3 0 1 2
3 0 2 3
4 4 5 6 7
3 8 9 10
3 9 11 10
4 12 13 14 15
3 16 17 18
3 16 18 19
4 20 21 22 23
3 24 25 26
3 25 27 26
4 28 29 3 2
4 30 31 32 33
4 34 35 36 37
3 38 39 40
3 38 40 41
4 42 43 44 45
4 46 47 48 49
3 50 51 52
3 50 52 53
4 54 55 56 57
4 58 59 60 61
4 62 63 64 65
4 66 67 68 69
8 1 0 70 71 72 73 74 75
14 76 77 78 79 80 81 82 83 84 85 86 87 88 89
4 90 91 92 93
8 94 95 96 97 98 10 11 99
8 17 16 100 101 102 103 104 105
4 106 107 108 109
4 110 111 41 40
4 112 113 114 115
4 57 56 116 117
13 118 119 120 121 122 123 124 125 126 127 128 129 130
4 131 132 19 18
4 133 134 135 136
4 137 138 139 140
4 141 142 143 144
4 145 146 147 148
4 149 150 151 152
4 153 154 155 156
4 157 158 159 160
14 161 162 163 164 165 166 167 168 169 170 171 172 173 174
4 175 176 177 178
4 179 180 181 182
4 183 184 185 186
8 187 26 27 188 189 190 191 192
4 9 8 193 194
4 195 196 197 198
4 199 200 201 202
4 203 204 205 206
4 207 208 209 210
4 211 212 213 214
4 156 155 215 216
4 217 218 219 220
8 221 222 223 224 225 39 38 226
4 227 228 229 230
4 231 232 233 234
4 235 236 237 238
4 239 240 241 242
4 243 244 245 246
4 247 248 249 250
4 251 252 253 254
4 255 256 257 258
4 259 260 261 262
4 263 264 53 52
4 58 61 213 212
3 265 266 267
3 265 267 268
3 269 270 271
3 270 272 271
4 266 265 273 274
4 275 276 271 272
4 25 24 277 278
8 279 268 267 280 281 282 283 284
4 285 286 260 259
4 287 288 49 48
4 227 230 289 290
4 291 292 293 294
4 295 296 297 298
4 299 300 301 302
4 303 304 216 215
4 305 306 307 308
4 309 310 311 312
4 313 314 315 316
4 317 318 319 320
12 321 322 323 324 325 326 327 328 329 330 331 332
4 333 334 335 336
12 337 338 339 340 341 342 343 344 345 346 347 348
4 349 350 351 352
4 353 354 355 356
4 357 358 359 360
4 361 362 363 364
4 365 366 367 368
4 369 370 371 372
4 373 374 375 376
4 377 378 379 380
4 381 382 383 384
4 385 386 387 388
4 389 390 391 392
4 393 394 395 396
12 397 398 399 400 401 402 403 404 405 406 407 408
4 409 410 411 412
4 92 91 47 46
4 413 414 229 228
4 415 416 417 418
4 287 211 214 288
4 4 90 93 5
4 419 420 421 422
4 423 424 425 426
4 427 428 429 430
4 290 289 431 432
4 413 433 434 414
4 435 436 437 438
4 439 440 441 442
12 443 444 445 446 447 448 449 450 451 452 453 454
4 455 456 457 458
4 35 459 460 36
4 461 143 142 462
4 463 464 460 459
4 465 466 467 468
4 469 470 471 472
14 473 474 475 476 477 478 479 480 481 482 483 484 485 486
4 285 487 488 286
4 489 490 491 492
4 493 494 134 133
4 34 37 495 496
4 497 136 135 498
4 499 500 501 502
4 495 494 493 496
4 503 504 505 506
4 507 508 509 510
4 141 144 154 153
4 54 511 512 55
4 464 463 513 514
4 515 516 517 518
4 519 520 521 522
4 523 524 525 526
4 487 527 528 488
4 117 116 529 530
4 137 140 531 532
14 533 534 535 536 537 538 539 540 541 542 543 544 545 546
8 547 548 51 50 549 550 551 552
4 553 554 555 556
4 532 531 557 558
4 559 560 561 562
4 563 564 565 566
4 558 557 514 513
4 528 527 530 529
4 511 251 254 512
8 270 269 567 568 569 570 571 572
4 432 431 461 462
4 252 505 504 253
4 304 303 434 433
4 261 503 506 262
4 497 498 139 138
4 573 574 60 59
4 7 6 575 576
13 577 578 579 580 581 582 583 584 585 586 587 588 589
4 590 591 592 593
4 594 595 596 597
4 598 599 600 601
4 602 603 604 605
4 575 574 573 576
