ply
format ascii 1.0
comment Created by Blender 2.82 (sub 7) - www.blender.org, source file: ''
element vertex 1100
property float x
property float y
property float z
element face 292
property list uchar uint vertex_indices
end_header
0.020200 26.377951 -8.083910
0.080500 26.377951 -8.386970
0.179800 26.377951 -8.679560
0.179800 24.606350 -8.679560
0.080500 24.606350 -8.386970
0.020200 24.606350 -8.083910
0.000000 24.606350 10.728350
0.020200 24.606350 11.036650
0.020200 26.377951 11.036650
0.000000 26.377951 10.728350
-1.458200 24.606350 -9.957980
-1.750800 24.606350 -10.057300
-2.053900 24.606350 -10.117580
-2.362200 24.606350 -10.137790
-14.960610 24.606350 -10.137790
-14.960610 26.377951 -10.137790
-2.362200 26.377951 -10.137790
-2.053900 26.377951 -10.117580
-1.750800 26.377951 -10.057300
-1.458200 26.377951 -9.957980
1.579000 -26.377951 12.619150
1.986700 -25.688950 11.634950
11.369600 -25.704050 11.735950
11.507800 -25.738050 11.788350
11.720700 -25.853849 11.967050
11.783200 -25.929050 12.083050
11.811000 -26.377951 12.775550
1.583700 25.295250 -8.372960
1.583700 25.586849 -8.372960
1.512400 25.586849 -8.266230
1.512400 25.295250 -8.266230
0.471400 -24.606251 11.511550
1.455600 -25.397449 11.103850
1.455600 -25.397449 -8.151110
0.471400 -24.606251 -8.558770
-1.181100 24.606350 -9.821310
-1.181100 26.377951 -9.821310
-0.924200 26.377951 -9.649650
-0.488100 26.377951 -9.213600
-0.488100 24.606350 -9.213600
-0.924200 24.606350 -9.649650
-14.960610 -26.377951 -9.822830
-1.832500 -26.377951 -9.752420
-2.108200 -25.586750 -8.723440
-14.520990 -25.606850 -8.786840
-14.829300 -25.741449 -8.967680
-14.933780 -25.864651 -9.133220
-13.989850 39.414249 14.865550
13.989900 39.414249 14.865550
13.983900 39.306648 14.603250
-13.983820 39.306648 14.603250
-13.983820 -39.306572 14.603250
-15.063480 -39.048779 14.603250
-15.009240 -38.926674 14.468550
-13.976360 -39.173210 14.468550
16.120399 -38.059120 14.468550
15.009300 -38.926674 14.468550
-15.009240 -38.926674 14.468550
-16.321690 -37.765862 14.468550
-16.692558 -36.770828 14.468550
-16.485722 37.450249 14.468550
-15.618170 38.561352 14.468550
-14.329880 39.133549 14.468550
14.329900 39.133549 14.468550
15.618200 38.561352 14.468550
16.485800 37.450249 14.468550
16.692600 -36.770828 14.468550
-1.512400 25.397449 11.218950
-1.512400 25.688950 11.218950
-1.455600 25.688950 11.103850
-1.455600 25.397449 11.103850
16.225700 38.141350 14.603250
16.120399 38.059151 14.468550
15.009300 38.926750 14.468550
13.976400 39.173248 14.468550
13.983900 39.306648 14.603250
15.063500 39.048851 14.603250
-1.116300 -26.377951 -9.399240
-0.471400 -26.377951 -8.558770
-1.455600 -25.586750 -8.151110
-1.668300 -25.586750 -8.469460
0.915100 26.377951 -9.222730
0.471400 26.377951 -8.558770
1.455600 25.586849 -8.151110
1.668300 25.586849 -8.469460
2.108200 25.586849 -8.723440
1.832500 26.377951 -9.752420
14.872200 25.780050 -9.019440
14.870300 25.130350 -9.014310
14.942700 25.033649 -9.163460
14.942800 25.887251 -9.163450
-15.107260 39.147350 15.055750
-15.063480 39.048851 15.318050
-13.983820 39.306648 15.318050
-13.989850 39.414249 15.055750
2.108200 25.295250 11.676250
2.108200 25.586849 11.676250
11.371400 25.606951 11.739650
11.369600 25.280149 11.735950
0.315000 -24.606251 9.547250
0.315000 24.606350 9.547250
-0.314900 24.606350 9.547250
-0.314900 -24.606251 9.547250
-0.020200 26.377951 -8.083910
-0.020200 24.606350 -8.083910
-0.314900 24.606350 9.547250
0.315000 24.606350 9.547250
0.315000 24.606350 6.003950
-0.314900 24.606350 6.003950
1.986700 -25.397449 11.634950
1.579000 -24.606251 12.619150
11.811000 -24.606251 12.775550
11.757600 -25.162951 12.027650
11.629600 -25.277950 11.873050
11.297000 -25.390051 11.722550
-1.458200 -26.377951 -9.957980
-1.750800 -26.377951 -10.057300
-2.053900 -26.377951 -10.117580
-2.362200 -26.377951 -10.137790
-14.960610 -26.377951 -10.137790
-14.960610 -24.606251 -10.137790
-2.362200 -24.606251 -10.137790
-2.053900 -24.606251 -10.117580
-1.750800 -24.606251 -10.057300
-1.458200 -24.606251 -9.957980
16.310699 -38.207729 15.055750
16.225700 -38.141350 15.318050
15.393700 -38.877205 15.318050
15.419200 -38.919651 15.236650
15.449200 -38.969692 15.055750
-16.732262 -36.417309 15.452750
-16.865622 -36.424770 15.318050
-16.436255 -37.834599 15.318050
-16.321690 -37.765862 15.452750
-2.108200 -25.295250 11.676250
-2.108200 -25.586750 11.676250
-11.371390 -25.606850 11.739650
-11.369550 -25.280149 11.735950
-16.485722 37.450249 14.468550
-16.732262 36.417351 14.468550
-16.865622 36.424850 14.603250
-16.225632 38.141350 14.603250
-15.700400 38.666649 14.603250
-15.618170 38.561352 14.468550
13.989900 39.414249 15.055750
-13.989850 39.414249 15.055750
-13.983820 39.306648 15.318050
13.983900 39.306648 15.318050
-0.179800 -24.606251 11.632350
-0.179800 -26.377951 11.632350
-0.020200 -26.377951 -8.083910
-0.020200 -24.606251 -8.083910
-11.629560 25.278049 11.873050
-11.784170 25.119551 12.085950
-11.783200 25.929050 12.083050
-11.627080 25.789049 11.866950
14.519200 -25.704050 -8.783170
2.108200 -25.688950 -8.723440
1.832500 -26.377951 -9.752420
14.960700 -26.377951 -9.822830
14.905800 -25.890450 -9.070720
14.719900 -25.761551 -8.871880
-15.449150 38.969749 14.865550
-15.107260 39.147350 14.865550
-15.063480 39.048851 14.603250
-16.310650 38.207748 14.865550
-16.478701 -37.860069 14.684650
-16.653067 -37.524521 14.684650
-16.607828 -37.504429 14.603250
-16.436255 -37.834599 14.603250
-15.700400 -38.666580 14.603250
-15.766780 -38.751598 14.865550
-16.055387 -38.496338 14.865550
-16.528744 -37.890099 14.865550
14.446600 25.594250 -8.769770
14.660000 25.647449 -8.841340
14.907200 25.821251 -9.074880
14.960700 26.377951 -9.822830
-1.116300 24.606350 -9.399240
-0.471400 24.606350 -8.558770
-1.455600 25.397449 -8.151110
-1.668300 25.397449 -8.469460
-2.108200 25.397449 -8.723440
-1.832500 24.606350 -9.752420
-0.333100 24.606350 10.995450
-0.738500 24.606350 11.974250
-1.583700 25.397449 11.325750
-1.389300 25.397449 10.856450
15.753200 38.734249 14.772750
15.766800 38.751652 14.865550
16.055401 38.496349 14.865550
16.310699 38.207748 14.865550
15.098300 39.127151 14.772750
-14.942730 -25.887150 -9.163450
-14.942700 -25.033649 -9.163460
-14.951190 -25.015051 -9.192140
-14.951680 -25.909651 -9.193680
1.116400 26.377951 12.352050
1.579000 26.377951 12.619150
1.986700 25.586849 11.634950
1.668300 25.586849 11.422250
1.455600 25.586849 11.103850
0.471400 26.377951 11.511550
-1.455600 -25.586750 11.103850
-1.455600 -25.295250 11.103850
-1.414300 -25.295250 10.982350
-1.414300 -25.586750 10.982350
16.848101 -37.189339 14.960650
16.841000 -37.187180 15.055750
16.973301 -36.430801 15.055750
16.915100 -36.427540 15.236650
16.528799 -37.890099 15.055750
16.535200 -37.893929 14.960650
14.960700 26.377951 -10.137790
14.960700 26.377951 -11.712590
-14.960610 26.377951 -11.712590
-14.960610 26.377951 -10.137790
-14.960610 24.606350 -10.137790
-14.960610 26.377951 -10.137790
-14.960610 26.377951 -11.712590
-14.960610 24.606350 -11.712590
11.811000 -24.606251 14.468550
11.811000 -24.606251 13.090550
-11.811000 -24.606251 13.090550
-11.811000 -24.606251 14.468550
14.960700 24.606350 -11.712590
-14.960610 24.606350 -11.712590
-14.960610 26.377951 -11.712590
14.960700 26.377951 -11.712590
16.706400 37.548248 15.055750
16.528799 37.890148 15.055750
16.310699 38.207748 15.055750
16.225700 38.141350 15.318050
16.915100 36.427551 15.236650
16.973301 36.430851 15.055750
16.841000 37.187248 15.055750
-11.784170 -25.864651 12.085950
-11.811000 -26.377951 12.775550
-11.811000 -26.377951 13.090550
-11.811000 -24.606251 13.090550
-11.811000 -24.606251 12.775550
-11.783200 -25.055149 12.083050
1.512400 25.586849 11.218950
1.512400 25.295250 11.218950
1.455600 25.295250 11.103850
1.455600 25.586849 11.103850
-0.179800 26.377951 11.632350
-0.179800 24.606350 11.632350
-13.976360 -39.173210 14.468550
13.976400 -39.173210 14.468550
13.988700 -39.392162 14.772750
-13.988610 -39.392162 14.772750
2.362200 26.377951 -10.137790
14.960700 26.377951 -10.137790
14.960700 24.606350 -10.137790
2.362200 24.606350 -10.137790
2.053900 24.606350 -10.117580
1.750800 24.606350 -10.057300
1.750800 26.377951 -10.057300
2.053900 26.377951 -10.117580
-16.865622 -36.424770 14.603250
-16.732262 -36.417309 14.468550
-16.321690 -37.765862 14.468550
-14.872160 -25.779949 -9.019440
-14.659920 -25.647449 -8.841340
-14.657350 -25.246149 -8.835620
-14.870300 -25.130350 -9.014310
-1.389300 25.688950 10.856450
-1.389300 25.397449 10.856450
-1.414300 25.397449 10.982350
-1.414300 25.688950 10.982350
-1.389300 25.688950 -7.903670
-1.389300 25.397449 -7.903670
-1.377900 25.397449 -7.730470
-1.377900 25.688950 -7.730470
-14.746230 -39.281921 14.865550
-14.739790 -39.260765 14.772750
-13.988610 -39.392162 14.772750
-13.989850 -39.414234 15.055750
-14.746230 -39.281921 15.055750
1.583700 -25.688950 11.325750
1.583700 -25.397449 11.325750
1.668300 -25.397449 11.422250
1.668300 -25.688950 11.422250
-13.989850 39.414249 14.865550
-13.983820 39.306648 14.603250
-14.960610 -24.606251 -9.822830
-1.579000 -24.606251 -9.666370
-0.738500 -24.606251 -9.021460
-0.333100 -24.606251 -8.042720
-0.333100 -24.606251 10.995450
-0.738500 -24.606251 11.974250
-1.579000 -24.606251 12.619150
-11.811000 -24.606251 12.775550
-11.811000 -24.606251 13.090550
-1.458200 -24.606251 12.910750
-0.488100 -24.606251 12.166350
-0.179800 -24.606251 11.632350
-0.020200 -24.606251 -8.083910
-0.488100 -24.606251 -9.213600
-1.458200 -24.606251 -9.957980
-14.960610 -24.606251 -10.137790
14.739800 39.260750 14.772750
13.989900 39.414249 14.865550
14.746300 39.281952 14.865550
-11.811000 24.606350 12.775550
-11.811000 24.606350 13.090550
-11.811000 26.377951 13.090550
-11.811000 26.377951 12.775550
-16.973284 36.430851 14.865550
-16.973284 36.430851 15.055750
-16.528744 37.890148 15.055750
-16.528744 37.890148 14.865550
-14.370060 -25.586750 -8.759840
-14.370060 -25.295250 -8.759840
-1.116300 -24.606251 -9.399240
-1.832500 -24.606251 -9.752420
-2.108200 -25.295250 -8.723440
-1.668300 -25.295250 -8.469460
-1.455600 -25.295250 -8.151110
-0.471400 -24.606251 -8.558770
-1.832500 -26.377951 12.705150
-2.108200 -25.586750 11.676250
-1.583700 -25.586750 11.325750
-0.738500 -26.377951 11.974250
-15.107260 -39.147354 15.055750
-15.083570 -39.094017 15.236650
-16.014118 -38.455067 15.236650
-16.055387 -38.496338 15.055750
1.414400 -25.688950 -8.029560
1.414400 -25.397449 -8.029560
1.389300 -25.397449 -7.903670
1.389300 -25.688950 -7.903670
-15.700400 38.666649 15.318050
-15.618170 38.561352 15.452750
-13.976360 39.173248 15.452750
-15.009240 -38.926674 15.452750
-13.986590 -39.355980 15.236650
-13.976360 -39.173210 15.452750
13.976400 39.173248 15.452750
-13.976360 39.173248 15.452750
-13.983820 -39.306572 15.318050
-13.989850 -39.414234 15.055750
13.989900 -39.414234 15.055750
13.983900 -39.306572 15.318050
14.370100 25.586849 -8.759840
2.407300 25.586849 -8.759840
2.234100 25.586849 -8.748480
2.108200 25.586849 -8.723440
2.108200 25.295250 -8.723440
2.234100 25.295250 -8.748480
2.407300 25.295250 -8.759840
14.370100 25.295250 -8.759840
-11.811000 -26.377951 13.090550
-1.458200 -26.377951 12.910750
-1.458200 -24.606251 12.910750
-11.811000 -24.606251 13.090550
-1.583700 -25.295250 11.325750
-1.583700 -25.586750 11.325750
-1.668300 -25.586750 11.422250
-1.668300 -25.295250 11.422250
13.989900 -39.414234 14.865550
15.449200 -38.969692 14.865550
13.986600 -39.355980 15.236650
16.951300 -36.429562 14.772750
16.293301 -38.194118 14.772750
16.225700 -38.141350 14.603250
16.120399 -38.059120 14.468550
16.732300 -36.417309 14.468550
11.811000 26.377951 14.468550
11.811000 26.377951 13.090550
-11.811000 26.377951 13.090550
-11.811000 26.377951 14.468550
11.811000 24.606350 13.090550
-11.811000 24.606350 13.090550
-11.811000 26.377951 13.090550
11.811000 26.377951 13.090550
14.960700 26.377951 -11.712590
14.960700 26.377951 -15.452750
-14.960610 26.377951 -15.452750
-14.960610 26.377951 -11.712590
-14.960610 24.606350 -11.712590
-14.960610 26.377951 -11.712590
-14.960610 26.377951 -15.452750
-14.960610 24.606350 -15.452750
14.960700 24.606350 -15.452750
-14.960610 24.606350 -15.452750
-14.960610 26.377951 -15.452750
14.960700 26.377951 -15.452750
14.960700 -24.606251 -10.137790
14.960700 -24.606251 -11.712590
-14.960610 -24.606251 -11.712590
-14.960610 -24.606251 -10.137790
14.960700 -24.606251 -10.137790
14.960700 -26.377951 -10.137790
14.960700 -26.377951 -11.712590
14.960700 -24.606251 -11.712590
-14.960610 -26.377951 -10.137790
-14.960610 -24.606251 -10.137790
-14.960610 -24.606251 -11.712590
-14.960610 -26.377951 -11.712590
-14.960610 -26.377951 -11.712590
-14.960610 -24.606251 -11.712590
-14.960610 -24.606251 -15.452750
-14.960610 -26.377951 -15.452750
11.784200 -25.119551 12.085950
11.811000 -24.606251 12.775550
11.811000 -24.606251 13.090550
11.811000 -26.377951 13.090550
11.811000 -26.377951 12.775550
11.783200 -25.929050 12.083050
-14.590140 -25.265450 -8.805900
-14.960610 -24.606251 -9.822830
-14.932810 -25.055149 -9.130280
-14.827090 -25.164351 -8.961880
14.960700 -24.606251 -9.822830
14.960700 -25.028650 -9.255400
14.960700 -26.010151 -9.255400
14.960700 -26.377951 -9.822830
14.960700 -26.377951 -10.137790
14.960700 -24.606251 -10.137790
14.872200 -25.204250 -9.019440
14.870300 -25.853849 -9.014310
14.942700 -25.950550 -9.163460
14.942800 -25.097050 -9.163450
16.310699 -38.207729 14.865550
15.419200 -38.919651 14.684650
15.393700 -38.877205 14.603250
-16.706406 -37.548210 15.055750
-16.973284 -36.430801 15.055750
-16.973284 -36.430801 14.865550
-16.706406 -37.548210 14.865550
1.583700 25.586849 11.325750
1.583700 25.295250 11.325750
16.841000 37.187248 14.865550
16.951300 36.429550 14.772750
16.819901 37.180752 14.772750
-0.333100 24.606350 -8.042720
-0.738500 24.606350 -9.021460
-1.579000 24.606350 -9.666370
-14.960610 24.606350 -9.822830
-14.960610 24.606350 -10.137790
-1.458200 24.606350 -9.957980
-0.488100 24.606350 -9.213600
-0.020200 24.606350 -8.083910
-0.179800 24.606350 11.632350
-0.488100 24.606350 12.166350
-1.458200 24.606350 12.910750
-11.811000 24.606350 13.090550
-11.811000 24.606350 12.775550
-1.579000 24.606350 12.619150
-0.738500 24.606350 11.974250
-0.333100 24.606350 10.995450
15.098300 39.127151 15.148450
15.063500 39.048851 15.318050
16.055401 38.496349 15.055750
14.746300 39.281952 15.055750
14.739800 39.260750 15.148450
14.960700 24.606350 -9.822830
14.905800 25.093750 -9.070720
14.719900 25.222651 -8.871880
14.445500 25.290150 -8.767740
2.108200 25.295250 -8.723440
1.832500 24.606350 -9.752420
0.471400 -26.377951 11.511550
1.455600 -25.688950 11.103850
1.668300 -25.688950 11.422250
1.116400 -26.377951 12.352050
-16.732262 36.417351 14.468550
-16.732262 -36.417309 14.468550
-16.951212 -36.429562 14.772750
-16.951212 36.429550 14.772750
11.629600 -25.277950 11.873050
11.627100 -25.788950 11.866950
14.951700 -25.074551 -9.193680
14.960700 -24.606251 -9.822830
1.832500 -24.606251 -9.752420
2.108200 -25.397449 -8.723440
14.446600 -25.390051 -8.769770
14.722500 -25.309450 -8.878010
14.872200 -25.204250 -9.019440
0.315000 -24.606251 9.547250
-0.314900 -24.606251 9.547250
-0.314900 -24.606251 6.003950
0.315000 -24.606251 6.003950
-14.872160 25.204250 -9.019440
-14.870300 25.853951 -9.014310
-14.942700 25.950649 -9.163460
-14.942730 25.097050 -9.163450
14.942800 -25.097050 -9.163450
14.942700 -25.950550 -9.163460
14.951200 -25.969151 -9.192140
14.951700 -25.074551 -9.193680
11.811000 26.377951 12.775550
11.757600 25.821251 12.027650
11.629600 25.706249 11.873050
11.297000 25.594250 11.722550
13.989900 39.414249 15.055750
-16.865622 36.424850 15.318050
-16.225632 38.141350 15.318050
-16.310650 38.207748 15.055750
-14.370060 -25.586750 -8.759840
-2.407300 -25.586750 -8.759840
-2.234100 -25.586750 -8.748480
-2.108200 -25.586750 -8.723440
-2.108200 -25.295250 -8.723440
-2.234100 -25.295250 -8.748480
-2.407300 -25.295250 -8.759840
-14.370060 -25.295250 -8.759840
16.706400 37.548248 14.865550
16.528799 37.890148 14.865550
16.951300 36.429550 14.772750
16.951300 36.429550 15.148450
16.951300 -36.429562 15.148450
16.951300 -36.429562 14.772750
1.512400 -25.688950 -8.266230
1.512400 -25.397449 -8.266230
1.455600 -25.397449 -8.151110
1.455600 -25.688950 -8.151110
-1.512400 25.397449 -8.266230
-1.512400 25.688950 -8.266230
-1.583700 25.688950 -8.372960
-1.583700 25.397449 -8.372960
-1.377900 25.688950 10.683250
-1.377900 25.397449 10.683250
1.378000 -25.397449 -7.730470
1.378000 -25.688950 -7.730470
1.378000 -25.397449 10.683250
1.378000 -25.688950 10.683250
1.389300 -25.397449 10.856450
1.389300 -25.688950 10.856450
1.414400 -25.397449 10.982350
1.414400 -25.688950 10.982350
1.455600 -25.397449 11.103850
1.455600 -25.688950 11.103850
1.512400 -25.688950 11.218950
1.512400 -25.397449 11.218950
0.315000 -24.606251 6.003950
0.315000 24.606350 6.003950
0.315000 24.606350 9.547250
0.315000 -24.606251 9.547250
-16.973284 -36.430801 15.055750
-16.973284 36.430851 15.055750
14.660000 -25.336750 -8.841340
14.657400 -25.738050 -8.835620
-0.333100 -26.377951 10.995450
-1.389300 -25.586750 10.856450
16.732300 -36.417309 14.468550
16.732300 36.417351 14.468550
-0.314900 24.606350 6.003950
0.315000 24.606350 6.003950
0.315000 -24.606251 6.003950
-0.314900 -24.606251 6.003950
-14.960610 -24.606251 -9.822830
-14.960610 -24.606251 -10.137790
-14.960610 -26.377951 -10.137790
-14.960610 -26.377951 -9.822830
-14.960610 -25.955650 -9.255400
-14.960610 -24.974051 -9.255400
16.865700 36.424850 14.603250
-0.488100 -26.377951 -9.213600
-0.020200 -26.377951 -8.083910
-0.179800 -26.377951 11.632350
-0.488100 -26.377951 12.166350
-1.458200 -26.377951 12.910750
-11.811000 -26.377951 13.090550
-11.811000 -26.377951 12.775550
-1.579000 -26.377951 12.619150
-0.738500 -26.377951 11.974250
-0.333100 -26.377951 10.995450
-0.333100 -26.377951 -8.042720
-0.738500 -26.377951 -9.021460
-1.579000 -26.377951 -9.666370
-14.960610 -26.377951 -9.822830
-14.960610 -26.377951 -10.137790
-1.458200 -26.377951 -9.957980
-16.865622 -36.424770 15.318050
-16.865622 36.424850 15.318050
-1.455600 25.688950 -8.151110
-1.455600 25.397449 -8.151110
-1.414300 25.397449 -8.029560
-1.414300 25.688950 -8.029560
-0.488100 -26.377951 -9.213600
-0.488100 -24.606251 -9.213600
-16.732262 36.417351 15.452750
-16.485722 37.450249 15.452750
1.458300 -24.606251 12.910750
0.316500 -24.606251 11.909450
0.316500 -26.377951 11.909450
1.458300 -26.377951 12.910750
1.579000 24.606350 12.619150
1.986700 25.295250 11.634950
11.440600 25.265450 11.758650
11.677500 25.164351 11.914650
11.801600 25.015150 12.144950
11.811000 24.606350 12.775550
-11.629560 -25.706249 11.873050
-11.627080 -25.195250 11.866950
14.729300 -39.226089 14.684650
14.714900 -39.178734 14.603250
13.983900 -39.306572 14.603250
13.976400 -39.173210 14.468550
15.009300 -38.926674 14.468550
-15.449150 38.969749 15.055750
-1.579000 26.377951 12.619150
-0.738500 26.377951 11.974250
-1.583700 25.688950 11.325750
-2.108200 25.688950 11.676250
-11.369550 25.704149 11.735950
-11.507750 25.738150 11.788350
-11.756110 25.890450 12.023450
-11.811000 26.377951 12.775550
0.691900 -24.606251 -9.445920
0.924200 -24.606251 -9.649650
1.181100 -24.606251 -9.821310
1.458300 -24.606251 -9.957980
1.750800 -24.606251 -10.057300
1.750800 -26.377951 -10.057300
1.458300 -26.377951 -9.957980
1.181100 -26.377951 -9.821310
0.924200 -26.377951 -9.649650
0.691900 -26.377951 -9.445920
1.116400 -24.606251 12.352050
1.668300 -25.397449 11.422250
-11.371390 25.377350 11.739650
-11.369550 25.704149 11.735950
-14.659920 25.336849 -8.841340
-14.657350 25.738150 -8.835620
-14.370060 25.397449 -8.759840
-14.370060 25.688950 -8.759840
16.732300 36.417351 14.468550
-14.942730 -25.887150 -9.163450
-14.942700 -25.033649 -9.163460
-14.951190 -25.015051 -9.192140
-14.951680 -25.909651 -9.193680
-14.951680 25.074551 -9.193680
-14.951190 25.969151 -9.192140
-14.960610 26.010151 -9.255400
-14.960610 25.028650 -9.255400
1.986700 25.295250 11.634950
1.871600 25.295250 11.578150
1.764900 25.295250 11.506850
1.668300 25.295250 11.422250
1.668300 25.586849 11.422250
1.764900 25.586849 11.506850
1.871600 25.586849 11.578150
1.986700 25.586849 11.634950
0.080500 26.377951 11.339750
0.080500 24.606350 11.339750
0.179800 24.606350 11.632350
0.316500 24.606350 11.909450
0.316500 26.377951 11.909450
0.179800 26.377951 11.632350
-16.264648 -38.171810 15.236650
-16.225632 -38.141350 15.318050
-1.455600 -25.586750 -8.151110
-1.455600 -25.295250 -8.151110
-1.512400 -25.295250 -8.266230
-1.512400 -25.586750 -8.266230
-1.583700 -25.295250 -8.372960
-1.583700 -25.586750 -8.372960
-1.414300 -25.586750 -8.029560
-1.414300 -25.295250 -8.029560
-13.976360 -39.173210 15.452750
13.976400 -39.173210 15.452750
-1.389300 -25.586750 -7.903670
-1.389300 -25.295250 -7.903670
-1.377900 -25.586750 -7.730470
-1.377900 -25.295250 -7.730470
-1.377900 -25.586750 10.683250
-1.377900 -25.295250 10.683250
-11.802070 25.074551 12.146450
-11.629560 25.278049 11.873050
-11.296910 25.390051 11.722550
-2.108200 25.397449 11.676250
-1.832500 24.606350 12.705150
-11.811000 24.606350 12.775550
-1.389300 -25.586750 10.856450
-1.389300 -25.295250 10.856450
-1.512400 -25.586750 11.218950
-1.512400 -25.295250 11.218950
0.924200 26.377951 -9.649650
1.181100 26.377951 -9.821310
1.458300 26.377951 -9.957980
1.458300 24.606350 -9.957980
1.181100 24.606350 -9.821310
0.924200 24.606350 -9.649650
0.691900 24.606350 -9.445920
0.691900 26.377951 -9.445920
-1.181100 -26.377951 -9.821310
-1.181100 -24.606251 -9.821310
-0.924200 -24.606251 -9.649650
-0.924200 -26.377951 -9.649650
13.976400 -39.173210 15.452750
16.120399 -38.059120 15.452750
15.009300 -38.926674 15.452750
14.960700 24.606350 -11.712590
14.960700 24.606350 -10.137790
-14.960610 24.606350 -10.137790
-14.960610 24.606350 -11.712590
11.811000 26.377951 14.468550
11.811000 24.606350 14.468550
11.811000 24.606350 13.090550
11.811000 26.377951 13.090550
-14.960610 24.606350 -10.137790
14.960700 24.606350 -10.137790
14.960700 26.377951 -10.137790
-14.960610 26.377951 -10.137790
11.811000 -26.377951 13.090550
-11.811000 -26.377951 13.090550
-11.811000 -24.606251 13.090550
11.811000 -24.606251 13.090550
11.811000 24.606350 13.090550
11.811000 24.606350 14.468550
-11.811000 24.606350 14.468550
-11.811000 24.606350 13.090550
-14.960610 -26.377951 -10.137790
14.960700 -26.377951 -10.137790
14.960700 -24.606251 -10.137790
-14.960610 -24.606251 -10.137790
14.960700 -26.377951 -11.712590
14.960700 -26.377951 -10.137790
-14.960610 -26.377951 -10.137790
-14.960610 -26.377951 -11.712590
-11.811000 24.606350 14.468550
11.811000 24.606350 14.468550
11.811000 26.377951 14.468550
-11.811000 26.377951 14.468550
-11.811000 24.606350 14.468550
-11.811000 26.377951 14.468550
-11.811000 26.377951 13.090550
-11.811000 24.606350 13.090550
14.960700 26.377951 -10.137790
14.960700 24.606350 -10.137790
14.960700 24.606350 -11.712590
14.960700 26.377951 -11.712590
14.960700 -26.377951 -11.712590
-14.960610 -26.377951 -11.712590
-14.960610 -24.606251 -11.712590
14.960700 -24.606251 -11.712590
14.960700 26.377951 -11.712590
14.960700 24.606350 -11.712590
14.960700 24.606350 -15.452750
14.960700 26.377951 -15.452750
-11.811000 -26.377951 14.468550
11.811000 -26.377951 14.468550
11.811000 -24.606251 14.468550
-11.811000 -24.606251 14.468550
-11.811000 -26.377951 14.468550
-11.811000 -24.606251 14.468550
-11.811000 -24.606251 13.090550
-11.811000 -26.377951 13.090550
14.960700 24.606350 -15.452750
14.960700 24.606350 -11.712590
-14.960610 24.606350 -11.712590
-14.960610 24.606350 -15.452750
-14.960610 24.606350 -11.712590
14.960700 24.606350 -11.712590
14.960700 26.377951 -11.712590
-14.960610 26.377951 -11.712590
11.811000 -24.606251 14.468550
11.811000 -26.377951 14.468550
11.811000 -26.377951 13.090550
11.811000 -24.606251 13.090550
11.811000 -26.377951 13.090550
11.811000 -26.377951 14.468550
-11.811000 -26.377951 14.468550
-11.811000 -26.377951 13.090550
14.960700 -24.606251 -11.712590
14.960700 -24.606251 -15.452750
-14.960610 -24.606251 -15.452750
-14.960610 -24.606251 -11.712590
14.960700 -24.606251 -11.712590
14.960700 -26.377951 -11.712590
14.960700 -26.377951 -15.452750
14.960700 -24.606251 -15.452750
-14.960610 -26.377951 -11.712590
14.960700 -26.377951 -11.712590
14.960700 -24.606251 -11.712590
-14.960610 -24.606251 -11.712590
2.362200 -24.606251 -10.137790
14.960700 -24.606251 -10.137790
14.960700 -26.377951 -10.137790
2.362200 -26.377951 -10.137790
2.053900 -26.377951 -10.117580
2.053900 -24.606251 -10.117580
14.960700 24.606350 -10.137790
14.960700 24.606350 -9.822830
1.832500 24.606350 -9.752420
0.915100 24.606350 -9.222730
0.471400 24.606350 -8.558770
0.471400 24.606350 11.511550
1.116400 24.606350 12.352050
1.579000 24.606350 12.619150
11.811000 24.606350 12.775550
11.811000 24.606350 13.090550
1.458300 24.606350 12.910750
0.316500 24.606350 11.909450
0.020200 24.606350 11.036650
0.179800 24.606350 -8.679560
0.691900 24.606350 -9.445920
1.750800 24.606350 -10.057300
14.960700 -26.377951 -15.452750
-14.960610 -26.377951 -15.452750
-14.960610 -24.606251 -15.452750
14.960700 -24.606251 -15.452750
14.960700 -26.377951 -15.452750
14.960700 -26.377951 -11.712590
-14.960610 -26.377951 -11.712590
-14.960610 -26.377951 -15.452750
0.471400 26.377951 11.511550
0.471400 26.377951 -8.558770
0.915100 26.377951 -9.222730
1.832500 26.377951 -9.752420
14.960700 26.377951 -9.822830
14.960700 26.377951 -10.137790
1.750800 26.377951 -10.057300
0.691900 26.377951 -9.445920
0.179800 26.377951 -8.679560
0.020200 26.377951 11.036650
0.316500 26.377951 11.909450
1.458300 26.377951 12.910750
11.811000 26.377951 13.090550
11.811000 26.377951 12.775550
1.579000 26.377951 12.619150
1.116400 26.377951 12.352050
14.960700 25.955650 -9.255400
14.960700 24.974051 -9.255400
14.960700 24.606350 -9.822830
14.960700 24.606350 -10.137790
14.960700 26.377951 -10.137790
14.960700 26.377951 -9.822830
13.983900 39.306648 15.318050
0.471400 -26.377951 -8.558770
1.455600 -25.688950 -8.151110
1.750800 -24.606251 13.010050
1.750800 -26.377951 13.010050
2.053900 -26.377951 13.070350
2.362200 -26.377951 13.090550
11.811000 -26.377951 13.090550
11.811000 -24.606251 13.090550
2.362200 -24.606251 13.090550
2.053900 -24.606251 13.070350
-1.116300 26.377951 -9.399240
-1.832500 26.377951 -9.752420
-2.108200 25.688950 -8.723440
-1.668300 25.688950 -8.469460
-1.455600 25.688950 -8.151110
-0.471400 26.377951 -8.558770
14.960700 -26.377951 -10.137790
14.960700 -26.377951 -9.822830
1.832500 -26.377951 -9.752420
0.915100 -26.377951 -9.222730
0.471400 -26.377951 -8.558770
0.471400 -26.377951 11.511550
1.116400 -26.377951 12.352050
1.579000 -26.377951 12.619150
11.811000 -26.377951 12.775550
11.811000 -26.377951 13.090550
1.458300 -26.377951 12.910750
0.316500 -26.377951 11.909450
0.020200 -26.377951 11.036650
0.179800 -26.377951 -8.679560
0.691900 -26.377951 -9.445920
1.750800 -26.377951 -10.057300
0.179800 -24.606251 11.632350
0.080500 -24.606251 11.339750
0.020200 -24.606251 11.036650
0.020200 -26.377951 11.036650
0.080500 -26.377951 11.339750
0.179800 -26.377951 11.632350
2.407300 -25.688950 -8.759840
14.370100 -25.688950 -8.759840
14.370100 -25.397449 -8.759840
2.407300 -25.397449 -8.759840
2.234100 -25.397449 -8.748480
2.108200 -25.397449 -8.723440
2.108200 -25.688950 -8.723440
2.234100 -25.688950 -8.748480
14.960700 -24.606251 -9.822830
14.960700 -24.606251 -10.137790
1.750800 -24.606251 -10.057300
0.691900 -24.606251 -9.445920
0.179800 -24.606251 -8.679560
0.020200 -24.606251 11.036650
0.316500 -24.606251 11.909450
1.458300 -24.606251 12.910750
11.811000 -24.606251 13.090550
11.811000 -24.606251 12.775550
1.579000 -24.606251 12.619150
1.116400 -24.606251 12.352050
0.471400 -24.606251 11.511550
0.471400 -24.606251 -8.558770
0.915100 -24.606251 -9.222730
1.832500 -24.606251 -9.752420
14.942800 25.887251 -9.163450
14.942700 25.033649 -9.163460
14.951200 25.015150 -9.192140
14.951700 25.909750 -9.193680
-0.314900 24.606350 9.547250
-0.314900 24.606350 6.003950
-0.314900 -24.606251 6.003950
-0.314900 -24.606251 9.547250
1.871600 -25.397449 11.578150
1.986700 -25.397449 11.634950
2.108200 -25.397449 11.676250
2.108200 -25.688950 11.676250
1.986700 -25.688950 11.634950
1.871600 -25.688950 11.578150
1.764900 -25.688950 11.506850
1.764900 -25.397449 11.506850
16.528799 -37.890099 14.865550
-15.009240 -38.926674 15.452750
15.009300 -38.926674 15.452750
16.120399 -38.059120 15.452750
16.692600 -36.770828 15.452750
16.485800 37.450249 15.452750
15.618200 38.561352 15.452750
14.329900 39.133549 15.452750
-14.329880 39.133549 15.452750
-15.618170 38.561352 15.452750
-16.485722 37.450249 15.452750
-16.692558 -36.770828 15.452750
-16.321690 -37.765862 15.452750
-14.446520 25.390051 -8.769770
-14.779170 25.278049 -8.920320
-14.951680 25.074551 -9.193680
-14.960610 24.606350 -9.822830
14.370100 -25.397449 -8.759840
14.370100 -25.688950 -8.759840
11.371400 -25.377350 11.739650
11.369600 -25.704050 11.735950
14.951700 -25.074551 -9.193680
14.951200 -25.969151 -9.192140
14.960700 -26.010151 -9.255400
14.960700 -25.028650 -9.255400
16.732300 36.417351 15.452750
16.732300 -36.417309 15.452750
-11.811000 24.606350 13.090550
-1.458200 24.606350 12.910750
-1.458200 26.377951 12.910750
-11.811000 26.377951 13.090550
11.629600 25.706249 11.873050
11.784200 25.864750 12.085950
11.783200 25.055149 12.083050
11.627100 25.195250 11.866950
1.583700 -25.397449 -8.372960
1.583700 -25.688950 -8.372960
14.657400 25.246149 -8.835620
14.660000 25.647449 -8.841340
14.370100 25.586849 -8.759840
14.370100 25.295250 -8.759840
14.942800 25.887251 -9.163450
14.942700 25.033649 -9.163460
14.951200 25.015150 -9.192140
14.951700 25.909750 -9.193680
14.942800 -25.097050 -9.163450
14.942700 -25.950550 -9.163460
14.951200 -25.969151 -9.192140
14.951700 -25.074551 -9.193680
-14.370060 25.397449 -8.759840
-2.407300 25.397449 -8.759840
-2.234100 25.397449 -8.748480
-2.108200 25.397449 -8.723440
-2.108200 25.688950 -8.723440
-2.234100 25.688950 -8.748480
-2.407300 25.688950 -8.759840
-14.370060 25.688950 -8.759840
1.458300 26.377951 12.910750
1.458300 24.606350 12.910750
-1.668300 25.397449 11.422250
-2.108200 25.397449 11.676250
-2.108200 25.688950 11.676250
-1.668300 25.688950 11.422250
1.455600 25.586849 -8.151110
1.455600 25.295250 -8.151110
1.414400 25.586849 -8.029560
1.414400 25.295250 -8.029560
1.389300 25.586849 -7.903670
1.389300 25.295250 -7.903670
1.378000 25.586849 -7.730470
1.378000 25.295250 -7.730470
1.378000 25.586849 10.683250
1.378000 25.295250 10.683250
1.389300 25.586849 10.856450
1.389300 25.295250 10.856450
1.414400 25.586849 10.982350
1.414400 25.295250 10.982350
-1.579000 -24.606251 12.619150
-1.986700 -25.295250 11.634950
-11.440530 -25.265450 11.758650
-11.627080 -25.195250 11.866950
-11.783200 -25.055149 12.083050
-11.811000 -24.606251 12.775550
-14.590140 25.718849 -8.805900
-14.960610 26.377951 -9.822830
-14.932810 25.929050 -9.130280
-14.827090 25.819950 -8.961880
-1.389300 -25.295250 10.856450
-1.583700 -25.295250 11.325750
-0.738500 -24.606251 11.974250
-0.333100 -24.606251 10.995450
13.976400 39.173248 15.452750
15.009300 38.926750 15.452750
16.120399 38.059151 15.452750
-0.179800 26.377951 11.632350
-0.020200 26.377951 -8.083910
-0.488100 26.377951 -9.213600
-1.458200 26.377951 -9.957980
-14.960610 26.377951 -10.137790
-14.960610 26.377951 -9.822830
-1.579000 26.377951 -9.666370
-0.738500 26.377951 -9.021460
-0.333100 26.377951 -8.042720
-0.333100 26.377951 10.995450
-0.738500 26.377951 11.974250
-1.579000 26.377951 12.619150
-11.811000 26.377951 12.775550
-11.811000 26.377951 13.090550
-1.458200 26.377951 12.910750
-0.488100 26.377951 12.166350
1.668300 25.295250 -8.469460
1.455600 25.295250 -8.151110
0.471400 24.606350 -8.558770
0.915100 24.606350 -9.222730
11.811000 26.377951 12.775550
11.811000 26.377951 13.090550
11.811000 24.606350 13.090550
11.811000 24.606350 12.775550
-14.960610 25.028650 -9.255400
-14.960610 26.010151 -9.255400
-14.960610 26.377951 -9.822830
-14.960610 26.377951 -10.137790
-14.960610 24.606350 -10.137790
-14.960610 24.606350 -9.822830
1.668300 -25.688950 -8.469460
0.915100 -26.377951 -9.222730
-1.389300 25.688950 10.856450
-0.333100 26.377951 10.995450
-0.488100 26.377951 12.166350
-0.488100 24.606350 12.166350
13.976400 39.173248 14.468550
-13.976360 39.173248 14.468550
0.080500 -24.606251 -8.386970
0.179800 -24.606251 -8.679560
0.179800 -26.377951 -8.679560
0.080500 -26.377951 -8.386970
0.020200 -26.377951 -8.083910
0.000000 -26.377951 10.728350
0.000000 -24.606251 10.728350
0.020200 -24.606251 -8.083910
-0.488100 -24.606251 12.166350
-0.488100 -26.377951 12.166350
2.053900 26.377951 13.070350
1.750800 26.377951 13.010050
1.750800 24.606350 13.010050
2.053900 24.606350 13.070350
11.811000 24.606350 13.090550
11.811000 26.377951 13.090550
-13.976360 39.173248 14.468550
-16.732262 36.417351 15.452750
-16.732262 -36.417309 15.452750
16.732300 36.417351 15.452750
0.471400 24.606350 11.511550
1.455600 25.295250 11.103850
-14.942730 25.097050 -9.163450
-14.942700 25.950649 -9.163460
-14.951190 25.969151 -9.192140
-14.951680 25.074551 -9.193680
1.668300 25.295250 11.422250
1.116400 24.606350 12.352050
14.951700 25.909750 -9.193680
14.951200 25.015150 -9.192140
14.960700 24.974051 -9.255400
14.960700 25.955650 -9.255400
-11.296910 -25.594151 11.722550
-11.811000 -26.377951 12.775550
-11.784170 -25.864651 12.085950
-11.572840 -25.674749 11.830750
-14.942730 25.097050 -9.163450
-14.942700 25.950649 -9.163460
-14.951190 25.969151 -9.192140
-14.951680 25.074551 -9.193680
-14.951680 -25.909651 -9.193680
-14.951190 -25.015051 -9.192140
-14.960610 -24.974051 -9.255400
-14.960610 -25.955650 -9.255400
-14.942700 -25.033649 -9.163460
-14.942730 -25.887150 -9.163450
-1.583700 25.688950 11.325750
-1.583700 25.397449 11.325750
16.732300 -36.417309 15.452750
-1.871500 -25.295250 11.578150
-1.764800 -25.295250 11.506850
-1.764800 -25.586750 11.506850
-1.871500 -25.586750 11.578150
-1.986700 -25.586750 11.634950
-1.986700 -25.295250 11.634950
0.915100 -24.606251 -9.222730
1.668300 -25.397449 -8.469460
10 0 1 2 3 4 5 6 7 8 9
10 10 11 12 13 14 15 16 17 18 19
7 20 21 22 23 24 25 26
4 27 28 29 30
4 31 32 33 34
8 35 10 19 36 37 38 39 40
6 41 42 43 44 45 46
4 47 48 49 50
4 51 52 53 54
12 55 56 57 58 59 60 61 62 63 64 65 66
4 67 68 69 70
6 71 72 73 74 75 76
6 77 78 79 80 43 42
6 81 82 83 84 85 86
4 87 88 89 90
4 91 92 93 94
4 95 96 97 98
4 99 100 101 102
4 103 104 39 38
4 105 106 107 108
6 109 110 111 112 113 114
10 115 116 117 118 119 120 121 122 123 124
5 125 126 127 128 129
4 130 131 132 133
4 134 135 136 137
6 138 139 140 141 142 143
4 144 145 146 147
4 148 149 150 151
4 152 153 154 155
6 156 157 158 159 160 161
6 162 163 164 142 141 165
8 166 167 168 169 170 171 172 173
6 174 175 176 177 86 85
6 178 179 180 181 182 183
6 184 185 186 187 180 179
7 188 189 190 191 71 76 192
4 193 194 195 196
6 197 198 199 200 201 202
4 203 204 205 206
8 207 208 209 210 126 125 211 212
4 213 214 215 216
4 217 218 219 220
4 221 222 223 224
4 225 226 227 228
7 229 230 231 232 233 234 235
6 236 237 238 239 240 241
4 242 243 244 245
4 246 247 104 103
4 248 249 250 251
8 252 253 254 255 256 257 258 259
5 168 260 261 262 169
4 263 264 265 266
4 267 268 269 270
4 271 272 273 274
5 275 276 277 278 279
4 280 281 282 283
4 163 284 285 164
16 286 287 288 289 290 291 292 293 294 295 296 297 298 299 300 301
6 302 192 76 75 303 304
6 153 305 306 307 308 154
4 309 310 311 312
4 265 264 313 314
6 315 316 317 318 319 320
4 321 322 323 324
8 279 325 326 327 328 172 171 275
4 329 330 331 332
5 92 333 334 335 93
4 336 326 337 338
4 339 147 146 340
4 341 342 343 344
8 345 346 347 348 349 350 351 352
4 353 354 355 356
4 357 358 359 360
5 361 362 129 128 363
5 364 365 366 367 368
4 369 370 371 372
4 373 374 375 376
4 377 378 379 380
4 381 382 383 384
4 385 386 387 388
4 389 390 391 392
4 393 394 395 396
4 397 398 399 400
5 53 52 170 169 262
4 401 402 403 404
6 405 406 407 408 409 410
6 411 317 316 412 413 414
6 415 416 417 418 419 420
4 421 422 423 424
6 425 362 426 427 366 365
4 428 429 430 431
7 167 166 173 431 430 260 168
4 243 242 432 433
5 434 235 234 435 436
16 437 438 439 440 441 442 443 444 445 446 447 448 449 450 451 452
7 453 454 232 231 455 456 457
6 458 459 460 461 462 463
6 464 465 466 21 20 467
5 328 428 431 173 172
4 468 469 470 471
4 472 405 410 473
7 474 475 476 477 478 479 480
4 481 482 483 484
4 485 486 487 488
4 489 490 491 492
6 493 494 495 496 199 198
4 304 303 497 456
5 310 498 499 500 311
8 501 502 503 504 505 506 507 508
10 190 455 231 230 229 235 434 509 510 191
4 511 512 513 514
4 515 516 517 518
4 330 329 518 517
4 519 520 521 522
4 268 267 523 524
4 332 331 525 526
4 527 528 526 525
4 528 527 529 530
4 530 529 531 532
4 532 531 533 534
4 535 536 281 280
4 537 538 539 540
4 471 470 541 542
4 422 421 543 544
6 545 324 323 546 79 78
4 511 514 547 548
4 549 550 551 552
6 553 554 555 556 557 558
8 509 434 436 435 559 71 191 510
8 189 188 192 302 304 456 455 190
16 560 561 562 563 564 565 566 567 568 569 570 571 572 573 574 575
4 542 541 576 577
4 578 579 580 581
4 150 582 583 151
6 499 498 584 585 334 333
4 586 587 588 589
6 590 591 592 593 594 595
4 136 596 597 137
5 309 312 165 141 140
9 427 426 598 599 600 601 602 367 366
6 500 499 333 92 91 603
8 604 605 606 607 608 609 610 611
10 612 613 614 615 616 617 618 619 620 621
6 32 31 622 110 109 623
4 349 348 28 27
4 624 152 155 625
4 485 626 627 486
4 627 626 628 629
4 559 630 72 71
4 631 632 633 634
4 635 636 637 638
10 95 639 640 641 642 643 644 645 646 96
6 600 599 598 426 362 361
8 647 8 7 648 649 650 651 652
7 275 171 170 52 51 277 276
8 328 327 653 654 132 131 429 428
4 655 656 657 658
4 658 657 659 660
4 656 655 661 662
4 663 341 344 664
4 662 661 665 666
4 667 668 666 665
4 669 670 668 667
6 671 672 673 674 675 676
4 677 678 670 669
4 206 205 678 677
4 204 203 679 680
4 358 357 680 679
10 681 682 683 258 257 684 685 686 687 688
8 689 115 124 690 691 583 582 692
7 693 363 128 127 126 694 695
5 279 278 337 326 325
4 696 697 698 699
4 675 674 186 185
4 700 701 702 703
4 704 705 706 707
4 708 709 710 711
4 712 713 714 715
4 716 717 718 719
4 720 721 722 723
4 724 725 726 727
4 728 729 730 731
4 732 733 734 735
4 736 737 738 739
4 740 741 742 743
4 744 745 746 747
4 343 342 251 250
4 748 749 750 751
4 752 753 754 755
4 756 757 758 759
4 760 761 762 763
4 764 765 766 767
4 768 769 770 771
4 772 773 774 775
4 776 777 778 779
8 780 781 782 783 784 617 616 785
16 786 787 788 789 790 791 792 793 794 795 796 797 798 799 800 801
4 802 803 804 805
4 806 807 808 809
16 810 811 812 813 814 815 816 817 818 819 820 821 822 823 824 825
6 826 827 828 829 830 831
6 832 454 453 457 456 497
4 833 834 465 464
4 48 47 145 144
4 505 504 660 659
10 835 586 589 836 837 838 839 840 841 842
6 843 844 845 846 847 848
16 849 850 851 852 853 854 855 856 857 858 859 860 861 862 863 864
8 865 866 867 868 869 870 588 587
8 871 872 873 874 875 876 877 878
16 879 880 881 882 883 884 885 886 887 888 889 890 891 892 893 894
4 895 896 897 898
4 899 900 901 902
10 903 904 905 906 907 908 909 283 282 910
7 362 425 911 212 211 125 129
12 912 913 914 915 916 917 918 919 920 921 922 923
6 924 925 926 927 183 182
4 544 543 928 929
4 930 472 473 931
4 932 933 934 935
4 512 936 937 513
4 938 939 940 941
4 596 236 241 597
4 942 943 944 945
6 312 311 500 603 162 165
4 877 876 946 947
4 948 949 950 951
4 952 953 954 955
4 956 957 958 959
4 88 87 949 948
8 960 961 962 963 964 965 966 967
4 2 688 687 3
4 968 651 650 969
4 970 971 972 973
4 30 29 974 975
4 976 977 975 974
4 977 976 978 979
4 980 981 979 978
4 982 983 981 980
4 984 985 983 982
4 986 987 985 984
4 245 244 987 986
4 433 432 643 642
6 988 989 990 991 992 993
6 994 845 844 995 996 997
6 320 319 998 999 1000 1001
4 906 905 930 931
4 972 971 624 625
6 91 94 284 163 162 603
6 232 454 832 1002 1003 1004
16 1005 1006 1007 1008 1009 1010 1011 1012 1013 1014 1015 1016 1017 1018 1019 1020
6 463 462 1021 1022 1023 1024
6 943 1025 1026 1027 1028 944
6 1029 1030 1031 1032 1033 1034
6 158 157 1035 834 833 1036
6 848 847 1037 606 605 1038
4 1039 1040 247 246
4 1041 1042 50 49
10 1043 1044 1045 1046 1047 1048 868 867 1049 1050
4 1051 1052 149 148
8 1053 1054 968 969 1055 1056 1057 1058
7 336 133 132 654 653 327 326
5 142 164 285 1059 143
4 1000 999 989 988
4 1060 577 576 1061
4 233 232 1004 1062
4 97 942 945 98
4 1063 1023 1022 1064
4 1065 1066 1067 1068
6 1063 1064 1069 591 590 1070
4 1071 1072 1073 1074
6 1075 322 321 1076 1077 1078
8 364 209 208 207 212 911 425 365
4 1044 612 621 1045
4 1079 1080 1081 1082
4 1083 1084 1085 1086
4 516 515 947 946
4 354 1052 1051 355
4 263 266 1087 1088
4 520 519 579 578
4 581 580 272 271
4 1089 1090 970 973
4 524 523 274 273
4 202 201 83 82
4 694 126 210 1091
4 70 69 270 269
4 1090 1089 68 67
4 939 1040 1039 940
4 536 535 534 533
4 963 522 521 964
10 1092 1093 360 359 1094 1095 1096 135 134 1097
6 476 1098 34 33 1099 477
