ply
format ascii 1.0
comment Created by Blender 2.82 (sub 7) - www.blender.org, source file: ''
element vertex 175
property float x
property float y
property float z
element face 61
property list uchar uint vertex_indices
end_header
-12.478400 20.555799 13.125525
-21.084499 11.562600 13.125525
-21.514799 11.798600 14.125525
-12.733100 20.975300 14.125525
3.211130 -11.984100 13.125525
-3.211120 -11.984100 13.125525
-8.772940 -8.772960 13.125525
-11.984100 -3.211140 13.125525
-11.984100 3.211110 13.125525
-8.772940 8.772940 13.125525
-3.211120 11.984100 13.125525
3.211130 11.984100 13.125525
8.772960 8.772940 13.125525
11.984100 3.211110 13.125525
11.984100 -3.211140 13.125525
8.772960 -8.772960 13.125525
0.699319 -0.403760 -7.721175
2.303550 -1.329960 -11.634795
1.880840 -1.880850 -11.634795
0.570993 -0.571000 -7.721175
1.329960 2.303530 -11.634795
2.303550 1.329937 -11.634795
0.699319 0.403736 -7.721175
0.570993 0.570973 -7.721175
0.403756 0.699300 -7.721175
-2.252620 1.300539 9.386325
-0.699305 0.403736 -7.721175
-0.570978 0.570973 -7.721175
-0.403741 0.699300 -7.721175
-1.300540 2.252610 9.386325
-0.673208 2.512460 9.386325
-0.208989 0.779968 -7.721175
1.839270 -1.839270 9.386325
2.512480 -0.673230 9.386325
0.779989 -0.209009 -7.721175
-24.531700 -0.539540 14.125525
-24.041000 -0.528750 13.125525
0.807504 -0.000012 -7.721175
2.659910 -0.000012 -11.634795
2.569270 -0.688450 -11.634795
-20.555799 -12.478400 13.125525
-20.975300 -12.733100 14.125525
0.000007 -2.601120 9.386325
0.000007 -0.807510 -7.721175
-0.208989 -0.779990 -7.721175
-0.673208 -2.512490 9.386325
0.000007 2.601090 9.386325
0.000007 5.395400 11.682725
-4.672560 2.697690 11.682725
0.673223 -2.512490 9.386325
0.209004 -0.779990 -7.721175
3.815140 3.815120 11.682725
5.211580 -1.396450 11.682725
11.984100 -3.211140 13.125525
11.984100 3.211110 13.125525
8.772960 8.772940 13.125525
3.211130 11.984100 13.125525
-3.211120 11.984100 13.125525
-8.772940 8.772940 13.125525
-11.984100 3.211110 13.125525
-11.984100 -3.211140 13.125525
-5.211560 -1.396450 11.682725
-0.688425 -2.569280 -11.634795
-1.880830 -1.880850 -11.634795
-0.570978 -0.571000 -7.721175
-0.403741 -0.699320 -7.721175
0.000007 0.807483 -7.721175
0.209004 0.779968 -7.721175
0.000007 2.659890 -11.634795
1.329960 -2.303550 -11.634795
0.688440 -2.569280 -11.634795
0.403756 -0.699320 -7.721175
-5.711550 -23.358700 13.125525
0.528742 -24.041000 13.125525
0.539533 -24.531700 14.125525
-5.828120 -23.835400 14.125525
-1.329940 2.303530 -11.634795
1.839270 1.839250 9.386325
1.300560 2.252610 9.386325
17.728001 -16.965000 14.125525
12.733100 -20.975300 14.125525
12.478400 -20.555799 13.125525
17.373501 -16.625700 13.125525
1.300560 -2.252640 9.386325
20.975300 12.733100 14.125525
20.555799 12.478400 13.125525
11.562600 21.084499 13.125525
11.798600 21.514799 14.125525
23.358700 -5.711570 13.125525
23.835400 -5.828140 14.125525
24.041000 0.528719 13.125525
24.531700 0.539511 14.125525
0.673223 2.512460 9.386325
-2.697700 -4.672580 11.682725
-1.300540 -2.252640 9.386325
-2.252620 -1.300560 9.386325
-2.512470 -0.673230 9.386325
23.358700 -5.711570 13.125525
17.373501 -16.625700 13.125525
6.733010 -23.084999 13.125525
-5.711550 -23.358700 13.125525
-16.625700 -17.373501 13.125525
-23.084999 -6.733010 13.125525
-23.358700 5.711550 13.125525
-21.084499 11.562600 13.125525
-12.478400 20.555799 13.125525
-6.732990 23.084999 13.125525
5.711570 23.358700 13.125525
11.562600 21.084499 13.125525
20.555799 12.478400 13.125525
23.084999 6.732980 13.125525
0.779989 0.208983 -7.721175
2.512480 0.673203 9.386325
-0.779974 0.208983 -7.721175
-2.601100 -0.000012 9.386325
-0.807489 -0.000012 -7.721175
-0.699305 -0.403760 -7.721175
-0.779974 -0.209009 -7.721175
1.396440 -5.211580 11.682725
-8.772940 -8.772960 13.125525
-3.211120 -11.984100 13.125525
3.211130 -11.984100 13.125525
8.772960 -8.772960 13.125525
0.000007 6.728940 -13.229378
-5.827440 3.364460 -13.229378
-10.659700 6.154370 -14.125525
-6.154370 10.659680 -14.125525
-3.185730 11.889300 -14.125525
3.185750 11.889300 -14.125525
6.154390 10.659680 -14.125525
10.659700 6.154370 -14.125525
11.889400 3.185730 -14.125525
11.889400 -3.185750 -14.125525
8.703610 -8.703620 -14.125525
3.185750 -11.889400 -14.125525
-3.185730 -11.889400 -14.125525
3.364490 -5.827460 -13.229378
6.499680 -1.741590 -13.229378
-1.880830 1.880820 -11.634795
-2.569260 0.688420 -11.634795
-8.703600 -8.703620 -14.125525
-10.659700 -6.154390 -14.125525
-12.308700 -0.000012 -14.125525
-6.499660 1.741570 -13.229378
-2.569260 -0.688450 -11.634795
8.703610 -8.703620 -14.125525
11.889400 -3.185750 -14.125525
11.889400 3.185730 -14.125525
10.659700 6.154370 -14.125525
6.154390 10.659680 -14.125525
3.185750 11.889300 -14.125525
-3.185730 11.889300 -14.125525
-6.154370 10.659680 -14.125525
-10.659700 6.154370 -14.125525
-12.308700 -0.000012 -14.125525
-10.659700 -6.154390 -14.125525
-8.703600 -8.703620 -14.125525
-3.185730 -11.889400 -14.125525
3.185750 -11.889400 -14.125525
11.798600 21.514799 14.125525
-0.539516 24.531700 14.125525
-12.733100 20.975300 14.125525
-21.514799 11.798600 14.125525
-24.531700 -0.539540 14.125525
-20.975300 -12.733100 14.125525
-11.798600 -21.514799 14.125525
0.539533 -24.531700 14.125525
12.733100 -20.975300 14.125525
21.514799 -11.798600 14.125525
24.531700 0.539511 14.125525
20.975300 12.733100 14.125525
-0.528725 24.041000 13.125525
-0.539516 24.531700 14.125525
-16.625700 -17.373501 13.125525
-16.965000 -17.728001 14.125525
4 0 1 2 3
12 4 5 6 7 8 9 10 11 12 13 14 15
4 16 17 18 19
5 20 21 22 23 24
5 25 26 27 28 29
4 30 29 28 31
5 16 19 32 33 34
4 35 2 1 36
6 37 38 39 17 16 34
4 35 36 40 41
4 42 43 44 45
6 29 30 46 47 48 25
4 49 50 43 42
13 51 52 53 54 55 56 57 58 59 60 61 48 47
5 62 63 64 65 44
4 46 30 31 66
5 24 67 66 68 20
6 19 18 69 70 50 71
4 72 73 74 75
5 31 28 76 68 66
4 77 78 24 23
4 79 80 81 82
4 83 71 50 49
4 74 73 81 80
4 84 85 86 87
4 79 82 88 89
4 90 85 84 91
6 92 78 77 51 47 46
5 93 94 95 96 61
14 97 98 99 100 101 102 103 104 105 106 107 108 109 110
5 77 23 22 111 112
5 113 26 25 114 115
5 112 111 37 34 33
4 92 46 66 67
4 78 92 67 24
6 95 116 117 115 114 96
4 32 19 71 83
4 45 44 65 94
10 53 52 118 93 61 60 119 120 121 122
6 118 49 42 45 94 93
5 22 21 38 37 111
5 33 52 51 77 112
5 114 25 48 61 96
20 123 124 125 126 127 128 129 130 131 132 133 134 135 136 137 39 38 21 20 68
5 138 27 26 113 139
4 28 27 138 76
14 63 62 70 69 136 135 140 141 142 125 124 143 139 144
5 115 117 144 139 113
6 137 136 69 18 17 39
7 76 138 139 143 124 123 68
14 145 146 147 148 149 150 151 152 153 154 155 156 157 158
12 159 160 161 162 163 164 165 166 167 168 169 170
5 64 63 144 117 116
6 49 118 52 33 32 83
4 86 171 172 87
4 91 89 88 90
4 173 174 41 40
5 70 62 44 43 50
4 172 171 0 3
5 94 65 64 116 95
4 72 75 174 173
