ply
format ascii 1.0
comment Created by Blender 2.82 (sub 7) - www.blender.org, source file: ''
element vertex 324
property float x
property float y
property float z
element face 81
property list uchar uint vertex_indices
end_header
11.116800 10.899228 6.698814
11.116800 8.143320 6.698814
11.116800 8.143320 -6.473105
11.116800 10.899228 -6.473105
11.712600 11.712600 9.049205
11.712600 -11.712600 9.049205
11.116800 -10.868300 7.643695
11.116800 10.899228 7.643695
-8.027910 9.560650 4.195805
-8.027910 10.899228 6.698814
-8.027910 8.143320 6.698814
-8.027910 9.560650 2.857225
-11.712600 -11.712600 9.049205
-11.712600 11.712600 9.049205
-10.783811 10.899228 7.643695
-10.783811 -10.868300 7.643695
-9.445230 -8.112400 4.234055
-9.445230 -8.112400 2.895475
-10.586960 -8.112400 2.895475
-10.586960 -8.112400 4.234055
-10.783811 -10.868300 -6.473105
-10.783811 -8.112400 -6.473105
-11.295622 -8.112400 -7.167305
-11.295622 -11.340700 -7.167305
11.116800 -8.112400 -9.049205
10.920000 -8.112400 2.751935
10.920000 -8.112400 4.090515
9.778200 -8.112400 4.090515
11.116800 -8.112400 6.698814
8.360900 10.899228 -6.473105
8.360900 11.371669 -7.167305
8.360900 10.899228 -9.049205
8.360900 8.143320 -9.049205
8.360900 8.143320 6.698814
8.360900 9.560650 2.857225
8.360900 10.702380 2.857225
8.360900 10.702380 4.195805
8.360900 10.899228 6.698814
-10.783811 -10.868300 6.698814
-10.783811 -8.112400 6.698814
-10.783811 -8.112400 -6.473105
-10.783811 -10.868300 -6.473105
11.460100 11.242558 7.053144
11.460100 11.242558 6.698814
-11.127141 11.242558 6.698814
-11.127141 11.242558 7.053144
-8.027910 -11.340700 -7.167305
-8.027910 -10.868300 -9.049205
-8.027910 -8.112400 -9.049205
-8.027910 -8.112400 6.698814
-8.027910 -9.529700 4.330565
-8.027910 -9.529700 2.991985
-8.027910 -10.868300 -6.473105
11.460100 -11.211600 7.053144
11.116800 -10.868300 7.053144
-10.783811 -10.868300 7.053144
-11.127141 -11.211600 7.053144
-10.783811 8.143320 6.698814
-10.783811 10.899228 6.698814
-10.783811 10.899228 -6.473105
-10.783811 8.143320 -6.473105
-11.127141 -11.211600 7.053144
-11.127141 11.242558 7.053144
-11.127141 11.242558 6.698814
-11.127141 -11.211600 6.698814
8.360900 -8.112400 6.698814
8.360900 -9.529700 4.330565
8.360900 -10.671500 4.330565
8.360900 -10.868300 6.698814
11.460100 11.242558 7.053144
-11.127141 11.242558 7.053144
-10.783811 10.899228 7.053144
11.116800 10.899228 7.053144
11.116800 -10.868300 7.053144
11.116800 -10.868300 7.643695
-10.783811 -10.868300 7.643695
-10.783811 -10.868300 7.053144
11.116800 -8.112400 6.698814
11.116800 -10.868300 6.698814
11.116800 -10.868300 -6.473105
11.116800 -8.112400 -6.473105
-10.586960 -8.112400 4.234055
-9.445230 -8.112400 4.234055
-9.445230 8.143320 4.234055
-10.586960 8.143320 4.234055
-9.445230 -8.112400 2.895475
-10.586960 -8.112400 2.895475
-10.586960 8.143320 2.895475
-9.445230 8.143320 2.895475
11.116800 10.899228 6.698814
11.116800 10.899228 -6.473105
8.360900 10.899228 -6.473105
8.360900 10.899228 6.698814
11.712600 11.712600 9.049205
11.116800 10.899228 7.643695
-10.783811 10.899228 7.643695
-11.712600 11.712600 9.049205
-10.783811 -10.868300 -9.049205
-8.027910 -10.868300 -9.049205
-8.027910 -11.340700 -7.167305
-11.295622 -11.340700 -7.167305
-10.783811 8.143320 -9.049205
-8.027910 8.143320 -9.049205
-9.445230 8.143320 2.895475
-10.586960 8.143320 2.895475
-10.783811 8.143320 6.698814
-10.783811 8.143320 -6.473105
-11.256252 8.143320 -7.167305
-10.783811 -10.868300 7.643695
11.116800 -10.868300 7.643695
11.712600 -11.712600 9.049205
-11.712600 -11.712600 9.049205
11.628600 11.371669 -7.167305
11.116800 10.899228 -9.049205
8.360900 10.899228 -9.049205
8.360900 11.371669 -7.167305
9.778200 8.143320 4.090515
8.360900 8.143320 6.698814
8.360900 8.143320 -9.049205
11.116800 8.143320 -9.049205
9.778200 8.143320 2.751935
8.360900 -10.671500 2.991985
8.360900 -10.671500 4.330565
-8.027910 -10.671500 4.330565
-8.027910 -10.671500 2.991985
-8.027910 10.702380 4.195805
-8.027910 10.702380 2.857225
-8.027910 8.143320 -9.049205
-8.027910 10.899228 -9.049205
-8.027910 11.411039 -7.167305
-8.027910 10.899228 -6.473105
-8.027910 -10.868300 6.698814
-8.027910 -10.671500 2.991985
-8.027910 -10.671500 4.330565
11.460100 11.242558 7.053144
11.460100 -11.211600 7.053144
11.460100 -11.211600 6.698814
11.460100 11.242558 6.698814
11.116800 -10.868300 7.053144
11.116800 -10.868300 6.698814
-10.783811 -10.868300 6.698814
-10.783811 -10.868300 7.053144
11.589200 -8.112400 -7.167305
11.589200 -11.380100 -7.167305
11.116800 -10.868300 -9.049205
11.116800 -8.112400 -9.049205
11.116800 -8.112400 -6.473105
11.116800 -10.868300 -6.473105
11.589200 -11.380100 -7.167305
11.589200 -8.112400 -7.167305
-8.027910 -10.671500 4.330565
8.360900 -10.671500 4.330565
8.360900 -9.529700 4.330565
-8.027910 -9.529700 4.330565
9.778200 -8.112400 4.090515
9.778200 8.143320 4.090515
9.778200 8.143320 2.751935
9.778200 -8.112400 2.751935
11.116800 10.899228 7.643695
11.116800 -10.868300 7.643695
11.116800 -10.868300 7.053144
11.116800 10.899228 7.053144
-10.783811 10.899228 6.698814
11.116800 10.899228 6.698814
11.116800 10.899228 7.053144
-10.783811 10.899228 7.053144
8.360900 10.702380 4.195805
8.360900 10.702380 2.857225
-8.027910 10.702380 2.857225
-8.027910 10.702380 4.195805
-9.445230 -8.112400 2.895475
-8.027910 -8.112400 6.698814
-8.027910 -8.112400 -9.049205
-10.586960 -8.112400 2.895475
11.116800 -10.868300 7.053144
11.116800 10.899228 7.053144
11.116800 10.899228 6.698814
11.116800 -10.868300 6.698814
-11.256252 8.143320 -7.167305
-11.256252 11.411039 -7.167305
-10.783811 10.899228 -9.049205
-10.783811 8.143320 -9.049205
8.360900 9.560650 4.195805
-10.783811 -10.868300 7.643695
-10.783811 10.899228 7.643695
-10.783811 10.899228 7.053144
-10.783811 -10.868300 7.053144
-8.027910 -11.340700 -7.167305
-8.027910 -10.868300 -6.473105
-10.783811 -10.868300 -6.473105
-11.295622 -11.340700 -7.167305
11.116800 10.899228 -6.473105
11.116800 8.143320 -6.473105
11.628600 8.143320 -7.167305
11.628600 11.371669 -7.167305
11.116800 8.143320 6.698814
10.920000 8.143320 4.090515
10.920000 8.143320 2.751935
11.628600 8.143320 -7.167305
11.116800 8.143320 -6.473105
-8.027910 -10.868300 -6.473105
-8.027910 -10.868300 6.698814
-10.783811 -10.868300 6.698814
-10.783811 -10.868300 -6.473105
-10.783811 8.143320 -6.473105
-10.783811 10.899228 -6.473105
-11.256252 11.411039 -7.167305
-11.256252 8.143320 -7.167305
11.116800 10.899228 7.643695
11.116800 10.899228 7.053144
-10.783811 10.899228 7.053144
-10.783811 10.899228 7.643695
11.628600 11.371669 -7.167305
11.628600 8.143320 -7.167305
11.116800 8.143320 -9.049205
11.116800 10.899228 -9.049205
-8.027910 11.411039 -7.167305
-8.027910 10.899228 -9.049205
-10.783811 10.899228 -9.049205
-11.256252 11.411039 -7.167305
-8.027910 8.143320 6.698814
-10.586960 8.143320 4.234055
-9.445230 8.143320 4.234055
8.360900 -8.112400 -9.049205
8.360900 -10.868300 -9.049205
8.360900 -11.380100 -7.167305
8.360900 -10.868300 -6.473105
8.360900 -10.671500 2.991985
8.360900 -9.529700 2.991985
11.116800 -10.868300 -6.473105
11.116800 -10.868300 6.698814
8.360900 -10.868300 6.698814
8.360900 -10.868300 -6.473105
11.460100 -11.211600 6.698814
11.460100 -11.211600 7.053144
-11.127141 -11.211600 7.053144
-11.127141 -11.211600 6.698814
8.360900 -8.112400 -9.049205
8.360900 -8.112400 6.698814
9.778200 -8.112400 2.751935
-10.783811 -8.112400 -9.049205
-11.295622 -8.112400 -7.167305
-10.783811 -8.112400 -6.473105
-10.783811 -8.112400 6.698814
-9.445230 -8.112400 4.234055
-10.586960 -8.112400 4.234055
8.360900 -9.529700 4.330565
8.360900 -9.529700 2.991985
-8.027910 -9.529700 2.991985
-8.027910 -9.529700 4.330565
8.360900 -11.380100 -7.167305
11.589200 -11.380100 -7.167305
11.116800 -10.868300 -6.473105
8.360900 -10.868300 -6.473105
11.116800 -8.112400 -6.473105
11.589200 -8.112400 -7.167305
-10.783811 10.899228 -6.473105
-8.027910 10.899228 -6.473105
-8.027910 11.411039 -7.167305
-11.256252 11.411039 -7.167305
10.920000 8.143320 2.751935
10.920000 8.143320 4.090515
9.778200 8.143320 4.090515
9.778200 8.143320 2.751935
-8.027910 10.899228 6.698814
-8.027910 10.899228 -6.473105
-10.783811 10.899228 -6.473105
-10.783811 10.899228 6.698814
-10.783811 10.899228 7.053144
-10.783811 -10.868300 7.053144
-10.783811 -10.868300 6.698814
-10.783811 10.899228 6.698814
11.116800 -10.868300 -9.049205
11.589200 -11.380100 -7.167305
8.360900 -11.380100 -7.167305
8.360900 -10.868300 -9.049205
10.920000 -8.112400 4.090515
10.920000 -8.112400 2.751935
9.778200 -8.112400 2.751935
9.778200 -8.112400 4.090515
10.920000 8.143320 4.090515
10.920000 -8.112400 4.090515
10.920000 -8.112400 2.751935
10.920000 8.143320 2.751935
9.778200 -8.112400 4.090515
10.920000 -8.112400 4.090515
10.920000 8.143320 4.090515
9.778200 8.143320 4.090515
8.360900 -10.671500 4.330565
8.360900 -9.529700 4.330565
8.360900 -9.529700 2.991985
8.360900 -10.671500 2.991985
-10.586960 -8.112400 4.234055
-10.586960 8.143320 4.234055
-10.586960 8.143320 2.895475
-10.586960 -8.112400 2.895475
11.712600 11.712600 9.049205
-11.712600 11.712600 9.049205
-11.712600 -11.712600 9.049205
11.712600 -11.712600 9.049205
11.116800 10.899228 -6.473105
11.628600 11.371669 -7.167305
8.360900 11.371669 -7.167305
8.360900 10.899228 -6.473105
8.360900 9.560650 2.857225
8.360900 9.560650 4.195805
-8.027910 9.560650 4.195805
-8.027910 9.560650 2.857225
-8.027910 10.702380 4.195805
-8.027910 9.560650 4.195805
8.360900 9.560650 4.195805
8.360900 10.702380 4.195805
-9.445230 8.143320 4.234055
-9.445230 -8.112400 4.234055
-9.445230 -8.112400 2.895475
-9.445230 8.143320 2.895475
-8.027910 10.702380 4.195805
-8.027910 9.560650 4.195805
-8.027910 9.560650 2.857225
-8.027910 10.702380 2.857225
-11.295622 -11.340700 -7.167305
-11.295622 -8.112400 -7.167305
-10.783811 -8.112400 -9.049205
-10.783811 -10.868300 -9.049205
4 0 1 2 3
4 4 5 6 7
4 8 9 10 11
4 12 13 14 15
4 16 17 18 19
4 20 21 22 23
5 24 25 26 27 28
9 29 30 31 32 33 34 35 36 37
4 38 39 40 41
4 42 43 44 45
7 46 47 48 49 50 51 52
4 53 54 55 56
4 57 58 59 60
4 61 62 63 64
4 65 66 67 68
8 69 70 56 55 71 72 54 53
4 73 74 75 76
4 77 78 79 80
4 81 82 83 84
4 85 86 87 88
4 89 90 91 92
4 93 94 95 96
4 97 98 99 100
7 101 102 103 104 105 106 107
4 108 109 110 111
4 112 113 114 115
5 116 117 118 119 120
4 121 122 123 124
10 9 8 125 126 11 10 127 128 129 130
7 49 131 52 51 132 133 50
4 134 135 136 137
4 138 139 140 141
4 142 143 144 145
4 146 147 148 149
4 150 151 152 153
4 154 155 156 157
4 158 159 160 161
4 162 163 164 165
4 166 167 168 169
4 170 171 172 173
4 174 175 176 177
4 178 179 180 181
5 36 182 34 33 37
4 183 184 185 186
4 187 188 189 190
4 191 192 193 194
7 119 195 117 116 196 197 120
3 198 199 119
3 195 119 199
4 200 201 202 203
4 204 205 206 207
4 208 209 210 211
4 212 213 214 215
4 216 217 218 219
7 102 220 105 104 221 222 103
10 223 224 225 226 68 67 227 228 66 65
4 229 230 231 232
4 233 234 235 236
7 237 238 28 27 239 25 24
10 240 241 242 243 171 170 244 245 173 172
4 246 247 248 249
4 250 251 252 253
3 24 28 254
3 24 254 255
4 256 257 258 259
4 260 261 262 263
4 264 265 266 267
4 268 269 270 271
4 272 273 274 275
4 276 277 278 279
4 280 281 282 283
4 284 285 286 287
4 288 289 290 291
4 292 293 294 295
4 296 297 298 299
4 300 301 302 303
4 304 305 306 307
4 308 309 310 311
4 312 313 314 315
4 316 317 318 319
4 320 321 322 323
