ply
format ascii 1.0
comment Created by Blender 2.82 (sub 7) - www.blender.org, source file: ''
element vertex 364
property float x
property float y
property float z
element face 89
property list uchar uint vertex_indices
end_header
126.757553 -130.608002 81.607445
131.612549 -131.244003 90.996445
107.246552 -194.572998 90.996445
103.442551 -191.658997 81.607445
-41.062851 -197.820999 -81.230759
-45.445450 -206.537003 -91.385551
-8.810450 -217.871002 -91.385551
-8.863450 -207.723007 -81.230759
-80.006050 -141.009003 -91.385551
-76.750252 -121.945999 -91.385551
-76.750252 -121.945999 -93.267448
-80.006050 -141.009003 -93.267448
-115.293404 149.052994 80.446442
-115.772102 150.317993 80.446442
-115.772102 150.317993 -91.385551
-115.293404 149.052994 -91.385551
-61.476952 -108.572998 -81.230759
-68.671448 -104.375000 -91.385551
-80.006050 -141.009003 -91.385551
-71.439346 -140.576996 -81.230759
51.221550 -112.860001 -81.230759
59.549549 -109.281998 -91.385551
33.490551 -81.149002 -91.385551
28.316549 -88.282997 -81.230759
0.000550 -254.832001 90.996445
0.298550 -249.955002 81.607445
58.065552 -234.483994 81.607445
60.019550 -238.919006 90.996445
-22.400749 -71.602997 -93.267448
-22.400749 -71.602997 -91.385551
15.919550 -73.070000 -91.385551
15.919550 -73.070000 -93.267448
-51.704552 -128.712997 80.446442
-38.408150 -107.690002 80.446442
-38.408150 -107.690002 -81.230759
-51.704552 -128.712997 -81.230759
-71.504753 -178.403000 -91.385551
-63.967251 -173.244003 -81.230759
33.490551 -81.149002 -91.385551
59.549549 -109.281998 -91.385551
59.549549 -109.281998 -93.267448
33.490551 -81.149002 -93.267448
56.716549 -183.311005 -91.385551
68.050552 -146.675995 -91.385551
58.693550 -145.526993 -81.230759
48.730549 -177.531006 -81.230759
-114.396683 232.035995 80.446442
-114.396683 232.035995 -91.385551
-115.503731 230.621994 -91.385551
-115.503731 230.621994 80.446442
-36.749550 -85.807999 -81.230759
-40.538052 -78.316002 -91.385551
-131.612549 -131.244003 93.267448
-131.612549 254.832001 93.267448
-131.612549 254.832001 90.996445
-131.612549 -131.244003 90.996445
-126.757149 -131.244003 81.607445
-131.612549 -131.244003 90.996445
-131.612549 254.832001 90.996445
-126.757149 249.914993 81.607445
-3.144450 -69.814003 -91.385551
-3.882450 -78.380997 -81.230759
55.831551 -162.181000 -81.230759
58.693550 -145.526993 -81.230759
51.221550 -112.860001 -81.230759
18.677549 -102.363998 -81.230759
35.519550 -120.461998 -81.230759
41.103550 -144.908997 -81.230759
38.958549 -157.391006 -81.230759
25.661551 -178.412994 -81.230759
4.015550 -189.776993 -81.230759
-20.231350 -188.854004 -81.230759
-40.996250 -175.841995 -81.230759
-52.669651 -153.811996 -81.230759
-53.849251 -141.194000 -81.230759
-46.415352 -117.278999 -81.230759
-28.287550 -100.566002 -81.230759
-4.582450 -95.200996 -81.230759
41.396549 -99.072998 -81.230759
12.872550 -81.224998 -81.230759
-20.807949 -79.944000 -81.230759
-50.620949 -95.571999 -81.230759
-68.577751 -123.922997 -81.230759
-69.866852 -157.399002 -81.230759
-54.142750 -187.031006 -81.230759
-25.618950 -204.878006 -81.230759
8.061550 -206.160004 -81.230759
37.874550 -190.531006 -81.230759
-131.612549 -131.244003 93.267448
-131.612549 -131.244003 90.996445
-107.245628 -194.572998 90.996445
-107.245628 -194.572998 93.267448
66.261551 -127.419998 -91.385551
64.795547 -165.740005 -91.385551
64.795547 -165.740005 -93.267448
66.261551 -127.419998 -93.267448
56.716549 -183.311005 -93.267448
28.582550 -209.369995 -93.267448
-8.810450 -217.871002 -93.267448
-45.445450 -206.537003 -93.267448
-71.504753 -178.403000 -93.267448
-80.006050 -141.009003 -93.267448
-76.750252 -121.945999 -93.267448
-56.320148 -89.492996 -93.267448
-22.400749 -71.602997 -93.267448
15.919550 -73.070000 -93.267448
33.490551 -81.149002 -93.267448
59.549549 -109.281998 -93.267448
66.261551 -127.419998 -93.267448
64.795547 -165.740005 -93.267448
-71.504753 -178.403000 -91.385551
-71.504753 -178.403000 -93.267448
28.582550 -209.369995 -93.267448
56.716549 -183.311005 -93.267448
64.795547 -165.740005 -93.267448
66.261551 -127.419998 -93.267448
59.549549 -109.281998 -93.267448
33.490551 -81.149002 -93.267448
15.919550 -73.070000 -93.267448
-22.400749 -71.602997 -93.267448
-56.320148 -89.492996 -93.267448
-76.750252 -121.945999 -93.267448
-80.006050 -141.009003 -93.267448
-71.504753 -178.403000 -93.267448
-45.445450 -206.537003 -93.267448
-8.810450 -217.871002 -93.267448
-52.669651 -153.811996 80.446442
-40.996250 -175.841995 80.446442
-20.231350 -188.854004 80.446442
4.015550 -189.776993 80.446442
25.661551 -178.412994 80.446442
38.958549 -157.391006 80.446442
39.923550 -132.291000 80.446442
28.250549 -110.261002 80.446442
7.485550 -97.250000 80.446442
-16.761450 -96.325996 80.446442
-38.408150 -107.690002 80.446442
-51.704552 -128.712997 80.446442
28.582550 -209.369995 -91.385551
24.003550 -200.296005 -81.230759
112.235550 149.052994 80.446442
112.235550 149.052994 -91.385551
112.714546 150.317993 -91.385551
112.714546 150.317993 80.446442
39.923550 -132.291000 80.446442
38.958549 -157.391006 80.446442
25.661551 -178.412994 80.446442
4.015550 -189.776993 80.446442
-20.231350 -188.854004 80.446442
-40.996250 -175.841995 80.446442
-52.669651 -153.811996 80.446442
-51.704552 -128.712997 80.446442
-38.408150 -107.690002 80.446442
-16.761450 -96.325996 80.446442
7.485550 -97.250000 80.446442
28.250549 -110.261002 80.446442
110.965553 232.292999 -91.385551
110.564552 232.503006 -91.385551
110.140549 232.664001 -91.385551
110.140549 232.664001 80.446442
110.564552 232.503006 80.446442
110.965553 232.292999 80.446442
111.338547 232.035995 80.446442
111.978554 231.395996 80.446442
111.978554 231.395996 -91.385551
111.338547 232.035995 -91.385551
-56.320148 -89.492996 -91.385551
-56.320148 -89.492996 -93.267448
-52.669651 -153.811996 80.446442
-52.669651 -153.811996 -81.230759
-60.019249 -238.919006 90.996445
-57.544849 -234.774002 81.607445
28.250549 -110.261002 -81.230759
7.485550 -97.250000 -81.230759
7.485550 -97.250000 80.446442
28.250549 -110.261002 80.446442
56.716549 -183.311005 -91.385551
56.716549 -183.311005 -93.267448
58.065552 -234.483994 81.607445
103.442551 -191.658997 81.607445
126.757553 -130.608002 81.607445
103.180550 -191.862000 81.607445
57.628551 -234.651001 81.607445
29.652550 -246.042007 81.607445
130.599548 253.819000 93.267448
121.793549 -164.134995 93.267448
131.612549 -131.244003 93.267448
-60.019249 -238.919006 90.996445
-60.019249 -238.919006 93.267448
-113.622543 147.572998 80.446442
110.564552 147.572998 80.446442
112.235550 149.052994 80.446442
112.714546 150.317993 80.446442
112.606552 230.197998 80.446442
111.978554 231.395996 80.446442
110.140549 232.664001 80.446442
-113.198853 232.664001 80.446442
-114.396683 232.035995 80.446442
-115.503731 230.621994 80.446442
-115.772102 150.317993 80.446442
-115.293404 149.052994 80.446442
-45.445450 -206.537003 -93.267448
-45.445450 -206.537003 -91.385551
28.582550 -209.369995 -91.385551
28.582550 -209.369995 -93.267448
112.606552 230.197998 80.446442
112.606552 230.197998 -91.385551
-16.761450 -96.325996 -81.230759
-16.761450 -96.325996 80.446442
25.661551 -178.412994 80.446442
4.015550 -189.776993 80.446442
4.015550 -189.776993 -81.230759
25.661551 -178.412994 -81.230759
-115.664078 230.197998 80.446442
-115.664078 230.197998 -91.385551
-115.772102 229.757996 -91.385551
-115.826210 229.309006 -91.385551
-115.826210 150.768005 -91.385551
-115.826210 150.768005 80.446442
-115.826210 229.309006 80.446442
-115.772102 229.757996 80.446442
-113.622543 147.572998 -91.385551
-113.622543 147.572998 80.446442
-114.396683 148.041000 80.446442
-114.735802 148.341003 80.446442
-114.735802 148.341003 -91.385551
-114.396683 148.041000 -91.385551
-8.810450 -217.871002 -91.385551
-8.810450 -217.871002 -93.267448
0.000550 -254.832001 93.267448
0.000550 -254.832001 90.996445
60.019550 -238.919006 90.996445
60.019550 -238.919006 93.267448
-20.231350 -188.854004 -81.230759
-20.231350 -188.854004 80.446442
-40.996250 -175.841995 80.446442
-40.996250 -175.841995 -81.230759
7.485550 -97.250000 -81.230759
110.564552 147.572998 -91.385551
110.564552 147.572998 80.446442
110.564552 147.572998 -91.385551
-113.622543 147.572998 -91.385551
-115.293404 149.052994 -91.385551
-115.772102 150.317993 -91.385551
-115.503731 230.621994 -91.385551
-114.396683 232.035995 -91.385551
-113.198853 232.664001 -91.385551
110.140549 232.664001 -91.385551
111.978554 231.395996 -91.385551
112.606552 230.197998 -91.385551
112.714546 150.317993 -91.385551
112.235550 149.052994 -91.385551
109.700546 147.304993 -91.385551
110.140549 147.412994 -91.385551
110.140549 147.412994 80.446442
109.700546 147.304993 80.446442
109.251549 147.251007 80.446442
-112.309120 147.251007 80.446442
-112.758904 147.304993 80.446442
-113.198853 147.412994 80.446442
-113.198853 147.412994 -91.385551
-112.758904 147.304993 -91.385551
-112.309120 147.251007 -91.385551
109.251549 147.251007 -91.385551
-113.198853 232.664001 -91.385551
-113.198853 232.664001 80.446442
-103.180450 -191.862000 81.607445
-126.757149 -130.608002 81.607445
-126.757149 249.977005 81.607445
126.757553 249.977005 81.607445
126.757553 -130.608002 81.607445
103.180550 -191.862000 81.607445
57.628551 -234.651001 81.607445
0.000550 -249.936005 81.607445
-57.628349 -234.651001 81.607445
103.442551 -191.658997 81.607445
58.065552 -234.483994 81.607445
29.652550 -246.042007 81.607445
57.628551 -234.651001 81.607445
103.180550 -191.862000 81.607445
126.757553 -130.608002 81.607445
-103.136147 -192.177002 81.607445
-126.757149 -131.244003 81.607445
-126.757149 -130.608002 81.607445
-103.180450 -191.862000 81.607445
-57.628349 -234.651001 81.607445
-7.464450 -248.960007 81.607445
-57.544849 -234.774002 81.607445
39.923550 -132.291000 80.446442
39.923550 -132.291000 -81.230759
126.757553 249.977005 81.607445
-126.757149 249.977005 81.607445
-126.757149 -130.608002 81.607445
-103.180450 -191.862000 81.607445
-57.628349 -234.651001 81.607445
0.000550 -249.936005 81.607445
57.628551 -234.651001 81.607445
103.180550 -191.862000 81.607445
126.757553 -130.608002 81.607445
38.958549 -157.391006 80.446442
38.958549 -157.391006 -81.230759
-103.136147 -192.177002 81.607445
-57.544849 -234.774002 81.607445
-7.464450 -248.960007 81.607445
-57.628349 -234.651001 81.607445
-103.180450 -191.862000 81.607445
-126.757149 -130.608002 81.607445
-126.757149 -131.244003 81.607445
131.612549 -131.244003 90.996445
126.757553 -130.608002 81.607445
126.757553 249.977005 81.607445
131.612549 -131.244003 90.996445
126.757553 249.977005 81.607445
131.612549 254.832001 90.996445
131.612549 -131.244003 93.267448
131.612549 -131.244003 90.996445
130.599548 253.819000 93.267448
85.954552 -219.832993 93.267448
122.744553 -164.501007 93.267448
85.257553 -219.089005 93.267448
30.582550 -249.811996 93.267448
0.000550 -253.811005 93.267448
-59.520351 -238.029007 93.267448
-106.397324 -194.007004 93.267448
-130.599243 -131.112000 93.267448
-130.599243 253.819000 93.267448
-131.612549 254.832001 93.267448
-131.612549 -131.244003 93.267448
-107.245628 -194.572998 93.267448
-60.019249 -238.919006 93.267448
0.000550 -254.832001 93.267448
30.842550 -250.800003 93.267448
131.612549 254.832001 90.996445
126.757553 249.977005 81.607445
-131.612549 254.832001 90.996445
130.599548 253.819000 93.267448
131.612549 -131.244003 90.996445
131.612549 254.832001 90.996445
130.599548 253.819000 93.267448
-131.612549 254.832001 90.996445
-131.612549 254.832001 93.267448
126.757553 249.977005 81.607445
-126.757149 249.914993 81.607445
-131.612549 254.832001 90.996445
131.612549 254.832001 90.996445
-131.612549 254.832001 90.996445
130.599548 253.819000 93.267448
-107.245628 -194.572998 90.996445
-103.136147 -192.177002 81.607445
107.246552 -194.572998 93.267448
107.246552 -194.572998 90.996445
131.612549 -131.244003 93.267448
131.612549 -131.244003 90.996445
-131.612549 -131.244003 90.996445
-126.757149 -131.244003 81.607445
130.599548 -131.112000 93.267448
130.599548 253.819000 93.267448
-130.599243 253.819000 93.267448
-130.599243 -131.112000 93.267448
-106.397324 -194.007004 93.267448
-59.520351 -238.029007 93.267448
0.000550 -253.811005 93.267448
59.520550 -238.029007 93.267448
106.397552 -194.007004 93.267448
4 0 1 2 3
4 4 5 6 7
4 8 9 10 11
4 12 13 14 15
4 16 17 18 19
4 20 21 22 23
4 24 25 26 27
4 28 29 30 31
4 32 33 34 35
4 3 2 27 26
4 18 36 37 19
4 38 39 40 41
4 42 43 44 45
4 46 47 48 49
4 16 50 51 17
4 52 53 54 55
4 21 20 44 43
4 56 57 58 59
4 22 60 61 23
26 62 63 64 65 66 67 68 69 70 71 72 73 74 75 76 77 78 79 80 81 82 83 84 85 86 87
4 88 89 90 91
4 92 93 94 95
14 96 97 98 99 100 101 102 103 104 105 106 107 108 109
4 110 8 11 111
14 112 113 114 115 116 117 118 119 120 121 122 123 124 125
12 126 127 128 129 130 131 132 133 134 135 136 137
4 138 139 7 6
4 140 141 142 143
12 144 145 146 147 148 149 150 151 152 153 154 155
10 156 157 158 159 160 161 162 163 164 165
4 9 166 167 10
4 168 32 35 169
4 51 50 61 60
4 170 171 25 24
4 172 173 174 175
4 93 176 177 94
6 178 179 180 181 182 183
4 39 92 95 40
3 184 185 186
4 187 188 91 90
12 189 190 191 192 193 194 195 196 197 198 199 200
4 201 202 110 111
4 203 204 177 176
4 205 206 164 163
4 38 41 31 30
4 174 173 207 208
4 209 210 211 212
12 213 49 48 214 215 216 217 14 13 218 219 220
8 221 222 223 224 12 15 225 226
4 227 228 204 203
4 229 230 231 232
4 233 234 235 236
5 65 64 78 77 237
4 45 139 138 42
4 235 168 169 236
4 238 141 140 239
12 240 241 242 243 244 245 246 247 248 249 250 251
16 252 253 238 239 254 255 256 257 258 259 222 221 260 261 262 263
4 264 47 46 265
4 158 264 265 159
9 266 267 268 269 270 271 272 273 274
4 29 28 167 166
4 202 201 228 227
6 275 276 277 278 279 280
7 281 282 283 284 285 286 287
4 175 288 289 172
4 207 34 33 208
9 290 291 292 293 294 295 296 297 298
4 299 209 212 300
7 301 302 303 304 305 306 307
4 5 4 37 36
3 308 309 310
3 311 312 313
3 314 315 316
18 317 318 186 185 319 320 321 322 323 324 325 184 326 327 328 329 330 331
3 332 333 334
3 335 336 337
4 299 300 289 288
4 210 234 233 211
3 338 339 340
4 188 187 230 229
3 341 342 343
3 344 345 346
4 347 348 171 170
4 349 232 231 350
4 351 349 350 352
4 353 354 348 347
9 355 356 357 358 359 360 361 362 363
4 143 142 206 205
