ply
format ascii 1.0
comment Created by Blender 2.82 (sub 7) - www.blender.org, source file: ''
element vertex 240
property float x
property float y
property float z
element face 59
property list uchar uint vertex_indices
end_header
-21.653561 43.307049 14.566950
-21.653561 43.307049 13.779550
21.653561 43.307049 13.779550
21.653561 43.307049 14.566950
-21.653561 -43.307049 13.779550
-21.653561 43.307049 13.779550
-21.653561 43.307049 14.566950
-21.653561 -43.307049 14.566950
11.811039 -14.955650 13.779550
11.811039 -14.955650 12.992150
-11.810960 -14.955650 12.992150
-11.810960 -14.955650 13.779550
-11.810960 -15.743050 13.779550
-11.810960 -14.955650 13.779550
-11.810960 -14.955650 12.992150
-11.810960 -15.743050 12.992150
11.811039 -18.439550 10.163850
11.811039 -17.872850 11.045850
11.811039 -16.692650 11.597650
11.811039 16.952690 11.548350
11.811039 17.872829 11.045850
11.811039 18.439590 10.163850
11.811039 20.272091 -14.566950
11.811039 21.653549 -14.566950
11.811039 19.623541 11.787250
11.811039 18.951281 12.591750
11.811039 17.711531 12.992150
11.811039 -17.711550 12.992150
11.811039 -18.727350 12.732850
11.811039 -19.623550 11.787250
11.811039 -21.653549 -14.566950
11.811039 -20.272051 -14.566950
11.811039 20.272091 -14.566950
-11.810960 20.272091 -14.566950
-11.810960 21.653549 -14.566950
11.811039 21.653549 -14.566950
11.811039 15.743020 13.779550
11.811039 15.743020 12.992150
-11.810960 15.743020 12.992150
-11.810960 15.743020 13.779550
11.811039 18.211611 10.640450
11.811039 17.872829 11.045850
-11.810960 17.872829 11.045850
-11.810960 18.211611 10.640450
11.811039 18.235729 12.926250
11.811039 18.487591 12.844950
11.811039 18.727360 12.732850
11.811039 18.951281 12.591750
-11.810960 18.951281 12.591750
-11.810960 18.727360 12.732850
-11.810960 18.487591 12.844950
-11.810960 18.235729 12.926250
-11.810960 17.711531 12.992150
11.811039 17.711531 12.992150
11.811039 15.743020 12.992150
11.811039 14.955620 12.992150
11.811039 -14.955650 12.992150
11.811039 -15.743050 12.992150
-11.810960 15.743020 13.779550
-21.653561 43.307049 13.779550
21.653561 43.307049 13.779550
21.653561 -43.307049 13.779550
-21.653561 -43.307049 13.779550
-11.810960 -15.743050 13.779550
11.811039 -15.743050 13.779550
11.811039 -14.955650 13.779550
-11.810960 -14.955650 13.779550
-11.810960 14.955620 13.779550
11.811039 14.955620 13.779550
11.811039 15.743020 13.779550
11.811039 15.743020 13.779550
11.811039 14.955620 13.779550
21.653561 -43.307049 13.779550
21.653561 43.307049 13.779550
-21.653561 43.307049 13.779550
-21.653561 -43.307049 13.779550
-11.810960 -14.955650 13.779550
-11.810960 14.955620 13.779550
-11.810960 15.743020 13.779550
11.811039 18.542620 9.645650
11.811039 18.507311 9.907950
11.811039 18.439590 10.163850
-11.810960 18.439590 10.163850
-11.810960 18.507311 9.907950
-11.810960 18.542620 9.645650
21.653561 -43.307049 13.779550
21.653561 -43.307049 14.566950
-21.653561 -43.307049 14.566950
-21.653561 -43.307049 13.779550
-11.810960 14.955620 13.779550
11.811039 14.955620 13.779550
11.811039 15.743020 13.779550
-11.810960 15.743020 13.779550
11.811039 -21.653549 -14.566950
11.811039 -19.825649 11.023550
-11.810960 -19.825649 11.023550
-11.810960 -21.653549 -14.566950
-21.653561 -43.307049 14.566950
21.653561 -43.307049 14.566950
21.653561 43.307049 14.566950
-21.653561 43.307049 14.566950
11.811039 14.955620 12.992150
11.811039 14.955620 13.779550
-11.810960 14.955620 13.779550
-11.810960 14.955620 12.992150
-11.810960 -19.623550 11.787250
-11.810960 -18.727350 12.732850
-11.810960 -17.711550 12.992150
-11.810960 17.711531 12.992150
-11.810960 18.951281 12.591750
-11.810960 19.623541 11.787250
-11.810960 21.653549 -14.566950
-11.810960 20.272091 -14.566950
-11.810960 18.439590 10.163850
-11.810960 17.872829 11.045850
-11.810960 16.952690 11.548350
-11.810960 -16.692650 11.597650
-11.810960 -17.872850 11.045850
-11.810960 -18.439550 10.163850
-11.810960 -20.272051 -14.566950
-11.810960 -21.653549 -14.566950
-11.810960 17.444321 11.354850
-11.810960 17.668240 11.213750
11.811039 17.668240 11.213750
11.811039 17.444321 11.354850
11.811039 17.204559 11.466950
11.811039 16.952690 11.548350
-11.810960 16.952690 11.548350
-11.810960 17.204559 11.466950
11.811039 20.272091 -14.566950
11.811039 18.542620 9.645650
-11.810960 18.542620 9.645650
-11.810960 20.272091 -14.566950
11.811039 -14.955650 13.779550
11.811039 -17.711550 12.992150
-11.810960 -17.711550 12.992150
-11.810960 -18.727350 12.732850
11.811039 -18.727350 12.732850
-11.810960 16.428490 11.614150
11.811039 16.428490 11.614150
-11.810960 -17.711550 12.992150
11.811039 -17.711550 12.992150
11.811039 -15.743050 12.992150
-11.810960 -15.743050 12.992150
21.653561 43.307049 13.779550
21.653561 -43.307049 13.779550
21.653561 -43.307049 14.566950
21.653561 43.307049 14.566950
11.811039 -18.542650 9.645650
-11.810960 -18.542650 9.645650
-11.810960 -18.439550 10.163850
11.811039 -18.439550 10.163850
-21.653561 43.307049 14.566950
21.653561 43.307049 14.566950
21.653561 -43.307049 14.566950
-21.653561 -43.307049 14.566950
-11.810960 -17.872850 11.045850
11.811039 -17.872850 11.045850
11.811039 -18.542650 9.645650
11.811039 -20.272051 -14.566950
-11.810960 -20.272051 -14.566950
-11.810960 -18.542650 9.645650
-11.810960 -14.955650 12.992150
11.811039 -14.955650 12.992150
11.811039 14.955620 12.992150
-11.810960 14.955620 12.992150
11.811039 19.623541 11.787250
11.811039 19.825649 11.023550
-11.810960 19.825649 11.023550
-11.810960 19.623541 11.787250
-11.810960 15.743020 12.992150
11.811039 15.743020 12.992150
11.811039 17.711531 12.992150
-11.810960 17.711531 12.992150
11.811039 -14.955650 13.779550
11.811039 -15.743050 13.779550
-11.810960 14.955620 13.779550
-11.810960 15.743020 13.779550
-11.810960 15.743020 12.992150
-11.810960 14.955620 12.992150
11.811039 -15.743050 12.992150
11.811039 -15.743050 13.779550
-11.810960 -15.743050 13.779550
-11.810960 -15.743050 12.992150
-11.810960 -15.743050 13.779550
11.811039 -15.743050 13.779550
11.811039 -14.955650 13.779550
-11.810960 -14.955650 13.779550
11.811039 19.825649 11.023550
11.811039 21.653549 -14.566950
-11.810960 21.653549 -14.566950
-11.810960 19.825649 11.023550
-11.810960 -17.668249 11.213750
-11.810960 -17.444349 11.354850
-11.810960 -17.204550 11.466950
-11.810960 -16.952650 11.548350
11.811039 -16.952650 11.548350
11.811039 -17.204550 11.466950
11.811039 -17.444349 11.354850
11.811039 -17.668249 11.213750
21.653561 43.307049 14.566950
21.653561 43.307049 13.779550
-21.653561 43.307049 13.779550
-21.653561 43.307049 14.566950
11.811039 -21.653549 -14.566950
-11.810960 -21.653549 -14.566950
-11.810960 -20.272051 -14.566950
11.811039 -20.272051 -14.566950
11.811039 15.743020 13.779550
11.811039 14.955620 13.779550
21.653561 43.307049 14.566950
21.653561 -43.307049 14.566950
21.653561 -43.307049 13.779550
21.653561 43.307049 13.779550
-21.653561 -43.307049 13.779550
-21.653561 -43.307049 14.566950
21.653561 -43.307049 14.566950
21.653561 -43.307049 13.779550
11.811039 -19.623550 11.787250
-11.810960 -19.623550 11.787250
-11.810960 -19.825649 11.023550
11.811039 -19.825649 11.023550
11.811039 -15.743050 13.779550
-11.810960 -15.743050 13.779550
11.811039 -16.428450 11.614150
-11.810960 -16.428450 11.614150
-11.810960 16.428490 11.614150
11.811039 16.428490 11.614150
11.811039 -19.337950 12.231650
11.811039 -18.951250 12.591750
-11.810960 -18.951250 12.591750
-11.810960 -19.337950 12.231650
-11.810960 -19.494650 12.018350
11.811039 -19.494650 12.018350
-11.810960 -16.428450 11.614150
11.811039 -16.428450 11.614150
-21.653561 -43.307049 14.566950
-21.653561 43.307049 14.566950
-21.653561 43.307049 13.779550
-21.653561 -43.307049 13.779550
4 0 1 2 3
4 4 5 6 7
4 8 9 10 11
4 12 13 14 15
16 16 17 18 19 20 21 22 23 24 25 26 27 28 29 30 31
4 32 33 34 35
4 36 37 38 39
4 40 41 42 43
10 44 45 46 47 48 49 50 51 52 53
3 27 26 54
3 27 54 55
3 27 55 56
3 27 56 57
12 58 59 60 61 62 63 64 65 66 67 68 69
9 70 71 72 73 74 75 76 77 78
8 79 80 81 40 43 82 83 84
4 85 86 87 88
4 89 90 91 92
4 93 94 95 96
4 97 98 99 100
4 101 102 103 104
16 105 106 107 108 109 110 111 112 113 114 115 116 117 118 119 120
10 121 122 42 41 123 124 125 126 127 128
4 129 130 131 132
5 76 133 72 71 77
4 134 135 136 137
4 138 127 126 139
4 140 141 142 143
4 144 145 146 147
4 148 149 150 151
4 152 153 154 155
4 151 150 156 157
4 158 159 160 161
4 162 163 164 165
4 166 167 168 169
4 170 171 172 173
4 174 175 57 56
4 176 177 178 179
4 180 181 182 183
4 184 185 186 187
4 188 189 190 191
4 166 169 48 47
10 192 193 194 195 196 197 198 199 157 156
3 108 107 15
3 108 15 14
3 108 14 179
3 108 179 178
4 200 201 202 203
4 204 205 206 207
4 208 209 55 54
4 210 211 212 213
4 214 215 216 217
4 218 219 220 221
6 222 223 76 75 72 133
6 58 67 66 63 62 59
4 224 225 226 227
10 228 229 137 136 230 231 232 219 218 233
4 195 234 235 196
4 236 237 238 239
