ply
format ascii 1.0
comment Created by Blender 2.82 (sub 7) - www.blender.org, source file: ''
element vertex 1005
property float x
property float y
property float z
element face 243
property list uchar uint vertex_indices
end_header
-8.976380 16.607691 -1.033450
-8.976380 16.594500 -0.984230
-8.464570 16.594500 -0.984230
-8.464570 16.607691 -1.033450
-8.464570 -16.667419 -0.889160
-8.464570 -16.718420 -0.889160
-8.464570 -16.762520 -0.914640
-8.464570 -16.788019 -0.958760
-8.464570 -16.791321 -0.984230
-8.464570 -16.594521 -0.984230
-8.464570 -16.607620 -0.935020
-8.464570 -16.643721 -0.899000
8.976420 16.778168 -0.935020
8.976420 16.791353 -0.984230
8.464520 16.791353 -0.984230
8.464520 16.778168 -0.935020
-8.976380 -17.519621 -0.984230
-8.976380 -17.519621 -0.511790
8.976420 -17.519621 -0.511790
8.976420 -17.519621 -0.984230
-8.464570 16.594500 -0.984230
-8.976380 16.594500 -0.984230
-8.976380 16.791353 -0.984230
-8.464570 16.791353 -0.984230
8.464520 -16.643721 -0.899000
8.976420 -16.643721 -0.899000
8.976420 -16.667419 -0.889160
8.464520 -16.667419 -0.889160
8.464520 16.607691 -1.033450
8.464520 16.594500 -0.984230
8.464520 16.607691 -0.935020
8.464520 16.623329 -0.914640
8.464520 16.667450 -0.889160
8.464520 16.718403 -0.889160
8.464520 16.762526 -0.914640
8.464520 16.778168 -0.935020
8.464520 16.791353 -0.984230
8.464520 16.778168 -1.033450
8.464520 16.762526 -1.053830
8.464520 16.718403 -1.079310
8.464520 16.667450 -1.079310
8.464520 16.623329 -1.053830
-8.976380 16.718403 -1.079310
-8.976380 16.762526 -1.053830
-8.464570 16.762526 -1.053830
-8.464570 16.718403 -1.079310
-8.976380 -16.594521 -0.984230
-8.976380 -16.607620 -1.033450
-8.464570 -16.607620 -1.033450
-8.464570 -16.594521 -0.984230
-8.464570 -16.607620 -0.935020
-8.464570 -16.643721 -0.899000
-8.976380 -16.643721 -0.899000
-8.976380 -16.607620 -0.935020
8.976420 16.623329 -1.053830
8.976420 16.607691 -1.033450
8.464520 16.607691 -1.033450
8.464520 16.623329 -1.053830
10.944920 17.677179 -8.858250
8.976420 17.677179 -8.858250
8.976420 15.708680 -8.858250
10.944920 15.708680 -8.858250
10.944920 -15.708620 -8.858250
8.976420 -15.708620 -8.858250
8.976420 -17.677120 -8.858250
10.944920 -17.677120 -8.858250
-8.976380 16.667450 -0.889160
-8.464570 16.667450 -0.889160
-8.464570 16.623329 -0.914640
-8.976380 16.623329 -0.914640
-8.976380 -17.677120 -8.858250
-8.976380 -17.677120 6.889750
-10.944880 -17.677120 6.889750
-10.944880 -17.677120 -8.858250
8.976420 16.791353 -0.984230
-8.976380 16.791353 -0.984230
-8.976380 17.519699 -0.984230
8.976420 17.519699 -0.984230
-8.976380 -16.667419 -0.889160
-8.464570 -16.667419 -0.889160
-8.464570 -16.718420 -0.889160
-8.976380 -16.718420 -0.889160
-8.976380 -16.643721 -1.069470
-8.976380 -16.667419 -1.079310
-8.976380 -16.718420 -1.079310
-8.976380 -16.762520 -1.053830
-8.976380 -16.788019 -1.009710
-8.976380 -16.791321 -0.984230
-8.976380 -17.677120 -8.858250
-8.976380 -15.708620 -8.858250
-8.976380 -15.708620 6.889750
-8.976380 -17.677120 6.889750
-8.976380 -16.788019 -0.958760
-8.976380 -16.762520 -0.914640
-8.976380 -16.718420 -0.889160
-8.976380 -16.667419 -0.889160
-8.976380 -16.643721 -0.899000
-8.976380 -16.607620 -0.935020
-8.976380 -16.597820 -0.958760
-8.976380 -16.597820 -1.009710
-8.976380 -16.607620 -1.033450
8.976420 16.791353 -0.984230
8.464520 16.791353 -0.984230
8.464520 16.594500 -0.984230
8.976420 16.594500 -0.984230
-8.976380 -17.519621 -0.511790
8.976420 -17.519621 -0.511790
8.976420 17.519699 -0.511790
-8.976380 17.519699 -0.511790
8.976420 -16.594521 -0.984230
8.464520 -16.594521 -0.984230
8.464520 -16.607620 -0.935020
8.976420 -16.607620 -0.935020
8.976420 -16.788019 -0.958760
8.976420 -16.791321 -0.984230
8.976420 -16.594521 -0.984230
8.976420 -16.607620 -0.935020
8.976420 -16.643721 -0.899000
8.976420 -16.667419 -0.889160
8.976420 -16.718420 -0.889160
8.976420 -16.762520 -0.914640
-8.464570 -16.643721 -1.069470
-8.976380 -16.643721 -1.069470
-8.976380 -16.607620 -1.033450
-8.464570 -16.607620 -1.033450
8.976420 16.778168 -1.033450
8.976420 16.762526 -1.053830
8.464520 16.762526 -1.053830
8.464520 16.778168 -1.033450
-8.976380 -16.643721 -1.069470
-8.464570 -16.643721 -1.069470
-8.464570 16.623329 -1.053830
-8.464570 16.607691 -1.033450
-8.976380 16.607691 -1.033450
-8.976380 16.623329 -1.053830
8.976420 16.607691 -1.033450
8.976420 16.594500 -0.984230
8.976420 16.607691 -0.935020
8.976420 16.623329 -0.914640
8.976420 15.708680 6.889750
8.976420 15.708680 -8.858250
8.976420 17.677179 -8.858250
-10.944880 15.708680 6.889750
-10.944880 17.677179 6.889750
-10.944880 17.677179 -8.858250
-10.944880 15.708680 -8.858250
-8.976380 17.677179 6.889750
-10.944880 17.677179 6.889750
-10.944880 15.708680 6.889750
-8.976380 15.708680 6.889750
-8.464570 16.667450 -1.079310
-8.976380 16.667450 -1.079310
-8.976380 16.623329 -1.053830
-8.464570 16.623329 -1.053830
-10.944880 17.677179 6.889750
-10.944880 17.677179 -8.858250
-8.976380 17.677179 -8.858250
-8.976380 17.677179 6.889750
-8.464570 16.594500 -0.984230
-8.464570 16.607691 -0.935020
-8.464570 16.623329 -0.914640
-8.464570 16.667450 -0.889160
-8.464570 16.718403 -0.889160
-8.464570 16.762526 -0.914640
-8.464570 16.778168 -0.935020
-8.464570 16.791353 -0.984230
-8.976380 -16.667419 -1.079310
-8.464570 -16.667419 -1.079310
-8.976380 16.607691 -0.935020
-8.464570 16.607691 -0.935020
8.464520 -16.718420 -1.079310
8.464520 -16.762520 -1.053830
8.464520 -16.788019 -1.009710
8.464520 -16.788019 -0.958760
8.464520 -16.762520 -0.914640
8.464520 -16.718420 -0.889160
8.464520 -16.667419 -0.889160
8.464520 -16.643721 -0.899000
8.464520 -16.607620 -0.935020
8.464520 -16.597820 -0.958760
8.464520 -16.597820 -1.009710
8.464520 -16.607620 -1.033450
8.464520 -16.643721 -1.069470
8.464520 -16.667419 -1.079310
8.976420 16.667450 -0.889160
8.464520 16.667450 -0.889160
8.464520 16.718403 -0.889160
8.976420 16.718403 -0.889160
-8.464570 16.718403 -1.079310
-8.976380 16.718403 -1.079310
-8.976380 -16.788019 -0.958760
-8.976380 -16.762520 -0.914640
-8.464570 -16.762520 -0.914640
-8.464570 -16.788019 -0.958760
-10.944880 -15.708620 6.889750
-10.944880 -15.708620 -8.858250
-8.976380 -15.708620 -8.858250
-8.976380 -15.708620 6.889750
8.976420 -16.718420 -0.889160
8.464520 -16.718420 -0.889160
8.464520 16.778168 -1.033450
8.464520 16.762526 -1.053830
8.976420 16.762526 -1.053830
8.976420 16.778168 -1.033450
8.976420 -16.788019 -0.958760
8.976420 -16.762520 -0.914640
8.464520 -16.762520 -0.914640
8.464520 -16.788019 -0.958760
-8.464570 -16.667419 -1.079310
-8.464570 -16.643721 -1.069470
-8.464570 -16.607620 -1.033450
-8.464570 -16.594521 -0.984230
-8.464570 -16.791321 -0.984230
-8.464570 -16.788019 -1.009710
-8.464570 -16.762520 -1.053830
-8.464570 -16.718420 -1.079310
-8.976380 17.519699 -0.511790
-8.976380 17.519699 -0.984230
8.976420 17.519699 -0.984230
8.976420 17.519699 -0.511790
8.464520 -16.643721 -0.899000
8.464520 -16.667419 -0.889160
8.464520 -16.718420 -0.889160
8.464520 -16.762520 -0.914640
8.464520 -16.788019 -0.958760
8.464520 -16.788019 -1.009710
8.464520 -16.762520 -1.053830
8.464520 -16.718420 -1.079310
8.464520 -16.667419 -1.079310
8.464520 -16.643721 -1.069470
8.464520 -16.607620 -1.033450
8.464520 -16.597820 -1.009710
8.464520 -16.597820 -0.958760
8.464520 -16.607620 -0.935020
8.976420 -16.667419 -1.079310
8.464520 -16.667419 -1.079310
8.464520 -16.643721 -1.069470
8.976420 -16.643721 -1.069470
10.944920 -15.708620 6.889750
10.944920 -15.708620 -8.858250
8.976420 -15.708620 -8.858250
8.976420 -15.708620 6.889750
8.976420 -15.708620 6.889750
10.944920 -15.708620 6.889750
10.944920 -17.677120 6.889750
8.976420 -17.677120 6.889750
8.464520 16.623329 -1.053830
8.464520 16.607691 -1.033450
8.976420 16.607691 -1.033450
8.976420 16.623329 -1.053830
8.464520 16.607691 -0.935020
8.464520 16.623329 -0.914640
8.976420 16.623329 -0.914640
8.976420 16.607691 -0.935020
8.976420 -16.718420 -0.889160
8.464520 -16.718420 -0.889160
8.976420 16.778168 -1.033450
8.976420 16.791353 -0.984230
8.976420 16.778168 -0.935020
8.976420 16.762526 -0.914640
8.976420 16.718403 -0.889160
8.976420 17.677179 6.889750
8.976420 17.677179 -8.858250
8.976420 16.742142 -1.069470
8.976420 16.667450 -0.889160
8.976420 16.718403 -0.889160
8.464520 16.718403 -0.889160
8.464520 16.667450 -0.889160
8.976420 -16.718420 -1.079310
8.464520 -16.718420 -1.079310
10.944920 17.677179 6.889750
10.944920 15.708680 6.889750
10.944920 15.708680 -8.858250
10.944920 17.677179 -8.858250
8.976420 -16.667419 -0.889160
8.464520 -16.667419 -0.889160
8.976420 -16.762520 -1.053830
8.976420 -16.788019 -1.009710
8.464520 -16.788019 -1.009710
8.464520 -16.762520 -1.053830
-8.976380 -16.791321 -0.984230
-8.464570 -16.791321 -0.984230
-10.944880 17.677179 6.889750
10.944920 17.677179 6.889750
11.023620 -17.755920 6.889750
11.023620 17.755920 6.889750
-11.023620 17.755920 6.889750
-8.976380 17.677179 6.889750
8.976420 17.677179 6.889750
-8.976380 16.607691 -0.935020
-8.976380 16.594500 -0.984230
-8.976380 16.607691 -1.033450
-8.976380 16.623329 -1.053830
-8.976380 16.667450 -1.079310
-8.976380 16.718403 -1.079310
-8.976380 16.762526 -1.053830
-8.976380 15.708680 -8.858250
-8.976380 15.708680 6.889750
-8.976380 17.677179 6.889750
-8.976380 17.677179 -8.858250
-8.976380 16.787998 -1.009710
-8.976380 16.791353 -0.984230
-8.976380 16.778168 -0.935020
-8.976380 16.762526 -0.914640
-8.976380 16.718403 -0.889160
-8.976380 16.667450 -0.889160
-8.976380 16.623329 -0.914640
-8.976380 -17.677120 6.889750
-10.944880 -17.677120 6.889750
-10.944880 -15.708620 6.889750
-8.976380 15.708680 6.889750
-10.944880 15.708680 6.889750
-11.023620 -17.755920 6.889750
10.944920 15.708680 6.889750
10.944920 -15.708620 6.889750
10.944920 -17.677120 6.889750
8.976420 -17.677120 6.889750
8.976420 -15.708620 6.889750
-8.976380 -15.708620 6.889750
8.976420 -16.718420 -1.079310
8.464520 -16.718420 -1.079310
8.464520 -16.762520 -1.053830
8.976420 -16.762520 -1.053830
8.976420 -16.791321 -0.984230
8.464520 -16.791321 -0.984230
-8.976380 16.762526 -0.914640
-8.464570 16.762526 -0.914640
-8.464570 16.718403 -0.889160
-8.976380 16.718403 -0.889160
8.976420 -15.708620 6.889750
-8.976380 -15.708620 6.889750
10.944920 -15.708620 6.889750
-10.944880 -15.708620 6.889750
8.976420 17.677179 6.889750
-8.976380 17.677179 6.889750
10.944920 17.677179 6.889750
-10.944880 17.677179 6.889750
8.976420 15.708680 6.889750
8.464520 -16.594521 -0.984230
8.976420 -16.594521 -0.984230
8.976420 -16.607620 -0.935020
8.464520 -16.607620 -0.935020
-10.944880 -17.677120 -8.858250
-10.944880 -15.708620 -8.858250
-10.944880 -15.708620 6.889750
-10.944880 -17.677120 6.889750
8.464520 -16.643721 -0.899000
8.976420 -16.643721 -0.899000
11.023620 17.755920 8.858250
11.023620 17.755920 6.889750
-11.023620 17.755920 6.889750
-11.023620 17.755920 8.858250
-11.023620 17.755920 8.858250
11.023620 17.755920 8.858250
11.023620 -17.755920 8.858250
-11.023620 -17.755920 8.858250
8.976420 -17.519621 -0.984230
8.976420 -16.791321 -0.984230
8.464520 -16.791321 -0.984230
8.464520 -16.594521 -0.984230
-8.464570 -16.594521 -0.984230
-8.464570 -16.791321 -0.984230
-8.976380 -16.791321 -0.984230
-8.976380 -17.519621 -0.984230
8.464520 16.594500 -0.984230
8.976420 16.594500 -0.984230
8.976420 -16.594521 -0.984230
-8.976380 -16.594521 -0.984230
-8.976380 16.594500 -0.984230
-8.464570 16.594500 -0.984230
-8.464570 16.791353 -0.984230
8.464520 16.791353 -0.984230
-8.464570 -16.718420 -0.889160
-8.464570 -16.667419 -0.889160
-8.464570 -16.643721 -0.899000
-8.464570 -16.607620 -0.935020
-8.464570 -16.594521 -0.984230
-8.464570 -16.791321 -0.984230
-8.464570 -16.788019 -0.958760
-8.464570 -16.762520 -0.914640
8.976420 -17.519621 -0.984230
8.976420 -17.519621 -0.511790
-8.976380 -17.519621 -0.511790
-8.976380 -17.519621 -0.984230
8.976420 -16.594521 -0.984230
8.464520 -16.594521 -0.984230
8.464520 -16.791321 -0.984230
8.976420 -16.791321 -0.984230
-8.976380 -16.762520 -0.914640
-8.976380 -16.788019 -0.958760
-8.976380 -17.677120 6.889750
-8.976380 -15.708620 6.889750
-8.976380 -15.708620 -8.858250
-8.976380 -17.677120 -8.858250
-8.976380 -16.791321 -0.984230
-8.976380 -16.788019 -1.009710
-8.976380 -16.762520 -1.053830
-8.976380 -16.718420 -1.079310
-8.976380 -16.667419 -1.079310
-8.976380 -16.643721 -1.069470
-8.976380 -16.607620 -1.033450
-8.976380 -16.597820 -1.009710
-8.976380 -16.597820 -0.958760
-8.976380 -16.607620 -0.935020
-8.976380 -16.643721 -0.899000
-8.976380 -16.667419 -0.889160
-8.976380 -16.718420 -0.889160
8.976420 -16.643721 -0.899000
8.976420 -16.607620 -0.935020
8.976420 -16.594521 -0.984230
8.976420 16.594500 -0.984230
8.976420 16.607691 -0.935020
8.976420 16.623329 -0.914640
8.976420 16.667450 -0.889160
8.976420 16.718403 -0.889160
8.976420 16.762526 -0.914640
8.976420 16.778168 -0.935020
8.976420 16.791353 -0.984230
8.976420 17.519699 -0.984230
8.976420 17.519699 -0.511790
8.976420 -17.519621 -0.511790
8.976420 -17.519621 -0.984230
8.976420 -16.791321 -0.984230
8.976420 -16.788019 -0.958760
8.976420 -16.762520 -0.914640
8.976420 -16.718420 -0.889160
8.976420 -16.667419 -0.889160
-8.976380 -15.708620 6.889750
-8.976380 -15.708620 -8.858250
-10.944880 -15.708620 -8.858250
-10.944880 -15.708620 6.889750
8.976420 -16.594521 -0.984230
8.976420 -16.607620 -0.935020
8.976420 -16.643721 -0.899000
8.976420 -16.667419 -0.889160
8.976420 -16.718420 -0.889160
8.976420 -16.762520 -0.914640
8.976420 -16.788019 -0.958760
8.976420 -16.791321 -0.984230
8.976420 -17.519621 -0.984230
8.976420 -17.519621 -0.511790
8.976420 17.519699 -0.511790
8.976420 17.519699 -0.984230
8.976420 16.791353 -0.984230
8.976420 16.778168 -0.935020
8.976420 16.762526 -0.914640
8.976420 16.718403 -0.889160
8.976420 16.667450 -0.889160
8.976420 16.623329 -0.914640
8.976420 16.607691 -0.935020
8.976420 16.594500 -0.984230
-8.464570 -16.667419 -0.889160
-8.976380 -16.667419 -0.889160
-8.976380 -16.718420 -0.889160
-8.464570 -16.718420 -0.889160
8.976420 16.791353 -0.984230
8.464520 16.791353 -0.984230
8.464520 -16.607620 -1.033450
8.464520 -16.643721 -1.069470
8.976420 -16.643721 -1.069470
8.976420 -16.607620 -1.033450
-8.976380 -16.594521 -0.984230
-8.464570 -16.594521 -0.984230
8.464520 -16.791321 -0.984230
8.464520 -16.788019 -0.958760
8.976420 -16.788019 -0.958760
8.976420 -16.791321 -0.984230
-8.976380 16.623329 -0.914640
-8.976380 16.667450 -0.889160
-8.976380 16.718403 -0.889160
-8.976380 16.762526 -0.914640
-8.976380 16.778168 -0.935020
-8.976380 16.791353 -0.984230
-8.976380 17.519699 -0.984230
-8.976380 17.519699 -0.511790
-8.976380 -17.519621 -0.511790
-8.976380 -17.519621 -0.984230
-8.976380 -16.791321 -0.984230
-8.976380 -16.788019 -0.958760
-8.976380 -16.762520 -0.914640
-8.976380 -16.718420 -0.889160
-8.976380 -16.667419 -0.889160
-8.976380 -16.643721 -0.899000
-8.976380 -16.607620 -0.935020
-8.976380 -16.594521 -0.984230
-8.976380 16.594500 -0.984230
-8.976380 16.607691 -0.935020
8.464520 -16.788019 -1.009710
8.464520 -16.791321 -0.984230
8.976420 -16.791321 -0.984230
8.976420 -16.788019 -1.009710
8.976420 17.519699 -0.511790
8.976420 17.519699 -0.984230
-8.976380 17.519699 -0.984230
-8.976380 17.519699 -0.511790
-8.464570 16.791353 -0.984230
-8.464570 16.778168 -1.033450
-8.976380 16.778168 -1.033450
-8.976380 16.791353 -0.984230
8.464520 16.762526 -0.914640
8.464520 16.778168 -0.935020
8.976420 16.778168 -0.935020
8.976420 16.762526 -0.914640
-8.464570 16.718403 -0.889160
-8.976380 16.718403 -0.889160
-8.976380 16.667450 -0.889160
-8.464570 16.667450 -0.889160
-8.464570 16.762526 -0.914640
-8.464570 16.778168 -0.935020
-8.976380 16.778168 -0.935020
-8.976380 16.762526 -0.914640
8.976420 16.594500 -0.984230
8.464520 16.594500 -0.984230
8.464520 16.791353 -0.984230
8.976420 16.791353 -0.984230
-8.976380 -16.643721 -0.899000
-8.976380 -16.667419 -0.889160
-8.976380 -16.718420 -0.889160
-8.976380 -16.762520 -0.914640
-8.976380 -16.788019 -0.958760
-8.976380 -16.791321 -0.984230
-8.976380 -16.594521 -0.984230
-8.976380 -16.607620 -0.935020
8.976420 -16.718420 -0.889160
8.976420 -16.667419 -0.889160
8.976420 -16.643721 -0.899000
8.976420 -16.607620 -0.935020
8.976420 -16.594521 -0.984230
8.976420 -16.791321 -0.984230
8.976420 -16.788019 -0.958760
8.976420 -16.762520 -0.914640
8.976420 16.607691 -0.935020
8.976420 16.623329 -0.914640
8.464520 16.623329 -0.914640
8.464520 16.607691 -0.935020
-8.464570 -16.643721 -0.899000
-8.976380 -16.643721 -0.899000
-8.976380 -16.718420 -0.889160
-8.976380 -16.667419 -0.889160
-8.976380 -16.643721 -0.899000
-8.976380 -16.607620 -0.935020
-8.976380 -16.594521 -0.984230
-8.976380 -16.791321 -0.984230
-8.976380 -16.788019 -0.958760
-8.976380 -16.762520 -0.914640
8.976420 16.762526 -0.914640
8.464520 16.762526 -0.914640
-8.464570 16.594500 -0.984230
-8.976380 16.594500 -0.984230
8.976420 -15.708620 6.889750
8.976420 -15.708620 -8.858250
10.944920 -15.708620 -8.858250
10.944920 -15.708620 6.889750
-8.464570 -16.718420 -1.079310
-8.976380 -16.718420 -1.079310
-8.976380 -16.667419 -1.079310
-8.464570 -16.667419 -1.079310
10.944920 17.677179 6.889750
8.976420 17.677179 6.889750
8.976420 15.708680 6.889750
10.944920 15.708680 6.889750
-8.976380 16.667450 -1.079310
-8.464570 16.667450 -1.079310
-8.464570 -16.594521 -0.984230
-8.976380 -16.594521 -0.984230
8.464520 -16.667419 -1.079310
8.976420 -16.667419 -1.079310
10.944920 15.708680 -8.858250
10.944920 15.708680 6.889750
8.976420 15.708680 6.889750
8.976420 15.708680 -8.858250
-8.464570 -16.788019 -1.009710
-8.976380 -16.788019 -1.009710
-8.976380 -16.762520 -1.053830
-8.464570 -16.762520 -1.053830
8.976420 16.594500 -0.984230
8.464520 16.594500 -0.984230
10.944920 17.677179 -8.858250
10.944920 15.708680 -8.858250
10.944920 15.708680 6.889750
10.944920 17.677179 6.889750
-8.464570 -16.607620 -0.935020
-8.976380 -16.607620 -0.935020
8.464520 16.718403 -1.079310
8.976420 16.718403 -1.079310
8.976420 16.667450 -1.079310
8.464520 16.667450 -1.079310
8.976420 -16.607620 -1.033450
8.464520 -16.607620 -1.033450
8.976420 16.667450 -0.889160
8.976420 16.718403 -0.889160
8.976420 16.762526 -0.914640
8.976420 16.778168 -0.935020
8.976420 16.791353 -0.984230
8.976420 16.778168 -1.033450
8.976420 16.762526 -1.053830
8.976420 16.718403 -1.079310
8.976420 16.667450 -1.079310
8.976420 16.623329 -1.053830
8.976420 17.677179 6.889750
-8.464570 16.607691 -1.033450
-8.464570 16.623329 -1.053830
-8.464570 16.667450 -1.079310
-8.464570 16.718403 -1.079310
-8.464570 16.762526 -1.053830
-8.464570 16.778168 -1.033450
-8.464570 16.791353 -0.984230
-8.464570 16.594500 -0.984230
10.944920 15.708680 -8.858250
8.976420 15.708680 -8.858250
8.976420 17.677179 -8.858250
10.944920 17.677179 -8.858250
-8.976380 17.677179 -8.858250
-10.944880 17.677179 -8.858250
-10.944880 15.708680 -8.858250
-8.976380 15.708680 -8.858250
-8.976380 17.677179 6.889750
-8.976380 17.677179 -8.858250
-10.944880 17.677179 -8.858250
-10.944880 17.677179 6.889750
-8.976380 16.791353 -0.984230
-8.976380 16.778168 -1.033450
-8.464570 16.778168 -1.033450
-8.464570 16.791353 -0.984230
8.464520 -16.762520 -0.914640
8.976420 -16.762520 -0.914640
-8.976380 15.708680 -8.858250
-8.976380 15.708680 6.889750
-10.944880 15.708680 6.889750
-10.944880 15.708680 -8.858250
-8.464570 -16.594521 -0.984230
-8.976380 -16.594521 -0.984230
-8.976380 15.708680 6.889750
-10.944880 15.708680 6.889750
-10.944880 17.677179 6.889750
-8.976380 17.677179 6.889750
-8.976380 16.594500 -0.984230
-8.464570 16.594500 -0.984230
-10.944880 -17.677120 6.889750
-8.976380 -17.677120 6.889750
-8.976380 -15.708620 6.889750
-10.944880 -15.708620 6.889750
-8.464570 16.607691 -0.935020
-8.464570 16.623329 -0.914640
-8.976380 16.623329 -0.914640
-8.976380 16.607691 -0.935020
8.976420 -17.677120 6.889750
10.944920 -17.677120 6.889750
-8.976380 15.708680 6.889750
8.976420 15.708680 6.889750
10.944920 15.708680 6.889750
-11.023620 17.755920 6.889750
11.023620 17.755920 6.889750
11.023620 -17.755920 6.889750
-11.023620 -17.755920 6.889750
-10.944880 -17.677120 6.889750
-8.976380 -17.677120 6.889750
-10.944880 -15.708620 6.889750
-8.976380 -15.708620 6.889750
-8.976380 -17.677120 6.889750
-10.944880 -17.677120 6.889750
-8.464570 16.791353 -0.984230
-8.464570 16.778168 -1.033450
-8.464570 16.762526 -1.053830
-8.464570 16.718403 -1.079310
-8.464570 16.667450 -1.079310
-8.464570 16.623329 -1.053830
-8.464570 16.607691 -1.033450
-8.464570 16.594500 -0.984230
8.464520 -16.594521 -0.984230
8.976420 -16.594521 -0.984230
-10.944880 15.708680 6.889750
8.464520 16.594500 -0.984230
8.976420 16.594500 -0.984230
-10.944880 -17.677120 6.889750
-10.944880 -15.708620 6.889750
-10.944880 -15.708620 -8.858250
-10.944880 -17.677120 -8.858250
-8.464570 -16.788019 -0.958760
-8.464570 -16.762520 -0.914640
-8.976380 -16.762520 -0.914640
-8.976380 -16.788019 -0.958760
-8.976380 16.762526 -1.053830
-8.464570 16.762526 -1.053830
-10.944880 -17.677120 -8.858250
-10.944880 -17.677120 6.889750
-8.976380 -17.677120 6.889750
-8.976380 -17.677120 -8.858250
-8.976380 -16.718420 -1.079310
-8.464570 -16.718420 -1.079310
8.976420 16.718403 -1.079310
8.464520 16.718403 -1.079310
8.464520 16.667450 -1.079310
8.976420 16.667450 -1.079310
-11.023620 -17.755920 6.889750
-11.023620 17.755920 6.889750
-11.023620 17.755920 8.858250
-11.023620 -17.755920 8.858250
-11.023620 17.755920 8.858250
-11.023620 17.755920 6.889750
11.023620 17.755920 6.889750
11.023620 17.755920 8.858250
11.023620 17.755920 6.889750
11.023620 -17.755920 6.889750
11.023620 -17.755920 8.858250
11.023620 17.755920 8.858250
11.023620 17.755920 8.858250
11.023620 -17.755920 8.858250
11.023620 -17.755920 6.889750
11.023620 17.755920 6.889750
-11.023620 -17.755920 6.889750
-11.023620 -17.755920 8.858250
11.023620 -17.755920 8.858250
11.023620 -17.755920 6.889750
-11.023620 -17.755920 8.858250
-11.023620 17.755920 8.858250
-11.023620 17.755920 6.889750
-11.023620 -17.755920 6.889750
8.976420 17.519699 -0.984230
-8.976380 17.519699 -0.984230
-8.976380 16.791353 -0.984230
8.976420 16.791353 -0.984230
11.023620 -17.755920 6.889750
11.023620 -17.755920 8.858250
-11.023620 -17.755920 8.858250
-11.023620 -17.755920 6.889750
-11.023620 -17.755920 8.858250
11.023620 -17.755920 8.858250
11.023620 17.755920 8.858250
-11.023620 17.755920 8.858250
8.464520 -16.594521 -0.984230
-8.464570 -16.594521 -0.984230
-8.976380 -16.788019 -1.009710
-8.976380 -16.791321 -0.984230
-8.464570 -16.791321 -0.984230
-8.464570 -16.788019 -1.009710
-8.464570 16.791353 -0.984230
8.464520 16.791353 -0.984230
-8.976380 -16.594521 -0.984230
8.976420 -16.594521 -0.984230
8.976420 16.594500 -0.984230
8.464520 16.594500 -0.984230
-8.464570 16.594500 -0.984230
-8.976380 16.594500 -0.984230
-8.976380 -17.677120 -8.858250
-10.944880 -17.677120 -8.858250
-10.944880 -15.708620 -8.858250
-8.976380 -15.708620 -8.858250
8.976420 -16.594521 -0.984230
8.464520 -16.594521 -0.984230
-8.464570 -16.762520 -1.053830
-8.976380 -16.762520 -1.053830
8.976420 -16.791321 -0.984230
8.464520 -16.791321 -0.984230
8.464520 -16.594521 -0.984230
8.976420 -16.594521 -0.984230
-8.464570 -16.762520 -1.053830
-8.464570 -16.788019 -1.009710
-8.464570 -16.791321 -0.984230
-8.464570 -16.594521 -0.984230
-8.464570 -16.607620 -1.033450
-8.464570 -16.643721 -1.069470
-8.464570 -16.667419 -1.079310
-8.464570 -16.718420 -1.079310
-8.976380 -15.708620 -8.858250
-10.944880 -15.708620 -8.858250
-10.944880 -17.677120 -8.858250
-8.976380 -17.677120 -8.858250
-8.976380 16.718403 -0.889160
-8.976380 16.667450 -0.889160
-8.976380 16.623329 -0.914640
-8.976380 16.607691 -0.935020
-8.976380 16.594500 -0.984230
-8.976380 -16.594521 -0.984230
-8.976380 -16.607620 -0.935020
-8.976380 -16.643721 -0.899000
-8.976380 -16.667419 -0.889160
-8.976380 -16.718420 -0.889160
-8.976380 -16.762520 -0.914640
-8.976380 -16.788019 -0.958760
-8.976380 -16.791321 -0.984230
-8.976380 -17.519621 -0.984230
-8.976380 -17.519621 -0.511790
-8.976380 17.519699 -0.511790
-8.976380 17.519699 -0.984230
-8.976380 16.791353 -0.984230
-8.976380 16.778168 -0.935020
-8.976380 16.762526 -0.914640
-8.464570 -16.791321 -0.984230
-8.976380 -16.791321 -0.984230
-8.976380 -16.594521 -0.984230
-8.464570 -16.594521 -0.984230
-8.464570 -16.594521 -0.984230
-8.976380 -16.594521 -0.984230
-8.976380 -16.791321 -0.984230
-8.464570 -16.791321 -0.984230
-8.464570 16.594500 -0.984230
-8.976380 16.594500 -0.984230
-8.976380 16.667450 -0.889160
-8.976380 16.718403 -0.889160
-8.976380 16.762526 -0.914640
-8.976380 16.778168 -0.935020
-8.976380 16.791353 -0.984230
-8.976380 16.594500 -0.984230
-8.976380 16.607691 -0.935020
-8.976380 16.623329 -0.914640
-8.464570 16.791353 -0.984230
-8.976380 16.791353 -0.984230
-8.976380 16.594500 -0.984230
-8.464570 16.594500 -0.984230
8.976420 16.667450 -0.889160
8.976420 16.623329 -0.914640
8.976420 16.607691 -0.935020
8.976420 16.594500 -0.984230
8.976420 16.791353 -0.984230
8.976420 16.778168 -0.935020
8.976420 16.762526 -0.914640
8.976420 16.718403 -0.889160
8.464520 16.594500 -0.984230
8.976420 16.594500 -0.984230
-8.976380 17.519699 -0.511790
8.976420 17.519699 -0.511790
8.976420 -17.519621 -0.511790
-8.976380 -17.519621 -0.511790
8.976420 16.791353 -0.984230
8.464520 16.791353 -0.984230
8.976420 16.607691 -0.935020
8.976420 16.623329 -0.914640
8.976420 16.667450 -0.889160
8.976420 16.718403 -0.889160
8.976420 16.762526 -0.914640
8.976420 16.778168 -0.935020
8.976420 16.791353 -0.984230
8.976420 16.594500 -0.984230
-8.464570 -16.791321 -0.984230
-8.976380 -16.791321 -0.984230
-8.976380 16.778168 -0.935020
-8.976380 16.762526 -0.914640
-8.976380 16.718403 -0.889160
-8.976380 16.667450 -0.889160
-8.976380 16.623329 -0.914640
-8.976380 16.607691 -0.935020
-8.976380 16.594500 -0.984230
-8.976380 16.791353 -0.984230
-8.976380 -16.791321 -0.984230
-8.464570 -16.791321 -0.984230
8.464520 -16.791321 -0.984230
8.976420 -16.791321 -0.984230
8.976420 -17.519621 -0.984230
-8.976380 -17.519621 -0.984230
10.944920 -17.677120 -8.858250
10.944920 -17.677120 6.889750
8.976420 -17.677120 6.889750
8.976420 -17.677120 -8.858250
8.464520 16.718403 -1.079310
8.464520 16.762526 -1.053830
8.464520 16.778168 -1.033450
8.464520 16.791353 -0.984230
8.464520 16.778168 -0.935020
8.464520 16.762526 -0.914640
8.464520 16.718403 -0.889160
8.464520 16.667450 -0.889160
8.464520 16.623329 -0.914640
8.464520 16.607691 -0.935020
8.464520 16.594500 -0.984230
8.464520 16.607691 -1.033450
8.464520 16.623329 -1.053830
8.464520 16.667450 -1.079310
10.944920 -15.708620 6.889750
10.944920 -17.677120 6.889750
10.944920 -17.677120 -8.858250
10.944920 -15.708620 -8.858250
8.976420 -17.677120 -8.858250
8.976420 -17.677120 6.889750
10.944920 -17.677120 6.889750
10.944920 -17.677120 -8.858250
8.976420 -17.677120 6.889750
10.944920 -17.677120 6.889750
10.944920 -15.708620 6.889750
8.976420 -15.708620 6.889750
10.944920 -15.708620 -8.858250
10.944920 -17.677120 -8.858250
10.944920 -17.677120 6.889750
10.944920 -15.708620 6.889750
8.976420 -17.677120 -8.858250
8.976420 -17.677120 6.889750
8.976420 -16.791321 -0.984230
8.976420 -16.788019 -1.009710
8.976420 -16.762520 -1.053830
8.976420 -15.708620 -8.858250
8.976420 -16.718420 -1.079310
8.976420 -16.667419 -1.079310
8.976420 -16.643721 -1.069470
8.976420 -16.607620 -1.033450
8.976420 -16.597820 -1.009710
8.976420 -16.597820 -0.958760
8.976420 -16.607620 -0.935020
8.976420 -16.643721 -0.899000
8.976420 -16.667419 -0.889160
8.976420 -16.718420 -0.889160
8.976420 -16.762520 -0.914640
8.976420 -16.788019 -0.958760
8.976420 -15.708620 6.889750
-8.464570 16.791353 -0.984230
-8.976380 16.791353 -0.984230
10.944920 15.708680 6.889750
8.976420 15.708680 6.889750
8.976420 17.677179 6.889750
10.944920 17.677179 6.889750
-8.976380 16.791353 -0.984230
-8.464570 16.791353 -0.984230
-8.464570 16.778168 -0.935020
-8.976380 16.778168 -0.935020
8.976420 -16.718420 -1.079310
8.976420 -16.762520 -1.053830
8.976420 -16.788019 -1.009710
8.976420 -15.708620 -8.858250
8.976420 -15.708620 6.889750
8.976420 -17.677120 6.889750
8.976420 -17.677120 -8.858250
8.976420 -16.791321 -0.984230
8.976420 -16.788019 -0.958760
8.976420 -16.762520 -0.914640
8.976420 -16.718420 -0.889160
8.976420 -16.667419 -0.889160
8.976420 -16.643721 -0.899000
8.976420 -16.607620 -0.935020
8.976420 -16.597820 -0.958760
8.976420 -16.597820 -1.009710
8.976420 -16.607620 -1.033450
8.976420 -16.643721 -1.069470
8.976420 -16.667419 -1.079310
8.976420 16.594500 -0.984230
8.464520 16.594500 -0.984230
8.976420 17.677179 6.889750
8.976420 17.677179 -8.858250
10.944920 17.677179 -8.858250
10.944920 17.677179 6.889750
10.944920 17.677179 6.889750
10.944920 17.677179 -8.858250
8.976420 17.677179 -8.858250
8.976420 17.677179 6.889750
8.976420 15.708680 -8.858250
8.976420 15.708680 6.889750
10.944920 15.708680 6.889750
10.944920 15.708680 -8.858250
8.976420 16.607691 -1.033450
8.976420 16.623329 -1.053830
8.976420 16.667450 -1.079310
8.976420 16.718403 -1.079310
8.976420 15.708680 -8.858250
8.976420 15.708680 6.889750
8.976420 16.667450 -0.889160
8.976420 16.623329 -0.914640
8.976420 16.607691 -0.935020
8.976420 16.594500 -0.984230
-8.976380 15.708680 -8.858250
-10.944880 15.708680 -8.858250
-10.944880 17.677179 -8.858250
-8.976380 17.677179 -8.858250
-8.976380 16.607691 -0.935020
-8.976380 16.623329 -0.914640
-8.976380 16.667450 -0.889160
-8.976380 16.692928 -0.885810
-8.976380 15.708680 6.889750
-8.976380 15.708680 -8.858250
-8.976380 16.778168 -1.033450
-8.976380 16.762526 -1.053830
-8.976380 16.718403 -1.079310
-8.976380 16.667450 -1.079310
-8.976380 16.623329 -1.053830
-8.976380 16.607691 -1.033450
-8.976380 16.594500 -0.984230
-8.464570 16.667450 -0.889160
-8.464570 16.623329 -0.914640
-8.464570 16.607691 -0.935020
-8.464570 16.594500 -0.984230
-8.464570 16.791353 -0.984230
-8.464570 16.778168 -0.935020
-8.464570 16.762526 -0.914640
-8.464570 16.718403 -0.889160
-8.976380 16.718403 -0.889160
-8.976380 16.762526 -0.914640
-8.976380 16.778168 -0.935020
-8.976380 16.791353 -0.984230
-8.976380 17.677179 -8.858250
-8.976380 17.677179 6.889750
8.976420 -16.791321 -0.984230
8.464520 -16.791321 -0.984230
8.464520 16.791353 -0.984230
8.976420 16.791353 -0.984230
-10.944880 15.708680 -8.858250
-10.944880 15.708680 6.889750
-8.976380 15.708680 6.889750
-8.976380 15.708680 -8.858250
-8.464570 -16.791321 -0.984230
-8.976380 -16.791321 -0.984230
-10.944880 15.708680 -8.858250
-10.944880 17.677179 -8.858250
-10.944880 17.677179 6.889750
-10.944880 15.708680 6.889750
10.944920 -17.677120 -8.858250
8.976420 -17.677120 -8.858250
8.976420 -15.708620 -8.858250
10.944920 -15.708620 -8.858250
4 0 1 2 3
8 4 5 6 7 8 9 10 11
4 12 13 14 15
4 16 17 18 19
4 20 21 22 23
4 24 25 26 27
14 28 29 30 31 32 33 34 35 36 37 38 39 40 41
4 42 43 44 45
4 46 47 48 49
4 50 51 52 53
4 54 55 56 57
4 58 59 60 61
4 62 63 64 65
4 66 67 68 69
4 70 71 72 73
4 74 75 76 77
4 78 79 80 81
19 82 83 84 85 86 87 88 89 90 91 92 93 94 95 96 97 98 99 100
4 101 102 103 104
4 105 106 107 108
4 109 110 111 112
8 113 114 115 116 117 118 119 120
4 121 122 123 124
4 125 126 127 128
4 47 129 130 48
4 131 132 133 134
7 135 136 137 138 139 140 141
4 142 143 144 145
4 146 147 148 149
4 150 151 152 153
4 154 155 156 157
8 158 159 160 161 162 163 164 165
4 130 129 166 167
4 168 69 68 169
14 170 171 172 173 174 175 176 177 178 179 180 181 182 183
4 184 185 186 187
4 188 189 151 150
4 190 191 192 193
4 52 51 79 78
4 194 195 196 197
4 27 26 198 199
4 200 201 202 203
4 204 205 206 207
8 208 209 210 211 212 213 214 215
4 216 217 218 219
4 81 80 192 191
14 220 221 222 223 224 225 226 227 228 229 230 231 232 233
4 234 235 236 237
4 238 239 240 241
4 242 243 244 245
4 246 247 248 249
4 250 251 252 253
4 205 254 255 206
8 256 257 258 259 260 261 262 263
4 264 265 266 267
4 235 234 268 269
4 270 271 272 273
4 254 274 275 255
4 276 277 278 279
4 280 190 193 281
5 282 283 284 285 286
3 283 282 287
3 283 287 288
18 289 290 291 292 293 294 295 296 297 298 299 300 301 302 303 304 305 306
16 307 308 309 310 311 282 286 312 284 283 313 314 315 316 317 318
3 314 309 318
3 314 318 317
4 319 320 321 322
4 323 204 207 324
4 325 326 327 328
3 329 330 331
3 330 332 331
3 333 334 335
3 334 336 335
7 313 337 288 287 310 309 314
4 338 339 340 341
4 342 343 344 345
4 346 347 112 111
4 348 349 350 351
4 352 353 354 355
8 356 357 358 359 360 361 362 363
8 364 365 366 367 368 369 370 371
8 372 373 374 375 376 377 378 379
4 380 381 382 383
4 384 385 386 387
19 388 389 390 391 392 393 394 395 396 397 398 399 400 401 402 403 404 405 406
20 407 408 409 410 411 412 413 414 415 416 417 418 419 420 421 422 423 424 425 426
4 427 428 429 430
20 431 432 433 434 435 436 437 438 439 440 441 442 443 444 445 446 447 448 449 450
4 451 452 453 454
4 200 203 455 456
4 457 458 459 460
4 53 461 462 50
4 463 464 465 466
20 467 468 469 470 471 472 473 474 475 476 477 478 479 480 481 482 483 484 485 486
4 487 488 489 490
4 491 492 493 494
4 495 496 497 498
4 499 500 501 502
4 503 504 505 506
4 275 274 347 346
4 507 508 509 510
4 511 512 513 514
8 515 516 517 518 519 520 521 522
8 523 524 525 526 527 528 529 530
4 531 532 533 534
4 452 451 535 536
8 537 538 539 540 541 542 543 544
4 87 92 91 88
4 545 12 15 546
4 132 547 548 133
4 549 550 551 552
4 553 554 555 556
4 556 555 122 121
4 557 558 559 560
4 134 561 562 131
4 563 124 123 564
4 459 458 565 566
4 567 568 569 570
4 571 572 573 574
4 575 576 56 55
4 185 184 252 251
4 577 578 579 580
4 536 535 581 582
4 583 584 585 586
4 587 237 236 588
15 139 138 589 590 591 592 593 594 595 596 597 598 135 141 599
8 600 601 602 603 604 605 606 607
4 608 609 610 611
4 532 264 267 533
4 328 327 67 66
4 612 613 614 615
4 616 617 618 619
4 620 621 622 623
4 464 624 625 465
4 626 627 628 629
4 581 630 631 582
4 496 44 43 497
4 632 633 634 635
4 636 168 169 637
4 638 639 640 641
4 642 643 644 645
19 330 329 646 647 331 332 648 334 333 649 650 335 336 651 652 653 654 655 656
4 657 658 659 660
8 661 662 663 664 665 666 667 668
4 586 585 54 57
4 669 457 460 670
4 487 490 322 321
4 152 0 3 153
7 654 651 336 671 648 332 655
4 672 250 253 673
4 42 45 562 561
4 674 675 676 677
4 499 502 187 186
4 678 679 680 681
4 621 682 683 622
4 684 685 686 687
4 167 166 688 689
4 690 691 692 693
4 694 695 696 697
4 698 699 700 701
4 702 703 704 705
4 706 707 708 709
4 710 711 712 713
4 714 715 716 717
4 718 719 720 721
4 722 723 724 725
4 726 727 728 729
3 367 366 730
3 367 730 731
4 732 733 734 735
4 199 198 625 624
3 75 74 371
3 75 371 370
3 736 737 720
3 737 721 720
3 360 359 738
3 359 739 738
8 740 741 737 736 742 743 738 739
4 744 745 746 747
4 748 587 588 749
4 732 735 750 751
4 394 393 390 389
4 269 268 276 279
4 752 753 754 755
8 756 757 758 759 760 761 762 763
4 573 554 553 574
4 764 765 766 767
20 768 769 770 771 772 773 774 775 776 777 778 779 780 781 782 783 784 785 786 787
4 689 688 751 750
4 266 265 545 546
4 788 789 790 791
4 792 793 794 795
4 796 642 645 797
8 798 799 800 801 802 803 804 805
4 806 807 808 809
8 810 811 812 813 814 815 816 817
4 818 819 248 247
4 820 821 822 823
4 824 125 128 825
8 826 827 828 829 830 831 832 833
4 566 565 320 319
4 693 692 246 249
4 834 678 681 835
8 836 837 838 839 840 841 842 843
4 202 201 691 690
8 844 845 731 730 846 847 848 849
4 24 341 340 25
4 850 851 852 853
14 854 855 856 857 858 859 860 861 862 863 864 865 866 867
4 868 869 870 871
4 872 873 874 875
4 876 877 878 879
4 880 881 882 883
6 884 885 886 887 888 889
17 889 888 890 891 892 893 894 895 896 897 898 899 900 901 886 885 902
4 903 904 509 508
4 905 906 907 908
4 909 910 911 912
19 913 914 915 916 917 918 919 920 921 922 923 924 925 926 927 928 929 930 931
4 916 915 920 919
4 932 531 534 933
4 934 935 936 937
4 938 939 940 941
4 942 943 944 945
4 584 583 127 126
14 946 947 948 949 263 262 950 951 261 260 952 953 954 955
4 504 503 507 510
4 454 453 680 679
4 956 957 958 959
13 960 961 962 963 964 965 966 967 968 969 970 971 972
8 973 974 975 976 977 978 979 980
10 964 963 981 982 983 984 966 965 985 986
4 277 987 988 278
4 506 505 644 643
4 500 989 990 501
4 991 992 993 994
4 571 995 996 572
4 997 998 999 1000
4 300 299 296 295
4 1001 1002 1003 1004
4 189 188 683 682
4 325 912 911 326
