ply
format ascii 1.0
comment Created by Blender 2.82 (sub 7) - www.blender.org, source file: ''
element vertex 468
property float x
property float y
property float z
element face 130
property list uchar uint vertex_indices
end_header
-250.000198 -165.404800 173.589706
-250.000198 -84.625000 142.578201
249.999802 -84.625000 142.578094
249.999802 -165.404800 173.589600
-250.000198 -28.040001 79.142998
-250.000198 16.197001 -97.063004
249.999802 16.197001 -97.064003
249.999802 -28.040001 79.142998
326.873810 -649.206970 188.000000
338.757812 -643.405029 188.000000
338.757812 -643.405029 200.000000
326.873810 -649.206970 200.000000
249.999802 -359.529999 85.500999
-250.000198 -359.529999 85.500999
-250.000198 -376.373993 42.036999
249.999802 -376.373993 42.036999
-250.000198 347.477997 -116.695999
-250.000198 369.223999 -75.938004
249.999802 369.223999 -75.938004
249.999802 347.477997 -116.696999
-349.206787 626.874023 200.000000
-338.756989 643.405029 200.000000
-338.756989 643.405029 188.000000
-349.206787 626.874023 188.000000
-349.206787 -626.874023 188.000000
-338.756989 -643.405029 188.000000
-338.756989 -643.405029 200.000000
-349.206787 -626.874023 200.000000
-319.999786 -650.000000 200.000000
-326.873901 -649.206970 200.000000
-326.873901 -649.206970 188.000000
-319.999786 -650.000000 188.000000
319.999786 -650.000000 188.000000
319.999786 -650.000000 200.000000
249.999802 -67.778000 129.333603
249.999802 0.763000 42.064999
249.999802 -42.592999 123.206398
249.999802 -12.280000 38.669998
249.999802 -5.194000 -30.162001
249.999802 8.161000 -28.379000
249.999802 5.216000 18.624001
249.999802 6.450000 -75.963997
249.999802 42.605000 -134.744003
249.999802 52.630001 -125.771004
249.999802 18.992001 -71.032997
249.999802 368.852997 187.999985
-250.000198 368.852997 188.000076
-250.000198 363.329010 -50.236000
249.999802 363.329010 -50.236000
-326.873901 -649.206970 200.000000
-326.873901 -649.206970 188.000000
-338.756989 -643.405029 188.000000
-338.756989 -643.405029 200.000000
-250.000198 -356.678009 59.521000
-250.000198 -336.450409 97.467300
249.999802 -336.450409 97.467201
249.999802 -356.678009 59.521000
-250.000198 347.662994 -90.705002
249.999802 347.662994 -90.705002
-250.000198 347.477997 -116.695999
-250.000198 323.213013 -125.789001
-250.000198 363.329010 -50.236000
-250.000198 376.373993 -53.575001
249.999802 165.404999 -185.128006
249.999802 210.748993 -185.128006
-250.000198 210.748993 -185.128006
-250.000198 165.404999 -185.128006
249.999802 363.329010 -50.236000
249.999802 380.799011 -30.132999
249.999802 382.313995 -5.796000
249.999802 368.852997 -5.742000
338.757812 -643.405029 188.000000
326.873810 -649.206970 188.000000
326.873810 -649.206970 200.000000
338.757812 -643.405029 200.000000
-250.000198 76.992996 -165.182999
249.999802 76.992996 -165.182999
338.757812 643.405029 200.000000
326.873810 649.206970 200.000000
326.873810 649.206970 188.000000
338.757812 643.405029 188.000000
349.206787 -626.874023 188.000000
349.206787 -626.874023 200.000000
-250.000198 8.161000 -28.379000
-250.000198 5.216000 18.624001
-250.000198 0.763000 42.064999
-250.000198 -6.431000 64.426003
-250.000198 -16.179001 85.526001
249.999802 -16.179001 85.526001
249.999802 -6.431000 64.426003
249.999802 0.763000 42.064999
249.999802 5.216000 18.624001
249.999802 8.161000 -28.379000
249.999802 12.302000 -50.208000
249.999802 28.058001 -90.681000
-250.000198 28.058001 -90.681000
-250.000198 12.302000 -50.208000
-349.999786 -620.000000 188.000000
-349.999786 -620.000000 200.000000
-349.999786 620.000000 200.000000
-349.999786 620.000000 188.000000
249.999802 -382.313995 -5.742000
249.999802 -382.313995 -200.000000
249.999802 -368.851990 -5.796000
-349.206787 -626.874023 200.000000
-349.206787 -626.874023 188.000000
249.999802 -368.851990 -5.796000
249.999802 -382.313995 -200.000000
249.999802 -368.851990 -200.000000
-250.000198 -382.313995 -5.742000
-250.000198 -368.851990 -5.796000
-250.000198 -382.313995 -200.000000
-250.000198 -382.313995 -200.000000
249.999802 -368.851990 -200.000000
249.999802 -382.313995 -200.000000
249.999802 -368.851990 -5.796000
249.999802 -368.851990 -200.000000
-250.000198 -368.851990 -200.000000
-250.000198 -368.851990 -5.796000
-250.000198 -368.851990 -200.000000
-250.000198 -382.313995 -200.000000
-250.000198 -382.313995 -200.000000
-250.000198 -368.851990 -200.000000
249.999802 -368.851990 -200.000000
249.999802 -376.373993 42.036999
249.999802 -380.798004 18.594999
249.999802 -367.442993 16.868999
249.999802 -376.373993 42.036999
249.999802 -367.442993 16.868999
249.999802 -363.328003 38.698002
349.206787 -626.874023 200.000000
349.206787 -626.874023 188.000000
249.999802 -369.222992 64.400002
249.999802 -376.373993 42.036999
249.999802 -363.328003 38.698002
-250.000198 -369.222992 64.400002
-250.000198 -363.328003 38.698002
-250.000198 -376.373993 42.036999
249.999802 -369.222992 64.400002
249.999802 -363.328003 38.698002
249.999802 -356.678009 59.521000
-250.000198 -369.222992 64.400002
-250.000198 -356.678009 59.521000
-250.000198 -363.328003 38.698002
-349.999786 -620.000000 200.000000
-349.999786 -620.000000 188.000000
-349.999786 620.000000 188.000000
-349.206787 626.874023 188.000000
-349.206787 626.874023 200.000000
-349.999786 620.000000 200.000000
249.999802 -317.025299 139.408005
249.999802 -333.248108 123.188400
249.999802 -323.212585 114.250801
249.999802 -317.025299 139.408005
249.999802 -323.212585 114.250801
249.999802 -308.118500 129.348099
249.999802 -368.851990 -5.796000
249.999802 -367.442993 16.868999
249.999802 -380.798004 18.594999
249.999802 -382.313995 -5.742000
249.999802 -298.992401 153.634293
249.999802 -317.025299 139.408005
249.999802 -308.118500 129.348099
-250.000198 -298.992401 153.634399
-250.000198 -308.118500 129.348099
-250.000198 -317.025299 139.408096
249.999802 -298.992401 153.634293
249.999802 -308.118500 129.348099
249.999802 -291.337799 142.589005
249.999802 376.373993 -53.575001
249.999802 308.118988 -140.886002
249.999802 333.247986 -134.725998
-250.000198 -298.992401 153.634399
-250.000198 -291.337799 142.589005
-250.000198 -308.118500 129.348099
-250.000198 -279.332214 165.684402
-250.000198 -291.337799 142.589005
-250.000198 -298.992401 153.634399
-250.000198 -279.332214 165.684402
-250.000198 -273.040894 153.803802
-250.000198 -291.337799 142.589005
-250.000198 -273.040894 153.803802
249.999802 -273.040894 153.803696
249.999802 368.852997 187.999985
249.999802 382.313995 187.999985
-250.000198 382.313995 188.000076
-250.000198 368.852997 188.000076
-250.000198 212.421005 -198.485001
-250.000198 235.863007 -194.061996
-250.000198 258.227997 -186.912994
-250.000198 279.333008 -177.222000
249.999802 279.333008 -177.222000
249.999802 258.227997 -186.912994
249.999802 235.863007 -194.061996
249.999802 212.421005 -198.485001
249.999802 188.082993 -200.000000
-250.000198 188.082993 -200.000000
-250.000198 -163.739197 186.947449
-250.000198 -76.985001 153.645203
-250.000198 -188.083206 175.000000
-250.000198 -273.040894 153.803802
-250.000198 -279.332214 165.684402
326.873810 649.206970 200.000000
338.757812 643.405029 200.000000
338.757812 643.405029 188.000000
326.873810 649.206970 188.000000
249.999802 -212.420502 186.946808
249.999802 -163.739197 186.947372
-250.000198 -163.739197 186.947449
-250.000198 -212.420502 186.946884
-250.000198 28.309999 -116.718002
-250.000198 -0.742000 -53.603001
-250.000198 12.302000 -50.208000
-250.000198 39.327999 -108.984001
-326.873901 649.206970 200.000000
-338.756989 643.405029 200.000000
-338.756989 643.405029 188.000000
-326.873901 649.206970 188.000000
-250.000198 -102.984001 153.796204
-250.000198 -76.985001 153.645203
-250.000198 -84.625000 142.578201
-250.000198 -76.985001 153.645203
249.999802 -76.985001 153.645203
349.206787 626.874023 200.000000
349.206787 626.874023 188.000000
-250.000198 -76.985001 153.645203
-250.000198 -58.884998 139.422607
-250.000198 -84.625000 142.578201
249.999802 -84.625000 142.578094
249.999802 -67.778000 129.333603
249.999802 -58.884998 139.422501
249.999802 -58.884998 139.422501
249.999802 -67.778000 129.333603
249.999802 -42.592999 123.206398
-326.873901 649.206970 200.000000
-326.873901 649.206970 188.000000
338.757812 -643.405029 188.000000
326.873810 -649.206970 188.000000
-326.873901 -649.206970 188.000000
-338.756989 -643.405029 188.000000
-349.206787 -626.874023 188.000000
-349.206787 626.874023 188.000000
-338.756989 643.405029 188.000000
-326.873901 649.206970 188.000000
326.873810 649.206970 188.000000
338.757812 643.405029 188.000000
349.206787 626.874023 188.000000
349.206787 -626.874023 188.000000
-250.000198 -58.884998 139.422607
-250.000198 -6.431000 64.426003
-250.000198 -18.972000 59.493999
-250.000198 -84.625000 142.578201
-250.000198 -6.431000 64.426003
-250.000198 0.763000 42.064999
-250.000198 -18.972000 59.493999
249.999802 -18.972000 59.493999
249.999802 -12.280000 38.669998
249.999802 0.763000 42.064999
-250.000198 -18.972000 59.493999
-250.000198 0.763000 42.064999
-250.000198 -12.280000 38.669998
249.999802 0.763000 42.064999
249.999802 -12.280000 38.669998
249.999802 5.216000 18.624001
-319.999786 650.000000 200.000000
-319.999786 650.000000 188.000000
319.999786 650.000000 188.000000
319.999786 650.000000 200.000000
-349.206787 626.874023 200.000000
-338.756989 643.405029 200.000000
-326.873901 649.206970 200.000000
326.873810 649.206970 200.000000
338.757812 643.405029 200.000000
349.206787 626.874023 200.000000
349.206787 -626.874023 200.000000
338.757812 -643.405029 200.000000
326.873810 -649.206970 200.000000
-326.873901 -649.206970 200.000000
-338.756989 -643.405029 200.000000
-349.206787 -626.874023 200.000000
-349.206787 626.874023 200.000000
-349.206787 -626.874023 200.000000
-338.756989 -643.405029 200.000000
-326.873901 -649.206970 200.000000
326.873810 -649.206970 200.000000
338.757812 -643.405029 200.000000
349.206787 -626.874023 200.000000
349.206787 626.874023 200.000000
338.757812 643.405029 200.000000
326.873810 649.206970 200.000000
-326.873901 649.206970 200.000000
-338.756989 643.405029 200.000000
-250.000198 -12.280000 38.669998
-250.000198 0.763000 42.064999
-250.000198 8.161000 -28.379000
-250.000198 -5.194000 -30.162001
-250.000198 8.161000 -28.379000
-250.000198 -0.742000 -53.603001
-250.000198 -5.194000 -30.162001
-250.000198 -382.313995 -5.742000
-250.000198 -382.313995 -200.000000
249.999802 -382.313995 -200.000000
249.999802 -382.313995 -5.742000
249.999802 -380.798004 18.594999
-250.000198 -380.798004 18.594999
249.999802 8.161000 -28.379000
249.999802 -5.194000 -30.162001
249.999802 -0.742000 -53.603001
-250.000198 8.161000 -28.379000
-250.000198 12.302000 -50.208000
-250.000198 -0.742000 -53.603001
249.999802 8.161000 -28.379000
249.999802 -0.742000 -53.603001
249.999802 12.302000 -50.208000
249.999802 12.302000 -50.208000
249.999802 -0.742000 -53.603001
249.999802 6.450000 -75.963997
249.999802 12.302000 -50.208000
249.999802 6.450000 -75.963997
249.999802 18.992001 -71.032997
-250.000198 39.327999 -108.984001
-250.000198 42.605000 -134.744003
-250.000198 28.309999 -116.718002
-250.000198 39.327999 -108.984001
-250.000198 52.630001 -125.771004
-250.000198 42.605000 -134.744003
349.999786 620.000000 200.000000
349.999786 620.000000 188.000000
349.999786 -620.000000 188.000000
349.999786 -620.000000 200.000000
-250.000198 52.630001 -125.771004
-250.000198 58.895000 -150.960007
-250.000198 42.605000 -134.744003
249.999802 52.630001 -125.771004
249.999802 42.605000 -134.744003
249.999802 58.895000 -150.960999
-250.000198 52.630001 -125.771004
-250.000198 67.789001 -140.871994
-250.000198 58.895000 -150.960007
249.999802 52.630001 -125.771004
249.999802 58.895000 -150.960999
249.999802 67.789001 -140.871994
249.999802 -298.992401 153.634293
-250.000198 -298.992401 153.634399
249.999802 67.789001 -140.871994
249.999802 58.895000 -150.960999
249.999802 76.992996 -165.182999
249.999802 67.789001 -140.871994
249.999802 76.992996 -165.182999
249.999802 84.633003 -154.115997
-250.000198 52.630001 -125.771004
-250.000198 39.327999 -108.984001
249.999802 39.327999 -108.984001
249.999802 52.630001 -125.771004
249.999802 67.789001 -140.871994
249.999802 84.633003 -154.115997
-250.000198 84.633003 -154.115997
-250.000198 67.789001 -140.871994
349.999786 620.000000 188.000000
349.206787 626.874023 188.000000
349.206787 626.874023 200.000000
349.999786 620.000000 200.000000
349.999786 -620.000000 200.000000
349.999786 -620.000000 188.000000
-250.000198 -368.851990 -5.796000
-250.000198 -382.313995 -5.742000
-250.000198 -376.373993 42.036999
-250.000198 -363.328003 38.698002
249.999802 232.576004 -181.011993
249.999802 253.397003 -174.360001
249.999802 291.338013 -154.126999
-250.000198 291.338013 -154.126999
-250.000198 253.397003 -174.360001
-250.000198 232.576004 -181.011993
-319.999786 -650.000000 200.000000
319.999786 -650.000000 200.000000
319.999786 -650.000000 188.000000
-319.999786 -650.000000 188.000000
249.999802 143.548996 -181.009995
-250.000198 143.548996 -181.009995
-250.000198 122.685997 -174.356003
249.999802 122.685997 -174.356003
-250.000198 140.272003 -194.063995
-250.000198 58.895000 -150.960007
-250.000198 67.789001 -140.871994
-250.000198 143.548996 -181.009995
-250.000198 232.576004 -181.011993
-250.000198 333.247986 -134.725998
-250.000198 258.227997 -186.912994
249.999802 165.404999 -185.128006
249.999802 84.633003 -154.115997
249.999802 76.992996 -165.182999
249.999802 188.082993 -200.000000
249.999802 235.863007 -194.061996
249.999802 317.026001 -150.945999
349.206787 626.874023 188.000000
338.757812 643.405029 188.000000
326.873810 649.206970 188.000000
-326.873901 649.206970 188.000000
-338.756989 643.405029 188.000000
-349.206787 626.874023 188.000000
-349.206787 -626.874023 188.000000
-338.756989 -643.405029 188.000000
-326.873901 -649.206970 188.000000
326.873810 -649.206970 188.000000
338.757812 -643.405029 188.000000
349.206787 -626.874023 188.000000
-250.000198 382.313995 188.000076
249.999802 382.313995 187.999985
249.999802 -356.678009 59.521000
249.999802 -323.212585 114.250801
249.999802 -333.248108 123.188400
249.999802 -369.222992 64.400002
-250.000198 -356.678009 59.521000
-250.000198 -369.222992 64.400002
-250.000198 -317.025299 139.408096
-250.000198 -308.118500 129.348099
249.999802 308.118988 -140.886002
249.999802 291.338013 -154.126999
249.999802 317.026001 -150.945999
249.999802 333.247986 -134.725998
249.999802 308.118988 -140.886002
249.999802 317.026001 -150.945999
-250.000198 323.213013 -125.789001
-250.000198 333.247986 -134.725998
-250.000198 308.118988 -140.886002
-250.000198 347.477997 -116.695999
-250.000198 333.247986 -134.725998
-250.000198 323.213013 -125.789001
249.999802 -188.083206 188.461884
249.999802 -298.992401 153.634293
249.999802 -291.337799 142.589005
249.999802 -210.748306 173.590103
249.999802 -58.884998 139.422501
249.999802 -140.270996 182.525696
-250.000198 -368.851990 -200.000000
249.999802 363.329010 -50.236000
249.999802 356.678009 -71.058998
249.999802 376.373993 -53.575001
-250.000198 380.799011 -30.132999
-250.000198 376.373993 -53.575001
-250.000198 363.329010 -50.236000
343.404785 638.757019 188.000000
343.404785 638.757019 200.000000
346.948792 633.187012 200.000000
346.948792 633.187012 188.000000
249.999802 380.799011 -30.132999
249.999802 363.329010 -50.236000
249.999802 376.373993 -53.575001
-250.000198 367.442993 -28.407000
-250.000198 380.799011 -30.132999
-250.000198 363.329010 -50.236000
-250.000198 368.852997 -5.742000
-250.000198 382.313995 -5.796000
-250.000198 380.799011 -30.132999
-250.000198 367.442993 -28.407000
-250.000198 382.313995 188.000076
-250.000198 382.313995 -5.796000
-250.000198 368.852997 -5.742000
249.999802 382.313995 187.999985
249.999802 368.852997 -5.742000
249.999802 382.313995 -5.796000
-250.000198 382.313995 188.000076
-250.000198 368.852997 -5.742000
-250.000198 368.852997 188.000076
249.999802 368.852997 187.999985
249.999802 368.852997 -5.742000
249.999802 382.313995 187.999985
4 0 1 2 3
4 4 5 6 7
4 8 9 10 11
4 12 13 14 15
4 16 17 18 19
4 20 21 22 23
4 24 25 26 27
8 28 29 30 31 32 8 11 33
3 34 35 36
4 37 38 39 40
4 41 42 43 44
4 45 46 47 48
4 49 50 51 52
4 53 54 55 56
4 48 47 57 58
4 59 60 61 62
4 63 64 65 66
4 67 68 69 70
4 71 72 73 74
4 5 75 76 6
4 77 78 79 80
4 9 81 82 10
14 83 84 85 86 87 88 89 90 91 92 93 94 95 96
8 97 24 27 98 99 20 23 100
3 101 102 103
4 104 52 51 105
3 106 107 108
3 109 110 111
3 112 113 114
3 115 116 117
3 118 119 120
3 121 122 123
3 124 125 126
3 127 128 129
4 74 130 131 71
3 132 133 134
3 135 136 137
3 138 139 140
3 141 142 143
8 144 104 105 145 146 147 148 149
3 150 151 152
3 153 154 155
4 156 157 158 159
3 160 161 162
3 163 164 165
3 166 167 168
3 169 170 171
3 172 173 174
3 175 176 177
3 178 179 180
4 54 181 182 55
4 183 184 185 186
10 187 188 189 190 191 192 193 194 195 196
5 197 198 199 200 201
4 202 203 204 205
4 206 207 208 209
4 210 211 212 213
4 1 4 7 2
4 181 0 3 182
4 214 215 216 217
3 218 219 220
4 221 222 88 87
4 223 77 80 224
3 225 226 227
3 228 229 230
4 190 16 19 191
3 231 232 233
4 215 148 147 216
4 29 26 25 30
4 21 234 235 22
12 236 237 238 239 240 241 242 243 244 245 246 247
4 248 249 250 251
3 252 253 254
3 255 256 257
3 258 259 260
4 75 196 195 76
3 261 262 263
8 264 214 217 265 266 79 78 267
12 268 269 270 271 272 273 274 275 276 277 278 279
12 280 281 282 283 284 285 286 287 288 289 290 291
4 292 293 294 295
3 296 297 298
8 299 300 301 302 303 15 14 304
3 305 306 307
3 308 309 310
3 311 312 313
3 314 315 316
3 317 318 319
3 320 321 322
3 323 324 325
8 326 223 224 327 328 131 130 329
3 330 331 332
3 333 334 335
3 336 337 338
3 339 340 341
4 13 12 342 343
3 344 345 346
3 347 348 349
10 350 351 95 94 352 353 354 355 356 357
8 358 359 360 361 362 82 81 363
4 364 365 366 367
8 368 369 370 371 372 373 65 64
4 371 370 58 57
4 234 202 205 235
4 342 206 209 343
8 50 49 374 375 73 72 376 377
8 378 63 66 379 380 356 355 381
7 382 383 384 385 386 387 388
6 389 390 391 392 393 394
12 395 396 397 398 399 400 401 402 403 404 405 406
4 17 407 408 18
4 409 410 411 412
4 413 414 415 416
3 417 418 419
3 420 421 422
3 423 424 425
4 207 222 221 208
3 426 427 428
6 429 430 431 432 433 434
4 435 53 56 115
3 436 437 438
3 439 440 441
8 442 204 203 443 444 360 359 445
3 446 447 448
3 449 450 451
4 452 453 454 455
3 456 457 458
3 459 460 461
3 462 463 464
3 465 466 467
