ply
format ascii 1.0
comment Created by Blender 2.82 (sub 7) - www.blender.org, source file: ''
element vertex 867
property float x
property float y
property float z
element face 193
property list uchar uint vertex_indices
end_header
13.437400 12.000000 6.757500
13.334700 12.000000 6.808100
13.226400 12.000000 6.844900
13.226400 14.000000 6.844900
13.334700 14.000000 6.808100
13.437400 14.000000 6.757500
13.532500 14.000000 6.694000
13.694000 14.000000 6.532500
13.694000 12.000000 6.532500
13.532500 12.000000 6.694000
13.382700 -14.000000 -7.298880
13.258800 -14.000000 -7.340926
13.130500 -14.000000 -7.366445
13.000000 -14.000000 -7.375000
-13.000000 -14.000000 -7.375000
-12.000000 -13.250000 -7.375000
-11.875000 -13.216500 -7.375000
-11.783490 -13.125000 -7.375000
-11.750000 -13.000000 -7.375000
11.783500 -13.125000 -7.375000
11.875000 -13.216500 -7.375000
12.000000 -13.250000 -7.375000
12.125000 -13.216500 -7.375000
12.216500 -13.125000 -7.375000
12.250000 -13.000000 -7.375000
12.216500 -12.875000 -7.375000
12.125000 -12.783500 -7.375000
12.000000 -12.750000 -7.375000
11.875000 -12.783500 -7.375000
11.783500 -12.875000 -7.375000
11.750000 -13.000000 -7.375000
-11.783490 -12.875000 -7.375000
-11.875000 -12.783500 -7.375000
-12.000000 -12.750000 -7.375000
-12.125000 -12.783500 -7.375000
-12.216510 -12.875000 -7.375000
-13.000000 -12.000000 -7.375000
13.000000 -12.000000 -7.375000
13.130500 -12.000000 -7.366445
13.258800 -12.000000 -7.340926
13.382700 -12.000000 -7.298880
-11.119360 -13.367400 7.250000
-11.119360 -13.367400 7.000000
-11.000000 -13.000000 7.000000
-11.000000 -13.000000 7.250000
-11.119360 12.632630 7.000000
-11.119360 12.632630 7.250000
-11.257630 12.494360 7.250000
-11.257630 12.494360 7.000000
-14.000000 22.000000 7.500000
-14.000000 22.000000 7.250000
14.000000 22.000000 7.250000
14.000000 22.000000 7.500000
13.500000 -22.000000 0.062500
13.500000 -22.000000 0.812500
-13.500000 -22.000000 0.812500
-13.500000 -22.000000 0.062500
11.257600 -13.505600 7.250000
11.119400 -13.367400 7.250000
11.119400 -13.367400 7.000000
11.257600 -13.505600 7.000000
11.257600 12.494360 7.250000
11.030600 12.806860 7.250000
11.030600 12.806860 7.000000
11.257600 12.494360 7.000000
-11.992370 12.494360 7.250000
-12.130640 12.632630 7.250000
-12.130640 12.632630 7.000000
-11.992370 12.494360 7.000000
13.500000 -22.000000 0.062500
-13.500000 -22.000000 0.062500
-13.500000 22.000000 0.062500
13.500000 22.000000 0.062500
-11.431860 -12.405600 7.000000
-11.818140 -12.405600 7.000000
-11.818140 -12.405600 7.250000
-11.431860 -12.405600 7.250000
-13.114175 14.000000 6.867200
-13.532503 14.000000 6.694000
-13.757540 14.000000 6.437400
-13.875000 14.000000 5.995900
-13.875000 14.000000 -0.062500
-13.875000 14.000000 -6.370910
-13.923879 14.000000 -6.757683
-13.923879 14.000000 6.382700
-13.608761 14.000000 6.793400
-13.130526 14.000000 6.991400
13.382700 14.000000 6.923900
13.793400 14.000000 6.608800
13.923900 14.000000 6.382700
13.875000 14.000000 5.995900
13.694000 14.000000 6.532500
13.226400 14.000000 6.844900
13.500000 -14.000000 -7.241025
13.500000 -12.000000 -7.241025
13.608800 -12.000000 -7.168353
13.793400 -12.000000 -6.983761
13.793400 -14.000000 -6.983761
13.608800 -14.000000 -7.168353
13.875000 -14.000000 -0.062500
13.875000 -14.000000 0.062500
-13.875000 -14.000000 0.062500
-13.875000 -14.000000 -0.062500
-11.875000 13.216510 -7.500000
-11.783490 13.125000 -7.500000
-11.750000 13.000000 -7.500000
-11.783490 12.875000 -7.500000
-11.875000 12.783490 -7.500000
-12.000000 12.750000 -7.500000
-12.125000 12.783490 -7.500000
-12.216510 12.875000 -7.500000
-12.250000 13.000000 -7.500000
-12.216510 13.125000 -7.500000
-12.125000 13.216510 -7.500000
-12.000000 13.250000 -7.500000
-12.125000 13.216510 -7.375000
-12.125000 13.216510 -7.500000
-12.216510 13.125000 -7.500000
-12.216510 13.125000 -7.375000
-12.250000 13.000000 -7.375000
-12.250000 13.000000 -7.500000
-13.618529 -14.000000 -6.993529
-13.334745 -14.000000 -7.183147
-13.334745 -12.000000 -7.183147
-13.618529 -12.000000 -6.993529
11.783500 -12.875000 -7.375000
11.875000 -12.783500 -7.375000
11.875000 -12.783500 -7.500000
11.783500 -12.875000 -7.500000
-12.130640 -13.367400 7.250000
-12.130640 -13.367400 7.000000
-11.818140 -13.594400 7.000000
-11.818140 -13.594400 7.250000
-12.125000 12.783490 -7.500000
-12.125000 12.783490 -7.375000
-12.216510 12.875000 -7.375000
-12.216510 12.875000 -7.500000
12.000000 12.750000 -7.500000
12.000000 12.750000 -7.375000
11.875000 12.783490 -7.375000
11.875000 12.783490 -7.500000
-11.625000 13.625000 7.000000
-11.257630 13.505640 7.000000
-11.119360 13.367370 7.000000
11.257600 13.505640 7.000000
11.431900 13.594410 7.000000
11.625000 13.625000 7.000000
13.000000 14.000000 7.000000
-13.000000 14.000000 7.000000
-12.130640 13.367370 7.000000
-11.992370 13.505640 7.000000
-12.250000 -13.000000 7.250000
-12.250000 -13.000000 7.000000
13.114200 12.000000 6.867200
12.995900 12.000000 6.875000
-12.995910 12.000000 6.875000
-13.114175 12.000000 6.867200
-13.114175 14.000000 6.867200
-12.995910 14.000000 6.875000
12.995900 14.000000 6.875000
13.114200 14.000000 6.867200
14.000000 -22.000000 7.250000
-14.000000 -22.000000 7.250000
-14.000000 22.000000 7.250000
14.000000 22.000000 7.250000
-11.625000 12.375000 7.250000
-11.625000 12.375000 7.000000
-11.119360 -12.632600 7.250000
-11.119360 -12.632600 7.000000
14.000000 22.000000 7.500000
14.000000 22.000000 7.250000
-14.000000 22.000000 7.250000
-14.000000 22.000000 7.500000
-13.707107 12.000000 6.707100
-13.608761 12.000000 6.793400
-13.500000 12.000000 6.866000
-13.382683 12.000000 6.923900
-13.382683 14.000000 6.923900
-13.500000 14.000000 6.866000
-13.608761 14.000000 6.793400
-13.707107 14.000000 6.707100
-13.793353 14.000000 6.608800
-13.793353 12.000000 6.608800
-11.119360 12.632630 7.250000
-11.000000 13.000000 7.250000
-11.119360 13.367370 7.250000
-11.257630 13.505640 7.250000
-11.625000 13.625000 7.250000
-11.992370 13.505640 7.250000
-12.130640 13.367370 7.250000
-12.250000 13.000000 7.250000
-12.130640 12.632630 7.250000
-11.992370 12.494360 7.250000
-11.625000 12.375000 7.250000
-11.257630 12.494360 7.250000
-11.783490 -12.875000 -7.375000
-11.750000 -13.000000 -7.375000
-11.750000 -13.000000 -7.500000
-11.783490 -12.875000 -7.500000
-13.130526 12.000000 -7.366445
13.382700 12.000000 -7.298880
13.793400 12.000000 -6.983761
13.991400 12.000000 -6.505526
13.923900 12.000000 6.382700
13.793400 12.000000 6.608800
13.382700 12.000000 6.923900
-13.382683 12.000000 6.923900
-13.793353 12.000000 6.608800
-13.991445 12.000000 6.130500
-13.965926 12.000000 -6.633819
-13.707107 12.000000 -7.082107
-13.382683 12.000000 -7.298880
-13.334745 12.000000 -7.183147
-13.618529 12.000000 -6.993529
-13.808147 12.000000 -6.709745
-13.875000 12.000000 -6.370910
-13.875000 12.000000 -0.062500
-13.875000 12.000000 5.995900
-13.757540 12.000000 6.437400
-13.532503 12.000000 6.694000
-13.114175 12.000000 6.867200
13.226400 12.000000 6.844900
13.694000 12.000000 6.532500
13.875000 12.000000 5.995900
13.875000 12.000000 0.062500
13.875000 12.000000 -6.370910
13.694000 12.000000 -6.907503
13.437400 12.000000 -7.132540
-13.226397 12.000000 -7.219926
-12.250000 13.000000 7.250000
-12.130640 13.367370 7.250000
-12.130640 13.367370 7.000000
-12.250000 13.000000 7.000000
11.625000 12.375000 7.000000
11.625000 12.375000 7.250000
-13.875000 14.000000 0.062500
-14.000000 -22.000000 7.250000
-14.000000 -22.000000 7.500000
14.000000 -22.000000 7.500000
14.000000 -22.000000 7.250000
-11.257630 13.505640 7.250000
-11.257630 13.505640 7.000000
-11.625000 13.625000 7.000000
-11.625000 13.625000 7.250000
11.783500 -13.125000 -7.375000
11.750000 -13.000000 -7.375000
11.750000 -13.000000 -7.500000
11.783500 -13.125000 -7.500000
13.500000 12.000000 -7.241025
13.382700 12.000000 -7.298880
13.382700 14.000000 -7.298880
13.500000 14.000000 -7.241025
13.608800 14.000000 -7.168353
13.793400 14.000000 -6.983761
13.793400 12.000000 -6.983761
13.608800 12.000000 -7.168353
12.216500 13.125000 -7.375000
12.250000 13.000000 -7.375000
12.250000 13.000000 -7.500000
12.216500 13.125000 -7.500000
-12.000000 12.750000 -7.500000
-12.000000 12.750000 -7.375000
-11.750000 13.000000 -7.375000
-11.783490 12.875000 -7.375000
-11.783490 12.875000 -7.500000
-11.750000 13.000000 -7.500000
-13.965926 -12.000000 -6.633819
-13.965926 -14.000000 -6.633819
-13.991445 -14.000000 6.130500
-13.991445 -12.000000 6.130500
12.000000 13.250000 -7.375000
12.000000 13.250000 -7.500000
11.875000 13.216510 -7.500000
11.875000 13.216510 -7.375000
-13.844926 -14.000000 6.226400
-13.875000 -14.000000 0.062500
-13.875000 -12.000000 0.062500
-13.844926 -12.000000 6.226400
13.258800 12.000000 -7.340926
13.130500 12.000000 -7.366445
13.000000 12.000000 -7.375000
12.216500 13.125000 -7.375000
12.125000 13.216510 -7.375000
12.000000 13.250000 -7.375000
11.875000 13.216510 -7.375000
11.783500 13.125000 -7.375000
11.750000 13.000000 -7.375000
11.783500 12.875000 -7.375000
11.875000 12.783490 -7.375000
-11.875000 12.783490 -7.375000
-11.783490 12.875000 -7.375000
-11.750000 13.000000 -7.375000
-11.783490 13.125000 -7.375000
-11.875000 13.216510 -7.375000
-12.000000 13.250000 -7.375000
-13.000000 14.000000 -7.375000
13.000000 14.000000 -7.375000
13.130500 14.000000 -7.366445
13.258800 14.000000 -7.340926
12.216500 -13.125000 -7.375000
12.125000 -13.216500 -7.375000
12.125000 -13.216500 -7.500000
12.216500 -13.125000 -7.500000
11.000000 -13.000000 7.250000
11.000000 -13.000000 7.000000
-12.125000 -13.216500 -7.500000
-12.125000 -13.216500 -7.375000
-12.216510 -13.125000 -7.375000
-12.216510 -13.125000 -7.500000
12.000000 -12.750000 -7.375000
12.000000 -12.750000 -7.500000
13.500000 22.000000 0.812500
13.500000 -22.000000 0.812500
13.500000 -22.000000 0.062500
13.500000 22.000000 0.062500
-13.114175 -14.000000 6.867200
-13.532503 -14.000000 6.694000
-13.532503 -12.000000 6.694000
-13.114175 -12.000000 6.867200
-11.431860 -13.594400 7.250000
-11.431860 -13.594400 7.000000
-14.000000 -22.000000 7.500000
-14.000000 22.000000 7.500000
-14.000000 22.000000 7.250000
-14.000000 -22.000000 7.250000
11.119400 -12.632600 7.250000
11.119400 -12.632600 7.000000
-12.000000 -12.750000 -7.375000
-12.000000 -12.750000 -7.500000
-12.125000 -12.783500 -7.500000
-12.125000 -12.783500 -7.375000
-12.130640 -12.632600 7.000000
-12.130640 -12.632600 7.250000
-11.875000 -12.783500 -7.375000
-11.875000 -12.783500 -7.500000
-11.119360 13.367370 7.250000
-11.119360 13.367370 7.000000
-13.866025 14.000000 -6.875000
-13.793353 14.000000 -6.983761
-13.707107 14.000000 -7.082107
-13.707107 12.000000 -7.082107
-13.793353 12.000000 -6.983761
-13.866025 12.000000 -6.875000
-13.965926 12.000000 -6.633819
-13.965926 14.000000 -6.633819
11.625000 -13.625000 7.000000
11.625000 -13.625000 7.250000
-12.250000 -13.000000 -7.375000
-12.250000 -13.000000 -7.500000
-13.875000 12.000000 0.062500
13.875000 12.000000 -0.062500
11.992400 13.505640 7.000000
11.625000 13.625000 7.000000
11.625000 13.625000 7.250000
11.992400 13.505640 7.250000
-13.808147 14.000000 -6.709745
-13.618529 14.000000 -6.993529
-13.334745 14.000000 -7.183147
13.437400 14.000000 -7.132540
13.808100 14.000000 -6.709745
13.875000 14.000000 -0.062500
13.875000 14.000000 0.062500
13.991400 14.000000 -6.505526
13.793400 14.000000 -6.983761
13.382700 14.000000 -7.298880
-13.382683 14.000000 -7.298880
-13.707107 14.000000 -7.082107
11.992400 -12.494400 7.250000
12.130600 -12.632600 7.250000
12.130600 -12.632600 7.000000
11.992400 -12.494400 7.000000
-11.992370 13.505640 7.000000
-11.992370 13.505640 7.250000
11.257600 13.505640 7.000000
11.257600 13.505640 7.250000
13.991400 -12.000000 -6.505526
13.991400 -14.000000 -6.505526
13.793400 14.000000 6.608800
13.793400 12.000000 6.608800
13.923900 12.000000 6.382700
13.923900 14.000000 6.382700
-14.000000 -22.000000 7.500000
14.000000 -22.000000 7.500000
14.000000 22.000000 7.500000
-14.000000 22.000000 7.500000
13.130500 12.000000 6.991400
13.258800 12.000000 6.965900
13.382700 12.000000 6.923900
13.382700 14.000000 6.923900
13.258800 14.000000 6.965900
13.130500 14.000000 6.991400
11.992400 13.505640 7.000000
12.219400 13.193140 7.000000
12.219400 12.806860 7.000000
11.992400 12.494360 7.000000
11.625000 12.375000 7.000000
11.257600 12.494360 7.000000
11.030600 12.806860 7.000000
11.030600 13.193140 7.000000
-11.000000 13.000000 7.000000
-11.119360 12.632630 7.000000
-11.257630 12.494360 7.000000
-11.625000 12.375000 7.000000
-11.992370 12.494360 7.000000
-12.130640 12.632630 7.000000
-12.250000 13.000000 7.000000
-13.130526 14.000000 6.991400
-13.258819 14.000000 6.965900
-13.258819 12.000000 6.965900
-13.130526 12.000000 6.991400
-13.000000 12.000000 7.000000
13.000000 12.000000 7.000000
-13.226397 -14.000000 -7.219926
-13.114175 -14.000000 -7.242248
-12.995910 -14.000000 -7.250000
12.995900 -14.000000 -7.250000
13.114200 -14.000000 -7.242248
13.226400 -14.000000 -7.219926
13.334700 -14.000000 -7.183147
13.437400 -14.000000 -7.132540
13.437400 -12.000000 -7.132540
13.334700 -12.000000 -7.183147
13.226400 -12.000000 -7.219926
13.114200 -12.000000 -7.242248
12.995900 -12.000000 -7.250000
-12.995910 -12.000000 -7.250000
-13.114175 -12.000000 -7.242248
-13.226397 -12.000000 -7.219926
12.216500 -12.875000 -7.375000
12.250000 -13.000000 -7.375000
12.250000 -13.000000 -7.500000
12.216500 -12.875000 -7.500000
14.000000 22.000000 7.250000
-14.000000 22.000000 7.250000
-14.000000 -22.000000 7.250000
14.000000 -22.000000 7.250000
-13.808147 14.000000 -6.709745
-13.875000 14.000000 -0.062500
-13.875000 12.000000 -0.062500
-13.808147 12.000000 -6.709745
13.382700 -14.000000 6.923900
13.793400 -14.000000 6.608800
13.793400 -12.000000 6.608800
13.382700 -12.000000 6.923900
14.000000 -22.000000 7.250000
14.000000 -22.000000 7.500000
-14.000000 -22.000000 7.500000
-14.000000 -22.000000 7.250000
13.875000 14.000000 0.062500
13.875000 12.000000 0.062500
13.844900 12.000000 6.226400
13.844900 14.000000 6.226400
14.000000 22.000000 7.500000
14.000000 -22.000000 7.500000
14.000000 -22.000000 7.250000
14.000000 22.000000 7.250000
13.875000 -14.000000 -0.062500
-13.875000 -14.000000 -0.062500
-13.875000 -12.000000 -0.062500
13.875000 -12.000000 -0.062500
-12.000000 13.250000 -7.375000
-12.000000 13.250000 -7.500000
-13.844926 12.000000 6.226400
-13.875000 12.000000 0.062500
-13.875000 14.000000 0.062500
-13.844926 14.000000 6.226400
13.867200 -12.000000 -6.489180
13.844900 -12.000000 -6.601397
13.808100 -12.000000 -6.709745
13.808100 -14.000000 -6.709745
13.844900 -14.000000 -6.601397
13.867200 -14.000000 -6.489180
13.875000 -14.000000 -6.370910
13.875000 -14.000000 -0.062500
13.875000 -12.000000 -0.062500
13.875000 -12.000000 -6.370910
11.783500 12.875000 -7.375000
11.783500 12.875000 -7.500000
-11.875000 13.216510 -7.375000
-11.875000 13.216510 -7.500000
12.125000 13.216510 -7.500000
12.216500 13.125000 -7.500000
12.250000 13.000000 -7.500000
12.216500 12.875000 -7.500000
12.125000 12.783490 -7.500000
12.000000 12.750000 -7.500000
11.875000 12.783490 -7.500000
11.783500 12.875000 -7.500000
11.750000 13.000000 -7.500000
11.783500 13.125000 -7.500000
11.875000 13.216510 -7.500000
12.000000 13.250000 -7.500000
11.783500 13.125000 -7.375000
11.783500 13.125000 -7.500000
11.992400 12.494360 7.250000
11.992400 12.494360 7.000000
12.219400 12.806860 7.000000
12.219400 12.806860 7.250000
13.991400 14.000000 -6.505526
13.991400 12.000000 -6.505526
-13.808147 -12.000000 -6.709745
-13.875000 -12.000000 -0.062500
-13.875000 -14.000000 -0.062500
-13.808147 -14.000000 -6.709745
12.125000 -12.783500 -7.375000
12.125000 -12.783500 -7.500000
12.125000 12.783490 -7.500000
12.125000 12.783490 -7.375000
12.216500 12.875000 -7.375000
12.216500 12.875000 -7.500000
12.125000 13.216510 -7.375000
12.125000 13.216510 -7.500000
-13.500000 -22.000000 0.812500
-13.500000 22.000000 0.812500
-13.500000 22.000000 0.062500
-13.500000 -22.000000 0.062500
13.500000 22.000000 0.812500
13.500000 22.000000 0.062500
-13.500000 22.000000 0.062500
-13.500000 22.000000 0.812500
-13.500000 -22.000000 0.812500
13.500000 -22.000000 0.812500
13.500000 22.000000 0.812500
-13.500000 22.000000 0.812500
11.992400 -12.494400 7.250000
11.625000 -12.375000 7.250000
11.257600 -12.494400 7.250000
11.119400 -12.632600 7.250000
11.000000 -13.000000 7.250000
11.119400 -13.367400 7.250000
11.257600 -13.505600 7.250000
11.625000 -13.625000 7.250000
11.992400 -13.505600 7.250000
12.130600 -13.367400 7.250000
12.250000 -13.000000 7.250000
12.130600 -12.632600 7.250000
11.750000 13.000000 -7.375000
11.750000 13.000000 -7.500000
11.625000 -12.375000 7.250000
11.625000 -12.375000 7.000000
11.257600 -12.494400 7.000000
11.257600 -12.494400 7.250000
11.992400 -13.505600 7.000000
11.992400 -13.505600 7.250000
12.130600 -13.367400 7.250000
12.130600 -13.367400 7.000000
-12.130640 -13.367400 7.250000
-11.818140 -13.594400 7.250000
-11.431860 -13.594400 7.250000
-11.119360 -13.367400 7.250000
-11.000000 -13.000000 7.250000
-11.119360 -12.632600 7.250000
-11.431860 -12.405600 7.250000
-11.818140 -12.405600 7.250000
-12.130640 -12.632600 7.250000
-12.250000 -13.000000 7.250000
12.219400 13.193140 7.250000
12.219400 13.193140 7.000000
13.334700 -14.000000 6.808100
13.226400 -14.000000 6.844900
13.226400 -12.000000 6.844900
13.334700 -12.000000 6.808100
13.437400 -12.000000 6.757500
13.532500 -12.000000 6.694000
13.618500 -12.000000 6.618500
13.694000 -12.000000 6.532500
13.694000 -14.000000 6.532500
13.618500 -14.000000 6.618500
13.532500 -14.000000 6.694000
13.437400 -14.000000 6.757500
-12.216510 -13.125000 -7.500000
-12.250000 -13.000000 -7.500000
-12.216510 -12.875000 -7.500000
-12.125000 -12.783500 -7.500000
-12.000000 -12.750000 -7.500000
-11.875000 -12.783500 -7.500000
-11.783490 -12.875000 -7.500000
-11.750000 -13.000000 -7.500000
-11.783490 -13.125000 -7.500000
-11.875000 -13.216500 -7.500000
-12.000000 -13.250000 -7.500000
-12.125000 -13.216500 -7.500000
13.923900 -14.000000 6.382700
13.923900 -12.000000 6.382700
-11.783490 -13.125000 -7.500000
-11.783490 -13.125000 -7.375000
-11.875000 -13.216500 -7.375000
-11.875000 -13.216500 -7.500000
-12.216510 -12.875000 -7.375000
-12.216510 -12.875000 -7.500000
-12.000000 -13.250000 -7.500000
-12.000000 -13.250000 -7.375000
-11.000000 13.000000 7.250000
-11.000000 13.000000 7.000000
12.250000 -13.000000 7.250000
12.250000 -13.000000 7.000000
-14.000000 22.000000 7.500000
14.000000 22.000000 7.500000
14.000000 -22.000000 7.500000
-14.000000 -22.000000 7.500000
-14.000000 -22.000000 7.250000
-14.000000 22.000000 7.250000
-14.000000 22.000000 7.500000
-14.000000 -22.000000 7.500000
-13.382683 -12.000000 -7.298880
-13.707107 -12.000000 -7.082107
-13.965926 -12.000000 -6.633819
-13.991445 -12.000000 6.130500
-13.793353 -12.000000 6.608800
-13.382683 -12.000000 6.923900
13.382700 -12.000000 6.923900
13.793400 -12.000000 6.608800
13.923900 -12.000000 6.382700
13.875000 -12.000000 0.062500
13.844900 -12.000000 6.226400
13.694000 -12.000000 6.532500
13.226400 -12.000000 6.844900
-13.114175 -12.000000 6.867200
-13.532503 -12.000000 6.694000
-13.757540 -12.000000 6.437400
-13.875000 -12.000000 5.995900
-13.875000 -12.000000 -0.062500
-13.875000 -12.000000 -6.370910
-13.808147 -12.000000 -6.709745
-13.618529 -12.000000 -6.993529
-13.334745 -12.000000 -7.183147
13.114200 -12.000000 -7.242248
13.618500 -12.000000 -6.993529
13.707100 -12.000000 -7.082107
13.382700 -12.000000 -7.298880
-13.875000 -12.000000 0.062500
13.923900 -12.000000 -6.757683
13.808100 -12.000000 -6.709745
13.875000 -12.000000 -0.062500
-13.965926 14.000000 6.258800
-13.991445 14.000000 6.130500
-13.991445 12.000000 6.130500
-13.965926 12.000000 6.258800
-13.923879 12.000000 6.382700
-13.923879 14.000000 6.382700
-13.532503 12.000000 6.694000
-13.693971 12.000000 6.532500
-13.757540 12.000000 6.437400
-13.808147 12.000000 6.334700
-13.808147 14.000000 6.334700
-13.757540 14.000000 6.437400
-13.693971 14.000000 6.532500
-13.532503 14.000000 6.694000
-13.965926 -12.000000 6.258800
-13.965926 -14.000000 6.258800
-13.923879 -14.000000 6.382700
-13.793353 -14.000000 6.608800
-13.793353 -12.000000 6.608800
-13.923879 -12.000000 6.382700
-13.608761 12.000000 -7.168353
-13.608761 14.000000 -7.168353
-13.500000 14.000000 -7.241025
-13.382683 14.000000 -7.298880
-13.382683 12.000000 -7.298880
-13.500000 12.000000 -7.241025
11.030600 13.193140 7.250000
11.030600 13.193140 7.000000
-11.030590 -13.193100 7.000000
-11.119360 -13.367400 7.000000
-11.431860 -13.594400 7.000000
-11.818140 -13.594400 7.000000
-12.130640 -13.367400 7.000000
-13.000000 -14.000000 7.000000
13.000000 -14.000000 7.000000
12.219400 -12.806900 7.000000
12.250000 -13.000000 7.000000
12.130600 -13.367400 7.000000
11.992400 -13.505600 7.000000
11.625000 -13.625000 7.000000
11.257600 -13.505600 7.000000
11.119400 -13.367400 7.000000
11.000000 -13.000000 7.000000
11.257600 12.494360 7.250000
11.625000 12.375000 7.250000
11.992400 12.494360 7.250000
12.219400 12.806860 7.250000
12.219400 13.193140 7.250000
11.992400 13.505640 7.250000
11.625000 13.625000 7.250000
11.257600 13.505640 7.250000
11.030600 13.193140 7.250000
11.030600 12.806860 7.250000
-11.875000 12.783490 -7.500000
-11.875000 12.783490 -7.375000
13.130500 -14.000000 6.991400
13.258800 -14.000000 6.965900
13.258800 -12.000000 6.965900
13.130500 -12.000000 6.991400
13.000000 -12.000000 7.000000
-13.000000 -12.000000 7.000000
-13.130526 -12.000000 6.991400
-13.258819 -12.000000 6.965900
-13.382683 -12.000000 6.923900
-13.382683 -14.000000 6.923900
-13.258819 -14.000000 6.965900
-13.130526 -14.000000 6.991400
-12.250000 -13.000000 7.000000
-12.130640 -12.632600 7.000000
-11.818140 -12.405600 7.000000
-11.431860 -12.405600 7.000000
-11.119360 -12.632600 7.000000
-11.000000 -13.000000 7.000000
11.119400 -12.632600 7.000000
11.257600 -12.494400 7.000000
11.625000 -12.375000 7.000000
11.992400 -12.494400 7.000000
12.130600 -12.632600 7.000000
13.114200 -14.000000 6.867200
12.995900 -14.000000 6.875000
-12.995910 -14.000000 6.875000
-12.995910 -12.000000 6.875000
12.995900 -12.000000 6.875000
13.114200 -12.000000 6.867200
-13.693971 -14.000000 6.532500
-13.757540 -14.000000 6.437400
-13.808147 -14.000000 6.334700
-13.808147 -12.000000 6.334700
-13.757540 -12.000000 6.437400
-13.693971 -12.000000 6.532500
-13.226397 12.000000 -7.219926
-13.114175 12.000000 -7.242248
-12.995910 12.000000 -7.250000
12.995900 12.000000 -7.250000
13.114200 12.000000 -7.242248
13.226400 12.000000 -7.219926
13.334700 12.000000 -7.183147
13.437400 12.000000 -7.132540
13.437400 14.000000 -7.132540
13.334700 14.000000 -7.183147
13.226400 14.000000 -7.219926
13.114200 14.000000 -7.242248
12.995900 14.000000 -7.250000
-12.995910 14.000000 -7.250000
-13.114175 14.000000 -7.242248
-13.226397 14.000000 -7.219926
-13.334745 14.000000 -7.183147
-13.334745 12.000000 -7.183147
-13.707107 -12.000000 6.707100
-13.707107 -14.000000 6.707100
-13.608761 -14.000000 6.793400
-13.500000 -14.000000 6.866000
-13.500000 -12.000000 6.866000
-13.608761 -12.000000 6.793400
-13.875000 -14.000000 5.995900
14.000000 22.000000 7.250000
14.000000 -22.000000 7.250000
14.000000 -22.000000 7.500000
14.000000 22.000000 7.500000
13.875000 -14.000000 -6.370910
-13.130526 -14.000000 -7.366445
-13.258819 -14.000000 -7.340926
-13.382683 -14.000000 -7.298880
-13.382683 -12.000000 -7.298880
-13.258819 -12.000000 -7.340926
-13.130526 -12.000000 -7.366445
-12.250000 -13.000000 -7.375000
-12.216510 -13.125000 -7.375000
-12.125000 -13.216500 -7.375000
13.875000 12.000000 -0.062500
-13.875000 12.000000 -0.062500
-13.875000 14.000000 -0.062500
13.875000 14.000000 -0.062500
-13.693971 -12.000000 -6.907503
-13.757540 -12.000000 -6.812366
-13.757540 -14.000000 -6.812366
-13.693971 -14.000000 -6.907503
-13.130526 12.000000 -7.366445
-13.258819 12.000000 -7.340926
-13.258819 14.000000 -7.340926
-13.130526 14.000000 -7.366445
-12.125000 13.216510 -7.375000
-12.216510 13.125000 -7.375000
-12.250000 13.000000 -7.375000
-12.216510 12.875000 -7.375000
-12.125000 12.783490 -7.375000
-12.000000 12.750000 -7.375000
12.000000 12.750000 -7.375000
12.125000 12.783490 -7.375000
12.216500 12.875000 -7.375000
12.250000 13.000000 -7.375000
-13.000000 12.000000 -7.375000
-13.866025 -12.000000 -6.875000
-13.793353 -12.000000 -6.983761
-13.707107 -12.000000 -7.082107
-13.707107 -14.000000 -7.082107
-13.793353 -14.000000 -6.983761
-13.866025 -14.000000 -6.875000
13.867200 -14.000000 6.114200
13.875000 -14.000000 5.995900
13.923900 -14.000000 6.382700
13.866000 -14.000000 6.500000
13.694000 -14.000000 6.532500
13.382700 -14.000000 6.923900
-13.382683 -14.000000 6.923900
-13.793353 -14.000000 6.608800
-13.991445 -14.000000 6.130500
-13.965926 -14.000000 -6.633819
-13.707107 -14.000000 -7.082107
-13.382683 -14.000000 -7.298880
13.382700 -14.000000 -7.298880
13.793400 -14.000000 -6.983761
13.991400 -14.000000 -6.505526
13.694000 -14.000000 -6.907503
13.437400 -14.000000 -7.132540
-13.334745 -14.000000 -7.183147
-13.618529 -14.000000 -6.993529
-13.808147 -14.000000 -6.709745
-13.875000 -14.000000 -6.370910
-13.757540 -14.000000 6.437400
-13.532503 -14.000000 6.694000
-13.114175 -14.000000 6.867200
13.226400 -14.000000 6.844900
-13.618529 14.000000 -6.993529
-13.693971 14.000000 -6.907503
-13.757540 14.000000 -6.812366
-13.757540 12.000000 -6.812366
-13.693971 12.000000 -6.907503
-13.618529 12.000000 -6.993529
13.844900 -12.000000 6.226400
13.844900 -14.000000 6.226400
-13.608761 -14.000000 -7.168353
-13.608761 -12.000000 -7.168353
-13.500000 -12.000000 -7.241025
-13.500000 -14.000000 -7.241025
13.808100 12.000000 -6.709745
13.808100 14.000000 -6.709745
13.867200 14.000000 -6.489180
13.844900 14.000000 -6.601397
13.844900 12.000000 -6.601397
13.867200 12.000000 -6.489180
13.875000 12.000000 -6.370910
13.875000 12.000000 -0.062500
13.875000 14.000000 -0.062500
13.875000 14.000000 -6.370910
-13.875000 12.000000 0.062500
13.875000 12.000000 0.062500
13.875000 14.000000 0.062500
-13.875000 14.000000 0.062500
13.875000 -12.000000 0.062500
13.875000 -14.000000 0.062500
-11.783490 13.125000 -7.375000
-11.783490 13.125000 -7.500000
-13.875000 -14.000000 0.062500
13.875000 -14.000000 0.062500
13.875000 -12.000000 0.062500
-13.875000 -12.000000 0.062500
11.875000 -13.216500 -7.500000
11.783500 -13.125000 -7.500000
11.750000 -13.000000 -7.500000
11.783500 -12.875000 -7.500000
11.875000 -12.783500 -7.500000
12.000000 -12.750000 -7.500000
12.125000 -12.783500 -7.500000
12.216500 -12.875000 -7.500000
12.250000 -13.000000 -7.500000
12.216500 -13.125000 -7.500000
12.125000 -13.216500 -7.500000
12.000000 -13.250000 -7.500000
12.000000 -13.250000 -7.375000
12.000000 -13.250000 -7.500000
11.875000 -13.216500 -7.375000
11.875000 -13.216500 -7.500000
10 0 1 2 3 4 5 6 7 8 9
31 10 11 12 13 14 15 16 17 18 19 20 21 22 23 24 25 26 27 28 29 30 31 32 33 34 35 36 37 38 39 40
4 41 42 43 44
4 45 46 47 48
4 49 50 51 52
4 53 54 55 56
4 57 58 59 60
4 61 62 63 64
4 65 66 67 68
4 69 70 71 72
4 73 74 75 76
16 77 78 79 80 81 82 83 84 85 86 87 88 89 90 91 92
4 30 19 18 31
8 93 10 40 94 95 96 97 98
4 99 100 101 102
12 103 104 105 106 107 108 109 110 111 112 113 114
4 115 116 117 118
4 119 118 117 120
4 121 122 123 124
4 125 126 127 128
4 129 130 131 132
4 133 134 135 136
4 137 138 139 140
10 141 142 143 144 145 146 147 148 149 150
4 151 152 130 129
10 153 154 155 156 157 158 159 160 3 2
4 161 162 163 164
4 48 47 165 166
4 167 44 43 168
4 169 170 171 172
10 173 174 175 176 177 178 179 180 181 182
12 183 184 185 186 187 188 189 190 191 192 193 194
4 195 196 197 198
30 199 200 201 202 203 204 205 206 207 208 209 210 211 212 213 214 215 216 217 218 219 220 221 222 223 224 225 226 227 228
4 229 230 231 232
4 233 234 61 64
3 235 81 80
4 236 237 238 239
4 240 241 242 243
4 244 245 246 247
8 248 249 250 251 252 253 254 255
4 256 257 258 259
4 260 261 134 133
4 262 263 264 265
4 266 267 268 269
4 270 271 272 273
4 274 275 276 277
23 249 278 279 280 281 282 283 284 285 286 287 288 289 290 291 292 293 294 295 296 297 298 250
4 299 300 301 302
4 303 304 59 58
4 305 306 307 308
4 309 310 127 126
4 311 312 313 314
4 315 316 317 318
4 42 41 319 320
4 321 322 323 324
4 303 325 326 304
4 327 328 329 330
4 74 331 332 75
4 333 334 328 327
4 167 168 73 76
4 240 335 336 241
8 337 338 339 340 341 342 343 344
4 345 346 57 60
4 307 347 348 308
3 216 349 217
3 224 350 225
4 350 224 349 216
4 351 352 353 354
18 82 355 356 357 358 359 360 81 235 361 90 89 362 363 364 365 366 83
4 228 212 211 199
4 367 368 369 370
4 242 371 372 243
4 353 352 373 374
4 375 376 97 96
4 377 378 379 380
4 381 382 383 384
35 385 386 387 388 389 390 147 146 391 392 393 394 395 396 397 398 144 143 399 400 401 402 403 404 405 149 148 406 407 177 176 408 409 410 411
18 122 412 413 414 415 416 417 418 419 420 421 422 423 424 425 426 427 123
4 428 429 430 431
4 432 433 434 435
4 436 437 438 439
4 440 441 442 443
4 444 445 446 447
4 448 449 450 451
4 452 453 454 455
4 456 457 458 459
4 460 461 116 115
4 462 463 464 465
10 466 467 468 469 470 471 472 473 474 475
4 139 476 477 140
4 478 479 461 460
12 480 481 482 483 484 485 486 487 488 489 490 491
4 492 273 272 493
4 494 495 496 497
4 498 499 254 253
4 500 501 502 503
4 504 428 431 505
4 506 507 138 137
4 508 507 506 509
4 429 299 302 430
4 510 256 259 511
4 512 513 514 515
4 151 332 331 152
4 516 517 518 519
4 520 521 522 523
12 524 525 526 527 528 529 530 531 532 533 534 535
4 476 536 537 477
4 538 539 540 541
4 195 198 334 333
4 325 541 540 326
4 370 539 538 367
4 387 378 377 388
4 346 345 542 543
4 544 543 542 545
10 546 547 548 549 550 551 552 553 554 555
4 556 497 496 557
4 354 556 557 351
12 558 559 560 561 562 563 564 565 566 567 568 569
12 570 571 572 573 574 575 576 577 578 579 580 581
4 442 441 582 583
4 584 585 586 587
4 196 585 584 197
4 347 588 589 348
4 590 591 306 305
4 330 329 589 588
4 587 586 591 590
4 335 592 593 336
4 594 544 545 595
4 596 597 598 599
4 600 601 602 603
26 604 605 606 607 608 609 610 611 612 613 614 615 616 617 618 619 620 621 622 623 624 625 626 627 628 629
3 630 621 620
9 630 613 612 631 628 627 632 633 621
8 634 635 636 637 638 182 181 639
10 640 641 642 643 462 465 644 645 646 647
8 648 269 268 649 650 651 652 653
4 344 343 636 635
8 654 340 339 655 656 657 658 659
4 156 640 647 157
4 320 319 132 131
4 660 374 373 661
15 662 663 664 665 666 667 668 669 670 671 672 673 674 675 676
4 380 379 499 498
10 677 678 679 680 681 682 683 684 685 686
4 372 371 231 230
4 687 688 261 260
31 689 690 440 443 691 692 693 694 695 696 697 698 699 700 667 666 701 702 703 704 705 706 662 676 707 708 709 710 711 669 668
10 712 713 714 315 318 715 716 717 560 559
10 316 718 719 720 274 277 721 722 723 317
18 724 725 726 727 728 729 730 731 732 733 734 735 736 737 738 739 740 741
10 742 652 651 743 744 745 698 697 746 747
3 102 101 748
4 749 750 751 752
3 100 99 753
13 754 755 756 757 758 759 36 35 760 761 762 15 14
4 264 263 688 687
4 763 764 765 766
4 66 229 232 67
8 124 767 768 500 503 769 770 121
23 771 772 658 657 773 774 295 294 775 776 777 778 779 780 289 288 781 782 783 784 281 280 785
4 46 45 593 592
8 786 787 788 789 790 791 267 266
4 792 793 794 795
29 796 792 795 797 798 799 800 801 802 803 804 805 806 794 793 100 753 807 808 809 810 811 812 102 748 813 814 815 816
8 817 818 819 436 439 820 821 822
4 510 511 271 270
4 234 233 495 494
4 660 661 63 62
4 565 823 824 566
4 594 595 369 368
4 822 741 740 817
8 825 789 788 826 827 757 756 828
4 583 582 376 375
4 731 829 830 732
10 831 832 830 829 833 834 835 836 837 838
4 839 840 841 842
4 419 469 468 420
4 843 844 824 823
4 845 846 479 478
4 7 451 450 8
4 847 848 849 850
12 851 852 853 854 855 856 857 858 859 860 861 862
4 65 68 166 165
4 257 508 509 258
4 536 492 493 537
4 504 505 310 309
4 845 262 265 846
4 245 125 128 246
4 301 300 863 864
4 135 119 120 136
4 864 863 865 866
4 865 244 247 866
