ply
format ascii 1.0
comment Created by Blender 2.82 (sub 7) - www.blender.org, source file: ''
element vertex 238
property float x
property float y
property float z
element face 55
property list uchar uint vertex_indices
end_header
14.750000 33.499802 12.417300
14.750000 35.499802 12.417300
14.750000 35.499802 -14.625000
14.750000 33.499802 -14.625000
16.750000 33.499802 -14.625000
14.750000 33.499802 -14.625000
14.750000 35.499802 -14.625000
16.750000 35.499802 -14.625000
16.750000 -33.499802 14.375000
16.750000 -33.499802 -14.625000
14.750000 -33.499802 -14.625000
14.750000 -33.499802 12.417300
14.750000 -33.499802 14.375000
14.750000 33.499802 -14.625000
14.750000 33.499802 14.375000
16.750000 33.499802 14.375000
16.750000 33.499802 -14.625000
14.750000 -18.761600 12.417300
-14.750000 -18.761600 12.417300
-14.750000 -33.499802 12.417300
-16.750000 -33.499802 12.417300
-16.750000 33.499802 12.417300
-14.750000 33.499802 12.417300
-14.750000 19.249800 12.417300
14.750000 17.249800 12.417300
-14.750000 17.249800 12.417300
-14.750000 0.999800 12.417300
14.750000 -1.000200 12.417300
-14.750000 -1.000200 12.417300
-14.750000 -16.750200 12.417300
14.750000 -16.750200 12.417300
16.750000 -33.499802 12.417300
14.750000 -33.499802 12.417300
14.750000 33.499802 12.417300
-14.750000 35.499802 12.417300
14.750000 35.499802 12.417300
14.750000 35.499802 12.417300
-14.750000 35.499802 12.417300
-14.750000 35.499802 14.375000
16.750000 35.499802 14.375000
16.750000 35.499802 -14.625000
14.750000 35.499802 -14.625000
-14.750000 35.499802 -14.625000
-16.750000 35.499802 -14.625000
-16.750000 35.499802 14.375000
-16.750000 35.499802 14.375000
-16.750000 35.499802 -14.625000
-16.750000 33.499802 -14.625000
-16.750000 33.499802 12.417300
-16.750000 -33.499802 12.417300
-16.750000 -33.499802 -14.625000
-16.750000 -35.499802 -14.625000
-16.750000 -35.499802 14.375000
16.750000 35.499802 14.625000
16.750000 -35.499802 14.625000
16.750000 -35.499802 14.375000
16.750000 35.499802 14.375000
14.750000 -16.750200 14.375000
14.750000 -1.000200 14.375000
14.750000 -1.000200 12.417300
14.750000 -16.750200 12.417300
-14.750000 0.999800 14.375000
-14.750000 17.249800 14.375000
14.750000 19.249800 14.375000
-14.750000 19.249800 14.375000
-14.750000 33.499802 14.375000
14.750000 33.499802 14.375000
16.750000 35.499802 14.375000
-16.750000 35.499802 14.375000
-16.750000 -35.499802 14.375000
16.750000 -35.499802 14.375000
16.750000 -33.499802 14.375000
14.750000 -18.761600 14.375000
14.750000 -33.499802 14.375000
-14.750000 -33.499802 14.375000
-14.750000 -18.761600 14.375000
-14.750000 -16.750200 14.375000
-14.750000 -1.000200 14.375000
14.750000 0.999800 14.375000
14.750000 0.999800 14.375000
14.750000 0.999800 12.417300
-14.750000 0.999800 12.417300
-14.750000 0.999800 14.375000
-14.750000 35.499802 12.417300
-14.750000 33.499802 12.417300
-14.750000 33.499802 -14.625000
-14.750000 35.499802 -14.625000
14.750000 -16.750200 14.375000
14.750000 -16.750200 12.417300
-14.750000 -16.750200 12.417300
-14.750000 -16.750200 14.375000
16.750000 -35.499802 14.375000
-16.750000 -35.499802 14.375000
-16.750000 35.499802 14.375000
16.750000 35.499802 14.375000
-16.750000 -35.499802 14.625000
-16.750000 35.499802 14.625000
-16.750000 35.499802 14.375000
-16.750000 -35.499802 14.375000
16.750000 35.499802 14.375000
16.750000 -35.499802 14.375000
16.750000 -35.499802 14.625000
16.750000 35.499802 14.625000
-14.750000 -35.499802 -14.625000
-16.750000 -35.499802 -14.625000
-16.750000 -33.499802 -14.625000
-14.750000 -33.499802 -14.625000
16.750000 -35.499802 14.375000
16.750000 -35.499802 14.625000
-16.750000 -35.499802 14.625000
-16.750000 -35.499802 14.375000
14.750000 33.499802 12.417300
14.750000 33.499802 14.375000
-14.750000 33.499802 14.375000
-14.750000 33.499802 12.417300
14.750000 35.499802 14.375000
14.750000 33.499802 14.375000
14.750000 33.499802 12.417300
14.750000 35.499802 12.417300
-14.750000 -35.499802 -14.625000
-14.750000 -35.499802 14.375000
-16.750000 -35.499802 14.375000
-16.750000 -35.499802 -14.625000
-14.750000 33.499802 14.375000
-14.750000 35.499802 14.375000
-14.750000 35.499802 12.417300
-14.750000 33.499802 12.417300
-16.750000 33.499802 -14.625000
-16.750000 33.499802 14.375000
-14.750000 33.499802 14.375000
-14.750000 33.499802 -14.625000
-14.750000 -18.761600 14.375000
-14.750000 -35.499802 14.375000
-14.750000 -35.499802 -14.625000
-14.750000 -33.499802 -14.625000
-14.750000 -33.499802 12.417300
-14.750000 -18.761600 12.417300
-14.750000 -33.499802 14.375000
-14.750000 -33.499802 -14.625000
-16.750000 -33.499802 -14.625000
-16.750000 -33.499802 14.375000
-14.750000 -33.499802 12.542800
-14.750000 -33.499802 12.417300
16.750000 35.499802 14.625000
16.750000 35.499802 14.375000
-16.750000 35.499802 14.375000
-16.750000 35.499802 14.625000
14.750000 -33.499802 12.417300
14.750000 -33.499802 -14.625000
14.750000 -35.499802 -14.625000
14.750000 -35.499802 14.375000
14.750000 -18.761600 14.375000
14.750000 -18.761600 12.417300
-14.750000 17.249800 14.375000
-14.750000 0.999800 14.375000
-14.750000 0.999800 12.417300
-14.750000 17.249800 12.417300
14.750000 0.999800 12.417300
14.750000 19.249800 12.417300
16.750000 33.499802 12.417300
-16.750000 35.499802 14.625000
-16.750000 35.499802 14.375000
16.750000 35.499802 14.375000
16.750000 35.499802 14.625000
16.750000 35.499802 14.375000
-16.750000 35.499802 14.375000
-16.750000 -35.499802 14.375000
16.750000 -35.499802 14.375000
-16.750000 -35.499802 14.375000
-16.750000 -35.499802 14.625000
16.750000 -35.499802 14.625000
16.750000 -35.499802 14.375000
14.750000 19.249800 14.375000
14.750000 33.499802 14.375000
14.750000 19.249800 12.417300
-16.750000 35.499802 14.625000
16.750000 35.499802 14.625000
16.750000 -35.499802 14.625000
-16.750000 -35.499802 14.625000
-14.750000 33.499802 14.375000
-14.750000 19.249800 14.375000
-14.750000 19.249800 12.417300
-14.750000 -1.000200 14.375000
-14.750000 -16.750200 14.375000
-14.750000 -16.750200 12.417300
-14.750000 -1.000200 12.417300
14.750000 0.999800 14.375000
14.750000 17.249800 14.375000
14.750000 17.249800 12.417300
14.750000 0.999800 12.417300
14.750000 19.249800 14.375000
14.750000 19.249800 12.417300
-14.750000 19.249800 12.417300
-14.750000 19.249800 14.375000
14.750000 17.249800 14.375000
14.750000 -1.000200 14.375000
14.750000 -16.750200 14.375000
14.750000 -18.761600 12.417300
14.750000 -18.761600 14.375000
-14.750000 -18.761600 14.375000
-14.750000 -18.761600 12.417300
-14.750000 -35.499802 12.542800
-16.750000 -35.499802 14.375000
-16.750000 35.499802 14.375000
-16.750000 35.499802 14.625000
-16.750000 -35.499802 14.625000
-16.750000 -35.499802 14.625000
16.750000 -35.499802 14.625000
16.750000 35.499802 14.625000
-16.750000 35.499802 14.625000
16.750000 -33.499802 12.417300
16.750000 33.499802 12.417300
16.750000 33.499802 -14.625000
16.750000 35.499802 -14.625000
16.750000 35.499802 14.375000
16.750000 -35.499802 14.375000
16.750000 -35.499802 -14.625000
16.750000 -33.499802 -14.625000
14.750000 17.249800 12.417300
14.750000 17.249800 14.375000
-14.750000 17.249800 14.375000
-14.750000 17.249800 12.417300
14.750000 -35.499802 12.542800
14.750000 -35.499802 -14.625000
16.750000 -35.499802 -14.625000
16.750000 -35.499802 14.375000
16.750000 -35.499802 -14.625000
14.750000 -35.499802 -14.625000
14.750000 -33.499802 -14.625000
16.750000 -33.499802 -14.625000
14.750000 -1.000200 12.417300
14.750000 -1.000200 14.375000
-14.750000 -1.000200 14.375000
-14.750000 -1.000200 12.417300
14.750000 -35.499802 12.542800
-14.750000 -35.499802 12.542800
-14.750000 -33.499802 12.542800
14.750000 -33.499802 12.542800
4 0 1 2 3
4 4 5 6 7
5 8 9 10 11 12
4 13 14 15 16
16 17 18 19 20 21 22 23 24 25 26 27 28 29 30 31 32
4 33 22 34 35
6 36 37 38 39 40 41
3 42 38 37
4 38 42 43 44
8 45 46 47 48 49 50 51 52
4 53 54 55 56
4 57 58 59 60
18 61 62 63 64 65 66 67 68 69 70 71 72 73 74 75 76 77 78
4 79 80 81 82
4 83 84 85 86
4 87 88 89 90
4 91 92 93 94
4 95 96 97 98
4 99 100 101 102
4 103 104 105 106
4 107 108 109 110
4 111 112 113 114
4 115 116 117 118
4 119 120 121 122
4 123 124 125 126
4 127 128 129 130
6 131 132 133 134 135 136
4 137 138 139 140
3 138 137 141
3 138 141 142
4 143 144 145 146
6 147 148 149 150 151 152
4 153 154 155 156
5 12 11 142 141 137
10 27 26 157 24 23 158 33 159 31 30
4 160 161 162 163
4 164 165 166 167
4 168 169 170 171
4 172 173 0 174
4 175 176 177 178
4 179 180 181 84
4 182 183 184 185
4 186 187 188 189
4 190 191 192 193
13 75 72 71 67 66 63 62 194 78 77 195 196 76
4 197 198 199 200
3 120 119 201
4 202 203 204 205
4 206 207 208 209
8 210 211 212 213 214 215 216 217
4 218 219 220 221
6 222 223 224 225 120 201
4 226 227 228 229
4 230 231 232 233
4 234 235 236 237
