ply
format ascii 1.0
comment Created by Blender 2.82 (sub 7) - www.blender.org, source file: ''
element vertex 775
property float x
property float y
property float z
element face 281
property list uchar uint vertex_indices
end_header
-16.559500 -22.226000 7.632550
-18.677500 -17.129999 7.632550
-18.651501 -17.124001 7.859150
-16.538500 -22.209999 7.859150
-6.462500 17.558001 7.306250
-6.489500 17.620001 7.222950
-6.639500 17.524000 7.222950
-6.751500 17.386999 7.222950
-6.692500 17.353001 7.306250
4.992500 -4.991000 2.904650
-6.984500 -11.015000 2.760150
-7.142500 -10.702000 2.760150
4.834500 -4.678000 2.904650
-7.581500 18.844999 -8.015150
-7.843500 18.612000 -8.015150
-8.208500 19.021999 -7.769650
-8.089500 19.152000 -7.783050
-7.946500 19.254999 -7.769650
11.401500 -1.571000 -0.321650
11.401500 -1.571000 -0.312250
11.456500 -1.740000 -0.306950
11.461500 -1.917000 -0.291750
11.461500 -1.917000 -0.321650
10.084500 -2.430000 -0.307750
10.084500 -2.430000 -0.321650
10.224500 -2.539000 -0.321650
10.224500 -2.539000 -0.294650
-8.639500 -12.027000 1.294750
-8.651500 -11.853000 1.270050
-8.709500 -11.686000 1.261650
-8.269500 -11.465000 1.848750
-8.209500 -11.631000 1.860350
-6.946500 -11.175000 2.808250
-8.500500 25.702999 7.519850
-10.549500 25.688999 7.519850
-12.463500 25.184000 7.519850
-12.414500 25.063000 7.308150
-8.514500 25.573000 7.308150
11.487500 -3.496000 -7.655150
-8.315500 18.731001 -7.664850
-8.291500 18.875000 -7.730550
-7.948500 18.490000 -7.961550
11.615500 -3.469000 -7.735550
18.616501 -6.163000 7.519850
18.197500 -6.950000 7.519850
18.220501 -6.963000 7.632550
18.640499 -6.174000 7.632550
18.640499 -6.174000 7.746450
19.419500 -3.399000 7.746450
19.392500 -3.397000 7.519850
-12.166500 -13.857000 -8.070850
-12.303500 -13.825000 -8.070850
-12.522500 -13.604000 -8.070850
-12.569500 -13.296000 -8.070850
-12.513500 -13.168000 -8.070850
-11.547500 -12.682000 -8.070850
-11.415500 -12.715000 -8.070850
-11.199500 -12.938000 -8.070850
-11.149500 -13.246000 -8.070850
-11.200500 -13.371000 -8.070850
-6.056500 16.195000 7.222950
-5.884500 16.172001 7.222950
-5.892500 16.240000 7.306250
-6.027500 16.257000 7.306250
-11.147500 -13.415000 -7.987550
-11.200500 -13.371000 -8.070850
-11.149500 -13.246000 -8.070850
-11.081500 -13.255000 -7.987550
-14.231500 24.132000 7.859150
-12.463500 25.184000 7.859150
-12.414500 25.063000 8.070850
-14.944500 23.278000 8.070850
-16.355499 21.219999 8.070850
-16.471500 21.280001 7.859150
-8.500500 25.702999 7.859150
-8.514500 25.573000 8.070850
-3.895500 24.132000 8.070850
-3.839500 24.250000 7.859150
-18.599501 -17.113001 7.968050
-19.123501 -13.540000 7.968050
-19.045500 -13.532000 8.070850
-16.432501 -22.134001 8.070850
-2.814500 -24.254999 7.632550
-5.540500 -25.209999 7.632550
-5.547500 -25.184000 7.519850
-2.824500 -24.230000 7.519850
-2.845500 -24.181000 7.410950
-4.234500 -24.715000 7.410950
-4.259500 -24.641001 7.308150
16.085501 -9.668000 7.308150
18.498501 -6.107000 7.308150
18.616501 -6.163000 7.519850
18.197500 -6.950000 7.519850
18.220501 -6.963000 7.632550
17.684500 -7.816000 7.632550
-7.645500 19.329000 -7.665050
-8.332500 20.101000 -3.595850
-6.140500 17.639999 7.222950
-6.066500 17.584000 7.222950
-5.899500 17.396999 7.222950
-8.088500 19.854000 -2.856050
-7.626500 19.334999 -7.218550
-7.479500 19.171000 -7.500450
-7.265500 18.930000 -7.645450
12.063500 -2.764000 -7.454250
12.703500 -3.482000 -6.728450
13.189500 -4.028000 -5.425650
13.198500 -4.038000 -4.209250
12.635500 -3.406000 -2.499850
11.207500 -1.803000 -0.562850
11.207500 -1.803000 -0.443050
11.404500 -2.052000 -0.443050
11.404500 -2.052000 -0.498550
13.274500 -4.150000 -3.542050
13.384500 -4.273000 -5.470850
12.868500 -3.695000 -6.853450
12.158500 -2.898000 -7.655350
-10.549500 25.688999 7.859150
-1.151500 22.778000 7.859150
-1.137500 22.799999 7.746450
-5.077500 24.823999 7.746450
-5.077500 24.823999 7.632550
-6.268500 25.250000 7.632550
-9.544500 25.784000 7.632550
-9.544500 25.784000 7.746450
-10.552500 25.715000 7.746450
-18.599501 -17.113001 7.410950
-18.651501 -17.124001 7.519850
-16.538500 -22.209999 7.519850
-16.432501 -22.134001 7.308150
-19.045500 -13.532000 7.308150
-19.123501 -13.540000 7.410950
12.769500 -4.763000 -3.516450
12.891500 -4.901000 -4.165550
12.880500 -4.889000 -5.488950
13.049500 -4.838000 -5.499650
12.937500 -4.711000 -3.501250
-16.471500 21.280001 7.519850
-16.355499 21.219999 7.308150
-14.944500 23.278000 7.308150
-7.248500 -10.576000 2.808250
4.783500 -4.524000 2.957450
18.616501 -6.163000 7.859150
18.197500 -6.950000 7.859150
18.220501 -6.963000 7.746450
18.640499 -6.174000 7.746450
19.419500 -3.399000 7.746450
19.262501 -3.385000 8.070850
18.498501 -6.107000 8.070850
-15.511500 -15.107000 2.831250
-12.583500 -13.634000 -7.987550
-12.334500 -13.885000 -7.987550
-14.600500 -15.024000 -1.505250
-15.243500 -15.348000 2.072250
-15.382500 -15.238000 2.068950
-15.382500 -15.238000 3.593450
-15.483500 -15.093000 3.594550
-12.565500 -13.123000 -7.987550
-12.513500 -13.168000 -8.070850
-12.569500 -13.296000 -8.070850
-12.636500 -13.285000 -7.987550
13.109500 -0.337000 6.138650
13.817500 0.019000 4.724250
13.654500 0.064000 4.706250
12.962500 -0.284000 6.088750
12.008500 -0.763000 6.890550
12.118500 -0.835000 6.970850
-11.083500 -13.076000 -7.987550
9.922500 -1.939000 -0.321650
9.922500 -1.939000 -0.294650
9.984500 -1.781000 -0.272650
9.984500 -1.781000 -0.321650
-15.482500 -14.590000 3.584750
-14.586500 -14.139000 6.900250
13.507500 -0.010000 2.777450
10.996500 -1.273000 -0.266050
10.996500 -1.273000 -0.321650
10.705500 -1.398000 -0.321650
10.705500 -1.398000 -0.201850
13.226500 -0.130000 2.841550
13.366500 -0.059000 4.661050
12.713500 -0.388000 5.963750
11.854500 -0.820000 6.689650
-14.102500 -13.875000 6.880850
-14.391500 -14.020000 6.735850
-14.587500 -14.119000 6.453950
-15.235500 -14.445000 2.831250
-12.268500 -12.953000 -7.987550
-12.489500 -13.064000 -7.987550
18.514500 1.918000 7.519850
18.062500 2.901000 7.519850
17.945499 2.843000 7.308150
19.262501 -3.385000 7.308150
9.870500 -2.717000 0.188650
10.388500 -2.584000 -0.272650
4.438500 -5.576000 3.205050
4.403500 -5.537000 3.154750
5.832500 -4.818000 2.778950
5.784500 -4.772000 2.740650
12.117500 -3.023000 -7.735550
-7.447500 18.936001 -7.961550
-7.790500 19.320999 -7.730550
11.160500 -1.317000 -0.291750
11.160500 -1.317000 -0.321650
18.220501 -6.963000 7.746450
18.197500 -6.950000 7.859150
18.616501 -6.163000 7.859150
18.498501 -6.107000 8.070850
19.262501 -3.385000 8.070850
9.079500 14.666000 7.746450
18.539499 1.928000 7.746450
18.514500 1.918000 7.519850
18.062500 2.901000 7.519850
-3.839500 24.250000 7.519850
-6.276500 25.225000 7.519850
13.197500 -4.740000 -5.503350
13.311500 -4.604000 -5.499650
13.198500 -4.478000 -3.501250
-8.432500 19.274000 -7.345750
-8.317500 19.408001 -7.352050
-12.334500 -25.306999 7.519850
-12.342500 -25.332001 7.632550
-16.559500 -22.226000 7.632550
-16.538500 -22.209999 7.519850
-16.432501 -22.134001 7.308150
-12.293500 -25.183001 7.308150
12.353500 -4.297000 -6.903350
12.713500 -4.871000 -5.470850
12.197500 -4.292000 -6.853350
13.395500 -0.764000 6.168350
12.382500 -1.274000 7.018650
12.419500 -1.435000 6.970850
13.410500 -0.936000 6.138650
12.515500 -4.238000 -6.933050
11.761500 -3.392000 -7.783250
12.023500 -3.158000 -7.783250
12.777500 -4.005000 -6.933050
12.661500 -4.138000 -6.943250
10.482500 -1.188000 -0.470050
10.482500 -1.188000 -0.443050
10.651500 -1.206000 -0.443050
10.651500 -1.206000 -0.491950
6.520500 3.018000 -3.669250
6.258500 2.785000 -3.669250
9.798500 -1.189000 -0.916950
10.060500 -0.956000 -0.916950
9.993500 -1.948000 -0.382350
9.997500 -2.104000 -0.382350
9.927500 -2.116000 -0.321650
9.922500 -1.939000 -0.321650
9.984500 -1.781000 -0.321650
10.040500 -1.827000 -0.382350
-16.494499 21.292999 7.632550
-14.248500 24.153000 7.632550
-14.231500 24.132000 7.519850
-16.471500 21.280001 7.519850
-5.563500 16.316999 7.222950
-5.608500 16.368000 7.306250
-6.268500 25.250000 7.746450
-6.276500 25.225000 7.859150
-8.500500 25.702999 7.859150
-10.549500 25.688999 7.859150
-10.552500 25.715000 7.746450
-9.544500 25.784000 7.746450
-9.544500 25.784000 7.632550
-6.268500 25.250000 7.632550
-5.077500 24.823999 7.632550
-5.077500 24.823999 7.746450
11.391500 -1.908000 -0.382350
11.337500 -1.603000 -0.382350
11.401500 -1.571000 -0.321650
11.461500 -1.917000 -0.321650
4.766500 -4.406000 3.046450
-7.356500 -10.503000 2.889350
13.381500 -4.442000 -5.488950
13.270500 -4.317000 -3.516450
-15.029500 -23.830999 7.859150
-15.046500 -23.851000 7.746450
-15.046500 -23.851000 7.632550
9.980500 -1.804000 -0.443050
10.049500 -1.782000 -0.382350
10.049500 -1.652000 -0.382350
9.980500 -1.634000 -0.443050
10.211500 -1.389000 -0.382350
10.049500 -1.652000 -0.382350
10.049500 -1.782000 -0.382350
10.395500 -2.192000 -0.382350
10.692500 -1.928000 -0.382350
-8.808500 -11.540000 1.270050
-11.138500 -12.908000 -7.987550
-11.241500 -12.763000 -7.987550
17.945499 2.843000 7.308150
-3.895500 24.132000 7.308150
6.765500 3.155000 -3.810950
-2.261500 13.287000 -3.653750
-2.304500 13.163000 -3.572950
6.654500 3.108000 -3.722150
-14.601500 -15.025000 6.562650
-15.243500 -15.348000 3.590250
-15.079500 -15.393000 3.584750
-14.182500 -14.942000 6.900350
-14.253500 -14.921000 6.933450
-14.250500 -14.919000 6.936550
-14.315500 -14.881000 6.965950
-8.799500 19.948999 -4.359250
-8.799500 19.948999 -2.832550
-6.316500 17.666000 7.222950
-8.481500 20.097000 -2.836850
-8.651500 20.046000 -2.833650
-8.651500 20.046000 -4.358050
-8.941500 -11.427000 1.294750
-8.367500 -11.318000 1.860350
-4.259500 -24.641001 8.070850
-4.234500 -24.715000 7.968050
-2.845500 -24.181000 7.968050
-2.824500 -24.230000 7.859150
6.129500 -19.066999 7.859150
19.262501 -3.385000 7.308150
17.945499 2.843000 7.308150
-3.895500 24.132000 7.308150
-10.532500 25.559000 7.308150
-13.303500 24.621000 7.308150
-14.944500 23.278000 7.308150
-17.471500 18.325001 7.308150
-17.641500 -19.947001 7.308150
-14.946500 -23.730000 7.308150
-12.293500 -25.183001 7.308150
-9.189500 -25.625999 7.308150
-4.259500 -24.641001 7.308150
18.498501 -6.107000 7.308150
-6.762500 16.959999 7.222950
-6.811500 17.042000 7.222950
-8.508500 18.947001 0.703550
-8.983500 19.481001 -4.349350
-8.509500 18.948999 -7.296250
12.722500 -4.882000 -4.178050
10.733500 -2.649000 -0.498650
10.733500 -2.649000 -0.443050
10.509500 -2.425000 -0.443050
10.509500 -2.425000 -0.562850
12.386500 -4.532000 -3.606150
12.491500 -4.650000 -5.425650
12.004500 -4.104000 -6.728450
11.364500 -3.386000 -7.454250
-7.963500 18.308001 -7.645450
-8.178500 18.549000 -7.500450
-8.324500 18.712999 -7.218550
-8.787500 19.232000 -2.856050
-6.597500 16.775000 7.222950
-12.342500 -25.332001 7.746450
-12.334500 -25.306999 7.859150
-16.538500 -22.209999 7.859150
-16.559500 -22.226000 7.746450
10.164500 -1.335000 -0.443050
10.211500 -1.389000 -0.382350
-8.003500 19.559999 -7.327350
-8.481500 20.097000 -4.354850
-8.396500 20.097000 -4.352350
-8.416500 20.118999 -3.595850
-15.571500 -14.762000 2.831250
10.733500 -2.649000 -0.443050
10.902500 -2.668000 -0.443050
11.072500 -2.618000 -0.443050
11.042500 -2.553000 -0.382350
10.892500 -2.598000 -0.382350
10.763500 -2.584000 -0.382350
-3.754500 14.287000 -2.026250
-3.639500 14.421000 -2.034750
-3.564500 14.578000 -2.059350
-5.382500 16.618999 7.222950
10.312500 -1.238000 -0.456950
10.218500 -0.892000 -0.953350
-14.530500 -14.614000 7.018450
-14.837500 -14.768000 6.587450
-14.736500 -14.914000 6.581150
-14.435500 -14.762000 7.005050
-14.593500 -14.449000 7.005050
-14.894500 -14.600000 6.581150
12.225500 -0.961000 7.018650
-14.102500 -14.202000 7.250550
-13.945500 -14.516000 7.250550
-13.854500 -14.649000 7.196850
17.945499 2.843000 8.070850
18.062500 2.901000 7.859150
18.514500 1.918000 7.859150
18.539499 1.928000 7.746450
9.927500 -2.116000 -0.321650
9.927500 -2.116000 -0.307750
10.136500 -2.381000 -0.382350
10.084500 -2.430000 -0.321650
9.717500 -1.338000 -0.953350
6.153500 2.661000 -3.722150
6.094500 2.557000 -3.811150
9.696500 -1.485000 -1.014550
9.980500 -1.804000 -0.492050
9.980500 -1.634000 -0.470050
-2.932500 12.689000 -3.653950
-2.805500 12.717000 -3.572950
-2.814500 -24.254999 7.746450
-5.540500 -25.209999 7.746450
-5.547500 -25.184000 7.859150
-2.824500 -24.230000 7.859150
-2.845500 -24.181000 7.968050
-4.234500 -24.715000 7.968050
-4.259500 -24.641001 8.070850
16.085501 -9.668000 8.070850
17.684500 -7.816000 7.746450
-12.463500 25.184000 7.519850
-12.414500 25.063000 7.308150
-14.944500 23.278000 7.308150
-16.355499 21.219999 7.308150
-13.383500 24.756001 7.746450
-14.248500 24.153000 7.746450
-12.463500 25.184000 7.859150
-16.471500 21.280001 7.859150
-16.355499 21.219999 8.070850
-14.944500 23.278000 8.070850
-12.414500 25.063000 8.070850
18.062500 2.901000 7.859150
18.514500 1.918000 7.859150
17.945499 2.843000 8.070850
11.403500 -2.222000 -0.443050
11.403500 -2.222000 -0.472950
-13.383500 24.756001 7.632550
-13.383500 24.756001 7.746450
-12.474500 25.208000 7.746450
-10.552500 25.715000 7.632550
-12.334500 -25.306999 7.859150
-12.293500 -25.183001 8.070850
-5.590500 17.049999 7.222950
-3.731500 14.963000 -2.204850
-2.903500 14.034000 -3.414750
-1.088500 11.997000 -4.324850
6.843500 3.095000 -4.033650
10.540500 -1.055000 -1.167450
10.875500 -1.431000 -0.547050
10.875500 -1.431000 -0.443050
11.207500 -1.803000 -0.443050
11.207500 -1.803000 -0.562850
12.635500 -3.406000 -2.499850
13.198500 -4.038000 -4.209250
13.189500 -4.028000 -5.425650
12.703500 -3.482000 -6.728450
12.063500 -2.764000 -7.454250
-7.265500 18.930000 -7.645450
-7.479500 19.171000 -7.500450
-7.626500 19.334999 -7.218550
-8.088500 19.854000 -2.856050
-10.290500 -25.747000 7.632550
-2.814500 -24.254999 7.632550
-5.540500 -25.209999 7.632550
-5.547500 -25.184000 7.519850
-10.288500 -25.719999 7.519850
-1.137500 22.799999 7.632550
3.246500 19.767000 7.632550
3.246500 19.767000 7.746450
-1.137500 22.799999 7.746450
-1.151500 22.778000 7.859150
-3.839500 24.250000 7.859150
-6.276500 25.225000 7.519850
-3.839500 24.250000 7.519850
-1.151500 22.778000 7.519850
-5.448500 16.635000 7.306250
-5.384500 16.792999 7.222950
-5.450500 16.771000 7.306250
6.129500 -19.066999 7.519850
-2.824500 -24.230000 7.519850
-11.640500 -12.637000 -7.987550
-11.551500 -12.613000 -7.987550
-11.547500 -12.682000 -8.070850
-9.189500 -25.625999 8.070850
5.084500 -5.124000 2.957450
-15.544500 -14.748000 3.590250
-4.065500 14.131000 -2.059350
-4.226500 14.141000 -2.100950
-8.170500 19.507000 -7.345750
-15.029500 -23.830999 7.519850
-12.334500 -25.306999 7.519850
-12.293500 -25.183001 7.308150
-18.677500 -17.129999 7.746450
-18.677500 -17.129999 7.632550
-18.651501 -17.124001 7.519850
18.539499 1.928000 7.632550
11.273500 -2.347000 -0.382350
11.333500 -2.385000 -0.443050
-18.651501 -17.124001 7.859150
-18.599501 -17.113001 7.968050
-19.123501 -13.540000 7.968050
-19.045500 -13.532000 8.070850
-6.308500 17.599001 7.306250
-6.170500 17.577999 7.306250
-2.660500 12.795000 -3.524750
10.902500 -2.668000 -0.443050
10.902500 -2.668000 -0.472950
11.072500 -2.618000 -0.457650
11.220500 -2.521000 -0.452450
11.220500 -2.521000 -0.443050
-11.383500 -12.655000 -7.987550
-9.093500 -11.377000 1.336350
10.621500 -1.272000 -0.382350
10.651500 -1.206000 -0.443050
10.482500 -1.188000 -0.443050
10.492500 -1.258000 -0.382350
-8.500500 25.702999 7.519850
-10.549500 25.688999 7.519850
-3.895500 24.132000 8.070850
-8.514500 25.573000 8.070850
-6.130500 16.250000 7.222950
-6.746500 17.065001 7.306250
-8.933500 19.836000 -3.595850
-8.913500 19.813000 -2.833650
-8.504500 19.114000 -7.327350
-9.002500 19.673000 -3.595850
-14.616500 -14.281000 6.965950
-14.155500 -14.050000 7.196850
17.945499 2.843000 7.308150
19.262501 -3.385000 7.308150
18.498501 -6.107000 7.308150
-4.259500 -24.641001 7.308150
-9.189500 -25.625999 7.308150
-12.293500 -25.183001 7.308150
-14.946500 -23.730000 7.308150
-17.641500 -19.947001 7.308150
-17.471500 18.325001 7.308150
-14.944500 23.278000 7.308150
-13.303500 24.621000 7.308150
-10.532500 25.559000 7.308150
-3.895500 24.132000 7.308150
-6.288500 16.427999 7.222950
-14.946500 -23.730000 8.070850
-12.293500 -25.183001 8.070850
-9.189500 -25.625999 8.070850
-4.259500 -24.641001 8.070850
18.498501 -6.107000 8.070850
19.262501 -3.385000 8.070850
17.945499 2.843000 8.070850
-3.895500 24.132000 8.070850
-10.532500 25.559000 8.070850
-13.303500 24.621000 8.070850
-14.944500 23.278000 8.070850
-17.471500 18.325001 8.070850
-17.641500 -19.947001 8.070850
-14.944500 23.278000 8.070850
-13.303500 24.621000 8.070850
-10.532500 25.559000 8.070850
-3.895500 24.132000 8.070850
17.945499 2.843000 8.070850
19.262501 -3.385000 8.070850
18.498501 -6.107000 8.070850
-4.259500 -24.641001 8.070850
-9.189500 -25.625999 8.070850
-12.293500 -25.183001 8.070850
-14.946500 -23.730000 8.070850
-17.641500 -19.947001 8.070850
-17.471500 18.325001 8.070850
-3.900500 14.188000 -2.034750
19.262501 -3.385000 7.308150
19.392500 -3.397000 7.519850
10.384500 -2.512000 -0.382350
10.259500 -2.477000 -0.382350
10.046500 -2.253000 -0.382350
10.692500 -1.928000 -0.382350
10.870500 -2.283000 -0.382350
10.046500 -2.253000 -0.382350
9.993500 -1.948000 -0.382350
10.040500 -1.827000 -0.382350
10.513500 -1.573000 -0.382350
10.692500 -1.928000 -0.382350
10.367500 -0.887000 -1.014350
11.344500 -2.030000 -0.382350
10.870500 -2.283000 -0.382350
10.513500 -1.573000 -0.382350
10.999500 -1.345000 -0.382350
11.124500 -1.379000 -0.382350
11.337500 -1.603000 -0.382350
11.391500 -1.908000 -0.382350
-14.679500 -15.192000 -0.479050
-12.162500 -13.926000 -7.987550
-12.072500 -13.901000 -7.987550
-11.848500 -13.788000 -7.987550
-14.788500 -15.267000 2.091450
-14.167500 -14.955000 6.453950
-13.970500 -14.856000 6.735850
-13.682500 -14.711000 6.880850
12.274500 -1.656000 6.689650
13.134500 -1.223000 5.963750
13.787500 -0.895000 4.661050
13.646500 -0.966000 2.841550
11.125500 -2.234000 -0.201850
11.125500 -2.234000 -0.321650
11.400500 -2.075000 -0.321650
11.400500 -2.075000 -0.266050
13.911500 -0.812000 2.777350
14.058500 -0.738000 4.706250
13.366500 -1.086000 6.088850
12.412500 -1.566000 6.890750
9.980500 -1.804000 -0.443050
9.980500 -1.634000 -0.443050
-12.522500 -13.604000 -8.070850
14.056500 -0.236000 4.738650
13.904500 -0.312000 2.731350
13.803500 -0.167000 2.736550
13.666500 -0.056000 2.751850
-4.234500 -24.715000 7.410950
-4.259500 -24.641001 7.308150
-9.189500 -25.625999 7.308150
-2.845500 -24.181000 7.410950
-5.547500 -25.184000 7.859150
-5.540500 -25.209999 7.746450
-2.814500 -24.254999 7.746450
18.640499 -6.174000 7.632550
11.333500 -2.385000 -0.457650
11.125500 -2.234000 -0.201850
13.646500 -0.966000 2.841550
13.787500 -0.895000 4.661050
13.134500 -1.223000 5.963750
12.274500 -1.656000 6.689650
-13.682500 -14.711000 6.880850
-13.970500 -14.856000 6.735850
-14.167500 -14.955000 6.453950
-14.788500 -15.267000 2.091450
-11.433500 -13.579000 -7.987550
-8.936500 -12.324000 1.440150
-7.824500 -11.764000 2.650150
-5.387500 -10.538000 3.560150
5.264500 -5.181000 3.269050
10.229500 -2.684000 0.402850
10.679500 -2.458000 -0.217550
10.679500 -2.458000 -0.321650
11.125500 -2.234000 -0.321650
10.388500 -2.584000 -0.321650
-8.689500 -12.179000 1.336250
-5.429500 16.870001 7.222950
-7.507500 -10.558000 3.091950
-9.356500 -11.488000 1.440150
-11.853500 -12.744000 -7.987550
-15.235500 -14.445000 2.831250
-14.587500 -14.119000 6.453950
-14.391500 -14.020000 6.735850
-14.102500 -13.875000 6.880850
11.854500 -0.820000 6.689650
12.713500 -0.388000 5.963750
13.366500 -0.059000 4.661050
13.226500 -0.130000 2.841550
10.705500 -1.398000 -0.201850
10.705500 -1.398000 -0.321650
10.259500 -1.622000 -0.321650
10.259500 -1.622000 -0.217550
9.809500 -1.848000 0.402850
4.844500 -4.346000 3.269050
14.118500 -0.580000 4.724250
13.336500 -0.598000 6.178550
-10.552500 25.715000 7.632550
-14.902500 -14.425000 6.562650
-11.217500 -13.471000 -7.987550
-2.398500 13.028000 -3.524750
10.164500 -1.335000 -0.452450
10.050500 -1.471000 -0.456950
10.259500 -2.477000 -0.382350
10.384500 -2.512000 -0.382350
10.388500 -2.584000 -0.321650
10.224500 -2.539000 -0.321650
-10.290500 -25.747000 7.746450
-10.288500 -25.719999 7.859150
10.996500 -1.273000 -0.321650
10.999500 -1.345000 -0.382350
-16.494499 21.292999 7.746450
-8.514500 25.573000 7.308150
12.854500 -3.851000 -6.903350
-18.599501 -17.113001 7.410950
-19.123501 -13.540000 7.410950
-19.045500 -13.532000 7.308150
9.747500 -2.600000 0.152350
-12.293500 -25.183001 8.070850
-16.432501 -22.134001 8.070850
11.160500 -1.317000 -0.321650
11.124500 -1.379000 -0.382350
9.589500 -2.286000 0.152350
9.568500 -2.117000 0.188650
11.400500 -2.075000 -0.321650
11.344500 -2.030000 -0.382350
-9.189500 -25.625999 8.070850
13.238500 -0.451000 6.168350
-8.504500 19.113001 0.740550
-6.817500 17.219999 7.222950
13.968500 -0.656000 2.751850
-6.952500 -11.306000 2.889150
10.692500 -1.928000 -0.382350
10.988500 -1.664000 -0.382350
10.621500 -1.272000 -0.382350
10.492500 -1.258000 -0.382350
10.211500 -1.389000 -0.382350
10.763500 -2.584000 -0.382350
10.892500 -2.598000 -0.382350
11.042500 -2.553000 -0.382350
11.273500 -2.347000 -0.382350
11.334500 -2.204000 -0.382350
11.336500 -2.074000 -0.382350
10.988500 -1.664000 -0.382350
10.395500 -2.192000 -0.382350
13.961500 -0.480000 2.736550
-11.199500 -12.938000 -8.070850
10.164500 -1.335000 -0.443050
-6.750500 17.205000 7.306250
-13.383500 24.756001 7.632550
-12.474500 25.208000 7.632550
-3.052500 12.796000 -3.856650
-4.429500 14.341000 -2.204850
-8.787500 19.232000 -2.856050
-8.324500 18.712999 -7.218550
-8.178500 18.549000 -7.500450
-7.963500 18.308001 -7.645450
11.364500 -3.386000 -7.454250
12.004500 -4.104000 -6.728450
12.491500 -4.650000 -5.425650
12.386500 -4.532000 -3.606150
10.509500 -2.425000 -0.562850
10.509500 -2.425000 -0.443050
10.177500 -2.053000 -0.443050
10.177500 -2.053000 -0.547050
9.842500 -1.677000 -1.167450
6.144500 2.473000 -4.033650
11.403500 -2.222000 -0.443050
11.404500 -2.052000 -0.443050
11.336500 -2.074000 -0.382350
11.334500 -2.204000 -0.382350
-3.895500 24.132000 7.308150
-16.494499 21.292999 7.632550
18.498501 -6.107000 7.308150
11.299500 -1.426000 -0.306950
-12.166500 -13.857000 -8.070850
10.679500 -2.458000 -0.321650
10.679500 -2.458000 -0.217550
10.229500 -2.684000 0.402850
5.264500 -5.181000 3.269050
-5.387500 -10.538000 3.560150
-8.936500 -12.324000 1.440150
-5.892500 16.240000 7.306250
-5.608500 16.368000 7.306250
-5.448500 16.635000 7.306250
-5.450500 16.771000 7.306250
-6.170500 17.577999 7.306250
-6.308500 17.599001 7.306250
-6.462500 17.558001 7.306250
-6.692500 17.353001 7.306250
-6.750500 17.205000 7.306250
-6.746500 17.065001 7.306250
-6.027500 16.257000 7.306250
-12.342500 -25.332001 7.746450
4.844500 -4.346000 3.269050
9.809500 -1.848000 0.402850
10.259500 -1.622000 -0.217550
10.259500 -1.622000 -0.321650
9.603500 -1.973000 0.249850
-9.356500 -11.488000 1.440150
-7.507500 -10.558000 3.091950
-3.555500 14.739000 -2.100850
-11.415500 -12.715000 -8.070850
-3.731500 14.963000 -2.204850
10.875500 -1.431000 -0.443050
10.875500 -1.431000 -0.547050
10.540500 -1.055000 -1.167450
6.843500 3.095000 -4.033650
-1.088500 11.997000 -4.324850
-9.189500 -25.625999 7.308150
-12.342500 -25.332001 7.632550
-1.219500 22.666000 7.308150
7.562500 15.905000 7.308150
-12.303500 -13.825000 -8.070850
-4.429500 14.341000 -2.204850
-3.052500 12.796000 -3.856650
6.144500 2.473000 -4.033650
9.842500 -1.677000 -1.167450
10.177500 -2.053000 -0.547050
10.177500 -2.053000 -0.443050
4 0 1 2 3
5 4 5 6 7 8
4 9 10 11 12
5 13 14 15 16 17
5 18 19 20 21 22
4 23 24 25 26
7 27 28 29 30 31 10 32
5 33 34 35 36 37
5 38 39 40 41 42
7 43 44 45 46 47 48 49
10 50 51 52 53 54 55 56 57 58 59
4 60 61 62 63
4 64 65 66 67
6 68 69 70 71 72 73
4 74 75 76 77
6 3 2 78 79 80 81
13 82 83 84 85 86 87 88 89 90 91 92 93 94
22 95 96 97 98 99 100 101 102 103 104 105 106 107 108 109 110 111 112 113 114 115 116
11 117 74 77 118 119 120 121 122 123 124 125
6 126 127 128 129 130 131
5 132 133 134 135 136
5 35 137 138 139 36
4 12 11 140 141
7 142 143 144 145 146 147 148
8 149 150 151 152 153 154 155 156
4 157 158 159 160
6 161 162 163 164 165 166
4 28 27 67 167
4 168 169 170 171
21 172 173 165 164 163 174 175 176 177 178 179 180 181 182 183 184 185 186 187 188 157
5 49 189 190 191 192
7 193 26 194 195 196 197 198
5 199 200 201 95 116
4 175 202 203 176
7 47 204 205 206 207 208 48
10 209 210 211 212 213 214 122 121 120 119
5 215 216 217 136 135
4 15 218 219 16
6 220 221 222 223 224 225
6 42 226 134 227 228 38
4 229 230 231 232
5 233 234 235 236 237
4 238 239 240 241
4 242 243 244 245
6 246 247 248 249 250 251
4 252 253 254 255
4 62 61 256 257
10 258 259 260 261 262 263 264 265 266 267
4 268 269 270 271
4 42 234 233 226
4 272 141 140 273
4 217 216 274 275
4 235 13 200 199
5 0 3 276 277 278
4 279 280 281 282
5 283 284 285 286 287
6 288 29 28 167 289 290
4 213 212 291 292
4 293 294 295 296
7 297 298 299 300 301 302 303
8 304 305 6 5 306 307 308 309
7 310 140 11 311 30 29 288
4 127 1 0 128
8 148 312 313 314 315 316 143 142
13 317 318 319 320 321 322 323 324 325 326 327 328 329
23 330 331 332 333 334 39 38 228 227 335 336 337 338 339 340 341 342 343 344 345 346 347 348
6 222 221 349 350 351 352
4 353 282 281 354
7 355 356 357 358 96 95 201
4 150 149 359 160
6 360 361 362 363 364 365
5 366 367 368 369 256
4 370 238 371 245
4 372 373 374 375
4 376 377 373 372
6 230 378 379 380 381 231
6 48 208 382 383 384 385
4 169 168 386 387
4 388 389 248 247
6 390 391 392 393 394 395
4 396 392 391 397
13 398 399 400 401 402 403 404 405 207 206 205 204 406
6 407 408 409 410 255 254
6 411 262 261 69 68 412
5 413 414 415 416 417
9 418 419 210 209 119 118 77 76 420
4 421 422 112 111
9 423 424 425 413 117 125 124 123 426
5 427 276 3 81 428
20 429 430 431 432 433 434 435 436 437 438 439 440 441 442 443 444 445 446 447 99
7 448 399 398 449 450 451 452
14 453 454 455 456 457 458 259 258 267 266 265 459 460 461
4 462 369 463 464
6 2 73 72 80 79 78
12 465 466 451 450 449 398 406 204 47 46 45 44
6 157 188 467 468 469 158
8 470 404 403 402 401 400 427 428
4 9 471 32 10
5 157 160 359 472 172
4 396 397 473 474
4 16 219 475 17
5 476 477 478 129 128
6 352 479 480 481 223 222
5 48 385 482 189 49
4 483 363 362 484
5 311 11 10 31 30
6 414 485 486 487 488 415
6 489 490 97 306 5 4
4 243 491 397 391
5 492 493 494 495 496
4 310 497 468 498
4 499 500 501 502
6 503 504 426 123 122 214
5 260 259 458 505 506
6 146 210 419 418 420 147
4 473 61 60 474
6 331 330 507 60 63 508
8 509 510 305 304 219 218 511 512
5 165 173 513 514 166
13 515 516 517 518 519 520 521 522 523 524 525 526 527
4 200 13 17 201
4 348 528 507 330
13 529 530 531 532 533 534 535 536 537 538 539 540 541
13 542 543 544 545 546 547 548 549 550 551 552 553 554
5 132 493 336 335 133
5 555 366 256 61 473
4 91 90 556 557
5 558 559 560 561 562
5 563 564 565 566 567
6 371 238 241 568 293 296
7 569 570 571 572 573 574 575
22 300 299 576 577 578 579 580 581 582 583 584 585 586 587 588 589 590 591 592 593 594 595
4 395 394 596 597
4 598 150 160 159
5 162 599 600 601 602
4 132 136 494 493
9 603 604 605 478 477 452 451 466 606
12 316 315 607 608 609 82 94 93 610 145 144 143
5 611 422 421 496 495
4 275 274 114 113
4 41 40 15 14
19 612 613 614 615 616 617 618 619 620 579 621 622 623 624 625 626 627 628 629
4 26 25 630 194
4 27 631 64 67
6 98 97 490 464 463 632
5 480 479 485 414 252
18 633 634 635 187 636 637 638 639 640 641 642 643 644 645 646 647 648 649
5 650 599 651 229 232
4 397 491 555 473
4 17 475 355 201
4 375 374 297 303
6 34 33 459 265 264 652
7 359 149 156 373 377 653 472
4 621 579 578 654
4 367 655 295 368
5 656 370 245 244 657
6 658 659 660 661 389 388
6 233 237 215 135 134 226
5 379 376 372 375 380
7 662 83 82 609 608 607 663
4 250 664 665 251
3 467 188 187
3 467 187 635
6 662 349 221 220 84 83
4 666 412 68 73
5 74 117 413 417 75
6 235 234 42 41 14 13
5 503 667 408 407 504
4 273 140 310 498
4 336 493 492 337
4 236 235 199 668
4 40 511 218 15
6 223 481 669 670 671 224
4 23 26 193 672
8 454 482 385 384 383 457 456 455
5 653 513 173 172 472
4 174 602 202 175
4 351 350 673 674
4 664 675 676 665
4 169 387 677 678
4 268 271 679 680
9 313 312 681 673 350 663 607 315 314
4 166 378 682 161
4 163 162 602 174
7 356 307 306 97 96 358 357
4 655 242 296 295
5 557 556 291 212 211
4 146 557 211 210
4 242 655 491 243
5 682 651 599 162 161
5 230 229 651 682 378
8 7 6 305 510 509 512 683 684
6 668 199 116 115 114 274
4 379 378 166 514
4 502 501 353 354
6 407 254 253 423 426 504
4 678 677 12 141
4 21 685 592 591
4 280 279 360 365
6 232 231 595 594 593 650
4 631 27 32 686
4 485 479 352 351
5 687 688 689 690 691
7 231 381 303 302 301 300 595
8 692 693 694 695 696 697 698 699
5 600 599 650 685 700
8 155 154 153 298 297 374 373 156
4 128 0 278 476
5 701 289 167 67 66
4 23 672 677 387
6 486 485 351 674 488 487
5 656 702 239 238 370
6 331 508 703 8 7 684
9 411 704 705 35 34 652 264 263 262
18 706 707 528 348 708 709 710 711 712 713 714 715 716 717 718 719 720 721
6 722 723 724 725 483 484
4 296 242 245 371
7 610 93 92 91 557 146 145
4 22 21 591 590
4 387 386 24 23
5 460 459 33 37 726
3 98 632 429
3 98 429 99
8 137 727 1 127 126 131 130 138
4 43 49 192 728
6 600 700 20 19 729 601
6 65 64 654 578 577 730
4 500 499 724 723
15 194 630 731 732 733 734 735 623 736 621 654 64 631 686 195
4 462 257 256 369
4 40 39 334 511
8 704 411 412 666 727 137 35 705
7 424 423 253 252 414 413 425
11 737 738 739 740 741 742 743 744 745 746 747
4 276 427 748 277
4 422 275 113 112
15 749 750 751 752 171 170 753 272 273 498 468 467 635 754 755
4 514 513 376 379
5 198 471 9 672 193
4 310 288 290 497
4 368 756 463 369
4 468 497 757 469
8 683 512 511 334 333 332 331 684
16 431 758 429 632 463 756 294 293 568 241 240 759 760 761 762 763
5 261 260 506 70 69
5 555 491 655 367 366
4 390 395 657 244
5 1 727 666 73 2
8 764 88 87 86 85 84 220 225
4 295 294 756 368
4 9 12 677 672
4 685 650 593 592
4 20 700 685 21
4 513 653 377 376
5 757 497 290 289 701
4 602 601 729 202
5 503 214 213 292 667
8 277 748 765 448 452 477 476 278
11 190 189 482 454 453 461 460 726 766 767 191
5 458 457 383 382 505
7 299 298 153 152 151 577 576
4 676 675 270 269
5 395 597 702 656 657
4 390 244 243 391
4 227 134 133 335
8 480 252 255 410 671 670 669 481
4 679 660 659 680
6 399 448 765 748 427 400
4 381 380 375 303
6 216 215 237 236 668 274
4 768 151 150 598
15 507 528 769 770 771 772 773 774 596 394 393 392 396 474 60
4 151 768 730 577
4 662 663 350 349
7 686 32 471 198 197 196 195
5 217 611 495 494 136
5 729 19 18 203 202
6 753 170 169 678 141 272
8 728 604 603 606 466 465 44 43
8 309 308 307 356 355 475 219 304
4 611 217 275 422
