ply
format ascii 1.0
comment Created by Blender 2.82 (sub 7) - www.blender.org, source file: ''
element vertex 216
property float x
property float y
property float z
element face 50
property list uchar uint vertex_indices
end_header
-7.050000 -2.000000 8.750000
-7.050000 2.000000 8.750000
-6.050000 2.000000 8.750000
-6.050000 1.750000 8.750000
-6.800000 1.750000 8.750000
-6.800000 -1.750000 8.750000
-6.050000 -1.750000 8.750000
-6.050000 -2.000000 8.750000
-5.800000 10.000000 10.500000
-5.800000 9.500000 10.000000
-5.800000 -9.500000 10.000000
-5.800000 -9.500000 8.000000
-5.800000 -10.000000 10.500000
-6.050000 -1.750000 9.250000
-6.050000 -1.750000 8.750000
-6.800000 -1.750000 8.750000
-6.800000 -1.750000 9.250000
-3.950000 -12.000000 -11.500000
-4.950000 -12.000000 -11.500000
-4.950000 -11.000000 -11.500000
-3.950000 -11.000000 -11.500000
-3.950000 12.000000 6.500000
-3.950000 11.000000 6.500000
-3.950000 11.000000 -11.500000
-3.950000 12.000000 -11.500000
-6.050000 -2.000000 8.750000
-6.050000 -2.000000 9.250000
-7.050000 -2.000000 9.250000
-7.050000 -2.000000 8.750000
7.050000 11.000000 -11.500000
7.050000 11.000000 6.500000
6.050000 11.000000 6.500000
6.050000 11.000000 -11.500000
7.050000 -11.000000 6.500000
-4.950000 -11.000000 6.500000
-4.950000 11.000000 6.500000
-3.950000 11.000000 6.500000
-3.950000 12.000000 6.500000
6.050000 12.000000 6.500000
6.050000 11.000000 6.500000
7.050000 11.000000 6.500000
6.050000 -11.000000 6.500000
-3.950000 -11.000000 6.500000
-4.950000 12.000000 11.500000
-4.950000 10.500000 11.000000
-4.950000 -10.500000 11.000000
-4.950000 -10.500000 7.000000
-4.950000 -11.000000 6.500000
-4.950000 -11.000000 -11.500000
-4.950000 -12.000000 -11.500000
-4.950000 -12.000000 11.500000
-6.050000 9.000000 8.500000
-6.050000 9.000000 9.500000
-5.800000 9.500000 10.000000
-5.800000 9.500000 8.000000
7.050000 -12.000000 11.500000
-4.950000 -12.000000 11.500000
-4.950000 -12.000000 -11.500000
-3.950000 -12.000000 -11.500000
-3.950000 -12.000000 6.500000
6.050000 -12.000000 6.500000
6.050000 -12.000000 -11.500000
7.050000 -12.000000 -11.500000
-3.950000 -11.000000 6.500000
-3.950000 -12.000000 6.500000
-3.950000 -12.000000 -11.500000
-3.950000 -11.000000 -11.500000
-6.050000 -10.500000 11.000000
-4.950000 -10.500000 11.000000
-4.950000 10.500000 11.000000
-6.050000 10.500000 11.000000
-7.050000 -2.000000 9.250000
-6.050000 -2.000000 9.250000
-6.050000 -1.750000 9.250000
-6.800000 -1.750000 9.250000
-6.800000 1.750000 9.250000
-6.050000 1.750000 9.250000
-6.050000 2.000000 9.250000
-7.050000 2.000000 9.250000
-6.050000 2.000000 8.750000
-6.050000 2.000000 9.250000
-6.050000 9.000000 9.500000
-6.050000 9.000000 8.500000
-6.050000 -9.000000 8.500000
-6.050000 -9.000000 9.500000
-6.050000 -1.750000 9.250000
-6.050000 -2.000000 9.250000
-6.050000 -2.000000 8.750000
7.050000 12.000000 11.500000
7.050000 -12.000000 11.500000
7.050000 -12.000000 -11.500000
7.050000 -11.000000 -11.500000
7.050000 -11.000000 6.500000
7.050000 11.000000 6.500000
7.050000 11.000000 -11.500000
7.050000 12.000000 -11.500000
-3.950000 -11.000000 6.500000
-3.950000 -11.000000 -11.500000
-4.950000 -11.000000 -11.500000
-4.950000 -11.000000 6.500000
6.050000 11.000000 6.500000
6.050000 12.000000 6.500000
6.050000 12.000000 -11.500000
6.050000 11.000000 -11.500000
-7.050000 -2.000000 9.250000
-7.050000 2.000000 9.250000
-7.050000 2.000000 8.750000
-7.050000 -2.000000 8.750000
-5.800000 -9.500000 10.000000
-6.050000 -9.000000 9.500000
-6.050000 -9.000000 8.500000
-5.800000 -9.500000 8.000000
6.050000 -12.000000 6.500000
6.050000 -11.000000 6.500000
6.050000 -11.000000 -11.500000
6.050000 -12.000000 -11.500000
-6.050000 -10.500000 11.000000
-5.800000 -10.000000 10.500000
-5.800000 -10.000000 7.500000
-6.050000 -10.500000 7.000000
6.050000 -12.000000 6.500000
-3.950000 -12.000000 6.500000
-4.950000 10.500000 11.000000
-4.950000 10.500000 7.000000
-6.050000 10.500000 7.000000
-6.050000 10.500000 11.000000
-5.800000 -9.500000 10.000000
-5.800000 9.500000 10.000000
-6.050000 9.000000 9.500000
-6.050000 -9.000000 9.500000
-4.950000 10.500000 7.000000
-4.950000 12.000000 -11.500000
-4.950000 11.000000 -11.500000
-4.950000 11.000000 6.500000
-4.950000 12.000000 11.500000
7.050000 12.000000 11.500000
7.050000 12.000000 -11.500000
6.050000 12.000000 -11.500000
6.050000 12.000000 6.500000
-3.950000 12.000000 6.500000
-3.950000 12.000000 -11.500000
-4.950000 12.000000 -11.500000
-4.950000 -10.500000 7.000000
-4.950000 -10.500000 11.000000
-6.050000 -10.500000 11.000000
-6.050000 -10.500000 7.000000
-6.050000 -10.500000 11.000000
-6.050000 10.500000 11.000000
-5.800000 10.000000 10.500000
-5.800000 -10.000000 10.500000
7.050000 11.000000 -11.500000
6.050000 11.000000 -11.500000
6.050000 12.000000 -11.500000
7.050000 12.000000 -11.500000
7.050000 -11.000000 6.500000
7.050000 -11.000000 -11.500000
6.050000 -11.000000 -11.500000
6.050000 -11.000000 6.500000
-3.950000 11.000000 -11.500000
-3.950000 11.000000 6.500000
-4.950000 11.000000 6.500000
-4.950000 11.000000 -11.500000
-5.800000 -10.000000 7.500000
-5.800000 10.000000 7.500000
-6.050000 10.500000 7.000000
-6.050000 -10.500000 7.000000
-6.050000 -9.000000 8.500000
-6.050000 9.000000 8.500000
-5.800000 9.500000 8.000000
-5.800000 -9.500000 8.000000
-5.800000 9.500000 8.000000
-5.800000 10.000000 7.500000
-5.800000 -10.000000 7.500000
-6.050000 -1.750000 8.750000
-6.050000 1.750000 8.750000
-4.950000 -10.500000 7.000000
-6.050000 -10.500000 7.000000
-6.050000 10.500000 7.000000
-4.950000 10.500000 7.000000
-6.050000 1.750000 9.250000
7.050000 -12.000000 -11.500000
6.050000 -12.000000 -11.500000
6.050000 -11.000000 -11.500000
7.050000 -11.000000 -11.500000
-3.950000 11.000000 -11.500000
-4.950000 11.000000 -11.500000
-4.950000 12.000000 -11.500000
-3.950000 12.000000 -11.500000
-5.800000 10.000000 7.500000
-5.800000 10.000000 10.500000
-6.050000 10.500000 11.000000
-6.050000 10.500000 7.000000
-6.800000 1.750000 9.250000
-6.800000 -1.750000 9.250000
-6.800000 -1.750000 8.750000
-6.800000 1.750000 8.750000
-4.950000 -12.000000 11.500000
7.050000 -12.000000 11.500000
7.050000 12.000000 11.500000
-4.950000 12.000000 11.500000
-6.050000 2.000000 9.250000
-6.050000 2.000000 8.750000
-7.050000 2.000000 8.750000
-7.050000 2.000000 9.250000
-6.050000 1.750000 8.750000
-6.050000 1.750000 9.250000
-6.800000 1.750000 9.250000
-6.800000 1.750000 8.750000
-6.050000 1.750000 9.250000
-6.050000 2.000000 9.250000
-6.050000 2.000000 8.750000
-6.050000 1.750000 8.750000
-6.050000 -2.000000 9.250000
-6.050000 -1.750000 9.250000
-6.050000 -1.750000 8.750000
-6.050000 -2.000000 8.750000
8 0 1 2 3 4 5 6 7
5 8 9 10 11 12
4 13 14 15 16
4 17 18 19 20
4 21 22 23 24
4 25 26 27 28
4 29 30 31 32
8 33 34 35 36 37 38 39 40
3 34 33 41
3 34 41 42
8 43 44 45 46 47 48 49 50
4 51 52 53 54
8 55 56 57 58 59 60 61 62
4 63 64 65 66
4 67 68 69 70
8 71 72 73 74 75 76 77 78
9 79 80 81 82 83 84 85 86 87
8 88 89 90 91 92 93 94 95
4 96 97 98 99
4 100 101 102 103
4 104 105 106 107
4 108 109 110 111
4 112 113 114 115
4 116 117 118 119
4 120 121 42 41
4 122 123 124 125
4 126 127 128 129
8 46 130 44 43 131 132 133 47
8 134 135 136 137 138 139 140 141
4 142 143 144 145
4 146 147 148 149
4 150 151 152 153
4 154 155 156 157
4 158 159 160 161
4 162 163 164 165
4 166 167 168 169
7 11 170 9 8 171 172 12
3 79 87 173
3 79 173 174
4 175 176 177 178
7 81 80 179 174 173 85 84
4 180 181 182 183
4 184 185 186 187
4 188 189 190 191
4 192 193 194 195
4 196 197 198 199
4 200 201 202 203
4 204 205 206 207
4 208 209 210 211
4 212 213 214 215
