ply
format ascii 1.0
comment Created by Blender 2.82 (sub 7) - www.blender.org, source file: ''
element vertex 624
property float x
property float y
property float z
element face 174
property list uchar uint vertex_indices
end_header
-8.750000 -25.000000 -6.750000
-8.750000 -25.000000 6.500000
-8.271650 -24.904800 6.500000
-8.271650 -24.904800 -6.750000
-15.000000 30.000000 0.750000
-15.000000 -30.000000 0.750000
-9.945100 -24.025999 0.750000
-10.000000 -23.750000 0.750000
-9.904850 -23.271601 0.750000
-9.633880 -22.866100 0.750000
-9.228350 -22.595200 0.750000
-8.750000 -22.500000 0.750000
-8.667700 -22.516399 0.750000
-4.000000 -17.000000 0.750000
-4.000000 17.000000 0.750000
-8.667700 22.516371 0.750000
-8.750000 22.500000 0.750000
-9.228350 22.595150 0.750000
-9.633880 22.866119 0.750000
-9.904850 23.271650 0.750000
-10.000000 23.750000 0.750000
-9.945100 24.026020 0.750000
9.228400 -22.595200 6.500000
9.228400 -22.595200 -6.750000
9.633900 -22.866100 -6.750000
9.633900 -22.866100 6.500000
10.000000 23.750000 6.500000
9.904800 23.271650 6.500000
9.904800 23.271650 -6.750000
10.000000 23.750000 -6.750000
9.904800 24.228350 6.500000
9.904800 24.228350 -6.750000
8.750000 -25.000000 -6.750000
8.750000 -25.000000 6.500000
8.271600 -24.904800 6.500000
8.271600 -24.904800 -6.750000
9.904800 -24.228399 -6.750000
9.633900 -24.633900 -6.750000
9.633900 -24.633900 6.500000
9.904800 -24.228399 6.500000
-8.271650 24.904850 6.500000
-8.271650 24.904850 -6.750000
-8.750000 25.000000 -6.750000
-8.750000 25.000000 6.500000
-9.228350 24.904850 6.500000
-9.228350 24.904850 -6.750000
-8.750000 25.000000 -6.750000
-8.750000 25.000000 6.500000
-9.904850 24.228350 6.500000
-9.633880 24.633881 6.500000
-9.633880 24.633881 -6.750000
-9.904850 24.228350 -6.750000
-9.228350 -24.904800 -6.750000
-9.228350 -24.904800 6.500000
-8.271650 -22.595200 6.500000
-8.271650 -22.595200 -6.750000
-7.866120 -22.866100 -6.750000
-7.866120 -22.866100 6.500000
15.000000 -30.000000 6.500000
15.000000 -30.000000 6.750000
-15.000000 -30.000000 6.750000
-15.000000 -30.000000 6.500000
9.904800 -23.271601 -6.750000
9.904800 -23.271601 6.500000
9.904800 24.228350 -6.750000
10.000000 23.750000 -6.750000
10.000000 23.750000 6.500000
9.904800 24.228350 6.500000
7.595200 23.271650 6.500000
7.500000 23.750000 6.500000
7.500000 23.750000 -6.750000
7.595200 23.271650 -6.750000
8.750000 -22.500000 6.500000
8.750000 -22.500000 -6.750000
-9.633880 22.866119 -6.750000
-9.633880 22.866119 6.500000
-9.228350 22.595150 6.500000
-9.228350 22.595150 -6.750000
-10.000000 23.750000 -6.750000
-9.904850 24.228350 -6.750000
-9.904850 24.228350 6.500000
-10.000000 23.750000 6.500000
-15.000000 -30.000000 0.750000
-15.000000 30.000000 0.750000
-15.000000 30.000000 -0.750000
-15.000000 -30.000000 -0.750000
9.633900 24.633881 -6.750000
9.633900 24.633881 6.500000
-7.866120 22.866119 0.750000
-8.271650 22.595150 0.750000
-8.667700 22.516371 0.750000
-4.000000 17.000000 0.750000
4.000000 17.000000 0.750000
8.667700 22.516371 0.750000
8.271600 22.595150 0.750000
7.866100 22.866119 0.750000
7.595200 23.271641 0.750000
7.500000 23.750000 0.750000
7.595200 24.228350 0.750000
7.866100 24.633881 0.750000
8.271600 24.904850 0.750000
8.750000 25.000000 0.750000
9.228400 24.904850 0.750000
9.633900 24.633881 0.750000
9.904900 24.228350 0.750000
9.945100 24.026020 0.750000
15.000000 29.999998 0.750000
-15.000000 29.999998 0.750000
-9.945100 24.026020 0.750000
-9.904850 24.228350 0.750000
-9.633880 24.633881 0.750000
-9.228350 24.904850 0.750000
-8.750000 25.000000 0.750000
-8.271650 24.904850 0.750000
-7.866120 24.633881 0.750000
-7.595150 24.228350 0.750000
-7.500000 23.750000 0.750000
-7.595150 23.271641 0.750000
8.750000 -22.500000 6.500000
8.750000 -22.500000 -6.750000
8.271600 -22.595200 -6.750000
8.271600 -22.595200 6.500000
4.000000 17.000000 0.750000
-4.000000 17.000000 0.750000
-4.000000 17.000000 -0.750000
4.000000 17.000000 -0.750000
-7.500000 -23.750000 -0.750000
-7.595150 -24.228399 -0.750000
-7.866120 -24.633900 -0.750000
-8.271650 -24.904800 -0.750000
-8.750000 -25.000000 -0.750000
-9.228350 -24.904800 -0.750000
-9.633880 -24.633900 -0.750000
-9.904850 -24.228399 -0.750000
-9.945100 -24.025999 -0.750000
-15.000000 -30.000000 -0.750000
15.000000 -30.000000 -0.750000
9.945100 -24.025999 -0.750000
9.904800 -24.228399 -0.750000
9.633900 -24.633900 -0.750000
9.228400 -24.904800 -0.750000
8.750000 -25.000000 -0.750000
8.271600 -24.904800 -0.750000
7.866100 -24.633900 -0.750000
7.595200 -24.228399 -0.750000
7.500000 -23.750000 -0.750000
7.595200 -23.271601 -0.750000
7.866100 -22.866100 -0.750000
8.271600 -22.595200 -0.750000
8.667700 -22.516399 -0.750000
4.000000 -17.000000 -0.750000
-4.000000 -17.000000 -0.750000
-8.667700 -22.516399 -0.750000
-8.271650 -22.595200 -0.750000
-7.866120 -22.866100 -0.750000
-7.595150 -23.271601 -0.750000
9.904800 -24.228399 6.500000
9.633900 -24.633900 6.500000
9.633900 -24.633900 -6.750000
9.904800 -24.228399 -6.750000
4.000000 17.000000 -0.750000
-4.000000 17.000000 -0.750000
-4.000000 17.000000 0.750000
4.000000 17.000000 0.750000
7.866100 22.866119 -6.750000
7.866100 22.866119 6.500000
8.271600 22.595150 6.500000
8.271600 22.595150 -6.750000
-7.500000 23.750000 -6.750000
-7.595150 23.271650 -6.750000
-7.595150 23.271650 6.500000
-7.500000 23.750000 6.500000
7.595200 24.228350 6.500000
7.866100 24.633881 6.500000
8.271600 24.904850 6.500000
8.750000 25.000000 6.500000
9.228400 24.904850 6.500000
9.904800 23.271650 6.500000
9.633900 22.866119 6.500000
9.228400 22.595150 6.500000
8.750000 22.500000 6.500000
7.595200 23.271650 6.500000
7.500000 23.750000 6.500000
-7.866120 24.633881 6.500000
-7.595150 24.228350 6.500000
-7.595150 24.228350 -6.750000
-7.866120 24.633881 -6.750000
-15.000000 30.000000 6.750000
-15.000000 30.000000 6.500000
15.000000 -30.000000 0.750000
-15.000000 -30.000000 0.750000
-9.945100 -24.025999 0.750000
-9.904850 -24.228399 0.750000
-9.633880 -24.633900 0.750000
-9.228350 -24.904800 0.750000
-8.750000 -25.000000 0.750000
-8.271650 -24.904800 0.750000
-7.866120 -24.633900 0.750000
-7.595150 -24.228399 0.750000
-7.500000 -23.750000 0.750000
-7.595150 -23.271601 0.750000
-7.866120 -22.866100 0.750000
-8.271650 -22.595200 0.750000
-8.667700 -22.516399 0.750000
-4.000000 -17.000000 0.750000
4.000000 -17.000000 0.750000
8.667700 -22.516399 0.750000
8.271600 -22.595200 0.750000
7.866100 -22.866100 0.750000
7.595200 -23.271601 0.750000
7.500000 -23.750000 0.750000
7.595200 -24.228399 0.750000
7.866100 -24.633900 0.750000
8.271600 -24.904800 0.750000
8.750000 -25.000000 0.750000
9.228400 -24.904800 0.750000
9.633900 -24.633900 0.750000
9.904800 -24.228399 0.750000
9.945100 -24.025999 0.750000
-8.750000 22.500000 -6.750000
-8.750000 22.500000 6.500000
-9.228350 22.595150 6.500000
-9.228350 22.595150 -6.750000
-8.271650 24.904850 -6.750000
-8.271650 24.904850 6.500000
4.000000 -17.000000 0.750000
4.000000 17.000000 0.750000
4.000000 17.000000 -0.750000
4.000000 -17.000000 -0.750000
-8.271650 22.595150 -6.750000
-8.271650 22.595150 6.500000
-7.866120 22.866119 6.500000
-7.866120 22.866119 -6.750000
15.000000 30.000000 6.750000
-8.271650 -24.904800 -6.750000
-8.271650 -24.904800 6.500000
-8.750000 -25.000000 6.500000
-8.750000 -25.000000 -6.750000
-4.000000 17.000000 0.750000
-4.000000 -17.000000 0.750000
-4.000000 -17.000000 -0.750000
-4.000000 17.000000 -0.750000
-9.228350 -22.595200 6.500000
-9.228350 -22.595200 -6.750000
-8.750000 -22.500000 -6.750000
-8.750000 -22.500000 6.500000
9.228400 -24.904800 -6.750000
9.228400 -24.904800 6.500000
-7.866120 -24.633900 6.500000
-7.866120 -24.633900 -6.750000
9.228400 -22.595200 6.500000
9.228400 -22.595200 -6.750000
-15.000000 29.999998 0.750000
15.000000 29.999998 0.750000
15.000000 29.999998 -0.750000
-15.000000 29.999998 -0.750000
9.228400 24.904850 -0.750000
9.633900 24.633881 -0.750000
9.904900 24.228350 -0.750000
9.945100 24.026020 -0.750000
15.000000 29.999998 -0.750000
-15.000000 29.999998 -0.750000
-9.945100 24.026020 -0.750000
-9.904850 24.228350 -0.750000
-9.633880 24.633881 -0.750000
-9.228350 24.904850 -0.750000
-8.750000 25.000000 -0.750000
-8.271650 24.904850 -0.750000
-7.866120 24.633881 -0.750000
-7.595150 24.228350 -0.750000
-7.500000 23.750000 -0.750000
-7.595150 23.271641 -0.750000
-7.866120 22.866119 -0.750000
-8.271650 22.595150 -0.750000
-8.667700 22.516371 -0.750000
-4.000000 17.000000 -0.750000
4.000000 17.000000 -0.750000
8.667700 22.516371 -0.750000
8.271600 22.595150 -0.750000
7.866100 22.866119 -0.750000
7.595200 23.271641 -0.750000
7.500000 23.750000 -0.750000
7.595200 24.228350 -0.750000
7.866100 24.633881 -0.750000
8.271600 24.904850 -0.750000
8.750000 25.000000 -0.750000
7.595200 -24.228399 -6.750000
7.500000 -23.750000 -6.750000
7.500000 -23.750000 6.500000
7.595200 -24.228399 6.500000
15.000000 -30.000000 -0.750000
-15.000000 -30.000000 -0.750000
-15.000000 -30.000000 0.750000
15.000000 -30.000000 0.750000
7.866100 22.866119 0.750000
8.271600 22.595150 0.750000
8.667700 22.516371 0.750000
4.000000 17.000000 0.750000
-4.000000 17.000000 0.750000
-8.667700 22.516371 0.750000
-8.271650 22.595150 0.750000
-7.866120 22.866119 0.750000
-7.595150 23.271641 0.750000
-7.500000 23.750000 0.750000
-7.595150 24.228350 0.750000
-7.866120 24.633881 0.750000
-8.271650 24.904850 0.750000
-8.750000 25.000000 0.750000
-9.228350 24.904850 0.750000
-9.633880 24.633881 0.750000
-9.904850 24.228350 0.750000
-9.945100 24.026020 0.750000
-15.000000 29.999998 0.750000
15.000000 29.999998 0.750000
9.945100 24.026020 0.750000
9.904900 24.228350 0.750000
9.633900 24.633881 0.750000
9.228400 24.904850 0.750000
8.750000 25.000000 0.750000
8.271600 24.904850 0.750000
7.866100 24.633881 0.750000
7.595200 24.228350 0.750000
7.500000 23.750000 0.750000
7.595200 23.271641 0.750000
15.000000 30.000000 6.500000
9.633900 -22.866100 -0.750000
9.228400 -22.595200 -0.750000
8.750000 -22.500000 -0.750000
8.667700 -22.516399 -0.750000
4.000000 -17.000000 -0.750000
4.000000 17.000000 -0.750000
8.667700 22.516371 -0.750000
8.750000 22.500000 -0.750000
9.228400 22.595150 -0.750000
9.633900 22.866119 -0.750000
9.904800 23.271650 -0.750000
10.000000 23.750000 -0.750000
9.945100 24.026020 -0.750000
15.000000 30.000000 -0.750000
15.000000 -30.000000 -0.750000
9.945100 -24.025999 -0.750000
10.000000 -23.750000 -0.750000
9.904800 -23.271601 -0.750000
7.866100 -22.866100 0.750000
8.271600 -22.595200 0.750000
8.667700 -22.516399 0.750000
4.000000 -17.000000 0.750000
-4.000000 -17.000000 0.750000
-8.667700 -22.516399 0.750000
-8.271650 -22.595200 0.750000
-7.866120 -22.866100 0.750000
-7.595150 -23.271601 0.750000
-7.500000 -23.750000 0.750000
-7.595150 -24.228399 0.750000
-7.866120 -24.633900 0.750000
-8.271650 -24.904800 0.750000
-8.750000 -25.000000 0.750000
-9.228350 -24.904800 0.750000
-9.633880 -24.633900 0.750000
-9.904850 -24.228399 0.750000
-9.945100 -24.025999 0.750000
-15.000000 -30.000000 0.750000
15.000000 -30.000000 0.750000
9.945100 -24.025999 0.750000
9.904800 -24.228399 0.750000
9.633900 -24.633900 0.750000
9.228400 -24.904800 0.750000
8.750000 -25.000000 0.750000
8.271600 -24.904800 0.750000
7.866100 -24.633900 0.750000
7.595200 -24.228399 0.750000
7.500000 -23.750000 0.750000
7.595200 -23.271601 0.750000
-7.500000 23.750000 6.500000
-7.595150 23.271650 6.500000
-7.595150 23.271650 -6.750000
-7.500000 23.750000 -6.750000
9.228400 24.904850 -6.750000
9.633900 24.633881 -6.750000
9.633900 22.866119 -6.750000
9.228400 22.595150 -6.750000
8.750000 22.500000 -6.750000
8.271600 22.595150 -6.750000
7.866100 22.866119 -6.750000
7.595200 24.228350 -6.750000
7.866100 24.633881 -6.750000
8.271600 24.904850 -6.750000
8.750000 25.000000 -6.750000
-8.271650 22.595150 -6.750000
-9.633880 22.866119 -6.750000
-9.904850 23.271650 -6.750000
-10.000000 23.750000 -6.750000
-9.228350 24.904850 -6.750000
-7.866120 22.866119 -6.750000
15.000000 30.000000 0.750000
15.000000 -30.000000 0.750000
15.000000 -30.000000 -0.750000
15.000000 30.000000 -0.750000
-8.750000 22.500000 -6.750000
-7.595150 24.228350 -6.750000
-7.866120 24.633881 -6.750000
-9.633880 24.633881 -6.750000
-9.904850 23.271650 -6.750000
-7.595150 24.228350 6.500000
-9.228350 24.904850 6.500000
-10.000000 23.750000 6.500000
-9.904850 23.271650 6.500000
-9.633880 22.866119 6.500000
-8.271650 22.595150 6.500000
-7.866120 22.866119 6.500000
-9.904850 23.271650 6.500000
-9.633880 24.633881 6.500000
-7.866120 24.633881 6.500000
-8.750000 22.500000 6.500000
-9.633880 -22.866100 6.500000
-9.633880 -22.866100 -6.750000
-9.228350 -22.595200 6.500000
-9.228350 -22.595200 -6.750000
-9.633880 -22.866100 -6.750000
-9.633880 -22.866100 6.500000
-9.228350 -24.904800 -6.750000
-9.633880 -24.633900 -6.750000
-9.904850 -24.228399 -6.750000
-10.000000 -23.750000 -6.750000
-9.904850 -23.271601 -6.750000
-8.750000 -22.500000 -6.750000
-8.271650 -22.595200 -6.750000
-7.866120 -22.866100 -6.750000
-7.595150 -23.271601 -6.750000
-7.500000 -23.750000 -6.750000
-7.595150 -24.228399 -6.750000
-7.866120 -24.633900 -6.750000
7.595200 24.228350 -0.750000
7.500000 23.750000 -0.750000
7.595200 23.271641 -0.750000
7.866100 22.866119 -0.750000
8.271600 22.595150 -0.750000
8.667700 22.516371 -0.750000
4.000000 17.000000 -0.750000
-4.000000 17.000000 -0.750000
-8.667700 22.516371 -0.750000
-8.271650 22.595150 -0.750000
-7.866120 22.866119 -0.750000
-7.595150 23.271641 -0.750000
-7.500000 23.750000 -0.750000
-7.595150 24.228350 -0.750000
-7.866120 24.633881 -0.750000
-8.271650 24.904850 -0.750000
-8.750000 25.000000 -0.750000
-9.228350 24.904850 -0.750000
-9.633880 24.633881 -0.750000
-9.904850 24.228350 -0.750000
-9.945100 24.026020 -0.750000
-15.000000 29.999998 -0.750000
15.000000 29.999998 -0.750000
9.945100 24.026020 -0.750000
9.904900 24.228350 -0.750000
9.633900 24.633881 -0.750000
9.228400 24.904850 -0.750000
8.750000 25.000000 -0.750000
8.271600 24.904850 -0.750000
7.866100 24.633881 -0.750000
-9.904850 -23.271601 -6.750000
-10.000000 -23.750000 -6.750000
-9.904850 -24.228399 -6.750000
-9.633880 -24.633900 -6.750000
-7.595150 -24.228399 -6.750000
-7.500000 -23.750000 -6.750000
-7.595150 -23.271601 -6.750000
-7.595150 -24.228399 6.500000
-7.500000 -23.750000 6.500000
-7.595150 -23.271601 6.500000
-7.500000 -23.750000 6.500000
-7.866120 -24.633900 6.500000
-7.595150 -24.228399 6.500000
-7.866120 -22.866100 6.500000
-8.271650 -22.595200 6.500000
-8.750000 -22.500000 6.500000
-9.904850 -23.271601 6.500000
-10.000000 -23.750000 6.500000
-9.904850 -24.228399 6.500000
-9.633880 -24.633900 6.500000
-9.228350 -24.904800 6.500000
-9.904850 -23.271601 6.500000
-7.595150 -23.271601 6.500000
-9.633880 -24.633900 6.500000
-9.904850 -24.228399 6.500000
-10.000000 -23.750000 6.500000
7.866100 -22.866100 6.500000
7.866100 -22.866100 -6.750000
8.271600 -22.595200 -6.750000
8.271600 -22.595200 6.500000
8.750000 -22.500000 0.750000
9.228400 -22.595200 0.750000
9.633900 -22.866100 0.750000
9.904800 -23.271601 0.750000
10.000000 -23.750000 0.750000
9.945100 -24.025999 0.750000
15.000000 -30.000000 0.750000
15.000000 30.000000 0.750000
9.945100 24.026020 0.750000
10.000000 23.750000 0.750000
9.904800 23.271650 0.750000
9.633900 22.866119 0.750000
9.228400 22.595150 0.750000
8.750000 22.500000 0.750000
8.667700 22.516371 0.750000
4.000000 17.000000 0.750000
4.000000 -17.000000 0.750000
8.667700 -22.516399 0.750000
7.595200 23.271650 -6.750000
7.500000 23.750000 -6.750000
9.633900 -22.866100 6.500000
9.633900 -22.866100 -6.750000
10.000000 -23.750000 -6.750000
10.000000 -23.750000 6.500000
7.866100 -24.633900 -6.750000
7.595200 -24.228399 -6.750000
7.500000 -23.750000 -6.750000
7.595200 -23.271601 -6.750000
7.866100 -22.866100 -6.750000
9.904800 -23.271601 -6.750000
10.000000 -23.750000 -6.750000
7.595200 -23.271601 -6.750000
7.866100 -24.633900 -6.750000
8.271600 -24.904800 -6.750000
8.750000 -25.000000 -6.750000
9.228400 -24.904800 -6.750000
7.595200 24.228350 6.500000
-7.595150 -24.228399 -0.750000
-7.500000 -23.750000 -0.750000
-7.595150 -23.271601 -0.750000
-7.866120 -22.866100 -0.750000
-8.271650 -22.595200 -0.750000
-8.667700 -22.516399 -0.750000
-4.000000 -17.000000 -0.750000
4.000000 -17.000000 -0.750000
8.667700 -22.516399 -0.750000
8.271600 -22.595200 -0.750000
7.866100 -22.866100 -0.750000
7.595200 -23.271601 -0.750000
7.500000 -23.750000 -0.750000
7.595200 -24.228399 -0.750000
7.866100 -24.633900 -0.750000
8.271600 -24.904800 -0.750000
8.750000 -25.000000 -0.750000
9.228400 -24.904800 -0.750000
9.633900 -24.633900 -0.750000
9.904800 -24.228399 -0.750000
9.945100 -24.025999 -0.750000
15.000000 -30.000000 -0.750000
-15.000000 -30.000000 -0.750000
-9.945100 -24.025999 -0.750000
-9.904850 -24.228399 -0.750000
-9.633880 -24.633900 -0.750000
-9.228350 -24.904800 -0.750000
-8.750000 -25.000000 -0.750000
-8.271650 -24.904800 -0.750000
-7.866120 -24.633900 -0.750000
7.866100 -22.866100 6.500000
7.595200 -23.271601 6.500000
7.500000 -23.750000 6.500000
7.595200 -24.228399 6.500000
7.866100 -24.633900 6.500000
10.000000 -23.750000 6.500000
9.904800 -23.271601 6.500000
9.228400 -24.904800 6.500000
8.750000 -25.000000 6.500000
8.271600 -24.904800 6.500000
7.866100 -24.633900 6.500000
7.595200 -23.271601 6.500000
9.904800 23.271650 -6.750000
-15.000000 29.999998 -0.750000
15.000000 29.999998 -0.750000
15.000000 29.999998 0.750000
-15.000000 29.999998 0.750000
9.228400 22.595150 -6.750000
9.633900 22.866119 -6.750000
-9.904850 23.271650 -0.750000
-9.633880 22.866119 -0.750000
-9.228350 22.595150 -0.750000
-8.750000 22.500000 -0.750000
-8.667700 22.516371 -0.750000
-4.000000 17.000000 -0.750000
-4.000000 -17.000000 -0.750000
-8.667700 -22.516399 -0.750000
-8.750000 -22.500000 -0.750000
-9.228350 -22.595200 -0.750000
-9.633880 -22.866100 -0.750000
-9.904850 -23.271601 -0.750000
-10.000000 -23.750000 -0.750000
-9.945100 -24.025999 -0.750000
-15.000000 -30.000000 -0.750000
-15.000000 30.000000 -0.750000
-9.945100 24.026020 -0.750000
-10.000000 23.750000 -0.750000
9.633900 24.633881 6.500000
-4.000000 -17.000000 -0.750000
4.000000 -17.000000 -0.750000
4.000000 -17.000000 0.750000
-4.000000 -17.000000 0.750000
15.000000 -30.000000 0.750000
-15.000000 -30.000000 0.750000
-15.000000 -30.000000 -0.750000
15.000000 -30.000000 -0.750000
-4.000000 -17.000000 0.750000
4.000000 -17.000000 0.750000
4.000000 -17.000000 -0.750000
-4.000000 -17.000000 -0.750000
7.866100 22.866119 6.500000
8.271600 22.595150 6.500000
9.228400 24.904850 -6.750000
9.228400 24.904850 6.500000
8.750000 22.500000 -6.750000
8.750000 22.500000 6.500000
7.866100 24.633881 -6.750000
8.271600 24.904850 -6.750000
7.866100 24.633881 6.500000
9.633900 22.866119 6.500000
7.595200 24.228350 -6.750000
9.228400 22.595150 6.500000
8.750000 25.000000 6.500000
8.271600 24.904850 6.500000
8.750000 25.000000 -6.750000
4 0 1 2 3
18 4 5 6 7 8 9 10 11 12 13 14 15 16 17 18 19 20 21
4 22 23 24 25
4 26 27 28 29
4 30 26 29 31
4 32 33 34 35
4 36 37 38 39
4 40 41 42 43
4 44 45 46 47
4 48 49 50 51
4 52 53 1 0
4 54 55 56 57
4 58 59 60 61
4 24 62 63 25
4 64 65 66 67
4 68 69 70 71
4 72 73 23 22
4 74 75 76 77
4 78 79 80 81
4 82 83 84 85
4 86 64 67 87
30 88 89 90 91 92 93 94 95 96 97 98 99 100 101 102 103 104 105 106 107 108 109 110 111 112 113 114 115 116 117
4 118 119 120 121
4 122 123 124 125
30 126 127 128 129 130 131 132 133 134 135 136 137 138 139 140 141 142 143 144 145 146 147 148 149 150 151 152 153 154 155
4 156 157 158 159
4 160 161 162 163
4 164 165 166 167
4 168 169 170 171
16 172 173 174 175 176 87 67 66 177 178 179 180 166 165 181 182
4 183 184 185 186
4 60 187 188 61
30 189 190 191 192 193 194 195 196 197 198 199 200 201 202 203 204 205 206 207 208 209 210 211 212 213 214 215 216 217 218
4 219 220 221 222
4 47 46 223 224
4 225 226 227 228
4 229 230 231 232
4 60 59 233 187
4 234 235 236 237
4 238 239 240 241
4 242 243 244 245
4 246 247 33 32
4 3 2 248 249
4 250 251 119 118
4 252 253 254 255
30 256 257 258 259 260 261 262 263 264 265 266 267 268 269 270 271 272 273 274 275 276 277 278 279 280 281 282 283 284 285
4 286 287 288 289
4 290 291 292 293
30 294 295 296 297 298 299 300 301 302 303 304 305 306 307 308 309 310 311 312 313 314 315 316 317 318 319 320 321 322 323
4 233 324 188 187
4 233 59 58 324
18 325 326 327 328 329 330 331 332 333 334 335 336 337 338 339 340 341 342
30 343 344 345 346 347 348 349 350 351 352 353 354 355 356 357 358 359 360 361 362 363 364 365 366 367 368 369 370 371 372
4 373 374 375 376
16 377 378 31 29 28 379 380 381 382 383 71 70 384 385 386 387
16 388 219 222 389 390 391 51 50 392 42 41 186 185 376 375 393
4 394 395 396 397
16 74 77 398 229 232 169 168 399 400 223 46 45 401 79 78 402
4 399 168 171 403
4 184 373 376 185
16 404 49 48 405 406 407 221 220 408 409 374 373 184 183 40 43
16 76 75 410 81 80 411 44 47 224 412 403 171 170 231 230 413
4 398 413 230 229
4 388 408 220 219
4 169 232 231 170
4 374 409 393 375
4 405 48 51 391
4 222 221 407 389
4 402 78 81 410
4 406 405 391 390
4 74 402 410 75
4 407 406 390 389
4 77 76 413 398
4 400 399 403 412
4 43 42 392 404
4 411 401 45 44
4 404 392 50 49
4 224 223 400 412
4 183 186 41 40
4 414 415 243 242
4 416 417 418 419
16 234 237 420 421 422 423 424 418 417 425 426 427 428 429 430 431
30 432 433 434 435 436 437 438 439 440 441 442 443 444 445 446 447 448 449 450 451 452 453 454 455 456 457 458 459 460 461
4 393 409 408 388
4 79 401 411 80
16 244 243 415 462 463 464 465 52 0 3 249 466 467 468 56 55
4 467 466 469 470
4 471 472 429 428
16 473 474 472 471 475 476 477 416 419 478 479 480 481 482 236 235
16 483 414 242 245 54 57 484 470 469 248 2 1 53 485 486 487
4 237 236 482 420
4 488 489 490 491
4 474 473 431 430
18 492 493 494 495 496 497 498 499 500 501 502 503 504 505 506 507 508 509
4 480 479 423 422
4 463 462 483 487
4 465 464 486 485
4 510 511 182 181
4 465 485 53 52
4 420 482 481 421
4 479 478 424 423
4 481 480 422 421
4 464 463 487 486
4 468 467 470 484
4 245 244 55 54
4 477 425 417 416
4 475 427 426 476
4 466 249 248 469
4 475 471 428 427
4 512 513 251 250
4 62 514 515 63
4 431 473 235 234
16 516 517 518 519 520 120 119 251 513 521 522 159 158 246 32 35
16 523 287 286 524 525 526 527 37 36 514 62 24 23 73 490 489
4 69 528 384 70
30 529 530 531 532 533 534 535 536 537 538 539 540 541 542 543 544 545 546 547 548 549 550 551 552 553 554 555 556 557 558
4 476 426 425 477
16 559 560 561 562 563 34 33 247 157 156 564 565 512 250 118 121
16 39 38 566 567 568 569 289 288 570 488 491 72 22 25 63 515
4 562 561 518 517
4 65 571 177 66
4 572 573 574 575
4 525 568 567 526
4 526 567 566 527
4 560 559 520 519
4 35 34 563 516
4 576 179 178 577
4 563 562 517 516
4 287 523 570 288
4 561 560 519 518
4 524 286 289 569
4 524 569 568 525
4 523 489 488 570
4 121 120 520 559
18 578 579 580 581 582 583 584 585 586 587 588 589 590 591 592 593 594 595
4 491 490 73 72
4 571 577 178 177
4 158 157 247 246
4 527 566 38 37
4 564 156 159 522
4 512 565 521 513
4 596 30 31 378
4 58 61 188 324
4 597 598 599 600
4 601 602 603 604
4 605 606 607 608
4 609 68 71 383
4 382 610 609 383
4 514 36 39 515
4 176 611 86 87
4 596 378 377 612
4 613 180 179 576
4 381 614 610 382
4 173 615 616 174
4 164 510 181 165
4 528 617 385 384
4 27 618 379 28
4 462 415 414 483
4 511 619 172 182
16 620 618 27 26 30 596 612 621 622 617 528 69 68 609 610 614
4 619 615 173 172
16 64 86 611 623 616 615 619 511 510 164 167 613 576 577 571 65
4 622 386 385 617
4 612 377 387 621
4 472 474 430 429
4 174 616 623 175
4 621 387 386 622
4 175 623 611 176
4 167 166 180 613
4 565 564 522 521
4 478 419 418 424
4 380 620 614 381
4 379 618 620 380
4 56 468 484 57
