ply
format ascii 1.0
comment Created by Blender 2.82 (sub 7) - www.blender.org, source file: ''
element vertex 691
property float x
property float y
property float z
element face 204
property list uchar uint vertex_indices
end_header
8.399950 22.961300 14.094449
8.505450 23.355000 14.094449
8.478550 23.558800 14.094449
15.747950 31.496000 14.094449
15.747950 -31.496000 14.094449
8.111750 22.673100 14.094449
-6.084450 -22.120001 11.211350
-7.036150 -23.749001 14.094449
-7.161350 -23.912001 14.094449
-6.158350 -22.195000 11.056150
-15.386750 -28.215000 -14.566949
-15.033850 -28.011000 -14.566949
-6.226750 -22.139999 7.450650
-6.439550 -22.250000 7.801250
-6.297650 -21.073000 7.273350
6.297650 -21.073000 7.273350
6.144850 -21.459999 7.145850
-6.144850 -21.459999 7.145850
-15.033850 26.897200 -14.566949
-14.830050 27.250200 -14.566949
-6.144850 21.460100 7.145850
-6.297650 21.073099 7.273350
6.843550 20.748800 10.828049
7.921850 22.594400 14.094449
7.514250 22.594400 14.094449
6.548550 20.941500 11.169149
-7.117650 -21.094999 8.516849
7.117550 -21.094999 8.516849
7.009750 -20.806000 8.276950
-7.009850 -20.806000 8.276950
8.478550 23.558800 14.094449
8.478550 23.151199 14.094449
7.189550 20.944799 10.189650
7.188150 21.100201 10.103949
7.147850 21.280899 10.063250
-8.478650 -23.150999 14.094449
-8.400050 -22.961000 14.094449
-7.152150 -20.825001 10.314249
-7.189650 -20.945000 10.189650
-6.403150 -21.096001 11.303649
-7.324350 -22.673000 14.094449
-7.036150 -22.961000 14.094449
-6.165050 -21.469999 11.455450
6.046850 22.000200 11.336050
6.957450 23.558800 14.094449
7.161250 23.911800 14.094449
6.158250 22.195000 11.056150
6.084350 22.119600 11.211350
15.747950 31.496000 14.566949
15.747950 -31.496000 14.566949
15.747950 -31.496000 14.094449
15.747950 31.496000 14.094449
-16.147350 26.897200 -14.566949
-7.009850 20.805500 8.276950
-7.117650 21.094500 8.516849
-16.351151 27.250200 -14.566949
-14.830050 -27.250000 -14.566949
-15.033850 -26.896999 -14.566949
-6.297650 -21.073000 7.273350
-6.144850 -21.459999 7.145850
1.075250 -25.410000 9.846750
1.419550 -25.410000 10.064850
1.419550 25.409500 10.064850
1.075250 25.409500 9.846750
6.046850 -22.000000 11.336050
6.048350 -21.844999 11.421650
-6.048350 -21.844999 11.421650
-6.046950 -22.000000 11.336050
-6.084450 -22.120001 11.211350
6.084350 -22.120001 11.211350
-8.111750 -22.673000 14.094449
-6.973050 -20.724001 10.644749
7.514250 24.115601 14.094449
6.392850 22.196199 10.697550
15.747950 -31.496000 14.094449
8.111750 22.673100 14.094449
7.921850 22.594400 14.094449
7.514250 22.594400 14.094449
7.161250 22.798201 14.094449
6.957450 23.151199 14.094449
6.957450 23.558800 14.094449
7.161250 23.911800 14.094449
7.514250 24.115601 14.094449
7.921850 24.115601 14.094449
8.111750 24.036900 14.094449
8.399950 23.748699 14.094449
8.478550 23.558800 14.094449
15.747950 31.496000 14.094449
-15.748050 31.496000 14.094449
-8.400050 23.748699 14.094449
-8.274850 23.911800 14.094449
-7.921850 24.115601 14.094449
-7.514350 24.115601 14.094449
-7.324350 24.036900 14.094449
-7.036150 23.748699 14.094449
-6.930650 23.355000 14.094449
-7.036150 22.961300 14.094449
-7.324350 22.673100 14.094449
-7.514350 22.594400 14.094449
-7.921850 22.594400 14.094449
-8.274850 22.798201 14.094449
-8.400050 22.961300 14.094449
-8.505550 23.355000 14.094449
-8.478650 23.558800 14.094449
-15.748050 -31.496000 14.094449
-8.400050 -23.749001 14.094449
-8.505550 -23.355000 14.094449
-8.400050 -22.961000 14.094449
-8.111750 -22.673000 14.094449
-7.718050 -22.568001 14.094449
-7.324350 -22.673000 14.094449
-7.036150 -22.961000 14.094449
-6.930650 -23.355000 14.094449
-7.036150 -23.749001 14.094449
-7.161350 -23.912001 14.094449
7.324350 -24.037001 14.094449
7.161250 -23.912001 14.094449
6.957450 -23.559000 14.094449
6.957450 -23.150999 14.094449
7.161250 -22.798000 14.094449
7.324350 -22.673000 14.094449
7.718050 -22.568001 14.094449
8.111750 -22.673000 14.094449
8.399950 -22.961000 14.094449
8.505450 -23.355000 14.094449
8.478550 -23.559000 14.094449
-1.274950 -25.410000 8.623449
-1.670750 -25.410000 8.526049
-1.670750 25.409500 8.526049
-1.274950 25.409500 8.623449
-7.091650 -21.485001 8.581750
7.091650 -21.485001 8.581750
-6.700150 22.151800 8.168550
-15.794350 28.214600 -14.566949
-16.147350 28.010799 -14.566949
-6.938850 21.871799 8.454249
7.161250 22.798201 14.094449
6.957450 23.151199 14.094449
6.088550 21.664000 11.462450
6.272250 21.276501 11.401349
-6.957550 23.151199 14.094449
-6.088650 21.664000 11.462450
-6.048350 21.844700 11.421650
-6.046950 22.000200 11.336050
-6.957550 23.558800 14.094449
16.351049 -27.658001 -14.566949
16.351049 -27.250000 -14.566949
7.117550 -21.094999 8.516849
7.091650 -21.485001 8.581750
1.686950 -25.410000 8.526550
1.482250 -25.410000 8.544950
1.482250 25.409500 8.544950
1.686950 25.409500 8.526550
-15.590550 -26.667000 -14.566949
-15.196850 -26.771999 -14.566949
-14.908650 -27.059999 -14.566949
-14.803150 -27.454000 -14.566949
-14.908650 -27.848000 -14.566949
-15.033850 -28.011000 -14.566949
-15.386750 -28.215000 -14.566949
-15.794350 -28.215000 -14.566949
-16.147350 -28.011000 -14.566949
-16.351151 -27.658001 -14.566949
-16.351151 -27.250000 -14.566949
-16.272551 -27.059999 -14.566949
-15.984250 -26.771999 -14.566949
2.187950 25.409500 9.892550
2.406050 25.409500 9.548250
2.422850 25.409500 9.141050
2.233750 25.409500 8.779950
2.075950 25.409500 8.648149
1.686950 25.409500 8.526550
1.482250 25.409500 8.544950
1.121150 25.409500 8.734050
0.902950 25.409500 9.078350
0.867750 25.409500 9.280949
0.956950 25.409500 9.678649
1.075250 25.409500 9.846750
1.419550 25.409500 10.064850
1.826850 25.409500 10.081650
2.233750 -25.410000 8.779950
2.075950 -25.410000 8.648149
2.075950 25.409500 8.648149
2.233750 25.409500 8.779950
1.121150 -25.410000 8.734050
1.121150 25.409500 8.734050
6.687850 -22.004000 10.356549
7.921850 -24.115999 14.094449
7.514250 -24.115999 14.094449
6.392850 -22.195999 10.697550
6.700150 22.151800 8.168550
6.439450 22.249701 7.801250
-6.439550 22.249701 7.801250
-6.700150 22.151800 8.168550
7.078150 20.750000 10.469549
8.274750 22.798201 14.094449
6.796950 -20.695000 7.926350
7.009750 -20.806000 8.276950
16.147249 -26.896999 -14.566949
15.794350 -26.694000 -14.566949
-15.794350 -26.694000 -14.566949
-6.797050 -20.695000 7.926350
-6.536450 -20.792999 7.559050
-15.386750 -26.694000 -14.566949
-6.964250 -21.669001 10.124350
-6.687950 -22.004000 10.356549
-7.921850 -24.115999 14.094449
-8.274850 -23.912001 14.094449
-2.328350 25.409500 9.720849
-2.328350 -25.410000 9.720849
-2.034250 -25.410000 10.003149
-2.034250 25.409500 10.003149
-8.505550 23.355000 14.094449
-8.400050 22.961300 14.094449
-15.748050 -31.496000 14.094449
-15.748050 31.496000 14.094449
-8.478650 23.558800 14.094449
7.921850 24.115601 14.094449
8.274750 23.911800 14.094449
6.964250 21.668501 10.124350
6.687850 22.003401 10.356549
-14.908650 27.847700 -14.566949
-14.803150 27.454000 -14.566949
-14.908650 27.060301 -14.566949
-15.196850 26.772100 -14.566949
-15.386750 26.693399 -14.566949
-15.794350 26.693399 -14.566949
-16.147350 26.897200 -14.566949
-16.351151 27.250200 -14.566949
-16.351151 27.657801 -14.566949
-16.147350 28.010799 -14.566949
-15.794350 28.214600 -14.566949
-15.386750 28.214600 -14.566949
-15.196850 28.135900 -14.566949
15.794350 26.693399 -14.566949
6.796950 20.695200 7.926350
6.536350 20.793200 7.559050
15.386750 26.693399 -14.566949
-14.830050 -27.658001 -14.566949
-6.118950 -21.851000 7.210749
6.226750 22.139400 7.450650
6.439450 22.249701 7.801250
15.386750 28.214600 -14.566949
15.033750 28.010799 -14.566949
-15.748050 -31.496000 14.094449
-15.748050 -31.496000 14.566949
15.747950 -31.496000 14.566949
15.747950 -31.496000 14.094449
8.505450 23.355000 14.094449
8.399950 23.748699 14.094449
8.111750 24.036900 14.094449
7.921850 24.115601 14.094449
7.514250 24.115601 14.094449
7.161250 23.911800 14.094449
6.957450 23.558800 14.094449
6.957450 23.151199 14.094449
7.161250 22.798201 14.094449
7.514250 22.594400 14.094449
7.921850 22.594400 14.094449
8.111750 22.673100 14.094449
8.399950 22.961300 14.094449
-15.748050 31.496000 14.566949
-15.748050 31.496000 14.094449
15.747950 31.496000 14.094449
15.747950 31.496000 14.566949
6.938850 -21.872000 8.454249
-6.938850 -21.872000 8.454249
-6.700150 -22.152000 8.168550
6.700150 -22.152000 8.168550
7.718050 -22.568001 14.094449
7.324350 -22.673000 14.094449
7.161250 -22.798000 14.094449
6.957450 -23.150999 14.094449
6.957450 -23.559000 14.094449
7.161250 -23.912001 14.094449
7.514250 -24.115999 14.094449
7.921850 -24.115999 14.094449
8.274750 -23.912001 14.094449
8.399950 -23.749001 14.094449
8.505450 -23.355000 14.094449
8.399950 -22.961000 14.094449
8.111750 -22.673000 14.094449
15.590550 -26.667000 -14.566949
15.984250 -26.771999 -14.566949
16.272449 -27.059999 -14.566949
16.377951 -27.454000 -14.566949
16.272449 -27.848000 -14.566949
16.147249 -28.011000 -14.566949
15.794350 -28.215000 -14.566949
15.386750 -28.215000 -14.566949
15.033750 -28.011000 -14.566949
14.829950 -27.658001 -14.566949
14.829950 -27.250000 -14.566949
14.908550 -27.059999 -14.566949
15.196850 -26.771999 -14.566949
7.718050 -22.568001 14.094449
6.698750 -20.823000 11.006950
6.403050 -21.096001 11.303649
7.324350 -22.673000 14.094449
2.187950 25.409500 9.892550
2.187950 -25.410000 9.892550
2.406050 -25.410000 9.548250
2.406050 25.409500 9.548250
7.161250 -23.912001 14.094449
7.036150 -23.749001 14.094449
6.084350 -22.120001 11.211350
6.158250 -22.195000 11.056150
7.117550 21.094500 8.516849
-7.117650 21.094500 8.516849
-7.009850 20.805500 8.276950
7.009750 20.805500 8.276950
15.033750 -28.011000 -14.566949
6.226750 -22.139999 7.450650
6.118850 -21.851000 7.210749
14.829950 -27.658001 -14.566949
-6.144850 21.460100 7.145850
6.144850 21.460100 7.145850
6.297650 21.073099 7.273350
-6.297650 21.073099 7.273350
-6.536450 -20.792999 7.559050
6.536350 -20.792999 7.559050
-1.873950 -25.410000 8.557050
-2.222650 -25.410000 8.768050
-2.222650 25.409500 8.768050
-1.873950 25.409500 8.557050
0.867750 -25.410000 9.280949
0.867750 25.409500 9.280949
0.902950 25.409500 9.078350
0.902950 -25.410000 9.078350
-0.964750 -25.410000 9.692950
-0.867350 -25.410000 9.297149
-0.867350 25.409500 9.297149
-0.964750 25.409500 9.692950
-6.698850 -20.823000 11.006950
-7.718050 -22.568001 14.094449
2.422850 -25.410000 9.141050
2.422850 25.409500 9.141050
6.687850 -22.004000 10.356549
6.392850 -22.195999 10.697550
-6.392950 -22.195999 10.697550
-6.687950 -22.004000 10.356549
-6.439550 -22.250000 7.801250
6.439450 -22.250000 7.801250
6.930650 -23.355000 14.094449
7.036150 -22.961000 14.094449
6.164950 -21.469999 11.455450
6.048350 -21.844999 11.421650
15.033750 -26.896999 -14.566949
14.829950 -27.250000 -14.566949
6.144850 -21.459999 7.145850
6.297650 -21.073000 7.273350
6.964250 -21.669001 10.124350
8.274750 -23.912001 14.094449
15.386750 -28.215000 -14.566949
6.439450 -22.250000 7.801250
8.399950 22.961300 14.094449
8.505450 23.355000 14.094449
-1.247050 -25.410000 9.987050
-1.247050 25.409500 9.987050
-16.351151 -27.658001 -14.566949
-16.147350 -28.011000 -14.566949
-6.938850 -21.872000 8.454249
-7.091650 -21.485001 8.581750
6.392850 22.196199 10.697550
6.687850 22.003401 10.356549
-6.687950 22.003401 10.356549
-6.392950 22.196199 10.697550
-6.392950 -22.195999 10.697550
-7.514350 -24.115999 14.094449
-1.638450 -25.410000 10.100549
-1.638450 25.409500 10.100549
-7.189650 20.944799 10.189650
-8.478650 23.151199 14.094449
-8.478650 23.558800 14.094449
-7.147950 21.280899 10.063250
-7.188150 21.100201 10.103949
-2.344450 -25.410000 8.933650
-2.344450 25.409500 8.933650
7.152050 -20.825001 10.314249
8.399950 -22.961000 14.094449
8.478550 -23.150999 14.094449
7.189550 -20.945000 10.189650
-6.046950 22.000200 11.336050
6.046850 22.000200 11.336050
6.084350 22.119600 11.211350
6.158250 22.195000 11.056150
-6.158350 22.195000 11.056150
-6.084450 22.119600 11.211350
6.158250 -22.195000 11.056150
-6.158350 -22.195000 11.056150
-7.161350 23.911800 14.094449
-6.158350 22.195000 11.056150
-6.392950 22.196199 10.697550
-7.514350 24.115601 14.094449
6.164950 -21.469999 11.455450
-6.165050 -21.469999 11.455450
-15.794350 26.693399 -14.566949
-6.797050 20.695200 7.926350
7.147850 -21.281000 10.063250
-7.147950 -21.281000 10.063250
-7.188150 -21.100000 10.103949
-7.189650 -20.945000 10.189650
7.189550 -20.945000 10.189650
7.188150 -21.100000 10.103949
-2.441850 -25.410000 9.329449
-2.441850 25.409500 9.329449
6.698750 -20.823000 11.006950
-6.698850 -20.823000 11.006950
-6.403150 -21.096001 11.303649
6.403050 -21.096001 11.303649
-7.152150 -20.825001 10.314249
7.152050 -20.825001 10.314249
-8.478650 -23.559000 14.094449
-7.188150 -21.100000 10.103949
-7.147950 -21.281000 10.063250
-6.226750 22.139400 7.450650
6.226750 22.139400 7.450650
6.118850 21.850401 7.210749
-6.118950 21.850401 7.210749
6.046850 -22.000000 11.336050
6.843550 20.748800 10.828049
-6.843650 20.748800 10.828049
-7.078250 20.750000 10.469549
7.078150 20.750000 10.469549
6.972950 -20.724001 10.644749
-6.973050 -20.724001 10.644749
6.118850 -21.851000 7.210749
-6.118950 -21.851000 7.210749
-6.797050 20.695200 7.926350
-6.536450 20.793200 7.559050
6.536350 20.793200 7.559050
6.796950 20.695200 7.926350
16.147249 26.897200 -14.566949
16.351049 27.250200 -14.566949
7.117550 21.094500 8.516849
7.009750 20.805500 8.276950
15.747950 31.496000 14.094449
15.747950 -31.496000 14.094449
15.747950 -31.496000 14.566949
15.747950 31.496000 14.566949
6.226750 -22.139999 7.450650
-6.226750 -22.139999 7.450650
6.938850 -21.872000 8.454249
16.147249 -28.011000 -14.566949
6.548550 20.941500 11.169149
-6.548650 20.941500 11.169149
6.272250 21.276501 11.401349
-6.272250 21.276501 11.401349
-15.794350 -28.215000 -14.566949
-6.700150 -22.152000 8.168550
-15.386750 26.693399 -14.566949
-6.536450 20.793200 7.559050
-15.386750 28.214600 -14.566949
-6.439550 22.249701 7.801250
-6.226750 22.139400 7.450650
-15.033850 28.010799 -14.566949
6.796950 -20.695000 7.926350
-6.797050 -20.695000 7.926350
7.091650 21.484800 8.581750
-7.091650 21.484800 8.581750
16.377951 27.454000 -14.566949
16.272449 27.060301 -14.566949
15.984250 26.772100 -14.566949
15.794350 26.693399 -14.566949
15.386750 26.693399 -14.566949
15.033750 26.897200 -14.566949
14.829950 27.250200 -14.566949
14.829950 27.657801 -14.566949
15.033750 28.010799 -14.566949
15.386750 28.214600 -14.566949
15.794350 28.214600 -14.566949
15.984250 28.135900 -14.566949
16.272449 27.847700 -14.566949
-6.088650 21.664000 11.462450
6.088550 21.664000 11.462450
6.048350 21.844700 11.421650
-6.048350 21.844700 11.421650
-6.938850 21.871799 8.454249
6.938850 21.871799 8.454249
-16.147350 -26.896999 -14.566949
-16.351151 -27.250000 -14.566949
-7.117650 -21.094999 8.516849
-7.009850 -20.806000 8.276950
6.964250 -21.669001 10.124350
-6.964250 -21.669001 10.124350
0.956950 25.409500 9.678649
0.956950 -25.410000 9.678649
6.048350 21.844700 11.421650
-6.930650 -23.355000 14.094449
-6.048350 -21.844999 11.421650
-7.188150 21.100201 10.103949
-7.147950 21.280899 10.063250
7.147850 21.280899 10.063250
7.188150 21.100201 10.103949
7.189550 20.944799 10.189650
-7.189650 20.944799 10.189650
-8.274850 22.798201 14.094449
-7.152150 20.825300 10.314249
-7.078250 20.750000 10.469549
-0.980850 -25.410000 8.905749
-0.980850 25.409500 8.905749
6.700150 22.151800 8.168550
15.794350 28.214600 -14.566949
6.964250 21.668501 10.124350
-6.964250 21.668501 10.124350
-7.921850 24.115601 14.094449
-6.687950 22.003401 10.356549
-6.964250 21.668501 10.124350
-8.274850 23.911800 14.094449
-6.084450 22.119600 11.211350
2.422850 -25.410000 9.141050
2.406050 -25.410000 9.548250
2.187950 -25.410000 9.892550
1.826850 -25.410000 10.081650
1.419550 -25.410000 10.064850
1.075250 -25.410000 9.846750
0.956950 -25.410000 9.678649
0.867750 -25.410000 9.280949
0.902950 -25.410000 9.078350
1.121150 -25.410000 8.734050
1.482250 -25.410000 8.544950
1.686950 -25.410000 8.526550
2.075950 -25.410000 8.648149
2.233750 -25.410000 8.779950
-6.843650 20.748800 10.828049
-7.921850 22.594400 14.094449
-0.964750 25.409500 9.692950
-0.867350 25.409500 9.297149
-0.980850 25.409500 8.905749
-1.274950 25.409500 8.623449
-1.670750 25.409500 8.526049
-1.873950 25.409500 8.557050
-2.222650 25.409500 8.768050
-2.344450 25.409500 8.933650
-2.441850 25.409500 9.329449
-2.328350 25.409500 9.720849
-2.034250 25.409500 10.003149
-1.638450 25.409500 10.100549
-1.247050 25.409500 9.987050
8.111750 -22.673000 14.094449
6.972950 -20.724001 10.644749
-6.548650 20.941500 11.169149
-7.514350 22.594400 14.094449
1.826850 -25.410000 10.081650
1.826850 25.409500 10.081650
7.152050 20.825300 10.314249
6.536350 -20.792999 7.559050
15.386750 -26.694000 -14.566949
-6.272250 21.276501 11.401349
-7.161350 22.798201 14.094449
6.700150 -22.152000 8.168550
15.794350 -28.215000 -14.566949
-0.980850 -25.410000 8.905749
-0.867350 -25.410000 9.297149
-0.964750 -25.410000 9.692950
-1.247050 -25.410000 9.987050
-1.638450 -25.410000 10.100549
-2.034250 -25.410000 10.003149
-2.328350 -25.410000 9.720849
-2.441850 -25.410000 9.329449
-2.344450 -25.410000 8.933650
-2.222650 -25.410000 8.768050
-1.873950 -25.410000 8.557050
-1.670750 -25.410000 8.526049
-1.274950 -25.410000 8.623449
7.152050 20.825300 10.314249
-7.152150 20.825300 10.314249
14.829950 27.657801 -14.566949
14.829950 27.250200 -14.566949
6.144850 21.460100 7.145850
6.118850 21.850401 7.210749
-6.930650 -23.355000 14.094449
-7.036150 -22.961000 14.094449
-7.324350 -22.673000 14.094449
-7.718050 -22.568001 14.094449
-8.111750 -22.673000 14.094449
-8.400050 -22.961000 14.094449
-8.505550 -23.355000 14.094449
-8.400050 -23.749001 14.094449
-8.274850 -23.912001 14.094449
-7.921850 -24.115999 14.094449
-8.274850 22.798201 14.094449
-7.921850 22.594400 14.094449
-7.514350 22.594400 14.094449
-7.324350 22.673100 14.094449
-7.036150 22.961300 14.094449
-6.930650 23.355000 14.094449
-7.036150 23.748699 14.094449
-7.324350 24.036900 14.094449
-7.514350 24.115601 14.094449
-7.921850 24.115601 14.094449
-8.274850 23.911800 14.094449
8.399950 23.748699 14.094449
8.111750 24.036900 14.094449
7.921850 24.115601 14.094449
7.514250 24.115601 14.094449
7.161250 23.911800 14.094449
6.957450 23.558800 14.094449
6.957450 23.151199 14.094449
7.161250 22.798201 14.094449
7.514250 22.594400 14.094449
7.921850 22.594400 14.094449
8.478550 -23.559000 14.094449
8.505450 -23.355000 14.094449
8.399950 -22.961000 14.094449
8.111750 -22.673000 14.094449
7.718050 -22.568001 14.094449
7.324350 -22.673000 14.094449
7.161250 -22.798000 14.094449
6.957450 -23.150999 14.094449
6.957450 -23.559000 14.094449
7.161250 -23.912001 14.094449
7.514250 -24.115999 14.094449
7.718050 -24.143000 14.094449
-7.718050 -24.143000 14.094449
-7.514350 -24.115999 14.094449
-7.161350 -23.912001 14.094449
-7.036150 -23.749001 14.094449
8.478550 -23.559000 14.094449
7.147850 -21.281000 10.063250
7.188150 -21.100000 10.103949
6.938850 21.871799 8.454249
16.147249 28.010799 -14.566949
-14.830050 27.657801 -14.566949
-6.118950 21.850401 7.210749
7.921850 -24.115999 14.094449
8.274750 -23.912001 14.094449
-7.514350 -24.115999 14.094449
-7.921850 -24.115999 14.094449
-8.274850 -23.912001 14.094449
8.274750 -23.912001 14.094449
7.921850 -24.115999 14.094449
7.718050 -24.143000 14.094449
6.297650 21.073099 7.273350
15.033750 26.897200 -14.566949
-6.046950 -22.000000 11.336050
16.351049 27.657801 -14.566949
7.091650 21.484800 8.581750
-16.351151 27.657801 -14.566949
-7.091650 21.484800 8.581750
-15.748050 31.496000 14.566949
15.747950 31.496000 14.566949
15.747950 -31.496000 14.566949
-15.748050 -31.496000 14.566949
-15.748050 -31.496000 14.566949
15.747950 -31.496000 14.566949
15.747950 31.496000 14.566949
-15.748050 31.496000 14.566949
15.747950 31.496000 14.566949
15.747950 31.496000 14.094449
-15.748050 31.496000 14.094449
-15.748050 31.496000 14.566949
-15.748050 -31.496000 14.094449
-15.748050 31.496000 14.094449
-15.748050 31.496000 14.566949
-15.748050 -31.496000 14.566949
-15.748050 -31.496000 14.566949
-15.748050 31.496000 14.566949
-15.748050 31.496000 14.094449
-15.748050 -31.496000 14.094449
15.747950 -31.496000 14.094449
15.747950 -31.496000 14.566949
-15.748050 -31.496000 14.566949
-15.748050 -31.496000 14.094449
-6.930650 -23.355000 14.094449
-7.036150 -22.961000 14.094449
-7.324350 -22.673000 14.094449
-7.718050 -22.568001 14.094449
-8.111750 -22.673000 14.094449
-8.400050 -22.961000 14.094449
-8.505550 -23.355000 14.094449
-8.400050 -23.749001 14.094449
-8.274850 -23.912001 14.094449
-7.921850 -24.115999 14.094449
-7.514350 -24.115999 14.094449
-7.161350 -23.912001 14.094449
-7.036150 -23.749001 14.094449
-8.505550 23.355000 14.094449
-8.400050 22.961300 14.094449
-8.274850 22.798201 14.094449
-7.921850 22.594400 14.094449
-7.514350 22.594400 14.094449
-7.324350 22.673100 14.094449
-7.036150 22.961300 14.094449
-6.930650 23.355000 14.094449
-7.036150 23.748699 14.094449
-7.324350 24.036900 14.094449
-7.514350 24.115601 14.094449
-7.921850 24.115601 14.094449
-8.274850 23.911800 14.094449
-8.400050 23.748699 14.094449
6 0 1 2 3 4 5
4 6 7 8 9
4 10 11 12 13
4 14 15 16 17
4 18 19 20 21
4 22 23 24 25
4 26 27 28 29
5 30 31 32 33 34
4 35 36 37 38
4 39 40 41 42
5 43 44 45 46 47
4 48 49 50 51
4 52 53 54 55
4 56 57 58 59
4 60 61 62 63
6 64 65 66 67 68 69
4 36 70 71 37
4 45 72 73 46
52 74 75 76 77 78 79 80 81 82 83 84 85 86 87 88 89 90 91 92 93 94 95 96 97 98 99 100 101 102 103 104 105 106 107 108 109 110 111 112 113 114 115 116 117 118 119 120 121 122 123 124 125
4 126 127 128 129
4 26 130 131 27
4 132 133 134 135
4 136 137 138 139
5 140 141 142 143 144
4 145 146 147 148
4 149 150 151 152
13 153 154 155 156 157 158 159 160 161 162 163 164 165
14 166 167 168 169 170 171 172 173 174 175 176 177 178 179
4 180 181 182 183
4 150 184 185 151
4 186 187 188 189
4 190 191 192 193
4 23 22 194 195
4 196 197 198 199
4 200 201 202 203
4 204 205 206 207
4 208 209 210 211
5 212 213 214 215 216
4 217 218 219 220
13 221 222 223 224 225 226 227 228 229 230 231 232 233
4 234 235 236 237
4 238 56 59 239
4 240 241 242 243
4 244 245 246 247
13 248 249 250 251 252 253 254 255 256 257 258 259 260
4 261 262 263 264
4 265 266 267 268
13 269 270 271 272 273 274 275 276 277 278 279 280 281
13 282 283 284 285 286 287 288 289 290 291 292 293 294
4 295 296 297 298
4 299 300 301 302
4 303 304 305 306
4 307 308 309 310
4 311 312 313 314
4 315 316 317 318
4 15 14 319 320
4 321 322 323 324
4 325 326 327 328
4 189 188 303 306
4 329 330 331 332
4 219 218 30 34
4 333 334 40 39
4 335 180 183 336
4 337 338 339 340
4 131 130 266 265
4 267 341 342 268
4 343 344 345 346
4 347 348 349 350
4 351 352 187 186
4 312 311 353 354
6 355 75 74 87 86 356
4 357 329 332 358
4 359 360 361 362
4 363 364 365 366
4 205 367 368 206
4 210 369 370 211
5 371 372 373 374 375
4 376 377 323 322
4 72 217 220 73
4 378 379 380 381
6 382 383 384 385 386 387
4 338 388 389 339
4 390 391 392 393
4 127 321 324 128
4 394 395 66 65
4 52 396 397 53
4 367 9 8 368
6 398 399 400 401 402 403
4 377 376 404 405
4 406 407 408 409
4 410 411 402 401
5 412 35 38 413 414
4 104 103 89 88
4 415 416 417 418
4 348 314 313 349
5 304 343 346 419 305
4 420 421 422 423
4 424 425 407 406
4 17 16 426 427
4 428 429 430 431
4 432 433 434 435
4 436 437 438 439
4 427 426 440 441
4 148 442 443 145
4 420 444 445 421
4 316 315 418 417
4 411 410 425 424
4 445 444 446 447
4 448 10 13 449
4 450 18 21 451
4 452 453 454 455
4 456 457 29 28
4 309 428 431 310
4 458 459 308 307
4 203 202 58 57
13 460 461 462 463 464 465 466 467 468 469 470 471 472
4 396 450 451 397
4 133 132 453 452
6 473 474 475 383 382 476
4 190 193 477 478
4 416 415 192 191
4 479 480 481 482
4 399 398 483 484
4 60 63 485 486
5 137 44 43 487 138
4 41 488 489 42
4 360 448 449 361
6 490 491 492 493 494 495
4 181 149 152 182
4 147 146 198 197
5 496 372 371 497 498
4 330 499 500 331
4 71 70 334 333
4 241 501 502 242
4 503 504 365 364
4 505 506 507 508
5 144 143 509 391 390
14 510 511 512 513 514 515 516 517 518 519 520 521 522 523
4 498 524 525 496
13 526 527 528 529 530 531 532 533 534 535 536 537 538
4 409 408 395 394
4 373 508 507 374
4 136 139 25 24
4 539 540 296 295
4 357 358 370 369
4 524 541 542 525
4 543 300 299 544
4 61 543 544 62
5 31 195 194 545 32
4 500 499 126 129
4 185 184 328 327
4 350 546 547 347
4 548 549 542 541
4 550 551 443 442
4 301 335 336 302
4 320 319 457 456
13 552 553 554 555 556 557 558 559 560 561 562 563 564
4 392 506 505 393
4 341 441 440 342
4 480 359 362 481
4 388 69 68 389
4 11 238 239 12
4 385 363 366 386
6 494 565 423 422 566 495
4 567 568 569 570
55 571 572 573 574 575 576 577 578 579 580 214 213 581 582 583 584 585 586 587 588 589 590 591 216 215 3 2 592 593 594 595 596 597 598 599 600 601 5 4 602 603 604 605 606 607 608 609 610 611 612 613 614 615 616 617
5 381 380 618 619 620
4 204 207 412 414
4 501 621 622 502
4 140 549 548 141
4 19 623 624 20
8 614 613 625 626 602 4 214 580
4 298 297 345 344
12 115 114 627 628 629 105 104 74 125 630 631 632
4 551 550 354 353
4 633 634 237 236
4 318 317 430 429
5 7 6 635 489 488
4 546 196 199 547
4 636 622 621 637
4 636 637 434 433
4 201 200 479 482
4 638 639 135 134
4 640 641 642 643
4 644 645 646 647
4 447 446 474 473
4 648 649 650 651
4 652 653 654 655
4 656 657 658 659
4 660 661 662 663
4 379 378 540 539
4 486 485 326 325
13 664 665 666 667 668 669 670 671 672 673 674 675 676
4 568 634 633 569
4 432 435 235 234
4 618 352 351 619
4 567 570 240 243
14 677 678 679 680 681 682 683 684 685 686 687 688 689 690
4 455 454 624 623
4 504 503 492 491
4 337 340 484 483
4 638 55 54 639
4 478 477 459 458
4 209 208 405 404
