ply
format ascii 1.0
comment Created by Blender 2.82 (sub 7) - www.blender.org, source file: ''
element vertex 1236
property float x
property float y
property float z
element face 298
property list uchar uint vertex_indices
end_header
-11.302000 51.781700 10.582800
-11.302000 51.548698 12.106800
-11.302000 52.747101 12.229300
-11.302000 52.987999 10.654300
14.783000 51.737099 10.875000
14.783000 51.354801 13.375000
14.783000 -51.285801 13.375000
14.783000 -51.712799 10.875000
18.000000 53.999802 14.625000
18.000000 -53.999802 14.625000
18.000000 -53.999802 13.375000
18.000000 53.999802 13.375000
14.783000 -51.712799 10.875000
15.015000 -51.712799 10.875000
15.945000 -51.712799 10.875000
15.945000 51.737099 10.875000
15.713000 51.737099 10.875000
15.713000 52.432899 10.875000
15.015000 52.432899 10.875000
15.015000 51.737099 10.875000
14.783000 51.737099 10.875000
15.713000 51.737099 10.875000
15.713000 52.432899 10.875000
15.713000 52.050598 13.375000
15.713000 51.354801 13.375000
-10.837000 52.428699 10.875000
-10.837000 51.737099 10.875000
-10.140000 51.737099 10.875000
-10.140000 52.428699 10.875000
16.177999 -51.721802 10.450900
16.177999 -51.712799 10.582800
16.177999 -52.918800 10.654300
16.177999 -52.928799 10.518200
14.318000 51.910999 10.875000
13.388000 51.910999 10.875000
13.388000 51.528801 13.375000
14.318000 51.528801 13.375000
-11.302000 51.791500 10.450900
-11.302000 51.781700 10.582800
-11.302000 52.987999 10.654300
-11.302000 52.998199 10.518200
15.015000 -51.712799 10.875000
15.713000 -51.712799 10.875000
15.713000 -52.409801 10.875000
15.015000 -52.409801 10.875000
13.807000 50.596699 -5.376140
13.560000 52.446800 3.645400
13.562000 52.447701 3.645300
13.819000 50.604198 -5.376390
14.053000 51.235500 -13.353770
14.089000 51.584702 -14.625000
14.066000 51.570000 -14.625000
14.031000 51.222301 -13.355600
-9.442000 -51.841801 10.875000
-8.512000 -51.841801 10.875000
-8.512000 -51.459801 13.375000
-9.442000 -51.459801 13.375000
18.000000 -53.999802 13.375000
18.000000 -53.999802 14.625000
-18.000000 -53.999802 14.625000
-18.000000 -53.999802 13.375000
-9.442000 51.528801 13.375000
-8.512000 51.528801 13.375000
-8.512000 51.910999 10.875000
-9.442000 51.910999 10.875000
-10.140000 -51.712799 10.875000
-10.140000 -51.285801 13.375000
-9.907000 -51.285801 13.375000
-9.907000 -51.712799 10.875000
13.388000 51.548698 12.106800
15.015000 51.548698 12.106800
15.015000 51.354801 13.375000
13.388000 51.354801 13.375000
-10.837000 -52.409801 10.875000
-10.837000 -51.982800 13.375000
-10.140000 -51.982800 13.375000
-10.140000 -52.409801 10.875000
15.015000 52.428699 10.875000
15.015000 51.737099 10.875000
15.713000 51.737099 10.875000
15.713000 52.428699 10.875000
-11.035000 52.424801 3.647500
-11.009000 52.133701 2.367200
-11.037000 52.423901 3.647600
-8.512000 51.354801 13.375000
-10.140000 51.354801 13.375000
-10.140000 51.548698 12.106800
-8.512000 51.548698 12.106800
-18.000000 -53.999802 14.625000
-18.000000 53.999802 14.625000
-18.000000 53.999802 13.375000
-18.000000 -53.999802 13.375000
-9.442000 52.432899 10.875000
-9.442000 51.910999 10.875000
-8.512000 51.910999 10.875000
-8.512000 52.432899 10.875000
-8.512000 52.432899 10.875000
-8.512000 52.050598 13.375000
-9.442000 52.050598 13.375000
-9.442000 52.432899 10.875000
13.388000 -52.928799 10.518200
13.388000 -51.721802 10.450900
14.063000 -50.864799 -14.625000
14.066000 -51.500801 -14.625000
13.858000 52.905800 13.375000
14.238000 53.222401 13.375000
14.502000 51.958000 -14.625000
14.307000 51.793800 -14.625000
-8.512000 51.528801 13.375000
-8.512000 51.354801 13.375000
13.388000 51.354801 13.375000
13.388000 51.528801 13.375000
14.318000 51.528801 13.375000
14.318000 52.050598 13.375000
-9.442000 52.050598 13.375000
-9.442000 51.528801 13.375000
-9.442000 52.050598 13.375000
-9.442000 51.528801 13.375000
-9.442000 51.910999 10.875000
-9.442000 52.432899 10.875000
13.388000 -51.721802 10.450900
13.388000 -51.479801 12.106800
15.015000 -51.479801 12.106800
15.015000 -51.667801 10.875000
15.713000 -51.667801 10.875000
15.713000 -51.479801 12.106800
16.177999 -51.479801 12.106800
16.177999 -51.721802 10.450900
15.015000 -52.409801 10.875000
15.015000 -51.982800 13.375000
15.713000 -51.982800 13.375000
15.713000 -52.409801 10.875000
15.015000 52.428699 10.875000
15.713000 52.428699 10.875000
15.713000 52.050598 13.375000
15.015000 52.050598 13.375000
14.502000 -51.888802 -14.625000
14.287000 -53.582802 7.683700
14.442000 -53.640800 7.682600
14.409000 -53.217800 13.375000
14.086000 -53.065800 13.375000
13.858000 -52.836800 13.375000
14.307000 -51.724800 -14.625000
16.177999 51.791500 10.450900
15.502000 50.934101 -14.625000
15.499000 51.570000 -14.625000
16.177999 52.998199 10.518200
14.592000 53.326500 13.375000
14.685000 52.011902 -14.625000
-11.070000 51.354801 13.375000
-10.837000 51.354801 13.375000
-10.837000 51.737099 10.875000
-11.070000 51.737099 10.875000
-8.512000 -52.363800 10.875000
-8.512000 -51.841801 10.875000
-9.442000 -51.841801 10.875000
-9.442000 -52.363800 10.875000
-9.214000 51.584702 -14.625000
-9.191000 51.570000 -14.625000
-9.188000 50.934101 -14.625000
-10.627000 50.934101 -14.625000
-10.624000 51.570000 -14.625000
-10.621000 51.569199 -14.625000
-10.188000 51.958000 -14.625000
-10.005000 52.011902 -14.625000
-9.627000 51.958000 -14.625000
-9.217000 51.583801 -14.625000
-8.520000 -52.401798 13.375000
-8.983000 -52.836800 13.375000
-9.067000 -53.297798 7.689100
-9.432000 -51.724800 -14.625000
-9.217000 -51.514801 -14.625000
-9.184000 -51.161800 -13.354370
-8.976000 -50.511799 -5.375630
-8.652000 -52.910801 7.696400
-9.442000 52.050598 13.375000
-9.442000 51.528801 13.375000
-9.442000 51.910999 10.875000
-9.442000 52.432899 10.875000
13.395000 -52.401798 13.375000
13.527000 -52.910801 7.696400
13.851000 -50.511799 -5.375630
14.059000 -51.161800 -13.354370
14.093000 -51.514801 -14.625000
14.307000 -51.724800 -14.625000
13.942000 -53.297798 7.689100
13.858000 -52.836800 13.375000
-11.302000 51.791500 10.450900
-11.302000 52.998199 10.518200
-10.624000 51.570000 -14.625000
-10.627000 50.934101 -14.625000
15.828000 -51.447800 -0.153200
15.709000 -50.514801 -5.375730
15.496000 -51.499802 -14.625000
15.499000 -51.500801 -14.625000
15.758000 -50.527802 -5.376140
16.108000 -52.963799 7.695400
16.171000 -52.918800 10.654300
16.176001 -52.919800 10.654400
16.134001 -52.434799 13.375000
16.122000 -52.431801 13.375000
15.940000 -52.609798 4.956200
15.912000 -52.354801 3.647600
-8.944000 50.604198 -5.376390
-9.177000 51.235500 -13.353770
-9.184000 51.231098 -13.354370
-8.976000 50.581402 -5.375630
-8.652000 52.979801 7.696400
-8.520000 52.471199 13.375000
-8.512000 52.477501 13.375000
-8.546000 53.068100 9.144100
-8.617000 52.905102 6.301300
-8.687000 52.447701 3.645300
13.388000 -51.459801 13.375000
14.318000 -51.459801 13.375000
14.318000 -51.841801 10.875000
13.388000 -51.841801 10.875000
-9.442000 -52.363800 10.875000
-9.442000 -51.841801 10.875000
-9.442000 -51.459801 13.375000
-9.442000 -51.981800 13.375000
-11.070000 51.737099 10.875000
-10.837000 51.737099 10.875000
-10.837000 51.354801 13.375000
-11.070000 51.354801 13.375000
13.388000 52.432899 10.875000
-8.512000 52.432899 10.875000
-8.512000 52.606800 10.875000
13.388000 52.606800 10.875000
-10.837000 -51.712799 10.875000
-10.837000 -51.285801 13.375000
-11.070000 -51.285801 13.375000
-11.070000 -51.712799 10.875000
13.388000 52.432899 10.875000
14.318000 52.432899 10.875000
14.318000 52.050598 13.375000
13.388000 52.050598 13.375000
16.134001 -52.434799 13.375000
16.177999 -52.407799 13.375000
16.177999 -51.285801 13.375000
15.713000 -51.285801 13.375000
15.713000 -51.981800 13.375000
15.015000 -51.981800 13.375000
15.015000 -51.285801 13.375000
13.388000 -51.285801 13.375000
13.388000 -51.459801 13.375000
14.318000 -51.459801 13.375000
14.318000 -51.981800 13.375000
13.388000 -51.981800 13.375000
13.388000 -52.407799 13.375000
13.395000 -52.401798 13.375000
14.409000 -53.217800 13.375000
15.156000 -53.217800 13.375000
15.479000 -53.065800 13.375000
16.122000 -52.431801 13.375000
13.388000 -52.363800 10.875000
13.388000 -51.981800 13.375000
14.318000 -51.981800 13.375000
14.318000 -52.363800 10.875000
15.015000 -51.981800 13.375000
15.713000 -51.981800 13.375000
15.713000 -52.359798 10.875000
15.015000 -52.359798 10.875000
-10.140000 52.432899 10.875000
-10.837000 52.432899 10.875000
-10.837000 51.737099 10.875000
-11.070000 51.737099 10.875000
-11.070000 -51.712799 10.875000
-10.140000 -51.712799 10.875000
-9.907000 -51.712799 10.875000
-9.907000 51.737099 10.875000
-10.140000 51.737099 10.875000
-10.837000 52.432899 10.875000
-10.140000 52.432899 10.875000
-10.140000 52.050598 13.375000
-10.837000 52.050598 13.375000
-10.140000 52.050598 13.375000
-10.140000 51.354801 13.375000
-10.837000 51.354801 13.375000
-10.837000 52.050598 13.375000
15.015000 -52.409801 10.875000
15.015000 -51.982800 13.375000
15.015000 -51.285801 13.375000
15.015000 -51.712799 10.875000
15.015000 51.737099 10.875000
15.015000 51.354801 13.375000
15.015000 52.050598 13.375000
15.015000 52.432899 10.875000
15.945000 -51.285801 13.375000
14.783000 -51.285801 13.375000
14.783000 51.354801 13.375000
15.713000 51.354801 13.375000
15.945000 51.354801 13.375000
15.713000 51.354801 13.375000
15.713000 52.050598 13.375000
15.713000 52.432899 10.875000
15.713000 51.737099 10.875000
14.318000 -51.981800 13.375000
14.318000 -51.459801 13.375000
14.318000 -51.841801 10.875000
14.318000 -52.363800 10.875000
13.388000 51.528801 13.375000
13.388000 51.354801 13.375000
15.015000 51.354801 13.375000
15.015000 52.050598 13.375000
15.713000 52.050598 13.375000
15.713000 51.354801 13.375000
16.177999 51.354801 13.375000
16.177999 52.477501 13.375000
16.134001 52.504501 13.375000
16.122000 52.500999 13.375000
15.327000 53.222401 13.375000
14.973000 53.326500 13.375000
14.238000 53.222401 13.375000
13.395000 52.471199 13.375000
13.388000 52.477501 13.375000
13.388000 52.050598 13.375000
14.318000 52.050598 13.375000
14.318000 51.528801 13.375000
15.945000 -51.712799 10.875000
15.945000 51.737099 10.875000
15.945000 51.354801 13.375000
15.945000 -51.285801 13.375000
14.318000 52.432899 10.875000
14.318000 52.050598 13.375000
13.388000 52.050598 13.375000
13.388000 52.432899 10.875000
-8.512000 52.987999 10.654300
-8.512000 52.477501 13.375000
-8.512000 52.050598 13.375000
-8.512000 52.432899 10.875000
-8.512000 51.910999 10.875000
-8.512000 51.528801 13.375000
-8.512000 51.354801 13.375000
-8.512000 51.781700 10.582800
15.015000 52.050598 13.375000
15.015000 51.354801 13.375000
15.713000 51.354801 13.375000
15.713000 52.050598 13.375000
16.177999 52.747101 12.229300
16.177999 52.477501 13.375000
16.177999 51.354801 13.375000
16.177999 51.548698 12.106800
16.177999 52.987999 10.654300
16.176001 52.989201 10.654400
16.134001 52.504501 13.375000
16.177999 52.477501 13.375000
18.000000 -53.999802 13.375000
-18.000000 -53.999802 13.375000
-18.000000 53.999802 13.375000
18.000000 53.999802 13.375000
15.713000 51.548698 12.106800
16.177999 51.548698 12.106800
16.177999 51.354801 13.375000
15.713000 51.354801 13.375000
13.388000 52.998199 10.518200
14.066000 51.570000 -14.625000
14.063000 50.934101 -14.625000
13.388000 51.791500 10.450900
15.912000 52.423901 3.647600
15.884000 52.133701 2.367200
15.910000 52.424801 3.647500
-8.685000 52.446800 3.645400
-8.932000 50.596699 -5.376140
-9.156000 51.222301 -13.355600
-9.191000 51.570000 -14.625000
-9.214000 51.584702 -14.625000
15.707000 52.905800 13.375000
16.122000 52.500999 13.375000
15.940000 52.678699 4.956200
15.770000 50.961102 -2.699600
15.496000 51.569199 -14.625000
15.258000 51.793800 -14.625000
-9.442000 52.050598 13.375000
-8.512000 52.050598 13.375000
-8.512000 52.477501 13.375000
-8.520000 52.471199 13.375000
-9.363000 53.222401 13.375000
-9.717000 53.326500 13.375000
-10.452000 53.222401 13.375000
-11.247000 52.500999 13.375000
-11.259000 52.504501 13.375000
-11.302000 52.477501 13.375000
-11.302000 51.354801 13.375000
-10.837000 51.354801 13.375000
-10.837000 52.050598 13.375000
-10.140000 52.050598 13.375000
-10.140000 51.354801 13.375000
-8.512000 51.354801 13.375000
-8.512000 51.528801 13.375000
-9.442000 51.528801 13.375000
-10.837000 52.050598 13.375000
-10.837000 51.354801 13.375000
-10.837000 51.737099 10.875000
-10.837000 52.428699 10.875000
13.819000 -50.534801 -5.376390
13.562000 -52.378799 3.645300
13.560000 -52.377800 3.645400
13.807000 -50.527802 -5.376140
14.031000 -51.152802 -13.355600
14.066000 -51.500801 -14.625000
14.089000 -51.515800 -14.625000
14.053000 -51.165798 -13.353770
15.910000 -52.355801 3.647500
15.707000 -52.836800 13.375000
15.258000 -51.724800 -14.625000
-10.837000 51.354801 13.375000
-11.302000 51.354801 13.375000
-11.302000 51.548698 12.106800
-10.837000 51.548698 12.106800
-9.217000 51.583801 -14.625000
-9.432000 51.793800 -14.625000
-9.067000 53.367298 7.689100
-8.983000 52.905800 13.375000
-11.302000 51.548698 12.106800
-11.302000 51.354801 13.375000
-11.302000 52.477501 13.375000
-11.302000 52.747101 12.229300
-8.983000 -52.836800 13.375000
-9.363000 -53.152802 13.375000
-9.627000 -51.888802 -14.625000
-9.432000 -51.724800 -14.625000
16.171000 52.987900 10.654300
15.833000 50.976501 -2.700900
15.499000 51.570000 -14.625000
-8.512000 -52.928799 10.518200
-9.191000 -51.500801 -14.625000
-9.188000 -50.864799 -14.625000
-8.512000 -51.721802 10.450900
15.496000 51.569199 -14.625000
15.499000 51.570000 -14.625000
15.502000 50.934101 -14.625000
14.063000 50.934101 -14.625000
14.066000 51.570000 -14.625000
14.089000 51.584702 -14.625000
14.093000 51.583801 -14.625000
14.502000 51.958000 -14.625000
14.880000 52.011902 -14.625000
15.063000 51.958000 -14.625000
16.177999 51.791500 10.450900
13.388000 51.791500 10.450900
14.063000 50.934101 -14.625000
15.502000 50.934101 -14.625000
-8.512000 52.998199 10.518200
-8.512000 51.791500 10.450900
-9.188000 50.934101 -14.625000
-9.191000 51.570000 -14.625000
-11.300000 -52.919800 10.654400
-11.259000 -52.434799 13.375000
-11.302000 -52.407799 13.375000
-11.302000 -52.918800 10.654300
-8.512000 -52.155800 13.375000
-8.512000 -51.981800 13.375000
13.388000 -51.981800 13.375000
13.388000 -52.155800 13.375000
13.388000 -52.918800 10.654300
13.388000 -51.712799 10.582800
13.388000 -51.721802 10.450900
13.388000 -52.928799 10.518200
14.318000 -51.459801 13.375000
14.318000 -51.981800 13.375000
-9.442000 -51.981800 13.375000
-9.442000 -51.459801 13.375000
-8.512000 -51.459801 13.375000
-8.512000 -51.285801 13.375000
13.388000 -51.285801 13.375000
13.388000 -51.459801 13.375000
-11.302000 -51.721802 10.450900
-11.302000 -51.479801 12.106800
-10.837000 -51.479801 12.106800
-10.837000 -51.667801 10.875000
-10.140000 -51.667801 10.875000
-10.140000 -51.479801 12.106800
-8.512000 -51.479801 12.106800
-8.512000 -51.721802 10.450900
-8.512000 -51.459801 13.375000
-8.512000 -51.285801 13.375000
-8.512000 -51.667801 10.875000
-8.512000 -51.841801 10.875000
-8.512000 -51.841801 10.875000
-8.512000 -51.667801 10.875000
-8.512000 -51.285801 13.375000
-8.512000 -51.459801 13.375000
15.713000 -52.359798 10.875000
15.713000 -51.667801 10.875000
15.015000 -51.667801 10.875000
15.015000 -52.359798 10.875000
14.318000 -52.363800 10.875000
14.318000 -51.981800 13.375000
14.318000 -51.459801 13.375000
14.318000 -51.841801 10.875000
16.177999 -51.712799 10.582800
16.177999 -51.479801 12.106800
16.177999 -52.677799 12.229300
16.177999 -52.918800 10.654300
15.015000 -51.667801 10.875000
15.015000 -51.285801 13.375000
15.015000 -51.981800 13.375000
15.015000 -52.359798 10.875000
-8.512000 51.910999 10.875000
-8.512000 51.737099 10.875000
-8.512000 51.354801 13.375000
-8.512000 51.528801 13.375000
-9.442000 52.050598 13.375000
-8.512000 52.050598 13.375000
-8.512000 52.432899 10.875000
-9.442000 52.432899 10.875000
13.388000 51.354801 13.375000
13.388000 51.737099 10.875000
-8.512000 51.737099 10.875000
-8.512000 51.354801 13.375000
-8.512000 52.224602 13.375000
13.388000 52.224602 13.375000
13.388000 52.050598 13.375000
-8.512000 52.050598 13.375000
13.388000 52.432899 10.875000
13.388000 52.606800 10.875000
-8.512000 52.606800 10.875000
-8.512000 52.432899 10.875000
13.388000 52.432899 10.875000
13.388000 52.050598 13.375000
13.388000 52.224602 13.375000
13.388000 52.606800 10.875000
-9.442000 52.432899 10.875000
-8.512000 52.432899 10.875000
-8.512000 52.050598 13.375000
-9.442000 52.050598 13.375000
13.388000 52.432899 10.875000
13.388000 52.050598 13.375000
13.388000 52.477501 13.375000
13.388000 52.987999 10.654300
13.388000 51.781700 10.582800
13.388000 51.354801 13.375000
13.388000 51.528801 13.375000
13.388000 51.910999 10.875000
-8.512000 52.224602 13.375000
-8.512000 52.050598 13.375000
-8.512000 52.432899 10.875000
-8.512000 52.606800 10.875000
-10.140000 52.432899 10.875000
-10.140000 52.050598 13.375000
-10.140000 51.354801 13.375000
-10.140000 51.737099 10.875000
15.015000 51.354801 13.375000
15.015000 51.737099 10.875000
15.015000 52.428699 10.875000
15.015000 52.050598 13.375000
-10.837000 52.050598 13.375000
-10.837000 51.354801 13.375000
-10.140000 51.354801 13.375000
-10.140000 52.050598 13.375000
-10.837000 -51.285801 13.375000
-10.140000 -51.285801 13.375000
-10.140000 -51.982800 13.375000
-10.837000 -51.982800 13.375000
-10.837000 51.354801 13.375000
-10.837000 52.050598 13.375000
-10.837000 52.432899 10.875000
-10.837000 51.737099 10.875000
-10.837000 52.050598 13.375000
-10.140000 52.050598 13.375000
-10.140000 52.432899 10.875000
-10.837000 52.432899 10.875000
-10.140000 -52.409801 10.875000
-10.837000 -52.409801 10.875000
-10.837000 -51.712799 10.875000
-10.140000 -51.712799 10.875000
14.318000 -51.459801 13.375000
13.388000 -51.459801 13.375000
13.388000 -51.841801 10.875000
14.318000 -51.841801 10.875000
15.713000 52.050598 13.375000
15.015000 52.050598 13.375000
15.015000 52.432899 10.875000
15.713000 52.432899 10.875000
16.177999 -52.407799 13.375000
16.177999 -52.918800 10.654300
16.177999 52.987999 10.654300
16.177999 52.747101 12.229300
16.177999 51.548698 12.106800
16.177999 51.781700 10.582800
-10.837000 51.737099 10.875000
-10.837000 52.432899 10.875000
-10.837000 52.050598 13.375000
-10.837000 51.354801 13.375000
-9.907000 51.737099 10.875000
-9.907000 51.354801 13.375000
-9.907000 -51.285801 13.375000
-9.907000 -51.712799 10.875000
16.177999 -51.721802 10.450900
15.502000 -50.864799 -14.625000
14.063000 -50.864799 -14.625000
13.388000 -51.721802 10.450900
15.945000 51.354801 13.375000
14.783000 51.354801 13.375000
14.783000 -51.285801 13.375000
15.945000 -51.285801 13.375000
13.388000 52.432899 10.875000
13.388000 51.910999 10.875000
14.318000 51.910999 10.875000
14.318000 52.432899 10.875000
15.713000 -52.409801 10.875000
15.713000 -51.982800 13.375000
15.015000 -51.982800 13.375000
15.015000 -52.409801 10.875000
15.713000 52.432899 10.875000
15.015000 52.432899 10.875000
15.015000 52.050598 13.375000
15.713000 52.050598 13.375000
-11.302000 51.791500 10.450900
-10.627000 50.934101 -14.625000
-9.188000 50.934101 -14.625000
-8.512000 51.791500 10.450900
15.713000 -51.285801 13.375000
16.177999 -51.285801 13.375000
16.177999 -51.479801 12.106800
15.713000 -51.479801 12.106800
14.318000 52.432899 10.875000
14.318000 51.910999 10.875000
14.318000 51.528801 13.375000
14.318000 52.050598 13.375000
-18.000000 -53.999802 14.625000
18.000000 -53.999802 14.625000
18.000000 53.999802 14.625000
-18.000000 53.999802 14.625000
-8.512000 52.987999 10.654300
-8.512000 51.781700 10.582800
-8.512000 51.791500 10.450900
-8.512000 52.998199 10.518200
-10.140000 51.737099 10.875000
-10.140000 51.354801 13.375000
-10.140000 52.050598 13.375000
-10.140000 52.428699 10.875000
15.327000 -53.152802 13.375000
14.783000 -53.270802 13.375000
14.880000 -51.942799 -14.625000
15.063000 -51.888802 -14.625000
15.141000 -51.843800 -14.625000
14.880000 -51.942799 -14.625000
14.685000 -51.942799 -14.625000
14.424000 -51.843800 -14.625000
14.093000 -51.514801 -14.625000
14.089000 -51.515800 -14.625000
14.066000 -51.500801 -14.625000
14.063000 -50.864799 -14.625000
15.502000 -50.864799 -14.625000
15.499000 -51.500801 -14.625000
15.496000 -51.499802 -14.625000
14.307000 51.793800 -14.625000
14.093000 51.583801 -14.625000
14.059000 51.231098 -13.354370
13.851000 50.581402 -5.375630
13.527000 52.979801 7.696400
13.395000 52.471199 13.375000
13.858000 52.905800 13.375000
13.942000 53.367298 7.689100
-8.932000 -50.527802 -5.376140
-8.685000 -52.377800 3.645400
-8.687000 -52.378799 3.645300
-8.944000 -50.534801 -5.376390
-9.177000 -51.165798 -13.353770
-9.214000 -51.515800 -14.625000
-9.191000 -51.500801 -14.625000
-9.156000 -51.152802 -13.355600
16.177999 -51.721802 10.450900
16.177999 -52.928799 10.518200
15.499000 -51.500801 -14.625000
15.502000 -50.864799 -14.625000
-8.512000 -52.928799 10.518200
-8.512000 -51.721802 10.450900
-8.512000 -51.712799 10.582800
-8.512000 -52.918800 10.654300
-10.140000 -51.285801 13.375000
-10.140000 -51.667801 10.875000
-10.140000 -52.359798 10.875000
-10.140000 -51.981800 13.375000
-8.512000 -51.841801 10.875000
-8.512000 -52.363800 10.875000
-8.512000 -51.981800 13.375000
-8.512000 -52.407799 13.375000
-8.512000 -52.918800 10.654300
-8.512000 -51.712799 10.582800
-8.512000 -51.285801 13.375000
-8.512000 -51.459801 13.375000
-10.837000 -51.667801 10.875000
-10.837000 -51.285801 13.375000
-10.837000 -51.981800 13.375000
-10.837000 -52.359798 10.875000
-10.140000 -52.359798 10.875000
-10.140000 -51.667801 10.875000
-10.837000 -51.667801 10.875000
-10.837000 -52.359798 10.875000
-11.302000 -52.918800 10.654300
-11.302000 -52.677799 12.229300
-11.302000 -51.479801 12.106800
-11.302000 -51.712799 10.582800
-10.452000 53.222401 13.375000
-10.188000 51.958000 -14.625000
-10.383000 51.793800 -14.625000
-10.832000 52.905800 13.375000
-10.140000 52.050598 13.375000
-10.837000 52.050598 13.375000
-10.837000 52.428699 10.875000
-10.140000 52.428699 10.875000
-9.442000 -52.363800 10.875000
-9.442000 -51.841801 10.875000
-9.442000 -51.459801 13.375000
-9.442000 -51.981800 13.375000
-10.837000 -51.479801 12.106800
-11.302000 -51.479801 12.106800
-11.302000 -51.285801 13.375000
-10.837000 -51.285801 13.375000
-10.140000 -52.359798 10.875000
-10.837000 -52.359798 10.875000
-10.837000 -51.981800 13.375000
-10.140000 -51.981800 13.375000
-8.512000 -52.407799 13.375000
-8.512000 -51.981800 13.375000
-9.442000 -51.981800 13.375000
-9.442000 -51.459801 13.375000
-8.512000 -51.459801 13.375000
-8.512000 -51.285801 13.375000
-10.140000 -51.285801 13.375000
-10.140000 -51.981800 13.375000
-10.837000 -51.981800 13.375000
-10.837000 -51.285801 13.375000
-11.302000 -51.285801 13.375000
-11.302000 -52.407799 13.375000
-11.259000 -52.434799 13.375000
-11.247000 -52.431801 13.375000
-10.604000 -53.065800 13.375000
-10.281000 -53.217800 13.375000
-9.534000 -53.217800 13.375000
-8.520000 -52.401798 13.375000
-9.442000 -52.363800 10.875000
-9.442000 -51.981800 13.375000
-8.512000 -51.981800 13.375000
-8.512000 -52.363800 10.875000
-11.302000 -52.677799 12.229300
-11.302000 -52.407799 13.375000
-11.302000 -51.285801 13.375000
-11.302000 -51.479801 12.106800
-8.512000 -51.479801 12.106800
-10.140000 -51.479801 12.106800
-10.140000 -51.285801 13.375000
-8.512000 -51.285801 13.375000
-8.617000 -52.835800 6.301300
-8.546000 -52.998798 9.144100
-8.512000 -52.407799 13.375000
-9.907000 -53.270802 13.375000
-10.281000 -53.217800 13.375000
-10.248000 -53.640800 7.682600
-10.403000 -53.582802 7.683700
-10.188000 -51.888802 -14.625000
-9.810000 -51.942799 -14.625000
15.945000 -51.712799 10.875000
15.945000 -51.285801 13.375000
15.713000 -51.285801 13.375000
15.713000 -51.712799 10.875000
15.713000 -51.981800 13.375000
15.713000 -51.285801 13.375000
15.713000 -51.667801 10.875000
15.713000 -52.359798 10.875000
15.327000 53.222401 13.375000
15.063000 51.958000 -14.625000
-11.037000 -52.354801 3.647600
-10.953000 -51.447800 -0.153200
-11.035000 -52.355801 3.647500
-11.064000 -52.609798 4.956200
-11.247000 -52.431801 13.375000
-11.296000 -52.918800 10.654300
-10.958000 -50.906799 -2.700900
-10.624000 -51.500801 -14.625000
-10.621000 -51.499802 -14.625000
-10.895000 50.961102 -2.699600
-11.064000 52.678699 4.956200
-11.247000 52.500999 13.375000
-10.832000 52.905800 13.375000
-10.383000 51.793800 -14.625000
-10.621000 51.569199 -14.625000
-11.302000 -51.721802 10.450900
-8.512000 -51.721802 10.450900
-9.188000 -50.864799 -14.625000
-10.627000 -50.864799 -14.625000
-11.300000 52.989201 10.654400
-11.302000 52.987999 10.654300
-11.302000 52.477501 13.375000
-11.259000 52.504501 13.375000
-11.302000 -52.928799 10.518200
-11.302000 -51.721802 10.450900
-10.627000 -50.864799 -14.625000
-10.624000 -51.500801 -14.625000
16.177999 51.791500 10.450900
16.177999 51.548698 12.106800
15.713000 51.548698 12.106800
15.713000 51.737099 10.875000
15.015000 51.737099 10.875000
15.015000 51.548698 12.106800
13.388000 51.548698 12.106800
13.388000 51.791500 10.450900
-10.098000 53.326500 13.375000
-10.005000 52.011902 -14.625000
18.000000 53.999802 14.625000
18.000000 53.999802 13.375000
-18.000000 53.999802 13.375000
-18.000000 53.999802 14.625000
15.707000 52.905800 13.375000
15.258000 51.793800 -14.625000
-9.363000 53.222401 13.375000
-9.627000 51.958000 -14.625000
-10.624000 51.570000 -14.625000
-10.958000 50.976501 -2.700900
-11.296000 52.987900 10.654300
13.388000 -52.407799 13.375000
13.421000 -52.998798 9.144100
13.492000 -52.835800 6.301300
-10.604000 -53.065800 13.375000
-10.832000 -52.836800 13.375000
-10.383000 -51.724800 -14.625000
-10.832000 -52.836800 13.375000
-10.383000 -51.724800 -14.625000
-10.621000 -51.499802 -14.625000
-10.624000 -51.500801 -14.625000
-10.627000 -50.864799 -14.625000
-9.188000 -50.864799 -14.625000
-9.191000 -51.500801 -14.625000
-9.214000 -51.515800 -14.625000
-9.217000 -51.514801 -14.625000
-9.549000 -51.843800 -14.625000
-9.810000 -51.942799 -14.625000
-10.005000 -51.942799 -14.625000
-10.266000 -51.843800 -14.625000
-8.512000 51.548698 12.106800
-10.140000 51.548698 12.106800
-10.140000 51.737099 10.875000
-10.837000 51.737099 10.875000
-10.837000 51.548698 12.106800
-11.302000 51.548698 12.106800
-11.302000 51.791500 10.450900
-8.512000 51.791500 10.450900
15.258000 -51.724800 -14.625000
15.707000 -52.836800 13.375000
-9.442000 -51.981800 13.375000
-8.512000 -51.981800 13.375000
-8.512000 -52.363800 10.875000
-9.442000 -52.363800 10.875000
-8.983000 52.905800 13.375000
-9.432000 51.793800 -14.625000
13.492000 52.905102 6.301300
13.421000 53.068100 9.144100
13.388000 52.477501 13.375000
13.388000 -51.285801 13.375000
13.388000 -51.459801 13.375000
13.388000 -51.841801 10.875000
13.388000 -51.667801 10.875000
-9.442000 -51.981800 13.375000
14.318000 -51.981800 13.375000
14.318000 -51.459801 13.375000
13.388000 -51.459801 13.375000
13.388000 -51.285801 13.375000
-8.512000 -51.285801 13.375000
-8.512000 -51.459801 13.375000
-9.442000 -51.459801 13.375000
-8.512000 -51.981800 13.375000
13.388000 -51.981800 13.375000
-9.442000 -51.981800 13.375000
-9.442000 -51.459801 13.375000
-9.442000 -51.841801 10.875000
-9.442000 -52.363800 10.875000
-8.512000 -52.155800 13.375000
13.388000 -52.155800 13.375000
-8.512000 -51.459801 13.375000
-8.512000 -51.841801 10.875000
-9.442000 -51.841801 10.875000
-9.442000 -51.459801 13.375000
-8.512000 -51.841801 10.875000
-8.512000 -51.667801 10.875000
13.388000 -51.667801 10.875000
13.388000 -51.841801 10.875000
14.318000 -51.841801 10.875000
14.318000 -52.363800 10.875000
-9.442000 -52.363800 10.875000
-9.442000 -51.841801 10.875000
-8.512000 -52.363800 10.875000
13.388000 -52.363800 10.875000
-9.442000 -52.363800 10.875000
-8.512000 -52.363800 10.875000
-8.512000 -51.981800 13.375000
-9.442000 -51.981800 13.375000
13.388000 -52.537800 10.875000
-8.512000 -52.537800 10.875000
13.388000 -52.363800 10.875000
14.318000 -52.363800 10.875000
14.318000 -51.981800 13.375000
13.388000 -51.981800 13.375000
13.388000 -51.667801 10.875000
13.388000 -51.841801 10.875000
13.388000 -51.459801 13.375000
13.388000 -51.285801 13.375000
14.318000 -51.841801 10.875000
14.318000 -51.459801 13.375000
14.318000 -51.981800 13.375000
14.318000 -52.363800 10.875000
-8.512000 -52.155800 13.375000
-8.512000 -51.981800 13.375000
-8.512000 -52.363800 10.875000
-8.512000 -52.537800 10.875000
13.388000 -52.363800 10.875000
13.388000 -51.981800 13.375000
13.388000 -52.155800 13.375000
13.388000 -52.537800 10.875000
13.388000 -51.981800 13.375000
14.318000 -51.981800 13.375000
14.318000 -52.363800 10.875000
13.388000 -52.363800 10.875000
13.388000 -52.363800 10.875000
14.318000 -52.363800 10.875000
-8.512000 -52.363800 10.875000
-9.442000 -52.363800 10.875000
13.388000 -51.841801 10.875000
13.388000 -51.667801 10.875000
-8.512000 -51.667801 10.875000
-8.512000 -51.841801 10.875000
-9.442000 -51.841801 10.875000
14.318000 -51.841801 10.875000
13.388000 51.737099 10.875000
13.388000 51.910999 10.875000
13.388000 51.528801 13.375000
13.388000 51.354801 13.375000
-8.512000 -52.537800 10.875000
13.388000 -52.537800 10.875000
13.388000 -52.155800 13.375000
-8.512000 -52.155800 13.375000
-8.512000 -52.537800 10.875000
13.388000 -52.537800 10.875000
13.388000 -51.841801 10.875000
14.318000 -51.841801 10.875000
14.318000 -51.459801 13.375000
13.388000 -51.459801 13.375000
13.388000 -51.841801 10.875000
13.388000 -51.459801 13.375000
13.388000 -51.285801 13.375000
13.388000 -51.712799 10.582800
13.388000 -52.918800 10.654300
13.388000 -52.407799 13.375000
13.388000 -51.981800 13.375000
13.388000 -52.363800 10.875000
-10.140000 -52.409801 10.875000
-10.140000 -51.982800 13.375000
-10.837000 -51.982800 13.375000
-10.837000 -52.409801 10.875000
-9.442000 -51.459801 13.375000
-9.442000 -51.841801 10.875000
-8.512000 -51.841801 10.875000
-8.512000 -51.459801 13.375000
13.388000 -52.537800 10.875000
13.388000 -52.155800 13.375000
13.388000 -51.981800 13.375000
13.388000 -52.363800 10.875000
-8.512000 -52.537800 10.875000
-8.512000 -52.363800 10.875000
-8.512000 -51.981800 13.375000
-8.512000 -52.155800 13.375000
13.388000 52.998199 10.518200
13.388000 51.791500 10.450900
13.388000 51.781700 10.582800
13.388000 52.987999 10.654300
13.388000 52.050598 13.375000
-8.512000 52.050598 13.375000
13.388000 51.910999 10.875000
14.318000 51.910999 10.875000
14.318000 51.528801 13.375000
13.388000 51.528801 13.375000
13.388000 51.528801 13.375000
13.388000 51.354801 13.375000
-8.512000 51.354801 13.375000
-8.512000 51.528801 13.375000
-9.442000 51.528801 13.375000
-9.442000 52.050598 13.375000
14.318000 52.050598 13.375000
14.318000 51.528801 13.375000
-9.442000 51.528801 13.375000
-9.442000 51.910999 10.875000
-8.512000 51.910999 10.875000
-8.512000 51.528801 13.375000
-8.512000 52.224602 13.375000
13.388000 52.224602 13.375000
14.318000 52.432899 10.875000
-9.442000 52.432899 10.875000
16.177999 52.998199 10.518200
16.177999 52.987999 10.654300
16.177999 51.781700 10.582800
16.177999 51.791500 10.450900
13.388000 -51.285801 13.375000
15.015000 -51.285801 13.375000
15.015000 -51.479801 12.106800
13.388000 -51.479801 12.106800
-8.512000 51.354801 13.375000
-8.512000 51.737099 10.875000
13.388000 51.737099 10.875000
13.388000 51.354801 13.375000
14.318000 52.432899 10.875000
14.318000 52.050598 13.375000
14.318000 51.528801 13.375000
14.318000 51.910999 10.875000
-9.442000 51.910999 10.875000
14.318000 51.910999 10.875000
13.388000 51.910999 10.875000
13.388000 51.737099 10.875000
-8.512000 51.737099 10.875000
-8.512000 51.910999 10.875000
13.388000 52.050598 13.375000
14.318000 52.050598 13.375000
14.318000 52.432899 10.875000
13.388000 52.432899 10.875000
-9.442000 52.432899 10.875000
-9.442000 51.910999 10.875000
-9.442000 51.528801 13.375000
-9.442000 52.050598 13.375000
-8.512000 51.528801 13.375000
-8.512000 51.354801 13.375000
-8.512000 51.737099 10.875000
-8.512000 51.910999 10.875000
-8.512000 52.224602 13.375000
13.388000 52.224602 13.375000
13.388000 52.606800 10.875000
-8.512000 52.606800 10.875000
13.388000 52.606800 10.875000
13.388000 52.224602 13.375000
13.388000 52.050598 13.375000
13.388000 52.432899 10.875000
-8.512000 52.606800 10.875000
-8.512000 52.432899 10.875000
-8.512000 52.050598 13.375000
-8.512000 52.224602 13.375000
13.388000 51.354801 13.375000
13.388000 51.528801 13.375000
13.388000 51.910999 10.875000
13.388000 51.737099 10.875000
13.388000 51.528801 13.375000
14.318000 51.528801 13.375000
14.318000 51.910999 10.875000
13.388000 51.910999 10.875000
-9.442000 52.432899 10.875000
14.318000 52.432899 10.875000
-8.512000 51.910999 10.875000
-8.512000 51.737099 10.875000
13.388000 51.737099 10.875000
13.388000 51.910999 10.875000
14.318000 51.910999 10.875000
-9.442000 51.910999 10.875000
-8.512000 51.528801 13.375000
-8.512000 51.910999 10.875000
-9.442000 51.910999 10.875000
-9.442000 51.528801 13.375000
-10.837000 -51.982800 13.375000
-10.837000 -51.285801 13.375000
-10.837000 -51.712799 10.875000
-10.837000 -52.409801 10.875000
-10.837000 -51.285801 13.375000
-10.837000 -51.982800 13.375000
-10.140000 -51.982800 13.375000
-10.140000 -51.285801 13.375000
-11.070000 -51.285801 13.375000
-9.907000 -51.285801 13.375000
-9.907000 51.354801 13.375000
-11.070000 51.354801 13.375000
14.318000 51.910999 10.875000
14.318000 51.528801 13.375000
14.318000 52.050598 13.375000
14.318000 52.432899 10.875000
-10.837000 51.737099 10.875000
-10.837000 52.432899 10.875000
-10.140000 52.432899 10.875000
-10.140000 51.737099 10.875000
-9.907000 51.737099 10.875000
-9.907000 -51.712799 10.875000
-11.070000 -51.712799 10.875000
-11.070000 51.737099 10.875000
-8.512000 52.606800 10.875000
13.388000 52.606800 10.875000
13.388000 52.224602 13.375000
-8.512000 52.224602 13.375000
-11.070000 -51.285801 13.375000
-11.070000 51.354801 13.375000
-11.070000 51.737099 10.875000
-11.070000 -51.712799 10.875000
15.713000 -51.712799 10.875000
15.713000 -51.285801 13.375000
15.945000 -51.285801 13.375000
15.945000 -51.712799 10.875000
-8.512000 -52.155800 13.375000
13.388000 -52.155800 13.375000
13.388000 -52.537800 10.875000
-8.512000 -52.537800 10.875000
-9.907000 -51.712799 10.875000
-9.907000 -51.285801 13.375000
-10.140000 -51.285801 13.375000
-10.140000 -51.712799 10.875000
-10.140000 -51.712799 10.875000
-10.140000 -51.285801 13.375000
-10.140000 -51.982800 13.375000
-10.140000 -52.409801 10.875000
-10.140000 51.354801 13.375000
-9.907000 51.354801 13.375000
-9.907000 51.737099 10.875000
-10.140000 51.737099 10.875000
15.713000 51.737099 10.875000
15.713000 51.354801 13.375000
15.713000 52.050598 13.375000
15.713000 52.428699 10.875000
-10.837000 -51.712799 10.875000
-10.837000 -52.409801 10.875000
-10.140000 -52.409801 10.875000
-11.070000 51.354801 13.375000
-9.907000 51.354801 13.375000
-9.907000 -51.285801 13.375000
-11.070000 -51.285801 13.375000
-11.070000 -51.712799 10.875000
-11.070000 -51.285801 13.375000
-10.837000 -51.285801 13.375000
-10.837000 -51.712799 10.875000
14.318000 -52.363800 10.875000
14.318000 -51.841801 10.875000
13.388000 -51.841801 10.875000
13.388000 -52.363800 10.875000
-8.512000 -51.285801 13.375000
-8.512000 -51.667801 10.875000
13.388000 -51.667801 10.875000
13.388000 -51.285801 13.375000
-10.837000 -52.409801 10.875000
-10.837000 -51.712799 10.875000
-10.837000 -51.285801 13.375000
-10.837000 -51.982800 13.375000
-10.140000 -52.409801 10.875000
-10.140000 -51.982800 13.375000
-10.140000 -51.285801 13.375000
-10.140000 -51.712799 10.875000
13.388000 -51.285801 13.375000
13.388000 -51.667801 10.875000
-8.512000 -51.667801 10.875000
-8.512000 -51.285801 13.375000
-10.140000 51.737099 10.875000
-10.140000 51.354801 13.375000
-10.140000 52.050598 13.375000
-10.140000 52.432899 10.875000
-11.070000 -51.712799 10.875000
-11.070000 51.737099 10.875000
-11.070000 51.354801 13.375000
-11.070000 -51.285801 13.375000
16.177999 -51.479801 12.106800
16.177999 -51.285801 13.375000
16.177999 -52.407799 13.375000
16.177999 -52.677799 12.229300
-9.907000 -51.712799 10.875000
-9.907000 -51.285801 13.375000
-9.907000 51.354801 13.375000
-9.907000 51.737099 10.875000
-10.140000 51.737099 10.875000
-9.907000 51.737099 10.875000
-9.907000 51.354801 13.375000
-10.140000 51.354801 13.375000
15.945000 -51.712799 10.875000
15.713000 -52.409801 10.875000
15.713000 -51.712799 10.875000
15.713000 -51.285801 13.375000
15.713000 -51.982800 13.375000
15.015000 52.432899 10.875000
15.713000 52.432899 10.875000
15.713000 51.737099 10.875000
15.945000 51.737099 10.875000
14.783000 -51.712799 10.875000
14.783000 51.737099 10.875000
15.015000 51.737099 10.875000
15.015000 -51.712799 10.875000
15.015000 -51.285801 13.375000
14.783000 -51.285801 13.375000
14.783000 -51.712799 10.875000
15.713000 -51.285801 13.375000
15.015000 -51.285801 13.375000
15.945000 51.737099 10.875000
15.713000 51.737099 10.875000
15.713000 51.354801 13.375000
15.945000 51.354801 13.375000
15.015000 51.737099 10.875000
14.783000 51.737099 10.875000
14.783000 51.354801 13.375000
15.015000 51.354801 13.375000
14.783000 -51.712799 10.875000
14.783000 -51.285801 13.375000
14.783000 51.354801 13.375000
14.783000 51.737099 10.875000
15.713000 -51.982800 13.375000
15.713000 -51.285801 13.375000
15.713000 -51.712799 10.875000
15.713000 -52.409801 10.875000
15.015000 51.354801 13.375000
14.783000 51.354801 13.375000
14.783000 51.737099 10.875000
15.015000 51.737099 10.875000
15.015000 -52.409801 10.875000
15.713000 -52.409801 10.875000
15.713000 -51.712799 10.875000
-11.302000 -52.928799 10.518200
-11.302000 -52.918800 10.654300
-11.302000 -51.712799 10.582800
-11.302000 -51.721802 10.450900
15.015000 -51.982800 13.375000
15.713000 -51.982800 13.375000
15.015000 -51.285801 13.375000
15.713000 -51.285801 13.375000
15.945000 -51.285801 13.375000
15.945000 51.354801 13.375000
15.945000 51.737099 10.875000
15.945000 -51.712799 10.875000
15.015000 51.354801 13.375000
14.783000 -51.712799 10.875000
14.783000 -51.285801 13.375000
15.015000 -51.285801 13.375000
15.015000 -51.712799 10.875000
15.945000 51.354801 13.375000
15.713000 51.354801 13.375000
15.713000 51.737099 10.875000
15.945000 51.737099 10.875000
15.713000 52.050598 13.375000
15.015000 52.050598 13.375000
15.015000 -51.712799 10.875000
15.015000 -51.285801 13.375000
15.015000 -51.982800 13.375000
15.015000 -52.409801 10.875000
15.713000 -51.982800 13.375000
15.015000 -51.982800 13.375000
15.015000 52.432899 10.875000
15.015000 52.050598 13.375000
15.015000 51.354801 13.375000
15.015000 51.737099 10.875000
4 0 1 2 3
4 4 5 6 7
4 8 9 10 11
9 12 13 14 15 16 17 18 19 20
4 21 22 23 24
4 25 26 27 28
4 29 30 31 32
4 33 34 35 36
4 37 38 39 40
4 41 42 43 44
8 45 46 47 48 49 50 51 52
4 53 54 55 56
4 57 58 59 60
4 61 62 63 64
4 65 66 67 68
4 69 70 71 72
4 73 74 75 76
4 77 78 79 80
3 81 82 83
4 84 85 86 87
4 88 89 90 91
4 92 93 94 95
4 96 97 98 99
4 100 101 102 103
4 104 105 106 107
8 108 109 110 111 112 113 114 115
4 116 117 118 119
8 120 121 122 123 124 125 126 127
4 128 129 130 131
4 132 133 134 135
7 136 137 138 139 140 141 142
4 143 144 145 146
4 105 147 148 106
4 149 150 151 152
4 153 154 155 156
10 157 158 159 160 161 162 163 164 165 166
8 167 168 169 170 171 172 173 174
4 175 176 177 178
8 179 180 181 182 183 184 185 186
4 187 188 189 190
12 191 192 193 194 195 196 197 198 199 200 201 202
10 203 204 205 206 207 208 209 210 211 212
4 213 214 215 216
4 217 218 219 220
4 221 222 223 224
4 225 226 227 228
4 229 230 231 232
4 233 234 235 236
18 237 238 239 240 241 242 243 244 245 246 247 248 249 250 251 252 253 254
4 255 256 257 258
4 259 260 261 262
9 263 264 265 266 267 268 269 270 271
4 272 273 274 275
4 276 277 278 279
4 280 281 282 283
4 284 285 286 287
5 288 289 290 291 292
4 293 294 295 296
4 297 298 299 300
18 301 302 303 304 305 306 307 308 309 310 311 312 313 314 315 316 317 318
4 319 320 321 322
4 323 324 325 326
8 327 328 329 330 331 332 333 334
4 335 336 337 338
4 339 340 341 342
4 343 344 345 346
4 347 348 349 350
4 351 352 353 354
4 355 356 357 358
3 359 360 361
8 362 363 364 365 366 204 203 212
8 367 368 369 361 360 370 371 372
18 373 374 375 376 377 378 379 380 381 382 383 384 385 386 387 388 389 390
4 391 392 393 394
8 395 396 397 398 399 400 401 402
8 193 192 191 403 201 200 404 405
4 406 407 408 409
8 208 207 206 205 410 411 412 413
4 414 415 416 417
4 418 419 420 421
11 370 360 359 369 368 345 344 422 423 424 371
4 425 426 427 428
10 429 430 431 432 433 434 435 436 437 438
4 439 440 441 442
4 443 444 445 446
4 447 448 449 450
4 451 452 453 454
4 455 456 457 458
8 459 460 461 462 463 464 465 466
8 467 468 469 470 471 472 473 474
4 475 476 477 478
4 479 480 481 482
4 483 484 485 486
4 487 488 489 490
4 491 492 493 494
4 495 496 497 498
4 499 500 501 502
4 503 504 505 506
4 507 508 509 510
4 511 512 513 514
4 515 516 517 518
4 519 520 521 522
4 523 524 525 526
8 527 528 529 530 531 532 533 534
4 535 536 537 538
4 539 540 541 542
4 543 544 545 546
4 547 548 549 550
4 551 552 553 554
4 555 556 557 558
4 559 560 561 562
4 563 564 565 566
4 567 568 569 570
4 571 572 573 574
4 575 199 198 576
4 577 578 579 580
4 581 582 583 584
4 585 586 587 588
4 589 590 591 592
5 593 337 594 595 596
4 597 598 599 600
4 601 602 603 604
4 605 606 607 608
4 609 610 611 612
4 613 614 615 616
4 617 618 619 620
3 202 403 191
4 621 622 623 624
4 625 626 627 628
4 629 630 631 632
4 633 634 635 636
11 637 638 639 640 641 642 643 644 645 646 647
8 648 649 650 651 652 653 654 655
8 656 657 658 659 660 661 662 663
4 664 665 666 667
4 668 669 670 671
4 672 673 674 675
8 676 677 678 679 680 681 682 683
4 684 685 686 687
4 688 689 690 691
4 692 693 694 695
4 696 697 698 699
4 700 701 702 703
4 704 705 706 707
4 708 709 710 711
4 712 713 714 715
18 716 717 718 719 720 721 722 723 724 725 726 727 728 729 730 731 732 733
4 734 735 736 737
4 738 739 740 741
4 742 743 744 745
10 659 658 746 747 748 167 174 173 172 660
6 749 750 751 752 753 754
4 755 756 757 758
4 759 760 761 762
4 147 763 764 148
3 765 766 767
10 766 765 768 769 448 447 770 771 772 773
8 774 82 81 775 776 777 778 779
4 780 781 782 783
4 784 785 786 787
4 788 789 790 791
8 792 793 794 795 796 797 798 799
4 696 800 801 697
4 802 803 804 805
4 763 806 807 764
4 800 808 809 801
11 774 779 810 811 812 784 787 776 775 83 82
10 395 402 182 181 180 179 813 814 815 396
7 753 752 751 750 816 817 818
7 819 769 768 767 766 773 820
4 419 749 754 420
11 821 822 823 824 825 826 827 828 829 830 831
8 832 833 834 835 836 837 838 839
4 633 636 840 841
4 842 843 844 845
4 808 846 847 809
10 650 49 48 47 848 849 850 653 652 651
4 851 852 853 854
8 855 856 857 858 859 860 861 862
3 856 855 863
3 856 863 864
4 865 866 867 868
4 869 870 864 863
4 871 872 873 874
8 875 876 877 878 879 880 881 882
3 881 880 883
3 883 880 884
6 634 139 138 137 136 635
4 885 886 887 888
4 884 889 890 883
4 891 892 893 894
4 895 896 897 898
4 899 900 901 902
4 903 904 905 906
3 453 452 460
3 452 461 460
4 907 908 909 910
4 911 912 913 914
3 915 916 917
3 917 916 918
8 919 920 921 922 923 918 916 924
4 925 926 927 928
4 929 930 931 932
4 915 917 933 934
4 935 936 937 938
8 939 940 941 942 943 944 945 946
4 947 948 949 950
4 951 952 953 954
4 955 956 957 958
4 959 960 961 962
4 963 964 965 966
3 967 968 113
3 968 114 113
4 969 970 971 972
8 973 974 975 976 977 978 979 980
4 981 982 983 984
4 985 968 967 986
3 225 987 226
3 226 987 988
4 989 990 991 992
4 993 994 995 996
4 997 998 999 1000
4 1001 1002 1003 1004
8 1005 988 987 1006 1007 1008 1009 1010
4 1011 1012 1013 1014
4 1015 1016 1017 1018
4 1019 1020 1021 1022
4 1023 1024 1025 1026
4 1027 1028 1029 1030
4 1031 1032 1033 1034
3 979 978 514
3 979 514 513
4 1035 1036 1037 1038
4 1039 1040 1041 1042
3 1043 1044 518
3 518 1044 515
8 1045 1046 1047 1048 1049 1044 1043 1050
4 1051 1052 1053 1054
4 1055 1056 1057 1058
4 1059 1060 1061 1062
5 1063 1064 1065 548 1066
4 1067 1068 1069 1070
9 1071 1072 1073 1074 1075 1076 566 1077 1078
4 1079 1080 1081 1082
3 1077 566 565
4 1083 1084 1085 1086
4 1087 1088 1089 1090
3 1064 1063 1062
3 1062 1063 1059
3 549 548 1065
4 1091 1092 1093 1094
4 1095 1096 1097 1098
4 1099 1100 1101 1102
4 1103 1104 1105 1106
4 1107 1108 1109 1110
4 268 1111 1112 1113
3 1111 268 267
5 1114 278 1115 1116 1117
4 1118 1119 1120 1121
4 1122 1123 1124 1125
4 1126 1127 1128 1129
3 1115 278 277
4 1130 1131 1132 1133
3 551 1117 552
3 552 1117 1116
4 1134 1135 1136 1137
4 1138 1139 1140 1141
4 1142 1143 1144 1145
4 1146 1147 1148 1149
4 1150 1151 1152 1153
4 1154 1155 1156 1157
4 1158 1159 1160 1161
3 42 41 1162
4 1163 1164 1165 1166
9 1167 1168 1169 1170 1162 41 1171 1172 1173
3 594 337 336
4 1174 1175 1176 1177
3 1178 596 1179
3 1179 596 595
4 1180 1181 1182 1183
4 1184 1185 1186 1187
4 1188 1189 1190 1191
4 1192 1193 1194 1195
4 1196 1197 1198 1199
4 1200 1201 1202 13
4 1203 1204 1205 1206
3 14 13 1202
4 1178 1179 1207 1208
3 289 288 1209
3 1209 288 1210
4 1211 1212 1213 1214
3 1215 291 290
4 1216 1217 1218 1219
4 1220 1221 1222 1223
4 1224 291 1215 1225
4 1226 1227 1228 1229
4 1210 1230 1231 1209
4 1232 1233 1234 1235
