ply
format ascii 1.0
comment Created by Blender 2.82 (sub 7) - www.blender.org, source file: ''
element vertex 877
property float x
property float y
property float z
element face 231
property list uchar uint vertex_indices
end_header
7.086650 -4.330750 11.614200
7.480350 -4.330750 11.614200
7.480350 -3.543350 11.614200
7.086650 -3.543350 11.614200
7.086650 -0.393650 11.614200
7.086650 0.393750 11.614200
7.086650 0.393750 10.039400
7.086650 -0.393650 10.039400
-0.393680 22.244101 11.614200
-0.393680 22.637800 11.614200
-0.393680 22.637800 10.039400
-0.393680 22.244101 10.039400
9.195050 24.352501 15.659000
9.195050 -24.352449 15.659000
9.081850 -24.239349 15.572100
9.081850 24.239323 15.572100
6.102350 -22.047251 15.551200
6.102350 -22.834650 15.551200
6.102350 -22.834650 11.614200
6.102350 -22.047251 11.614200
-8.464548 -23.622049 15.551200
-6.102340 -23.622049 15.551200
-6.102340 -21.259850 15.551200
-8.464548 -21.259850 15.551200
8.464550 -21.259850 -13.976400
6.102350 -21.259850 -13.976400
6.102350 -23.622049 -13.976400
8.267750 -23.425150 -13.976400
6.299250 -23.425150 -13.976400
6.299250 -21.456650 -13.976400
8.267750 -21.456650 -13.976400
8.464550 -23.622049 -13.976400
6.102350 -22.145651 10.039400
6.102350 -22.736250 10.039400
6.102350 -22.736250 8.464500
6.102350 -22.145651 8.464500
6.496050 -23.228350 -16.338600
8.070850 -23.228350 -16.338600
8.464550 -23.622049 -13.976400
6.102350 -23.622049 -13.976400
7.086650 -0.393650 11.614200
7.480350 -0.393650 11.614200
7.480350 0.393750 11.614200
7.086650 0.393750 11.614200
-1.968490 -22.244049 11.614200
-1.968490 -22.637751 11.614200
-1.968490 -22.637751 10.039400
-1.968490 -22.244049 10.039400
6.102350 -21.259850 15.551200
8.464550 -21.259850 15.551200
8.464550 -23.622049 15.551200
6.102350 -23.622049 15.551200
9.215050 -24.372549 16.200800
9.081850 -24.239349 16.317600
-9.081823 -24.239349 16.317600
-9.215028 -24.372549 16.200800
-7.086600 -0.393650 10.039400
-7.086600 -0.393650 11.614200
-7.480300 -0.393650 11.614200
-7.480300 -0.393650 10.039400
-1.968490 22.244101 10.039400
-2.755890 22.244101 10.039400
-2.755890 22.637800 10.039400
-1.968490 22.637800 10.039400
-8.464548 21.259840 -10.826790
-8.464548 23.622047 -10.826790
-8.267698 23.425198 -13.976400
-8.267698 21.456690 -13.976400
7.677150 21.259840 15.551200
7.677150 21.259840 11.614200
6.889750 21.259840 11.614200
6.889750 21.259840 15.551200
-6.102340 23.622047 15.551200
-6.102340 21.259840 15.551200
-6.102340 21.259840 -10.826790
-6.102340 23.622047 -10.826790
7.578750 -21.259850 8.464500
7.578750 -21.259850 10.039400
6.988250 -21.259850 10.039400
6.988250 -21.259850 8.464500
-6.102340 23.622047 -13.976400
-6.496040 23.228350 -16.338600
-8.070850 23.228350 -16.338600
-8.464548 23.622047 -13.976400
7.578750 21.259840 10.039400
7.578750 -21.259850 10.039400
7.578750 -21.259850 8.464500
7.578750 21.259840 8.464500
-6.102340 22.047251 15.551200
-6.102340 22.834650 15.551200
-6.102340 22.834650 11.614200
-6.102340 22.047251 11.614200
-8.267698 -23.425150 -13.976400
-6.299190 -23.425150 -13.976400
-6.299190 -21.456650 -13.976400
-8.267698 -21.456650 -13.976400
-6.102340 -22.834650 15.551200
6.102350 -22.834650 15.551200
6.102350 -22.047251 15.551200
-6.102340 -22.047251 15.551200
8.464550 -21.259850 -13.976400
8.464550 -23.622049 -13.976400
8.070850 -23.228350 -16.338600
8.070850 -21.653549 -16.338600
-8.267698 -23.425150 -13.976400
-6.299190 -23.425150 -13.976400
-6.102340 -23.622049 -10.826790
-8.464548 -23.622049 -10.826790
-6.102340 -22.736250 10.039400
6.102350 -22.736250 10.039400
6.102350 -22.145651 10.039400
-6.102340 -22.145651 10.039400
7.480350 -3.543350 11.614200
7.480350 -4.330750 11.614200
7.480350 -4.330750 10.039400
7.480350 -3.543350 10.039400
-2.755890 22.244101 11.614200
-2.755890 22.637800 11.614200
-2.755890 22.637800 10.039400
-2.755890 22.244101 10.039400
7.086650 -4.330750 11.614200
7.086650 -3.543350 11.614200
7.086650 -3.543350 10.039400
7.086650 -4.330750 10.039400
7.480350 -4.330750 10.039400
7.086650 -4.330750 10.039400
7.086650 -3.543350 10.039400
7.480350 -3.543350 10.039400
8.464550 -23.622049 -10.826790
8.464550 -23.622049 15.551200
6.102350 -23.622049 15.551200
6.102350 -23.622049 -10.826790
6.102350 22.834650 15.551200
6.102350 22.047251 15.551200
6.102350 22.047251 11.614200
6.102350 22.834650 11.614200
6.299250 21.456690 -13.976400
8.267750 21.456690 -13.976400
8.464550 21.259840 -10.826790
6.102350 21.259840 -10.826790
-7.086600 3.543350 10.039400
-7.086600 3.543350 11.614200
-7.480300 3.543350 11.614200
-7.480300 3.543350 10.039400
6.102350 22.047251 11.614200
6.102350 22.047251 15.551200
-6.102340 22.047251 15.551200
-6.102340 22.047251 11.614200
-7.480300 3.543350 11.614200
-7.086600 3.543350 11.614200
-7.086600 4.330750 11.614200
-7.480300 4.330750 11.614200
7.677150 -21.259850 11.614200
6.889750 -21.259850 11.614200
6.889750 21.259840 11.614200
7.677150 21.259840 11.614200
-6.889750 21.259840 15.551200
-6.889750 -21.259850 15.551200
-6.889750 -21.259850 11.614200
-6.889750 21.259840 11.614200
6.102350 -23.622049 -10.826790
6.102350 -21.259850 -10.826790
6.299250 -21.456650 -13.976400
6.299250 -23.425150 -13.976400
8.070850 -23.228350 -16.338600
6.496050 -23.228350 -16.338600
6.496050 -21.653549 -16.338600
8.070850 -21.653549 -16.338600
-8.464548 -21.259850 -13.976400
-8.464548 -23.622049 -13.976400
-8.267698 -23.425150 -13.976400
-8.267698 -21.456650 -13.976400
-6.299190 -21.456650 -13.976400
-6.102340 -21.259850 -13.976400
-7.480300 -4.330750 11.614200
-7.480300 -3.543350 11.614200
-7.480300 -3.543350 10.039400
-7.480300 -4.330750 10.039400
-6.299190 23.425198 -13.976400
-6.299190 21.456690 -13.976400
-6.102340 21.259840 -13.976400
-6.102340 23.622047 -13.976400
8.976350 -24.133850 16.338600
-8.976359 -24.133850 16.338600
-6.102340 -21.259850 -13.976400
-6.102340 -23.622049 -13.976400
-6.496040 -23.228350 -16.338600
-6.496040 -21.653549 -16.338600
-9.081823 -24.239349 15.572100
-9.195000 -24.352449 15.659000
-9.195000 24.352501 15.659000
-9.081823 24.239323 15.572100
8.976350 -24.133850 15.551200
-8.976359 -24.133850 15.551200
-8.976359 24.133860 15.551200
8.976350 24.133860 15.551200
-8.464548 -21.259850 15.551200
-6.102340 -21.259850 15.551200
-6.102340 -23.622049 15.551200
-8.464548 -23.622049 15.551200
-9.251950 -24.409451 16.063000
-9.251950 24.409451 16.063000
-9.251950 24.409451 15.826800
-9.251950 -24.409451 15.826800
6.102350 -23.622049 15.551200
8.464550 -23.622049 15.551200
8.464550 -21.259850 15.551200
6.102350 -21.259850 15.551200
6.102350 21.259840 -10.826790
6.102350 23.622047 -10.826790
6.299250 23.425198 -13.976400
6.299250 21.456690 -13.976400
-8.464548 23.622047 15.551200
-6.102340 23.622047 15.551200
-6.102340 21.259840 15.551200
-8.464548 21.259840 15.551200
-7.086600 0.393750 11.614200
-7.086600 -0.393650 11.614200
-7.086600 -0.393650 10.039400
-7.086600 0.393750 10.039400
8.464550 23.622047 -10.826790
8.464550 21.259840 -10.826790
8.267750 21.456690 -13.976400
8.267750 23.425198 -13.976400
2.755950 22.637800 11.614200
2.755950 22.637800 10.039400
1.968550 22.637800 10.039400
1.968550 22.637800 11.614200
9.249650 -24.407049 16.098900
9.249650 -24.407049 15.790800
9.249650 24.407091 15.790800
9.249650 24.407091 16.098900
9.231050 24.388472 16.168400
9.231050 -24.388451 16.168400
-9.215028 24.372528 16.200800
-9.215028 -24.372549 16.200800
-9.195000 -24.352449 16.230700
-9.195000 24.352501 16.230700
6.102350 22.047251 11.614200
-6.102340 22.047251 11.614200
-6.102340 22.834650 11.614200
6.102350 22.834650 11.614200
1.968550 22.244101 11.614200
1.968550 22.637800 11.614200
1.968550 22.637800 10.039400
1.968550 22.244101 10.039400
-9.047688 -24.205151 16.329201
-8.976359 -24.133850 16.338600
-8.976359 24.133860 16.338600
-9.047688 24.205189 16.329201
6.102350 -22.736250 8.464500
-6.102340 -22.736250 8.464500
-6.102340 -22.145651 8.464500
6.102350 -22.145651 8.464500
6.102350 -23.622049 -13.976400
6.102350 -21.259850 -13.976400
6.496050 -21.653549 -16.338600
6.496050 -23.228350 -16.338600
6.102350 21.259840 15.551200
8.464550 21.259840 15.551200
8.464550 23.622047 15.551200
6.102350 23.622047 15.551200
-9.171231 -24.328751 16.257799
-9.171231 24.328732 16.257799
8.464550 23.622047 -13.976400
8.070850 23.228350 -16.338600
6.496050 23.228350 -16.338600
6.102350 23.622047 -13.976400
6.102350 22.145670 8.464500
-6.102340 22.145670 8.464500
-6.102340 22.736219 8.464500
6.102350 22.736219 8.464500
6.496050 21.653540 -16.338600
8.070850 21.653540 -16.338600
8.464550 21.259840 -13.976400
6.102350 21.259840 -13.976400
-6.102340 -22.736250 10.039400
-6.102340 -22.145651 10.039400
-6.102340 -22.145651 8.464500
-6.102340 -22.736250 8.464500
-0.393680 -22.637751 11.614200
0.393720 -22.637751 11.614200
0.393720 -22.244049 11.614200
-0.393680 -22.244049 11.614200
-6.988170 -21.259850 8.464500
-7.578720 -21.259850 8.464500
-7.578720 21.259840 8.464500
-6.988170 21.259840 8.464500
-6.988170 21.259840 10.039400
-6.988170 21.259840 8.464500
-7.578720 21.259840 8.464500
-7.578720 21.259840 10.039400
-6.988170 -21.259850 8.464500
-6.988170 -21.259850 10.039400
-7.578720 -21.259850 10.039400
-7.578720 -21.259850 8.464500
8.464550 -21.259850 -10.826790
8.464550 -23.622049 -10.826790
8.267750 -23.425150 -13.976400
8.267750 -21.456650 -13.976400
8.267750 21.456690 -13.976400
6.299250 21.456690 -13.976400
6.299250 23.425198 -13.976400
8.267750 23.425198 -13.976400
8.464550 23.622047 -13.976400
6.102350 23.622047 -13.976400
6.102350 21.259840 -13.976400
8.464550 21.259840 -13.976400
-0.393680 22.244101 11.614200
0.393720 22.244101 11.614200
0.393720 22.637800 11.614200
-0.393680 22.637800 11.614200
-0.393680 -22.637751 11.614200
-0.393680 -22.244049 11.614200
-0.393680 -22.244049 10.039400
-0.393680 -22.637751 10.039400
0.393720 -22.637751 10.039400
-0.393680 -22.637751 10.039400
-0.393680 -22.244049 10.039400
0.393720 -22.244049 10.039400
0.393720 22.244101 10.039400
-0.393680 22.244101 10.039400
-0.393680 22.637800 10.039400
0.393720 22.637800 10.039400
-1.968490 22.637800 11.614200
-1.968490 22.637800 10.039400
-2.755890 22.637800 10.039400
-2.755890 22.637800 11.614200
-7.578720 -21.259850 10.039400
-6.988170 -21.259850 10.039400
-6.988170 21.259840 10.039400
-7.578720 21.259840 10.039400
6.102350 23.622047 15.551200
8.464550 23.622047 15.551200
8.464550 21.259840 15.551200
6.102350 21.259840 15.551200
2.755950 -22.244049 11.614200
2.755950 -22.637751 11.614200
2.755950 -22.637751 10.039400
2.755950 -22.244049 10.039400
2.755950 -22.244049 11.614200
2.755950 -22.244049 10.039400
1.968550 -22.244049 10.039400
1.968550 -22.244049 11.614200
7.480350 -0.393650 10.039400
7.086650 -0.393650 10.039400
7.086650 0.393750 10.039400
7.480350 0.393750 10.039400
-8.267698 21.456690 -13.976400
-6.299190 21.456690 -13.976400
-6.102340 21.259840 -10.826790
-8.464548 21.259840 -10.826790
-7.480300 -4.330750 11.614200
-7.086600 -4.330750 11.614200
-7.086600 -3.543350 11.614200
-7.480300 -3.543350 11.614200
8.464550 -21.259850 15.551200
8.464550 -21.259850 -10.826790
6.102350 -21.259850 -10.826790
6.102350 -21.259850 15.551200
-6.102340 -21.259850 -10.826790
-6.299190 -21.456650 -13.976400
-8.267698 -21.456650 -13.976400
-8.464548 -21.259850 -10.826790
-7.480300 3.543350 11.614200
-7.480300 4.330750 11.614200
-7.480300 4.330750 10.039400
-7.480300 3.543350 10.039400
-8.464548 -23.622049 -10.826790
-8.464548 -21.259850 -10.826790
-8.267698 -21.456650 -13.976400
-8.267698 -23.425150 -13.976400
8.464550 -21.259850 -13.976400
8.070850 -21.653549 -16.338600
6.496050 -21.653549 -16.338600
6.102350 -21.259850 -13.976400
-7.086600 -4.330750 10.039400
-7.086600 -4.330750 11.614200
-7.480300 -4.330750 11.614200
-7.480300 -4.330750 10.039400
-6.102340 -23.622049 -10.826790
-6.102340 -23.622049 15.551200
-8.464548 -23.622049 15.551200
-8.464548 -23.622049 -10.826790
7.086650 3.543350 11.614200
7.086650 4.330750 11.614200
7.086650 4.330750 10.039400
7.086650 3.543350 10.039400
7.480350 3.543350 10.039400
7.480350 3.543350 11.614200
7.086650 3.543350 11.614200
7.086650 3.543350 10.039400
-9.215028 24.372528 15.689000
-9.215028 -24.372549 15.689000
-9.230972 -24.388451 15.721300
-9.230972 24.388472 15.721300
8.464550 23.622047 -10.826790
8.267750 23.425198 -13.976400
6.299250 23.425198 -13.976400
6.102350 23.622047 -10.826790
-8.070850 21.653540 -16.338600
-6.496040 21.653540 -16.338600
-6.102340 21.259840 -13.976400
-8.464548 21.259840 -13.976400
-6.889750 21.259840 15.551200
-6.889750 21.259840 11.614200
-7.677150 21.259840 11.614200
-7.677150 21.259840 15.551200
-8.070850 -23.228350 -16.338600
-6.496040 -23.228350 -16.338600
-6.102340 -23.622049 -13.976400
-8.464548 -23.622049 -13.976400
-6.496040 21.653540 -16.338600
-8.070850 21.653540 -16.338600
-8.070850 23.228350 -16.338600
-6.496040 23.228350 -16.338600
9.144150 24.301628 16.281601
-9.144128 24.301628 16.281601
-8.976359 24.133860 16.338600
8.976350 24.133860 16.338600
9.249650 24.407091 15.790800
9.231050 24.388472 15.721300
-9.230972 24.388472 15.721300
-9.249592 24.407091 15.790800
-9.242560 24.400061 16.134300
9.242550 24.400061 16.134300
6.299250 -23.425150 -13.976400
8.267750 -23.425150 -13.976400
8.464550 -23.622049 -10.826790
6.102350 -23.622049 -10.826790
6.102350 -22.834650 11.614200
-6.102340 -22.834650 11.614200
-6.102340 -22.047251 11.614200
6.102350 -22.047251 11.614200
-6.299190 -23.425150 -13.976400
-6.102340 -23.622049 -13.976400
-8.464548 21.259840 15.551200
-6.102340 21.259840 15.551200
-6.102340 23.622047 15.551200
-8.464548 23.622047 15.551200
-6.496040 -23.228350 -16.338600
-8.070850 -23.228350 -16.338600
-8.070850 -21.653549 -16.338600
-6.496040 -21.653549 -16.338600
6.102350 -22.736250 8.464500
6.102350 -22.736250 10.039400
-6.102340 -22.736250 10.039400
-6.102340 -22.736250 8.464500
-6.496040 -21.653549 -16.338600
-8.070850 -21.653549 -16.338600
-8.070850 -23.228350 -16.338600
-6.496040 -23.228350 -16.338600
-8.464548 23.622047 -13.976400
-8.464548 21.259840 -13.976400
-8.267698 21.456690 -13.976400
-8.267698 23.425198 -13.976400
-9.242559 -24.400049 15.755400
-9.242560 24.400061 15.755400
6.102350 -22.047251 15.551200
6.102350 -22.047251 11.614200
-6.102340 -22.047251 11.614200
-6.102340 -22.047251 15.551200
8.464550 -21.259850 15.551200
8.464550 -23.622049 15.551200
8.464550 -23.622049 -10.826790
8.464550 -21.259850 -10.826790
-8.267698 -21.456650 -13.976400
-6.299190 -21.456650 -13.976400
-6.299190 -23.425150 -13.976400
-8.267698 -23.425150 -13.976400
-8.267698 21.456690 -13.976400
-6.299190 21.456690 -13.976400
-6.299190 23.425198 -13.976400
-8.267698 23.425198 -13.976400
8.976350 -24.133850 15.551200
8.976350 24.133860 15.551200
-9.249592 -24.407049 15.790800
-9.249592 24.407091 15.790800
-9.012331 24.169830 15.553500
-8.976359 24.133860 15.551200
-9.012331 24.133860 15.553500
-8.976359 24.133860 15.551200
-8.976359 -24.133850 15.551200
-6.102340 23.622047 -13.976400
-6.102340 21.259840 -13.976400
-6.496040 21.653540 -16.338600
-6.496040 23.228350 -16.338600
-6.102340 -22.834650 15.551200
-6.102340 -22.047251 15.551200
-6.102340 -22.047251 11.614200
-6.102340 -22.834650 11.614200
6.102350 -22.834650 11.614200
6.102350 -22.834650 15.551200
-6.102340 -22.834650 15.551200
-6.102340 -22.834650 11.614200
-7.480300 -0.393650 11.614200
-7.086600 -0.393650 11.614200
-7.086600 0.393750 11.614200
-7.480300 0.393750 11.614200
6.102350 -23.622049 15.551200
6.102350 -21.259850 15.551200
6.102350 -21.259850 -10.826790
6.102350 -23.622049 -10.826790
8.464550 23.622047 15.551200
8.464550 23.622047 -10.826790
6.102350 23.622047 -10.826790
6.102350 23.622047 15.551200
6.299250 -23.425150 -13.976400
8.267750 -23.425150 -13.976400
8.267750 -21.456650 -13.976400
6.299250 -21.456650 -13.976400
-7.480300 -0.393650 11.614200
-7.480300 0.393750 11.614200
-7.480300 0.393750 10.039400
-7.480300 -0.393650 10.039400
-9.249592 -24.407049 16.098900
-9.249592 24.407091 16.098900
-7.086600 0.393750 11.614200
-7.086600 0.393750 10.039400
-7.480300 0.393750 10.039400
-7.480300 0.393750 11.614200
-9.144128 24.301628 15.608100
9.144150 24.301628 15.608100
8.976350 24.133860 15.551200
-8.976359 24.133860 15.551200
-9.242559 -24.400049 16.134300
-9.242560 24.400061 16.134300
-7.086600 -0.393650 10.039400
-7.480300 -0.393650 10.039400
-7.480300 0.393750 10.039400
-7.086600 0.393750 10.039400
8.464550 -21.259850 -10.826790
8.267750 -21.456650 -13.976400
6.299250 -21.456650 -13.976400
6.102350 -21.259850 -10.826790
6.102350 21.259840 15.551200
6.102350 23.622047 15.551200
6.102350 23.622047 -10.826790
6.102350 21.259840 -10.826790
-9.230972 -24.388451 16.168400
-9.230972 24.388472 16.168400
2.755950 22.637800 11.614200
2.755950 22.244101 11.614200
2.755950 22.244101 10.039400
2.755950 22.637800 10.039400
2.755950 22.244101 10.039400
1.968550 22.244101 10.039400
1.968550 22.637800 10.039400
2.755950 22.637800 10.039400
-6.102340 23.622047 -10.826790
-6.102340 21.259840 -10.826790
-6.299190 21.456690 -13.976400
-6.299190 23.425198 -13.976400
1.968550 22.244101 11.614200
2.755950 22.244101 11.614200
2.755950 22.637800 11.614200
1.968550 22.637800 11.614200
8.464550 23.622047 15.551200
8.464550 21.259840 15.551200
8.464550 21.259840 -10.826790
8.464550 23.622047 -10.826790
6.102350 22.834650 15.551200
6.102350 22.834650 11.614200
-6.102340 22.834650 11.614200
-6.102340 22.834650 15.551200
2.755950 22.244101 10.039400
2.755950 22.244101 11.614200
1.968550 22.244101 11.614200
1.968550 22.244101 10.039400
1.968550 -22.637751 11.614200
1.968550 -22.244049 11.614200
1.968550 -22.244049 10.039400
1.968550 -22.637751 10.039400
7.086650 3.543350 11.614200
7.480350 3.543350 11.614200
7.480350 4.330750 11.614200
7.086650 4.330750 11.614200
-7.086600 4.330750 11.614200
-7.086600 3.543350 11.614200
-7.086600 3.543350 10.039400
-7.086600 4.330750 10.039400
6.102350 22.736219 10.039400
6.102350 22.736219 8.464500
-6.102340 22.736219 8.464500
-6.102340 22.736219 10.039400
-8.464548 21.259840 15.551200
-8.464548 23.622047 15.551200
-8.464548 23.622047 -10.826790
-8.464548 21.259840 -10.826790
-6.102340 23.622047 -10.826790
-6.299190 23.425198 -13.976400
-8.267698 23.425198 -13.976400
-8.464548 23.622047 -10.826790
-6.102340 21.259840 -10.826790
-6.102340 21.259840 15.551200
-8.464548 21.259840 15.551200
-8.464548 21.259840 -10.826790
9.144150 24.301628 16.281601
9.144150 -24.301649 16.281601
8.976350 24.133860 16.338600
8.976350 -24.133850 16.338600
8.464550 21.259840 -10.826790
8.464550 21.259840 15.551200
6.102350 21.259840 15.551200
6.102350 21.259840 -10.826790
-6.102340 22.145670 10.039400
-6.102340 22.736219 10.039400
-6.102340 22.736219 8.464500
-6.102340 22.145670 8.464500
6.102350 22.145670 8.464500
6.102350 22.145670 10.039400
-6.102340 22.145670 10.039400
-6.102340 22.145670 8.464500
6.102350 -22.145651 10.039400
6.102350 -22.145651 8.464500
-6.102340 -22.145651 8.464500
-6.102340 -22.145651 10.039400
-6.102340 23.622047 15.551200
-6.102340 23.622047 -10.826790
-8.464548 23.622047 -10.826790
-8.464548 23.622047 15.551200
9.249650 -24.407049 16.098900
-9.249592 -24.407049 16.098900
-9.144128 -24.301649 15.608100
-8.976359 -24.133850 15.551200
8.976350 -24.133850 15.551200
9.144150 -24.301649 15.608100
8.070850 21.653540 -16.338600
6.496050 21.653540 -16.338600
6.496050 23.228350 -16.338600
8.070850 23.228350 -16.338600
6.102350 22.736219 10.039400
6.102350 22.145670 10.039400
6.102350 22.145670 8.464500
6.102350 22.736219 8.464500
-7.677150 22.834650 16.338600
8.976350 24.133860 16.338600
-8.976359 24.133860 16.338600
-8.976359 -24.133850 16.338600
-7.677150 -22.834650 16.338600
7.677150 22.834650 16.338600
7.677150 -22.834650 16.338600
8.976350 -24.133850 16.338600
0.393720 -22.244049 11.614200
0.393720 -22.244049 10.039400
-0.393680 -22.244049 10.039400
-0.393680 -22.244049 11.614200
6.299250 21.456690 -13.976400
8.267750 21.456690 -13.976400
8.267750 23.425198 -13.976400
6.299250 23.425198 -13.976400
6.102350 21.259840 -13.976400
6.102350 23.622047 -13.976400
6.496050 23.228350 -16.338600
6.496050 21.653540 -16.338600
-6.102340 22.047251 15.551200
6.102350 22.047251 15.551200
6.102350 22.834650 15.551200
-6.102340 22.834650 15.551200
9.242550 -24.400049 15.755400
-9.242559 -24.400049 15.755400
-1.968490 22.244101 10.039400
-1.968490 22.244101 11.614200
-2.755890 22.244101 11.614200
-2.755890 22.244101 10.039400
-2.755890 22.244101 11.614200
-1.968490 22.244101 11.614200
-1.968490 22.637800 11.614200
-2.755890 22.637800 11.614200
-6.102340 22.145670 10.039400
6.102350 22.145670 10.039400
6.102350 22.736219 10.039400
-6.102340 22.736219 10.039400
-7.578720 -21.259850 10.039400
-7.578720 21.259840 10.039400
-7.578720 21.259840 8.464500
-7.578720 -21.259850 8.464500
-6.988170 21.259840 10.039400
-6.988170 -21.259850 10.039400
-6.988170 -21.259850 8.464500
-6.988170 21.259840 8.464500
-7.677150 -22.834650 16.338600
7.677150 -22.834650 16.338600
7.677150 22.834650 16.338600
-7.677150 22.834650 16.338600
-1.968490 -22.244049 11.614200
-1.968490 -22.244049 10.039400
-2.755890 -22.244049 10.039400
-2.755890 -22.244049 11.614200
-2.755890 -22.637751 11.614200
-2.755890 -22.244049 11.614200
-2.755890 -22.244049 10.039400
-2.755890 -22.637751 10.039400
0.393720 -22.637751 10.039400
0.393720 -22.637751 11.614200
-0.393680 -22.637751 11.614200
-0.393680 -22.637751 10.039400
8.464550 23.622047 -13.976400
8.464550 21.259840 -13.976400
8.070850 21.653540 -16.338600
8.070850 23.228350 -16.338600
-1.968490 22.637800 11.614200
-1.968490 22.244101 11.614200
-1.968490 22.244101 10.039400
-1.968490 22.637800 10.039400
7.480350 -4.330750 10.039400
7.480350 -4.330750 11.614200
7.086650 -4.330750 11.614200
7.086650 -4.330750 10.039400
-2.755890 -22.637751 11.614200
-1.968490 -22.637751 11.614200
-1.968490 -22.244049 11.614200
-2.755890 -22.244049 11.614200
-1.968490 -22.637751 10.039400
-2.755890 -22.637751 10.039400
-2.755890 -22.244049 10.039400
-1.968490 -22.244049 10.039400
-1.968490 -22.637751 10.039400
-1.968490 -22.637751 11.614200
-2.755890 -22.637751 11.614200
-2.755890 -22.637751 10.039400
7.578750 -21.259850 8.464500
6.988250 -21.259850 8.464500
6.988250 21.259840 8.464500
7.578750 21.259840 8.464500
0.393720 22.637800 11.614200
0.393720 22.244101 11.614200
0.393720 22.244101 10.039400
0.393720 22.637800 10.039400
0.393720 22.637800 11.614200
0.393720 22.637800 10.039400
-0.393680 22.637800 10.039400
-0.393680 22.637800 11.614200
0.393720 22.244101 10.039400
0.393720 22.244101 11.614200
-0.393680 22.244101 11.614200
-0.393680 22.244101 10.039400
7.480350 -3.543350 11.614200
7.480350 -3.543350 10.039400
7.086650 -3.543350 10.039400
7.086650 -3.543350 11.614200
2.755950 -22.637751 10.039400
1.968550 -22.637751 10.039400
1.968550 -22.244049 10.039400
2.755950 -22.244049 10.039400
-6.102340 -21.259850 15.551200
-6.102340 -23.622049 15.551200
-6.102340 -23.622049 -10.826790
-6.102340 -21.259850 -10.826790
6.988250 -21.259850 10.039400
6.988250 21.259840 10.039400
6.988250 21.259840 8.464500
6.988250 -21.259850 8.464500
7.677150 -21.259850 11.614200
7.677150 -21.259850 15.551200
6.889750 -21.259850 15.551200
6.889750 -21.259850 11.614200
7.677150 21.259840 15.551200
7.677150 -21.259850 15.551200
7.677150 -21.259850 11.614200
7.677150 21.259840 11.614200
0.393720 -22.244049 11.614200
0.393720 -22.637751 11.614200
0.393720 -22.637751 10.039400
0.393720 -22.244049 10.039400
2.755950 -22.637751 10.039400
2.755950 -22.637751 11.614200
1.968550 -22.637751 11.614200
1.968550 -22.637751 10.039400
1.968550 -22.637751 11.614200
2.755950 -22.637751 11.614200
2.755950 -22.244049 11.614200
1.968550 -22.244049 11.614200
7.578750 21.259840 10.039400
7.578750 21.259840 8.464500
6.988250 21.259840 8.464500
6.988250 21.259840 10.039400
6.988250 -21.259850 10.039400
7.578750 -21.259850 10.039400
7.578750 21.259840 10.039400
6.988250 21.259840 10.039400
-6.102340 -21.259850 15.551200
-6.102340 -21.259850 -10.826790
-8.464548 -21.259850 -10.826790
-8.464548 -21.259850 15.551200
6.889750 -21.259850 15.551200
6.889750 21.259840 15.551200
6.889750 21.259840 11.614200
6.889750 -21.259850 11.614200
6.889750 -21.259850 15.551200
7.677150 -21.259850 15.551200
7.677150 21.259840 15.551200
6.889750 21.259840 15.551200
7.480350 -0.393650 10.039400
7.480350 -0.393650 11.614200
7.086650 -0.393650 11.614200
7.086650 -0.393650 10.039400
-8.464548 -23.622049 15.551200
-8.464548 -21.259850 15.551200
-8.464548 -21.259850 -10.826790
-8.464548 -23.622049 -10.826790
9.195050 24.352501 16.230700
-9.195000 24.352501 16.230700
7.480350 0.393750 11.614200
7.480350 0.393750 10.039400
7.086650 0.393750 10.039400
7.086650 0.393750 11.614200
7.480350 0.393750 11.614200
7.480350 -0.393650 11.614200
7.480350 -0.393650 10.039400
7.480350 0.393750 10.039400
-7.086600 3.543350 10.039400
-7.480300 3.543350 10.039400
-7.480300 4.330750 10.039400
-7.086600 4.330750 10.039400
-6.102340 -21.259850 -10.826790
-6.102340 -23.622049 -10.826790
-6.299190 -23.425150 -13.976400
-6.299190 -21.456650 -13.976400
9.195050 -24.352449 15.659000
-9.195000 -24.352449 15.659000
-6.889750 -21.259850 11.614200
-6.889750 -21.259850 15.551200
-7.677150 -21.259850 15.551200
-7.677150 -21.259850 11.614200
-7.086600 4.330750 11.614200
-7.086600 4.330750 10.039400
-7.480300 4.330750 10.039400
-7.480300 4.330750 11.614200
-8.464548 -23.622049 -13.976400
-8.464548 -21.259850 -13.976400
-8.070850 -21.653549 -16.338600
-8.070850 -23.228350 -16.338600
-7.086600 -3.543350 11.614200
-7.086600 -3.543350 10.039400
-7.480300 -3.543350 10.039400
-7.480300 -3.543350 11.614200
-7.086600 -3.543350 11.614200
-7.086600 -4.330750 11.614200
-7.086600 -4.330750 10.039400
-7.086600 -3.543350 10.039400
7.480350 3.543350 10.039400
7.086650 3.543350 10.039400
7.086650 4.330750 10.039400
7.480350 4.330750 10.039400
-8.464548 21.259840 -13.976400
-8.464548 23.622047 -13.976400
-8.070850 23.228350 -16.338600
-8.070850 21.653540 -16.338600
-7.677150 -21.259850 15.551200
-7.677150 21.259840 15.551200
-7.677150 21.259840 11.614200
-7.677150 -21.259850 11.614200
7.480350 4.330750 11.614200
7.480350 4.330750 10.039400
7.086650 4.330750 10.039400
7.086650 4.330750 11.614200
7.480350 4.330750 11.614200
7.480350 3.543350 11.614200
7.480350 3.543350 10.039400
7.480350 4.330750 10.039400
-7.086600 -4.330750 10.039400
-7.480300 -4.330750 10.039400
-7.480300 -3.543350 10.039400
-7.086600 -3.543350 10.039400
-6.102340 -21.259850 -13.976400
-6.496040 -21.653549 -16.338600
-8.070850 -21.653549 -16.338600
-8.464548 -21.259850 -13.976400
-6.889750 -21.259850 11.614200
-7.677150 -21.259850 11.614200
-7.677150 21.259840 11.614200
-6.889750 21.259840 11.614200
-7.677150 -21.259850 15.551200
-6.889750 -21.259850 15.551200
-6.889750 21.259840 15.551200
-7.677150 21.259840 15.551200
4 0 1 2 3
4 4 5 6 7
4 8 9 10 11
4 12 13 14 15
4 16 17 18 19
4 20 21 22 23
8 24 25 26 27 28 29 30 31
4 32 33 34 35
4 36 37 38 39
4 40 41 42 43
4 44 45 46 47
4 48 49 50 51
4 52 53 54 55
4 56 57 58 59
4 60 61 62 63
4 64 65 66 67
4 68 69 70 71
4 72 73 74 75
4 76 77 78 79
4 80 81 82 83
4 84 85 86 87
4 88 89 90 91
4 92 93 94 95
4 96 97 98 99
4 100 101 102 103
4 104 105 106 107
4 108 109 110 111
4 112 113 114 115
4 116 117 118 119
4 120 121 122 123
4 124 125 126 127
4 128 129 130 131
4 132 133 134 135
4 136 137 138 139
4 140 141 142 143
4 144 145 146 147
4 148 149 150 151
4 152 153 154 155
4 156 157 158 159
4 160 161 162 163
4 164 165 166 167
6 168 169 170 171 172 173
4 174 175 176 177
4 178 179 180 181
4 53 182 183 54
4 184 185 186 187
4 188 189 190 191
4 192 193 194 195
4 196 197 198 199
4 200 201 202 203
4 204 205 206 207
4 208 209 210 211
4 212 213 214 215
4 216 217 218 219
4 220 221 222 223
4 224 225 226 227
6 228 229 230 231 232 233
4 234 235 236 237
4 238 239 240 241
4 242 243 244 245
4 246 247 248 249
4 250 251 252 253
4 254 255 256 257
4 258 259 260 261
4 262 246 249 263
4 264 265 266 267
4 268 269 270 271
4 272 273 274 275
4 276 277 278 279
4 280 281 282 283
4 284 285 286 287
4 288 289 290 291
4 292 293 294 295
4 296 297 298 299
8 300 301 302 303 304 305 306 307
4 308 309 310 311
4 312 313 314 315
4 316 317 318 319
4 320 321 322 323
4 324 325 326 327
4 328 329 330 331
4 332 333 334 335
4 336 337 338 339
4 340 341 342 343
4 344 345 346 347
4 348 349 350 351
4 352 353 354 355
4 356 357 358 359
4 360 361 362 363
4 364 365 366 367
4 368 369 370 371
4 372 373 374 375
4 376 377 378 379
4 380 381 382 383
4 384 385 386 387
4 388 389 390 391
4 392 393 394 395
4 396 397 398 399
4 400 401 402 403
4 404 405 406 407
4 408 409 410 411
4 393 392 190 189
4 412 413 414 415
4 416 417 418 419
6 420 421 422 423 424 425
4 426 427 428 429
4 430 431 432 433
6 434 170 169 435 173 172
4 436 437 438 439
4 440 441 442 443
4 444 445 446 447
4 448 449 450 451
8 178 181 452 453 180 179 454 455
4 456 457 395 394
4 458 459 460 461
4 462 463 464 465
4 466 467 468 469
4 470 471 472 473
4 14 474 475 15
4 476 477 457 456
7 188 191 478 479 480 481 482
4 27 26 31 30
4 483 484 485 486
4 487 488 489 490
4 491 492 493 494
4 495 496 497 498
4 499 500 501 502
4 503 504 505 506
4 507 508 509 510
4 511 512 513 514
4 201 200 515 516
4 517 518 519 520
4 521 522 523 524
4 525 526 516 515
4 527 528 529 530
4 531 532 533 534
4 535 536 537 538
4 539 540 526 525
4 540 539 235 234
4 541 542 543 544
4 545 546 547 548
4 549 550 551 552
4 553 554 555 556
4 557 558 559 560
4 561 562 563 564
4 565 566 567 568
4 203 202 477 476
4 569 570 571 572
4 573 574 575 576
4 262 263 237 236
4 577 578 579 580
4 581 582 583 584
4 13 12 230 229
4 585 586 587 588
4 589 590 591 592
4 593 594 595 596
4 233 232 597 598
4 598 597 599 600
4 601 602 603 604
4 605 606 607 608
4 609 610 611 612
4 613 614 615 616
4 617 618 619 620
4 621 52 55 622
4 623 624 625 626
4 627 628 629 630
4 522 521 422 421
4 631 632 633 634
5 635 636 637 638 639
7 640 641 639 638 642 636 635
4 643 644 645 646
4 647 648 649 650
4 303 300 307 304
4 651 652 653 654
4 655 656 657 658
4 659 621 622 660
4 661 662 663 664
4 665 666 667 668
4 669 670 671 672
4 673 674 675 676
4 677 678 679 680
4 681 682 683 684
4 685 686 687 688
4 689 690 691 692
4 693 694 695 696
4 697 698 699 700
4 701 702 703 704
4 705 706 707 708
4 709 710 711 712
4 713 714 715 716
4 717 718 719 720
4 721 722 723 724
4 725 726 727 728
4 729 730 731 732
4 733 734 735 736
4 737 738 739 740
4 741 742 743 744
4 745 746 747 748
4 749 750 751 752
4 753 754 755 756
4 757 758 759 760
4 761 762 763 764
4 765 766 767 768
4 769 770 771 772
4 773 774 775 776
4 777 778 779 780
4 781 782 783 784
4 785 786 787 788
4 789 790 791 792
4 793 794 795 796
4 797 798 799 800
6 801 425 424 802 417 416
4 803 804 805 806
4 807 808 809 810
4 811 812 813 814
4 815 816 817 818
6 819 659 660 820 623 626
4 821 822 823 824
4 825 826 827 828
4 829 830 831 832
4 833 834 835 836
4 837 838 839 840
4 841 842 843 844
4 845 846 847 848
4 849 850 851 852
4 853 854 855 856
4 857 858 859 860
4 861 862 863 864
4 865 866 867 868
4 869 870 871 872
4 873 874 875 876
