ply
format ascii 1.0
comment Created by Blender 2.82 (sub 7) - www.blender.org, source file: ''
element vertex 619
property float x
property float y
property float z
element face 179
property list uchar uint vertex_indices
end_header
0.495320 -0.065500 8.528350
0.493740 -0.068390 8.528250
0.492430 -0.063910 8.528150
0.495320 -0.065500 8.528350
0.493740 -0.068390 8.528250
0.492430 -0.063910 8.528150
0.495320 -0.065500 8.528350
0.493740 -0.068390 8.528250
0.492430 -0.063910 8.528150
0.495320 -0.065500 8.528350
0.492430 -0.063910 8.528150
0.493740 -0.068390 8.528250
0.495320 -0.065500 8.528350
0.492430 -0.063910 8.528150
0.493740 -0.068390 8.528250
4.606250 -6.845250 8.528150
0.493740 -0.068390 8.528250
0.494410 -0.067170 8.528250
0.492430 -0.063910 8.528150
0.493740 -0.068390 8.528250
0.495320 -0.065500 8.528350
0.492430 -0.063910 8.528150
0.493740 -0.068390 8.528250
0.495320 -0.065500 8.528350
0.492430 -0.063910 8.528150
0.493740 -0.068390 8.528250
0.495320 -0.065500 8.528350
0.492430 -0.063910 8.528150
0.495320 -0.065500 8.528350
0.493740 -0.068390 8.528250
4.073450 7.474893 8.106250
4.950050 6.993640 8.104250
5.090250 7.250709 7.700250
4.213650 7.731960 7.702150
0.494410 -0.067170 8.528250
0.493740 -0.068390 8.528250
4.606250 -6.845250 8.528150
5.034450 7.215454 -8.703880
5.111650 7.353883 -8.175860
5.206950 7.527672 -8.211860
5.110550 7.354651 -8.871831
4.912150 6.995070 -9.306702
1.082180 0.019530 -9.771699
1.076350 0.007840 -9.496979
4.875750 6.927760 -9.051804
4.724950 -7.943150 -8.032710
4.621350 -7.772150 -8.032710
5.476350 -7.253550 -8.030770
5.580050 -7.424650 -8.030760
4.157850 7.696642 -8.701930
3.999150 7.408949 -9.049858
0.199740 0.489030 -9.495032
0.205560 0.500720 -9.769851
4.035550 7.476279 -9.304847
4.233950 7.835889 -8.869945
4.330350 8.008922 -8.209930
4.235050 7.835071 -8.173910
-5.747270 -5.070550 9.528150
-5.747270 -5.070550 9.778150
-7.414610 -1.279920 9.778150
-7.414610 -1.279920 9.528150
7.815350 3.157150 9.528150
5.223750 6.387060 9.528150
5.223750 6.387060 9.778150
7.815350 3.157150 9.778150
-8.310680 0.423710 7.837250
-8.303126 -0.576260 7.839250
-8.437101 -0.578610 7.149250
-8.444655 0.421360 7.147250
5.511750 -7.309350 -8.720820
4.656650 -7.827850 -8.722710
4.467750 -7.514450 -9.227834
5.322750 -6.995850 -9.225973
-2.728640 7.258980 9.528150
-2.728640 7.258980 8.528150
-5.958540 4.667370 8.528150
-5.958540 4.667370 9.528150
0.253690 -0.545280 -9.776302
-7.819861 -0.605930 -9.305789
-8.230546 -0.608220 -8.870888
-8.428642 -0.608440 -8.210870
-8.230358 -0.606870 -8.174850
-8.071879 -0.606690 -8.702870
-7.743325 -0.604860 -9.050801
0.266740 -0.544660 -9.501483
4.121950 7.562323 8.345250
4.998550 7.081072 8.343350
5.173850 7.402406 7.838250
4.297250 7.883657 7.840150
5.241950 -6.927550 8.105250
4.386850 -7.446050 8.103350
4.539350 -7.696050 7.699250
5.394450 -7.177550 7.701150
5.580050 -7.424650 -8.030760
5.554650 -7.439650 7.149150
4.699550 -7.958150 7.147250
4.724950 -7.943150 -8.032710
5.511750 -7.309350 -8.720820
5.322750 -6.995850 -9.225973
4.467750 -7.514450 -9.227834
4.656650 -7.827850 -8.722710
-8.129927 -0.575220 7.701250
-8.137481 0.424750 7.699250
-8.245517 0.422830 7.129250
-8.237963 -0.577140 7.131250
-8.444750 0.391810 -8.032680
-8.244827 0.393320 -8.032680
-8.237983 0.393100 -8.176800
-8.436196 0.391530 -8.212810
4.286650 -7.281150 8.213650
5.141650 -6.762650 8.215550
5.027450 -6.574550 8.254350
4.172450 -7.093050 8.252350
-8.310680 0.423710 7.837250
-7.944662 0.427460 8.342350
-7.703487 0.429550 8.480250
-7.444680 0.431600 8.527250
-7.431620 0.431160 8.252450
-7.651727 0.429420 8.213650
-7.844667 0.427750 8.103350
-8.137481 0.424750 7.699250
-8.245517 0.422830 7.129250
-8.444655 0.421360 7.147250
-7.424070 -0.568810 8.254350
-7.431620 0.431160 8.252450
-7.444680 0.431600 8.527250
-7.437120 -0.568370 8.529150
5.211350 7.534999 -8.031740
4.334850 8.016250 -8.029790
4.360550 8.001755 7.150150
5.237150 7.520505 7.148250
-8.444750 0.391810 -8.032680
-8.244827 0.393320 -8.032680
-8.237202 -0.606650 -8.030740
-8.437196 -0.608160 -8.030730
5.211350 7.534999 -8.031740
5.237150 7.520505 7.148250
5.141250 7.345955 7.130150
5.115650 7.360478 -8.013740
4.315550 -7.264050 -9.099203
4.201550 -7.075850 -9.138009
5.056550 -6.557250 -9.136062
5.170650 -6.745550 -9.097256
4.882750 6.869530 8.481150
4.006150 7.350776 8.483150
4.121950 7.562323 8.345250
4.998550 7.081072 8.343350
4.968750 7.097832 -9.226861
4.092150 7.579051 -9.225000
4.269150 7.899456 -8.719840
5.145750 7.418214 -8.721740
-7.937108 -0.572510 8.344350
-7.944662 0.427460 8.342350
-8.310680 0.423710 7.837250
-8.303126 -0.576260 7.839250
4.921050 7.009980 -8.987926
4.828050 6.840930 -9.098229
3.951450 7.322120 -9.096283
4.044450 7.491168 -8.985980
-2.408000 -7.519650 9.528150
-2.408000 -7.519650 9.778150
-8.444750 0.391810 -8.032680
-8.245682 0.393350 -8.014680
-8.238057 -0.606620 -8.012730
-8.437196 -0.608160 -8.030730
4.178750 -7.104450 8.527250
4.313050 -7.325750 8.480250
5.168050 -6.807250 8.482150
5.033850 -6.585950 8.529150
1.364350 7.888432 8.528150
1.364350 7.888432 9.528150
5.223750 6.387060 9.528150
5.223750 6.387060 8.528150
5.499050 -6.303650 8.528150
5.499050 -6.303650 9.528150
1.708450 -7.970950 9.528150
1.708450 -7.970950 8.528150
4.595850 -7.787150 7.147250
5.450950 -7.268650 7.149150
5.476350 -7.253550 -8.030770
4.621350 -7.772150 -8.032710
-7.437120 -0.568370 8.529150
-7.444680 0.431600 8.527250
-7.703487 0.429550 8.480250
-7.695933 -0.570420 8.482150
4.998550 7.081072 8.343350
4.882750 6.869530 8.481150
4.758250 6.642600 8.528150
4.751450 6.631430 8.253350
4.857350 6.824400 8.214550
4.950050 6.993640 8.104250
5.090250 7.250709 7.700250
5.141250 7.345955 7.130150
5.237150 7.520505 7.148250
5.173850 7.402406 7.838250
4.968750 7.097832 -9.226861
4.092150 7.579051 -9.225000
3.975850 7.367745 -9.362877
4.852450 6.886540 -9.364728
5.197950 -6.789550 -9.363850
5.063750 -6.568150 -9.410881
4.208750 -7.086750 -9.412729
4.342850 -7.308050 -9.365701
3.851250 7.140892 -9.409908
4.727850 6.659700 -9.411756
-8.437196 -0.608160 -8.030730
-8.238057 -0.606620 -8.012730
-8.237963 -0.577140 7.131250
-8.437101 -0.578610 7.149250
-7.937182 -0.606670 -9.225943
-7.944772 0.393300 -9.227803
-7.703599 0.394870 -9.365671
-7.695992 -0.605100 -9.363820
7.948150 -2.964350 9.528150
7.948150 -2.964350 8.528150
4.269150 7.899456 -8.719840
5.145750 7.418214 -8.721740
4.239050 7.841666 -8.011790
4.334850 8.016250 -8.029790
4.238550 7.840933 -8.029800
5.211350 7.534999 -8.031740
5.115650 7.360478 -8.013740
5.115150 7.359745 -8.031740
4.772850 6.669190 8.528150
4.784850 6.628010 8.528150
4.758250 6.642600 8.528150
3.896250 7.150442 8.530150
3.881650 7.123855 8.530150
3.855050 7.138451 8.530150
-7.844809 0.394510 -8.988868
-7.837184 -0.605460 -8.986922
-8.130019 -0.606900 -8.582790
-8.137644 0.393070 -8.584730
5.270550 -6.910550 -8.986953
4.415450 -7.429150 -8.988899
-7.431740 0.397370 -9.137978
0.259120 0.455310 -9.503429
0.266740 -0.544660 -9.501483
-7.424110 -0.602600 -9.136032
4.722050 6.648010 -9.137035
3.845450 7.129195 -9.135089
4.596350 -7.787850 7.129250
5.451450 -7.269350 7.131150
4.724950 -7.943150 -8.032710
4.621750 -7.772950 -8.014710
5.476750 -7.254350 -8.012760
5.580050 -7.424650 -8.030760
4.006150 7.350776 8.483150
3.881650 7.123855 8.530150
4.758250 6.642600 8.528150
4.882750 6.869530 8.481150
5.421650 -7.161350 -8.582820
4.566650 -7.679950 -8.584770
7.948150 -2.964350 9.528150
8.444750 -0.935830 9.528150
8.444750 -0.935830 9.778150
7.948150 -2.964350 9.778150
4.438350 -7.531850 8.342350
5.293350 -7.013250 8.344250
5.484050 -7.325750 7.839150
4.628950 -7.844250 7.837250
4.178750 -7.104450 8.527250
5.033850 -6.585950 8.529150
5.168050 -6.807250 8.482150
4.313050 -7.325750 8.480250
5.484050 -7.325750 7.839150
4.628950 -7.844250 7.837250
4.699550 -7.958150 7.147250
5.554650 -7.439650 7.149150
0.205560 0.500720 -9.769851
0.199740 0.489030 -9.495032
1.076350 0.007840 -9.496979
1.082180 0.019530 -9.771699
5.173850 7.402406 7.838250
4.297250 7.883657 7.840150
4.360550 8.001755 7.150150
5.237150 7.520505 7.148250
5.580050 -7.424650 -8.030760
4.724950 -7.943150 -8.032710
-7.695992 -0.605100 -9.363820
-7.437170 -0.603220 -9.410851
-7.444788 0.396750 -9.412699
-7.703599 0.394870 -9.365671
5.211350 7.534999 -8.031740
5.115650 7.360478 -8.013740
4.239050 7.841666 -8.011790
4.334850 8.016250 -8.029790
0.492430 -0.063910 8.528150
0.495320 -0.065500 8.528350
0.493740 -0.068390 8.528250
4.724950 -7.943150 -8.032710
4.699550 -7.958150 7.147250
4.596350 -7.787850 7.129250
4.621750 -7.772950 -8.014710
-7.944662 0.427460 8.342350
-7.937108 -0.572510 8.344350
5.141250 7.345955 7.130150
4.264650 7.827206 7.132150
-7.703487 0.429550 8.480250
-7.695933 -0.570420 8.482150
4.186050 7.747497 -8.581850
4.239050 7.841666 -8.011790
5.115650 7.360478 -8.013740
5.062650 7.266309 -8.583790
1.364350 7.888432 9.528150
1.364350 7.888432 9.778150
5.237150 7.520505 7.148250
4.360550 8.001755 7.150150
4.727850 6.659700 -9.411756
3.851250 7.140892 -9.409908
0.205560 0.500720 -9.769851
1.082180 0.019530 -9.771699
-7.944772 0.393300 -9.227803
-7.937182 -0.606670 -9.225943
5.293350 -7.013250 8.344250
4.438350 -7.531850 8.342350
-7.444680 0.431600 8.527250
-7.437120 -0.568370 8.529150
4.334850 8.016250 -8.029790
4.330350 8.008922 -8.209930
4.235050 7.835071 -8.173910
4.238550 7.840933 -8.029800
5.499050 -6.303650 9.778150
7.948150 -2.964350 9.778150
8.444750 -0.935830 9.778150
7.815350 3.157150 9.778150
5.223750 6.387060 9.778150
1.364350 7.888432 9.778150
-2.728640 7.258980 9.778150
-5.958540 4.667370 9.778150
-7.459913 0.808010 9.778150
-7.414610 -1.279920 9.778150
-5.747270 -5.070550 9.778150
-2.408000 -7.519650 9.778150
1.708450 -7.970950 9.778150
-5.747270 -5.070550 9.528150
-7.414610 -1.279920 9.528150
-7.414610 -1.279920 8.528150
-5.747270 -5.070550 8.528150
-2.408000 -7.519650 9.528150
-2.408000 -7.519650 8.528150
5.554650 -7.439650 7.149150
4.699550 -7.958150 7.147250
-8.437196 -0.608160 -8.030730
-8.303220 -0.608480 -8.720780
-8.310784 0.391490 -8.722680
-8.444750 0.391810 -8.032680
3.874950 7.112676 8.255350
4.751450 6.631430 8.253350
4.758250 6.642600 8.528150
3.881650 7.123855 8.530150
5.499050 -6.303650 8.528150
7.948150 -2.964350 8.528150
8.444750 -0.935830 8.528150
7.815350 3.157150 8.528150
5.223750 6.387060 8.528150
1.364350 7.888432 8.528150
-2.728640 7.258980 8.528150
-5.958540 4.667370 8.528150
-7.459913 0.808010 8.528150
-7.414610 -1.279920 8.528150
-5.747270 -5.070550 8.528150
-2.408000 -7.519650 8.528150
1.708450 -7.970950 8.528150
-7.459913 0.808010 9.528150
-7.459913 0.808010 9.778150
-8.444750 0.391810 -8.032680
-8.437196 -0.608160 -8.030730
-8.437101 -0.578610 7.149250
-8.444655 0.421360 7.147250
-8.129927 -0.575220 7.701250
-7.837113 -0.572220 8.105250
-7.644173 -0.570550 8.215550
-7.424070 -0.568810 8.254350
-7.437120 -0.568370 8.529150
-7.695933 -0.570420 8.482150
-7.937108 -0.572510 8.344350
-8.303126 -0.576260 7.839250
-8.437101 -0.578610 7.149250
-8.237963 -0.577140 7.131250
4.334850 8.016250 -8.029790
4.239050 7.841666 -8.011790
4.264650 7.827206 7.132150
4.360550 8.001755 7.150150
5.197950 -6.789550 -9.363850
4.342850 -7.308050 -9.365701
4.208750 -7.086750 -9.412729
5.063750 -6.568150 -9.410881
-8.444750 0.391810 -8.032680
-8.444655 0.421360 7.147250
-8.245517 0.422830 7.129250
-8.245682 0.393350 -8.014680
-8.245517 0.422830 7.129250
-8.237963 -0.577140 7.131250
-8.237202 -0.606650 -8.030740
-8.244827 0.393320 -8.032680
-8.238057 -0.606620 -8.012730
-8.437196 -0.608160 -8.030730
-8.237202 -0.606650 -8.030740
-8.444750 0.391810 -8.032680
-8.245682 0.393350 -8.014680
-8.244827 0.393320 -8.032680
-8.437196 -0.608160 -8.030730
-8.428642 -0.608440 -8.210870
-8.230358 -0.606870 -8.174850
-8.237202 -0.606650 -8.030740
-7.475005 0.431370 8.527250
-7.444904 0.461930 8.527150
-7.444680 0.431600 8.527250
-7.467451 -0.568600 8.529150
-7.437120 -0.568370 8.529150
-7.436890 -0.598700 8.529250
4.724950 -7.943150 -8.032710
5.580050 -7.424650 -8.030760
0.220040 -0.509820 -9.502878
4.366950 -7.348850 -9.052777
4.536750 -7.630150 -8.704850
4.618050 -7.766150 -8.176830
4.720850 -7.935650 -8.212840
4.619250 -7.765550 -8.872804
4.406950 -7.414050 -9.307675
0.227260 -0.520710 -9.777599
5.211350 7.534999 -8.031740
5.115150 7.359745 -8.031740
4.238550 7.840933 -8.029800
4.334850 8.016250 -8.029790
-7.444788 0.396750 -9.412699
-7.437170 -0.603220 -9.410851
0.253690 -0.545280 -9.776302
0.246070 0.454690 -9.778150
5.211350 7.534999 -8.031740
5.115150 7.359745 -8.031740
5.111650 7.353883 -8.175860
5.206950 7.527672 -8.211860
4.208750 -7.086750 -9.412729
5.063750 -6.568150 -9.410881
1.082290 -0.002140 -9.775751
0.227260 -0.520710 -9.777599
5.391750 -7.111550 -8.702900
5.221950 -6.830250 -9.050831
1.075070 0.008750 -9.500932
1.082290 -0.002140 -9.775751
5.262050 -6.895450 -9.305820
5.474250 -7.247050 -8.870918
5.575950 -7.417150 -8.210900
5.473050 -7.247550 -8.174880
5.476350 -7.253550 -8.030770
4.621350 -7.772150 -8.032710
4.596350 -7.787850 7.129250
5.451450 -7.269350 7.131150
4.264350 7.826439 7.150150
4.238550 7.840933 -8.029800
5.115150 7.359745 -8.031740
5.140850 7.345188 7.148250
4.201550 -7.075850 -9.138009
0.220040 -0.509820 -9.502878
1.075070 0.008750 -9.500932
5.056550 -6.557250 -9.136062
0.253690 -0.545280 -9.776302
0.266740 -0.544660 -9.501483
0.259120 0.455310 -9.503429
0.246070 0.454690 -9.778150
-8.238057 -0.606620 -8.012730
-8.245682 0.393350 -8.014680
5.476750 -7.254350 -8.012760
4.621750 -7.772950 -8.014710
1.082290 -0.002140 -9.775751
1.075070 0.008750 -9.500932
0.220040 -0.509820 -9.502878
0.227260 -0.520710 -9.777599
-8.444655 0.421360 7.147250
-8.437101 -0.578610 7.149250
-8.303220 -0.608480 -8.720780
-8.310784 0.391490 -8.722680
-8.244661 0.422870 7.147250
-8.237107 -0.577100 7.149250
-8.237202 -0.606650 -8.030740
-8.244827 0.393320 -8.032680
-7.644173 -0.570550 8.215550
-7.424070 -0.568810 8.254350
-7.431620 0.431160 8.252450
-7.651727 0.429420 8.213650
4.722050 6.648010 -9.137035
1.076350 0.007840 -9.496979
0.199740 0.489030 -9.495032
3.845450 7.129195 -9.135089
4.334850 8.016250 -8.029790
5.211350 7.534999 -8.031740
5.211350 7.534999 -8.031740
4.334850 8.016250 -8.029790
-8.444750 0.391810 -8.032680
-8.437196 -0.608160 -8.030730
4.699550 -7.958150 7.147250
4.628950 -7.844250 7.837250
4.438350 -7.531850 8.342350
4.313050 -7.325750 8.480250
4.178750 -7.104450 8.527250
4.172450 -7.093050 8.252350
4.286650 -7.281150 8.213650
4.386850 -7.446050 8.103350
4.539350 -7.696050 7.699250
4.596350 -7.787850 7.129250
-7.844667 0.427750 8.103350
-7.837113 -0.572220 8.105250
5.027450 -6.574550 8.254350
4.172450 -7.093050 8.252350
4.178750 -7.104450 8.527250
5.033850 -6.585950 8.529150
5.394450 -7.177550 7.701150
5.241950 -6.927550 8.105250
5.141650 -6.762650 8.215550
5.027450 -6.574550 8.254350
5.033850 -6.585950 8.529150
5.168050 -6.807250 8.482150
5.293350 -7.013250 8.344250
5.484050 -7.325750 7.839150
5.554650 -7.439650 7.149150
5.451450 -7.269350 7.131150
7.815350 3.157150 9.528150
7.815350 3.157150 8.528150
0.246070 0.454690 -9.778150
0.259120 0.455310 -9.503429
-7.750951 0.395100 -9.052747
-8.079504 0.393280 -8.704820
-8.237983 0.393100 -8.176800
-8.436196 0.391530 -8.212810
-8.238115 0.391750 -8.872774
-7.827459 0.394040 -9.307645
4.699550 -7.958150 7.147250
5.554650 -7.439650 7.149150
5.451450 -7.269350 7.131150
4.596350 -7.787850 7.129250
4.724950 -7.943150 -8.032710
4.621350 -7.772150 -8.032710
4.618050 -7.766150 -8.176830
4.720850 -7.935650 -8.212840
-5.958540 4.667370 9.778150
-5.958540 4.667370 9.528150
5.580050 -7.424650 -8.030760
5.575950 -7.417150 -8.210900
5.473050 -7.247550 -8.174880
5.476350 -7.253550 -8.030770
5.476750 -7.254350 -8.012760
5.580050 -7.424650 -8.030760
5.476350 -7.253550 -8.030770
4.724950 -7.943150 -8.032710
4.621750 -7.772950 -8.014710
4.621350 -7.772150 -8.032710
4.194450 -7.130350 8.527250
4.152850 -7.120150 8.527150
4.178750 -7.104450 8.527250
5.049550 -6.611850 8.529150
5.033850 -6.585950 8.529150
5.059750 -6.570250 8.529250
4.758250 6.642600 8.528150
3.881650 7.123855 8.530150
4.264650 7.827206 7.132150
4.238550 7.840933 -8.029800
5.115150 7.359745 -8.031740
5.141250 7.345955 7.130150
-7.459913 0.808010 9.528150
-7.459913 0.808010 8.528150
1.708450 -7.970950 9.528150
1.708450 -7.970950 9.778150
8.444750 -0.935830 9.528150
8.444750 -0.935830 8.528150
-2.728640 7.258980 9.528150
-2.728640 7.258980 9.778150
5.237150 7.520505 7.148250
4.360550 8.001755 7.150150
4.264650 7.827206 7.132150
5.141250 7.345955 7.130150
-7.651853 0.395770 -9.099172
-7.644228 -0.604200 -9.097226
-7.431740 0.397370 -9.137978
-7.424110 -0.602600 -9.136032
3.980750 7.305656 8.216550
4.857350 6.824400 8.214550
5.499050 -6.303650 9.778150
5.499050 -6.303650 9.528150
5.580050 -7.424650 -8.030760
5.476750 -7.254350 -8.012760
5.451450 -7.269350 7.131150
5.554650 -7.439650 7.149150
4.727850 6.659700 -9.411756
3.851250 7.140892 -9.409908
3.975850 7.367745 -9.362877
4.852450 6.886540 -9.364728
-7.444788 0.396750 -9.412699
-7.437170 -0.603220 -9.410851
3.874950 7.112676 8.255350
4.751450 6.631430 8.253350
1.708450 -7.970950 8.528150
-2.408000 -7.519650 8.528150
-5.747270 -5.070550 8.528150
-7.414610 -1.279920 8.528150
-7.459913 0.808010 8.528150
-5.958540 4.667370 8.528150
-2.728640 7.258980 8.528150
1.364350 7.888432 8.528150
5.223750 6.387060 8.528150
7.815350 3.157150 8.528150
8.444750 -0.935830 8.528150
7.948150 -2.964350 8.528150
5.499050 -6.303650 8.528150
-8.444655 0.421360 7.147250
-8.437101 -0.578610 7.149250
-8.237963 -0.577140 7.131250
-8.245517 0.422830 7.129250
4.213650 7.731960 7.702150
4.073450 7.474893 8.106250
3.980750 7.305656 8.216550
3.874950 7.112676 8.255350
3.881650 7.123855 8.530150
4.006150 7.350776 8.483150
4.121950 7.562323 8.345250
4.297250 7.883657 7.840150
4.360550 8.001755 7.150150
4.264650 7.827206 7.132150
3 0 1 2
3 3 4 5
3 6 7 8
3 9 10 11
3 12 13 14
3 15 16 17
3 18 19 20
3 21 22 23
3 24 25 26
3 27 28 29
4 30 31 32 33
3 34 35 36
8 37 38 39 40 41 42 43 44
4 45 46 47 48
8 49 50 51 52 53 54 55 56
4 57 58 59 60
4 61 62 63 64
4 65 66 67 68
4 69 70 71 72
4 73 74 75 76
8 77 78 79 80 81 82 83 84
4 85 86 87 88
4 89 90 91 92
4 93 94 95 96
4 97 98 99 100
4 101 102 103 104
4 105 106 107 108
4 109 110 111 112
10 113 114 115 116 117 118 119 120 121 122
4 123 124 125 126
4 127 128 129 130
4 131 132 133 134
4 135 136 137 138
4 139 140 141 142
4 143 144 145 146
4 147 148 149 150
4 151 152 153 154
4 155 156 157 158
4 159 160 58 57
4 161 162 163 164
4 165 166 167 168
4 169 170 171 172
4 173 174 175 176
4 177 178 179 180
4 181 182 183 184
10 185 186 187 188 189 190 191 192 193 194
4 195 196 197 198
4 199 200 201 202
4 197 203 204 198
4 205 206 207 208
4 209 210 211 212
4 213 174 173 214
4 215 196 195 216
3 217 218 219
3 220 221 222
3 223 224 225
3 226 227 228
4 229 230 231 232
4 139 142 233 234
4 235 236 237 238
4 156 239 240 157
4 92 91 241 242
4 243 244 245 246
4 98 199 202 99
4 247 248 249 250
4 234 233 251 252
4 253 254 255 256
4 257 258 259 260
4 261 262 263 264
4 110 109 90 89
4 265 266 267 268
4 269 270 271 272
4 273 274 275 276
4 277 97 100 278
4 254 61 64 255
4 279 280 281 282
4 283 284 285 286
3 287 288 289
4 290 291 292 293
4 294 295 66 65
4 33 32 296 297
4 294 298 299 295
4 300 301 302 303
4 304 305 63 62
4 88 87 306 307
4 308 309 310 311
4 312 313 279 282
4 314 315 266 265
4 316 317 299 298
4 318 319 320 321
13 322 323 324 325 326 327 328 329 330 331 332 333 334
4 335 336 337 338
4 339 340 176 175
4 170 169 74 73
4 260 259 341 342
4 343 344 345 346
4 347 348 349 350
13 351 352 353 354 355 356 357 358 359 360 361 362 363
4 364 60 59 365
4 257 264 263 258
4 366 367 368 369
10 370 371 372 373 374 375 376 377 378 379
4 380 381 382 383
4 384 385 386 387
4 388 389 390 391
4 392 393 394 395
3 396 397 398
3 399 400 401
4 402 403 404 405
3 406 407 408
3 409 410 411
4 412 70 69 413
8 414 415 416 417 418 419 420 421
4 422 423 424 425
4 151 184 183 152
4 426 427 428 429
4 430 431 432 433
4 434 435 436 437
8 438 439 440 441 442 443 444 445
4 446 447 448 449
4 450 451 452 453
4 454 455 456 457
4 458 459 460 461
4 232 231 462 463
4 251 464 465 252
4 466 467 468 469
4 154 153 470 471
4 210 209 472 473
4 474 475 476 477
4 385 384 72 71
4 478 479 480 481
4 482 483 484 485
4 247 250 86 85
4 314 167 166 315
4 486 215 216 487
4 488 150 149 489
4 490 473 472 491
10 492 493 494 495 496 497 498 499 500 501
4 502 503 478 481
4 504 505 506 507
10 508 509 510 511 512 513 514 515 516 517
4 171 518 519 172
4 344 313 312 345
8 520 521 522 523 524 525 526 527
4 528 529 530 531
4 146 145 274 273
4 532 533 534 535
4 364 365 536 537
4 538 539 540 541
3 542 543 544
3 545 546 547
3 548 549 550
3 551 552 553
4 143 554 555 144
4 503 502 102 101
4 556 557 558 559
4 336 560 561 337
4 160 159 562 563
4 518 564 565 519
4 566 567 305 304
4 536 567 566 537
4 568 569 570 571
4 229 572 573 230
4 564 213 214 565
4 572 574 575 573
4 576 577 31 30
4 253 256 578 579
4 579 578 563 562
4 580 581 582 583
4 584 585 586 587
4 588 589 212 211
4 340 339 335 338
4 155 158 300 303
4 577 576 590 591
4 587 586 148 147
13 592 593 594 595 596 597 598 599 600 601 602 603 604
4 605 606 607 608
10 609 610 611 612 613 614 615 616 617 618
4 560 76 75 561
