ply
format ascii 1.0
comment Created by Blender 2.82 (sub 7) - www.blender.org, source file: ''
element vertex 612
property float x
property float y
property float z
element face 128
property list uchar uint vertex_indices
end_header
10.000000 14.000000 17.125000
8.000000 14.000000 17.125000
8.000000 14.000000 -18.125000
10.000000 14.000000 -18.125000
-7.326950 -12.576950 17.875000
-7.326950 12.577000 17.875000
-7.576950 12.577000 17.875000
-7.576950 -12.576950 17.875000
-6.576950 13.812100 17.551201
-6.576950 14.086400 17.424801
-6.576950 14.288200 17.411301
-6.576950 14.577000 17.500000
-6.576950 14.577000 17.375000
-6.576950 12.577000 17.375000
-6.576950 12.577000 18.125000
-6.576950 13.327000 18.125000
-6.576950 13.327000 17.875000
-6.576950 13.577000 17.875000
-6.576950 12.577000 18.125000
-7.326950 12.577000 18.125000
-7.326950 -12.576950 18.125000
-6.576950 -12.576950 18.125000
-6.576950 -13.326950 18.125000
6.577000 -13.326950 18.125000
6.577000 13.327000 18.125000
-6.576950 13.327000 18.125000
6.577000 -12.576950 18.125000
6.577000 12.577000 18.125000
6.577000 -13.897080 17.495800
6.577000 -14.288240 17.411301
-6.576950 -14.288240 17.411301
-6.576950 -13.897080 17.495800
6.577000 12.577000 18.125000
6.577000 -12.576950 18.125000
6.577000 13.327000 18.125000
6.577000 -13.326950 18.125000
10.000000 16.000000 -18.125000
10.000000 16.000000 17.375000
10.000000 14.000000 17.375000
10.000000 14.000000 -18.125000
-6.576950 -13.326950 18.125000
-6.576950 -12.576950 18.125000
-7.326950 -12.576950 18.125000
-7.326950 12.577000 18.125000
-6.576950 12.577000 18.125000
-6.576950 13.327000 18.125000
-8.288240 -12.576950 17.411301
-7.897080 -12.576950 17.495800
-7.897080 12.577000 17.495800
-8.288240 12.577000 17.411301
-7.576950 -12.576950 17.875000
-7.576950 12.577000 17.875000
-7.326950 12.577000 17.875000
-7.326950 -12.576950 17.875000
7.327000 -12.576950 17.875000
7.327000 12.577000 17.875000
7.577000 12.577000 17.875000
7.577000 -12.576950 17.875000
-7.897080 12.577000 17.495800
-7.670750 12.577000 17.695801
-7.576950 12.577000 17.875000
-7.326950 12.577000 17.875000
-7.326950 12.577000 18.125000
-6.576950 12.577000 18.125000
-6.576950 12.577000 17.375000
-8.576950 12.577000 17.375000
-8.576950 12.577000 17.500000
-8.288240 12.577000 17.411301
-6.576950 13.327000 17.875000
-6.576950 13.577000 17.875000
6.577000 13.577000 17.875000
6.577000 13.327000 17.875000
-10.000000 14.000000 17.125000
-8.000000 14.000000 17.125000
-8.000000 14.000000 17.375000
-10.000000 14.000000 17.375000
-8.000000 14.000000 17.375000
-8.000000 14.000000 17.125000
-8.000000 16.000000 17.125000
-8.000000 16.000000 17.375000
-10.000000 14.000000 17.375000
-10.000000 14.000000 17.125000
-10.000000 -14.000000 17.125000
-10.000000 -14.000000 17.375000
6.577000 -14.576950 17.375000
-6.576950 -14.576950 17.375000
-6.576950 -14.576950 17.500000
6.577000 -14.576950 17.500000
8.000000 14.000000 17.375000
10.000000 14.000000 17.375000
10.000000 -14.000000 17.375000
8.000000 -14.000000 17.375000
6.577000 -12.576950 17.375000
8.577000 -12.576950 17.375000
8.577000 12.577000 17.375000
6.577000 12.577000 17.375000
6.577000 14.577000 17.375000
-6.576950 14.577000 17.375000
-6.576950 12.577000 17.375000
-8.576950 12.577000 17.375000
-8.576950 -12.576950 17.375000
-6.576950 -12.576950 17.375000
-6.576950 -14.576950 17.375000
6.577000 -14.576950 17.375000
8.000000 -16.000000 17.375000
-8.000000 -16.000000 17.375000
-8.000000 -14.000000 17.375000
-10.000000 -14.000000 17.375000
-10.000000 14.000000 17.375000
-8.000000 14.000000 17.375000
-8.000000 16.000000 17.375000
8.000000 16.000000 17.375000
-6.576950 -13.576950 17.875000
6.577000 -13.576950 17.875000
6.577000 -13.670750 17.695801
-6.576950 -13.670750 17.695801
8.086400 -12.576950 17.424801
7.812100 -12.576950 17.551201
7.577000 -12.576950 17.875000
6.577000 -12.576950 17.875000
6.577000 -12.576950 17.375000
8.577000 -12.576950 17.375000
8.577000 -12.576950 17.500000
8.288200 -12.576950 17.411301
7.327000 -12.576950 18.125000
7.327000 12.577000 18.125000
-6.576950 -14.288240 17.411301
-6.576950 -13.897080 17.495800
-6.576950 -13.670750 17.695801
-6.576950 -13.576950 17.875000
-6.576950 -13.326950 17.875000
-6.576950 -13.326950 18.125000
-6.576950 -12.576950 18.125000
-6.576950 -12.576950 17.375000
-6.576950 -14.576950 17.375000
-6.576950 -14.576950 17.500000
-6.576950 14.577000 17.500000
6.577000 14.577000 17.500000
6.577000 14.577000 17.375000
-6.576950 14.577000 17.375000
7.577000 12.577000 17.875000
7.812100 12.577000 17.551201
7.812100 -12.576950 17.551201
7.577000 -12.576950 17.875000
10.000000 -14.000000 -18.125000
10.000000 -16.000000 -18.125000
8.000000 -16.000000 -18.125000
8.000000 -14.000000 -18.125000
-7.670750 12.577000 17.695801
-7.897080 12.577000 17.495800
-8.288240 12.577000 17.411301
-8.576950 12.577000 17.500000
-8.576950 12.577000 17.375000
-6.576950 12.577000 17.375000
-6.576950 12.577000 18.125000
-7.326950 12.577000 18.125000
-7.326950 12.577000 17.875000
-7.576950 12.577000 17.875000
10.000000 -16.000000 17.375000
10.000000 -14.000000 17.375000
8.000000 -14.000000 17.375000
8.000000 -16.000000 17.375000
-8.485390 -12.576950 17.456499
-8.388460 -12.576950 17.426701
-8.388460 12.577000 17.426701
-8.485390 12.577000 17.456499
-8.576950 12.577000 17.500000
-8.576950 -12.576950 17.500000
7.577000 12.577000 17.875000
7.327000 12.577000 17.875000
7.327000 12.577000 18.125000
6.577000 12.577000 18.125000
6.577000 12.577000 17.375000
8.577000 12.577000 17.375000
8.577000 12.577000 17.500000
8.288200 12.577000 17.411301
8.086400 12.577000 17.424801
7.812100 12.577000 17.551201
-8.000000 16.000000 17.375000
8.000000 16.000000 17.375000
8.000000 16.000000 17.125000
-8.000000 16.000000 17.125000
7.327000 -12.576950 17.875000
6.577000 -12.576950 17.875000
6.577000 -12.576950 18.125000
7.327000 -12.576950 18.125000
7.327000 -12.576950 18.125000
6.577000 -12.576950 18.125000
7.327000 -12.576950 17.875000
-6.576950 -13.576950 17.875000
-6.576950 -13.326950 17.875000
6.577000 -13.326950 17.875000
6.577000 -13.576950 17.875000
-8.000000 -16.000000 17.375000
-8.000000 -14.000000 17.375000
-10.000000 -14.000000 17.375000
-10.000000 -16.000000 17.375000
7.577000 12.577000 17.875000
7.812100 12.577000 17.551201
8.086400 12.577000 17.424801
8.288200 12.577000 17.411301
8.577000 12.577000 17.500000
8.577000 12.577000 17.375000
6.577000 12.577000 17.375000
6.577000 12.577000 18.125000
7.327000 12.577000 18.125000
7.327000 12.577000 17.875000
6.577000 13.327000 17.875000
6.577000 13.577000 17.875000
-6.576950 13.577000 17.875000
-6.576950 13.327000 17.875000
-8.000000 -14.000000 -18.125000
-8.000000 -16.000000 -18.125000
-10.000000 -16.000000 -18.125000
-10.000000 -14.000000 -18.125000
7.577000 -12.576950 17.875000
7.577000 12.577000 17.875000
7.327000 12.577000 17.875000
7.327000 -12.576950 17.875000
8.086400 12.577000 17.424801
8.086400 -12.576950 17.424801
8.577000 12.577000 17.375000
8.577000 12.577000 17.500000
8.577000 -12.576950 17.500000
8.577000 -12.576950 17.375000
-6.576950 13.327000 17.875000
6.577000 13.327000 17.875000
6.577000 13.327000 18.125000
-6.576950 13.327000 18.125000
-8.000000 -16.000000 17.375000
-8.000000 -16.000000 17.125000
-8.000000 -14.000000 17.125000
-8.000000 -14.000000 17.375000
6.577000 13.577000 17.875000
-6.576950 13.577000 17.875000
-6.576950 13.812100 17.551201
6.577000 13.812100 17.551201
-7.897080 12.577000 17.495800
-7.897080 -12.576950 17.495800
-8.288240 -12.576950 17.411301
-8.288240 12.577000 17.411301
10.000000 16.000000 -18.125000
10.000000 14.000000 -18.125000
8.000000 14.000000 -18.125000
8.000000 16.000000 -18.125000
8.000000 14.000000 17.125000
10.000000 14.000000 17.125000
10.000000 14.000000 17.375000
8.000000 14.000000 17.375000
10.000000 14.000000 17.125000
10.000000 14.000000 17.375000
10.000000 -14.000000 17.375000
10.000000 -14.000000 17.125000
-6.576950 -14.576950 17.375000
-6.576950 -12.576950 17.375000
-6.576950 -12.576950 18.125000
-6.576950 -13.326950 18.125000
-6.576950 -13.326950 17.875000
-6.576950 -13.576950 17.875000
-6.576950 -13.670750 17.695801
-6.576950 -13.897080 17.495800
-6.576950 -14.288240 17.411301
-6.576950 -14.576950 17.500000
-6.576950 -14.576950 17.500000
6.577000 -14.576950 17.500000
6.577000 -14.288240 17.411301
-6.576950 -14.288240 17.411301
-8.288240 -12.576950 17.411301
-8.576950 -12.576950 17.500000
-8.576950 -12.576950 17.375000
-6.576950 -12.576950 17.375000
-6.576950 -12.576950 18.125000
-7.326950 -12.576950 18.125000
-7.326950 -12.576950 17.875000
-7.576950 -12.576950 17.875000
-7.670750 -12.576950 17.695801
-7.897080 -12.576950 17.495800
7.989200 -12.576950 17.453400
8.086400 -12.576950 17.424801
8.086400 12.577000 17.424801
7.989200 12.577000 17.453400
7.897100 12.577000 17.495800
7.812100 12.577000 17.551201
7.812100 -12.576950 17.551201
7.897100 -12.576950 17.495800
-7.670750 12.577000 17.695801
-7.670750 -12.576950 17.695801
-7.576950 -12.576950 17.875000
-7.576950 12.577000 17.875000
-7.670750 12.577000 17.695801
-7.670750 -12.576950 17.695801
-7.326950 12.577000 18.125000
-7.326950 12.577000 17.875000
-7.326950 -12.576950 17.875000
-7.326950 -12.576950 18.125000
-7.326950 -12.576950 18.125000
-7.326950 -12.576950 17.875000
-7.326950 12.577000 17.875000
-7.326950 12.577000 18.125000
-10.000000 -14.000000 17.375000
-10.000000 -14.000000 17.125000
-10.000000 14.000000 17.125000
-10.000000 14.000000 17.375000
-6.576950 14.288200 17.411301
-6.576950 14.086400 17.424801
-6.576950 13.812100 17.551201
-6.576950 13.577000 17.875000
-6.576950 13.327000 17.875000
-6.576950 13.327000 18.125000
-6.576950 12.577000 18.125000
-6.576950 12.577000 17.375000
-6.576950 14.577000 17.375000
-6.576950 14.577000 17.500000
7.327000 12.577000 18.125000
7.327000 -12.576950 18.125000
8.577000 12.577000 17.500000
8.577000 -12.576950 17.500000
8.485400 -12.576950 17.456499
8.388500 -12.576950 17.426701
8.288200 -12.576950 17.411301
8.288200 12.577000 17.411301
8.388500 12.577000 17.426701
8.485400 12.577000 17.456499
6.577000 -13.576950 17.875000
-6.576950 -13.576950 17.875000
-6.576950 -13.670750 17.695801
6.577000 -13.670750 17.695801
10.000000 -14.000000 17.125000
10.000000 -14.000000 17.375000
10.000000 14.000000 17.375000
10.000000 14.000000 17.125000
6.577000 -14.288240 17.411301
6.577000 -14.576950 17.500000
6.577000 -14.576950 17.375000
6.577000 -12.576950 17.375000
6.577000 -12.576950 18.125000
6.577000 -13.326950 18.125000
6.577000 -13.326950 17.875000
6.577000 -13.576950 17.875000
6.577000 -13.670750 17.695801
6.577000 -13.897080 17.495800
6.577000 -14.288240 17.411301
6.577000 -13.897080 17.495800
6.577000 -13.670750 17.695801
6.577000 -13.576950 17.875000
6.577000 -13.326950 17.875000
6.577000 -13.326950 18.125000
6.577000 -12.576950 18.125000
6.577000 -12.576950 17.375000
6.577000 -14.576950 17.375000
6.577000 -14.576950 17.500000
-6.576950 14.288200 17.411301
-6.576950 14.086400 17.424801
6.577000 14.086400 17.424801
6.577000 14.288200 17.411301
7.577000 -12.576950 17.875000
8.577000 -12.576950 17.375000
8.577000 -12.576950 17.500000
8.577000 12.577000 17.500000
8.577000 12.577000 17.375000
6.577000 13.812100 17.551201
6.577000 13.577000 17.875000
6.577000 13.327000 17.875000
6.577000 13.327000 18.125000
6.577000 12.577000 18.125000
6.577000 12.577000 17.375000
6.577000 14.577000 17.375000
6.577000 14.577000 17.500000
6.577000 14.288200 17.411301
6.577000 14.086400 17.424801
-6.576950 13.989200 17.453400
-6.576950 13.897100 17.495800
-6.576950 13.812100 17.551201
6.577000 13.812100 17.551201
6.577000 13.897100 17.495800
6.577000 13.989200 17.453400
-7.576950 12.577000 17.875000
-7.576950 -12.576950 17.875000
6.577000 -13.736160 17.618401
6.577000 -13.812140 17.551201
-6.576950 -13.812140 17.551201
-6.576950 -13.736160 17.618401
-8.000000 -16.000000 -18.125000
-8.000000 -16.000000 17.375000
-10.000000 -16.000000 17.375000
-10.000000 -16.000000 -18.125000
-6.576950 14.577000 17.375000
6.577000 14.577000 17.375000
6.577000 14.577000 17.500000
-6.576950 14.577000 17.500000
-6.576950 13.327000 18.125000
6.577000 13.327000 18.125000
6.577000 13.327000 17.875000
-6.576950 13.327000 17.875000
6.577000 13.812100 17.551201
6.577000 14.086400 17.424801
6.577000 14.288200 17.411301
6.577000 14.577000 17.500000
6.577000 14.577000 17.375000
6.577000 12.577000 17.375000
6.577000 12.577000 18.125000
6.577000 13.327000 18.125000
6.577000 13.327000 17.875000
6.577000 13.577000 17.875000
-10.000000 -14.000000 17.125000
-8.000000 -14.000000 17.125000
-8.000000 -14.000000 -18.125000
-10.000000 -14.000000 -18.125000
8.288200 -12.576950 17.411301
8.288200 12.577000 17.411301
-6.576950 13.617300 17.782000
-6.576950 13.577000 17.875000
6.577000 13.577000 17.875000
6.577000 13.617300 17.782000
6.577000 13.670700 17.695801
6.577000 13.736200 17.618401
-6.576950 13.736200 17.618401
-6.576950 13.670700 17.695801
6.577000 -14.576950 17.500000
-6.576950 -14.576950 17.500000
-10.000000 -14.000000 17.375000
-10.000000 -14.000000 -18.125000
-10.000000 -16.000000 -18.125000
-10.000000 -16.000000 17.375000
8.577000 -12.576950 17.500000
8.577000 12.577000 17.500000
7.812100 -12.576950 17.551201
8.086400 -12.576950 17.424801
8.288200 -12.576950 17.411301
8.577000 -12.576950 17.500000
8.577000 -12.576950 17.375000
6.577000 -12.576950 17.375000
-8.388460 -12.576950 17.426701
-8.485390 -12.576950 17.456499
-8.576950 -12.576950 17.500000
-8.576950 12.577000 17.500000
-8.485390 12.577000 17.456499
-8.388460 12.577000 17.426701
-6.576950 14.485400 17.456499
-6.576950 14.388500 17.426701
6.577000 14.388500 17.426701
6.577000 14.485400 17.456499
6.577000 14.577000 17.500000
-6.576950 14.577000 17.500000
-7.670750 -12.576950 17.695801
-7.576950 -12.576950 17.875000
-7.326950 -12.576950 17.875000
-7.326950 -12.576950 18.125000
-6.576950 -12.576950 18.125000
-6.576950 -12.576950 17.375000
-8.576950 -12.576950 17.375000
-8.576950 -12.576950 17.500000
-8.288240 -12.576950 17.411301
-7.897080 -12.576950 17.495800
6.577000 -13.897080 17.495800
-6.576950 -13.897080 17.495800
6.577000 13.989200 17.453400
6.577000 13.897100 17.495800
-6.576950 13.897100 17.495800
-6.576950 13.989200 17.453400
-6.576950 14.086400 17.424801
6.577000 14.086400 17.424801
-8.000000 16.000000 -18.125000
-8.000000 16.000000 17.125000
-8.000000 14.000000 17.125000
-8.000000 14.000000 -18.125000
-8.000000 16.000000 -18.125000
-8.000000 14.000000 -18.125000
-10.000000 14.000000 -18.125000
-10.000000 16.000000 -18.125000
-8.000000 -14.000000 -18.125000
-8.000000 -14.000000 17.125000
-8.000000 -16.000000 17.125000
-8.000000 -16.000000 -18.125000
-8.000000 16.000000 -18.125000
-10.000000 16.000000 -18.125000
-10.000000 16.000000 17.375000
-8.000000 16.000000 17.375000
8.000000 -14.000000 17.125000
8.000000 -14.000000 -18.125000
8.000000 -16.000000 -18.125000
8.000000 -16.000000 17.125000
-10.000000 14.000000 -18.125000
-10.000000 14.000000 17.375000
-10.000000 16.000000 17.375000
-10.000000 16.000000 -18.125000
-8.576950 12.577000 17.500000
-8.576950 12.577000 17.375000
-8.576950 -12.576950 17.375000
-8.576950 -12.576950 17.500000
8.000000 16.000000 -18.125000
8.000000 16.000000 17.375000
10.000000 16.000000 17.375000
10.000000 16.000000 -18.125000
-8.576950 -12.576950 17.500000
-8.576950 -12.576950 17.375000
-8.576950 12.577000 17.375000
-8.576950 12.577000 17.500000
7.577000 -12.576950 17.875000
7.577000 12.577000 17.875000
-8.000000 14.000000 17.375000
-8.000000 16.000000 17.375000
-10.000000 16.000000 17.375000
-10.000000 14.000000 17.375000
8.000000 16.000000 17.125000
8.000000 16.000000 -18.125000
8.000000 14.000000 -18.125000
8.000000 14.000000 17.125000
-8.000000 14.000000 17.125000
-10.000000 14.000000 17.125000
-10.000000 14.000000 -18.125000
-8.000000 14.000000 -18.125000
6.577000 14.485400 17.456499
6.577000 14.388500 17.426701
6.577000 14.288200 17.411301
-6.576950 14.288200 17.411301
-6.576950 14.388500 17.426701
-6.576950 14.485400 17.456499
-6.576950 14.577000 17.500000
6.577000 14.577000 17.500000
6.577000 -13.326950 17.875000
-6.576950 -13.326950 17.875000
-6.576950 -13.326950 18.125000
6.577000 -13.326950 18.125000
8.000000 -14.000000 17.125000
10.000000 -14.000000 17.125000
10.000000 -14.000000 -18.125000
8.000000 -14.000000 -18.125000
8.000000 -16.000000 -18.125000
10.000000 -16.000000 -18.125000
10.000000 -16.000000 17.375000
8.000000 -16.000000 17.375000
8.000000 -16.000000 17.125000
8.000000 -16.000000 17.375000
8.000000 -14.000000 17.375000
8.000000 -14.000000 17.125000
10.000000 -14.000000 17.125000
8.000000 -14.000000 17.125000
8.000000 -14.000000 17.375000
10.000000 -14.000000 17.375000
6.577000 -13.326950 18.125000
-6.576950 -13.326950 18.125000
-6.576950 -13.326950 17.875000
6.577000 -13.326950 17.875000
10.000000 -14.000000 -18.125000
10.000000 -14.000000 17.375000
10.000000 -16.000000 17.375000
10.000000 -16.000000 -18.125000
10.000000 14.000000 17.375000
10.000000 16.000000 17.375000
8.000000 16.000000 17.375000
8.000000 14.000000 17.375000
8.000000 14.000000 17.125000
8.000000 14.000000 17.375000
8.000000 16.000000 17.375000
8.000000 16.000000 17.125000
8.577000 12.577000 17.375000
10.000000 14.000000 17.375000
8.000000 14.000000 17.375000
8.000000 16.000000 17.375000
6.577000 14.577000 17.375000
6.577000 12.577000 17.375000
8.000000 -16.000000 17.125000
-8.000000 -16.000000 17.125000
-8.000000 -16.000000 17.375000
8.000000 -16.000000 17.375000
8.000000 -16.000000 17.375000
-8.000000 -16.000000 17.375000
-8.000000 -16.000000 17.125000
8.000000 -16.000000 17.125000
-8.000000 -14.000000 17.125000
-10.000000 -14.000000 17.125000
-10.000000 -14.000000 17.375000
-8.000000 -14.000000 17.375000
6.577000 -13.576950 17.875000
6.577000 -13.326950 17.875000
-6.576950 -13.326950 17.875000
-6.576950 -13.576950 17.875000
-6.576950 12.577000 17.375000
-6.576950 14.577000 17.375000
-8.000000 16.000000 17.375000
-8.000000 14.000000 17.375000
-10.000000 14.000000 17.375000
-10.000000 -14.000000 17.375000
-8.000000 -14.000000 17.375000
-8.000000 -16.000000 17.375000
8.000000 -16.000000 17.375000
8.000000 -14.000000 17.375000
10.000000 -14.000000 17.375000
8.577000 -12.576950 17.375000
6.577000 -12.576950 17.375000
6.577000 -14.576950 17.375000
-6.576950 -14.576950 17.375000
-6.576950 -12.576950 17.375000
-8.576950 -12.576950 17.375000
-8.576950 12.577000 17.375000
7.327000 -12.576950 17.875000
7.327000 -12.576950 18.125000
7.327000 12.577000 18.125000
7.327000 12.577000 17.875000
7.327000 12.577000 17.875000
7.327000 12.577000 18.125000
7.327000 -12.576950 18.125000
7.327000 -12.576950 17.875000
6.577000 -14.576950 17.500000
-6.576950 -14.576950 17.500000
-6.576950 -14.576950 17.375000
6.577000 -14.576950 17.375000
-8.000000 16.000000 17.125000
8.000000 16.000000 17.125000
8.000000 16.000000 17.375000
-8.000000 16.000000 17.375000
4 0 1 2 3
4 4 5 6 7
10 8 9 10 11 12 13 14 15 16 17
8 18 19 20 21 22 23 24 25
3 24 23 26
3 24 26 27
4 28 29 30 31
3 32 33 34
3 33 35 34
4 36 37 38 39
8 35 40 41 42 43 44 45 34
4 46 47 48 49
4 50 51 52 53
4 54 55 56 57
10 58 59 60 61 62 63 64 65 66 67
4 68 69 70 71
4 72 73 74 75
4 76 77 78 79
4 80 81 82 83
4 84 85 86 87
24 88 89 90 91 92 93 94 95 96 97 98 99 100 101 102 103 104 105 106 107 108 109 110 111
4 112 113 114 115
8 116 117 118 119 120 121 122 123
4 124 125 27 26
10 126 127 128 129 130 131 132 133 134 135
4 136 137 138 139
4 140 141 142 143
4 144 145 146 147
10 148 149 150 151 152 153 154 155 156 157
4 158 159 160 161
8 162 163 46 49 164 165 166 167
10 168 169 170 171 172 173 174 175 176 177
4 178 179 180 181
4 182 183 184 185
4 186 187 119 188
4 189 190 191 192
4 193 194 195 196
10 197 198 199 200 201 202 203 204 205 206
4 207 208 209 210
4 211 212 213 214
4 215 216 217 218
4 219 220 142 141
4 221 222 223 224
4 225 226 227 228
4 229 230 231 232
4 233 234 235 236
4 237 238 239 240
4 241 242 243 244
4 245 246 247 248
4 249 250 251 252
10 253 254 255 256 257 258 259 260 261 262
4 263 264 265 266
10 267 268 269 270 271 272 273 274 275 276
8 277 278 279 280 281 282 283 284
4 238 237 285 286
4 287 288 289 290
4 291 292 293 294
4 295 296 297 298
4 299 300 301 302
10 303 304 305 306 307 308 309 310 311 312
4 33 32 313 314
8 315 316 317 318 319 320 321 322
4 323 324 325 326
4 327 328 329 330
10 331 332 333 334 335 336 337 338 339 340
10 341 342 343 344 345 346 347 348 349 350
4 351 352 353 354
3 119 118 188
3 182 355 183
4 356 357 358 359
10 360 361 362 363 364 365 366 367 368 369
8 370 371 372 373 374 375 353 352
4 376 377 286 285
8 115 114 378 379 28 31 380 381
4 382 383 384 385
4 386 387 388 389
4 390 391 392 393
10 394 395 396 397 398 399 400 401 402 403
4 404 405 406 407
4 278 408 409 279
10 410 411 412 413 414 415 373 372 416 417
4 418 419 30 29
4 420 421 422 423
4 408 424 425 409
8 426 427 428 429 430 431 183 355
8 432 433 434 435 436 437 240 239
8 438 439 351 354 440 441 442 443
10 444 445 446 447 448 449 450 451 452 453
4 454 326 325 455
4 266 265 454 455
8 456 457 236 235 458 459 460 461
4 462 463 464 465
4 466 467 468 469
4 320 319 220 219
4 470 471 472 473
4 474 475 476 477
4 478 479 480 481
4 482 483 484 485
4 486 487 488 489
4 490 491 492 493
4 494 495 496 497
4 498 283 282 499
4 500 501 502 503
4 504 505 506 507
4 508 509 510 511
8 512 513 514 515 516 517 518 519
4 520 521 522 523
4 524 525 526 527
4 47 290 289 48
4 528 529 530 531
4 532 533 534 535
4 536 537 538 539
4 540 541 542 543
4 544 545 546 547
4 548 549 550 551
4 552 553 554 555
4 104 103 92 91
6 556 557 558 559 560 561
4 562 563 564 565
4 566 567 568 569
4 570 571 572 573
4 574 575 576 577
22 578 579 560 559 580 581 582 583 584 585 586 587 588 557 556 589 590 591 592 593 594 595
4 596 597 598 599
4 600 601 602 603
4 604 605 606 607
4 608 609 610 611
4 514 461 460 515
