ply
format ascii 1.0
comment Created by Blender 2.82 (sub 7) - www.blender.org, source file: ''
element vertex 536
property float x
property float y
property float z
element face 155
property list uchar uint vertex_indices
end_header
5.625000 -3.627000 -6.299190
5.625000 -3.627000 6.299200
3.058000 -5.954000 6.299200
3.058000 -5.954000 -6.299190
0.328000 6.685000 6.299200
0.328000 6.685000 -6.299190
3.627000 5.625000 -6.299190
3.627000 5.625000 6.299200
-10.229000 -5.906000 -6.299190
-8.352000 -8.352000 -6.299190
-8.352000 -8.352000 -9.055100
-10.229000 -5.906000 -9.055100
5.906000 10.228000 -9.055100
5.906000 10.228000 -6.299190
8.352000 8.351000 -6.299190
8.352000 8.351000 -9.055100
8.352000 8.351000 -6.299190
8.352000 8.351000 -9.055100
11.409000 3.057000 -9.055100
11.409000 3.057000 -6.299190
-0.328000 -6.685000 6.299200
-0.328000 -6.685000 -6.299190
-3.627000 -5.625000 -6.299190
-3.627000 -5.625000 6.299200
5.954000 3.058000 6.299200
5.954000 3.058000 -6.299190
6.685000 -0.329000 -6.299190
6.685000 -0.329000 6.299200
13.304000 5.875000 6.299200
14.371000 2.231000 6.299200
5.954000 3.058000 6.299200
3.627000 5.625000 6.299200
0.328000 6.685000 6.299200
-1.413000 6.542000 6.299200
-4.495000 4.959000 6.299200
-5.625000 3.627000 6.299200
-6.685000 0.328000 6.299200
-6.542000 -1.413000 6.299200
-4.959000 -4.495000 6.299200
-3.627000 -5.625000 6.299200
-0.328000 -6.685000 6.299200
3.058000 -5.954000 6.299200
5.625000 -3.627000 6.299200
6.685000 -0.329000 6.299200
6.542000 1.413000 6.299200
14.459000 -1.564000 6.299200
11.740000 -8.584000 6.299200
5.875000 -13.304000 6.299200
2.232000 -14.371000 6.299200
-5.253000 -13.562000 6.299200
-8.584000 -11.740000 6.299200
-13.304000 -5.875000 6.299200
-14.459000 1.564000 6.299200
-11.740000 8.584000 6.299200
-5.875000 13.304000 6.299200
1.564000 14.459000 6.299200
8.584000 11.740000 6.299200
13.304000 5.875000 6.299200
14.459000 -1.564000 6.299200
14.459000 -1.564000 8.661400
13.304000 5.875000 8.661400
14.247000 10.575000 8.661400
17.625000 2.035000 8.661400
17.625000 2.035000 9.055100
14.247000 10.575000 9.055100
6.527000 -16.497999 9.055100
-2.596000 -17.552000 9.055100
-2.596000 -17.552000 8.661400
6.527000 -16.497999 8.661400
7.051000 16.281000 9.055100
7.051000 16.281000 8.661400
1.564000 14.459000 -0.750570
8.584000 11.740000 -0.750570
8.584000 11.740000 0.430530
1.564000 14.459000 0.430530
1.564000 14.459000 8.661400
1.564000 14.459000 6.299200
-5.875000 13.304000 6.299200
-5.875000 13.304000 8.661400
-11.740000 8.584000 6.299200
-5.875000 13.304000 6.299200
-5.875000 13.304000 8.661400
-11.740000 8.584000 8.661400
-8.584000 -11.740000 8.661400
-13.304000 -5.875000 8.661400
-13.304000 -5.875000 6.299200
-8.584000 -11.740000 6.299200
10.229000 -5.906000 -6.299190
10.229000 -5.906000 -9.055100
5.906000 -10.229000 -9.055100
5.906000 -10.229000 -6.299190
-8.352000 8.351000 -6.299190
-10.229000 5.905000 -6.299190
-10.229000 5.905000 -9.055100
-8.352000 8.351000 -9.055100
-5.625000 3.627000 -6.299190
-6.685000 0.328000 -6.299190
-6.685000 0.328000 6.299200
-5.625000 3.627000 6.299200
14.459000 -1.564000 -0.750570
11.740000 -8.584000 -0.750570
11.740000 -8.584000 0.430530
14.459000 -1.564000 0.430530
-11.811000 0.000000 -6.299190
-11.811000 0.000000 -9.055100
5.954000 3.058000 -6.299190
5.954000 3.058000 6.299200
6.685000 -0.329000 6.299200
6.685000 -0.329000 -6.299190
-1.413000 6.542000 -6.299190
-1.413000 6.542000 6.299200
0.328000 6.685000 6.299200
0.328000 6.685000 -6.299190
-11.740000 8.584000 -0.750570
-5.875000 13.304000 -0.750570
-5.875000 13.304000 0.430530
-11.740000 8.584000 0.430530
-6.542000 -1.413000 6.299200
-4.959000 -4.495000 6.299200
-4.959000 -4.495000 -6.299190
-6.542000 -1.413000 -6.299190
-4.495000 4.959000 -6.299190
-4.495000 4.959000 6.299200
-4.495000 4.959000 6.299200
-5.625000 3.627000 6.299200
-5.625000 3.627000 -6.299190
-4.495000 4.959000 -6.299190
8.584000 11.740000 0.430530
8.584000 11.740000 -0.750570
1.564000 14.459000 -0.750570
1.564000 14.459000 0.430530
-4.959000 -4.495000 6.299200
-4.959000 -4.495000 -6.299190
-3.627000 -5.625000 -6.299190
-3.627000 -5.625000 6.299200
-3.057000 11.408000 -9.055100
-3.057000 11.408000 -6.299190
0.000000 11.811000 -6.299190
0.000000 11.811000 -9.055100
14.247000 10.575000 8.661400
11.024000 13.901000 8.661400
1.564000 14.459000 8.661400
8.584000 11.740000 8.661400
-11.024000 -13.902000 9.055100
-16.497999 -6.527000 9.055100
-16.497999 -6.527000 8.661400
-11.024000 -13.902000 8.661400
13.304000 5.875000 8.661400
14.459000 -1.564000 8.661400
14.459000 -1.564000 6.299200
13.304000 5.875000 6.299200
-16.497999 -6.527000 8.661400
-17.551001 2.596000 8.661400
-17.551001 2.596000 9.055100
-16.497999 -6.527000 9.055100
16.281000 -7.051000 8.661400
10.575000 -14.247000 8.661400
10.575000 -14.247000 9.055100
16.281000 -7.051000 9.055100
17.625000 2.035000 9.055100
16.281000 -7.051000 9.055100
16.281000 -7.051000 8.661400
17.625000 2.035000 8.661400
-13.304000 -5.875000 -0.750570
-14.459000 1.564000 -0.750570
-14.459000 1.564000 0.430530
-13.304000 -5.875000 0.430530
1.564000 14.459000 6.299200
-5.875000 13.304000 6.299200
-11.740000 8.584000 6.299200
-14.459000 1.564000 6.299200
-13.304000 -5.875000 6.299200
-8.584000 -11.740000 6.299200
-5.253000 -13.562000 6.299200
2.232000 -14.371000 6.299200
5.875000 -13.304000 6.299200
11.740000 -8.584000 6.299200
14.459000 -1.564000 6.299200
6.542000 1.413000 6.299200
6.685000 -0.329000 6.299200
5.625000 -3.627000 6.299200
3.058000 -5.954000 6.299200
-0.328000 -6.685000 6.299200
-3.627000 -5.625000 6.299200
-4.959000 -4.495000 6.299200
-6.542000 -1.413000 6.299200
-6.685000 0.328000 6.299200
-5.625000 3.627000 6.299200
-4.495000 4.959000 6.299200
-1.413000 6.542000 6.299200
0.328000 6.685000 6.299200
3.627000 5.625000 6.299200
5.954000 3.058000 6.299200
14.371000 2.231000 6.299200
13.304000 5.875000 6.299200
8.584000 11.740000 6.299200
-6.542000 -1.413000 -6.299190
-6.542000 -1.413000 6.299200
5.625000 -3.627000 6.299200
5.625000 -3.627000 -6.299190
3.058000 -5.954000 -6.299190
3.058000 -5.954000 6.299200
5.906000 -10.229000 -6.299190
5.906000 -10.229000 -9.055100
10.229000 -5.906000 -9.055100
10.229000 -5.906000 -6.299190
-11.740000 8.584000 6.299200
-11.740000 8.584000 8.661400
8.584000 11.740000 6.299200
8.584000 11.740000 8.661400
-8.584000 -11.740000 0.430530
-13.304000 -5.875000 0.430530
-13.304000 -5.875000 -0.750570
-8.584000 -11.740000 -0.750570
-5.253000 -13.562000 -0.750570
-5.253000 -13.562000 0.430530
-8.352000 -8.352000 -6.299190
-8.352000 -8.352000 -9.055100
-3.057000 -11.409000 -9.055100
-3.057000 -11.409000 -6.299190
-0.328000 -6.685000 -6.299190
-0.328000 -6.685000 6.299200
-14.459000 1.564000 6.299200
-14.459000 1.564000 8.661400
-14.459000 1.564000 0.430530
-11.740000 8.584000 0.430530
-11.740000 8.584000 -0.750570
-14.459000 1.564000 -0.750570
-3.057000 -11.409000 -9.055100
-3.057000 -11.409000 -6.299190
3.627000 5.625000 -6.299190
3.627000 5.625000 6.299200
11.740000 -8.584000 6.299200
11.740000 -8.584000 8.661400
-5.875000 13.304000 -0.750570
-5.875000 13.304000 0.430530
-6.527000 16.497999 9.055100
-6.527000 16.497999 8.661400
-13.902000 11.024000 8.661400
-13.902000 11.024000 9.055100
5.875000 -13.304000 6.299200
5.875000 -13.304000 8.661400
2.232000 -14.371000 8.661400
2.232000 -14.371000 6.299200
-13.902000 11.024000 9.055100
-13.902000 11.024000 8.661400
-6.527000 16.497999 8.661400
-6.527000 16.497999 9.055100
-5.253000 -13.562000 8.661400
-5.253000 -13.562000 6.299200
10.575000 -14.247000 8.661400
10.575000 -14.247000 9.055100
3.627000 5.625000 -6.299190
0.328000 6.685000 -6.299190
-1.413000 6.542000 -6.299190
-4.495000 4.959000 -6.299190
-5.625000 3.627000 -6.299190
-6.685000 0.328000 -6.299190
-6.542000 -1.413000 -6.299190
-4.959000 -4.495000 -6.299190
-3.627000 -5.625000 -6.299190
-0.328000 -6.685000 -6.299190
3.058000 -5.954000 -6.299190
5.625000 -3.627000 -6.299190
6.685000 -0.329000 -6.299190
6.542000 1.413000 -6.299190
11.811000 0.000000 -6.299190
10.229000 -5.906000 -6.299190
5.906000 -10.229000 -6.299190
3.057000 -11.409000 -6.299190
-3.057000 -11.409000 -6.299190
-8.352000 -8.352000 -6.299190
-10.229000 -5.906000 -6.299190
-11.811000 0.000000 -6.299190
-10.229000 5.905000 -6.299190
-8.352000 8.351000 -6.299190
-3.057000 11.408000 -6.299190
0.000000 11.811000 -6.299190
5.906000 10.228000 -6.299190
8.352000 8.351000 -6.299190
11.409000 3.057000 -6.299190
5.954000 3.058000 -6.299190
7.051000 16.281000 9.055100
14.247000 10.575000 9.055100
17.625000 2.035000 9.055100
16.281000 -7.051000 9.055100
10.575000 -14.247000 9.055100
6.527000 -16.497999 9.055100
-2.596000 -17.552000 9.055100
-11.024000 -13.902000 9.055100
-16.497999 -6.527000 9.055100
-17.551001 2.596000 9.055100
-13.902000 11.024000 9.055100
-6.527000 16.497999 9.055100
-2.035000 17.625000 9.055100
11.409000 3.057000 -6.299190
10.229000 5.905000 -6.299190
3.627000 5.625000 -6.299190
5.954000 3.058000 -6.299190
1.564000 14.459000 8.661400
1.564000 14.459000 6.299200
0.000000 11.811000 -6.299190
-3.057000 11.408000 -6.299190
-8.352000 8.351000 -6.299190
-10.229000 5.905000 -6.299190
-11.811000 0.000000 -6.299190
-10.229000 -5.906000 -6.299190
-8.352000 -8.352000 -6.299190
-3.057000 -11.409000 -6.299190
3.057000 -11.409000 -6.299190
5.906000 -10.229000 -6.299190
10.229000 -5.906000 -6.299190
11.409000 -3.057000 -6.299190
6.685000 -0.329000 -6.299190
5.625000 -3.627000 -6.299190
3.058000 -5.954000 -6.299190
-0.328000 -6.685000 -6.299190
-3.627000 -5.625000 -6.299190
-4.959000 -4.495000 -6.299190
-6.542000 -1.413000 -6.299190
-6.685000 0.328000 -6.299190
-5.625000 3.627000 -6.299190
-4.495000 4.959000 -6.299190
-1.413000 6.542000 -6.299190
0.328000 6.685000 -6.299190
5.906000 10.228000 -6.299190
8.584000 11.740000 8.661400
8.584000 11.740000 6.299200
13.304000 5.875000 -0.750570
13.304000 5.875000 0.430530
-14.459000 1.564000 8.661400
-14.459000 1.564000 6.299200
2.232000 -14.371000 -0.750570
2.232000 -14.371000 0.430530
-5.253000 -13.562000 8.661400
2.232000 -14.371000 8.661400
2.232000 -14.371000 6.299200
-5.253000 -13.562000 6.299200
5.875000 -13.304000 -0.750570
5.875000 -13.304000 0.430530
-8.352000 8.351000 -9.055100
-8.352000 8.351000 -6.299190
3.057000 -11.409000 -9.055100
3.057000 -11.409000 -6.299190
11.409000 -3.057000 -6.299190
11.409000 -3.057000 -9.055100
11.409000 -3.057000 -9.055100
11.409000 -3.057000 -6.299190
11.409000 3.057000 -6.299190
11.409000 3.057000 -9.055100
5.906000 10.228000 -6.299190
5.906000 10.228000 -9.055100
-10.229000 -5.906000 -9.055100
-10.229000 -5.906000 -6.299190
3.057000 -11.409000 -6.299190
3.057000 -11.409000 -9.055100
-10.229000 5.905000 -9.055100
-10.229000 5.905000 -6.299190
14.247000 10.575000 9.055100
14.247000 10.575000 8.661400
-8.584000 -11.740000 -0.750570
-8.584000 -11.740000 0.430530
-5.253000 -13.562000 0.430530
-5.253000 -13.562000 -0.750570
-3.057000 11.408000 -9.055100
-3.057000 11.408000 -6.299190
-13.304000 -5.875000 6.299200
-13.304000 -5.875000 8.661400
0.000000 11.811000 -9.055100
0.000000 11.811000 -6.299190
6.527000 -16.497999 8.661400
-2.596000 -17.552000 8.661400
-7.050000 -16.281000 8.661400
-1.564000 -14.459000 8.661400
2.232000 -14.371000 8.661400
10.575000 -14.247000 8.661400
17.625000 2.035000 8.661400
13.304000 5.875000 8.661400
14.459000 -1.564000 8.661400
11.740000 -8.584000 8.661400
5.875000 -13.304000 8.661400
2.232000 -14.371000 8.661400
-5.253000 -13.562000 8.661400
-8.584000 -11.740000 8.661400
-13.304000 -5.875000 8.661400
-14.459000 1.564000 8.661400
-11.740000 8.584000 8.661400
-5.875000 13.304000 8.661400
7.051000 16.281000 8.661400
-2.035000 17.625000 8.661400
-6.527000 16.497999 8.661400
-13.902000 11.024000 8.661400
-17.551001 2.596000 8.661400
-16.497999 -6.527000 8.661400
-11.024000 -13.902000 8.661400
-2.596000 -17.552000 8.661400
6.527000 -16.497999 8.661400
10.575000 -14.247000 8.661400
16.281000 -7.051000 8.661400
5.875000 -13.304000 8.661400
5.875000 -13.304000 6.299200
-11.811000 0.000000 -9.055100
-11.811000 0.000000 -6.299190
-1.413000 6.542000 -6.299190
-1.413000 6.542000 6.299200
-2.035000 17.625000 9.055100
-2.035000 17.625000 8.661400
-2.035000 17.625000 9.055100
-2.035000 17.625000 8.661400
-17.551001 2.596000 9.055100
-17.551001 2.596000 8.661400
11.740000 -8.584000 8.661400
11.740000 -8.584000 6.299200
-8.584000 -11.740000 6.299200
-8.584000 -11.740000 8.661400
-6.685000 0.328000 6.299200
-6.685000 0.328000 -6.299190
6.527000 -16.497999 8.661400
6.527000 -16.497999 9.055100
-11.024000 -13.902000 8.661400
-11.024000 -13.902000 9.055100
-2.596000 -17.552000 8.661400
-2.596000 -17.552000 9.055100
-11.024000 -13.902000 9.055100
-2.596000 -17.552000 9.055100
6.527000 -16.497999 9.055100
10.575000 -14.247000 9.055100
16.281000 -7.051000 9.055100
17.625000 2.035000 9.055100
14.247000 10.575000 9.055100
7.051000 16.281000 9.055100
-2.035000 17.625000 9.055100
-6.527000 16.497999 9.055100
-13.902000 11.024000 9.055100
-17.551001 2.596000 9.055100
-16.497999 -6.527000 9.055100
-14.459000 1.564000 -0.750570
-11.740000 8.584000 -0.750570
-5.875000 13.304000 -0.750570
1.564000 14.459000 -0.750570
8.584000 11.740000 -0.750570
13.304000 5.875000 -0.750570
14.459000 -1.564000 -0.750570
11.740000 -8.584000 -0.750570
5.875000 -13.304000 -0.750570
2.232000 -14.371000 -0.750570
-5.253000 -13.562000 -0.750570
-8.584000 -11.740000 -0.750570
-13.304000 -5.875000 -0.750570
2.232000 -14.371000 0.430530
2.232000 -14.371000 -0.750570
2.232000 -14.371000 -0.750570
5.875000 -13.304000 -0.750570
11.740000 -8.584000 -0.750570
14.459000 -1.564000 -0.750570
13.304000 5.875000 -0.750570
8.584000 11.740000 -0.750570
1.564000 14.459000 -0.750570
-5.875000 13.304000 -0.750570
-11.740000 8.584000 -0.750570
-14.459000 1.564000 -0.750570
-13.304000 -5.875000 -0.750570
-8.584000 -11.740000 -0.750570
-5.253000 -13.562000 -0.750570
13.304000 5.875000 0.430530
13.304000 5.875000 -0.750570
11.740000 -8.584000 0.430530
5.875000 -13.304000 0.430530
5.875000 -13.304000 -0.750570
11.740000 -8.584000 -0.750570
14.459000 -1.564000 0.430530
14.459000 -1.564000 -0.750570
7.051000 16.281000 9.055100
7.051000 16.281000 8.661400
5.875000 -13.304000 0.430530
11.740000 -8.584000 0.430530
14.459000 -1.564000 0.430530
13.304000 5.875000 0.430530
8.584000 11.740000 0.430530
1.564000 14.459000 0.430530
-5.875000 13.304000 0.430530
-11.740000 8.584000 0.430530
-14.459000 1.564000 0.430530
-13.304000 -5.875000 0.430530
-8.584000 -11.740000 0.430530
-5.253000 -13.562000 0.430530
2.232000 -14.371000 0.430530
5.906000 -10.229000 -9.055100
3.057000 -11.409000 -9.055100
-3.057000 -11.409000 -9.055100
-8.352000 -8.352000 -9.055100
-10.229000 -5.906000 -9.055100
-11.811000 0.000000 -9.055100
-10.229000 5.905000 -9.055100
-8.352000 8.351000 -9.055100
-3.057000 11.408000 -9.055100
0.000000 11.811000 -9.055100
5.906000 10.228000 -9.055100
8.352000 8.351000 -9.055100
11.409000 3.057000 -9.055100
11.409000 -3.057000 -9.055100
10.229000 -5.906000 -9.055100
-11.740000 8.584000 0.430530
-5.875000 13.304000 0.430530
1.564000 14.459000 0.430530
8.584000 11.740000 0.430530
13.304000 5.875000 0.430530
14.459000 -1.564000 0.430530
11.740000 -8.584000 0.430530
5.875000 -13.304000 0.430530
2.232000 -14.371000 0.430530
-5.253000 -13.562000 0.430530
-8.584000 -11.740000 0.430530
-13.304000 -5.875000 0.430530
-14.459000 1.564000 0.430530
11.740000 -8.584000 8.661400
14.459000 -1.564000 8.661400
13.304000 5.875000 8.661400
8.584000 11.740000 8.661400
1.564000 14.459000 8.661400
-5.875000 13.304000 8.661400
-11.740000 8.584000 8.661400
-14.459000 1.564000 8.661400
-13.304000 -5.875000 8.661400
-8.584000 -11.740000 8.661400
-11.024000 -13.902000 8.661400
-16.497999 -6.527000 8.661400
-17.551001 2.596000 8.661400
-13.902000 11.024000 8.661400
-6.527000 16.497999 8.661400
-2.035000 17.625000 8.661400
7.051000 16.281000 8.661400
14.247000 10.575000 8.661400
17.625000 2.035000 8.661400
16.281000 -7.051000 8.661400
5.875000 -13.304000 8.661400
4 0 1 2 3
4 4 5 6 7
4 8 9 10 11
4 12 13 14 15
4 16 17 18 19
4 20 21 22 23
4 24 25 26 27
29 28 29 30 31 32 33 34 35 36 37 38 39 40 41 42 43 44 45 46 47 48 49 50 51 52 53 54 55 56
4 57 58 59 60
4 61 62 63 64
4 65 66 67 68
4 69 70 61 64
4 71 72 73 74
4 75 76 77 78
4 79 80 81 82
4 83 84 85 86
4 87 88 89 90
4 91 92 93 94
4 95 96 97 98
4 99 100 101 102
4 92 103 104 93
4 105 106 107 108
4 109 110 111 112
4 113 114 115 116
4 117 118 119 120
4 121 122 110 109
4 123 124 125 126
4 127 128 129 130
4 131 132 133 134
4 135 136 137 138
4 139 140 141 142
4 143 144 145 146
4 147 148 149 150
4 151 152 153 154
4 155 156 157 158
4 159 160 161 162
4 163 164 165 166
29 167 168 169 170 171 172 173 174 175 176 177 178 179 180 181 182 183 184 185 186 187 188 189 190 191 192 193 194 195
4 196 132 131 197
4 198 199 200 201
4 202 203 204 205
4 78 77 206 207
4 208 57 60 209
4 210 211 212 213
4 214 215 210 213
4 216 217 218 219
4 133 220 221 134
4 222 79 82 223
4 224 225 226 227
4 121 95 98 122
4 228 10 9 229
4 105 230 231 106
4 58 232 233 59
4 193 192 178 177
4 130 129 234 235
4 112 111 231 230
4 236 237 238 239
4 240 241 242 243
4 244 245 246 247
4 152 245 244 153
4 243 242 248 249
4 250 251 65 68
30 252 253 254 255 256 257 258 259 260 261 262 263 264 265 266 267 268 269 270 271 272 273 274 275 276 277 278 279 280 281
13 282 283 284 285 286 287 288 289 290 291 292 293 294
4 27 26 199 198
4 295 296 297 298
4 299 300 208 209
29 301 302 303 304 305 306 307 308 309 310 311 312 295 298 313 314 315 316 317 318 319 320 321 322 323 324 297 296 325
4 164 113 116 165
4 326 147 150 327
4 328 99 102 329
4 137 13 12 138
4 330 207 206 331
4 80 300 299 81
4 332 333 215 214
4 334 335 336 337
4 338 339 101 100
4 201 200 21 20
4 340 341 136 135
4 249 248 83 86
4 342 228 229 343
4 87 344 345 88
4 204 346 347 205
4 90 89 342 343
4 15 14 348 349
4 17 16 350 351
4 352 217 216 353
4 23 22 119 118
4 354 355 203 202
4 219 218 355 354
4 340 356 357 341
4 327 76 75 326
4 358 159 162 359
4 360 361 362 363
4 91 94 364 365
4 366 222 223 367
4 368 369 365 364
6 370 371 372 373 374 375
4 96 196 197 97
27 376 139 142 377 378 379 380 381 382 383 384 385 386 387 141 140 388 389 390 391 392 393 394 395 396 397 398
4 336 335 399 400
4 401 352 353 402
4 123 126 403 404
4 344 19 18 345
4 405 406 70 69
4 247 246 406 405
4 280 266 265 281
4 351 350 369 368
4 407 408 237 236
4 144 409 410 145
4 148 411 412 149
4 220 3 2 221
4 411 241 240 412
4 413 366 367 414
4 211 224 227 212
4 409 239 238 410
4 124 415 416 125
4 108 107 1 0
4 62 155 158 63
4 5 4 404 403
4 417 418 157 156
4 419 151 154 420
4 421 422 418 417
4 419 420 422 421
13 423 424 425 426 427 428 429 430 431 432 433 434 435
13 436 437 438 439 440 441 442 443 444 445 446 447 448
4 362 449 450 363
13 451 452 453 454 455 456 457 458 459 460 461 462 463
4 400 399 233 232
4 415 117 120 416
4 360 163 166 361
4 29 45 44 30
4 356 401 402 357
4 235 234 226 225
4 127 464 465 128
4 72 328 329 73
4 66 143 146 67
4 114 71 74 115
4 24 7 6 25
4 466 467 468 469
4 464 470 471 465
4 470 466 469 471
4 450 449 339 338
4 408 407 472 473
4 346 349 348 347
4 413 414 334 337
4 468 467 333 332
4 8 11 104 103
13 474 475 476 477 478 479 480 481 482 483 484 485 486
4 160 251 250 161
15 487 488 489 490 491 492 493 494 495 496 497 498 499 500 501
13 502 503 504 505 506 507 508 509 510 511 512 513 514
4 84 330 331 85
25 515 516 517 518 519 520 521 522 523 524 373 372 525 526 527 528 529 530 531 532 533 534 375 374 535
4 473 472 358 359
