ply
format ascii 1.0
comment Created by Blender 2.82 (sub 7) - www.blender.org, source file: ''
element vertex 464
property float x
property float y
property float z
element face 120
property list uchar uint vertex_indices
end_header
7.624990 17.250025 -8.937500
7.624990 16.500025 -8.937500
7.624990 16.500025 -8.687500
7.624990 17.250025 -8.687500
-8.973910 -17.249975 -10.437500
-9.624990 -17.249975 -10.437500
-9.624990 -16.499975 -10.437500
-8.973910 -16.499975 -10.437500
-11.624990 23.195126 10.276400
-11.624990 23.044094 10.437500
11.624990 23.044094 10.437500
11.624990 23.195126 10.276400
8.021390 -16.499975 -9.093550
7.624990 -16.499975 -8.937500
7.624990 -16.499975 -8.687500
0.374990 -16.499975 -8.687500
0.374990 -16.499975 -6.437500
9.624990 -16.499975 -6.437500
9.624990 -16.499975 -10.437500
8.973990 -16.499975 -10.437500
8.656190 -16.499975 -9.653176
11.624990 -23.195175 9.848600
11.624990 -23.044174 9.687500
11.624990 0.000025 9.687500
11.624990 0.000025 10.437500
11.624990 -23.044174 10.437500
11.624990 -23.195175 10.276400
11.624990 -23.249975 10.062500
9.374990 0.000025 -6.437500
0.374990 0.000025 -6.437500
0.374990 16.500025 -6.437500
9.374990 16.500025 -6.437500
11.624990 -23.044174 9.687500
11.624990 -23.195175 9.848600
-11.624990 -23.195175 9.848600
-11.624990 -23.044174 9.687500
11.624990 -23.249975 10.062500
-11.624990 -23.249975 10.062500
-9.374990 5.875025 9.687500
-9.374990 5.125025 9.687500
-11.624990 23.044094 9.687500
11.624990 23.044094 9.687500
-9.624990 17.250025 9.687500
-9.624990 16.500025 9.687500
9.624990 16.500025 9.687500
9.624990 16.500025 -10.437500
9.624990 17.250025 -10.437500
9.624990 17.250025 9.687500
9.624990 16.500025 9.687500
-9.374990 -16.499975 -6.437500
-9.374990 -16.499975 2.375000
-9.374990 -16.499975 1.625000
-9.374990 -16.499975 -5.687500
9.374990 -16.499975 1.625000
9.374990 -5.874975 1.625000
9.374990 -5.874975 -5.687500
9.374990 -5.124975 -5.687500
9.374990 -5.124975 1.625000
9.374990 0.000025 1.625000
9.374990 0.000025 2.375000
9.374990 -16.499975 2.375000
9.624990 -16.499975 1.625000
9.624990 -16.499975 -5.687500
-9.374990 -16.499975 -5.687500
-9.374990 0.000025 -5.687500
-9.374990 0.000025 -6.437500
-9.374990 -16.499975 -6.437500
-0.375010 -16.499975 -6.437500
-0.375010 0.000025 -6.437500
-0.375010 0.000025 -8.687500
-0.375010 -16.499975 -8.687500
9.624990 16.500025 9.687500
-9.624990 16.500025 9.687500
-9.624990 17.250025 9.687500
9.624990 17.250025 9.687500
-7.625010 -16.499975 -8.687500
-7.625010 -17.249975 -8.687500
-7.625010 -17.249975 -8.937500
-7.625010 -16.499975 -8.937500
8.021390 -17.249975 -9.093550
7.624990 -17.249975 -8.937500
7.624990 -16.499975 -8.937500
8.021390 -16.499975 -9.093550
8.656190 -17.249975 -9.653176
8.973990 -17.249975 -10.437500
9.624990 -17.249975 -10.437500
9.624990 -17.249975 9.687500
-9.624990 -17.249975 9.687500
-9.624990 -17.249975 -10.437500
-8.973910 -17.249975 -10.437500
-8.860710 -17.249975 -10.026852
-8.371310 -17.249975 -9.336430
-7.625010 -17.249975 -8.937500
-7.625010 -17.249975 -8.687500
7.624990 -17.249975 -8.687500
7.624990 -17.249975 -8.937500
8.021390 -17.249975 -9.093550
8.656190 -16.499975 -9.653176
8.973990 -16.499975 -10.437500
8.973990 -17.249975 -10.437500
8.656190 -17.249975 -9.653176
-9.374990 0.000025 -6.437500
-9.374990 16.500025 -6.437500
-0.375010 16.500025 -6.437500
-0.375010 0.000025 -6.437500
-9.374990 -5.124975 2.375000
9.374990 -5.124975 2.375000
9.374990 0.000025 2.375000
-9.374990 0.000025 2.375000
9.624990 -16.499975 2.375000
9.624990 -16.499975 1.625000
-9.374990 -16.499975 1.625000
-9.374990 -16.499975 2.375000
-9.374990 -16.499975 2.375000
-9.374990 0.000025 2.375000
-9.374990 0.000025 1.625000
-9.374990 -5.124975 1.625000
-9.374990 -5.124975 -5.687500
-9.374990 -5.874975 -5.687500
-9.374990 -5.874975 1.625000
-9.374990 -16.499975 1.625000
-9.374990 -5.874975 2.375000
-9.374990 -5.124975 2.375000
-9.374990 0.000025 1.625000
9.374990 0.000025 1.625000
9.374990 -16.499975 1.625000
-9.374990 -16.499975 1.625000
-9.374990 5.875025 2.375000
9.374990 5.875025 2.375000
9.374990 16.500025 2.375000
-9.374990 16.500025 2.375000
-11.624990 -23.195175 9.848600
-11.624990 -23.249975 10.062500
-11.624990 -23.195175 10.276400
-11.624990 -23.044174 10.437500
-11.624990 0.000025 10.437500
-11.624990 0.000025 9.687500
-11.624990 -23.044174 9.687500
-0.375010 0.000025 -6.437500
-0.375010 -16.499975 -6.437500
-9.374990 -16.499975 -6.437500
-9.374990 0.000025 -6.437500
9.374990 0.000025 -6.437500
9.374990 16.500025 -6.437500
9.374990 16.500025 -5.687500
9.374990 0.000025 -5.687500
11.624990 -23.195175 10.276400
-11.624990 -23.195175 10.276400
-11.624990 23.044094 9.687500
-11.624990 23.195126 9.848600
11.624990 23.195126 9.848600
11.624990 23.044094 9.687500
-7.625010 16.500025 -8.937500
-8.371310 16.500025 -9.336430
-8.371310 17.250025 -9.336430
-7.625010 17.250025 -8.937500
-9.624990 17.250025 -10.437500
-9.624990 16.500025 -10.437500
-9.624990 16.500025 9.687500
-9.624990 17.250025 9.687500
9.624990 -17.249975 9.687500
-9.624990 -17.249975 9.687500
-9.624990 -16.499975 9.687500
9.624990 -16.499975 9.687500
-9.374990 5.875025 -5.687500
9.374990 5.875025 -5.687500
9.374990 16.500025 -5.687500
-9.374990 16.500025 -5.687500
8.021390 16.500025 -9.093550
8.021390 17.250025 -9.093550
8.656190 17.250025 -9.653176
8.656190 16.500025 -9.653176
9.374990 -5.124975 2.375000
9.374990 -5.874975 2.375000
9.374990 -5.874975 2.375000
9.374990 -5.874975 9.687500
-9.374990 -5.874975 9.687500
-9.374990 -5.874975 2.375000
-9.374990 -16.499975 2.375000
9.374990 -16.499975 2.375000
9.374990 -5.874975 2.375000
-9.374990 -5.874975 2.375000
-9.374990 5.125025 2.375000
9.374990 5.125025 2.375000
9.374990 5.875025 2.375000
-9.374990 5.875025 2.375000
7.624990 -17.249975 -8.687500
7.624990 -16.499975 -8.687500
7.624990 -16.499975 -8.937500
7.624990 -17.249975 -8.937500
9.374990 -16.499975 -5.687500
9.374990 0.000025 -5.687500
-9.374990 -16.499975 -5.687500
9.374990 -16.499975 -5.687500
9.374990 -5.874975 -5.687500
-9.374990 -5.874975 -5.687500
9.374990 -5.874975 -5.687500
9.374990 -5.874975 1.625000
-9.374990 -5.874975 1.625000
-9.374990 -5.874975 -5.687500
-9.374990 0.000025 -5.687500
9.374990 0.000025 -5.687500
9.374990 5.125025 -5.687500
-9.374990 5.125025 -5.687500
9.374990 -16.499975 -6.437500
0.374990 -16.499975 -6.437500
0.374990 0.000025 -6.437500
9.374990 0.000025 -6.437500
-9.374990 5.125025 9.687500
-9.374990 5.125025 2.375000
9.374990 5.125025 2.375000
9.374990 5.125025 9.687500
-11.624990 23.249975 10.062500
11.624990 23.249975 10.062500
-11.624990 23.044094 9.687500
-11.624990 0.000025 9.687500
-11.624990 0.000025 10.437500
-11.624990 23.044094 10.437500
-11.624990 23.195126 10.276400
-11.624990 23.249975 10.062500
-11.624990 23.195126 9.848600
-8.860710 -16.499975 -10.026852
-8.860710 -17.249975 -10.026852
-8.973910 -17.249975 -10.437500
-8.973910 -16.499975 -10.437500
11.624990 23.044094 9.687500
11.624990 23.195126 9.848600
11.624990 23.249975 10.062500
11.624990 23.195126 10.276400
11.624990 23.044094 10.437500
11.624990 0.000025 10.437500
11.624990 0.000025 9.687500
9.374990 -5.124975 9.687500
9.374990 -5.874975 9.687500
0.374990 0.000025 -6.437500
0.374990 -16.499975 -6.437500
0.374990 -16.499975 -8.687500
0.374990 0.000025 -8.687500
-8.371310 -17.249975 -9.336430
-8.371310 -16.499975 -9.336430
-8.860710 16.500025 -10.026852
-8.860710 17.250025 -10.026852
9.624990 -16.499975 -5.687500
9.624990 -16.499975 -6.437500
9.374990 -16.499975 -6.437500
9.374990 -16.499975 -5.687500
-11.624990 0.000025 10.437500
11.624990 0.000025 10.437500
11.624990 23.044094 10.437500
-11.624990 23.044094 10.437500
11.624990 -23.044174 9.687500
-9.624990 -17.249975 9.687500
9.624990 -17.249975 9.687500
9.624990 -16.499975 9.687500
-9.374990 -5.874975 9.687500
9.374990 -5.874975 9.687500
9.374990 -5.124975 9.687500
-9.374990 -5.124975 9.687500
-11.624990 -23.044174 9.687500
-11.624990 0.000025 9.687500
11.624990 0.000025 9.687500
9.624990 -16.499975 -10.437500
9.624990 -16.499975 9.687500
9.624990 -17.249975 9.687500
9.624990 -17.249975 -10.437500
7.624990 -17.249975 -8.687500
-7.625010 -17.249975 -8.687500
-7.625010 -16.499975 -8.687500
-0.375010 -16.499975 -8.687500
-0.375010 0.000025 -8.687500
0.374990 0.000025 -8.687500
0.374990 -16.499975 -8.687500
7.624990 -16.499975 -8.687500
9.624990 16.500025 1.625000
-9.374990 16.500025 1.625000
-9.374990 16.500025 -5.687500
9.624990 16.500025 -5.687500
9.374990 5.125025 9.687500
9.374990 5.875025 9.687500
9.624990 17.250025 9.687500
11.624990 0.000025 9.687500
-11.624990 0.000025 9.687500
-9.374990 16.500025 2.375000
9.624990 16.500025 2.375000
9.624990 16.500025 9.687500
-9.624990 16.500025 9.687500
-9.624990 16.500025 -10.437500
-8.973910 16.500025 -10.437500
-8.860710 16.500025 -10.026852
-8.371310 16.500025 -9.336430
-7.625010 16.500025 -8.937500
-7.625010 16.500025 -8.687500
-0.375010 16.500025 -8.687500
-0.375010 16.500025 -6.437500
-9.374990 16.500025 -6.437500
9.374990 -5.124975 1.625000
9.374990 -5.124975 -5.687500
-9.374990 -5.124975 -5.687500
-9.374990 -5.124975 1.625000
8.656190 17.250025 -9.653176
8.021390 17.250025 -9.093550
7.624990 17.250025 -8.937500
7.624990 17.250025 -8.687500
-7.625010 17.250025 -8.687500
-7.625010 17.250025 -8.937500
-8.371310 17.250025 -9.336430
-8.860710 17.250025 -10.026852
-8.973910 17.250025 -10.437500
-9.624990 17.250025 -10.437500
-9.624990 17.250025 9.687500
9.624990 17.250025 9.687500
9.624990 17.250025 -10.437500
8.973990 17.250025 -10.437500
9.374990 16.500025 -5.687500
9.374990 16.500025 -6.437500
9.624990 16.500025 -6.437500
9.624990 16.500025 -5.687500
9.624990 -17.249975 -10.437500
8.973990 -17.249975 -10.437500
8.973990 -16.499975 -10.437500
9.624990 -16.499975 -10.437500
9.624990 16.500025 1.625000
9.624990 16.500025 2.375000
-9.374990 16.500025 2.375000
-9.374990 16.500025 1.625000
-9.374990 5.125025 1.625000
-9.374990 5.125025 -5.687500
9.374990 5.125025 -5.687500
9.374990 5.125025 1.625000
-9.374990 5.125025 2.375000
-9.374990 5.875025 2.375000
-9.374990 0.000025 2.375000
-9.374990 16.500025 2.375000
-9.374990 16.500025 1.625000
-9.374990 5.875025 1.625000
-9.374990 5.875025 -5.687500
-9.374990 5.125025 -5.687500
-9.374990 5.125025 1.625000
-9.374990 0.000025 1.625000
-9.624990 -16.499975 9.687500
9.374990 0.000025 1.625000
-9.374990 0.000025 1.625000
-9.374990 16.500025 1.625000
9.374990 16.500025 1.625000
-8.973910 16.500025 -10.437500
-9.624990 16.500025 -10.437500
-9.624990 17.250025 -10.437500
-8.973910 17.250025 -10.437500
-9.374990 -5.874975 2.375000
9.374990 -5.874975 2.375000
9.374990 -5.124975 2.375000
-9.374990 -5.124975 2.375000
-9.374990 0.000025 -5.687500
-9.374990 16.500025 -5.687500
-0.375010 16.500025 -8.687500
-0.375010 0.000025 -8.687500
-0.375010 0.000025 -6.437500
-0.375010 16.500025 -6.437500
-9.374990 16.500025 -6.437500
-9.374990 0.000025 -6.437500
9.374990 -16.499975 -6.437500
9.374990 0.000025 -6.437500
-9.624990 -17.249975 9.687500
-9.624990 -16.499975 9.687500
-9.624990 -16.499975 -10.437500
-9.624990 -17.249975 -10.437500
8.973990 17.250025 -10.437500
8.973990 16.500025 -10.437500
-7.625010 16.500025 -8.937500
-7.625010 17.250025 -8.937500
-7.625010 17.250025 -8.687500
-7.625010 16.500025 -8.687500
0.374990 16.500025 -8.687500
0.374990 0.000025 -8.687500
-0.375010 0.000025 -8.687500
-0.375010 16.500025 -8.687500
-7.625010 16.500025 -8.687500
-7.625010 17.250025 -8.687500
7.624990 17.250025 -8.687500
7.624990 16.500025 -8.687500
11.624990 -23.044174 10.437500
-11.624990 -23.044174 10.437500
8.973990 16.500025 -10.437500
9.624990 16.500025 -10.437500
9.624990 16.500025 -6.437500
0.374990 16.500025 -6.437500
0.374990 16.500025 -8.687500
7.624990 16.500025 -8.687500
7.624990 16.500025 -8.937500
8.021390 16.500025 -9.093550
8.656190 16.500025 -9.653176
-9.374990 -5.874975 1.625000
9.374990 -5.874975 1.625000
9.374990 -5.124975 1.625000
-9.374990 -5.124975 1.625000
9.374990 5.125025 2.375000
9.374990 5.875025 2.375000
9.374990 5.875025 9.687500
9.374990 5.125025 9.687500
-7.625010 -17.249975 -8.937500
-7.625010 -16.499975 -8.937500
9.374990 5.875025 -5.687500
9.374990 5.875025 1.625000
9.374990 16.500025 1.625000
9.374990 16.500025 2.375000
9.374990 0.000025 2.375000
9.374990 0.000025 1.625000
9.374990 5.125025 1.625000
9.374990 5.125025 -5.687500
-11.624990 -23.044174 10.437500
11.624990 -23.044174 10.437500
11.624990 0.000025 10.437500
-11.624990 0.000025 10.437500
-9.374990 -5.874975 9.687500
-9.374990 -5.124975 9.687500
7.624990 16.500025 -8.937500
7.624990 17.250025 -8.937500
9.624990 16.500025 -10.437500
8.973990 16.500025 -10.437500
8.973990 17.250025 -10.437500
9.624990 17.250025 -10.437500
-9.374990 5.125025 1.625000
9.374990 5.125025 1.625000
9.374990 5.875025 1.625000
-9.374990 5.875025 1.625000
9.374990 -5.124975 9.687500
9.374990 -5.124975 2.375000
-9.374990 -5.124975 2.375000
-9.374990 -5.124975 9.687500
-9.374990 5.875025 2.375000
-9.374990 5.875025 9.687500
9.374990 5.875025 9.687500
9.374990 5.875025 2.375000
-9.374990 0.000025 2.375000
9.374990 0.000025 2.375000
9.374990 5.125025 2.375000
-9.374990 5.125025 2.375000
-9.374990 5.875025 -5.687500
-9.374990 5.875025 1.625000
9.374990 5.875025 1.625000
9.374990 5.875025 -5.687500
-9.374990 -5.124975 -5.687500
9.374990 -5.124975 -5.687500
9.374990 0.000025 -5.687500
-9.374990 0.000025 -5.687500
-9.374990 5.125025 9.687500
-9.374990 5.875025 9.687500
0.374990 0.000025 -8.687500
0.374990 16.500025 -8.687500
0.374990 16.500025 -6.437500
0.374990 0.000025 -6.437500
-7.625010 -16.499975 -8.937500
-8.371310 -16.499975 -9.336430
-8.860710 -16.499975 -10.026852
-8.973910 -16.499975 -10.437500
-9.624990 -16.499975 -10.437500
-9.624990 -16.499975 9.687500
9.624990 -16.499975 9.687500
9.624990 -16.499975 2.375000
-0.375010 -16.499975 -6.437500
-0.375010 -16.499975 -8.687500
-7.625010 -16.499975 -8.687500
-8.973910 16.500025 -10.437500
-8.973910 17.250025 -10.437500
4 0 1 2 3
4 4 5 6 7
4 8 9 10 11
9 12 13 14 15 16 17 18 19 20
7 21 22 23 24 25 26 27
4 28 29 30 31
4 32 33 34 35
4 33 36 37 34
7 38 39 40 41 42 43 44
4 45 46 47 48
3 49 50 51
3 49 51 52
8 53 54 55 56 57 58 59 60
4 61 62 52 51
4 63 64 65 66
4 67 68 69 70
4 71 72 73 74
4 75 76 77 78
4 79 80 81 82
14 83 84 85 86 87 88 89 90 91 92 93 94 95 96
4 97 98 99 100
4 101 102 103 104
4 105 106 107 108
4 109 110 111 112
8 113 114 115 116 117 118 119 120
3 114 113 121
3 114 121 122
4 123 124 125 126
4 127 128 129 130
3 64 63 118
3 64 118 117
7 131 132 133 134 135 136 137
4 138 139 140 141
4 142 143 144 145
4 36 146 147 37
4 148 149 150 151
4 152 153 154 155
4 156 157 158 159
4 160 161 162 163
4 164 165 166 167
4 168 169 170 171
3 60 59 172
3 60 172 173
4 174 175 176 177
4 178 179 180 181
4 182 183 184 185
4 186 187 188 189
3 190 191 56
3 190 56 55
4 192 193 194 195
4 196 197 198 199
4 200 201 202 203
4 204 205 206 207
4 208 209 210 211
4 212 8 11 213
7 214 215 216 217 218 219 220
4 221 222 223 224
7 225 226 227 228 229 230 231
4 232 233 173 172
4 234 235 236 237
4 238 222 221 239
4 240 241 154 153
4 242 243 244 245
4 246 247 248 249
11 250 251 252 253 254 255 256 257 258 259 260
4 261 262 263 264
8 265 266 267 268 269 270 271 272
4 273 274 275 276
11 277 278 38 44 279 42 41 280 281 40 39
13 282 283 284 285 286 287 288 289 290 291 292 293 294
3 275 274 294
3 274 282 294
4 295 296 297 298
14 299 300 301 302 303 304 305 306 307 308 309 310 311 312
4 313 314 315 316
4 317 318 319 320
4 321 322 323 324
4 325 326 327 328
3 329 330 331
3 330 332 331
8 333 334 335 336 337 338 331 332
7 254 253 339 251 250 258 257
4 340 341 342 343
4 344 345 346 347
4 348 349 350 351
3 336 335 352
3 335 353 352
4 354 355 356 357
4 358 359 352 353
4 191 190 360 361
4 362 363 364 365
4 366 367 171 170
4 368 369 370 371
8 372 373 374 375 376 377 378 379
4 146 380 381 147
4 79 82 97 100
9 382 383 384 385 386 387 388 389 390
4 391 392 393 394
4 395 396 397 398
4 399 238 239 400
8 401 402 403 404 405 406 407 408
4 409 410 411 412
3 396 395 404
3 395 405 404
4 413 414 122 121
4 168 415 416 169
4 417 418 419 420
4 421 422 423 424
4 425 426 427 428
4 429 430 431 432
3 401 408 144
3 408 145 144
4 433 434 435 436
4 149 212 213 150
4 437 438 439 440
4 441 442 443 444
4 330 329 445 446
4 447 448 449 450
13 451 452 453 454 455 456 457 458 50 49 459 460 461
4 462 463 241 240
