ply
format ascii 1.0
comment Created by Blender 2.82 (sub 7) - www.blender.org, source file: ''
element vertex 425
property float x
property float y
property float z
element face 81
property list uchar uint vertex_indices
end_header
-16.497000 33.303001 17.716551
16.254000 33.385201 17.716551
16.726000 33.189800 17.716551
17.712000 34.898300 19.685049
16.260000 35.390999 19.685049
-17.252001 35.125599 19.685049
-12.945000 -5.905540 -18.053690
-5.906000 -5.905540 -19.685049
-5.906000 -5.905540 -17.716551
-10.580000 -5.905540 -16.985559
-14.463000 -5.905540 -14.462230
-16.329000 -5.905540 -11.987070
-17.716999 -5.905540 17.716551
-19.684999 -5.905540 17.716551
-18.827999 -5.905540 -11.287680
-17.058001 -5.905540 -14.477680
17.250999 35.125599 19.685049
18.525999 34.273899 19.685049
19.643000 32.008801 19.685049
19.643000 -32.008900 19.685049
18.525999 -34.273998 19.685049
16.764000 -35.290798 19.685049
15.619000 -35.433102 19.685049
22.566999 -35.433102 19.685049
23.554001 32.523800 19.685049
22.566999 35.432999 19.685049
15.619000 35.432999 19.685049
17.785999 39.101799 17.716551
19.684999 38.315102 17.716551
22.566999 35.432999 17.716551
-22.566999 35.432999 17.716551
-20.542000 37.742901 17.716551
-16.775999 39.302700 17.716551
5.905000 -5.905540 -19.685049
5.905000 -5.905540 -17.716551
5.905000 -27.386999 -16.963430
5.905000 -32.142300 -12.793170
5.905000 -33.464600 17.716551
5.905000 -35.433102 17.716551
5.905000 -34.534000 -12.393910
5.905000 -32.992401 -15.064120
5.905000 -28.142000 -18.785990
-17.716999 -5.905540 17.716551
-19.684999 -5.905540 17.716551
-19.684999 5.905480 17.716551
-17.716999 5.905480 17.716551
17.716000 -5.905540 17.716551
17.716000 5.905480 17.716551
17.716000 5.905480 -5.887150
17.684999 5.905480 -7.559650
17.441000 5.905480 -9.093950
17.441000 -5.905540 -9.093950
17.684999 -5.905540 -7.559650
17.716000 -5.905540 -5.887150
19.643000 32.008801 19.685049
19.150000 33.460300 19.685049
17.441999 32.473900 17.716551
17.441999 -32.473999 17.716551
19.150000 -33.460400 19.685049
5.905000 -32.992401 -15.064120
5.905000 -34.534000 -12.393910
-5.906000 -34.534000 -12.393910
-5.906000 -32.992401 -15.064120
5.905000 -33.464600 17.716551
5.905000 -32.142300 -12.793170
-5.906000 -32.142300 -12.793170
-5.906000 -33.464600 17.716551
-5.906000 32.711399 -11.638980
-5.906000 33.464500 17.716551
-5.906000 35.432999 17.716551
-5.906000 35.030602 -10.930940
-5.906000 31.973700 -16.225679
-5.906000 28.141899 -18.785990
-5.906000 5.905480 -19.685049
-5.906000 5.905480 -17.716551
-5.906000 26.168400 -17.377090
-5.906000 31.427299 -13.863200
-14.463000 -5.905540 -14.462230
-14.463000 5.905480 -14.462230
-16.329000 5.905480 -11.987070
-16.329000 -5.905540 -11.987070
17.785999 -39.101799 19.685049
-16.775999 -39.302700 19.685049
-16.775999 -39.302700 17.716551
17.785999 -39.101799 17.716551
-17.441999 32.473900 17.716551
-19.150999 33.460300 19.685049
17.441999 32.473900 17.716551
16.726000 33.189800 17.716551
16.254000 33.385201 17.716551
-16.497000 33.303001 17.716551
-17.299999 32.686699 17.716551
-17.638000 32.002201 17.716551
-17.638000 -32.002300 17.716551
-16.938999 -33.047798 17.716551
-16.004000 -33.435200 17.716551
16.254000 -33.385300 17.716551
16.726000 -33.189899 17.716551
17.441999 -32.473999 17.716551
21.995001 -36.289501 19.685049
21.315001 -37.063900 19.685049
20.541000 -37.743000 19.685049
19.684999 -38.315201 19.685049
18.761000 -38.770699 19.685049
18.761000 -38.770699 17.716551
19.684999 -38.315201 17.716551
20.541000 -37.743000 17.716551
21.315001 -37.063900 17.716551
21.995001 -36.289501 17.716551
19.684999 -5.905540 17.716551
17.716000 -5.905540 17.716551
17.716000 5.905480 17.716551
19.684999 5.905480 17.716551
5.905000 28.141899 -18.785990
-5.906000 28.141899 -18.785990
-5.906000 31.973700 -16.225679
5.905000 31.973700 -16.225679
5.905000 32.711399 -11.638980
5.905000 33.464500 17.716551
-5.906000 33.464500 17.716551
-5.906000 32.711399 -11.638980
5.905000 -35.433102 17.716551
-5.906000 -35.433102 17.716551
15.481000 5.905480 -13.289790
14.462000 5.905480 -14.462230
14.462000 -5.905540 -14.462230
15.481000 -5.905540 -13.289790
16.327999 -5.905540 -11.987070
16.985001 -5.905540 -10.579350
16.985001 5.905480 -10.579350
16.327999 5.905480 -11.987070
-17.686001 -5.905540 -7.559650
-17.441000 -5.905540 -9.093950
-16.986000 -5.905540 -10.579350
-16.986000 5.905480 -10.579350
-17.441000 5.905480 -9.093950
-17.686001 5.905480 -7.559650
-17.716999 5.905480 -5.887150
-17.716999 5.905480 17.716551
-17.716999 -5.905540 17.716551
-17.716999 -5.905540 -5.887150
-16.775999 39.302700 17.716551
-16.775999 39.302700 19.685049
17.785999 39.101799 19.685049
17.785999 39.101799 17.716551
23.554001 -32.523899 19.685049
23.554001 -32.523899 17.716551
23.554001 32.523800 17.716551
23.554001 32.523800 19.685049
-20.542000 -37.743000 17.716551
-20.542000 -37.743000 19.685049
-21.316000 -37.063900 19.685049
-21.995001 -36.289501 19.685049
-23.023001 -34.509300 19.685049
-23.023001 -34.509300 17.716551
-21.995001 -36.289501 17.716551
-21.316000 -37.063900 17.716551
-5.906000 -32.142300 -12.793170
-5.906000 -27.386999 -16.963430
-5.906000 -5.905540 -17.716551
-5.906000 -5.905540 -19.685049
-5.906000 -28.142000 -18.785990
-5.906000 -32.992401 -15.064120
-5.906000 -34.534000 -12.393910
-5.906000 -35.433102 17.716551
-5.906000 -33.464600 17.716551
5.905000 -5.905540 -19.685049
12.944000 -5.905540 -18.053690
17.056999 -5.905540 -14.477680
18.827000 -5.905540 -11.287680
19.684999 -5.905540 17.716551
17.716000 -5.905540 17.716551
17.441000 -5.905540 -9.093950
14.462000 -5.905540 -14.462230
9.094000 -5.905540 -17.440901
5.905000 -5.905540 -17.716551
16.260000 -35.390999 19.685049
17.712000 -34.898300 19.685049
16.726000 -33.189899 17.716551
16.254000 -33.385300 17.716551
-16.004000 -33.435200 17.716551
-16.938999 -33.047798 17.716551
-18.139999 -34.612801 19.685049
-17.252001 -35.125599 19.685049
21.315001 37.063801 19.685049
21.995001 36.289398 19.685049
21.995001 36.289398 17.716551
21.315001 37.063801 17.716551
20.541000 37.742901 17.716551
19.684999 38.315102 17.716551
18.761000 38.770699 17.716551
18.761000 38.770699 19.685049
19.684999 38.315102 19.685049
20.541000 37.742901 19.685049
5.905000 5.905480 -17.716551
5.905000 26.168400 -17.377090
5.905000 28.541201 -16.394239
-5.906000 28.541201 -16.394239
-5.906000 26.168400 -17.377090
-5.906000 5.905480 -17.716551
-10.580000 5.905480 -16.985559
-10.580000 -5.905540 -16.985559
-5.906000 -5.905540 -17.716551
-5.906000 -24.906200 -17.628151
5.905000 -24.906200 -17.628151
5.905000 -5.905540 -17.716551
9.094000 -5.905540 -17.440901
9.094000 5.905480 -17.440901
-16.497000 -33.303001 17.716551
-5.906000 -33.464600 17.716551
-5.906000 -35.433102 17.716551
-22.566999 -35.433102 17.716551
-23.555000 32.523800 17.716551
-5.906000 35.432999 17.716551
-5.906000 33.464500 17.716551
-16.497000 33.303001 17.716551
-17.299999 32.686699 17.716551
-17.638000 32.002201 17.716551
-17.716999 5.905480 17.716551
-19.684999 5.905480 17.716551
-19.684999 -5.905540 17.716551
-17.716999 -5.905540 17.716551
-17.638000 -32.002300 17.716551
-17.299999 -32.686699 17.716551
14.477000 -5.905540 -17.057320
12.944000 -5.905540 -18.053690
12.944000 5.905480 -18.053690
14.477000 5.905480 -17.057320
15.857000 5.905480 -15.857560
17.056999 5.905480 -14.477680
17.056999 -5.905540 -14.477680
15.857000 -5.905540 -15.857560
-19.542999 -32.512901 19.685049
-17.638000 -32.002300 17.716551
5.905000 35.432999 17.716551
23.554001 32.523800 17.716551
22.566999 -35.433102 17.716551
5.905000 -35.433102 17.716551
5.905000 -33.464600 17.716551
16.254000 -33.385300 17.716551
16.726000 -33.189899 17.716551
17.441999 -32.473999 17.716551
17.716000 -5.905540 17.716551
19.684999 -5.905540 17.716551
19.684999 5.905480 17.716551
17.716000 5.905480 17.716551
17.441999 32.473900 17.716551
16.726000 33.189800 17.716551
16.254000 33.385201 17.716551
5.905000 33.464500 17.716551
19.684999 -38.315201 17.716551
17.785999 -39.101799 17.716551
-16.775999 -39.302700 17.716551
-20.542000 -37.743000 17.716551
5.905000 32.711399 -11.638980
5.905000 31.427299 -13.863200
5.905000 26.168400 -17.377090
5.905000 5.905480 -17.716551
5.905000 5.905480 -19.685049
5.905000 28.141899 -18.785990
5.905000 31.973700 -16.225679
5.905000 35.030602 -10.930940
5.905000 35.432999 17.716551
5.905000 33.464500 17.716551
-22.566999 35.432999 19.685049
19.684999 38.315102 19.685049
17.785999 39.101799 19.685049
-16.775999 39.302700 19.685049
-20.542000 37.742901 19.685049
-15.619000 35.432999 19.685049
-23.555000 32.523800 19.685049
-22.566999 -35.433102 19.685049
-15.619000 -35.433102 19.685049
-17.712999 -34.898300 19.685049
-19.150999 -33.460400 19.685049
-19.542999 -32.512901 19.685049
-19.150999 33.460300 19.685049
-17.252001 35.125599 19.685049
6.233000 -35.433102 19.685049
-3.355000 -35.433102 19.685049
-16.775999 -39.302700 19.685049
17.785999 -39.101799 19.685049
19.684999 -38.315201 19.685049
-20.542000 -37.743000 19.685049
5.905000 5.905480 -19.685049
5.905000 5.905480 -17.716551
9.094000 5.905480 -17.440901
14.462000 5.905480 -14.462230
17.441000 5.905480 -9.093950
17.716000 5.905480 17.716551
19.684999 5.905480 17.716551
18.827000 5.905480 -11.287680
17.056999 5.905480 -14.477680
12.944000 5.905480 -18.053690
-5.906000 35.432999 17.716551
5.905000 35.432999 17.716551
5.905000 35.030602 -10.930940
-5.906000 35.030602 -10.930940
-14.463000 5.905480 -14.462230
-10.580000 5.905480 -16.985559
-5.906000 5.905480 -17.716551
-5.906000 5.905480 -19.685049
-12.945000 5.905480 -18.053690
-17.058001 5.905480 -14.477680
-18.827999 5.905480 -11.287680
-19.684999 5.905480 17.716551
-17.716999 5.905480 17.716551
-16.329000 5.905480 -11.987070
-20.542000 37.742901 17.716551
-20.542000 37.742901 19.685049
-5.906000 5.905480 -19.685049
-5.906000 23.622000 -19.685049
-5.906000 25.163700 -19.584005
-5.906000 26.678900 -19.282598
5.905000 26.678900 -19.282598
5.905000 25.163700 -19.584005
5.905000 23.622000 -19.685049
5.905000 5.905480 -19.685049
7.733000 5.905480 -19.651007
9.539000 5.905480 -19.363241
9.539000 -5.905540 -19.363241
7.733000 -5.905540 -19.651007
5.905000 -5.905540 -19.685049
5.905000 -23.622101 -19.685049
5.905000 -25.163700 -19.584005
5.905000 -26.679001 -19.282598
5.905000 -28.142000 -18.785990
-5.906000 -28.142000 -18.785990
-5.906000 -26.679001 -19.282598
-5.906000 -25.163700 -19.584005
-5.906000 -23.622101 -19.685049
-5.906000 -5.905540 -19.685049
-7.734000 -5.905540 -19.651007
-9.540000 -5.905540 -19.363241
-9.540000 5.905480 -19.363241
-7.734000 5.905480 -19.651007
23.021999 34.509300 19.685049
23.353001 33.534000 19.685049
23.353001 33.534000 17.716551
23.021999 34.509300 17.716551
22.566999 35.432999 17.716551
22.566999 35.432999 19.685049
-18.827999 -5.905540 -11.287680
-18.827999 5.905480 -11.287680
-17.058001 5.905480 -14.477680
-17.058001 -5.905540 -14.477680
-23.555000 32.523800 19.685049
-23.354000 33.534000 19.685049
-23.023001 34.509300 19.685049
-23.023001 34.509300 17.716551
-23.354000 33.534000 17.716551
-23.555000 32.523800 17.716551
-23.555000 -32.523899 17.716551
-23.555000 -32.523899 19.685049
5.905000 -29.611300 -15.679270
-5.906000 -29.611300 -15.679270
5.905000 -35.433102 17.716551
-5.906000 -35.433102 17.716551
-5.906000 -33.464600 17.716551
5.905000 -33.464600 17.716551
-17.638000 32.002201 17.716551
-12.945000 5.905480 -18.053690
-12.945000 -5.905540 -18.053690
-21.316000 37.063801 17.716551
-21.995001 36.289398 17.716551
-22.566999 35.432999 17.716551
-22.566999 35.432999 19.685049
-21.995001 36.289398 19.685049
-21.316000 37.063801 19.685049
5.905000 33.464500 17.716551
-5.906000 33.464500 17.716551
-5.906000 35.432999 17.716551
5.905000 35.432999 17.716551
-17.785999 -39.101799 19.685049
-18.761999 -38.770699 19.685049
-19.684999 -38.315201 19.685049
-19.684999 -38.315201 17.716551
-18.761999 -38.770699 17.716551
-17.785999 -39.101799 17.716551
17.250999 -35.125599 19.685049
18.525999 -34.273998 19.685049
19.643000 -32.008900 19.685049
19.643000 32.008801 19.685049
18.525999 34.273899 19.685049
17.250999 35.125599 19.685049
-17.252001 35.125599 19.685049
-19.150999 33.460300 19.685049
-19.542999 -32.512901 19.685049
-19.150999 -33.460400 19.685049
-17.712999 -34.898300 19.685049
-16.261000 -35.390999 19.685049
19.684999 5.905480 17.716551
19.684999 -5.905540 17.716551
18.827000 -5.905540 -11.287680
18.827000 5.905480 -11.287680
16.254000 -33.385300 17.716551
-16.004000 -33.435200 17.716551
-16.938999 -33.047798 17.716551
-17.638000 -32.002300 17.716551
-17.638000 32.002201 17.716551
-17.299999 32.686699 17.716551
-16.497000 33.303001 17.716551
16.254000 33.385201 17.716551
16.726000 33.189800 17.716551
17.441999 32.473900 17.716551
17.441999 -32.473999 17.716551
16.726000 -33.189899 17.716551
-19.684999 -5.905540 17.716551
-19.684999 5.905480 17.716551
-17.252001 35.125599 19.685049
17.250999 35.125599 19.685049
18.525999 34.273899 19.685049
19.643000 32.008801 19.685049
19.643000 -32.008900 19.685049
18.525999 -34.273998 19.685049
17.250999 -35.125599 19.685049
-16.261000 -35.390999 19.685049
-17.712999 -34.898300 19.685049
-19.150999 -33.460400 19.685049
-19.542999 -32.512901 19.685049
-19.150999 33.460300 19.685049
5.905000 -26.168400 -17.377090
-5.906000 -26.168400 -17.377090
-5.906000 -27.386999 -16.963430
5.905000 -27.386999 -16.963430
6 0 1 2 3 4 5
10 6 7 8 9 10 11 12 13 14 15
11 16 17 18 19 20 21 22 23 24 25 26
6 27 28 29 30 31 32
9 33 34 35 36 37 38 39 40 41
4 42 43 44 45
8 46 47 48 49 50 51 52 53
5 54 55 56 57 58
4 59 60 61 62
4 63 64 65 66
10 67 68 69 70 71 72 73 74 75 76
4 77 78 79 80
4 81 82 83 84
4 85 0 5 86
12 87 88 89 90 91 92 93 94 95 96 97 98
12 99 100 101 102 103 81 84 104 105 106 107 108
4 109 110 111 112
4 113 114 115 116
4 117 118 119 120
4 60 121 122 61
10 123 124 125 126 127 128 51 50 129 130
12 131 132 133 80 79 134 135 136 137 138 139 140
4 141 142 143 144
4 145 146 147 148
8 149 150 151 152 153 154 155 156
9 157 158 159 160 161 162 163 164 165
10 166 167 168 169 170 171 172 173 174 175
8 176 177 178 179 180 181 182 183
12 184 185 186 187 188 189 190 144 143 191 192 193
14 194 195 196 197 198 199 200 201 202 203 204 205 206 207
4 206 125 124 207
17 208 209 210 211 212 30 213 214 215 216 217 218 219 220 221 222 223
8 224 225 226 227 228 229 230 231
4 232 182 181 233
3 30 29 213
3 213 29 234
17 235 236 237 238 239 240 241 242 243 244 245 246 247 248 249 234 29
3 237 236 210
3 210 236 211
6 211 236 250 251 252 253
10 254 255 256 257 258 259 260 261 262 263
6 264 25 265 266 267 268
3 25 264 269
3 25 269 26
10 270 271 272 273 274 275 276 277 269 264
3 23 22 278
3 23 278 279
3 23 279 272
3 23 272 271
6 280 281 282 23 271 283
10 284 285 286 287 288 289 290 291 292 293
4 294 295 296 297
10 298 299 300 301 302 303 304 305 306 307
4 308 309 142 141
28 310 311 312 313 114 113 314 315 316 317 318 319 320 321 322 323 324 325 326 327 328 329 330 331 332 333 334 335
4 327 326 59 62
10 336 337 148 147 338 339 340 186 185 341
4 342 343 344 345
10 346 347 348 349 350 351 352 154 153 353
4 145 99 108 146
4 64 354 355 65
4 356 357 358 359
5 360 85 86 232 233
4 345 344 361 362
4 196 117 120 197
10 309 308 363 364 365 349 348 366 367 368
4 369 370 371 372
10 373 374 375 150 149 376 377 378 83 82
4 201 200 78 77
12 379 380 381 382 383 384 385 386 387 388 389 390
4 391 392 393 394
4 394 393 230 229
12 395 396 397 398 399 400 401 402 403 404 405 406
4 225 320 319 226
4 407 408 343 342
4 362 361 334 333
4 2 56 55 3
4 296 116 115 297
4 178 177 58 57
12 409 410 411 412 413 414 415 416 417 418 419 420
8 421 204 203 422 423 355 354 424
