ply
format ascii 1.0
comment Created by Blender 2.82 (sub 7) - www.blender.org, source file: ''
element vertex 168
property float x
property float y
property float z
element face 40
property list uchar uint vertex_indices
end_header
17.750000 -33.750000 -16.500000
15.250000 -33.750000 -16.500000
15.250000 -31.250000 -16.500000
17.750000 -31.250000 -16.500000
-17.750000 -33.750000 11.500000
-17.750000 -31.500000 11.500000
-17.750000 -31.500000 -16.500000
-17.750000 -33.750000 -16.500000
-15.500000 -31.500000 11.500000
-15.500000 -31.500000 -16.500000
-17.750000 -31.500000 -16.500000
-17.750000 -31.500000 11.500000
-15.250000 31.250000 -16.500000
-17.750000 31.250000 -16.500000
-17.750000 33.750000 -16.500000
-15.250000 33.750000 -16.500000
-17.750000 31.250000 11.500000
-17.750000 33.750000 11.500000
-17.750000 33.750000 -16.500000
-17.750000 31.250000 -16.500000
-18.375000 -34.500000 15.750000
-18.375000 34.500000 15.750000
18.375000 34.500000 15.750000
18.375000 -34.500000 15.750000
18.375000 34.500000 15.750000
18.375000 -34.500000 15.750000
18.375000 -34.500000 11.500000
18.375000 34.500000 11.500000
15.250000 31.250000 11.500000
15.250000 33.750000 11.500000
15.250000 33.750000 -16.500000
15.250000 31.250000 -16.500000
-15.500000 -31.500000 -16.500000
-15.500000 -31.500000 11.500000
-15.500000 -33.750000 11.500000
-15.500000 -33.750000 -16.500000
-15.250000 31.250000 -16.500000
-15.250000 31.250000 11.500000
-17.750000 31.250000 11.500000
-17.750000 31.250000 -16.500000
-15.250000 33.750000 -16.500000
-15.250000 33.750000 11.500000
-15.250000 31.250000 11.500000
-15.250000 31.250000 -16.500000
17.750000 -33.750000 -16.500000
17.750000 -33.750000 11.500000
15.250000 -33.750000 11.500000
15.250000 -33.750000 -16.500000
15.250000 -33.750000 11.500000
15.250000 -31.250000 11.500000
15.250000 -31.250000 -16.500000
15.250000 -33.750000 -16.500000
18.500000 34.500000 16.500000
-18.500000 34.500000 16.500000
-18.500000 -34.500000 16.500000
18.500000 -34.500000 16.500000
-18.375000 33.750000 11.500000
17.750000 33.750000 11.500000
15.250000 33.750000 11.500000
-15.250000 33.750000 11.500000
-18.500000 34.500000 15.750000
-18.375000 34.500000 15.750000
-18.375000 -34.500000 15.750000
-18.500000 -34.500000 15.750000
18.500000 34.500000 16.500000
18.500000 -34.500000 16.500000
18.500000 -34.500000 15.750000
18.500000 34.500000 15.750000
17.750000 -31.250000 11.500000
17.750000 -31.250000 -16.500000
15.250000 -31.250000 -16.500000
15.250000 -31.250000 11.500000
17.750000 -31.250000 11.500000
17.750000 -33.750000 11.500000
17.750000 -33.750000 -16.500000
17.750000 -31.250000 -16.500000
17.750000 33.750000 11.500000
17.750000 33.750000 -16.500000
15.250000 33.750000 -16.500000
15.250000 33.750000 11.500000
-15.500000 -33.750000 -16.500000
-17.750000 -33.750000 -16.500000
-17.750000 -31.500000 -16.500000
-15.500000 -31.500000 -16.500000
18.375000 -34.500000 15.750000
18.500000 -34.500000 15.750000
18.500000 34.500000 15.750000
18.375000 34.500000 15.750000
-15.500000 -31.500000 11.500000
15.250000 -33.750000 11.500000
18.375000 -33.750000 11.500000
18.375000 -34.500000 11.500000
-15.500000 -33.750000 11.500000
-18.500000 -34.500000 15.750000
-18.375000 -34.500000 15.750000
-18.375000 34.500000 15.750000
-18.500000 34.500000 15.750000
-18.500000 34.500000 15.750000
-18.500000 34.500000 16.500000
18.500000 34.500000 16.500000
18.500000 34.500000 15.750000
-18.375000 -34.500000 15.750000
-18.375000 -34.500000 11.500000
18.375000 -34.500000 11.500000
18.375000 -34.500000 15.750000
18.500000 -34.500000 15.750000
18.500000 -34.500000 16.500000
-18.500000 -34.500000 16.500000
-18.500000 -34.500000 15.750000
18.375000 -33.750000 11.500000
17.750000 -33.750000 11.500000
17.750000 -31.250000 11.500000
18.375000 -31.250000 11.500000
-18.500000 34.500000 16.500000
-18.500000 34.500000 15.750000
-18.500000 -34.500000 15.750000
-18.500000 -34.500000 16.500000
17.750000 31.250000 11.500000
-18.375000 34.500000 11.500000
18.375000 34.500000 11.500000
18.375000 -31.250000 11.500000
15.250000 -31.250000 11.500000
-17.750000 -31.500000 11.500000
-17.750000 -33.750000 11.500000
-18.375000 -34.500000 11.500000
-18.375000 31.250000 11.500000
-15.250000 31.250000 11.500000
15.250000 31.250000 11.500000
-18.375000 -34.500000 15.750000
18.375000 -34.500000 15.750000
18.375000 34.500000 15.750000
-18.375000 34.500000 15.750000
-18.375000 34.500000 11.500000
-18.375000 -34.500000 11.500000
-18.375000 -34.500000 15.750000
-18.375000 34.500000 15.750000
-17.750000 31.250000 11.500000
-18.375000 31.250000 11.500000
-18.375000 33.750000 11.500000
-17.750000 33.750000 11.500000
17.750000 31.250000 -16.500000
15.250000 31.250000 -16.500000
15.250000 33.750000 -16.500000
17.750000 33.750000 -16.500000
17.750000 31.250000 -16.500000
17.750000 31.250000 11.500000
15.250000 31.250000 11.500000
15.250000 31.250000 -16.500000
17.750000 33.750000 11.500000
17.750000 31.250000 11.500000
17.750000 31.250000 -16.500000
17.750000 33.750000 -16.500000
-15.500000 -33.750000 -16.500000
-15.500000 -33.750000 11.500000
-17.750000 -33.750000 11.500000
-17.750000 -33.750000 -16.500000
18.375000 34.500000 15.750000
18.375000 34.500000 11.500000
-18.375000 34.500000 11.500000
-18.375000 34.500000 15.750000
-15.250000 33.750000 11.500000
-15.250000 33.750000 -16.500000
-17.750000 33.750000 -16.500000
-17.750000 33.750000 11.500000
18.500000 34.500000 15.750000
18.500000 -34.500000 15.750000
18.375000 -34.500000 15.750000
18.375000 34.500000 15.750000
4 0 1 2 3
4 4 5 6 7
4 8 9 10 11
4 12 13 14 15
4 16 17 18 19
4 20 21 22 23
4 24 25 26 27
4 28 29 30 31
4 32 33 34 35
4 36 37 38 39
4 40 41 42 43
4 44 45 46 47
4 48 49 50 51
4 52 53 54 55
3 56 57 58
3 56 58 59
4 60 61 62 63
4 64 65 66 67
4 68 69 70 71
4 72 73 74 75
4 76 77 78 79
4 80 81 82 83
4 84 85 86 87
5 88 89 90 91 92
4 93 94 95 96
4 97 98 99 100
8 101 102 103 104 105 106 107 108
4 109 110 111 112
4 113 114 115 116
19 117 57 56 118 119 120 121 89 88 122 123 92 91 124 125 126 59 58 127
4 128 129 130 131
4 132 133 134 135
4 136 137 138 139
4 140 141 142 143
4 144 145 146 147
4 148 149 150 151
4 152 153 154 155
4 156 157 158 159
4 160 161 162 163
4 164 165 166 167
