ply
format ascii 1.0
comment Created by Blender 2.82 (sub 7) - www.blender.org, source file: ''
element vertex 212
property float x
property float y
property float z
element face 45
property list uchar uint vertex_indices
end_header
-11.986185 -0.500000 -13.375000
-1.249985 -0.500000 -11.250000
-1.249985 0.000000 -11.250000
-11.986185 0.000000 -13.375000
11.986215 0.500000 -13.375000
11.986215 0.500000 -14.250000
1.250015 0.500000 -14.250000
1.250015 0.500000 -11.250000
-15.000015 15.000000 14.250000
15.000015 15.000000 14.250000
15.000015 -15.000000 14.250000
-15.000015 -15.000000 14.250000
15.000015 -15.000000 12.750000
15.000015 15.000000 12.750000
1.250015 1.181000 12.750000
1.250015 -1.181000 12.750000
1.250015 1.181000 12.750000
-1.181385 1.181000 12.750000
1.181315 -1.181000 12.750000
1.250015 -1.181000 12.750000
15.000015 15.000000 14.250000
15.000015 -15.000000 14.250000
15.000015 -15.000000 12.750000
15.000015 15.000000 12.750000
-11.986185 -0.500000 -13.375000
-11.986185 0.000000 -13.375000
-11.986185 0.000000 -14.250000
-11.986185 -0.500000 -14.250000
-0.499985 11.918000 -14.250000
-0.499985 11.918000 -13.375000
0.500015 11.918000 -13.375000
0.500015 11.918000 -14.250000
-15.000015 -15.000000 14.250000
-15.000015 15.000000 14.250000
-15.000015 15.000000 12.750000
-15.000015 -15.000000 12.750000
-1.249985 -1.181000 12.750000
-1.249985 0.000000 12.750000
-1.249985 0.000000 -11.250000
-1.249985 -0.500000 -11.250000
-1.249985 -0.500000 -14.250000
-1.249985 -1.181000 -14.250000
15.000015 -15.000000 12.750000
15.000015 -15.000000 14.250000
-15.000015 -15.000000 14.250000
-15.000015 -15.000000 12.750000
15.000015 15.000000 14.250000
15.000015 15.000000 12.750000
-15.000015 15.000000 12.750000
-15.000015 15.000000 14.250000
0.500015 -1.181000 -11.250000
0.500015 -11.918000 -13.375000
0.500015 -11.918000 -14.250000
0.500015 -1.181000 -14.250000
11.986215 -0.500000 -14.250000
11.986215 -0.500000 -13.375000
1.250015 -0.500000 -11.250000
1.250015 -0.500000 -14.250000
1.250015 1.181000 12.750000
1.250015 0.000000 12.750000
1.250015 0.000000 -11.250000
1.250015 0.500000 -11.250000
1.250015 0.500000 -14.250000
1.250015 1.181000 -14.250000
1.250015 -0.500000 -11.250000
11.986215 -0.500000 -13.375000
11.986215 0.000000 -13.375000
1.250015 0.000000 -11.250000
-0.499985 -11.918000 -13.375000
-0.499985 -1.181000 -11.250000
-0.499985 -1.181000 -14.250000
-0.499985 -11.918000 -14.250000
0.500015 1.181000 -14.250000
1.250015 1.181000 -14.250000
1.250015 0.500000 -14.250000
11.986215 0.500000 -14.250000
11.986215 -0.500000 -14.250000
1.250015 -0.500000 -14.250000
1.250015 -1.181000 -14.250000
0.500015 -1.181000 -14.250000
0.500015 -11.918000 -14.250000
-0.499985 -11.918000 -14.250000
-0.499985 -1.181000 -14.250000
-1.249985 -1.181000 -14.250000
-1.249985 -0.500000 -14.250000
-11.986185 -0.500000 -14.250000
-11.986185 0.500000 -14.250000
-1.249985 0.500000 -14.250000
-1.249985 1.181000 -14.250000
-0.499985 1.181000 -14.250000
-0.499985 11.918000 -14.250000
0.500015 11.918000 -14.250000
-11.986185 0.000000 -13.375000
-11.986185 0.500000 -13.375000
-11.986185 0.500000 -14.250000
-11.986185 0.000000 -14.250000
-15.000015 -15.000000 12.750000
-15.000015 -15.000000 14.250000
15.000015 -15.000000 14.250000
15.000015 -15.000000 12.750000
1.250015 0.000000 12.750000
1.250015 -1.181000 12.750000
1.250015 -1.181000 -14.250000
1.250015 -0.500000 -14.250000
1.250015 -0.500000 -11.250000
1.250015 0.000000 -11.250000
-0.499985 1.181000 -11.250000
-0.499985 1.181000 -14.250000
-1.249985 1.181000 -14.250000
-1.249985 1.181000 12.750000
1.250015 1.181000 12.750000
1.250015 1.181000 -14.250000
0.500015 1.181000 -14.250000
0.500015 1.181000 -11.250000
11.986215 0.500000 -13.375000
11.986215 -0.500000 -13.375000
11.986215 -0.500000 -14.250000
11.986215 0.500000 -14.250000
-1.249985 -1.181000 12.750000
1.250015 -1.181000 12.750000
15.000015 -15.000000 12.750000
-15.000015 -15.000000 12.750000
-15.000015 15.000000 14.250000
-15.000015 15.000000 12.750000
15.000015 15.000000 12.750000
15.000015 15.000000 14.250000
0.500015 -11.918000 -14.250000
0.500015 -11.918000 -13.375000
-0.499985 -11.918000 -13.375000
-0.499985 -11.918000 -14.250000
0.500015 11.918000 -13.375000
0.500015 1.181000 -11.250000
0.500015 1.181000 -14.250000
0.500015 11.918000 -14.250000
-1.249985 1.181000 12.750000
-1.249985 1.181000 -14.250000
-1.249985 0.500000 -14.250000
-1.249985 0.500000 -11.250000
-1.249985 0.000000 -11.250000
-1.249985 0.000000 12.750000
1.250015 0.000000 -11.250000
11.986215 0.000000 -13.375000
11.986215 0.500000 -13.375000
1.250015 0.500000 -11.250000
-0.499985 -11.918000 -13.375000
0.500015 -11.918000 -13.375000
0.500015 -1.181000 -11.250000
-0.499985 -1.181000 -11.250000
0.000015 1.181000 -11.250000
0.500015 1.181000 -11.250000
0.500015 11.918000 -13.375000
0.000015 11.918000 -13.375000
1.250015 -1.181000 12.750000
-1.249985 -1.181000 12.750000
-1.249985 -1.181000 -14.250000
-0.499985 -1.181000 -14.250000
-0.499985 -1.181000 -11.250000
0.500015 -1.181000 -11.250000
0.500015 -1.181000 -14.250000
1.250015 -1.181000 -14.250000
-0.499985 1.181000 -11.250000
-0.499985 11.918000 -13.375000
-0.499985 11.918000 -14.250000
-0.499985 1.181000 -14.250000
-1.249985 1.181000 12.750000
-15.000015 15.000000 12.750000
15.000015 15.000000 12.750000
1.250015 1.181000 12.750000
15.000015 15.000000 12.750000
15.000015 -15.000000 12.750000
15.000015 -15.000000 14.250000
15.000015 15.000000 14.250000
-15.000015 -15.000000 12.750000
-15.000015 15.000000 12.750000
-15.000015 15.000000 14.250000
-15.000015 -15.000000 14.250000
-1.181385 1.181000 12.750000
-1.249985 1.181000 12.750000
-1.249985 -1.181000 12.750000
1.181315 -1.181000 12.750000
-1.249985 -1.181000 12.750000
-1.249985 1.181000 12.750000
-15.000015 15.000000 12.750000
-15.000015 -15.000000 12.750000
-0.499985 1.181000 -11.250000
0.000015 1.181000 -11.250000
0.000015 11.918000 -13.375000
-0.499985 11.918000 -13.375000
-15.000015 -15.000000 14.250000
15.000015 -15.000000 14.250000
15.000015 15.000000 14.250000
-15.000015 15.000000 14.250000
-1.249985 0.500000 -11.250000
-1.249985 0.500000 -14.250000
-11.986185 0.500000 -14.250000
-11.986185 0.500000 -13.375000
1.250015 1.181000 12.750000
1.250015 -1.181000 12.750000
1.181315 -1.181000 12.750000
-1.181385 1.181000 12.750000
-1.249985 1.181000 12.750000
-1.181385 1.181000 12.750000
1.181315 -1.181000 12.750000
-1.249985 -1.181000 12.750000
-1.249985 -0.500000 -14.250000
-1.249985 -0.500000 -11.250000
-11.986185 -0.500000 -13.375000
-11.986185 -0.500000 -14.250000
-11.986185 0.000000 -13.375000
-1.249985 0.000000 -11.250000
-1.249985 0.500000 -11.250000
-11.986185 0.500000 -13.375000
4 0 1 2 3
4 4 5 6 7
4 8 9 10 11
4 12 13 14 15
4 16 17 18 19
4 20 21 22 23
4 24 25 26 27
4 28 29 30 31
4 32 33 34 35
6 36 37 38 39 40 41
4 42 43 44 45
4 46 47 48 49
4 50 51 52 53
4 54 55 56 57
6 58 59 60 61 62 63
4 64 65 66 67
4 68 69 70 71
20 72 73 74 75 76 77 78 79 80 81 82 83 84 85 86 87 88 89 90 91
4 92 93 94 95
4 96 97 98 99
6 100 101 102 103 104 105
8 106 107 108 109 110 111 112 113
4 114 115 116 117
4 118 119 120 121
4 122 123 124 125
4 126 127 128 129
4 130 131 132 133
6 134 135 136 137 138 139
4 140 141 142 143
4 144 145 146 147
4 148 149 150 151
8 152 153 154 155 156 157 158 159
4 160 161 162 163
8 164 118 121 165 166 120 119 167
4 168 169 170 171
4 172 173 174 175
4 176 177 178 179
8 180 181 14 13 182 183 12 15
4 184 185 186 187
4 188 189 190 191
4 192 193 194 195
4 196 197 198 199
4 200 201 202 203
4 204 205 206 207
4 208 209 210 211
