ply
format ascii 1.0
comment Created by Blender 2.82 (sub 7) - www.blender.org, source file: ''
element vertex 1030
property float x
property float y
property float z
element face 415
property list uchar uint vertex_indices
end_header
-6.832469 -25.086414 17.100569
-7.191459 -25.078814 -9.203681
-7.072079 -25.309814 -9.203681
-6.715369 -25.312815 17.100569
4.651331 24.010386 -9.632471
4.779531 24.235685 -9.632471
4.883531 24.218287 16.820068
4.757831 23.997486 16.820068
-15.610019 -24.870813 -17.521139
-15.203619 -24.870813 -13.343971
-15.186249 -25.129913 -13.353691
-15.591209 -25.129913 -17.518831
16.292231 -24.746115 -13.407661
16.326330 -24.870813 -13.390051
16.614531 -24.870813 -17.544470
16.514132 -24.636114 -17.526825
16.232031 -24.636114 -13.438791
4.643731 23.745485 -9.632471
4.750331 23.737686 16.820068
4.862931 23.508686 16.820068
4.758631 23.511786 -9.632471
-0.051669 -24.533613 -9.107861
-0.494069 23.925886 -9.145081
-0.783269 23.923386 -9.046351
-0.340869 -24.536215 -9.009131
-0.264569 23.927486 -9.825751
-0.333069 23.926786 -9.963761
-0.563369 23.924486 -10.164691
-0.863269 23.921686 -10.223691
-1.014369 23.920385 -10.193351
-1.268169 23.918186 -10.023191
-1.353469 23.917486 -9.894961
-1.412469 23.917187 -9.595301
-1.313469 23.918285 -9.306291
-1.083269 23.920586 -9.105361
-0.783269 23.923386 -9.046351
-0.494069 23.925886 -9.145081
-0.293069 23.927586 -9.375091
-0.243869 23.927885 -9.521031
-15.509119 -24.636114 -17.508764
-15.110479 -24.636114 -13.396121
-15.169949 -24.746115 -13.362821
14.239131 -24.746115 -10.154041
16.149832 -24.548214 -13.481301
14.153231 -24.548214 -10.317231
12.719931 23.761585 -11.352121
12.716531 23.892487 -11.358571
10.778031 23.892487 -10.391531
10.784331 23.636887 -10.337251
12.740431 23.636887 -11.313081
-15.186249 -25.129913 -13.353691
-15.591209 -25.129913 -17.518831
-15.457709 -25.343815 -17.502460
-15.063029 -25.343815 -13.422681
-15.136399 -25.246614 -13.381601
-0.640769 -24.538914 -9.068141
-1.083269 23.920586 -9.105361
-13.043989 -24.746115 -10.136651
-15.029239 -24.548214 -13.441591
-12.959899 -24.548214 -10.301361
14.707731 24.020685 -17.672052
14.689031 23.761585 -17.668760
14.455231 23.761585 -14.102231
14.472831 24.020685 -14.093141
4.757831 23.997486 16.820068
4.883531 24.218287 16.820068
4.779531 24.235685 -9.632471
4.651331 24.010386 -9.632471
-13.937839 24.325287 -10.695981
-11.718009 24.325287 -9.617581
10.868231 24.325287 -9.618601
13.057531 24.325287 -10.710791
13.676931 24.325287 -11.337221
13.748831 24.265587 -11.236731
13.117031 24.265587 -10.597771
10.883931 24.265587 -9.483741
-11.733369 24.265587 -9.482661
-13.996079 24.265587 -10.581901
14.840631 24.234587 -17.695395
14.597531 24.234587 -14.028661
11.843231 -25.374914 -9.862001
11.820531 -25.177013 -10.056711
-10.600019 -25.177013 -10.055961
-12.591309 -25.177013 -11.023351
-12.675399 -25.374914 -10.858641
-10.622189 -25.374914 -9.861181
-12.611359 -24.676514 -10.984071
-12.655209 -24.579313 -10.898191
-12.710129 -24.508015 -10.790621
-14.611259 -24.508015 -13.675601
-14.968269 -24.508015 -17.442432
-14.868709 -24.579313 -17.430222
-14.519359 -24.579313 -13.727051
-14.445979 -24.676514 -13.768131
5.065631 23.371687 16.820068
5.303931 23.363485 16.820068
5.208431 23.363787 -9.632471
4.965331 23.372086 -9.632471
15.485031 39.370087 17.235569
15.485031 39.370087 17.826069
15.485031 -39.370087 17.826069
15.485031 -39.370087 17.235569
6.101831 -25.442213 17.100569
6.340131 -25.450415 17.100569
6.244531 -25.450113 -9.351931
6.001431 -25.441713 -9.351931
5.093631 24.341085 16.820068
4.993931 24.360987 -9.632471
5.237031 24.352587 -9.632471
5.331931 24.332886 16.820068
5.899131 -25.305214 17.100569
5.786531 -25.076115 17.100569
5.679831 -25.068415 -9.351931
5.794831 -25.302013 -9.351931
13.756131 -25.052315 -11.071571
15.491431 -25.052315 -13.821681
15.585731 -25.287014 -13.772941
14.373831 -25.287014 -11.530881
13.812931 -25.287014 -10.963561
13.776631 -25.177013 -11.032531
14.263131 -25.001715 -10.108561
11.942831 -24.746115 -9.008481
11.948231 -24.870813 -8.961901
11.949131 -25.001715 -8.954211
13.676931 24.325287 -11.337221
13.748831 24.265587 -11.236731
15.113631 24.265587 -13.761841
15.390331 24.265587 -17.791985
15.285231 24.325287 -17.773521
15.015031 24.325287 -13.812841
12.730531 24.020685 -11.331981
12.716531 23.892487 -11.358571
10.778031 23.892487 -10.391531
10.781731 24.020685 -10.359811
-16.146650 24.177786 -13.676661
-16.206127 24.067785 -13.643371
-14.080159 24.067785 -10.417201
-13.996079 24.265587 -10.581901
-16.065414 24.265587 -13.722141
-11.746159 24.177786 -9.370211
-11.755529 24.067785 -9.287881
-14.080159 24.067785 -10.417201
-10.697189 -24.548214 -9.202121
11.920131 -24.548214 -9.203191
11.933231 -24.636114 -9.090781
-10.709989 -24.636114 -9.089661
15.542131 24.067785 -17.818640
15.256031 24.067785 -13.688211
15.113631 24.265587 -13.761841
15.390331 24.265587 -17.791985
-13.604049 23.892487 -11.349811
-13.607369 23.761585 -11.343301
-15.414939 23.761585 -14.086311
-15.432309 24.020685 -14.076581
-13.617749 24.020685 -11.322971
-13.691379 24.234587 -11.178741
-13.647539 24.137285 -11.264621
-15.482159 24.137285 -14.048681
-15.555529 24.234587 -14.007601
-15.904889 24.234587 -17.710770
-16.004448 24.305786 -17.722980
-15.647429 24.305786 -13.956151
-13.746299 24.305786 -11.071171
13.226931 23.812086 -10.389111
13.202931 24.067785 -10.434591
10.906631 24.067785 -9.289031
10.912031 23.942986 -9.242451
10.912931 23.812086 -9.234761
-13.064099 -24.870813 -10.097241
-13.067429 -25.001715 -10.090741
-10.725539 -25.001715 -8.953031
-10.724659 -24.870813 -8.960731
-10.719359 -24.746115 -9.007331
-13.043989 -24.746115 -10.136651
-15.414939 23.761585 -14.086311
-15.752569 23.761585 -17.692089
-15.853479 23.526787 -17.704466
-15.508079 23.526787 -14.034161
-6.262369 -24.478014 17.100569
-6.500869 -24.475214 17.100569
-6.853169 -24.455515 -9.203681
-6.609969 -24.458315 -9.203681
15.549331 23.812086 -14.685961
15.295731 23.812086 -13.667691
15.584331 23.812086 -17.826069
-7.191459 -25.078814 -9.203681
-7.188899 -24.813814 -9.203681
-6.829969 -24.826513 17.100569
-6.832469 -25.086414 17.100569
-1.412469 23.917187 -9.595301
-0.969969 -24.542315 -9.558081
-0.871069 -24.541214 -9.269071
-1.313469 23.918285 -9.306291
-14.060109 23.567286 -10.456471
-14.016269 23.469986 -10.542361
-13.961349 23.398787 -10.649931
-16.007301 23.398787 -13.754681
-16.394321 23.398787 -17.770798
-16.493883 23.469986 -17.783009
-16.099201 23.469986 -13.703231
-16.172575 23.567286 -13.662151
13.766731 -24.793215 -11.051431
15.509031 -24.793215 -13.812601
15.633731 -24.579313 -13.748111
14.408831 -24.579313 -11.481961
13.841931 -24.579313 -10.908531
13.797131 -24.676514 -10.993621
-6.510169 -25.445114 17.100569
-6.271769 -25.447815 17.100569
-6.619569 -25.447514 -9.203681
-6.862769 -25.444714 -9.203681
-14.412429 -25.177013 -13.786911
-14.471909 -25.287014 -13.753621
-14.553139 -25.374914 -13.708141
-1.152469 23.919186 -10.124961
-0.710069 -24.540415 -10.087751
-0.420769 -24.537813 -10.186471
-0.863269 23.921686 -10.223691
-7.868629 23.727486 16.820068
-7.866119 23.987387 16.820068
-8.225069 24.000086 -9.484231
-8.227629 23.734985 -9.484231
15.491431 -25.052315 -13.821681
13.752731 -24.921413 -11.078021
13.756131 -25.052315 -11.071571
-7.889359 24.358385 -9.484231
-8.101259 24.228287 -9.484231
-7.744729 24.211086 16.820068
-7.536989 24.338587 16.820068
5.514131 23.486286 16.820068
5.422731 23.488985 -9.632471
4.750331 23.737686 16.820068
4.643731 23.745485 -9.632471
6.458931 -25.324915 -9.351931
6.550231 -25.327614 17.100569
6.675931 -25.106714 17.100569
6.587131 -25.099613 -9.351931
6.594731 -24.834614 -9.351931
6.479831 -24.601013 -9.351931
6.570831 -24.617914 17.100569
6.683431 -24.846914 17.100569
16.149832 -24.548214 -13.481301
14.153231 -24.548214 -10.317231
14.093731 -24.488514 -10.430251
16.051130 -24.488514 -13.532301
16.321430 -24.488514 -17.492973
16.514132 -24.636114 -17.526825
16.232031 -24.636114 -13.438791
16.331930 -25.001715 -13.387141
14.249131 -25.129913 -10.135141
14.218631 -25.246614 -10.192951
16.258230 -25.246614 -13.425221
16.308731 -25.129913 -13.399131
14.093731 -24.488514 -10.430251
16.321430 -24.488514 -17.492973
16.051130 -24.488514 -13.532301
11.814231 -24.921413 -10.110981
-10.593839 -24.921413 -10.110261
14.249131 -25.129913 -10.135141
14.218631 -25.246614 -10.192951
14.173831 -25.343815 -10.278041
11.925531 -25.343815 -9.156441
11.937331 -25.246614 -9.054911
11.945431 -25.129913 -8.985931
-11.673709 23.379286 -10.006821
-13.769809 23.379286 -11.025111
-13.711569 23.438986 -11.139191
-11.658359 23.438986 -10.141731
10.807031 23.438986 -10.142541
12.826431 23.438986 -11.149901
12.885931 23.379286 -11.036881
10.822831 23.379286 -10.007691
13.881531 23.812086 -11.051181
13.226931 23.812086 -10.389111
13.202931 24.067785 -10.434591
12.719931 23.761585 -11.352121
12.740431 23.636887 -11.313081
10.784331 23.636887 -10.337251
10.901231 23.567286 -9.335461
13.182531 23.567286 -10.473501
13.137731 23.469986 -10.558591
13.773731 23.469986 -11.201891
13.705931 23.398787 -11.296651
13.081631 23.398787 -10.665171
10.874531 23.398787 -9.564161
-11.724209 23.398787 -9.563111
-11.738689 23.469986 -9.435901
-11.667519 24.305786 -10.061281
10.816431 24.305786 -10.062131
12.861831 24.305786 -11.082501
12.925431 24.346087 -10.961711
10.833231 24.346087 -9.918001
-11.683929 24.346087 -9.917091
-13.808539 24.346087 -10.949241
-13.746299 24.305786 -11.071171
-10.714069 -25.246614 -9.053771
-10.702509 -25.343815 -9.155351
11.925531 -25.343815 -9.156441
11.937331 -25.246614 -9.054911
13.230931 -25.374914 -10.406241
11.843231 -25.374914 -9.862001
11.820531 -25.177013 -10.056711
14.433831 -25.374914 -11.447121
-14.396139 -24.793215 -13.796041
-14.735209 -24.793215 -17.413849
14.472831 24.020685 -14.093141
14.597531 24.234587 -14.028661
12.805731 24.234587 -11.189081
12.730531 24.020685 -11.331981
14.489331 23.636887 -14.084621
14.455231 23.761585 -14.102231
-10.721929 -25.129913 -8.984771
-10.714069 -25.246614 -9.053771
-10.702509 -25.343815 -9.155351
-12.980089 -25.343815 -10.261811
-13.023939 -25.246614 -10.175921
-13.053729 -25.129913 -10.117571
-13.067429 -25.001715 -10.090741
-10.725539 -25.001715 -8.953031
14.840631 24.234587 -17.695395
15.052031 24.346087 -17.732534
14.796031 24.346087 -13.926071
-13.873869 24.352785 -10.821271
-11.701149 24.352785 -9.765751
10.850931 24.352785 -9.766721
-15.967957 24.325287 -13.776701
-16.351698 24.325287 -17.765570
-16.235735 24.352785 -17.751347
-15.860919 24.352785 -13.836631
10.906631 24.067785 -9.289031
10.897031 24.177786 -9.371331
-13.647539 24.137285 -11.264621
-15.482159 24.137285 -14.048681
-15.432309 24.020685 -14.076581
-13.617749 24.020685 -11.322971
-13.833779 23.351887 -10.899821
-11.690579 23.351887 -9.858641
10.840031 23.351887 -9.859571
12.951231 23.351887 -10.912751
12.885931 23.379286 -11.036881
10.822831 23.379286 -10.007691
-11.673709 23.379286 -10.006821
-13.769809 23.379286 -11.025111
-15.686779 23.379286 -13.934121
-16.047071 23.379286 -17.728209
-16.163034 23.351887 -17.742432
-15.793819 23.351887 -13.874201
-14.103599 23.812086 -10.371281
-14.100279 23.942986 -10.377791
-11.760839 23.942986 -9.241281
-11.761709 23.812086 -9.233581
-10.688039 -25.415014 -9.282561
-12.925169 -25.415014 -10.369381
-10.671629 -25.455414 -9.426751
11.893931 -25.455414 -9.427741
14.054131 -25.455414 -10.505411
14.117731 -25.415014 -10.384621
11.910731 -25.415014 -9.283611
-15.203619 -24.870813 -13.343971
-15.610019 -24.870813 -17.521139
-0.563369 23.924486 -10.164691
-0.120869 -24.535013 -10.127471
-0.420769 -24.537813 -10.186471
-0.863269 23.921686 -10.223691
-16.239792 23.942986 -13.624521
-16.646196 23.942986 -17.801687
-16.627380 23.683987 -17.799381
-16.222424 23.683987 -13.634241
-15.555529 24.234587 -14.007601
-15.904889 24.234587 -17.710770
-15.771389 24.020685 -17.694397
15.147831 23.469986 -13.744161
15.426831 23.469986 -17.798384
15.215431 23.358486 -17.761244
14.949331 23.358486 -13.846761
13.018031 23.358486 -10.785961
-12.837699 -24.461115 -10.540721
-10.664969 -24.461115 -9.485201
11.887031 -24.461115 -9.486171
11.904331 -24.488514 -9.338051
-10.681839 -24.488514 -9.337031
-12.901659 -24.488514 -10.415431
-14.931779 -24.488514 -13.496161
-15.315519 -24.488514 -17.485022
-15.199559 -24.461115 -17.470798
-14.824739 -24.461115 -13.556081
15.766531 -25.434614 -13.679441
14.505631 -25.434614 -11.346621
15.825631 -25.287014 -17.405857
16.018230 -25.434614 -17.439709
-16.493883 23.469986 -17.783009
-16.099201 23.469986 -13.703231
-16.172575 23.567286 -13.662151
-14.378769 -25.052315 -13.805761
-14.716399 -25.052315 -17.411543
-14.817309 -25.287014 -17.423918
-10.637539 -25.434614 -9.726271
11.858931 -25.434614 -9.727141
13.922031 -25.434614 -10.756331
14.505631 -25.434614 -11.346621
14.433831 -25.374914 -11.447121
13.230931 -25.374914 -10.406241
-12.733639 -25.434614 -10.744561
-6.400669 -24.593214 -9.203681
-6.609969 -24.458315 -9.203681
-6.853169 -24.455515 -9.203681
-7.065079 -24.585613 -9.203681
-7.188899 -24.813814 -9.203681
-7.191459 -25.078814 -9.203681
-7.072079 -25.309814 -9.203681
-6.862769 -25.444714 -9.203681
-6.619569 -25.447514 -9.203681
-6.407669 -25.317413 -9.203681
-6.283869 -25.089214 -9.203681
-6.281269 -24.824215 -9.203681
-12.959899 -24.548214 -10.301361
-12.901659 -24.488514 -10.415431
-14.931779 -24.488514 -13.496161
-15.315519 -24.488514 -17.485022
-15.509119 -24.636114 -17.508764
-15.110479 -24.636114 -13.396121
-15.029239 -24.548214 -13.441591
-6.064069 -25.320314 17.100569
-6.407669 -25.317413 -9.203681
16.614531 -24.870813 -17.544470
16.595831 -25.129913 -17.541178
16.308731 -25.129913 -13.399131
16.331930 -25.001715 -13.387141
16.326330 -24.870813 -13.390051
-12.581569 -24.793215 -11.042421
0.064031 -24.532614 -9.209641
-0.378469 23.926886 -9.246861
15.015031 24.325287 -13.812841
15.285231 24.325287 -17.773521
-12.733639 -25.434614 -10.744561
-14.650599 -25.434614 -13.653571
-15.010899 -25.434614 -17.447660
-14.817309 -25.287014 -17.423918
-14.471909 -25.287014 -13.753621
-14.553139 -25.374914 -13.708141
-12.675399 -25.374914 -10.858641
-0.871069 -24.541214 -9.269071
-1.313469 23.918285 -9.306291
-1.083269 23.920586 -9.105361
-0.640769 -24.538914 -9.068141
-1.353469 23.917486 -9.894961
-1.412469 23.917187 -9.595301
-0.969969 -24.542315 -9.558081
-0.911069 -24.542013 -9.857741
6.368131 -24.480913 17.100569
6.129831 -24.472713 17.100569
6.030031 -24.452913 -9.351931
6.273131 -24.461313 -9.351931
5.208431 23.363787 -9.632471
5.422731 23.488985 -9.632471
5.514131 23.486286 16.820068
5.303931 23.363485 16.820068
-8.108249 23.504086 -9.484231
-7.898919 23.369085 -9.484231
-7.546359 23.368786 16.820068
-7.751589 23.501085 16.820068
-7.298569 24.335886 16.820068
-7.646169 24.355585 -9.484231
-7.065079 -24.585613 -9.203681
-6.708569 -24.602814 17.100569
-8.227629 23.734985 -9.484231
-8.225069 24.000086 -9.484231
-7.866119 23.987387 16.820068
-7.868629 23.727486 16.820068
5.899131 -25.305214 17.100569
5.794831 -25.302013 -9.351931
5.679831 -25.068415 -9.351931
5.687531 -24.803413 -9.351931
5.794031 -24.816414 17.100569
5.786531 -25.076115 17.100569
-6.978809 23.717285 16.820068
-7.320019 23.724586 -9.484231
-7.317459 23.989685 -9.484231
-6.976299 23.977186 16.820068
-10.616859 -24.579313 -9.907951
-10.597449 -24.793215 -10.078521
11.817931 -24.793215 -10.079261
11.825931 -24.676514 -10.010281
11.837831 -24.579313 -9.908751
-10.709989 -24.636114 -9.089661
-10.697189 -24.548214 -9.202121
5.550931 23.714287 -9.632471
5.639731 23.707186 16.820068
-6.407669 -25.317413 -9.203681
-6.283869 -25.089214 -9.203681
-5.942669 -25.096615 17.100569
-6.064069 -25.320314 17.100569
6.030031 -24.452913 -9.351931
5.815731 -24.578215 -9.351931
5.919631 -24.595514 17.100569
6.129831 -24.472713 17.100569
15.725131 -25.052315 -17.388212
16.292231 -24.746115 -13.407661
-13.064099 -24.870813 -10.097241
15.295731 23.812086 -13.667691
13.881531 23.812086 -11.051181
13.864631 23.683987 -11.074821
15.272531 23.683987 -13.679681
15.525031 23.683987 -14.693431
15.549331 23.812086 -14.685961
5.534631 24.195986 16.820068
5.443631 24.212887 -9.632471
5.558631 23.979286 -9.632471
5.647231 23.966887 16.820068
-11.761709 23.812086 -9.233581
-11.758099 23.683987 -9.265321
-11.750249 23.567286 -9.334321
10.901231 23.567286 -9.335461
-14.089899 23.683987 -10.398121
-14.103599 23.812086 -10.371281
15.505931 23.567286 -17.812283
15.222031 23.567286 -13.705771
15.147831 23.469986 -13.744161
15.426831 23.469986 -17.798384
-11.633619 24.020685 -10.359071
-11.630009 23.892487 -10.390811
-13.937839 24.325287 -10.695981
-11.718009 24.325287 -9.617581
10.868231 24.325287 -9.618601
13.057531 24.325287 -10.710791
10.850931 24.352785 -9.766721
-11.701149 24.352785 -9.765751
-13.873869 24.352785 -10.821271
-15.860919 24.352785 -13.836631
-16.235735 24.352785 -17.751347
-16.351698 24.325287 -17.765570
-15.967957 24.325287 -13.776701
-11.738689 23.469986 -9.435901
14.789431 23.526787 -17.686405
14.549531 23.526787 -14.053491
14.489331 23.636887 -14.084621
-15.136399 -25.246614 -13.381601
10.781731 24.020685 -10.359811
-11.633619 24.020685 -10.359071
-11.630009 23.892487 -10.390811
12.805731 24.234587 -11.189081
12.861831 24.305786 -11.082501
12.925431 24.346087 -10.961711
14.796031 24.346087 -13.926071
15.052031 24.346087 -17.732534
11.933231 -24.636114 -9.090781
11.920131 -24.548214 -9.203191
-12.571199 -25.052315 -11.062751
-12.591309 -25.177013 -11.023351
-14.412429 -25.177013 -13.786911
-14.378769 -25.052315 -13.805761
14.239131 -24.746115 -10.154041
-12.571199 -25.052315 -11.062751
-12.567869 -24.921413 -11.069261
-12.980089 -25.343815 -10.261811
14.173831 -25.343815 -10.278041
10.912931 23.812086 -9.234761
-11.750249 23.567286 -9.334321
-11.758099 23.683987 -9.265321
-10.719359 -24.746115 -9.007331
-10.724659 -24.870813 -8.960731
13.212931 23.683987 -10.415691
13.182531 23.567286 -10.473501
13.137731 23.469986 -10.558591
13.773731 23.469986 -11.201891
-16.545290 24.177786 -17.789312
14.476631 -24.508015 -11.387191
13.898031 -24.508015 -10.801961
11.852631 -24.508015 -9.781581
-10.631339 -24.508015 -9.780731
-12.797599 -25.462013 -10.619271
-10.654399 -25.462013 -9.578091
11.876231 -25.462013 -9.579021
13.987431 -25.462013 -10.632201
-14.650599 -25.434614 -13.653571
-15.010899 -25.434614 -17.447660
-15.126859 -25.462013 -17.461884
-14.757639 -25.462013 -13.593651
-16.646196 23.942986 -17.801687
-16.239792 23.942986 -13.624521
-16.222424 23.683987 -13.634241
-16.627380 23.683987 -17.799381
-11.746159 24.177786 -9.370211
10.897031 24.177786 -9.371331
10.883931 24.265587 -9.483741
-11.733369 24.265587 -9.482661
-16.545290 24.177786 -17.789312
-16.146650 24.177786 -13.676661
-16.206127 24.067785 -13.643371
-11.760839 23.942986 -9.241281
-10.688039 -25.415014 -9.282561
11.910731 -25.415014 -9.283611
14.117731 -25.415014 -10.384621
14.054131 -25.455414 -10.505411
11.893931 -25.455414 -9.427741
-10.671629 -25.455414 -9.426751
-12.925169 -25.415014 -10.369381
-14.100279 23.942986 -10.377791
-11.755529 24.067785 -9.287881
-13.833779 23.351887 -10.899821
-15.793819 23.351887 -13.874201
-16.163034 23.351887 -17.742432
-16.047071 23.379286 -17.728209
-15.686779 23.379286 -13.934121
12.951231 23.351887 -10.912751
10.840031 23.351887 -9.859571
-11.690579 23.351887 -9.858641
15.256031 24.067785 -13.688211
15.542131 24.067785 -17.818640
14.263131 -25.001715 -10.108561
11.949131 -25.001715 -8.954211
14.631731 23.438986 -14.010981
12.826431 23.438986 -11.149901
14.730431 23.379286 -13.959981
14.982131 23.379286 -17.720257
14.789431 23.526787 -17.686405
14.549531 23.526787 -14.053491
13.987431 -25.462013 -10.632201
13.922031 -25.434614 -10.756331
16.251532 -25.455414 -17.480696
15.985531 -25.455414 -13.566211
-14.971129 -25.415014 -13.474131
-15.358149 -25.415014 -17.490250
-15.126859 -25.462013 -17.461884
-14.757639 -25.462013 -13.593651
-12.797599 -25.462013 -10.619271
-10.654399 -25.462013 -9.578091
11.876231 -25.462013 -9.579021
-13.053729 -25.129913 -10.117571
-11.683929 24.346087 -9.917091
10.833231 24.346087 -9.918001
10.816431 24.305786 -10.062131
-11.667519 24.305786 -10.061281
-13.808539 24.346087 -10.949241
-7.655719 23.366285 -9.484231
-7.307939 23.365986 16.820068
-15.169949 -24.746115 -13.362821
10.801631 24.234587 -10.189301
-11.653039 24.234587 -10.188491
15.725131 -25.052315 -17.388212
15.743931 -24.793215 -17.391502
-15.358149 -25.415014 -17.490250
-14.971129 -25.415014 -13.474131
15.985531 -25.455414 -13.566211
16.251532 -25.455414 -17.480696
16.018230 -25.434614 -17.439709
15.766531 -25.434614 -13.679441
-11.707799 23.358486 -9.707301
10.857731 23.358486 -9.708291
13.766731 -24.793215 -11.051431
13.752731 -24.921413 -11.078021
11.814231 -24.921413 -10.110981
11.817931 -24.793215 -10.079261
11.825931 -24.676514 -10.010281
13.797131 -24.676514 -10.993621
13.117031 24.265587 -10.597771
-10.681839 -24.488514 -9.337031
11.904331 -24.488514 -9.338051
11.887031 -24.461115 -9.486171
-10.664969 -24.461115 -9.485201
-12.837699 -24.461115 -10.540721
-14.824739 -24.461115 -13.556081
-15.199559 -24.461115 -17.470798
-10.721929 -25.129913 -8.984771
16.088131 -24.467714 -17.451986
15.832131 -24.467714 -13.645521
15.069731 -24.467714 -11.984041
13.961631 -24.467714 -10.681161
11.869431 -24.467714 -9.637451
-10.647749 -24.467714 -9.636541
-12.772369 -24.467714 -10.668691
-12.710129 -24.508015 -10.790621
-14.611259 -24.508015 -13.675601
-14.968269 -24.508015 -17.442432
-13.627489 23.636887 -11.303901
-13.663029 23.526787 -11.234281
-15.508079 23.526787 -14.034161
-16.004448 24.305786 -17.722980
-15.647429 24.305786 -13.956151
-6.281269 -24.824215 -9.203681
-6.283869 -25.089214 -9.203681
-6.407669 -25.317413 -9.203681
-6.619569 -25.447514 -9.203681
-6.862769 -25.444714 -9.203681
-7.072079 -25.309814 -9.203681
-7.191459 -25.078814 -9.203681
-7.188899 -24.813814 -9.203681
-7.065079 -24.585613 -9.203681
-6.853169 -24.455515 -9.203681
-6.609969 -24.458315 -9.203681
-6.400669 -24.593214 -9.203681
10.807031 23.438986 -10.142541
-11.658359 23.438986 -10.141731
-13.711569 23.438986 -11.139191
-13.607369 23.761585 -11.343301
-13.604049 23.892487 -11.349811
6.683431 -24.846914 17.100569
6.594731 -24.834614 -9.351931
-6.715369 -25.312815 17.100569
-7.072079 -25.309814 -9.203681
-6.057169 -24.610313 17.100569
-6.400669 -24.593214 -9.203681
15.485031 -39.370087 17.826069
-16.010988 -39.370087 17.826069
-16.010988 -39.370087 17.235569
15.485031 -39.370087 17.235569
6.001431 -25.441713 -9.351931
6.244531 -25.450113 -9.351931
6.458931 -25.324915 -9.351931
6.587131 -25.099613 -9.351931
6.594731 -24.834614 -9.351931
6.479831 -24.601013 -9.351931
6.273131 -24.461313 -9.351931
6.030031 -24.452913 -9.351931
5.815731 -24.578215 -9.351931
5.687531 -24.803413 -9.351931
5.679831 -25.068415 -9.351931
5.794831 -25.302013 -9.351931
-0.120869 -24.535013 -10.127471
-0.563369 23.924486 -10.164691
0.177931 -24.532015 -9.788531
0.198631 -24.531614 -9.483811
-0.243869 23.927885 -9.521031
-0.264569 23.927486 -9.825751
0.064031 -24.532614 -9.209641
-0.378469 23.926886 -9.246861
5.687531 -24.803413 -9.351931
5.815731 -24.578215 -9.351931
6.030031 -24.452913 -9.351931
6.273131 -24.461313 -9.351931
6.479831 -24.601013 -9.351931
6.594731 -24.834614 -9.351931
6.587131 -25.099613 -9.351931
6.458931 -25.324915 -9.351931
6.244531 -25.450113 -9.351931
6.001431 -25.441713 -9.351931
5.794831 -25.302013 -9.351931
5.679831 -25.068415 -9.351931
-0.494069 23.925886 -9.145081
-0.051669 -24.533613 -9.107861
-1.152469 23.919186 -10.124961
-0.710069 -24.540415 -10.087751
-0.911069 -24.542013 -9.857741
-1.353469 23.917486 -9.894961
5.815731 -24.578215 -9.351931
5.919631 -24.595514 17.100569
5.550931 23.714287 -9.632471
5.639731 23.707186 16.820068
-10.597449 -24.793215 -10.078521
-10.616859 -24.579313 -9.907951
11.837831 -24.579313 -9.908751
-6.976299 23.977186 16.820068
-7.317459 23.989685 -9.484231
-7.320019 23.724586 -9.484231
-6.978809 23.717285 16.820068
-5.940169 -24.836714 17.100569
-6.281269 -24.824215 -9.203681
-6.283869 -25.089214 -9.203681
-5.942669 -25.096615 17.100569
5.558631 23.979286 -9.632471
5.647231 23.966887 16.820068
14.408831 -24.579313 -11.481961
14.476631 -24.508015 -11.387191
13.898031 -24.508015 -10.801961
15.876731 -24.579313 -17.414846
15.633731 -24.579313 -13.748111
13.961631 -24.467714 -10.681161
11.869431 -24.467714 -9.637451
-10.647749 -24.467714 -9.636541
-12.772369 -24.467714 -10.668691
13.212931 23.683987 -10.415691
13.864631 23.683987 -11.074821
-12.581569 -24.793215 -11.042421
-12.611359 -24.676514 -10.984071
-12.655209 -24.579313 -10.898191
16.595831 -25.129913 -17.541178
-15.853479 23.526787 -17.704466
-15.752569 23.761585 -17.692089
14.373831 -25.287014 -11.530881
13.812931 -25.287014 -10.963561
13.776631 -25.177013 -11.032531
11.945431 -25.129913 -8.985931
-11.636189 23.636887 -10.336511
-13.627489 23.636887 -11.303901
-13.663029 23.526787 -11.234281
-6.829969 -24.826513 17.100569
-7.188899 -24.813814 -9.203681
-15.771389 24.020685 -17.694397
15.584331 23.812086 -17.826069
6.570831 -24.617914 17.100569
6.479831 -24.601013 -9.351931
14.631731 23.438986 -14.010981
14.707731 24.020685 -17.672052
-16.065414 24.265587 -13.722141
15.505931 23.567286 -17.812283
15.222031 23.567286 -13.705771
15.272531 23.683987 -13.679681
15.525031 23.683987 -14.693431
-11.653039 24.234587 -10.188491
10.801631 24.234587 -10.189301
13.841931 -24.579313 -10.908531
-10.631339 -24.508015 -9.780731
11.852631 -24.508015 -9.781581
-14.016269 23.469986 -10.542361
-14.060109 23.567286 -10.456471
-16.394321 23.398787 -17.770798
-16.007301 23.398787 -13.754681
-13.961349 23.398787 -10.649931
15.876731 -24.579313 -17.414846
-11.636189 23.636887 -10.336511
-10.637539 -25.434614 -9.726271
-10.622189 -25.374914 -9.861181
11.858931 -25.434614 -9.727141
-11.724209 23.398787 -9.563111
10.874531 23.398787 -9.564161
13.081631 23.398787 -10.665171
13.705931 23.398787 -11.296651
-13.691379 24.234587 -11.178741
-10.593839 -24.921413 -10.110261
15.585731 -25.287014 -13.772941
16.258230 -25.246614 -13.425221
4.758631 23.511786 -9.632471
4.965331 23.372086 -9.632471
5.065631 23.371687 16.820068
4.862931 23.508686 16.820068
16.090931 -25.415014 -13.511711
16.184031 -25.343815 -13.463621
16.462931 -25.343815 -17.517836
-10.600019 -25.177013 -10.055961
11.942831 -24.746115 -9.008481
11.948231 -24.870813 -8.961901
14.689031 23.761585 -17.668760
15.743931 -24.793215 -17.391502
15.509031 -24.793215 -13.812601
15.825631 -25.287014 -17.405857
-12.567869 -24.921413 -11.069261
-15.063029 -25.343815 -13.422681
-15.457709 -25.343815 -17.502460
6.001431 -25.441713 -9.351931
6.101831 -25.442213 17.100569
-13.023939 -25.246614 -10.175921
-7.443829 23.496386 -9.484231
-7.100199 23.493586 16.820068
-14.445979 -24.676514 -13.768131
-14.396139 -24.793215 -13.796041
-14.735209 -24.793215 -17.413849
-14.868709 -24.579313 -17.430222
-14.519359 -24.579313 -13.727051
10.912031 23.942986 -9.242451
-14.089899 23.683987 -10.398121
-11.707799 23.358486 -9.707301
10.857731 23.358486 -9.708291
13.018031 23.358486 -10.785961
-7.093339 24.203587 16.820068
-7.436839 24.220587 -9.484231
16.090931 -25.415014 -13.511711
16.462931 -25.343815 -17.517836
16.184031 -25.343815 -13.463621
-0.333069 23.926786 -9.963761
0.109431 -24.532715 -9.926541
5.237031 24.352587 -9.632471
5.331931 24.332886 16.820068
5.534631 24.195986 16.820068
5.443631 24.212887 -9.632471
6.244531 -25.450113 -9.351931
6.340131 -25.450415 17.100569
-6.853169 -24.455515 -9.203681
-7.065079 -24.585613 -9.203681
-6.708569 -24.602814 17.100569
-6.500869 -24.475214 17.100569
0.198631 -24.531614 -9.483811
-0.243869 23.927885 -9.521031
-14.716399 -25.052315 -17.411543
-7.443829 23.496386 -9.484231
-7.100199 23.493586 16.820068
-6.400669 -24.593214 -9.203681
-6.609969 -24.458315 -9.203681
-6.262369 -24.478014 17.100569
-6.057169 -24.610313 17.100569
-6.862769 -25.444714 -9.203681
-6.619569 -25.447514 -9.203681
-6.271769 -25.447815 17.100569
-6.510169 -25.445114 17.100569
14.730431 23.379286 -13.959981
14.982131 23.379286 -17.720257
15.215431 23.358486 -17.761244
14.949331 23.358486 -13.846761
15.069731 -24.467714 -11.984041
15.832131 -24.467714 -13.645521
16.088131 -24.467714 -17.451986
5.794031 -24.816414 17.100569
5.687531 -24.803413 -9.351931
-0.769169 -24.540215 -9.153461
-0.494669 -24.537615 -9.018911
-0.189769 -24.534815 -9.039471
0.064031 -24.532614 -9.209641
0.198631 -24.531614 -9.483811
0.177931 -24.532015 -9.788531
0.007531 -24.533813 -10.042141
-0.266969 -24.536413 -10.176701
-0.571969 -24.539114 -10.156131
-0.710069 -24.540415 -10.087751
-0.911069 -24.542013 -9.857741
-0.960269 -24.542315 -9.711791
-0.939569 -24.541914 -9.407071
-16.010988 39.370087 17.826069
-16.010988 39.370087 17.235569
-16.010988 -39.370087 17.235569
-16.010988 -39.370087 17.826069
0.109431 -24.532715 -9.926541
-0.333069 23.926786 -9.963761
-16.010988 39.370087 17.235569
15.485031 39.370087 17.235569
15.485031 -39.370087 17.235569
-16.010988 -39.370087 17.235569
-0.264569 23.927486 -9.825751
0.177931 -24.532015 -9.788531
15.485031 -39.370087 17.826069
15.485031 39.370087 17.826069
-16.010988 39.370087 17.826069
-16.010988 -39.370087 17.826069
6.273131 -24.461313 -9.351931
6.368131 -24.480913 17.100569
6.550231 -25.327614 17.100569
6.458931 -25.324915 -9.351931
6.587131 -25.099613 -9.351931
6.675931 -25.106714 17.100569
-0.783269 23.923386 -9.046351
-0.340869 -24.536215 -9.009131
-1.083269 23.920586 -9.105361
-1.313469 23.918285 -9.306291
-1.412469 23.917187 -9.595301
-1.353469 23.917486 -9.894961
-1.268169 23.918186 -10.023191
-1.014369 23.920385 -10.193351
-0.863269 23.921686 -10.223691
-0.563369 23.924486 -10.164691
-0.333069 23.926786 -9.963761
-0.264569 23.927486 -9.825751
-0.243869 23.927885 -9.521031
-0.293069 23.927586 -9.375091
-0.494069 23.925886 -9.145081
-0.783269 23.923386 -9.046351
0.064031 -24.532614 -9.209641
-0.189769 -24.534815 -9.039471
-0.494669 -24.537615 -9.018911
-0.769169 -24.540215 -9.153461
-0.939569 -24.541914 -9.407071
-0.960269 -24.542315 -9.711791
-0.911069 -24.542013 -9.857741
-0.710069 -24.540415 -10.087751
-0.571969 -24.539114 -10.156131
-0.266969 -24.536413 -10.176701
0.007531 -24.533813 -10.042141
0.177931 -24.532015 -9.788531
0.198631 -24.531614 -9.483811
-7.536989 24.338587 16.820068
-7.744729 24.211086 16.820068
-8.101259 24.228287 -9.484231
-7.889359 24.358385 -9.484231
-7.298569 24.335886 16.820068
-7.646169 24.355585 -9.484231
-7.436839 24.220587 -9.484231
-7.093339 24.203587 16.820068
-5.940169 -24.836714 17.100569
-6.281269 -24.824215 -9.203681
-8.108249 23.504086 -9.484231
-7.751589 23.501085 16.820068
-7.546359 23.368786 16.820068
-7.898919 23.369085 -9.484231
-7.307939 23.365986 16.820068
-7.655719 23.366285 -9.484231
5.304631 23.488985 -9.632471
5.432831 23.714287 -9.632471
5.440431 23.979286 -9.632471
5.325531 24.212887 -9.632471
5.118831 24.352587 -9.632471
4.875831 24.360987 -9.632471
4.661431 24.235685 -9.632471
4.533231 24.010386 -9.632471
4.525631 23.745485 -9.632471
4.640531 23.511786 -9.632471
4.847231 23.372086 -9.632471
5.090231 23.363787 -9.632471
4.847231 23.372086 -9.632471
4.640531 23.511786 -9.632471
4.525631 23.745485 -9.632471
4.533231 24.010386 -9.632471
4.661431 24.235685 -9.632471
4.875831 24.360987 -9.632471
5.118831 24.352587 -9.632471
5.325531 24.212887 -9.632471
5.440431 23.979286 -9.632471
5.432831 23.714287 -9.632471
5.304631 23.488985 -9.632471
5.090231 23.363787 -9.632471
4.993931 24.360987 -9.632471
5.093631 24.341085 16.820068
15.485031 39.370087 17.826069
-16.010988 39.370087 17.826069
-16.010988 39.370087 17.235569
15.485031 39.370087 17.235569
15.485031 39.370087 17.235569
-16.010988 39.370087 17.235569
-16.010988 39.370087 17.826069
15.485031 39.370087 17.826069
-8.007469 24.358385 -9.484231
-8.219369 24.228287 -9.484231
-8.343179 24.000086 -9.484231
-8.345739 23.734985 -9.484231
-8.226359 23.504086 -9.484231
-8.017029 23.369085 -9.484231
-7.773829 23.366285 -9.484231
-7.561939 23.496386 -9.484231
-7.438129 23.724586 -9.484231
-7.435569 23.989685 -9.484231
-7.554949 24.220587 -9.484231
-7.764279 24.355585 -9.484231
-7.764279 24.355585 -9.484231
-7.554949 24.220587 -9.484231
-7.435569 23.989685 -9.484231
-7.438129 23.724586 -9.484231
-7.561939 23.496386 -9.484231
-7.773829 23.366285 -9.484231
-8.017029 23.369085 -9.484231
-8.226359 23.504086 -9.484231
-8.345739 23.734985 -9.484231
-8.343179 24.000086 -9.484231
-8.219369 24.228287 -9.484231
-8.007469 24.358385 -9.484231
4 0 1 2 3
4 4 5 6 7
4 8 9 10 11
5 12 13 14 15 16
4 17 18 19 20
4 21 22 23 24
14 25 26 27 28 29 30 31 32 33 34 35 36 37 38
5 9 8 39 40 41
5 42 12 16 43 44
5 45 46 47 48 49
5 50 51 52 53 54
4 55 24 23 56
5 57 41 40 58 59
4 60 61 62 63
4 64 65 66 67
10 68 69 70 71 72 73 74 75 76 77
4 78 60 63 79
6 80 81 82 83 84 85
8 86 87 88 89 90 91 92 93
4 94 95 96 97
4 98 99 100 101
4 102 103 104 105
4 106 107 108 109
4 110 111 112 113
6 114 115 116 117 118 119
5 120 42 121 122 123
6 124 125 126 127 128 129
4 130 131 132 133
5 134 135 136 137 138
5 139 140 141 77 76
4 142 143 144 145
4 146 147 148 149
5 150 151 152 153 154
8 155 156 157 158 159 160 161 162
5 163 164 165 166 167
6 168 169 170 171 172 173
4 174 175 176 177
4 178 179 180 181
5 182 183 147 146 184
4 185 186 187 188
4 189 190 191 192
8 193 194 195 196 197 198 199 200
4 19 94 97 20
6 201 202 203 204 205 206
4 207 208 209 210
5 83 211 212 213 84
4 214 215 216 217
4 218 219 220 221
5 222 202 201 223 224
4 225 226 227 228
4 95 229 230 96
4 231 64 67 232
4 233 234 235 236
4 237 238 239 240
7 241 242 243 244 245 246 247
6 248 120 249 250 251 252
7 253 44 43 16 15 254 255
4 81 256 257 82
6 258 259 260 261 262 263
8 264 265 266 267 268 269 270 271
5 183 272 273 274 147
5 132 131 275 276 277
11 278 279 280 281 282 283 284 285 195 194 286
8 287 288 289 290 291 292 293 294
4 295 296 297 298
7 299 300 301 119 118 117 302
5 303 93 92 91 304
4 305 306 307 308
4 309 310 45 49
6 311 312 313 314 315 316
4 317 318 311 316
7 289 307 306 319 320 321 290
11 322 323 324 71 70 69 68 325 326 327 328
5 74 274 329 330 75
4 331 332 333 334
12 335 336 337 338 339 340 341 342 343 344 345 346
6 347 348 141 140 349 350
4 170 123 122 171
7 351 352 353 354 355 356 357
5 147 274 74 73 148
4 358 359 51 50
4 360 361 362 363
4 364 365 366 367
5 333 332 368 369 370
8 282 281 371 372 373 374 375 283
11 376 377 378 243 379 380 381 382 383 384 385
7 386 387 302 117 116 388 389
5 367 366 390 391 392
4 393 303 304 394
5 211 393 394 395 212
10 396 397 398 399 400 401 80 85 84 402
12 403 404 405 406 407 408 409 410 411 412 413 414
7 415 416 417 418 419 420 421
4 208 422 423 209
5 424 425 426 427 428
4 429 86 93 303
4 56 192 191 55
4 21 430 431 22
6 148 73 72 432 433 149
7 434 435 436 437 438 439 440
4 441 442 443 444
4 445 446 447 448
4 449 450 451 452
4 453 454 455 456
4 457 458 459 460
4 225 228 461 462
4 186 463 464 187
4 465 466 467 468
4 469 102 105 470
4 471 472 473 474
4 475 476 477 478
4 106 6 5 107
5 479 480 481 482 483
6 223 201 206 482 481 256
5 173 172 484 485 415
4 455 454 486 487
4 488 489 490 491
4 492 493 494 495
4 115 496 388 116
5 424 428 497 247 246
4 498 9 41 57
6 499 500 501 502 503 504
4 505 506 507 508
5 62 275 131 130 63
5 167 509 510 511 512
4 513 510 509 514
4 515 516 517 518
4 519 133 132 520
11 521 522 523 524 525 526 527 528 529 530 531
3 532 512 511
5 62 61 533 534 535
4 315 536 10 316
4 47 537 538 539
7 540 541 542 543 544 78 79
4 484 545 546 485
4 547 548 549 550
5 247 497 551 242 241
5 552 553 429 303 393
4 520 150 154 519
8 296 554 352 351 357 356 555 297
4 79 63 130 540
5 556 278 557 558 350
6 317 498 57 559 560 318
8 502 501 561 562 563 564 517 516
7 137 521 531 530 565 134 138
5 42 44 546 545 121
12 483 482 206 205 204 566 567 568 569 88 87 479
12 570 571 572 573 398 397 396 402 574 575 576 577
4 578 579 580 581
4 582 583 584 585
5 579 578 586 587 588
4 589 509 167 166
7 590 591 592 593 594 595 596
6 597 514 509 589 598 136
12 599 600 601 602 603 265 264 271 270 604 605 606
4 126 607 608 127
4 156 154 153 157
4 609 258 263 610
7 611 612 339 613 614 615 616
18 617 618 387 386 389 619 620 355 354 353 352 621 622 623 624 625 626 627
5 168 358 50 628 169
8 629 630 542 541 631 632 162 633
6 311 318 610 263 262 312
4 458 634 635 459
5 420 636 173 415 421
8 162 632 631 541 540 637 638 155
3 286 557 278
4 222 639 640 202
18 399 398 573 572 571 570 577 576 641 642 596 595 594 593 643 644 645 646
17 613 339 338 337 336 335 346 345 197 196 195 647 648 375 374 373 614
4 141 348 579 588
6 649 650 651 652 653 654
10 137 585 584 655 125 124 524 523 522 521
5 581 580 200 199 198
11 416 656 657 253 658 659 660 661 662 418 417
4 628 663 170 169
18 255 254 664 665 666 667 668 669 670 671 672 673 662 661 660 659 658 253
5 151 674 675 676 152
5 45 310 305 308 46
18 72 71 324 323 322 328 327 677 678 294 293 292 291 290 321 320 433 432
12 679 680 681 682 683 684 685 686 687 688 689 690
8 341 340 339 612 691 692 693 342
5 694 695 334 333 174
4 519 638 637 133
5 650 114 119 301 651
4 696 697 236 235
4 460 218 221 457
4 698 207 210 699
4 700 178 181 701
5 82 257 553 552 83
4 702 703 704 705
12 706 707 708 709 710 711 712 713 714 715 716 717
4 718 719 217 216
4 720 721 722 723
4 722 721 724 725
12 726 727 728 729 730 731 732 733 734 735 736 737
5 519 154 156 155 638
4 738 725 724 739
4 740 741 742 743
4 472 744 745 473
4 450 745 744 451
4 190 189 743 742
4 508 507 746 747
4 470 471 474 469
5 748 749 750 653 652
4 17 4 7 18
4 751 752 753 754
4 755 756 757 758
4 759 760 487 486
9 761 762 763 667 666 665 664 764 765
8 569 568 567 766 767 768 769 88
7 770 279 278 556 273 272 771
5 748 772 773 774 749
4 62 535 276 275
4 76 75 330 139
5 359 358 636 420 419
5 14 13 248 252 775
5 164 655 584 583 165
4 152 676 776 777
7 80 401 400 778 779 780 81
4 120 123 781 249
5 655 164 607 126 125
7 48 782 783 784 693 692 691
5 164 163 500 499 607
4 0 785 786 1
4 256 481 480 257
4 153 152 777 787
5 607 499 504 788 608
4 789 449 452 790
8 485 546 44 253 657 656 416 415
5 276 535 534 791 269
5 157 153 787 159 158
6 598 589 166 165 583 582
4 305 792 319 306
7 68 77 793 587 586 326 325
6 794 795 796 797 182 184
4 798 538 537 799
4 313 312 262 261
12 800 654 653 750 749 774 671 801 802 763 762 761
8 803 804 392 391 390 805 806 807
4 640 808 203 202
6 503 502 516 515 788 504
4 520 132 277 809
5 548 440 439 438 549
10 810 434 440 811 300 299 302 387 618 812
11 562 512 532 803 807 813 814 815 816 564 563
8 817 798 799 307 289 288 287 294
4 818 748 652 651
6 819 222 224 780 779 778
5 57 59 142 145 559
5 427 609 551 497 428
8 331 817 294 678 677 369 368 332
5 331 334 538 798 817
6 258 609 427 426 820 259
5 480 479 87 86 429
4 821 822 823 824
5 224 223 256 81 780
7 643 593 592 825 826 827 644
12 625 624 623 436 435 434 810 812 618 617 627 626
4 47 539 782 48
4 513 367 392 804
5 120 248 13 12 42
4 818 651 301 828
5 514 597 364 367 513
6 829 830 560 559 145 144
4 610 318 560 830
5 831 310 309 616 615
4 539 538 334 695
4 764 832 833 765
6 796 771 272 183 182 797
4 429 553 257 480
7 400 399 646 645 834 819 778
5 616 309 49 612 611
8 380 379 243 242 143 142 59 381
4 818 835 772 748
5 11 10 536 836 837
4 113 838 839 110
7 562 561 501 500 163 167 512
8 840 54 53 52 622 621 352 554
5 835 818 828 548 547
5 150 520 809 674 151
4 753 841 842 754
7 381 59 58 40 39 383 382
5 609 610 830 829 551
5 843 844 845 846 847
7 285 284 283 375 648 647 195
4 277 276 269 268
4 46 308 537 47
6 260 259 820 826 825 592
6 828 301 300 811 440 548
6 349 140 139 330 329 848
4 49 48 691 612
4 350 349 848 556
5 348 347 849 580 579
5 820 426 425 827 826
7 266 265 603 602 776 676 675
5 835 547 550 844 772
4 173 636 358 168
4 540 130 133 637
4 362 741 740 363
4 193 200 580 849
5 539 695 694 783 782
8 313 261 260 592 591 590 596 314
7 813 807 850 851 852 815 814
6 781 123 170 663 295 298
8 315 314 596 642 641 837 836 536
7 809 277 268 267 266 675 674
4 597 136 135 364
5 783 694 174 177 784
6 295 663 628 840 554 296
5 551 829 144 143 242
4 462 461 853 854
7 855 356 355 620 619 856 857
4 858 859 361 360
4 347 350 558 849
8 774 773 843 847 846 673 672 671
6 765 833 649 654 800 761
18 524 124 129 128 544 543 542 630 629 633 162 161 160 529 528 527 526 525
6 251 250 555 356 855 857
5 274 273 556 848 329
6 558 557 286 194 193 849
4 860 861 862 863
5 565 365 364 135 134
4 83 552 393 211
5 115 114 650 649 833
4 832 496 115 833
4 478 477 854 853
4 756 755 700 701
4 838 864 865 839
7 342 693 784 177 176 344 343
7 402 84 213 212 395 575 574
5 498 317 316 10 9
4 866 867 868 869
4 870 871 431 430
5 141 588 587 793 77
4 785 868 867 786
6 172 171 122 121 545 484
5 550 549 438 437 872
4 773 772 844 843
4 634 873 874 635
4 628 50 54 840
4 875 876 877 878
4 879 880 881 882
4 185 188 698 699
17 604 270 883 884 885 886 852 851 850 807 806 805 601 600 599 606 605
4 174 333 370 175
18 244 243 378 377 376 385 384 90 89 88 769 768 767 766 887 888 889 245
4 890 494 493 891
4 758 757 423 422
9 566 204 203 808 889 888 887 766 567
5 775 252 251 857 856
13 892 893 894 895 896 897 898 899 900 901 902 903 904
4 905 906 907 908
4 909 910 719 718
4 911 912 913 914
4 858 915 916 859
4 917 918 919 920
4 215 214 445 448
4 372 371 795 794
4 789 790 697 696
4 447 446 442 441
4 238 921 922 239
4 909 720 723 910
4 923 924 925 926
4 443 927 928 444
8 279 770 771 796 795 371 281 280
4 915 871 870 916
4 738 739 928 927
4 103 234 233 104
4 231 232 821 824
4 111 890 891 112
14 929 930 931 932 933 934 935 936 937 938 939 940 941 942
13 943 944 945 946 947 948 949 950 951 952 953 954 955
4 956 957 958 959
4 308 307 799 537
4 466 958 957 467
4 2 879 882 3
4 921 492 495 922
4 219 227 226 220
4 864 924 923 865
4 960 961 962 963
4 962 752 751 963
4 964 965 875 878
4 966 465 468 967
4 746 230 229 747
4 925 237 240 926
4 880 488 491 881
4 874 873 476 475
4 967 968 969 966
4 968 970 971 969
12 972 973 974 975 976 977 978 979 980 981 982 983
4 970 842 841 971
4 179 464 463 180
4 844 550 872 845
4 831 792 305 310
8 669 668 667 763 802 801 671 670
12 984 985 986 987 988 989 990 991 992 993 994 995
4 956 959 961 960
4 996 997 861 860
8 517 564 816 815 852 886 885 518
6 511 510 513 804 803 532
4 109 108 506 505
4 863 862 760 759
4 834 639 222 819
4 489 965 964 490
5 137 136 598 582 585
4 996 66 65 997
6 250 249 781 298 297 555
4 822 453 456 823
4 998 999 1000 1001
4 876 866 869 877
4 1002 1003 1004 1005
12 1006 1007 1008 1009 1010 1011 1012 1013 1014 1015 1016 1017
12 1018 1019 1020 1021 1022 1023 1024 1025 1026 1027 1028 1029
7 883 270 269 791 534 533 884
