ply
format ascii 1.0
comment Created by Blender 2.82 (sub 7) - www.blender.org, source file: ''
element vertex 737
property float x
property float y
property float z
element face 187
property list uchar uint vertex_indices
end_header
-16.847403 -1.750043 -14.187500
-20.347403 -1.750043 -14.187500
-20.347403 1.749957 -14.187500
-16.847403 1.749957 -14.187500
5.152568 -1.750043 11.687500
8.652567 -1.750043 11.687500
8.652567 1.749957 11.687500
5.152568 1.749957 11.687500
-11.847433 -19.968742 13.187500
12.152569 -19.968742 13.187500
12.152569 -16.468742 13.187500
-11.847433 -16.468742 13.187500
1.902568 20.499996 -13.437500
1.902568 20.499996 -14.187500
-1.597432 20.499996 -14.187500
-1.597432 20.499996 -13.437500
-2.750032 -8.500043 12.437500
-2.750032 -8.500043 13.187500
-20.750023 -8.500043 13.187500
-20.750023 -8.500043 12.437500
20.652569 1.749957 -13.437500
20.652569 1.749957 -14.187500
17.152569 1.749957 -14.187500
17.152569 1.749957 -13.437500
-20.750023 5.249957 13.187500
-2.750032 5.249957 13.187500
-2.750032 8.749957 13.187500
-20.750023 8.749957 13.187500
1.902568 -1.750043 -12.187500
1.902568 -1.750043 -13.437500
20.652569 -1.750043 -13.437500
20.652569 -1.750043 -13.187500
19.652569 -1.750043 -12.187500
-4.847432 -1.750043 -12.187500
-8.347433 -1.750043 -12.187500
-8.347433 1.749957 -12.187500
-4.847432 1.749957 -12.187500
12.152567 16.468746 12.437500
-11.847433 16.468746 12.437500
-11.847433 19.968746 12.437500
12.152567 19.968746 12.437500
2.749968 23.711786 13.187500
8.249968 22.459316 13.187500
8.249969 -22.327044 13.187500
2.749968 -23.664244 13.187500
2.749968 -21.000044 13.187500
2.749968 20.999996 13.187500
1.902568 -1.750043 12.437500
-1.597432 -1.750043 12.437500
-1.597432 1.749957 12.437500
1.902568 1.749957 12.437500
13.312767 19.969208 13.187500
19.249969 14.017837 13.187500
19.249969 -14.134643 13.187500
15.843167 -18.027643 13.187500
-2.750032 -5.000043 13.187500
-2.750032 -5.000043 12.437500
-20.750023 -5.000043 12.437500
-20.750023 -5.000043 13.187500
-2.750032 -23.711742 14.187500
2.749968 -23.664244 14.187500
2.749968 23.711786 14.187500
-2.750032 23.664244 14.187500
-20.347403 -1.750043 -13.437500
-20.347403 1.749957 -13.437500
-20.347403 1.749957 -14.187500
-20.347403 -1.750043 -14.187500
13.749969 -19.429342 14.187500
8.249969 -22.327044 14.187500
8.249969 -22.327044 13.187500
13.749969 -19.429342 13.187500
-19.347403 -1.750043 -12.187500
-1.597432 -1.750043 -12.187500
-1.597431 -19.500044 -12.187500
1.902569 -19.500044 -12.187500
1.902568 -1.750043 -12.187500
19.652569 -1.750043 -12.187500
19.652569 1.749957 -12.187500
1.902568 1.749957 -12.187500
1.902568 19.499996 -12.187500
-1.597432 19.499996 -12.187500
-1.597432 1.749957 -12.187500
-19.347403 1.749957 -12.187500
-13.750031 -19.586643 14.187500
-13.750032 19.429367 14.187500
-19.250023 14.134637 14.187500
-19.250023 -14.017843 14.187500
-4.847432 -1.750043 -12.187500
-4.847432 -1.750043 11.687500
-8.347433 -1.750043 11.687500
-8.347433 -1.750043 -12.187500
-20.347403 -1.750043 -13.437500
-1.597432 -1.750043 -13.437500
-1.597432 -1.750043 -12.187500
-19.347403 -1.750043 -12.187500
-20.347403 -1.750043 -13.187500
20.652569 1.749957 -13.437500
20.652569 -1.750043 -13.437500
20.652569 -1.750043 -14.187500
20.652569 1.749957 -14.187500
1.902569 -17.000044 -13.437500
1.902569 -20.500044 -13.437500
1.902569 -20.500044 -14.187500
1.902569 -17.000044 -14.187500
-1.597432 4.999957 11.687500
-1.597432 8.499957 11.687500
-1.597432 8.499957 -12.187500
-1.597432 4.999957 -12.187500
20.749969 8.749957 13.187500
20.749969 8.749957 12.437500
2.749968 8.749957 12.437500
2.749968 8.749957 13.187500
19.652569 1.749957 -12.187500
20.652569 1.749957 -13.187500
20.652569 1.749957 -13.437500
1.902568 1.749957 -13.437500
1.902568 1.749957 -12.187500
2.749968 5.249957 13.187500
2.749968 8.749957 13.187500
2.749968 8.749957 12.437500
2.749968 5.249957 12.437500
23.152569 1.749957 13.187500
23.152569 -1.750043 13.187500
23.152569 -1.750043 12.687500
23.152569 1.749957 12.687500
-2.750032 8.749957 13.187500
-2.750032 8.749957 12.437500
-20.750023 8.749957 12.437500
-20.750023 8.749957 13.187500
-2.750032 5.249957 12.437500
-2.750032 5.249957 13.187500
-20.750023 5.249957 13.187500
-20.750023 5.249957 12.437500
-1.597432 19.499996 -12.187500
-1.597432 20.499996 -13.187500
-1.597432 20.499996 -13.437500
-1.597432 1.749957 -13.437500
-1.597432 1.749957 -12.187500
-1.597432 16.999996 -13.437500
-1.597432 20.499996 -13.437500
-1.597432 20.499996 -14.187500
-1.597432 16.999996 -14.187500
-8.250032 22.327038 14.187500
-8.250032 -22.459343 14.187500
-19.250023 -0.000043 13.187500
-19.250023 -0.000043 14.187500
-19.250023 -14.017843 14.187500
-19.250023 -14.017843 13.187500
-8.347433 -1.750043 11.687500
-8.347433 1.749957 11.687500
-8.347433 1.749957 -12.187500
-8.347433 -1.750043 -12.187500
1.902568 -1.750043 13.187500
1.902569 -16.468742 13.187500
1.902569 -16.468742 12.687500
1.902569 -15.468743 11.687500
1.902568 15.468747 11.687500
1.902568 16.468746 12.687500
1.902568 16.468746 13.187500
1.902568 1.749957 13.187500
1.902568 1.749957 12.500000
1.902568 -1.750043 12.500000
8.652567 1.749957 11.687500
8.652567 1.749957 -12.187500
5.152568 1.749957 -12.187500
5.152568 1.749957 11.687500
1.902568 20.499996 -13.437500
1.902568 16.999996 -13.437500
1.902568 16.999996 -14.187500
1.902568 20.499996 -14.187500
-13.750032 19.429367 14.187500
-8.250032 22.327038 14.187500
-8.250032 22.327038 13.187500
-13.750032 19.429367 13.187500
12.152567 16.468746 12.437500
12.152567 16.468746 13.187500
-11.847433 16.468746 13.187500
-11.847433 16.468746 12.437500
1.902568 -1.750043 -12.187500
1.902568 1.749957 -12.187500
1.902568 1.749957 -12.937500
1.902568 -1.750043 -12.937500
20.749969 -5.000043 13.187500
20.749969 -5.000043 12.437500
2.749968 -5.000043 12.437500
2.749968 -5.000043 13.187500
17.152569 -1.750043 -13.437500
17.152569 1.749957 -13.437500
17.152569 1.749957 -14.187500
17.152569 -1.750043 -14.187500
2.749968 5.249957 13.187500
20.749969 5.249957 13.187500
20.749969 8.749957 13.187500
2.749968 8.749957 13.187500
8.249968 22.459316 14.187500
8.249969 -22.327044 14.187500
15.843167 -18.027643 14.187500
19.249969 -14.134643 14.187500
19.249969 14.017837 14.187500
18.027569 15.843157 14.187500
12.152569 -19.968742 12.437500
12.152569 -19.968742 13.187500
-11.847433 -19.968742 13.187500
-11.847433 -19.968742 12.437500
-20.347403 -1.750043 -13.187500
-19.347403 -1.750043 -12.187500
-19.347403 1.749957 -12.187500
-20.347403 1.749957 -13.187500
12.152569 -19.968742 12.437500
-11.847433 -19.968742 12.437500
-11.847433 -16.468742 12.437500
12.152569 -16.468742 12.437500
12.152569 -16.468742 13.187500
12.152569 -19.968742 13.187500
12.152569 -19.968742 12.437500
12.152569 -16.468742 12.437500
23.152569 -1.750043 12.687500
22.152569 -1.750043 11.687500
22.152569 1.749957 11.687500
23.152569 1.749957 12.687500
19.652569 1.749957 -12.187500
19.652569 -1.750043 -12.187500
20.652569 -1.750043 -13.187500
20.652569 1.749957 -13.187500
-2.750032 8.749957 13.187500
-2.750032 5.249957 13.187500
-2.750032 5.249957 12.437500
-2.750032 8.749957 12.437500
2.749968 -8.500043 13.187500
20.749969 -8.500043 13.187500
20.749969 -5.000043 13.187500
2.749968 -5.000043 13.187500
-1.597432 -1.750043 11.687500
-21.847403 -1.750043 11.687500
-21.847403 1.749957 11.687500
-1.597432 1.749957 11.687500
20.652569 1.749957 -13.437500
20.652569 -1.750043 -13.437500
1.902568 -1.750043 -13.437500
1.902569 -20.500044 -13.437500
-1.597431 -20.500044 -13.437500
-1.597432 -1.750043 -13.437500
-20.347403 -1.750043 -13.437500
-20.347403 1.749957 -13.437500
-1.597432 1.749957 -13.437500
-1.597432 20.499996 -13.437500
1.902568 20.499996 -13.437500
1.902568 1.749957 -13.437500
20.749969 5.249957 12.437500
20.749969 5.249957 13.187500
2.749968 5.249957 13.187500
2.749968 5.249957 12.437500
-13.750031 -19.586643 13.187500
-19.250023 -14.017843 13.187500
-19.250023 14.134637 13.187500
-13.750032 19.429367 13.187500
1.902568 -1.750043 -13.437500
1.902568 -1.750043 -12.187500
1.902569 -19.500044 -12.187500
1.902569 -20.500044 -13.187500
1.902569 -20.500044 -13.437500
-11.847433 16.468746 13.187500
12.152567 16.468746 13.187500
12.152567 19.968746 13.187500
-11.847433 19.968746 13.187500
1.902569 -20.500044 -13.437500
1.902569 -20.500044 -13.187500
-1.597431 -20.500044 -13.187500
-1.597431 -20.500044 -13.437500
1.902568 20.499996 -13.187500
1.902568 20.499996 -13.437500
-1.597432 20.499996 -13.437500
-1.597432 20.499996 -13.187500
-20.750023 -8.500043 13.187500
-20.750023 -5.000043 13.187500
-20.750023 -5.000043 12.437500
-20.750023 -8.500043 12.437500
-19.250023 14.134637 13.187500
-19.250023 14.134637 14.187500
-19.250023 -0.000043 14.187500
-19.250023 -0.000043 13.187500
-20.347403 -1.750043 -13.437500
-16.847403 -1.750043 -13.437500
-16.847403 1.749957 -13.437500
-20.347403 1.749957 -13.437500
1.902568 19.499996 -12.187500
1.902568 20.499996 -13.187500
-1.597432 20.499996 -13.187500
-1.597432 19.499996 -12.187500
-1.597432 -1.750043 12.437500
1.902568 -1.750043 12.437500
1.902568 -1.750043 11.687500
22.152569 -1.750043 11.687500
23.152569 -1.750043 12.687500
23.152569 -1.750043 13.187500
-22.847403 -1.750043 13.187500
-22.847403 -1.750043 12.687500
-21.847403 -1.750043 11.687500
-1.597432 -1.750043 11.687500
-2.750032 -21.000044 13.187500
-2.750032 20.999996 13.187500
-2.750032 23.664244 13.187500
2.749968 -0.000043 13.187500
-2.750032 -23.711742 13.187500
1.902568 15.468747 11.687500
1.902569 -15.468743 11.687500
-1.597431 -15.468743 11.687500
-1.597432 15.468747 11.687500
-1.597432 16.468746 13.187500
1.902568 16.468746 13.187500
1.902568 16.468746 12.687500
-1.597432 16.468746 12.687500
-2.750032 23.664244 13.187500
-2.750032 23.664244 14.187500
-2.750032 -23.711742 14.187500
-2.750032 -23.711742 13.187500
-1.597431 -20.500044 -13.437500
-1.597431 -17.000044 -13.437500
-1.597431 -17.000044 -14.187500
-1.597431 -20.500044 -14.187500
-19.250023 14.134637 14.187500
-19.250023 14.134637 13.187500
-23.950268 1.544657 13.187500
-23.950268 1.544657 14.187500
1.902568 1.749957 13.187500
1.902568 16.468746 13.187500
-1.597432 16.468746 13.187500
-1.597432 1.749957 13.187500
-1.597432 -1.750043 -12.187500
-1.597432 1.749957 -12.187500
-1.597432 1.749957 -12.937500
-1.597432 -1.750043 -12.937500
-1.597432 -1.750043 13.187500
1.902568 -1.750043 13.187500
1.902568 -1.750043 12.500000
-1.597432 -1.750043 12.500000
1.902569 -16.468742 13.187500
1.902568 -1.750043 13.187500
-1.597432 -1.750043 13.187500
-1.597431 -16.468742 13.187500
20.749969 -5.000043 13.187500
20.749969 -8.500043 13.187500
20.749969 -8.500043 12.437500
20.749969 -5.000043 12.437500
-21.847403 -1.750043 11.687500
-22.847403 -1.750043 12.687500
-22.847403 1.749957 12.687500
-21.847403 1.749957 11.687500
1.902569 -20.500044 -14.187500
1.902569 -20.500044 -13.437500
-1.597431 -20.500044 -13.437500
-1.597431 -20.500044 -14.187500
13.749968 19.586607 14.187500
13.749968 19.586607 13.187500
13.749969 -0.000043 13.187500
13.749969 -0.000043 14.187500
20.652569 -1.750043 -14.187500
20.652569 -1.750043 -13.437500
17.152569 -1.750043 -13.437500
17.152569 -1.750043 -14.187500
1.902568 -1.750043 12.500000
1.902568 1.749957 12.500000
-1.597432 1.749957 12.500000
-1.597432 -1.750043 12.500000
12.152569 -16.468742 13.187500
12.152569 -16.468742 12.437500
-11.847433 -16.468742 12.437500
-11.847433 -16.468742 13.187500
1.902569 -5.000043 11.687500
1.902569 -8.500043 11.687500
1.902569 -8.500043 -12.187500
1.902569 -5.000043 -12.187500
23.152569 1.749957 13.187500
23.152569 1.749957 12.687500
22.152569 1.749957 11.687500
1.902568 1.749957 11.687500
1.902568 1.749957 12.437500
-1.597432 1.749957 12.437500
-1.597432 1.749957 11.687500
-21.847403 1.749957 11.687500
-22.847403 1.749957 12.687500
-22.847403 1.749957 13.187500
-1.597431 -20.500044 -13.187500
1.902569 -20.500044 -13.187500
1.902569 -19.500044 -12.187500
-1.597431 -19.500044 -12.187500
2.749968 -8.500043 13.187500
2.749968 -5.000043 13.187500
2.749968 -5.000043 12.437500
2.749968 -8.500043 12.437500
-11.847433 -19.968742 13.187500
-11.847433 -16.468742 13.187500
-11.847433 -16.468742 12.437500
-11.847433 -19.968742 12.437500
20.749969 5.249957 12.437500
2.749968 5.249957 12.437500
2.749968 8.749957 12.437500
20.749969 8.749957 12.437500
1.902568 1.749957 -12.187500
1.902568 -1.750043 -12.187500
1.902568 -1.750043 -12.937500
1.902568 1.749957 -12.937500
22.152569 -1.750043 11.687500
1.902568 -1.750043 11.687500
1.902568 1.749957 11.687500
22.152569 1.749957 11.687500
-22.847403 -1.750043 13.187500
23.152569 -1.750043 13.187500
23.152569 1.749957 13.187500
-22.847403 1.749957 13.187500
20.749969 -8.500043 12.437500
20.749969 -8.500043 13.187500
2.749968 -8.500043 13.187500
2.749968 -8.500043 12.437500
20.749969 8.749957 13.187500
20.749969 5.249957 13.187500
20.749969 5.249957 12.437500
20.749969 8.749957 12.437500
1.902568 19.499996 -12.187500
1.902568 1.749957 -12.187500
1.902568 1.749957 -13.437500
1.902568 20.499996 -13.437500
1.902568 20.499996 -13.187500
20.652569 1.749957 -13.187500
20.652569 -1.750043 -13.187500
20.652569 -1.750043 -13.437500
20.652569 1.749957 -13.437500
-2.750032 5.249957 12.437500
-20.750023 5.249957 12.437500
-20.750023 8.749957 12.437500
-2.750032 8.749957 12.437500
1.902568 -1.750043 12.437500
1.902568 1.749957 12.437500
1.902568 1.749957 11.687500
1.902568 -1.750043 11.687500
20.749969 -8.500043 12.437500
2.749968 -8.500043 12.437500
2.749968 -5.000043 12.437500
20.749969 -5.000043 12.437500
-20.750023 5.249957 13.187500
-20.750023 8.749957 13.187500
-20.750023 8.749957 12.437500
-20.750023 5.249957 12.437500
1.902568 16.468746 12.687500
1.902568 15.468747 11.687500
-1.597432 15.468747 11.687500
-1.597432 16.468746 12.687500
-1.597432 1.749957 12.437500
-1.597432 -1.750043 12.437500
-1.597432 -1.750043 11.687500
-1.597432 1.749957 11.687500
-1.597431 -19.500044 -12.187500
-1.597432 -1.750043 -12.187500
-1.597432 -1.750043 -13.437500
-1.597431 -20.500044 -13.437500
-1.597431 -20.500044 -13.187500
1.902568 16.999996 -14.187500
1.902568 16.999996 -13.437500
-1.597432 16.999996 -13.437500
-1.597432 16.999996 -14.187500
-4.847432 1.749957 11.687500
-4.847432 1.749957 -12.187500
-8.347433 1.749957 -12.187500
-8.347433 1.749957 11.687500
-16.847403 1.749957 -13.437500
-16.847403 1.749957 -14.187500
-20.347403 1.749957 -14.187500
-20.347403 1.749957 -13.437500
1.902568 -1.750043 -13.437500
1.902568 -1.750043 -12.937500
-1.597432 -1.750043 -12.937500
-1.597432 -1.750043 -13.437500
-16.847403 -1.750043 -14.187500
-16.847403 -1.750043 -13.437500
-20.347403 -1.750043 -13.437500
-20.347403 -1.750043 -14.187500
12.152567 19.968746 13.187500
12.152567 19.968746 12.437500
-11.847433 19.968746 12.437500
-11.847433 19.968746 13.187500
-21.513851 -10.637443 13.187500
-23.950268 1.544657 13.187500
12.152567 19.968746 13.187500
12.152567 16.468746 13.187500
12.152567 16.468746 12.437500
12.152567 19.968746 12.437500
-11.847433 16.468746 13.187500
-11.847433 19.968746 13.187500
-11.847433 19.968746 12.437500
-11.847433 16.468746 12.437500
-20.750023 -8.500043 13.187500
-2.750032 -8.500043 13.187500
-2.750032 -5.000043 13.187500
-20.750023 -5.000043 13.187500
23.950268 -1.544643 13.187500
23.950268 -1.544643 14.187500
19.969170 -13.312843 14.187500
19.969170 -13.312843 13.187500
-21.513851 -10.637443 14.187500
-21.513851 -10.637443 13.187500
-19.250023 -14.017843 13.187500
-19.250023 -14.017843 14.187500
-20.347403 -1.750043 -13.187500
-20.347403 1.749957 -13.187500
-20.347403 1.749957 -13.437500
-20.347403 -1.750043 -13.437500
-19.250023 14.134637 14.187500
-13.750032 19.429367 14.187500
-13.750032 19.429367 13.187500
-19.250023 14.134637 13.187500
-2.750032 -5.000043 13.187500
-2.750032 -8.500043 13.187500
-2.750032 -8.500043 12.437500
-2.750032 -5.000043 12.437500
-23.950268 1.544657 14.187500
-21.513851 -10.637443 14.187500
-2.750032 -8.500043 12.437500
-20.750023 -8.500043 12.437500
-20.750023 -5.000043 12.437500
-2.750032 -5.000043 12.437500
21.513767 10.637457 14.187500
21.513767 10.637457 13.187500
-8.250032 -0.000043 13.187500
-8.250032 22.327038 13.187500
-8.250032 20.999996 13.187500
-13.750032 -0.000043 13.187500
-13.750032 -0.000043 14.187500
-13.750031 -19.586643 14.187500
-13.750031 -19.586643 13.187500
-8.250032 -22.459343 13.187500
-8.250032 -21.000044 13.187500
-13.750032 19.429367 14.187500
-13.750032 19.429367 13.187500
-13.750032 -0.000043 13.187500
-13.750032 -0.000043 14.187500
8.652567 -1.750043 -12.187500
5.152568 -1.750043 -12.187500
5.152568 1.749957 -12.187500
8.652567 1.749957 -12.187500
-1.597432 16.999996 -13.437500
1.902568 16.999996 -13.437500
1.902568 20.499996 -13.437500
-1.597432 20.499996 -13.437500
-8.347433 -1.750043 11.687500
-4.847432 -1.750043 11.687500
-4.847432 1.749957 11.687500
-8.347433 1.749957 11.687500
-2.750032 -0.000043 13.187500
-4.847432 1.749957 11.687500
-4.847432 -1.750043 11.687500
-4.847432 -1.750043 -12.187500
-4.847432 1.749957 -12.187500
5.152568 -1.750043 11.687500
5.152568 1.749957 11.687500
5.152568 1.749957 -12.187500
5.152568 -1.750043 -12.187500
-2.750032 23.664244 14.187500
2.749968 23.711786 14.187500
2.749968 23.711786 13.187500
-2.750032 23.664244 13.187500
-1.597432 -1.750043 13.187500
-1.597432 -1.750043 12.500000
-1.597432 1.749957 12.500000
-1.597432 1.749957 13.187500
-1.597432 16.468746 13.187500
-1.597432 16.468746 12.687500
-1.597432 15.468747 11.687500
-1.597431 -15.468743 11.687500
-1.597431 -16.468742 12.687500
-1.597431 -16.468742 13.187500
-8.250032 22.327038 14.187500
-8.250032 -22.459343 14.187500
-8.250032 -22.459343 13.187500
-8.250032 22.327038 13.187500
8.652567 -1.750043 -12.187500
8.652567 -1.750043 11.687500
5.152568 -1.750043 11.687500
5.152568 -1.750043 -12.187500
8.652567 1.749957 11.687500
8.652567 -1.750043 11.687500
8.652567 -1.750043 -12.187500
8.652567 1.749957 -12.187500
-1.597432 -1.750043 -12.937500
1.902568 -1.750043 -12.937500
1.902568 1.749957 -12.937500
-1.597432 1.749957 -12.937500
-1.597431 -8.500043 11.687500
1.902569 -8.500043 11.687500
1.902569 -5.000043 11.687500
-1.597431 -5.000043 11.687500
17.152569 -1.750043 -13.437500
20.652569 -1.750043 -13.437500
20.652569 1.749957 -13.437500
17.152569 1.749957 -13.437500
-16.847403 1.749957 -13.437500
-16.847403 -1.750043 -13.437500
-16.847403 -1.750043 -14.187500
-16.847403 1.749957 -14.187500
13.749968 19.586607 14.187500
13.749968 19.586607 13.187500
1.902568 16.999996 -14.187500
-1.597432 16.999996 -14.187500
-1.597432 20.499996 -14.187500
1.902568 20.499996 -14.187500
1.902568 1.749957 13.187500
-1.597432 1.749957 13.187500
-1.597432 1.749957 12.500000
1.902568 1.749957 12.500000
1.902568 4.999957 -12.187500
-1.597432 4.999957 -12.187500
-1.597432 8.499957 -12.187500
1.902568 8.499957 -12.187500
1.902568 8.499957 11.687500
1.902568 8.499957 -12.187500
-1.597432 8.499957 -12.187500
-1.597432 8.499957 11.687500
2.749968 23.711786 13.187500
2.749968 23.711786 14.187500
2.749968 -23.664244 14.187500
2.749968 -23.664244 13.187500
1.902568 4.999957 -12.187500
1.902568 4.999957 11.687500
-1.597432 4.999957 11.687500
-1.597432 4.999957 -12.187500
1.902568 8.499957 11.687500
1.902568 4.999957 11.687500
1.902568 4.999957 -12.187500
1.902568 8.499957 -12.187500
-1.597432 4.999957 11.687500
1.902568 4.999957 11.687500
1.902568 8.499957 11.687500
-1.597432 8.499957 11.687500
13.749969 -0.000043 13.187500
13.749969 -0.000043 14.187500
13.749969 -19.429342 14.187500
13.749969 -19.429342 13.187500
8.249968 22.459316 14.187500
8.249969 -22.327044 14.187500
8.249969 -22.327044 13.187500
8.249968 22.459316 13.187500
1.902569 -8.500043 -12.187500
1.902569 -8.500043 11.687500
-1.597431 -8.500043 11.687500
-1.597431 -8.500043 -12.187500
-22.847403 -1.750043 13.187500
-22.847403 1.749957 13.187500
-22.847403 1.749957 12.687500
-22.847403 -1.750043 12.687500
2.749968 23.711786 14.187500
8.249968 22.459316 14.187500
8.249968 22.459316 13.187500
2.749968 23.711786 13.187500
-1.597431 -8.500043 11.687500
-1.597431 -5.000043 11.687500
-1.597431 -5.000043 -12.187500
-1.597431 -8.500043 -12.187500
1.902569 -16.468742 13.187500
-1.597431 -16.468742 13.187500
-1.597431 -16.468742 12.687500
1.902569 -16.468742 12.687500
20.652569 -1.750043 -14.187500
17.152569 -1.750043 -14.187500
17.152569 1.749957 -14.187500
20.652569 1.749957 -14.187500
13.749969 -19.429342 14.187500
13.749969 -19.429342 13.187500
-1.597432 1.749957 -12.187500
-1.597432 1.749957 -13.437500
-20.347403 1.749957 -13.437500
-20.347403 1.749957 -13.187500
-19.347403 1.749957 -12.187500
-1.597431 -20.500044 -13.437500
1.902569 -20.500044 -13.437500
1.902569 -17.000044 -13.437500
-1.597431 -17.000044 -13.437500
1.902569 -15.468743 11.687500
1.902569 -16.468742 12.687500
-1.597431 -16.468742 12.687500
-1.597431 -15.468743 11.687500
8.249968 22.459316 14.187500
13.749968 19.586607 14.187500
13.749968 19.586607 13.187500
8.249968 22.459316 13.187500
-8.250032 22.327038 14.187500
-2.750032 23.664244 14.187500
-2.750032 23.664244 13.187500
-8.250032 22.327038 13.187500
21.513767 10.637457 13.187500
23.950268 -1.544643 13.187500
19.969170 -13.312843 13.187500
1.902569 -5.000043 11.687500
1.902569 -5.000043 -12.187500
-1.597431 -5.000043 -12.187500
-1.597431 -5.000043 11.687500
1.902569 -20.500044 -14.187500
-1.597431 -20.500044 -14.187500
-1.597431 -17.000044 -14.187500
1.902569 -17.000044 -14.187500
19.249969 14.017837 13.187500
19.249969 -14.134643 13.187500
19.249969 -14.134643 14.187500
19.249969 14.017837 14.187500
1.902569 -17.000044 -13.437500
1.902569 -17.000044 -14.187500
-1.597431 -17.000044 -14.187500
-1.597431 -17.000044 -13.437500
-1.544632 -23.950243 14.187500
-7.690832 -22.734343 14.187500
-8.250032 -22.459343 14.187500
-8.250032 -22.459343 13.187500
-7.690832 -22.734343 13.187500
-1.544632 -23.950243 13.187500
2.749968 -23.664244 13.187500
2.749968 -23.664244 14.187500
19.969170 -13.312843 14.187500
23.950268 -1.544643 14.187500
21.513767 10.637457 14.187500
1.902569 -8.500043 -12.187500
-1.597431 -8.500043 -12.187500
-1.597431 -5.000043 -12.187500
1.902569 -5.000043 -12.187500
1.902568 1.749957 -13.437500
1.902568 1.749957 -12.937500
-1.597432 1.749957 -12.937500
-1.597432 1.749957 -13.437500
-19.250023 -14.017843 14.187500
-19.250023 -14.017843 13.187500
-13.750031 -19.586643 13.187500
-13.750031 -19.586643 14.187500
8.249969 -22.327044 14.187500
2.749968 -23.664244 14.187500
2.749968 -23.664244 13.187500
8.249969 -22.327044 13.187500
-8.250032 -22.459343 14.187500
-13.750031 -19.586643 14.187500
-13.750031 -19.586643 13.187500
-8.250032 -22.459343 13.187500
4 0 1 2 3
4 4 5 6 7
4 8 9 10 11
4 12 13 14 15
4 16 17 18 19
4 20 21 22 23
4 24 25 26 27
5 28 29 30 31 32
4 33 34 35 36
4 37 38 39 40
6 41 42 43 44 45 46
4 47 48 49 50
5 43 51 52 53 54
4 55 56 57 58
4 59 60 61 62
4 63 64 65 66
4 67 68 69 70
12 71 72 73 74 75 76 77 78 79 80 81 82
4 83 84 85 86
4 87 88 89 90
5 91 92 93 94 95
4 96 97 98 99
4 100 101 102 103
4 104 105 106 107
4 108 109 110 111
5 112 113 114 115 116
4 117 118 119 120
4 121 122 123 124
4 125 126 127 128
4 129 130 131 132
5 133 134 135 136 137
4 138 139 140 141
4 142 143 59 62
4 144 145 146 147
4 148 149 150 151
10 152 153 154 155 156 157 158 159 160 161
4 162 163 164 165
4 166 167 168 169
4 170 171 172 173
4 174 175 176 177
4 178 179 180 181
4 182 183 184 185
4 186 187 188 189
4 190 191 192 193
6 194 195 196 197 198 199
4 200 201 202 203
4 204 205 206 207
4 208 209 210 211
4 212 213 214 215
4 216 217 218 219
4 220 221 222 223
4 224 225 226 227
4 228 229 230 231
4 232 233 234 235
12 236 237 238 239 240 241 242 243 244 245 246 247
4 248 249 250 251
4 252 253 254 255
5 256 257 258 259 260
4 261 262 263 264
4 265 266 267 268
4 269 270 271 272
4 273 274 275 276
4 277 278 279 280
4 281 282 283 284
4 285 286 287 288
10 289 290 291 292 293 294 295 296 297 298
7 299 300 301 41 302 44 303
4 304 305 306 307
4 308 309 310 311
4 312 313 314 315
4 316 317 318 319
4 320 321 322 323
3 51 43 42
4 324 325 326 327
4 328 329 330 331
4 332 333 334 335
4 336 337 338 339
4 340 341 342 343
4 344 345 346 347
4 348 349 350 351
4 352 353 354 355
4 356 357 358 359
4 360 361 362 363
4 364 365 366 367
4 368 369 370 371
10 372 373 374 375 376 377 378 379 380 381
4 382 383 384 385
4 386 387 388 389
4 390 391 392 393
4 394 395 396 397
4 398 399 400 401
4 402 403 404 405
4 406 407 408 409
4 410 411 412 413
4 414 415 416 417
5 418 419 420 421 422
4 423 424 425 426
4 427 428 429 430
4 431 432 433 434
4 435 436 437 438
4 439 440 441 442
4 443 444 445 446
4 447 448 449 450
5 451 452 453 454 455
4 456 457 458 459
4 460 461 462 463
4 464 465 466 467
4 468 469 470 471
4 472 473 474 475
4 476 477 478 479
4 254 253 480 481
4 482 483 484 485
4 486 487 488 489
4 490 491 492 493
4 494 495 496 497
4 498 499 500 501
4 502 503 504 505
4 506 507 508 509
4 510 511 512 513
4 86 85 514 515
4 516 517 518 519
4 520 495 494 521
3 522 523 524
4 525 526 527 528
5 523 522 529 252 255
3 529 522 530
4 531 532 533 534
4 535 536 537 538
4 539 540 541 542
4 543 544 545 546
4 323 322 499 498
4 84 83 143 142
7 547 303 529 530 524 523 301
3 547 301 300
4 548 549 550 551
3 303 547 299
3 530 522 524
4 552 553 554 555
4 556 557 558 559
10 560 561 562 563 564 565 566 567 568 569
4 570 571 572 573
4 574 575 576 577
4 578 579 580 581
3 302 41 46
4 582 583 584 585
3 44 302 45
3 299 547 300
4 586 587 588 589
4 590 591 592 593
4 594 595 596 597
4 598 520 521 599
4 600 601 602 603
4 604 605 606 607
4 608 609 610 611
3 45 302 46
4 612 613 614 615
4 616 617 618 619
4 195 194 61 60
4 620 621 622 623
4 624 625 626 627
4 628 629 630 631
4 632 633 634 635
4 636 637 638 639
4 640 641 642 643
4 644 645 646 647
4 648 649 650 651
4 652 653 654 655
4 656 657 658 659
4 660 661 662 663
4 664 665 497 496
5 666 667 668 669 670
4 671 672 673 674
4 675 676 677 678
4 679 680 681 682
4 683 684 685 686
5 53 52 687 688 689
4 690 691 692 693
4 694 695 696 697
4 698 699 700 701
4 702 703 704 705
8 706 707 708 709 710 711 712 713
5 714 715 716 198 197
4 717 718 719 720
4 721 722 723 724
4 725 726 727 728
4 729 730 731 732
4 733 734 735 736
