ply
format ascii 1.0
comment Created by Blender 2.82 (sub 7) - www.blender.org, source file: ''
element vertex 607
property float x
property float y
property float z
element face 174
property list uchar uint vertex_indices
end_header
-2.823220 -26.198223 10.750000
-2.823220 -26.198223 14.250000
-2.783490 -26.250000 14.250000
-2.783490 -26.250000 10.750000
-2.935300 -26.133518 14.250000
-2.935300 -26.133518 10.750000
7.750000 27.000000 10.000000
7.750000 27.000000 -15.000000
7.750000 25.750000 -15.000000
7.750000 25.750000 10.000000
8.616500 -3.064700 14.250000
8.551800 -3.176800 14.250000
8.551800 -3.176800 10.750000
8.616500 -3.064700 10.750000
-8.133518 3.064700 14.250000
-8.133518 2.935300 14.250000
-8.133518 2.935300 10.750000
-8.133518 3.064700 10.750000
2.935300 26.616501 10.750000
3.064700 26.616501 10.750000
3.176800 26.551800 10.750000
3.241500 26.439699 10.750000
3.241500 26.310301 10.750000
3.176800 26.198200 10.750000
3.064700 26.133499 10.750000
2.935300 26.133499 10.750000
2.823200 26.198200 10.750000
2.758500 26.310301 10.750000
2.758500 26.439699 10.750000
2.823200 26.551800 10.750000
-3.176780 26.551800 14.250000
-3.176780 26.551800 10.750000
-3.216510 26.500000 10.750000
-3.216510 26.500000 14.250000
2.935300 26.616501 14.250000
3.064700 26.616501 14.250000
3.064700 26.616501 10.750000
2.935300 26.616501 10.750000
7.750000 25.750000 14.500000
7.750000 -25.750000 14.500000
-7.750000 -25.750000 14.500000
-7.750000 25.750000 14.500000
9.000000 25.750000 14.250000
7.750000 25.750000 14.250000
7.750000 25.750000 10.750000
9.000000 25.750000 10.750000
-8.198223 -2.823200 14.250000
-8.133518 -2.935300 14.250000
-8.133518 -2.935300 10.750000
-8.198223 -2.823200 10.750000
9.000000 27.000000 15.000000
9.000000 -27.000000 15.000000
9.000000 -27.000000 -15.000000
9.000000 -25.750000 -15.000000
9.000000 -25.750000 14.250000
9.000000 25.750000 14.250000
9.000000 25.750000 10.750000
9.000000 -25.750000 10.750000
9.000000 -25.750000 10.000000
9.000000 25.750000 10.000000
9.000000 25.750000 -15.000000
9.000000 27.000000 -15.000000
8.310300 2.758500 10.750000
8.310300 2.758500 14.250000
8.198200 2.823200 14.250000
8.198200 2.823200 10.750000
-8.616481 3.064700 14.250000
-8.616481 3.064700 10.750000
-8.616481 2.935300 10.750000
-8.616481 2.935300 14.250000
2.823200 26.551800 10.750000
2.758500 26.439699 10.750000
2.758500 26.439699 14.250000
2.823200 26.551800 14.250000
7.750000 25.750000 10.750000
7.750000 -25.750000 10.000000
7.750000 -25.750000 10.750000
-9.000000 -25.750000 14.250000
-7.750000 -25.750000 14.250000
-7.750000 -25.750000 10.750000
-9.000000 -25.750000 10.750000
-9.000000 -25.750000 -15.000000
-9.000000 -25.750000 14.250000
-9.000000 -25.750000 10.750000
-9.000000 -25.750000 10.000000
-7.750000 27.000000 -15.000000
-7.750000 27.000000 10.000000
-7.750000 25.750000 10.000000
-7.750000 25.750000 -15.000000
9.000000 25.750000 10.000000
7.750000 25.750000 10.000000
7.750000 25.750000 -15.000000
9.000000 25.750000 -15.000000
7.750000 27.000000 14.250000
7.750000 25.750000 14.250000
-7.750000 25.750000 14.250000
-7.750000 27.000000 14.250000
3.176800 26.551800 14.250000
3.176800 26.551800 10.750000
-7.750000 25.750000 14.250000
-9.000000 25.750000 14.250000
-9.000000 25.750000 10.750000
-7.750000 25.750000 10.750000
9.000000 25.750000 14.250000
9.000000 -25.750000 14.250000
7.750000 -25.750000 14.250000
3.241500 26.310301 10.750000
3.241500 26.310301 14.250000
3.176800 26.198200 14.250000
3.176800 26.198200 10.750000
7.750000 -25.750000 10.000000
9.000000 -25.750000 10.000000
9.000000 -25.750000 -15.000000
7.750000 -25.750000 -15.000000
-3.064700 26.133499 14.250000
-3.176780 26.198200 14.250000
-3.176780 26.198200 10.750000
-3.064700 26.133499 10.750000
-7.750000 -25.750000 10.750000
-7.750000 25.750000 10.750000
-9.000000 25.750000 10.750000
-9.000000 -25.750000 10.750000
-2.823220 26.198200 14.250000
-2.935300 26.133499 14.250000
-2.935300 26.133499 10.750000
-2.823220 26.198200 10.750000
-2.823220 26.551800 10.750000
-2.823220 26.551800 14.250000
-2.783490 26.500000 14.250000
-2.783490 26.500000 10.750000
8.310300 -2.758500 14.250000
8.310300 -2.758500 10.750000
8.198200 -2.823200 10.750000
8.198200 -2.823200 14.250000
-7.750000 25.750000 15.000000
-7.750000 25.750000 14.500000
-7.750000 -25.750000 14.500000
-7.750000 -25.750000 15.000000
-7.750000 25.750000 10.000000
2.823200 26.198200 10.750000
2.823200 26.198200 14.250000
2.758500 26.310301 14.250000
2.758500 26.310301 10.750000
8.551800 3.176800 14.250000
8.616500 3.064700 14.250000
8.616500 3.064700 10.750000
8.551800 3.176800 10.750000
-3.064700 -26.133518 10.750000
-2.935300 -26.133518 10.750000
-2.823220 -26.198223 10.750000
-2.783490 -26.250000 10.750000
-2.750000 -26.375000 10.750000
-2.783490 -26.500000 10.750000
-2.823220 -26.551777 10.750000
-2.935300 -26.616482 10.750000
-3.064700 -26.616482 10.750000
-3.176780 -26.551777 10.750000
-3.216510 -26.500000 10.750000
-3.250000 -26.375000 10.750000
-3.216510 -26.250000 10.750000
-3.176780 -26.198223 10.750000
-3.216510 -26.250000 10.750000
-3.250000 -26.375000 10.750000
-3.250000 -26.375000 14.250000
-3.216510 -26.250000 14.250000
-8.133518 -3.064700 14.250000
-8.198223 -3.176800 14.250000
-8.198223 -3.176800 10.750000
-8.133518 -3.064700 10.750000
8.616500 2.935300 14.250000
8.616500 2.935300 10.750000
7.750000 -27.000000 14.250000
-7.750000 -27.000000 14.250000
-7.750000 -25.750000 14.250000
-7.750000 -25.750000 -15.000000
-7.750000 -25.750000 10.000000
-7.750000 -27.000000 10.000000
-7.750000 -27.000000 -15.000000
-2.783490 -26.500000 14.250000
-2.750000 -26.375000 14.250000
-2.783490 -26.250000 14.250000
-2.823220 -26.198223 14.250000
-2.935300 -26.133518 14.250000
-3.064700 -26.133518 14.250000
-3.176780 -26.198223 14.250000
-3.216510 -26.250000 14.250000
-3.250000 -26.375000 14.250000
-3.216510 -26.500000 14.250000
-3.176780 -26.551777 14.250000
-3.064700 -26.616482 14.250000
-2.935300 -26.616482 14.250000
-2.823220 -26.551777 14.250000
-8.198223 3.176800 14.250000
-8.198223 3.176800 10.750000
-8.310295 3.241500 10.750000
-8.310295 3.241500 14.250000
-3.250000 26.375000 10.750000
-3.250000 26.375000 14.250000
-7.750000 25.750000 15.000000
7.750000 25.750000 15.000000
9.000000 27.000000 15.000000
-9.000000 27.000000 15.000000
-3.216510 -26.500000 10.750000
-3.216510 -26.500000 14.250000
-8.551777 3.176800 10.750000
-8.551777 3.176800 14.250000
-8.439705 3.241500 14.250000
-8.439705 3.241500 10.750000
-2.750000 -26.375000 14.250000
-2.750000 -26.375000 10.750000
-2.783490 -26.500000 14.250000
-2.783490 -26.500000 10.750000
-9.000000 25.750000 10.000000
-9.000000 25.750000 -15.000000
-7.750000 25.750000 -15.000000
2.823200 -26.198223 14.250000
2.823200 -26.198223 10.750000
2.758500 -26.310295 10.750000
2.758500 -26.310295 14.250000
2.823200 -26.551777 10.750000
2.823200 -26.551777 14.250000
2.758500 -26.439705 14.250000
2.758500 -26.439705 10.750000
7.750000 -25.750000 -15.000000
7.750000 -27.000000 -15.000000
7.750000 -27.000000 10.000000
2.758500 -26.310295 10.750000
2.823200 -26.198223 10.750000
2.935300 -26.133518 10.750000
3.064700 -26.133518 10.750000
3.176800 -26.198223 10.750000
3.241500 -26.310295 10.750000
3.241500 -26.439705 10.750000
3.176800 -26.551777 10.750000
3.064700 -26.616482 10.750000
2.935300 -26.616482 10.750000
2.823200 -26.551777 10.750000
2.758500 -26.439705 10.750000
3.241500 26.439699 14.250000
3.176800 26.551800 14.250000
3.064700 26.616501 14.250000
2.935300 26.616501 14.250000
2.823200 26.551800 14.250000
2.758500 26.439699 14.250000
2.758500 26.310301 14.250000
2.823200 26.198200 14.250000
2.935300 26.133499 14.250000
3.064700 26.133499 14.250000
3.176800 26.198200 14.250000
3.241500 26.310301 14.250000
2.935300 26.133499 14.250000
2.935300 26.133499 10.750000
-9.000000 -27.000000 15.000000
-7.750000 -27.000000 14.250000
7.750000 -27.000000 14.250000
7.750000 -27.000000 10.750000
-7.750000 -27.000000 10.000000
7.750000 -27.000000 10.000000
7.750000 -27.000000 -15.000000
9.000000 -27.000000 -15.000000
9.000000 -27.000000 15.000000
7.750000 27.000000 10.000000
7.750000 27.000000 10.750000
7.750000 27.000000 14.250000
9.000000 27.000000 15.000000
9.000000 27.000000 -15.000000
7.750000 27.000000 -15.000000
-7.750000 27.000000 -15.000000
-7.750000 25.750000 -15.000000
-9.000000 25.750000 -15.000000
-9.000000 27.000000 -15.000000
3.241500 -26.439705 14.250000
3.241500 -26.310295 14.250000
3.176800 -26.198223 14.250000
3.064700 -26.133518 14.250000
2.935300 -26.133518 14.250000
2.823200 -26.198223 14.250000
2.758500 -26.310295 14.250000
2.758500 -26.439705 14.250000
2.823200 -26.551777 14.250000
2.935300 -26.616482 14.250000
3.064700 -26.616482 14.250000
3.176800 -26.551777 14.250000
-8.310295 -3.241500 10.750000
-8.310295 -3.241500 14.250000
-8.439705 -3.241500 14.250000
-8.439705 -3.241500 10.750000
-3.216510 26.250000 10.750000
-3.216510 26.250000 14.250000
-2.783490 26.500000 14.250000
-2.823220 26.551800 14.250000
-2.935300 26.616501 14.250000
-3.064700 26.616501 14.250000
-3.176780 26.551800 14.250000
-3.216510 26.500000 14.250000
-3.250000 26.375000 14.250000
-3.216510 26.250000 14.250000
-3.176780 26.198200 14.250000
-3.064700 26.133499 14.250000
-2.935300 26.133499 14.250000
-2.823220 26.198200 14.250000
-2.783490 26.250000 14.250000
-2.750000 26.375000 14.250000
3.241500 -26.439705 14.250000
3.176800 -26.551777 14.250000
3.176800 -26.551777 10.750000
3.241500 -26.439705 10.750000
-2.935300 26.616501 14.250000
-2.935300 26.616501 10.750000
8.439700 2.758500 10.750000
8.439700 2.758500 14.250000
-3.064700 -26.133518 14.250000
-3.064700 -26.133518 10.750000
7.750000 -25.750000 10.750000
-7.750000 -25.750000 10.000000
-7.750000 -25.750000 -15.000000
-7.750000 -27.000000 -15.000000
-9.000000 -27.000000 -15.000000
-9.000000 -25.750000 -15.000000
-8.551777 -2.823200 10.750000
-8.551777 -2.823200 14.250000
-8.439705 -2.758500 14.250000
-8.439705 -2.758500 10.750000
-9.000000 -25.750000 14.250000
-9.000000 25.750000 14.250000
-8.439705 -3.241500 10.750000
-8.551777 -3.176800 10.750000
-8.616481 -3.064700 10.750000
-8.616481 -2.935300 10.750000
-8.551777 -2.823200 10.750000
-8.439705 -2.758500 10.750000
-8.310295 -2.758500 10.750000
-8.198223 -2.823200 10.750000
-8.133518 -2.935300 10.750000
-8.133518 -3.064700 10.750000
-8.198223 -3.176800 10.750000
-8.310295 -3.241500 10.750000
8.133500 -2.935300 14.250000
8.133500 -2.935300 10.750000
8.439700 3.241500 10.750000
8.439700 3.241500 14.250000
-8.439705 -3.241500 14.250000
-8.310295 -3.241500 14.250000
-8.198223 -3.176800 14.250000
-8.133518 -3.064700 14.250000
-8.133518 -2.935300 14.250000
-8.198223 -2.823200 14.250000
-8.310295 -2.758500 14.250000
-8.439705 -2.758500 14.250000
-8.551777 -2.823200 14.250000
-8.616481 -2.935300 14.250000
-8.616481 -3.064700 14.250000
-8.551777 -3.176800 14.250000
7.750000 -25.750000 14.250000
9.000000 -25.750000 14.250000
9.000000 -25.750000 10.750000
-8.551777 -3.176800 14.250000
-8.616481 -3.064700 14.250000
-8.616481 -3.064700 10.750000
-8.551777 -3.176800 10.750000
8.439700 -2.758500 14.250000
8.439700 -2.758500 10.750000
8.133500 -3.064700 14.250000
8.133500 -3.064700 10.750000
-7.750000 27.000000 10.750000
-7.750000 27.000000 14.250000
-7.750000 25.750000 14.250000
-7.750000 25.750000 10.750000
8.439700 -3.241500 14.250000
8.310300 -3.241500 14.250000
8.310300 -3.241500 10.750000
8.439700 -3.241500 10.750000
7.750000 -25.750000 15.000000
-7.750000 -25.750000 15.000000
-9.000000 -27.000000 15.000000
9.000000 -27.000000 15.000000
-3.176780 -26.551777 10.750000
-3.176780 -26.551777 14.250000
-3.064700 -26.616482 14.250000
-3.064700 -26.616482 10.750000
-8.310295 2.758500 10.750000
-8.439705 2.758500 10.750000
-8.551777 2.823200 10.750000
-8.616481 2.935300 10.750000
-8.616481 3.064700 10.750000
-8.551777 3.176800 10.750000
-8.439705 3.241500 10.750000
-8.310295 3.241500 10.750000
-8.198223 3.176800 10.750000
-8.133518 3.064700 10.750000
-8.133518 2.935300 10.750000
-8.198223 2.823200 10.750000
7.750000 -27.000000 10.750000
7.750000 -25.750000 10.750000
-7.750000 -27.000000 10.750000
3.064700 26.133499 14.250000
3.064700 26.133499 10.750000
-8.439705 2.758500 14.250000
-8.310295 2.758500 14.250000
-8.198223 2.823200 14.250000
-8.133518 2.935300 14.250000
-8.133518 3.064700 14.250000
-8.198223 3.176800 14.250000
-8.310295 3.241500 14.250000
-8.439705 3.241500 14.250000
-8.551777 3.176800 14.250000
-8.616481 3.064700 14.250000
-8.616481 2.935300 14.250000
-8.551777 2.823200 14.250000
-7.750000 -25.750000 10.750000
-9.000000 25.750000 10.750000
-9.000000 25.750000 14.250000
-9.000000 -27.000000 -15.000000
-9.000000 -27.000000 15.000000
-9.000000 27.000000 15.000000
-9.000000 27.000000 -15.000000
-9.000000 25.750000 -15.000000
-9.000000 25.750000 10.000000
-8.616481 -2.935300 14.250000
-8.616481 -2.935300 10.750000
-3.176780 -26.198223 14.250000
-3.176780 -26.198223 10.750000
3.241500 26.439699 14.250000
3.241500 26.439699 10.750000
-8.310295 2.758500 14.250000
-8.439705 2.758500 14.250000
-8.439705 2.758500 10.750000
-8.310295 2.758500 10.750000
2.935300 -26.133518 14.250000
3.064700 -26.133518 14.250000
3.064700 -26.133518 10.750000
2.935300 -26.133518 10.750000
7.750000 -25.750000 14.250000
7.750000 -27.000000 10.750000
7.750000 -27.000000 14.250000
2.935300 -26.616482 14.250000
2.935300 -26.616482 10.750000
3.064700 -26.616482 10.750000
3.064700 -26.616482 14.250000
-2.750000 26.375000 14.250000
-2.783490 26.250000 14.250000
-2.783490 26.250000 10.750000
-2.750000 26.375000 10.750000
7.750000 27.000000 10.000000
7.750000 25.750000 10.000000
-7.750000 25.750000 10.000000
-7.750000 27.000000 10.000000
-2.823220 -26.551777 14.250000
-2.823220 -26.551777 10.750000
9.000000 -25.750000 10.750000
9.000000 25.750000 10.750000
7.750000 25.750000 10.750000
9.000000 27.000000 -15.000000
9.000000 25.750000 -15.000000
7.750000 25.750000 -15.000000
7.750000 27.000000 -15.000000
7.750000 25.750000 15.000000
7.750000 25.750000 14.250000
7.750000 -25.750000 14.250000
7.750000 -25.750000 15.000000
-7.750000 27.000000 14.250000
-7.750000 27.000000 10.750000
-7.750000 27.000000 10.000000
-7.750000 27.000000 -15.000000
-9.000000 27.000000 -15.000000
-9.000000 27.000000 15.000000
-8.551777 2.823200 14.250000
-8.551777 2.823200 10.750000
8.551800 -2.823200 14.250000
8.616500 -2.935300 14.250000
8.616500 -2.935300 10.750000
8.551800 -2.823200 10.750000
-8.310295 -2.758500 14.250000
-8.310295 -2.758500 10.750000
3.241500 -26.310295 10.750000
3.241500 -26.310295 14.250000
-7.750000 -27.000000 10.750000
-9.000000 -27.000000 -15.000000
-7.750000 -27.000000 -15.000000
-7.750000 25.750000 15.000000
7.750000 25.750000 15.000000
7.750000 25.750000 14.500000
-7.750000 25.750000 14.500000
7.750000 -25.750000 15.000000
7.750000 25.750000 15.000000
-7.750000 25.750000 15.000000
-7.750000 -25.750000 15.000000
-7.750000 25.750000 15.000000
-7.750000 -25.750000 15.000000
-7.750000 -25.750000 14.250000
3.176800 -26.198223 10.750000
3.176800 -26.198223 14.250000
-3.176780 26.551800 10.750000
-3.064700 26.616501 10.750000
-2.935300 26.616501 10.750000
-2.823220 26.551800 10.750000
-2.783490 26.500000 10.750000
-2.750000 26.375000 10.750000
-2.783490 26.250000 10.750000
-2.823220 26.198200 10.750000
-2.935300 26.133499 10.750000
-3.064700 26.133499 10.750000
-3.176780 26.198200 10.750000
-3.216510 26.250000 10.750000
-3.250000 26.375000 10.750000
-3.216510 26.500000 10.750000
9.000000 -25.750000 -15.000000
9.000000 -27.000000 -15.000000
7.750000 -27.000000 -15.000000
7.750000 -25.750000 -15.000000
-7.750000 -25.750000 10.000000
-9.000000 -25.750000 10.000000
-9.000000 25.750000 10.000000
7.750000 25.750000 14.500000
7.750000 25.750000 15.000000
7.750000 -25.750000 15.000000
7.750000 -25.750000 14.500000
7.750000 25.750000 15.000000
-7.750000 25.750000 15.000000
-3.064700 26.616501 14.250000
-3.064700 26.616501 10.750000
7.750000 -25.750000 15.000000
-7.750000 -25.750000 15.000000
-7.750000 -25.750000 14.500000
7.750000 -25.750000 14.500000
-9.000000 -25.750000 10.000000
-7.750000 -25.750000 -15.000000
-9.000000 -25.750000 -15.000000
-8.198223 2.823200 10.750000
-8.198223 2.823200 14.250000
8.439700 -3.241500 10.750000
8.310300 -3.241500 10.750000
8.198200 -3.176800 10.750000
8.133500 -3.064700 10.750000
8.133500 -2.935300 10.750000
8.198200 -2.823200 10.750000
8.310300 -2.758500 10.750000
8.439700 -2.758500 10.750000
8.551800 -2.823200 10.750000
8.616500 -2.935300 10.750000
8.616500 -3.064700 10.750000
8.551800 -3.176800 10.750000
9.000000 25.750000 10.000000
9.000000 -25.750000 10.000000
7.750000 -25.750000 10.000000
8.310300 -3.241500 14.250000
8.439700 -3.241500 14.250000
8.551800 -3.176800 14.250000
8.616500 -3.064700 14.250000
8.616500 -2.935300 14.250000
8.551800 -2.823200 14.250000
8.439700 -2.758500 14.250000
8.310300 -2.758500 14.250000
8.198200 -2.823200 14.250000
8.133500 -2.935300 14.250000
8.133500 -3.064700 14.250000
8.198200 -3.176800 14.250000
8.133500 2.935300 14.250000
8.133500 3.064700 14.250000
8.133500 3.064700 10.750000
8.133500 2.935300 10.750000
7.750000 27.000000 14.250000
7.750000 27.000000 10.750000
7.750000 25.750000 10.750000
7.750000 25.750000 14.250000
8.198200 -3.176800 14.250000
8.198200 -3.176800 10.750000
-7.750000 -27.000000 14.250000
-7.750000 -27.000000 10.750000
-2.935300 -26.616482 10.750000
-2.935300 -26.616482 14.250000
8.310300 3.241500 14.250000
8.310300 3.241500 10.750000
8.198200 3.176800 10.750000
8.198200 3.176800 14.250000
8.310300 3.241500 10.750000
8.439700 3.241500 10.750000
8.551800 3.176800 10.750000
8.616500 3.064700 10.750000
8.616500 2.935300 10.750000
8.551800 2.823200 10.750000
8.439700 2.758500 10.750000
8.310300 2.758500 10.750000
8.198200 2.823200 10.750000
8.133500 2.935300 10.750000
8.133500 3.064700 10.750000
8.198200 3.176800 10.750000
-7.750000 -25.750000 15.000000
7.750000 -25.750000 15.000000
8.551800 2.823200 14.250000
8.551800 2.823200 10.750000
8.439700 3.241500 14.250000
8.310300 3.241500 14.250000
8.198200 3.176800 14.250000
8.133500 3.064700 14.250000
8.133500 2.935300 14.250000
8.198200 2.823200 14.250000
8.310300 2.758500 14.250000
8.439700 2.758500 14.250000
8.551800 2.823200 14.250000
8.616500 2.935300 14.250000
8.616500 3.064700 14.250000
8.551800 3.176800 14.250000
7.750000 27.000000 10.750000
-7.750000 27.000000 10.750000
7.750000 -27.000000 10.000000
-7.750000 -27.000000 10.000000
4 0 1 2 3
4 4 1 0 5
4 6 7 8 9
4 10 11 12 13
4 14 15 16 17
12 18 19 20 21 22 23 24 25 26 27 28 29
4 30 31 32 33
4 34 35 36 37
4 38 39 40 41
4 42 43 44 45
4 46 47 48 49
12 50 51 52 53 54 55 56 57 58 59 60 61
3 54 53 58
3 54 58 57
4 62 63 64 65
4 66 67 68 69
4 70 71 72 73
4 74 9 75 76
4 77 78 79 80
3 81 82 83
3 81 83 84
4 85 86 87 88
4 89 90 91 92
4 93 94 95 96
4 35 97 98 36
4 99 100 101 102
4 103 104 105 94
4 106 107 108 109
4 110 111 112 113
4 114 115 116 117
4 118 119 120 121
4 122 123 124 125
4 126 127 128 129
4 130 131 132 133
4 134 135 136 137
4 44 102 138 90
4 139 140 141 142
4 143 144 145 146
14 147 148 149 150 151 152 153 154 155 156 157 158 159 160
4 161 162 163 164
4 165 166 167 168
4 144 169 170 145
4 105 171 172 173
4 174 175 176 177
14 178 179 180 181 182 183 184 185 186 187 188 189 190 191
4 192 193 194 195
4 33 32 196 197
4 198 199 200 201
4 163 162 202 203
4 204 205 206 207
4 2 208 209 3
4 209 208 210 211
4 138 212 213 214
4 215 216 217 218
4 219 220 221 222
4 75 223 224 225
12 226 227 228 229 230 231 232 233 234 235 236 237
12 238 239 240 241 242 243 244 245 246 247 248 249
4 250 140 139 251
9 252 253 254 255 256 257 258 259 260
6 261 262 263 264 265 266
4 267 268 269 270
12 271 272 273 274 275 276 277 278 279 280 281 282
4 283 284 285 286
4 287 288 197 196
14 289 290 291 292 293 294 295 296 297 298 299 300 301 302
4 303 304 305 306
4 307 127 126 308
4 309 310 63 62
4 47 165 168 48
4 311 4 5 312
4 195 194 207 206
4 79 313 110 314
4 315 316 317 318
4 319 320 321 322
4 95 173 323 324
12 325 326 327 328 329 330 331 332 333 334 335 336
4 337 133 132 338
4 146 339 340 143
12 341 342 343 344 345 346 347 348 349 350 351 352
4 353 354 355 313
4 356 357 358 359
4 131 130 360 361
4 362 337 338 363
4 364 365 366 367
4 142 141 72 71
4 368 369 370 371
8 200 199 372 373 198 201 374 375
4 203 202 376 377
4 378 377 376 379
12 380 381 382 383 384 385 386 387 388 389 390 391
4 392 393 118 394
4 395 250 251 396
12 397 398 399 400 401 402 403 404 405 406 407 408
4 87 367 409 175
12 410 411 82 81 412 413 414 415 416 417 84 83
4 357 418 419 358
4 420 311 312 421
4 73 34 37 70
4 422 107 106 423
4 424 425 426 427
4 428 429 430 431
4 432 76 433 434
4 435 436 437 438
4 418 320 319 419
4 439 440 441 442
4 443 444 445 446
4 211 210 447 448
4 449 450 451 393
4 98 97 422 423
4 452 453 454 455
4 456 457 458 459
4 435 220 219 436
10 264 263 460 461 262 261 462 463 464 465
4 425 466 467 426
4 123 114 117 124
4 468 469 470 471
4 108 395 396 109
4 322 321 472 473
4 474 475 303 306
7 256 255 476 253 252 477 478
4 471 361 360 468
4 479 480 481 482
4 483 484 485 486
4 366 487 488 489
4 490 491 475 474
14 492 493 494 495 496 497 498 499 500 501 502 503 504 505
4 506 507 508 509
4 429 491 490 430
4 445 510 511 512
4 513 514 515 516
4 517 518 99 43
4 288 287 116 115
4 46 49 473 472
4 519 307 308 520
4 521 522 523 524
4 304 438 437 305
4 129 128 439 442
4 525 314 526 527
4 215 428 431 216
4 420 421 161 164
4 528 529 424 427
4 15 529 528 16
4 441 440 122 125
12 530 531 532 533 534 535 536 537 538 539 540 541
4 542 543 544 444
4 285 356 359 286
12 545 546 547 548 549 550 551 552 553 554 555 556
4 557 558 559 560
4 561 562 563 564
4 565 362 363 566
4 11 368 371 12
4 469 10 13 470
4 409 489 567 568
4 66 205 204 67
4 378 379 569 570
4 466 69 68 467
4 370 369 565 566
4 571 572 573 574
12 575 576 577 578 579 580 581 582 583 584 585 586
4 167 166 284 283
4 587 588 353 78
4 192 14 17 193
4 169 589 590 170
12 591 592 593 594 595 596 597 598 599 600 601 602
4 589 310 309 590
4 64 557 560 65
4 218 217 222 221
4 572 571 340 339
4 558 574 573 559
4 451 603 604 119
4 544 605 606 510
4 30 519 520 31
4 447 570 569 448
