ply
format ascii 1.0
comment Created by Blender 2.82 (sub 7) - www.blender.org, source file: ''
element vertex 464
property float x
property float y
property float z
element face 156
property list uchar uint vertex_indices
end_header
-9.000000 14.490000 -11.500000
-9.360625 14.639375 -11.500000
-9.530330 14.469670 10.500000
-9.000000 14.250000 10.500000
12.000000 0.000000 10.500000
12.000000 -18.000000 10.500000
-12.000000 -18.000000 10.500000
-12.000000 0.000000 10.500000
-8.469671 0.000000 10.500000
-8.469671 -14.469700 10.500000
8.566400 -14.469700 10.500000
8.566400 0.000000 10.500000
-12.000000 18.000000 11.000000
12.000000 18.000000 11.000000
12.000000 18.000000 10.500000
-12.000000 18.000000 10.500000
-8.639376 -15.360600 -11.500000
-9.000000 -15.510000 -11.500000
-9.360625 -15.360600 -11.500000
-9.510000 -15.000000 -11.500000
-9.360625 -14.639400 -11.500000
-9.000000 -14.490000 -11.500000
-8.639376 -14.639400 -11.500000
-8.490000 -15.000000 -11.500000
-8.469671 14.469670 7.500000
-8.469671 14.469670 10.500000
-8.469671 0.000000 10.500000
-8.469671 0.000000 7.500000
11.520000 17.280001 11.500000
11.520000 0.000000 11.500000
-11.520000 0.000000 11.500000
-11.520000 17.280001 11.500000
8.469700 -15.530300 10.500000
8.250000 -15.000000 10.500000
8.490000 -15.000000 -11.500000
8.639400 -15.360600 -11.500000
8.566400 0.000000 7.500000
8.566400 14.469670 7.500000
-8.469671 14.469670 7.500000
-8.469671 0.000000 7.500000
-8.469671 14.469670 10.500000
-8.469671 0.000000 10.500000
-12.000000 0.000000 10.500000
12.000000 0.000000 10.500000
8.566400 0.000000 10.500000
8.566400 14.469670 10.500000
12.000000 18.000000 11.000000
12.000000 0.000000 11.000000
11.880000 0.000000 11.250000
11.880000 17.820000 11.250000
-11.880000 0.000000 11.250000
-11.880000 17.820000 11.250000
12.000000 0.000000 11.000000
-8.549625 -14.549600 0.134800
-8.549625 -15.049600 0.138600
8.550600 -15.050600 0.006700
8.550600 -14.550600 0.002900
-9.530330 14.469670 10.500000
-9.000000 14.250000 10.500000
-8.469670 14.469670 10.500000
-8.250000 15.000000 10.500000
-8.469670 15.530330 10.500000
-9.000000 15.750000 10.500000
-9.530330 15.530330 10.500000
-9.750000 15.000000 10.500000
-8.469671 -14.469700 10.500000
-8.469671 0.000000 10.500000
-12.000000 0.000000 10.500000
-12.000000 -18.000000 10.500000
12.000000 -18.000000 10.500000
12.000000 0.000000 10.500000
8.566400 0.000000 10.500000
8.566400 -14.469700 10.500000
-8.469670 -15.530300 10.500000
-8.639376 -15.360600 -11.500000
-8.490000 -15.000000 -11.500000
-8.250000 -15.000000 10.500000
-8.639376 15.360625 -11.500000
-8.469670 15.530330 10.500000
-9.000000 15.750000 10.500000
-9.000000 15.510000 -11.500000
9.000000 -14.490000 -11.500000
8.639400 -14.639400 -11.500000
8.469700 -14.469700 10.500000
9.000000 -14.250000 10.500000
-11.520000 17.280001 11.500000
-11.520000 0.000000 11.500000
11.520000 0.000000 11.500000
11.520000 17.280001 11.500000
-12.000000 18.000000 11.000000
12.000000 18.000000 10.500000
12.000000 0.000000 10.500000
-8.537582 15.037568 1.699900
-8.537582 14.537582 1.696100
8.562700 14.538600 1.564200
8.562700 15.038585 1.568000
-12.000000 0.000000 11.000000
-12.000000 -18.000000 11.000000
-11.880000 17.820000 11.250000
11.880000 17.820000 11.250000
-8.537582 -15.037600 1.699900
-8.537582 -14.537600 1.696100
8.562700 -14.538600 1.564200
8.562700 -15.038600 1.568000
-8.549625 14.549626 0.134800
-8.549625 15.049611 0.138600
8.550600 15.050629 0.006700
8.550600 14.550644 0.002900
-12.000000 -18.000000 11.000000
12.000000 -18.000000 11.000000
11.880000 -17.820000 11.250000
-11.880000 -17.820000 11.250000
-9.360625 -15.360600 -11.500000
-9.510000 -15.000000 -11.500000
-9.750000 -15.000000 10.500000
-9.530330 -15.530300 10.500000
-9.000000 15.510000 -11.500000
-9.000000 15.750000 10.500000
-8.469670 15.530330 10.500000
-8.639376 15.360625 -11.500000
-9.360625 -14.639400 -11.500000
-9.510000 -15.000000 -11.500000
-9.360625 -15.360600 -11.500000
-9.000000 -15.510000 -11.500000
-8.639376 -15.360600 -11.500000
-8.490000 -15.000000 -11.500000
-8.639376 -14.639400 -11.500000
-9.000000 -14.490000 -11.500000
12.000000 -18.000000 11.000000
-9.000000 -14.250000 10.500000
-9.530330 -14.469700 10.500000
-9.360625 -14.639400 -11.500000
-9.000000 -14.490000 -11.500000
9.000000 -15.510000 -11.500000
8.639400 -15.360600 -11.500000
8.490000 -15.000000 -11.500000
8.639400 -14.639400 -11.500000
9.000000 -14.490000 -11.500000
9.360600 -14.639400 -11.500000
9.510000 -15.000000 -11.500000
9.360600 -15.360600 -11.500000
-8.469671 -14.469700 10.500000
8.566400 -14.469700 10.500000
8.566400 -14.469700 7.500000
-8.469671 -14.469700 7.500000
-8.469671 14.469670 10.500000
8.566400 14.469670 10.500000
8.566400 14.469670 7.500000
-8.469671 14.469670 7.500000
8.566400 0.000000 10.500000
8.566400 0.000000 7.500000
8.566400 14.469670 7.500000
8.566400 14.469670 10.500000
9.750000 -15.000000 10.500000
9.510000 -15.000000 -11.500000
9.360600 -14.639400 -11.500000
9.530300 -14.469700 10.500000
-8.469671 0.000000 7.500000
-8.469671 0.000000 10.500000
-8.469671 14.469670 10.500000
-8.469671 14.469670 7.500000
8.469700 -15.530300 10.500000
9.000000 -15.750000 10.500000
9.000000 -15.510000 -11.500000
8.639400 -15.360600 -11.500000
8.490000 -15.000000 -11.500000
8.250000 -15.000000 10.500000
8.566400 14.469670 10.500000
8.566400 14.469670 7.500000
8.566400 0.000000 7.500000
8.566400 0.000000 10.500000
9.000000 -14.250000 10.500000
9.530300 -14.469700 10.500000
9.750000 -15.000000 10.500000
9.530300 -15.530300 10.500000
9.000000 -15.750000 10.500000
8.469700 -15.530300 10.500000
8.250000 -15.000000 10.500000
8.469700 -14.469700 10.500000
-8.469671 14.469670 7.500000
8.566400 14.469670 7.500000
8.566400 14.469670 10.500000
-8.469671 14.469670 10.500000
-11.880000 -17.820000 11.250000
-11.520000 -17.280001 11.500000
11.520000 -17.280001 11.500000
11.880000 -17.820000 11.250000
8.562700 -15.038600 1.568000
8.562700 -14.538600 1.564200
-8.537582 -14.537600 1.696100
-8.537582 -15.037600 1.699900
12.000000 0.000000 11.000000
9.530300 -14.469700 10.500000
9.000000 -14.250000 10.500000
9.000000 -14.490000 -11.500000
9.360600 -14.639400 -11.500000
8.562700 15.038585 1.568000
8.562700 14.538600 1.564200
-8.537582 14.537582 1.696100
-8.537582 15.037568 1.699900
8.469700 -14.469700 10.500000
8.639400 -14.639400 -11.500000
8.469700 15.530330 10.500000
9.000000 15.750000 10.500000
9.000000 15.510000 -11.500000
8.639400 15.360625 -11.500000
9.510000 -15.000000 -11.500000
9.750000 -15.000000 10.500000
9.530300 15.530330 10.500000
9.360600 15.360625 -11.500000
-9.360625 -15.360600 -11.500000
-9.000000 -15.510000 -11.500000
-9.000000 -15.750000 10.500000
-9.530330 -15.530300 10.500000
11.880000 0.000000 11.250000
11.520000 0.000000 11.500000
11.520000 -17.280001 11.500000
11.520000 0.000000 11.500000
11.880000 0.000000 11.250000
-8.250000 -15.000000 10.500000
-8.469670 -14.469700 10.500000
-9.000000 -14.250000 10.500000
-9.530330 -14.469700 10.500000
-9.750000 -15.000000 10.500000
-9.530330 -15.530300 10.500000
-9.000000 -15.750000 10.500000
-8.469670 -15.530300 10.500000
9.000000 14.250000 10.500000
8.469700 14.469670 10.500000
8.639400 14.639375 -11.500000
9.000000 14.490000 -11.500000
12.000000 0.000000 11.000000
9.000000 14.490000 -11.500000
9.360600 14.639375 -11.500000
9.510000 15.000000 -11.500000
9.360600 15.360625 -11.500000
9.000000 15.510000 -11.500000
8.639400 15.360625 -11.500000
8.490000 15.000000 -11.500000
8.639400 14.639375 -11.500000
-8.639376 -14.639400 -11.500000
-9.000000 -14.490000 -11.500000
-9.000000 -14.250000 10.500000
-8.469670 -14.469700 10.500000
-9.510000 -15.000000 -11.500000
-9.750000 -15.000000 10.500000
-9.530330 -14.469700 10.500000
-9.360625 -14.639400 -11.500000
9.360600 14.639375 -11.500000
9.000000 14.490000 -11.500000
9.000000 14.250000 10.500000
9.530300 14.469670 10.500000
-11.880000 0.000000 11.250000
-8.469671 -14.469700 7.500000
-8.469671 -14.469700 10.500000
-8.469671 0.000000 10.500000
-8.469671 0.000000 7.500000
-9.000000 -15.750000 10.500000
-9.000000 -15.510000 -11.500000
-9.360625 14.639375 -11.500000
-9.530330 14.469670 10.500000
-9.750000 15.000000 10.500000
-9.510000 15.000000 -11.500000
-8.469670 14.469670 10.500000
-9.000000 14.250000 10.500000
-9.000000 14.490000 -11.500000
-8.639376 14.639375 -11.500000
-8.549625 -15.049600 0.138600
-8.537582 -15.037600 1.699900
8.562700 -15.038600 1.568000
8.550600 -15.050600 0.006700
-9.360625 15.360625 -11.500000
-9.530330 15.530330 10.500000
-8.469670 -14.469700 10.500000
-8.639376 -14.639400 -11.500000
-8.639376 14.639375 -11.500000
-8.469670 14.469670 10.500000
11.880000 0.000000 11.250000
-12.000000 0.000000 11.000000
-11.880000 0.000000 11.250000
-11.520000 -17.280001 11.500000
-11.520000 0.000000 11.500000
-11.880000 0.000000 11.250000
-8.490000 -15.000000 -11.500000
-8.250000 -15.000000 10.500000
9.530300 -15.530300 10.500000
9.360600 -15.360600 -11.500000
8.550600 15.050629 0.006700
8.562700 15.038585 1.568000
-8.537582 15.037568 1.699900
-8.549625 15.049611 0.138600
-12.000000 18.000000 10.500000
-12.000000 0.000000 11.000000
-12.000000 0.000000 10.500000
-11.520000 0.000000 11.500000
8.566400 14.469670 10.500000
8.566400 0.000000 10.500000
-8.469671 0.000000 10.500000
-8.469671 14.469670 10.500000
-8.469671 0.000000 7.500000
-8.469671 14.469670 7.500000
8.566400 14.469670 7.500000
8.566400 0.000000 7.500000
8.566400 0.000000 7.500000
8.566400 -14.469700 7.500000
-8.469671 -14.469700 7.500000
-8.469671 0.000000 7.500000
8.566400 -14.469700 10.500000
8.566400 -14.469700 7.500000
8.566400 0.000000 7.500000
8.566400 0.000000 10.500000
-8.469671 0.000000 7.500000
-8.469671 -14.469700 7.500000
8.566400 -14.469700 7.500000
8.566400 0.000000 7.500000
9.530300 -15.530300 10.500000
9.360600 -15.360600 -11.500000
8.550600 -14.550600 0.002900
-8.549625 -14.549600 0.134800
-8.537582 -14.537600 1.696100
8.562700 -14.538600 1.564200
8.550600 -14.550600 0.002900
8.550600 -15.050600 0.006700
-8.549625 -15.049600 0.138600
-8.549625 -14.549600 0.134800
8.639400 -14.639400 -11.500000
8.490000 -15.000000 -11.500000
8.639400 -15.360600 -11.500000
9.000000 -15.510000 -11.500000
9.360600 -15.360600 -11.500000
9.510000 -15.000000 -11.500000
9.360600 -14.639400 -11.500000
9.000000 -14.490000 -11.500000
-8.469671 -14.469700 7.500000
8.566400 -14.469700 7.500000
8.566400 -14.469700 10.500000
-8.469671 -14.469700 10.500000
8.550600 14.550644 0.002900
8.550600 15.050629 0.006700
-8.549625 15.049611 0.138600
-8.549625 14.549626 0.134800
8.562700 14.538600 1.564200
-8.537582 14.537582 1.696100
-8.549625 14.549626 0.134800
8.550600 14.550644 0.002900
-8.250000 15.000000 10.500000
-8.490000 15.000000 -11.500000
8.550600 14.550644 0.002900
-8.549625 14.549626 0.134800
-8.537582 14.537582 1.696100
8.562700 14.538600 1.564200
8.490000 15.000000 -11.500000
8.250000 15.000000 10.500000
8.639400 15.360625 -11.500000
9.000000 15.510000 -11.500000
9.360600 15.360625 -11.500000
9.510000 15.000000 -11.500000
9.360600 14.639375 -11.500000
9.000000 14.490000 -11.500000
8.639400 14.639375 -11.500000
8.490000 15.000000 -11.500000
8.550600 -15.050600 0.006700
8.562700 -15.038600 1.568000
-8.537582 -15.037600 1.699900
-8.549625 -15.049600 0.138600
8.469700 15.530330 10.500000
8.250000 15.000000 10.500000
8.469700 14.469670 10.500000
9.000000 14.250000 10.500000
9.530300 14.469670 10.500000
9.750000 15.000000 10.500000
9.530300 15.530330 10.500000
9.000000 15.750000 10.500000
9.530300 14.469670 10.500000
9.360600 14.639375 -11.500000
9.750000 15.000000 10.500000
9.510000 15.000000 -11.500000
8.639400 15.360625 -11.500000
9.000000 15.510000 -11.500000
9.000000 15.750000 10.500000
8.469700 15.530330 10.500000
8.250000 15.000000 10.500000
8.490000 15.000000 -11.500000
9.360600 15.360625 -11.500000
9.530300 15.530330 10.500000
8.469700 15.530330 10.500000
9.000000 15.750000 10.500000
9.530300 15.530330 10.500000
9.750000 15.000000 10.500000
9.530300 14.469670 10.500000
9.000000 14.250000 10.500000
8.469700 14.469670 10.500000
8.250000 15.000000 10.500000
8.639400 14.639375 -11.500000
8.469700 14.469670 10.500000
9.750000 15.000000 10.500000
9.510000 15.000000 -11.500000
9.000000 -15.510000 -11.500000
9.000000 -15.750000 10.500000
-9.000000 15.510000 -11.500000
-8.639376 15.360625 -11.500000
-8.490000 15.000000 -11.500000
-8.639376 14.639375 -11.500000
-9.000000 14.490000 -11.500000
-9.360625 14.639375 -11.500000
-9.510000 15.000000 -11.500000
-9.360625 15.360625 -11.500000
-8.469670 -15.530300 10.500000
-8.639376 -15.360600 -11.500000
-12.000000 0.000000 11.000000
8.566400 0.000000 10.500000
8.566400 0.000000 7.500000
8.566400 -14.469700 7.500000
8.566400 -14.469700 10.500000
-8.549625 15.049611 0.138600
-8.537582 15.037568 1.699900
8.562700 15.038585 1.568000
8.550600 15.050629 0.006700
8.562700 -14.538600 1.564200
-8.537582 -14.537600 1.696100
-8.549625 -14.549600 0.134800
8.550600 -14.550600 0.002900
-9.000000 -15.750000 10.500000
-9.530330 -15.530300 10.500000
-9.750000 -15.000000 10.500000
-9.530330 -14.469700 10.500000
-9.000000 -14.250000 10.500000
-8.469670 -14.469700 10.500000
-8.250000 -15.000000 10.500000
-8.469670 -15.530300 10.500000
9.750000 -15.000000 10.500000
9.530300 -14.469700 10.500000
9.000000 -14.250000 10.500000
8.469700 -14.469700 10.500000
8.250000 -15.000000 10.500000
8.469700 -15.530300 10.500000
9.000000 -15.750000 10.500000
9.530300 -15.530300 10.500000
-9.510000 15.000000 -11.500000
-9.750000 15.000000 10.500000
-8.250000 15.000000 10.500000
-8.469670 14.469670 10.500000
-9.000000 14.250000 10.500000
-9.530330 14.469670 10.500000
-9.750000 15.000000 10.500000
-9.530330 15.530330 10.500000
-9.000000 15.750000 10.500000
-8.469670 15.530330 10.500000
-9.530330 15.530330 10.500000
-9.360625 15.360625 -11.500000
-8.490000 15.000000 -11.500000
-8.639376 15.360625 -11.500000
-9.000000 15.510000 -11.500000
-9.360625 15.360625 -11.500000
-9.510000 15.000000 -11.500000
-9.360625 14.639375 -11.500000
-9.000000 14.490000 -11.500000
-8.639376 14.639375 -11.500000
-8.469671 0.000000 7.500000
-8.469671 0.000000 10.500000
-8.469671 -14.469700 10.500000
-8.469671 -14.469700 7.500000
-8.250000 15.000000 10.500000
-8.490000 15.000000 -11.500000
4 0 1 2 3
8 4 5 6 7 8 9 10 11
4 12 13 14 15
8 16 17 18 19 20 21 22 23
4 24 25 26 27
4 28 29 30 31
4 32 33 34 35
4 36 37 38 39
8 40 41 42 15 14 43 44 45
4 46 47 48 49
4 31 30 50 51
4 52 43 14 13
4 53 54 55 56
8 57 58 59 60 61 62 63 64
8 65 66 67 68 69 70 71 72
4 73 74 75 76
4 49 48 29 28
4 77 78 79 80
4 81 82 83 84
4 85 86 87 88
4 89 46 49 51
4 46 90 91 47
4 92 93 94 95
4 67 96 97 68
4 98 99 13 12
4 100 101 102 103
4 104 105 106 107
4 108 109 110 111
4 112 113 114 115
4 116 117 118 119
8 120 121 122 123 124 125 126 127
4 97 128 69 68
4 129 130 131 132
8 133 134 135 136 137 138 139 140
4 141 142 143 144
4 145 146 147 148
4 149 150 151 152
4 34 33 83 82
4 153 154 155 156
4 157 158 159 160
4 161 162 163 164
4 164 165 166 161
4 167 168 169 170
8 171 172 173 174 175 176 177 178
4 179 180 181 182
4 183 184 185 186
4 187 188 189 190
4 191 70 69 128
4 192 193 194 195
4 196 197 198 199
4 193 200 201 194
4 202 203 204 205
4 192 195 206 207
4 204 203 208 209
4 210 211 212 213
4 110 214 215 216
4 185 217 218 186
8 219 220 221 222 223 224 225 226
4 227 228 229 230
4 109 5 4 231
8 232 233 234 235 236 237 238 239
4 240 241 242 243
4 244 245 246 247
4 248 249 250 251
4 96 252 183 97
4 253 254 255 256
4 115 257 258 112
4 259 260 261 262
4 263 264 265 266
4 267 268 269 270
4 271 262 261 272
4 273 129 132 274
4 131 130 114 113
4 275 0 3 276
4 99 277 52 13
4 278 279 98 12
4 280 281 282 111
4 273 274 283 284
4 109 231 214 110
4 6 5 109 108
4 155 81 84 156
4 285 286 154 153
4 110 216 280 111
4 287 288 289 290
4 186 218 191 128
4 291 89 292 293
4 183 252 294 184
4 216 215 281 280
4 88 87 277 99
8 295 296 91 90 291 293 297 298
4 98 85 88 99
4 299 300 301 302
4 184 294 217 185
4 89 51 50 292
4 303 304 305 306
4 307 308 309 310
4 311 312 313 314
4 163 162 315 316
4 291 90 46 89
4 317 318 319 320
4 321 322 323 324
8 325 326 327 328 329 330 331 332
4 333 334 335 336
4 49 28 31 51
4 183 186 128 97
4 201 200 166 165
4 337 338 339 340
4 341 342 343 344
4 345 346 275 276
4 207 206 316 315
4 347 348 349 350
4 205 351 352 202
4 213 245 244 210
8 353 354 355 356 357 358 359 360
4 361 362 363 364
4 229 228 352 351
8 365 366 367 368 369 370 371 372
4 373 227 230 374
4 375 376 209 208
4 74 73 212 211
4 377 378 379 380
4 373 374 376 375
4 380 381 382 377
4 383 384 379 378
8 385 386 387 388 389 390 391 392
4 241 247 246 242
4 76 75 240 243
4 249 393 394 250
4 395 396 248 251
4 382 381 394 393
4 384 383 396 395
4 35 397 398 32
4 272 117 116 271
8 399 400 401 402 403 404 405 406
4 258 257 407 408
4 108 111 282 409
4 410 411 412 413
4 414 415 416 417
4 418 419 420 421
8 422 423 424 425 426 427 428 429
8 430 431 432 433 434 435 436 437
4 438 439 2 1
8 440 441 442 443 444 445 446 447
4 448 439 438 449
4 449 80 79 448
4 264 260 259 265
4 286 285 398 397
4 284 283 408 407
4 98 279 86 85
4 6 108 409 7
8 450 451 452 453 454 455 456 457
4 42 278 12 15
4 458 459 460 461
4 462 463 119 118
4 263 266 463 462
4 78 77 346 345
