ply
format ascii 1.0
comment Created by Blender 2.82 (sub 7) - www.blender.org, source file: ''
element vertex 344
property float x
property float y
property float z
element face 74
property list uchar uint vertex_indices
end_header
-0.500000 0.500000 7.625000
-18.000000 0.500000 7.625000
-23.794701 3.132600 7.625000
-23.182199 6.211700 7.625000
-19.040501 14.610270 7.625000
-14.610300 19.040480 7.625000
-14.610300 19.040480 8.375000
-19.040501 14.610270 8.375000
18.000000 0.500000 -8.375000
18.000000 -0.500000 -8.375000
0.500000 -0.500000 -8.375000
-18.000000 -0.500000 -8.375000
-18.000000 0.500000 -8.375000
19.040501 14.610270 7.625000
20.784599 12.000000 7.625000
22.173100 9.184400 7.625000
23.182199 6.211700 7.625000
23.794701 3.132600 7.625000
23.794701 3.132600 8.375000
23.182199 6.211700 8.375000
22.173100 9.184400 8.375000
20.784599 12.000000 8.375000
19.040501 14.610270 8.375000
-23.794701 3.132600 8.375000
-19.040501 14.610270 8.375000
-19.040501 14.610270 7.625000
-23.794701 3.132600 7.625000
3.132630 23.794680 7.625000
3.132630 23.794680 8.375000
14.610300 19.040480 8.375000
14.610300 19.040480 7.625000
18.000000 0.500000 7.625000
18.000000 0.500000 -8.375000
0.500000 0.500000 -8.375000
0.500000 0.500000 -7.375000
17.000000 0.500000 -7.375000
17.000000 0.500000 6.625000
0.500000 0.500000 6.625000
0.500000 0.500000 7.625000
17.000000 -0.500000 6.625000
17.000000 0.500000 6.625000
17.000000 0.500000 -7.375000
17.000000 -0.500000 -7.375000
17.000000 0.500000 -7.375000
0.500000 0.500000 -7.375000
0.500000 17.000000 -7.375000
-0.500000 17.000000 -7.375000
-0.500000 0.500000 -7.375000
-17.000000 0.500000 -7.375000
-17.000000 -0.500000 -7.375000
0.500000 -0.500000 -7.375000
17.000000 -0.500000 -7.375000
-0.500000 -18.000000 7.625000
0.500000 -18.000000 7.625000
0.500000 -0.500000 7.625000
-0.500000 -0.500000 7.625000
-23.794701 -3.132600 8.375000
-23.794701 -3.132600 7.625000
-18.000000 0.500000 -8.375000
-18.000000 0.500000 7.625000
-0.500000 0.500000 7.625000
-0.500000 0.500000 6.625000
-17.000000 0.500000 6.625000
-17.000000 0.500000 -7.375000
-0.500000 0.500000 -7.375000
-0.500000 0.500000 -8.375000
-19.040501 -14.610300 7.625000
-23.794701 -3.132600 7.625000
-18.000000 -0.500000 7.625000
-0.500000 -0.500000 7.625000
-0.500000 -18.000000 7.625000
0.500000 -18.000000 7.625000
0.500000 -0.500000 7.625000
18.000000 -0.500000 7.625000
18.000000 0.500000 7.625000
0.500000 0.500000 7.625000
0.500000 18.000000 7.625000
-0.500000 18.000000 7.625000
-14.610300 19.040480 7.625000
-3.132630 23.794680 7.625000
3.132630 23.794680 7.625000
14.610300 19.040480 7.625000
19.040501 14.610270 7.625000
23.794701 3.132600 7.625000
23.794701 -3.132600 7.625000
19.040501 -14.610300 7.625000
14.610300 -19.040501 7.625000
3.132630 -23.794701 7.625000
-3.132630 -23.794701 7.625000
-14.610300 -19.040501 7.625000
0.500000 17.000000 -7.375000
0.500000 17.000000 6.625000
-0.500000 17.000000 6.625000
-0.500000 17.000000 -7.375000
-3.132630 23.794680 8.375000
-14.610300 19.040480 8.375000
-19.040501 14.610270 8.375000
-23.794701 3.132600 8.375000
-23.794701 -3.132600 8.375000
-19.040501 -14.610300 8.375000
-14.610300 -19.040501 8.375000
-3.132630 -23.794701 8.375000
3.132630 -23.794701 8.375000
14.610300 -19.040501 8.375000
19.040501 -14.610300 8.375000
23.794701 -3.132600 8.375000
23.794701 3.132600 8.375000
19.040501 14.610270 8.375000
14.610300 19.040480 8.375000
3.132630 23.794680 8.375000
-3.132630 23.794680 7.625000
-3.132630 23.794680 8.375000
19.040501 14.610270 8.375000
20.784599 12.000000 8.375000
22.173100 9.184400 8.375000
23.182199 6.211700 8.375000
23.794701 3.132600 8.375000
23.794701 3.132600 7.625000
23.182199 6.211700 7.625000
22.173100 9.184400 7.625000
20.784599 12.000000 7.625000
19.040501 14.610270 7.625000
-23.794701 -3.132600 7.625000
-23.794701 3.132600 7.625000
-23.794701 3.132600 8.375000
-23.794701 -3.132600 8.375000
17.000000 0.500000 6.625000
17.000000 -0.500000 6.625000
-17.000000 -0.500000 6.625000
-17.000000 0.500000 6.625000
-3.132630 23.794680 7.625000
-3.132630 23.794680 8.375000
-14.610300 -19.040501 7.625000
-14.610300 -19.040501 8.375000
-19.040501 -14.610300 8.375000
-19.040501 -14.610300 7.625000
0.500000 0.500000 6.625000
-0.500000 0.500000 6.625000
-0.500000 17.000000 6.625000
0.500000 17.000000 6.625000
-3.132630 -23.794701 7.625000
3.132630 -23.794701 7.625000
14.610300 -19.040501 7.625000
19.040501 -14.610300 7.625000
23.794701 -3.132600 7.625000
0.500000 -0.500000 7.625000
0.500000 -18.000000 7.625000
-0.500000 -18.000000 7.625000
-14.610300 -19.040501 7.625000
-0.500000 -18.000000 7.625000
-0.500000 -0.500000 7.625000
-0.500000 -0.500000 6.625000
-0.500000 -17.000000 6.625000
-0.500000 -17.000000 -7.375000
-0.500000 -0.500000 -7.375000
-0.500000 -0.500000 -8.375000
-0.500000 -18.000000 -8.375000
-0.500000 -17.000000 -7.375000
0.500000 -17.000000 -7.375000
-0.500000 -0.500000 -7.375000
-3.132630 -23.794701 8.375000
-14.610300 -19.040501 8.375000
-19.040501 -14.610300 8.375000
-23.794701 -3.132600 8.375000
-23.794701 3.132600 8.375000
-19.040501 14.610270 8.375000
-14.610300 19.040480 8.375000
-3.132630 23.794680 8.375000
3.132630 23.794680 8.375000
14.610300 19.040480 8.375000
19.040501 14.610270 8.375000
23.794701 3.132600 8.375000
23.794701 -3.132600 8.375000
19.040501 -14.610300 8.375000
14.610300 -19.040501 8.375000
3.132630 -23.794701 8.375000
0.500000 0.500000 7.625000
0.500000 18.000000 7.625000
-0.500000 18.000000 7.625000
-0.500000 0.500000 7.625000
-18.000000 0.500000 7.625000
-18.000000 -0.500000 7.625000
18.000000 -0.500000 7.625000
18.000000 0.500000 7.625000
0.500000 -17.000000 6.625000
0.500000 -17.000000 -7.375000
-0.500000 -17.000000 -7.375000
-0.500000 -17.000000 6.625000
23.794701 -3.132600 8.375000
23.182199 -6.211700 8.375000
22.173100 -9.184400 8.375000
19.040501 -14.610300 8.375000
19.040501 -14.610300 7.625000
22.173100 -9.184400 7.625000
23.182199 -6.211700 7.625000
23.794701 -3.132600 7.625000
19.040501 -14.610300 7.625000
14.610300 -19.040501 7.625000
14.610300 -19.040501 8.375000
19.040501 -14.610300 8.375000
9.184400 -22.173100 8.375000
12.000000 -20.784599 8.375000
12.000000 -20.784599 7.625000
9.184400 -22.173100 7.625000
3.132630 -23.794701 7.625000
3.132630 -23.794701 8.375000
14.610300 -19.040501 8.375000
3.132630 -23.794701 8.375000
3.132630 -23.794701 7.625000
14.610300 -19.040501 7.625000
23.794701 3.132600 7.625000
19.040501 14.610270 7.625000
14.610300 19.040480 7.625000
3.132630 23.794680 7.625000
-3.132630 23.794680 7.625000
-14.610300 19.040480 7.625000
-19.040501 14.610270 7.625000
-23.794701 3.132600 7.625000
-23.794701 -3.132600 7.625000
-19.040501 -14.610300 7.625000
-0.500000 -0.500000 7.625000
-18.000000 -0.500000 7.625000
-18.000000 0.500000 7.625000
-0.500000 0.500000 7.625000
-0.500000 18.000000 7.625000
0.500000 18.000000 7.625000
0.500000 0.500000 7.625000
18.000000 0.500000 7.625000
18.000000 -0.500000 7.625000
3.132630 23.794680 8.375000
3.132630 23.794680 7.625000
6.211660 23.182220 7.625000
9.184400 22.173109 7.625000
12.000000 20.784611 7.625000
14.610300 19.040480 7.625000
14.610300 19.040480 8.375000
12.000000 20.784611 8.375000
9.184400 22.173109 8.375000
6.211660 23.182220 8.375000
-3.132630 -23.794701 8.375000
-3.132630 -23.794701 7.625000
-14.610300 -19.040501 7.625000
-14.610300 -19.040501 8.375000
-19.040501 -14.610300 7.625000
-19.040501 -14.610300 8.375000
-9.184400 -22.173100 8.375000
-12.000000 -20.784599 8.375000
-12.000000 -20.784599 7.625000
-9.184400 -22.173100 7.625000
-3.132630 -23.794701 7.625000
-3.132630 -23.794701 8.375000
-23.182199 -6.211700 7.625000
-23.182199 -6.211700 8.375000
-22.173100 -9.184400 8.375000
-22.173100 -9.184400 7.625000
23.794701 -3.132600 7.625000
23.182199 -6.211700 7.625000
22.173100 -9.184400 7.625000
22.173100 -9.184400 8.375000
23.182199 -6.211700 8.375000
23.794701 -3.132600 8.375000
-14.610300 19.040480 8.375000
-14.610300 19.040480 7.625000
-23.182199 -6.211700 8.375000
-23.182199 -6.211700 7.625000
-22.173100 -9.184400 7.625000
-22.173100 -9.184400 8.375000
-6.211660 23.182220 7.625000
-9.184400 22.173109 7.625000
-12.000000 20.784611 7.625000
-12.000000 20.784611 8.375000
-9.184400 22.173109 8.375000
-6.211660 23.182220 8.375000
-0.500000 0.500000 -8.375000
0.500000 0.500000 -8.375000
-0.500000 18.000000 -8.375000
0.500000 18.000000 -8.375000
-0.500000 -0.500000 -8.375000
0.500000 -18.000000 -8.375000
-0.500000 -18.000000 -8.375000
0.500000 17.000000 -7.375000
0.500000 0.500000 -7.375000
0.500000 0.500000 -8.375000
0.500000 18.000000 -8.375000
0.500000 18.000000 7.625000
0.500000 0.500000 7.625000
0.500000 0.500000 6.625000
0.500000 17.000000 6.625000
-0.500000 -0.500000 6.625000
0.500000 -0.500000 6.625000
0.500000 -17.000000 6.625000
-0.500000 -17.000000 6.625000
18.000000 0.500000 7.625000
18.000000 -0.500000 7.625000
18.000000 -0.500000 -8.375000
18.000000 0.500000 -8.375000
-18.000000 -0.500000 7.625000
-18.000000 -0.500000 -8.375000
-0.500000 -0.500000 -8.375000
-0.500000 -0.500000 -7.375000
-17.000000 -0.500000 -7.375000
-17.000000 -0.500000 6.625000
-0.500000 -0.500000 6.625000
-0.500000 -0.500000 7.625000
0.500000 -18.000000 -8.375000
0.500000 -18.000000 7.625000
-0.500000 -18.000000 7.625000
-0.500000 -18.000000 -8.375000
0.500000 -17.000000 -7.375000
0.500000 -17.000000 6.625000
0.500000 -0.500000 6.625000
0.500000 -0.500000 7.625000
0.500000 -18.000000 7.625000
0.500000 -18.000000 -8.375000
0.500000 -0.500000 -8.375000
0.500000 -0.500000 -7.375000
-0.500000 18.000000 7.625000
-0.500000 18.000000 -8.375000
-0.500000 0.500000 -8.375000
-0.500000 0.500000 -7.375000
-0.500000 17.000000 -7.375000
-0.500000 17.000000 6.625000
-0.500000 0.500000 6.625000
-0.500000 0.500000 7.625000
-18.000000 -0.500000 -8.375000
-18.000000 -0.500000 7.625000
-18.000000 0.500000 7.625000
-18.000000 0.500000 -8.375000
0.500000 18.000000 7.625000
0.500000 18.000000 -8.375000
-0.500000 18.000000 -8.375000
-0.500000 18.000000 7.625000
17.000000 -0.500000 6.625000
17.000000 -0.500000 -7.375000
0.500000 -0.500000 -7.375000
0.500000 -0.500000 -8.375000
18.000000 -0.500000 -8.375000
18.000000 -0.500000 7.625000
0.500000 -0.500000 7.625000
0.500000 -0.500000 6.625000
-17.000000 0.500000 6.625000
-17.000000 -0.500000 6.625000
-17.000000 -0.500000 -7.375000
-17.000000 0.500000 -7.375000
4 0 1 2 3
4 4 5 6 7
5 8 9 10 11 12
10 13 14 15 16 17 18 19 20 21 22
4 23 24 25 26
4 27 28 29 30
8 31 32 33 34 35 36 37 38
4 39 40 41 42
9 43 44 45 46 47 48 49 50 51
4 52 53 54 55
4 56 23 26 57
8 58 59 60 61 62 63 64 65
28 66 67 2 1 68 69 70 71 72 73 74 75 76 77 0 3 78 79 80 81 82 83 84 85 86 87 88 89
4 90 91 92 93
16 94 95 96 97 98 99 100 101 102 103 104 105 106 107 108 109
4 28 27 110 111
10 112 113 114 115 116 117 118 119 120 121
4 122 123 124 125
4 29 112 121 30
4 126 127 128 129
4 5 130 131 6
4 132 133 134 135
4 136 137 138 139
9 140 141 142 143 144 145 146 147 148
8 149 150 151 152 153 154 155 156
4 157 158 50 159
16 160 161 162 163 164 165 166 167 168 169 170 171 172 173 174 175
8 176 177 178 179 180 181 182 183
4 184 185 186 187
8 188 189 190 191 192 193 194 195
4 196 197 198 199
8 200 201 198 197 202 203 204 205
4 206 207 208 209
23 210 211 212 213 214 215 216 217 218 219 148 147 220 221 222 223 224 225 226 227 228 145 144
10 229 230 231 232 233 234 235 236 237 238
4 239 240 241 242
4 240 239 205 204
4 242 241 243 244
4 116 188 195 117
8 245 246 133 132 247 248 249 250
8 251 122 125 252 253 244 243 254
4 207 250 249 208
4 191 206 209 192
8 255 256 257 196 199 258 259 260
4 17 255 260 18
4 24 261 262 25
4 130 230 229 131
8 263 56 57 264 265 135 134 266
10 111 110 267 268 269 262 261 270 271 272
4 234 13 22 235
3 273 274 8
3 273 8 12
4 274 273 275 276
3 11 10 277
4 278 279 277 10
3 50 49 159
8 280 281 282 283 284 285 286 287
3 137 136 126
3 137 126 129
3 128 127 288
3 288 127 289
3 182 181 55
3 182 55 54
4 290 291 288 289
4 292 293 294 295
8 296 297 298 299 300 301 302 303
4 304 305 306 307
8 308 309 310 311 312 313 314 315
8 316 317 318 319 320 321 322 323
4 324 325 326 327
4 328 329 330 331
8 332 333 334 335 336 337 338 339
4 340 341 342 343
4 123 4 7 124
