ply
format ascii 1.0
comment Created by Blender 2.82 (sub 7) - www.blender.org, source file: ''
element vertex 369
property float x
property float y
property float z
element face 120
property list uchar uint vertex_indices
end_header
-0.199300 -0.194700 13.577600
-0.199300 -0.194700 -13.673520
-0.150400 -0.167000 -13.673520
-0.150400 -0.167000 13.577600
0.892300 -1.657900 -10.889330
1.425400 -2.969200 -12.389690
2.232500 -2.513300 -12.389690
2.865500 -1.894800 -12.389690
1.751000 -1.020800 -10.889330
1.339900 -0.698500 -9.998460
1.068800 -0.963400 -9.998460
1.382400 -1.381000 -10.889330
-9.058400 -21.444500 13.577600
3.219700 -22.960600 13.577600
14.635000 -18.324400 13.577600
2.105300 -15.393800 13.577600
-1.976200 -15.410300 13.577600
-14.477100 -18.441799 13.577600
9.466400 1.247700 12.299900
3.617900 8.572100 12.299900
-5.845800 7.325700 12.299900
-7.689500 9.781200 13.254900
-12.523500 1.571400 13.254900
-15.682300 -2.118300 13.577600
-14.622900 5.949800 13.577600
-9.611800 12.341500 13.577600
-2.105400 15.393900 13.577600
5.932200 14.400200 13.577600
12.458200 9.583100 13.577600
15.682200 2.118400 13.577600
12.523400 -1.571300 13.254900
12.509500 1.674000 13.254900
-23.693399 -3.120100 13.577600
-18.909300 -14.182400 13.577600
-18.909300 -14.182400 14.750000
-23.693399 -3.120100 14.750000
15.682200 2.118400 13.577600
14.622800 -5.949700 13.577600
9.611700 -12.341400 13.577600
22.128901 -8.778200 13.577600
23.693399 3.120200 13.577600
18.909201 14.182400 13.577600
9.058300 21.444599 13.577600
-3.219700 22.960600 13.577600
-14.635100 18.324400 13.577600
-22.129000 8.778200 13.577600
-23.719400 2.928900 13.577600
-22.052799 -8.956400 13.577600
-9.507100 -12.419200 13.577600
-14.571400 -6.070000 13.577600
-15.682300 -2.118300 13.577600
-14.622900 5.949800 13.577600
-9.611800 12.341500 13.577600
-2.105400 15.393900 13.577600
5.932200 14.400200 13.577600
12.458200 9.583100 13.577600
0.541500 0.825000 -9.039980
1.397400 2.980500 -12.389690
-0.499700 3.213700 -12.389690
-0.196600 0.914600 -9.039980
-0.599100 3.967500 8.673300
-0.461900 2.926700 7.461200
-2.058800 2.281800 7.461200
-4.156000 5.075100 10.751500
1.678100 3.687300 8.673300
-7.500400 5.529400 -13.673520
-9.348500 1.154400 -13.673520
-9.348500 1.154400 -14.750000
-7.500400 5.529400 -14.750000
-3.283300 -1.193500 -12.389690
-1.982800 -0.631700 -10.889330
-2.101500 0.202600 -10.889330
-3.506300 0.387100 -12.389690
18.909201 14.182400 14.750000
9.058300 21.444599 14.750000
9.058300 21.444599 13.577600
18.909201 14.182400 13.577600
-7.500400 5.529400 -13.673520
-3.642700 8.422800 -13.673520
-3.642700 8.422800 -14.750000
-7.500400 5.529400 -14.750000
-3.219700 22.960600 14.750000
-3.219700 22.960600 13.577600
-14.635100 18.324400 13.577600
-14.635100 18.324400 14.750000
3.443200 2.391000 8.673300
2.622000 1.735800 7.461200
2.037400 2.297700 7.461200
2.661000 3.142700 8.673300
9.476800 -1.171200 12.299900
6.684600 -0.804400 10.751500
6.677500 0.857100 10.751500
4.256600 0.518000 8.673300
-0.200600 0.196100 -13.673520
-0.200600 0.196100 13.577600
-0.148000 0.166100 13.577600
-0.148000 0.166100 -13.673520
1.506900 -0.415500 -9.998460
1.988300 -0.618600 -10.889330
3.506300 -0.387000 -12.389690
2.747300 -0.287300 -11.692460
2.744800 0.306200 -11.692460
2.099700 0.215800 -10.889330
1.582100 0.143400 -9.998460
-0.831900 -0.664000 -9.039980
-0.693800 -0.477000 -8.035560
-0.939000 -0.180800 -8.035560
-1.368600 -1.391300 -10.889330
4.383800 -3.085400 9.773800
5.387000 -3.872100 10.751500
7.602200 -5.609200 12.299900
5.845700 -7.325600 12.299900
1.285800 -9.177600 12.299900
0.751700 -5.125400 9.773800
0.599000 -3.967500 8.673300
2.689300 -3.121600 8.673300
3.390700 -4.055900 9.773800
-9.348500 1.154400 -14.750000
-9.338200 -1.229700 -14.750000
-9.338200 -1.229700 -13.673520
-9.348500 1.154400 -13.673520
-7.452700 -5.589600 -13.673520
-7.452700 -5.589600 -14.750000
-3.570200 -8.451800 -14.750000
-3.570200 -8.451800 -13.673520
-0.868800 0.146300 3.284900
-0.653200 0.409800 3.284900
-0.839700 0.658200 -9.039980
-1.155100 0.267100 -9.039980
3.219700 -22.960600 14.750000
3.219700 -22.960600 13.577600
14.635000 -18.324400 13.577600
14.635000 -18.324400 14.750000
0.464400 -0.605400 -8.035560
0.695600 -1.174200 -9.998460
0.856500 -0.319400 -8.035560
9.338200 1.229800 -14.750000
8.691600 3.530000 -14.750000
8.691600 3.530000 -13.673520
9.338200 1.229800 -13.673520
1.268900 -9.049400 -13.673520
1.268900 -9.049400 -14.750000
5.768000 -7.222100 -14.750000
5.768000 -7.222100 -13.673520
-0.146600 -0.607900 3.284900
-0.647500 -0.414100 3.284900
-0.184600 -0.916100 -9.039980
1.034500 0.469300 -9.039980
0.426900 0.536400 3.284900
0.791600 0.275600 3.284900
0.896100 0.047300 3.284900
0.868700 -0.146200 3.284900
6.246600 -2.415400 10.751500
0.653200 -0.409800 3.284900
0.795000 -0.271200 3.284900
-23.693399 -3.120100 14.750000
-22.129000 8.778200 14.750000
-14.635100 18.324400 14.750000
-3.219700 22.960600 14.750000
9.058300 21.444599 14.750000
18.909201 14.182400 14.750000
23.693399 3.120200 14.750000
22.128901 -8.778200 14.750000
14.635000 -18.324400 14.750000
3.219700 -22.960600 14.750000
-9.058400 -21.444500 14.750000
-18.909300 -14.182400 14.750000
-0.156100 0.606800 3.284900
-22.129000 8.778200 13.577600
-22.129000 8.778200 14.750000
-0.231400 -1.294700 -9.998460
-0.469100 -3.217500 -12.389690
22.128901 -8.778200 14.750000
23.693399 3.120200 14.750000
23.693399 3.120200 13.577600
22.128901 -8.778200 13.577600
-18.909300 -14.182400 13.577600
-22.052799 -8.956400 13.577600
-12.458200 -9.583100 13.577600
-9.507100 -12.419200 13.577600
-0.562400 -3.972200 8.673300
-2.661100 -3.142600 8.673300
-3.443200 -2.390900 8.673300
-0.791700 -0.275500 3.284900
-5.782700 -7.372500 12.299900
-9.466500 -1.247700 12.299900
-9.476900 1.171200 12.299900
-5.420200 0.638400 9.773800
-4.261000 0.486200 8.673300
-4.256700 -0.517900 8.673300
7.689400 -9.781200 13.254900
-1.204700 0.084800 -9.039980
-1.988400 0.618700 -10.889330
-3.219700 22.960600 14.750000
-3.219700 22.960600 13.577600
5.768000 -7.222100 -14.750000
5.768000 -7.222100 -13.673520
8.721600 -3.459700 -13.673520
8.721600 -3.459700 -14.750000
-14.635100 18.324400 14.750000
-14.635100 18.324400 13.577600
1.741300 1.033200 -10.889330
2.848400 1.916500 -12.389690
2.209300 2.530700 -12.389690
-9.338200 -1.229700 -13.673520
-7.452700 -5.589600 -13.673520
-7.452700 -5.589600 -14.750000
-9.338200 -1.229700 -14.750000
9.338200 1.229800 -13.673520
8.691600 3.530000 -13.673520
8.691600 3.530000 -14.750000
9.338200 1.229800 -14.750000
0.435000 -0.533100 3.284900
1.203900 0.090400 -9.039980
9.058300 21.444599 14.750000
9.058300 21.444599 13.577600
-23.693399 -3.120100 14.750000
-18.909300 -14.182400 14.750000
-18.909300 -14.182400 13.577600
-23.693399 -3.120100 13.577600
-3.642700 8.422800 -14.750000
-3.642700 8.422800 -13.673520
-1.425500 2.969300 -12.389690
-2.232600 2.513400 -12.389690
-1.382500 1.381100 -10.889330
3.219700 -22.960600 13.577600
3.219700 -22.960600 14.750000
14.635000 -18.324400 14.750000
14.635000 -18.324400 13.577600
1.191100 9.059400 -14.750000
1.191100 9.059400 -13.673520
8.721600 -3.459700 -14.750000
8.721600 -3.459700 -13.673520
5.705800 7.268500 -14.750000
5.705800 7.268500 -13.673520
7.452600 5.589700 -13.673520
7.452600 5.589700 -14.750000
-7.500400 5.529400 -14.750000
-3.642700 8.422800 -14.750000
1.191100 9.059400 -14.750000
5.705800 7.268500 -14.750000
8.691600 3.530000 -14.750000
9.338200 1.229800 -14.750000
8.721600 -3.459700 -14.750000
5.768000 -7.222100 -14.750000
1.268900 -9.049400 -14.750000
-3.570200 -8.451800 -14.750000
-7.452700 -5.589600 -14.750000
-9.338200 -1.229700 -14.750000
-9.348500 1.154400 -14.750000
3.219700 -22.960600 14.750000
14.635000 -18.324400 14.750000
22.128901 -8.778200 14.750000
23.693399 3.120200 14.750000
18.909201 14.182400 14.750000
9.058300 21.444599 14.750000
-3.219700 22.960600 14.750000
-14.635100 18.324400 14.750000
-22.129000 8.778200 14.750000
-23.693399 -3.120100 14.750000
-18.909300 -14.182400 14.750000
-9.058400 -21.444500 14.750000
1.191100 9.059400 -14.750000
1.191100 9.059400 -13.673520
5.705800 7.268500 -13.673520
5.705800 7.268500 -14.750000
-22.129000 8.778200 14.750000
-22.129000 8.778200 13.577600
-3.570200 -8.451800 -14.750000
-3.570200 -8.451800 -13.673520
1.268900 -9.049400 -14.750000
1.268900 -9.049400 -13.673520
-2.103500 4.636900 -13.406150
-5.292800 0.621700 -13.406150
-6.280000 0.751300 -13.702400
-5.034400 -3.660300 -13.702400
-2.848500 -1.916400 -12.389690
-0.974000 0.054500 -8.035560
-0.867300 -0.149800 3.284900
-0.896100 -0.047200 3.284900
-0.896500 0.044300 3.284900
-9.058400 -21.444500 13.577600
-9.058400 -21.444500 14.750000
-2.209400 -2.530600 -12.389690
3.283200 1.193600 -12.389690
4.074700 1.535500 -12.965250
4.361200 -0.499300 -12.965250
3.911100 -4.748900 -13.702400
-3.869400 -4.779900 -13.702400
-4.480100 -5.607400 -13.847312
-8.331000 1.020700 -13.837611
-3.642700 8.422800 -13.673520
-7.500400 5.529400 -13.673520
-9.348500 1.154400 -13.673520
-9.338200 -1.229700 -13.673520
-7.452700 -5.589600 -13.673520
-3.570200 -8.451800 -13.673520
5.152300 -6.402000 -13.837611
4.480000 5.607500 -13.847312
3.869300 4.780000 -13.702400
5.705800 7.268500 -14.750000
5.705800 7.268500 -13.673520
14.635000 -18.324400 13.577600
3.219700 -22.960600 13.577600
-9.058400 -21.444500 13.577600
-5.932300 -14.400100 13.577600
2.105300 -15.393800 13.577600
9.611700 -12.341400 13.577600
14.622800 -5.949700 13.577600
15.682200 2.118400 13.577600
12.458200 9.583100 13.577600
5.932200 14.400200 13.577600
-2.105400 15.393900 13.577600
-9.611800 12.341500 13.577600
-14.622900 5.949800 13.577600
-15.682300 -2.118300 13.577600
-23.719400 2.928900 13.577600
-22.129000 8.778200 13.577600
-14.635100 18.324400 13.577600
-3.219700 22.960600 13.577600
9.058300 21.444599 13.577600
18.909201 14.182400 13.577600
23.693399 3.120200 13.577600
22.128901 -8.778200 13.577600
18.909201 14.182400 14.750000
18.909201 14.182400 13.577600
0.973500 0.058100 -8.035560
-9.058400 -21.444500 13.577600
-9.058400 -21.444500 14.750000
-5.071800 1.919700 9.773800
-6.246700 2.415400 10.751500
23.693399 3.120200 13.577600
23.693399 3.120200 14.750000
-2.478100 5.558400 -13.702400
1.268900 -9.049400 -13.673520
5.768000 -7.222100 -13.673520
8.721600 -3.459700 -13.673520
9.338200 1.229800 -13.673520
8.691600 3.530000 -13.673520
5.705800 7.268500 -13.673520
1.191100 9.059400 -13.673520
0.053800 -0.142000 -13.673520
0.053800 -0.142000 13.577600
22.128901 -8.778200 13.577600
22.128901 -8.778200 14.750000
-0.705700 -5.131300 9.773800
-12.509500 -1.673900 13.254900
0.147900 -0.166100 -13.673520
0.198500 -0.194100 -13.673520
0.200500 -0.196000 -13.673520
0.200500 -0.196000 13.577600
0.198500 -0.194100 13.577600
0.147900 -0.166100 13.577600
14.622800 -5.949700 13.577600
9.611700 -12.341400 13.577600
2.105300 -15.393800 13.577600
-5.932300 -14.400100 13.577600
-12.458200 -9.583100 13.577600
7.452600 5.589700 -14.750000
7.452600 5.589700 -13.673520
8.691600 3.530000 -13.673520
8.691600 3.530000 -14.750000
0.057200 0.142500 -13.673520
0.057200 0.142500 13.577600
0.199300 0.194800 13.577600
0.199300 0.194800 -13.673520
0.974000 -0.054400 -8.035560
0.940700 -0.176600 -8.035560
0.896500 -0.044200 3.284900
4 0 1 2 3
8 4 5 6 7 8 9 10 11
6 12 13 14 15 16 17
14 18 19 20 21 22 23 24 25 26 27 28 29 30 31
4 32 33 34 35
24 36 37 38 15 14 39 40 41 42 43 44 45 46 47 17 16 48 49 50 51 52 53 54 55
4 56 57 58 59
7 60 61 62 63 20 19 64
4 65 66 67 68
4 69 70 71 72
4 73 74 75 76
4 77 78 79 80
4 81 82 83 84
11 85 86 87 88 64 19 18 89 90 91 92
4 93 94 95 96
9 97 98 8 7 99 100 101 102 103
5 104 105 106 70 107
9 108 109 110 111 112 113 114 115 116
4 117 118 119 120
4 121 122 123 124
4 125 126 127 128
4 129 130 131 132
7 133 134 4 11 10 9 135
4 136 137 138 139
4 140 141 142 143
5 144 145 105 104 146
4 147 56 148 149
5 149 86 85 92 150
8 151 152 109 108 116 115 153 154
12 155 156 157 158 159 160 161 162 163 164 165 166
5 148 167 61 60 64
4 168 32 35 169
5 4 134 170 171 5
4 172 173 174 175
4 176 177 178 179
6 144 180 181 182 183 145
8 182 181 184 185 186 187 188 189
10 190 111 110 109 152 90 89 18 31 30
4 191 128 192 71
4 75 74 193 194
4 195 196 197 198
4 194 193 199 200
6 147 201 202 203 57 56
4 204 205 206 207
4 167 59 127 126
4 208 209 210 211
5 135 154 153 212 133
5 102 201 147 213 103
4 81 214 215 82
6 148 64 88 87 86 149
4 216 217 218 219
4 220 221 65 68
6 127 59 58 222 223 224
4 225 226 227 228
4 128 127 224 192
4 221 220 229 230
4 231 136 139 232
4 233 234 235 236
13 237 238 239 240 241 242 243 244 245 246 247 248 249
12 250 251 252 253 254 255 256 257 258 259 260 261
4 262 263 264 265
4 143 142 231 232
4 200 199 266 267
4 268 206 205 269
4 270 271 196 195
8 72 71 192 224 223 222 272 273
4 79 78 263 262
6 69 72 273 274 275 276
5 277 106 278 279 280
4 80 117 120 77
4 141 140 124 123
4 226 225 281 282
6 170 146 104 107 283 171
4 62 61 167 126
21 203 202 284 285 286 99 7 6 287 288 289 290 291 292 293 294 295 296 297 298 299
4 230 229 300 301
26 302 303 304 176 179 305 306 307 308 309 310 311 312 313 314 315 178 177 316 317 318 319 320 321 322 323
4 227 172 175 228
4 270 268 269 271
4 215 214 324 325
5 149 150 326 213 147
4 118 122 121 119
4 33 327 328 34
6 62 126 125 329 330 63
4 331 325 324 332
4 327 130 129 328
20 333 299 298 297 296 334 335 336 337 338 339 340 291 290 289 288 275 274 273 272
5 279 278 183 182 189
4 167 148 56 59
4 66 204 207 67
8 5 171 283 276 275 288 287 6
4 3 2 341 342
4 197 208 211 198
5 277 280 125 128 191
4 266 216 219 267
5 107 70 69 276 283
4 84 83 168 169
4 343 331 332 344
4 131 343 344 132
4 173 73 76 174
6 113 112 184 181 180 345
10 330 329 187 186 185 346 22 21 20 63
8 347 348 349 350 351 352 342 341
5 106 277 191 71 70
9 202 201 102 101 100 99 286 285 284
15 112 111 190 30 29 353 354 355 356 357 23 22 346 185 184
7 57 203 299 333 272 222 58
4 358 359 360 361
6 144 146 170 134 133 212
7 279 189 188 187 329 125 280
5 105 145 183 278 106
4 362 363 364 365
6 97 103 213 326 366 367
6 135 367 366 368 151 154
4 366 326 150 368
6 367 135 9 8 98 97
8 180 144 212 153 115 114 113 345
4 282 281 218 217
7 151 368 150 92 91 90 152
4 363 362 96 95
