ply
format ascii 1.0
comment Created by Blender 2.82 (sub 7) - www.blender.org, source file: ''
element vertex 615
property float x
property float y
property float z
element face 162
property list uchar uint vertex_indices
end_header
2.000000 2.000000 13.078100
2.000000 2.000000 10.078100
2.000000 -2.000000 10.078100
2.000000 -2.000000 13.078100
-17.500000 17.500000 14.944100
-17.000000 17.000000 14.944100
-17.000000 -17.000000 14.944100
-17.500000 -17.500000 14.944100
1.414200 1.414210 10.078100
2.000000 0.000000 10.078100
2.000000 0.000000 -11.944100
1.414200 1.414210 -11.944100
1.414200 -1.414210 -11.944100
1.414200 -1.414210 10.078100
0.000000 -2.000000 10.078100
0.000000 -2.000000 -11.944100
-10.000000 -2.000000 -13.444100
-9.204617 -2.000000 -13.309860
-9.204617 2.000000 -13.309860
-10.000000 2.000000 -13.444100
2.000000 -9.130860 -13.427930
2.000000 -8.516170 -12.813240
-2.000000 -8.516170 -12.813240
-2.000000 -9.130860 -13.427930
8.634200 2.000000 -12.739480
9.204600 2.000000 -13.309860
9.204600 -2.000000 -13.309860
8.634200 -2.000000 -12.739480
2.000000 -8.500000 10.078100
2.000000 -10.000000 11.578100
-2.000000 -10.000000 11.578100
-2.000000 -8.500000 10.078100
2.000000 -2.000000 13.078100
2.000000 -2.000000 10.078100
8.500000 -2.000000 10.078100
10.000000 -2.000000 11.578100
10.000000 -2.000000 13.078100
-1.414210 -1.414210 -11.944100
-1.414210 -1.414210 10.078100
0.000000 -2.000000 10.078100
0.000000 -2.000000 -11.944100
-1.414210 -1.414210 10.078100
-2.000000 0.000000 10.078100
-2.000000 0.000000 -11.944100
-1.414210 -1.414210 -11.944100
-2.000000 -10.000000 -14.944100
-2.000000 -10.000000 -13.444100
2.000000 -10.000000 -13.444100
2.000000 -10.000000 -14.944100
2.000000 -10.000000 11.578100
2.000000 -8.500000 10.078100
2.000000 -2.000000 10.078100
2.000000 -2.000000 13.078100
2.000000 -10.000000 13.078100
-2.000000 -8.500000 -11.944100
-2.000000 -2.000000 -11.944100
0.000000 -2.000000 -11.944100
2.000000 -2.000000 -11.944100
2.000000 -8.500000 -11.944100
2.000000 -2.000000 -14.944100
2.000000 -2.000000 -11.944100
8.500000 -2.000000 -11.944100
8.634200 -2.000000 -12.739480
9.204600 -2.000000 -13.309860
10.000000 -2.000000 -13.444100
10.000000 -2.000000 -14.944100
-2.000000 10.000000 11.578100
-2.000000 10.000000 13.078100
2.000000 10.000000 13.078100
2.000000 10.000000 11.578100
-10.000000 2.000000 -13.444100
-9.204617 2.000000 -13.309860
-9.204617 -2.000000 -13.309860
-10.000000 -2.000000 -13.444100
-8.500000 2.000000 10.078100
-10.000000 2.000000 11.578100
-10.000000 -2.000000 11.578100
-8.500000 -2.000000 10.078100
-2.000000 0.000000 -11.944100
-2.000000 0.000000 10.078100
-1.414210 1.414210 10.078100
-1.414210 1.414210 -11.944100
0.000000 2.000000 -11.944100
0.000000 2.000000 10.078100
-1.414210 1.414210 10.078100
-1.414210 1.414210 -11.944100
2.000000 8.610350 -12.755040
2.000000 9.189060 -13.333750
-2.000000 9.189060 -13.333750
-2.000000 8.610350 -12.755040
17.000000 17.000000 14.944100
17.000000 -17.000000 14.944100
17.500000 -17.500000 14.944100
17.500000 17.500000 14.944100
-2.000000 -2.000000 13.078100
2.000000 -2.000000 13.078100
2.000000 -10.000000 13.078100
-2.000000 -10.000000 13.078100
-2.000000 -2.000000 13.078100
-2.000000 -2.000000 10.078100
-2.000000 2.000000 10.078100
-2.000000 2.000000 13.078100
2.000000 2.000000 -11.944100
-2.000000 2.000000 -11.944100
0.000000 2.000000 -11.944100
-2.000000 2.000000 13.078100
-2.000000 2.000000 10.078100
-8.500000 2.000000 10.078100
-10.000000 2.000000 11.578100
-10.000000 2.000000 13.078100
-2.000000 -2.000000 10.078100
-8.500000 -2.000000 10.078100
-10.000000 -2.000000 11.578100
-10.000000 -2.000000 13.078100
-2.000000 -2.000000 13.078100
2.000000 8.500000 -11.944100
-2.000000 8.500000 -11.944100
2.000000 -8.500000 10.078100
-2.000000 -8.500000 10.078100
-2.000000 -2.000000 10.078100
2.000000 -2.000000 10.078100
8.500000 -2.000000 -11.944100
0.000000 -2.000000 -11.944100
2.000000 -2.000000 -11.944100
2.000000 2.000000 13.078100
-2.000000 2.000000 13.078100
-2.000000 10.000000 13.078100
2.000000 10.000000 13.078100
-2.000000 2.000000 13.078100
-2.000000 10.000000 13.078100
-2.000000 10.000000 11.578100
-2.000000 8.500000 10.078100
-2.000000 2.000000 10.078100
8.500000 2.000000 10.078100
8.500000 -2.000000 10.078100
2.000000 -2.000000 10.078100
2.000000 2.000000 10.078100
-8.500000 -2.000000 -11.944100
-2.000000 -2.000000 -11.944100
1.414200 1.414210 -11.944100
0.000000 2.000000 -11.944100
2.000000 2.000000 -11.944100
8.500000 2.000000 -11.944100
8.500000 -2.000000 -11.944100
1.414200 -1.414210 -11.944100
2.000000 0.000000 -11.944100
2.000000 2.000000 13.078100
2.000000 2.000000 10.078100
-2.000000 2.000000 10.078100
-2.000000 2.000000 13.078100
-2.000000 -8.516170 -12.813240
-2.000000 -8.500000 -11.944100
-2.000000 -2.000000 -11.944100
-2.000000 -2.000000 -14.944100
-2.000000 -10.000000 -14.944100
-2.000000 -10.000000 -13.444100
-2.000000 -9.130860 -13.427930
2.000000 10.000000 -14.944100
2.000000 2.000000 -14.944100
2.000000 2.000000 -11.944100
2.000000 8.500000 -11.944100
2.000000 8.610350 -12.755040
2.000000 9.189060 -13.333750
2.000000 10.000000 -13.444100
-8.634240 2.000000 -12.739480
-8.500000 2.000000 -11.944100
-2.000000 2.000000 -11.944100
-2.000000 2.000000 -14.944100
-10.000000 2.000000 -14.944100
-10.000000 2.000000 -13.444100
-9.204617 2.000000 -13.309860
-18.000000 18.000000 14.078100
-17.866030 17.865999 14.578100
-17.866030 -17.865999 14.578100
-18.000000 -18.000000 14.078100
-18.000000 -18.000000 13.078100
-18.000000 18.000000 13.078100
10.000000 2.000000 -13.444100
10.000000 -2.000000 -13.444100
-2.000000 8.610350 -12.755040
-2.000000 9.189060 -13.333750
2.000000 9.189060 -13.333750
2.000000 8.610350 -12.755040
-2.000000 -9.130860 -13.427930
2.000000 -9.130860 -13.427930
2.000000 -10.000000 -13.444100
-2.000000 -10.000000 -13.444100
10.000000 2.000000 -14.944100
10.000000 -2.000000 -14.944100
10.000000 -2.000000 -13.444100
10.000000 2.000000 -13.444100
18.000000 18.000000 14.078100
17.865999 17.865999 14.578100
-17.866030 17.865999 14.578100
-18.000000 18.000000 14.078100
-18.000000 18.000000 13.078100
18.000000 18.000000 13.078100
9.204600 -2.000000 -13.309860
8.634200 -2.000000 -12.739480
8.500000 -2.000000 -11.944100
2.000000 -2.000000 -11.944100
2.000000 -2.000000 -14.944100
10.000000 -2.000000 -14.944100
10.000000 -2.000000 -13.444100
-2.000000 10.000000 -13.444100
2.000000 10.000000 -13.444100
-2.000000 -8.516170 -12.813240
2.000000 -8.516170 -12.813240
17.500000 17.500000 14.944100
-17.500000 17.500000 14.944100
-8.500000 -2.000000 -11.944100
-8.500000 2.000000 -11.944100
-8.634240 2.000000 -12.739480
-8.634240 -2.000000 -12.739480
1.414200 -1.414210 10.078100
1.414200 -1.414210 -11.944100
9.204600 2.000000 -13.309860
10.000000 2.000000 -13.444100
10.000000 2.000000 -14.944100
2.000000 2.000000 -14.944100
2.000000 2.000000 -11.944100
8.500000 2.000000 -11.944100
8.634200 2.000000 -12.739480
-17.000000 17.000000 14.944100
17.000000 17.000000 14.944100
17.500000 17.500000 14.944100
-17.500000 17.500000 14.944100
-18.000000 -18.000000 14.078100
-17.866030 -17.865999 14.578100
17.865999 -17.865999 14.578100
18.000000 -18.000000 14.078100
18.000000 -18.000000 13.078100
-18.000000 -18.000000 13.078100
17.865999 17.865999 14.578100
17.865999 -17.865999 14.578100
17.500000 -17.500000 14.944100
17.500000 17.500000 14.944100
-2.000000 -10.000000 11.578100
-2.000000 -10.000000 13.078100
2.000000 -10.000000 13.078100
2.000000 -10.000000 11.578100
2.000000 -2.000000 10.078100
-2.000000 -2.000000 10.078100
-2.000000 -8.500000 10.078100
2.000000 -8.500000 10.078100
17.000000 -17.000000 14.944100
17.000000 17.000000 14.944100
17.000000 17.000000 14.944100
-2.000000 10.000000 -13.444100
-2.000000 10.000000 -14.944100
2.000000 10.000000 -14.944100
2.000000 10.000000 -13.444100
-10.000000 2.000000 -13.444100
-10.000000 2.000000 -14.944100
-2.000000 2.000000 -14.944100
-2.000000 2.000000 -11.944100
-8.500000 2.000000 -11.944100
-8.634240 2.000000 -12.739480
-9.204617 2.000000 -13.309860
9.204600 -2.000000 -13.309860
10.000000 -2.000000 -13.444100
10.000000 2.000000 -13.444100
9.204600 2.000000 -13.309860
-10.000000 -2.000000 11.578100
-10.000000 -2.000000 13.078100
-10.000000 2.000000 13.078100
-10.000000 2.000000 11.578100
-8.500000 -2.000000 -11.944100
17.865999 -17.865999 14.578100
17.500000 -17.500000 14.944100
-17.500000 -17.500000 14.944100
-17.866030 -17.865999 14.578100
10.000000 -2.000000 11.578100
10.000000 -2.000000 13.078100
10.000000 2.000000 13.078100
10.000000 2.000000 11.578100
-2.000000 2.000000 -11.944100
-1.414210 1.414210 -11.944100
-2.000000 0.000000 -11.944100
-1.414210 -1.414210 -11.944100
-8.500000 2.000000 -11.944100
18.000000 -18.000000 14.078100
-18.000000 -18.000000 14.078100
-18.000000 -18.000000 13.078100
18.000000 -18.000000 13.078100
-2.000000 2.000000 10.078100
2.000000 2.000000 10.078100
2.000000 8.500000 10.078100
-2.000000 8.500000 10.078100
2.000000 10.000000 11.578100
2.000000 10.000000 13.078100
-2.000000 10.000000 13.078100
-2.000000 10.000000 11.578100
2.000000 8.500000 10.078100
2.000000 2.000000 10.078100
2.000000 2.000000 13.078100
2.000000 10.000000 13.078100
2.000000 10.000000 11.578100
10.000000 2.000000 11.578100
10.000000 2.000000 13.078100
10.000000 -2.000000 13.078100
10.000000 -2.000000 11.578100
-2.000000 -10.000000 -13.444100
2.000000 -10.000000 -13.444100
-2.000000 8.500000 -11.944100
2.000000 8.500000 -11.944100
17.865999 -17.865999 14.578100
17.865999 17.865999 14.578100
2.000000 2.000000 10.078100
8.500000 2.000000 10.078100
10.000000 2.000000 11.578100
10.000000 2.000000 13.078100
2.000000 2.000000 13.078100
2.000000 2.000000 10.078100
2.000000 -2.000000 10.078100
8.500000 -2.000000 10.078100
8.500000 2.000000 10.078100
-2.000000 -2.000000 -14.944100
-2.000000 -2.000000 -11.944100
-2.000000 -8.500000 -11.944100
-2.000000 -8.516170 -12.813240
-2.000000 -9.130860 -13.427930
-2.000000 -10.000000 -13.444100
-2.000000 -10.000000 -14.944100
2.000000 -2.000000 -14.944100
2.000000 -10.000000 -14.944100
2.000000 -10.000000 -13.444100
2.000000 -9.130860 -13.427930
2.000000 -8.516170 -12.813240
2.000000 -8.500000 -11.944100
2.000000 -2.000000 -11.944100
8.500000 -2.000000 10.078100
2.000000 -2.000000 10.078100
2.000000 -2.000000 13.078100
10.000000 -2.000000 13.078100
10.000000 -2.000000 11.578100
18.000000 18.000000 14.078100
18.000000 18.000000 13.078100
-18.000000 18.000000 13.078100
-18.000000 18.000000 14.078100
-17.866030 17.865999 14.578100
17.865999 17.865999 14.578100
2.000000 -8.500000 -11.944100
-2.000000 -8.500000 -11.944100
18.000000 -18.000000 14.078100
18.000000 18.000000 14.078100
18.000000 18.000000 13.078100
18.000000 -18.000000 13.078100
2.000000 2.000000 -11.944100
2.000000 2.000000 -14.944100
10.000000 2.000000 -14.944100
10.000000 2.000000 -13.444100
9.204600 2.000000 -13.309860
8.634200 2.000000 -12.739480
8.500000 2.000000 -11.944100
-2.000000 -2.000000 -14.944100
-2.000000 -2.000000 -11.944100
-8.500000 -2.000000 -11.944100
-8.634240 -2.000000 -12.739480
-9.204617 -2.000000 -13.309860
-10.000000 -2.000000 -13.444100
-10.000000 -2.000000 -14.944100
-2.000000 8.500000 -11.944100
2.000000 8.500000 -11.944100
-2.000000 -10.000000 13.078100
2.000000 -10.000000 13.078100
2.000000 -2.000000 13.078100
-2.000000 -2.000000 13.078100
18.000000 -18.000000 14.078100
18.000000 -18.000000 13.078100
18.000000 18.000000 13.078100
18.000000 18.000000 14.078100
2.000000 -9.130860 -13.427930
2.000000 -10.000000 -13.444100
2.000000 -10.000000 -14.944100
2.000000 -2.000000 -14.944100
2.000000 -2.000000 -11.944100
2.000000 -8.500000 -11.944100
2.000000 -8.516170 -12.813240
8.500000 2.000000 10.078100
10.000000 2.000000 11.578100
10.000000 -2.000000 11.578100
8.500000 -2.000000 10.078100
-8.634240 2.000000 -12.739480
-8.634240 -2.000000 -12.739480
8.634200 -2.000000 -12.739480
8.634200 2.000000 -12.739480
0.000000 2.000000 10.078100
0.000000 2.000000 -11.944100
1.414200 1.414210 -11.944100
2.000000 0.000000 -11.944100
2.000000 0.000000 10.078100
1.414200 1.414210 10.078100
-17.500000 -17.500000 14.944100
-17.000000 -17.000000 14.944100
-17.000000 17.000000 14.944100
-17.500000 17.500000 14.944100
-17.500000 -17.500000 14.944100
17.500000 -17.500000 14.944100
2.000000 8.500000 -11.944100
-2.000000 8.500000 -11.944100
2.000000 10.000000 -13.444100
2.000000 9.189060 -13.333750
2.000000 8.610350 -12.755040
2.000000 8.500000 -11.944100
2.000000 2.000000 -11.944100
2.000000 2.000000 -14.944100
2.000000 10.000000 -14.944100
-10.000000 -2.000000 -14.944100
-10.000000 2.000000 -14.944100
-10.000000 2.000000 -13.444100
-10.000000 -2.000000 -13.444100
-17.866030 -17.865999 14.578100
-17.866030 17.865999 14.578100
-18.000000 18.000000 14.078100
-18.000000 18.000000 13.078100
-18.000000 -18.000000 13.078100
-18.000000 -18.000000 14.078100
2.000000 -2.000000 13.078100
2.000000 -2.000000 10.078100
-2.000000 -2.000000 10.078100
-2.000000 -2.000000 13.078100
-10.000000 -2.000000 -13.444100
-10.000000 2.000000 -13.444100
-10.000000 2.000000 -14.944100
-10.000000 -2.000000 -14.944100
18.000000 18.000000 13.078100
-18.000000 18.000000 13.078100
-18.000000 -18.000000 13.078100
18.000000 -18.000000 13.078100
8.500000 -2.000000 -11.944100
8.500000 2.000000 -11.944100
-17.000000 -17.000000 14.944100
17.000000 -17.000000 14.944100
2.000000 -10.000000 11.578100
2.000000 -10.000000 13.078100
-2.000000 -10.000000 13.078100
-2.000000 -10.000000 11.578100
-2.000000 -2.000000 13.078100
-2.000000 -2.000000 10.078100
-2.000000 -8.500000 10.078100
-2.000000 -10.000000 11.578100
-2.000000 -10.000000 13.078100
2.000000 -8.500000 10.078100
2.000000 -10.000000 11.578100
2.000000 -10.000000 13.078100
2.000000 -2.000000 13.078100
2.000000 -2.000000 10.078100
-2.000000 -2.000000 13.078100
-2.000000 -2.000000 10.078100
2.000000 -2.000000 10.078100
2.000000 -2.000000 13.078100
-8.500000 -2.000000 10.078100
-8.500000 2.000000 10.078100
-2.000000 2.000000 10.078100
-2.000000 -2.000000 10.078100
8.500000 2.000000 -11.944100
8.500000 -2.000000 -11.944100
2.000000 10.000000 -13.444100
-2.000000 10.000000 -13.444100
2.000000 10.000000 -13.444100
2.000000 10.000000 -14.944100
-2.000000 10.000000 -14.944100
-2.000000 10.000000 -13.444100
2.000000 -10.000000 -14.944100
2.000000 -10.000000 -13.444100
-2.000000 -10.000000 -13.444100
-2.000000 -10.000000 -14.944100
-17.000000 17.000000 14.944100
17.000000 17.000000 14.944100
17.000000 -17.000000 14.944100
-17.000000 -17.000000 14.944100
-17.000000 -17.000000 14.944100
17.000000 -17.000000 14.944100
17.000000 17.000000 14.944100
-17.000000 17.000000 14.944100
-10.000000 2.000000 11.578100
-10.000000 2.000000 13.078100
-10.000000 -2.000000 13.078100
-10.000000 -2.000000 11.578100
-2.000000 -2.000000 13.078100
-10.000000 -2.000000 13.078100
-10.000000 -2.000000 11.578100
-8.500000 -2.000000 10.078100
-2.000000 -2.000000 10.078100
-2.000000 -2.000000 10.078100
-2.000000 -2.000000 13.078100
-2.000000 -10.000000 13.078100
-2.000000 -10.000000 11.578100
-2.000000 -8.500000 10.078100
2.000000 8.500000 10.078100
2.000000 10.000000 11.578100
-2.000000 10.000000 11.578100
-2.000000 8.500000 10.078100
17.000000 -17.000000 14.944100
-17.000000 -17.000000 14.944100
10.000000 2.000000 -13.444100
10.000000 -2.000000 -13.444100
10.000000 -2.000000 -14.944100
10.000000 2.000000 -14.944100
1.414200 -1.414210 -11.944100
8.500000 2.000000 -11.944100
1.414200 1.414210 -11.944100
2.000000 0.000000 -11.944100
-10.000000 2.000000 13.078100
-10.000000 -2.000000 13.078100
-2.000000 -2.000000 13.078100
-2.000000 2.000000 13.078100
-8.500000 -2.000000 10.078100
-10.000000 -2.000000 11.578100
-10.000000 2.000000 11.578100
-8.500000 2.000000 10.078100
-8.500000 2.000000 10.078100
-2.000000 2.000000 10.078100
-2.000000 2.000000 13.078100
-10.000000 2.000000 13.078100
-10.000000 2.000000 11.578100
-2.000000 8.500000 10.078100
2.000000 8.500000 10.078100
2.000000 2.000000 10.078100
-2.000000 2.000000 10.078100
-2.000000 2.000000 13.078100
-2.000000 -2.000000 13.078100
-10.000000 -2.000000 13.078100
-10.000000 2.000000 13.078100
-2.000000 2.000000 13.078100
-2.000000 2.000000 10.078100
-2.000000 -2.000000 10.078100
-2.000000 -2.000000 13.078100
-2.000000 -2.000000 10.078100
-2.000000 2.000000 10.078100
-8.500000 2.000000 10.078100
-8.500000 -2.000000 10.078100
-2.000000 -8.500000 -11.944100
2.000000 -8.500000 -11.944100
2.000000 10.000000 11.578100
2.000000 10.000000 13.078100
2.000000 2.000000 13.078100
2.000000 2.000000 10.078100
2.000000 8.500000 10.078100
18.000000 -18.000000 13.078100
-18.000000 -18.000000 13.078100
-18.000000 18.000000 13.078100
18.000000 18.000000 13.078100
2.000000 10.000000 13.078100
-2.000000 10.000000 13.078100
-2.000000 2.000000 13.078100
2.000000 2.000000 13.078100
-2.000000 2.000000 13.078100
-2.000000 2.000000 10.078100
2.000000 2.000000 10.078100
2.000000 2.000000 13.078100
-8.500000 2.000000 -11.944100
-8.500000 -2.000000 -11.944100
-2.000000 2.000000 -14.944100
-2.000000 10.000000 -14.944100
-2.000000 10.000000 -13.444100
-2.000000 9.189060 -13.333750
-2.000000 8.610350 -12.755040
-2.000000 8.500000 -11.944100
-2.000000 2.000000 -11.944100
-2.000000 8.500000 10.078100
-2.000000 10.000000 11.578100
-2.000000 10.000000 13.078100
-2.000000 2.000000 13.078100
-2.000000 2.000000 10.078100
-2.000000 0.000000 -11.944100
-1.414210 1.414210 -11.944100
-8.500000 2.000000 -11.944100
-1.414210 -1.414210 -11.944100
-2.000000 -8.500000 -11.944100
2.000000 -8.500000 -11.944100
-2.000000 8.500000 10.078100
-2.000000 10.000000 11.578100
2.000000 10.000000 11.578100
2.000000 8.500000 10.078100
10.000000 2.000000 11.578100
8.500000 2.000000 10.078100
2.000000 2.000000 10.078100
2.000000 2.000000 13.078100
10.000000 2.000000 13.078100
-2.000000 8.610350 -12.755040
-2.000000 9.189060 -13.333750
-2.000000 10.000000 -13.444100
-2.000000 10.000000 -14.944100
-2.000000 2.000000 -14.944100
-2.000000 2.000000 -11.944100
-2.000000 8.500000 -11.944100
-9.204617 -2.000000 -13.309860
-8.634240 -2.000000 -12.739480
-8.500000 -2.000000 -11.944100
-2.000000 -2.000000 -11.944100
-2.000000 -2.000000 -14.944100
-10.000000 -2.000000 -14.944100
-10.000000 -2.000000 -13.444100
10.000000 -2.000000 13.078100
10.000000 2.000000 13.078100
2.000000 2.000000 13.078100
2.000000 -2.000000 13.078100
-2.000000 -8.500000 10.078100
-2.000000 -10.000000 11.578100
2.000000 -10.000000 11.578100
2.000000 -8.500000 10.078100
2.000000 -2.000000 13.078100
2.000000 2.000000 13.078100
10.000000 2.000000 13.078100
10.000000 -2.000000 13.078100
2.000000 -2.000000 13.078100
2.000000 -2.000000 10.078100
2.000000 2.000000 10.078100
2.000000 2.000000 13.078100
8.500000 -2.000000 10.078100
10.000000 -2.000000 11.578100
10.000000 2.000000 11.578100
8.500000 2.000000 10.078100
4 0 1 2 3
4 4 5 6 7
4 8 9 10 11
4 12 13 14 15
4 16 17 18 19
4 20 21 22 23
4 24 25 26 27
4 28 29 30 31
5 32 33 34 35 36
4 37 38 39 40
4 41 42 43 44
4 45 46 47 48
5 49 50 51 52 53
5 54 55 56 57 58
7 59 60 61 62 63 64 65
4 66 67 68 69
4 70 71 72 73
4 74 75 76 77
4 37 78 79 38
4 80 81 82 83
4 42 84 85 43
4 86 87 88 89
4 90 91 92 93
4 94 95 96 97
4 98 99 100 101
3 102 103 104
5 105 106 107 108 109
5 110 111 112 113 114
4 103 102 115 116
4 117 118 119 120
3 121 122 123
4 124 125 126 127
5 128 129 130 131 132
4 133 134 135 136
3 122 137 138
8 139 140 141 142 143 56 144 145
4 146 147 148 149
7 150 151 152 153 154 155 156
7 157 158 159 160 161 162 163
7 164 165 166 167 168 169 170
6 171 172 173 174 175 176
4 25 177 178 26
4 179 180 181 182
4 183 184 185 186
4 187 188 189 190
6 191 192 193 194 195 196
7 197 198 199 200 201 202 203
4 204 205 181 180
4 183 206 207 184
4 192 208 209 193
4 210 211 212 213
4 40 39 214 215
7 216 217 218 219 220 221 222
4 223 224 225 226
6 227 228 229 230 231 232
4 78 81 80 79
4 233 234 235 236
4 237 238 239 240
4 241 242 243 244
4 236 235 245 246
4 208 247 5 209
4 248 249 250 251
7 252 253 254 255 256 257 258
4 259 260 261 262
4 263 264 265 266
3 55 267 56
4 268 269 270 271
3 57 56 143
4 272 273 274 275
8 276 140 277 278 279 56 267 280
3 140 276 141
6 281 268 271 282 283 284
4 285 286 287 288
4 289 290 291 292
5 293 294 295 296 297
4 298 299 300 301
4 302 303 20 23
4 304 305 141 276
4 93 92 306 307
5 308 309 310 311 312
4 313 314 315 316
7 317 318 319 320 321 322 323
7 324 325 326 327 328 329 330
5 331 332 333 334 335
6 336 337 338 339 340 341
4 21 342 343 22
6 344 234 233 345 346 347
7 348 349 350 351 352 353 354
7 355 356 357 358 359 360 361
4 172 4 7 173
4 362 179 182 363
4 364 365 366 367
6 307 306 368 369 370 371
7 372 373 374 375 376 377 378
4 379 380 381 382
4 72 71 383 384
4 385 259 262 386
4 15 14 41 44
4 387 388 85 84
4 9 13 12 10
4 389 390 391 392
4 8 11 388 387
4 393 394 395 396
4 228 397 398 229
4 399 86 89 400
7 401 402 403 404 405 406 407
4 390 215 214 391
4 408 409 410 411
6 412 413 414 415 416 417
4 83 82 389 392
4 418 419 420 421
4 422 423 424 425
4 426 427 428 429
4 24 27 430 431
4 432 433 398 397
4 434 435 436 437
4 213 212 18 17
5 438 439 440 441 442
5 443 444 445 446 447
4 448 449 450 451
4 452 453 454 455
4 456 457 385 386
4 88 87 458 459
4 460 461 462 463
4 464 465 466 467
4 468 469 470 471
4 472 473 474 475
4 476 477 478 479
5 480 481 482 483 484
5 485 486 487 488 489
4 490 491 492 493
4 270 269 494 495
4 496 497 498 499
8 500 122 121 501 102 104 502 503
4 504 505 506 507
4 508 509 510 511
5 512 513 514 515 516
4 517 518 519 520
4 521 522 523 524
4 525 526 527 528
4 529 530 531 532
4 412 393 396 413
4 206 533 534 207
5 535 536 537 538 539
4 540 541 542 543
4 544 545 546 547
4 548 549 550 551
4 384 383 552 553
7 554 555 556 557 558 559 560
5 561 562 563 564 565
8 566 567 104 103 568 137 122 569
4 226 225 341 340
5 123 122 138 570 571
4 572 573 574 575
5 576 577 578 579 580
7 581 582 583 584 585 586 587
7 588 589 590 591 592 593 594
4 595 596 597 598
4 599 600 601 602
4 603 604 605 606
4 607 608 609 610
4 611 612 613 614
