ply
format ascii 1.0
comment Created by Blender 2.82 (sub 7) - www.blender.org, source file: ''
element vertex 150
property float x
property float y
property float z
element face 56
property list uchar uint vertex_indices
end_header
14.590700 13.643600 12.323100
14.590700 13.643600 -14.500000
14.624800 14.280850 -14.500000
14.624800 14.280850 12.323100
-14.439990 13.925090 12.323100
-14.405850 14.562340 12.323100
-14.405850 14.562340 -14.500000
-14.439990 13.925090 -14.500000
-18.000000 -18.000000 14.500000
18.000000 -18.000000 14.500000
18.000000 18.000000 14.500000
-18.000000 18.000000 14.500000
14.315300 14.067500 4.678900
13.745100 3.422100 12.399500
13.480300 3.227000 12.110900
14.050500 13.872410 4.390400
16.062500 16.000000 14.000000
16.062500 -16.062500 14.000000
16.062500 -16.062500 12.000000
16.062500 16.000000 12.000000
13.970200 -14.682800 4.390400
13.997400 -14.175500 4.390400
3.352000 -13.605300 12.110900
3.324900 -14.112600 12.110900
-13.987590 -3.449900 12.110900
-13.480350 -3.477000 12.110900
-14.050550 -14.122400 4.390400
-14.557790 -14.095200 4.390400
-14.557790 -14.095200 4.390400
-14.050550 -14.122400 4.390400
-13.480350 -3.477000 12.110900
-13.987590 -3.449900 12.110900
-13.987590 -14.565000 12.323100
-14.624840 -14.530900 12.323100
-14.624840 -14.530900 -14.500000
-13.987590 -14.565000 -14.500000
-14.315350 -14.317500 4.678900
-13.745140 -3.672100 12.399500
3.324900 -14.112600 12.110900
3.352000 -13.605300 12.110900
13.997400 -14.175500 4.390400
13.970200 -14.682800 4.390400
18.000000 18.000000 14.500000
18.000000 18.000000 14.000000
-18.000000 18.000000 14.000000
-18.000000 18.000000 14.500000
13.802700 -14.078500 -14.500000
13.802700 -14.078500 12.323100
14.440000 -14.112600 12.323100
14.440000 -14.112600 -14.500000
-18.000000 -18.000000 14.000000
18.000000 -18.000000 14.000000
18.000000 -18.000000 14.500000
-18.000000 -18.000000 14.500000
13.768600 -14.715700 12.323100
13.768600 -14.715700 -14.500000
14.405900 -14.749800 -14.500000
14.405900 -14.749800 12.323100
-13.997410 13.988050 4.390400
-3.352000 13.417850 12.110900
-3.547100 13.682640 12.399500
-14.192500 14.252850 4.678900
-18.000000 -18.000000 14.500000
-18.000000 18.000000 14.500000
-18.000000 18.000000 14.000000
-18.000000 -18.000000 14.000000
-14.590700 -13.893600 12.323100
-13.953450 -13.927700 12.323100
-13.953450 -13.927700 -14.500000
-14.590700 -13.893600 -14.500000
14.557800 13.845240 4.390400
13.987600 3.199900 12.110900
16.062500 16.000000 12.000000
16.062500 -16.062500 12.000000
16.062500 -16.062500 14.000000
16.062500 16.000000 14.000000
-16.000000 -16.062500 12.000000
-16.000000 16.000000 12.000000
-16.000000 16.000000 14.000000
-16.000000 -16.062500 14.000000
-14.192500 14.252850 4.678900
-13.970240 14.495290 4.390400
-3.324900 13.925090 12.110900
-3.547100 13.682640 12.399500
-3.352000 13.417850 12.110900
-13.997410 13.988050 4.390400
3.547100 -13.870100 12.399500
14.192500 -14.440300 4.678900
-16.000000 -16.062500 14.000000
-16.000000 16.000000 14.000000
-16.000000 16.000000 12.000000
-16.000000 -16.062500 12.000000
-13.768600 14.528200 12.323100
-13.768600 14.528200 -14.500000
-13.802730 13.890950 12.323100
-13.802730 13.890950 -14.500000
14.192500 -14.440300 4.678900
3.547100 -13.870100 12.399500
-16.000000 -16.062500 14.000000
-16.000000 -16.062500 12.000000
16.062500 -16.062500 12.000000
16.062500 -16.062500 14.000000
-16.000000 -16.062500 12.000000
-16.000000 -16.062500 14.000000
16.062500 -16.062500 14.000000
16.062500 -16.062500 12.000000
-3.324900 13.925090 12.110900
-13.970240 14.495290 4.390400
16.062500 16.000000 14.000000
16.062500 16.000000 12.000000
-16.000000 16.000000 12.000000
-16.000000 16.000000 14.000000
-16.000000 16.000000 14.000000
-16.000000 16.000000 12.000000
16.062500 16.000000 12.000000
16.062500 16.000000 14.000000
-13.745140 -3.672100 12.399500
-14.315350 -14.317500 4.678900
-18.000000 18.000000 14.500000
18.000000 18.000000 14.500000
18.000000 -18.000000 14.500000
-18.000000 -18.000000 14.500000
18.000000 18.000000 14.500000
18.000000 -18.000000 14.500000
18.000000 -18.000000 14.000000
18.000000 18.000000 14.000000
13.953500 13.677730 12.323100
13.953500 13.677730 -14.500000
13.987600 3.199900 12.110900
13.480300 3.227000 12.110900
14.050500 13.872410 4.390400
14.557800 13.845240 4.390400
10.000000 -18.000000 14.000000
-16.000000 -18.000000 14.000000
-16.000000 -16.062500 14.000000
10.000000 -16.062500 14.000000
10.000000 -16.062500 14.000000
16.062500 -16.062500 14.000000
16.062500 16.000000 14.000000
-16.000000 16.000000 14.000000
-16.000000 -18.000000 14.000000
-18.000000 -18.000000 14.000000
-18.000000 18.000000 14.000000
18.000000 18.000000 14.000000
18.000000 -18.000000 14.000000
10.000000 -18.000000 14.000000
13.987600 14.314990 12.323100
13.987600 14.314990 -14.500000
13.745100 3.422100 12.399500
14.315300 14.067500 4.678900
4 0 1 2 3
4 4 5 6 7
4 8 9 10 11
4 12 13 14 15
4 16 17 18 19
4 20 21 22 23
4 24 25 26 27
4 28 29 30 31
4 32 33 34 35
4 36 37 30 29
4 38 39 40 41
4 42 43 44 45
4 46 47 48 49
4 50 51 52 53
4 54 55 56 57
4 58 59 60 61
4 62 63 64 65
4 66 67 68 69
4 70 15 14 71
4 72 73 74 75
4 76 77 78 79
4 80 81 82 83
4 48 57 56 49
4 80 83 84 85
4 36 28 31 37
4 86 38 41 87
4 88 89 90 91
4 40 39 86 87
4 92 93 6 5
4 66 69 34 33
4 92 94 95 93
4 96 97 22 21
4 98 99 100 101
4 81 85 84 82
4 102 103 104 105
4 106 59 58 107
4 108 109 110 111
4 112 113 114 115
4 60 106 107 61
4 116 24 27 117
4 118 119 120 121
4 122 123 124 125
4 54 47 46 55
4 96 20 23 97
4 26 25 116 117
4 0 126 127 1
4 128 129 130 131
4 132 133 134 135
10 136 137 138 139 140 141 142 143 144 145
4 127 126 146 147
4 130 129 148 149
4 12 70 71 13
4 148 128 131 149
4 95 94 4 7
4 68 67 32 35
4 146 3 2 147
