ply
format ascii 1.0
comment Created by Blender 2.82 (sub 7) - www.blender.org, source file: ''
element vertex 469
property float x
property float y
property float z
element face 125
property list uchar uint vertex_indices
end_header
-13.163300 -0.154550 9.482650
-13.233400 -0.042750 9.343950
6.189000 -3.965850 -3.622400
6.259000 -4.077650 -3.483610
-18.895100 5.062750 9.643850
-13.831700 13.832850 9.652750
-5.061700 18.896351 9.682850
0.001700 19.562950 9.703550
9.783400 16.942051 9.749150
16.944099 9.781350 9.790150
19.565100 -0.000450 9.815650
16.944099 -9.782250 9.818650
9.783400 -16.943050 9.798450
0.001700 -19.564150 9.760450
-9.780000 -16.943150 9.714750
-16.940701 -9.782450 9.673750
-18.895100 -5.064150 9.658550
-13.831700 13.832850 9.652750
-18.895100 5.062750 9.643850
-18.898500 5.063850 10.430050
-13.835100 13.834050 10.438950
-12.952500 -0.099450 9.781750
-13.060500 -0.175350 9.642950
6.361800 -4.098450 -3.323340
6.469800 -4.022550 -3.184550
-12.878400 0.479350 9.717650
6.543900 -3.443750 -3.248670
6.454500 -3.375050 -3.403470
-12.967900 0.548050 9.562850
-8.107600 10.295250 2.423050
-1.988800 -8.598350 -10.473985
-2.052000 -8.713850 -10.334876
-8.170900 10.179750 2.562150
0.001700 19.562950 9.703550
-0.001700 19.564150 10.489750
-5.065100 18.897449 10.469150
-5.061700 18.896351 9.682850
-8.508400 -3.868650 -3.166280
6.267400 9.333350 9.800050
6.123900 9.453250 9.841450
-8.651900 -3.748850 -3.124800
-1.370100 9.144150 -3.124800
-1.476100 9.031950 -3.238120
4.628900 -9.818750 9.728150
4.734900 -9.706450 9.841450
9.783400 16.942051 9.749150
9.780000 16.943150 10.535450
18.895100 5.064150 10.591650
16.940701 9.782450 10.576450
9.780000 16.943150 10.535450
-0.001700 19.564150 10.489750
-9.783400 16.943050 10.451750
-13.835100 13.834050 10.438950
-18.898500 5.063850 10.430050
-18.898500 -5.062950 10.444850
-16.944099 -9.781350 10.460050
-9.783400 -16.942051 10.501050
-5.065100 -18.896450 10.524050
5.061700 -18.896351 10.567350
13.831700 -13.832850 10.597450
18.895100 -5.062750 10.606350
19.565100 -0.000450 9.815650
19.561701 0.000650 10.601850
16.940701 -9.781050 10.604850
16.944099 -9.782250 9.818650
-5.065100 -18.896450 10.524050
-9.783400 -16.942051 10.501050
-16.944099 -9.781350 10.460050
-18.898500 -5.062950 10.444850
-18.898500 5.063850 10.430050
-13.835100 13.834050 10.438950
-9.783400 16.943050 10.451750
-0.001700 19.564150 10.489750
9.780000 16.943150 10.535450
16.940701 9.782450 10.576450
18.895100 5.064150 10.591650
18.895100 -5.062750 10.606350
13.831700 -13.832850 10.597450
5.061700 -18.896351 10.567350
-8.158000 -9.363650 2.197950
2.248100 -0.065850 -6.864370
6.188600 3.454950 -10.296040
6.230700 3.559050 -10.140887
-8.115900 -9.259550 2.353150
-8.397700 -8.833450 2.466750
5.949000 3.985150 -10.027307
5.803700 4.036950 -10.140887
-8.542900 -8.781650 2.353150
9.783400 -16.943050 9.798450
16.944099 -9.782250 9.818650
19.565100 -0.000450 9.815650
16.944099 9.781350 9.790150
9.783400 16.942051 9.749150
0.001700 19.562950 9.703550
-5.061700 18.896351 9.682850
-13.831700 13.832850 9.652750
-18.895100 5.062750 9.643850
-18.895100 -5.064150 9.658550
-16.940701 -9.782450 9.673750
-9.780000 -16.943150 9.714750
0.001700 -19.564150 9.760450
5.195000 -9.926350 9.305250
5.027400 -10.009150 9.263750
-1.077600 8.841550 -3.702530
-0.909900 8.924350 -3.661050
16.944099 9.781350 9.790150
16.940701 9.782450 10.576450
-8.246700 -3.634850 -3.702530
-8.349700 -3.478850 -3.744010
6.426100 9.723250 9.222250
6.529100 9.567150 9.263750
-9.532900 4.337250 -9.954804
9.933700 0.405250 2.942250
9.996800 0.581250 2.900650
-9.469800 4.513250 -9.996378
10.166500 0.031250 2.476750
-9.300000 3.963350 -10.420267
-9.200900 4.081450 -10.533848
10.265600 0.149450 2.363250
16.944099 9.781350 9.790150
16.940701 9.782450 10.576450
6.245800 -3.521650 -3.671600
6.208300 -3.605150 -3.702530
-13.214000 0.317950 9.263750
-13.176500 0.401450 9.294650
5.733100 3.672650 -10.595774
-8.613500 -9.145950 1.898250
-8.685100 -8.987550 1.978550
5.661500 3.831050 -10.515462
-9.315700 4.657950 -10.184799
10.150800 0.725950 2.712250
10.204500 0.727950 2.631950
-4.082400 3.613750 -6.833440
10.204500 0.727950 2.631950
10.253100 0.705350 2.551650
-9.213500 4.637350 -10.345425
-1.261900 8.810350 -3.661050
4.843000 -10.040350 9.305250
4.760200 -10.033250 9.354450
-1.344800 8.817350 -3.611850
4.813500 -9.659750 9.872450
-1.291400 9.190950 -3.093870
10.341000 0.420650 2.332250
10.328700 0.325450 2.321650
-9.137800 4.257450 -10.575420
-9.125600 4.352650 -10.564847
6.170400 -3.792850 -3.702530
-13.251900 0.130250 9.263750
-1.758000 -8.461650 -10.564870
-1.925700 -8.544250 -10.523297
-8.044600 10.349350 2.373750
-7.876900 10.431950 2.332150
-1.372000 -8.493550 -10.334876
-1.490900 -8.437150 -10.473985
-7.609800 10.456450 2.423050
-7.490900 10.400050 2.562150
-1.403100 -8.708250 -10.035142
-7.522000 10.185350 2.861950
-7.663700 10.084550 2.942250
-1.544900 -8.809050 -9.954828
4.995700 -9.600750 9.872450
-1.109200 9.249950 -3.093870
5.169700 -9.599450 9.792250
-0.935200 9.251150 -3.174000
5.695600 4.006850 -10.296040
-8.651100 -8.811850 2.197950
0.001700 19.562950 9.703550
-0.001700 19.564150 10.489750
9.780000 16.943150 10.535450
9.783400 16.942051 9.749150
19.561701 0.000650 10.601850
19.565100 -0.000450 9.815650
16.944099 -9.782250 9.818650
16.940701 -9.781050 10.604850
9.969000 0.071150 2.787050
-9.497600 4.003250 -10.109959
-9.408600 3.934650 -10.265113
10.058000 0.002650 2.631950
-2.047900 -8.767350 -10.254562
-3.676100 -3.740050 -6.822900
-8.166800 10.126250 2.642450
-1.492000 8.920250 -3.392920
4.612900 -9.930350 9.573350
-1.818200 -8.876350 -9.985829
-7.937000 10.017250 2.911250
-8.088600 10.045650 2.797650
-1.969700 -8.847950 -10.099409
-16.944099 -9.781350 10.460050
-16.940701 -9.782450 9.673750
-9.780000 -16.943150 9.714750
-9.783400 -16.942051 10.501050
-9.780000 -16.943150 9.714750
-16.940701 -9.782450 9.673750
-16.944099 -9.781350 10.460050
-9.783400 -16.942051 10.501050
-5.065100 18.897449 10.469150
-5.061700 18.896351 9.682850
-8.254300 -8.953450 2.508250
6.092400 3.865150 -9.985733
-13.835100 13.834050 10.438950
-13.831700 13.832850 9.652750
9.780000 -16.941950 10.584650
9.783400 -16.943050 9.798450
5.665100 3.962650 -10.376357
-8.681600 -8.855950 2.117650
-18.895100 5.062750 9.643850
-18.898500 5.063850 10.430050
-18.898500 -5.062950 10.444850
-18.895100 -5.064150 9.658550
-8.151200 -9.109350 2.466750
6.195500 3.709250 -10.027307
10.322700 0.593550 2.412550
-9.143900 4.525550 -10.484534
-12.832500 0.331950 9.830950
6.589800 -3.591150 -3.135350
-8.493200 -3.358950 -3.702530
-8.638800 -3.307350 -3.589210
6.137000 9.894650 9.377050
6.282600 9.843050 9.263750
-8.782000 -3.514150 -3.215480
-8.710500 -3.672750 -3.135350
6.065200 9.529250 9.830950
5.993800 9.687850 9.750850
9.923500 0.218550 2.900650
-9.543100 4.150550 -9.996378
-18.895100 -5.064150 9.658550
-18.898500 -5.062950 10.444850
-8.747300 -3.337950 -3.434400
6.028500 9.864150 9.531850
-9.423200 4.582050 -10.045691
10.043300 0.649950 2.851350
5.860700 3.529750 -10.595774
-8.485900 -9.288850 1.898250
6.345300 -3.403550 -3.558280
-13.077000 0.519550 9.408050
-1.463900 8.874250 -3.473060
4.641100 -9.976350 9.493250
-8.789800 -3.442350 -3.279600
5.985900 9.759650 9.686650
-12.842500 0.145250 9.872450
6.579800 -3.777850 -3.093870
-8.301800 -3.915250 -3.354270
6.474000 9.286750 9.612050
6.342500 9.297650 9.750850
-8.433300 -3.904350 -3.215480
-8.205300 -9.388950 2.117650
6.141300 3.429650 -10.376357
-8.158000 -9.363650 2.197950
-0.816200 9.194250 -3.312790
5.288800 -9.656350 9.653550
-8.254300 -3.889750 -3.434400
6.521500 9.312350 9.531850
-8.336500 -9.377750 1.978550
6.010100 3.440850 -10.515462
-1.339900 -8.592850 -10.174250
-7.458700 10.300750 2.722850
-7.845900 10.025550 2.942250
-1.727100 -8.868050 -9.954828
-0.001700 -19.562950 10.546650
0.001700 -19.564150 9.760450
10.322700 0.593550 2.412550
10.341000 0.420650 2.332250
10.303000 0.232950 2.332250
10.219100 0.080650 2.412550
10.111600 0.004650 2.551650
10.009300 0.025350 2.712250
9.939700 0.137050 2.851350
9.923500 0.218550 2.900650
9.933700 0.405250 2.942250
9.996800 0.581250 2.900650
10.095900 0.699350 2.787050
10.150800 0.725950 2.712250
10.253100 0.705350 2.551650
-1.170800 8.818550 -3.691980
-1.344800 8.817350 -3.611850
-1.463900 8.874250 -3.473060
-1.496200 8.974050 -3.312790
-1.476100 9.031950 -3.238120
-1.370100 9.144150 -3.124800
-1.202400 9.227050 -3.083320
-1.109200 9.249950 -3.093870
-0.935200 9.251150 -3.174000
-0.866400 9.229350 -3.238120
-0.788000 9.148250 -3.392920
-0.783800 9.094450 -3.473060
-0.847000 8.978550 -3.611850
-0.988600 8.877550 -3.691980
-0.783800 9.094450 -3.473060
5.321100 -9.756150 9.493250
5.258000 -9.872050 9.354450
-0.847000 8.978550 -3.611850
-8.336500 -9.377750 1.978550
-8.205300 -9.388950 2.117650
-8.158000 -9.363650 2.197950
-8.115900 -9.259550 2.353150
-8.151200 -9.109350 2.466750
-8.195600 -9.029450 2.497750
-8.323200 -8.886650 2.497750
-8.397700 -8.833450 2.466750
-8.542900 -8.781650 2.353150
-8.603800 -8.786450 2.278250
-8.681600 -8.855950 2.117650
-8.685100 -8.987550 1.978550
-8.658000 -9.066050 1.929250
-8.554800 -9.221950 1.887650
-8.485900 -9.288850 1.898250
-8.681600 -8.855950 2.117650
-8.603800 -8.786450 2.278250
-8.542900 -8.781650 2.353150
-8.397700 -8.833450 2.466750
-8.323200 -8.886650 2.497750
-8.195600 -9.029450 2.497750
-8.151200 -9.109350 2.466750
-8.115900 -9.259550 2.353150
-8.158000 -9.363650 2.197950
-8.205300 -9.388950 2.117650
-8.336500 -9.377750 1.978550
-8.485900 -9.288850 1.898250
-8.554800 -9.221950 1.887650
-8.658000 -9.066050 1.929250
-8.685100 -8.987550 1.978550
9.923500 0.218550 2.900650
9.939700 0.137050 2.851350
10.009300 0.025350 2.712250
10.111600 0.004650 2.551650
10.219100 0.080650 2.412550
10.303000 0.232950 2.332250
10.341000 0.420650 2.332250
10.322700 0.593550 2.412550
10.253100 0.705350 2.551650
10.150800 0.725950 2.712250
10.095900 0.699350 2.787050
9.996800 0.581250 2.900650
9.933700 0.405250 2.942250
-12.905800 -0.030750 9.830950
6.516500 -3.953850 -3.135350
-1.573700 -8.430250 -10.523297
-7.692600 10.463350 2.373750
9.783400 -16.943050 9.798450
9.780000 -16.941950 10.584650
0.001700 -19.564150 9.760450
-0.001700 -19.562950 10.546650
-0.866400 9.229350 -3.238120
-0.935200 9.251150 -3.174000
-1.109200 9.249950 -3.093870
-1.202400 9.227050 -3.083320
-1.370100 9.144150 -3.124800
-1.476100 9.031950 -3.238120
-1.496200 8.974050 -3.312790
-1.463900 8.874250 -3.473060
-1.344800 8.817350 -3.611850
-1.170800 8.818550 -3.691980
-0.988600 8.877550 -3.691980
-0.847000 8.978550 -3.611850
-0.783800 9.094450 -3.473060
-0.788000 9.148250 -3.392920
-8.166800 10.126250 2.642450
-8.433300 -3.904350 -3.215480
-8.362800 -3.920250 -3.279600
-8.254300 -3.889750 -3.434400
-8.211800 -3.785250 -3.589210
-8.246700 -3.634850 -3.702530
-8.349700 -3.478850 -3.744010
-8.493200 -3.358950 -3.702530
-8.638800 -3.307350 -3.589210
-8.699800 -3.312350 -3.514530
-8.778000 -3.382250 -3.354270
-8.782000 -3.514150 -3.215480
-8.754900 -3.592750 -3.166280
-8.651900 -3.748850 -3.124800
-8.582900 -3.815650 -3.135350
5.803700 4.036950 -10.140887
5.949000 3.985150 -10.027307
6.092400 3.865150 -9.985733
6.195500 3.709250 -10.027307
6.230700 3.559050 -10.140887
6.188600 3.454950 -10.296040
6.141300 3.429650 -10.376357
6.010100 3.440850 -10.515462
5.860700 3.529750 -10.595774
5.733100 3.672650 -10.595774
5.661500 3.831050 -10.515462
5.653500 3.902750 -10.451194
5.695600 4.006850 -10.296040
-7.663700 10.084550 2.942250
-7.845900 10.025550 2.942250
-7.937000 10.017250 2.911250
-8.088600 10.045650 2.797650
-8.166800 10.126250 2.642450
-8.170900 10.179750 2.562150
-8.107600 10.295250 2.423050
-8.044600 10.349350 2.373750
-7.876900 10.431950 2.332150
-7.692600 10.463350 2.373750
-7.609800 10.456450 2.423050
-7.490900 10.400050 2.562150
-7.458700 10.300750 2.722850
-7.478900 10.243150 2.797650
-7.585000 10.131250 2.911250
-8.044600 10.349350 2.373750
-8.107600 10.295250 2.423050
-8.170900 10.179750 2.562150
-8.166800 10.126250 2.642450
-8.088600 10.045650 2.797650
-7.937000 10.017250 2.911250
-7.845900 10.025550 2.942250
-7.663700 10.084550 2.942250
-7.585000 10.131250 2.911250
-7.478900 10.243150 2.797650
-7.458700 10.300750 2.722850
-7.490900 10.400050 2.562150
-7.609800 10.456450 2.423050
-7.692600 10.463350 2.373750
-7.876900 10.431950 2.332150
-8.211800 -3.785250 -3.589210
-8.254300 -3.889750 -3.434400
-8.362800 -3.920250 -3.279600
-8.433300 -3.904350 -3.215480
-8.582900 -3.815650 -3.135350
-8.651900 -3.748850 -3.124800
-8.754900 -3.592750 -3.166280
-8.782000 -3.514150 -3.215480
-8.778000 -3.382250 -3.354270
-8.699800 -3.312350 -3.514530
-8.638800 -3.307350 -3.589210
-8.493200 -3.358950 -3.702530
-8.349700 -3.478850 -3.744010
-8.246700 -3.634850 -3.702530
6.208300 -3.605150 -3.702530
6.245800 -3.521650 -3.671600
6.345300 -3.403550 -3.558280
6.454500 -3.375050 -3.403470
6.503400 -3.397850 -3.323340
6.573400 -3.509650 -3.184550
6.592000 -3.682650 -3.104420
6.554100 -3.870350 -3.104420
6.469800 -4.022550 -3.184550
6.361800 -4.098450 -3.323340
6.259000 -4.077650 -3.483610
6.189000 -3.965850 -3.622400
6.170400 -3.792850 -3.702530
-8.211800 -3.785250 -3.589210
6.564000 9.416750 9.377050
6.170400 -3.792850 -3.702530
6.189000 -3.965850 -3.622400
6.259000 -4.077650 -3.483610
6.361800 -4.098450 -3.323340
6.469800 -4.022550 -3.184550
6.554100 -3.870350 -3.104420
6.592000 -3.682650 -3.104420
6.573400 -3.509650 -3.184550
6.503400 -3.397850 -3.323340
6.454500 -3.375050 -3.403470
6.345300 -3.403550 -3.558280
6.245800 -3.521650 -3.671600
6.208300 -3.605150 -3.702530
5.695600 4.006850 -10.296040
5.653500 3.902750 -10.451194
5.661500 3.831050 -10.515462
5.733100 3.672650 -10.595774
5.860700 3.529750 -10.595774
6.010100 3.440850 -10.515462
6.141300 3.429650 -10.376357
6.188600 3.454950 -10.296040
6.230700 3.559050 -10.140887
6.195500 3.709250 -10.027307
6.092400 3.865150 -9.985733
5.949000 3.985150 -10.027307
5.803700 4.036950 -10.140887
4 0 1 2 3
13 4 5 6 7 8 9 10 11 12 13 14 15 16
4 17 18 19 20
4 21 22 23 24
4 25 26 27 28
4 29 30 31 32
4 33 34 35 36
4 37 38 39 40
4 41 42 43 44
4 34 33 45 46
14 47 48 49 50 51 52 53 54 55 56 57 58 59 60
4 61 62 63 64
14 65 66 67 68 69 70 71 72 73 74 75 76 77 78
5 79 80 81 82 83
4 84 85 86 87
13 88 89 90 91 92 93 94 95 96 97 98 99 100
4 101 102 103 104
4 46 45 105 106
4 107 108 109 110
4 111 112 113 114
4 115 116 117 118
4 119 120 62 61
4 121 122 123 124
4 125 126 127 128
7 129 130 131 132 133 134 135
4 136 137 138 139
4 41 44 140 141
4 142 143 144 145
4 146 2 1 147
4 148 149 150 151
4 152 153 154 155
4 156 157 158 159
4 150 149 30 29
4 160 161 141 140
4 161 160 162 163
4 164 165 87 86
4 166 167 168 169
4 170 171 172 173
4 174 175 176 177
5 31 178 179 180 32
4 42 181 182 43
4 183 184 185 186
4 187 188 189 190
4 191 192 193 194
4 17 20 195 196
4 84 197 198 85
4 169 168 120 119
4 35 199 200 36
4 64 63 201 202
4 203 128 127 204
4 205 206 207 208
4 197 209 210 198
4 211 142 145 212
4 26 25 213 214
4 215 216 217 218
4 177 176 116 115
4 219 220 221 222
4 174 223 224 175
4 19 18 225 226
4 216 227 228 217
4 229 230 130 129
4 126 125 231 232
4 229 114 113 230
4 28 27 233 234
4 143 118 117 144
4 83 82 210 209
4 199 206 205 200
4 181 235 236 182
4 227 237 238 228
4 239 240 214 213
4 102 137 136 103
4 241 242 243 244
5 245 246 81 80 247
4 248 163 162 249
4 235 139 138 236
4 242 241 250 251
4 252 232 231 253
4 156 254 255 157
4 159 158 256 257
4 201 258 259 202
13 260 261 262 263 264 265 266 267 268 269 270 271 272
14 273 274 275 276 277 278 279 280 281 282 283 284 285 286
4 287 288 289 290
4 238 237 219 222
4 248 249 288 287
15 291 292 293 294 295 296 297 298 299 300 301 302 303 304 305
4 108 215 218 109
4 38 37 244 243
15 306 307 308 309 310 311 312 313 314 315 316 317 318 319 320
4 106 105 171 170
4 184 183 257 256
4 212 135 134 211
13 321 322 323 324 325 326 327 328 329 330 331 332 333
4 240 239 334 335
4 154 153 336 337
4 173 172 338 339
4 196 195 167 166
4 336 148 151 337
4 245 252 253 246
4 338 340 341 339
14 342 343 344 345 346 347 348 349 350 351 352 353 354 355
4 258 190 189 259
5 186 185 356 179 178
4 220 40 39 221
4 340 191 194 341
4 22 0 3 23
14 357 358 359 360 361 362 363 364 365 366 367 368 369 370
13 371 372 373 374 375 376 377 378 379 380 381 382 383
15 384 385 386 387 388 389 390 391 392 393 394 395 396 397 398
4 223 112 111 224
15 399 400 401 402 403 404 405 406 407 408 409 410 411 412 413
4 122 146 147 123
14 414 415 416 417 418 419 420 421 422 423 424 425 426 427
13 428 429 430 431 432 433 434 435 436 437 438 439 440
4 226 225 188 187
4 250 441 442 251
4 193 192 208 207
4 164 203 204 165
13 443 444 445 446 447 448 449 450 451 452 453 454 455
13 456 457 458 459 460 461 462 463 464 465 466 467 468
4 334 21 24 335
4 441 107 110 442
4 101 104 290 289
4 254 152 155 255
4 121 124 234 233
