ply
format ascii 1.0
comment Created by Blender 2.82 (sub 7) - www.blender.org, source file: ''
element vertex 558
property float x
property float y
property float z
element face 129
property list uchar uint vertex_indices
end_header
-57.500000 88.471901 -19.565676
-57.500000 88.471901 -12.589075
56.750000 88.471901 -12.589075
56.750000 88.471901 -19.565676
-55.250000 55.629299 -19.386974
-55.250000 55.629299 -17.886974
-55.250000 81.862503 -11.430375
-55.250000 81.862503 -27.680405
56.750000 83.736900 28.762625
56.750000 83.736900 32.381325
-57.500000 83.736900 32.381325
-57.500000 83.736900 28.762625
55.750000 4.304100 -27.078976
56.750000 4.304100 -27.078976
56.750000 82.069000 -27.078976
55.750000 82.069000 -27.078976
55.750000 4.304100 -11.828975
55.750000 30.682100 -17.821276
55.750000 49.181999 -17.821276
55.750000 49.181999 -19.022076
55.750000 82.069000 -27.078976
55.750000 82.069000 -11.828975
54.750000 -53.580898 -19.153576
54.750000 -53.580898 -17.528576
54.750000 -2.596900 -11.828975
54.750000 -80.430901 -11.828975
54.750000 -80.430901 -27.078976
54.750000 -2.596900 -27.078976
54.750000 -34.330898 -19.153576
-55.250000 -80.637901 -11.430375
-55.250000 -80.637901 -27.680405
-57.500000 -80.637901 -27.680405
-57.500000 -80.637901 -11.430375
56.750000 -118.937897 12.866925
56.750000 -110.164902 27.409725
-57.500000 -110.164902 27.409725
-57.500000 -118.937897 12.866925
-57.500000 -86.596901 28.762625
56.750000 -86.596901 28.762625
56.750000 -92.850899 27.939224
-57.500000 -92.850899 27.939224
56.750000 -82.285896 -6.763875
56.750000 -81.538902 -6.615475
56.750000 -80.779900 -6.565675
-57.500000 -80.779900 -6.565675
-57.500000 -81.538902 -6.615475
-57.500000 -82.285896 -6.763875
-57.500000 -83.005898 -7.008475
-57.500000 -83.688904 -7.344975
56.750000 -83.688904 -7.344975
56.750000 -83.005898 -7.008475
-57.500000 -81.631897 28.762625
56.750000 -81.631897 28.762625
56.750000 -86.596901 28.762625
-57.500000 -86.596901 28.762625
56.750000 119.019302 12.560125
-57.500000 119.019302 12.560125
-57.500000 110.834099 26.737225
56.750000 110.834099 26.737225
58.750000 49.181999 -15.772075
58.750000 30.682100 -15.772075
58.750000 30.682100 -19.022076
58.750000 49.181999 -19.022076
-57.500000 82.448502 -6.565675
56.750000 82.448502 -6.565675
56.750000 84.007500 -6.770875
-57.500000 84.007500 -6.770875
56.750000 86.707703 -8.329875
-57.500000 86.707703 -8.329875
-57.500000 96.656998 34.922424
56.750000 96.656998 34.922424
56.750000 120.096901 4.375025
-57.500000 120.096901 4.375025
56.750000 -118.937897 -4.116975
56.750000 -120.096901 4.375025
-57.500000 -120.096901 4.375025
-57.500000 -118.937897 -4.116975
-55.250000 38.129299 -17.886974
-55.250000 38.129299 -19.386974
-55.250000 6.002100 -27.680405
-55.250000 6.002100 -11.430375
-57.500000 -86.596901 -19.565676
56.750000 -86.596901 -19.565676
56.750000 -86.596901 -12.382575
-57.500000 -86.596901 -12.382575
56.750000 -86.596901 -36.000027
-57.500000 -86.596901 -36.000027
-57.500000 -80.575897 -36.000027
56.750000 -80.575897 -36.000027
56.750000 -2.596900 -27.078976
56.750000 -2.596900 -11.828975
54.750000 -2.596900 -11.828975
54.750000 -2.596900 -27.078976
56.750000 -80.575897 -32.250027
56.750000 -80.575897 -36.000027
-57.500000 -80.575897 -36.000027
-57.500000 -80.575897 -32.250027
56.750000 81.674301 -36.000027
-57.500000 81.674301 -36.000027
-57.500000 88.471901 -36.000027
56.750000 88.471901 -36.000027
-57.395195 -51.013901 -15.885575
-58.250000 -51.013901 -15.885575
-58.250000 -51.013901 -18.885574
-55.250000 -51.013901 -18.885574
-55.250000 -51.013901 -18.030775
-57.395195 -51.013901 -18.030775
58.250000 -34.330898 -15.903575
58.250000 -53.580898 -15.903575
58.250000 -53.580898 -19.153576
58.250000 -34.330898 -19.153576
-57.500000 -109.937897 10.852625
56.750000 -109.937897 10.852625
56.750000 -109.937897 -1.655675
-57.500000 -109.937897 -1.655675
55.750000 49.181999 -19.022076
55.750000 30.682100 -19.022076
55.750000 30.682100 -17.821276
55.750000 49.181999 -17.821276
56.750000 -80.430901 -27.078976
56.750000 82.069000 -27.078976
56.750000 4.304100 -27.078976
56.750000 -2.596900 -27.078976
56.750000 87.664902 -9.577375
56.750000 88.471901 -12.589075
-57.500000 88.471901 -12.589075
-57.500000 87.664902 -9.577375
-57.500000 -103.683899 21.685125
56.750000 -103.683899 21.685125
56.750000 -120.096901 4.375025
-57.500000 -120.096901 4.375025
54.750000 -34.330898 -17.528576
54.750000 -53.580898 -17.528576
54.750000 -53.580898 -19.153576
54.750000 -34.330898 -19.153576
-57.500000 107.774803 -6.935475
56.750000 107.774803 -6.935475
56.750000 110.693497 4.598425
-57.500000 110.693497 4.598425
56.750000 -95.141899 -26.581076
-57.500000 -95.141899 -26.581076
-57.500000 -86.596901 -27.249975
56.750000 -86.596901 -27.249975
56.750000 -86.596901 -12.382575
56.750000 -85.817902 -9.474175
-57.500000 -85.817902 -9.474175
-57.500000 -86.596901 -12.382575
-57.500000 104.293503 21.012726
56.750000 104.293503 21.012726
56.750000 99.721397 24.889826
-57.500000 99.721397 24.889826
56.750000 -81.631897 28.762625
56.750000 -81.631897 32.381325
56.750000 83.736900 32.381325
56.750000 88.903099 32.500027
56.750000 -86.596901 32.500027
56.750000 -86.596901 36.000027
56.750000 -95.141899 35.331024
56.750000 -110.164902 27.409725
56.750000 -118.937897 12.866925
56.750000 -109.937897 10.852625
56.750000 -103.683899 21.685125
56.750000 -92.850899 27.939224
-57.500000 109.952499 10.547225
56.750000 109.952499 10.547225
56.750000 -110.164902 -18.659775
-57.500000 -110.164902 -18.659775
-57.500000 94.337799 -18.329975
56.750000 94.337799 -18.329975
56.750000 104.293503 -11.815775
-57.500000 104.293503 -11.815775
-55.250000 6.002100 -11.430375
-57.500000 6.002100 -11.430375
-57.500000 81.862503 -11.430375
-55.250000 81.862503 -11.430375
-57.500000 -80.637901 -27.680405
-55.250000 -80.637901 -27.680405
-55.250000 -2.458900 -27.680405
-57.500000 -2.458900 -27.680405
-55.250000 -31.263901 -18.885574
-55.250000 -31.263901 -18.030775
-55.250000 -2.458900 -11.430375
-55.250000 -2.458900 -27.680405
-55.250000 -80.637901 -27.680405
-55.250000 -80.637901 -11.430375
-55.250000 -51.013901 -18.030775
-55.250000 -51.013901 -18.885574
-55.250000 -2.458900 -27.680405
-55.250000 -2.458900 -11.430375
-57.500000 -2.458900 -11.430375
-57.500000 -2.458900 -27.680405
-55.250000 -80.637901 -11.430375
-57.500000 -80.637901 -11.430375
-57.500000 -2.458900 -11.430375
-55.250000 -2.458900 -11.430375
56.750000 82.069000 -27.078976
56.750000 82.069000 -11.828975
55.750000 82.069000 -11.828975
55.750000 82.069000 -27.078976
-57.500000 -86.596901 36.000027
56.750000 -86.596901 36.000027
56.750000 88.471901 36.000027
-57.500000 88.471901 36.000027
56.750000 -92.850899 -18.742275
56.750000 -103.683899 -12.488175
56.750000 -109.937897 -1.655675
56.750000 -118.937897 -4.116975
56.750000 -110.164902 -18.659775
56.750000 -95.141899 -26.581076
56.750000 -80.430901 -11.828975
56.750000 -2.596900 -11.828975
56.750000 4.304100 -11.828975
56.750000 82.069000 -11.828975
56.750000 -86.596901 -27.249975
56.750000 -86.596901 -36.000027
56.750000 -80.575897 -36.000027
56.750000 -80.575897 -32.250027
56.750000 81.674301 -32.250027
56.750000 81.674301 -36.000027
56.750000 88.471901 -36.000027
56.750000 88.471901 -27.249975
56.750000 96.656998 -26.172476
56.750000 110.834099 -17.987274
56.750000 119.019302 -3.810175
56.750000 119.019302 12.560125
56.750000 110.834099 26.737225
56.750000 96.656998 34.922424
56.750000 88.903099 35.943226
56.750000 83.736900 28.762625
56.750000 94.337799 27.526825
56.750000 104.293503 21.012726
56.750000 109.952499 10.547225
56.750000 110.693497 4.598425
56.750000 107.774803 -6.935475
56.750000 104.293503 -11.815775
56.750000 94.337799 -18.329975
56.750000 88.471901 -19.565676
56.750000 88.013397 -10.283975
56.750000 86.707703 -8.329875
56.750000 83.234703 -6.617175
56.750000 -82.285896 -6.763875
56.750000 -83.688904 -7.344975
56.750000 -85.817902 -9.474175
56.750000 -86.398903 -10.877075
56.750000 -86.596901 -19.565676
54.750000 -80.430901 -27.078976
56.750000 -80.430901 -27.078976
56.750000 -2.596900 -27.078976
54.750000 -2.596900 -27.078976
56.750000 4.304100 -11.828975
56.750000 4.304100 -27.078976
55.750000 4.304100 -27.078976
55.750000 4.304100 -11.828975
56.750000 88.903099 36.000027
56.750000 -86.596901 36.000027
56.750000 -86.596901 32.500027
56.750000 88.903099 32.500027
-55.250000 -51.013901 -18.885574
-58.250000 -51.013901 -18.885574
-58.250000 -31.263901 -18.885574
-55.250000 -31.263901 -18.885574
-58.250000 -51.013901 -15.885575
-57.395195 -51.013901 -15.885575
-57.395195 -31.263901 -15.885575
-58.250000 -31.263901 -15.885575
-57.500000 -86.596901 32.381325
-57.500000 88.471901 32.381325
-57.500000 88.471901 36.000027
-57.500000 -86.596901 36.000027
56.750000 -80.575897 -32.250027
-57.500000 -80.575897 -32.250027
-57.500000 81.674301 -32.250027
56.750000 81.674301 -32.250027
-55.250000 38.129299 -19.386974
-58.750000 38.129299 -19.386974
-58.750000 55.629299 -19.386974
-55.250000 55.629299 -19.386974
-57.500000 81.862503 -27.680405
-57.500000 81.862503 -11.430375
-57.500000 88.471901 -27.249975
-57.500000 88.471901 -36.000027
-57.500000 81.674301 -36.000027
-57.500000 81.674301 -32.250027
-57.500000 -80.575897 -32.250027
-57.500000 -80.575897 -36.000027
-57.500000 -86.596901 -36.000027
-57.500000 -86.596901 -27.249975
-57.500000 -80.637901 -11.430375
-57.500000 -80.637901 -27.680405
-55.250000 -51.013901 -18.885574
-55.250000 -31.263901 -18.885574
-55.250000 -31.263901 -18.030775
-55.250000 -51.013901 -18.030775
-55.250000 38.129299 -17.886974
-55.250000 55.629299 -17.886974
-55.250000 55.629299 -19.386974
-55.250000 38.129299 -19.386974
57.201000 -53.580898 -15.903575
58.250000 -53.580898 -15.903575
58.250000 -34.330898 -15.903575
57.201000 -34.330898 -15.903575
56.750000 88.471901 28.762625
-57.500000 88.471901 28.762625
-57.500000 110.834099 -17.987274
56.750000 110.834099 -17.987274
56.750000 96.656998 -26.172476
-57.500000 96.656998 -26.172476
56.750000 -81.631897 32.381325
-57.500000 -81.631897 32.381325
-57.500000 83.736900 32.381325
56.750000 83.736900 32.381325
57.799000 30.682100 -15.772075
58.750000 30.682100 -15.772075
58.750000 49.181999 -15.772075
57.799000 49.181999 -15.772075
57.799000 30.682100 -15.772075
57.799000 49.181999 -15.772075
57.799000 49.181999 -17.821276
57.799000 30.682100 -17.821276
55.750000 49.181999 -17.821276
55.750000 30.682100 -17.821276
55.750000 30.682100 -19.022076
55.750000 49.181999 -19.022076
-57.500000 -103.683899 -12.488175
56.750000 -103.683899 -12.488175
56.750000 -92.850899 -18.742275
-57.500000 -92.850899 -18.742275
-57.500000 -2.458900 -27.680405
-57.500000 6.002100 -27.680405
-57.618664 55.629299 -16.386974
-57.618664 38.129299 -16.386974
-57.618664 38.129299 -17.886974
-57.618664 55.629299 -17.886974
-57.500000 88.471901 32.381325
-57.500000 88.471901 36.000027
-57.500000 96.656998 34.922424
-57.500000 110.834099 26.737225
-57.500000 119.019302 12.560125
-57.500000 119.019302 -3.810175
-57.500000 110.834099 -17.987274
-57.500000 96.656998 -26.172476
-57.500000 6.002100 -11.430375
-57.500000 -2.458900 -11.430375
-57.500000 -95.141899 -26.581076
-57.500000 -110.164902 -18.659775
-57.500000 -118.937897 -4.116975
-57.500000 -118.937897 12.866925
-57.500000 -110.164902 27.409725
-57.500000 -95.141899 35.331024
-57.500000 -86.596901 36.000027
-57.500000 -86.596901 32.381325
-57.500000 -81.631897 32.381325
-57.500000 -81.631897 28.762625
-57.500000 -92.850899 27.939224
-57.500000 -103.683899 21.685125
-57.500000 -109.937897 10.852625
-57.500000 -109.937897 -1.655675
-57.500000 -103.683899 -12.488175
-57.500000 -92.850899 -18.742275
-57.500000 -86.596901 -19.565676
-57.500000 -86.398903 -10.877075
-57.500000 -85.817902 -9.474175
-57.500000 -83.688904 -7.344975
-57.500000 -82.285896 -6.763875
-57.500000 83.234703 -6.617175
-57.500000 86.707703 -8.329875
-57.500000 88.013397 -10.283975
-57.500000 88.471901 -19.565676
-57.500000 94.337799 -18.329975
-57.500000 104.293503 -11.815775
-57.500000 107.774803 -6.935475
-57.500000 110.693497 4.598425
-57.500000 109.952499 10.547225
-57.500000 104.293503 21.012726
-57.500000 94.337799 27.526825
-57.500000 83.736900 28.762625
-57.500000 83.736900 32.381325
-57.500000 -95.141899 35.331024
56.750000 -95.141899 35.331024
56.750000 -86.596901 36.000027
-57.500000 -86.596901 36.000027
56.750000 -81.631897 32.381325
56.750000 -81.631897 28.762625
-57.500000 -81.631897 28.762625
-57.500000 -81.631897 32.381325
-57.500000 88.471901 -19.565676
56.750000 88.471901 -19.565676
56.750000 -86.596901 -36.000027
56.750000 -86.596901 -27.249975
-57.500000 -86.596901 -27.249975
-57.500000 -86.596901 -36.000027
56.750000 -86.596901 -19.565676
-57.500000 -86.596901 -19.565676
56.750000 88.471901 -27.249975
-57.500000 88.471901 -27.249975
-57.500000 88.471901 28.762625
56.750000 88.471901 28.762625
56.750000 83.736900 28.762625
-57.500000 83.736900 28.762625
56.750000 119.019302 -3.810175
-57.500000 119.019302 -3.810175
56.750000 82.448502 -6.565675
-57.500000 82.448502 -6.565675
-57.500000 -80.779900 -6.565675
56.750000 -80.779900 -6.565675
-55.250000 6.002100 -11.430375
-55.250000 6.002100 -27.680405
-57.500000 6.002100 -27.680405
-57.500000 6.002100 -11.430375
-57.500000 6.002100 -27.680405
-55.250000 6.002100 -27.680405
-55.250000 81.862503 -27.680405
-57.500000 81.862503 -27.680405
-55.250000 81.862503 -27.680405
-55.250000 81.862503 -11.430375
-57.500000 81.862503 -11.430375
-57.500000 81.862503 -27.680405
-57.500000 88.471901 36.000027
56.750000 88.471901 36.000027
56.750000 -86.596901 36.000027
-57.500000 -86.596901 36.000027
54.750000 -34.330898 -17.528576
56.750000 88.903099 32.500027
56.750000 -86.596901 32.500027
56.750000 -86.596901 36.000027
56.750000 88.903099 36.000027
56.750000 -80.430901 -11.828975
54.750000 -80.430901 -11.828975
54.750000 -2.596900 -11.828975
56.750000 -2.596900 -11.828975
-57.618664 38.129299 -16.386974
-58.750000 38.129299 -16.386974
-58.750000 38.129299 -19.386974
-55.250000 38.129299 -19.386974
-55.250000 38.129299 -17.886974
-57.618664 38.129299 -17.886974
56.750000 4.304100 -11.828975
55.750000 4.304100 -11.828975
55.750000 82.069000 -11.828975
56.750000 82.069000 -11.828975
55.750000 30.682100 -19.022076
55.750000 4.304100 -27.078976
56.750000 -80.430901 -11.828975
56.750000 -80.430901 -27.078976
54.750000 -80.430901 -27.078976
54.750000 -80.430901 -11.828975
56.750000 88.471901 -27.249975
56.750000 88.471901 -36.000027
-57.500000 88.471901 -36.000027
-57.500000 88.471901 -27.249975
-57.395195 -31.263901 -18.030775
-55.250000 -31.263901 -18.030775
-55.250000 -31.263901 -18.885574
-58.250000 -31.263901 -18.885574
-58.250000 -31.263901 -15.885575
-57.395195 -31.263901 -15.885575
-58.250000 -51.013901 -15.885575
-58.250000 -31.263901 -15.885575
-58.250000 -31.263901 -18.885574
-58.250000 -51.013901 -18.885574
-58.750000 38.129299 -16.386974
-57.618664 38.129299 -16.386974
-57.618664 55.629299 -16.386974
-58.750000 55.629299 -16.386974
56.750000 81.674301 -36.000027
56.750000 81.674301 -32.250027
-57.500000 81.674301 -32.250027
-57.500000 81.674301 -36.000027
-57.500000 88.471901 32.381325
-57.500000 -86.596901 32.381325
-57.500000 -86.596901 36.000027
-57.500000 88.471901 36.000027
-57.395195 -51.013901 -18.030775
-55.250000 -51.013901 -18.030775
-55.250000 -31.263901 -18.030775
-57.395195 -31.263901 -18.030775
-58.750000 38.129299 -16.386974
-58.750000 55.629299 -16.386974
-58.750000 55.629299 -19.386974
-58.750000 38.129299 -19.386974
-55.250000 55.629299 -19.386974
-58.750000 55.629299 -19.386974
-58.750000 55.629299 -16.386974
-57.618664 55.629299 -16.386974
-57.618664 55.629299 -17.886974
-55.250000 55.629299 -17.886974
-55.250000 -51.013901 -18.030775
-55.250000 -31.263901 -18.030775
-55.250000 -31.263901 -18.885574
-55.250000 -51.013901 -18.885574
56.750000 120.096901 4.375025
-57.500000 120.096901 4.375025
58.750000 30.682100 -19.022076
58.750000 30.682100 -15.772075
57.799000 30.682100 -15.772075
57.799000 30.682100 -17.821276
55.750000 30.682100 -17.821276
55.750000 30.682100 -19.022076
-55.250000 38.129299 -19.386974
-55.250000 55.629299 -19.386974
-55.250000 55.629299 -17.886974
-55.250000 38.129299 -17.886974
-57.618664 38.129299 -17.886974
-55.250000 38.129299 -17.886974
-55.250000 55.629299 -17.886974
-57.618664 55.629299 -17.886974
-57.500000 88.471901 36.000027
56.750000 88.471901 36.000027
56.750000 83.736900 32.381325
-57.500000 83.736900 32.381325
-57.500000 -81.631897 32.381325
56.750000 -81.631897 32.381325
58.750000 49.181999 -19.022076
55.750000 49.181999 -19.022076
55.750000 49.181999 -17.821276
57.799000 49.181999 -17.821276
57.799000 49.181999 -15.772075
58.750000 49.181999 -15.772075
58.750000 30.682100 -19.022076
55.750000 30.682100 -19.022076
55.750000 49.181999 -19.022076
58.750000 49.181999 -19.022076
55.750000 30.682100 -17.821276
57.799000 30.682100 -17.821276
57.799000 49.181999 -17.821276
55.750000 49.181999 -17.821276
57.201000 -53.580898 -15.903575
57.201000 -53.580898 -17.528576
54.750000 -53.580898 -17.528576
54.750000 -53.580898 -19.153576
58.250000 -53.580898 -19.153576
58.250000 -53.580898 -15.903575
-57.395195 -31.263901 -15.885575
-57.395195 -51.013901 -15.885575
-57.395195 -51.013901 -18.030775
-57.395195 -31.263901 -18.030775
57.201000 -34.330898 -17.528576
57.201000 -34.330898 -15.903575
58.250000 -34.330898 -15.903575
58.250000 -34.330898 -19.153576
54.750000 -34.330898 -19.153576
54.750000 -34.330898 -17.528576
54.750000 -53.580898 -17.528576
57.201000 -53.580898 -17.528576
57.201000 -34.330898 -17.528576
54.750000 -34.330898 -17.528576
54.750000 -34.330898 -19.153576
54.750000 -53.580898 -19.153576
54.750000 -53.580898 -17.528576
54.750000 -34.330898 -17.528576
57.201000 -53.580898 -15.903575
57.201000 -34.330898 -15.903575
57.201000 -34.330898 -17.528576
57.201000 -53.580898 -17.528576
58.250000 -53.580898 -19.153576
54.750000 -53.580898 -19.153576
54.750000 -34.330898 -19.153576
58.250000 -34.330898 -19.153576
4 0 1 2 3
4 4 5 6 7
4 8 9 10 11
4 12 13 14 15
6 16 17 18 19 20 21
7 22 23 24 25 26 27 28
4 29 30 31 32
4 33 34 35 36
4 37 38 39 40
10 41 42 43 44 45 46 47 48 49 50
4 51 52 53 54
4 55 56 57 58
4 59 60 61 62
4 63 64 65 66
4 65 67 68 66
4 58 57 69 70
4 55 71 72 56
4 73 74 75 76
8 77 78 4 7 79 80 6 5
4 81 82 83 84
4 85 86 87 88
4 89 90 91 92
4 93 94 95 96
4 97 98 99 100
6 101 102 103 104 105 106
4 107 108 109 110
4 111 112 113 114
4 115 116 117 118
3 119 120 121
3 119 121 122
4 123 124 125 126
4 127 128 112 111
4 129 33 36 130
4 131 132 133 134
4 135 136 137 138
4 139 140 141 142
4 143 144 145 146
4 147 148 149 150
12 151 152 153 154 155 156 157 158 159 160 161 162
4 163 138 137 164
4 40 39 128 127
4 165 73 76 166
4 167 168 169 170
4 171 172 173 174
4 175 176 177 178
8 179 180 181 182 183 184 185 186
4 187 188 189 190
4 191 192 193 194
4 195 196 197 198
4 199 200 201 202
50 203 204 205 160 159 206 207 208 119 209 210 122 121 211 212 120 213 214 215 216 217 218 219 220 221 222 223 224 225 226 227 154 153 228 229 230 231 232 233 234 235 236 237 238 239 240 241 242 243 244
4 245 246 247 248
4 249 250 251 252
4 253 254 255 256
4 257 258 259 260
4 261 262 263 264
4 265 266 267 268
4 269 270 271 272
4 273 274 275 276
12 277 278 279 280 281 282 283 284 285 286 287 288
4 289 290 291 292
4 293 294 295 296
4 297 298 299 300
4 149 301 302 150
4 303 304 305 306
4 307 308 309 310
4 311 312 313 314
4 315 316 317 318
4 319 320 321 322
4 323 324 325 326
4 213 120 119 208
3 277 288 327
3 277 327 328
4 329 330 331 332
4 166 140 139 165
50 333 334 335 336 337 338 339 340 279 278 341 328 327 342 287 286 343 344 345 346 347 348 349 350 351 352 353 354 355 356 357 358 359 360 361 362 363 364 365 366 367 368 369 370 371 372 373 374 375 376
4 377 378 379 380
4 381 382 383 384
4 378 377 35 34
4 168 167 385 386
4 135 170 169 136
4 387 388 389 390
4 181 180 185 184
4 391 392 326 325
4 67 123 126 68
4 147 163 164 148
4 393 394 306 305
4 395 396 397 398
4 399 304 303 400
4 401 402 403 404
4 405 406 407 408
4 409 410 411 412
4 413 414 415 416
4 417 418 419 420
5 421 28 27 24 23
4 422 423 424 425
4 114 113 324 323
4 426 427 428 429
6 430 431 432 433 434 435
4 436 437 438 439
6 19 440 17 16 441 20
4 442 443 444 445
4 446 447 448 449
6 450 451 452 453 454 455
4 456 457 458 459
4 460 461 462 463
4 464 465 466 467
4 468 469 470 471
4 472 473 474 475
4 476 477 478 479
6 480 481 482 483 484 485
4 486 487 488 489
4 490 399 400 491
6 492 493 494 495 496 497
4 498 499 500 501
4 502 503 504 505
4 506 507 70 69
4 508 509 510 511
6 512 513 514 515 516 517
4 518 519 520 521
4 522 523 524 525
6 526 527 528 529 530 531
4 532 533 534 535
6 536 537 538 539 540 541
4 542 543 544 545
4 546 547 548 549
4 550 551 552 553
4 554 555 556 557
4 145 144 49 48
