ply
format ascii 1.0
comment Created by Blender 2.82 (sub 7) - www.blender.org, source file: ''
element vertex 290
property float x
property float y
property float z
element face 73
property list uchar uint vertex_indices
end_header
-15.903599 23.782175 7.283450
15.912752 23.782175 7.283450
-14.328798 22.207375 7.283450
-14.328799 -22.207375 7.283450
14.337951 -22.207375 7.283450
15.912751 -23.782175 7.283450
-15.903600 -23.782175 7.283450
-15.033694 22.202576 6.889750
-14.706118 22.420975 6.889750
-15.579659 23.731276 6.889750
-15.907237 23.512875 6.889750
-15.579660 -23.731218 -6.102350
-15.907238 -23.512833 -6.102350
-15.907238 -23.512833 -7.677150
-15.579660 -23.731218 -7.677150
-15.903600 -23.782175 7.677150
-15.903600 -23.782175 7.283450
-15.903599 23.782175 7.283450
-15.903599 23.782175 7.677150
-0.214048 -0.026825 -6.102350
0.004551 -0.354825 -6.102350
-14.659629 -22.351175 -6.102350
-14.987211 -22.132795 -6.102350
-15.903599 23.782175 7.677150
-15.903599 23.782175 7.283450
-15.903600 -23.782175 7.283450
-15.903600 -23.782175 7.677150
15.588851 -23.731218 -6.102350
15.916451 -23.512833 -6.102350
15.916451 -23.512833 6.889750
15.588851 -23.731218 6.889750
15.588852 23.731276 -7.677150
15.916452 23.512875 -7.677150
0.241152 -0.000025 -7.677150
0.022752 0.327575 -7.677150
-15.743449 -23.622025 7.283450
15.752651 -23.622025 7.283450
14.337951 -22.207375 7.283450
-14.328799 -22.207375 7.283450
-14.328798 22.207375 7.283450
-15.743448 23.622076 7.283450
0.241152 -0.000025 -7.677150
0.241152 -0.000025 -6.102350
15.916451 -23.512833 -6.102350
15.916451 -23.512833 -7.677150
14.715251 -22.420904 -6.102350
15.042851 -22.202515 -6.102350
-14.706118 22.420975 -6.102350
-15.033694 22.202576 -6.102350
14.337952 22.207375 7.283450
-14.328798 22.207375 7.283450
-14.348248 22.226875 6.889750
14.357452 22.226875 6.889750
-15.579659 23.731276 -6.102350
-15.907237 23.512875 -6.102350
-15.907237 23.512875 6.889750
-15.579659 23.731276 6.889750
15.752651 -23.622025 6.889750
15.752652 23.622076 6.889750
-14.348248 22.226875 6.889750
14.357452 22.226875 6.889750
14.357451 -22.226826 6.889750
-14.348249 -22.226826 6.889750
-14.987211 -22.132795 6.889750
-14.659629 -22.351175 6.889750
-14.659629 -22.351175 -6.102350
-14.987211 -22.132795 -6.102350
15.588852 23.731276 -6.102350
15.588852 23.731276 -7.677150
0.022752 0.327575 -7.677150
0.022752 0.327575 -6.102350
0.241152 -0.000025 -6.102350
0.241152 -0.000025 -7.677150
15.916452 23.512875 -7.677150
15.916452 23.512875 -6.102350
-15.579659 23.731276 -7.677150
15.916451 -23.512833 -7.677150
15.588851 -23.731218 -7.677150
-15.907237 23.512875 -7.677150
0.004551 -0.354825 -7.677150
0.004551 -0.354825 -6.102350
-15.579660 -23.731218 -6.102350
-15.579660 -23.731218 -7.677150
-14.869904 22.311775 -6.102350
-14.706118 22.420975 -6.102350
-15.579659 23.731276 -6.102350
-15.743448 23.622076 -6.102350
15.916451 -23.512833 -7.677150
15.916451 -23.512833 -6.102350
15.588851 -23.731218 -6.102350
15.588851 -23.731218 -7.677150
15.588851 -23.731218 6.889750
15.916451 -23.512833 6.889750
15.042851 -22.202515 6.889750
14.715251 -22.420904 6.889750
-14.659629 -22.351175 -6.102350
-14.659629 -22.351175 6.889750
-15.579660 -23.731218 6.889750
-15.579660 -23.731218 -6.102350
-15.743448 23.622076 7.283450
-15.743448 23.622076 6.889750
-15.743449 -23.622025 6.889750
-15.743449 -23.622025 7.283450
15.042851 -22.202515 -6.102350
15.042851 -22.202515 6.889750
15.916451 -23.512833 6.889750
15.916451 -23.512833 -6.102350
-0.212948 -0.028525 -7.677150
0.004551 -0.354825 -7.677150
-15.579660 -23.731218 -7.677150
-15.907238 -23.512833 -7.677150
15.912751 -23.782175 7.283450
-15.903600 -23.782175 7.283450
-15.903600 -23.782175 7.677150
15.912751 -23.782175 7.677150
-15.579659 23.731276 -7.677150
-15.579659 23.731276 -6.102350
0.022752 0.327575 -6.102350
0.022752 0.327575 -7.677150
14.337951 -22.207375 7.283450
14.337952 22.207375 7.283450
14.357452 22.226875 6.889750
14.357451 -22.226826 6.889750
-15.579660 -23.731218 -6.102350
-14.659629 -22.351175 -6.102350
-14.987211 -22.132795 -6.102350
-15.907238 -23.512833 -6.102350
-0.212948 -0.028525 -7.677150
-15.907238 -23.512833 -7.677150
-0.214048 -0.026825 -7.677150
-0.214048 -0.026825 -7.677150
-0.212948 -0.028525 -7.677150
-0.214048 -0.026825 -6.102350
-15.743448 23.622076 7.283450
15.752652 23.622076 7.283450
15.752652 23.622076 6.889750
-15.743448 23.622076 6.889750
15.752652 23.622076 7.283450
14.337952 22.207375 7.283450
-14.328799 -22.207375 7.283450
-14.328798 22.207375 7.283450
-15.903599 23.782175 7.283450
-15.903600 -23.782175 7.283450
15.912751 -23.782175 7.283450
14.337951 -22.207375 7.283450
-15.903599 23.782175 7.677150
15.912752 23.782175 7.677150
15.912752 23.782175 7.283450
-15.903599 23.782175 7.283450
15.042852 22.202576 6.889750
14.715252 22.420975 6.889750
14.715252 22.420975 -6.102350
15.042852 22.202576 -6.102350
15.042851 -22.202515 -6.102350
15.916451 -23.512833 -6.102350
15.588851 -23.731218 -6.102350
14.715251 -22.420904 -6.102350
14.715252 22.420975 -6.102350
15.042852 22.202576 -6.102350
0.241152 -0.000025 -6.102350
0.022752 0.327575 -6.102350
0.022752 0.327575 -7.677150
0.022752 0.327575 -6.102350
0.241152 -0.000025 -6.102350
0.241152 -0.000025 -7.677150
14.715251 -22.420904 6.889750
15.042851 -22.202515 6.889750
15.042851 -22.202515 -6.102350
14.715251 -22.420904 -6.102350
-15.033694 22.202576 -6.102350
-14.869904 22.311775 -6.102350
-15.743448 23.622076 -6.102350
-15.907237 23.512875 -6.102350
15.588852 23.731276 6.889750
15.588852 23.731276 -6.102350
14.715252 22.420975 -6.102350
14.715252 22.420975 6.889750
15.588852 23.731276 6.889750
15.916452 23.512875 6.889750
15.916452 23.512875 -6.102350
15.588852 23.731276 -6.102350
-15.907237 23.512875 -6.102350
-15.579659 23.731276 -6.102350
-15.579659 23.731276 -7.677150
-15.907237 23.512875 -7.677150
15.588851 -23.731218 -6.102350
0.004551 -0.354825 -6.102350
0.004551 -0.354825 -7.677150
15.588851 -23.731218 -7.677150
15.042852 22.202576 6.889750
15.916452 23.512875 6.889750
15.588852 23.731276 6.889750
14.715252 22.420975 6.889750
15.752651 -23.622025 7.283450
-15.743449 -23.622025 7.283450
-15.743449 -23.622025 6.889750
15.752651 -23.622025 6.889750
14.715251 -22.420904 6.889750
14.715251 -22.420904 -6.102350
15.588851 -23.731218 -6.102350
15.588851 -23.731218 6.889750
-15.033694 22.202576 6.889750
-15.907237 23.512875 6.889750
-15.907237 23.512875 -6.102350
-15.033694 22.202576 -6.102350
-15.907238 -23.512833 -6.102350
-0.214048 -0.026825 -6.102350
-0.214048 -0.026825 -7.677150
-15.907238 -23.512833 -7.677150
-0.214048 -0.026825 -6.102350
-0.212948 -0.028525 -7.677150
0.004551 -0.354825 -7.677150
0.004551 -0.354825 -6.102350
-15.743448 23.622076 6.889750
-15.743449 -23.622025 6.889750
-15.579659 23.731276 -6.102350
-15.579659 23.731276 6.889750
-14.706118 22.420975 6.889750
-14.706118 22.420975 -6.102350
-14.987211 -22.132795 -6.102350
-14.996425 -22.118975 6.889750
-15.916452 -23.499010 6.889750
-15.907238 -23.512833 -6.102350
15.588852 23.731276 -6.102350
15.916452 23.512875 -6.102350
15.042852 22.202576 -6.102350
14.715252 22.420975 -6.102350
-15.903600 -23.782175 7.677150
-15.903599 23.782175 7.677150
15.912752 23.782175 7.677150
15.912751 -23.782175 7.677150
15.912751 -23.782175 7.677150
15.912752 23.782175 7.677150
-15.903599 23.782175 7.677150
-15.903600 -23.782175 7.677150
-14.348248 22.226875 6.889750
-14.328798 22.207375 7.283450
-14.328799 -22.207375 7.283450
-14.348249 -22.226826 6.889750
-14.328799 -22.207375 7.283450
14.337951 -22.207375 7.283450
14.357451 -22.226826 6.889750
-14.348249 -22.226826 6.889750
-0.214048 -0.026825 -6.102350
-15.907237 23.512875 -6.102350
-15.907237 23.512875 -7.677150
-0.214048 -0.026825 -7.677150
-14.706118 22.420975 6.889750
-15.033694 22.202576 6.889750
-15.033694 22.202576 -6.102350
-14.706118 22.420975 -6.102350
-15.903599 23.782175 7.283450
15.912752 23.782175 7.283450
15.912752 23.782175 7.677150
-15.903599 23.782175 7.677150
15.912751 -23.782175 7.677150
-15.903600 -23.782175 7.677150
-15.903600 -23.782175 7.283450
15.912751 -23.782175 7.283450
15.588852 23.731276 -7.677150
15.588852 23.731276 -6.102350
15.916452 23.512875 -6.102350
15.916452 23.512875 -7.677150
14.337952 22.207375 7.283450
15.912751 -23.782175 7.283450
15.912751 -23.782175 7.677150
15.912752 23.782175 7.677150
15.912752 23.782175 7.283450
15.916452 23.512875 -6.102350
15.916452 23.512875 6.889750
15.042852 22.202576 6.889750
15.042852 22.202576 -6.102350
0.004551 -0.354825 -7.677150
0.241152 -0.000025 -7.677150
0.241152 -0.000025 -6.102350
0.004551 -0.354825 -6.102350
15.752652 23.622076 6.889750
15.752652 23.622076 7.283450
15.752651 -23.622025 7.283450
15.752651 -23.622025 6.889750
15.912752 23.782175 7.283450
15.912752 23.782175 7.677150
15.912751 -23.782175 7.677150
15.912751 -23.782175 7.283450
15.912752 23.782175 7.283450
14.337952 22.207375 7.283450
-15.907238 -23.512833 -6.102350
-15.916452 -23.499010 6.889750
-14.996425 -22.118975 6.889750
-14.987211 -22.132795 -6.102350
7 0 1 2 3 4 5 6
4 7 8 9 10
4 11 12 13 14
4 15 16 17 18
4 19 20 21 22
4 23 24 25 26
4 27 28 29 30
4 31 32 33 34
6 35 36 37 38 39 40
4 41 42 43 44
4 45 46 47 48
4 49 50 51 52
4 53 54 55 56
6 57 58 59 60 61 62
4 63 64 65 66
4 67 68 69 70
4 71 72 73 74
4 75 76 77 78
4 79 80 81 82
4 83 84 85 86
4 87 88 89 90
4 91 92 93 94
4 95 96 97 98
4 99 100 101 102
4 103 104 105 106
4 107 108 109 110
4 111 112 113 114
4 115 116 117 118
4 119 120 121 122
4 123 124 125 126
3 127 128 129
3 130 131 132
4 133 134 135 136
6 36 137 40 39 138 37
6 139 140 141 142 143 144
4 145 146 147 148
4 149 150 151 152
4 153 154 155 156
4 157 158 159 160
4 161 162 163 164
4 165 166 167 168
4 169 170 171 172
4 173 174 175 176
4 177 178 179 180
4 181 182 183 184
4 185 186 187 188
4 189 190 191 192
4 193 194 195 196
4 197 198 199 200
4 201 202 203 204
4 205 206 207 208
4 209 210 211 212
6 213 214 57 62 59 58
4 215 216 217 218
4 219 220 221 222
4 223 224 225 226
4 227 228 229 230
4 231 232 233 234
4 235 236 237 238
4 239 240 241 242
4 243 244 245 246
4 247 248 249 250
4 251 252 253 254
4 255 256 257 258
4 259 260 261 262
5 5 4 263 2 1
4 264 265 266 267
4 268 269 270 271
4 272 273 274 275
4 276 277 278 279
4 280 281 282 283
6 284 141 140 285 144 143
4 286 287 288 289
